<svg width="270" height="270" viewBox="0 0 270 270" fill="none" xmlns="http://www.w3.org/2000/svg">
<g clip-path="url(#clip0_8190_995)">
<rect width="270" height="270" rx="20" fill="black"/>
<path d="M79.3143 106V55.9H59.2143V45.1429H112.786V55.9H92.6857V106H79.3143ZM86.8571 223.286C69.1143 223.286 60.7571 211.543 60.7571 191.657C60.7571 171.471 69.1143 159.857 87.0286 159.857C103.1 159.857 110.129 167.957 111.671 181.843L99.0286 183.043C97.6143 174.386 94.6143 170.657 86.9857 170.657C78.1143 170.657 74.4714 177.729 74.4714 191.657C74.4714 205.8 78.2 212.486 87.1571 212.486C94.8286 212.486 97.8714 208.5 99.1143 200.1L111.757 201.343C110.086 215.529 103.143 223.286 86.8571 223.286ZM158.458 222V161.143H171.829V185.7H190.429V161.143H203.801V222H190.429V196.586H171.829V222H158.458Z" fill="white"/>
</g>
<defs>
<clipPath id="clip0_8190_995">
<rect width="270" height="270" fill="white"/>
</clipPath>
</defs>
</svg>
