<?xml version="1.0" encoding="UTF-8"?>
<svg id="Layer_1" data-name="Layer 1" xmlns="http://www.w3.org/2000/svg" xmlns:xlink="http://www.w3.org/1999/xlink" viewBox="0 0 1366 768">
  <defs>
    <style>
      .cls-1, .cls-2 {
        fill: #f9df4b;
      }

      .cls-3 {
        clip-path: url(#clippath);
      }

      .cls-4 {
        fill: #000;
      }

      .cls-4, .cls-2 {
        stroke-width: 0px;
      }
    </style>
    <clipPath id="clippath">
      <rect class="cls-2" x="-10" y="-10" width="1386" height="788"/>
    </clipPath>
  </defs>
  <g>
    <rect class="cls-1" x="-10" y="-10" width="1386" height="788"/>
    <g class="cls-3">
      <rect class="cls-2" x="-.35" y="-3.25" width="1366.71" height="779.89"/>
    </g>
  </g>
  <g>
    <path class="cls-4" d="M285.19,138.1v3.44l.47.47h-.47v27.24c0,6.42.31,11.58.94,14.4l-.78.31c-3.13-2.82-5.01-3.29-8.14-3.29-8.3,0-17.06,5.63-33.81,5.48-30.99-.31-51.18-22.07-51.18-54s18.47-54,52.12-54c13.62,0,24.89,3.29,36.47,8.77,0,5.63.78,15.03,3.29,26.45l-2.04.47c-5.95-23.17-19.25-32.87-38.66-32.87-29.43,0-42.11,25.83-42.11,51.65s12.68,50.71,42.73,50.71c15.03.16,27.08-5.95,33.65-8.92v-32.87l-34.44-1.72v-1.72h41.95Z"/>
    <path class="cls-4" d="M358.46,143.1h-39.76l-9.39,25.2c-.94,2.5-1.57,4.7-1.57,6.57,0,3.91,2.82,6.26,11.43,6.73v2.04h-27.55v-2.04c8.3-.63,10.96-4.7,13.62-11.58l33.97-89.06h1.72l35.53,86.09c4.85,11.43,8.3,14.09,15.97,14.56v2.04h-33.03v-2.04c7.2-.47,11.11-2.03,11.11-6.73,0-2.03-.63-4.38-1.88-7.36l-10.17-24.42ZM357.36,140.29l-19.72-47.58-17.84,47.58h37.57Z"/>
    <path class="cls-4" d="M461.22,84.72l.16,1.1c-1.88,7.67-1.57,17.69.16,26.61l-2.03.31c-4.38-18.31-10.64-31.78-29.11-31.78-12.21,0-21.44,6.26-21.44,19.25,0,10.96,6.26,17.37,15.65,23.01l19.25,11.58c10.49,6.26,17.69,13.15,17.69,25.36,0,17.84-13.46,25.98-30.52,25.98-9.39,0-19.72-2.5-27.55-4.7l-1.1-1.1c-.16-9.86-1.41-19.57-3.29-28.33l2.04-.16c5.01,20.04,12.37,31.46,31.15,31.46,11.27,0,21.44-6.57,21.44-21.13,0-9.23-6.26-15.65-15.5-21.29l-19.1-11.43c-10.64-6.26-17.84-13.15-17.84-25.51,0-18,13.3-25.83,30.83-25.83,11.11,0,20.19,2.5,29.11,6.57Z"/>
    <path class="cls-4" d="M538.06,84.72l.16,1.1c-1.88,7.67-1.57,17.69.16,26.61l-2.03.31c-4.38-18.31-10.64-31.78-29.11-31.78-12.21,0-21.44,6.26-21.44,19.25,0,10.96,6.26,17.37,15.65,23.01l19.25,11.58c10.49,6.26,17.69,13.15,17.69,25.36,0,17.84-13.46,25.98-30.52,25.98-9.39,0-19.72-2.5-27.55-4.7l-1.1-1.1c-.16-9.86-1.41-19.57-3.29-28.33l2.04-.16c5.01,20.04,12.37,31.46,31.15,31.46,11.27,0,21.44-6.57,21.44-21.13,0-9.23-6.26-15.65-15.5-21.29l-19.1-11.43c-10.64-6.26-17.84-13.15-17.84-25.51,0-18,13.3-25.83,30.83-25.83,11.11,0,20.19,2.5,29.11,6.57Z"/>
    <path class="cls-4" d="M614.9,84.72l.16,1.1c-1.88,7.67-1.57,17.69.16,26.61l-2.03.31c-4.38-18.31-10.64-31.78-29.11-31.78-12.21,0-21.44,6.26-21.44,19.25,0,10.96,6.26,17.37,15.65,23.01l19.25,11.58c10.49,6.26,17.69,13.15,17.69,25.36,0,17.84-13.46,25.98-30.52,25.98-9.39,0-19.72-2.5-27.55-4.7l-1.1-1.1c-.16-9.86-1.41-19.57-3.29-28.33l2.04-.16c5.01,20.04,12.37,31.46,31.15,31.46,11.27,0,21.44-6.57,21.44-21.13,0-9.23-6.26-15.65-15.5-21.29l-19.1-11.43c-10.64-6.26-17.84-13.15-17.84-25.51,0-18,13.3-25.83,30.83-25.83,11.11,0,20.19,2.5,29.11,6.57Z"/>
    <path class="cls-4" d="M691.73,84.72l.16,1.1c-1.88,7.67-1.57,17.69.16,26.61l-2.03.31c-4.38-18.31-10.64-31.78-29.11-31.78-12.21,0-21.44,6.26-21.44,19.25,0,10.96,6.26,17.37,15.65,23.01l19.25,11.58c10.49,6.26,17.69,13.15,17.69,25.36,0,17.84-13.46,25.98-30.52,25.98-9.39,0-19.72-2.5-27.55-4.7l-1.1-1.1c-.16-9.86-1.41-19.57-3.29-28.33l2.04-.16c5.01,20.04,12.37,31.46,31.15,31.46,11.27,0,21.44-6.57,21.44-21.13,0-9.23-6.26-15.65-15.5-21.29l-19.1-11.43c-10.64-6.26-17.84-13.15-17.84-25.51,0-18,13.3-25.83,30.83-25.83,11.11,0,20.19,2.5,29.11,6.57Z"/>
    <path class="cls-4" d="M769.1,181.61v2.04h-38.5v-2.04c12.37-.94,15.5-2.97,15.5-10.96v-87.34h-15.81c-18.47,0-20.97,10.96-25.98,25.04l-2.5-.63c2.5-7.67,3.76-14.09,3.76-18.78,0-3.29-.63-7.04-1.57-8.77l.47-.78c2.82.78,6.57,1.1,9.55,1.1h71.69c2.82,0,6.57-.31,9.39-1.1l.47.78c-.94,1.72-1.57,5.48-1.57,8.77,0,4.7,1.41,11.11,3.91,18.78l-2.66.63c-4.85-14.09-7.51-25.04-25.83-25.04h-15.97v87.34c0,7.98,3.13,10.02,15.65,10.96Z"/>
    <path class="cls-4" d="M853.97,143.1h-39.76l-9.39,25.2c-.94,2.5-1.57,4.7-1.57,6.57,0,3.91,2.82,6.26,11.43,6.73v2.04h-27.55v-2.04c8.3-.63,10.96-4.7,13.62-11.58l33.97-89.06h1.72l35.53,86.09c4.85,11.43,8.3,14.09,15.97,14.56v2.04h-33.03v-2.04c7.2-.47,11.11-2.03,11.11-6.73,0-2.03-.63-4.38-1.88-7.36l-10.17-24.42ZM852.88,140.29l-19.72-47.58-17.84,47.58h37.57Z"/>
    <path class="cls-4" d="M944.54,181.61v2.04h-38.5v-2.04c12.37-.94,15.5-2.97,15.5-10.96v-87.34h-15.81c-18.47,0-20.97,10.96-25.98,25.04l-2.5-.63c2.5-7.67,3.76-14.09,3.76-18.78,0-3.29-.63-7.04-1.57-8.77l.47-.78c2.82.78,6.57,1.1,9.55,1.1h71.69c2.82,0,6.57-.31,9.39-1.1l.47.78c-.94,1.72-1.57,5.48-1.57,8.77,0,4.7,1.41,11.11,3.91,18.78l-2.66.63c-4.85-14.09-7.51-25.04-25.83-25.04h-15.97v87.34c0,7.98,3.13,10.02,15.65,10.96Z"/>
    <path class="cls-4" d="M977.41,82.69v-2.04h38.5v2.04c-13.46.78-15.5,4.07-15.5,14.56v69.81c0,10.64,2.04,13.77,15.5,14.56v2.04h-38.5v-2.04c13.46-.78,15.5-4.23,15.5-14.56v-69.81c0-10.33-2.04-13.77-15.5-14.56Z"/>
    <path class="cls-4" d="M1068.75,186.15c-31.15,0-51.34-22.85-51.34-53.84s17.84-54.16,51.03-54.16,50.4,20.97,50.4,54.94c0,29.9-16.28,53.06-50.09,53.06ZM1026.48,129.02c-.16,28.17,11.9,54.31,43.51,54.31,34.44,0,39.6-26.92,39.76-50.56,0-23.64-10.96-51.81-42.89-51.81s-40.38,23.48-40.38,48.05Z"/>
    <path class="cls-4" d="M1137.74,85.35h.31v.47l69.5,85.15-.31-77.95c0-8.14-2.82-10.33-17.06-10.49v-1.88h30.83v1.88c-8.61.16-10.8,2.35-10.8,8.92l-.63,81.86.16.31-.31,1.1v8.92h-1.88l-69.34-84.84.63,68.71c0,10.02,2.66,13.93,17.22,14.09v2.04h-34.12v-2.04c11.74-.16,13.93-3.91,13.93-14.09v-71.53l-10.64-12.99c2.66-1.41,4.07-2.97,5.79-4.85h.78l5.95,7.2Z"/>
    <path class="cls-4" d="M1288.87,84.72l.16,1.1c-1.88,7.67-1.57,17.69.16,26.61l-2.03.31c-4.38-18.31-10.64-31.78-29.11-31.78-12.21,0-21.44,6.26-21.44,19.25,0,10.96,6.26,17.37,15.65,23.01l19.25,11.58c10.49,6.26,17.69,13.15,17.69,25.36,0,17.84-13.46,25.98-30.52,25.98-9.39,0-19.72-2.5-27.55-4.7l-1.1-1.1c-.16-9.86-1.41-19.57-3.29-28.33l2.04-.16c5.01,20.04,12.37,31.46,31.15,31.46,11.27,0,21.44-6.57,21.44-21.13,0-9.23-6.26-15.65-15.5-21.29l-19.1-11.43c-10.64-6.26-17.84-13.15-17.84-25.51,0-18,13.3-25.83,30.83-25.83,11.11,0,20.19,2.5,29.11,6.57Z"/>
    <path class="cls-4" d="M697.51,300.36h-34.59l-8.61,21.76c-.94,2.97-1.57,5.01-1.57,6.89,0,5.17,5.01,6.1,15.34,6.57v4.07h-32.71v-4.07c7.36-.63,10.49-5.01,14.09-13.62l34.59-85.62h4.7l35.22,85.93c4.38,10.8,7.51,12.83,14.56,13.3v4.07h-43.2v-4.07c8.3-.16,12.21-2.82,12.21-7.51,0-1.72-.47-3.6-1.41-5.95l-8.61-21.76ZM695.78,296.13l-15.65-39.6-15.5,39.6h31.15Z"/>
    <path class="cls-4" d="M830.87,342.46l-47.11-52.44h-10.8v31.77c0,10.64,2.19,12.83,17.06,13.77v4.07h-46.8v-4.07c11.9-.94,14.09-3.13,14.09-13.77v-67.31c0-10.64-2.19-12.83-14.09-13.77v-4.07h50.09c23.17,0,38.19,6.1,38.19,25.83,0,15.34-11.9,23.17-29.9,25.51l44.45,48.05v3.6c-5.17,0-10.49.94-15.18,2.82ZM790.8,285.8c16.43-.63,23.48-7.83,23.48-22.7s-7.04-21.29-23.48-21.91l-17.84-.78v46.02l17.84-.63Z"/>
    <path class="cls-4" d="M905.84,342.15c-34.28,0-53.06-22.54-53.06-53.53s18.63-53.69,55.72-53.69c34.44,0,53.06,22.7,53.06,53.69s-18.78,53.53-55.72,53.53ZM870.15,284.7c0,29.11,10.33,53.22,39.44,53.22,27.55,0,34.75-21.13,34.75-44.77,0-28.8-8.77-53.84-37.41-53.84s-36.78,21.76-36.78,45.39Z"/>
    <path class="cls-4" d="M1022.77,342.15c-25.98,0-38.04-9.24-38.04-29.9v-60.73c0-8.3-2.19-10.64-13.93-10.96v-3.91h45.39v3.91c-12.21.31-15.81,2.66-15.81,10.8v61.67c0,17.06,9.39,22.07,27.08,22.07s28.02-5.01,28.02-22.07v-61.67c0-8.92-3.29-10.33-15.81-10.8v-3.91h32.87v3.91c-9.39.47-12.68,1.88-12.68,10.96v59.64c0,22.7-11.58,30.99-37.1,30.99Z"/>
    <path class="cls-4" d="M1163.17,315.85l-.47-61.2c-.16-10.8-2.04-13.15-16.59-13.93v-4.07h33.5v4.07c-10.17.78-12.52,3.13-12.52,13.93v84.99h-3.76l-69.97-75.76.47,57.76c.16,10.8,2.03,13.15,16.43,13.93v4.07h-33.65v-4.07c10.64-.78,12.99-3.13,12.99-13.93v-61.83l-13.62-14.71c4.7-2.66,9.23-6.42,11.9-10.17h1.25l74.04,80.92Z"/>
    <path class="cls-4" d="M1184.62,335.58c11.9-.94,14.09-3.13,14.09-13.77v-67.31c0-10.64-2.19-12.83-14.09-13.77v-4.07h52.44c41.63,0,56.82,23.01,56.82,51.5s-15.18,51.5-56.82,51.5h-52.44v-4.07ZM1234.4,334.95c32.09-1.41,42.26-21.91,42.26-46.8s-10.17-45.39-42.26-46.8l-20.04-.94v95.48l20.04-.94Z"/>
    <path class="cls-4" d="M870.94,491.11v4.54h-56.82v-4.54c13.15-.16,16.59-2.35,16.59-10.8v-82.33h-12.83c-15.03,0-16.59,9.39-22.38,26.92l-4.54-.94c2.35-9.23,3.44-16.28,3.44-21.13,0-5.63-1.41-9.08-2.19-10.17l.63-1.25c4.07,1.1,11.27,1.1,20.19,1.1h59.01c8.92,0,16.12,0,20.19-1.1l.63,1.25c-.78,1.1-2.19,4.54-2.19,10.17,0,4.85,1.1,11.9,3.44,21.13l-4.54.94c-5.79-17.53-7.36-26.92-22.38-26.92h-12.83v82.33c0,8.45,3.44,10.64,16.59,10.8Z"/>
    <path class="cls-4" d="M956.56,498.15c-37.88,0-56.98-22.23-56.98-53.38s18.31-54.63,56.98-54.63,56.97,23.48,56.97,54.63-19.1,53.38-56.97,53.38ZM925.57,437.73c0,29.43,5.48,54.94,32.56,54.94,21.44,0,29.43-17.53,29.43-40.85,0-27.55-2.5-56.19-31.3-56.19-24.1,0-30.68,19.25-30.68,42.11Z"/>
    <path class="cls-4" d="M1063.31,500.03l-30.68-91.57c-3.29-9.86-6.73-11.11-13.62-11.9v-3.91h49.93v3.91c-10.64,1.1-12.52,3.91-9.86,11.9l23.17,69.65,20.97-61.36-2.66-7.98c-3.29-9.71-5.01-11.11-14.71-12.21v-3.91h52.91v3.91c-11.74.63-13.62,6.1-10.02,17.84l19.72,63.39,20.19-64.49c3.6-11.27.16-16.12-12.21-16.75v-3.91h31.46v3.91c-6.1.63-10.02,2.97-13.93,15.03l-23.64,72.31,3.6,11.74c-8.77,0-17.22,1.1-24.89,4.38l-23.79-76.38-21.13,60.26,4.07,11.74c-8.77,0-17.22,1.1-24.89,4.38Z"/>
    <path class="cls-4" d="M1281.82,462.31v-50.71c0-10.8-2.66-13.77-19.72-14.4v-4.54h36.16v4.54c-9.55.78-11.9,3.76-11.9,14.4v84.05h-4.54l-72.47-71.53v52.59c0,10.8,2.5,13.77,18,14.4v4.54h-37.1v-4.54c12.05-.78,14.24-3.76,14.24-14.4v-57.29l-14.24-14.09c7.04-4.23,12.37-9.39,16.28-15.34h2.19l73.1,72.31Z"/>
  </g>
</svg>