<?xml version='1.0' encoding='UTF-8'?>
<svg xmlns="http://www.w3.org/2000/svg" xmlns:xlink="http://www.w3.org/1999/xlink" width="1366px" height="768px" viewBox="0 0 1366 768" x="0px" y="0px" enable-background="new 0 0 1366 768"><defs><symbol overflow="visible" id="dc2d26f8a"><path d="M2.4-9.9H1.28V0H2.4zm0 0"/></symbol><symbol overflow="visible" id="dc2d26f8b"><path d="M7.6-9.9H.3v1.03h3.1V0h1.15v-8.88H7.6zm0 0"/></symbol><symbol overflow="visible" id="dc2d26f8c"><path d="M7.34 0h1.24L5.03-9.9H3.78L.13 0h1.23l.97-2.72H6.4zM2.7-3.77L4.4-8.63l1.65 4.86zm0 0"/></symbol><symbol overflow="visible" id="dc2d26f8d"><path d="M2.44-1.05V-9.9H1.27V0h5.62v-1.05zm0 0"/></symbol><symbol overflow="visible" id="dc2d26f8e"><path d="M7.8-9.9v8.92L3.02-9.91H1.27V0h1.09v-8.9L7.13 0h1.75v-9.9zm0 0"/></symbol><symbol overflow="visible" id="dc2d26f8g"><path d="M4.77-5.13v1.04h3.25C8-2.13 6.88-.86 5.03-.86c-1.92 0-3.2-1.5-3.2-4.08 0-2.54 1.3-4.1 3.15-4.1 1.46 0 2.27.65 2.7 1.8H8.9C8.36-9.2 6.94-10.07 5-10.07 2.4-10.08.67-7.97.67-4.94.67-1.89 2.42.17 5.03.17c1.61 0 2.58-.8 3.06-1.98V0h1.04l.01-5.13zm0 0"/></symbol><symbol overflow="visible" id="dc2d26f8h"><path d="M7.72-9.9v4.23H2.4v-4.24H1.27V0H2.4v-4.64h5.3V0h1.17v-9.9zm0 0"/></symbol><symbol overflow="visible" id="dc2d26f8i"><path d="M11.83-4.3H.28v1.05h11.55zm0 0"/></symbol><symbol overflow="visible" id="dc2d26f8j"><path d="M2.63-9.9c-.24 1.03-.7 1.65-2.3 1.71v1.02c1.01 0 1.64-.16 2.12-.63V0h1.17v-9.9zm0 0"/></symbol><symbol overflow="visible" id="dc2d26f8k"><path d="M5.67-5.14c.9-.4 1.31-1.22 1.31-2.25 0-1.58-1.28-2.69-3-2.69A3.03 3.03 0 00.83-7.23h1.12c.14-1.24.97-1.8 2.02-1.8 1.1 0 1.86.67 1.86 1.7 0 .96-.56 1.74-2.16 1.74h-.76v1.07h.76c1.74 0 2.4.66 2.4 1.75 0 1.07-.76 1.91-2.13 1.91-1.4 0-2.16-.75-2.24-2H.6C.6-1.08 1.71.17 3.91.17c2.16 0 3.33-1.37 3.33-2.94 0-1.21-.6-2.04-1.58-2.37zm0 0"/></symbol><symbol overflow="visible" id="dc2d26f8l"><path d="M4.42.17c2.33 0 3.7-2.1 3.7-5.1 0-3-1.37-5.15-3.7-5.15-2.34 0-3.7 2.16-3.7 5.16 0 2.98 1.36 5.1 3.7 5.1zm0-1.08c-1.67 0-2.58-1.54-2.58-4.01C1.84-7.41 2.75-9 4.42-9c1.66 0 2.56 1.6 2.56 4.08 0 2.47-.9 4.01-2.56 4.01zm0 0"/></symbol><symbol overflow="visible" id="dc2d26f8m"><path d="M5.1-9.9H1.26V0h1.15v-4.33h2.56c2.13 0 3.18-1.19 3.18-2.81 0-1.7-.96-2.77-3.07-2.77zm-.2 4.54H2.41v-3.5H4.9C6.36-8.86 7-8.25 7-7.14c0 1.06-.64 1.78-2.1 1.78zm0 0"/></symbol><symbol overflow="visible" id="dc2d26f8n"><path d="M4.4.17C6.68.17 7.95-1 7.95-2.73c0-1.43-.88-2.3-2.4-2.66l-2.09-.52c-1.06-.26-1.4-.75-1.4-1.46 0-.94.75-1.66 2.08-1.66 1.37 0 2.28.6 2.45 1.9H7.8c-.2-2.03-1.63-2.95-3.64-2.95C2.1-10.08.83-8.83.83-7.23c0 1.3.75 2.18 2.1 2.51l2.16.5c1.1.27 1.64.78 1.64 1.66 0 .95-.75 1.7-2.32 1.7-1.5 0-2.49-.69-2.66-2.08H.53C.72-.95 1.97.17 4.41.17zm0 0"/></symbol><symbol overflow="visible" id="dc2d26f8ai"><path d="M7.4-9.9L4.38-1.54 1.4-9.91H.17L3.84 0h1.04l3.76-9.9zm0 0"/></symbol><symbol overflow="visible" id="dc2d26f8aj"><path d="M7.67-8.84v-1.07h-6.4V0h6.4v-1.05H2.41v-3.5h4.68v-1.03H2.41v-3.26zm0 0"/></symbol><symbol overflow="visible" id="dc2d26f8ak"><path d="M7.38 0h1.3l-3-4.45c1.71-.22 2.48-1.24 2.48-2.72 0-1.67-.97-2.74-3.08-2.74H1.27V0h1.15v-4.33h2.02zM2.42-8.86h2.49C6.27-8.86 7-8.3 7-7.17c0 1.15-.7 1.81-2.06 1.81H2.42zm0 0"/></symbol><symbol overflow="visible" id="dc2d26f8al"><path d="M4.98.17c2.57 0 4.33-2.06 4.33-5.1 0-3.07-1.76-5.15-4.33-5.15-2.54 0-4.3 2.08-4.3 5.14C.67-1.89 2.43.17 4.97.17zm0-1.03c-1.9 0-3.15-1.56-3.15-4.08 0-2.54 1.25-4.1 3.15-4.1 1.93 0 3.18 1.56 3.18 4.1 0 2.52-1.25 4.08-3.18 4.08zm0 0"/></symbol><symbol overflow="visible" id="dc2d26f8am"><path d="M8.81-9.9H7.67v6.1C7.67-1.86 6.55-.9 5-.9c-1.63 0-2.7-1-2.7-2.94v-6.07H1.16v6.07C1.16-1.2 2.66.17 4.98.17c2.35 0 3.83-1.34 3.83-4.01zm0 0"/></symbol><symbol overflow="visible" id="dc2d26f8an"><path d="M2.3-.58c0-.6-.36-.9-.78-.9a.8.8 0 00-.8.82c0 .33.19.6.44.75l.18.1c-.12.53-.28.92-.62 1.72h.72c.6-1.2.86-1.99.86-2.49zm0 0"/></symbol><symbol overflow="visible" id="dc2d26f8ao"><path d="M11.6-9.9L9.37-1.78 6.98-9.9H5.9L3.67-1.78 1.34-9.91H.17L3.11 0h1.14l2.17-8.23L8.8 0h1.12l2.81-9.9zm0 0"/></symbol><symbol overflow="visible" id="dc2d26f8ap"><path d="M4.23-9.9H1.27V0h2.96c2.64 0 4.52-1.9 4.52-4.94C8.75-8 6.87-9.9 4.23-9.9zm-.17 8.87H2.41v-7.83h1.65c2.24 0 3.53 1.44 3.53 3.92 0 2.46-1.32 3.9-3.53 3.9zm0 0"/></symbol><symbol overflow="visible" id="dc2d26f8aq"><path d="M8.27 0L4.9-5.22 8-9.9H6.68L4.2-5.97 1.7-9.9H.34l3.1 4.77L.08 0h1.34l2.7-4.33L6.95 0zm0 0"/></symbol><symbol overflow="visible" id="dc2d26f8o"><path d="M12.6-77.88c0-2.28.6-4.8 4.2-6v-.48H6v.48c3.48 1.2 3.95 3.72 3.95 6v71.4c0 2.28-.47 4.8-3.95 6V0h10.8v-.48c-3.6-1.2-4.2-3.72-4.2-6zm0 0"/></symbol><symbol overflow="visible" id="dc2d26f8q"><path d="M47.4 1.2c26.52 0 43.44-18.36 43.44-43.33 0-24.23-14.76-43.67-43.56-43.67-25.92 0-43.33 18.6-43.33 44.16C3.95-18.48 20.41 1.2 47.41 1.2zM6.85-42.6c0-24.48 13.8-42.6 40.32-42.6 28.8 0 40.8 20.89 40.8 44.64C87.95-19.7 74.63.59 47.4.59 20.16.6 6.84-21.12 6.84-42.59zm0 0"/></symbol><symbol overflow="visible" id="dc2d26f8r"><path d="M73.92-77.88c1.08-2.4 2.64-5.04 3.95-6v-.48H73.2v.36c.36.6.49 1.56.49 2.77 0 1.43-.38 3.23-1.1 5.03L41.3-2.52 9.22-78.23c-.82-1.93-1.43-4.2-1.43-5.64v-.49H2.64v.48c1.67 1.44 3.13 4.2 4.67 7.93L39.95 1.44h.25zm0 0"/></symbol><symbol overflow="visible" id="dc2d26f8s"><path d="M47.64-8.16l-.48-.12C44.05-2.52 40.56-.6 36-.6H12.6v-39.85H36c2.28 0 3.6.6 6 5.16h.48v-10.8H42c-2.4 4.56-3.72 5.03-6 5.03H12.6v-42.72h20.04c4.67 0 6.23 2.29 8.88 6.49l.48-.13-2.52-6.95H6v.48c3.48 1.2 3.95 3.72 3.95 6v71.4c0 2.28-.47 4.8-3.95 6V0h38.77zm0 0"/></symbol><symbol overflow="visible" id="dc2d26f8t"><path d="M53.05-12.23c-4.92-8.77-8.9-11.64-19.1-11.64h-1.8C48-27 57.73-39.73 57.73-54.84c0-18-12.84-29.52-30.84-29.52H6v.48c3.48 1.2 3.95 3.72 3.95 6v71.4c0 2.28-.47 4.8-3.95 6V0h10.8v-.48c-3.6-1.2-4.2-3.72-4.2-6v-17.88c3.6.48 9 .95 13.09.95 15.36 0 18 0 23.26 9.36l4.33 7.7C55.8-1.8 58.8 0 63.6 0v-.48c-2.64 0-4.43-.96-6.36-4.32zM26.88-83.87c17.28 0 28.2 12.95 28.2 29.03 0 17.76-11.28 30.97-29.4 30.97-4.68 0-9.12-.49-13.09-.97v-59.03zm0 0"/></symbol><symbol overflow="visible" id="dc2d26f8u"><path d="M9-63.6C9-83.76 32.16-85.3 48.13-85.3c19.56 0 34.18 5.62 41.74 10.8h.72L90-77.78c-6.84-3-19.92-8.03-41.88-8.03C31.2-85.8 7.2-83.52 7.2-63.6c0 13.8 13.2 17.88 26.75 19.91l27.13 4.1c18 2.75 30 5.28 30 19.67C91.08-3.23 71.28.84 51 .84 28.69.84 13.08-6.48 5.64-12.84l-.84.36.6 3.25C13.09-3.72 30 1.44 50.4 1.44c21.83 0 42.37-3.85 42.37-21.36 0-16.56-12.97-19.67-31.93-22.44L34.08-46.3C21.23-48.23 9-52.31 9-63.6zm0 0"/></symbol><symbol overflow="visible" id="dc2d26f8v"><path d="M38.05-4.69c-1.7 3.85-3.85 4.2-12 4.2H9.48v-74.74c0-8.18.83-8.64.83-8.64v-.49H6v.48s.84.47.84 6.47v68.28C6.84-.95 6-.47 6-.47V0h32.52v-4.69zm0 0"/></symbol><symbol overflow="visible" id="dc2d26f8w"><path d="M23.4-23.4c17.29 0 31.2-12.83 31.2-30.24 0-17.4-13.8-30.72-31.2-30.72H6v.48s.84.47.84 6.47v68.28C6.84-.95 6-.47 6-.47V0h4.31v-.48s-.83-.47-.83-8.64v-14.29zm-13.92-.48v-60H22.2c17.28 0 29.75 14.16 29.75 30.24S39.48-23.87 22.2-23.87zm0 0"/></symbol><symbol overflow="visible" id="dc2d26f8x"><path d="M1.56-84.36v4.2h.49c.72-1.2 3-3.72 12.72-3.72h29.51v74.75c0 8.18-1.08 8.65-1.08 8.65V0H48v-.48s-1.08-.47-1.08-8.64v-74.75h30c9.72 0 12 2.51 12.72 3.71h.48v-4.2zm0 0"/></symbol><symbol overflow="visible" id="dc2d26f8y"><path d="M138.84-77.28a32.52 32.52 0 015.16-6.6v-.48h-5.64v.48c.48.83.84 1.68.84 2.75 0 1.82-1.07 3.72-2.28 5.65L91.56-1.2 71.87-32.88l26.05-44.04c2.52-4.31 4.2-6.13 5.4-6.95v-.49H97.8v.48c.6.36.97 1.2.97 2.29 0 1.3-1.08 3.47-2.64 6.1l-24.49 42-24.48-42.35c-1.93-3.24-3.11-6.85-3.11-8.03v-.49H39v.48c1.2 1.2 3.13 4.32 5.64 8.65L70.2-30.84 52.7-1.2 8.16-75.95c-1.8-3-3.11-6.97-3.11-7.92v-.49H0v.48c1.44 1.68 3 4.2 5.77 8.88L51.36 1.44h.36l18.84-31.67 19.8 31.67h.23zm0 0"/></symbol><symbol overflow="visible" id="dc2d26f8z"><path d="M70.92-77.88c0-2.28.6-4.8 4.2-6v-.48h-10.8v.48c3.48 1.2 3.96 3.72 3.96 6v36.83H12.6v-36.83c0-2.28.61-4.8 4.2-6v-.48H6v.48c3.48 1.2 3.95 3.72 3.95 6v71.4c0 2.28-.47 4.8-3.95 6V0h10.8v-.48c-3.6-1.2-4.2-3.72-4.2-6v-33.96h55.68v33.96c0 2.28-.48 4.8-3.97 6V0h10.81v-.48c-3.6-1.2-4.2-3.72-4.2-6zm0 0"/></symbol><symbol overflow="visible" id="dc2d26f8A"><path d="M87.95-71.77c0-5.64.74-9.59 2.05-12.1v-.49h-4.69v.48c1.56 2.4 2.17 6.96 2.17 12.24v69.36L7.56-84.36H2.41v.48c1.9.6 3.71 1.68 5.51 3.47v67.7c0 5.27-.6 9.84-2.15 12.23V0h4.67v-.48C9.13-3 8.4-6.95 8.4-12.6v-67.33L87.59 1.44h.36zm0 0"/></symbol><symbol overflow="visible" id="dc2d26f8B"><path d="M2.64-84.36v4.2h.48c.72-1.2 3-3.72 12.72-3.72h10.68v74.75c0 8.18-1.08 8.65-1.08 8.65V0h4.8v-.48s-1.08-.47-1.08-8.64v-74.75h10.43c9.72 0 12 2.51 12.72 3.71h.49v-4.2zm0 0"/></symbol><symbol overflow="visible" id="dc2d26f8C"><path d="M65.88-7.56c1.2 2.87 2.04 5.4-2.04 7.08V0h10.68v-.48C71.64-2.05 70.8-3.13 69-7.56l-32.05-76.8h-6.23v.48a7.86 7.86 0 015.16 4.68l1.32 3L6.48-6.84C4.92-3.48 3.6-1.8.95-.48V0h10.46v-.48C8.77-1.56 7.08-2.88 7.08-4.8c0-1.2.48-2.51 1.56-5.15l2.88-6.74h50.64zM37.55-75.48l24.36 58.2H11.77zm0 0"/></symbol><symbol overflow="visible" id="dc2d26f8D"><path d="M12.6-77.88c0-2.28.48-4.8 3.96-6v-.48H6v.48c3.48 1.2 3.95 3.72 3.95 6v71.4c0 2.28-.47 4.8-3.95 6V0h10.56v-.48c-3.48-1.2-3.97-3.72-3.97-6zm0 0"/></symbol><symbol overflow="visible" id="dc2d26f8E"><path d="M8.16-76.08L62.28 1.44h.36v-79.31c0-2.29.6-3.61 5.16-6v-.49H57v.48c4.56 2.4 5.05 3.72 5.05 6v73.32L6.23-84.36H2.41v.6l5.15 6.71v70.57c0 2.28-.6 3.6-5.15 6V0h10.8v-.48c-4.57-2.4-5.05-3.72-5.05-6zm0 0"/></symbol><symbol overflow="visible" id="dc2d26f8F"><path d="M67.69 0C85.08 0 93-8.28 93-21.36c0-13.2-10.08-20.05-20.4-20.87 12.84-.13 24.24-7.57 24.24-20.9 0-16.67-13.43-21.23-30.84-21.23H4.44v.48s.84.47.84 6.47v70.57c0 5.76-.84 6.36-.84 6.36V0zM7.92-42.48v-41.4h56.64c20.52 0 29.64 6.72 29.64 20.29 0 14.51-9.72 21.23-27.48 21.23zm0 .48h61.92c11.52 0 20.52 7.56 20.52 20.88 0 12-6.23 20.64-23.16 20.64H7.92zm0 0"/></symbol><symbol overflow="visible" id="dc2d26f8G"><path d="M25.08-83.88c7.08 0 8.28 1.44 9.6 4.2h.48v-4.68H6v.48c.6.96 1.08 2.52 1.08 8.65v66.1C7.08-2.04 6.36-.84 6-.47V0h32.77v-4.69h-.49c-1.69 3.85-3.84 4.2-12 4.2H9.72v-39.95h15.72c5.51 0 6.48.96 8.04 2.52h.47v-6h-.47c-1.56 1.92-2.53 3-8.04 3H9.72v-42.95zm0 0"/></symbol><symbol overflow="visible" id="dc2d26f8H"><path d="M45-84.36c-22.56 0-41.05 15.84-41.05 43.56 0 26.75 17.28 42.24 43.33 42.24 5.28 0 8.28-.49 10.8-1.08v-42.48H52.8v.48c1.8.72 2.76 2.64 2.76 12.36V-.95C54 .12 50.41.95 47.64.95 23.28.95 6.6-15.95 6.6-40.8c0-25.8 16.57-43.08 38.05-43.08 7.08 0 13.31 1.08 18.13 5.65h.46v-4.33A85.16 85.16 0 0045-84.36zm0 0"/></symbol><symbol overflow="visible" id="dc2d26f8I"><path d="M95.28-71.77c0-5.64.72-9.59 2.03-12.1v-.49h-4.67v.48c1.56 2.4 2.16 6.96 2.16 12.24v33.72C94.8-10.8 77.64 0 52.8 0 29.88 0 12.72-10.8 12.72-37.92v-39.49c0-5.87.84-6.47.84-6.47v-.48H9.23v.48s.85.47.85 6.47v39.49c0 26.76 16.69 39.36 42.72 39.36 25.56 0 42.48-11.52 42.48-39.36zm0 0"/></symbol><symbol overflow="visible" id="dc2d26f8J"><path d="M10.56 1.44A2.67 2.67 0 017.92-1.2c0-1.44 1.2-2.64 2.64-2.64 1.44 0 2.64 1.2 2.64 2.64 0 1.43-1.2 2.64-2.64 2.64zm0 0"/></symbol><symbol overflow="visible" id="dc2d26f8Q"><path d="M43.08-83.88c9.72 0 12 .6 12.72 1.8h.48v-2.28H1.8v2.28h.48c.72-1.2 3-1.8 12.72-1.8h10.69v74.75c0 8.18-.85 8.65-.85 8.65V0h4.32v-.48s-.85-.36-.85-6.36v-77.03zm3.97 28.08c0-2.28.6-4.8 4.18-6v-.48h-10.8v.48c3.5 1.2 3.98 3.72 3.98 6v49.32c0 2.28-.49 4.8-3.97 6V0h10.8v-.48c-3.6-1.2-4.2-3.72-4.2-6zm0 0"/></symbol><symbol overflow="visible" id="dc2d26f8U"><path d="M90.72-76.92c1.69-3.24 3-5.4 4.44-6.95v-.49H91.3v.48c.38.24.85.72.85 1.8 0 .95-1.32 3.6-3 6.85l-23.52 45.1L42.6-75.84c-3.1-6.24-3.1-8.03-3.1-8.03v-.49h-5.05v.48s1.69.83 5.64 8.65L64.2-27.48 50.52-1.2 10.8-75.95c-1.44-2.77-2.03-4.46-2.03-5.64 0-.85.46-1.46 1.18-2.28v-.49h-7.3v.48c1.2.83 2.4 2.65 5.76 8.88L49.2 1.44h.48l14.87-28.32L78.84 1.45h.24l42.23-78.72c2.17-3.95 3.38-5.4 4.69-6.6v-.48h-5.77v.48c.61.6 1.2 1.68 1.2 3.36a9.3 9.3 0 01-1.2 4.08L79.93-1.56 65.86-29.52zm0 0"/></symbol><symbol overflow="visible" id="dc2d26f8V"><path d="M6.95-66.6c0-10.8 6.36-18.6 19.57-18.6 6.36 0 11.4 1.33 14.89 5.28.72.72 1.18 1.33 3.23 3.97h.48L43.7-82.8c-4.56-1.8-10.69-3-17.17-3-14.16 0-21.72 8.52-21.72 19.32 0 10.68 4.92 16.2 12.72 21l14.64 9c7.32 4.56 11.28 10.07 11.28 18.35C43.44-7.2 36.59.73 23.77.73 16.2.72 10.92-2.05 8.05-5.52a104.21 104.21 0 01-5.77-7.68H1.8L3.36-6c4.2 3.84 11.28 7.44 20.4 7.44 14.16 0 21.83-8.64 21.83-20.75 0-9.25-4.18-15.13-12.36-20.17l-14.75-9C12.23-52.31 6.95-57.72 6.95-66.6zm0 0"/></symbol><symbol overflow="visible" id="dc2d26f8W"><path d="M42.72-62.88c0-13.92-9.6-21.48-24.24-21.48H6v.48c.6.6 1.08 3.11 1.08 8.65v66.1c0 5.54-.49 8.05-1.08 8.65V0h10.31c15.97 0 26.4-7.2 26.4-21.6C42.72-35.27 32.17-41.27 21-42c10.2-.72 21.72-7.44 21.72-20.88zm-2.52 0c0 13.08-9.97 20.65-22.92 20.65H9.72v-41.65h8.76c12.96 0 21.72 8.16 21.72 21zm-.12 41.29C40.08-8.52 31.8-.5 16.92-.5h-7.2v-41.15h7.44c13.56 0 22.92 7.08 22.92 20.05zm0 0"/></symbol><symbol overflow="visible" id="dc2d26f8X"><path d="M67.08-72.84c0-4.8.97-9.47 2.05-11.03v-.49h-4.7v.48c1.21 1.57 2.05 6.24 2.05 11.04v44.53c0 18.1-11.04 27.95-29.28 27.95-17.51 0-27.12-9.12-27.12-28.33V-77.4c0-5.87.84-6.47.84-6.47v-.48H6.6v.48s.85.47.85 6.47v49.1C7.44-8.28 18.36 1.44 37.2 1.44c20.16 0 29.88-10.92 29.88-29.75zm0 0"/></symbol><symbol overflow="visible" id="dc2d26f8Y"><path d="M2.64-84.36v4.2h.48c.72-1.2 3-3.72 12.72-3.72h10.68v74.75c0 8.18-1.08 8.65-1.08 8.65V0h4.8v-.48s-1.08-.47-1.08-8.64v-74.75h10.43c9.72 0 12 2.51 12.72 3.71h.49v-4.2zm0 0"/></symbol><symbol overflow="visible" id="dc2d26f8Z"><path d="M13.31-75c-2.62-3.84-3.47-5.77-3.47-6.84 0-1.08.6-1.68 1.32-2.03v-.49H2.64v.48c1.31.47 2.05.96 6.6 7.68l23.28 34.33v35.39c0 2.28-.47 4.8-3.96 6V0h10.57v-.48c-3.49-1.2-3.97-3.72-3.97-6v-35.4l23.53-34.68c2.26-3.36 4.08-6 5.15-7.31v-.49H58.2v.48c1.2.72 1.8 1.57 1.8 3.11 0 .85-.6 2.18-1.2 3L35.16-42.84zm0 0"/></symbol><symbol overflow="visible" id="dc2d26f8K"><path d="M65.22-7.56c1.19 2.87 2.01 5.4-2.02 7.08V0h10.57v-.48c-2.85-1.57-3.68-2.65-5.46-7.08L36.6-84.36h-6.18v.48a7.83 7.83 0 015.1 4.68l1.32 3L6.43-6.84C4.87-3.48 3.55-1.8.94-.48V0h10.33v-.48c-2.6-1.08-4.26-2.4-4.26-4.32 0-1.2.46-2.51 1.53-5.15l2.86-6.74h50.12zM37.19-75.48l24.1 58.2H11.65zm0 0"/></symbol><symbol overflow="visible" id="dc2d26f8L"><path d="M56.67-5.88c-3.45 3.83-6.19 5.4-14.26 5.4H9.39v-74.75c0-8.18.83-8.64.83-8.64v-.49H5.94v.48s.83.47.83 6.47v68.28c0 8.18-.83 8.65-.83 8.65V0h48.83l2.37-5.88zM33.5-18.48v-56.75c0-8.18.83-8.64.83-8.64v-.49h-4.27v.48s.83.47.83 6.47v52.57c0 5.76-.83 6.36-.83 6.36v.48H57.5v-4.69h-.48c-1.43 2.9-2.49 4.2-9.97 4.2zm0 0"/></symbol><symbol overflow="visible" id="dc2d26f8N"><path d="M12.47-77.88c0-2.28.6-4.8 4.15-6v-.48H5.95v.48c3.45 1.2 3.92 3.72 3.92 6v71.4c0 2.28-.47 4.8-3.92 6V0h10.68v-.48c-3.56-1.2-4.15-3.72-4.15-6zm0 0"/></symbol><symbol overflow="visible" id="dc2d26f8O"><path d="M8.08-76.08L61.66 1.44h.36v-79.31c0-2.29.59-3.61 5.1-6v-.49h-10.7v.48c4.52 2.4 5 3.72 5 6v73.32L6.17-84.36h-3.8v.6l5.11 6.71v70.57c0 2.28-.59 3.6-5.1 6V0h10.68v-.48c-4.51-2.4-4.98-3.72-4.98-6zm0 0"/></symbol><symbol overflow="visible" id="dc2d26f8P"><path d="M46.92 1.2c26.25 0 43-18.36 43-43.33 0-24.23-14.6-43.67-43.1-43.67-25.68 0-42.9 18.6-42.9 44.16 0 23.16 16.28 42.84 43 42.84zM6.77-42.6c0-24.48 13.67-42.6 39.92-42.6 28.51 0 40.39 20.89 40.39 44.64C87.08-19.7 73.89.59 46.92.59S6.77-21.12 6.77-42.59zm0 0"/></symbol><symbol overflow="visible" id="dc2d26f8R"><path d="M6.3-42.36c0-25.8 21.14-42.95 48.47-42.95 16.87 0 30.06 6.36 36.82 12.6h.47v-3.73c-6.4-3.84-18.4-9.36-37.3-9.36C27.45-85.8 3.7-69.72 3.7-42.36c0 27.95 24.83 43.8 51.54 43.8 19.85 0 31.97-5.88 36.96-9.36v-2.28h-.47C86.84-6.6 73.17.95 55.23.95 29.11.95 6.3-15.35 6.3-42.35zm0 0"/></symbol><symbol overflow="visible" id="dc2d26f8S"><path d="M47.16-8.16l-.47-.12C43.59-2.52 40.16-.6 35.64-.6H12.47v-39.85h23.17c2.25 0 3.56.6 5.94 5.16h.47v-10.8h-.47c-2.38 4.56-3.69 5.03-5.94 5.03H12.47v-42.72H32.3c4.64 0 6.17 2.29 8.8 6.49l.47-.13-2.5-6.95H5.94v.48c3.45 1.2 3.92 3.72 3.92 6v71.4c0 2.28-.47 4.8-3.92 6V0H44.3zm0 0"/></symbol><symbol overflow="visible" id="dc2d26f8T"><path d="M9.14-83.88s.84.47.84 6.47v68.28c0 8.18-.84 8.65-.84 8.65V0h38.61c30.19 0 50.38-14.4 50.38-43.56 0-24.72-20.2-40.8-49.43-40.8H9.14zM12.6-.47v-83.4h35.16c28.52 0 47.77 16.93 47.77 40.32 0 28.2-19.25 43.08-48.96 43.08zm0 0"/></symbol><symbol overflow="visible" id="dc2d26f8aa"><path d="M27.44-83.88c9.62 0 11.89.6 12.6 1.8h.48v-2.28H5.94v.48s.83.47.83 6.47v68.28c0 8.18-.83 8.65-.83 8.65V0h4.39v-.48c-.6-.6-.94-2.88-.94-8.64V-40.2h26.84c5.7 0 6.18.6 6.77 1.56h.48v-3.6H43c-.6 1.08-1.06 1.55-6.77 1.55H9.4v-43.19zm0 0"/></symbol><symbol overflow="visible" id="dc2d26f8ab"><path d="M2.6-84.36v4.2h.5c.7-1.2 2.96-3.72 12.59-3.72h10.56v74.75c0 8.18-1.06 8.65-1.06 8.65V0h4.75v-.48s-1.07-.47-1.07-8.64v-74.75H39.2c9.63 0 11.88 2.51 12.6 3.71h.47v-4.2zm0 0"/></symbol><symbol overflow="visible" id="dc2d26f8ac"><path d="M70.2-77.88c0-2.28.6-4.8 4.16-6v-.48H63.67v.48c3.45 1.2 3.92 3.72 3.92 6v36.83H12.47v-36.83c0-2.28.6-4.8 4.15-6v-.48H5.95v.48c3.45 1.2 3.92 3.72 3.92 6v71.4c0 2.28-.47 4.8-3.92 6V0h10.68v-.48c-3.56-1.2-4.15-3.72-4.15-6v-33.96h55.12v33.96c0 2.28-.47 4.8-3.92 6V0h10.69v-.48c-3.56-1.2-4.16-3.72-4.16-6zm0 0"/></symbol><symbol overflow="visible" id="dc2d26f8ad"><path d="M12.47-77.88c0-2.28.48-4.8 3.92-6v-.48H5.94v.48c3.45 1.2 3.92 3.72 3.92 6v71.4c0 2.28-.47 4.8-3.92 6V0h10.45v-.48c-3.44-1.2-3.92-3.72-3.92-6zm0 0"/></symbol><symbol overflow="visible" id="dc2d26f8ae"><path d="M52.52-12.23c-4.88-8.77-8.8-11.64-18.9-11.64h-1.78c15.68-3.13 25.3-15.85 25.3-30.97 0-18-12.7-29.52-30.53-29.52H5.94v.48c3.45 1.2 3.92 3.72 3.92 6v71.4c0 2.28-.47 4.8-3.92 6V0h10.68v-.48c-3.56-1.2-4.15-3.72-4.15-6v-17.88c3.56.48 8.92.95 12.95.95 15.2 0 17.81 0 23.05 9.36l4.28 7.7C55.23-1.8 58.2 0 62.97 0v-.48c-2.63 0-4.4-.96-6.3-4.32zM26.6-83.87c17.1 0 27.92 12.95 27.92 29.03 0 17.76-11.17 30.97-29.1 30.97-4.63 0-9.04-.49-12.96-.97v-59.03zm0 0"/></symbol><symbol overflow="visible" id="dc2d26f8af"><path d="M46.92 1.2c26.25 0 43-18.36 43-43.33 0-24.23-14.6-43.67-43.1-43.67-25.68 0-42.9 18.6-42.9 44.16 0 23.16 16.28 42.84 43 42.84zM6.77-42.6c0-24.48 13.67-42.6 39.92-42.6 28.51 0 40.39 20.89 40.39 44.64C87.08-19.7 73.89.59 46.92.59S6.77-21.12 6.77-42.59zm0 0"/></symbol><symbol overflow="visible" id="dc2d26f8ag"><path d="M44.19-54.13a30.16 30.16 0 00-30.17-30.23H5.94v.48s1.31.47 1.31 6.96v69.48c0 6.49-1.31 6.96-1.31 6.96V0h5.23v-.48S9.86-.95 9.86-9.12v-14.29h4.16c17.23 0 30.17-13.07 30.17-30.71zm-2.61 0c0 15.72-11.17 30.26-27.56 30.26H9.86v-60h4.16c16.04 0 27.56 14.15 27.56 29.75zm0 0"/></symbol><symbol overflow="visible" id="dc2d26f8ah"><path d="M6.9-66.6c0-10.8 6.29-18.6 19.35-18.6 6.3 0 11.3 1.33 14.73 5.28.72.72 1.2 1.33 3.2 3.97h.5l-1.45-6.85c-4.5-1.8-10.56-3-16.98-3-14.02 0-21.5 8.52-21.5 19.32 0 10.68 4.88 16.2 12.6 21l14.5 9C39.07-31.92 43-26.41 43-18.13 43-7.2 36.23.73 23.52.73c-7.49 0-12.7-2.77-15.57-6.24-1.89-2.28-3.43-4.43-5.7-7.68h-.47L3.33-6C7.48-2.16 14.5 1.44 23.52 1.44c14.03 0 21.62-8.64 21.62-20.75 0-9.25-4.16-15.13-12.23-20.17l-14.61-9C12.12-52.31 6.9-57.72 6.9-66.6zm0 0"/></symbol></defs><path fill="#fdfaf5" d="M0 0h1366v768H0z"/><g fill="#1a26cd"><use xlink:href="#dc2d26f8a" x="77" y="727.9854"/><use xlink:href="#dc2d26f8b" x="81.007801" y="727.9854"/><use xlink:href="#dc2d26f8c" x="89.269615" y="727.9854"/><use xlink:href="#dc2d26f8d" x="98.379496" y="727.9854"/><use xlink:href="#dc2d26f8a" x="105.847957" y="727.9854"/><use xlink:href="#dc2d26f8c" x="109.855757" y="727.9854"/><use xlink:href="#dc2d26f8e" x="118.965638" y="727.9854"/><use xlink:href="#dc2d26f8f" x="129.443369" y="727.9854"/><use xlink:href="#dc2d26f8d" x="133.122886" y="727.9854"/><use xlink:href="#dc2d26f8a" x="140.591347" y="727.9854"/><use xlink:href="#dc2d26f8g" x="144.599147" y="727.9854"/><use xlink:href="#dc2d26f8h" x="154.899058" y="727.9854"/><use xlink:href="#dc2d26f8b" x="165.376789" y="727.9854"/><use xlink:href="#dc2d26f8f" x="173.638603" y="727.9854"/><use xlink:href="#dc2d26f8f" x="177.318119" y="727.9854"/></g><use xlink:href="#dc2d26f8i" x="180.997636" y="727.9854" fill="#1a26cd"/><g fill="#1a26cd"><use xlink:href="#dc2d26f8f" x="193.44507" y="727.9854"/><use xlink:href="#dc2d26f8f" x="197.124587" y="727.9854"/><use xlink:href="#dc2d26f8j" x="200.804103" y="727.9854"/><use xlink:href="#dc2d26f8k" x="206.029291" y="727.9854"/><use xlink:href="#dc2d26f8l" x="214.304783" y="727.9854"/><use xlink:href="#dc2d26f8f" x="223.483057" y="727.9854"/><use xlink:href="#dc2d26f8m" x="227.162573" y="727.9854"/><use xlink:href="#dc2d26f8b" x="236.080955" y="727.9854"/><use xlink:href="#dc2d26f8n" x="244.342769" y="727.9854"/></g><g fill="#1d1d1b"><use xlink:href="#dc2d26f8o" x="138.2285" y="234.3193"/><use xlink:href="#dc2d26f8p" x="160.9085" y="234.3193"/><use xlink:href="#dc2d26f8q" x="192.2285" y="234.3193"/></g><use xlink:href="#dc2d26f8r" x="279.7685" y="234.3193" fill="#1d1d1b"/><use xlink:href="#dc2d26f8s" x="359.2325" y="234.3193" fill="#1d1d1b"/><g fill="#1d1d1b"><use xlink:href="#dc2d26f8t" x="407.2085" y="234.3193"/><use xlink:href="#dc2d26f8p" x="472.4885" y="234.3193"/></g><use xlink:href="#dc2d26f8u" x="503.8085" y="234.3193" fill="#1d1d1b"/><g fill="#1d1d1b"><use xlink:href="#dc2d26f8v" x="598.7885" y="234.3193"/><use xlink:href="#dc2d26f8s" x="639.3485" y="234.3193"/></g><use xlink:href="#dc2d26f8w" x="688.0445" y="234.3193" fill="#1d1d1b"/><use xlink:href="#dc2d26f8x" x="741.2285" y="234.3193" fill="#1d1d1b"/><use xlink:href="#dc2d26f8p" x="834.2285" y="234.3193" fill="#1d1d1b"/><use xlink:href="#dc2d26f8y" x="865.5485" y="234.3193" fill="#1d1d1b"/><g fill="#1d1d1b"><use xlink:href="#dc2d26f8z" x="1010.0285" y="234.3193"/><use xlink:href="#dc2d26f8s" x="1089.5885" y="234.3193"/></g><use xlink:href="#dc2d26f8A" x="1137.9485" y="234.3193" fill="#1d1d1b"/><use xlink:href="#dc2d26f8p" x="1236.4685" y="234.3193" fill="#1d1d1b"/><use xlink:href="#dc2d26f8B" x="132.1085" y="324.3193" fill="#1d1d1b"/><use xlink:href="#dc2d26f8z" x="186.4205" y="324.3193" fill="#1d1d1b"/><g fill="#1d1d1b"><use xlink:href="#dc2d26f8s" x="266.0045" y="324.3193"/><use xlink:href="#dc2d26f8p" x="317.6045" y="324.3193"/><use xlink:href="#dc2d26f8t" x="348.9245" y="324.3193"/></g><use xlink:href="#dc2d26f8C" x="415.7885" y="324.3193" fill="#1d1d1b"/><use xlink:href="#dc2d26f8D" x="490.6925" y="324.3193" fill="#1d1d1b"/><g fill="#1d1d1b"><use xlink:href="#dc2d26f8E" x="513.1085" y="324.3193"/><use xlink:href="#dc2d26f8p" x="584.6285" y="324.3193"/></g><use xlink:href="#dc2d26f8F" x="615.9485" y="324.3193" fill="#1d1d1b"/><g fill="#1d1d1b"><use xlink:href="#dc2d26f8G" x="718.6685" y="324.3193"/><use xlink:href="#dc2d26f8H" x="758.8685" y="324.3193"/></g><use xlink:href="#dc2d26f8I" x="823.7885" y="324.3193" fill="#1d1d1b"/><g fill="#1d1d1b"><use xlink:href="#dc2d26f8E" x="928.3085" y="324.3193"/><use xlink:href="#dc2d26f8J" x="998.3885" y="324.3193"/></g><use xlink:href="#dc2d26f8p" x="1021.6685" y="324.3193" fill="#1d1d1b"/><use xlink:href="#dc2d26f8K" x="1053.7944" y="324.3193" fill="#1d1d1b"/><use xlink:href="#dc2d26f8L" x="1127.9256" y="324.3193" fill="#1d1d1b"/><g fill="#1d1d1b"><use xlink:href="#dc2d26f8M" x="1189.1076" y="324.3193"/><use xlink:href="#dc2d26f8N" x="1220.1144" y="324.3193"/><use xlink:href="#dc2d26f8M" x="1242.5676" y="324.3193"/></g><g fill="#1d1d1b"><use xlink:href="#dc2d26f8O" x="215.5416" y="414.3193"/><use xlink:href="#dc2d26f8P" x="285.5148" y="414.3193"/></g><use xlink:href="#dc2d26f8Q" x="371.1235" y="414.3193" fill="#1d1d1b"/><use xlink:href="#dc2d26f8R" x="427.6665" y="414.3193" fill="#1d1d1b"/><use xlink:href="#dc2d26f8S" x="521.6373" y="414.3193" fill="#1d1d1b"/><use xlink:href="#dc2d26f8T" x="569.0385" y="414.3193" fill="#1d1d1b"/><use xlink:href="#dc2d26f8p" x="673.5093" y="414.3193" fill="#1d1d1b"/><g fill="#1d1d1b"><use xlink:href="#dc2d26f8U" x="704.8293" y="414.3193"/><use xlink:href="#dc2d26f8C" x="818.9493" y="414.3193"/></g><g fill="#1d1d1b"><use xlink:href="#dc2d26f8V" x="893.4693" y="414.3193"/><use xlink:href="#dc2d26f8p" x="942.1893" y="414.3193"/><use xlink:href="#dc2d26f8B" x="973.5093" y="414.3193"/></g><use xlink:href="#dc2d26f8z" x="1027.8213" y="414.3193" fill="#1d1d1b"/><g fill="#1d1d1b"><use xlink:href="#dc2d26f8s" x="1107.3933" y="414.3193"/><use xlink:href="#dc2d26f8p" x="1158.9933" y="414.3193"/></g><use xlink:href="#dc2d26f8W" x="309.0693" y="504.3193" fill="#1d1d1b"/><use xlink:href="#dc2d26f8s" x="356.3853" y="504.3193" fill="#1d1d1b"/><g fill="#1d1d1b"><use xlink:href="#dc2d26f8C" x="407.1333" y="504.3193"/><use xlink:href="#dc2d26f8X" x="475.8933" y="504.3193"/></g><use xlink:href="#dc2d26f8Y" x="550.2213" y="504.3193" fill="#1d1d1b"/><use xlink:href="#dc2d26f8Z" x="606.3813" y="504.3193" fill="#1d1d1b"/><use xlink:href="#dc2d26f8p" x="674.1813" y="504.3193" fill="#1d1d1b"/><use xlink:href="#dc2d26f8P" x="705.4565" y="504.3193" fill="#1d1d1b"/><use xlink:href="#dc2d26f8aa" x="799.56986" y="504.3193" fill="#1d1d1b"/><g fill="#1d1d1b"><use xlink:href="#dc2d26f8M" x="850.89146" y="504.3193"/><use xlink:href="#dc2d26f8ab" x="881.89826" y="504.3193"/></g><g fill="#1d1d1b"><use xlink:href="#dc2d26f8ac" x="935.66714" y="504.3193"/><use xlink:href="#dc2d26f8S" x="1014.43154" y="504.3193"/></g><g fill="#1d1d1b"><use xlink:href="#dc2d26f8t" x="395.2461" y="594.3193"/><use xlink:href="#dc2d26f8C" x="462.0861" y="594.3193"/></g><g fill="#1d1d1b"><use xlink:href="#dc2d26f8ad" x="537.0474" y="594.3193"/><use xlink:href="#dc2d26f8O" x="559.263" y="594.3193"/></g><use xlink:href="#dc2d26f8T" x="628.0482" y="594.3193" fill="#1d1d1b"/><g fill="#1d1d1b"><use xlink:href="#dc2d26f8ae" x="729.0282" y="594.3193"/><use xlink:href="#dc2d26f8af" x="790.2102" y="594.3193"/></g><g fill="#1d1d1b"><use xlink:href="#dc2d26f8ag" x="884.0622" y="594.3193"/><use xlink:href="#dc2d26f8ah" x="931.107" y="594.3193"/></g><g fill="#1a26cd"><use xlink:href="#dc2d26f8ai" x="998.8066" y="727.9854"/><use xlink:href="#dc2d26f8aj" x="1007.916481" y="727.9854"/><use xlink:href="#dc2d26f8ak" x="1016.643364" y="727.9854"/><use xlink:href="#dc2d26f8n" x="1026.054172" y="727.9854"/><use xlink:href="#dc2d26f8a" x="1034.931518" y="727.9854"/><use xlink:href="#dc2d26f8al" x="1038.939319" y="727.9854"/><use xlink:href="#dc2d26f8e" x="1049.266586" y="727.9854"/><use xlink:href="#dc2d26f8n" x="1059.744317" y="727.9854"/><use xlink:href="#dc2d26f8f" x="1068.621664" y="727.9854"/><use xlink:href="#dc2d26f8ak" x="1072.30118" y="727.9854"/><use xlink:href="#dc2d26f8aj" x="1081.711988" y="727.9854"/><use xlink:href="#dc2d26f8g" x="1090.438872" y="727.9854"/><use xlink:href="#dc2d26f8am" x="1100.738782" y="727.9854"/><use xlink:href="#dc2d26f8d" x="1111.052371" y="727.9854"/><use xlink:href="#dc2d26f8c" x="1118.520832" y="727.9854"/><use xlink:href="#dc2d26f8ak" x="1127.630713" y="727.9854"/><use xlink:href="#dc2d26f8an" x="1137.041521" y="727.9854"/><use xlink:href="#dc2d26f8f" x="1140.406432" y="727.9854"/><use xlink:href="#dc2d26f8ao" x="1144.085949" y="727.9854"/><use xlink:href="#dc2d26f8a" x="1157.408808" y="727.9854"/><use xlink:href="#dc2d26f8ap" x="1161.416608" y="727.9854"/><use xlink:href="#dc2d26f8aj" x="1171.333521" y="727.9854"/><use xlink:href="#dc2d26f8f" x="1180.060404" y="727.9854"/><use xlink:href="#dc2d26f8c" x="1183.73992" y="727.9854"/><use xlink:href="#dc2d26f8e" x="1192.849801" y="727.9854"/><use xlink:href="#dc2d26f8ap" x="1203.327532" y="727.9854"/><use xlink:href="#dc2d26f8f" x="1213.244445" y="727.9854"/><use xlink:href="#dc2d26f8aj" x="1216.923961" y="727.9854"/><use xlink:href="#dc2d26f8aq" x="1225.650844" y="727.9854"/><use xlink:href="#dc2d26f8b" x="1234.35037" y="727.9854"/><use xlink:href="#dc2d26f8aj" x="1242.612184" y="727.9854"/><use xlink:href="#dc2d26f8e" x="1251.339067" y="727.9854"/><use xlink:href="#dc2d26f8ap" x="1261.816798" y="727.9854"/><use xlink:href="#dc2d26f8aj" x="1271.733711" y="727.9854"/><use xlink:href="#dc2d26f8ap" x="1280.460594" y="727.9854"/></g></svg>