<?xml version="1.0" encoding="UTF-8"?><svg id="Layer_1" xmlns="http://www.w3.org/2000/svg" viewBox="0 0 1366 768"><defs><style>.cls-1{fill:#fdfaf5;}.cls-2{fill:#8152db;}</style></defs><rect class="cls-2" x="-66" y="-37" width="1490" height="827"/><g><path class="cls-1" d="M453.13,318.37h-35.2l-70.4-71.36h-16.32v71.36h-24.96V126.36h72c49.28,0,70.72,20.8,70.72,56.32,0,37.76-26.88,58.56-69.76,60.8l73.92,74.88Zm-80.64-95.04c32,0,49.92-12.8,49.92-37.76,0-23.36-13.76-34.56-47.36-34.56h-43.84v72.32h41.28Z"/><path class="cls-1" d="M599.28,174.36l-92.16,202.88h-17.6l34.56-75.52-57.92-127.36h25.92l42.24,94.72,41.28-94.72h23.68Z"/><path class="cls-1" d="M663.27,199.64v66.88c0,23.04,5.12,32.64,23.04,32.64,5.76,0,12.16-.96,18.88-3.2v22.72c-6.08,3.2-15.68,4.8-25.92,4.8-21.12,0-37.44-9.92-37.76-39.36v-84.48h-34.88v-25.28h35.52v-36.16l21.76-4.16v40.32h41.28v25.28h-41.92Z"/><path class="cls-1" d="M829.26,223.64v94.72h-21.76v-85.76c0-24-8.32-37.44-31.36-37.44s-32.64,15.68-32.64,43.84v79.36h-21.76V110.36h21.76v85.76c7.36-16,20.48-26.88,41.6-26.88,30.4,0,44.16,17.28,44.16,54.4Z"/><path class="cls-1" d="M1049.84,223.64v94.72h-21.76v-86.4c0-24.96-8.96-36.8-28.16-36.8-24.64,0-33.92,18.24-33.92,43.84v79.36h-21.76v-86.4c0-24.96-9.28-36.8-28.16-36.8-24.96,0-33.6,18.24-33.6,43.84v79.36h-21.76V174.36h19.2l1.6,18.88c8-14.4,21.12-24,40.96-24s33.28,10.56,39.68,29.76c7.68-17.6,21.76-29.76,44.16-29.76,28.16,0,43.52,20.16,43.52,54.4Z"/><path class="cls-1" d="M308.44,557.92c20.48,0,39.36-8.32,39.36-30.4,0-16.64-11.52-23.36-28.48-28.48l-25.92-7.68c-25.6-7.68-45.76-20.16-45.76-55.36s26.24-53.12,58.24-53.12c23.36,0,47.04,8,59.2,19.84v27.84c-19.84-15.04-36.8-21.12-57.6-21.12-19.2,0-34.24,8.32-34.24,28.48,0,15.68,9.28,24.64,28.16,30.72l24.96,8c22.08,7.04,43.84,18.56,43.84,49.28,0,40.64-27.52,58.56-62.72,58.56-24.64,0-44.48-6.72-61.12-19.2v-30.4c17.6,16.96,38.4,23.04,62.08,23.04Z"/><path class="cls-1" d="M461.21,559.21c19.2,0,38.08-7.04,52.48-22.4v24.64c-10.88,14.72-31.68,23.04-54.08,23.04-40.32,0-69.76-27.2-69.76-75.84,0-39.36,16.64-78.4,68.48-78.4,42.56,0,59.84,31.04,59.84,68.16,0,3.84-.32,7.68-.96,12.16h-104.32c1.28,32,20.16,48.64,48.32,48.64Zm36.16-66.56c-1.28-23.68-11.84-42.24-40.32-42.24s-40.32,16-43.52,42.24h83.84Z"/><path class="cls-1" d="M610.23,430.24c16.32,0,30.4,3.84,41.6,9.92l-3.52,22.72c-10.88-6.08-23.04-9.6-37.12-9.6-33.92,0-54.4,18.88-54.4,52.8s22.08,53.76,54.4,53.76c14.08,0,29.44-4.16,38.72-9.92l2.56,23.36c-10.56,8-27.84,11.2-42.56,11.2-51.2,0-76.16-30.72-76.16-77.12,0-43.2,26.56-77.12,76.48-77.12Z"/><path class="cls-1" d="M722.3,460.64v66.88c0,23.04,5.12,32.64,23.04,32.64,5.76,0,12.16-.96,18.88-3.2v22.72c-6.08,3.2-15.68,4.8-25.92,4.8-21.12,0-37.44-9.92-37.76-39.36v-84.48h-34.88v-25.28h35.52v-36.16l21.76-4.16v40.32h41.28v25.28h-41.92Z"/><path class="cls-1" d="M777.43,387.04c0-9.92,7.36-17.28,17.6-17.28s17.28,7.36,17.28,17.28-6.72,17.92-17.28,17.92-17.6-7.68-17.6-17.92Zm6.08,48.32v144h21.76v-144h-21.76Z"/><path class="cls-1" d="M972.51,507.04c0,41.6-21.44,77.12-71.04,77.12s-71.68-35.52-71.68-77.12,23.68-77.12,71.68-77.12,71.04,35.52,71.04,77.12Zm-71.04-51.84c-30.72,0-48.64,21.12-48.64,51.84s17.92,51.84,48.64,51.84,48-20.8,48-51.84-16.96-51.84-48-51.84Z"/><path class="cls-1" d="M1103.64,484.64v94.72h-21.76v-85.76c0-24-8.32-37.44-31.36-37.44s-32.64,15.68-32.64,43.84v79.36h-21.76v-144h21.76v21.76c7.36-16,20.48-26.88,41.6-26.88,30.4,0,44.16,20.16,44.16,54.4Z"/></g><g><path class="cls-1" d="M651.41,356.38h5.5v1.02h-6.74v-.42c0-1.46,.61-2.55,2.17-3.47l1.97-1.15c.98-.57,1.36-1.2,1.36-2.06,0-1.04-.63-1.94-1.97-1.94s-2.14,.89-2.23,2.3h-1.2c.07-1.96,1.25-3.34,3.43-3.34,2.04,0,3.21,1.28,3.21,2.98,0,1.08-.34,1.98-1.93,2.93l-2.26,1.34c-.71,.42-1.18,.96-1.31,1.81Z"/><path class="cls-1" d="M665.92,354.18c0,2.03-1.37,3.4-3.43,3.4-2.84,0-3.66-2.52-3.66-5.21,0-3.53,1.82-5.05,3.81-5.05,1.85,0,2.86,.92,3.12,2.54h-1.24c-.2-.96-.8-1.49-1.88-1.49-1.66,0-2.6,1.56-2.6,3.71v.2c.48-.89,1.36-1.39,2.57-1.39,2.09,0,3.31,1.43,3.31,3.28Zm-1.21,0c0-1.17-.71-2.23-2.17-2.23s-2.28,1.07-2.28,2.23,.82,2.35,2.28,2.35,2.17-1.18,2.17-2.35Z"/><path class="cls-1" d="M667.77,352.47c0-2.99,1.46-5.15,3.95-5.15s3.95,2.16,3.95,5.15-1.46,5.11-3.95,5.11-3.95-2.12-3.95-5.11Zm6.7,0c0-2.48-.96-4.07-2.74-4.07s-2.74,1.59-2.74,4.07,.96,4.03,2.74,4.03,2.74-1.55,2.74-4.03Z"/><path class="cls-1" d="M689.42,350.25c0,1.63-1.12,2.82-3.38,2.82h-2.74v4.33h-1.24v-9.91h4.09c2.26,0,3.28,1.05,3.28,2.76Zm-1.24,0c0-1.11-.69-1.72-2.25-1.72h-2.64v3.5h2.64c1.56,0,2.25-.71,2.25-1.78Z"/><path class="cls-1" d="M698.34,348.52h-3.28v8.88h-1.23v-8.88h-3.29v-1.02h7.8v1.02Z"/><path class="cls-1" d="M699.6,354.46h1.3c.19,1.4,1.23,2.09,2.83,2.09,1.69,0,2.48-.74,2.48-1.71,0-.88-.58-1.39-1.74-1.65l-2.3-.51c-1.46-.32-2.25-1.21-2.25-2.51,0-1.6,1.36-2.84,3.54-2.84s3.66,.92,3.88,2.95h-1.3c-.19-1.31-1.15-1.91-2.61-1.91s-2.22,.73-2.22,1.66c0,.71,.36,1.21,1.5,1.47l2.23,.51c1.6,.37,2.55,1.24,2.55,2.66,0,1.74-1.36,2.92-3.78,2.92-2.6,0-3.92-1.12-4.13-3.12Z"/></g><g><path class="cls-1" d="M651.41,614.38h5.5v1.02h-6.74v-.42c0-1.46,.61-2.55,2.17-3.47l1.97-1.15c.98-.57,1.36-1.2,1.36-2.06,0-1.04-.63-1.94-1.97-1.94s-2.14,.89-2.23,2.3h-1.2c.07-1.96,1.25-3.34,3.43-3.34,2.04,0,3.21,1.28,3.21,2.98,0,1.08-.34,1.98-1.93,2.93l-2.26,1.34c-.71,.42-1.18,.96-1.31,1.81Z"/><path class="cls-1" d="M665.92,612.18c0,2.03-1.37,3.4-3.43,3.4-2.84,0-3.66-2.52-3.66-5.21,0-3.53,1.82-5.05,3.81-5.05,1.85,0,2.86,.92,3.12,2.54h-1.24c-.2-.96-.8-1.49-1.88-1.49-1.66,0-2.6,1.56-2.6,3.71v.2c.48-.89,1.36-1.39,2.57-1.39,2.09,0,3.31,1.43,3.31,3.28Zm-1.21,0c0-1.17-.71-2.23-2.17-2.23s-2.28,1.07-2.28,2.23,.82,2.35,2.28,2.35,2.17-1.18,2.17-2.35Z"/><path class="cls-1" d="M667.77,610.47c0-2.99,1.46-5.15,3.95-5.15s3.95,2.16,3.95,5.15-1.46,5.11-3.95,5.11-3.95-2.12-3.95-5.11Zm6.7,0c0-2.48-.96-4.07-2.74-4.07s-2.74,1.59-2.74,4.07,.96,4.03,2.74,4.03,2.74-1.55,2.74-4.03Z"/><path class="cls-1" d="M689.42,608.25c0,1.63-1.12,2.82-3.38,2.82h-2.74v4.33h-1.24v-9.91h4.09c2.26,0,3.28,1.05,3.28,2.76Zm-1.24,0c0-1.11-.69-1.72-2.25-1.72h-2.64v3.5h2.64c1.56,0,2.25-.71,2.25-1.78Z"/><path class="cls-1" d="M698.34,606.52h-3.28v8.88h-1.23v-8.88h-3.29v-1.02h7.8v1.02Z"/><path class="cls-1" d="M699.6,612.46h1.3c.19,1.4,1.23,2.09,2.83,2.09,1.69,0,2.48-.74,2.48-1.71,0-.88-.58-1.39-1.74-1.65l-2.3-.51c-1.46-.32-2.25-1.21-2.25-2.51,0-1.6,1.36-2.84,3.54-2.84s3.66,.92,3.88,2.95h-1.3c-.19-1.31-1.15-1.91-2.61-1.91s-2.22,.73-2.22,1.66c0,.71,.36,1.21,1.5,1.47l2.23,.51c1.6,.37,2.55,1.24,2.55,2.66,0,1.74-1.36,2.92-3.78,2.92-2.6,0-3.92-1.12-4.13-3.12Z"/></g></svg>