<?xml version="1.0" encoding="UTF-8"?>
<svg id="Layer_1" data-name="Layer 1" xmlns="http://www.w3.org/2000/svg" xmlns:xlink="http://www.w3.org/1999/xlink" viewBox="0 0 1366 768">
  <defs>
    <style>
      .cls-1 {
        clip-path: url(#clippath);
      }

      .cls-2, .cls-3 {
        fill: #12100b;
      }

      .cls-4 {
        fill: #fff;
      }

      .cls-4, .cls-3 {
        stroke-width: 0px;
      }
    </style>
    <clipPath id="clippath">
      <rect class="cls-3" x="-10.6" y="-10" width="1386" height="788"/>
    </clipPath>
  </defs>
  <g>
    <rect class="cls-2" x="-10.6" y="-10" width="1386" height="788"/>
    <g class="cls-1">
      <rect class="cls-3" x="-.96" y="-3.25" width="1366.71" height="779.89"/>
    </g>
  </g>
  <g>
    <path class="cls-4" d="M484.38,47.03h-26.38v71.4h-9.85V47.03h-26.5v-8.21h62.73v8.21Z"/>
    <path class="cls-4" d="M486.84,57.81h9.85l16.88,49.83,15.71-49.83h8.33l15.71,49.83,16.88-49.83h9.85l-21.46,60.62h-10.79l-14.3-45.49-14.42,45.49h-10.79l-21.46-60.62Z"/>
    <path class="cls-4" d="M585.21,88.77c0-20.28,12.31-32.36,28.14-32.36,18.06,0,27.2,12.19,27.2,32.24,0,1.99-.12,2.93-.12,2.93h-45.73c.94,13.25,8.91,19.93,19,19.93,9.03,0,14.3-4.46,16.18-10.79h9.73c-2.34,10.43-10.55,19.11-25.21,19.11-18.41,0-29.2-12.31-29.2-31.07ZM630.82,83.61c-.82-13.37-7.74-19.11-17.47-19.11s-16.88,6.33-18.41,19.11h35.88Z"/>
    <path class="cls-4" d="M677.96,64.73c-9.26,0-15.83,6.33-15.83,18.76v34.94h-9.38v-60.62h9.03v8.32c3.63-6.33,9.5-9.73,18.06-9.73,13.25,0,22.16,8.79,22.16,24.97v37.05h-9.38v-35.41c0-12.08-5.39-18.29-14.66-18.29Z"/>
    <path class="cls-4" d="M738.69,110.69c2.23,0,3.63-.12,5.04-.47v8.09c-1.99.59-4.1.82-6.57.82-10.08,0-16.06-5.98-16.06-17v-36.11h-10.2v-8.21h10.2v-17.12h9.38v17.12h13.25v8.21h-13.25v35.17c0,6.68,3.28,9.5,8.21,9.5Z"/>
    <path class="cls-4" d="M767.54,140.47h-10.08l12.43-27.44-22.16-55.22h9.85l17.59,45.38,19.7-45.38h9.85l-37.17,82.66Z"/>
    <path class="cls-4" d="M808.46,100.73h9.26c1.52,7.74,6.8,11.49,16.42,11.49s14.66-3.63,14.66-9.38c0-5.04-2.58-8.21-10.55-9.61l-12.9-2.35c-10.67-1.99-15.95-7.27-15.95-16.41,0-9.73,8.21-18.06,22.63-18.06s23.33,7.39,24.86,20.05h-9.5c-1.17-8.44-6.33-12.43-15.59-12.43-8.68,0-13.37,4.34-13.37,9.73,0,4.57,2.35,7.5,9.85,8.79l12.66,2.23c12.19,2.11,17,8.32,17,17,0,10.2-7.27,18.06-24.04,18.06s-23.92-7.97-25.44-19.11Z"/>
    <path class="cls-4" d="M874.82,33.78c3.63,0,6.68,2.93,6.68,6.68s-3.05,6.68-6.68,6.68-6.8-3.05-6.8-6.68,3.05-6.68,6.8-6.68ZM870.13,57.81h9.26v60.62h-9.26v-60.62Z"/>
    <path class="cls-4" d="M922.89,87.13h-.47l23.45,31.31h-10.55l-17.94-24.97-17.94,24.97h-10.55l22.86-31.31-22.16-29.31h10.44l17.24,23.1,16.88-23.1h10.43l-21.69,29.31Z"/>
  </g>
  <g>
    <path class="cls-4" d="M463.63,381.74c0-24.39,14.89-41.27,37.17-41.27,16.53,0,28.73,7.04,33.42,22.86h-10.55c-3.63-9.38-10.55-14.54-22.98-14.54-15.95,0-27.08,12.55-27.08,32.95s10.9,32.83,27.44,32.83,25.44-10.2,25.56-26.03h-31.31v-8.32h40.92l-.12,41.27h-8.79v-14.54c-4.1,9.5-12.43,15.95-26.26,15.95-22.39,0-37.4-16.65-37.4-41.15Z"/>
    <path class="cls-4" d="M587.79,413.05c-4.92,6.68-11.49,9.85-20.05,9.85-11.73,0-21.11-7.39-21.11-18.06s7.04-16.88,20.28-18.29l20.4-2.11v-4.34c0-8.91-5.75-12.66-14.3-12.66s-14.3,3.52-15.48,12.08h-9.38c1.64-13.37,11.14-20.05,24.86-20.05s23.57,6.45,23.57,20.99v41.04h-8.79v-8.44ZM569.5,414.92c11.02,0,17.71-6.8,17.71-17.24v-6.33l-18.64,2.34c-8.79,1.06-11.96,5.16-11.96,10.9s4.92,10.32,12.9,10.32Z"/>
    <path class="cls-4" d="M607.84,403.79h9.26c1.52,7.74,6.8,11.49,16.42,11.49s14.66-3.63,14.66-9.38c0-5.04-2.58-8.21-10.55-9.61l-12.9-2.35c-10.67-1.99-15.95-7.27-15.95-16.41,0-9.73,8.21-18.06,22.63-18.06s23.33,7.39,24.86,20.05h-9.5c-1.17-8.44-6.33-12.43-15.59-12.43-8.68,0-13.37,4.34-13.37,9.73,0,4.57,2.35,7.5,9.85,8.79l12.66,2.23c12.19,2.11,17,8.32,17,17,0,10.2-7.27,18.06-24.04,18.06s-23.92-7.97-25.44-19.11Z"/>
    <path class="cls-4" d="M665.53,391.36c0-18.99,11.02-31.89,28.37-31.89s28.49,12.78,28.49,31.77-11.02,31.66-28.37,31.66-28.49-12.66-28.49-31.54ZM694.02,414.57c11.84,0,18.99-9.85,18.99-23.33s-7.04-23.45-19.11-23.45-18.99,9.97-18.99,23.57,7.15,23.21,19.11,23.21Z"/>
    <path class="cls-4" d="M744.44,421.49h-9.38v-84.42h9.38v84.42Z"/>
    <path class="cls-4" d="M765.78,336.84c3.63,0,6.68,2.93,6.68,6.68s-3.05,6.68-6.68,6.68-6.8-3.05-6.8-6.68,3.05-6.68,6.8-6.68ZM761.09,360.87h9.26v60.62h-9.26v-60.62Z"/>
    <path class="cls-4" d="M811.86,367.79c-9.26,0-15.83,6.33-15.83,18.76v34.94h-9.38v-60.62h9.03v8.32c3.63-6.33,9.5-9.73,18.06-9.73,13.25,0,22.16,8.79,22.16,24.97v37.05h-9.38v-35.41c0-12.08-5.39-18.29-14.66-18.29Z"/>
    <path class="cls-4" d="M847.62,391.83c0-20.28,12.31-32.36,28.14-32.36,18.06,0,27.2,12.19,27.2,32.24,0,1.99-.12,2.93-.12,2.93h-45.73c.94,13.25,8.91,19.93,19,19.93,9.03,0,14.3-4.46,16.18-10.79h9.73c-2.34,10.43-10.55,19.11-25.21,19.11-18.41,0-29.2-12.31-29.2-31.07ZM893.23,386.67c-.82-13.37-7.74-19.11-17.47-19.11s-16.88,6.33-18.41,19.11h35.88Z"/>
  </g>
  <g>
    <path class="cls-4" d="M476.23,700.87h10.43c1.52,11.26,9.85,16.77,22.75,16.77,13.6,0,19.93-5.98,19.93-13.72,0-7.04-4.69-11.14-13.95-13.25l-18.53-4.1c-11.72-2.58-18.06-9.73-18.06-20.17,0-12.9,10.9-22.86,28.49-22.86s29.43,7.39,31.19,23.68h-10.43c-1.52-10.55-9.26-15.36-20.99-15.36s-17.82,5.86-17.82,13.37c0,5.75,2.93,9.73,12.08,11.84l17.94,4.1c12.9,2.93,20.52,9.97,20.52,21.34,0,13.95-10.9,23.45-30.37,23.45-20.87,0-31.54-9.03-33.18-25.09Z"/>
    <path class="cls-4" d="M573.19,716.81c2.23,0,3.63-.12,5.04-.47v8.09c-1.99.59-4.1.82-6.57.82-10.08,0-16.06-5.98-16.06-17v-36.11h-10.2v-8.21h10.2v-17.12h9.38v17.12h13.25v8.21h-13.25v35.17c0,6.68,3.28,9.5,8.21,9.5Z"/>
    <path class="cls-4" d="M626.66,716.11c-4.92,6.68-11.49,9.85-20.05,9.85-11.73,0-21.11-7.39-21.11-18.06s7.04-16.88,20.28-18.29l20.4-2.11v-4.34c0-8.91-5.75-12.66-14.3-12.66s-14.3,3.52-15.48,12.08h-9.38c1.64-13.37,11.14-20.05,24.86-20.05s23.57,6.45,23.57,20.99v41.04h-8.79v-8.44ZM608.37,717.98c11.02,0,17.71-6.8,17.71-17.24v-6.33l-18.64,2.34c-8.79,1.06-11.96,5.16-11.96,10.9s4.92,10.32,12.9,10.32Z"/>
    <path class="cls-4" d="M672.15,716.81c2.23,0,3.63-.12,5.04-.47v8.09c-1.99.59-4.1.82-6.57.82-10.08,0-16.06-5.98-16.06-17v-36.11h-10.2v-8.21h10.2v-17.12h9.38v17.12h13.25v8.21h-13.25v35.17c0,6.68,3.28,9.5,8.21,9.5Z"/>
    <path class="cls-4" d="M693.14,639.9c3.63,0,6.68,2.93,6.68,6.68s-3.05,6.68-6.68,6.68-6.8-3.05-6.8-6.68,3.05-6.68,6.8-6.68ZM688.45,663.93h9.26v60.62h-9.26v-60.62Z"/>
    <path class="cls-4" d="M710.38,694.42c0-18.99,11.02-31.89,28.37-31.89s28.49,12.78,28.49,31.77-11.02,31.66-28.37,31.66-28.49-12.66-28.49-31.54ZM738.87,717.63c11.84,0,18.99-9.85,18.99-23.33s-7.04-23.45-19.11-23.45-18.99,9.97-18.99,23.57,7.15,23.21,19.11,23.21Z"/>
    <path class="cls-4" d="M804.76,670.85c-9.26,0-15.83,6.33-15.83,18.76v34.94h-9.38v-60.62h9.03v8.32c3.63-6.33,9.5-9.73,18.06-9.73,13.25,0,22.16,8.79,22.16,24.97v37.05h-9.38v-35.41c0-12.08-5.39-18.29-14.66-18.29Z"/>
    <path class="cls-4" d="M840.06,706.85h9.26c1.52,7.74,6.8,11.49,16.42,11.49s14.66-3.63,14.66-9.38c0-5.04-2.58-8.21-10.55-9.61l-12.9-2.35c-10.67-1.99-15.95-7.27-15.95-16.41,0-9.73,8.21-18.06,22.63-18.06s23.33,7.39,24.86,20.05h-9.5c-1.17-8.44-6.33-12.43-15.59-12.43-8.68,0-13.37,4.34-13.37,9.73,0,4.57,2.35,7.5,9.85,8.79l12.66,2.23c12.19,2.11,17,8.32,17,17,0,10.2-7.27,18.06-24.04,18.06s-23.92-7.97-25.44-19.11Z"/>
  </g>
</svg>