<?xml version="1.0" encoding="UTF-8"?>
<svg id="Layer_1" data-name="Layer 1" xmlns="http://www.w3.org/2000/svg" xmlns:xlink="http://www.w3.org/1999/xlink" viewBox="0 0 1366 768">
  <defs>
    <style>
      .cls-1 {
        clip-path: url(#clippath);
      }

      .cls-2 {
        fill: none;
      }

      .cls-2, .cls-3, .cls-4 {
        stroke-width: 0px;
      }

      .cls-3, .cls-5 {
        fill: #dde0e4;
      }

      .cls-4 {
        fill: #000;
      }
    </style>
    <clipPath id="clippath">
      <rect class="cls-3" x="-10" y="-10" width="1386" height="788"/>
    </clipPath>
  </defs>
  <g>
    <rect class="cls-5" x="-10" y="-10" width="1386" height="788"/>
    <g class="cls-1">
      <rect class="cls-3" x="-.35" y="-3.25" width="1366.71" height="779.89"/>
    </g>
  </g>
  <rect class="cls-2" x="124.35" y="122.61" width="1138.65" height="604.56"/>
  <g>
    <path class="cls-4" d="M477.62,572.11c0-31.64,4.15-70.4,36.39-70.4s36.39,38.76,36.39,70.4-4.15,70.4-36.39,70.4-36.39-38.76-36.39-70.4ZM545.25,572.11c0-30.45-1.78-69.61-31.25-69.61s-31.25,39.16-31.25,69.61,1.78,69.61,31.25,69.61,31.25-39.16,31.25-69.61Z"/>
    <path class="cls-4" d="M609.72,504.08v-.79h12.85v.79c-3.96,1.78-4.75,5.34-4.75,13.84v128.14h-.79l-55.77-126.76v109.75c0,7.12.79,10.88,7.32,11.87v.79h-12.85v-.79c3.76-1.78,4.75-4.75,4.75-13.84v-109.75l-3.96-8.9c-.79-1.78-1.38-2.97-2.37-4.15v-.99h5.14l57.74,131.51v-118.65c0-7.12-.59-11.07-7.32-12.06Z"/>
    <path class="cls-4" d="M628.51,572.11c0-31.64,4.15-70.4,36.39-70.4s36.39,38.76,36.39,70.4-4.15,70.4-36.39,70.4-36.39-38.76-36.39-70.4ZM696.14,572.11c0-30.45-1.78-69.61-31.25-69.61s-31.25,39.16-31.25,69.61,1.78,69.61,31.25,69.61,31.25-39.16,31.25-69.61Z"/>
    <path class="cls-4" d="M752.1,636.38l35.79-133.09h7.91v.79c-2.77,1.78-3.56,4.75-3.56,13.84v109.16c0,9.1.79,11.87,3.56,13.84v.79h-11.87v-.79c2.77-1.98,3.96-4.75,3.96-13.84v-120.43l-37.18,138.03h-.79l-38.36-135.26v119.64c0,5.74,0,11.27,7.71,11.87v.79h-12.85v-.79c3.16-1.38,4.35-6.13,4.35-11.87v-112.52c0-7.51-.79-10.68-3.56-12.46v-.79h7.32l37.57,133.09Z"/>
    <path class="cls-4" d="M832.79,502.7v-.99h4.35l31.44,129.33c1.58,6.33,2.37,8.9,5.34,9.89v.79h-11.87v-.79c2.57-.4,3.16-2.17,3.16-3.76,0-1.38-.39-3.36-.99-5.93l-10.68-44.3h-37.18l-11.07,41.33c-.79,3.16-1.19,5.34-1.19,6.92,0,2.77.99,5.34,6.53,5.74v.79h-12.85v-.79c3.16-1.58,4.35-4.35,6.53-12.46l31.05-115.69-.4-1.98c-.99-3.96-1.38-5.34-2.18-8.11ZM853.35,586.15l-17.4-71.59-19.38,71.59h36.78Z"/>
    <path class="cls-4" d="M888.75,504.08c-10.09,0-13.65,2.17-16.02,13.84h-.79l.99-16.61h.79c1.78,1.38,3.56,1.98,8.7,1.98h46.67c5.14,0,6.92-.59,8.7-1.98h.79l.99,16.61h-.79c-2.37-11.67-5.93-13.84-16.02-13.84h-14.83v120.63c0,9.89.4,14.04,3.56,16.22v.79h-11.47v-.79c3.16-2.17,3.56-6.33,3.56-16.22v-120.63h-14.83Z"/>
    <path class="cls-4" d="M941.55,572.11c0-31.64,4.15-70.4,36.39-70.4s36.39,38.76,36.39,70.4-4.15,70.4-36.39,70.4-36.39-38.76-36.39-70.4ZM1009.18,572.11c0-30.45-1.78-69.61-31.25-69.61s-31.25,39.16-31.25,69.61,1.78,69.61,31.25,69.61,31.25-39.16,31.25-69.61Z"/>
    <path class="cls-4" d="M1020.26,504.08v-.79h65.06v.79c-2.77,1.98-3.56,4.75-3.56,13.84v109.16c0,9.1.79,11.87,3.56,13.84v.79h-11.47v-.79c2.77-1.98,3.56-4.75,3.56-13.84v-123h-49.24v123c0,9.1.79,11.87,3.56,13.84v.79h-11.47v-.79c2.77-1.98,3.56-4.75,3.56-13.84v-109.16c0-9.1-.79-11.87-3.56-13.84Z"/>
    <path class="cls-4" d="M1091.25,572.11c0-31.64,4.15-70.4,36.39-70.4s36.39,38.76,36.39,70.4-4.15,70.4-36.39,70.4-36.39-38.76-36.39-70.4ZM1158.88,572.11c0-30.45-1.78-69.61-31.25-69.61s-31.25,39.16-31.25,69.61,1.78,69.61,31.25,69.61,31.25-39.16,31.25-69.61Z"/>
    <path class="cls-4" d="M1181.42,503.29v.79c-2.77,1.78-3.56,4.75-3.56,13.84v109.16c0,9.1.79,12.06,3.56,13.84v.79h-11.47v-.79c2.77-1.78,3.56-4.75,3.56-13.84v-109.16c0-9.1-.79-12.06-3.56-13.84v-.79h11.47Z"/>
    <path class="cls-4" d="M1198.82,503.29v.79c-2.77,1.78-3.56,4.75-3.56,13.84v109.16c0,9.1.79,12.06,3.56,13.84v.79h-11.47v-.79c2.77-1.78,3.56-4.75,3.56-13.84v-109.16c0-9.1-.79-12.06-3.56-13.84v-.79h11.47Z"/>
    <path class="cls-4" d="M1235.8,502.7v-.99h4.35l31.44,129.33c1.58,6.33,2.37,8.9,5.34,9.89v.79h-11.87v-.79c2.57-.4,3.16-2.17,3.16-3.76,0-1.38-.4-3.36-.99-5.93l-10.68-44.3h-37.18l-11.07,41.33c-.79,3.16-1.19,5.34-1.19,6.92,0,2.77.99,5.34,6.53,5.74v.79h-12.85v-.79c3.16-1.58,4.35-4.35,6.53-12.46l31.05-115.69-.4-1.98c-.99-3.96-1.38-5.34-2.17-8.11ZM1256.37,586.15l-17.4-71.59-19.38,71.59h36.78Z"/>
  </g>
  <g>
    <path class="cls-4" d="M379.99,453.28v.79c-9.69,8.7-28.48,18-55.77,18-23.73,0-55.96-5.73-66.84-34.21-27.49-4.94-35.79-36.78-35.79-69.81,0-35.99,9.89-70.6,43.9-70.6s43.9,34.61,43.9,70.6c0,28.67-6.33,56.36-25.91,66.64,5.34,20.96,22.74,35,48.45,35,23.14,0,39.55-9.1,48.05-16.41ZM278.15,368.05c0-41.33,0-69.21-12.66-69.21s-12.66,27.88-12.66,69.21,0,69.21,12.66,69.21,12.66-27.88,12.66-69.21Z"/>
    <path class="cls-4" d="M334.11,299.03v-.79h33.42l18.59,122.21c1.38,9.29,3.56,15.03,8.9,16.41v.79h-43.51v-.79c4.75-1.19,6.33-4.55,6.33-8.11,0-2.77-.4-5.34-.79-8.11l-5.74-37.77h-20.96l-5.73,35.79c-.4,2.77-.79,5.73-.79,8.11,0,6.53,3.16,9.1,11.47,10.09v.79h-22.15v-.79c4.35-1.19,7.71-4.94,9.29-14.44l18.19-110.35-.99-5.93c-.59-4.35-1.78-5.93-5.54-7.12ZM351.12,381.5l-9.89-65.46-10.68,65.46h20.57Z"/>
    <path class="cls-4" d="M398.98,300.02v-.79h46.87v.79c-9.29,4.15-10.09,10.28-10.09,21.36v114.9h5.34c14.44,0,24.72-3.96,32.04-19.18l.99.2-9.29,23.33h-.99c-1.98-1.78-5.34-2.97-10.68-2.97h-54.18v-.79c7.32-4.15,8.11-10.28,8.11-21.36v-94.13c0-11.07-.79-17.2-8.11-21.36Z"/>
    <path class="cls-4" d="M497.06,299.03v-.79h33.42l18.59,122.21c1.38,9.29,3.56,15.03,8.9,16.41v.79h-43.51v-.79c4.75-1.19,6.33-4.55,6.33-8.11,0-2.77-.4-5.34-.79-8.11l-5.74-37.77h-20.96l-5.73,35.79c-.4,2.77-.79,5.73-.79,8.11,0,6.53,3.16,9.1,11.47,10.09v.79h-22.15v-.79c4.35-1.19,7.71-4.94,9.29-14.44l18.19-110.35-.99-5.93c-.59-4.35-1.78-5.93-5.54-7.12ZM514.07,381.5l-9.89-65.46-10.68,65.46h20.57Z"/>
    <path class="cls-4" d="M643.8,380.51v-59.13c0-5.54-.43-9.95-1.29-13.25-.86-3.29-3.13-6-6.82-8.11v-.79h44.89v.79c-3.69,2.11-5.97,4.81-6.82,8.11-.86,3.3-1.29,7.71-1.29,13.25v46.28h33.62v1.38h-33.62v6.13c0,9.49-.86,18.1-2.57,25.81-1.71,7.71-4.55,14.41-8.5,20.07-3.96,5.67-9.39,10.02-16.32,13.05-6.92,3.03-15.59,4.55-26.01,4.55-9.23,0-17.11-1.29-23.63-3.86s-11.9-6.1-16.12-10.58c-4.22-4.48-7.52-9.72-9.89-15.72-2.37-6-4.02-12.43-4.94-19.28-.92-6.85-1.38-13.91-1.38-21.16s.46-14.3,1.38-21.16c.92-6.85,2.44-13.28,4.55-19.28,2.11-6,5.01-11.24,8.7-15.72,3.69-4.48,8.34-8.01,13.94-10.58,5.6-2.57,12.29-3.86,20.07-3.86,2.24,0,4.55.2,6.92.59s4.65.99,6.82,1.78c2.17.79,4.12,1.72,5.83,2.77v25.71h-.79c-.66-2.64-1.29-5.34-1.88-8.11-.59-2.77-1.29-5.4-2.08-7.91-.79-2.5-1.81-4.78-3.07-6.82-1.25-2.04-2.74-3.66-4.45-4.85-1.71-1.19-3.89-1.78-6.53-1.78-4.09,0-7.35,1.52-9.79,4.55-2.44,3.03-4.29,7.51-5.54,13.45-1.25,5.93-2.04,13.19-2.37,21.75-.33,8.57-.49,18.39-.49,29.47s.26,20.9.79,29.47c.53,8.57,1.61,15.82,3.26,21.75,1.65,5.93,4.12,10.42,7.42,13.45,3.29,3.03,7.71,4.55,13.25,4.55,3.16,0,6.03-.46,8.6-1.38,2.57-.92,4.85-2.57,6.82-4.94,1.98-2.37,3.66-5.67,5.04-9.89,1.38-4.22,2.44-9.66,3.16-16.32.72-6.66,1.09-14.73,1.09-24.23ZM696.2,415.51v-94.13c0-5.54-.43-9.95-1.29-13.25-.86-3.29-3.13-6-6.82-8.11v-.79h50.03c1.84,0,3.43-.13,4.75-.4,1.32-.26,2.47-.62,3.46-1.09.99-.46,1.81-.96,2.47-1.48h.99l5.34,19.38-.79.2c-2.9-6.2-6.3-10.28-10.18-12.26-3.89-1.98-8.47-2.97-13.75-2.97h-5.54v73.17h8.11c1.71,0,3.66-.2,5.83-.59,2.17-.4,4.22-1.45,6.13-3.16,1.91-1.71,3.33-4.48,4.25-8.31h.79v25.12h-.79c-.92-3.82-2.34-6.56-4.25-8.21-1.91-1.65-3.96-2.64-6.13-2.97-2.18-.33-4.12-.49-5.83-.49h-8.11v61.11h3.36c4.88,0,9.26-.53,13.15-1.58,3.89-1.05,7.42-3,10.58-5.83,3.16-2.83,5.93-6.75,8.31-11.77l.99.2-9.29,23.34h-.99c-.66-.66-1.48-1.19-2.47-1.58-.99-.4-2.14-.73-3.46-.99-1.32-.27-2.9-.4-4.75-.4h-52.21v-.79c3.69-2.11,5.96-4.81,6.82-8.11.86-3.29,1.29-7.71,1.29-13.25Z"/>
    <path class="cls-4" d="M808.13,437.66h-43.51v-.79c7.32-4.15,8.11-10.28,8.11-21.36v-94.13c0-11.07-.79-17.2-8.11-21.36v-.79h43.51c34.41,0,45.68,32.23,45.68,69.21s-11.27,69.21-45.68,69.21ZM806.16,300.61h-4.75v135.66h4.75c15.42,0,16.41-35.4,16.41-67.83s-.99-67.83-16.41-67.83Z"/>
    <path class="cls-4" d="M921.05,296.26l5.34,19.38-.79.2c-2.9-6.2-6.3-10.28-10.18-12.26-3.89-1.98-8.47-2.97-13.75-2.97h-5.54v73.17h8.11c1.71,0,3.66-.2,5.83-.59,2.17-.4,4.22-1.45,6.13-3.16,1.91-1.71,3.33-4.48,4.25-8.31h.79v25.12h-.79c-.92-3.82-2.34-6.56-4.25-8.21-1.91-1.65-3.96-2.64-6.13-2.97-2.18-.33-4.12-.49-5.83-.49h-8.11v61.11h29.07c4.61,0,8.6-.4,11.96-1.19,3.36-.79,6.29-2.11,8.8-3.96,2.5-1.84,4.81-4.35,6.92-7.52,2.11-3.16,4.22-7.05,6.33-11.67l.99.4-11.27,28.28h-.99c-.66-.66-1.48-1.19-2.47-1.58-.99-.4-2.14-.73-3.46-.99-1.32-.27-2.9-.4-4.75-.4h-77.92v-.79c3.69-2.11,5.96-4.81,6.82-8.11.86-3.29,1.29-7.71,1.29-13.25v-94.13c0-5.54-.43-9.95-1.29-13.25-.86-3.29-3.13-6-6.82-8.11v-.79h50.03c1.84,0,3.43-.13,4.75-.4,1.32-.26,2.47-.62,3.46-1.09.99-.46,1.81-.96,2.47-1.48h.99ZM972.67,401.86c4.61,0,8.8-.46,12.56-1.38,3.76-.92,7.15-2.57,10.18-4.94,3.03-2.37,5.74-5.73,8.11-10.09l.99.2-8.9,19.78h-.99c-.66-.53-1.48-.95-2.47-1.29-.99-.33-2.11-.59-3.36-.79-1.25-.2-2.74-.3-4.45-.3h-52.8v-.59c3.96-1.05,6.26-3.13,6.92-6.23.66-3.1.99-7.09.99-11.96v-66.25c0-5.01-.33-9.03-.99-12.06-.66-3.03-2.97-5.07-6.92-6.13v-.59h46.67v.59c-5.01,1.06-7.94,3.1-8.8,6.13-.86,3.03-1.29,7.05-1.29,12.06v83.85h4.55Z"/>
    <path class="cls-4" d="M1027.45,299.03v-.79h33.42l18.59,122.21c1.38,9.29,3.56,15.03,8.9,16.41v.79h-43.51v-.79c4.75-1.19,6.33-4.55,6.33-8.11,0-2.77-.4-5.34-.79-8.11l-5.74-37.77h-20.96l-5.73,35.79c-.4,2.77-.79,5.73-.79,8.11,0,6.53,3.16,9.1,11.47,10.09v.79h-22.15v-.79c4.35-1.19,7.71-4.94,9.29-14.44l18.19-110.35-.99-5.93c-.59-4.35-1.78-5.93-5.54-7.12ZM1044.45,381.5l-9.89-65.46-10.68,65.46h20.57Z"/>
  </g>
  <g>
    <path class="cls-4" d="M97.94,101.83l-31.25,116.28c-.4,1.58-.69,2.94-.89,4.05-.2,1.12-.3,2.08-.3,2.87,0,1.32.4,2.54,1.19,3.66.79,1.12,2.57,1.81,5.34,2.08v.79h-12.85v-.79c1.58-.79,2.8-2.04,3.66-3.76.86-1.71,1.81-4.61,2.87-8.7l31.25-116.28.99-.2ZM117.12,175.99v.79h-39.75v-.79h39.75ZM96.36,100.65c-.53-1.98-.92-3.49-1.19-4.55-.27-1.05-.59-2.24-.99-3.56v-.99h4.35l31.44,129.33c.53,2.11,1.02,3.83,1.48,5.14.46,1.32.99,2.34,1.58,3.07.59.73,1.35,1.29,2.27,1.68v.79h-11.87v-.79c1.32-.26,2.17-.76,2.57-1.48.4-.72.59-1.48.59-2.27,0-.66-.1-1.48-.3-2.47-.2-.99-.43-2.14-.69-3.46l-29.27-120.44Z"/>
    <path class="cls-4" d="M144.02,93.13h11.47v.79c-1.32.92-2.24,2.31-2.77,4.15-.53,1.85-.79,5.08-.79,9.69v109.16c0,4.48.26,7.68.79,9.59.53,1.91,1.45,3.33,2.77,4.25v.79h-11.47v-.79c1.45-.92,2.4-2.34,2.87-4.25.46-1.91.69-5.11.69-9.59v-109.16c0-4.61-.23-7.84-.69-9.69-.46-1.84-1.42-3.23-2.87-4.15v-.79Z"/>
    <path class="cls-4" d="M164.78,231.56l30.65-71v.99l-30.26-68.42h37.57c1.84,0,3.36-.1,4.55-.3,1.19-.2,2.18-.46,2.97-.79.79-.33,1.45-.76,1.98-1.29h.79l3.56,10.08-.79.2c-1.58-2.77-3.46-4.65-5.64-5.64-2.18-.99-6.17-1.48-11.96-1.48h-27.88l27.69,62.69-30.46,70.6h35.2c2.77,0,4.94-.2,6.53-.59s2.9-1.15,3.96-2.27c1.05-1.12,2.17-2.87,3.36-5.24l.59.2-4.94,14.63h-.79c-.92-.79-2.05-1.38-3.36-1.78-1.32-.4-3.36-.59-6.13-.59h-37.18Z"/>
    <path class="cls-4" d="M263.06,232.35c-6.46,0-11.87-1.42-16.22-4.25-4.35-2.83-7.88-6.66-10.58-11.47-2.7-4.81-4.75-10.25-6.13-16.32-1.38-6.06-2.31-12.39-2.77-18.99-.46-6.59-.69-13.05-.69-19.38s.23-12.79.69-19.38c.46-6.59,1.38-12.92,2.77-18.98,1.38-6.06,3.43-11.5,6.13-16.32,2.7-4.81,6.23-8.63,10.58-11.47,4.35-2.83,9.75-4.25,16.22-4.25s11.87,1.42,16.22,4.25c4.35,2.84,7.88,6.66,10.58,11.47,2.7,4.81,4.75,10.25,6.13,16.32,1.38,6.07,2.3,12.39,2.77,18.98.46,6.59.69,13.05.69,19.38s-.23,12.79-.69,19.38c-.46,6.59-1.38,12.92-2.77,18.99-1.38,6.07-3.43,11.5-6.13,16.32-2.7,4.81-6.23,8.64-10.58,11.47-4.35,2.84-9.76,4.25-16.22,4.25ZM263.06,231.56c5.93,0,10.81-1.42,14.63-4.25,3.82-2.83,6.85-6.66,9.1-11.47,2.24-4.81,3.89-10.22,4.94-16.22,1.05-6,1.75-12.26,2.08-18.79.33-6.53.49-12.82.49-18.89s-.17-12.36-.49-18.89c-.33-6.53-1.02-12.79-2.08-18.79-1.06-6-2.7-11.4-4.94-16.22-2.24-4.81-5.27-8.63-9.1-11.47-3.83-2.83-8.7-4.25-14.63-4.25s-10.81,1.42-14.63,4.25c-3.83,2.84-6.86,6.66-9.1,11.47-2.24,4.81-3.89,10.22-4.94,16.22-1.06,6-1.75,12.26-2.08,18.79-.33,6.53-.5,12.82-.5,18.89s.16,12.36.5,18.89c.33,6.53,1.02,12.79,2.08,18.79,1.05,6,2.7,11.41,4.94,16.22,2.24,4.81,5.27,8.64,9.1,11.47,3.82,2.84,8.7,4.25,14.63,4.25ZM251.59,160.57h23.14c1.98,0,3.56-.26,4.75-.79,1.19-.53,2.04-1.45,2.57-2.77h.79v10.68h-.79c-.53-1.45-1.38-2.4-2.57-2.87-1.19-.46-2.77-.69-4.75-.69h-23.14c-1.98,0-3.53.23-4.65.69-1.12.46-2.01,1.42-2.67,2.87h-.79v-10.68h.79c.66,1.32,1.55,2.24,2.67,2.77,1.12.53,2.67.79,4.65.79Z"/>
    <path class="cls-4" d="M315.67,107.77c0-4.61-.23-7.84-.69-9.69-.46-1.84-1.42-3.23-2.87-4.15v-.79h11.47v.79c-1.32.92-2.24,2.31-2.77,4.15-.53,1.85-.79,5.08-.79,9.69v54.19h49.24v-54.19c0-4.61-.23-7.84-.69-9.69-.46-1.84-1.42-3.23-2.87-4.15v-.79h11.47v.79c-1.32.92-2.24,2.31-2.77,4.15-.53,1.85-.79,5.08-.79,9.69v109.16c0,4.48.26,7.65.79,9.49.53,1.85,1.45,3.3,2.77,4.35v.79h-11.47v-.79c1.45-1.05,2.4-2.5,2.87-4.35.46-1.84.69-5.01.69-9.49v-54.19h-49.24v54.19c0,4.48.26,7.65.79,9.49.53,1.85,1.45,3.3,2.77,4.35v.79h-11.47v-.79c1.45-1.05,2.4-2.5,2.87-4.35.46-1.84.69-5.01.69-9.49v-109.16Z"/>
    <path class="cls-4" d="M417.51,93.92h-14.83c-3.3,0-6,.33-8.11.99-2.11.66-3.76,1.98-4.94,3.96s-2.18,4.94-2.97,8.9h-.79l.99-16.61h.79c.92.66,1.98,1.16,3.16,1.48,1.19.33,3.03.5,5.54.5h46.67c2.64,0,4.51-.16,5.64-.5,1.12-.33,2.14-.82,3.07-1.48h.79l.99,16.61h-.79c-.79-3.96-1.78-6.92-2.97-8.9-1.19-1.98-2.8-3.29-4.85-3.96-2.05-.66-4.78-.99-8.21-.99h-14.83v120.63c0,4.88.2,8.54.59,10.98.4,2.44,1.38,4.19,2.97,5.24v.79h-11.47v-.79c1.58-1.05,2.57-2.8,2.97-5.24.4-2.44.59-6.1.59-10.98v-120.63Z"/>
    <path class="cls-4" d="M462.2,93.13h11.47v.79c-1.32.92-2.24,2.31-2.77,4.15-.53,1.85-.79,5.08-.79,9.69v109.16c0,4.48.26,7.68.79,9.59.53,1.91,1.45,3.33,2.77,4.25v.79h-11.47v-.79c1.45-.92,2.4-2.34,2.87-4.25.46-1.91.69-5.11.69-9.59v-109.16c0-4.61-.23-7.84-.69-9.69-.46-1.84-1.42-3.23-2.87-4.15v-.79Z"/>
    <path class="cls-4" d="M494.24,107.77v109.16c0,4.48.26,7.68.79,9.59.53,1.91,1.45,3.33,2.77,4.25v.79h-11.47v-.79c1.45-.92,2.4-2.34,2.87-4.25.46-1.91.69-5.11.69-9.59v-109.16c0-4.61-.23-7.84-.69-9.69-.46-1.84-1.42-3.23-2.87-4.15v-.79h11.47v.79c-1.32.92-2.24,2.31-2.77,4.15-.53,1.85-.79,5.08-.79,9.69ZM491.47,182.12v-1.58l42.72-77.92c.66-1.05,1.12-1.98,1.38-2.77.26-.79.4-1.51.4-2.18,0-1.05-.36-1.91-1.09-2.57-.73-.66-1.95-1.05-3.66-1.19v-.79h12.85v.79c-2.11.53-3.73,1.45-4.84,2.77-1.12,1.32-2.21,2.9-3.26,4.75l-44.5,80.69ZM505.51,155.82l2.57-4.94,30.26,73.37c.66,1.71,1.35,3.16,2.08,4.35.72,1.19,1.55,1.91,2.47,2.18v.79h-11.67v-.79c1.19-.4,2.01-.89,2.47-1.48.46-.59.69-1.22.69-1.88,0-.53-.07-1.02-.2-1.48-.13-.46-.33-1.09-.59-1.88l-28.08-68.23Z"/>
    <path class="cls-4" d="M557.32,107.77c0-4.61-.23-7.84-.69-9.69-.46-1.84-1.42-3.23-2.87-4.15v-.79h11.47v.79c-1.32.92-2.24,2.31-2.77,4.15-.53,1.85-.79,5.08-.79,9.69v54.19h49.24v-54.19c0-4.61-.23-7.84-.69-9.69-.46-1.84-1.42-3.23-2.87-4.15v-.79h11.47v.79c-1.32.92-2.24,2.31-2.77,4.15-.53,1.85-.79,5.08-.79,9.69v109.16c0,4.48.26,7.65.79,9.49.53,1.85,1.45,3.3,2.77,4.35v.79h-11.47v-.79c1.45-1.05,2.4-2.5,2.87-4.35.46-1.84.69-5.01.69-9.49v-54.19h-49.24v54.19c0,4.48.26,7.65.79,9.49.53,1.85,1.45,3.3,2.77,4.35v.79h-11.47v-.79c1.45-1.05,2.4-2.5,2.87-4.35.46-1.84.69-5.01.69-9.49v-109.16Z"/>
  </g>
</svg>