<svg xmlns="http://www.w3.org/2000/svg" viewBox="0 0 1366 768"><defs><style>.cls-1{fill:#f7b3ca;}.cls-2{fill:#12100b;}</style></defs><g id="Layer_1" data-name="Layer 1"><rect class="cls-1" x="-99" y="-37" width="1570" height="827"/><path class="cls-2" d="M415.09,658.24l-67,11.91C318.29,627,276.59,569.63,237.87,515.27l1.49-.74c-8.2,1.49-17.13,2.23-26.07,3L188,658.24H129.9l78.93-435.6,6.7-43.19-57.34-24.57.75-9.68,120.62-20.11,4.47,5.22-15.63,81.9L234.14,402.09c29-55.85,67-90.84,114.67-90.84,39.47,0,61.81,24.57,61.81,62.55,0,55.84-41,102.75-110.95,126.58C336.9,555.48,374.13,608.35,415.09,658.24ZM215.53,507.08c69.25-10.42,133.28-75.2,133.28-129.56,0-20.85-9.68-34.25-31.27-34.25-37.23,0-73.72,54.35-94.57,121.37Z"/><path class="cls-2" d="M708.38,384.22l-67.76,55.85L804.44,658.24H724.76c0-8.19-3.72-15.64-11.17-25.32L596,475.06,566.9,498.89V638.14L619,640.37v17.87H451.49V640.37l52.12-2.23V199.55c-13.4-21.59-23.08-32.76-42.44-49.14l.74-8.94,96.8-34.25,8.19,5.21V480.28l105-84.89c11.91-9.68,27.55-25.32,27.55-39.47,0-10.42-6-20.1-13.41-26.06v-6.7H808.16v14.15C779.87,338.8,744.87,356.67,708.38,384.22Z"/><path class="cls-2" d="M1238.77,658.24H1108.46c0-8.19-3.72-15.64-11.16-25.32L994.54,488.47l-14.89,11.17V638.88l41.69,2.23v17.13H835.93V641.11l41.7-2.23V192.57c0-11.92-13.4-41.7-31.27-55.85l1.49-7.45L964.75,98l14.9,13.4V480.28l109.45-83.4c10.43-9.68,15.64-18.62,15.64-33.51,0-11.91-6-28.3-13.4-35.74v-4.47h137v14.15C1203,338.8,1171,353,1138.25,376.77l-64,50.64Z"/><path class="cls-2" d="M251.87,708.72a4.92,4.92,0,1,1-4.93-4.93A4.91,4.91,0,0,1,251.87,708.72Zm-.83,0a4.09,4.09,0,1,0-8.18,0,4.09,4.09,0,0,0,8.18,0Zm-1,0a3.09,3.09,0,0,1-6.17,0h.49a2.62,2.62,0,0,0,5.19,0Zm-4.81-1.68c0-.54.19-1,.52-1s.48.42.48,1-.16,1-.48,1S245.21,707.63,245.21,707.08Zm2.45,0c0-.54.16-1,.48-1s.52.42.52,1-.18,1-.52,1S247.66,707.63,247.66,707.08Z"/><path class="cls-2" d="M259.07,713.46H257.9V704h1.17Z"/><path class="cls-2" d="M268.37,704.93h-3.15v8.53H264v-8.53h-3.17v-1h7.5Z"/><path class="cls-2" d="M274.46,710.84h-4.19l-1,2.62H268l3.76-9.51H273l3.63,9.51h-1.26Zm-.37-1-1.69-4.68-1.77,4.68Z"/><path class="cls-2" d="M284.21,712.45v1h-5.78V704h1.21v8.5Z"/><path class="cls-2" d="M287.16,713.46H286V704h1.18Z"/><path class="cls-2" d="M289.39,708.71c0-2.87,1.74-4.93,4.41-4.93a3.67,3.67,0,0,1,4.05,3.2h-1.24a2.54,2.54,0,0,0-2.81-2.21c-1.79,0-3.22,1.54-3.22,3.94s1.43,3.92,3.22,3.92a2.56,2.56,0,0,0,2.82-2.2h1.25c-.42,2-1.6,3.19-4.07,3.19C291.14,713.62,289.39,711.58,289.39,708.71Z"/><path class="cls-2" d="M596.87,708.72a4.92,4.92,0,1,1-4.93-4.93A4.91,4.91,0,0,1,596.87,708.72Zm-.83,0a4.09,4.09,0,1,0-8.18,0,4.09,4.09,0,0,0,8.18,0Zm-1,0a3.09,3.09,0,0,1-6.17,0h.49a2.62,2.62,0,0,0,5.19,0Zm-4.81-1.68c0-.54.19-1,.52-1s.48.42.48,1-.16,1-.48,1S590.21,707.63,590.21,707.08Zm2.45,0c0-.54.16-1,.48-1s.52.42.52,1-.18,1-.52,1S592.66,707.63,592.66,707.08Z"/><path class="cls-2" d="M606.15,709.3h-2.06v4.16H602.9V704h3.9c2.17,0,3.17,1,3.17,2.61,0,1.43-.79,2.4-2.55,2.61l3.07,4.29h-1.33Zm-2.06-1h2.57c1.39,0,2.12-.63,2.12-1.74s-.76-1.62-2.14-1.62h-2.55Z"/><path class="cls-2" d="M613.53,705v3.14h4.81v1h-4.81v3.36h5.4v1h-6.57V704h6.57v1Z"/><path class="cls-2" d="M629,708.53v4.93h-1v-1.74a3.14,3.14,0,0,1-3.14,1.9c-2.67,0-4.47-2-4.47-4.91s1.78-4.93,4.44-4.93a3.75,3.75,0,0,1,4,2.73h-1.27a2.6,2.6,0,0,0-2.74-1.74c-1.91,0-3.24,1.5-3.24,3.94s1.31,3.92,3.28,3.92a2.89,2.89,0,0,0,3.06-3.11h-3.32v-1Z"/><path class="cls-2" d="M639.18,709.76c0,2.57-1.53,3.86-3.92,3.86s-3.94-1.3-3.94-3.86V704h1.18v5.81a2.57,2.57,0,0,0,2.77,2.83,2.54,2.54,0,0,0,2.73-2.78V704h1.18Z"/><path class="cls-2" d="M647.65,712.45v1h-5.77V704h1.21v8.5Z"/><path class="cls-2" d="M655.3,710.84h-4.19l-1,2.62h-1.26l3.76-9.51h1.27l3.63,9.51h-1.26Zm-.37-1-1.69-4.68-1.77,4.68Z"/><path class="cls-2" d="M662.52,709.3h-2.06v4.16h-1.19V704h3.91c2.17,0,3.17,1,3.17,2.61,0,1.43-.79,2.4-2.55,2.61l3.07,4.29h-1.33Zm-2.06-1H663c1.39,0,2.12-.63,2.12-1.74s-.76-1.62-2.15-1.62h-2.55Z"/><path class="cls-2" d="M1025.87,708.72a4.92,4.92,0,1,1-4.93-4.93A4.91,4.91,0,0,1,1025.87,708.72Zm-.83,0a4.09,4.09,0,1,0-8.18,0,4.09,4.09,0,0,0,8.18,0Zm-1,0a3.09,3.09,0,0,1-6.17,0h.49a2.62,2.62,0,0,0,5.19,0Zm-4.81-1.68c0-.54.19-1,.52-1s.48.42.48,1-.16,1-.48,1S1019.21,707.63,1019.21,707.08Zm2.45,0c0-.54.16-1,.48-1s.52.42.52,1-.18,1-.52,1S1021.66,707.63,1021.66,707.08Z"/><path class="cls-2" d="M1039.26,710.75c0,1.67-1,2.71-3.39,2.71h-4V704h3.76c2.17,0,3.17.93,3.17,2.5a2.17,2.17,0,0,1-1.71,2.06A2.24,2.24,0,0,1,1039.26,710.75Zm-6.19-5.81v3.17h2.48c1.32,0,2.09-.61,2.09-1.66s-.9-1.51-2.29-1.51Zm5,5.81c0-1.26-1-1.65-2.44-1.65h-2.58v3.36h2.57C1037.11,712.46,1038.09,712.08,1038.09,710.75Z"/><path class="cls-2" d="M1040.9,708.71c0-2.94,1.81-4.93,4.43-4.93s4.42,2,4.42,4.93-1.8,4.91-4.42,4.91S1040.9,711.63,1040.9,708.71Zm7.66,0c0-2.44-1.27-3.94-3.23-3.94s-3.24,1.5-3.24,3.94,1.28,3.92,3.24,3.92S1048.56,711.13,1048.56,708.71Z"/><path class="cls-2" d="M1057.78,712.45v1H1052V704h1.2v8.5Z"/><path class="cls-2" d="M1067.24,708.71a4.43,4.43,0,0,1-4.63,4.75h-3V704h3A4.43,4.43,0,0,1,1067.24,708.71Zm-1.2,0c0-2.38-1.33-3.77-3.61-3.77h-1.69v7.52h1.69C1064.69,712.46,1066,711.08,1066,708.71Z"/></g></svg>