<svg xmlns="http://www.w3.org/2000/svg" viewBox="0 0 1366 768"><defs><style>.cls-1{fill:#fdfaf5;}.cls-2{fill:#1a26cd;}</style></defs><g id="Layer_1" data-name="Layer 1"><rect class="cls-1" x="-40.27" y="-79.94" width="1446.07" height="930.38"/><path class="cls-2" d="M79.41,728H78.26v-9.91h1.15Z"/><path class="cls-2" d="M88.62,719.1H85.55V728H84.4V719.1H81.31v-1h7.31Z"/><path class="cls-2" d="M95.68,725.26H91.59l-1,2.73H89.39l3.67-9.91H94.3L97.84,728H96.61Zm-.35-1-1.66-4.87L92,724.22Z"/><path class="cls-2" d="M105.27,726.94v1H99.64v-9.91h1.17v8.86Z"/><path class="cls-2" d="M108.25,728h-1.14v-9.91h1.14Z"/><path class="cls-2" d="M116.27,725.26h-4.09l-1,2.73H110l3.66-9.91h1.25l3.54,9.91H117.2Zm-.36-1-1.65-4.87-1.72,4.87Z"/><path class="cls-2" d="M127.84,718.08V728h-1.75l-4.77-8.92V728h-1.1v-9.91H122l4.79,8.91v-8.91Z"/><path class="cls-2" d="M141.57,725.17c0,1.74-1,2.82-3.31,2.82h-3.88v-9.91h3.68c2.12,0,3.09,1,3.09,2.61a2.24,2.24,0,0,1-1.67,2.15A2.27,2.27,0,0,1,141.57,725.17Zm-6-6v3.29H138c1.28,0,2-.62,2-1.72s-.88-1.57-2.23-1.57Zm4.89,6c0-1.31-.95-1.72-2.38-1.72h-2.51V727H138C139.47,727,140.42,726.56,140.42,725.17Z"/><path class="cls-2" d="M143.27,723c0-3.06,1.77-5.13,4.32-5.13s4.32,2.07,4.32,5.13-1.76,5.12-4.32,5.12S143.27,726.09,143.27,723Zm7.48,0c0-2.54-1.24-4.1-3.16-4.1s-3.16,1.56-3.16,4.1,1.25,4.08,3.16,4.08S150.75,725.56,150.75,723Z"/><path class="cls-2" d="M159.82,726.94v1h-5.63v-9.91h1.17v8.86Z"/><path class="cls-2" d="M169.15,723c0,3.05-1.88,5-4.52,5h-3v-9.91h3C167.27,718.08,169.15,720,169.15,723ZM168,723c0-2.48-1.29-3.92-3.52-3.92H162.8V727h1.66C166.66,727,168,725.51,168,723Z"/><path class="cls-2" d="M189.5,724.73H178v-1.05H189.5Z"/><path class="cls-2" d="M201.1,718.08V728h-1.17v-7.81a2.78,2.78,0,0,1-2.12.63v-1c1.58-.06,2.06-.69,2.29-1.71Z"/><path class="cls-2" d="M210,725.21a3,3,0,0,1-3.32,2.95c-2.2,0-3.33-1.25-3.34-3h1.12a2,2,0,0,0,2.23,2,1.91,1.91,0,0,0,2.13-1.91c0-1.09-.67-1.75-2.39-1.75h-.78v-1.08h.78c1.59,0,2.15-.77,2.15-1.73a1.7,1.7,0,0,0-1.86-1.71,1.88,1.88,0,0,0-2,1.81h-1.14a3,3,0,0,1,3.16-2.84,2.76,2.76,0,0,1,3,2.68,2.26,2.26,0,0,1-1.31,2.25A2.31,2.31,0,0,1,210,725.21Z"/><path class="cls-2" d="M211.69,723.05c0-3,1.37-5.14,3.7-5.14s3.71,2.15,3.71,5.14-1.37,5.11-3.71,5.11S211.69,726,211.69,723.05Zm6.27,0c0-2.47-.9-4.06-2.57-4.06s-2.57,1.59-2.57,4.06.91,4,2.57,4S218,725.54,218,723.05Z"/><path class="cls-2" d="M232,720.84c0,1.63-1.05,2.81-3.17,2.81h-2.57V728h-1.17v-9.91h3.83C231,718.08,232,719.13,232,720.84Zm-1.16,0c0-1.11-.65-1.72-2.11-1.72h-2.47v3.5h2.47C230.19,722.62,230.84,721.9,230.84,720.84Z"/><path class="cls-2" d="M240.37,719.1h-3.08V728h-1.14V719.1h-3.09v-1h7.31Z"/><path class="cls-2" d="M241.55,725h1.22c.17,1.4,1.15,2.08,2.65,2.08s2.32-.74,2.32-1.7-.54-1.39-1.62-1.65l-2.16-.51a2.45,2.45,0,0,1-2.11-2.51c0-1.6,1.27-2.84,3.32-2.84s3.43.91,3.64,2.94h-1.22a2.14,2.14,0,0,0-2.44-1.91c-1.34,0-2.08.73-2.08,1.66,0,.72.34,1.21,1.41,1.48l2.09.51a2.67,2.67,0,0,1,2.39,2.65c0,1.74-1.27,2.92-3.54,2.92C243,728.16,241.74,727,241.55,725Z"/><path d="M140,151.56c16.8,24.32,41.44,25,64,21.12v1c-25.13,5.44-62.57,1.92-78.73-20.64l-9-12.48a61.78,61.78,0,0,1-16,1.92h-3v15c0,5.92,3.68,9.76,9.28,15.52v.64H73.23V173c5.6-5.76,9.28-9.6,9.28-15.52V77.32c0-5.92-3.68-9.76-9.28-15.52v-.64h28.48c30.72,0,43.36,17.12,43.36,40.48,0,14.24-5.44,26.24-16.48,33.44ZM97.23,62.44v78.72h3.68c22.24,0,28.48-19.84,28.48-39s-6.24-39.68-27.52-39.68Zm80.48,51.36c0,17.6,5.92,27.2,24.17,27.2,17.6,0,26.24-10.88,26.24-26.88V79.72c0-10.72-1.28-14.4-5.44-18.08v-.48h11.84v.48c-3.68,4.16-5.12,7.36-5.12,18.08v34.4c0,18.56-9.44,29.44-31.85,29.44s-33-10.56-33-28.48V79.72c0-4.32,0-12.16-2.56-17.92v-.64h18.24v.64c-2.56,5.76-2.56,13.6-2.56,17.92Z"/><path d="M330.2,89.64V108h-1.28c-7-13.92-9.76-18.4-16.8-18.4-8,0-11.2,6.08-11.2,13.44,0,6.88,1.76,11.52,5.12,17.92l7.68,14.72c2.72,5.12,5,10.88,5,17.12,0,13.76-10.4,22.72-24.48,22.72-9.44,0-15.37-4.48-19-10.72-5,6.56-13.12,10.72-24,10.72-7.36,0-17.12-2.08-22.72-5.12v-17.6l1-.16c7,12,13.6,21.6,22.4,21.6,9.6,0,14.57-8.8,14.57-18.72,0-9.28-2.57-14.4-6.08-21l-10.57-19.36c-4.16-7.68-7.36-16.48-7.36-26.4,0-17.12,13.12-29.6,33.29-29.6A120.46,120.46,0,0,1,300,61.8V81.32h-1c-6.88-11.68-11.52-20.8-24.48-20.8-12.81,0-20.33,7.52-20.33,19.84,0,10.4,5.93,20.64,10.09,28.64l6.88,13.44c4.8,9.28,9,16.32,9,26.88a26.15,26.15,0,0,1-4.16,14.4c3.84,6.56,9.6,10.56,16.32,10.56,9.28,0,14.88-7.2,14.88-15.2,0-6.88-2.4-11.2-5.76-17l-7.2-12.32c-3-5.28-5.28-12.16-5.28-17.92,0-16.16,12-23.68,24.8-23.68A98.7,98.7,0,0,1,330.2,89.64Z"/><path d="M360.59,157.48c0,5.92,3.36,9.76,8.64,15.52v.64H336.59V173c5.6-5.76,9.28-9.6,9.28-15.52V77.32c0-5.92-3.68-9.76-9.28-15.52v-.64h32.64v.64c-5.28,5.76-8.64,9.6-8.64,15.52Z"/><path d="M387.47,138.28l-2.56,10.24C382,160,383,166.6,388,173v.64H374V173c2.88-4.64,5.76-9.76,9.6-24.8l17-66.88c3.68-5.6,6.56-13.6,6.56-20.64h1.12l24.48,99A80.92,80.92,0,0,0,437.07,173v.64H420.75v-1a56.83,56.83,0,0,0-1.44-12.8l-5.12-21.6Zm13.76-54.4L387.79,137h26.08Z"/><path d="M559.79,156.2l-4.32,17.44H480.11V173c5.6-5.76,9.28-9.6,9.28-15.52V77.32c0-5.92-3.68-9.76-9.28-15.52v-.64h32.64v.64c-5.28,5.76-8.64,9.6-8.64,15.52v95h28.32c10.88,0,17.28-6.56,26.4-16.16Zm47.84-55c0,28-20.32,41.12-41.6,41.12-21.44,0-42.08-13.12-42.08-41.12,0-28.32,20.32-41.92,41.44-41.92C586.83,59.24,607.63,72.84,607.63,101.16Zm-14.4.64c0-21.92-8.48-41.28-27.84-41.28-20.8,0-27,18.24-27,38.4,0,21.12,8.32,41.76,28.32,41.76C587.47,140.68,593.23,120.84,593.23,101.8Z"/><path d="M697.39,83.88c2.56-6.24,4.16-10.24,4.16-13,0-4-2.88-6.4-8.48-9.12v-.64h20.32v.64c-6.72,3.68-8.48,7.52-12.16,16.32l-40.32,97.44h-1L619.63,76.2c-2.08-5-5.28-11.36-9.92-14.4v-.64h29.44v.64c-5.6,4.32-5.92,8.16-3.52,14.08l32.16,79.36Z"/><path d="M887.31,156.2,883,173.64H716.59V173c5.6-5.76,9.28-9.6,9.28-15.52V77.32c0-5.92-3.68-9.76-9.28-15.52v-.64H876.91L880.43,77h-1c-8.64-6.56-19.52-14.56-23.84-14.56h-115v56.32H863.47c3.36,0,6.56,0,15-9.44h1v20h-1C870,120,866.83,120,863.47,120H740.59v52.32H860c10.72,0,17.28-6.56,26.4-16.16Z"/><path d="M260.76,276.76c0,17.12-9.76,26.88-36.64,26.88H73.23V303c5.6-5.76,9.28-9.6,9.28-15.52V207.32c0-5.92-3.68-9.76-9.28-15.52v-.64h153c26.72,0,39.68,10.08,39.68,29.76,0,18.08-12.64,28.32-34.4,30.24C248.28,252.12,260.76,257.88,260.76,276.76ZM97.23,192.44V250H228.92c15.2,0,21.28-13.92,21.28-29.12,0-15.52-5.92-28.48-24.32-28.48Zm0,109.92H225.88c15.52,0,19.2-13.44,19.2-25.28s-3.68-25.76-19.2-25.76H97.23Z"/><path d="M276,247c0-29.92,20.48-57.76,57.44-57.76,36.64,0,61.61,24.32,61.61,58.24,0,30.08-21.45,57.76-58.25,57.76C299.15,305.24,276,279.48,276,247Zm60.8,57c33.12,0,42.56-28.32,42.56-54.4,0-31.36-15.68-59-46.08-59-31.52,0-41.6,28.32-41.6,54.4C291.63,274.52,304.75,304,336.75,304Z"/><path d="M483.15,286.2l-4.32,17.44H403.47V303c5.6-5.76,9.28-9.6,9.28-15.52V207.32c0-5.92-3.68-9.76-9.28-15.52v-.64h32.64v.64c-5.28,5.76-8.64,9.6-8.64,15.52v95h28.32c10.88,0,17.28-6.56,26.4-16.16Zm33.6-29.28a116.69,116.69,0,0,0,8,13.28v.64H508.27v-.64c0-3.2-1.28-6.56-5.12-14.08l-.8-1.6H452.27l-1.92,4c-2.08,4.32-.48,8.16,3.52,11.68v.64H440.11v-.64c3.36-2.56,6.24-6.88,10.24-14.88L476.59,204c2.56-5,4.64-9,5.6-13.28h.64Zm-15-3.68-24.48-47.52-24.32,47.52Z"/><path d="M711.79,305.24l-1.43.32L538.67,198.2v86.4c0,11.68,1.6,16.64,10.72,18.4v.64H526.51V303c8.8-1.6,10.4-6.72,10.4-18.4V196.44c-2.08-2.4-6.72-3.84-10.56-4.64v-.64h29.92L710,286.68V210.2c0-11.68-1.6-16.8-10.41-18.4v-.64h22.89v.64c-9.12,1.76-10.73,6.72-10.73,18.4ZM645.39,181.4c6.08,0,8.48-3.36,8.48-3.36h.64a10.74,10.74,0,0,1-10.72,7.68c-7.36,0-13.92-5.44-20.32-5.44-6.08,0-8.8,3.36-8.8,3.36H614s3.36-7.68,10.56-7.68S638.83,181.4,645.39,181.4Z"/><path d="M728.75,247c0-29.92,20.48-57.76,57.44-57.76,36.64,0,61.6,24.32,61.6,58.24,0,30.08-21.44,57.76-58.24,57.76C752,305.24,728.75,279.48,728.75,247Zm60.8,57c33.12,0,42.56-28.32,42.56-54.4,0-31.36-15.68-59-46.08-59-31.52,0-41.6,28.32-41.6,54.4C744.43,274.52,757.55,304,789.55,304Z"/><path d="M155.79,321.8v21.28h-1c-7.52-11.36-15.36-23-28.48-23C103.79,320,91,348.36,91,377.32c0,28.32,13.28,57.44,33.92,57.44,8.48,0,12.8-2.72,12.8-9.28V399.56c0-12.64-1.44-16.64-7.36-20.32v-.64h22.08v53.28c-6.4,2.24-17.76,4.16-27.2,4.16C93.71,436,75.31,410.12,75.31,378c0-34.56,21.44-59.2,55.36-59.2A103.9,103.9,0,0,1,155.79,321.8Z"/><path d="M236.34,411.4h-60.8l-1.92,5.44c-1.45,4.16-2.24,6.4-2.24,8.48,0,4,2.4,5.44,8.32,7.68v.64h-20V433c5.6-2.56,9.13-9,11.21-13.92l34.4-84.16-.64-1.44a21.1,21.1,0,0,0-11.52-11.36v-1h22.72l39.2,96.64c3,7.52,6.4,12.8,10.24,15.2v.64H235.86V433c4.8-3.68,6.24-7.2,3.52-14.08ZM176,410.12h59.85l-29.92-73.44Z"/><path d="M333.58,416.2l-4.32,17.44H269.9V433c5.6-5.76,9.28-9.6,9.28-15.52V337.32c0-5.92-3.68-9.76-9.28-15.52v-.64h32.64v.64c-5.28,5.76-8.64,9.6-8.64,15.52v95h12.32c10.88,0,17.28-6.56,26.4-16.16Z"/><path d="M349.52,398.28,347,408.52C344.08,420,345,426.6,350,433v.64H336.08V433c2.88-4.64,5.76-9.76,9.6-24.8l17-66.88c3.68-5.6,6.56-13.6,6.56-20.64h1.12l24.48,99A80.92,80.92,0,0,0,399.12,433v.64H382.8v-1a56.83,56.83,0,0,0-1.44-12.8l-5.12-21.6Zm13.76-54.4L349.84,397h26.08Z"/><path d="M426,412.68c-2.88,4-5,7.36-5,11.36,0,4.64,2.71,6.88,6.72,9v.64h-24V433c7.53-2.88,13.77-10.72,18.57-17.6l23.2-32.64-26.24-43.68c-6.24-10.4-9-13.44-15.53-17.28v-.64h30.73v.64c-2.72,3.2-3.68,7.52.8,15L454.64,369,474,342.12c2.88-4,5-8,5-11.84,0-3.68-2.72-6.4-6.72-8.48v-.64h24v.64c-7.52,2.88-13.76,10.72-18.72,17.6l-22.08,30.72L483,415.72c6.24,10.4,9,13.44,15.52,17.28v.64H467.76V433c2.72-3.2,3.68-7.68-.8-15L446.32,384.2Z"/><path d="M527.08,417.48c0,5.92,3.36,9.76,8.64,15.52v.64H503.08V433c5.6-5.76,9.28-9.6,9.28-15.52V337.32c0-5.92-3.68-9.76-9.28-15.52v-.64h32.64v.64c-5.28,5.76-8.64,9.6-8.64,15.52Z"/><path d="M617.42,411.4h-60.8l-1.92,5.44c-1.45,4.16-2.24,6.4-2.24,8.48,0,4,2.4,5.44,8.32,7.68v.64h-20V433c5.61-2.56,9.13-9,11.21-13.92l34.4-84.16-.64-1.44a21.1,21.1,0,0,0-11.52-11.36v-1h22.72l39.2,96.64c3,7.52,6.4,12.8,10.24,15.2v.64H616.94V433c4.8-3.68,6.24-7.2,3.52-14.08Zm-60.33-1.28h59.85L587,336.68Z"/><path d="M154.35,555.32c2.56,4.48,4.64,6.88,9.92,7.68v.64c-12.64,3.68-21.44-.64-28.32-10.56l-5-7.2c-9.44-13.6-13.6-13.44-23.2-13.44-3.52,0-8.32-.48-10.56-1.6v16.64c0,5.92,3.36,9.76,8.64,15.52v.64H73.23V563c5.6-5.76,9.28-9.6,9.28-15.52V467.32c0-5.92-3.68-9.76-9.28-15.52v-.64h31c36,0,49.92,16.32,49.92,39.36,0,21.44-14.4,37.12-37.6,41h2.56c15.36,0,23.68,3.68,30.72,16ZM97.23,452.44v77.12a25,25,0,0,0,9.76,1.6c25.92,0,31.52-18.4,31.52-40,0-17.6-7.36-38.72-34.24-38.72Z"/><path d="M252.91,526.84c0,25.92-12.16,38.72-38.24,38.72-29.76,0-44.48-14.72-44.48-37.44v-60.8c0-5.92-3.68-10.56-7.68-15.52v-.64H192v.64c-3.68,5-7,9.6-7,15.52v59.2c0,21,10.72,34.24,31.52,34.24,24.16,0,35.2-12.16,35.2-33.92V467.32c0-6.72-3.84-9.92-10.88-15.52v-.64h23v.64c-6.72,5.28-10.88,8.8-10.88,15.52Z"/><path d="M482.66,451.8c-5.28,4.16-8.64,8-8.64,13.92v81.76c0,5.92,3.36,9.76,8.64,15.52v.64H450V563c5.6-5.76,9.28-9.6,9.28-15.52V452.92l-95.53,88.64H363l-82.56-78.88V544.6c0,6.72,3.84,12.8,10.88,18.4v.64h-23V563c6.72-5.28,10.88-11.68,10.88-18.4V467.32c0-8.32-3.84-11.52-10.88-15.52v-.64h22.88l83.2,79,85-79h23.36Z"/><path d="M500.49,528.28l-2.56,10.24C495.05,550,496,556.6,501,563v.64H487.05V563c2.88-4.64,5.76-9.76,9.6-24.8l17-66.88c3.68-5.6,6.56-13.6,6.56-20.64h1.12l24.48,99A80.92,80.92,0,0,0,550.09,563v.64H533.77v-1a56.83,56.83,0,0,0-1.44-12.8l-5.12-21.6Zm13.76-54.4L500.81,527h26.08Z"/><path d="M567.61,547.48c0,6.72,4.16,9.6,10.88,15.52v.64h-23V563c7-6.24,10.88-8.8,10.88-15.52v-83.2l-8.64-11.84v-1.28h17.44l65.76,88.48V467.32c0-6.72-3.84-9.28-10.88-15.52v-.64h23v.64c-6.72,5.92-10.88,8.8-10.88,15.52V538.2c0,11,0,18.88.32,27l-1,.32-73.92-99.2Z"/><path d="M656.23,507c0-29.92,20.48-57.76,57.44-57.76,36.64,0,61.61,24.32,61.61,58.24,0,30.08-21.45,57.76-58.25,57.76C679.43,565.24,656.23,539.48,656.23,507ZM717,564c33.12,0,42.56-28.32,42.56-54.4,0-31.36-15.68-59-46.08-59-31.52,0-41.6,28.32-41.6,54.4C671.91,534.52,685,564,717,564Z"/><path d="M148.27,671.4H87.47l-1.92,5.44c-1.44,4.16-2.24,6.4-2.24,8.48,0,4,2.4,5.44,8.32,7.68v.64h-20V693c5.6-2.56,9.12-9,11.2-13.92l34.4-84.16-.64-1.44a21.1,21.1,0,0,0-11.52-11.36v-1h22.72L167,677.8c3,7.52,6.4,12.8,10.24,15.2v.64H147.79V693c4.8-3.68,6.24-7.2,3.52-14.08ZM88,670.12h59.84l-29.92-73.44Z"/><path d="M193.28,677.48c0,6.72,4.16,9.6,10.88,15.52v.64h-23V693c7-6.24,10.88-8.8,10.88-15.52v-83.2l-8.64-11.84v-1.28H200.8l65.76,88.48V597.32c0-6.72-3.84-9.28-10.88-15.52v-.64h23v.64c-6.72,5.92-10.88,8.8-10.88,15.52V668.2c0,11,0,18.88.32,27l-1,.32-73.92-99.2Z"/><path d="M283.76,581.16h40.8c41.6,0,63,24.16,63,55.36,0,32.8-21.44,57.12-63,57.12h-40.8V693c5.6-5.76,9.28-9.6,9.28-15.52V597.32c0-5.92-3.68-9.76-9.28-15.52Zm24,111.2H322c36,0,49.92-26.72,49.92-55.2S358,582.44,322,582.44H307.76Z"/><path d="M459.68,671.56c16.8,24.32,41.44,25,64,21.12v1c-25.12,5.44-62.56,1.92-78.72-20.64l-9-12.48a61.78,61.78,0,0,1-16,1.92h-3v15c0,5.92,3.68,9.76,9.28,15.52v.64H393V693c5.6-5.76,9.28-9.6,9.28-15.52V597.32c0-5.92-3.68-9.76-9.28-15.52v-.64h28.48c30.72,0,43.36,17.12,43.36,40.48,0,14.24-5.44,26.24-16.48,33.44ZM417,582.44v78.72h3.68c22.24,0,28.48-19.84,28.48-39s-6.24-39.68-27.52-39.68Zm140.8,38.72c0,28-20.32,41.12-41.6,41.12-21.44,0-42.08-13.12-42.08-41.12,0-28.32,20.32-41.92,41.44-41.92C537,579.24,557.76,592.84,557.76,621.16Zm-14.4.64c0-21.92-8.48-41.28-27.84-41.28-20.8,0-27,18.24-27,38.4,0,21.12,8.32,41.76,28.32,41.76C537.6,660.68,543.36,640.84,543.36,621.8Z"/><path d="M693.89,581.8c-5.28,4.16-8.64,8-8.64,13.92v81.76c0,5.92,3.36,9.76,8.64,15.52v.64H661.25V693c5.6-5.76,9.28-9.6,9.28-15.52V583.72L623,671.56h-.8l-50.56-78.88V674.6c0,6.72,3.84,12.8,10.88,18.4v.64h-23V693c6.72-5.28,10.88-11.68,10.88-18.4V597.32c0-8.32-3.84-11.52-10.88-15.52v-.64h22.88L630,655.56l40.49-74.4h23.36Z"/><path d="M758.09,693.64H698.73V693c5.6-5.76,9.28-9.6,9.28-15.52V597.32c0-5.92-3.68-9.76-9.28-15.52v-.64h54.56L756.81,597h-1c-8.64-6.56-19.52-14.56-23.84-14.56h-9.28v56.32h18.88c3.36,0,6.56,0,15-9.44h1v20h-1C748.17,640,745,640,741.61,640H722.73v52.32h12.32c10.72,0,17.28-6.56,26.4-16.16h1Z"/><path d="M766.73,581.16h40.8c41.6,0,63,24.16,63,55.36,0,32.8-21.44,57.12-63,57.12h-40.8V693c5.6-5.76,9.28-9.6,9.28-15.52V597.32c0-5.92-3.68-9.76-9.28-15.52Zm24,111.2H805c36,0,49.92-26.72,49.92-55.2S841,582.44,805,582.44H790.73Z"/><path d="M942.24,671.4H881.43l-1.92,5.44c-1.44,4.16-2.24,6.4-2.24,8.48,0,4,2.4,5.44,8.32,7.68v.64h-20V693c5.6-2.56,9.12-9,11.2-13.92l34.41-84.16-.64-1.44A21.13,21.13,0,0,0,899,582.12v-1h22.72L961,677.8c3,7.52,6.4,12.8,10.24,15.2v.64H941.76V693c4.8-3.68,6.24-7.2,3.52-14.08Zm-60.32-1.28h59.84l-29.93-73.44Z"/><path class="cls-2" d="M1007.45,718.08l-3.78,9.91h-1L999,718.08h1.23l3,8.37,3-8.37Z"/><path class="cls-2" d="M1010.32,719.13v3.27H1015v1h-4.69v3.51h5.27v1h-6.42v-9.91h6.42v1Z"/><path class="cls-2" d="M1021.07,723.65h-2V728h-1.16v-9.91h3.81c2.12,0,3.09,1,3.09,2.73a2.51,2.51,0,0,1-2.48,2.71l3,4.47H1024Zm-2-1h2.52c1.35,0,2.06-.66,2.06-1.81s-.74-1.69-2.09-1.69h-2.49Z"/><path class="cls-2" d="M1026.59,725h1.21c.18,1.4,1.15,2.08,2.66,2.08s2.32-.74,2.32-1.7-.55-1.39-1.63-1.65l-2.16-.51a2.45,2.45,0,0,1-2.1-2.51c0-1.6,1.27-2.84,3.32-2.84s3.43.91,3.64,2.94h-1.22a2.15,2.15,0,0,0-2.45-1.91c-1.34,0-2.08.73-2.08,1.66,0,.72.35,1.21,1.41,1.48l2.09.51a2.67,2.67,0,0,1,2.4,2.65c0,1.74-1.27,2.92-3.54,2.92C1028,728.16,1026.78,727,1026.59,725Z"/><path class="cls-2" d="M1037.34,728h-1.15v-9.91h1.15Z"/><path class="cls-2" d="M1039.61,723c0-3.06,1.76-5.13,4.32-5.13s4.32,2.07,4.32,5.13-1.76,5.12-4.32,5.12S1039.61,726.09,1039.61,723Zm7.48,0c0-2.54-1.25-4.1-3.16-4.1s-3.16,1.56-3.16,4.1,1.25,4.08,3.16,4.08S1047.09,725.56,1047.09,723Z"/><path class="cls-2" d="M1058.14,718.08V728h-1.75l-4.77-8.92V728h-1.1v-9.91h1.75l4.79,8.91v-8.91Z"/><path class="cls-2" d="M1060.28,725h1.21c.18,1.4,1.15,2.08,2.66,2.08s2.32-.74,2.32-1.7-.55-1.39-1.63-1.65l-2.16-.51a2.45,2.45,0,0,1-2.1-2.51c0-1.6,1.27-2.84,3.32-2.84s3.43.91,3.64,2.94h-1.22a2.15,2.15,0,0,0-2.45-1.91c-1.34,0-2.08.73-2.08,1.66,0,.72.35,1.21,1.41,1.48l2.09.51a2.67,2.67,0,0,1,2.4,2.65c0,1.74-1.27,2.92-3.54,2.92C1061.71,728.16,1060.47,727,1060.28,725Z"/><path class="cls-2" d="M1076.73,723.65h-2V728h-1.16v-9.91h3.81c2.12,0,3.09,1,3.09,2.73a2.51,2.51,0,0,1-2.49,2.71l3,4.47h-1.3Zm-2-1h2.52c1.35,0,2.06-.66,2.06-1.81s-.74-1.69-2.09-1.69h-2.49Z"/><path class="cls-2" d="M1084.12,719.13v3.27h4.69v1h-4.69v3.51h5.26v1H1083v-9.91h6.41v1Z"/><path class="cls-2" d="M1099.57,722.85V728h-1v-1.81a3.05,3.05,0,0,1-3.06,2c-2.61,0-4.36-2.07-4.36-5.12s1.73-5.13,4.33-5.13a3.68,3.68,0,0,1,3.9,2.84h-1.23a2.55,2.55,0,0,0-2.68-1.81c-1.86,0-3.16,1.56-3.16,4.1s1.27,4.08,3.2,4.08,3-1.26,3-3.23h-3.24v-1Z"/><path class="cls-2" d="M1109.56,724.13c0,2.69-1.49,4-3.83,4s-3.84-1.36-3.84-4v-6H1103v6c0,1.94,1.08,3,2.7,3a2.56,2.56,0,0,0,2.67-2.89v-6.11h1.15Z"/><path class="cls-2" d="M1117.94,726.94v1h-5.63v-9.91h1.17v8.86Z"/><path class="cls-2" d="M1124.93,725.26h-4.09l-1,2.73h-1.23l3.67-9.91h1.24l3.54,9.91h-1.23Zm-.35-1-1.66-4.87-1.72,4.87Z"/><path class="cls-2" d="M1132.06,723.65h-2V728h-1.16v-9.91h3.81c2.12,0,3.09,1,3.09,2.73a2.51,2.51,0,0,1-2.49,2.71l3,4.47H1135Zm-2-1h2.51c1.36,0,2.07-.66,2.07-1.81s-.74-1.69-2.09-1.69h-2.49Z"/><path class="cls-2" d="M1138.48,729.9h-.72a9.07,9.07,0,0,0,.62-1.73l-.18-.1a.83.83,0,0,1-.44-.74.79.79,0,1,1,1.58.07A6.35,6.35,0,0,1,1138.48,729.9Z"/><path class="cls-2" d="M1156.81,718.08,1154,728h-1.13l-2.37-8.25-2.17,8.25h-1.15l-2.93-9.91h1.16l2.33,8.13,2.23-8.13h1.09l2.38,8.14,2.24-8.14Z"/><path class="cls-2" d="M1159.81,728h-1.15v-9.91h1.15Z"/><path class="cls-2" d="M1170.16,723c0,3.05-1.87,5-4.51,5h-3v-9.91h3C1168.29,718.08,1170.16,720,1170.16,723Zm-1.16,0c0-2.48-1.3-3.92-3.53-3.92h-1.65V727h1.65C1167.68,727,1169,725.51,1169,723Z"/><path class="cls-2" d="M1173.74,719.13v3.27h4.69v1h-4.69v3.51H1179v1h-6.41v-9.91H1179v1Z"/><path class="cls-2" d="M1190.15,725.26h-4.09l-1,2.73h-1.23l3.66-9.91h1.25l3.54,9.91h-1.23Zm-.36-1-1.65-4.87-1.72,4.87Z"/><path class="cls-2" d="M1201.72,718.08V728H1200l-4.77-8.92V728h-1.09v-9.91h1.75l4.78,8.91v-8.91Z"/><path class="cls-2" d="M1212.08,723c0,3.05-1.88,5-4.52,5h-3v-9.91h3C1210.2,718.08,1212.08,720,1212.08,723Zm-1.17,0c0-2.48-1.3-3.92-3.52-3.92h-1.66V727h1.66C1209.59,727,1210.91,725.51,1210.91,723Z"/><path class="cls-2" d="M1219.33,719.13v3.27H1224v1h-4.69v3.51h5.26v1h-6.41v-9.91h6.41v1Z"/><path class="cls-2" d="M1232.58,728l-2.8-4.34-2.71,4.34h-1.34l3.35-5.15-3.09-4.76h1.34l2.52,3.94,2.47-3.94h1.34l-3.1,4.68,3.36,5.23Z"/><path class="cls-2" d="M1242,719.1h-3.07V728h-1.15V719.1h-3.09v-1H1242Z"/><path class="cls-2" d="M1245,719.13v3.27h4.69v1H1245v3.51h5.26v1h-6.41v-9.91h6.41v1Z"/><path class="cls-2" d="M1260.21,718.08V728h-1.75l-4.77-8.92V728h-1.1v-9.91h1.75l4.79,8.91v-8.91Z"/><path class="cls-2" d="M1270.56,723c0,3.05-1.87,5-4.51,5h-3v-9.91h3C1268.69,718.08,1270.56,720,1270.56,723Zm-1.16,0c0-2.48-1.3-3.92-3.53-3.92h-1.65V727h1.65C1268.08,727,1269.4,725.51,1269.4,723Z"/><path class="cls-2" d="M1274.14,719.13v3.27h4.69v1h-4.69v3.51h5.26v1H1273v-9.91h6.41v1Z"/><path class="cls-2" d="M1289.21,723c0,3.05-1.88,5-4.51,5h-3v-9.91h3C1287.33,718.08,1289.21,720,1289.21,723Zm-1.17,0c0-2.48-1.29-3.92-3.52-3.92h-1.66V727h1.66C1286.72,727,1288,725.51,1288,723Z"/></g></svg>