<?xml version="1.0" encoding="UTF-8"?><svg id="Layer_1" xmlns="http://www.w3.org/2000/svg" xmlns:xlink="http://www.w3.org/1999/xlink" viewBox="0 0 1366 768"><defs><style>.cls-1{clip-path:url(#clippath);}.cls-2{fill:#f2f2f2;}.cls-3{fill:#fdfaf5;}</style><clipPath id="clippath"><rect width="1366" height="768"/></clipPath></defs><g><rect width="1366" height="768"/><g class="cls-1"><rect x="9.51" y="6.58" width="1346.99" height="760.1"/></g></g><g><path class="cls-2" d="M930.93,718.08l-3.77,9.91h-1.03l-3.68-9.91h1.23l2.98,8.37,3.04-8.37h1.23Z"/><path class="cls-2" d="M933.81,719.13v3.27h4.69v1.04h-4.69v3.5h5.26v1.05h-6.41v-9.91h6.41v1.05h-5.26Z"/><path class="cls-2" d="M944.56,723.65h-2.01v4.33h-1.16v-9.91h3.81c2.12,0,3.09,1.05,3.09,2.73,0,1.49-.77,2.49-2.49,2.71l2.99,4.46h-1.3l-2.94-4.33Zm-2.01-1.04h2.52c1.35,0,2.06-.66,2.06-1.81s-.74-1.69-2.09-1.69h-2.49v3.5Z"/><path class="cls-2" d="M950.07,725.04h1.22c.18,1.4,1.15,2.09,2.65,2.09,1.59,0,2.32-.74,2.32-1.71,0-.88-.55-1.39-1.63-1.65l-2.16-.51c-1.37-.32-2.11-1.21-2.11-2.51,0-1.6,1.27-2.84,3.32-2.84s3.43,.92,3.64,2.95h-1.22c-.18-1.31-1.08-1.91-2.45-1.91s-2.08,.73-2.08,1.66c0,.71,.34,1.21,1.41,1.47l2.09,.51c1.5,.37,2.39,1.24,2.39,2.66,0,1.74-1.27,2.92-3.54,2.92-2.43,0-3.68-1.12-3.87-3.12Z"/><path class="cls-2" d="M960.82,727.99h-1.15v-9.91h1.15v9.91Z"/><path class="cls-2" d="M963.1,723.04c0-3.06,1.76-5.13,4.32-5.13s4.32,2.07,4.32,5.13-1.76,5.12-4.32,5.12-4.32-2.07-4.32-5.12Zm7.48,0c0-2.54-1.24-4.1-3.16-4.1s-3.16,1.56-3.16,4.1,1.24,4.08,3.16,4.08,3.16-1.56,3.16-4.08Z"/><path class="cls-2" d="M981.63,718.08v9.91h-1.75l-4.77-8.91v8.91h-1.09v-9.91h1.75l4.79,8.91v-8.91h1.08Z"/><path class="cls-2" d="M983.76,725.04h1.22c.18,1.4,1.15,2.09,2.65,2.09,1.59,0,2.32-.74,2.32-1.71,0-.88-.55-1.39-1.63-1.65l-2.16-.51c-1.37-.32-2.11-1.21-2.11-2.51,0-1.6,1.27-2.84,3.32-2.84s3.43,.92,3.64,2.95h-1.22c-.18-1.31-1.08-1.91-2.45-1.91s-2.08,.73-2.08,1.66c0,.71,.34,1.21,1.41,1.47l2.09,.51c1.5,.37,2.39,1.24,2.39,2.66,0,1.74-1.27,2.92-3.54,2.92-2.43,0-3.68-1.12-3.87-3.12Z"/><path class="cls-2" d="M1000.22,723.65h-2.01v4.33h-1.16v-9.91h3.81c2.12,0,3.09,1.05,3.09,2.73,0,1.49-.77,2.49-2.49,2.71l2.99,4.46h-1.3l-2.94-4.33Zm-2.01-1.04h2.52c1.35,0,2.06-.66,2.06-1.81s-.74-1.69-2.09-1.69h-2.49v3.5Z"/><path class="cls-2" d="M1007.6,719.13v3.27h4.69v1.04h-4.69v3.5h5.26v1.05h-6.41v-9.91h6.41v1.05h-5.26Z"/><path class="cls-2" d="M1023.06,722.85v5.13h-1.04v-1.81c-.48,1.18-1.45,1.98-3.06,1.98-2.61,0-4.36-2.07-4.36-5.12s1.74-5.13,4.33-5.13c1.93,0,3.35,.88,3.9,2.84h-1.23c-.42-1.17-1.23-1.81-2.68-1.81-1.86,0-3.16,1.56-3.16,4.1s1.27,4.08,3.2,4.08,2.97-1.27,2.98-3.24h-3.24v-1.04h4.36Z"/><path class="cls-2" d="M1033.04,724.13c0,2.68-1.49,4.03-3.83,4.03s-3.84-1.36-3.84-4.03v-6.05h1.15v6.05c0,1.94,1.08,2.95,2.71,2.95s2.67-.96,2.67-2.89v-6.11h1.15v6.05Z"/><path class="cls-2" d="M1041.43,726.94v1.05h-5.63v-9.91h1.18v8.86h4.46Z"/><path class="cls-2" d="M1048.42,725.26h-4.09l-.97,2.73h-1.23l3.66-9.91h1.24l3.54,9.91h-1.23l-.93-2.73Zm-.36-1.04l-1.65-4.87-1.72,4.87h3.38Z"/><path class="cls-2" d="M1055.55,723.65h-2.01v4.33h-1.16v-9.91h3.81c2.12,0,3.09,1.05,3.09,2.73,0,1.49-.77,2.49-2.49,2.71l2.99,4.46h-1.3l-2.94-4.33Zm-2.01-1.04h2.52c1.35,0,2.06-.66,2.06-1.81s-.74-1.69-2.09-1.69h-2.49v3.5Z"/><path class="cls-2" d="M1061.96,729.9h-.71c.34-.8,.49-1.2,.62-1.72l-.18-.1c-.26-.15-.44-.41-.44-.74,0-.47,.36-.83,.79-.83s.78,.32,.78,.91c0,.51-.25,1.28-.86,2.49Z"/><path class="cls-2" d="M1080.3,718.08l-2.8,9.91h-1.13l-2.37-8.24-2.17,8.24h-1.15l-2.93-9.91h1.16l2.32,8.13,2.23-8.13h1.09l2.38,8.14,2.24-8.14h1.12Z"/><path class="cls-2" d="M1083.3,727.99h-1.15v-9.91h1.15v9.91Z"/><path class="cls-2" d="M1093.65,723.04c0,3.05-1.87,4.95-4.51,4.95h-2.98v-9.91h2.98c2.64,0,4.51,1.9,4.51,4.96Zm-1.16,0c0-2.48-1.3-3.92-3.53-3.92h-1.65v7.83h1.65c2.2,0,3.53-1.44,3.53-3.91Z"/><path class="cls-2" d="M1097.22,719.13v3.27h4.69v1.04h-4.69v3.5h5.26v1.05h-6.41v-9.91h6.41v1.05h-5.26Z"/><path class="cls-2" d="M1108.55,729.69h-.96l4.13-12.15h.96l-4.13,12.15Z"/><path class="cls-2" d="M1125.95,718.08v9.91h-1.75l-4.77-8.91v8.91h-1.09v-9.91h1.75l4.79,8.91v-8.91h1.08Z"/><path class="cls-2" d="M1129.96,719.13v3.27h4.69v1.04h-4.69v3.5h5.26v1.05h-6.41v-9.91h6.41v1.05h-5.26Z"/><path class="cls-2" d="M1136.81,725.04h1.22c.18,1.4,1.15,2.09,2.65,2.09,1.59,0,2.32-.74,2.32-1.71,0-.88-.55-1.39-1.63-1.65l-2.16-.51c-1.37-.32-2.11-1.21-2.11-2.51,0-1.6,1.27-2.84,3.32-2.84s3.43,.92,3.64,2.95h-1.22c-.18-1.31-1.08-1.91-2.45-1.91s-2.08,.73-2.08,1.66c0,.71,.34,1.21,1.41,1.47l2.09,.51c1.5,.37,2.39,1.24,2.39,2.66,0,1.74-1.27,2.92-3.54,2.92-2.43,0-3.68-1.12-3.87-3.12Z"/><path class="cls-2" d="M1152.77,719.1h-3.08v8.88h-1.15v-8.88h-3.09v-1.02h7.31v1.02Z"/><path class="cls-2" d="M1155.82,727.99h-1.15v-9.91h1.15v9.91Z"/><path class="cls-2" d="M1166.3,718.08v9.91h-1.75l-4.77-8.91v8.91h-1.09v-9.91h1.75l4.79,8.91v-8.91h1.08Z"/><path class="cls-2" d="M1177.03,722.85v5.13h-1.04v-1.81c-.48,1.18-1.45,1.98-3.06,1.98-2.61,0-4.36-2.07-4.36-5.12s1.74-5.13,4.33-5.13c1.93,0,3.35,.88,3.9,2.84h-1.23c-.42-1.17-1.23-1.81-2.68-1.81-1.86,0-3.16,1.56-3.16,4.1s1.27,4.08,3.2,4.08,2.97-1.27,2.98-3.24h-3.24v-1.04h4.36Z"/><path class="cls-2" d="M1188.29,725.26h-4.09l-.97,2.73h-1.23l3.66-9.91h1.24l3.54,9.91h-1.23l-.93-2.73Zm-.36-1.04l-1.65-4.87-1.72,4.87h3.38Z"/><path class="cls-2" d="M1199.86,718.08v9.91h-1.75l-4.77-8.91v8.91h-1.09v-9.91h1.75l4.79,8.91v-8.91h1.08Z"/><path class="cls-2" d="M1210.22,723.04c0,3.05-1.87,4.95-4.51,4.95h-2.98v-9.91h2.98c2.64,0,4.51,1.9,4.51,4.96Zm-1.16,0c0-2.48-1.3-3.92-3.53-3.92h-1.65v7.83h1.65c2.2,0,3.53-1.44,3.53-3.91Z"/><path class="cls-2" d="M1215.73,723.04c0-2.99,1.7-5.13,4.31-5.13,2.45,0,3.58,1.34,3.95,3.34h-1.22c-.33-1.6-1.22-2.3-2.73-2.3-1.75,0-3.14,1.6-3.14,4.1s1.39,4.08,3.14,4.08c1.48,0,2.38-.66,2.75-2.29h1.22c-.41,2.09-1.56,3.33-3.96,3.33-2.6,0-4.31-2.13-4.31-5.12Z"/><path class="cls-2" d="M1225.69,723.04c0-3.06,1.76-5.13,4.32-5.13s4.32,2.07,4.32,5.13-1.76,5.12-4.32,5.12-4.32-2.07-4.32-5.12Zm7.48,0c0-2.54-1.24-4.1-3.16-4.1s-3.16,1.56-3.16,4.1,1.24,4.08,3.16,4.08,3.16-1.56,3.16-4.08Z"/><path class="cls-2" d="M1244.22,718.08v9.91h-1.75l-4.77-8.91v8.91h-1.09v-9.91h1.75l4.79,8.91v-8.91h1.08Z"/><path class="cls-2" d="M1253.44,719.1h-3.08v8.88h-1.15v-8.88h-3.09v-1.02h7.31v1.02Z"/><path class="cls-2" d="M1258.52,723.65h-2.01v4.33h-1.16v-9.91h3.81c2.12,0,3.09,1.05,3.09,2.73,0,1.49-.77,2.49-2.49,2.71l2.99,4.46h-1.3l-2.94-4.33Zm-2.01-1.04h2.52c1.35,0,2.06-.66,2.06-1.81s-.74-1.69-2.09-1.69h-2.49v3.5Z"/><path class="cls-2" d="M1269.91,725.26h-4.09l-.97,2.73h-1.23l3.66-9.91h1.24l3.54,9.91h-1.23l-.93-2.73Zm-.36-1.04l-1.65-4.87-1.72,4.87h3.38Z"/><path class="cls-2" d="M1273.28,723.04c0-2.99,1.7-5.13,4.31-5.13,2.45,0,3.58,1.34,3.95,3.34h-1.22c-.33-1.6-1.22-2.3-2.73-2.3-1.75,0-3.14,1.6-3.14,4.1s1.39,4.08,3.14,4.08c1.48,0,2.38-.66,2.75-2.29h1.22c-.41,2.09-1.56,3.33-3.96,3.33-2.6,0-4.31-2.13-4.31-5.12Z"/><path class="cls-2" d="M1290.18,719.1h-3.08v8.88h-1.15v-8.88h-3.09v-1.02h7.31v1.02Z"/><path class="cls-2" d="M1293.23,727.99h-1.15v-9.91h1.15v9.91Z"/><path class="cls-2" d="M1295.51,723.04c0-3.06,1.76-5.13,4.32-5.13s4.32,2.07,4.32,5.13-1.76,5.12-4.32,5.12-4.32-2.07-4.32-5.12Zm7.48,0c0-2.54-1.24-4.1-3.16-4.1s-3.16,1.56-3.16,4.1,1.24,4.08,3.16,4.08,3.16-1.56,3.16-4.08Z"/><path class="cls-2" d="M1314.04,718.08v9.91h-1.75l-4.77-8.91v8.91h-1.09v-9.91h1.75l4.79,8.91v-8.91h1.08Z"/><path class="cls-2" d="M1316.17,725.04h1.22c.18,1.4,1.15,2.09,2.65,2.09,1.59,0,2.32-.74,2.32-1.71,0-.88-.55-1.39-1.63-1.65l-2.16-.51c-1.37-.32-2.11-1.21-2.11-2.51,0-1.6,1.27-2.84,3.32-2.84s3.43,.92,3.64,2.95h-1.22c-.18-1.31-1.08-1.91-2.45-1.91s-2.08,.73-2.08,1.66c0,.71,.34,1.21,1.41,1.47l2.09,.51c1.5,.37,2.39,1.24,2.39,2.66,0,1.74-1.27,2.92-3.54,2.92-2.43,0-3.68-1.12-3.87-3.12Z"/></g><g><path class="cls-2" d="M79.41,727.99h-1.15v-9.91h1.15v9.91Z"/><path class="cls-2" d="M88.62,719.1h-3.08v8.88h-1.15v-8.88h-3.09v-1.02h7.31v1.02Z"/><path class="cls-2" d="M95.68,725.26h-4.09l-.97,2.73h-1.23l3.66-9.91h1.24l3.54,9.91h-1.23l-.93-2.73Zm-.36-1.04l-1.65-4.87-1.72,4.87h3.38Z"/><path class="cls-2" d="M105.27,726.94v1.05h-5.63v-9.91h1.18v8.86h4.46Z"/><path class="cls-2" d="M108.25,727.99h-1.15v-9.91h1.15v9.91Z"/><path class="cls-2" d="M116.27,725.26h-4.09l-.97,2.73h-1.23l3.66-9.91h1.24l3.54,9.91h-1.23l-.93-2.73Zm-.36-1.04l-1.65-4.87-1.72,4.87h3.38Z"/><path class="cls-2" d="M127.84,718.08v9.91h-1.75l-4.77-8.91v8.91h-1.09v-9.91h1.75l4.79,8.91v-8.91h1.08Z"/><path class="cls-2" d="M141.57,725.17c0,1.74-.96,2.82-3.31,2.82h-3.88v-9.91h3.68c2.12,0,3.09,.98,3.09,2.61,0,1.05-.74,1.91-1.67,2.14,1.27,.19,2.09,1.06,2.09,2.33Zm-6.04-6.05v3.3h2.42c1.29,0,2.04-.63,2.04-1.72,0-1.18-.88-1.58-2.23-1.58h-2.23Zm4.89,6.05c0-1.31-.96-1.72-2.38-1.72h-2.52v3.5h2.5c1.44,0,2.39-.39,2.39-1.78Z"/><path class="cls-2" d="M143.27,723.04c0-3.06,1.76-5.13,4.32-5.13s4.32,2.07,4.32,5.13-1.76,5.12-4.32,5.12-4.32-2.07-4.32-5.12Zm7.48,0c0-2.54-1.24-4.1-3.16-4.1s-3.16,1.56-3.16,4.1,1.24,4.08,3.16,4.08,3.16-1.56,3.16-4.08Z"/><path class="cls-2" d="M159.82,726.94v1.05h-5.63v-9.91h1.18v8.86h4.46Z"/><path class="cls-2" d="M169.15,723.04c0,3.05-1.87,4.95-4.51,4.95h-2.98v-9.91h2.98c2.64,0,4.51,1.9,4.51,4.96Zm-1.16,0c0-2.48-1.3-3.92-3.53-3.92h-1.65v7.83h1.65c2.2,0,3.53-1.44,3.53-3.91Z"/><path class="cls-2" d="M189.5,724.73h-11.55v-1.05h11.55v1.05Z"/><path class="cls-2" d="M204.72,725.21c0,1.58-1.18,2.95-3.32,2.95s-3.32-1.25-3.34-3.03h1.12c.07,1.25,.82,2,2.23,2s2.13-.85,2.13-1.91-.67-1.75-2.39-1.75h-.78v-1.08h.78c1.59,0,2.15-.77,2.15-1.74,0-1.02-.75-1.71-1.86-1.71-1.04,0-1.87,.57-2.01,1.81h-1.13c.19-1.82,1.52-2.84,3.16-2.84,1.72,0,3.01,1.11,3.01,2.68,0,1.04-.42,1.87-1.31,2.25,.98,.34,1.57,1.17,1.57,2.38Z"/><path class="cls-2" d="M213.11,725.58h-1.2v2.41h-1.18v-2.41h-4.66v-1.02l4.12-6.48h1.72v6.48h1.2v1.02Zm-2.38-1.02v-5.54l-3.53,5.54h3.53Z"/><path class="cls-2" d="M214.69,723.05c0-2.99,1.37-5.15,3.71-5.15s3.71,2.16,3.71,5.15-1.37,5.11-3.71,5.11-3.71-2.12-3.71-5.11Zm6.28,0c0-2.48-.9-4.07-2.57-4.07s-2.57,1.59-2.57,4.07,.9,4.03,2.57,4.03,2.57-1.55,2.57-4.03Z"/><path class="cls-2" d="M234.99,720.84c0,1.63-1.05,2.82-3.17,2.82h-2.57v4.33h-1.16v-9.91h3.83c2.12,0,3.08,1.05,3.08,2.76Zm-1.16,0c0-1.11-.64-1.72-2.11-1.72h-2.47v3.5h2.47c1.46,0,2.11-.71,2.11-1.78Z"/><path class="cls-2" d="M243.37,719.1h-3.08v8.88h-1.15v-8.88h-3.09v-1.02h7.31v1.02Z"/><path class="cls-2" d="M244.55,725.04h1.22c.18,1.4,1.15,2.09,2.65,2.09,1.59,0,2.32-.74,2.32-1.71,0-.88-.55-1.39-1.63-1.65l-2.16-.51c-1.37-.32-2.11-1.21-2.11-2.51,0-1.6,1.27-2.84,3.32-2.84s3.43,.92,3.64,2.95h-1.22c-.18-1.31-1.08-1.91-2.45-1.91s-2.08,.73-2.08,1.66c0,.71,.34,1.21,1.41,1.47l2.09,.51c1.5,.37,2.39,1.24,2.39,2.66,0,1.74-1.27,2.92-3.54,2.92-2.43,0-3.68-1.12-3.87-3.12Z"/></g><g><path class="cls-3" d="M252.97,355.36c0,31.79-4.5,54.88-31.79,54.88-7.5,0-15.59-1.8-19.79-4.5v-27.89h1.2c2.4,23.99,9.3,30.89,17.39,30.89,13.8,0,15-18.89,15-40.79V224.91c0-13.79-1.2-20.09-11.4-24.29v-1.5h36.89v1.5c-6.3,3.6-7.5,9.6-7.5,24.29v130.46Z"/><path class="cls-3" d="M375.03,389.85c2.4,10.8,4.2,15.89,9.6,18.29v.9h-32.69v-.9c5.1-1.8,6.3-5.1,6.3-8.1,0-2.7-.6-6-1.5-9.9l-13.8-64.18h-48.88l-15,62.38c-.9,4.5-1.8,9-1.8,12,0,4.5,2.4,6.9,8.4,7.8v.9h-17.99v-.9c4.5-1.8,6.6-5.4,9.9-19.79l41.39-173.94-.9-4.2c-1.2-6.3-2.4-8.4-4.8-11.7v-1.5h20.09l41.69,192.83Zm-80.67-65.38h48.28l-23.09-106.76-25.19,106.76Z"/><path class="cls-3" d="M443.11,196.72c14.4,0,24.59,4.2,30.29,7.8l2.1,19.79-1.2,.3c-5.1-14.99-13.5-26.39-30.89-26.39-35.99,0-42.29,42.29-42.29,105.26s6.3,105.26,42.29,105.26c17.39,0,25.79-11.4,30.89-24.59l1.2,.3-2.1,17.99c-5.7,3.6-16.79,7.8-30.29,7.8-48.28,0-61.78-43.48-61.78-106.76s13.5-106.76,61.78-106.76Z"/><path class="cls-3" d="M622.44,457.63v1.2c-4.5,1.2-10.5,2.4-17.99,2.4-33.89,0-54.58-16.19-61.18-49.78-50.38-.3-59.08-57.28-59.08-107.96s8.7-106.76,59.38-106.76,57.88,56.08,57.88,106.76c0,44.38-7.2,93.87-41.39,105.26,3.6,33.29,23.39,50.08,48.88,50.08,4.5,0,9-.3,13.5-1.2Zm-78.87-47.68c36.29,0,38.09-54.58,38.09-106.46s-1.8-105.26-38.09-105.26-39.59,53.38-39.59,105.26,2.1,106.46,39.59,106.46Z"/><path class="cls-3" d="M616.14,356.26V227.31c0-15.59-.6-22.49-7.5-26.69v-1.5h32.99v1.2c-6.9,4.5-7.5,11.4-7.5,26.99v126.56c0,30.29,8.7,50.08,35.99,50.08s35.09-20.69,35.09-50.08v-126.56c0-15.59-1.8-23.09-12.3-26.99v-1.2h22.79v1.2c-7.2,3.9-9,11.4-9,26.99v129.26c0,32.99-11.1,53.68-44.68,53.68s-45.88-20.09-45.88-53.98Z"/><path class="cls-3" d="M801.18,195.22l6.3,19.79-1.2,.3c-6-11.7-12.9-14.69-29.69-14.69h-26.39v111.86h27.89c11.7,0,17.09-.9,19.49-10.2h1.2v21.89h-1.2c-2.4-9.3-7.8-10.2-19.49-10.2h-27.89v93.57h23.99c22.79,0,32.39-4.5,41.99-21.89l1.2,.3-11.7,26.99h-1.5c-2.7-2.4-6.6-3.9-15-3.9h-64.18v-1.5c6.3-3.6,7.5-9.6,7.5-24.29V224.91c0-14.69-1.2-20.69-7.5-24.29v-1.5h59.98c8.4,0,12-1.5,14.99-3.9h1.2Z"/><path class="cls-3" d="M967.32,200.62c-6.3,3.6-7.5,9.6-7.5,24.29v158.35c0,14.7,1.2,20.69,7.5,24.29v1.5h-33.29v-1.5c6.3-3.6,7.8-9.6,7.8-24.29V206.62l-53.98,207.83h-1.2l-55.18-205.13v177.24c0,11.4,1.2,17.99,12,20.99v1.5h-21.89v-1.5c7.5-3.3,8.4-9.6,8.4-20.99V223.41c0-13.2-1.2-18.89-7.5-22.79v-1.5h24.89l47.98,179.34,46.48-179.34h25.49v1.5Z"/><path class="cls-3" d="M983.82,356.26V227.31c0-15.59-.6-22.49-7.5-26.69v-1.5h32.99v1.2c-6.9,4.5-7.5,11.4-7.5,26.99v126.56c0,30.29,8.7,50.08,35.99,50.08s35.09-20.69,35.09-50.08v-126.56c0-15.59-1.8-23.09-12.3-26.99v-1.2h22.79v1.2c-7.2,3.9-9,11.4-9,26.99v129.26c0,32.99-11.1,53.68-44.68,53.68s-45.88-20.09-45.88-53.98Z"/><path class="cls-3" d="M1107.37,287.59c-9.3-13.79-16.19-29.99-16.19-49.18,0-24.89,16.49-41.69,41.99-41.69,14.99,0,25.19,6.3,30.59,12l1.8,20.39-1.5,.3c-3.9-15-11.4-31.19-29.99-31.19s-27.29,13.79-27.29,33.59c0,17.69,7.5,30.89,15.89,44.08l27.29,41.09c9.6,14.4,15.29,28.49,15.29,47.38,0,29.69-17.09,45.88-44.98,45.88-11.4,0-21.89-4.2-27.29-9l-1.8-20.39,1.5-.3c4.2,15,12.6,28.19,28.79,28.19,18.89,0,28.49-15.29,28.49-35.09,0-17.39-6.3-30.29-15.59-44.68l-26.99-41.39Z"/><path class="cls-3" d="M124.73,440.91l103.93,107.51-13.04,13.53,105-121.04h36.61v.89c-2.86,.95-5.06,2.64-6.61,5.07-1.55,2.43-2.32,5.85-2.32,10.24v90.96c0,5.58,.77,9.67,2.32,12.28,1.55,2.61,3.75,4.21,6.61,4.81v.89h-46.96v-.89c3.33-.59,5.89-2.16,7.68-4.72,1.79-2.55,2.68-6.67,2.68-12.37v-106.09h1.25l-109.82,126.74h-.89l-112.5-116.77,1.07-.89v93.81c0,3.56,.54,6.83,1.61,9.79,1.07,2.97,2.83,5.4,5.27,7.3,2.44,1.9,5.56,2.97,9.38,3.2v.89h-31.07v-.89c2.86-.24,5.27-1.13,7.23-2.67,1.96-1.54,3.45-3.8,4.46-6.76,1.01-2.96,1.52-6.59,1.52-10.86v-85.97c0-4.98-1.01-8.72-3.04-11.21-2.03-2.49-5.42-4.45-10.18-5.87v-.89h39.82Z"/><path class="cls-3" d="M377.15,555.37c-.12,.12-.27,.27-.45,.44-.18,.18-.33,.33-.45,.45-1.31,1.54-1.96,2.91-1.96,4.09s.39,2.14,1.16,2.85c.77,.71,1.93,1.37,3.48,1.96v.89h-19.64v-.89c3.09-.71,5.68-1.75,7.77-3.12,2.08-1.36,4.43-3.35,7.05-5.96l101.6-99.5h2.32l-100.89,98.79Zm150.53-40.41v1.6h-111.07v-1.6h111.07Zm-82.86-66.39c-3.1-2.85-5.51-4.83-7.23-5.96-1.73-1.13-3.42-1.81-5.09-2.05v-1.07h41.78l109.1,103.77c5.83,5.7,11.55,10.68,17.14,14.95,5.59,4.27,9.46,6.53,11.61,6.76v1.07h-57.68v-1.07c4.05-.47,6.07-1.84,6.07-4.09,0-.95-.27-1.78-.8-2.49s-1.34-1.66-2.41-2.85l-112.5-106.98Z"/><path class="cls-3" d="M629.04,458.89c0-4.51-.86-8.19-2.59-11.04-1.73-2.85-4.91-4.92-9.55-6.23v-.71h148.93c23.09,0,39.79,3.77,50.09,11.3,10.3,7.54,15.45,18.84,15.45,33.91,0,13.29-4.73,23.47-14.2,30.53-9.46,7.06-24.44,11.6-44.91,13.62v.71h15.36c9.4,0,16.84,1.1,22.32,3.29,5.47,2.2,11.01,6.44,16.61,12.73l7.14,8.19c.12,.12,.21,.21,.27,.27,.06,.06,.15,.15,.27,.27,2.97,3.56,5.59,6.11,7.86,7.65,2.26,1.54,5.24,2.02,8.93,1.42v.71c-9.05,2.14-17.08,3.12-24.11,2.94-7.03-.18-13.1-1.46-18.21-3.83-5.12-2.37-9.53-5.81-13.21-10.32l-9.11-11.04c-2.86-3.44-5.36-5.96-7.5-7.56-2.14-1.6-4.73-2.73-7.77-3.38-3.04-.65-7.41-.98-13.12-.98h-101.25v16.73c0,4.63,.95,8.34,2.86,11.12,1.9,2.79,5.59,4.84,11.07,6.14v.71h-53.75v-.71c4.64-1.3,7.83-3.38,9.55-6.23,1.72-2.85,2.59-6.52,2.59-11.04v-89.18Zm129.28,70.84c9.64,0,17.62-1.6,23.93-4.81,6.31-3.2,11.01-8.04,14.11-14.51,3.09-6.47,4.64-14.57,4.64-24.3s-1.55-17.83-4.64-24.3c-3.1-6.47-7.8-11.3-14.11-14.51-6.31-3.2-14.29-4.81-23.93-4.81h-101.6v87.22h101.6Z"/><path class="cls-3" d="M1003.28,442.51h-108.93v67.64h117.68c3.69,0,6.55-.21,8.57-.62,2.02-.42,3.87-1.48,5.54-3.2,1.67-1.72,3.04-4.48,4.11-8.28h.71v25.81h-.71c-1.07-3.8-2.44-6.56-4.11-8.28-1.67-1.72-3.51-2.79-5.54-3.2-2.03-.41-4.88-.62-8.57-.62h-117.68v36.31c0,3.09,.39,5.7,1.16,7.83,.77,2.14,2.17,4.01,4.2,5.61,2.02,1.6,4.88,2.88,8.57,3.83v.71h-53.93v-.71c4.64-1.3,7.86-3.35,9.64-6.14,1.79-2.79,2.68-6.5,2.68-11.12v-89.18c0-4.63-.89-8.33-2.68-11.12-1.79-2.79-5-4.83-9.64-6.14v-.71h133.57c17.62,0,29.2-.15,34.73-.45,5.54-.29,9.25-1.04,11.16-2.22h1.43l3.93,20.29-.71,.18c-2.26-6.29-6.04-10.56-11.34-12.82-5.3-2.25-13.24-3.38-23.84-3.38Z"/><path class="cls-3" d="M1048.96,555.37c-.12,.12-.27,.27-.45,.44-.18,.18-.33,.33-.45,.45-1.31,1.54-1.96,2.91-1.96,4.09s.39,2.14,1.16,2.85c.77,.71,1.93,1.37,3.48,1.96v.89h-19.64v-.89c3.09-.71,5.68-1.75,7.77-3.12,2.08-1.36,4.43-3.35,7.05-5.96l101.6-99.5h2.32l-100.89,98.79Zm150.53-40.41v1.6h-111.07v-1.6h111.07Zm-82.86-66.39c-3.1-2.85-5.51-4.83-7.23-5.96-1.73-1.13-3.42-1.81-5.09-2.05v-1.07h41.78l109.1,103.77c5.83,5.7,11.55,10.68,17.14,14.95,5.59,4.27,9.46,6.53,11.61,6.76v1.07h-57.68v-1.07c4.05-.47,6.07-1.84,6.07-4.09,0-.95-.27-1.78-.8-2.49s-1.34-1.66-2.41-2.85l-112.5-106.98Z"/></g></svg>