<?xml version='1.0' encoding='UTF-8'?>
<svg xmlns="http://www.w3.org/2000/svg" width="1366px" height="768px" viewBox="0 0 1366 768" x="0px" y="0px" enable-background="new 0 0 1366 768"><path d="M0 0h1366v768H0z"/><path d="M124.67 360.66c0-10.14-7.27-15.05-17.75-15.05H94.74v31.28h12.18c11.33 0 17.75-5.4 17.75-16.23m18.44.17c0 18.26-13.53 30.6-33.82 30.6H94.74v32.3H78v-92.5h31.45c20.3 0 33.66 12 33.66 29.6M184.81 389.91c0 11.84 7.44 20.64 18.44 20.64 11.33 0 18.6-8.62 18.6-20.64 0-12-7.27-20.46-18.6-20.46-11 0-18.44 8.46-18.44 20.46m54.12 0c0 20.13-15.56 36.37-35.68 36.37-20.13 0-35.52-16.24-35.52-36.37 0-20.12 15.4-36.35 35.52-36.35 20.12 0 35.68 16.23 35.68 36.35M292.62 426.28c-14.88 0-19.44-8.46-19.44-21.65v-90.3h17.08v87.26c0 7.95 1.18 9.8 9.47 9.8l-1.02 14.38c-1.18.17-4.23.5-6.09.5M392.95 372.66l-16.24 6.43s-3.72-9.64-15.39-9.64c-9.47 0-18.43 6.77-18.43 20.46 0 13.7 8.96 20.47 18.43 20.47 11.67 0 15.4-9.64 15.4-9.64l16.23 6.42s-7.1 19.12-31.12 19.12c-20.97 0-36.02-16.24-36.02-36.37 0-20.12 15.05-36.35 36.02-36.35 24.01 0 31.12 19.1 31.12 19.1M462.12 392.28c-3.55 0-7.61.17-13.7 1.19-6.76 1.18-10.65 5.24-10.65 10.15 0 5.58 4.22 8.79 9.46 8.79 9.64 0 14.89-6.43 14.89-15.05zm3.55 31.46c-.85-2.7-1.7-5.75-2.37-8.8-4.57 7.1-11 11.5-22.32 11.5-11.67 0-20.97-8.28-20.97-20.8 0-13.86 10.82-21.64 27.9-23.16 3.9-.34 9.8-.68 14.2-.85v-10.49h-35.68l.17-15.05h52.6v51.08c0 8.8 1.01 12.85 2.37 16.57zm0 0M605.23 409.2v15.73h-67.64V410.2l47.86-62.23h-46.51v-15.56h66.29v15.56l-48.2 61.22zm0 0M671.28 393.47c-3.55 0-7.6.17-13.7 1.19-6.76 1.18-10.65 5.24-10.65 10.14 0 5.58 4.23 8.8 9.47 8.8 9.64 0 14.88-6.44 14.88-15.06zm3.56 31.46c-.85-2.71-1.7-5.75-2.38-8.8-4.56 7.1-10.99 11.5-22.32 11.5-11.67 0-20.97-8.29-20.97-20.8 0-13.87 10.83-21.65 27.9-23.17 3.9-.34 9.82-.67 14.21-.84v-10.49H635.6l.17-15.05h52.6v51.07c0 8.8 1 12.86 2.36 16.58zm0 0M778.15 391.1c0-12.17-7.44-20.46-18.27-20.46-10.65 0-17.08 7.95-17.42 20.46.34 12.52 7.79 20.63 17.76 20.63 10.83 0 17.93-8.28 17.93-20.63m17.08-.17c0 19.96-12.69 36.53-31.96 36.53-8.97 0-15.73-3.38-20.8-8.45v34.67h-17.09v-96.4h16.24l.5 7.61c4.91-6.09 11.84-9.98 22.16-9.98 18.26 0 30.95 16.4 30.95 36.02M863.07 393.47c-3.55 0-7.6.17-13.7 1.19-6.76 1.18-10.65 5.24-10.65 10.14 0 5.58 4.23 8.8 9.47 8.8 9.64 0 14.88-6.44 14.88-15.06zm3.55 31.46c-.84-2.71-1.69-5.75-2.36-8.8-4.57 7.1-11 11.5-22.33 11.5-11.67 0-20.97-8.29-20.97-20.8 0-13.87 10.83-21.65 27.9-23.17 3.9-.34 9.82-.67 14.21-.84v-10.49H827.4l.17-15.05h52.6v51.07c0 8.8 1 12.86 2.36 16.58zm0 0M944.84 427.46c-13.7 0-19.11-8.45-19.11-20.97v-34.67h-14.2v-14.54h14.2v-16.91h16.75v16.9h16.23v14.55h-16.23v31.63c0 7.27 3.2 9.47 9.13 9.47 2.36 0 4.9-.17 7.1-.51l.5 13.53c-4.22.85-9.8 1.52-14.37 1.52M1019.47 369.45c-8.11.18-13.86 5.41-15.38 13.2h30.6c-.67-7.79-6.6-13.36-15.22-13.2m32.82 25.2h-48.88c1.18 9.81 6.76 17.42 16.91 17.42 8.12 0 12.85-4.22 15.39-11.16l15.73 5.92c-5.75 13.19-16.74 20.63-31.8 20.63-22.15 0-33.14-17.92-33.14-37.2 0-18.1 12.17-35.35 33.48-35.35 19.62 0 32.8 15.56 32.8 33.82 0 1.7-.16 4.4-.5 5.92M1127.27 356.27l-1.35 17.58a20.16 20.16 0 00-8.63-1.69c-5.75 0-11.83 3.05-14.7 8.46v44.3h-16.75v-67.64h16.23l.34 6.42c4.06-5.07 9.13-8.79 15.4-8.79 3.88 0 6.42.5 9.46 1.36M1172.46 339.35h-17.25l11.16-25.03h20.3zm-17.42 17.93h17.09v67.65h-17.09zm0 0M1245.95 393.47c-3.55 0-7.61.17-13.7 1.19-6.77 1.18-10.65 5.24-10.65 10.14 0 5.58 4.23 8.8 9.47 8.8 9.64 0 14.88-6.44 14.88-15.06zm3.55 31.46c-.84-2.71-1.7-5.75-2.37-8.8-4.56 7.1-10.99 11.5-22.32 11.5-11.67 0-20.97-8.29-20.97-20.8 0-13.87 10.82-21.65 27.9-23.17 3.9-.34 9.81-.67 14.21-.84v-10.49h-35.68l.16-15.05h52.6v51.07c0 8.8 1.02 12.86 2.37 16.58zm0 0" fill="#e6e6e6"/></svg>