<svg xmlns="http://www.w3.org/2000/svg" viewBox="0 0 1366 768"><defs><style>.cls-1{fill:#00d800;}.cls-2{fill:#fdfaf5;}</style></defs><g id="Layer_1" data-name="Layer 1"><rect class="cls-1" width="1366" height="768"/><path class="cls-2" d="M327.19,134.92H153.55l.36-10.08,173.82-.34Z"/><path class="cls-2" d="M359.45,163.31c4.17,0,8-3.86,13.06-10.58l2.54.84c-4.9,8.9-14.33,21-25.76,21-5.63,0-8.71-3.36-8.71-8.4,0-3,1.27-6.72,3.63-10.75l15.6-26c3.63-6,4.9-9.25,4.9-11.09,0-1.68-.91-2.36-2.54-2.36-4.17,0-12,11.09-15.24,14.45l-2.36-1.51c13.43-16.46,20.32-24.19,29.58-24.19,3.62,0,6.16,2.35,6.16,5.88,0,4.2-2.54,9.91-6,15.79l-14.16,23.86c-2.17,3.52-3.81,7-3.81,9.57C356.36,161.8,357.27,163.31,359.45,163.31Zm35.74-97.44c3.81,0,5.26,2.35,5.26,5,0,6-6.53,13.1-12.88,13.1-3.81,0-5.62-2.35-5.62-5.37C382,72.93,387.57,65.87,395.19,65.87Z"/><path class="cls-2" d="M436.92,163.31c4,0,9.44-5.21,15.06-14.62l2.18,1.52c-5.08,9.24-14.88,24.36-26,24.36-5.44,0-9.25-3.19-9.25-8.74,0-12.6,24.13-34.27,24.13-44.52,0-3-1.81-4.7-5.44-4.7-13.61,0-31.75,27.89-38.47,40.15a112.66,112.66,0,0,0-8,16.8H375.6c8-13.61,19.77-32.76,26.67-44.52,3.45-5.88,4.72-8.91,4.72-10.58a2.26,2.26,0,0,0-2.54-2.53c-3.45,0-9.08,7.06-15.25,14.45L387,128.7c9.61-11.42,18.5-24,29.21-24,4.35,0,6.35,2.86,6.35,5.88,0,6.21-8,17.64-15.24,27.72h1.27c13.24-18.15,24.86-33.6,38.28-33.6,7.26,0,11.43,3.53,11.43,9.57,0,16.13-24.49,34.28-24.49,45.53C433.84,162.13,434.93,163.31,436.92,163.31Z"/><path class="cls-2" d="M476.18,163.31c6.35,0,12.52-5.21,17.42-12.43l2.54.84c-5.08,9.07-14.88,22.85-30.12,22.85-5.8,0-9.43-2.36-9.43-7.9,0-3.53,2.18-7.9,3.63-10.42l25-43.67H473.1c-.36-2.36.91-4.54,4.17-5.88l16-.85,6.35-20.32c5.44-1.85,11.79-1.68,14.15,0l-11.43,20h19.78c0,2.86-1.63,5.21-5.26,6.89l-18.15.33-23.22,40.32c-1.27,2.36-3.27,5.55-3.27,7.56C472.19,162.13,473.46,163.31,476.18,163.31Z"/><path class="cls-2" d="M520,141.47a28.38,28.38,0,0,0-1.27,8.74c0,8.9,3.81,14.28,12.34,14.28,8,0,15.42-5.55,21.22-13.61l2.54.84c-8.34,15.45-19.77,22.68-31.57,22.68-12.7,0-18.87-8.4-18.87-19.32,0-21,23.05-50.4,48.45-50.4,7.26,0,15.42,2.69,15.42,10.41C568.28,129.71,548.69,138.11,520,141.47Zm1.45-4.37c25.4-2.52,33.75-12.26,33.75-19.48,0-3.7-2.54-5.55-7.26-5.55C537.07,112.07,525.82,124.17,521.47,137.1Z"/><path class="cls-2" d="M593.52,138.45c14.69-19.66,24-33.77,35.56-33.77,2.72,0,4.35.84,4.35,3.19,0,5.21-3.62,10.92-7.07,14.45-17.78,0-35,20-44.82,39.48a125.13,125.13,0,0,0-5.26,11.76h-15.6c8.7-14.62,21-34.94,27.76-46.37,2.54-4.37,3.62-7.22,3.62-8.73a2.42,2.42,0,0,0-2.54-2.53c-3.26,0-8.16,5.88-15.24,14.45l-2.17-1.68c10.7-12.93,19-24,29-24,3.08,0,6.53,1.34,6.53,6.21,0,5.38-8.35,17.31-15.42,27.56Z"/><path class="cls-2" d="M679.17,163.31c4,0,9.44-5.21,15.06-14.62l2.18,1.52c-5.08,9.24-14.88,24.36-25.95,24.36-5.44,0-9.25-3.19-9.25-8.74,0-12.6,24.13-34.27,24.13-44.52,0-3-1.81-4.7-5.44-4.7-13.61,0-31.75,27.89-38.47,40.15a112.66,112.66,0,0,0-8,16.8h-15.6c8-13.61,19.77-32.76,26.67-44.52,3.45-5.88,4.72-8.91,4.72-10.58a2.26,2.26,0,0,0-2.54-2.53c-3.45,0-9.08,7.06-15.25,14.45l-2.17-1.68c9.61-11.42,18.5-24,29.21-24,4.35,0,6.35,2.86,6.35,5.88,0,6.21-8,17.64-15.24,27.72h1.27c13.24-18.15,24.86-33.6,38.28-33.6,7.26,0,11.43,3.53,11.43,9.57,0,16.13-24.49,34.28-24.49,45.53C676.09,162.13,677.18,163.31,679.17,163.31Z"/><path class="cls-2" d="M751.84,163.31c3.45,0,8.53-5.71,13.24-12.43l2.54.84c-6.89,12.26-17,22.85-26.67,22.85-4.72,0-7.44-2.52-7.44-6.72,0-4.37,2.36-8.24,5.81-13.28l9.25-13.6H747.3c-7.44,10.24-23.95,33.26-37.74,33.26-6.53,0-10-3.86-10-9.74,0-23.19,32.66-59.81,57.7-59.81,6.71,0,12.88,1.68,16.15,3.53,3.27-1.85,6.35-3.53,8.35-3.53,1.27,0,2.9,1.17,2.35,2.52-12,13.1-34.83,45-34.83,53.76C749.3,162.47,750.2,163.31,751.84,163.31Zm-.18-51.91c-16.7,0-37.56,31.75-37.56,46.37,0,3.52,2,4.87,4.53,4.87s6.35-2,10-5.38c10.35-9.57,25.59-28,35.38-42.33C761.09,112.74,756.37,111.4,751.66,111.4Z"/><path class="cls-2" d="M792.3,163.31c6.35,0,12.52-5.21,17.41-12.43l2.54.84c-5.08,9.07-14.87,22.85-30.11,22.85-5.81,0-9.44-2.36-9.44-7.9,0-3.53,2.18-7.9,3.63-10.42l25-43.67H789.21c-.36-2.36.91-4.54,4.17-5.88l16-.85,6.35-20.32c5.45-1.85,11.8-1.68,14.15,0l-11.43,20H838.2c0,2.86-1.63,5.21-5.26,6.89l-18.15.33-23.22,40.32c-1.27,2.36-3.27,5.55-3.27,7.56C788.3,162.13,789.57,163.31,792.3,163.31Z"/><path class="cls-2" d="M841.1,163.31c4.17,0,8-3.86,13.07-10.58l2.54.84c-4.9,8.9-14.34,21-25.77,21-5.62,0-8.71-3.36-8.71-8.4,0-3,1.27-6.72,3.63-10.75l15.6-26c3.63-6,4.9-9.25,4.9-11.09,0-1.68-.9-2.36-2.54-2.36-4.17,0-12,11.09-15.24,14.45l-2.36-1.51c13.43-16.46,20.32-24.19,29.58-24.19,3.63,0,6.17,2.35,6.17,5.88,0,4.2-2.54,9.91-6,15.79l-14.15,23.86c-2.18,3.52-3.81,7-3.81,9.57C838,161.8,838.92,163.31,841.1,163.31Zm35.75-97.44c3.81,0,5.26,2.35,5.26,5,0,6-6.53,13.1-12.88,13.1-3.81,0-5.63-2.35-5.63-5.37C863.6,72.93,869.23,65.87,876.85,65.87Z"/><path class="cls-2" d="M862.8,155.92c0-17.47,18.15-51.24,49-51.24,12.16,0,20.5,5.71,20.5,18.82,0,16.12-14.15,50.9-47.53,50.9C873.32,174.4,862.8,170.37,862.8,155.92Zm44.64-43.51c-16.33,0-29.94,24.36-29.94,43,0,6.88,4,11.08,10.16,11.08,18,0,29.94-27.21,29.94-43.17C917.6,116.44,915.06,112.41,907.44,112.41Z"/><path class="cls-2" d="M990.26,163.31c4,0,9.44-5.21,15.06-14.62l2.18,1.52c-5.08,9.24-14.88,24.36-26,24.36-5.44,0-9.25-3.19-9.25-8.74,0-12.6,24.13-34.27,24.13-44.52,0-3-1.81-4.7-5.44-4.7-13.61,0-31.76,27.89-38.47,40.15a112.66,112.66,0,0,0-8,16.8H928.93c8-13.61,19.78-32.76,26.68-44.52,3.44-5.88,4.71-8.91,4.71-10.58a2.25,2.25,0,0,0-2.54-2.53c-3.44,0-9.07,7.06-15.24,14.45l-2.17-1.68c9.61-11.42,18.5-24,29.21-24,4.35,0,6.35,2.86,6.35,5.88,0,6.21-8,17.64-15.24,27.72H962c13.24-18.15,24.85-33.6,38.28-33.6,7.26,0,11.43,3.53,11.43,9.57,0,16.13-24.49,34.28-24.49,45.53C987.18,162.13,988.27,163.31,990.26,163.31Z"/><path class="cls-2" d="M1062.93,163.31c3.44,0,8.52-5.71,13.24-12.43l2.54.84c-6.89,12.26-17,22.85-26.67,22.85-4.72,0-7.44-2.52-7.44-6.72,0-4.37,2.36-8.24,5.81-13.28l9.25-13.6h-1.27c-7.44,10.24-24,33.26-37.74,33.26-6.53,0-10-3.86-10-9.74,0-23.19,32.66-59.81,57.7-59.81,6.71,0,12.88,1.68,16.15,3.53,3.26-1.85,6.35-3.53,8.34-3.53,1.27,0,2.91,1.17,2.36,2.52-12,13.1-34.83,45-34.83,53.76C1060.39,162.47,1061.29,163.31,1062.93,163.31Zm-.19-51.91c-16.69,0-37.55,31.75-37.55,46.37,0,3.52,2,4.87,4.53,4.87s6.35-2,10-5.38c10.34-9.57,25.58-28,35.38-42.33C1072.18,112.74,1067.46,111.4,1062.74,111.4Z"/><path class="cls-2" d="M1132.14,78.81c1.64-2.86,4.18-7.39,4.18-9.41,0-2.19-.37-3.53-6.9-7.23l.73-2,27.4-6.89,1.81,1.18-53.89,93.74c-3.81,6.55-5.8,9.74-5.8,11.93,0,2,1.63,3.19,4.17,3.19,6.17,0,12.34-5.54,17.05-12.43l2.54.84c-7.43,13.1-16.87,22.85-29.93,22.85-6.35,0-9.62-2.86-9.62-7.56s2.54-9.08,6.17-15.29Z"/><path class="cls-2" d="M1145.75,141.47a28.38,28.38,0,0,0-1.27,8.74c0,8.9,3.81,14.28,12.34,14.28,8,0,15.42-5.55,21.22-13.61l2.54.84c-8.34,15.45-19.77,22.68-31.57,22.68-12.7,0-18.87-8.4-18.87-19.32,0-21,23-50.4,48.45-50.4,7.26,0,15.42,2.69,15.42,10.41C1194,129.71,1174.42,138.11,1145.75,141.47Zm1.45-4.37c25.4-2.52,33.75-12.26,33.75-19.48,0-3.7-2.54-5.55-7.26-5.55C1162.8,112.07,1151.55,124.17,1147.2,137.1Z"/><path class="cls-2" d="M180.7,322.42c10.06-2.82,12.43-5.48,12.43-17V237.61H180.4c-13.32,0-14.5,7.55-17,19.24l-6.06-.88,2.22-25.46c15.39.74,27.67.74,47.06.74,14.06,0,25-.15,32.56-.74l2.37,25.16-5.92,1.18c-3.41-11.54-5-19.09-16.14-19.24H206.3v81l14.36,3.85v5.47h-40Z"/><path class="cls-2" d="M261.36,277.57c5.33-6.06,11.25-12.13,19.68-12.13a22.49,22.49,0,0,1,.89,7.1,21,21,0,0,1-1.78,8.44,13.36,13.36,0,0,0-8-2.37,25.1,25.1,0,0,0-11.1,3c-.29,14.21-.44,27.23,0,40.4l12.58,1v5c-4.14-.15-13-.44-17.16-.44-7.4,0-10.07.14-17.32.29v-4.73l4-1c5.32-1.33,5.77-6.07,5.77-15.69s.15-19.39-.15-27.38l-9.62-4.14v-4.29c3.7-2.37,18.06-5.18,22.64-5.18l1.63,1.77Z"/><path class="cls-2" d="M288.89,298.59c0-19.68,13.61-33.15,30.78-33.15,17.91,0,28.71,12,28.71,29.74,0,20.28-13.76,34.19-30.63,34.19C300.14,329.37,288.89,317.09,288.89,298.59Zm30.48-26.79c-11.69,0-18.2,12-18.2,26.2,0,12.87,5.48,24.27,17.17,24.27,11.25,0,17-13.17,17-26.94C335.36,282.31,330,271.8,319.37,271.8Z"/><path class="cls-2" d="M384.2,329.37c-13.47,0-19.39-8.58-19.39-21.9,0-12.43.59-24,.74-29.75l-9.47-2.51v-5.33l21.75-4.15c-.59,14.8-1.18,25.75-1.18,35.23,0,11.54,3.11,18.64,13,18.64a27.21,27.21,0,0,0,13.62-4.14c-.15-9,.29-27.82.44-37.74L392,275.21v-5.33l24.12-4.15c-.88,20.43-1,34.63-1,43.22,0,6.95,1.33,10.51,8.58,10.51a33.72,33.72,0,0,0,3.55-.3l.45,4.88-21.61,3.85-2.37-9.17C398.85,325.23,392,329.37,384.2,329.37Z"/><path class="cls-2" d="M432.89,299.33c0-18.35,10.36-33.89,28.56-33.89,15.84,0,22.05,10.36,22.05,22.05a43.82,43.82,0,0,1-.59,6.07H444.73c0,14.8,7.69,26.34,21.6,26.34a39,39,0,0,0,16-3.11l1.33,2.81a33.25,33.25,0,0,1-23.53,9.77C442.36,329.37,432.89,314.87,432.89,299.33Zm38.92-10.51c.59-8.73-2.37-17.61-12.13-17.61-9.18,0-13.77,9.17-14.66,17.91Zm-24.57-29.45-2.07-2.22c5.33-4.88,16.13-15.69,19.83-20.87,2.37,0,4.29.15,6.07,2.07a5.37,5.37,0,0,1-.44,7.85C465.89,250.49,453.76,256.85,447.24,259.37Z"/><path class="cls-2" d="M490.76,299.33c0-18.35,10.36-33.89,28.56-33.89,15.83,0,22,10.36,22,22.05a45.41,45.41,0,0,1-.59,6.07H502.6c0,14.8,7.69,26.34,21.6,26.34a39,39,0,0,0,16-3.11l1.33,2.81A33.25,33.25,0,0,1,518,329.37C500.23,329.37,490.76,314.87,490.76,299.33Zm38.92-10.51c.59-8.73-2.37-17.61-12.14-17.61-9.17,0-13.76,9.17-14.65,17.91Z"/><path class="cls-2" d="M615.37,231.55v-4.3c3.55-2.07,15-5.17,19.54-5.17l2.21,2.21c-.29,19.39-.59,47.07-.59,84.66,0,6.95,1.34,10.51,8.59,10.51a33.94,33.94,0,0,0,3.55-.3l.44,4.88-21.6,3.85L624.84,319c-3.85,6.66-11.84,10.36-18.5,10.36C589.17,329.37,580,315.46,580,297c0-17,11.84-31.52,30.63-31.52a49.35,49.35,0,0,1,14.06,1.77c.3-13,.45-18,.3-30.48Zm9.47,49.72A18.41,18.41,0,0,0,609,271.65c-11.7,0-17.17,9.92-17.17,23.39,0,13.91,7.4,24.27,20.13,24.27,4.44,0,9.76-1.78,12.58-4.59Z"/><path class="cls-2" d="M661.4,220.6c4.88,0,6.66,9.47,6.66,13.46,0,9.18-6.66,16.13-17.32,18.95l-1-2.82a12.68,12.68,0,0,0,8.58-11.54c0-4.59-3.85-8.14-6.81-11.25C653,222.67,656.66,220.6,661.4,220.6Z"/><path class="cls-2" d="M720.15,295h-36.4l-9.33,25.6,16.43,2.07v5.18H658.14v-5.18c8.73-1.63,10.21-5.47,16.28-21.9l24.72-66.75L711.87,228,744,320.49l9.92,2.22v5.18H713.64v-5.18c13.32-1.48,15.24-4.88,10.06-18.35Zm-2.07-5.78L702.84,242.5l-16.73,46.76Z"/><path class="cls-2" d="M782.76,277.57c5.32-6.06,11.24-12.13,19.68-12.13a22.49,22.49,0,0,1,.89,7.1,21,21,0,0,1-1.78,8.44,13.38,13.38,0,0,0-8-2.37,25.06,25.06,0,0,0-11.1,3c-.3,14.21-.44,27.23,0,40.4L795,323v5c-4.14-.15-13-.44-17.17-.44-7.4,0-10.06.14-17.31.29v-4.73l4-1c5.33-1.33,5.77-6.07,5.77-15.69s.15-19.39-.14-27.38l-9.62-4.14v-4.29c3.7-2.37,18.05-5.18,22.64-5.18l1.63,1.77Z"/><path class="cls-2" d="M809.84,299.33c0-18.35,10.36-33.89,28.56-33.89,15.84,0,22.05,10.36,22.05,22.05a43.82,43.82,0,0,1-.59,6.07H821.68c0,14.8,7.7,26.34,21.61,26.34a39,39,0,0,0,16-3.11l1.33,2.81a33.25,33.25,0,0,1-23.53,9.77C819.31,329.37,809.84,314.87,809.84,299.33Zm38.92-10.51c.59-8.73-2.36-17.61-12.13-17.61-9.18,0-13.77,9.17-14.65,17.91Z"/><path class="cls-2" d="M890.35,322l9.77.89v5c-4.59,0-7.55-.29-12.14-.29-6.36,0-12.87.29-19.24.29v-4.73l3.7-.89c6.07-1.48,5.92-8,5.92-19.83,0,0-.15-11-.15-23.39l-9.47-4.14v-3.26c3.7-2.36,15.54-6.21,20.13-6.21l1.63,1.77.15,8c4.58-4.15,12.28-9.77,21.16-9.77,13.91,0,18.94,7.55,18.94,20.42V322l9.48.89v5c-4.59,0-7.26-.29-11.84-.29-6.37,0-12.88.29-19.24.29v-4.73l3.7-.89c6.06-1.48,6.06-8,6.06-19.83v-11c0-11.1-2.81-17-13.17-17-5.62,0-10.65,2.07-15.39,4.88Z"/><path class="cls-2" d="M945.26,231.55v-4.3c3.55-2.07,15-5.17,19.53-5.17l2.22,2.21c-.44,2.22-.88,13.32-.88,21.61v27.68c4.88-3.7,11.69-8.14,18.94-8.14,16.87,0,25.6,12.73,25.6,30.48,0,17.47-10.06,33.45-29.74,33.45a31.3,31.3,0,0,1-18.8-6.66l-5,5.92-3.11-.74c.15-13,.3-31.37.3-50.76,0-17-.15-29.45-.15-40.7Zm20.87,74.59c0,10.65,6.51,17.16,14.65,17.16,12.43,0,18.35-10.95,18.35-24.42,0-13.31-6.66-24.41-20-24.41-5,0-9.77,2.07-13,3.84Z"/><path class="cls-2" d="M1019.41,299.33c0-18.35,10.36-33.89,28.56-33.89,15.83,0,22,10.36,22,22.05a45.41,45.41,0,0,1-.59,6.07h-38.18c0,14.8,7.69,26.34,21.6,26.34a39,39,0,0,0,16-3.11l1.33,2.81a33.25,33.25,0,0,1-23.53,9.77C1028.88,329.37,1019.41,314.87,1019.41,299.33Zm38.92-10.51c.59-8.73-2.37-17.61-12.14-17.61-9.17,0-13.76,9.17-14.65,17.91Z"/><path class="cls-2" d="M1101.25,277.57c5.33-6.06,11.25-12.13,19.68-12.13a22.49,22.49,0,0,1,.89,7.1A21,21,0,0,1,1120,281a13.36,13.36,0,0,0-8-2.37,25.06,25.06,0,0,0-11.1,3c-.29,14.21-.44,27.23,0,40.4l12.58,1v5c-4.14-.15-13-.44-17.17-.44-7.4,0-10.06.14-17.31.29v-4.73l4-1c5.33-1.33,5.78-6.07,5.78-15.69s.14-19.39-.15-27.38l-9.62-4.14v-4.29c3.7-2.37,18-5.18,22.64-5.18l1.63,1.77Z"/><path class="cls-2" d="M1147.13,311.76c0,2.66,3,3.7,9.77,3.7,5,0,11.39.15,14.2.15,11.1,0,16.73,4.59,16.73,12.87,0,15.69-15.84,28.27-33.45,28.27-12.88,0-23.38-5.48-23.38-16.43,0-6.51,4.58-11.54,11.39-14.35v-1c-5.18-.59-9.77-4.88-9.77-9.62l12.58-9.62c-8.43-2.66-14.5-9-14.5-18.94,0-12,11-21.31,25-21.31a28.32,28.32,0,0,1,16,4.44l14.65-5.92c1.77,2.07,2.66,6.51,2.07,9.62l-11.25,1.18a18.87,18.87,0,0,1,3.7,11.1c0,14.06-11.84,21.31-25,21.46a39.16,39.16,0,0,1-5.92-.44C1148.46,308.21,1147.13,309.54,1147.13,311.76Zm.29,14.5c-3.1,3.11-5.92,7.4-5.92,11.84,0,7.85,5.78,12.44,14.36,12.44,11.4,0,20.28-5.78,20.28-15.25,0-5.92-4.3-8.58-11.1-8.58h-9.92A76.14,76.14,0,0,1,1147.42,326.26Zm8.29-25.3c7.85,0,13.32-4.89,13.32-13.62,0-8.43-4.44-15.54-13.91-15.54-8.73,0-13,6.51-13,14.36C1142.1,294.44,1147.57,301,1155.71,301Z"/><path class="cls-2" d="M267,352.73c-57,26.72-85.83,66.87-85.83,109.37,0,22,7.62,41.33,22.14,58.13l-3.45,2.86c-15.24-16.13-23.77-39.65-23.77-60.65,0-43.68,29.4-86.35,89.09-113.06Z"/><path class="cls-2" d="M211.08,511.83l12-20.33,33.75-57.12a10.57,10.57,0,0,0,1.27-4.53,2.11,2.11,0,0,0-2.36-2.19c-4.53,0-11.61,10.08-15.42,14.45l-2.18-1.68c9.26-11.09,18.51-24,29.22-24,4.71,0,6.35,3.19,6.35,5.88,0,4-4.9,12.43-15.24,27.72h1.27c14-19,24.49-33.6,39.19-33.6,7.26,0,12.15,3.86,12.15,13.27,0,16.29-19.41,56.45-56.24,56.45a41.11,41.11,0,0,1-14.7-2.52l-14.33,28.22,18,1-1.09,4.87H198.56v-4.54Zm47.17-30.91c22.14,0,37.38-31.92,37.38-45.53,0-4.87-1.81-6.89-5.62-6.89-10.89,0-30.3,21.84-43.19,45C248.64,478.23,252.27,480.92,258.25,480.92Z"/><path class="cls-2" d="M310.34,467.65c0-17.48,18.15-51.24,49-51.24,12.16,0,20.51,5.71,20.51,18.81,0,16.13-14.16,50.91-47.54,50.91C320.87,486.13,310.34,482.09,310.34,467.65ZM355,424.13c-16.33,0-29.94,24.36-29.94,43,0,6.89,4,11.09,10.16,11.09,18,0,29.94-27.22,29.94-43.18C365.14,428.17,362.6,424.13,355,424.13Z"/><path class="cls-2" d="M416.18,422.62c-6,0-10,3.7-10,9.24,0,3.87,2,7.39,4.53,10.75l6.17,7.9c2.91,3.86,5.26,8.06,5.26,13.27,0,11.09-14.15,22.51-30.84,22.51-9.8,0-18.14-2.52-18.14-9.4,0-4,3.44-7.23,7.8-9.24a18.74,18.74,0,0,0,17.23,10.92c5.81,0,10.71-3.36,10.71-9.24,0-4-2-7.73-4.72-11.09L396,448c-2-2.86-3.45-5.88-3.45-9.41,0-13.77,15.06-22.17,30.84-22.17,9.08,0,14.52,2.85,14.52,8.4,0,6.21-5.44,10.41-13.43,10.41C426.88,428.67,425.07,422.62,416.18,422.62Z"/><path class="cls-2" d="M449.25,475c6.35,0,12.52-5.21,17.42-12.43l2.54.84c-5.08,9.07-14.88,22.84-30.12,22.84-5.8,0-9.43-2.35-9.43-7.89,0-3.53,2.17-7.9,3.63-10.42l25-43.68H446.17c-.37-2.35.9-4.53,4.17-5.88l16-.84,6.35-20.33c5.44-1.84,11.79-1.68,14.15,0l-11.43,20h19.78c0,2.85-1.64,5.2-5.26,6.88l-18.15.34-23.22,40.32c-1.27,2.35-3.27,5.54-3.27,7.56C445.26,473.86,446.53,475,449.25,475Z"/><path class="cls-2" d="M633.83,502.09H460.19l.36-10.08H634.38Z"/><path class="cls-2" d="M745,475c5.62,0,11.79-9.41,15.06-14.62l2.17,1.51c-5.08,9.41-14.69,24.36-26.3,24.36-5.27,0-8.89-3.52-8.89-8.4,0-13.44,24.13-33.93,24.13-45,0-2.86-2.18-4.54-5.45-4.54-12.15,0-31.75,28.23-38.46,40.16-2.91,5-6.53,12.26-8,16.8h-15.6l21.59-35.79c5.26-8.73,7.44-13.1,7.44-17,0-2-1.45-4.2-5.08-4.2-14.51,0-31.93,28.06-38.83,40.16-2.9,5-6.71,12.6-7.8,16.8H645.2c13.07-22,31.39-50.57,31.39-55.11a2.24,2.24,0,0,0-2.54-2.52c-3.44,0-10,8.07-15.24,14.45l-2.17-1.68c12-14.78,19.59-24,29.21-24,4,0,6.35,2.52,6.35,5.71,0,7.56-10.16,20.83-15.42,28.05h1.27c10.16-13.94,24-33.76,38.82-33.76,6.54,0,11.07,3.69,11.07,9.07,0,7.56-5.8,15.45-12.7,24.69h1.27c9.07-11.92,22-33.76,39.19-33.76,5.45,0,10.71,2.85,10.71,9.24,0,16.63-24.5,34.27-24.5,46.2A2.85,2.85,0,0,0,745,475Z"/><path class="cls-2" d="M784.84,453.2a28.36,28.36,0,0,0-1.27,8.73c0,8.91,3.81,14.28,12.34,14.28,8,0,15.42-5.54,21.23-13.6l2.54.84c-8.35,15.45-19.78,22.68-31.57,22.68-12.7,0-18.87-8.4-18.87-19.32,0-21,23-50.4,48.44-50.4,7.26,0,15.42,2.68,15.42,10.41C833.1,441.44,813.51,449.84,784.84,453.2Zm1.45-4.37c25.4-2.52,33.75-12.26,33.75-19.49,0-3.69-2.54-5.54-7.26-5.54C801.9,423.8,790.65,435.89,786.29,448.83Z"/><path class="cls-2" d="M884.88,459.41c-2,3.36-6.17,9.41-6.17,12.6,0,2,1.82,3,4,3,6.35,0,12.7-5.71,17.23-12.43l2.54.84c-8.34,14.95-18.5,22.84-29.39,22.84-6.71,0-10.16-2.35-10.16-7.89s5.81-15.63,12.34-25.71H874C866,463.78,849.87,486,836.26,486c-6.72,0-10-3.87-10-9.75,0-23.18,32.29-59.8,58.06-59.8a35.77,35.77,0,0,1,10.89,1.68c5.8-9.92,12.52-21.51,16.14-27.56,1.64-2.85,4.18-7.39,4.18-9.4,0-2.36-.73-3.87-7.08-7.23l.91-2,27.4-6.89,1.81,1.17Zm-7.07-36.28c-15.43,0-37,31.08-37,47.2,0,2.86,1.46,4,4.18,4,9.25,0,34.11-30.58,45.72-47.72C887.42,424.47,882.16,423.13,877.81,423.13Z"/><path class="cls-2" d="M926.56,475c4.17,0,8-3.87,13.06-10.59l2.54.84c-4.9,8.91-14.33,21-25.76,21-5.63,0-8.71-3.36-8.71-8.4,0-3,1.27-6.72,3.63-10.75l15.6-26c3.63-6.05,4.9-9.24,4.9-11.09,0-1.68-.91-2.35-2.54-2.35-4.17,0-12,11.09-15.24,14.45l-2.36-1.51c13.43-16.47,20.32-24.19,29.57-24.19,3.63,0,6.17,2.35,6.17,5.88,0,4.2-2.54,9.91-6,15.79l-14.16,23.85c-2.17,3.53-3.81,7.06-3.81,9.58C923.47,473.53,924.38,475,926.56,475ZM962.3,377.6c3.81,0,5.26,2.35,5.26,5,0,6.05-6.53,13.1-12.88,13.1-3.81,0-5.62-2.35-5.62-5.37C949.06,384.65,954.68,377.6,962.3,377.6Z"/><path class="cls-2" d="M1001.93,475c3.08,0,8.16-5,13.24-12.43l2.54.84c-6.17,11.25-16.87,22.84-26.49,22.84-6,0-7.62-3.36-7.62-7.22,0-6.05,8.35-14.62,15.06-26.38h-1.27c-15.78,24.2-25.76,33.6-36.11,33.6-8.16,0-11.43-4.87-11.43-10.08,0-4,2.73-9.57,6.35-15.45,7.81-12.77,16.88-26.55,16.88-30.24,0-1.68-.73-2.86-2.54-2.86-3.27,0-8.35,6.22-15.24,14.45l-2.18-1.68c9.62-11.93,19.41-24,28.49-24,4.35,0,7.07,1.84,7.07,6,0,2.52-1.09,5.72-5.44,13.11L970.9,456.22c-3.27,5.55-6.35,10.42-6.35,13.44,0,2.86,1.45,4.71,5.08,4.71,7.44,0,18-11.09,30.66-29.57,4.36-6.39,11.07-17.14,14.52-27.39h15.6l-28.85,49.4c-1.81,3-2.17,4.7-2.17,5.88C999.39,474,1000.11,475,1001.93,475Z"/><path class="cls-2" d="M1119.44,475c5.63,0,11.8-9.41,15.06-14.62l2.18,1.51c-5.08,9.41-14.7,24.36-26.31,24.36-5.26,0-8.89-3.52-8.89-8.4,0-13.44,24.13-33.93,24.13-45,0-2.86-2.17-4.54-5.44-4.54-12.16,0-31.75,28.23-38.47,40.16-2.9,5-6.53,12.26-8,16.8h-15.6l21.59-35.79c5.26-8.73,7.44-13.1,7.44-17,0-2-1.45-4.2-5.08-4.2-14.52,0-31.94,28.06-38.83,40.16-2.9,5-6.71,12.6-7.8,16.8h-15.79c13.07-22,31.39-50.57,31.39-55.11a2.24,2.24,0,0,0-2.54-2.52c-3.45,0-10,8.07-15.24,14.45l-2.18-1.68c12-14.78,19.6-24,29.21-24,4,0,6.36,2.52,6.36,5.71,0,7.56-10.17,20.83-15.43,28.05h1.27c10.16-13.94,24-33.76,38.83-33.76,6.53,0,11.07,3.69,11.07,9.07,0,7.56-5.81,15.45-12.7,24.69H1091c9.07-11.92,22-33.76,39.19-33.76,5.44,0,10.7,2.85,10.7,9.24,0,16.63-24.49,34.27-24.49,46.2A2.84,2.84,0,0,0,1119.44,475Z"/><path class="cls-2" d="M1089.29,533.17c53.88-20,84-63.51,84-109.37,0-25.37-7.62-41.33-22.13-61.49l3.45-2.85c15.24,19.48,23.76,39.64,23.76,64,0,47-30.66,93.07-87.27,113.07Z"/><path class="cls-2" d="M230.43,573.34c2.8-4.57,9.91-7.62,14.23-7.62,9.14,0,14.47,7.11,14.47,17.27,0,29.21-28.7,86.87-58.67,86.87-26.67,0-14.73-68.07-14.73-81.53,0-3.05-1.53-5.59-4.57-5.59-4.07,0-10.42,6.86-13.72,10.92l-2.54-2.79c8.13-13,20.83-25.15,31.24-25.15,5.59,0,9.15,4.57,9.15,9.91,0,19-10.93,78.23,5.84,78.23,16.51,0,31-36.83,31-63.5C242.12,581.72,237.8,575.12,230.43,573.34Z"/><path class="cls-2" d="M299.77,654.62c5.59,0,10.67-5.59,14.23-10.67l3.81,2c-3.31,9.65-19.31,25.4-30.23,25.4-9.91,0-11.68-9.4-11.68-18,0-9.14,12.19-53.34,12.19-65,0-3.05-1.53-5.59-4.57-5.59-4.07,0-10.42,6.86-13.72,10.92l-2.54-2.79c8.13-13,20.83-25.15,31.24-25.15,5.59,0,9.15,4.57,9.15,9.91,0,13.46-11.43,58.16-11.43,73.15C296.22,651.83,296.72,654.62,299.77,654.62ZM299,534.23c-5.84-1-9.65-9.15-8.63-14.74,1.77-9.14,7.87-13.71,15-12.19,5.84,1,9.4,8.89,8.38,14.73C312.22,529.91,306.38,535.5,299,534.23Z"/><path class="cls-2" d="M409.5,681.54c0,24.13-26.42,38.1-54.87,38.36-15.49.25-33.78-6.1-33-21.85.25-10.15,11.93-21.59,20.82-28.19l.26-1.52c-4.32-2-5.85-7.62-5.85-12.7l18.55-17.78,5.58,1.27c-1.77,2.28-4.31,7.62-4.31,10.92C356.67,660.72,409.5,652.59,409.5,681.54Zm-78-70.1c0-24.38,20.57-44.45,42.67-44.45,19.31,0,30.74,15.5,30.74,32,0,22.35-20.07,42.41-42.68,42.41C343.46,641.41,331.52,628.71,331.52,611.44Zm6.35,80C337.62,703.9,349.81,709,362,709.23c13.72.26,31.5-6.6,31.5-20.57s-35.82-16-46-17C343,677.23,337.87,684.59,337.87,691.45Zm31.75-115.57c-14.48,0-19.3,17.53-19.3,33.28,0,11.17,5.08,23.36,15,23.36,17,0,20.83-18.54,20.83-34.29C386.13,586.3,379.78,575.88,369.62,575.88Zm42.67,6.61c-5.84,0-17-6.35-24.13-6.35v-4.58c8.64,0,20.83-.5,27.18-4.57a9,9,0,0,1,4.57,7.88A7.2,7.2,0,0,1,412.29,582.49Z"/><path class="cls-2" d="M419.4,629c0-29.21,22.61-63.25,52.07-63.25,24.9,0,35.31,21.85,35.31,45.47,0,27.18-21.08,60.2-52.07,60.2C429.06,671.39,419.4,652.34,419.4,629Zm45.72-50c-20.82,0-26.92,24.64-26.92,46.74,0,15,6.35,33.52,20.83,33.52,22.86,0,29.46-24.38,29.46-46.48C488.49,596.46,480.36,578.93,465.12,578.93Z"/><path class="cls-2" d="M552.24,609.41H554c4.57-13.46,24.89-43.69,36.32-43.69,3.31,0,4.58,4.32,4.58,9.4a39.42,39.42,0,0,1-2.8,15c-26.41,0-43.94,33.52-46.23,62-.5,5.34-1,10.42-1.52,16l-20.57,2.8c4.06-19,14.22-65.53,14.22-82.55,0-3.05-1.52-5.59-4.57-5.59-4.07,0-10.42,6.86-13.72,10.92l-2.54-2.79c8.13-13,22.86-25.15,33.28-25.15,5.58,0,9.14,4.57,9.14,9.91C559.61,583.5,555.8,597.47,552.24,609.41Z"/><path class="cls-2" d="M599.48,629c0-29.21,22.61-63.25,52.07-63.25,24.9,0,35.31,21.85,35.31,45.47,0,27.18-21.08,60.2-52.07,60.2C609.14,671.39,599.48,652.34,599.48,629Zm45.72-50c-20.82,0-26.92,24.64-26.92,46.74,0,15,6.35,33.52,20.83,33.52,22.86,0,29.46-24.38,29.46-46.48C668.57,596.46,660.44,578.93,645.2,578.93Z"/><path class="cls-2" d="M731.56,575.37c-8.13,0-12.19,4.83-12.19,12.2,0,8.89,15.75,22.35,22.86,29.21,6.6,6.6,12.44,14.22,12.44,21.84,0,18.54-15.74,32.77-34.29,32.77-12.69,0-26.92-4.07-26.92-15.24,0-5.34,1.78-9.66,5.84-12.2,6.35,8.13,14.23,14,26.42,14,7.11,0,12.19-5.08,12.19-10.92,0-8.63-6.1-15-13.72-22.1-9.39-8.63-20.06-15.49-20.06-29.46,0-18.54,19.3-29.72,35.56-29.72,12.95,0,23.62,6.1,23.62,16.77,0,6.09-6.86,11.93-13.72,11.68C749.34,584.52,742.48,575.37,731.56,575.37Z"/><path class="cls-2" d="M847.38,654.62c5.59,0,10.67-5.59,14.23-10.67l3.81,2c-2.54,9.65-19.31,25.4-30.23,25.4-9.14,0-11.68-6.61-11.68-15.75,0-7.88,3.81-19,7.87-32.51h-1.27c-8.89,15.49-22.86,47.75-43.43,47.75-14.74,0-19.31-12.45-19.56-29-.51-33.78,19.81-76.2,54.86-76.2a57.76,57.76,0,0,1,24.39,5.34s6.6-5.34,9.9-5.34c2,0,4.57,1.78,4.57,3.81-10.16,21.34-17,61-17,79C843.83,651.57,844.33,654.62,847.38,654.62Zm-31-78.74c-22.6,0-30.73,39.88-31.24,58.42-.25,9.65,2.29,21.59,9.4,21.59,14,0,40.64-54.86,41.4-71.37C832.9,580.2,823.51,575.88,816.39,575.88Z"/><path class="cls-2" d="M981.49,573.34c2.79-4.57,9.91-7.62,14.22-7.62,9.15,0,14.48,7.11,14.48,17.27,0,29.21-28.7,86.87-58.67,86.87-26.67,0-14.73-68.07-14.73-81.53,0-3.05-1.53-5.59-4.57-5.59-4.07,0-10.42,6.86-13.72,10.92L916,590.87c8.13-13,20.83-25.15,31.24-25.15,5.59,0,9.14,4.57,9.14,9.91,0,19-10.92,78.23,5.85,78.23,16.51,0,31-36.83,31-63.5C993.17,581.72,988.86,575.12,981.49,573.34Z"/><path class="cls-2" d="M1018.83,629c0-29.21,22.6-63.25,52.07-63.25,24.89,0,35.3,21.85,35.3,45.47,0,27.18-21.08,60.2-52.07,60.2C1028.48,671.39,1018.83,652.34,1018.83,629Zm45.72-50c-20.83,0-26.93,24.64-26.93,46.74,0,15,6.35,33.52,20.83,33.52,22.86,0,29.47-24.38,29.47-46.48C1087.92,596.46,1079.79,578.93,1064.55,578.93Z"/><path class="cls-2" d="M1176.81,682.56c-21.08,0-36.57-12.7-57.66-12.7-3.81,0-5.84,2.8-8.38,2.8-4.31,0-5.08-2.29-5.08-5.34,23.88-19.81,59.44-60.45,69.34-82-10.16,3.05-21.59,3.05-31.49,2.79a99,99,0,0,1-22.1-3,21.08,21.08,0,0,1-2-9.15c0-3.81,2-8.38,4.32-10.16,16,4.07,38.86,4.83,56.89,4.83,6.35,0,6.61-3.56,10.42-3.56,2.28,0,4.57,2.29,5.08,4.57-16,30-44.2,64.27-64.52,84.84,16,2,31.5,6.35,44.45,6.35a21.41,21.41,0,0,0,14.48-5.08C1194.85,663,1192.31,682.56,1176.81,682.56Z"/><path class="cls-2" d="M346.46,205.6a4.92,4.92,0,1,1-4.93-4.93A4.92,4.92,0,0,1,346.46,205.6Zm-.82,0a4.09,4.09,0,1,0-8.18,0,4.09,4.09,0,0,0,8.18,0Zm-1,.05a3.08,3.08,0,0,1-6.16,0h.49a2.62,2.62,0,0,0,5.18,0Zm-4.8-1.69c0-.54.18-1,.52-1s.47.42.47,1-.15,1-.47,1S339.81,204.51,339.81,204Zm2.45,0c0-.54.16-1,.48-1s.52.42.52,1-.19,1-.52,1S342.26,204.51,342.26,204Z"/><path class="cls-2" d="M362.13,200.83v9.51h-1.19v-8.48l-3.22,8.48H357l-3.27-8.49v8.49h-1.19v-9.51h1.94l2.89,7.63,2.9-7.63Z"/><path class="cls-2" d="M366.09,210.34h-1.18v-9.51h1.18Z"/><path class="cls-2" d="M374.62,209.33v1h-5.77v-9.51h1.21v8.5Z"/><path class="cls-2" d="M382.26,207.72h-4.18l-1,2.62h-1.26l3.75-9.51h1.28l3.63,9.51h-1.26Zm-.36-1L380.21,202l-1.77,4.68Z"/><path class="cls-2" d="M389.33,207.51h1.25c.18,1.34,1.17,2,2.71,2s2.39-.71,2.39-1.64-.56-1.33-1.67-1.58l-2.21-.49a2.4,2.4,0,0,1-2.16-2.41c0-1.54,1.3-2.73,3.4-2.73s3.52.88,3.73,2.83h-1.25c-.18-1.26-1.1-1.84-2.5-1.84s-2.13.7-2.13,1.6c0,.69.35,1.16,1.44,1.42l2.14.49c1.54.34,2.45,1.19,2.45,2.54,0,1.67-1.3,2.81-3.63,2.81C390.8,210.51,389.53,209.43,389.33,207.51Z"/><path class="cls-2" d="M406.83,206.64c0,2.58-1.53,3.87-3.93,3.87S399,209.2,399,206.64v-5.81h1.17v5.81a2.57,2.57,0,0,0,2.78,2.83,2.54,2.54,0,0,0,2.73-2.77v-5.87h1.18Z"/><path class="cls-2" d="M416.6,203.47c0,1.57-1.08,2.71-3.25,2.71h-2.63v4.16h-1.19v-9.51h3.92C415.62,200.83,416.6,201.83,416.6,203.47Zm-1.19,0c0-1.06-.66-1.65-2.16-1.65h-2.53v3.36h2.53C414.75,205.18,415.41,204.5,415.41,203.47Z"/><path class="cls-2" d="M419.65,201.83V205h4.81v1h-4.81v3.36h5.4v1h-6.57v-9.51h6.57v1Z"/><path class="cls-2" d="M430.36,206.18H428.3v4.16h-1.19v-9.51H431c2.18,0,3.17,1,3.17,2.62,0,1.43-.78,2.39-2.55,2.6l3.07,4.29h-1.33Zm-2.06-1h2.57c1.39,0,2.12-.63,2.12-1.73s-.76-1.63-2.14-1.63H428.3Z"/><path class="cls-2" d="M441.68,210.34H440.5v-9.51h1.18Z"/><path class="cls-2" d="M451,201.81h-3.16v8.53h-1.17v-8.53h-3.17v-1H451Z"/><path class="cls-2" d="M457.07,207.72h-4.19l-1,2.62h-1.26l3.76-9.51h1.27l3.63,9.51H458Zm-.37-1L455,202l-1.77,4.68Z"/><path class="cls-2" d="M466.81,209.33v1H461v-9.51h1.21v8.5Z"/><path class="cls-2" d="M469.77,210.34h-1.18v-9.51h1.18Z"/><path class="cls-2" d="M472,205.59c0-2.87,1.74-4.93,4.41-4.93a3.67,3.67,0,0,1,4,3.21h-1.25a2.53,2.53,0,0,0-2.8-2.22c-1.79,0-3.22,1.54-3.22,3.94s1.43,3.92,3.22,3.92a2.57,2.57,0,0,0,2.82-2.2h1.24c-.42,2-1.59,3.2-4.06,3.2C473.75,210.51,472,208.46,472,205.59Z"/><path class="cls-2" d="M769.46,357.6a4.92,4.92,0,1,1-4.93-4.93A4.92,4.92,0,0,1,769.46,357.6Zm-.82,0a4.09,4.09,0,1,0-8.18,0,4.09,4.09,0,0,0,8.18,0Zm-1,0a3.08,3.08,0,0,1-6.16,0h.49a2.62,2.62,0,0,0,5.18,0Zm-4.8-1.69c0-.54.18-1,.52-1s.47.42.47,1-.15,1-.47,1S762.81,356.51,762.81,356Zm2.45,0c0-.54.16-1,.48-1s.52.42.52,1-.19,1-.52,1S765.26,356.51,765.26,356Z"/><path class="cls-2" d="M785.13,352.83v9.51h-1.19v-8.48l-3.22,8.48H780l-3.27-8.49v8.49h-1.19v-9.51h1.94l2.89,7.63,2.9-7.63Z"/><path class="cls-2" d="M789.09,362.34h-1.18v-9.51h1.18Z"/><path class="cls-2" d="M797.62,361.33v1h-5.77v-9.51h1.21v8.5Z"/><path class="cls-2" d="M805.26,359.72h-4.18l-1,2.62h-1.26l3.75-9.51h1.28l3.63,9.51h-1.26Zm-.36-1L803.21,354l-1.77,4.68Z"/><path class="cls-2" d="M816.32,358.18h-2.06v4.16h-1.19v-9.51H817c2.17,0,3.17,1,3.17,2.62,0,1.43-.79,2.39-2.55,2.6l3.07,4.29h-1.34Zm-2.06-1h2.58c1.39,0,2.12-.63,2.12-1.73s-.76-1.63-2.15-1.63h-2.55Z"/><path class="cls-2" d="M823.71,353.83V357h4.81v1h-4.81v3.36h5.39v1h-6.57v-9.51h6.57v1Z"/><path class="cls-2" d="M839.2,357.41v4.93h-1.05V360.6a3.14,3.14,0,0,1-3.14,1.91c-2.68,0-4.47-2-4.47-4.92s1.78-4.93,4.44-4.93a3.74,3.74,0,0,1,4,2.73H837.7a2.6,2.6,0,0,0-2.74-1.74c-1.91,0-3.24,1.5-3.24,3.94s1.3,3.92,3.28,3.92a2.87,2.87,0,0,0,3-3.11h-3.32v-1Z"/><path class="cls-2" d="M849.36,358.64c0,2.58-1.53,3.87-3.92,3.87s-3.94-1.31-3.94-3.87v-5.81h1.18v5.81a2.75,2.75,0,1,0,5.5.06v-5.87h1.18Z"/><path class="cls-2" d="M857.83,361.33v1h-5.77v-9.51h1.21v8.5Z"/><path class="cls-2" d="M865.47,359.72h-4.18l-1,2.62H859l3.76-9.51h1.27l3.63,9.51h-1.26Zm-.36-1L863.42,354l-1.77,4.68Z"/><path class="cls-2" d="M872.7,358.18h-2.06v4.16h-1.19v-9.51h3.91c2.17,0,3.17,1,3.17,2.62,0,1.43-.79,2.39-2.55,2.6l3.06,4.29h-1.33Zm-2.06-1h2.58c1.39,0,2.12-.63,2.12-1.73s-.76-1.63-2.15-1.63h-2.55Z"/><path class="cls-2" d="M584.46,703.6a4.92,4.92,0,1,1-4.93-4.93A4.92,4.92,0,0,1,584.46,703.6Zm-.82,0a4.09,4.09,0,1,0-8.18,0,4.09,4.09,0,0,0,8.18,0Zm-1,0a3.08,3.08,0,0,1-6.16,0h.49a2.62,2.62,0,0,0,5.18,0Zm-4.8-1.69c0-.54.18-1,.52-1s.47.42.47,1-.15,1-.47,1S577.81,702.51,577.81,702Zm2.45,0c0-.54.16-1,.48-1s.52.42.52,1-.19,1-.52,1S580.26,702.51,580.26,702Z"/><path class="cls-2" d="M600.13,698.83v9.51h-1.19v-8.48l-3.22,8.48H595l-3.27-8.49v8.49h-1.19v-9.51h1.94l2.89,7.63,2.9-7.63Z"/><path class="cls-2" d="M604.09,708.34h-1.18v-9.51h1.18Z"/><path class="cls-2" d="M612.62,707.33v1h-5.77v-9.51h1.21v8.5Z"/><path class="cls-2" d="M620.26,705.72h-4.18l-1,2.62h-1.26l3.75-9.51h1.28l3.63,9.51h-1.26Zm-.36-1L618.21,700l-1.77,4.68Z"/><path class="cls-2" d="M629.25,708.34h-1.18v-9.51h1.18Z"/><path class="cls-2" d="M638.55,699.81h-3.16v8.53h-1.17v-8.53h-3.17v-1h7.5Z"/><path class="cls-2" d="M644.64,705.72h-4.19l-1,2.62h-1.26l3.76-9.51h1.27l3.63,9.51h-1.26Zm-.37-1L642.58,700l-1.77,4.68Z"/><path class="cls-2" d="M654.38,707.33v1h-5.77v-9.51h1.21v8.5Z"/><path class="cls-2" d="M657.34,708.34h-1.18v-9.51h1.18Z"/><path class="cls-2" d="M659.57,703.59c0-2.87,1.74-4.93,4.41-4.93a3.67,3.67,0,0,1,4,3.21h-1.25a2.53,2.53,0,0,0-2.8-2.22c-1.79,0-3.22,1.54-3.22,3.94s1.43,3.92,3.22,3.92a2.56,2.56,0,0,0,2.82-2.2H668c-.42,2-1.59,3.2-4.06,3.2C661.32,708.51,659.57,706.46,659.57,703.59Z"/><path class="cls-2" d="M935.46,517.6a4.92,4.92,0,1,1-4.93-4.93A4.92,4.92,0,0,1,935.46,517.6Zm-.82,0a4.09,4.09,0,1,0-8.18,0,4.09,4.09,0,0,0,8.18,0Zm-1,0a3.08,3.08,0,0,1-6.16,0h.49a2.62,2.62,0,0,0,5.18,0Zm-4.8-1.69c0-.54.18-1,.52-1s.47.42.47,1-.15,1-.47,1S928.81,516.51,928.81,516Zm2.45,0c0-.54.16-1,.48-1s.52.42.52,1-.19,1-.52,1S931.26,516.51,931.26,516Z"/><path class="cls-2" d="M951.13,512.83v9.51h-1.19v-8.48l-3.22,8.48H946l-3.27-8.49v8.49h-1.19v-9.51h1.94l2.89,7.63,2.9-7.63Z"/><path class="cls-2" d="M955.09,522.34h-1.18v-9.51h1.18Z"/><path class="cls-2" d="M963.62,521.33v1h-5.77v-9.51h1.21v8.5Z"/><path class="cls-2" d="M971.26,519.72h-4.18l-1,2.62h-1.26l3.75-9.51h1.28l3.63,9.51h-1.26Zm-.36-1L969.21,514l-1.77,4.68Z"/><path class="cls-2" d="M978.33,519.51h1.25c.18,1.34,1.17,2,2.71,2s2.39-.71,2.39-1.64-.56-1.33-1.67-1.58l-2.21-.49a2.4,2.4,0,0,1-2.16-2.41c0-1.54,1.3-2.73,3.4-2.73s3.52.88,3.73,2.83h-1.25c-.18-1.26-1.1-1.84-2.5-1.84s-2.13.7-2.13,1.6c0,.69.35,1.16,1.44,1.42l2.14.49c1.54.34,2.45,1.19,2.45,2.54,0,1.67-1.3,2.81-3.63,2.81C979.8,522.51,978.53,521.43,978.33,519.51Z"/><path class="cls-2" d="M995.83,518.64c0,2.58-1.53,3.87-3.93,3.87S988,521.2,988,518.64v-5.81h1.17v5.81a2.57,2.57,0,0,0,2.78,2.83,2.54,2.54,0,0,0,2.73-2.77v-5.87h1.18Z"/><path class="cls-2" d="M1005.6,515.47c0,1.57-1.08,2.71-3.25,2.71h-2.63v4.16h-1.19v-9.51h3.92C1004.62,512.83,1005.6,513.83,1005.6,515.47Zm-1.19,0c0-1.06-.66-1.65-2.16-1.65h-2.53v3.36h2.53C1003.75,517.18,1004.41,516.5,1004.41,515.47Z"/><path class="cls-2" d="M1008.65,513.83V517h4.81v1h-4.81v3.36h5.4v1h-6.57v-9.51h6.57v1Z"/><path class="cls-2" d="M1019.36,518.18h-2.06v4.16h-1.19v-9.51h3.9c2.18,0,3.17,1,3.17,2.62,0,1.43-.78,2.39-2.55,2.6l3.07,4.29h-1.33Zm-2.06-1h2.57c1.39,0,2.12-.63,2.12-1.73s-.76-1.63-2.14-1.63h-2.55Z"/><path class="cls-2" d="M1030.68,522.34h-1.18v-9.51h1.18Z"/><path class="cls-2" d="M1040,513.81h-3.16v8.53h-1.17v-8.53h-3.17v-1h7.5Z"/><path class="cls-2" d="M1046.07,519.72h-4.19l-1,2.62h-1.26l3.76-9.51h1.27l3.63,9.51H1047Zm-.37-1L1044,514l-1.77,4.68Z"/><path class="cls-2" d="M1055.81,521.33v1H1050v-9.51h1.21v8.5Z"/><path class="cls-2" d="M1058.77,522.34h-1.18v-9.51h1.18Z"/><path class="cls-2" d="M1061,517.59c0-2.87,1.74-4.93,4.41-4.93a3.67,3.67,0,0,1,4,3.21h-1.25a2.53,2.53,0,0,0-2.8-2.22c-1.79,0-3.22,1.54-3.22,3.94s1.43,3.92,3.22,3.92a2.57,2.57,0,0,0,2.82-2.2h1.24c-.42,2-1.59,3.2-4.06,3.2C1062.75,522.51,1061,520.46,1061,517.59Z"/><path class="cls-2" d="M84.41,123.16a4.92,4.92,0,1,1-4.93-4.93A4.91,4.91,0,0,1,84.41,123.16Zm-.83,0a4.09,4.09,0,1,0-8.18,0,4.09,4.09,0,0,0,8.18,0Zm-1,0a3.09,3.09,0,0,1-6.17,0h.49a2.62,2.62,0,0,0,5.19,0Zm-4.81-1.68c0-.54.18-1,.52-1s.48.42.48,1-.16,1-.48,1S77.75,122.07,77.75,121.52Zm2.45,0c0-.54.16-1,.48-1s.52.42.52,1-.18,1-.52,1S80.2,122.07,80.2,121.52Z"/><path class="cls-2" d="M92.86,118.38v9.52H91.65v-7.5a3,3,0,0,1-2.17.6v-1c1.63,0,2.12-.65,2.36-1.64Z"/><path class="cls-2" d="M102,124.8a3.1,3.1,0,0,1-3.29,3.26c-2.73,0-3.52-2.42-3.52-5,0-3.39,1.75-4.84,3.66-4.84a2.7,2.7,0,0,1,3,2.43h-1.19a1.66,1.66,0,0,0-1.81-1.43c-1.6,0-2.49,1.5-2.49,3.56v.2a2.59,2.59,0,0,1,2.46-1.33A3,3,0,0,1,102,124.8Zm-1.16,0a2,2,0,0,0-2.09-2.14,2.1,2.1,0,0,0-2.18,2.14,2.17,2.17,0,0,0,2.18,2.25A2.09,2.09,0,0,0,100.81,124.8Z"/><path class="cls-2" d="M110.57,125.28c0,1.61-1.43,2.78-3.41,2.78s-3.44-1.17-3.44-2.78a2.43,2.43,0,0,1,1.84-2.36,2.2,2.2,0,0,1-1.54-2.11c0-1.49,1.3-2.59,3.14-2.59s3.12,1.1,3.12,2.59a2.21,2.21,0,0,1-1.54,2.11A2.4,2.4,0,0,1,110.57,125.28Zm-1.3,0a1.86,1.86,0,0,0-2.11-1.8c-1.27,0-2.13.71-2.13,1.8s.86,1.81,2.13,1.81A1.86,1.86,0,0,0,109.27,125.23Zm-4-4.38a1.93,1.93,0,0,0,3.8,0,1.92,1.92,0,0,0-3.8,0Z"/><path class="cls-2" d="M123.75,121c0,1.57-1.08,2.71-3.25,2.71h-2.64v4.16h-1.19v-9.52h3.93C122.77,118.38,123.75,119.39,123.75,121Zm-1.19,0c0-1.06-.66-1.65-2.16-1.65h-2.54v3.36h2.54C121.9,122.74,122.56,122.05,122.56,121Z"/><path class="cls-2" d="M132.44,119.37h-3.15v8.53h-1.18v-8.53H125v-1h7.49Z"/><path class="cls-2" d="M133.52,125.07h1.24c.19,1.34,1.18,2,2.72,2s2.38-.72,2.38-1.64-.56-1.33-1.66-1.58l-2.22-.49a2.4,2.4,0,0,1-2.15-2.41c0-1.54,1.3-2.73,3.4-2.73s3.52.88,3.73,2.83h-1.25c-.18-1.26-1.11-1.84-2.51-1.84s-2.13.7-2.13,1.6c0,.68.35,1.16,1.45,1.41l2.14.49c1.54.35,2.45,1.19,2.45,2.55,0,1.67-1.3,2.8-3.63,2.8C135,128.06,133.71,127,133.52,125.07Z"/><path class="cls-2" d="M1242.51,284.16a4.92,4.92,0,1,1-4.93-4.93A4.91,4.91,0,0,1,1242.51,284.16Zm-.82,0a4.09,4.09,0,1,0-8.18,0,4.09,4.09,0,0,0,8.18,0Zm-1,0a3.08,3.08,0,0,1-6.16,0h.49a2.62,2.62,0,0,0,5.18,0Zm-4.8-1.68c0-.54.18-1,.52-1s.47.42.47,1-.15,1-.47,1S1235.86,283.07,1235.86,282.52Zm2.45,0c0-.54.15-1,.48-1s.51.42.51,1-.18,1-.51,1S1238.31,283.07,1238.31,282.52Z"/><path class="cls-2" d="M1251,279.38v9.52h-1.2v-7.5a3,3,0,0,1-2.17.6v-1c1.62,0,2.11-.65,2.35-1.64Z"/><path class="cls-2" d="M1260,286.58h-1.24v2.32h-1.2v-2.32h-4.78v-1l4.22-6.22h1.76v6.22H1260Zm-2.44-1v-5.32l-3.61,5.32Z"/><path class="cls-2" d="M1268.47,286.28c0,1.61-1.43,2.78-3.42,2.78s-3.43-1.17-3.43-2.78a2.42,2.42,0,0,1,1.83-2.36,2.21,2.21,0,0,1-1.54-2.11c0-1.49,1.3-2.59,3.14-2.59s3.12,1.1,3.12,2.59a2.2,2.2,0,0,1-1.54,2.11A2.41,2.41,0,0,1,1268.47,286.28Zm-1.31,0a1.86,1.86,0,0,0-2.11-1.8c-1.26,0-2.13.71-2.13,1.8a2.15,2.15,0,0,0,4.24,0Zm-4-4.38a1.7,1.7,0,0,0,1.91,1.61,1.69,1.69,0,0,0,1.89-1.61,1.92,1.92,0,0,0-3.8,0Z"/><path class="cls-2" d="M1281.64,282c0,1.57-1.08,2.71-3.25,2.71h-2.63v4.16h-1.19v-9.52h3.92C1280.66,279.38,1281.64,280.39,1281.64,282Zm-1.19,0c0-1.06-.66-1.65-2.16-1.65h-2.53v3.36h2.53C1279.79,283.74,1280.45,283.05,1280.45,282Z"/><path class="cls-2" d="M1290.33,280.37h-3.15v8.53H1286v-8.53h-3.17v-1h7.49Z"/><path class="cls-2" d="M1291.41,286.07h1.25c.18,1.34,1.18,2,2.72,2s2.38-.72,2.38-1.64-.56-1.33-1.67-1.58l-2.21-.49a2.41,2.41,0,0,1-2.16-2.41c0-1.54,1.3-2.73,3.4-2.73s3.52.88,3.73,2.83h-1.25c-.18-1.26-1.1-1.84-2.5-1.84s-2.13.7-2.13,1.6c0,.68.35,1.16,1.44,1.41l2.14.49c1.54.35,2.45,1.19,2.45,2.55,0,1.67-1.3,2.8-3.62,2.8C1292.88,289.06,1291.61,288,1291.41,286.07Z"/><path class="cls-2" d="M84.41,439.16a4.92,4.92,0,1,1-4.93-4.93A4.91,4.91,0,0,1,84.41,439.16Zm-.83,0a4.09,4.09,0,1,0-8.18,0,4.09,4.09,0,0,0,8.18,0Zm-1,0a3.09,3.09,0,0,1-6.17,0h.49a2.62,2.62,0,0,0,5.19,0Zm-4.81-1.68c0-.54.18-1,.52-1s.48.42.48,1-.16,1-.48,1S77.75,438.07,77.75,437.52Zm2.45,0c0-.54.16-1,.48-1s.52.42.52,1-.18,1-.52,1S80.2,438.07,80.2,437.52Z"/><path class="cls-2" d="M92.86,434.38v9.52H91.65v-7.5a3,3,0,0,1-2.17.6v-1c1.63,0,2.12-.65,2.36-1.64Z"/><path class="cls-2" d="M102,440.8a3.1,3.1,0,0,1-3.29,3.26c-2.73,0-3.52-2.42-3.52-5,0-3.39,1.75-4.84,3.66-4.84a2.7,2.7,0,0,1,3,2.43h-1.19a1.66,1.66,0,0,0-1.81-1.43c-1.6,0-2.49,1.5-2.49,3.56v.2a2.59,2.59,0,0,1,2.46-1.33A3,3,0,0,1,102,440.8Zm-1.16,0a2,2,0,0,0-2.09-2.14,2.1,2.1,0,0,0-2.18,2.14,2.17,2.17,0,0,0,2.18,2.25A2.09,2.09,0,0,0,100.81,440.8Z"/><path class="cls-2" d="M110.57,441.28c0,1.61-1.43,2.78-3.41,2.78s-3.44-1.17-3.44-2.78a2.43,2.43,0,0,1,1.84-2.36,2.2,2.2,0,0,1-1.54-2.11c0-1.49,1.3-2.59,3.14-2.59s3.12,1.1,3.12,2.59a2.21,2.21,0,0,1-1.54,2.11A2.4,2.4,0,0,1,110.57,441.28Zm-1.3,0a1.86,1.86,0,0,0-2.11-1.8c-1.27,0-2.13.71-2.13,1.8s.86,1.81,2.13,1.81A1.86,1.86,0,0,0,109.27,441.23Zm-4-4.38a1.93,1.93,0,0,0,3.8,0,1.92,1.92,0,0,0-3.8,0Z"/><path class="cls-2" d="M123.75,437c0,1.57-1.08,2.71-3.25,2.71h-2.64v4.16h-1.19v-9.52h3.93C122.77,434.38,123.75,435.39,123.75,437Zm-1.19,0c0-1.06-.66-1.65-2.16-1.65h-2.54v3.36h2.54C121.9,438.74,122.56,438.05,122.56,437Z"/><path class="cls-2" d="M132.44,435.37h-3.15v8.53h-1.18v-8.53H125v-1h7.49Z"/><path class="cls-2" d="M133.52,441.07h1.24c.19,1.34,1.18,2,2.72,2s2.38-.72,2.38-1.64-.56-1.33-1.66-1.58l-2.22-.49a2.4,2.4,0,0,1-2.15-2.41c0-1.54,1.3-2.73,3.4-2.73s3.52.88,3.73,2.83h-1.25c-.18-1.26-1.11-1.84-2.51-1.84s-2.13.7-2.13,1.6c0,.68.35,1.16,1.45,1.41l2.14.49c1.54.35,2.45,1.19,2.45,2.55,0,1.67-1.3,2.8-3.63,2.8C135,444.06,133.71,443,133.52,441.07Z"/><path class="cls-2" d="M1241.3,623.16a4.92,4.92,0,1,1-4.93-4.93A4.91,4.91,0,0,1,1241.3,623.16Zm-.83,0a4.09,4.09,0,1,0-8.18,0,4.09,4.09,0,0,0,8.18,0Zm-1,0a3.08,3.08,0,0,1-6.16,0h.49a2.62,2.62,0,0,0,5.18,0Zm-4.8-1.68c0-.54.18-1,.51-1s.48.42.48,1-.15,1-.48,1S1234.65,622.07,1234.65,621.52Zm2.45,0c0-.54.15-1,.47-1s.52.42.52,1-.18,1-.52,1S1237.1,622.07,1237.1,621.52Z"/><path class="cls-2" d="M1247.86,626.92h5.28v1h-6.47v-.41a3.61,3.61,0,0,1,2.09-3.33l1.89-1.11a2.15,2.15,0,0,0,1.3-2,1.75,1.75,0,0,0-1.89-1.86,2.05,2.05,0,0,0-2.14,2.21h-1.15a3.07,3.07,0,0,1,3.29-3.2,2.8,2.8,0,0,1,3.08,2.85c0,1-.32,1.91-1.85,2.82l-2.17,1.29A2.35,2.35,0,0,0,1247.86,626.92Z"/><path class="cls-2" d="M1261.44,624.86a3.09,3.09,0,0,1-3.3,3.2c-2,0-3.36-1.17-3.36-2.91H1256a2,2,0,0,0,2.18,1.92,2.08,2.08,0,0,0,2.12-2.24,2,2,0,0,0-2.13-2.17,1.92,1.92,0,0,0-1.77.93H1255l.36-5.21H1261v1h-4.64l-.21,3.2a2.79,2.79,0,0,1,2.23-1A3,3,0,0,1,1261.44,624.86Z"/><path class="cls-2" d="M1269.78,624.86a3.09,3.09,0,0,1-3.31,3.2c-2,0-3.36-1.17-3.36-2.91h1.19a2,2,0,0,0,2.19,1.92,2.08,2.08,0,0,0,2.11-2.24,2,2,0,0,0-2.13-2.17,1.89,1.89,0,0,0-1.76.93h-1.38l.37-5.21h5.6v1h-4.63l-.22,3.2a2.81,2.81,0,0,1,2.23-1A3,3,0,0,1,1269.78,624.86Z"/><path class="cls-2" d="M1282.85,621c0,1.57-1.08,2.71-3.25,2.71H1277v4.16h-1.19v-9.52h3.92C1281.87,618.38,1282.85,619.39,1282.85,621Zm-1.19,0c0-1.06-.66-1.65-2.15-1.65H1277v3.36h2.54C1281,622.74,1281.66,622.05,1281.66,621Z"/><path class="cls-2" d="M1291.55,619.37h-3.16v8.53h-1.17v-8.53h-3.17v-1h7.5Z"/><path class="cls-2" d="M1292.62,625.07h1.25c.18,1.34,1.18,2,2.72,2s2.38-.72,2.38-1.64-.56-1.33-1.67-1.58l-2.21-.49a2.41,2.41,0,0,1-2.16-2.41c0-1.54,1.31-2.73,3.41-2.73s3.51.88,3.72,2.83h-1.24c-.19-1.26-1.11-1.84-2.51-1.84s-2.13.7-2.13,1.6c0,.68.35,1.16,1.44,1.41l2.15.49c1.54.35,2.45,1.19,2.45,2.55,0,1.67-1.31,2.8-3.63,2.8C1294.1,628.06,1292.82,627,1292.62,625.07Z"/></g></svg>