<svg xmlns="http://www.w3.org/2000/svg" viewBox="0 0 1366 768"><defs><style>.cls-1{fill:#1a26cd;}</style></defs><g id="Layer_1" data-name="Layer 1"><path d="M341,180.35H270c1.75,25.25,14.75,40.5,36.5,40.5,16.25,0,25-4.5,30.5-17.5h4c-2.5,16.5-13.25,35.5-41.25,35.5-31.75,0-46.5-24.5-46.5-53.75,0-30.25,16.75-54.25,47.25-54.25C331.76,130.85,344,155.85,341,180.35Zm-19-7.5c0-18.75-7.25-34.5-25.75-34.5-16.25,0-26,12-26.5,34.5Z"/><path d="M464,130.6v14.25H439.5c6.5,7,10,16.5,10,27,0,24.75-14.75,41.75-41.25,43.25v17.25h7.25c25,0,41.75,10.5,41.75,32,0,25.25-25.25,37-53.25,37-30,0-52-11.75-52-37,0-21.5,18.75-32,41.75-32H399V215.1c-27-1.5-43-16.25-43-42.25,0-24,16-41.75,46.5-41.75,12.75,0,23,3,30.75,8.25l29-8.75ZM406.25,240.35h-5c-18.25,0-29.25,7.5-29.25,25.75,0,17.25,15.75,27.75,32.75,27.75,19,0,31.5-11.25,31.5-27.75C436.25,247.85,423.75,240.35,406.25,240.35ZM427.5,178.6c0-24.25-9.25-39.75-27-39.75-14.75,0-22.75,11-22.75,28.5,0,26.5,9.5,39.5,26.75,39.5C420.25,206.85,427.5,195.35,427.5,178.6Z"/><path d="M579.75,130.6v14.25h-24.5c6.5,7,10,16.5,10,27,0,24.75-14.75,41.75-41.25,43.25v17.25h7.25c25,0,41.75,10.5,41.75,32,0,25.25-25.25,37-53.25,37-30,0-52-11.75-52-37,0-21.5,18.75-32,41.75-32h5.25V215.1c-27-1.5-43-16.25-43-42.25,0-24,16-41.75,46.5-41.75,12.75,0,23,3,30.75,8.25l29-8.75ZM522,240.35h-5c-18.25,0-29.25,7.5-29.25,25.75,0,17.25,15.75,27.75,32.75,27.75,19,0,31.5-11.25,31.5-27.75C552,247.85,539.5,240.35,522,240.35Zm21.25-61.75c0-24.25-9.25-39.75-27-39.75-14.75,0-22.75,11-22.75,28.5,0,26.5,9.5,39.5,26.75,39.5C536,206.85,543.25,195.35,543.25,178.6Z"/><path d="M624,290.85l25,5.5v2.5H586v-2.5l17.75-5.5V147.35h-19v-2.5l38.75-14V156.1l.5.25c5.75-15,18-25.5,37.5-25.5,27.75,0,39.5,19.25,39.5,49.25,0,35.25-16.75,58.75-52.75,58.75A89.89,89.89,0,0,1,624,235.6Zm0-111.5v37c4,9,14,14.75,25.25,14.75,29.5,0,32.5-30,32.5-46.5,0-26.75-11-39.75-29-39.75C631.5,144.85,624,160.85,624,179.35Z"/><path d="M786.25,213.85c-3.25,12.5-9.75,25-28.25,25-19,0-28.5-8.75-28.75-27.5V79.6L711.5,74.85v-2.5h72.25v2.5l-34.25,4v126c0,12.25,2.25,20.5,16.5,20.5,8.25,0,13-3.5,16.5-11.5Z"/><path d="M897.25,198.6h4.5v9.25c0,16-2.75,29-22.5,29-11.25,0-20.25-5-20.75-18.25-5,11-14.25,20.25-30.5,20.25-19.75,0-31.75-11.25-31.75-30.25,0-23.25,16.75-32.75,39-32.75,10,0,17.5,2.5,23.25,6V162.6c0-15.5-3.5-24-19.5-24-14,0-20.75,8-27.25,30.5H808V134.85a175.86,175.86,0,0,1,34-4c27.25,0,36.75,11.25,36.75,35.25v48c0,7,2.25,11,8.25,11,7.5,0,10.25-6,10.25-19Zm-38.75,2V190.1a32.35,32.35,0,0,0-20-7c-14.25,0-22.75,7.5-22.75,21.5,0,12.25,7,19.5,20.25,19.5C854.25,224.1,858.5,210.1,858.5,200.6Z"/><path d="M1034.25,232.35v2.5h-55.5v-2.5l17.75-5v-53c0-16.5-5.75-27.25-23-27.25-17,0-25.25,12-25.25,33.5v46.75l17.5,5v2.5h-55.5v-2.5l17.75-5v-81.5H910.25V143.6L947,132.35V158.1c7.25-18,20.75-27.25,36.5-27.25,22.25,0,33.25,14.75,33.25,37v59.5Z"/><path d="M1114,213.85c-3.25,12.5-9.75,25-28.25,25-19.25,0-28.75-9-28.75-28.5v-68h-21v-2.5c23.5-3.5,33.75-14,37.5-40h3.75v35h33.25v7.5h-33.25v62.5c0,12.25,2.25,20.5,16.5,20.5,8.25,0,13-3.5,16.5-11.5Z"/><path d="M287.53,395.59c-1.95,7.5-5.85,15-16.95,15-11.55,0-17.25-5.4-17.25-17.1v-40.8h-12.6v-1.5c14.1-2.1,20.25-8.4,22.5-24h2.25v21h19.95v4.5H265.48v37.5c0,7.35,1.35,12.3,9.9,12.3,4.95,0,7.8-2.1,9.9-6.9Z"/><path d="M346.33,375.49h-42.6c1,15.15,8.85,24.3,21.9,24.3,9.75,0,15-2.7,18.3-10.5h2.4c-1.5,9.9-7.95,21.3-24.75,21.3-19.05,0-27.9-14.7-27.9-32.25,0-18.15,10.05-32.55,28.35-32.55C340.78,345.79,348.13,360.79,346.33,375.49Zm-11.4-4.5c0-11.25-4.35-20.7-15.45-20.7-9.75,0-15.6,7.2-15.9,20.7Z"/><path d="M398.23,395.59c-2,7.5-5.85,15-17,15-11.55,0-17.25-5.4-17.25-17.1v-40.8h-12.6v-1.5c14.1-2.1,20.25-8.4,22.5-24h2.25v21h19.95v4.5H376.18v37.5c0,7.35,1.35,12.3,9.9,12.3,4.95,0,7.8-2.1,9.9-6.9Z"/><path d="M450.43,345.79v21.6h-2.25c-2.1-6.75-4.95-9.45-10.05-9.45-9.15,0-12.15,10.2-12.15,21v24.75l16.5,3v1.5h-39.3v-1.5l10.65-3v-48.9H403.18v-1.35l22.05-7.65v19.35c.75-1.95,1.8-3.75,2.7-5.55C432.73,351.19,440.23,345.79,450.43,345.79Z"/><path d="M516.87,386.44h2.7V392c0,9.6-1.65,17.4-13.5,17.4-6.75,0-12.15-3-12.45-10.95-3,6.6-8.55,12.15-18.3,12.15-11.85,0-19-6.75-19-18.15,0-13.95,10.05-19.65,23.39-19.65a26.15,26.15,0,0,1,13.95,3.6V364.84c0-9.3-2.1-14.4-11.7-14.4-8.39,0-12.45,4.8-16.34,18.3h-2.25V348.19a105.51,105.51,0,0,1,20.39-2.4c16.35,0,22,6.75,22,21.15v28.8c0,4.2,1.35,6.6,5,6.6,4.5,0,6.15-3.6,6.15-11.4Zm-23.25,1.2v-6.3a19.41,19.41,0,0,0-12-4.2c-8.55,0-13.65,4.5-13.65,12.9,0,7.35,4.21,11.7,12.15,11.7C491.07,401.74,493.62,393.34,493.62,387.64Z"/><path d="M577.62,389.29c-1.8,12.75-9.3,21.3-23.69,21.3-19.5,0-28-14.7-28-30.75,0-18.45,9.15-34,31.65-34a65.75,65.75,0,0,1,18,2.7l2.1,22.95-2.24.3c-3.61-11.7-8.85-21.45-20.26-21.45-14.54,0-19.34,10.35-19.34,23.4,0,12.75,6.3,26.4,23.25,26.4,8.25,0,13.94-3.6,16.19-10.8Z"/><path d="M659.37,406.69v1.5h-33.3v-1.5l10.65-3v-30.3c0-9.45-1.8-17.85-14-17.85-8.1,0-15,4.8-15,20.4v27.75l10.5,3v1.5H585v-1.5l10.65-3V315.05L585,312.2v-1.5h43.35v1.5l-20.55,2.4v45.74c4.65-9.75,12.45-14.55,21.15-14.55,13.35,0,20,8.85,20,22.2v35.7Z"/><path d="M711.72,345.79v21.6h-2.25c-2.1-6.75-5-9.45-10.05-9.45-9.15,0-12.15,10.2-12.15,21v24.75l16.5,3v1.5h-39.3v-1.5l10.65-3v-48.9H664.47v-1.35l22-7.65v19.35c.75-1.95,1.8-3.75,2.7-5.55C694,351.19,701.52,345.79,711.72,345.79Z"/><path d="M717.57,378.34c0-19.2,11.25-32.4,32.25-32.4,19.95,0,30.3,14.25,30.3,32.4,0,19.2-11.25,32.4-31.5,32.4C727.92,410.74,717.57,396.49,717.57,378.34Zm50.4,2.1c0-15.15-6.45-29.85-20.1-29.85-13.35,0-18.15,11.55-18.15,25.65,0,15.3,6.45,29.85,20.1,29.85C763.17,406.09,768,395.59,768,380.44Z"/><path d="M904,406.84v1.5H871.47v-1.5l9.9-3v-31.2c0-11.1-3.15-16.95-13.5-16.95-10.8,0-14.55,8.85-14.55,19.8v28.35l10.8,3v1.5H830.37v-1.5l10.8-3v-31.2c0-10.2-2.4-16.95-13.65-17.1-10.2-.15-14.4,7.8-14.55,19.2v28.95l10.5,3v1.5h-33.3v-1.5l10.65-3v-48.9h-11.4v-1.35l22.8-6.75v15.45c4.35-10.8,12.3-16.5,21.3-16.35,10.8.15,17.4,6.15,19.2,16,4.35-10,11.7-15.9,21.15-15.9,12.9,0,19.65,8.85,19.65,22.2v35.7Z"/><path d="M970.92,386.44h2.7V392c0,9.6-1.65,17.4-13.5,17.4-6.75,0-12.15-3-12.45-10.95-3,6.6-8.55,12.15-18.3,12.15-11.85,0-19-6.75-19-18.15,0-13.95,10-19.65,23.4-19.65a26.15,26.15,0,0,1,13.95,3.6V364.84c0-9.3-2.1-14.4-11.7-14.4-8.4,0-12.45,4.8-16.35,18.3h-2.25V348.19a105.51,105.51,0,0,1,20.4-2.4c16.35,0,22.05,6.75,22.05,21.15v28.8c0,4.2,1.35,6.6,4.95,6.6,4.5,0,6.15-3.6,6.15-11.4Zm-23.25,1.2v-6.3a19.41,19.41,0,0,0-12-4.2c-8.55,0-13.65,4.5-13.65,12.9,0,7.35,4.2,11.7,12.15,11.7C945.12,401.74,947.67,393.34,947.67,387.64Z"/><path d="M1021.47,395.59c-2,7.5-5.85,15-17,15-11.55,0-17.25-5.4-17.25-17.1v-40.8h-12.6v-1.5c14.1-2.1,20.25-8.4,22.5-24h2.25v21h20v4.5h-20v37.5c0,7.35,1.35,12.3,9.9,12.3,4.95,0,7.8-2.1,9.9-6.9Z"/><path d="M1062.72,406.69v1.5h-36.6v-1.5l12.45-3v-48.9h-12.45v-1.35l24.6-6.75v57Zm-26.25-76.94a8.33,8.33,0,1,1,8.25,8.25A8.19,8.19,0,0,1,1036.47,329.75Z"/><path d="M1120.46,389.29c-1.8,12.75-9.29,21.3-23.69,21.3-19.5,0-28-14.7-28-30.75,0-18.45,9.15-34,31.65-34a65.83,65.83,0,0,1,18,2.7l2.09,22.95-2.25.3c-3.59-11.7-8.84-21.45-20.24-21.45-14.55,0-19.35,10.35-19.35,23.4,0,12.75,6.3,26.4,23.25,26.4,8.25,0,13.94-3.6,16.19-10.8Z"/><path d="M302.11,557.09c22.1,6,26.78,16.12,26.78,31.2,0,21.06-14.3,33-39.78,33-13.78,0-28.6-6.5-33.8-18.2v18.2h-5.2V577.37h5.2v12c3.38,15.6,16.38,22.62,34.58,22.62,16.64,0,23.92-8.58,23.92-18.2,0-10.92-5.72-13.52-15.86-16.12l-21.58-5.72c-14-3.64-24.44-12.22-24.44-28.86,0-21.57,16.38-34,37.44-34,14.56,0,26,5.2,30.68,14.81V510.3h5.2v43.93h-5.2V537.85c-4.94-16.37-14.82-20.79-30.94-20.79-13,0-21.06,6.75-21.06,17.94,0,10.13,5.2,14.29,14.82,16.89Z"/><path d="M344.49,565.41c0-33.28,19.49-56.15,55.89-56.15,34.58,0,52.52,24.7,52.52,56.15,0,33.28-19.5,56.16-54.6,56.16C362.42,621.57,344.49,596.87,344.49,565.41Zm87.35,3.64c0-26.26-11.18-51.73-34.84-51.73-23.13,0-31.46,20-31.46,44.45,0,26.52,11.18,51.74,34.84,51.74C423.52,613.51,431.84,595.31,431.84,569.05Z"/><path d="M531.94,614.55v2.6H468.5v-2.6l21.58-5.2V524.59H468.5v-2.34l42.64-11.69v98.79Zm-45.5-133.37a14.2,14.2,0,0,1,14.3-14c7.8,0,14.56,6,14.56,14a14.43,14.43,0,0,1-28.86,0Z"/><path d="M652.32,508.74v14.82H626.84c6.76,7.27,10.4,17.15,10.4,28.07,0,25.74-15.34,43.42-42.9,45v17.94h7.54c26,0,43.42,10.92,43.42,33.28,0,26.26-26.26,38.48-55.38,38.48-31.2,0-54.08-12.22-54.08-38.48,0-22.36,19.5-33.28,43.42-33.28h5.46V596.61c-28.08-1.56-44.72-16.9-44.72-43.94,0-25,16.64-43.41,48.36-43.41,13.26,0,23.92,3.12,32,8.57l30.16-9.09ZM592.26,622.87h-5.2c-19,0-30.42,7.8-30.42,26.78,0,17.94,16.38,28.86,34.06,28.86,19.76,0,32.76-11.7,32.76-28.86C623.46,630.67,610.46,622.87,592.26,622.87Zm22.1-64.22c0-25.22-9.62-41.33-28.08-41.33-15.34,0-23.66,11.43-23.66,29.63,0,27.56,9.88,41.08,27.82,41.08C606.82,588,614.36,576.07,614.36,558.65Z"/><path d="M789.6,614.55v2.6H731.88v-2.6l18.46-5.2V554.23c0-17.16-6-28.33-23.92-28.33-17.68,0-26.26,12.48-26.26,34.83v48.62l18.2,5.2v2.6H660.64v-2.6l18.46-5.2V524.59H660.64v-2.34l38.22-11.69v26.77c7.54-18.71,21.58-28.33,38-28.33,23.14,0,34.58,15.33,34.58,38.47v61.88Z"/><path d="M891.78,560.47H817.94c1.82,26.26,15.34,42.12,38,42.12,16.9,0,26-4.68,31.72-18.2h4.16c-2.6,17.16-13.78,36.92-42.9,36.92-33,0-48.36-25.48-48.36-55.9,0-31.45,17.42-56.41,49.14-56.41C882.16,509,894.9,535,891.78,560.47ZM872,552.67c0-19.5-7.54-35.88-26.78-35.88-16.9,0-27,12.48-27.56,35.88Z"/><path d="M1029.31,614.55v2.6H988.24V596.09c-3.9,12.22-14.3,25.22-33.54,25.22-25.22,0-33.8-15.34-33.8-40V521.21l-14.56-5.46v-2.59H958.6v2.59L942,521.21v54.34c0,20.28,5.2,29.12,21.58,29.12,15.6,0,24.7-10.92,24.7-31.2V521.21l-16.9-5.46v-2.59h56.42v2.59L1009.29,521v88.39Z"/><path d="M1123.69,509v37.43h-3.9c-3.64-11.7-8.58-16.38-17.42-16.38-15.86,0-21.06,17.68-21.06,36.4v42.9l28.6,5.2v2.6h-68.12v-2.6l18.46-5.2V524.59h-18.46v-2.34L1080,509v33.53c1.3-3.38,3.12-6.5,4.68-9.61C1093,518.36,1106,509,1123.69,509Z"/><path class="cls-1" d="M86.13,722.85V728h-1v-1.81a3,3,0,0,1-3.06,2c-2.61,0-4.36-2.07-4.36-5.12s1.74-5.13,4.33-5.13a3.68,3.68,0,0,1,3.9,2.84H84.67A2.54,2.54,0,0,0,82,718.94c-1.86,0-3.16,1.56-3.16,4.1s1.27,4.08,3.2,4.08,3-1.26,3-3.23H81.77v-1Z"/><path class="cls-1" d="M89.71,728H88.56v-9.91h1.15Z"/><path class="cls-1" d="M95.74,723.65h-2V728H92.57v-9.91h3.81c2.12,0,3.09,1,3.09,2.73A2.52,2.52,0,0,1,97,723.52l3,4.47h-1.3Zm-2-1h2.51c1.36,0,2.07-.66,2.07-1.81s-.74-1.69-2.09-1.69H93.73Z"/><path class="cls-1" d="M107.13,725.26H103l-1,2.73h-1.23l3.67-9.91h1.24l3.54,9.91h-1.23Zm-.35-1-1.66-4.87-1.72,4.87Z"/><path class="cls-1" d="M118.7,718.08V728H117l-4.77-8.92V728h-1.09v-9.91h1.75l4.78,8.91v-8.91Z"/><path class="cls-1" d="M129.06,723c0,3.05-1.88,5-4.52,5h-3v-9.91h3C127.18,718.08,129.06,720,129.06,723Zm-1.17,0c0-2.48-1.3-3.92-3.52-3.92h-1.66V727h1.66C126.57,727,127.89,725.51,127.89,723Z"/><path class="cls-1" d="M132.63,719.13v3.27h4.69v1h-4.69v3.51h5.26v1h-6.41v-9.91h6.41v1Z"/><path class="cls-1" d="M147.82,718.08V728h-1.75l-4.77-8.92V728h-1.09v-9.91H142l4.78,8.91v-8.91Z"/><path class="cls-1" d="M158.56,722.85V728h-1v-1.81a3.05,3.05,0,0,1-3.06,2c-2.61,0-4.36-2.07-4.36-5.12s1.73-5.13,4.33-5.13a3.68,3.68,0,0,1,3.9,2.84H157.1a2.55,2.55,0,0,0-2.68-1.81c-1.86,0-3.16,1.56-3.16,4.1s1.27,4.08,3.2,4.08,3-1.26,3-3.23H154.2v-1Z"/><path class="cls-1" d="M160.4,723c0-3.06,1.76-5.13,4.32-5.13S169,720,169,723s-1.77,5.12-4.32,5.12S160.4,726.09,160.4,723Zm7.48,0c0-2.54-1.25-4.1-3.16-4.1s-3.16,1.56-3.16,4.1,1.24,4.08,3.16,4.08S167.88,725.56,167.88,723Z"/><path class="cls-1" d="M182.48,723c0,3.05-1.87,5-4.51,5h-3v-9.91h3C180.61,718.08,182.48,720,182.48,723Zm-1.16,0c0-2.48-1.3-3.92-3.53-3.92h-1.65V727h1.65C180,727,181.32,725.51,181.32,723Z"/><path class="cls-1" d="M186.06,728h-1.15v-9.91h1.15Z"/><path class="cls-1" d="M188.19,725h1.22a2.33,2.33,0,0,0,2.65,2.08c1.59,0,2.32-.74,2.32-1.7s-.54-1.39-1.62-1.65l-2.16-.51a2.45,2.45,0,0,1-2.11-2.51c0-1.6,1.27-2.84,3.32-2.84s3.44.91,3.64,2.94h-1.22a2.14,2.14,0,0,0-2.44-1.91c-1.34,0-2.08.73-2.08,1.66,0,.72.34,1.21,1.41,1.48l2.09.51a2.67,2.67,0,0,1,2.39,2.65c0,1.74-1.27,2.92-3.54,2.92C189.63,728.16,188.38,727,188.19,725Z"/><path class="cls-1" d="M204.7,720.84c0,1.63-1.06,2.81-3.17,2.81H199V728h-1.17v-9.91h3.83C203.74,718.08,204.7,719.13,204.7,720.84Zm-1.16,0c0-1.11-.65-1.72-2.11-1.72H199v3.5h2.47C202.89,722.62,203.54,721.9,203.54,720.84Z"/><path class="cls-1" d="M212.34,726.94v1h-5.63v-9.91h1.18v8.86Z"/><path class="cls-1" d="M219.33,725.26h-4.08l-1,2.73H213l3.67-9.91H218l3.54,9.91h-1.23Zm-.35-1-1.66-4.87-1.72,4.87Z"/><path class="cls-1" d="M230,718.08,226.62,724v4h-1.16v-4l-3.28-5.88h1.26l2.62,4.74,2.63-4.74Z"/><path class="cls-1" d="M1160.56,718.08l-3.78,9.91h-1l-3.68-9.91h1.23l3,8.37,3-8.37Z"/><path class="cls-1" d="M1163.43,719.13v3.27h4.69v1h-4.69v3.51h5.27v1h-6.42v-9.91h6.42v1Z"/><path class="cls-1" d="M1174.18,723.65h-2V728H1171v-9.91h3.81c2.12,0,3.09,1,3.09,2.73a2.51,2.51,0,0,1-2.48,2.71l3,4.47h-1.3Zm-2-1h2.52c1.35,0,2.06-.66,2.06-1.81s-.74-1.69-2.09-1.69h-2.49Z"/><path class="cls-1" d="M1179.7,725h1.21a2.33,2.33,0,0,0,2.65,2.08c1.59,0,2.33-.74,2.33-1.7s-.55-1.39-1.63-1.65l-2.16-.51a2.44,2.44,0,0,1-2.1-2.51c0-1.6,1.27-2.84,3.32-2.84s3.43.91,3.64,2.94h-1.22a2.15,2.15,0,0,0-2.45-1.91c-1.34,0-2.08.73-2.08,1.66,0,.72.34,1.21,1.41,1.48l2.09.51a2.67,2.67,0,0,1,2.4,2.65c0,1.74-1.28,2.92-3.55,2.92C1181.13,728.16,1179.89,727,1179.7,725Z"/><path class="cls-1" d="M1190.45,728h-1.15v-9.91h1.15Z"/><path class="cls-1" d="M1192.72,723c0-3.06,1.76-5.13,4.32-5.13s4.32,2.07,4.32,5.13-1.77,5.12-4.32,5.12S1192.72,726.09,1192.72,723Zm7.48,0c0-2.54-1.25-4.1-3.16-4.1s-3.16,1.56-3.16,4.1,1.24,4.08,3.16,4.08S1200.2,725.56,1200.2,723Z"/><path class="cls-1" d="M1211.25,718.08V728h-1.75l-4.77-8.92V728h-1.1v-9.91h1.75l4.79,8.91v-8.91Z"/><path class="cls-1" d="M1213.38,725h1.22a2.33,2.33,0,0,0,2.65,2.08c1.59,0,2.33-.74,2.33-1.7s-.55-1.39-1.63-1.65l-2.16-.51a2.44,2.44,0,0,1-2.1-2.51c0-1.6,1.27-2.84,3.32-2.84s3.43.91,3.63,2.94h-1.21a2.15,2.15,0,0,0-2.45-1.91c-1.34,0-2.08.73-2.08,1.66,0,.72.34,1.21,1.41,1.48l2.09.51a2.66,2.66,0,0,1,2.39,2.65c0,1.74-1.27,2.92-3.54,2.92C1214.82,728.16,1213.58,727,1213.38,725Z"/><path class="cls-1" d="M1229.84,723.65h-2V728h-1.16v-9.91h3.81c2.12,0,3.09,1,3.09,2.73a2.52,2.52,0,0,1-2.49,2.71l3,4.47h-1.3Zm-2-1h2.51c1.36,0,2.07-.66,2.07-1.81s-.74-1.69-2.09-1.69h-2.49Z"/><path class="cls-1" d="M1237.23,719.13v3.27h4.69v1h-4.69v3.51h5.26v1h-6.41v-9.91h6.41v1Z"/><path class="cls-1" d="M1252.68,722.85V728h-1v-1.81a3.05,3.05,0,0,1-3.06,2c-2.61,0-4.36-2.07-4.36-5.12s1.73-5.13,4.33-5.13a3.68,3.68,0,0,1,3.9,2.84h-1.23a2.55,2.55,0,0,0-2.68-1.81c-1.86,0-3.16,1.56-3.16,4.1s1.27,4.08,3.2,4.08,3-1.26,3-3.23h-3.24v-1Z"/><path class="cls-1" d="M1262.66,724.13c0,2.69-1.49,4-3.82,4s-3.85-1.36-3.85-4v-6h1.15v6c0,1.94,1.08,3,2.71,3a2.56,2.56,0,0,0,2.67-2.89v-6.11h1.14Z"/><path class="cls-1" d="M1271.05,726.94v1h-5.63v-9.91h1.17v8.86Z"/><path class="cls-1" d="M1278,725.26H1274l-1,2.73h-1.23l3.67-9.91h1.24l3.54,9.91H1279Zm-.36-1-1.65-4.87-1.72,4.87Z"/><path class="cls-1" d="M1285.17,723.65h-2V728H1282v-9.91h3.81c2.12,0,3.09,1,3.09,2.73a2.52,2.52,0,0,1-2.49,2.71l3,4.47h-1.3Zm-2-1h2.51c1.36,0,2.07-.66,2.07-1.81s-.74-1.69-2.09-1.69h-2.49Z"/><path class="cls-1" d="M89,140.33a5.62,5.62,0,1,1-5.64-5.63A5.62,5.62,0,0,1,89,140.33Zm-10.09,0a4.47,4.47,0,1,0,4.45-4.48A4.45,4.45,0,0,0,78.87,140.33Z"/><path class="cls-1" d="M95.66,144.62h6v1.13H94.3v-.47a4.13,4.13,0,0,1,2.38-3.81l2.16-1.26a2.46,2.46,0,0,0,1.49-2.26,2,2,0,0,0-2.16-2.13c-1.54,0-2.35,1-2.45,2.53H94.41a3.52,3.52,0,0,1,3.76-3.67,3.2,3.2,0,0,1,3.52,3.27c0,1.18-.37,2.18-2.11,3.22l-2.48,1.47A2.66,2.66,0,0,0,95.66,144.62Z"/><path class="cls-1" d="M111,142.27a3.54,3.54,0,0,1-3.78,3.67c-2.26,0-3.84-1.35-3.84-3.33h1.36a2.26,2.26,0,0,0,2.5,2.19,2.37,2.37,0,0,0,2.41-2.56,2.28,2.28,0,0,0-2.43-2.48,2.18,2.18,0,0,0-2,1.07h-1.57l.42-6h6.4V136h-5.3l-.24,3.66a3.21,3.21,0,0,1,2.55-1.09A3.45,3.45,0,0,1,111,142.27Z"/><path class="cls-1" d="M112.5,140.33c0-3.28,1.6-5.65,4.34-5.65s4.34,2.37,4.34,5.65-1.6,5.61-4.34,5.61S112.5,143.62,112.5,140.33Zm7.35,0c0-2.72-1.06-4.46-3-4.46s-3,1.74-3,4.46,1.06,4.42,3,4.42S119.85,143.06,119.85,140.33Z"/><path class="cls-1" d="M135.47,137.9c0,1.79-1.24,3.09-3.72,3.09h-3v4.76h-1.36V134.88h4.49C134.35,134.88,135.47,136,135.47,137.9Zm-1.36,0c0-1.21-.76-1.89-2.47-1.89h-2.9v3.84h2.9C133.35,139.85,134.11,139.07,134.11,137.9Z"/><path class="cls-1" d="M144.86,136h-3.6v9.75h-1.35V136H136.3v-1.12h8.56Z"/><path class="cls-1" d="M89,351.33a5.62,5.62,0,1,1-5.64-5.63A5.62,5.62,0,0,1,89,351.33Zm-10.09,0a4.47,4.47,0,1,0,4.45-4.48A4.45,4.45,0,0,0,78.87,351.33Z"/><path class="cls-1" d="M97.82,345.88v10.87H96.44v-8.57a3.43,3.43,0,0,1-2.48.69v-1.12c1.86-.06,2.42-.75,2.69-1.87Z"/><path class="cls-1" d="M107.71,353.27a3.54,3.54,0,0,1-3.78,3.67c-2.26,0-3.84-1.35-3.84-3.33h1.36a2.26,2.26,0,0,0,2.5,2.19,2.37,2.37,0,0,0,2.41-2.56,2.28,2.28,0,0,0-2.43-2.48,2.18,2.18,0,0,0-2,1.07h-1.57l.42-5.95h6.4V347h-5.3l-.24,3.66a3.21,3.21,0,0,1,2.55-1.09A3.45,3.45,0,0,1,107.71,353.27Z"/><path class="cls-1" d="M109.22,351.33c0-3.28,1.6-5.65,4.34-5.65s4.34,2.37,4.34,5.65-1.6,5.61-4.34,5.61S109.22,354.62,109.22,351.33Zm7.35,0c0-2.72-1.06-4.46-3-4.46s-3,1.74-3,4.46,1.06,4.42,3,4.42S116.57,354.06,116.57,351.33Z"/><path class="cls-1" d="M132.19,348.9c0,1.79-1.24,3.09-3.72,3.09h-3v4.76H124.1V345.88h4.48C131.07,345.88,132.19,347,132.19,348.9Zm-1.36,0c0-1.21-.76-1.89-2.47-1.89h-2.9v3.84h2.9C130.07,350.85,130.83,350.07,130.83,348.9Z"/><path class="cls-1" d="M141.58,347H138v9.75h-1.35V347H133v-1.12h8.56Z"/><path class="cls-1" d="M89,518.33a5.62,5.62,0,1,1-5.64-5.63A5.62,5.62,0,0,1,89,518.33Zm-10.09,0a4.47,4.47,0,1,0,4.45-4.48A4.45,4.45,0,0,0,78.87,518.33Z"/><path class="cls-1" d="M95.66,522.62h6v1.13H94.3v-.47a4.13,4.13,0,0,1,2.38-3.81l2.16-1.26a2.46,2.46,0,0,0,1.49-2.26,2,2,0,0,0-2.16-2.13c-1.54,0-2.35,1-2.45,2.53H94.41a3.52,3.52,0,0,1,3.76-3.67,3.2,3.2,0,0,1,3.52,3.27c0,1.18-.37,2.18-2.11,3.22l-2.48,1.47A2.66,2.66,0,0,0,95.66,522.62Z"/><path class="cls-1" d="M111.18,520.21a3.55,3.55,0,0,1-3.76,3.73c-3.12,0-4-2.77-4-5.72,0-3.87,2-5.54,4.18-5.54a3.08,3.08,0,0,1,3.42,2.79h-1.36a1.88,1.88,0,0,0-2.06-1.63c-1.83,0-2.85,1.71-2.85,4.06v.23a3,3,0,0,1,2.81-1.52A3.43,3.43,0,0,1,111.18,520.21Zm-1.33,0a2.29,2.29,0,0,0-2.38-2.45,2.4,2.4,0,0,0-2.5,2.45,2.48,2.48,0,0,0,2.5,2.58A2.39,2.39,0,0,0,109.85,520.21Z"/><path class="cls-1" d="M112.81,518.33c0-3.28,1.6-5.65,4.34-5.65s4.33,2.37,4.33,5.65-1.6,5.61-4.33,5.61S112.81,521.62,112.81,518.33Zm7.35,0c0-2.72-1.06-4.46-3-4.46s-3,1.74-3,4.46,1,4.42,3,4.42S120.16,521.06,120.16,518.33Z"/><path class="cls-1" d="M135.77,515.9c0,1.79-1.23,3.09-3.71,3.09h-3v4.76h-1.36V512.88h4.48C134.65,512.88,135.77,514,135.77,515.9Zm-1.36,0c0-1.21-.75-1.89-2.46-1.89h-2.9v3.84H132C133.66,517.85,134.41,517.07,134.41,515.9Z"/><path class="cls-1" d="M145.16,514h-3.6v9.75h-1.34V514H136.6v-1.12h8.56Z"/></g></svg>