<?xml version='1.0' encoding='UTF-8'?>
<svg xmlns="http://www.w3.org/2000/svg" xmlns:xlink="http://www.w3.org/1999/xlink" width="1366px" height="768px" viewBox="0 0 1366 768" x="0px" y="0px" enable-background="new 0 0 1366 768"><defs><symbol overflow="visible" id="4c322b89a"><path d="M2.4-9.9H1.28V0H2.4zm0 0"/></symbol><symbol overflow="visible" id="4c322b89b"><path d="M7.6-9.9H.3v1.03h3.1V0h1.15v-8.88H7.6zm0 0"/></symbol><symbol overflow="visible" id="4c322b89c"><path d="M7.34 0h1.24L5.03-9.9H3.78L.13 0h1.23l.97-2.72H6.4zM2.7-3.77L4.4-8.63l1.65 4.86zm0 0"/></symbol><symbol overflow="visible" id="4c322b89d"><path d="M2.44-1.05V-9.9H1.27V0h5.62v-1.05zm0 0"/></symbol><symbol overflow="visible" id="4c322b89e"><path d="M7.8-9.9v8.92L3.02-9.91H1.27V0h1.09v-8.9L7.13 0h1.75v-9.9zm0 0"/></symbol><symbol overflow="visible" id="4c322b89g"><path d="M6.36-5.14a2.23 2.23 0 001.67-2.14c0-1.64-.97-2.63-3.1-2.63H1.28V0h3.87C7.5 0 8.45-1.08 8.45-2.81c0-1.27-.82-2.14-2.1-2.33zM4.64-8.86c1.34 0 2.22.4 2.22 1.58 0 1.08-.75 1.72-2.03 1.72H2.4v-3.3zm.27 7.83H2.4v-3.5h2.51c1.42 0 2.38.4 2.38 1.72 0 1.39-.96 1.78-2.4 1.78zm0 0"/></symbol><symbol overflow="visible" id="4c322b89h"><path d="M4.98.17c2.57 0 4.33-2.06 4.33-5.1 0-3.07-1.76-5.15-4.33-5.15-2.54 0-4.3 2.08-4.3 5.14C.67-1.89 2.43.17 4.97.17zm0-1.03c-1.9 0-3.15-1.56-3.15-4.08 0-2.54 1.25-4.1 3.15-4.1 1.93 0 3.18 1.56 3.18 4.1 0 2.52-1.25 4.08-3.18 4.08zm0 0"/></symbol><symbol overflow="visible" id="4c322b89i"><path d="M4.23-9.9H1.27V0h2.96c2.64 0 4.52-1.9 4.52-4.94C8.75-8 6.87-9.9 4.23-9.9zm-.17 8.87H2.41v-7.83h1.65c2.24 0 3.53 1.44 3.53 3.92 0 2.46-1.32 3.9-3.53 3.9zm0 0"/></symbol><symbol overflow="visible" id="4c322b89j"><path d="M11.83-4.3H.28v1.05h11.55zm0 0"/></symbol><symbol overflow="visible" id="4c322b89k"><path d="M2.63-9.9c-.24 1.03-.7 1.65-2.3 1.71v1.02c1.01 0 1.64-.16 2.12-.63V0h1.17v-9.9zm0 0"/></symbol><symbol overflow="visible" id="4c322b89l"><path d="M5.67-5.14c.9-.4 1.31-1.22 1.31-2.25 0-1.58-1.28-2.69-3-2.69A3.03 3.03 0 00.83-7.23h1.12c.14-1.24.97-1.8 2.02-1.8 1.1 0 1.86.67 1.86 1.7 0 .96-.56 1.74-2.16 1.74h-.76v1.07h.76c1.74 0 2.4.66 2.4 1.75 0 1.07-.76 1.91-2.13 1.91-1.4 0-2.16-.75-2.24-2H.6C.6-1.08 1.71.17 3.91.17c2.16 0 3.33-1.37 3.33-2.94 0-1.21-.6-2.04-1.58-2.37zm0 0"/></symbol><symbol overflow="visible" id="4c322b89m"><path d="M4.42.17c2.33 0 3.7-2.1 3.7-5.1 0-3-1.37-5.15-3.7-5.15-2.34 0-3.7 2.16-3.7 5.16 0 2.98 1.36 5.1 3.7 5.1zm0-1.08c-1.67 0-2.58-1.54-2.58-4.01C1.84-7.41 2.75-9 4.42-9c1.66 0 2.56 1.6 2.56 4.08 0 2.47-.9 4.01-2.56 4.01zm0 0"/></symbol><symbol overflow="visible" id="4c322b89n"><path d="M5.1-9.9H1.26V0h1.15v-4.33h2.56c2.13 0 3.18-1.19 3.18-2.81 0-1.7-.96-2.77-3.07-2.77zm-.2 4.54H2.41v-3.5H4.9C6.36-8.86 7-8.25 7-7.14c0 1.06-.64 1.78-2.1 1.78zm0 0"/></symbol><symbol overflow="visible" id="4c322b89o"><path d="M4.4.17C6.68.17 7.95-1 7.95-2.73c0-1.43-.88-2.3-2.4-2.66l-2.09-.52c-1.06-.26-1.4-.75-1.4-1.46 0-.94.75-1.66 2.08-1.66 1.37 0 2.28.6 2.45 1.9H7.8c-.2-2.03-1.63-2.95-3.64-2.95C2.1-10.08.83-8.83.83-7.23c0 1.3.75 2.18 2.1 2.51l2.16.5c1.1.27 1.64.78 1.64 1.66 0 .95-.75 1.7-2.32 1.7-1.5 0-2.49-.69-2.66-2.08H.53C.72-.95 1.97.17 4.41.17zm0 0"/></symbol><symbol overflow="visible" id="4c322b89O"><path d="M7.4-9.9L4.38-1.54 1.4-9.91H.17L3.84 0h1.04l3.76-9.9zm0 0"/></symbol><symbol overflow="visible" id="4c322b89P"><path d="M7.67-8.84v-1.07h-6.4V0h6.4v-1.05H2.41v-3.5h4.68v-1.03H2.41v-3.26zm0 0"/></symbol><symbol overflow="visible" id="4c322b89Q"><path d="M7.38 0h1.3l-3-4.45c1.71-.22 2.48-1.24 2.48-2.72 0-1.67-.97-2.74-3.08-2.74H1.27V0h1.15v-4.33h2.02zM2.42-8.86h2.49C6.27-8.86 7-8.3 7-7.17c0 1.15-.7 1.81-2.06 1.81H2.42zm0 0"/></symbol><symbol overflow="visible" id="4c322b89R"><path d="M4.77-5.13v1.04h3.25C8-2.13 6.88-.86 5.03-.86c-1.92 0-3.2-1.5-3.2-4.08 0-2.54 1.3-4.1 3.15-4.1 1.46 0 2.27.65 2.7 1.8H8.9C8.36-9.2 6.94-10.07 5-10.07 2.4-10.08.67-7.97.67-4.94.67-1.89 2.42.17 5.03.17c1.61 0 2.58-.8 3.06-1.98V0h1.04l.01-5.13zm0 0"/></symbol><symbol overflow="visible" id="4c322b89S"><path d="M8.81-9.9H7.67v6.1C7.67-1.86 6.55-.9 5-.9c-1.63 0-2.7-1-2.7-2.94v-6.07H1.16v6.07C1.16-1.2 2.66.17 4.98.17c2.35 0 3.83-1.34 3.83-4.01zm0 0"/></symbol><symbol overflow="visible" id="4c322b89T"><path d="M2.3-.58c0-.6-.36-.9-.78-.9a.8.8 0 00-.8.82c0 .33.19.6.44.75l.18.1c-.12.53-.28.92-.62 1.72h.72c.6-1.2.86-1.99.86-2.49zm0 0"/></symbol><symbol overflow="visible" id="4c322b89U"><path d="M11.6-9.9L9.37-1.78 6.98-9.9H5.9L3.67-1.78 1.34-9.91H.17L3.11 0h1.14l2.17-8.23L8.8 0h1.12l2.81-9.9zm0 0"/></symbol><symbol overflow="visible" id="4c322b89V"><path d="M8.27 0L4.9-5.22 8-9.9H6.68L4.2-5.97 1.7-9.9H.34l3.1 4.77L.08 0h1.34l2.7-4.33L6.95 0zm0 0"/></symbol><symbol overflow="visible" id="4c322b89p"><path d="M58.56-38.56C69.6-45.76 75.05-57.76 75.05-72c0-23.36-12.64-40.48-43.36-40.48H3.2v.64c5.6 5.76 9.28 9.6 9.28 15.53v80.15c0 5.93-3.68 9.75-9.28 15.52V0h33.28v-.64c-5.6-5.77-9.28-9.6-9.28-15.52V-31.2h3.03c5.93 0 11.2-.64 16-1.93l8.97 12.49C71.36 1.92 108.8 5.44 133.92 0v-.95c-22.56 3.83-47.2 3.18-64-21.13zm49.13-55.36c0-4.31 0-12.16 2.54-17.92v-.64H92v.64c2.56 5.76 2.56 13.6 2.56 17.92v35.36c0 17.92 10.56 28.48 32.96 28.48s31.84-10.87 31.84-29.44v-34.4c0-10.72 1.44-13.92 5.12-18.08v-.48h-11.84v.48c4.16 3.69 5.44 7.36 5.44 18.08v34.4c0 16-8.64 26.88-26.24 26.88-18.25 0-24.15-9.6-24.15-27.2zM31.84-111.2c21.29 0 27.52 20.48 27.52 39.68s-6.23 39.04-28.48 39.04H27.2v-78.72zm0 0"/></symbol><symbol overflow="visible" id="4c322b89q"><path d="M87.69-85.44c-12.81 0-24.81 7.52-24.81 23.67 0 5.77 2.24 12.65 5.28 17.93l7.2 12.32c3.36 5.75 5.77 10.08 5.77 16.96 0 8-5.61 15.2-14.9 15.2-6.71 0-12.46-4-16.3-10.56a26.16 26.16 0 004.15-14.4c0-10.55-4.16-17.6-8.95-26.88l-6.9-13.44c-4.15-8-10.07-18.23-10.07-28.64 0-12.31 7.53-19.84 20.32-19.84 12.96 0 17.6 9.12 24.47 20.8h.97v-19.52a120.34 120.34 0 00-24.33-2.57c-20.15 0-33.28 12.49-33.28 29.61 0 9.92 3.2 18.72 7.38 26.4l10.54 19.35c3.54 6.57 6.08 11.7 6.08 20.97C40.31-8.16 35.36.64 25.77.64c-8.82 0-15.36-9.6-22.41-21.6l-.95.16v17.6C8-.16 17.77 1.92 25.12 1.92c10.88 0 19.04-4.15 24-10.72 3.68 6.24 9.6 10.72 19.04 10.72 14.07 0 24.48-8.97 24.48-22.72 0-6.25-2.23-12-4.95-17.12L80-52.64c-3.36-6.4-5.13-11.05-5.13-17.92 0-7.36 3.2-13.44 11.2-13.44 7.06 0 9.77 4.48 16.8 18.4h1.29V-84c-4-.8-11.03-1.44-16.47-1.44zm0 0"/></symbol><symbol overflow="visible" id="4c322b89r"><path d="M27.2-96.31c0-5.92 3.36-9.77 8.64-15.53v-.64H3.2v.64c5.6 5.76 9.28 9.6 9.28 15.53v80.15c0 5.93-3.68 9.75-9.28 15.52V0h32.64v-.64c-5.28-5.77-8.64-9.6-8.64-15.52zm0 0"/></symbol><symbol overflow="visible" id="4c322b89s"><path d="M41.77-35.36l5.1 21.6a56.63 56.63 0 011.44 12.8V0h16.33v-.64a81.84 81.84 0 01-4.33-13.28l-24.47-99.03h-1.12c0 7.03-2.88 15.03-6.56 20.64L11.2-25.44C7.36-10.4 4.48-5.28 1.6-.64V0h13.92v-.64c-4.96-6.4-5.93-12.95-3.04-24.48l2.57-10.24zm-.33-1.28H15.36L28.8-89.77zm0 0"/></symbol><symbol overflow="visible" id="4c322b89u"><path d="M88.48-114.4c-21.12 0-41.43 13.6-41.43 41.92 0 28 20.64 41.12 42.08 41.12 21.28 0 41.59-13.12 41.59-41.12 0-28.32-20.8-41.93-42.24-41.93zm1.29 81.45c-20 0-28.33-20.64-28.33-41.77 0-20.16 6.25-38.4 27.04-38.4 19.36 0 27.83 19.35 27.83 41.28 0 19.04-5.75 38.89-26.54 38.89zm-7.85 15.51C72.8-7.84 66.41-1.28 55.52-1.28H27.2v-95.03c0-5.92 3.36-9.77 8.64-15.53v-.64H3.2v.64c5.6 5.76 9.28 9.6 9.28 15.53v80.15c0 5.93-3.68 9.75-9.28 15.52V0h75.36l4.31-17.44zm0 0"/></symbol><symbol overflow="visible" id="4c322b89v"><path d="M58.08-18.4L25.92-97.78c-2.4-5.92-2.08-9.75 3.52-14.07v-.64H0v.64c4.64 3.04 7.84 9.43 9.92 14.4L50.23 1.92h.97l40.32-97.44c3.68-8.8 5.43-12.64 12.17-16.32v-.64H83.36v.64c5.6 2.72 8.48 5.12 8.48 9.12 0 2.72-1.6 6.72-4.15 12.95zm0 0"/></symbol><symbol overflow="visible" id="4c322b89w"><path d="M172.95-17.44c-9.1 9.6-15.67 16.16-26.39 16.16H27.2V-53.6h122.88c3.36 0 6.56 0 15.04 9.28h.96v-20h-.96c-8.48 9.44-11.68 9.44-15.04 9.44H27.2v-56.33h115.03c4.33 0 15.2 8 23.85 14.56h.97l-3.53-15.84H3.2v.64c5.6 5.76 9.28 9.6 9.28 15.53v80.15c0 5.93-3.68 9.75-9.28 15.52V0h166.4l4.32-17.44zm0 0"/></symbol><symbol overflow="visible" id="4c322b89x"><path d="M161.44-52.48c21.76-1.93 34.4-12.16 34.4-30.24 0-19.69-12.97-29.76-39.68-29.76H3.2v.64c5.6 5.76 9.28 9.6 9.28 15.53v80.15c0 5.93-3.68 9.75-9.28 15.52V0h150.88c26.87 0 36.64-9.77 36.64-26.88 0-18.89-12.49-24.64-29.28-25.6zm-5.6-58.72c18.4 0 24.32 12.97 24.32 28.48 0 15.2-6.08 29.13-21.28 29.13H27.2v-57.61zM27.2-52.31h128.64c15.52 0 19.2 13.9 19.2 25.75 0 11.84-3.68 25.28-19.2 25.28H27.2zm0 0"/></symbol><symbol overflow="visible" id="4c322b89y"><path d="M66.08 1.6c36.8 0 58.23-27.68 58.23-57.76 0-33.92-24.95-58.25-61.6-58.25-36.94 0-57.43 27.85-57.43 57.77 0 32.48 23.2 58.23 60.8 58.23zM20.95-58.73c0-26.08 10.1-54.4 41.61-54.4 30.4 0 46.08 27.68 46.08 59.04C108.64-28 99.2.32 66.08.32c-32 0-45.13-29.45-45.13-59.04zm0 0"/></symbol><symbol overflow="visible" id="4c322b89z"><path d="M82.56-112.95h-.64c-.97 4.3-3.05 8.3-5.6 13.26L50.07-48.3c-4 8-6.88 12.31-10.24 14.87v.64H53.6v-.64c-4-3.51-5.59-7.36-3.51-11.69l1.92-4h50.08l.8 1.61C106.72-40 108-36.64 108-33.44v.64h16.48v-.64a115.81 115.81 0 01-8-13.28zm-.64 95.51C72.8-7.84 66.41-1.28 55.52-1.28H27.2v-95.03c0-5.92 3.36-9.77 8.64-15.53v-.64H3.2v.64c5.6 5.76 9.28 9.6 9.28 15.53v80.15c0 5.93-3.68 9.75-9.28 15.52V0h75.36l4.31-17.44zM52.64-50.4l24.31-47.51 24.49 47.51zm0 0"/></symbol><symbol overflow="visible" id="4c322b89A"><path d="M99.84-127.69c-7.2 0-10.56 7.69-10.56 7.69h.64s2.72-3.36 8.8-3.36c6.4 0 12.97 5.44 20.33 5.44 8.8 0 10.72-7.67 10.72-7.67h-.65s-2.4 3.36-8.48 3.36c-6.56 0-13.6-5.46-20.8-5.46zm87.2 34.25c0-11.69 1.6-16.64 10.73-18.4v-.64h-22.9v.64c8.82 1.6 10.41 6.72 10.41 18.4v76.49L31.52-112.48H1.59v.64c3.85.8 8.49 2.25 10.57 4.64v88.15c0 11.7-1.6 16.82-10.4 18.4V0h22.88v-.64c-9.12-1.77-10.72-6.72-10.72-18.4v-86.4L185.6 1.92l1.46-.33zm0 0"/></symbol><symbol overflow="visible" id="4c322b89B"><path d="M60.64-114.88c-33.92 0-55.36 24.65-55.36 59.2C5.28-23.53 23.68 2.4 55.2 2.4c9.44 0 20.8-1.93 27.2-4.18v-53.28H60.32v.64c5.92 3.7 7.38 7.7 7.38 20.33v25.92c0 6.57-4.33 9.29-12.81 9.29-20.65 0-33.93-29.13-33.93-57.44 0-28.97 12.82-57.28 35.36-57.28 13.13 0 20.97 11.67 28.49 23.03h.97v-21.28a103.94 103.94 0 00-25.13-3.03zm0 0"/></symbol><symbol overflow="visible" id="4c322b89C"><path d="M81.28-14.72C84-7.84 82.56-4.32 77.77-.64V0h29.43v-.64c-3.84-2.4-7.2-7.67-10.25-15.2l-39.18-96.64H35.05v.96c5.43 2.4 9.1 5.93 11.51 11.36l.64 1.44-34.4 84.16C10.72-9.6 7.2-3.2 1.6-.64V0h20v-.64c-5.91-2.23-8.32-3.67-8.32-7.67 0-2.1.8-4.33 2.24-8.49l1.92-5.43h60.8zM47.84-96.95l29.93 73.43H17.92zm0 0"/></symbol><symbol overflow="visible" id="4c322b89D"><path d="M65.92-17.44C56.8-7.84 50.41-1.28 39.52-1.28H27.2v-95.03c0-5.92 3.36-9.77 8.64-15.53v-.64H3.2v.64c5.6 5.76 9.28 9.6 9.28 15.53v80.15c0 5.93-3.68 9.75-9.28 15.52V0h59.36l4.31-17.44zm0 0"/></symbol><symbol overflow="visible" id="4c322b89E"><path d="M42.56-49.44L63.2-15.69C67.7-8.3 66.72-3.84 64-.64V0h30.72v-.64c-6.56-3.84-9.28-6.88-15.52-17.28L51.7-63.52l22.08-30.71c4.95-6.9 11.18-14.72 18.71-17.61v-.64h-24v.64c4 2.07 6.72 4.8 6.72 8.48 0 3.84-2.08 7.84-4.97 11.84L50.87-64.64 31.52-96.8c-4.47-7.51-3.52-11.84-.8-15.04v-.64H0v.64c6.56 3.84 9.28 6.89 15.52 17.28l26.25 43.69-23.2 32.64C13.76-11.36 7.51-3.52 0-.64V0h24v-.64c-4-2.08-6.72-4.31-6.72-8.95 0-4 2.08-7.36 4.95-11.36zm0 0"/></symbol><symbol overflow="visible" id="4c322b89F"><path d="M79.84-16.16c-7.04-12.32-15.36-16-30.72-16h-2.56c23.2-3.84 37.6-19.53 37.6-40.97 0-23.03-13.93-39.35-49.93-39.35H3.2v.64c5.6 5.76 9.28 9.6 9.28 15.53v80.15c0 5.93-3.68 9.75-9.28 15.52V0h32.64v-.64c-5.28-5.77-8.64-9.6-8.64-15.52V-32.8c2.24 1.11 7.03 1.6 10.57 1.6 9.59 0 13.75-.16 23.18 13.43l4.97 7.2C72.8-.63 81.6 3.7 94.23 0v-.64c-5.28-.8-7.36-3.2-9.92-7.67zm-45.6-95.04c26.88 0 34.24 21.12 34.24 38.72 0 21.6-5.6 40-31.53 40-3.18 0-6.87-.32-9.75-1.6v-77.12zm0 0"/></symbol><symbol overflow="visible" id="4c322b89G"><path d="M92.8-96.31c0-6.74 4.15-10.25 10.89-15.53v-.64H80.64v.64c7.05 5.6 10.88 8.8 10.88 15.53v59.51c0 21.75-11.04 33.92-35.2 33.92-20.8 0-31.52-13.28-31.52-34.24v-59.2c0-5.91 3.36-10.56 7.04-15.52v-.64H2.41v.64c4 4.97 7.67 9.6 7.67 15.53v60.8c0 22.71 14.72 37.43 44.48 37.43 26.08 0 38.24-12.8 38.24-38.72zm0 0"/></symbol><symbol overflow="visible" id="4c322b89H"><path d="M215.69-112.48H192.3l-84.95 79.04-83.2-79.04H1.28v.64c7.03 4 10.88 7.2 10.88 15.53v77.26C12.16-12.3 8-5.92 1.28-.65V0h23.03v-.64c-7.03-5.6-10.87-11.67-10.87-18.4v-81.91L96-22.08h.8l95.51-88.64v94.56c0 5.93-3.67 9.75-9.26 15.52V0h32.64v-.64c-5.28-5.77-8.64-9.6-8.64-15.52v-81.76c0-5.92 3.36-9.77 8.64-13.92zm0 0"/></symbol><symbol overflow="visible" id="4c322b89I"><path d="M13.77-97.28l73.92 99.2.95-.33c-.33-8.15-.33-16-.33-27.03V-96.3c0-6.74 4.17-9.61 10.9-15.53v-.64H76.15v.64c7.04 6.25 10.89 8.8 10.89 15.53V-24l-65.77-88.48H3.84v1.28l8.64 11.84v83.2c0 6.72-3.84 9.29-10.89 15.52V0h23.05v-.64c-6.72-5.92-10.87-8.8-10.87-15.52zm0 0"/></symbol><symbol overflow="visible" id="4c322b89J"><path d="M13.77-97.28l73.92 99.2.95-.33c-.33-8.15-.33-16-.33-27.03V-96.3c0-6.74 4.17-9.61 10.9-15.53v-.64H76.15v.64c7.04 6.25 10.89 8.8 10.89 15.53V-24l-65.77-88.48H3.84v1.28l8.64 11.84v83.2c0 6.72-3.84 9.29-10.89 15.52V0h23.05v-.64c-6.72-5.92-10.87-8.8-10.87-15.52zm0 0"/></symbol><symbol overflow="visible" id="4c322b89K"><path d="M3.2-111.84c5.6 5.76 9.28 9.6 9.28 15.53v80.15c0 5.93-3.68 9.75-9.28 15.52V0H44c41.6 0 63.05-24.31 63.05-57.13 0-31.18-21.46-55.35-63.05-55.35H3.2zm24 .64h14.24c36 0 49.92 26.25 49.92 54.72 0 28.48-13.92 55.2-49.92 55.2H27.2zm0 0"/></symbol><symbol overflow="visible" id="4c322b89L"><path d="M125.77-114.4c-21.13 0-41.46 13.6-41.46 41.92 0 28 20.64 41.12 42.1 41.12 21.28 0 41.59-13.12 41.59-41.12 0-28.32-20.8-41.93-42.23-41.93zm1.28 81.45c-20 0-28.33-20.64-28.33-41.77 0-20.16 6.23-38.4 27.05-38.4 19.36 0 27.82 19.35 27.82 41.28 0 19.04-5.75 38.89-26.54 38.89zm-68.49-5.61C69.6-45.76 75.05-57.76 75.05-72c0-23.36-12.64-40.48-43.36-40.48H3.2v.64c5.6 5.76 9.28 9.6 9.28 15.53v80.15c0 5.93-3.68 9.75-9.28 15.52V0h33.28v-.64c-5.6-5.77-9.28-9.6-9.28-15.52V-31.2h3.03c5.93 0 11.2-.64 16-1.93l8.97 12.49C71.36 1.92 108.8 5.44 133.92 0v-.95c-22.56 3.83-47.2 3.18-64-21.13zM31.84-111.2c21.29 0 27.52 20.48 27.52 39.68s-6.23 39.04-28.48 39.04H27.2v-78.72zm0 0"/></symbol><symbol overflow="visible" id="4c322b89M"><path d="M135.69-112.48H112.3l-40.47 74.4-47.68-74.4H1.28v.64c7.03 4 10.88 7.2 10.88 15.53v77.26C12.16-12.3 8-5.92 1.28-.65V0h23.03v-.64c-7.03-5.6-10.87-11.67-10.87-18.4v-81.91L64-22.08h.8l47.51-87.84v93.76c0 5.93-3.67 9.75-9.26 15.52V0h32.64v-.64c-5.28-5.77-8.64-9.6-8.64-15.52v-81.76c0-5.92 3.36-9.77 8.64-13.92zm0 0"/></symbol><symbol overflow="visible" id="4c322b89N"><path d="M66.88-17.44h-.96C56.8-7.84 50.23-1.28 39.52-1.28H27.2V-53.6h18.88c3.36 0 6.56 0 15.05 9.28h.95v-20h-.95c-8.49 9.44-11.7 9.44-15.05 9.44H27.2v-56.33h9.28c4.32 0 15.2 8 23.83 14.56h.97l-3.51-15.84H3.2v.64c5.6 5.76 9.28 9.6 9.28 15.53v80.15c0 5.93-3.68 9.75-9.28 15.52V0h59.36zm0 0"/></symbol></defs><path fill="#fdfaf5" d="M0 0h1366v768H0z"/><g fill="#1a26cd"><use xlink:href="#4c322b89a" x="77" y="727.9854"/><use xlink:href="#4c322b89b" x="81.007801" y="727.9854"/><use xlink:href="#4c322b89c" x="89.269615" y="727.9854"/><use xlink:href="#4c322b89d" x="98.379496" y="727.9854"/><use xlink:href="#4c322b89a" x="105.847957" y="727.9854"/><use xlink:href="#4c322b89c" x="109.855757" y="727.9854"/><use xlink:href="#4c322b89e" x="118.965638" y="727.9854"/><use xlink:href="#4c322b89f" x="129.443369" y="727.9854"/><use xlink:href="#4c322b89g" x="133.122886" y="727.9854"/><use xlink:href="#4c322b89h" x="142.602086" y="727.9854"/><use xlink:href="#4c322b89d" x="152.929354" y="727.9854"/><use xlink:href="#4c322b89i" x="160.397815" y="727.9854"/><use xlink:href="#4c322b89f" x="170.314727" y="727.9854"/><use xlink:href="#4c322b89f" x="173.994244" y="727.9854"/></g><use xlink:href="#4c322b89j" x="177.67376" y="727.9854" fill="#1a26cd"/><g fill="#1a26cd"><use xlink:href="#4c322b89f" x="190.121195" y="727.9854"/><use xlink:href="#4c322b89f" x="193.800712" y="727.9854"/><use xlink:href="#4c322b89k" x="197.480228" y="727.9854"/><use xlink:href="#4c322b89l" x="202.705415" y="727.9854"/><use xlink:href="#4c322b89m" x="210.980908" y="727.9854"/><use xlink:href="#4c322b89f" x="220.159181" y="727.9854"/><use xlink:href="#4c322b89n" x="223.838698" y="727.9854"/><use xlink:href="#4c322b89b" x="232.75708" y="727.9854"/><use xlink:href="#4c322b89o" x="241.018894" y="727.9854"/></g><use xlink:href="#4c322b89p" x="70.0322" y="173.6431"/><use xlink:href="#4c322b89q" x="226.0322" y="173.6431"/><use xlink:href="#4c322b89r" x="333.3922" y="173.6431"/><use xlink:href="#4c322b89s" x="372.4322" y="173.6431"/><use xlink:href="#4c322b89t" x="436.9122" y="173.6431"/><use xlink:href="#4c322b89u" x="476.9122" y="173.6431"/><use xlink:href="#4c322b89v" x="609.7122" y="173.6431"/><use xlink:href="#4c322b89w" x="713.3922" y="173.6431"/><use xlink:href="#4c322b89x" x="70.0322" y="303.5631"/><use xlink:href="#4c322b89y" x="270.6722" y="303.5631"/><use xlink:href="#4c322b89z" x="400.2722" y="303.5631"/><use xlink:href="#4c322b89A" x="524.7522" y="303.5631"/><use xlink:href="#4c322b89y" x="723.4722" y="303.5631"/><use xlink:href="#4c322b89B" x="70.0322" y="433.4831"/><use xlink:href="#4c322b89C" x="158.0322" y="433.4831"/><use xlink:href="#4c322b89D" x="266.6402" y="433.4831"/><use xlink:href="#4c322b89s" x="334.5122" y="433.4831"/><use xlink:href="#4c322b89E" x="403.7922" y="433.4831"/><use xlink:href="#4c322b89r" x="499.9202" y="433.4831"/><use xlink:href="#4c322b89C" x="539.2802" y="433.4831"/><use xlink:href="#4c322b89F" x="70.0322" y="563.4031"/><use xlink:href="#4c322b89G" x="160.1122" y="563.4031"/><use xlink:href="#4c322b89H" x="266.9922" y="563.4031"/><use xlink:href="#4c322b89s" x="485.3922" y="563.4031"/><use xlink:href="#4c322b89I" x="553.7122" y="563.4031"/><use xlink:href="#4c322b89y" x="650.8322" y="563.4031"/><use xlink:href="#4c322b89C" x="70.0322" y="693.3231"/><use xlink:href="#4c322b89J" x="179.5202" y="693.3231"/><use xlink:href="#4c322b89K" x="280.5602" y="693.3231"/><use xlink:href="#4c322b89L" x="389.7122" y="693.3231"/><g><use xlink:href="#4c322b89M" x="558.1922" y="693.3231"/></g><g><use xlink:href="#4c322b89N" x="695.5202" y="693.3231"/></g><g><use xlink:href="#4c322b89K" x="763.5202" y="693.3231"/><use xlink:href="#4c322b89C" x="864.0002" y="693.3231"/></g><g fill="#1a26cd"><use xlink:href="#4c322b89O" x="998.8066" y="727.9854"/><use xlink:href="#4c322b89P" x="1007.916481" y="727.9854"/><use xlink:href="#4c322b89Q" x="1016.643364" y="727.9854"/><use xlink:href="#4c322b89o" x="1026.054172" y="727.9854"/><use xlink:href="#4c322b89a" x="1034.931518" y="727.9854"/><use xlink:href="#4c322b89h" x="1038.939319" y="727.9854"/><use xlink:href="#4c322b89e" x="1049.266586" y="727.9854"/><use xlink:href="#4c322b89o" x="1059.744317" y="727.9854"/><use xlink:href="#4c322b89f" x="1068.621664" y="727.9854"/><use xlink:href="#4c322b89Q" x="1072.30118" y="727.9854"/><use xlink:href="#4c322b89P" x="1081.711988" y="727.9854"/><use xlink:href="#4c322b89R" x="1090.438872" y="727.9854"/><use xlink:href="#4c322b89S" x="1100.738782" y="727.9854"/><use xlink:href="#4c322b89d" x="1111.052371" y="727.9854"/><use xlink:href="#4c322b89c" x="1118.520832" y="727.9854"/><use xlink:href="#4c322b89Q" x="1127.630713" y="727.9854"/><use xlink:href="#4c322b89T" x="1137.041521" y="727.9854"/><use xlink:href="#4c322b89f" x="1140.406432" y="727.9854"/><use xlink:href="#4c322b89U" x="1144.085949" y="727.9854"/><use xlink:href="#4c322b89a" x="1157.408808" y="727.9854"/><use xlink:href="#4c322b89i" x="1161.416608" y="727.9854"/><use xlink:href="#4c322b89P" x="1171.333521" y="727.9854"/><use xlink:href="#4c322b89f" x="1180.060404" y="727.9854"/><use xlink:href="#4c322b89c" x="1183.73992" y="727.9854"/><use xlink:href="#4c322b89e" x="1192.849801" y="727.9854"/><use xlink:href="#4c322b89i" x="1203.327532" y="727.9854"/><use xlink:href="#4c322b89f" x="1213.244445" y="727.9854"/><use xlink:href="#4c322b89P" x="1216.923961" y="727.9854"/><use xlink:href="#4c322b89V" x="1225.650844" y="727.9854"/><use xlink:href="#4c322b89b" x="1234.35037" y="727.9854"/><use xlink:href="#4c322b89P" x="1242.612184" y="727.9854"/><use xlink:href="#4c322b89e" x="1251.339067" y="727.9854"/><use xlink:href="#4c322b89i" x="1261.816798" y="727.9854"/><use xlink:href="#4c322b89P" x="1271.733711" y="727.9854"/><use xlink:href="#4c322b89i" x="1280.460594" y="727.9854"/></g></svg>