<?xml version="1.0" encoding="UTF-8"?><svg id="Layer_1" xmlns="http://www.w3.org/2000/svg" viewBox="0 0 1366 768"><defs><style>.cls-1{fill:#fff;}</style></defs><rect width="1366" height="768"/><g><path class="cls-1" d="M432.43,402.46l-79.88,88.67h-50.86l60.18-67.1h-110.51v-42.6h111.04l-60.71-67.64h50.86l79.88,88.67Z"/><path class="cls-1" d="M622.82,361.19c0,32.49-19.71,56.45-63.38,56.45h-46.07v70.83h-56.45v-180.8h97.46c48.73,0,68.43,25.56,68.43,53.52Zm-56.98,1.33c0-10.92-7.19-20.5-23.96-20.5h-28.49v41.27h28.49c16.78,0,23.96-9.59,23.96-20.77Z"/><path class="cls-1" d="M773,400.33v88.14h-46.6v-16.78c-10.39,12.51-25.03,19.97-42.61,19.97-31.16,0-49.26-17.84-49.26-41.01,0-25.03,18.64-40.48,52.46-43.67l34.62-3.2v-8.52c0-9.85-5.86-15.71-16.24-15.71-10.92,0-16.78,5.06-18.37,13.58h-50.33c2.66-26.89,24.23-45.53,68.43-45.53,50.06,0,67.9,22.37,67.9,52.72Zm-52.46,42.34v-14.65l-15.71,2.13c-13.31,1.86-20.24,7.72-20.24,17.04s6.66,14.38,16.78,14.38c11.98,0,19.17-8.25,19.17-18.91Z"/><path class="cls-1" d="M888.57,350.8v42.34c-2.93-.27-5.86-.53-10.65-.53-17.04,0-29.02,9.85-29.02,29.56v66.3h-52.72v-137.67h45.8v24.5c7.72-18.64,22.1-25.83,37.81-25.83,3.2,0,6.66,.27,8.79,1.33Z"/><path class="cls-1" d="M905.61,306.6c0-13.31,10.92-26.36,28.23-26.36s28.23,13.05,28.23,26.36-11.72,26.89-28.23,26.89-28.23-13.58-28.23-26.89Zm1.86,44.2h52.72v137.67h-52.72v-137.67Z"/><path class="cls-1" d="M978.57,448.26h47.93c1.86,8.25,8.52,12.78,21.3,12.78s17.84-4.53,17.84-11.18c0-4.79-2.93-9.59-10.92-10.92l-34.88-5.33c-26.63-3.99-39.68-18.37-39.68-40.48,0-25.03,22.63-45.53,63.38-45.53,38.61,0,64.17,12.78,68.97,45.53h-47.93c-1.6-9.32-7.99-14.38-19.97-14.38s-17.31,4.79-17.31,10.92c0,5.33,3.73,9.32,12.25,10.65l37.55,5.33c27.69,3.99,38.34,19.17,38.34,39.14,0,28.23-23.43,46.87-68.43,46.87-42.34,0-64.44-15.44-68.43-43.4Z"/></g><g><path class="cls-1" d="M422.31,92.71v180.8h-70.03l-54.59-112.9v112.9h-52.72V92.71h69.23l55.39,115.57V92.71h52.72Z"/><path class="cls-1" d="M443.61,182.98c0-59.38,37.01-93.46,95.06-93.46s95.59,34.08,95.59,93.46-37.54,93.73-95.59,93.73-95.06-34.62-95.06-93.73Zm133.14,0c0-36.48-15.18-52.46-37.81-52.46s-37.81,15.98-37.81,52.46,15.18,52.72,37.81,52.72,37.81-16.51,37.81-52.72Z"/><path class="cls-1" d="M832.39,92.71l-62.31,180.8h-67.63l-61.25-180.8h55.12l39.94,138.47,41.01-138.47h55.12Z"/><path class="cls-1" d="M996.15,92.71v180.8h-56.45v-118.76c-11.45,6.66-21.04,7.72-43.94,7.72v-35.42c35.68-.53,48.2-18.11,51.13-34.35h49.26Z"/><path class="cls-1" d="M1118.37,92.71v180.8h-56.45v-118.76c-11.45,6.66-21.04,7.72-43.94,7.72v-35.42c35.68-.53,48.2-18.11,51.13-34.35h49.26Z"/></g><g><path class="cls-1" d="M251.96,641.96h53.79c1.33,12.25,9.85,19.71,29.03,19.71,20.77,0,27.43-7.46,27.43-15.98,0-7.72-3.99-12.78-15.18-14.65l-43.4-7.19c-33.55-5.59-49.79-24.23-49.79-53.79s25.83-58.32,76.69-58.32,76.96,20.5,80.68,53.79h-53.26c-2.13-10.92-10.92-16.78-27.69-16.78s-24.76,6.92-24.76,15.98c0,7.46,4.26,11.72,14.65,13.31l43.94,6.66c35.15,5.33,49.79,25.56,49.79,54.59,0,33.02-24.23,59.65-79.35,59.65s-79.62-21.3-82.55-56.98Z"/><path class="cls-1" d="M567.77,607.61v88.14h-46.6v-16.78c-10.39,12.51-25.03,19.97-42.61,19.97-31.16,0-49.26-17.84-49.26-41.01,0-25.03,18.64-40.48,52.46-43.67l34.62-3.2v-8.52c0-9.85-5.86-15.71-16.24-15.71-10.92,0-16.78,5.06-18.37,13.58h-50.33c2.66-26.89,24.23-45.53,68.43-45.53,50.06,0,67.9,22.37,67.9,52.72Zm-52.46,42.34v-14.65l-15.71,2.13c-13.31,1.86-20.24,7.72-20.24,17.04s6.66,14.38,16.78,14.38c11.98,0,19.17-8.25,19.17-18.91Z"/><path class="cls-1" d="M656.71,593.49v54.32c0,7.99,3.99,13.31,13.31,13.31,4.79,0,7.19-.27,11.45-1.07v35.68c-6.12,.8-16.78,1.6-26.1,1.6-38.08,0-51.39-15.18-51.39-47.13v-56.72h-20.24v-35.42h20.77v-38.88h52.46v38.88h24.5v35.42h-24.76Z"/><path class="cls-1" d="M838.85,558.08v137.67h-46.87v-20.24c-9.32,15.98-23.7,23.43-42.34,23.43-30.09,0-49.53-15.44-49.53-51.13v-89.74h52.72v88.94c0,9.59,4.79,15.98,15.18,15.98,10.92,0,18.11-9.59,18.11-24.23v-80.68h52.72Z"/><path class="cls-1" d="M954.95,558.08v42.34c-2.93-.27-5.86-.53-10.65-.53-17.04,0-29.02,9.85-29.02,29.56v66.3h-52.72v-137.67h45.8v24.5c7.72-18.64,22.1-25.83,37.81-25.83,3.2,0,6.66,.27,8.79,1.33Z"/><path class="cls-1" d="M1114.18,606.01v89.74h-52.72v-83.61c0-12.52-5.86-19.17-16.24-19.17-11.98,0-19.7,6.92-19.7,25.3v77.49h-52.72v-137.67h46.87v21.83c8.79-16.51,23.7-25.03,42.07-25.03,29.29,0,52.46,15.44,52.46,51.13Z"/></g></svg>