<?xml version='1.0' encoding='UTF-8'?>
<svg xmlns="http://www.w3.org/2000/svg" xmlns:xlink="http://www.w3.org/1999/xlink" width="1366px" height="768px" viewBox="0 0 1366 768" x="0px" y="0px" enable-background="new 0 0 1366 768"><defs><symbol overflow="visible" id="48d089c2b"><path d="M9-9.9H7.4L2.57-5.74v-4.18H1.34V0h1.24v-5.13L7.44 0h1.48L3.86-5.45zm0 0"/></symbol><symbol overflow="visible" id="48d089c2c"><path d="M9.4-9.9H8.18v6.1c0 1.94-1.19 2.9-2.84 2.9-1.74 0-2.88-1-2.88-2.94v-6.07H1.22v6.07c0 2.65 1.6 4.01 4.1 4.01 2.5 0 4.09-1.34 4.09-4.01zm0 0"/></symbol><symbol overflow="visible" id="48d089c2d"><path d="M5.42-9.9H1.34V0h1.24v-4.33h2.75c2.25 0 3.37-1.19 3.37-2.81 0-1.7-1.01-2.77-3.28-2.77zm-.2 4.54H2.58v-3.5h2.64c1.56 0 2.25.61 2.25 1.72 0 1.06-.69 1.78-2.25 1.78zm0 0"/></symbol><symbol overflow="visible" id="48d089c2e"><path d="M7.83 0h1.31L5.36-9.9H4.03L.13 0h1.3l1.05-2.72h4.36zM2.86-3.77l1.83-4.86 1.76 4.86zm0 0"/></symbol><symbol overflow="visible" id="48d089c2g"><path d="M6.78-5.14a2.26 2.26 0 001.78-2.14c0-1.64-1.04-2.63-3.3-2.63H1.35V0h4.14c2.5 0 3.54-1.08 3.54-2.81 0-1.27-.88-2.14-2.24-2.33zM4.94-8.86c1.45 0 2.37.4 2.37 1.58 0 1.08-.8 1.72-2.17 1.72H2.56v-3.3zm.3 7.83H2.55v-3.5h2.69c1.52 0 2.53.4 2.53 1.72 0 1.39-1.01 1.78-2.55 1.78zm0 0"/></symbol><symbol overflow="visible" id="48d089c2h"><path d="M5.33.17c2.72 0 4.6-2.06 4.6-5.1 0-3.07-1.88-5.15-4.6-5.15C2.59-10.08.72-8 .72-4.94.72-1.89 2.59.17 5.32.17zm0-1.03c-2.05 0-3.38-1.56-3.38-4.08 0-2.54 1.33-4.1 3.38-4.1 2.03 0 3.36 1.56 3.36 4.1 0 2.52-1.33 4.08-3.36 4.08zm0 0"/></symbol><symbol overflow="visible" id="48d089c2i"><path d="M2.6-1.05V-9.9H1.33V0h6v-1.05zm0 0"/></symbol><symbol overflow="visible" id="48d089c2j"><path d="M4.52-9.9H1.34V0h3.18c2.8 0 4.8-1.9 4.8-4.94 0-3.06-2-4.97-4.8-4.97zm-.2 8.87H2.57v-7.83h1.77c2.37 0 3.76 1.44 3.76 3.92 0 2.46-1.42 3.9-3.76 3.9zm0 0"/></symbol><symbol overflow="visible" id="48d089c2S"><path d="M3.2-2.83l2.27-1.34c1.6-.94 1.92-1.85 1.92-2.92 0-1.7-1.17-2.99-3.2-2.99-2.17 0-3.36 1.4-3.42 3.35h1.18c.1-1.43.83-2.3 2.24-2.3 1.34 0 1.97.89 1.97 1.94 0 .86-.4 1.48-1.36 2.04L2.83-3.89C1.27-2.97.66-1.87.66-.42V0h6.73v-1.02H1.9c.14-.84.61-1.39 1.31-1.8zm0 0"/></symbol><symbol overflow="visible" id="48d089c2T"><path d="M2.8-9.9C2.55-8.88 2.05-8.26.34-8.2v1.02c1.08 0 1.75-.16 2.27-.63V0h1.25v-9.9zm0 0"/></symbol><symbol overflow="visible" id="48d089c2U"><path d="M4.45-6.53c-1.01 0-1.83.37-2.33.98l.22-3.33h4.83V-9.9H1.34L.97-4.47h1.42c.34-.62.97-.98 1.84-.98 1.44 0 2.2.95 2.2 2.26 0 1.31-.82 2.33-2.18 2.33-1.36 0-2.22-.78-2.28-2H.73C.73-1.05 2.17.17 4.23.17c2.27 0 3.44-1.6 3.44-3.33 0-1.9-1.22-3.37-3.22-3.37zm0 0"/></symbol><symbol overflow="visible" id="48d089c2V"><path d="M8.13-9.9H.33v1.03H3.6V0h1.23v-8.88h3.29zm0 0"/></symbol><symbol overflow="visible" id="48d089c2W"><path d="M4.69.17C7.1.17 8.47-1 8.47-2.73c0-1.43-.95-2.3-2.55-2.66L3.7-5.91c-1.14-.26-1.5-.75-1.5-1.46 0-.94.78-1.66 2.22-1.66 1.45 0 2.42.6 2.6 1.9h1.3c-.22-2.03-1.73-2.95-3.87-2.95-2.19 0-3.55 1.25-3.55 2.85 0 1.3.78 2.18 2.25 2.51l2.3.5c1.15.27 1.73.78 1.73 1.66 0 .95-.78 1.7-2.48 1.7-1.6 0-2.63-.69-2.83-2.08H.56C.76-.95 2.1.17 4.7.17zm0 0"/></symbol><symbol overflow="visible" id="48d089c2k"><path d="M4.56-16.64c.42-1.72.8-3.34 1.22-4.88.34-1.28.67-2.26.67-3.07 0-1.1-.67-2-2-2-1.34 0-2.1.9-2.1 2 0 .8.27 1.75.57 3.07.35 1.49.69 3.16 1.03 4.88zm5.78 0c.41-1.72.8-3.34 1.2-4.88.35-1.28.7-2.26.7-3.07 0-1.1-.7-2-2.02-2-1.33 0-2.1.9-2.1 2 0 .8.27 1.75.58 3.07.35 1.49.7 3.16 1.03 4.88zm0 0"/></symbol><symbol overflow="visible" id="48d089c2l"><path d="M32.48-24.05V-25h-6.07L17.36-3.95 6.96-25H.75v.95c2.24.03 2.74.57 2.74 2.27L3.34-3.23C3.34-1.52 2.81-.98.7-.95V0h7.64v-.95C5.05-.98 4.4-1.52 4.4-3.58l-.16-19L15.65 0h.62l10.1-22.45v18.87c0 2.06-.6 2.6-3.04 2.63V0h9.15v-.95c-2.12-.03-2.65-.57-2.65-2.28v-18.55c0-1.7.53-2.24 2.65-2.27zm0 0"/></symbol><symbol overflow="visible" id="48d089c2m"><path d="M12.23-17.1v.65c2.1.26 2.44 1.3 1.83 2.76l-3.84 9.47-3.56-9c-.74-1.8-.7-3.12 1.06-3.23v-.64H.42v.64c1.25.1 1.78.95 2.13 1.78C4.72-9.34 6.39-5.52 8.52-.2l-.8 1.75C6.58 3.8 4.75 3.84 1.97 3.84V7.6c2.89 0 4.6-1.78 5.56-3.56.49-.92.67-1.33 1.17-2.33l6.61-15.65c.77-1.82 1.11-2.24 2.28-2.5v-.64zm0 0"/></symbol><symbol overflow="visible" id="48d089c2o"><path d="M20.14-1.52c-2.36.35-2.89.2-2.89-1.98v-24.31l-.42-.27-4.94 1.75-.03.45c.98.83 1.48 1.41 2.16 2.5v6.58a9.48 9.48 0 00-4.1-.9c-5.36 0-8.78 4.1-8.78 9.72C1.14-3.31 3.7.6 8.6.6c1.97 0 3.96-.95 5.43-2.47v1.52l.34.57 5.89-.73zm-9.8-.5c-3.8 0-6.01-3.5-6.01-7.78 0-3.47 1.45-6.89 5.6-6.89 2.2 0 3.79 1.8 4.09 3.77v9.81C13-2.3 11.82-2 10.34-2zm0 0"/></symbol><symbol overflow="visible" id="48d089c2p"><path d="M15.9-4.98a5.4 5.4 0 01-5.03 3.04c-4.21 0-6.54-3.6-6.54-8.33v-.21h11.86c-.16-5.2-3.16-7.2-6.85-7.2-4.86 0-8.2 3.77-8.2 9.09 0 5.25 3 9.2 8.28 9.2 3.88 0 6.13-2.58 7.06-5.28zm-7-11.9c2.77 0 3.44 2.79 3.44 4.49 0 .27-.03.58-.1.84l-7.87.3c.22-3.3 1.68-5.63 4.52-5.63zm0 0"/></symbol><symbol overflow="visible" id="48d089c2q"><path d="M17.25-2.52c-.56.55-.98.7-1.56.7-1.25 0-1.55-.73-1.55-2.63l.27-7.1c.14-4.14-1.91-6.15-5.75-6.15-3.49 0-6.11 2.28-7.1 5.36l.75.18c1-1.86 2.44-3.3 4.99-3.3 2.7 0 4.03 1.55 3.9 4.4l-.06 1.75c-1.56.23-3.6.58-4.6.84-3.3.88-4.95 2.55-4.95 5.02C1.6-.87 3.27.6 5.73.6 7.8.6 9.66-.45 10.91-2.55c.37 1.9 1.3 2.97 2.92 2.97 1.53 0 2.94-1.06 3.8-2.51zm-9.88.93c-1.64 0-2.54-1.14-2.54-2.79 0-1.78 1.25-3.07 3.53-3.56.95-.18 1.9-.39 2.73-.5l-.15 3.46C10.6-2.97 9.2-1.6 7.38-1.6zm0 0"/></symbol><symbol overflow="visible" id="48d089c2r"><path d="M6.92-9.95c0-2.74.99-4.38 3.19-4.38 1.17 0 2.55.16 3.53.35v-3.72c-3.64 0-5.05 1.8-6.1 3.53-.21.26-.4.64-.62 1.06v-4.56l-.42-.27-4.94 1.75-.04.46c1 .84 1.48 1.4 2.17 2.51v12.19l-2.66.12V0h9.5v-.9l-3.6-.13zm0 0"/></symbol><symbol overflow="visible" id="48d089c2s"><path d="M.9 5.92C4.26 3.8 6.17.7 6.17-1.75c0-1.36-.72-2.73-2.29-2.73-1.21 0-2.04.87-2.04 2.17 0 .83.4 1.44 1.1 1.86.68.42 1.21.6 1.21 1.14 0 1.14-1.4 3.3-3.58 4.78zm0 0"/></symbol><symbol overflow="visible" id="48d089c2t"><path d="M10.03.6c5.1 0 8.44-3.65 8.44-9.07 0-5.81-2.97-9.2-8.9-9.2-5.09 0-8.43 3.65-8.43 9.08C1.14-3 4.3.6 10.04.6zm.24-.7c-3.82 0-5.55-3.77-5.55-10.17 0-3.95 1.01-6.64 4.7-6.71 3.77.07 5.47 3.87 5.47 10.18 0 3.75-.98 6.7-4.62 6.7zm0 0"/></symbol><symbol overflow="visible" id="48d089c2u"><path d="M20.7-1.38c-2.34.32-2.87.16-2.87-1.96v-14.29l-.42-.26-4.94 1.73-.05.47c.99.83 1.49 1.4 2.17 2.5v9.85a6.94 6.94 0 01-4.32 1.67c-2.7 0-3.74-1.83-3.74-5.31v-10.64l-.4-.27-4.96 1.73-.03.47c.99.83 1.49 1.4 2.17 2.5v8.14C3.31-1.4 5.28.56 8.25.56c2.5 0 4.33-1.1 6.34-3.03v2.13l.35.57 5.89-.73zm0 0"/></symbol><symbol overflow="visible" id="48d089c2v"><path d="M18.36-1.03v-10.94c0-3.45-1.53-5.73-5.06-5.73-2.63 0-4.83 1.62-6.38 3.53v-3.5l-.42-.27-4.94 1.75-.04.46c1 .84 1.48 1.4 2.17 2.51v12.19l-2.66.12V0h8.55v-.9l-2.66-.13v-12c1.14-1.4 2.81-2.52 4.55-2.52 2.7 0 3.65 1.86 3.65 4.75v9.77l-2.65.12V0h8.55v-.9zm0 0"/></symbol><symbol overflow="visible" id="48d089c2w"><path d="M17.86-14.4v-2.7h-5.97c-.95-.38-2.1-.6-3.45-.6-4.33 0-6.92 2.15-6.92 5.76 0 2.74 1.56 4.9 4.6 5.55-.84.58-2.28 1.56-2.78 1.94-.76.58-1.51 1.26-1.51 2.06 0 .83.8 1.48 2.08 1.6l1.14.1c-2.42 1.4-3.8 2.97-3.8 4.8 0 2.69 2.78 4.06 7.38 4.06 5.32 0 9.23-2.89 9.23-6.84 0-2.66-1.97-3.96-4.94-4.22L8.4-3.31c-2.12-.19-3.1-.27-3.1-.9 0-.5 1.24-1.5 1.93-1.98.34.03.69.03 1.03.03 4.36 0 6.88-2.12 6.88-5.7 0-1.86-.61-3.45-1.99-4.52zM8.63-7.1c-2.44 0-3.54-2.37-3.54-5.9 0-1.97.7-3.77 3.04-3.8 2.51.03 3.57 2.52 3.57 5.97 0 2.28-.87 3.72-3.07 3.72zm2.89 7c2.12.18 3.37 1.05 3.37 3.02 0 2.9-2.5 4.38-5.58 4.38-3.23 0-5.28-1.49-5.28-4.14 0-1.52.83-2.82 1.86-3.77zm0 0"/></symbol><symbol overflow="visible" id="48d089c2x"><path d="M22.23-17.1v.65c2.24.23 2.43 1.14 1.82 2.84l-3.49 10-3.84-10.64c-.42-1.14.08-2.1 1.37-2.2v-.64h-6.95v.64c1.1.15 1.47.42 2.2 2.2l.41 1.06-3.64 9.47L6.08-13.9c-.56-1.45.04-2.39 1.22-2.54v-.64H.38v.64c1.1.15 1.48.42 2.2 2.2L8.25 0h1.14l4.86-11.9L18.92 0h1.14l5.2-14.14c.61-1.63 1.15-2.16 2.33-2.31v-.64zm0 0"/></symbol><symbol overflow="visible" id="48d089c2y"><path d="M29.83-1.03v-10.94c0-3.15-1.52-5.73-5.05-5.73-2.51 0-5.01 1.86-6.66 3.9-.5-2.28-2.04-3.9-4.85-3.9-2.36 0-4.72 1.62-6.35 3.53v-3.5l-.42-.27-4.94 1.75-.04.46c1 .84 1.48 1.4 2.17 2.51v12.19l-2.66.12V0h8.55v-.9l-2.66-.13v-12.05a5.46 5.46 0 014.4-2.47c2.82 0 3.77 1.72 3.77 4.75v9.77l-2.67.12V0h8.55v-.9l-2.66-.13v-10.94c0-.26 0-.53-.03-.76.72-1.63 2.77-2.82 4.56-2.82 2.82 0 3.75 1.72 3.75 4.75v9.77l-2.65.12V0h8.54v-.9zm0 0"/></symbol><symbol overflow="visible" id="48d089c2z"><path d="M3.84.6a2.28 2.28 0 10-.09-4.57 2.28 2.28 0 00.1 4.58zm0 0"/></symbol><symbol overflow="visible" id="48d089c2A"><path d="M22.45-25h-7.64v.95c2.6.03 4.19.38 3.5 2.24l-5.04 10.93L7.57-22c-.46-1.19.26-1.78 2.38-2.05V-25H.2v.95c1.67.14 2.65.53 3.53 2.05l6.5 12.34v6.08c0 2.06-.83 2.6-2.9 2.63V0h9.24v-.95c-2.04-.03-2.87-.57-2.87-2.63v-6.3l5.58-12.23c.68-1.37 1.21-1.9 3.18-1.94zm0 0"/></symbol><symbol overflow="visible" id="48d089c2B"><path d="M5.1-21.52c1.32 0 2.17-.82 2.17-2.3 0-1.18-.93-2.13-2.18-2.13a2.1 2.1 0 00-2.17 2.12c0 1.49.88 2.31 2.17 2.31zM1.02 0h8.55v-.9l-2.66-.13v-16.64l-.42-.27-4.94 1.75-.04.46c1 .84 1.48 1.4 2.17 2.51v12.19l-2.66.12zm0 0"/></symbol><symbol overflow="visible" id="48d089c2C"><path d="M12.4-4.14C11.35-2.66 10.18-1.78 9-1.78c-1.55 0-2.13-1.06-2.13-2.9v-11.48h5.55v-.93H6.88l.34-5.29-.53-.07-3.05 4.1-3.27 1.82v.37h3.27V-4.1c0 3 1.08 4.72 3.58 4.72 2.97 0 4.6-2.28 5.73-4.4zm0 0"/></symbol><symbol overflow="visible" id="48d089c2D"><path d="M12.73-17.7a8.43 8.43 0 00-6.07 2.89v-12.97l-.43-.27L1.3-26.3l-.05.46c.98.84 1.48 1.4 2.17 2.51V-.69c2.55.61 4.9 1.3 7.33 1.3 5.52 0 8.94-4.06 8.94-9.84 0-4.79-2.28-8.47-6.96-8.47zM10.8-.2c-2.52 0-4.14-1.45-4.14-4.45v-9.31a5.28 5.28 0 013.95-1.63c4.06 0 5.95 3.88 5.95 7.67 0 4.33-1.7 7.72-5.76 7.72zm0 0"/></symbol><symbol overflow="visible" id="48d089c2E"><path d="M19.23-16.38v-.71H13v.32c.38.32.69.82.69 1.35 0 .72-.81 1.51-1.4 2.01L6.91-9.08v-18.78l-.42-.27-4.94 1.75-.04.46c1 .84 1.48 1.4 2.17 2.51v22.38l-2.66.12V0h8.55v-.9l-2.66-.13v-7.1L8.4-9.34l6.02 8.04c.37.5.56.88.56 1.3h4.06l-8.36-11.14 3.47-2.84c1.86-1.41 3.64-2.32 5.1-2.4zm0 0"/></symbol><symbol overflow="visible" id="48d089c2F"><path d="M18.31-1.03v-10.94c0-3.45-1.51-5.73-5.04-5.73-2.36 0-4.72 1.62-6.35 3.53v-13.46l-.42-.26-4.94 1.75-.04.45a9 9 0 012.17 2.5v22.16l-2.66.12V0h8.55v-.9l-2.66-.13v-12.08a5.75 5.75 0 014.52-2.44c2.7 0 3.65 1.86 3.65 4.75v9.77l-2.67.12V0h8.55v-.9zm0 0"/></symbol><symbol overflow="visible" id="48d089c2G"><path d="M8.06-17.7c-4.1 0-6.23 2.15-6.23 5.04 0 2.63 1.81 4 3.56 4.83L9.53-5.8c1.3.64 1.94 1.4 1.94 2.58 0 2.01-1.63 2.89-3.4 2.89-3.02 0-4.35-1.86-5.55-4.86l-.7.1.54 4.65C3.6.1 5.8.6 7.67.6c4.11 0 6.74-2.17 6.74-5.25 0-2.5-1.64-3.38-4.07-4.67l-3.07-1.63c-1.75-.92-2.7-1.56-2.7-3.12 0-1.75 1.24-2.77 3.1-2.77 2.78 0 4.14 1.28 5.25 4.49h.56l-.3-4.64a19.79 19.79 0 00-5.12-.72zm0 0"/></symbol><symbol overflow="visible" id="48d089c2H"><path d="M13.27-12.88l1.01-.3c1.08-.43 4.9-1.41 4.9-5.9 0-3.9-3.07-5.92-6.95-5.92H1.03v.95c1.75.14 2.66.57 2.66 2.27v18.55c0 1.71-.53 2.25-2.66 2.28V0h11.05c4.95 0 8.14-2.2 8.14-6.77 0-3.76-3.42-5.89-6.95-6.1zM9.8-24.24c3.3 0 5.4 2.14 5.4 5.48 0 2.55-1.14 5.05-3.95 5.5-.69.13-2.63.2-4.1.24V-24.1c.83-.11 1.66-.16 2.65-.16zM11.17-.91c-1.1 0-2.73-.04-4.03-.12v-11.1h3.13c3.56 0 6.07 2.13 6.07 5.63 0 3.23-1.86 5.6-5.17 5.6zm0 0"/></symbol><symbol overflow="visible" id="48d089c2I"><path d="M13.14-17.7c-2.84 0-5.05 2.12-6.27 4.32v-4.3l-.42-.26-4.93 1.75-.04.46a9 9 0 012.16 2.51v19.8l-2.66.1v.91h9.5v-.93l-3.6-.05V-.23c1.45.5 2.92.84 4.4.84 5.28 0 8.49-3.92 8.49-9.66 0-4.75-2.1-8.65-6.63-8.65zM11.28-.1a4.62 4.62 0 01-4.4-4.23v-7.64a4.63 4.63 0 014.3-3.15c3.87 0 5.24 3.42 5.24 7.03 0 4.14-1.4 7.98-5.14 7.98zm0 0"/></symbol><symbol overflow="visible" id="48d089c2J"><path d="M1.14-8.44c0 4.83 2.5 9.05 8.2 9.05a7.51 7.51 0 007.2-5.36l-.62-.27a5.76 5.76 0 01-5.17 3.05c-4.1 0-6.34-3.62-6.34-7.69 0-3.6 1.59-7.21 4.75-7.21 2.54 0 3.15 3.65 5.36 3.65.9 0 1.43-.58 1.43-1.48 0-2.18-2.95-3-5.84-3-6.4 0-8.97 4.93-8.97 9.26zm0 0"/></symbol><symbol overflow="visible" id="48d089c2K"><path d="M4.22-11.25a2.28 2.28 0 000-4.56 2.28 2.28 0 100 4.56zM.9 5.92C4.25 3.8 6.16.7 6.16-1.75c0-1.36-.72-2.73-2.29-2.73-1.21 0-2.04.87-2.04 2.17 0 .83.4 1.44 1.1 1.86.68.42 1.21.6 1.21 1.14 0 1.14-1.4 3.3-3.58 4.78zm0 0"/></symbol><symbol overflow="visible" id="48d089c2L"><path d="M19.38-1.03v-25.88l-.38-.26-2.84 1.14c-1.04-.77-2.82-1.17-4.38-1.17-5.39.03-7.03 3.56-7.03 8.57v1.54H1.52v.93h3.23v15.13l-2.66.12V0h9.7v-.9l-3.8-.13v-15.08h4.67v-.98H7.98c-.53-2.2-.84-3.85-.84-5.75 0-2.16 1.22-3.54 3.24-3.54.98 0 1.78.35 2.62 1.04.83.68 2.23 1.82 3.16 2.65v21.66l-2.68.12V0h8.57v-.9zm0 0"/></symbol><symbol overflow="visible" id="48d089c2M"><path d="M13.69-13.6c.6-1.71.26-2.62-1.8-2.85v-.64h5.52v.64c-1.2.15-1.68.68-2.32 2.3L9.5 0H8.36L2.39-14.25c-.75-1.78-1.22-2.05-2.31-2.2v-.64h7.06v.64c-1.25.15-1.83 1.06-1.36 2.2l4.25 10.72zm0 0"/></symbol><symbol overflow="visible" id="48d089c2N"><path d="M3.69-23.19v22.16l-2.66.12V0h8.55v-.9l-2.66-.13v-26.6l-.42-.26-4.94 1.75-.04.45a9 9 0 012.17 2.5zm0 0"/></symbol><symbol overflow="visible" id="48d089c2O"><path d="M11.14-27.2h-.08c-4.56.03-6.31 3.56-6.31 8.57v1.54H1.52v.93h3.23v15.13l-2.66.12V0h9.7v-.9l-3.8-.13v-15.08h4.67v-.98H7.98c-.45-2.2-.84-4.14-.84-5.75 0-2.16 1.06-3.54 2.66-3.54.42 0 .92.27 1.14.46 1.45 1.1 1.94 2.1 3.28 2.1.83 0 1.36-.57 1.36-1.23 0-1.6-2.63-2.15-4.44-2.15zm0 0"/></symbol><symbol overflow="visible" id="48d089c2P"><path d="M15.02-2.84l-4.57-6.2 3.9-5.1c1.15-1.48 2.21-2.08 3.06-2.31v-.64h-6.24v.64c2.02.23 2.74 1.48 1.38 3.18l-2.7 3.4-3.2-4.38c-.84-1.14-.07-2.05 1.18-2.2v-.64H.77v.64c.87.18 1.4.98 2.3 2.2l4.84 6.58-3.5 4.51C2.78-1.22 2.09-.87.84-.64V0h6.38v-.64C5.02-.87 4.48-1.67 5.89-3.5l2.58-3.38 2.97 4.04c.84 1.14 0 2.04-1.25 2.2V0h7.48v-.64c-.87-.2-1.67-.92-2.65-2.2zm0 0"/></symbol><symbol overflow="visible" id="48d089c2Q"><path d="M16.83-25v.95c3.28.03 3.87.57 3.92 2.61l.19 16L6.42-25H.77v.95c2.23.03 2.73.57 2.73 2.27L3.34-3.23C3.34-1.52 2.81-.98.7-.95V0h7.64v-.95C5.05-.98 4.4-1.52 4.4-3.58l-.11-18.5L21.02 0h.6l.2-21.78c0-1.7.52-2.24 2.65-2.27V-25zm0 0"/></symbol><symbol overflow="visible" id="48d089c2R"><path d="M24.6-.88c-2.18 0-2.7-.64-3.5-2.35L12.68-25l.04-.05h-6.6v.77c2.92 0 3.71 1.7 3.21 3.42L2.4-2.92C1.8-1.48.77-.88-.9-.88V0l3.64-.23 4.3.23v-.88c-2.1 0-3.87-.6-3.45-2.01l.06-.22 2.44-6.58h8.86L17.3-3.5c.48 1.56.1 2.63-2.78 2.63V0l5.89-.23 4.18.23zm-18.18-9.8l4.03-10.9 4.14 10.9zm0 0"/></symbol></defs><path fill="#f7b3ca" d="M0 0h1366v768H0z"/><use xlink:href="#48d089c2a" x="466.416" y="135.6699"/><g fill="#12100b"><use xlink:href="#48d089c2b" x="620.71" y="73.4023"/><use xlink:href="#48d089c2c" x="630.15784" y="73.4023"/><use xlink:href="#48d089c2d" x="641.15116" y="73.4023"/><use xlink:href="#48d089c2d" x="650.65732" y="73.4023"/><use xlink:href="#48d089c2e" x="660.16348" y="73.4023"/><use xlink:href="#48d089c2f" x="669.87376" y="73.4023"/><use xlink:href="#48d089c2g" x="673.79578" y="73.4023"/><use xlink:href="#48d089c2h" x="683.89972" y="73.4023"/><use xlink:href="#48d089c2i" x="694.90762" y="73.4023"/><use xlink:href="#48d089c2j" x="702.8683" y="73.4023"/></g><use xlink:href="#48d089c2k" x="235.4717" y="288.502"/><use xlink:href="#48d089c2l" x="250.061204" y="288.502"/><use xlink:href="#48d089c2m" x="283.077556" y="288.502"/><use xlink:href="#48d089c2n" x="300.858514" y="288.502"/><use xlink:href="#48d089c2o" x="308.457214" y="288.502"/><use xlink:href="#48d089c2p" x="329.239658" y="288.502"/><use xlink:href="#48d089c2q" x="347.210584" y="288.502"/><use xlink:href="#48d089c2r" x="364.839568" y="288.502"/><use xlink:href="#48d089c2s" x="379.163117" y="288.502"/><use xlink:href="#48d089c2n" x="386.951785" y="288.502"/><use xlink:href="#48d089c2m" x="394.550485" y="288.502"/><use xlink:href="#48d089c2t" x="412.331443" y="288.502"/><use xlink:href="#48d089c2u" x="432.27803" y="288.502"/><use xlink:href="#48d089c2n" x="453.630377" y="288.502"/><use xlink:href="#48d089c2q" x="461.229077" y="288.502"/><use xlink:href="#48d089c2r" x="478.858061" y="288.502"/><use xlink:href="#48d089c2p" x="493.181611" y="288.502"/><use xlink:href="#48d089c2n" x="511.152536" y="288.502"/><use xlink:href="#48d089c2q" x="518.751236" y="288.502"/><use xlink:href="#48d089c2n" x="536.38022" y="288.502"/><use xlink:href="#48d089c2m" x="543.97892" y="288.502"/><use xlink:href="#48d089c2t" x="561.759878" y="288.502"/><use xlink:href="#48d089c2u" x="581.706466" y="288.502"/><use xlink:href="#48d089c2v" x="603.058813" y="288.502"/><use xlink:href="#48d089c2w" x="624.373166" y="288.502"/><use xlink:href="#48d089c2n" x="642.913994" y="288.502"/><use xlink:href="#48d089c2x" x="650.512694" y="288.502"/><use xlink:href="#48d089c2t" x="678.703871" y="288.502"/><use xlink:href="#48d089c2y" x="698.650459" y="288.502"/><use xlink:href="#48d089c2q" x="731.438849" y="288.502"/><use xlink:href="#48d089c2v" x="749.067833" y="288.502"/><use xlink:href="#48d089c2z" x="770.382187" y="288.502"/><use xlink:href="#48d089c2n" x="777.980887" y="288.502"/><use xlink:href="#48d089c2A" x="785.579587" y="288.502"/><use xlink:href="#48d089c2t" x="808.033745" y="288.502"/><use xlink:href="#48d089c2u" x="827.980333" y="288.502"/><use xlink:href="#48d089c2n" x="849.33268" y="288.502"/><use xlink:href="#48d089c2q" x="856.93138" y="288.502"/><use xlink:href="#48d089c2r" x="874.560363" y="288.502"/><use xlink:href="#48d089c2p" x="888.883913" y="288.502"/><use xlink:href="#48d089c2n" x="906.854839" y="288.502"/><use xlink:href="#48d089c2x" x="914.453539" y="288.502"/><use xlink:href="#48d089c2r" x="942.644716" y="288.502"/><use xlink:href="#48d089c2B" x="956.968265" y="288.502"/><use xlink:href="#48d089c2C" x="967.416478" y="288.502"/><use xlink:href="#48d089c2B" x="980.790189" y="288.502"/><use xlink:href="#48d089c2v" x="991.238402" y="288.502"/><use xlink:href="#48d089c2w" x="1012.552755" y="288.502"/><use xlink:href="#48d089c2n" x="1031.093584" y="288.502"/><use xlink:href="#48d089c2q" x="1038.692284" y="288.502"/><use xlink:href="#48d089c2D" x="1056.321267" y="288.502"/><use xlink:href="#48d089c2t" x="1077.141705" y="288.502"/><use xlink:href="#48d089c2u" x="1097.088293" y="288.502"/><use xlink:href="#48d089c2C" x="1118.44064" y="288.502"/><use xlink:href="#48d089c2n" x="1131.814352" y="288.502"/><use xlink:href="#48d089c2q" x="1139.413052" y="288.502"/><use xlink:href="#48d089c2n" x="1157.042036" y="288.502"/><g><use xlink:href="#48d089c2D" x="248.655445" y="338.51"/><use xlink:href="#48d089c2t" x="269.475883" y="338.51"/><use xlink:href="#48d089c2t" x="289.42247" y="338.51"/><use xlink:href="#48d089c2E" x="309.369058" y="338.51"/><use xlink:href="#48d089c2n" x="329.657587" y="338.51"/><use xlink:href="#48d089c2C" x="337.256287" y="338.51"/><use xlink:href="#48d089c2F" x="350.629999" y="338.51"/><use xlink:href="#48d089c2q" x="371.906359" y="338.51"/><use xlink:href="#48d089c2C" x="389.535343" y="338.51"/><use xlink:href="#48d089c2n" x="402.909055" y="338.51"/><use xlink:href="#48d089c2F" x="410.507755" y="338.51"/><use xlink:href="#48d089c2q" x="431.784115" y="338.51"/><use xlink:href="#48d089c2G" x="449.413099" y="338.51"/><use xlink:href="#48d089c2n" x="465.59833" y="338.51"/><use xlink:href="#48d089c2D" x="473.19703" y="338.51"/><use xlink:href="#48d089c2p" x="494.017468" y="338.51"/><use xlink:href="#48d089c2p" x="511.988393" y="338.51"/><use xlink:href="#48d089c2v" x="529.959319" y="338.51"/><use xlink:href="#48d089c2n" x="551.273672" y="338.51"/><use xlink:href="#48d089c2x" x="558.872372" y="338.51"/><use xlink:href="#48d089c2r" x="587.063549" y="338.51"/><use xlink:href="#48d089c2B" x="601.387099" y="338.51"/><use xlink:href="#48d089c2C" x="611.835311" y="338.51"/><use xlink:href="#48d089c2C" x="625.209023" y="338.51"/><use xlink:href="#48d089c2p" x="638.582735" y="338.51"/><use xlink:href="#48d089c2v" x="656.553661" y="338.51"/><use xlink:href="#48d089c2n" x="677.868014" y="338.51"/><use xlink:href="#48d089c2D" x="685.466714" y="338.51"/><use xlink:href="#48d089c2m" x="706.287152" y="338.51"/><use xlink:href="#48d089c2n" x="724.06811" y="338.51"/><use xlink:href="#48d089c2q" x="731.66681" y="338.51"/><use xlink:href="#48d089c2n" x="749.295794" y="338.51"/><use xlink:href="#48d089c2y" x="756.894494" y="338.51"/><use xlink:href="#48d089c2q" x="789.682885" y="338.51"/><use xlink:href="#48d089c2v" x="807.311869" y="338.51"/><use xlink:href="#48d089c2z" x="828.626222" y="338.51"/><use xlink:href="#48d089c2n" x="836.224922" y="338.51"/><use xlink:href="#48d089c2H" x="843.823622" y="338.51"/><use xlink:href="#48d089c2p" x="865.175969" y="338.51"/><use xlink:href="#48d089c2n" x="883.146895" y="338.51"/><use xlink:href="#48d089c2G" x="890.745595" y="338.51"/><use xlink:href="#48d089c2m" x="906.930826" y="338.51"/><use xlink:href="#48d089c2y" x="924.711784" y="338.51"/><use xlink:href="#48d089c2I" x="957.500174" y="338.51"/><use xlink:href="#48d089c2q" x="978.586567" y="338.51"/><use xlink:href="#48d089c2C" x="996.215551" y="338.51"/><use xlink:href="#48d089c2F" x="1009.589263" y="338.51"/><use xlink:href="#48d089c2p" x="1030.865623" y="338.51"/><use xlink:href="#48d089c2C" x="1048.836548" y="338.51"/><use xlink:href="#48d089c2B" x="1062.21026" y="338.51"/><use xlink:href="#48d089c2J" x="1072.658473" y="338.51"/><use xlink:href="#48d089c2K" x="1089.869528" y="338.51"/><use xlink:href="#48d089c2n" x="1097.468228" y="338.51"/><use xlink:href="#48d089c2D" x="1105.066928" y="338.51"/><use xlink:href="#48d089c2p" x="1125.887366" y="338.51"/><use xlink:href="#48d089c2n" x="1143.858292" y="338.51"/></g><g><use xlink:href="#48d089c2C" x="230.684519" y="388.518"/><use xlink:href="#48d089c2p" x="244.058231" y="388.518"/><use xlink:href="#48d089c2v" x="262.029156" y="388.518"/><use xlink:href="#48d089c2o" x="283.34351" y="388.518"/><use xlink:href="#48d089c2p" x="304.125954" y="388.518"/><use xlink:href="#48d089c2r" x="322.09688" y="388.518"/><use xlink:href="#48d089c2K" x="336.42043" y="388.518"/><use xlink:href="#48d089c2n" x="344.01913" y="388.518"/><use xlink:href="#48d089c2L" x="351.61783" y="388.518"/><use xlink:href="#48d089c2q" x="374.603897" y="388.518"/><use xlink:href="#48d089c2C" x="392.232881" y="388.518"/><use xlink:href="#48d089c2C" x="405.606593" y="388.518"/><use xlink:href="#48d089c2p" x="418.980305" y="388.518"/><use xlink:href="#48d089c2r" x="436.951231" y="388.518"/><use xlink:href="#48d089c2K" x="451.27478" y="388.518"/><use xlink:href="#48d089c2n" x="458.87348" y="388.518"/><use xlink:href="#48d089c2o" x="466.47218" y="388.518"/><use xlink:href="#48d089c2p" x="487.254625" y="388.518"/><use xlink:href="#48d089c2J" x="505.22555" y="388.518"/><use xlink:href="#48d089c2p" x="522.436606" y="388.518"/><use xlink:href="#48d089c2B" x="540.407531" y="388.518"/><use xlink:href="#48d089c2M" x="550.855744" y="388.518"/><use xlink:href="#48d089c2p" x="568.484728" y="388.518"/><use xlink:href="#48d089c2K" x="586.455653" y="388.518"/><use xlink:href="#48d089c2n" x="594.054353" y="388.518"/><use xlink:href="#48d089c2u" x="601.653053" y="388.518"/><use xlink:href="#48d089c2G" x="623.0054" y="388.518"/><use xlink:href="#48d089c2p" x="639.190631" y="388.518"/><use xlink:href="#48d089c2n" x="657.161557" y="388.518"/><use xlink:href="#48d089c2q" x="664.760257" y="388.518"/><use xlink:href="#48d089c2N" x="682.389241" y="388.518"/><use xlink:href="#48d089c2N" x="692.91344" y="388.518"/><use xlink:href="#48d089c2n" x="703.43764" y="388.518"/><use xlink:href="#48d089c2C" x="711.03634" y="388.518"/><use xlink:href="#48d089c2F" x="724.410052" y="388.518"/><use xlink:href="#48d089c2p" x="745.686412" y="388.518"/><use xlink:href="#48d089c2n" x="763.657337" y="388.518"/><use xlink:href="#48d089c2q" x="771.256037" y="388.518"/><use xlink:href="#48d089c2r" x="788.885021" y="388.518"/><use xlink:href="#48d089c2C" x="803.208571" y="388.518"/><use xlink:href="#48d089c2G" x="816.582283" y="388.518"/><use xlink:href="#48d089c2n" x="832.767514" y="388.518"/><use xlink:href="#48d089c2q" x="840.366214" y="388.518"/><use xlink:href="#48d089c2v" x="857.995198" y="388.518"/><use xlink:href="#48d089c2o" x="879.309551" y="388.518"/><use xlink:href="#48d089c2n" x="900.091996" y="388.518"/><use xlink:href="#48d089c2x" x="907.690696" y="388.518"/><use xlink:href="#48d089c2B" x="935.881873" y="388.518"/><use xlink:href="#48d089c2N" x="946.330085" y="388.518"/><use xlink:href="#48d089c2p" x="956.854285" y="388.518"/><use xlink:href="#48d089c2G" x="974.82521" y="388.518"/><use xlink:href="#48d089c2n" x="991.010441" y="388.518"/><use xlink:href="#48d089c2t" x="998.609141" y="388.518"/><use xlink:href="#48d089c2O" x="1018.555729" y="388.518"/><use xlink:href="#48d089c2n" x="1031.017597" y="388.518"/><use xlink:href="#48d089c2t" x="1038.616297" y="388.518"/><use xlink:href="#48d089c2u" x="1058.562884" y="388.518"/><use xlink:href="#48d089c2r" x="1079.915231" y="388.518"/><use xlink:href="#48d089c2n" x="1094.238781" y="388.518"/><use xlink:href="#48d089c2G" x="1101.837481" y="388.518"/><use xlink:href="#48d089c2p" x="1118.022712" y="388.518"/><use xlink:href="#48d089c2P" x="1135.993637" y="388.518"/><use xlink:href="#48d089c2z" x="1154.230517" y="388.518"/><use xlink:href="#48d089c2n" x="1161.829217" y="388.518"/></g><g><use xlink:href="#48d089c2Q" x="231.254422" y="438.526"/><use xlink:href="#48d089c2p" x="256.558092" y="438.526"/><use xlink:href="#48d089c2M" x="274.529018" y="438.526"/><use xlink:href="#48d089c2p" x="292.158002" y="438.526"/><use xlink:href="#48d089c2r" x="310.128928" y="438.526"/><use xlink:href="#48d089c2n" x="324.452477" y="438.526"/><use xlink:href="#48d089c2N" x="332.051177" y="438.526"/><use xlink:href="#48d089c2p" x="342.575377" y="438.526"/><use xlink:href="#48d089c2C" x="360.546302" y="438.526"/><use xlink:href="#48d089c2n" x="373.920014" y="438.526"/><use xlink:href="#48d089c2q" x="381.518714" y="438.526"/><use xlink:href="#48d089c2v" x="399.147698" y="438.526"/><use xlink:href="#48d089c2m" x="420.462052" y="438.526"/><use xlink:href="#48d089c2D" x="438.24301" y="438.526"/><use xlink:href="#48d089c2t" x="459.063448" y="438.526"/><use xlink:href="#48d089c2o" x="479.010035" y="438.526"/><use xlink:href="#48d089c2m" x="499.79248" y="438.526"/><use xlink:href="#48d089c2n" x="517.573438" y="438.526"/><use xlink:href="#48d089c2w" x="525.172138" y="438.526"/><use xlink:href="#48d089c2u" x="543.712966" y="438.526"/><use xlink:href="#48d089c2p" x="565.065313" y="438.526"/><use xlink:href="#48d089c2G" x="583.036238" y="438.526"/><use xlink:href="#48d089c2G" x="599.221469" y="438.526"/><use xlink:href="#48d089c2n" x="615.4067" y="438.526"/><use xlink:href="#48d089c2C" x="623.0054" y="438.526"/><use xlink:href="#48d089c2F" x="636.379112" y="438.526"/><use xlink:href="#48d089c2q" x="657.655472" y="438.526"/><use xlink:href="#48d089c2C" x="675.284456" y="438.526"/><use xlink:href="#48d089c2n" x="688.658168" y="438.526"/><use xlink:href="#48d089c2m" x="696.256868" y="438.526"/><use xlink:href="#48d089c2t" x="714.037826" y="438.526"/><use xlink:href="#48d089c2u" x="733.984414" y="438.526"/><use xlink:href="#48d089c2n" x="755.336761" y="438.526"/><use xlink:href="#48d089c2F" x="762.935461" y="438.526"/><use xlink:href="#48d089c2q" x="784.211821" y="438.526"/><use xlink:href="#48d089c2M" x="801.840805" y="438.526"/><use xlink:href="#48d089c2p" x="819.469789" y="438.526"/><use xlink:href="#48d089c2n" x="837.440714" y="438.526"/><use xlink:href="#48d089c2q" x="845.039414" y="438.526"/><use xlink:href="#48d089c2n" x="862.668398" y="438.526"/><use xlink:href="#48d089c2y" x="870.267098" y="438.526"/><use xlink:href="#48d089c2B" x="903.055489" y="438.526"/><use xlink:href="#48d089c2v" x="913.503701" y="438.526"/><use xlink:href="#48d089c2o" x="934.818055" y="438.526"/><use xlink:href="#48d089c2n" x="955.600499" y="438.526"/><use xlink:href="#48d089c2t" x="963.199199" y="438.526"/><use xlink:href="#48d089c2O" x="983.145787" y="438.526"/><use xlink:href="#48d089c2n" x="995.607655" y="438.526"/><use xlink:href="#48d089c2m" x="1003.206355" y="438.526"/><use xlink:href="#48d089c2t" x="1020.987313" y="438.526"/><use xlink:href="#48d089c2u" x="1040.9339" y="438.526"/><use xlink:href="#48d089c2r" x="1062.286247" y="438.526"/><use xlink:href="#48d089c2n" x="1076.609797" y="438.526"/><use xlink:href="#48d089c2t" x="1084.208497" y="438.526"/><use xlink:href="#48d089c2x" x="1104.155084" y="438.526"/><use xlink:href="#48d089c2v" x="1132.346261" y="438.526"/><use xlink:href="#48d089c2z" x="1153.660615" y="438.526"/><use xlink:href="#48d089c2n" x="1161.259315" y="438.526"/></g><g><use xlink:href="#48d089c2R" x="543.522998" y="488.534"/><use xlink:href="#48d089c2D" x="567.64887" y="488.534"/><use xlink:href="#48d089c2t" x="588.469308" y="488.534"/><use xlink:href="#48d089c2M" x="608.415896" y="488.534"/><use xlink:href="#48d089c2p" x="626.04488" y="488.534"/><use xlink:href="#48d089c2n" x="644.015805" y="488.534"/><use xlink:href="#48d089c2q" x="651.614505" y="488.534"/><use xlink:href="#48d089c2N" x="669.243489" y="488.534"/><use xlink:href="#48d089c2N" x="679.767689" y="488.534"/><use xlink:href="#48d089c2s" x="690.291888" y="488.534"/><use xlink:href="#48d089c2n" x="698.080556" y="488.534"/><use xlink:href="#48d089c2D" x="705.679256" y="488.534"/><use xlink:href="#48d089c2p" x="726.499694" y="488.534"/><use xlink:href="#48d089c2n" x="744.470619" y="488.534"/><use xlink:href="#48d089c2I" x="752.069319" y="488.534"/><use xlink:href="#48d089c2u" x="773.155712" y="488.534"/><use xlink:href="#48d089c2r" x="794.508059" y="488.534"/><use xlink:href="#48d089c2p" x="808.831608" y="488.534"/><use xlink:href="#48d089c2z" x="826.802534" y="488.534"/><use xlink:href="#48d089c2k" x="834.401234" y="488.534"/></g><g fill="#12100b"><use xlink:href="#48d089c2S" x="641.8555" y="713.4023"/><use xlink:href="#48d089c2T" x="650.41396" y="713.4023"/><use xlink:href="#48d089c2U" x="655.98352" y="713.4023"/></g><g fill="#12100b"><use xlink:href="#48d089c2f" x="664.64404" y="713.4023"/><use xlink:href="#48d089c2d" x="668.56606" y="713.4023"/><use xlink:href="#48d089c2V" x="678.07222" y="713.4023"/><use xlink:href="#48d089c2W" x="686.87854" y="713.4023"/></g></svg>