<svg xmlns="http://www.w3.org/2000/svg" viewBox="0 0 1366 768"><defs><style>.cls-1{fill:#12100b;}.cls-2{fill:#fff;}.cls-3{fill:#c1d11a;}</style></defs><g id="Layer_1" data-name="Layer 1"><rect class="cls-1" x="-40.27" y="-79.94" width="1446.07" height="930.38"/><path class="cls-2" d="M428.42,83.89v69.16l8.23,1v5.71h-29v-5.71l8.8-1h.23V83.89l-8.8-1V77.15h28.92v5.71Z"/><path class="cls-2" d="M511.79,97c-1.15-4.35-2.52-8.8-4.12-13.15H486v69.16l10.63,1v5.71H464.24v-5.71l9.94-1V83.89H451.66c-1.6,4.35-3,8.8-4.11,13.15l-5.72-.69,1.94-19.2h71.79l1.94,19.2Z"/><path class="cls-2" d="M627,154.42l-3.2,5.37c-19.43-8.11-31.78-21.6-39.89-37H572.6v30.29l9.6,1v5.71H552v-5.71l8.81-1V83.89l-8.69-1V77.15h35.78c19.31,0,30.86,8,30.86,22.29,0,12.11-9.26,19.43-21.15,22.06C604.15,135,613.06,145.05,627,154.42ZM584.49,116c13.71,0,21.37-5.48,21.37-16.57,0-10.52-9-15.43-21.94-15.43-2.06,0-7.21,0-11.32-.12V116Z"/><path class="cls-2" d="M715.54,154.08v5.71H685.37v-5.71l8.8-1-7.32-18.41H653l-6.63,18.41,9.71,1v5.71H631.18v-5.71l8.35-1L667,77.15h9.15l31.43,75.9ZM683.76,127l-14.85-36.7L655.76,127Z"/><path class="cls-2" d="M741.92,83.89v69.16l8.23,1v5.71h-29v-5.71l8.8-1h.23V83.89l-8.8-1V77.15h28.92v5.71Z"/><path class="cls-2" d="M812.89,138.42c0,13-9.72,23.2-28.35,23.2a54,54,0,0,1-25.37-6.17l-.8-21h5.82a108.46,108.46,0,0,0,5,15.2c4.12,3.31,9.61,4.68,15.66,4.68,9.72,0,16.69-4.91,16.69-14.28,0-6.29-4.11-11-11.2-14.29l-18-8.46c-8.91-4.23-13.94-10.4-13.94-20.57,0-12.81,10.52-21.27,24.57-21.27,7.21,0,12.92,1.49,17.84,4.46a14.69,14.69,0,0,0,.68-4.46h6.63L808.54,99h-5.83a100.55,100.55,0,0,0-4-11.66c-4.45-3.54-9-4.68-14.51-4.68-9.26,0-14.63,3.77-14.63,11,0,5.37,3.65,8.92,8,11.09l20,10.17C806.94,119.67,812.89,127,812.89,138.42Zm-40.47,16.91-.45-.68A2.23,2.23,0,0,1,772.42,155.33Z"/><path class="cls-2" d="M883.66,140.36l-6.75,19.43H819.07v-5.71l8.58-1V83.89l-8.58-1V77.15h55.67l6.74,19.43-4.68,2.06c-4.35-9.37-10.4-14.75-19.89-14.75H839.42v30.29h26.29l1.14-6.63h5.6v21.72h-5.6l-1.25-8.34H839.42v32.12h19.66c9.49,0,15.55-5.38,19.89-14.75Z"/><path class="cls-2" d="M948.12,138.42c0,13-9.72,23.2-28.35,23.2a54.11,54.11,0,0,1-25.38-6.17l-.8-21h5.83a108.46,108.46,0,0,0,5,15.2c4.12,3.31,9.6,4.68,15.66,4.68,9.72,0,16.69-4.91,16.69-14.28,0-6.29-4.12-11-11.2-14.29l-18-8.46c-8.91-4.23-13.94-10.4-13.94-20.57,0-12.81,10.51-21.27,24.57-21.27,7.2,0,12.92,1.49,17.83,4.46a14.4,14.4,0,0,0,.69-4.46h6.63L943.77,99h-5.83a100.55,100.55,0,0,0-4-11.66c-4.46-3.54-9-4.68-14.51-4.68-9.26,0-14.64,3.77-14.64,11,0,5.37,3.66,8.92,8,11.09l20,10.17C942.17,119.67,948.12,127,948.12,138.42Zm-40.47,16.91-.45-.68A2.43,2.43,0,0,1,907.65,155.33Z"/><path class="cls-2" d="M277.47,248.25a35.67,35.67,0,0,1-30.86,17.37c-24.92,0-40.81-19-40.81-43.21,0-23.09,16-42.86,41.26-42.86a35.47,35.47,0,0,1,19,4.91l-.92-5,6.63-1,4.8,22.51-7.31,1.6c-4.46-10.28-11-16.57-23.66-16.57-19.2,0-26.86,16.92-26.86,36.69,0,18.86,10.86,34.29,29.72,34.29,10.51,0,17.94-4.68,24.11-12.23Z"/><path class="cls-2" d="M324.77,265.62c-24.46,0-41.15-19.55-41.15-43.21s15.2-42.63,40.46-42.86c24.58-.23,41.15,19.66,41.15,42.63C365.23,246.07,350.83,265.62,324.77,265.62Zm2.29-6.86c17.94,0,25.26-16.57,25.26-32.8,0-21.72-9.37-39.55-29.38-39.55-19.2,0-26.4,15.54-26.4,34.52C296.54,240.82,305.68,258.76,327.06,258.76Z"/><path class="cls-2" d="M452.67,186.86l-8.34,1v75.79h-8.92l-49.15-68.24v61.61l8.34,1v5.71H370.83v-5.71l8.8-1V187.89l-8.8-1v-5.71h20.23l46.52,65.27V187.89l-8.8-1v-5.71h23.89Z"/><path class="cls-2" d="M515.28,242.42c0,13-9.72,23.2-28.35,23.2a54.07,54.07,0,0,1-25.37-6.17l-.8-21h5.83a105.89,105.89,0,0,0,5,15.2c4.11,3.31,9.6,4.68,15.66,4.68C497,258.3,504,253.39,504,244c0-6.29-4.11-11-11.2-14.29l-17.94-8.46c-8.92-4.23-13.95-10.4-13.95-20.57,0-12.81,10.52-21.27,24.58-21.27,7.2,0,12.91,1.49,17.83,4.46a14.39,14.39,0,0,0,.68-4.46h6.63l.35,23.55h-5.83a102.48,102.48,0,0,0-4-11.66c-4.46-3.54-9-4.68-14.52-4.68-9.26,0-14.63,3.77-14.63,11,0,5.37,3.66,8.92,8,11.09l20,10.17C509.34,223.67,515.28,231,515.28,242.42Zm-40.46,16.91-.46-.68A2.48,2.48,0,0,1,474.82,259.33Z"/><path class="cls-2" d="M594.7,248.25a35.67,35.67,0,0,1-30.86,17.37c-24.92,0-40.81-19-40.81-43.21,0-23.09,16-42.86,41.27-42.86a35.46,35.46,0,0,1,19,4.91l-.91-5,6.63-1,4.8,22.51-7.32,1.6C582,192.24,575.5,186,562.81,186c-19.2,0-26.86,16.92-26.86,36.69,0,18.86,10.86,34.29,29.72,34.29,10.51,0,17.94-4.68,24.12-12.23Z"/><path class="cls-2" d="M621.68,187.89v69.16l8.23,1v5.71h-29v-5.71l8.8-1h.23V187.89l-8.8-1v-5.71H630v5.71Z"/><path class="cls-2" d="M676.39,265.62c-24.46,0-41.15-19.55-41.15-43.21s15.2-42.63,40.46-42.86c24.58-.23,41.15,19.66,41.15,42.63C716.85,246.07,702.45,265.62,676.39,265.62Zm2.28-6.86c18,0,25.26-16.57,25.26-32.8,0-21.72-9.37-39.55-29.37-39.55-19.2,0-26.41,15.54-26.41,34.52C648.15,240.82,657.3,258.76,678.67,258.76Z"/><path class="cls-2" d="M800.29,186.86l-8.35,1v47.9c-.11,18.86-10.74,29.72-29.83,29.72-19.32,0-32.81-8.69-32.92-29.72v-47.9l-8.8-1v-5.71h28.92v5.71l-8.35,1v47.55c0,13.38,7.43,21.72,23.43,21.72,13.15,0,20.81-6.51,20.81-21V187.89l-8.8-1v-5.71h23.89Z"/><path class="cls-2" d="M861.28,242.42c0,13-9.71,23.2-28.34,23.2a54.11,54.11,0,0,1-25.38-6.17l-.8-21h5.83a105.89,105.89,0,0,0,5,15.2c4.11,3.31,9.6,4.68,15.66,4.68C843,258.3,850,253.39,850,244c0-6.29-4.12-11-11.21-14.29l-17.94-8.46c-8.92-4.23-14-10.4-14-20.57,0-12.81,10.52-21.27,24.58-21.27,7.2,0,12.92,1.49,17.83,4.46a14.4,14.4,0,0,0,.69-4.46h6.63l.34,23.55h-5.83a100.55,100.55,0,0,0-4-11.66c-4.46-3.54-9-4.68-14.52-4.68-9.26,0-14.63,3.77-14.63,11,0,5.37,3.66,8.92,8,11.09l20,10.17C855.34,223.67,861.28,231,861.28,242.42Zm-40.46,16.91-.46-.68A2.27,2.27,0,0,1,820.82,259.33Z"/><path class="cls-2" d="M950,186.86l-8.34,1v75.79h-8.92l-49.15-68.24v61.61l8.34,1v5.71H868.19v-5.71l8.8-1V187.89l-8.8-1v-5.71h20.23l46.52,65.27V187.89l-8.8-1v-5.71H950Z"/><path class="cls-2" d="M1021.68,244.36l-6.74,19.43H957.1v-5.71l8.57-1V187.89l-8.57-1v-5.71h55.67l6.74,19.43-4.69,2.06c-4.34-9.37-10.4-14.75-19.89-14.75H977.45v30.29h26.29l1.14-6.63h5.6v21.72h-5.6l-1.26-8.34H977.45v32.12h19.66c9.48,0,15.54-5.38,19.89-14.75Z"/><path class="cls-2" d="M1086.14,242.42c0,13-9.71,23.2-28.35,23.2a54.07,54.07,0,0,1-25.37-6.17l-.8-21h5.83a105.89,105.89,0,0,0,5,15.2c4.11,3.31,9.6,4.68,15.66,4.68,9.71,0,16.69-4.91,16.69-14.28,0-6.29-4.12-11-11.21-14.29l-17.94-8.46c-8.92-4.23-14-10.4-14-20.57,0-12.81,10.52-21.27,24.58-21.27,7.2,0,12.91,1.49,17.83,4.46a14.4,14.4,0,0,0,.69-4.46h6.63l.34,23.55H1076a102.48,102.48,0,0,0-4-11.66c-4.46-3.54-9-4.68-14.52-4.68-9.26,0-14.63,3.77-14.63,11,0,5.37,3.66,8.92,8,11.09l20,10.17C1080.2,223.67,1086.14,231,1086.14,242.42Zm-40.46,16.91-.46-.68A2.48,2.48,0,0,1,1045.68,259.33Z"/><path class="cls-2" d="M1151.42,242.42c0,13-9.71,23.2-28.34,23.2a54.11,54.11,0,0,1-25.38-6.17l-.8-21h5.83a105.89,105.89,0,0,0,5,15.2c4.11,3.31,9.6,4.68,15.66,4.68,9.71,0,16.69-4.91,16.69-14.28,0-6.29-4.12-11-11.2-14.29l-18-8.46c-8.92-4.23-14-10.4-14-20.57,0-12.81,10.52-21.27,24.58-21.27,7.2,0,12.92,1.49,17.83,4.46a14.4,14.4,0,0,0,.69-4.46h6.63l.34,23.55h-5.83a100.55,100.55,0,0,0-4-11.66c-4.46-3.54-9-4.68-14.52-4.68-9.26,0-14.63,3.77-14.63,11,0,5.37,3.66,8.92,8,11.09l20,10.17C1145.48,223.67,1151.42,231,1151.42,242.42ZM1111,259.33l-.46-.68A2.27,2.27,0,0,1,1111,259.33Z"/><path class="cls-2" d="M151.52,291.89v69.16l8.23,1v5.71h-29v-5.71l8.8-1h.23V291.89l-8.8-1v-5.71h28.91v5.71Z"/><path class="cls-2" d="M249.15,290.86l-8.35,1v75.79h-8.91l-49.15-68.24v61.61l8.34,1v5.71H167.31v-5.71l8.8-1V291.89l-8.8-1v-5.71h20.23l46.52,65.27V291.89l-8.8-1v-5.71h23.89Z"/><path class="cls-2" d="M337.77,290.86l-8.23,1-29.26,75.79h-4.8l-32.58-75.9-8.23-.92v-5.71h29.49v5.71l-8,1,24.35,58,22.06-58h-.23l-8.8-1v-5.71h24.23Z"/><path class="cls-2" d="M364.23,291.89v69.16l8.23,1v5.71h-29v-5.71l8.8-1h.23V291.89l-8.8-1v-5.71h28.92v5.71Z"/><path class="cls-2" d="M447.59,305c-1.15-4.35-2.52-8.8-4.12-13.15H421.75v69.16l10.63,1v5.71H400v-5.71l9.94-1V291.89H387.46c-1.6,4.35-3,8.8-4.11,13.15l-5.72-.69,1.95-19.2h71.78l1.94,19.2Z"/><path class="cls-2" d="M523.33,348.36l-6.75,19.43H458.75v-5.71l8.57-1V291.89l-8.57-1v-5.71h55.66l6.75,19.43-4.69,2.06c-4.34-9.37-10.4-14.75-19.89-14.75H479.09v30.29h26.29l1.15-6.63h5.6v21.72h-5.6l-1.26-8.34H479.09v32.12h19.66c9.49,0,15.55-5.38,19.89-14.75Z"/><path class="cls-2" d="M587.79,346.42c0,13-9.72,23.2-28.35,23.2a54.07,54.07,0,0,1-25.37-6.17l-.8-21h5.83a107.31,107.31,0,0,0,5,15.2c4.12,3.31,9.61,4.68,15.67,4.68,9.71,0,16.68-4.91,16.68-14.28,0-6.29-4.11-11-11.2-14.29l-17.94-8.46c-8.92-4.23-14-10.4-14-20.57,0-12.81,10.52-21.27,24.58-21.27,7.2,0,12.91,1.49,17.83,4.46a14.39,14.39,0,0,0,.68-4.46h6.63l.35,23.55h-5.83a102.48,102.48,0,0,0-4-11.66c-4.46-3.54-9-4.68-14.52-4.68-9.26,0-14.63,3.77-14.63,11,0,5.37,3.66,8.92,8,11.09l20,10.17C581.85,327.67,587.79,335,587.79,346.42Zm-40.46,16.91-.46-.68A2.48,2.48,0,0,1,547.33,363.33Z"/><path class="cls-2" d="M703.24,325.73c0,24.57-16.46,42.06-44.92,42.06H627.23v-5.71l8.68-1V291.89l-8.68-1v-5.71h34.52C687.92,285.15,703.24,302.41,703.24,325.73Zm-11.66,0c0-19.78-11.32-33.84-32.23-33.84H647.57v69.16c3.55.11,7.89.11,10.4.11C681.18,361.16,691.58,347.45,691.58,325.73Z"/><path class="cls-2" d="M728.8,291.89v69.16l8.23,1v5.71H708v-5.71l8.8-1H717V291.89l-8.8-1v-5.71h28.92v5.71Z"/><path class="cls-2" d="M827.14,362.08v5.71H797v-5.71l8.8-1-7.31-18.41H764.61L758,361.05l9.71,1v5.71H742.78v-5.71l8.35-1,27.43-75.9h9.14l31.44,75.9ZM795.36,335l-14.86-36.7L767.36,335Z"/><path class="cls-2" d="M897.2,348.36l-6.74,19.43H832.62v-5.71l8.69-1V291.89l-8.81-1v-5.71h28.92v5.71l-8.34,1v69.16h19.55c9.48,0,15.54-5.38,19.88-14.75Z"/><path class="cls-2" d="M941.42,369.62c-24.46,0-41.15-19.55-41.15-43.21s15.2-42.63,40.46-42.86c24.58-.23,41.15,19.66,41.15,42.63C981.88,350.07,967.48,369.62,941.42,369.62Zm2.28-6.86c17.95,0,25.26-16.57,25.26-32.8,0-21.72-9.37-39.55-29.37-39.55-19.21,0-26.41,15.54-26.41,34.52C913.18,344.82,922.33,362.76,943.7,362.76Z"/><path class="cls-2" d="M1073.29,333.5l-8.68.69v27.43c-8.58,5.83-20.23,8-31.09,8-27.32,0-44-19-44-43.21,0-22.63,17.15-42,43.55-42,8.91,0,15.89,1.15,23.09,4a25.26,25.26,0,0,0,.57-5h6.63l.11,26.64h-5.6c-1.48-3.77-3.08-9.26-4.8-13.83-5.48-3.32-11.89-4.8-19.31-4.8-21.49,0-31.32,15.66-31.32,34.06,0,20.34,10.17,36.35,31,36.35,6.75,0,13.95-1.6,19.55-4.92V334.3l-10.86-.8v-6.17h31.2Z"/><path class="cls-2" d="M1154.76,290.86l-8.34,1v47.9c-.12,18.86-10.75,29.72-29.84,29.72-19.31,0-32.8-8.69-32.91-29.72v-47.9l-8.81-1v-5.71h28.92v5.71l-8.34,1v47.55c0,13.38,7.43,21.72,23.43,21.72,13.14,0,20.8-6.51,20.8-21V291.89l-8.8-1v-5.71h23.89Z"/><path class="cls-2" d="M1225.59,348.36l-6.74,19.43H1161v-5.71l8.57-1V291.89l-8.57-1v-5.71h55.66l6.75,19.43-4.69,2.06c-4.34-9.37-10.4-14.75-19.89-14.75h-17.49v30.29h26.29l1.15-6.63h5.6v21.72h-5.6l-1.26-8.34h-26.18v32.12H1201c9.49,0,15.55-5.38,19.89-14.75Z"/><path class="cls-2" d="M216.41,466.08v5.71H186.24v-5.71l8.8-1-7.32-18.41H153.89l-6.63,18.41,9.72,1v5.71H132.06v-5.71l8.34-1,27.43-75.9H177l31.43,75.9ZM184.64,439l-14.86-36.7L156.63,439Z"/><path class="cls-2" d="M304.44,394.86l-8.34,1v75.79h-8.92L238,403.44v61.61l8.35,1v5.71H222.6v-5.71l8.8-1V395.89l-8.8-1v-5.71h20.23l46.53,65.27V395.89l-8.81-1v-5.71h23.89Z"/><path class="cls-2" d="M388,429.73c0,24.57-16.46,42.06-44.92,42.06H312v-5.71l8.69-1V395.89l-8.69-1v-5.71h34.52C372.67,389.15,388,406.41,388,429.73Zm-11.66,0c0-19.78-11.31-33.84-32.23-33.84H332.32v69.16c3.54.11,7.88.11,10.4.11C365.92,465.16,376.32,451.45,376.32,429.73Z"/><path class="cls-2" d="M492.35,409c-1.15-4.35-2.52-8.8-4.12-13.15H466.51v69.16l10.63,1v5.71H444.8v-5.71l9.94-1V395.89H432.22c-1.6,4.35-3,8.8-4.11,13.15l-5.72-.69,1.95-19.2h71.78l1.94,19.2Z"/><path class="cls-2" d="M578.39,466.42l-3.2,5.37c-19.43-8.11-31.78-21.6-39.9-37H524v30.29l9.6,1v5.71H503.4v-5.71l8.81-1V395.89l-8.69-1v-5.71H539.3c19.31,0,30.86,8,30.86,22.29,0,12.11-9.26,19.43-21.15,22.06C555.53,447,564.44,457.05,578.39,466.42ZM535.87,428c13.71,0,21.37-5.48,21.37-16.57,0-10.52-9-15.43-22-15.43-2,0-7.2,0-11.31-.12V428Z"/><path class="cls-2" d="M666.92,466.08v5.71H636.75v-5.71l8.8-1-7.32-18.41H604.4l-6.63,18.41,9.71,1v5.71H582.56v-5.71l8.35-1,27.43-75.9h9.15l31.43,75.9ZM635.14,439l-14.85-36.7L607.14,439Z"/><path class="cls-2" d="M755,394.86l-8.34,1v75.79h-8.92l-49.15-68.24v61.61l8.34,1v5.71H673.11v-5.71l8.8-1V395.89l-8.8-1v-5.71h20.23l46.52,65.27V395.89l-8.8-1v-5.71H755Z"/><path class="cls-2" d="M817.56,450.42c0,13-9.72,23.2-28.35,23.2a54.07,54.07,0,0,1-25.37-6.17l-.8-21h5.83a105.89,105.89,0,0,0,5,15.2c4.11,3.31,9.6,4.68,15.66,4.68,9.71,0,16.69-4.91,16.69-14.28,0-6.29-4.12-11-11.21-14.29l-17.94-8.46c-8.92-4.23-14-10.4-14-20.57,0-12.81,10.52-21.27,24.58-21.27,7.2,0,12.91,1.49,17.83,4.46a14.4,14.4,0,0,0,.69-4.46h6.62l.35,23.55h-5.83a102.48,102.48,0,0,0-4-11.66c-4.46-3.54-9-4.68-14.52-4.68-9.26,0-14.63,3.77-14.63,11,0,5.37,3.66,8.92,8,11.09l20,10.17C811.62,431.67,817.56,439,817.56,450.42ZM777.1,467.33l-.46-.68A2.48,2.48,0,0,1,777.1,467.33Z"/><path class="cls-2" d="M844.16,395.89v31.44h26.29l1.14-6.63h5.61v21.72h-5.61l-1.25-8.35H844.16v31l12.69,1v5.71H823.7v-5.71l8.69-1V395.89l-8.57-1v-5.71h55.66l6.75,19.43-4.69,2.06c-4.34-9.37-10.4-14.75-19.89-14.75Z"/><path class="cls-2" d="M932.52,473.62c-24.46,0-41.15-19.55-41.15-43.21s15.2-42.63,40.46-42.86c24.58-.23,41.15,19.66,41.15,42.63C973,454.07,958.58,473.62,932.52,473.62Zm2.29-6.86c17.94,0,25.26-16.57,25.26-32.8,0-21.72-9.37-39.55-29.38-39.55-19.2,0-26.4,15.54-26.4,34.52C904.29,448.82,913.43,466.76,934.81,466.76Z"/><path class="cls-2" d="M1052.8,466.42l-3.2,5.37c-19.44-8.11-31.78-21.6-39.9-37H998.39v30.29l9.6,1v5.71H977.81v-5.71l8.8-1V395.89l-8.68-1v-5.71h35.77c19.32,0,30.87,8,30.87,22.29,0,12.11-9.26,19.43-21.15,22.06C1029.94,447,1038.85,457.05,1052.8,466.42ZM1010.28,428c13.71,0,21.37-5.48,21.37-16.57,0-10.52-9-15.43-22-15.43-2.05,0-7.2,0-11.31-.12V428Z"/><path class="cls-2" d="M1150,395.89v69.16l8.35,1v5.71h-28.92v-5.71l8.8-1V395.89l-29.38,75.79h-5l-29.61-75.22v68.59l8.34,1v5.71h-23.88v-5.71l8.8-1V395.89l-8.8-1v-5.71h26.74l24.23,63.78L1134,389.15h24.35v5.71Z"/><path class="cls-2" d="M1221.17,450.42c0,13-9.72,23.2-28.35,23.2a54.11,54.11,0,0,1-25.38-6.17l-.8-21h5.83a108.46,108.46,0,0,0,5,15.2c4.12,3.31,9.6,4.68,15.66,4.68,9.72,0,16.69-4.91,16.69-14.28,0-6.29-4.12-11-11.2-14.29l-18-8.46c-8.91-4.23-13.94-10.4-13.94-20.57,0-12.81,10.51-21.27,24.57-21.27,7.2,0,12.92,1.49,17.83,4.46a14.4,14.4,0,0,0,.69-4.46h6.63l.34,23.55H1211a100.55,100.55,0,0,0-4-11.66c-4.46-3.54-9-4.68-14.51-4.68-9.26,0-14.64,3.77-14.64,11,0,5.37,3.66,8.92,8,11.09l20,10.17C1215.22,431.67,1221.17,439,1221.17,450.42Zm-40.47,16.91-.45-.68A2.43,2.43,0,0,1,1180.7,467.33Z"/><path class="cls-2" d="M500.2,560.25a35.67,35.67,0,0,1-30.86,17.37c-24.92,0-40.8-19-40.8-43.21,0-23.09,16-42.86,41.26-42.86a35.44,35.44,0,0,1,19,4.91l-.91-5,6.63-1,4.8,22.51-7.32,1.6C487.52,504.24,481,498,468.31,498c-19.2,0-26.86,16.92-26.86,36.69,0,18.86,10.86,34.29,29.72,34.29,10.52,0,17.95-4.68,24.12-12.23Z"/><path class="cls-2" d="M585.83,498.86l-8.34,1v47.9c-.12,18.86-10.75,29.72-29.83,29.72-19.32,0-32.81-8.69-32.92-29.72v-47.9l-8.81-1v-5.71h28.92v5.71l-8.34,1v47.55c0,13.38,7.43,21.72,23.43,21.72,13.15,0,20.81-6.51,20.81-21V499.89l-8.81-1v-5.71h23.89Z"/><path class="cls-2" d="M656.72,556.36,650,575.79H592.14v-5.71l8.68-1V499.89l-8.8-1v-5.71h28.92v5.71l-8.34,1v69.16h19.54c9.49,0,15.55-5.38,19.89-14.75Z"/><path class="cls-2" d="M716.1,513c-1.14-4.35-2.51-8.8-4.11-13.15H690.27v69.16l10.63,1v5.71H668.55v-5.71l10-1V499.89H656c-1.6,4.35-3,8.8-4.12,13.15l-5.71-.69,1.94-19.2h71.78l2,19.2Z"/><path class="cls-2" d="M806.7,498.86l-8.34,1v47.9c-.12,18.86-10.75,29.72-29.83,29.72-19.32,0-32.81-8.69-32.92-29.72v-47.9l-8.81-1v-5.71h28.92v5.71l-8.34,1v47.55c0,13.38,7.43,21.72,23.43,21.72,13.15,0,20.81-6.51,20.81-21V499.89l-8.81-1v-5.71H806.7Z"/><path class="cls-2" d="M887.82,570.42l-3.2,5.37c-19.43-8.11-31.78-21.6-39.9-37H833.41v30.29l9.6,1v5.71H812.83v-5.71l8.81-1V499.89l-8.69-1v-5.71h35.78c19.31,0,30.86,8,30.86,22.29,0,12.11-9.26,19.43-21.15,22.06C865,551,873.87,561.05,887.82,570.42ZM845.3,532c13.71,0,21.37-5.48,21.37-16.57,0-10.52-9-15.43-21.95-15.43-2.05,0-7.2,0-11.31-.12V532Z"/><path class="cls-2" d="M957.61,556.36l-6.75,19.43H893v-5.71l8.58-1V499.89l-8.58-1v-5.71h55.67l6.74,19.43-4.68,2.06c-4.35-9.37-10.4-14.75-19.89-14.75H913.37v30.29h26.29l1.14-6.63h5.6v21.72h-5.6l-1.26-8.34H913.37v32.12H933c9.49,0,15.55-5.38,19.89-14.75Z"/><path d="M65.24,47.72v24.2l3.11.36v2h-11v-2l3.33-.36h.08V47.72l-3.32-.36v-2H68.4v2Z"/><path d="M95.87,72.28v2H84.94v-2l3.33-.36V62c0-2.92-.91-5.24-3.8-5.24-2.59,0-4.45,1.76-5.88,3.64V71.92l3.16.36v2H70.82v-2l3.32-.36V59l-3.41-.16V57.68l6.61-4h1.25v4H79c1.77-2,4.24-4,7.39-4,3.89,0,6.31,3,6.31,6.84V71.92Z"/><path d="M110.94,71.44c-1.33,1.6-4.23,3.48-6.65,3.48-2.94,0-4.62-1.2-4.71-4V56.88H95.7V55.36l8.07-5.84h1.13L104,54.28h6.61v2.6H104V69c0,1.76.78,2.52,2.33,2.52a6.37,6.37,0,0,0,3.55-1.48Z"/><path d="M130.8,57.2,127,60.08c-.95-1.52-1.43-2.16-2.46-2.16s-2,1.28-3.85,3.84V71.92l3.59.36v2H112.88v-2l3.32-.36V59l-3.41-.16V57.68l6.61-4h1.25V59H121c1.9-2.68,3.67-5.4,5.87-5.4C128.73,53.64,129.68,55.24,130.8,57.2Z"/><path d="M142.74,53.68c6.79,0,11.23,4.76,11.23,10.68a10.32,10.32,0,0,1-10.79,10.56A10.75,10.75,0,0,1,132,64.24C132,58.32,136.22,53.68,142.74,53.68Zm-6.35,9.68c0,4.52,2.64,9,7.26,9,3.76,0,5.88-3,5.88-7.12,0-5-2.81-9.24-7.26-9.24C138.51,56,136.39,59.08,136.39,63.36Z"/><path class="cls-2" d="M315.72,695.66c-16.64,0-28-12.32-28-27.22s10.34-26.86,27.53-27c16.72-.14,28,12.39,28,26.86C343.24,683.34,333.44,695.66,315.72,695.66Zm1.55-4.33c12.21,0,17.19-10.44,17.19-20.66,0-13.68-6.38-24.92-20-24.92-13.06,0-18,9.8-18,21.75C296.51,680,302.73,691.33,317.27,691.33Z"/><path class="cls-2" d="M390.71,690.9v3.6H371v-3.6l6-.65V672.11c0-5-1.63-9.07-6.92-9.07-4.43,0-7.39,2.66-10.58,6.76v20.45l5.68.65v3.6H345.54v-3.6l6-.65V650.79l-6.22-.71v-2.16L360.7,640l2.57,4-3.74,2.17v18.64h.86c3.34-3.88,7.93-7.41,13.76-7.41,7.31,0,10.89,5.4,10.89,12.38v20.52Z"/><path class="cls-2" d="M456.5,682.26l-4.59,12.24H412.56v-3.6l5.91-.65V646.69l-6-.65v-3.6h19.67V646l-5.68.65v43.56h13.3c6.45,0,10.58-3.38,13.53-9.28Z"/><path class="cls-2" d="M478.33,657.42c12.2,0,20.21,8.57,20.21,19.23,0,10.29-7.46,19-19.44,19-12.83,0-20.14-9.8-20.14-19.23C459,665.77,466.58,657.42,478.33,657.42Zm-11.44,17.43c0,8.13,4.75,16.2,13.07,16.2,6.76,0,10.57-5.4,10.57-12.82,0-8.93-5-16.63-13.06-16.63C470.71,661.6,466.89,667.14,466.89,674.85Z"/><path class="cls-2" d="M533.71,663.76l-6.92,5.18c-1.72-2.74-2.57-3.89-4.44-3.89s-3.65,2.31-6.92,6.91v18.29l6.46.65v3.6H501.44v-3.6l6-.65V667l-6.14-.29v-2.09l11.9-7.2h2.25v9.65h.62c3.43-4.83,6.61-9.72,10.58-9.72C530,657.35,531.68,660.23,533.71,663.76Z"/><path class="cls-2" d="M578.2,685v4.25l-11.9,6.48h-1.48v-5.55H564c-3,3-7.08,5.48-12,5.48-11,0-17-9.08-17-18.44,0-10.94,7.7-19.87,18.51-19.87A21,21,0,0,1,564,660.3v-9.51l-6.22-.71v-2.16L573.14,640l2.57,4L572,646.12v42ZM564,686.8V667.43a12.5,12.5,0,0,0-10-5.4c-7.39,0-11,6.05-11,13.18,0,7.92,4,14.9,12.06,14.9A13.64,13.64,0,0,0,564,686.8Z"/><path class="cls-2" d="M594,690.18a5.11,5.11,0,1,1-5.14-4.68A4.9,4.9,0,0,1,594,690.18Zm-.16-49.68-2.72,34.13H587l-2.72-34.13Z"/><path class="cls-2" d="M664.11,662.1l-5.67.65-12.68,28.44.08.07h-.08l-8.71,19.59H627.8l11.27-16.2-13.84-32-5.05-.58v-3.6h19.75v3.6l-5.68.65h-.07l9.56,23.4,10.11-23.4-5.91-.65v-3.6h16.17Z"/><path class="cls-2" d="M698.53,687c-2.72,4.76-7.78,8.65-15.71,8.65-12,0-18.89-8.65-18.89-18.58,0-10.44,6.37-19.73,18.58-19.73,9.25,0,15.71,6.62,15.94,16.56H671.62c0,7.7,4.36,16,13.61,16,4.36,0,7.93-1.29,10.81-4.53Zm-26.67-17h17.65c-.78-4.9-3.34-8.42-8.79-8.42C675.67,661.6,672.63,665.77,671.86,670Z"/><path class="cls-2" d="M703.72,667.36c0-7.06,6.37-10,12.83-10,5.05,0,7.31.5,12.2,1.44V670h-3.57c-.78-5.62-2.8-8.93-8.71-8.93-3.66,0-5.91,1.8-5.91,4.82S712.66,670,715,671l8,3.46c5,2.16,8.24,5.32,8.24,10.29,0,6.63-4.74,10.88-13.76,10.88A46.7,46.7,0,0,1,704,693.85V682.19h3.5c.54,7.34,4.51,9.43,9.41,9.43,4.35,0,7.46-1.65,7.46-5,0-3.17-1.71-4.39-5.13-5.83l-6.92-2.88C708,676.07,703.72,673.55,703.72,667.36Z"/><path class="cls-2" d="M747.7,686.65v5.4l-9.56,13h-3.66l5.45-18.44Z"/><path class="cls-2" d="M803.77,690.9v3.6H784.09v-3.6l6-.65V667l-6.14-.29v-2.09l11.9-7.2h2.25v32.83Zm-14.31-46.08a5.11,5.11,0,1,1,5,4.68A4.87,4.87,0,0,1,789.46,644.82Z"/><path class="cls-2" d="M852.52,690.9v3.6H832.85v-3.6l6-.65V672.47c0-5.26-1.63-9.43-6.84-9.43-4.66,0-8,3.16-10.57,6.55v20.66l5.67.65v3.6H807.42v-3.6l6-.65V667l-6.15-.29v-2.09l11.9-7.2h2.26v7.2h.77c3.19-3.6,7.62-7.27,13.3-7.27,7,0,11.35,5.33,11.35,12.31v20.59Z"/><path class="cls-2" d="M896.88,685v4.25L885,695.73H883.5v-5.55h-.86c-2.95,3-7.07,5.48-12,5.48-11,0-16.95-9.08-16.95-18.44,0-10.94,7.7-19.87,18.5-19.87a20.9,20.9,0,0,1,10.42,2.95v-9.51l-6.22-.71v-2.16l15.4-7.93,2.57,4-3.74,2.17v42Zm-14.24,1.8V667.43a12.49,12.49,0,0,0-9.95-5.4c-7.39,0-11,6.05-11,13.18,0,7.92,4,14.9,12.05,14.9A13.64,13.64,0,0,0,882.64,686.8Z"/><path class="cls-2" d="M934.37,687c-2.72,4.76-7.78,8.65-15.71,8.65-12,0-18.89-8.65-18.89-18.58,0-10.44,6.37-19.73,18.58-19.73,9.25,0,15.71,6.62,15.94,16.56H907.46c0,7.7,4.36,16,13.61,16,4.36,0,7.93-1.29,10.81-4.53ZM907.7,670h17.65c-.78-4.9-3.34-8.42-8.79-8.42C911.51,661.6,908.48,665.77,907.7,670Z"/><path class="cls-2" d="M973,687c-2.72,4.76-7.78,8.65-15.71,8.65-12,0-18.89-8.65-18.89-18.58,0-10.44,6.37-19.73,18.58-19.73,9.26,0,15.71,6.62,15.94,16.56H946.1c0,7.7,4.35,16,13.6,16,4.36,0,7.94-1.29,10.81-4.53Zm-26.67-17H964c-.78-4.9-3.34-8.42-8.79-8.42C950.14,661.6,947.11,665.77,946.33,670Z"/><path class="cls-2" d="M1020.19,685v4.25l-11.9,6.48h-1.48v-5.55H1006c-3,3-7.08,5.48-12,5.48-11,0-17-9.08-17-18.44,0-10.94,7.7-19.87,18.51-19.87A21,21,0,0,1,1006,660.3v-9.51l-6.23-.71v-2.16l15.4-7.93,2.57,4-3.74,2.17v42ZM1006,686.8V667.43a12.52,12.52,0,0,0-10-5.4c-7.38,0-11,6.05-11,13.18,0,7.92,4,14.9,12,14.9A13.69,13.69,0,0,0,1006,686.8Z"/><path class="cls-2" d="M1036,690.18a5.11,5.11,0,1,1-5.13-4.68A4.89,4.89,0,0,1,1036,690.18Zm-.15-49.68-2.72,34.13H1029l-2.72-34.13Z"/><path class="cls-2" d="M1045.85,690.9a5.11,5.11,0,1,1,5.06,4.68A4.89,4.89,0,0,1,1045.85,690.9Z"/><path d="M1200.18,61.32v10.6l4.45.36v2h-12.22v-2l3.32-.36V47.72l-3.28-.36v-2h12.66c6.6,0,11.7,2.4,11.7,7.8,0,5.64-5,8.16-12.52,8.16Zm0-13.6V59h3.46c5.7,0,8.68-1.64,8.68-5.8,0-4-3.76-5.44-8.73-5.44Z"/><path d="M1228.47,53.68c6.78,0,11.23,4.76,11.23,10.68a10.33,10.33,0,0,1-10.8,10.56,10.75,10.75,0,0,1-11.19-10.68C1217.71,58.32,1222,53.68,1228.47,53.68Zm-6.35,9.68c0,4.52,2.63,9,7.26,9,3.75,0,5.87-3,5.87-7.12,0-5-2.81-9.24-7.26-9.24C1224.23,56,1222.12,59.08,1222.12,63.36Z"/><path d="M1259.59,57.2l-3.84,2.88c-1-1.52-1.43-2.16-2.46-2.16s-2,1.28-3.85,3.84V71.92l3.59.36v2h-11.36v-2l3.32-.36V59l-3.41-.16V57.68l6.61-4h1.25V59h.35c1.9-2.68,3.67-5.4,5.87-5.4C1257.52,53.64,1258.47,55.24,1259.59,57.2Z"/><path d="M1276.62,71.44c-1.34,1.6-4.24,3.48-6.66,3.48-2.93,0-4.62-1.2-4.7-4V56.88h-3.89V55.36l8.08-5.84h1.12l-.91,4.76h6.61v2.6h-6.61V69c0,1.76.78,2.52,2.34,2.52a6.37,6.37,0,0,0,3.54-1.48Z"/><path d="M1288.26,53.68c6.78,0,11.23,4.76,11.23,10.68a10.33,10.33,0,0,1-10.8,10.56,10.75,10.75,0,0,1-11.19-10.68C1277.5,58.32,1281.73,53.68,1288.26,53.68Zm-6.35,9.68c0,4.52,2.63,9,7.25,9,3.76,0,5.88-3,5.88-7.12,0-5-2.81-9.24-7.26-9.24C1284,56,1281.91,59.08,1281.91,63.36Z"/><path class="cls-3" d="M629.69,732.16a4.92,4.92,0,1,1-4.93-4.93A4.91,4.91,0,0,1,629.69,732.16Zm-.82,0a4.1,4.1,0,1,0-8.19,0,4.1,4.1,0,0,0,8.19,0Zm-1,0a3.08,3.08,0,0,1-6.16,0h.49a2.62,2.62,0,0,0,5.18,0Zm-4.8-1.68c0-.54.18-1,.52-1s.47.42.47,1-.15,1-.47,1S623,731.07,623,730.52Zm2.45,0c0-.54.15-1,.47-1s.52.42.52,1-.18,1-.52,1S625.49,731.07,625.49,730.52Z"/><path class="cls-3" d="M639,732.74h-2.06v4.16h-1.19v-9.52h3.91c2.17,0,3.16,1,3.16,2.62,0,1.43-.78,2.4-2.55,2.61l3.07,4.29H642Zm-2.06-1h2.58c1.39,0,2.11-.63,2.11-1.74s-.75-1.62-2.14-1.62h-2.55Z"/><path class="cls-3" d="M646.36,728.39v3.14h4.8v1h-4.8v3.36h5.39v1h-6.57v-9.52h6.57v1Z"/><path class="cls-3" d="M659.64,734.28h-4.19l-1,2.62h-1.27l3.76-9.52h1.27l3.63,9.52h-1.26Zm-.37-1-1.69-4.68-1.77,4.68Z"/><path class="cls-3" d="M671.29,732.15a4.43,4.43,0,0,1-4.62,4.75h-3v-9.52h3A4.43,4.43,0,0,1,671.29,732.15Zm-1.19,0c0-2.38-1.33-3.77-3.61-3.77h-1.7v7.52h1.7C668.74,735.9,670.1,734.51,670.1,732.15Z"/><path class="cls-3" d="M674.77,728.39v3.14h4.81v1h-4.81v3.36h5.4v1H673.6v-9.52h6.57v1Z"/><path class="cls-3" d="M685.47,732.74h-2.05v4.16h-1.2v-9.52h3.91c2.17,0,3.17,1,3.17,2.62,0,1.43-.79,2.4-2.55,2.61l3.07,4.29h-1.33Zm-2.05-1H686c1.39,0,2.12-.63,2.12-1.74s-.76-1.62-2.15-1.62h-2.54Z"/><path class="cls-3" d="M698.87,732.74h-2.06v4.16h-1.19v-9.52h3.91c2.17,0,3.17,1,3.17,2.62,0,1.43-.79,2.4-2.55,2.61l3.06,4.29h-1.33Zm-2.06-1h2.58c1.39,0,2.12-.63,2.12-1.74s-.76-1.62-2.15-1.62h-2.55Z"/><path class="cls-3" d="M704.44,732.15c0-2.94,1.8-4.93,4.42-4.93s4.43,2,4.43,4.93-1.81,4.91-4.43,4.91S704.44,735.07,704.44,732.15Zm7.66,0c0-2.44-1.27-3.94-3.24-3.94s-3.23,1.5-3.23,3.94,1.27,3.92,3.23,3.92S712.1,734.57,712.1,732.15Z"/><path class="cls-3" d="M725.18,727.38v9.52H724v-8.48l-3.22,8.48H720l-3.26-8.49v8.49h-1.2v-9.52h1.94l2.9,7.64,2.9-7.64Z"/><path class="cls-3" d="M733.36,734.28h-4.19l-1,2.62h-1.26l3.75-9.52H732l3.62,9.52h-1.26Zm-.36-1-1.7-4.68-1.76,4.68Z"/><path class="cls-3" d="M745.14,727.38v9.52h-1.79l-4.89-8.56v8.56h-1.12v-9.52h1.79l4.9,8.56v-8.56Z"/><path class="cls-3" d="M661.24,51.16a4.92,4.92,0,1,1-4.93-4.93A4.91,4.91,0,0,1,661.24,51.16Zm-.83,0a4.09,4.09,0,1,0-4.1,4.08A4.11,4.11,0,0,0,660.41,51.16Zm-1,0a3.08,3.08,0,0,1-6.16,0h.49a2.62,2.62,0,0,0,5.18,0Zm-4.8-1.68c0-.54.18-1,.52-1s.47.42.47,1-.15,1-.47,1S654.59,50.07,654.59,49.52Zm2.45,0c0-.54.15-1,.48-1s.51.42.51,1-.18,1-.51,1S657,50.07,657,49.52Z"/><path class="cls-3" d="M669.69,46.38V55.9h-1.2V48.4a3,3,0,0,1-2.17.6V48c1.62-.05,2.11-.65,2.35-1.64Z"/><path class="cls-3" d="M674.88,46.38V55.9h-1.2V48.4a3,3,0,0,1-2.17.6V48c1.62-.05,2.11-.65,2.35-1.64Z"/><path class="cls-3" d="M683.91,53.58h-1.24V55.9h-1.2V53.58h-4.78v-1l4.22-6.22h1.76V52.6h1.24Zm-2.44-1V47.28l-3.61,5.32Z"/><path class="cls-3" d="M696.91,49c0,1.57-1.08,2.71-3.25,2.71H691V55.9h-1.19V46.38h3.92C695.93,46.38,696.91,47.39,696.91,49Zm-1.19,0c0-1.06-.66-1.65-2.16-1.65H691v3.36h2.53C695.06,50.74,695.72,50.05,695.72,49Z"/><path class="cls-3" d="M705.61,47.37h-3.16V55.9h-1.17V47.37h-3.17v-1h7.5Z"/><path class="cls-3" d="M706.68,53.07h1.25c.18,1.34,1.18,2,2.72,2s2.38-.72,2.38-1.64-.56-1.33-1.67-1.58l-2.21-.49A2.41,2.41,0,0,1,707,49c0-1.54,1.3-2.73,3.4-2.73s3.52.88,3.73,2.83h-1.24c-.19-1.26-1.11-1.84-2.51-1.84s-2.13.7-2.13,1.6c0,.68.35,1.16,1.44,1.41l2.14.49c1.55.35,2.46,1.19,2.46,2.55,0,1.67-1.31,2.8-3.63,2.8C708.15,56.06,706.88,55,706.68,53.07Z"/><path class="cls-3" d="M663,625.16a4.92,4.92,0,1,1-4.93-4.93A4.91,4.91,0,0,1,663,625.16Zm-.83,0a4.09,4.09,0,1,0-8.18,0,4.09,4.09,0,0,0,8.18,0Zm-1,0a3.08,3.08,0,0,1-6.16,0h.49a2.62,2.62,0,0,0,5.18,0Zm-4.81-1.68c0-.54.19-1,.52-1s.48.42.48,1-.15,1-.48,1S656.38,624.07,656.38,623.52Zm2.46,0c0-.54.15-1,.47-1s.52.42.52,1-.18,1-.52,1S658.84,624.07,658.84,623.52Z"/><path class="cls-3" d="M674.22,620.38v1l-3.92,8.55h-1.23l4-8.53h-5v-1Z"/><path class="cls-3" d="M676.59,628.92h5.28v1H675.4v-.41a3.61,3.61,0,0,1,2.09-3.33l1.89-1.11a2.15,2.15,0,0,0,1.3-2,1.75,1.75,0,0,0-1.89-1.86,2.05,2.05,0,0,0-2.14,2.21H675.5a3.07,3.07,0,0,1,3.29-3.2,2.8,2.8,0,0,1,3.08,2.85c0,1-.32,1.91-1.85,2.82l-2.17,1.29A2.33,2.33,0,0,0,676.59,628.92Z"/><path class="cls-3" d="M695.12,623c0,1.57-1.08,2.71-3.25,2.71h-2.64v4.16H688v-9.52H692C694.13,620.38,695.12,621.39,695.12,623Zm-1.2,0c0-1.06-.65-1.65-2.15-1.65h-2.54v3.36h2.54C693.27,624.74,693.92,624.05,693.92,623Z"/><path class="cls-3" d="M703.81,621.37h-3.15v8.53h-1.18v-8.53h-3.17v-1h7.5Z"/><path class="cls-3" d="M704.89,627.07h1.24c.18,1.34,1.18,2,2.72,2s2.38-.72,2.38-1.64-.56-1.33-1.67-1.58l-2.21-.49a2.41,2.41,0,0,1-2.16-2.41c0-1.54,1.31-2.73,3.41-2.73s3.51.88,3.72,2.83h-1.24c-.19-1.26-1.11-1.84-2.51-1.84s-2.13.7-2.13,1.6c0,.68.35,1.16,1.44,1.41l2.15.49c1.54.35,2.45,1.19,2.45,2.55,0,1.67-1.31,2.8-3.63,2.8C706.36,630.06,705.08,629,704.89,627.07Z"/></g></svg>