<?xml version="1.0" encoding="UTF-8"?><svg id="Layer_1" xmlns="http://www.w3.org/2000/svg" viewBox="0 0 1366 768"><defs><style>.cls-1,.cls-2{fill:#1a26cd;}.cls-1,.cls-3,.cls-4,.cls-5{stroke:#e6e6e6;stroke-linecap:round;stroke-linejoin:round;stroke-width:5px;}.cls-6{fill:#00d800;}.cls-7{fill:#e6e6e6;}.cls-3,.cls-4,.cls-5{fill:none;}.cls-4{stroke-dasharray:0 0 1 14.97;}.cls-5{stroke-dasharray:0 0 1.01 15.18;}</style></defs><rect class="cls-6" x="0" y="0" width="1366" height="768"/><g><path class="cls-7" d="M839.8,435.54c43.8-64.2,82.2-120,127.8-120,25.2,0,40.8,12,40.8,33,0,58.8-81,124.2-81,163.8,0,8.4,3.6,12.6,10.8,12.6,13.8,0,31.8-20.4,48.6-51l7.8,4.2c-16.8,33-48,87-87,87-16.2,0-29.4-10.8-29.4-30.6,0-46.8,79.8-121.8,79.8-160.2,0-10.2-6-16.2-22.8-16.2-42,0-102,100.2-113.4,121.2-24,43.8-34.8,67.2-39,82.2h-51l180-336c5.4-10.2,15-28.8,15-36,0-7.8-.6-12-22.8-25.8l2.4-7.2,90.6-24.6,6,4.2-32.4,60.6c-36.6,67.8-60,108.6-87,156.6-25.8,45.6-39.6,70.2-48,82.2h4.2Z"/><path class="cls-7" d="M1099,355.74c-13.2,0-32.4,15.6-60,51.6l-7.2-6c38.4-51.6,65.4-85.8,96.6-85.8,22.8,0,27.6,17.4,29.4,43.8,2.4,30.6-.6,118.8-12,174,33.6-43.8,87.6-106.2,87.6-164.4,0-19.2-7.2-27.6-19.8-31.8,10.8-10.8,21.6-18,36-18,16.8,0,27.6,12,27.6,30.6,0,75.6-203.4,327.6-342,327.6-24.6,0-42.6-12-42.6-33.6,0-23.4,20.4-37.8,45-37.8-5.4,23.4,4.2,36.6,28.8,36.6,57.6,0,115.8-51.6,141-75.6,9.6-72,9.6-155.4,4.2-193.8-1.8-10.8-3.6-17.4-12.6-17.4Z"/></g><g><path class="cls-7" d="M459.84,525.28c13.15,0,25.11-13.2,33.48-25.2l8.97,4.8c-5.98,22.8-45.44,60-71.14,60-21.52,0-27.5-15.6-27.5-37.2,0-18.6,8.97-45,18.53-76.8h-2.99c-20.92,36.6-53.81,112.8-102.23,112.8-34.68,0-45.44-29.4-46.04-68.4-1.2-79.8,46.63-180,129.14-180,22.72,0,44.24,6,57.39,12.6,0,0,15.54-12.6,23.32-12.6,4.78,0,10.76,4.2,10.76,9-23.91,50.4-40.06,144-40.06,186.6,0,7.2,1.2,14.4,8.37,14.4Zm-72.94-186c-53.21,0-72.34,94.2-73.54,138-.6,22.8,5.38,51,22.12,51,32.88,0,95.66-129.6,97.45-168.6-7.17-10.2-29.29-20.4-46.03-20.4Z"/><path class="cls-7" d="M672.68,591.28c-49.62,0-86.09-30-135.71-30-8.97,0-13.75,6.6-19.73,6.6-10.16,0-11.96-5.4-11.96-12.6,56.2-46.8,139.9-142.8,163.21-193.8-23.91,7.2-50.82,7.2-74.13,6.6-18.53-.6-36.47-3-52.01-7.2-2.99-6.6-4.78-13.2-4.78-21.6,0-9,4.78-19.8,10.16-24,37.67,9.6,91.47,11.4,133.92,11.4,14.95,0,15.54-8.4,24.51-8.4,5.38,0,10.76,5.4,11.96,10.8-37.67,70.8-104.03,151.8-151.86,200.4,37.67,4.8,74.13,15,104.62,15,13.75,0,25.11-4.2,34.08-12,10.16,12.6,4.19,58.8-32.28,58.8Z"/></g><g><path class="cls-7" d="M490.94,207.52v9.51h-1.19v-8.47l-3.23,8.47h-.77l-3.27-8.49v8.49h-1.19v-9.51h1.94l2.9,7.63,2.9-7.63h1.91Z"/><path class="cls-7" d="M494.92,217.03h-1.18v-9.51h1.18v9.51Z"/><path class="cls-7" d="M503.46,216.02v1.01h-5.78v-9.51h1.21v8.5h4.57Z"/><path class="cls-7" d="M511.12,214.41h-4.19l-1,2.62h-1.26l3.76-9.51h1.28l3.63,9.51h-1.26l-.95-2.62Zm-.37-1l-1.7-4.68-1.77,4.68h3.46Z"/><path class="cls-7" d="M520.13,217.03h-1.18v-9.51h1.18v9.51Z"/><path class="cls-7" d="M529.44,208.5h-3.16v8.53h-1.18v-8.53h-3.17v-.98h7.5v.98Z"/><path class="cls-7" d="M535.54,214.41h-4.19l-1,2.62h-1.26l3.76-9.51h1.28l3.63,9.51h-1.26l-.95-2.62Zm-.37-1l-1.7-4.68-1.77,4.68h3.46Z"/><path class="cls-7" d="M545.31,216.02v1.01h-5.78v-9.51h1.21v8.5h4.57Z"/><path class="cls-7" d="M548.28,217.03h-1.18v-9.51h1.18v9.51Z"/><path class="cls-7" d="M550.52,212.28c0-2.87,1.74-4.93,4.42-4.93,2.51,0,3.67,1.29,4.05,3.21h-1.25c-.34-1.54-1.25-2.21-2.8-2.21-1.79,0-3.23,1.54-3.23,3.94s1.43,3.92,3.23,3.92c1.51,0,2.44-.63,2.82-2.2h1.25c-.42,2-1.6,3.19-4.07,3.19-2.66,0-4.42-2.04-4.42-4.92Z"/></g><g><path class="cls-7" d="M1067.94,207.52v9.51h-1.19v-8.47l-3.23,8.47h-.77l-3.27-8.49v8.49h-1.19v-9.51h1.94l2.9,7.63,2.9-7.63h1.91Z"/><path class="cls-7" d="M1071.92,217.03h-1.18v-9.51h1.18v9.51Z"/><path class="cls-7" d="M1080.46,216.02v1.01h-5.78v-9.51h1.21v8.5h4.57Z"/><path class="cls-7" d="M1088.12,214.41h-4.19l-1,2.62h-1.26l3.76-9.51h1.28l3.63,9.51h-1.26l-.95-2.62Zm-.37-1l-1.7-4.68-1.77,4.68h3.46Z"/><path class="cls-7" d="M1095.21,214.2h1.25c.18,1.34,1.18,2,2.72,2,1.63,0,2.38-.71,2.38-1.64,0-.84-.56-1.33-1.67-1.58l-2.22-.49c-1.4-.31-2.16-1.16-2.16-2.41,0-1.54,1.3-2.73,3.41-2.73s3.52,.88,3.73,2.83h-1.25c-.18-1.26-1.11-1.83-2.51-1.83s-2.13,.7-2.13,1.6c0,.69,.35,1.16,1.44,1.42l2.15,.49c1.54,.35,2.45,1.19,2.45,2.55,0,1.67-1.3,2.8-3.63,2.8-2.5,0-3.77-1.08-3.97-3Z"/><path class="cls-7" d="M1112.73,213.33c0,2.58-1.53,3.87-3.93,3.87s-3.94-1.3-3.94-3.87v-5.81h1.18v5.81c0,1.86,1.11,2.83,2.78,2.83s2.73-.92,2.73-2.77v-5.87h1.18v5.81Z"/><path class="cls-7" d="M1122.53,210.17c0,1.57-1.08,2.7-3.25,2.7h-2.64v4.16h-1.19v-9.51h3.93c2.17,0,3.16,1.01,3.16,2.65Zm-1.19,0c0-1.07-.66-1.65-2.16-1.65h-2.54v3.36h2.54c1.5,0,2.16-.69,2.16-1.71Z"/><path class="cls-7" d="M1125.59,208.53v3.14h4.81v1h-4.81v3.36h5.4v1.01h-6.58v-9.51h6.58v1.01h-5.4Z"/><path class="cls-7" d="M1136.31,212.87h-2.06v4.16h-1.19v-9.51h3.91c2.17,0,3.17,1.01,3.17,2.62,0,1.43-.79,2.4-2.55,2.61l3.07,4.29h-1.33l-3.02-4.16Zm-2.06-.99h2.58c1.39,0,2.12-.63,2.12-1.74s-.76-1.62-2.15-1.62h-2.55v3.36Z"/><path class="cls-7" d="M1147.67,217.03h-1.18v-9.51h1.18v9.51Z"/><path class="cls-7" d="M1156.98,208.5h-3.16v8.53h-1.18v-8.53h-3.17v-.98h7.5v.98Z"/><path class="cls-7" d="M1163.08,214.41h-4.19l-1,2.62h-1.26l3.76-9.51h1.28l3.63,9.51h-1.26l-.95-2.62Zm-.37-1l-1.7-4.68-1.77,4.68h3.46Z"/><path class="cls-7" d="M1172.85,216.02v1.01h-5.78v-9.51h1.21v8.5h4.57Z"/><path class="cls-7" d="M1175.82,217.03h-1.18v-9.51h1.18v9.51Z"/><path class="cls-7" d="M1178.05,212.28c0-2.87,1.74-4.93,4.42-4.93,2.51,0,3.67,1.29,4.05,3.21h-1.25c-.34-1.54-1.25-2.21-2.8-2.21-1.79,0-3.23,1.54-3.23,3.94s1.43,3.92,3.23,3.92c1.51,0,2.44-.63,2.82-2.2h1.25c-.42,2-1.6,3.19-4.07,3.19-2.66,0-4.42-2.04-4.42-4.92Z"/></g><g><path class="cls-7" d="M1064.66,237.49v1.54h-7.15v-.52c0-1.57,.76-2.65,2.16-3.46l1.92-1.12c.79-.46,1.08-.95,1.08-1.6,0-.77-.49-1.44-1.49-1.44s-1.68,.74-1.65,1.92h-1.89c-.08-1.89,1.25-3.46,3.55-3.46s3.44,1.39,3.44,3c0,1.04-.39,1.95-1.67,2.72l-2.26,1.34c-.46,.28-.79,.59-.94,1.08h4.91Z"/><path class="cls-7" d="M1073.08,235.91c0,1.88-1.46,3.29-3.63,3.29-2.61,0-3.74-1.89-3.74-4.96,0-3.29,1.68-4.89,3.87-4.89,1.92,0,3.06,.98,3.3,2.55h-1.88c-.15-.71-.63-1.06-1.42-1.06-1.25,0-1.95,1.04-1.95,2.69v.25c.46-.6,1.18-.97,2.23-.97,2.08,0,3.22,1.3,3.22,3.1Zm-1.92,0c0-.92-.59-1.69-1.7-1.69s-1.74,.81-1.74,1.71,.65,1.72,1.74,1.72,1.7-.8,1.7-1.74Z"/><path class="cls-7" d="M1078.62,231.62c0,1.42-1.04,2.33-2.3,2.33s-2.31-.91-2.31-2.33,1.02-2.33,2.31-2.33,2.3,.91,2.3,2.33Zm-3.35,0c0,.77,.38,1.25,1.04,1.25s1.04-.48,1.04-1.25-.36-1.27-1.04-1.27-1.04,.52-1.04,1.27Z"/></g><g><path class="cls-7" d="M227.66,342.49v1.54h-7.15v-.52c0-1.57,.76-2.65,2.16-3.46l1.92-1.12c.79-.46,1.08-.95,1.08-1.6,0-.77-.49-1.44-1.49-1.44s-1.68,.74-1.65,1.92h-1.89c-.08-1.89,1.25-3.46,3.55-3.46s3.44,1.39,3.44,3c0,1.04-.39,1.95-1.67,2.72l-2.26,1.34c-.46,.28-.79,.59-.94,1.08h4.91Z"/><path class="cls-7" d="M236.08,340.91c0,1.88-1.46,3.29-3.63,3.29-2.61,0-3.74-1.89-3.74-4.96,0-3.29,1.68-4.89,3.87-4.89,1.92,0,3.06,.98,3.3,2.55h-1.88c-.15-.71-.63-1.06-1.42-1.06-1.25,0-1.95,1.04-1.95,2.69v.25c.46-.6,1.18-.97,2.23-.97,2.08,0,3.22,1.3,3.22,3.1Zm-1.92,0c0-.92-.59-1.69-1.7-1.69s-1.74,.81-1.74,1.71,.65,1.72,1.74,1.72,1.7-.8,1.7-1.74Z"/><path class="cls-7" d="M241.62,336.62c0,1.42-1.04,2.33-2.3,2.33s-2.31-.91-2.31-2.33,1.02-2.33,2.31-2.33,2.3,.91,2.3,2.33Zm-3.35,0c0,.77,.38,1.25,1.04,1.25s1.04-.48,1.04-1.25-.36-1.27-1.04-1.27-1.04,.52-1.04,1.27Z"/></g><g><line class="cls-3" x1="211.5" y1="332.5" x2="211.27" y2="332.94"/><line class="cls-5" x1="204.18" y1="346.36" x2="94.28" y2="554.35"/><line class="cls-3" x1="90.73" y1="561.06" x2="90.5" y2="561.5"/></g><g><path class="cls-7" d="M488.68,236.39c0,1.57-1.43,2.82-3.67,2.82s-3.67-1.25-3.67-2.82c0-1.11,.71-1.93,1.72-2.25-.94-.35-1.51-1.12-1.51-2.09,0-1.46,1.22-2.69,3.44-2.69s3.49,1.23,3.49,2.69c0,.98-.58,1.74-1.54,2.07,1.02,.31,1.75,1.11,1.75,2.27Zm-1.98-.11c0-.8-.64-1.4-1.7-1.4s-1.7,.6-1.7,1.4,.66,1.4,1.7,1.4,1.7-.59,1.7-1.4Zm-3.22-4.09c0,.66,.53,1.29,1.53,1.29s1.51-.63,1.51-1.29c0-.73-.58-1.32-1.51-1.32s-1.53,.59-1.53,1.32Z"/><path class="cls-7" d="M494.34,231.62c0,1.42-1.04,2.33-2.3,2.33s-2.31-.91-2.31-2.33,1.02-2.33,2.31-2.33,2.3,.91,2.3,2.33Zm-3.35,0c0,.77,.38,1.25,1.04,1.25s1.04-.48,1.04-1.25-.36-1.27-1.04-1.27-1.04,.52-1.04,1.27Z"/></g><g><path class="cls-7" d="M141.68,315.27c0,1.57-1.43,2.82-3.67,2.82s-3.67-1.25-3.67-2.82c0-1.11,.71-1.93,1.72-2.25-.94-.35-1.51-1.12-1.51-2.09,0-1.46,1.22-2.69,3.44-2.69s3.49,1.23,3.49,2.69c0,.98-.58,1.74-1.54,2.07,1.02,.31,1.75,1.11,1.75,2.27Zm-1.98-.11c0-.8-.64-1.4-1.7-1.4s-1.7,.6-1.7,1.4,.66,1.4,1.7,1.4,1.7-.59,1.7-1.4Zm-3.22-4.09c0,.66,.53,1.29,1.53,1.29s1.51-.63,1.51-1.29c0-.73-.58-1.32-1.51-1.32s-1.53,.59-1.53,1.32Z"/><path class="cls-7" d="M147.34,310.5c0,1.42-1.04,2.33-2.3,2.33s-2.31-.91-2.31-2.33,1.02-2.33,2.31-2.33,2.3,.91,2.3,2.33Zm-3.35,0c0,.77,.38,1.25,1.04,1.25s1.04-.48,1.04-1.25-.36-1.27-1.04-1.27-1.04,.52-1.04,1.27Z"/></g><g><line class="cls-2" x1="125.5" y1="308.5" x2="89.5" y2="561.5"/><g><line class="cls-3" x1="125.5" y1="308.5" x2="125.43" y2="309"/><line class="cls-4" x1="123.32" y1="323.82" x2="90.62" y2="553.59"/><line class="cls-3" x1="89.57" y1="561" x2="89.5" y2="561.5"/></g></g><line class="cls-1" x1="89.51" y1="306.5" x2="89.51" y2="561.5"/><line class="cls-1" x1="89.5" y1="561.5" x2="210.5" y2="561.5"/></svg>