<?xml version="1.0" encoding="UTF-8"?><svg id="Layer_1" xmlns="http://www.w3.org/2000/svg" viewBox="0 0 1366 768"><defs><style>.cls-1{fill:#fdfaf5;}.cls-2{fill:#8152db;}</style></defs><rect class="cls-2" x="-62" y="-37" width="1490" height="827"/><g><path class="cls-1" d="M203.41,116.18l3.38,21.1-2.57,.81c-5.41-11.09-7.58-21.78-19.21-21.92h-11.63v73.59c0,7.31,2.98,9.2,10.28,9.33v3.38h-32.87v-3.38c7.31-.14,10.28-2.03,10.28-9.33V116.18h-12.45c-11.63,.14-14.21,10.82-19.62,21.92l-2.57-.81,2.98-21.1v-2.84h74v2.84Z"/><path class="cls-1" d="M298.92,116.86c-7.31,.54-9.61,2.03-9.61,8.12v64.8c0,7.31,2.3,9.2,9.61,9.33v3.38h-31.39v-3.38c7.58-.14,9.47-2.03,9.47-8.12v-31.12h-44.1v29.9c0,7.31,2.3,9.2,9.61,9.33v3.38h-31.39v-3.38c7.58-.14,9.47-2.03,9.47-8.12V124.98c0-6.09-3.25-7.58-9.47-8.12v-3.38h31.39v3.38c-7.31,.54-9.61,2.03-9.61,8.12v31.39h44.1v-31.39c0-6.09-3.25-7.58-9.47-8.12v-3.38h31.39v3.38Z"/><path class="cls-1" d="M380.36,178.82l-5.28,23.67h-68.86v-3.38c7.58-.14,9.47-2.03,9.47-8.12V124.98c0-6.09-3.25-7.58-9.47-8.12v-3.38h64.26l3.92,23.81-2.57,.54c-7.31-15.69-10.69-19.48-21.65-20.29-8.39-.41-14.34-.68-22.19-.81v39.5h20.56c7.58,0,9.74-3.38,11.09-12.18h2.71v28.14h-2.71c-1.35-8.79-3.52-12.45-11.09-12.45h-20.56v39.5c12.31-.13,19.48-.27,27.46-.68,12.45-.95,17.18-9.2,22.32-20.29l2.57,.54Z"/><path class="cls-1" d="M497.25,116.18l3.38,21.1-2.57,.81c-5.41-11.09-7.58-21.78-19.21-21.92h-11.63v73.59c0,7.31,2.98,9.2,10.28,9.33v3.38h-32.87v-3.38c7.31-.14,10.28-2.03,10.28-9.33V116.18h-12.45c-11.63,.14-14.21,10.82-19.62,21.92l-2.57-.81,2.98-21.1v-2.84h74v2.84Z"/><path class="cls-1" d="M585.18,200.46v2.03h-14.2l-33.69-42.88h-10.55v30.17c0,7.31,3.25,9.2,14.61,9.33v3.38h-36.39v-3.38c7.58-.14,9.47-2.03,9.47-8.12V124.98c0-6.09-3.25-7.58-9.47-8.12v-3.38h35.72c22.86,0,35.85,6.63,35.85,22.19,0,13.26-10.28,20.83-24.49,23.13l33.14,41.67Zm-58.44-45.46c5.14,.95,10.42,1.62,16.23,1.62,14.07,0,20.56-7.85,20.56-19.75,0-14.07-7.71-20.02-22.86-20.02-4.87,0-10.28,.68-13.93,1.49v36.66Z"/><path class="cls-1" d="M665.68,178.82l-5.28,23.67h-68.86v-3.38c7.58-.14,9.47-2.03,9.47-8.12V124.98c0-6.09-3.25-7.58-9.47-8.12v-3.38h64.26l3.92,23.81-2.57,.54c-7.31-15.69-10.69-19.48-21.65-20.29-8.39-.41-14.34-.68-22.19-.81v39.5h20.56c7.58,0,9.74-3.38,11.09-12.18h2.71v28.14h-2.71c-1.35-8.79-3.52-12.45-11.09-12.45h-20.56v39.5c12.31-.13,19.48-.27,27.46-.68,12.45-.95,17.18-9.2,22.32-20.29l2.57,.54Z"/><path class="cls-1" d="M742.79,191c2.3,6.09,4.73,8.39,12.45,8.39v3.11h-35.85v-3.11c10.28,0,11.91-3.92,9.88-9.33l-8.52-22.05h-31.39l-8.93,24.22c-1.89,5,4.87,7.17,12.31,7.17v3.11h-28.27v-3.11c5.95,0,9.88-2.17,11.77-7.31l24.22-63.85c2.84-7.3-.54-12.04-10.96-12.04v-2.71h23.54l29.76,77.52Zm-52.22-26.52h28.82l-14.75-38.15-14.07,38.15Z"/><path class="cls-1" d="M770.52,156.9c0,22.32,11.77,44.24,35.58,44.24,18.4,0,29.49-10.28,32.2-26.65l2.71,.41-1.89,23.81c-10.82,3.65-21.78,5.82-32.87,5.82-31.52,0-48.57-19.48-48.57-45.73,0-24.62,15.96-46.54,47.89-46.54,10.42,0,18.94,1.22,30.98,4.46l4.46,26.38-2.71,.41c-8.39-17.72-17.32-27.87-35.31-27.87-23.13,0-32.47,19.35-32.47,41.26Z"/><path class="cls-1" d="M937.19,116.86c-7.31,.54-9.61,2.03-9.61,8.12v64.8c0,7.31,2.3,9.2,9.61,9.33v3.38h-31.39v-3.38c7.58-.14,9.47-2.03,9.47-8.12v-31.12h-44.1v29.9c0,7.31,2.3,9.2,9.61,9.33v3.38h-31.39v-3.38c7.58-.14,9.47-2.03,9.47-8.12V124.98c0-6.09-3.25-7.58-9.47-8.12v-3.38h31.39v3.38c-7.31,.54-9.61,2.03-9.61,8.12v31.39h44.1v-31.39c0-6.09-3.25-7.58-9.47-8.12v-3.38h31.39v3.38Z"/><path class="cls-1" d="M1018.63,178.82l-5.28,23.67h-68.86v-3.38c7.58-.14,9.47-2.03,9.47-8.12V124.98c0-6.09-3.25-7.58-9.47-8.12v-3.38h64.26l3.92,23.81-2.57,.54c-7.31-15.69-10.69-19.48-21.65-20.29-8.39-.41-14.34-.68-22.19-.81v39.5h20.56c7.58,0,9.74-3.38,11.09-12.18h2.71v28.14h-2.71c-1.35-8.79-3.52-12.45-11.09-12.45h-20.56v39.5c12.31-.13,19.48-.27,27.46-.68,12.45-.95,17.18-9.2,22.32-20.29l2.57,.54Z"/><path class="cls-1" d="M1104.54,200.46v2.03h-14.2l-33.69-42.88h-10.55v30.17c0,7.31,3.25,9.2,14.61,9.33v3.38h-36.39v-3.38c7.58-.14,9.47-2.03,9.47-8.12V124.98c0-6.09-3.25-7.58-9.47-8.12v-3.38h35.72c22.86,0,35.85,6.63,35.85,22.19,0,13.26-10.28,20.83-24.49,23.13l33.14,41.67Zm-58.44-45.46c5.14,.95,10.42,1.62,16.23,1.62,14.07,0,20.56-7.85,20.56-19.75,0-14.07-7.71-20.02-22.86-20.02-4.87,0-10.28,.68-13.93,1.49v36.66Z"/><path class="cls-1" d="M1187.2,113.48v3.38c-7.04,.13-8.93,2.03-11.36,6.9l-19.89,43.56v22.46c0,7.31,2.98,9.2,10.28,9.33v3.38h-32.87v-3.38c7.3-.14,10.28-2.03,10.28-9.33v-21.65l-23.13-43.97c-3.11-5.41-6.63-6.76-12.58-7.3v-3.38h34.77v3.38c-7.58,.95-10.15,3.11-8.52,7.3l20.29,39.64,17.99-38.96c2.44-6.63-3.25-7.85-12.45-7.98v-3.38h27.19Z"/><path class="cls-1" d="M331.66,619.47c0-18.8,7.98-47.21,44.1-47.21,28.54,0,43.56,20.97,43.56,45.05,0,18.8-7.58,47.35-43.56,47.35-28.54,0-44.1-21.1-44.1-45.18Zm74.27,3.79c0-25.16-10.01-47.62-32.88-47.62s-28,23-28,37.74c0,24.49,10.01,47.76,33.96,47.76s26.92-23.13,26.92-37.88Z"/><path class="cls-1" d="M496.57,597.29l-2.57,.54c-5.14-11.23-8.52-19.35-20.97-20.29-11.5-.54-12.85-.68-24.22-.81v39.5h21.92c7.58,0,9.74-3.38,11.09-12.18h2.71v28.14h-2.71c-1.35-8.79-3.52-12.45-11.09-12.45h-21.92v30.03c0,7.31,3.25,9.2,14.61,9.33v3.38h-36.39v-3.38c7.58-.14,9.47-2.03,9.47-8.12v-66.02c0-6.09-3.25-7.58-9.47-8.12v-3.38h65.61l3.92,23.81Z"/><path class="cls-1" d="M570.84,576.86c-7.31,.54-9.61,2.03-9.61,8.12v64.8c0,7.31,2.3,9.2,9.61,9.33v3.38h-31.39v-3.38c7.58-.14,9.47-2.03,9.47-8.12v-66.02c0-6.09-3.25-7.58-9.47-8.12v-3.38h31.39v3.38Z"/><path class="cls-1" d="M690.03,576.86c-7.58,.13-9.47,2.03-9.47,8.12v66.02c0,6.09,1.89,7.98,9.47,8.12v3.38h-32.6v-3.38c8.66-.14,10.82-2.03,10.82-9.33v-67.24l-35.99,79.95h-2.17l-40.58-80.36,.54,67.64c0,7.31,2.3,9.2,13.93,9.33v3.38h-27.19v-3.38c7.58-.14,9.47-2.03,9.47-8.12l.54-66.02c0-6.09-1.76-7.98-9.74-8.12v-3.38h22.05l37.07,74.95,32.2-74.95h21.65v3.38Z"/><path class="cls-1" d="M768.76,651c2.3,6.09,4.73,8.39,12.45,8.39v3.11h-35.85v-3.11c10.28,0,11.91-3.92,9.88-9.33l-8.52-22.05h-31.39l-8.93,24.22c-1.89,5,4.87,7.17,12.31,7.17v3.11h-28.27v-3.11c5.95,0,9.88-2.17,11.77-7.31l24.22-63.85c2.84-7.3-.54-12.04-10.96-12.04v-2.71h23.54l29.76,77.52Zm-52.22-26.52h28.82l-14.75-38.15-14.07,38.15Z"/><path class="cls-1" d="M867.25,622.99v19.35c-6.22,13.66-19.62,22.32-36.39,22.32-29.76,0-47.21-19.75-47.21-44.78,0-26.38,17.59-47.62,47.89-47.62,11.63,0,20.97,1.62,30.98,4.46l4.6,26.52-2.71,.41c-5.55-16.5-16.64-28-35.17-28-24.08,0-32.6,19.35-32.6,39.23,0,23,11.09,46.27,36.93,46.27,8.79,0,16.5-3.92,20.97-8.66v-25.16l-25.57-2.17v-2.16h38.29Z"/><path class="cls-1" d="M949.77,638.82l-5.28,23.67h-68.86v-3.38c7.58-.14,9.47-2.03,9.47-8.12v-66.02c0-6.09-3.25-7.58-9.47-8.12v-3.38h64.26l3.92,23.81-2.57,.54c-7.31-15.69-10.69-19.48-21.65-20.29-8.39-.41-14.34-.68-22.19-.81v39.5h20.56c7.58,0,9.74-3.38,11.09-12.18h2.71v28.14h-2.71c-1.35-8.79-3.52-12.45-11.09-12.45h-20.56v39.5c12.31-.13,19.48-.27,27.46-.68,12.45-.95,17.18-9.2,22.32-20.29l2.57,.54Z"/><path class="cls-1" d="M1012.55,575.91l1.49,23.4h-2.84c-5-16.5-13.8-23.54-23.54-23.54-11.09,0-16.37,6.76-16.37,15.83,0,8.25,5.28,13.39,12.31,17.45l18.8,10.82c7.71,4.46,13.39,10.69,13.39,20.56,0,15.69-13.12,24.22-29.63,24.22-8.12,0-19.21-2.57-25.57-5.28l-2.71-23.54,3.38-.54c6.22,17.05,14.07,25.97,27.19,25.97,6.9,0,15.83-3.92,15.83-14.88,0-8.52-4.87-13.8-11.36-17.59l-18.13-10.55c-9.33-5.41-14.88-11.9-14.88-22.59,0-14.88,11.36-23.4,29.09-23.4,8.25,0,16.1,1.22,23.54,3.65Z"/></g><g><path class="cls-1" d="M630.56,67.95l5.06,5.46h-1.49l-4.86-5.13v5.13h-1.24v-9.91h1.24v4.17l4.81-4.17h1.6l-5.13,4.45Z"/><path class="cls-1" d="M645.55,69.55c0,2.68-1.59,4.03-4.08,4.03s-4.1-1.36-4.1-4.03v-6.05h1.23v6.05c0,1.94,1.15,2.95,2.89,2.95s2.84-.96,2.84-2.89v-6.11h1.23v6.05Z"/><path class="cls-1" d="M655.84,66.25c0,1.63-1.12,2.82-3.38,2.82h-2.74v4.33h-1.24v-9.91h4.08c2.26,0,3.28,1.05,3.28,2.76Zm-1.24,0c0-1.11-.69-1.72-2.25-1.72h-2.64v3.5h2.64c1.56,0,2.25-.71,2.25-1.78Z"/><path class="cls-1" d="M665.35,66.25c0,1.63-1.12,2.82-3.38,2.82h-2.74v4.33h-1.24v-9.91h4.08c2.26,0,3.28,1.05,3.28,2.76Zm-1.24,0c0-1.11-.69-1.72-2.25-1.72h-2.64v3.5h2.64c1.56,0,2.25-.71,2.25-1.78Z"/><path class="cls-1" d="M672.99,70.67h-4.36l-1.04,2.73h-1.31l3.91-9.91h1.33l3.78,9.91h-1.31l-.99-2.73Zm-.38-1.04l-1.76-4.87-1.84,4.87h3.6Z"/><path class="cls-1" d="M684.51,69.07h-2.14v4.33h-1.24v-9.91h4.07c2.26,0,3.3,1.05,3.3,2.73,0,1.49-.82,2.49-2.66,2.71l3.19,4.46h-1.39l-3.14-4.33Zm-2.14-1.04h2.68c1.44,0,2.2-.66,2.2-1.81s-.79-1.69-2.23-1.69h-2.66v3.5Z"/><path class="cls-1" d="M692.38,64.55v3.27h5v1.04h-5v3.5h5.62v1.05h-6.84v-9.91h6.84v1.05h-5.62Z"/><path class="cls-1" d="M708.86,68.27v5.13h-1.11v-1.81c-.51,1.18-1.55,1.98-3.27,1.98-2.79,0-4.65-2.07-4.65-5.12s1.85-5.13,4.62-5.13c2.06,0,3.57,.88,4.16,2.84h-1.31c-.45-1.17-1.31-1.81-2.86-1.81-1.98,0-3.37,1.56-3.37,4.1s1.36,4.08,3.41,4.08,3.17-1.27,3.18-3.24h-3.46v-1.04h4.65Z"/><path class="cls-1" d="M719.5,69.55c0,2.68-1.59,4.03-4.08,4.03s-4.1-1.36-4.1-4.03v-6.05h1.23v6.05c0,1.94,1.15,2.95,2.89,2.95s2.84-.96,2.84-2.89v-6.11h1.23v6.05Z"/><path class="cls-1" d="M728.44,72.35v1.05h-6.01v-9.91h1.25v8.85h4.76Z"/><path class="cls-1" d="M735.89,70.67h-4.36l-1.04,2.73h-1.31l3.91-9.91h1.33l3.78,9.91h-1.31l-.99-2.73Zm-.38-1.04l-1.76-4.87-1.84,4.87h3.6Z"/><path class="cls-1" d="M743.48,69.07h-2.14v4.33h-1.24v-9.91h4.07c2.26,0,3.3,1.05,3.3,2.73,0,1.49-.82,2.49-2.66,2.71l3.19,4.46h-1.39l-3.14-4.33Zm-2.14-1.04h2.68c1.44,0,2.2-.66,2.2-1.81s-.79-1.69-2.23-1.69h-2.66v3.5Z"/></g><g><path class="cls-1" d="M362.61,352.38l.55,3.43-.42,.13c-.88-1.8-1.23-3.54-3.12-3.56h-1.89v11.97c0,1.19,.48,1.5,1.67,1.52v.55h-5.35v-.55c1.19-.02,1.67-.33,1.67-1.52v-11.97h-2.02c-1.89,.02-2.31,1.76-3.19,3.56l-.42-.13,.48-3.43v-.46h12.04v.46Z"/><path class="cls-1" d="M372.01,360.17c0-1.67-.55-2.75-2.11-2.75-1.01,0-1.98,.64-2.64,1.45v5.88c0,.99,.51,1.21,1.45,1.3v.37h-4.78v-.37c.95-.09,1.45-.31,1.45-1.3v-12.32l-1.25-1.01v-.26l2.88-1.01,.24,.15v7.92c.9-1.1,2.18-2.05,3.7-2.05,2.05,0,2.93,1.32,2.93,3.32v5.26c0,.99,.51,1.21,1.45,1.3v.37h-4.78v-.37c.95-.09,1.45-.31,1.45-1.3v-4.58Z"/><path class="cls-1" d="M385.09,363.71c-.55,1.56-1.85,3.06-4.09,3.06-3.06,0-4.8-2.29-4.8-5.32s1.94-5.26,4.75-5.26c2.13,0,3.87,1.14,3.96,4.27h-6.86c0,2.93,1.45,4.84,3.78,4.84,1.14,0,2.27-.51,2.9-1.76l.35,.18Zm-7.02-3.81h4.64c0-1.89-.66-3.26-2.22-3.26s-2.4,1.34-2.42,3.26Z"/><path class="cls-1" d="M394.75,357.06h-1.87v-.55h1.87v-.88c0-3.54,1.01-5.61,3.7-5.61,1.06,0,2.57,.33,2.57,1.25,0,.38-.31,.71-.79,.71-1.17,0-1.61-1.47-2.55-1.47s-1.54,.79-1.54,2.05c0,.92,.22,2.68,.48,3.96h2.71v.57h-2.71v7.66c0,.99,.51,1.21,2.11,1.3v.37h-5.44v-.37c.95-.09,1.45-.31,1.45-1.3v-7.68Z"/><path class="cls-1" d="M409.66,365.42c-.48,.77-1.3,1.23-2.09,1.23-1.25,0-1.89-.68-2.05-1.72-.72,1.21-1.8,1.83-2.99,1.83-1.43,0-2.4-.86-2.4-2.35,0-1.34,.95-2.31,2.86-2.82,.53-.13,1.63-.33,2.51-.46v-1.12c0-1.65-.44-2.55-2-2.55-1.41,0-2.24,.84-2.95,1.91l-.39-.24c1.05-1.87,2.35-2.97,4.16-2.97,2.13,0,3.06,1.17,3.06,3.56v4.42c0,.79,.2,1.43,1.08,1.43,.42,0,.73-.2,.99-.4l.22,.24Zm-4.16-1.65v-2.13c-.46,.07-.97,.15-1.45,.26-1.32,.29-2.05,1.03-2.05,1.98s.53,1.61,1.47,1.61,1.76-.68,2.02-1.72Z"/><path class="cls-1" d="M426.69,364.74c0,.99,.51,1.21,1.45,1.3v.37h-4.78v-.37c.95-.09,1.45-.31,1.45-1.3v-4.58c0-1.76-.55-2.75-2.18-2.75-1.03,0-2.22,.68-2.64,1.63,.02,.13,.02,.29,.02,.44v5.26c0,.99,.51,1.21,1.45,1.3v.37h-4.77v-.37c.95-.09,1.45-.31,1.45-1.3v-4.58c0-1.76-.55-2.75-2.18-2.75-.95,0-2.07,.59-2.55,1.43v5.9c0,.99,.51,1.21,1.45,1.3v.37h-4.78v-.37c.95-.09,1.45-.31,1.45-1.3v-5.99l-1.26-1.45,.02-.26,2.86-1.01,.24,.15v2.02c.95-1.1,2.31-2.05,3.67-2.05,1.63,0,2.53,.95,2.82,2.27,.95-1.19,2.4-2.27,3.85-2.27,2.05,0,2.93,1.5,2.93,3.32v5.26Z"/><path class="cls-1" d="M429.02,361.44c0-3.15,1.94-5.26,4.88-5.26,3.43,0,5.15,1.96,5.15,5.33,0,3.15-1.94,5.26-4.88,5.26-3.32,0-5.15-2.09-5.15-5.32Zm7.96,1.03c0-3.65-.99-5.9-3.17-5.9s-2.73,1.83-2.73,3.89c0,3.7,1.01,5.87,3.21,5.87s2.68-1.69,2.68-3.87Z"/><path class="cls-1" d="M451.96,366.13l-3.41,.42-.2-1.56c-1.17,1.12-2.22,1.76-3.67,1.76-1.72,0-2.86-1.14-2.86-3.26v-4.71l-1.25-1.45,.02-.26,2.86-1.01,.24,.15v6.16c0,2.02,.59,3.08,2.16,3.08,.97,0,1.83-.42,2.51-.97v-5.7l-1.25-1.45,.02-.26,2.86-1.01,.24,.15v8.27c0,1.23,.31,1.32,1.67,1.14l.07,.51Z"/><path class="cls-1" d="M460.17,356.58v2.68h-.33c-.35-1.85-1.25-2.6-2.71-2.6-1.36,0-2.09,.62-2.09,1.69,0,.81,.37,1.32,1.12,1.72l2.13,1.12c1.06,.55,2,1.1,2,2.53,0,1.78-1.52,3.04-3.89,3.04-1.08,0-2.35-.29-3.08-.62l-.31-2.68,.39-.07c.71,1.74,1.47,2.82,3.21,2.82,1.04,0,1.98-.51,1.98-1.67,0-.68-.38-1.1-1.12-1.5l-2.27-1.19c-1.12-.59-1.76-1.25-1.76-2.66,0-1.78,1.45-3.04,3.72-3.04,1.05,0,1.98,.15,2.99,.42Z"/><path class="cls-1" d="M471.25,369.14c0,.99,.51,1.21,2.11,1.3v.37h-5.44v-.37c.95-.09,1.45-.31,1.45-1.3v-10.39l-1.25-1.45,.02-.26,2.86-1.01,.24,.15v2.49c.71-1.28,1.98-2.51,3.63-2.51,2.62,0,3.83,2.27,3.83,5.02,0,3.32-1.85,5.59-4.91,5.59-.86,0-1.72-.2-2.55-.48v2.86Zm5.52-7.42c0-2.09-.79-4.07-3.04-4.07-1.25,0-2.13,.88-2.49,1.83v4.42c.13,1.45,1.36,2.44,2.55,2.44,2.16,0,2.97-2.22,2.97-4.62Z"/><path class="cls-1" d="M481.7,358.32l-1.26-1.01v-.26l2.88-1.01,.24,.15v8.56c0,.99,.51,1.21,1.45,1.3v.37h-4.78v-.37c.95-.09,1.45-.31,1.45-1.3v-6.43Zm-.44-5.7c0-.66,.51-1.23,1.25-1.23s1.25,.55,1.25,1.23c0,.86-.48,1.34-1.25,1.34s-1.25-.48-1.25-1.34Z"/><path class="cls-1" d="M489.49,369.14c0,.99,.51,1.21,2.11,1.3v.37h-5.44v-.37c.95-.09,1.45-.31,1.45-1.3v-10.39l-1.25-1.45,.02-.26,2.86-1.01,.24,.15v2.49c.7-1.28,1.98-2.51,3.63-2.51,2.62,0,3.83,2.27,3.83,5.02,0,3.32-1.85,5.59-4.91,5.59-.86,0-1.71-.2-2.55-.48v2.86Zm5.52-7.42c0-2.09-.79-4.07-3.04-4.07-1.26,0-2.13,.88-2.49,1.83v4.42c.13,1.45,1.36,2.44,2.55,2.44,2.16,0,2.97-2.22,2.97-4.62Z"/><path class="cls-1" d="M507.35,363.71c-.55,1.56-1.85,3.06-4.09,3.06-3.06,0-4.8-2.29-4.8-5.32s1.94-5.26,4.75-5.26c2.13,0,3.87,1.14,3.96,4.27h-6.87c0,2.93,1.45,4.84,3.79,4.84,1.14,0,2.27-.51,2.9-1.76l.35,.18Zm-7.02-3.81h4.64c0-1.89-.66-3.26-2.22-3.26s-2.4,1.34-2.42,3.26Z"/><path class="cls-1" d="M509.08,365.42c0-.7,.6-1.3,1.34-1.3,.7,0,1.3,.59,1.3,1.3,0,.75-.59,1.34-1.3,1.34-.75,0-1.34-.59-1.34-1.34Z"/><path class="cls-1" d="M533.53,352.49c-1.19,.09-1.56,.33-1.56,1.32v10.54c0,1.19,.37,1.5,1.56,1.52v.55h-5.11v-.55c1.23-.02,1.54-.33,1.54-1.32v-5.06h-7.17v4.86c0,1.19,.38,1.5,1.56,1.52v.55h-5.11v-.55c1.23-.02,1.54-.33,1.54-1.32v-10.74c0-.99-.53-1.23-1.54-1.32v-.55h5.11v.55c-1.19,.09-1.56,.33-1.56,1.32v5.1h7.17v-5.1c0-.99-.53-1.23-1.54-1.32v-.55h5.11v.55Z"/><path class="cls-1" d="M534.77,361.44c0-3.15,1.94-5.26,4.88-5.26,3.43,0,5.15,1.96,5.15,5.33,0,3.15-1.94,5.26-4.88,5.26-3.32,0-5.15-2.09-5.15-5.32Zm7.96,1.03c0-3.65-.99-5.9-3.17-5.9s-2.73,1.83-2.73,3.89c0,3.7,1.01,5.87,3.21,5.87s2.68-1.69,2.68-3.87Z"/><path class="cls-1" d="M558.54,356.51h3.1v.37c-.68,.09-.99,.4-1.34,1.34l-3.01,8.19h-.66l-2.71-6.89-2.82,6.89h-.66l-3.28-8.25c-.42-1.03-.64-1.19-1.28-1.28v-.37h4v.37c-.68,.09-1.03,.64-.7,1.47l2.33,5.9,2.11-5.48-.24-.62c-.42-1.03-.64-1.19-1.28-1.28v-.37h4.03v.37c-.75,.07-1.04,.62-.79,1.28l2.22,6.16,2.02-5.79c.35-.99,.24-1.52-1.05-1.65v-.37Z"/><path class="cls-1" d="M571.91,369.14c0,.99,.51,1.21,2.11,1.3v.37h-5.44v-.37c.95-.09,1.45-.31,1.45-1.3v-10.39l-1.25-1.45,.02-.26,2.86-1.01,.24,.15v2.49c.7-1.28,1.98-2.51,3.63-2.51,2.62,0,3.83,2.27,3.83,5.02,0,3.32-1.85,5.59-4.91,5.59-.86,0-1.71-.2-2.55-.48v2.86Zm5.52-7.42c0-2.09-.79-4.07-3.04-4.07-1.26,0-2.13,.88-2.49,1.83v4.42c.13,1.45,1.36,2.44,2.55,2.44,2.16,0,2.97-2.22,2.97-4.62Z"/><path class="cls-1" d="M589.77,363.71c-.55,1.56-1.85,3.06-4.09,3.06-3.06,0-4.8-2.29-4.8-5.32s1.94-5.26,4.75-5.26c2.13,0,3.87,1.14,3.96,4.27h-6.87c0,2.93,1.45,4.84,3.79,4.84,1.14,0,2.27-.51,2.9-1.76l.35,.18Zm-7.02-3.81h4.64c0-1.89-.66-3.26-2.22-3.26s-2.4,1.34-2.42,3.26Z"/><path class="cls-1" d="M591.28,361.44c0-3.15,1.94-5.26,4.88-5.26,3.43,0,5.15,1.96,5.15,5.33,0,3.15-1.94,5.26-4.88,5.26-3.32,0-5.15-2.09-5.15-5.32Zm7.96,1.03c0-3.65-.99-5.9-3.17-5.9s-2.73,1.83-2.73,3.89c0,3.7,1.01,5.87,3.21,5.87s2.69-1.69,2.69-3.87Z"/><path class="cls-1" d="M606.04,369.14c0,.99,.51,1.21,2.11,1.3v.37h-5.44v-.37c.95-.09,1.45-.31,1.45-1.3v-10.39l-1.25-1.45,.02-.26,2.86-1.01,.24,.15v2.49c.71-1.28,1.98-2.51,3.63-2.51,2.62,0,3.83,2.27,3.83,5.02,0,3.32-1.85,5.59-4.91,5.59-.86,0-1.72-.2-2.55-.48v2.86Zm5.52-7.42c0-2.09-.79-4.07-3.04-4.07-1.25,0-2.13,.88-2.49,1.83v4.42c.13,1.45,1.36,2.44,2.55,2.44,2.16,0,2.97-2.22,2.97-4.62Z"/><path class="cls-1" d="M618.1,350.26l.24,.15v14.32c0,.99,.51,1.21,1.45,1.3v.37h-4.78v-.37c.95-.09,1.45-.31,1.45-1.3v-11.75l-1.25-1.45,.02-.26,2.86-1.01Z"/><path class="cls-1" d="M629.98,363.71c-.55,1.56-1.85,3.06-4.09,3.06-3.06,0-4.8-2.29-4.8-5.32s1.94-5.26,4.75-5.26c2.13,0,3.87,1.14,3.96,4.27h-6.87c0,2.93,1.45,4.84,3.79,4.84,1.14,0,2.27-.51,2.9-1.76l.35,.18Zm-7.02-3.81h4.64c0-1.89-.66-3.26-2.22-3.26s-2.4,1.34-2.42,3.26Z"/><path class="cls-1" d="M640.88,361.09v3.65c0,.97,.59,1.23,2.31,1.3v.37h-5.63v-.37c.95-.09,1.45-.31,1.45-1.3v-6.43l-1.26-1.01v-.26l2.88-.88,.24,.15v2.95c.11-.44,.24-.9,.59-1.47,.38-.57,1.19-1.63,3.3-1.63v2.16c-.57-.11-1.14-.2-1.83-.2-1.5,0-2.07,.95-2.07,2.97Z"/><path class="cls-1" d="M654.72,363.71c-.55,1.56-1.85,3.06-4.09,3.06-3.06,0-4.8-2.29-4.8-5.32s1.94-5.26,4.75-5.26c2.13,0,3.87,1.14,3.96,4.27h-6.87c0,2.93,1.45,4.84,3.79,4.84,1.14,0,2.27-.51,2.9-1.76l.35,.18Zm-7.02-3.81h4.64c0-1.89-.66-3.26-2.22-3.26s-2.4,1.34-2.42,3.26Z"/><path class="cls-1" d="M659.45,369.14c0,.99,.51,1.21,2.11,1.3v.37h-5.44v-.37c.95-.09,1.45-.31,1.45-1.3v-10.39l-1.25-1.45,.02-.26,2.86-1.01,.24,.15v2.49c.7-1.28,1.98-2.51,3.63-2.51,2.62,0,3.83,2.27,3.83,5.02,0,3.32-1.85,5.59-4.91,5.59-.86,0-1.71-.2-2.55-.48v2.86Zm5.52-7.42c0-2.09-.79-4.07-3.04-4.07-1.26,0-2.13,.88-2.49,1.83v4.42c.13,1.45,1.36,2.44,2.55,2.44,2.16,0,2.97-2.22,2.97-4.62Z"/><path class="cls-1" d="M671.77,361.09v3.65c0,.97,.59,1.23,2.31,1.3v.37h-5.63v-.37c.95-.09,1.45-.31,1.45-1.3v-6.43l-1.26-1.01v-.26l2.88-.88,.24,.15v2.95c.11-.44,.24-.9,.59-1.47,.38-.57,1.19-1.63,3.3-1.63v2.16c-.57-.11-1.14-.2-1.83-.2-1.5,0-2.07,.95-2.07,2.97Z"/><path class="cls-1" d="M676.72,361.44c0-3.15,1.94-5.26,4.88-5.26,3.43,0,5.15,1.96,5.15,5.33,0,3.15-1.94,5.26-4.88,5.26-3.32,0-5.15-2.09-5.15-5.32Zm7.96,1.03c0-3.65-.99-5.9-3.17-5.9s-2.73,1.83-2.73,3.89c0,3.7,1.01,5.87,3.21,5.87s2.69-1.69,2.69-3.87Z"/><path class="cls-1" d="M698.05,365.42c-.48,.77-1.3,1.23-2.09,1.23-1.25,0-1.89-.68-2.05-1.72-.72,1.21-1.8,1.83-2.99,1.83-1.43,0-2.4-.86-2.4-2.35,0-1.34,.95-2.31,2.86-2.82,.53-.13,1.63-.33,2.51-.46v-1.12c0-1.65-.44-2.55-2-2.55-1.41,0-2.24,.84-2.95,1.91l-.39-.24c1.05-1.87,2.35-2.97,4.16-2.97,2.13,0,3.06,1.17,3.06,3.56v4.42c0,.79,.2,1.43,1.08,1.43,.42,0,.73-.2,.99-.4l.22,.24Zm-4.16-1.65v-2.13c-.46,.07-.97,.15-1.45,.26-1.32,.29-2.05,1.03-2.05,1.98s.53,1.61,1.47,1.61,1.76-.68,2.02-1.72Z"/><path class="cls-1" d="M703.66,356.16c1.67,0,3.39,.48,3.39,1.74,0,.53-.31,.86-.84,.86-1.28,0-1.63-2.11-3.1-2.11-1.83,0-2.75,2.09-2.75,4.18,0,2.35,1.3,4.44,3.67,4.44,1.36,0,2.44-.73,2.99-1.76l.35,.15c-.51,1.56-1.94,3.1-4.16,3.1-3.3,0-4.75-2.44-4.75-5.24,0-2.51,1.5-5.37,5.19-5.37Z"/><path class="cls-1" d="M716.51,360.17c0-1.67-.55-2.75-2.11-2.75-1.01,0-1.98,.64-2.64,1.45v5.88c0,.99,.51,1.21,1.45,1.3v.37h-4.78v-.37c.95-.09,1.45-.31,1.45-1.3v-12.32l-1.25-1.01v-.26l2.88-1.01,.24,.15v7.92c.9-1.1,2.18-2.05,3.7-2.05,2.05,0,2.93,1.32,2.93,3.32v5.26c0,.99,.51,1.21,1.45,1.3v.37h-4.78v-.37c.95-.09,1.45-.31,1.45-1.3v-4.58Z"/><path class="cls-1" d="M729.6,363.71c-.55,1.56-1.85,3.06-4.09,3.06-3.06,0-4.8-2.29-4.8-5.32s1.94-5.26,4.75-5.26c2.13,0,3.87,1.14,3.96,4.27h-6.87c0,2.93,1.45,4.84,3.79,4.84,1.14,0,2.27-.51,2.9-1.76l.35,.18Zm-7.02-3.81h4.64c0-1.89-.66-3.26-2.22-3.26s-2.4,1.34-2.42,3.26Z"/><path class="cls-1" d="M742.18,366.13l-3.41,.42-.2-1.34c-.71,1.01-1.85,1.56-3.15,1.56-2.84,0-4.31-2.27-4.31-4.97,0-3.26,1.98-5.63,5.08-5.63,.95,0,1.72,.22,2.38,.53v-3.81l-1.25-1.45,.02-.26,2.86-1.01,.24,.15v14.08c0,1.25,.31,1.34,1.67,1.14l.06,.59Zm-3.61-1.52v-5.68c-.22-1.14-.97-2.18-2.6-2.18-2.2,0-3.01,1.76-3.01,3.98,0,2.49,1.28,4.51,3.48,4.51,.86,0,1.54-.18,2.13-.64Z"/><path class="cls-1" d="M765.81,364.74c0,.99,.51,1.21,1.45,1.3v.37h-4.77v-.37c.95-.09,1.45-.31,1.45-1.3v-4.58c0-1.76-.55-2.75-2.18-2.75-1.04,0-2.22,.68-2.64,1.63,.02,.13,.02,.29,.02,.44v5.26c0,.99,.51,1.21,1.45,1.3v.37h-4.78v-.37c.95-.09,1.45-.31,1.45-1.3v-4.58c0-1.76-.55-2.75-2.18-2.75-.95,0-2.07,.59-2.55,1.43v5.9c0,.99,.51,1.21,1.45,1.3v.37h-4.78v-.37c.95-.09,1.45-.31,1.45-1.3v-5.99l-1.25-1.45,.02-.26,2.86-1.01,.24,.15v2.02c.95-1.1,2.31-2.05,3.67-2.05,1.63,0,2.53,.95,2.82,2.27,.95-1.19,2.4-2.27,3.85-2.27,2.05,0,2.93,1.5,2.93,3.32v5.26Z"/><path class="cls-1" d="M777.02,363.71c-.55,1.56-1.85,3.06-4.09,3.06-3.06,0-4.8-2.29-4.8-5.32s1.94-5.26,4.75-5.26c2.13,0,3.87,1.14,3.96,4.27h-6.87c0,2.93,1.45,4.84,3.79,4.84,1.14,0,2.27-.51,2.9-1.76l.35,.18Zm-7.02-3.81h4.64c0-1.89-.66-3.26-2.22-3.26s-2.4,1.34-2.42,3.26Z"/><path class="cls-1" d="M786.68,357.06h-1.87v-.55h1.87v-.88c0-3.54,1.01-5.61,3.7-5.61,1.05,0,2.57,.33,2.57,1.25,0,.38-.31,.71-.79,.71-1.17,0-1.61-1.47-2.55-1.47s-1.54,.79-1.54,2.05c0,.92,.22,2.68,.48,3.96h2.71v.57h-2.71v7.66c0,.99,.51,1.21,2.11,1.3v.37h-5.44v-.37c.95-.09,1.45-.31,1.45-1.3v-7.68Z"/><path class="cls-1" d="M791.8,361.44c0-3.15,1.94-5.26,4.88-5.26,3.43,0,5.15,1.96,5.15,5.33,0,3.15-1.94,5.26-4.88,5.26-3.32,0-5.15-2.09-5.15-5.32Zm7.96,1.03c0-3.65-.99-5.9-3.17-5.9s-2.73,1.83-2.73,3.89c0,3.7,1.01,5.87,3.21,5.87s2.69-1.69,2.69-3.87Z"/><path class="cls-1" d="M806.69,361.09v3.65c0,.97,.59,1.23,2.31,1.3v.37h-5.63v-.37c.95-.09,1.45-.31,1.45-1.3v-6.43l-1.25-1.01v-.26l2.88-.88,.24,.15v2.95c.11-.44,.24-.9,.59-1.47,.37-.57,1.19-1.63,3.3-1.63v2.16c-.57-.11-1.14-.2-1.83-.2-1.5,0-2.07,.95-2.07,2.97Z"/><path class="cls-1" d="M819.16,358.32l-1.25-1.01v-.26l2.88-1.01,.24,.15v8.56c0,.99,.51,1.21,1.45,1.3v.37h-4.78v-.37c.95-.09,1.45-.31,1.45-1.3v-6.43Zm-.44-5.7c0-.66,.51-1.23,1.25-1.23s1.25,.55,1.25,1.23c0,.86-.48,1.34-1.25,1.34s-1.25-.48-1.25-1.34Z"/><path class="cls-1" d="M830.69,364.92c-.57,.84-1.56,1.85-3.21,1.85-1.38,0-2.29-.99-2.29-2.73v-6.98h-1.89l3.46-3.65h.31v3.1h3.21v.55h-3.21v6.65c0,1.06,.33,1.67,1.45,1.67,.77,0,1.43-.31,1.94-.73l.24,.26Z"/><path class="cls-1" d="M832.05,365.29c0-.79,.55-1.36,1.3-1.36,.79,0,1.3,.57,1.3,1.36s-.51,1.36-1.3,1.36-1.3-.59-1.3-1.36Zm.55-3.15l-.31-10.56h2.11l-.31,10.56h-1.5Z"/><path class="cls-1" d="M854.14,364.54c.38,.99,.77,1.36,2.03,1.36v.51h-5.83v-.51c1.67,0,1.94-.64,1.61-1.52l-1.39-3.59h-5.11l-1.45,3.94c-.31,.81,.79,1.17,2,1.17v.51h-4.6v-.51c.97,0,1.61-.35,1.91-1.19l3.94-10.39c.46-1.19-.09-1.96-1.78-1.96v-.44h3.83l4.84,12.61Zm-8.49-4.31h4.69l-2.4-6.21-2.29,6.21Z"/><path class="cls-1" d="M864.65,360.17c0-1.67-.55-2.75-2.11-2.75-1.01,0-1.98,.64-2.64,1.45v5.88c0,.99,.51,1.21,1.45,1.3v.37h-4.78v-.37c.95-.09,1.45-.31,1.45-1.3v-5.99l-1.25-1.45,.02-.26,2.86-1.01,.24,.15v2.02c.9-1.1,2.18-2.05,3.7-2.05,2.05,0,2.93,1.32,2.93,3.32v5.26c0,.99,.51,1.21,1.45,1.3v.37h-4.78v-.37c.95-.09,1.45-.31,1.45-1.3v-4.58Z"/><path class="cls-1" d="M879.92,366.13l-3.41,.42-.2-1.34c-.71,1.01-1.85,1.56-3.15,1.56-2.84,0-4.31-2.27-4.31-4.97,0-3.26,1.98-5.63,5.08-5.63,.95,0,1.72,.22,2.38,.53v-3.81l-1.25-1.45,.02-.26,2.86-1.01,.24,.15v14.08c0,1.25,.31,1.34,1.67,1.14l.06,.59Zm-3.61-1.52v-5.68c-.22-1.14-.97-2.18-2.6-2.18-2.2,0-3.01,1.76-3.01,3.98,0,2.49,1.28,4.51,3.48,4.51,.86,0,1.54-.18,2.13-.64Z"/><path class="cls-1" d="M893.36,356.51h3.1v.37c-.68,.15-.88,.4-1.32,1.45l-3.83,9.07c-.29,.57-.4,.81-.68,1.34-.55,1.03-1.54,2.07-3.65,2.07v-2.18c2.05,0,3.1-.02,3.76-1.32l.46-1.01c-1.23-3.08-2.2-5.3-3.45-8.38-.2-.48-.51-.97-1.23-1.03v-.37h4.22v.37c-1.01,.07-1.04,.84-.62,1.87l2.07,5.21,2.22-5.48c.35-.86,.15-1.45-1.06-1.61v-.37Z"/><path class="cls-1" d="M906.12,363.71c-.55,1.56-1.85,3.06-4.09,3.06-3.06,0-4.8-2.29-4.8-5.32s1.94-5.26,4.75-5.26c2.13,0,3.87,1.14,3.96,4.27h-6.87c0,2.93,1.45,4.84,3.79,4.84,1.14,0,2.27-.51,2.9-1.76l.35,.18Zm-7.02-3.81h4.64c0-1.89-.66-3.26-2.22-3.26s-2.4,1.34-2.42,3.26Z"/><path class="cls-1" d="M914.59,364.92c-.57,.84-1.56,1.85-3.21,1.85-1.39,0-2.29-.99-2.29-2.73v-6.98h-1.89l3.46-3.65h.31v3.1h3.21v.55h-3.21v6.65c0,1.06,.33,1.67,1.45,1.67,.77,0,1.43-.31,1.94-.73l.24,.26Z"/><path class="cls-1" d="M915.04,369.58c1.25-.86,2.07-2.11,2.07-2.77,0-.31-.31-.42-.71-.66-.4-.24-.64-.59-.64-1.08,0-.75,.48-1.25,1.19-1.25,.9,0,1.32,.79,1.32,1.58,0,1.41-1.1,3.21-3.04,4.44l-.2-.26Z"/><path class="cls-1" d="M931.06,356.16c1.67,0,3.39,.48,3.39,1.74,0,.53-.31,.86-.84,.86-1.28,0-1.63-2.11-3.1-2.11-1.83,0-2.75,2.09-2.75,4.18,0,2.35,1.3,4.44,3.67,4.44,1.36,0,2.44-.73,2.99-1.76l.35,.15c-.51,1.56-1.94,3.1-4.16,3.1-3.3,0-4.75-2.44-4.75-5.24,0-2.51,1.5-5.37,5.19-5.37Z"/><path class="cls-1" d="M935.83,361.44c0-3.15,1.94-5.26,4.88-5.26,3.43,0,5.15,1.96,5.15,5.33,0,3.15-1.94,5.26-4.88,5.26-3.32,0-5.15-2.09-5.15-5.32Zm7.96,1.03c0-3.65-.99-5.9-3.17-5.9s-2.73,1.83-2.73,3.89c0,3.7,1.01,5.87,3.21,5.87s2.69-1.69,2.69-3.87Z"/><path class="cls-1" d="M958.78,366.13l-3.41,.42-.2-1.56c-1.17,1.12-2.22,1.76-3.67,1.76-1.72,0-2.86-1.14-2.86-3.26v-4.71l-1.25-1.45,.02-.26,2.86-1.01,.24,.15v6.16c0,2.02,.59,3.08,2.16,3.08,.97,0,1.83-.42,2.51-.97v-5.7l-1.25-1.45,.02-.26,2.86-1.01,.24,.15v8.27c0,1.23,.31,1.32,1.67,1.14l.07,.51Z"/><path class="cls-1" d="M962.51,350.26l.24,.15v14.32c0,.99,.51,1.21,1.45,1.3v.37h-4.77v-.37c.95-.09,1.45-.31,1.45-1.3v-11.75l-1.25-1.45,.02-.26,2.86-1.01Z"/><path class="cls-1" d="M976.57,366.13l-3.41,.42-.2-1.34c-.7,1.01-1.85,1.56-3.15,1.56-2.84,0-4.31-2.27-4.31-4.97,0-3.26,1.98-5.63,5.08-5.63,.95,0,1.71,.22,2.38,.53v-3.81l-1.25-1.45,.02-.26,2.86-1.01,.24,.15v14.08c0,1.25,.31,1.34,1.67,1.14l.07,.59Zm-3.61-1.52v-5.68c-.22-1.14-.97-2.18-2.6-2.18-2.2,0-3.01,1.76-3.01,3.98,0,2.49,1.28,4.51,3.48,4.51,.86,0,1.54-.18,2.13-.64Z"/><path class="cls-1" d="M990.01,356.51h3.1v.37c-.68,.15-.88,.4-1.32,1.45l-3.83,9.07c-.29,.57-.4,.81-.68,1.34-.55,1.03-1.54,2.07-3.65,2.07v-2.18c2.04,0,3.1-.02,3.76-1.32l.46-1.01c-1.23-3.08-2.2-5.3-3.46-8.38-.2-.48-.51-.97-1.23-1.03v-.37h4.22v.37c-1.01,.07-1.03,.84-.62,1.87l2.07,5.21,2.22-5.48c.35-.86,.15-1.45-1.06-1.61v-.37Z"/><path class="cls-1" d="M993.88,361.44c0-3.15,1.94-5.26,4.88-5.26,3.43,0,5.15,1.96,5.15,5.33,0,3.15-1.94,5.26-4.88,5.26-3.32,0-5.15-2.09-5.15-5.32Zm7.96,1.03c0-3.65-.99-5.9-3.17-5.9s-2.73,1.83-2.73,3.89c0,3.7,1.01,5.87,3.21,5.87s2.68-1.69,2.68-3.87Z"/><path class="cls-1" d="M1016.82,366.13l-3.41,.42-.2-1.56c-1.17,1.12-2.22,1.76-3.68,1.76-1.71,0-2.86-1.14-2.86-3.26v-4.71l-1.25-1.45,.02-.26,2.86-1.01,.24,.15v6.16c0,2.02,.6,3.08,2.16,3.08,.97,0,1.83-.42,2.51-.97v-5.7l-1.25-1.45,.02-.26,2.86-1.01,.24,.15v8.27c0,1.23,.31,1.32,1.67,1.14l.06,.51Z"/><path class="cls-1" d="M354.45,384.58v2.68h-.33c-.35-1.85-1.25-2.6-2.71-2.6-1.36,0-2.09,.62-2.09,1.69,0,.81,.37,1.32,1.12,1.72l2.13,1.12c1.06,.55,2,1.1,2,2.53,0,1.78-1.52,3.04-3.89,3.04-1.08,0-2.35-.29-3.08-.62l-.31-2.68,.39-.07c.71,1.74,1.47,2.82,3.21,2.82,1.04,0,1.98-.51,1.98-1.67,0-.68-.38-1.1-1.12-1.5l-2.27-1.19c-1.12-.59-1.76-1.25-1.76-2.66,0-1.78,1.45-3.04,3.72-3.04,1.05,0,1.98,.15,2.99,.42Z"/><path class="cls-1" d="M363.23,392.92c-.57,.84-1.56,1.85-3.21,1.85-1.38,0-2.29-.99-2.29-2.73v-6.98h-1.89l3.46-3.65h.31v3.1h3.21v.55h-3.21v6.65c0,1.06,.33,1.67,1.45,1.67,.77,0,1.43-.31,1.94-.73l.24,.26Z"/><path class="cls-1" d="M375.42,394.13l-3.41,.42-.2-1.56c-1.17,1.12-2.22,1.76-3.68,1.76-1.71,0-2.86-1.14-2.86-3.26v-4.71l-1.25-1.45,.02-.26,2.86-1.01,.24,.15v6.16c0,2.02,.6,3.08,2.16,3.08,.97,0,1.83-.42,2.51-.97v-5.7l-1.25-1.45,.02-.26,2.86-1.01,.24,.15v8.27c0,1.23,.31,1.32,1.67,1.14l.06,.51Z"/><path class="cls-1" d="M378.16,385.06h-1.87v-.55h1.87v-.88c0-3.54,1.01-5.61,3.7-5.61,1.06,0,2.57,.33,2.57,1.25,0,.38-.31,.71-.79,.71-1.17,0-1.61-1.47-2.55-1.47s-1.54,.79-1.54,2.05c0,.92,.22,2.68,.48,3.96h2.71v.57h-2.71v7.66c0,.99,.51,1.21,2.11,1.3v.37h-5.44v-.37c.95-.09,1.45-.31,1.45-1.3v-7.68Z"/><path class="cls-1" d="M385.38,385.06h-1.87v-.55h1.87v-.88c0-3.54,1.01-5.61,3.7-5.61,1.06,0,2.57,.33,2.57,1.25,0,.38-.31,.71-.79,.71-1.17,0-1.61-1.47-2.55-1.47s-1.54,.79-1.54,2.05c0,.92,.22,2.68,.48,3.96h2.71v.57h-2.71v7.66c0,.99,.51,1.21,2.11,1.3v.37h-5.44v-.37c.95-.09,1.45-.31,1.45-1.3v-7.68Z"/><path class="cls-1" d="M413.16,392.74c0,.99,.51,1.21,1.45,1.3v.37h-4.77v-.37c.95-.09,1.45-.31,1.45-1.3v-4.58c0-1.76-.55-2.75-2.18-2.75-1.04,0-2.22,.68-2.64,1.63,.02,.13,.02,.29,.02,.44v5.26c0,.99,.51,1.21,1.45,1.3v.37h-4.78v-.37c.95-.09,1.45-.31,1.45-1.3v-4.58c0-1.76-.55-2.75-2.18-2.75-.95,0-2.07,.59-2.55,1.43v5.9c0,.99,.51,1.21,1.45,1.3v.37h-4.78v-.37c.95-.09,1.45-.31,1.45-1.3v-5.99l-1.25-1.45,.02-.26,2.86-1.01,.24,.15v2.02c.95-1.1,2.31-2.05,3.67-2.05,1.63,0,2.53,.95,2.82,2.27,.95-1.19,2.4-2.27,3.85-2.27,2.05,0,2.93,1.5,2.93,3.32v5.26Z"/><path class="cls-1" d="M421.91,384.51h3.1v.37c-.68,.15-.88,.4-1.32,1.45l-3.83,9.07c-.29,.57-.4,.81-.68,1.34-.55,1.03-1.54,2.07-3.65,2.07v-2.18c2.05,0,3.1-.02,3.76-1.32l.46-1.01c-1.23-3.08-2.2-5.3-3.45-8.38-.2-.48-.51-.97-1.23-1.03v-.37h4.22v.37c-1.01,.07-1.04,.84-.62,1.87l2.07,5.21,2.22-5.48c.35-.86,.15-1.45-1.06-1.61v-.37Z"/><path class="cls-1" d="M435.05,397.14c0,.99,.51,1.21,2.11,1.3v.37h-5.44v-.37c.95-.09,1.45-.31,1.45-1.3v-10.39l-1.25-1.45,.02-.26,2.86-1.01,.24,.15v2.49c.7-1.28,1.98-2.51,3.63-2.51,2.62,0,3.83,2.27,3.83,5.02,0,3.32-1.85,5.59-4.91,5.59-.86,0-1.71-.2-2.55-.48v2.86Zm5.52-7.42c0-2.09-.79-4.07-3.04-4.07-1.26,0-2.13,.88-2.49,1.83v4.42c.13,1.45,1.36,2.44,2.55,2.44,2.16,0,2.97-2.22,2.97-4.62Z"/><path class="cls-1" d="M445.49,386.32l-1.26-1.01v-.26l2.88-1.01,.24,.15v8.56c0,.99,.51,1.21,1.45,1.3v.37h-4.78v-.37c.95-.09,1.45-.31,1.45-1.3v-6.43Zm-.44-5.7c0-.66,.51-1.23,1.25-1.23s1.25,.55,1.25,1.23c0,.86-.48,1.34-1.25,1.34s-1.25-.48-1.25-1.34Z"/><path class="cls-1" d="M453.28,397.14c0,.99,.51,1.21,2.11,1.3v.37h-5.44v-.37c.95-.09,1.45-.31,1.45-1.3v-10.39l-1.25-1.45,.02-.26,2.86-1.01,.24,.15v2.49c.7-1.28,1.98-2.51,3.63-2.51,2.62,0,3.83,2.27,3.83,5.02,0,3.32-1.85,5.59-4.91,5.59-.86,0-1.71-.2-2.55-.48v2.86Zm5.52-7.42c0-2.09-.79-4.07-3.04-4.07-1.26,0-2.13,.88-2.49,1.83v4.42c.13,1.45,1.36,2.44,2.55,2.44,2.16,0,2.97-2.22,2.97-4.62Z"/><path class="cls-1" d="M471.14,391.71c-.55,1.56-1.85,3.06-4.09,3.06-3.06,0-4.8-2.29-4.8-5.32s1.94-5.26,4.75-5.26c2.13,0,3.87,1.14,3.96,4.27h-6.87c0,2.93,1.45,4.84,3.79,4.84,1.14,0,2.27-.51,2.9-1.76l.35,.18Zm-7.02-3.81h4.64c0-1.89-.66-3.26-2.22-3.26s-2.4,1.34-2.42,3.26Z"/><path class="cls-1" d="M475.1,390.21l-.04-.57c-.13-1.19,.26-2.49,1.36-3.81,.99-1.17,1.54-2.02,1.54-3.01,0-1.12-.71-1.87-2.09-1.89-.79,0-1.67,.26-2.22,.68l-.53-1.39c.73-.53,1.98-.88,3.15-.88,2.53,0,3.68,1.56,3.68,3.23,0,1.5-.84,2.57-1.89,3.83-.97,1.14-1.32,2.11-1.25,3.23l.02,.57h-1.72Zm-.48,3.08c0-.81,.55-1.39,1.32-1.39s1.3,.57,1.3,1.39c0,.77-.51,1.36-1.32,1.36-.77,0-1.3-.59-1.3-1.36Z"/><path class="cls-1" d="M496.72,379.94h4.42v.55c-1.23,.02-1.54,.33-1.54,1.32l-.11,12.61h-.35l-9.68-11.64,.07,9.57c0,1.19,.38,1.5,2.27,1.52v.55h-4.42v-.55c1.23-.02,1.54-.33,1.54-1.32l.09-10.21-1.54-1.87v-.53h2.36l9.29,11.38-.11-9.31c-.02-1.19-.37-1.5-2.27-1.52v-.55Z"/><path class="cls-1" d="M502.29,389.44c0-3.15,1.94-5.26,4.88-5.26,3.43,0,5.15,1.96,5.15,5.33,0,3.15-1.94,5.26-4.88,5.26-3.32,0-5.15-2.09-5.15-5.32Zm7.96,1.03c0-3.65-.99-5.9-3.17-5.9s-2.73,1.83-2.73,3.89c0,3.7,1.01,5.87,3.21,5.87s2.69-1.69,2.69-3.87Z"/><path class="cls-1" d="M513.51,397.58c1.25-.86,2.07-2.11,2.07-2.77,0-.31-.31-.42-.71-.66-.4-.24-.64-.59-.64-1.08,0-.75,.48-1.25,1.19-1.25,.9,0,1.32,.79,1.32,1.58,0,1.41-1.1,3.21-3.04,4.44l-.2-.26Z"/><path class="cls-1" d="M525.8,386.32l-1.25-1.01v-.26l2.88-1.01,.24,.15v8.56c0,.99,.51,1.21,1.45,1.3v.37h-4.78v-.37c.95-.09,1.45-.31,1.45-1.3v-6.43Zm-.44-5.7c0-.66,.51-1.23,1.25-1.23s1.25,.55,1.25,1.23c0,.86-.48,1.34-1.25,1.34s-1.25-.48-1.25-1.34Z"/><path class="cls-1" d="M537.33,392.92c-.57,.84-1.56,1.85-3.21,1.85-1.39,0-2.29-.99-2.29-2.73v-6.98h-1.89l3.46-3.65h.31v3.1h3.21v.55h-3.21v6.65c0,1.06,.33,1.67,1.45,1.67,.77,0,1.43-.31,1.94-.73l.24,.26Z"/><path class="cls-1" d="M540.49,379.34l-.37,5.28h-1.19l-.35-5.28h1.91Z"/><path class="cls-1" d="M549.8,384.58v2.68h-.33c-.35-1.85-1.25-2.6-2.71-2.6-1.37,0-2.09,.62-2.09,1.69,0,.81,.38,1.32,1.12,1.72l2.13,1.12c1.06,.55,2,1.1,2,2.53,0,1.78-1.52,3.04-3.89,3.04-1.08,0-2.36-.29-3.08-.62l-.31-2.68,.4-.07c.7,1.74,1.47,2.82,3.21,2.82,1.03,0,1.98-.51,1.98-1.67,0-.68-.37-1.1-1.12-1.5l-2.27-1.19c-1.12-.59-1.76-1.25-1.76-2.66,0-1.78,1.45-3.04,3.72-3.04,1.06,0,1.98,.15,2.99,.42Z"/><path class="cls-1" d="M558.62,385.3v-.26l2.88-1.01,.24,.15v10.47c0,2.24-.95,3.59-3.52,4.16l-.06-.2c1.34-.53,1.71-1.83,1.71-3.65v-8.21l-1.25-1.45Zm.57-4.69c0-.66,.51-1.23,1.25-1.23s1.25,.55,1.25,1.23c0,.86-.48,1.34-1.25,1.34s-1.25-.48-1.25-1.34Z"/><path class="cls-1" d="M575.38,394.13l-3.41,.42-.2-1.56c-1.17,1.12-2.22,1.76-3.68,1.76-1.71,0-2.86-1.14-2.86-3.26v-4.71l-1.25-1.45,.02-.26,2.86-1.01,.24,.15v6.16c0,2.02,.6,3.08,2.16,3.08,.97,0,1.83-.42,2.51-.97v-5.7l-1.25-1.45,.02-.26,2.86-1.01,.24,.15v8.27c0,1.23,.31,1.32,1.67,1.14l.06,.51Z"/><path class="cls-1" d="M583.59,384.58v2.68h-.33c-.35-1.85-1.25-2.6-2.71-2.6-1.36,0-2.09,.62-2.09,1.69,0,.81,.37,1.32,1.12,1.72l2.13,1.12c1.06,.55,2,1.1,2,2.53,0,1.78-1.52,3.04-3.89,3.04-1.08,0-2.35-.29-3.08-.62l-.31-2.68,.39-.07c.71,1.74,1.47,2.82,3.21,2.82,1.04,0,1.98-.51,1.98-1.67,0-.68-.38-1.1-1.12-1.5l-2.27-1.19c-1.12-.59-1.76-1.25-1.76-2.66,0-1.78,1.45-3.04,3.72-3.04,1.05,0,1.98,.15,2.99,.42Z"/><path class="cls-1" d="M592.36,392.92c-.57,.84-1.56,1.85-3.21,1.85-1.38,0-2.29-.99-2.29-2.73v-6.98h-1.89l3.46-3.65h.31v3.1h3.21v.55h-3.21v6.65c0,1.06,.33,1.67,1.45,1.67,.77,0,1.43-.31,1.94-.73l.24,.26Z"/><path class="cls-1" d="M608.99,393.42c-.48,.77-1.3,1.23-2.09,1.23-1.25,0-1.89-.68-2.05-1.72-.72,1.21-1.8,1.83-2.99,1.83-1.43,0-2.4-.86-2.4-2.35,0-1.34,.95-2.31,2.86-2.82,.53-.13,1.63-.33,2.51-.46v-1.12c0-1.65-.44-2.55-2-2.55-1.41,0-2.24,.84-2.95,1.91l-.39-.24c1.05-1.87,2.35-2.97,4.16-2.97,2.13,0,3.06,1.17,3.06,3.56v4.42c0,.79,.2,1.43,1.08,1.43,.42,0,.73-.2,.99-.4l.22,.24Zm-4.16-1.65v-2.13c-.46,.07-.97,.15-1.45,.26-1.32,.29-2.05,1.03-2.05,1.98s.53,1.61,1.47,1.61,1.76-.68,2.02-1.72Z"/><path class="cls-1" d="M618.8,389.09v3.65c0,.97,.59,1.23,2.31,1.3v.37h-5.63v-.37c.95-.09,1.45-.31,1.45-1.3v-6.43l-1.25-1.01v-.26l2.88-.88,.24,.15v2.95c.11-.44,.24-.9,.59-1.47,.37-.57,1.19-1.63,3.3-1.63v2.16c-.57-.11-1.14-.2-1.83-.2-1.5,0-2.07,.95-2.07,2.97Z"/><path class="cls-1" d="M632.64,391.71c-.55,1.56-1.85,3.06-4.09,3.06-3.06,0-4.8-2.29-4.8-5.32s1.94-5.26,4.75-5.26c2.13,0,3.87,1.14,3.96,4.27h-6.87c0,2.93,1.45,4.84,3.79,4.84,1.14,0,2.27-.51,2.9-1.76l.35,.18Zm-7.02-3.81h4.64c0-1.89-.66-3.26-2.22-3.26s-2.4,1.34-2.42,3.26Z"/><path class="cls-1" d="M637.37,397.14c0,.99,.51,1.21,2.11,1.3v.37h-5.44v-.37c.95-.09,1.45-.31,1.45-1.3v-10.39l-1.25-1.45,.02-.26,2.86-1.01,.24,.15v2.49c.7-1.28,1.98-2.51,3.63-2.51,2.62,0,3.83,2.27,3.83,5.02,0,3.32-1.85,5.59-4.91,5.59-.86,0-1.71-.2-2.55-.48v2.86Zm5.52-7.42c0-2.09-.79-4.07-3.04-4.07-1.26,0-2.13,.88-2.49,1.83v4.42c.13,1.45,1.36,2.44,2.55,2.44,2.16,0,2.97-2.22,2.97-4.62Z"/><path class="cls-1" d="M649.69,389.09v3.65c0,.97,.59,1.23,2.31,1.3v.37h-5.63v-.37c.95-.09,1.45-.31,1.45-1.3v-6.43l-1.25-1.01v-.26l2.88-.88,.24,.15v2.95c.11-.44,.24-.9,.59-1.47,.37-.57,1.19-1.63,3.3-1.63v2.16c-.57-.11-1.14-.2-1.83-.2-1.5,0-2.07,.95-2.07,2.97Z"/><path class="cls-1" d="M663.52,391.71c-.55,1.56-1.85,3.06-4.09,3.06-3.06,0-4.8-2.29-4.8-5.32s1.94-5.26,4.75-5.26c2.13,0,3.87,1.14,3.96,4.27h-6.87c0,2.93,1.45,4.84,3.79,4.84,1.14,0,2.27-.51,2.9-1.76l.35,.18Zm-7.02-3.81h4.64c0-1.89-.66-3.26-2.22-3.26s-2.4,1.34-2.42,3.26Z"/><path class="cls-1" d="M672.58,384.58v2.68h-.33c-.35-1.85-1.25-2.6-2.71-2.6-1.36,0-2.09,.62-2.09,1.69,0,.81,.37,1.32,1.12,1.72l2.13,1.12c1.06,.55,2,1.1,2,2.53,0,1.78-1.52,3.04-3.89,3.04-1.08,0-2.35-.29-3.08-.62l-.31-2.68,.39-.07c.71,1.74,1.47,2.82,3.21,2.82,1.04,0,1.98-.51,1.98-1.67,0-.68-.38-1.1-1.12-1.5l-2.27-1.19c-1.12-.59-1.76-1.25-1.76-2.66,0-1.78,1.45-3.04,3.72-3.04,1.05,0,1.98,.15,2.99,.42Z"/><path class="cls-1" d="M683.3,391.71c-.55,1.56-1.85,3.06-4.09,3.06-3.06,0-4.8-2.29-4.8-5.32s1.94-5.26,4.75-5.26c2.13,0,3.87,1.14,3.96,4.27h-6.86c0,2.93,1.45,4.84,3.78,4.84,1.14,0,2.27-.51,2.9-1.76l.35,.18Zm-7.02-3.81h4.64c0-1.89-.66-3.26-2.22-3.26s-2.4,1.34-2.42,3.26Z"/><path class="cls-1" d="M692.91,388.17c0-1.67-.55-2.75-2.11-2.75-1.01,0-1.98,.64-2.64,1.45v5.88c0,.99,.51,1.21,1.45,1.3v.37h-4.78v-.37c.95-.09,1.45-.31,1.45-1.3v-5.99l-1.25-1.45,.02-.26,2.86-1.01,.24,.15v2.02c.9-1.1,2.18-2.05,3.7-2.05,2.05,0,2.93,1.32,2.93,3.32v5.26c0,.99,.51,1.21,1.45,1.3v.37h-4.78v-.37c.95-.09,1.45-.31,1.45-1.3v-4.58Z"/><path class="cls-1" d="M704.06,392.92c-.57,.84-1.56,1.85-3.21,1.85-1.39,0-2.29-.99-2.29-2.73v-6.98h-1.89l3.46-3.65h.31v3.1h3.21v.55h-3.21v6.65c0,1.06,.33,1.67,1.45,1.67,.77,0,1.43-.31,1.94-.73l.24,.26Z"/><path class="cls-1" d="M714.64,393.42c-.48,.77-1.3,1.23-2.09,1.23-1.25,0-1.89-.68-2.05-1.72-.72,1.21-1.8,1.83-2.99,1.83-1.43,0-2.4-.86-2.4-2.35,0-1.34,.95-2.31,2.86-2.82,.53-.13,1.63-.33,2.51-.46v-1.12c0-1.65-.44-2.55-2-2.55-1.41,0-2.24,.84-2.95,1.91l-.39-.24c1.05-1.87,2.35-2.97,4.16-2.97,2.13,0,3.06,1.17,3.06,3.56v4.42c0,.79,.2,1.43,1.08,1.43,.42,0,.73-.2,.99-.4l.22,.24Zm-4.16-1.65v-2.13c-.46,.07-.97,.15-1.45,.26-1.32,.29-2.05,1.03-2.05,1.98s.53,1.61,1.47,1.61,1.76-.68,2.02-1.72Z"/><path class="cls-1" d="M722.01,392.92c-.57,.84-1.56,1.85-3.21,1.85-1.39,0-2.29-.99-2.29-2.73v-6.98h-1.89l3.46-3.65h.31v3.1h3.21v.55h-3.21v6.65c0,1.06,.33,1.67,1.45,1.67,.77,0,1.43-.31,1.94-.73l.24,.26Z"/><path class="cls-1" d="M724.27,386.32l-1.25-1.01v-.26l2.88-1.01,.24,.15v8.56c0,.99,.51,1.21,1.45,1.3v.37h-4.78v-.37c.95-.09,1.45-.31,1.45-1.3v-6.43Zm-.44-5.7c0-.66,.51-1.23,1.25-1.23s1.25,.55,1.25,1.23c0,.86-.48,1.34-1.25,1.34s-1.25-.48-1.25-1.34Z"/><path class="cls-1" d="M728.85,389.44c0-3.15,1.94-5.26,4.88-5.26,3.43,0,5.15,1.96,5.15,5.33,0,3.15-1.94,5.26-4.88,5.26-3.32,0-5.15-2.09-5.15-5.32Zm7.96,1.03c0-3.65-.99-5.9-3.17-5.9s-2.73,1.83-2.73,3.89c0,3.7,1.01,5.87,3.21,5.87s2.68-1.69,2.68-3.87Z"/><path class="cls-1" d="M748.49,388.17c0-1.67-.55-2.75-2.11-2.75-1.01,0-1.98,.64-2.64,1.45v5.88c0,.99,.51,1.21,1.45,1.3v.37h-4.78v-.37c.95-.09,1.45-.31,1.45-1.3v-5.99l-1.26-1.45,.02-.26,2.86-1.01,.24,.15v2.02c.9-1.1,2.18-2.05,3.7-2.05,2.04,0,2.93,1.32,2.93,3.32v5.26c0,.99,.51,1.21,1.45,1.3v.37h-4.78v-.37c.95-.09,1.45-.31,1.45-1.3v-4.58Z"/><path class="cls-1" d="M752.36,397.58c1.25-.86,2.07-2.11,2.07-2.77,0-.31-.31-.42-.7-.66-.4-.24-.64-.59-.64-1.08,0-.75,.48-1.25,1.19-1.25,.9,0,1.32,.79,1.32,1.58,0,1.41-1.1,3.21-3.04,4.44l-.2-.26Z"/><path class="cls-1" d="M764.66,386.32l-1.25-1.01v-.26l2.88-1.01,.24,.15v8.56c0,.99,.51,1.21,1.45,1.3v.37h-4.78v-.37c.95-.09,1.45-.31,1.45-1.3v-6.43Zm-.44-5.7c0-.66,.51-1.23,1.25-1.23s1.25,.55,1.25,1.23c0,.86-.48,1.34-1.25,1.34s-1.25-.48-1.25-1.34Z"/><path class="cls-1" d="M776.78,384.58v2.68h-.33c-.35-1.85-1.25-2.6-2.71-2.6-1.37,0-2.09,.62-2.09,1.69,0,.81,.38,1.32,1.12,1.72l2.13,1.12c1.06,.55,2,1.1,2,2.53,0,1.78-1.52,3.04-3.89,3.04-1.08,0-2.36-.29-3.08-.62l-.31-2.68,.4-.07c.7,1.74,1.47,2.82,3.21,2.82,1.03,0,1.98-.51,1.98-1.67,0-.68-.37-1.1-1.12-1.5l-2.27-1.19c-1.12-.59-1.76-1.25-1.76-2.66,0-1.78,1.45-3.04,3.72-3.04,1.06,0,1.98,.15,2.99,.42Z"/><path class="cls-1" d="M786.13,386.32l-1.26-1.01v-.26l2.88-1.01,.24,.15v8.56c0,.99,.51,1.21,1.45,1.3v.37h-4.78v-.37c.95-.09,1.45-.31,1.45-1.3v-6.43Zm-.44-5.7c0-.66,.51-1.23,1.25-1.23s1.25,.55,1.25,1.23c0,.86-.48,1.34-1.25,1.34s-1.25-.48-1.25-1.34Z"/><path class="cls-1" d="M797.65,392.92c-.57,.84-1.56,1.85-3.21,1.85-1.39,0-2.29-.99-2.29-2.73v-6.98h-1.89l3.46-3.65h.31v3.1h3.21v.55h-3.21v6.65c0,1.06,.33,1.67,1.45,1.67,.77,0,1.43-.31,1.94-.73l.24,.26Z"/><path class="cls-1" d="M812.59,388.17c0-1.67-.55-2.75-2.11-2.75-1.01,0-1.98,.64-2.64,1.45v5.88c0,.99,.51,1.21,1.45,1.3v.37h-4.78v-.37c.95-.09,1.45-.31,1.45-1.3v-5.99l-1.25-1.45,.02-.26,2.86-1.01,.24,.15v2.02c.9-1.1,2.18-2.05,3.7-2.05,2.05,0,2.93,1.32,2.93,3.32v5.26c0,.99,.51,1.21,1.45,1.3v.37h-4.78v-.37c.95-.09,1.45-.31,1.45-1.3v-4.58Z"/><path class="cls-1" d="M816.79,389.44c0-3.15,1.94-5.26,4.88-5.26,3.43,0,5.15,1.96,5.15,5.33,0,3.15-1.94,5.26-4.88,5.26-3.32,0-5.15-2.09-5.15-5.32Zm7.96,1.03c0-3.65-.99-5.9-3.17-5.9s-2.73,1.83-2.73,3.89c0,3.7,1.01,5.87,3.21,5.87s2.69-1.69,2.69-3.87Z"/><path class="cls-1" d="M835.29,392.92c-.57,.84-1.56,1.85-3.21,1.85-1.38,0-2.29-.99-2.29-2.73v-6.98h-1.89l3.46-3.65h.31v3.1h3.21v.55h-3.21v6.65c0,1.06,.33,1.67,1.45,1.67,.77,0,1.43-.31,1.94-.73l.24,.26Z"/><path class="cls-1" d="M838.52,390.21l-.04-.57c-.13-1.19,.26-2.49,1.36-3.81,.99-1.17,1.54-2.02,1.54-3.01,0-1.12-.71-1.87-2.09-1.89-.79,0-1.67,.26-2.22,.68l-.53-1.39c.73-.53,1.98-.88,3.15-.88,2.53,0,3.68,1.56,3.68,3.23,0,1.5-.84,2.57-1.89,3.83-.97,1.14-1.32,2.11-1.25,3.23l.02,.57h-1.72Zm-.48,3.08c0-.81,.55-1.39,1.32-1.39s1.3,.57,1.3,1.39c0,.77-.51,1.36-1.32,1.36-.77,0-1.3-.59-1.3-1.36Z"/><path class="cls-1" d="M860.28,380.33l.24,3.81h-.46c-.81-2.68-2.24-3.83-3.83-3.83-1.8,0-2.66,1.1-2.66,2.58,0,1.34,.86,2.18,2,2.84l3.06,1.76c1.25,.73,2.18,1.74,2.18,3.34,0,2.55-2.13,3.94-4.82,3.94-1.32,0-3.12-.42-4.16-.86l-.44-3.83,.55-.09c1.01,2.77,2.29,4.22,4.42,4.22,1.12,0,2.57-.64,2.57-2.42,0-1.39-.79-2.24-1.85-2.86l-2.95-1.72c-1.52-.88-2.42-1.94-2.42-3.67,0-2.42,1.85-3.81,4.73-3.81,1.34,0,2.62,.2,3.83,.59Z"/><path class="cls-1" d="M862.56,389.44c0-3.15,1.94-5.26,4.88-5.26,3.43,0,5.15,1.96,5.15,5.33,0,3.15-1.94,5.26-4.88,5.26-3.32,0-5.15-2.09-5.15-5.32Zm7.96,1.03c0-3.65-.99-5.9-3.17-5.9s-2.73,1.83-2.73,3.89c0,3.7,1.01,5.87,3.21,5.87s2.68-1.69,2.68-3.87Z"/><path class="cls-1" d="M881.63,386.32l-1.26-1.01v-.26l2.88-1.01,.24,.15v8.56c0,.99,.51,1.21,1.45,1.3v.37h-4.78v-.37c.95-.09,1.45-.31,1.45-1.3v-6.43Zm-.44-5.7c0-.66,.51-1.23,1.25-1.23s1.25,.55,1.25,1.23c0,.86-.48,1.34-1.25,1.34s-1.25-.48-1.25-1.34Z"/><path class="cls-1" d="M888.3,385.06h-1.87v-.55h1.87v-.88c0-3.54,1.01-5.61,3.7-5.61,1.05,0,2.57,.33,2.57,1.25,0,.38-.31,.71-.79,.71-1.17,0-1.61-1.47-2.55-1.47s-1.54,.79-1.54,2.05c0,.92,.22,2.68,.48,3.96h2.71v.57h-2.71v7.66c0,.99,.51,1.21,2.11,1.3v.37h-5.44v-.37c.95-.09,1.45-.31,1.45-1.3v-7.68Z"/><path class="cls-1" d="M904.51,380.49c-1.19,.09-1.56,.33-1.56,1.32v10.54c0,1.19,.37,1.5,1.56,1.52v.55h-5.11v-.55c1.23-.02,1.54-.33,1.54-1.32v-10.74c0-.99-.53-1.23-1.54-1.32v-.55h5.11v.55Z"/><path class="cls-1" d="M919.89,388.17c0-1.67-.55-2.75-2.11-2.75-1.01,0-1.98,.64-2.64,1.45v5.88c0,.99,.51,1.21,1.45,1.3v.37h-4.77v-.37c.95-.09,1.45-.31,1.45-1.3v-12.32l-1.25-1.01v-.26l2.88-1.01,.24,.15v7.92c.9-1.1,2.18-2.05,3.7-2.05,2.05,0,2.93,1.32,2.93,3.32v5.26c0,.99,.51,1.21,1.45,1.3v.37h-4.77v-.37c.95-.09,1.45-.31,1.45-1.3v-4.58Z"/><path class="cls-1" d="M933.88,393.42c-.48,.77-1.3,1.23-2.09,1.23-1.25,0-1.89-.68-2.05-1.72-.73,1.21-1.8,1.83-2.99,1.83-1.43,0-2.4-.86-2.4-2.35,0-1.34,.95-2.31,2.86-2.82,.53-.13,1.63-.33,2.51-.46v-1.12c0-1.65-.44-2.55-2-2.55-1.41,0-2.25,.84-2.95,1.91l-.4-.24c1.06-1.87,2.36-2.97,4.16-2.97,2.13,0,3.06,1.17,3.06,3.56v4.42c0,.79,.2,1.43,1.08,1.43,.42,0,.73-.2,.99-.4l.22,.24Zm-4.16-1.65v-2.13c-.46,.07-.97,.15-1.45,.26-1.32,.29-2.05,1.03-2.05,1.98s.53,1.61,1.47,1.61,1.76-.68,2.03-1.72Z"/><path class="cls-1" d="M945.36,394.13l-3.41,.42-.2-1.34c-.71,1.01-1.85,1.56-3.15,1.56-2.84,0-4.31-2.27-4.31-4.97,0-3.26,1.98-5.63,5.08-5.63,.95,0,1.72,.22,2.38,.53v-3.81l-1.25-1.45,.02-.26,2.86-1.01,.24,.15v14.08c0,1.25,.31,1.34,1.67,1.14l.06,.59Zm-3.61-1.52v-5.68c-.22-1.14-.97-2.18-2.6-2.18-2.2,0-3.01,1.76-3.01,3.98,0,2.49,1.28,4.51,3.48,4.51,.86,0,1.54-.18,2.13-.64Z"/><path class="cls-1" d="M964.58,384.51h3.1v.37c-.68,.09-.99,.4-1.34,1.34l-3.01,8.19h-.66l-2.71-6.89-2.82,6.89h-.66l-3.28-8.25c-.42-1.03-.64-1.19-1.28-1.28v-.37h4.01v.37c-.68,.09-1.04,.64-.71,1.47l2.33,5.9,2.11-5.48-.24-.62c-.42-1.03-.64-1.19-1.28-1.28v-.37h4.03v.37c-.75,.07-1.03,.62-.79,1.28l2.22,6.16,2.03-5.79c.35-.99,.24-1.52-1.06-1.65v-.37Z"/><path class="cls-1" d="M972.04,389.09v3.65c0,.97,.59,1.23,2.31,1.3v.37h-5.63v-.37c.95-.09,1.45-.31,1.45-1.3v-6.43l-1.25-1.01v-.26l2.88-.88,.24,.15v2.95c.11-.44,.24-.9,.59-1.47,.37-.57,1.19-1.63,3.3-1.63v2.16c-.57-.11-1.14-.2-1.83-.2-1.5,0-2.07,.95-2.07,2.97Z"/><path class="cls-1" d="M978.46,386.32l-1.25-1.01v-.26l2.88-1.01,.24,.15v8.56c0,.99,.51,1.21,1.45,1.3v.37h-4.78v-.37c.95-.09,1.45-.31,1.45-1.3v-6.43Zm-.44-5.7c0-.66,.51-1.23,1.25-1.23s1.25,.55,1.25,1.23c0,.86-.48,1.34-1.25,1.34s-1.25-.48-1.25-1.34Z"/><path class="cls-1" d="M989.99,392.92c-.57,.84-1.56,1.85-3.21,1.85-1.38,0-2.29-.99-2.29-2.73v-6.98h-1.89l3.46-3.65h.31v3.1h3.21v.55h-3.21v6.65c0,1.06,.33,1.67,1.45,1.67,.77,0,1.43-.31,1.94-.73l.24,.26Z"/><path class="cls-1" d="M997.73,392.92c-.57,.84-1.56,1.85-3.21,1.85-1.38,0-2.29-.99-2.29-2.73v-6.98h-1.89l3.46-3.65h.31v3.1h3.21v.55h-3.21v6.65c0,1.06,.33,1.67,1.45,1.67,.77,0,1.43-.31,1.94-.73l.24,.26Z"/><path class="cls-1" d="M1007.41,391.71c-.55,1.56-1.85,3.06-4.09,3.06-3.06,0-4.8-2.29-4.8-5.32s1.94-5.26,4.75-5.26c2.13,0,3.87,1.14,3.96,4.27h-6.87c0,2.93,1.45,4.84,3.79,4.84,1.14,0,2.27-.51,2.9-1.76l.35,.18Zm-7.02-3.81h4.64c0-1.89-.66-3.26-2.22-3.26s-2.4,1.34-2.42,3.26Z"/><path class="cls-1" d="M1017.02,388.17c0-1.67-.55-2.75-2.11-2.75-1.01,0-1.98,.64-2.64,1.45v5.88c0,.99,.51,1.21,1.45,1.3v.37h-4.78v-.37c.95-.09,1.45-.31,1.45-1.3v-5.99l-1.26-1.45,.02-.26,2.86-1.01,.24,.15v2.02c.9-1.1,2.18-2.05,3.7-2.05,2.04,0,2.93,1.32,2.93,3.32v5.26c0,.99,.51,1.21,1.45,1.3v.37h-4.78v-.37c.95-.09,1.45-.31,1.45-1.3v-4.58Z"/><path class="cls-1" d="M449.97,417.44c0-3.15,1.94-5.26,4.88-5.26,3.43,0,5.15,1.96,5.15,5.33,0,3.15-1.94,5.26-4.88,5.26-3.32,0-5.15-2.09-5.15-5.32Zm7.96,1.03c0-3.65-.99-5.9-3.17-5.9s-2.73,1.83-2.73,3.89c0,3.7,1.01,5.87,3.21,5.87s2.69-1.69,2.69-3.87Z"/><path class="cls-1" d="M469.61,416.17c0-1.67-.55-2.75-2.11-2.75-1.01,0-1.98,.64-2.64,1.45v5.88c0,.99,.51,1.21,1.45,1.3v.37h-4.78v-.37c.95-.09,1.45-.31,1.45-1.3v-5.99l-1.25-1.45,.02-.26,2.86-1.01,.24,.15v2.02c.9-1.1,2.18-2.05,3.7-2.05,2.05,0,2.93,1.32,2.93,3.32v5.26c0,.99,.51,1.21,1.45,1.3v.37h-4.78v-.37c.95-.09,1.45-.31,1.45-1.3v-4.58Z"/><path class="cls-1" d="M496.47,420.74c0,.99,.51,1.21,1.45,1.3v.37h-4.78v-.37c.95-.09,1.45-.31,1.45-1.3v-4.58c0-1.76-.55-2.75-2.18-2.75-1.03,0-2.22,.68-2.64,1.63,.02,.13,.02,.29,.02,.44v5.26c0,.99,.51,1.21,1.45,1.3v.37h-4.77v-.37c.95-.09,1.45-.31,1.45-1.3v-4.58c0-1.76-.55-2.75-2.18-2.75-.95,0-2.07,.59-2.55,1.43v5.9c0,.99,.51,1.21,1.45,1.3v.37h-4.78v-.37c.95-.09,1.45-.31,1.45-1.3v-5.99l-1.26-1.45,.02-.26,2.86-1.01,.24,.15v2.02c.95-1.1,2.31-2.05,3.67-2.05,1.63,0,2.53,.95,2.82,2.27,.95-1.19,2.4-2.27,3.85-2.27,2.05,0,2.93,1.5,2.93,3.32v5.26Z"/><path class="cls-1" d="M505.22,412.51h3.1v.37c-.68,.15-.88,.4-1.32,1.45l-3.83,9.07c-.29,.57-.4,.81-.68,1.34-.55,1.03-1.54,2.07-3.65,2.07v-2.18c2.05,0,3.1-.02,3.76-1.32l.46-1.01c-1.23-3.08-2.2-5.3-3.45-8.38-.2-.48-.51-.97-1.23-1.03v-.37h4.22v.37c-1.01,.07-1.04,.84-.62,1.87l2.07,5.21,2.22-5.48c.35-.86,.15-1.45-1.06-1.61v-.37Z"/><path class="cls-1" d="M518.36,425.14c0,.99,.51,1.21,2.11,1.3v.37h-5.44v-.37c.95-.09,1.45-.31,1.45-1.3v-10.39l-1.25-1.45,.02-.26,2.86-1.01,.24,.15v2.49c.71-1.28,1.98-2.51,3.63-2.51,2.62,0,3.83,2.27,3.83,5.02,0,3.32-1.85,5.59-4.91,5.59-.86,0-1.72-.2-2.55-.48v2.86Zm5.52-7.42c0-2.09-.79-4.07-3.04-4.07-1.25,0-2.13,.88-2.49,1.83v4.42c.13,1.45,1.36,2.44,2.55,2.44,2.16,0,2.97-2.22,2.97-4.62Z"/><path class="cls-1" d="M528.8,414.32l-1.25-1.01v-.26l2.88-1.01,.24,.15v8.56c0,.99,.51,1.21,1.45,1.3v.37h-4.78v-.37c.95-.09,1.45-.31,1.45-1.3v-6.43Zm-.44-5.7c0-.66,.51-1.23,1.25-1.23s1.25,.55,1.25,1.23c0,.86-.48,1.34-1.25,1.34s-1.25-.48-1.25-1.34Z"/><path class="cls-1" d="M538.57,412.16c1.67,0,3.39,.48,3.39,1.74,0,.53-.31,.86-.84,.86-1.28,0-1.63-2.11-3.1-2.11-1.83,0-2.75,2.09-2.75,4.18,0,2.35,1.3,4.44,3.67,4.44,1.37,0,2.44-.73,2.99-1.76l.35,.15c-.51,1.56-1.94,3.1-4.16,3.1-3.3,0-4.75-2.44-4.75-5.24,0-2.51,1.5-5.37,5.19-5.37Z"/><path class="cls-1" d="M550.29,420.92c-.57,.84-1.56,1.85-3.21,1.85-1.38,0-2.29-.99-2.29-2.73v-6.98h-1.89l3.46-3.65h.31v3.1h3.21v.55h-3.21v6.65c0,1.06,.33,1.67,1.45,1.67,.77,0,1.43-.31,1.94-.73l.24,.26Z"/><path class="cls-1" d="M562.48,422.13l-3.41,.42-.2-1.56c-1.17,1.12-2.22,1.76-3.67,1.76-1.72,0-2.86-1.14-2.86-3.26v-4.71l-1.25-1.45,.02-.26,2.86-1.01,.24,.15v6.16c0,2.02,.59,3.08,2.16,3.08,.97,0,1.83-.42,2.51-.97v-5.7l-1.25-1.45,.02-.26,2.86-1.01,.24,.15v8.27c0,1.23,.31,1.32,1.67,1.14l.07,.51Z"/><path class="cls-1" d="M566.48,417.09v3.65c0,.97,.59,1.23,2.31,1.3v.37h-5.63v-.37c.95-.09,1.45-.31,1.45-1.3v-6.43l-1.25-1.01v-.26l2.88-.88,.24,.15v2.95c.11-.44,.24-.9,.59-1.47,.37-.57,1.19-1.63,3.3-1.63v2.16c-.57-.11-1.14-.2-1.83-.2-1.5,0-2.07,.95-2.07,2.97Z"/><path class="cls-1" d="M580.32,419.71c-.55,1.56-1.85,3.06-4.09,3.06-3.06,0-4.8-2.29-4.8-5.32s1.94-5.26,4.75-5.26c2.13,0,3.87,1.14,3.96,4.27h-6.87c0,2.93,1.45,4.84,3.79,4.84,1.14,0,2.27-.51,2.9-1.76l.35,.18Zm-7.02-3.81h4.64c0-1.89-.66-3.26-2.22-3.26s-2.4,1.34-2.42,3.26Z"/><path class="cls-1" d="M590.26,407.34l-.37,5.28h-1.19l-.35-5.28h1.91Zm3.28,0l-.38,5.28h-1.17l-.37-5.28h1.91Z"/><path class="cls-1" d="M607.27,408.38l.55,3.43-.42,.13c-.88-1.8-1.23-3.54-3.12-3.56h-1.89v11.97c0,1.19,.48,1.5,1.67,1.52v.55h-5.35v-.55c1.19-.02,1.67-.33,1.67-1.52v-11.97h-2.03c-1.89,.02-2.31,1.76-3.19,3.56l-.42-.13,.48-3.43v-.46h12.04v.46Z"/><path class="cls-1" d="M616.66,416.17c0-1.67-.55-2.75-2.11-2.75-1.01,0-1.98,.64-2.64,1.45v5.88c0,.99,.51,1.21,1.45,1.3v.37h-4.78v-.37c.95-.09,1.45-.31,1.45-1.3v-12.32l-1.25-1.01v-.26l2.88-1.01,.24,.15v7.92c.9-1.1,2.18-2.05,3.7-2.05,2.05,0,2.93,1.32,2.93,3.32v5.26c0,.99,.51,1.21,1.45,1.3v.37h-4.78v-.37c.95-.09,1.45-.31,1.45-1.3v-4.58Z"/><path class="cls-1" d="M622.33,414.32l-1.26-1.01v-.26l2.88-1.01,.24,.15v8.56c0,.99,.51,1.21,1.45,1.3v.37h-4.78v-.37c.95-.09,1.45-.31,1.45-1.3v-6.43Zm-.44-5.7c0-.66,.51-1.23,1.25-1.23s1.25,.55,1.25,1.23c0,.86-.48,1.34-1.25,1.34s-1.25-.48-1.25-1.34Z"/><path class="cls-1" d="M634.45,412.58v2.68h-.33c-.35-1.85-1.25-2.6-2.71-2.6-1.36,0-2.09,.62-2.09,1.69,0,.81,.37,1.32,1.12,1.72l2.13,1.12c1.06,.55,2,1.1,2,2.53,0,1.78-1.52,3.04-3.89,3.04-1.08,0-2.35-.29-3.08-.62l-.31-2.68,.39-.07c.71,1.74,1.47,2.82,3.21,2.82,1.04,0,1.98-.51,1.98-1.67,0-.68-.38-1.1-1.12-1.5l-2.27-1.19c-1.12-.59-1.76-1.25-1.76-2.66,0-1.78,1.45-3.04,3.72-3.04,1.05,0,1.98,.15,2.99,.42Z"/><path class="cls-1" d="M643.8,414.32l-1.25-1.01v-.26l2.88-1.01,.24,.15v8.56c0,.99,.51,1.21,1.45,1.3v.37h-4.78v-.37c.95-.09,1.45-.31,1.45-1.3v-6.43Zm-.44-5.7c0-.66,.51-1.23,1.25-1.23s1.25,.55,1.25,1.23c0,.86-.48,1.34-1.25,1.34s-1.25-.48-1.25-1.34Z"/><path class="cls-1" d="M655.92,412.58v2.68h-.33c-.35-1.85-1.25-2.6-2.71-2.6-1.37,0-2.09,.62-2.09,1.69,0,.81,.38,1.32,1.12,1.72l2.13,1.12c1.06,.55,2,1.1,2,2.53,0,1.78-1.52,3.04-3.89,3.04-1.08,0-2.36-.29-3.08-.62l-.31-2.68,.4-.07c.7,1.74,1.47,2.82,3.21,2.82,1.03,0,1.98-.51,1.98-1.67,0-.68-.37-1.1-1.12-1.5l-2.27-1.19c-1.12-.59-1.76-1.25-1.76-2.66,0-1.78,1.45-3.04,3.72-3.04,1.06,0,1.98,.15,2.99,.42Z"/><path class="cls-1" d="M673.58,421.42c-.48,.77-1.3,1.23-2.09,1.23-1.25,0-1.89-.68-2.05-1.72-.72,1.21-1.8,1.83-2.99,1.83-1.43,0-2.4-.86-2.4-2.35,0-1.34,.95-2.31,2.86-2.82,.53-.13,1.63-.33,2.51-.46v-1.12c0-1.65-.44-2.55-2-2.55-1.41,0-2.24,.84-2.95,1.91l-.39-.24c1.05-1.87,2.35-2.97,4.16-2.97,2.13,0,3.06,1.17,3.06,3.56v4.42c0,.79,.2,1.43,1.08,1.43,.42,0,.73-.2,.99-.4l.22,.24Zm-4.16-1.65v-2.13c-.46,.07-.97,.15-1.45,.26-1.32,.29-2.05,1.03-2.05,1.98s.53,1.61,1.47,1.61,1.76-.68,2.02-1.72Z"/><path class="cls-1" d="M683.26,425.14c0,.99,.51,1.21,2.11,1.3v.37h-5.44v-.37c.95-.09,1.45-.31,1.45-1.3v-10.39l-1.25-1.45,.02-.26,2.86-1.01,.24,.15v2.49c.7-1.28,1.98-2.51,3.63-2.51,2.62,0,3.83,2.27,3.83,5.02,0,3.32-1.85,5.59-4.91,5.59-.86,0-1.71-.2-2.55-.48v2.86Zm5.52-7.42c0-2.09-.79-4.07-3.04-4.07-1.26,0-2.13,.88-2.49,1.83v4.42c.13,1.45,1.36,2.44,2.55,2.44,2.16,0,2.97-2.22,2.97-4.62Z"/><path class="cls-1" d="M693.71,414.32l-1.26-1.01v-.26l2.88-1.01,.24,.15v8.56c0,.99,.51,1.21,1.45,1.3v.37h-4.78v-.37c.95-.09,1.45-.31,1.45-1.3v-6.43Zm-.44-5.7c0-.66,.51-1.23,1.25-1.23s1.25,.55,1.25,1.23c0,.86-.48,1.34-1.25,1.34s-1.25-.48-1.25-1.34Z"/><path class="cls-1" d="M701.5,425.14c0,.99,.51,1.21,2.11,1.3v.37h-5.44v-.37c.95-.09,1.45-.31,1.45-1.3v-10.39l-1.25-1.45,.02-.26,2.86-1.01,.24,.15v2.49c.71-1.28,1.98-2.51,3.63-2.51,2.62,0,3.83,2.27,3.83,5.02,0,3.32-1.85,5.59-4.91,5.59-.86,0-1.72-.2-2.55-.48v2.86Zm5.52-7.42c0-2.09-.79-4.07-3.04-4.07-1.25,0-2.13,.88-2.49,1.83v4.42c.13,1.45,1.36,2.44,2.55,2.44,2.16,0,2.97-2.22,2.97-4.62Z"/><path class="cls-1" d="M719.36,419.71c-.55,1.56-1.85,3.06-4.09,3.06-3.06,0-4.8-2.29-4.8-5.32s1.94-5.26,4.75-5.26c2.13,0,3.87,1.14,3.96,4.27h-6.86c0,2.93,1.45,4.84,3.78,4.84,1.14,0,2.27-.51,2.9-1.76l.35,.18Zm-7.02-3.81h4.64c0-1.89-.66-3.26-2.22-3.26s-2.4,1.34-2.42,3.26Z"/><path class="cls-1" d="M723.25,407.34l-.38,5.28h-1.19l-.35-5.28h1.91Zm3.28,0l-.37,5.28h-1.17l-.38-5.28h1.91Z"/><path class="cls-1" d="M727.96,425.58c1.25-.86,2.07-2.11,2.07-2.77,0-.31-.31-.42-.71-.66-.4-.24-.64-.59-.64-1.08,0-.75,.48-1.25,1.19-1.25,.9,0,1.32,.79,1.32,1.58,0,1.41-1.1,3.21-3.04,4.44l-.2-.26Z"/><path class="cls-1" d="M743.82,408.49c-1.19,.09-1.56,.33-1.56,1.32v10.54c0,1.19,.38,1.5,1.56,1.52v.55h-5.11v-.55c1.23-.02,1.54-.33,1.54-1.32v-10.74c0-.99-.53-1.23-1.54-1.32v-.55h5.11v.55Z"/><path class="cls-1" d="M747.45,407.34l-.38,5.28h-1.19l-.35-5.28h1.91Z"/><path class="cls-1" d="M760.27,422.13l-3.41,.42-.2-1.34c-.71,1.01-1.85,1.56-3.15,1.56-2.84,0-4.31-2.27-4.31-4.97,0-3.26,1.98-5.63,5.08-5.63,.95,0,1.72,.22,2.38,.53v-3.81l-1.25-1.45,.02-.26,2.86-1.01,.24,.15v14.08c0,1.25,.31,1.34,1.67,1.14l.06,.59Zm-3.61-1.52v-5.68c-.22-1.14-.97-2.18-2.6-2.18-2.2,0-3.01,1.76-3.01,3.98,0,2.49,1.28,4.51,3.48,4.51,.86,0,1.54-.18,2.13-.64Z"/><path class="cls-1" d="M775.36,416.17c0-1.67-.55-2.75-2.11-2.75-1.01,0-1.98,.64-2.64,1.45v5.88c0,.99,.51,1.21,1.45,1.3v.37h-4.78v-.37c.95-.09,1.45-.31,1.45-1.3v-12.32l-1.25-1.01v-.26l2.88-1.01,.24,.15v7.92c.9-1.1,2.18-2.05,3.7-2.05,2.05,0,2.93,1.32,2.93,3.32v5.26c0,.99,.51,1.21,1.45,1.3v.37h-4.78v-.37c.95-.09,1.45-.31,1.45-1.3v-4.58Z"/><path class="cls-1" d="M789.35,421.42c-.48,.77-1.3,1.23-2.09,1.23-1.25,0-1.89-.68-2.05-1.72-.72,1.21-1.8,1.83-2.99,1.83-1.43,0-2.4-.86-2.4-2.35,0-1.34,.95-2.31,2.86-2.82,.53-.13,1.63-.33,2.51-.46v-1.12c0-1.65-.44-2.55-2-2.55-1.41,0-2.24,.84-2.95,1.91l-.39-.24c1.05-1.87,2.35-2.97,4.16-2.97,2.13,0,3.06,1.17,3.06,3.56v4.42c0,.79,.2,1.43,1.08,1.43,.42,0,.73-.2,.99-.4l.22,.24Zm-4.16-1.65v-2.13c-.46,.07-.97,.15-1.45,.26-1.32,.29-2.05,1.03-2.05,1.98s.53,1.61,1.47,1.61,1.76-.68,2.02-1.72Z"/><path class="cls-1" d="M796.98,414.54c.35-.99,.15-1.52-1.04-1.65v-.37h3.23v.37c-.68,.09-.97,.4-1.34,1.34l-3.23,8.19h-.66l-3.46-8.25c-.44-1.03-.7-1.19-1.34-1.28v-.37h4.09v.37c-.73,.09-1.06,.62-.79,1.28l2.46,6.21,2.07-5.83Z"/><path class="cls-1" d="M808.86,419.71c-.55,1.56-1.85,3.06-4.09,3.06-3.06,0-4.8-2.29-4.8-5.32s1.94-5.26,4.75-5.26c2.13,0,3.87,1.14,3.96,4.27h-6.87c0,2.93,1.45,4.84,3.79,4.84,1.14,0,2.27-.51,2.9-1.76l.35,.18Zm-7.02-3.81h4.64c0-1.89-.66-3.26-2.22-3.26s-2.4,1.34-2.42,3.26Z"/><path class="cls-1" d="M826.99,417.07c0,3.34-1.98,5.7-5.17,5.7-.95,0-1.87-.18-2.77-.66l-1.47,.46v-13.86l-1.25-1.45,.02-.26,2.86-1.01,.24,.15v7.7c.92-.99,2.18-1.67,3.52-1.67,2.71,0,4.03,2.13,4.03,4.91Zm-7.55-2.73v5.39c0,1.74,.95,2.57,2.4,2.57,2.35,0,3.34-1.96,3.34-4.33,0-2.75-.84-4.58-3.37-4.58-.99,0-1.8,.37-2.38,.95Z"/><path class="cls-1" d="M837.39,419.71c-.55,1.56-1.85,3.06-4.09,3.06-3.06,0-4.8-2.29-4.8-5.32s1.94-5.26,4.75-5.26c2.13,0,3.87,1.14,3.96,4.27h-6.86c0,2.93,1.45,4.84,3.78,4.84,1.14,0,2.27-.51,2.9-1.76l.35,.18Zm-7.02-3.81h4.64c0-1.89-.66-3.26-2.22-3.26s-2.4,1.34-2.42,3.26Z"/><path class="cls-1" d="M847.79,419.71c-.55,1.56-1.85,3.06-4.09,3.06-3.06,0-4.8-2.29-4.8-5.32s1.94-5.26,4.75-5.26c2.13,0,3.87,1.14,3.96,4.27h-6.86c0,2.93,1.45,4.84,3.78,4.84,1.14,0,2.27-.51,2.9-1.76l.35,.18Zm-7.02-3.81h4.64c0-1.89-.66-3.26-2.22-3.26s-2.4,1.34-2.42,3.26Z"/><path class="cls-1" d="M857.41,416.17c0-1.67-.55-2.75-2.11-2.75-1.01,0-1.98,.64-2.64,1.45v5.88c0,.99,.51,1.21,1.45,1.3v.37h-4.78v-.37c.95-.09,1.45-.31,1.45-1.3v-5.99l-1.25-1.45,.02-.26,2.86-1.01,.24,.15v2.02c.9-1.1,2.18-2.05,3.7-2.05,2.05,0,2.93,1.32,2.93,3.32v5.26c0,.99,.51,1.21,1.45,1.3v.37h-4.78v-.37c.95-.09,1.45-.31,1.45-1.3v-4.58Z"/><path class="cls-1" d="M870.73,406.26l.24,.15v14.32c0,.99,.51,1.21,1.45,1.3v.37h-4.77v-.37c.95-.09,1.45-.31,1.45-1.3v-11.75l-1.25-1.45,.02-.26,2.86-1.01Z"/><path class="cls-1" d="M880.15,412.51h3.1v.37c-.68,.15-.88,.4-1.32,1.45l-3.83,9.07c-.29,.57-.4,.81-.68,1.34-.55,1.03-1.54,2.07-3.65,2.07v-2.18c2.04,0,3.1-.02,3.76-1.32l.46-1.01c-1.23-3.08-2.2-5.3-3.46-8.38-.2-.48-.51-.97-1.23-1.03v-.37h4.22v.37c-1.01,.07-1.03,.84-.62,1.87l2.07,5.21,2.22-5.48c.35-.86,.15-1.45-1.06-1.61v-.37Z"/><path class="cls-1" d="M885.49,414.32l-1.26-1.01v-.26l2.88-1.01,.24,.15v8.56c0,.99,.51,1.21,1.45,1.3v.37h-4.78v-.37c.95-.09,1.45-.31,1.45-1.3v-6.43Zm-.44-5.7c0-.66,.51-1.23,1.25-1.23s1.25,.55,1.25,1.23c0,.86-.48,1.34-1.25,1.34s-1.25-.48-1.25-1.34Z"/><path class="cls-1" d="M898.16,416.17c0-1.67-.55-2.75-2.11-2.75-1.01,0-1.98,.64-2.64,1.45v5.88c0,.99,.51,1.21,1.45,1.3v.37h-4.78v-.37c.95-.09,1.45-.31,1.45-1.3v-5.99l-1.26-1.45,.02-.26,2.86-1.01,.24,.15v2.02c.9-1.1,2.18-2.05,3.7-2.05,2.04,0,2.93,1.32,2.93,3.32v5.26c0,.99,.51,1.21,1.45,1.3v.37h-4.78v-.37c.95-.09,1.45-.31,1.45-1.3v-4.58Z"/><path class="cls-1" d="M912.04,411.06v1.87h-2.73c.79,.62,1.14,1.54,1.14,2.62,0,2.07-1.45,3.3-3.98,3.3-.2,0-.4,0-.59-.02-.4,.29-1.12,.86-1.12,1.14,0,.37,.57,.42,1.8,.53l2.62,.24c1.71,.15,2.86,.9,2.86,2.44,0,2.29-2.27,3.96-5.35,3.96-2.66,0-4.27-.79-4.27-2.51,0-1.06,.79-1.96,2.2-2.62l-.66-.09c-.75-.11-1.21-.42-1.21-.9,0-.64,.42-.84,2.49-2.31-1.76-.37-2.66-1.63-2.66-3.21,0-2.09,1.5-3.34,4-3.34,.79,0,1.45,.13,2,.35l3.46-1.45Zm-6.93,11c-.59,.55-1.08,1.3-1.08,2.18,0,1.54,1.19,2.4,3.06,2.4s3.23-.86,3.23-2.53c0-1.14-.72-1.65-1.96-1.76l-3.26-.29Zm3.37-5.92c0-2-.62-3.43-2.07-3.46-1.36,.02-1.76,1.06-1.76,2.2,0,2.05,.64,3.41,2.05,3.41,1.28,0,1.78-.84,1.78-2.16Z"/><path class="cls-1" d="M913.67,421.29c0-.79,.55-1.36,1.3-1.36,.79,0,1.3,.57,1.3,1.36s-.51,1.36-1.3,1.36-1.3-.59-1.3-1.36Zm.55-3.15l-.31-10.56h2.11l-.31,10.56h-1.5Z"/></g><g><path class="cls-1" d="M649.68,703.5v9.91h-1.25v-7.8c-.51,.47-1.18,.63-2.26,.63v-1.02c1.69-.06,2.2-.69,2.45-1.71h1.06Z"/><path class="cls-1" d="M659.12,710.63c0,1.58-1.25,2.95-3.54,2.95s-3.54-1.25-3.56-3.03h1.2c.07,1.25,.88,2,2.38,2s2.28-.85,2.28-1.91-.71-1.75-2.55-1.75h-.83v-1.08h.83c1.69,0,2.29-.77,2.29-1.74,0-1.02-.8-1.71-1.98-1.71-1.11,0-2,.57-2.14,1.81h-1.21c.2-1.82,1.62-2.84,3.37-2.84,1.84,0,3.21,1.11,3.21,2.68,0,1.04-.45,1.87-1.4,2.25,1.05,.34,1.68,1.17,1.68,2.38Z"/><path class="cls-1" d="M660.96,708.47c0-2.99,1.46-5.15,3.95-5.15s3.95,2.16,3.95,5.15-1.46,5.11-3.95,5.11-3.95-2.12-3.95-5.11Zm6.7,0c0-2.48-.96-4.07-2.74-4.07s-2.74,1.59-2.74,4.07,.96,4.03,2.74,4.03,2.74-1.55,2.74-4.03Z"/><path class="cls-1" d="M682.62,706.25c0,1.63-1.12,2.82-3.38,2.82h-2.74v4.33h-1.24v-9.91h4.08c2.26,0,3.28,1.05,3.28,2.76Zm-1.24,0c0-1.11-.69-1.72-2.25-1.72h-2.64v3.5h2.64c1.56,0,2.25-.71,2.25-1.78Z"/><path class="cls-1" d="M691.54,704.52h-3.28v8.88h-1.23v-8.88h-3.3v-1.02h7.8v1.02Z"/><path class="cls-1" d="M692.79,710.46h1.3c.19,1.4,1.23,2.09,2.83,2.09,1.69,0,2.48-.74,2.48-1.71,0-.88-.58-1.39-1.74-1.65l-2.3-.51c-1.46-.32-2.25-1.21-2.25-2.51,0-1.6,1.36-2.84,3.54-2.84s3.66,.92,3.88,2.95h-1.3c-.19-1.31-1.15-1.91-2.61-1.91s-2.22,.73-2.22,1.66c0,.71,.36,1.21,1.5,1.47l2.23,.51c1.6,.37,2.55,1.24,2.55,2.66,0,1.74-1.36,2.92-3.78,2.92-2.6,0-3.92-1.12-4.13-3.12Z"/></g><g><path class="cls-1" d="M647.71,466.38h5.5v1.02h-6.74v-.42c0-1.46,.61-2.55,2.17-3.47l1.97-1.15c.98-.57,1.36-1.2,1.36-2.06,0-1.04-.63-1.94-1.97-1.94s-2.14,.89-2.23,2.3h-1.2c.07-1.96,1.25-3.34,3.43-3.34,2.04,0,3.21,1.28,3.21,2.98,0,1.08-.33,1.98-1.92,2.93l-2.26,1.34c-.71,.42-1.18,.96-1.31,1.81Z"/><path class="cls-1" d="M656.27,466.38h5.5v1.02h-6.74v-.42c0-1.46,.61-2.55,2.17-3.47l1.97-1.15c.98-.57,1.36-1.2,1.36-2.06,0-1.04-.63-1.94-1.97-1.94s-2.14,.89-2.23,2.3h-1.2c.07-1.96,1.25-3.34,3.43-3.34,2.04,0,3.21,1.28,3.21,2.98,0,1.08-.33,1.98-1.92,2.93l-2.26,1.34c-.71,.42-1.18,.96-1.31,1.81Z"/><path class="cls-1" d="M675.56,460.25c0,1.63-1.12,2.82-3.38,2.82h-2.74v4.33h-1.24v-9.91h4.08c2.26,0,3.28,1.05,3.28,2.76Zm-1.24,0c0-1.11-.69-1.72-2.25-1.72h-2.64v3.5h2.64c1.56,0,2.25-.71,2.25-1.78Z"/><path class="cls-1" d="M684.48,458.52h-3.28v8.88h-1.23v-8.88h-3.3v-1.02h7.8v1.02Z"/><path class="cls-1" d="M685.74,464.46h1.3c.19,1.4,1.23,2.09,2.83,2.09,1.69,0,2.48-.74,2.48-1.71,0-.88-.58-1.39-1.74-1.65l-2.3-.51c-1.46-.32-2.25-1.21-2.25-2.51,0-1.6,1.36-2.84,3.54-2.84s3.66,.92,3.88,2.95h-1.3c-.19-1.31-1.15-1.91-2.61-1.91s-2.22,.73-2.22,1.66c0,.71,.36,1.21,1.5,1.47l2.23,.51c1.6,.37,2.55,1.24,2.55,2.66,0,1.74-1.36,2.92-3.78,2.92-2.6,0-3.92-1.12-4.13-3.12Z"/></g></svg>