<?xml version='1.0' encoding='UTF-8'?>
<svg xmlns="http://www.w3.org/2000/svg" xmlns:xlink="http://www.w3.org/1999/xlink" width="1366px" height="768px" viewBox="0 0 1366 768" x="0px" y="0px" enable-background="new 0 0 1366 768"><defs><symbol overflow="visible" id="6c3e6d64a"><path d="M5.47-100.36v19.27h70.48v61.82H5.47V0h161.1v-19.27H96.1v-61.82h70.49v-19.27zm0 0"/></symbol><symbol overflow="visible" id="6c3e6d64e"><path d="M10.64-100.36V0h161.11v-19.27H30.78v-21h140.97V-58.8H30.78V-81.1h140.97v-19.27zm0 0"/></symbol><symbol overflow="visible" id="6c3e6d64k"><path d="M4.03-100.36v19.27h76.24V0h20.14v-81.1h76.23v-19.26zm0 0"/></symbol><symbol overflow="visible" id="6c3e6d64n"><path d="M10.64-100.36V0h20.14v-71.1L198.08 0h2.87v-100.36h-20.14v71.1l-167.3-71.1zm0 0"/></symbol><symbol overflow="visible" id="6c3e6d64p"><path d="M30.78 0v-40.27h150.03V0h20.14v-100.36h-20.14v41.55H30.78v-41.55H10.64V0zm0 0"/></symbol><symbol overflow="visible" id="6c3e6d64u"><path d="M10.64-100.36V0h136.52c21.57 0 35.53-13.56 35.53-30.69 0-7.28-3.46-13.56-8.78-18.14 6.62-4.42 10.93-11.14 10.93-20.56 0-17.13-13.95-30.97-35.53-30.97zm20.14 19.98h118.1c10.35 0 15.25 5 15.25 10.99 0 6-4.9 11-15.25 11H30.78zm0 39.7h115.94c10.36 0 15.25 4 15.25 10 0 5.98-4.9 10.7-15.25 10.7H30.78zm0 0"/></symbol><symbol overflow="visible" id="6c3e6d64c"><path d="M56.81-102.08c-28.9 0-52.5 23.42-52.5 51.97 0 28.4 23.46 51.83 52.5 51.83 28.92 0 52.36-23.28 52.36-51.83 0-28.4-23.44-51.97-52.36-51.97zm-.14 19.99c17.85 0 32.38 14.42 32.38 31.98 0 17.56-14.53 31.83-32.38 31.83-17.69 0-32.22-14.27-32.22-31.69 0-17.56 14.53-32.12 32.22-32.12zm0 0"/></symbol><symbol overflow="visible" id="6c3e6d64d"><path d="M-1.44-100.36L44.02 0h2.87l45.45-100.36h-21L45.45-40.83l-25.89-59.53zm0 0"/></symbol><symbol overflow="visible" id="6c3e6d64f"><path d="M10.64-100.36V0h20.14v-21.13h10.94c1.58 0 3.3-.14 4.89-.3l5.03 7.87C58.54-2.86 64.58 0 80.84 0v-19.27c-6.48 0-10.5-1-13.67-5.71l-2.15-3.29a39.29 39.29 0 0017.4-32.54c0-21.14-17.1-39.55-41.42-39.55zm20.14 19.98h10.8c11.36 0 20.7 8.29 20.7 19.7 0 11.29-9.34 19.57-20.7 19.57h-10.8zm0 0"/></symbol><symbol overflow="visible" id="6c3e6d64g"><path d="M55.67-100.36H41.14c-18.84 0-30.06 10.13-30.06 25.27 0 16.84 16.25 33.54 16.25 43.97 0 7.42-5.61 11.14-14.1 11.14H4.17V0h13.96c21.14 0 32.35-11.84 32.35-27.98 0-16.7-16.39-32.83-16.39-42.97 0-5.14 3.02-9.57 10.93-9.57h10.65zm0 0"/></symbol><symbol overflow="visible" id="6c3e6d64h"><path d="M10.64-100.36V0h53.38v-19.27H30.78v-81.09zm0 0"/></symbol><symbol overflow="visible" id="6c3e6d64j"><path d="M10.64-100.36V0h20.14v-21.13h10.94c23.73-.57 40.7-18.56 40.7-39.68 0-21.14-17.1-39.55-41.42-39.55zm20.14 19.98h10.8c11.36 0 20.7 8.29 20.7 19.7 0 11.29-9.34 19.57-20.7 19.57h-10.8zm0 0"/></symbol><symbol overflow="visible" id="6c3e6d64l"><path d="M103.42 0l28.19-100.36h-20.28L95.66-43.83l-27.63-56.53h-2.87L37.55-43.83l-15.7-56.53H1.59L29.78 0h8.49l28.32-57.67L94.94 0zm0 0"/></symbol><symbol overflow="visible" id="6c3e6d64m"><path d="M10.64-100.36V0h20.14v-40.27h43.88V0H94.8v-100.36H74.66v41.55H30.78v-41.55zm0 0"/></symbol><symbol overflow="visible" id="6c3e6d64s"><path d="M10.64-100.36V0h20.14v-100.36zm0 0"/></symbol><symbol overflow="visible" id="6c3e6d64t"><path d="M10.64-100.36V0h20.14v-56.83L91.92 0h2.88v-100.36H74.66v56.81l-61.14-56.8zm0 0"/></symbol><symbol overflow="visible" id="6c3e6d64J"><path d="M91.05 0v-61.67c0-23.99-16.83-40.4-40.27-40.4-23.31 0-40.14 16.41-40.14 40.4V0h20.14v-25.13h40.14V0zM30.78-61.67c0-12.56 7.9-20.42 20-20.42 12.22 0 20.14 7.86 20.14 20.42v17.98H30.78zm0 0"/></symbol><symbol overflow="visible" id="6c3e6d64L"><path d="M3.73-100.36v19.27h24.32V0h20.14v-81.1H72.5v-19.26zm0 0"/></symbol><symbol overflow="visible" id="6c3e6d64M"><path d="M10.64-100.36V0h54.81v-19.27H30.78v-21h32.8V-58.8h-32.8V-81.1h34.67v-19.27zm0 0"/></symbol><symbol overflow="visible" id="6c3e6d64N"><path d="M10.64-100.36V0h38.27c17.26 0 31.36-13.98 31.36-30.84 0-7.43-2.88-13.7-7.35-18.27 5.77-4.72 9.36-11.7 9.36-20.28 0-16.98-13.95-30.97-31.22-30.97zm20.14 19.98h20.28c6.05 0 11.08 5.15 11.08 10.99 0 5.86-4.89 11-11.08 11H30.78zm0 38.41h18.13c6.04 0 11.07 5.14 11.07 10.99 0 5.86-5.03 11-11.07 11H30.78zm0 0"/></symbol><symbol overflow="visible" id="6c3e6d64O"><path d="M64.88-100.36v29.13c0 12.56-7.91 20.4-20 20.4-12.22 0-20.15-7.84-20.15-20.4v-29.13H4.61v29.13c0 20.4 12.08 35.4 30.2 39.39V0h20.14v-31.84c17.83-4.14 30.07-18.99 30.07-39.4v-29.12zm0 0"/></symbol><symbol overflow="visible" id="6c3e6d64i"><path d="M13.52-100.36V0h92.36v-19.27H33.66v-21.42h69.32v-18.56H33.66v-21.84h72.22v-19.27zm0 0"/></symbol><symbol overflow="visible" id="6c3e6d64q"><path d="M33.66-80.38h39.7c11.36 0 20.72 8.29 20.72 19.7 0 11.29-9.36 19.57-20.72 19.57h-39.7zm48.9 66.82C89.91-3.14 96.96 0 113.2 0v-19.27c-7.48 0-11.93-1-15.1-5.71l-1.87-2.86a39.5 39.5 0 0017.99-32.97c0-21.14-17.13-39.55-41.44-39.55H13.52V0h20.14v-21.13h39.42c2.87 0 4.01-.14 4.01-.14zm0 0"/></symbol><symbol overflow="visible" id="6c3e6d64r"><path d="M102.56 0h22.88L64.3-100.36h-2.88L.14 0h22.88l5.6-9.28h68.33zm-39.7-65.95l22.87 38.1H39.84zm0 0"/></symbol><symbol overflow="visible" id="6c3e6d64v"><path d="M106.16-100.36h-48.2c-30.63 0-51.5 21.84-51.5 49.97C6.47-21.7 27.47 0 58.84 0h50.34v-50.1H90.91v30.83H58.83c-19.99 0-32.08-13.71-32.08-31.12 0-17.14 12.1-30.7 31.94-30.7h47.47zm0 0"/></symbol><symbol overflow="visible" id="6c3e6d64w"><path d="M12.23-100.36v55.67c0 23.13 19.13 46.11 53.94 46.11 34.95 0 53.8-22.98 53.8-46.1l.14-55.68H99.97v54.25c0 16.27-11.5 27.83-33.8 27.83-22.15 0-33.81-11.56-33.81-27.83v-54.25zm0 0"/></symbol><symbol overflow="visible" id="6c3e6d64x"><path d="M13.52-100.36V0h20.14v-62.53L120.55 0h2.87v-100.36h-20.14v62.53L16.4-100.36zm0 0"/></symbol><symbol overflow="visible" id="6c3e6d64y"><path d="M29.48-100.36L-.86 0h21.52l2.26-10.28h18.66L44 0h21.8L35.17-100.36zm2.85 40.4l2.14 17.13 3.26 15.7H26.77l3.42-15.7zm0 0"/></symbol><symbol overflow="visible" id="6c3e6d64P"><path d="M63.94-50.25c0-34.55-11.67-51.55-29.77-51.55-18.08 0-29.6 17-29.6 51.55 0 34.97 11.66 51.83 29.6 51.83 18.24 0 29.77-16.86 29.77-51.83zm-39.44 0c0-24.13 4.27-31.84 9.67-31.84 5.56 0 9.83 7.72 9.83 31.84 0 24.27-4.27 32.13-9.83 32.13-5.4 0-9.67-7.86-9.67-32.13zm0 0"/></symbol><symbol overflow="visible" id="6c3e6d64Q"><path d="M7.4-100.36V0h19.94v-40.97h17.8v-18.56h-17.8V-81.1h17.8v-19.27zm0 0"/></symbol><symbol overflow="visible" id="6c3e6d64S"><path d="M2.98-100.36v19.27h15.54V0h19.93v-81.1h15.52v-19.26zm0 0"/></symbol><symbol overflow="visible" id="6c3e6d64T"><path d="M7.4-100.36V0h19.94v-40.83h18.08V0h19.94v-100.36H45.42v40.97H27.34v-40.97zm0 0"/></symbol><symbol overflow="visible" id="6c3e6d64z"><path d="M13.4-100.36V0h83.15v-19.27H33.33v-81.09zm0 0"/></symbol><symbol overflow="visible" id="6c3e6d64B"><path d="M8.83-100.36V0h19.94v-100.36zm0 0"/></symbol><symbol overflow="visible" id="6c3e6d64D"><path d="M67.5-102.08c-41.02 0-61.23 23.56-61.23 51.97 0 28.4 20.07 51.83 61.23 51.83 40.6 0 60.67-23.14 60.67-51.83 0-28.4-20.08-51.97-60.67-51.97zm-.14 19.99c29.48 0 40.87 14.42 40.87 31.98 0 17.56-11.39 31.83-40.73 31.83-30.05 0-41.3-14.27-41.3-31.83s11.25-31.98 41.16-31.98zm0 0"/></symbol><symbol overflow="visible" id="6c3e6d64E"><path d="M3.98-100.36v19.27h41.16V0h19.94v-81.1h41.15v-19.26zm0 0"/></symbol><symbol overflow="visible" id="6c3e6d64F"><path d="M8.83-100.36V0h19.94v-100.36zm0 0"/></symbol><symbol overflow="visible" id="6c3e6d64G"><path d="M105.1-100.36H57.4c-30.34 0-51 21.84-51 49.97C6.4-21.7 27.2 0 58.26 0h46.84v-19.27H58.25c-19.8 0-31.77-13.71-31.77-31.12 0-17.14 11.97-30.7 31.63-30.7h46.98zm0 0"/></symbol><symbol overflow="visible" id="6c3e6d64H"><path d="M13.4-100.36V0h91.41v-19.27H33.33v-21.42h68.64v-18.56H33.33v-21.84h71.48v-19.27zm0 0"/></symbol><symbol overflow="visible" id="6c3e6d64C"><path d="M10.53-100.36V0h19.94v-56.83L91 0h2.84v-100.36H73.91v56.81l-60.52-56.8zm0 0"/></symbol><symbol overflow="visible" id="6c3e6d64V"><path d="M10.53-100.36V0h19.94v-21.13H41.3c1.56 0 3.28-.14 4.84-.3l4.98 7.87C57.95-2.86 63.95 0 80.03 0v-19.27c-6.4 0-10.39-1-13.53-5.71l-2.13-3.29A39.43 39.43 0 0081.6-60.8c0-21.14-16.93-39.55-41.01-39.55zm19.94 19.98h10.69c11.25 0 20.5 8.29 20.5 19.7 0 11.29-9.25 19.57-20.5 19.57h-10.7zm0 0"/></symbol><symbol overflow="visible" id="6c3e6d64W"><path d="M90.14 0v-61.67c0-23.99-16.66-40.4-39.87-40.4-23.07 0-39.74 16.41-39.74 40.4V0h19.94v-25.13H70.2V0zM30.47-61.67c0-12.56 7.84-20.42 19.8-20.42 12.1 0 19.93 7.86 19.93 20.42v17.98H30.47zm0 0"/></symbol><symbol overflow="visible" id="6c3e6d64X"><path d="M10.53-100.36V0h19.94v-100.36zm0 0"/></symbol><symbol overflow="visible" id="6c3e6d64Y"><path d="M10.53-100.36V0h26.78c28.77 0 51.83-21.56 51.83-50.1 0-28.56-23.06-50.26-51.83-50.26zm19.94 19.27h6.84c17.52 0 31.9 13.42 31.9 30.98 0 17.42-14.24 30.84-31.9 30.84h-6.84zm0 0"/></symbol><symbol overflow="visible" id="6c3e6d64Z"><path d="M56.25-102.08c-28.63 0-51.98 23.42-51.98 51.97 0 28.4 23.21 51.83 51.98 51.83a51.89 51.89 0 0051.84-51.83c0-28.4-23.22-51.97-51.84-51.97zm-.14 19.99a32.1 32.1 0 0132.05 31.98c0 17.56-14.4 31.83-32.05 31.83-17.52 0-31.9-14.27-31.9-31.69 0-17.56 14.38-32.12 31.9-32.12zm0 0"/></symbol><symbol overflow="visible" id="6c3e6d64aa"><path d="M10.53-100.36V0h19.94v-21.13H41.3c23.5-.57 40.3-18.56 40.3-39.68 0-21.14-16.94-39.55-41.02-39.55zm19.94 19.98h10.69c11.25 0 20.5 8.29 20.5 19.7 0 11.29-9.25 19.57-20.5 19.57h-10.7zm0 0"/></symbol><symbol overflow="visible" id="6c3e6d64ab"><path d="M55.1-100.36H40.74c-18.65 0-29.76 10.13-29.76 25.27 0 16.84 16.1 33.54 16.1 43.97 0 7.42-5.57 11.14-13.98 11.14H4.13V0h13.8c20.95 0 32.05-11.84 32.05-27.98 0-16.7-16.23-32.83-16.23-42.97 0-5.14 2.98-9.57 10.83-9.57H55.1zm0 0"/></symbol><symbol overflow="visible" id="6c3e6d64I"><path d="M10.53-100.36V0h138c28.63 0 51.69-21.42 51.69-50.1 0-28.71-23.06-50.26-51.69-50.26zm19.94 19.27h118.06c17.52 0 31.75 13.42 31.75 30.98 0 17.56-14.23 30.84-31.75 30.84H30.47zm0 0"/></symbol></defs><path fill="red" d="M0 0h1366v768H0z"/><path fill="red" d="M0 0h1366v768H0z"/><use xlink:href="#6c3e6d64a" x="89.4028" y="134.7383" fill="#fff"/><use xlink:href="#6c3e6d64b" x="261.434603" y="134.7383" fill="#fff"/><g fill="#fff"><use xlink:href="#6c3e6d64c" x="306.887822" y="134.7383"/><use xlink:href="#6c3e6d64d" x="416.06185" y="134.7383"/></g><use xlink:href="#6c3e6d64e" x="506.968288" y="134.7383" fill="#fff"/><g fill="#fff"><use xlink:href="#6c3e6d64f" x="686.479734" y="134.7383"/><use xlink:href="#6c3e6d64g" x="774.940904" y="134.7383"/><use xlink:href="#6c3e6d64h" x="835.35341" y="134.7383"/></g><use xlink:href="#6c3e6d64i" x="901.663327" y="134.7383" fill="#fff"/><use xlink:href="#6c3e6d64j" x="1015.152535" y="134.7383" fill="#fff"/><use xlink:href="#6c3e6d64k" x="1101.456115" y="134.7383" fill="#fff"/><g fill="#fff"><use xlink:href="#6c3e6d64l" x="92.567265" y="251.805026"/><use xlink:href="#6c3e6d64m" x="225.762456" y="251.805026"/></g><use xlink:href="#6c3e6d64i" x="331.196663" y="251.805026" fill="#fff"/><use xlink:href="#6c3e6d64n" x="444.685871" y="251.805026" fill="#fff"/><use xlink:href="#6c3e6d64o" x="656.273481" y="251.805026" fill="#fff"/><g fill="#fff"><use xlink:href="#6c3e6d64k" x="702.302057" y="251.805026"/><use xlink:href="#6c3e6d64p" x="882.964218" y="251.805026"/><use xlink:href="#6c3e6d64e" x="1094.551828" y="251.805026"/></g><g fill="#fff"><use xlink:href="#6c3e6d64q" x="83.505389" y="368.871752"/><use xlink:href="#6c3e6d64r" x="207.782544" y="368.871752"/></g><g fill="#fff"><use xlink:href="#6c3e6d64s" x="333.354253" y="368.871752"/><use xlink:href="#6c3e6d64t" x="374.779971" y="368.871752"/></g><use xlink:href="#6c3e6d64o" x="480.214178" y="368.871752" fill="#fff"/><g fill="#fff"><use xlink:href="#6c3e6d64u" x="526.242754" y="368.871752"/><use xlink:href="#6c3e6d64e" x="716.542148" y="368.871752"/></g><g fill="#fff"><use xlink:href="#6c3e6d64v" x="896.053594" y="368.871752"/><use xlink:href="#6c3e6d64w" x="1013.857981" y="368.871752"/><use xlink:href="#6c3e6d64x" x="1146.190137" y="368.871752"/></g><use xlink:href="#6c3e6d64y" x="83.8135" y="485.7383" fill="#fff"/><g fill="#fff"><use xlink:href="#6c3e6d64z" x="148.605637" y="485.7383"/><use xlink:href="#6c3e6d64z" x="248.428247" y="485.7383"/></g><g fill="#fff"><use xlink:href="#6c3e6d64A" x="344.121248" y="485.7383"/><use xlink:href="#6c3e6d64B" x="389.119743" y="485.7383"/><use xlink:href="#6c3e6d64A" x="426.713422" y="485.7383"/></g><use xlink:href="#6c3e6d64C" x="471.711917" y="485.7383" fill="#fff"/><use xlink:href="#6c3e6d64D" x="576.091337" y="485.7383" fill="#fff"/><g fill="#fff"><use xlink:href="#6c3e6d64E" x="706.245211" y="485.7383"/><use xlink:href="#6c3e6d64F" x="816.463044" y="485.7383"/><use xlink:href="#6c3e6d64G" x="854.056723" y="485.7383"/><use xlink:href="#6c3e6d64H" x="965.556158" y="485.7383"/></g><use xlink:href="#6c3e6d64I" x="1077.909994" y="485.7383" fill="#fff"/><use xlink:href="#6c3e6d64l" x="90.8428" y="602.7383" fill="#fff"/><g fill="#fff"><use xlink:href="#6c3e6d64J" x="221.305045" y="602.7383"/><use xlink:href="#6c3e6d64g" x="322.99943" y="602.7383"/><use xlink:href="#6c3e6d64K" x="383.411936" y="602.7383"/><use xlink:href="#6c3e6d64L" x="419.515601" y="602.7383"/><use xlink:href="#6c3e6d64m" x="495.750429" y="602.7383"/><use xlink:href="#6c3e6d64M" x="601.184636" y="602.7383"/><use xlink:href="#6c3e6d64K" x="673.823483" y="602.7383"/></g><g fill="#fff"><use xlink:href="#6c3e6d64N" x="714.961523" y="602.7383"/><use xlink:href="#6c3e6d64M" x="803.135014" y="602.7383"/><use xlink:href="#6c3e6d64J" x="875.77386" y="602.7383"/></g><use xlink:href="#6c3e6d64w" x="977.468245" y="602.7383" fill="#fff"/><g fill="#fff"><use xlink:href="#6c3e6d64L" x="1109.800401" y="602.7383"/><use xlink:href="#6c3e6d64O" x="1186.03523" y="602.7383"/></g><g fill="#fff"><use xlink:href="#6c3e6d64P" x="85.2393" y="719.7383"/><use xlink:href="#6c3e6d64Q" x="153.733844" y="719.7383"/><use xlink:href="#6c3e6d64R" x="204.855552" y="719.7383"/><use xlink:href="#6c3e6d64S" x="228.636402" y="719.7383"/><use xlink:href="#6c3e6d64T" x="285.596522" y="719.7383"/></g><use xlink:href="#6c3e6d64H" x="358.363075" y="719.7383" fill="#fff"/><g fill="#fff"><use xlink:href="#6c3e6d64U" x="470.716912" y="719.7383"/><use xlink:href="#6c3e6d64V" x="511.443398" y="719.7383"/><use xlink:href="#6c3e6d64W" x="599.019582" y="719.7383"/><use xlink:href="#6c3e6d64X" x="699.696594" y="719.7383"/><use xlink:href="#6c3e6d64C" x="740.707881" y="719.7383"/><use xlink:href="#6c3e6d64Y" x="845.087301" y="719.7383"/><use xlink:href="#6c3e6d64V" x="938.501898" y="719.7383"/><use xlink:href="#6c3e6d64Z" x="1026.078082" y="719.7383"/><use xlink:href="#6c3e6d64aa" x="1138.431919" y="719.7383"/></g><use xlink:href="#6c3e6d64ab" x="1221.451294" y="719.7383" fill="#fff"/></svg>