<svg xmlns="http://www.w3.org/2000/svg" viewBox="0 0 1366 768"><defs><style>.cls-1{fill:red;}.cls-2{fill:#f2f2f2;}</style></defs><g id="Layer_1" data-name="Layer 1"><rect class="cls-1" x="-41.27" y="-79.94" width="1446.07" height="930.38"/><path class="cls-2" d="M101.82,219.49H79l-2.3,3.12H69.09l25.2-33.75h1l15.65,33.75h-7.63Zm-18.19-6.24H99l-5.81-12.82Z"/><path class="cls-2" d="M145.12,188.86a9,9,0,0,1,9,9.22,9.49,9.49,0,0,1-5.23,8.5,7.55,7.55,0,0,1,1.35,4.46c0,6.24-5.81,11.57-12,11.57h-22.8l4.75-33.75Zm-22,27h16.08a4.37,4.37,0,0,0,4.22-4.08,3.23,3.23,0,0,0-3.21-3.31H124.09ZM124.86,203H143.1a4.35,4.35,0,0,0,4.28-4.08,3.25,3.25,0,0,0-3.22-3.32H125.92Z"/><path class="cls-2" d="M192.59,195.34H176.75c-7.29,0-12.24,5.33-12.24,11.72,0,5.13,3.36,9.07,9.36,9.07h15.84l-.91,6.48H173c-9.46,0-15.27-6.29-15.27-14.79,0-10.46,8.55-19,19.73-19H193.5Z"/><path class="cls-2" d="M218.75,188.86c8.88,0,15.27,6.39,15.27,14.93,0,10.56-9.46,18.82-20,18.82H195.42l4.75-33.75Zm-15.7,27.27h11.86c6.48,0,12.34-5.14,12.34-11.57a9.09,9.09,0,0,0-9.41-9.22H206Z"/><path class="cls-2" d="M273.66,188.86l-.91,6.48h-24.1l-1.05,7.35h23.14l-.87,6.24H246.73l-1,7.2h24.09l-.91,6.48H238.09l4.76-33.75Z"/><path class="cls-2" d="M311.54,188.86l-.92,6.48H286.53l-1.06,7.49h23.14l-.87,6.24H284.61l-1.93,13.54H276l4.76-33.75Z"/><path class="cls-2" d="M348.59,195.34H332.75c-7.3,0-12.24,5.33-12.24,11.72,0,5.13,3.36,9.07,9.36,9.07h10.7l1.49-10.37h6.1l-2.4,16.85H329c-9.46,0-15.27-6.29-15.27-14.79,0-10.46,8.55-19,19.73-19H349.5Z"/><path class="cls-2" d="M364.62,188.86l-2,14h23.23l2-14h6.72l-4.75,33.75H383.1L385,209.07H361.79l-1.92,13.54h-6.72l4.75-33.75Z"/><path class="cls-2" d="M408.78,188.86,404,222.61h-6.72l4.75-33.75Z"/><path class="cls-2" d="M409.31,222.61l.91-6.53H423a5.61,5.61,0,0,0,5.18-4.9l3.12-22.32h6.77L435,211.18a13.37,13.37,0,0,1-12.87,11.43Z"/><path class="cls-2" d="M451.64,202.59,472,188.86h10.17l-21.94,15.75,17.62,18H467.29l-13.06-13.78-3.88,2.83-1.54,11h-6.72l4.75-33.75h6.72Z"/><path class="cls-2" d="M493,188.86l-3.84,27.27h21.31l-.91,6.48h-28l4.76-33.75Z"/><path class="cls-2" d="M528.54,188.86l11.28,22.32,17.57-22.32h2l5.33,33.75h-6.77l-3.46-20.45-15.75,20.45h-1l-10.08-20.5-9.12,20.5h-6.77l14.79-33.75Z"/><path class="cls-2" d="M576,188.86l26,21,3-21h6.72L607,222.61h-1l-26-21-3,21H570.3l4.75-33.75Z"/><path class="cls-2" d="M657.23,203.55c0,10.56-8,19.64-23.09,19.64-12.58,0-18.39-6.77-18.39-15.22,0-10.47,8.07-19.68,23.28-19.68C651.42,188.29,657.23,195.1,657.23,203.55Zm-34.71,3.65c0,5.18,3.46,9.26,12.58,9.26,11,0,15.36-5.71,15.36-12.14,0-5.19-3.46-9.31-12.43-9.31C626.79,195,622.52,200.77,622.52,207.2Z"/><path class="cls-2" d="M688.23,188.86c7.39,0,12.1,5.43,12.1,11.81,0,7.73-7,14.64-15.6,14.83H669l-1,7.11H661.3l4.75-33.75Zm-18.29,19.92h15.65c4.13,0,7.92-3.16,7.92-7.34a5.78,5.78,0,0,0-6-5.86H671.82Z"/><path class="cls-2" d="M745,203.55c0,8-4.61,15-13.44,18.1l2,4.18H726.2L724.9,223a29.07,29.07,0,0,1-3,.15c-12.58,0-18.39-6.77-18.39-15.22,0-10.47,8.07-19.68,23.29-19.68C739.16,188.29,745,195.1,745,203.55Zm-16.18,12.19c6.63-1.77,9.41-6.33,9.41-11.42S734.75,195,725.77,195c-11.23,0-15.51,5.76-15.51,12.19,0,5,3.22,9,11.57,9.26l-1.77-3.84h7.29Z"/><path class="cls-2" d="M773.58,188.86c7.39,0,12.09,5.43,12.09,11.81,0,5.14-3.12,9.79-7.72,12.58l4.46,9.36h-7.35l-3.4-7.2c-.53.05-1.06.09-1.59.09H756.78l-1,7.11h-6.72l4.75-33.75Zm-15.89,19.92h13.25c4.12,0,7.92-3.16,7.92-7.34a5.79,5.79,0,0,0-6.05-5.86H759.56Z"/><path class="cls-2" d="M822.2,198.27s-4.13-3.55-12.53-3.55c-8.69,0-10.27,1.87-10.27,3.84s2.16,2.88,10.41,3.79c11.33.91,15.41,3.17,15.41,8.69,0,7.54-6,12.15-18.48,12.15-13,0-17.18-4.95-17.18-4.95l4.22-5.33s4.51,3.84,14.07,3.84c9.31,0,10.46-1.92,10.46-4.13,0-1.77-1.53-3.07-10-3.84-10.95-1-15.7-3.55-15.7-9.26,0-6.87,6.1-11.23,18.24-11.23,12.44,0,16.18,4.36,16.18,4.36Z"/><path class="cls-2" d="M867.37,188.86l-.91,6.48H852.58l-3.84,27.27H842l3.84-27.27H832l.91-6.48Z"/><path class="cls-2" d="M879.46,188.86l-2.54,18.24c-.77,5.48,2.59,9.36,10,9.36s11.81-3.88,12.58-9.36L902,188.86h6.77l-2.69,18.72c-1.1,7.78-8.49,15.51-20.16,15.51s-16.9-7.73-15.79-15.51l2.64-18.72Z"/><path class="cls-2" d="M930.78,211l16.41-22.18h7.63l-25.2,33.75h-1L913,188.86h7.64Z"/><path class="cls-2" d="M992.31,222.61,981,200.29l-17.57,22.32h-2l-5.33-33.75h6.77l3.46,20.45,15.74-20.45h1l10.08,20.5,9.12-20.5h6.77l-14.79,33.75Z"/><path class="cls-2" d="M1020.2,188.86l9.5,11.86,12.92-11.86h8.59l-18,16.56,14.17,17.19h-8.5l-10.56-12.39-13.73,12.39h-8.5l18.63-17.19-13.11-16.56Z"/><path class="cls-2" d="M1061.38,188.86l9.7,12.72,13.2-12.72h8.26l-18.82,17.86-2.26,15.89h-6.72l2.26-15.89-13.88-17.86Z"/><path class="cls-2" d="M1132.47,203.55c0,10.56-8,19.64-23.09,19.64-12.58,0-18.38-6.77-18.38-15.22,0-10.47,8.06-19.68,23.28-19.68C1126.66,188.29,1132.47,195.1,1132.47,203.55Zm-34.7,3.65c0,5.18,3.45,9.26,12.57,9.26,11,0,15.36-5.71,15.36-12.14,0-5.19-3.5-9.31-12.43-9.31C1102,195,1097.77,200.77,1097.77,207.2Z"/><path class="cls-2" d="M1150.52,188.86l-4.75,33.75H1139l3.89-27.51h-7l.86-6.24Z"/><path class="cls-2" d="M1152.77,217.14l24-15.22c1.53-1,2.16-1.73,2.16-3.31,0-1.88-2.26-3.56-7.35-3.56a25.12,25.12,0,0,0-13.06,3.46l-3.21-5.66a33.26,33.26,0,0,1,17.57-4.56c9.74,0,14.11,3.6,14.11,8.59,0,4.8-2.25,7-7.25,10.27l-13.39,8.74h18.58l-1,6.72H1152Z"/><path class="cls-2" d="M1188.39,217.57l5.42-4.61s3.51,3.65,11.62,3.65c6.19,0,8.26-2,8.26-4.37,0-1.73-1.16-3.12-5.38-3.12h-9.07l.81-5.81h8.69c6,0,6.82-2.3,6.82-4.27s-2.21-4-7.63-4c-5,0-9.85,1.2-13,3.17l-3-5.37c4.56-3,9.94-4.56,17.38-4.56,8.83,0,14.4,4.08,14.4,9.6a9.75,9.75,0,0,1-4.42,8,6.67,6.67,0,0,1,2.55,5.48c0,6.52-6.2,11.81-17.43,11.81C1191.7,223.19,1188.39,217.57,1188.39,217.57Z"/><path class="cls-2" d="M1256.12,188.86l-3,21.27h7.3l-.86,6.24h-7.3l-.86,6.24h-6.73l.87-6.24H1225l.58-4,26.06-23.52Zm-20.93,21.65h11.14l1.58-11.13Z"/><path class="cls-2" d="M1297.54,188.86l-.86,6.24h-21.51l-1.63,7h10.61c8.4,0,12.34,2.64,12.34,8,0,7.25-6.34,13.16-18.53,13.16-12.63,0-15.17-5.62-15.17-5.62l5.42-4.61s3,3.65,11.09,3.65c7.78,0,10-2.5,10-5,0-2-1.68-3.4-6.29-3.4h-17l.53-3.56,3.74-15.84Z"/><path class="cls-2" d="M66.25,262.2c0-2.88,1.59-5.71,3.27-8.16L80.8,237.86h7.68L79.7,250.34a19.55,19.55,0,0,1,5.09-.53c10.08,0,15.4,4,15.4,10,0,7.25-6.76,12.34-18.53,12.34C71.58,272.14,66.25,268.1,66.25,262.2Zm7.73-.77c0,2.59,2.64,4.51,8.55,4.51,6.86,0,9.93-2.35,9.93-5.47,0-2.69-2.59-4.56-8.54-4.56C77.1,255.91,74,258.22,74,261.43Z"/><path class="cls-2" d="M134.42,237.86l-22.9,33.75h-7.11l19.45-27.51H102.78l.87-6.24Z"/><path class="cls-2" d="M168.93,247.61c-.82,5.76-6.29,7.53-6.29,7.53s4,1.92,3.22,7.2-5.38,9.8-16.28,9.8-14.3-4.61-13.58-9.8a9.59,9.59,0,0,1,5.23-7.2,6.79,6.79,0,0,1-4.18-7.53c.82-5.86,6.2-10.32,17.43-10.32S169.74,241.75,168.93,247.61Zm-10,14.11c0-1.78-1.68-3.5-7.4-3.5-6.67,0-8.45,2.16-8.45,4.22,0,1.82,1.64,3.65,7.35,3.65C157.12,266.09,158.9,263.74,158.9,261.72Zm3.74-14.45c0-2-2-3.89-9-3.89-8.16,0-10.18,2.4-10.18,4.61,0,2,1.92,4.13,8.93,4.13C160.53,252.12,162.64,249.43,162.64,247.27Z"/><path class="cls-2" d="M208,247.27c0,2.88-1.58,5.71-3.26,8.16l-11.28,16.18h-7.68l8.78-12.48a19.64,19.64,0,0,1-5.09.53c-10.08,0-15.41-4-15.41-10,0-7.25,6.77-12.34,18.58-12.34C202.62,237.33,208,241.37,208,247.27Zm-7.73.77c0-2.59-2.59-4.51-8.49-4.51-6.87,0-10,2.35-10,5.47,0,2.69,2.64,4.56,8.55,4.56C197.15,253.56,200.22,251.26,200.22,248Z"/><path class="cls-2" d="M218,268a4.43,4.43,0,0,1-4.42,4.18,3.22,3.22,0,0,1-3.26-3.32,4.35,4.35,0,0,1,4.32-4.22A3.34,3.34,0,0,1,218,268Zm-4.22-30.15c6.38,0,10.51,3.22,10.51,8.74,0,6.72-5.19,8.5-6,12.38l-.58,2.93h-5.57l.24-2.93c.82-6,5-6.09,5-10.51,0-2.5-1.88-4-4.52-4Z"/><path class="cls-2" d="M255.66,268.49h-22.8l-2.3,3.12h-7.64l25.2-33.75h1l15.64,33.75H257.1Zm-18.19-6.24h15.31L247,249.43Z"/><path class="cls-2" d="M299,237.86a9,9,0,0,1,9,9.22,9.49,9.49,0,0,1-5.23,8.5,7.54,7.54,0,0,1,1.34,4.46c0,6.24-5.8,11.57-12,11.57h-22.8L274,237.86Zm-22,27H293a4.37,4.37,0,0,0,4.22-4.08A3.24,3.24,0,0,0,294,257.5H277.93ZM278.7,252h18.24a4.34,4.34,0,0,0,4.27-4.08,3.24,3.24,0,0,0-3.21-3.32H279.76Z"/><path class="cls-2" d="M346.43,244.34H330.59c-7.3,0-12.24,5.33-12.24,11.72,0,5.13,3.36,9.07,9.36,9.07h15.84l-.91,6.48H326.8c-9.46,0-15.27-6.29-15.27-14.79,0-10.46,8.55-19,19.73-19h16.08Z"/><path class="cls-2" d="M372.59,237.86c8.88,0,15.26,6.39,15.26,14.93,0,10.56-9.45,18.82-20,18.82H349.26L354,237.86Zm-15.7,27.27h11.86c6.48,0,12.34-5.14,12.34-11.57a9.09,9.09,0,0,0-9.41-9.22H359.82Z"/><path class="cls-2" d="M427.5,237.86l-.91,6.48h-24.1l-1.06,7.35h23.14l-.86,6.24H400.57l-1,7.2h24.1l-.91,6.48H391.93l4.75-33.75Z"/><path class="cls-2" d="M465.37,237.86l-.91,6.48h-24.1l-1.05,7.49h23.13l-.86,6.24H438.44l-1.92,13.54H429.8l4.75-33.75Z"/><path class="cls-2" d="M502.43,244.34H486.59c-7.3,0-12.25,5.33-12.25,11.72,0,5.13,3.37,9.07,9.37,9.07h10.7l1.49-10.37H502l-2.41,16.85h-16.8c-9.45,0-15.26-6.29-15.26-14.79,0-10.46,8.54-19,19.73-19h16.08Z"/><path class="cls-2" d="M518.46,237.86l-2,14h23.23l2-14h6.72l-4.75,33.75h-6.72l1.92-13.54H515.62l-1.92,13.54H507l4.76-33.75Z"/><path class="cls-2" d="M562.62,237.86l-4.76,33.75h-6.72l4.76-33.75Z"/><path class="cls-2" d="M563.14,271.61l.91-6.53h12.82c2.59,0,4.8-2.3,5.19-4.9l3.12-22.32H592l-3.13,22.32A13.36,13.36,0,0,1,576,271.61Z"/><path class="cls-2" d="M605.48,251.59l20.35-13.73H636l-21.94,15.75,17.62,18H621.13l-13.06-13.78-3.89,2.83-1.53,10.95h-6.72l4.75-33.75h6.72Z"/><path class="cls-2" d="M646.86,237.86,643,265.13h21.31l-.91,6.48h-28l4.75-33.75Z"/><path class="cls-2" d="M682.38,237.86l11.28,22.32,17.56-22.32h2l5.33,33.75h-6.77l-3.45-20.45-15.75,20.45h-1l-10.08-20.5-9.12,20.5h-6.77l14.79-33.75Z"/><path class="cls-2" d="M729.85,237.86l26,21,3-21h6.72l-4.75,33.75h-1l-26-21-3,21h-6.72l4.75-33.75Z"/><path class="cls-2" d="M811.06,252.55c0,10.56-8,19.64-23.09,19.64-12.57,0-18.38-6.77-18.38-15.22,0-10.47,8.06-19.68,23.28-19.68C805.26,237.29,811.06,244.1,811.06,252.55Zm-34.7,3.65c0,5.18,3.45,9.26,12.57,9.26,11,0,15.36-5.71,15.36-12.14,0-5.19-3.45-9.31-12.43-9.31C780.63,244,776.36,249.77,776.36,256.2Z"/><path class="cls-2" d="M842.07,237.86c7.39,0,12.1,5.43,12.1,11.81,0,7.73-7,14.64-15.6,14.83h-15.7l-1,7.11h-6.72l4.75-33.75Zm-18.29,19.92h15.65c4.13,0,7.92-3.16,7.92-7.34a5.78,5.78,0,0,0-6.05-5.86H825.65Z"/><path class="cls-2" d="M898.81,252.55c0,8-4.61,15-13.44,18.1l2,4.18H880l-1.3-2.79a29.21,29.21,0,0,1-3,.15c-12.58,0-18.39-6.77-18.39-15.22,0-10.47,8.07-19.68,23.28-19.68C893,237.29,898.81,244.1,898.81,252.55Zm-16.18,12.19c6.62-1.77,9.41-6.33,9.41-11.42S888.58,244,879.61,244c-11.24,0-15.51,5.76-15.51,12.19,0,5,3.22,9,11.57,9.26l-1.78-3.84h7.3Z"/><path class="cls-2" d="M927.41,237.86c7.4,0,12.1,5.43,12.1,11.81,0,5.14-3.12,9.79-7.73,12.58l4.47,9.36H928.9l-3.41-7.2c-.53,0-1,.09-1.58.09h-13.3l-1,7.11h-6.72l4.75-33.75Zm-15.89,19.92h13.25c4.13,0,7.92-3.16,7.92-7.34a5.78,5.78,0,0,0-6.05-5.86H913.4Z"/><path class="cls-2" d="M976,247.27s-4.13-3.55-12.53-3.55c-8.69,0-10.28,1.87-10.28,3.84s2.16,2.88,10.42,3.79c11.33.91,15.41,3.17,15.41,8.69,0,7.54-5.95,12.15-18.48,12.15-13,0-17.19-4.95-17.19-4.95l4.23-5.33s4.51,3.84,14.06,3.84c9.32,0,10.47-1.92,10.47-4.13,0-1.77-1.54-3.07-10-3.84-11-1-15.7-3.55-15.7-9.26,0-6.87,6.1-11.23,18.24-11.23,12.43,0,16.18,4.36,16.18,4.36Z"/><path class="cls-2" d="M1021.21,237.86l-.92,6.48h-13.87l-3.84,27.27h-6.72l3.84-27.27H985.83l.91-6.48Z"/><path class="cls-2" d="M1033.3,237.86l-2.55,18.24c-.76,5.48,2.6,9.36,10,9.36s11.81-3.88,12.58-9.36l2.54-18.24h6.77l-2.69,18.72c-1.1,7.78-8.49,15.51-20.16,15.51s-16.9-7.73-15.79-15.51l2.64-18.72Z"/><path class="cls-2" d="M1084.61,260,1101,237.86h7.63l-25.2,33.75h-1l-15.65-33.75h7.63Z"/><path class="cls-2" d="M1146.15,271.61l-11.28-22.32-17.57,22.32h-2L1110,237.86h6.77l3.46,20.45L1136,237.86h1l10.08,20.5,9.12-20.5h6.77l-14.78,33.75Z"/><path class="cls-2" d="M1174,237.86l9.5,11.86,12.91-11.86H1205l-18,16.56,14.16,17.19h-8.49l-10.56-12.39-13.73,12.39H1160l18.63-17.19-13.11-16.56Z"/><path class="cls-2" d="M1215.22,237.86l9.69,12.72,13.21-12.72h8.25l-18.82,17.86-2.25,15.89h-6.72l2.25-15.89L1207,237.86Z"/><path class="cls-2" d="M1286.31,252.55c0,10.56-8,19.64-23.09,19.64-12.58,0-18.39-6.77-18.39-15.22,0-10.47,8.07-19.68,23.29-19.68C1280.5,237.29,1286.31,244.1,1286.31,252.55Zm-34.71,3.65c0,5.18,3.46,9.26,12.58,9.26,11,0,15.36-5.71,15.36-12.14,0-5.19-3.5-9.31-12.43-9.31C1255.83,244,1251.6,249.77,1251.6,256.2Z"/><path class="cls-2" d="M1304.36,237.86l-4.76,33.75h-6.72l3.89-27.51h-7.06l.87-6.24Z"/><path class="cls-2" d="M73.48,315.14l24-15.22c1.53-1,2.16-1.73,2.16-3.31,0-1.88-2.26-3.56-7.35-3.56a25.12,25.12,0,0,0-13.06,3.46L76,290.85a33.26,33.26,0,0,1,17.57-4.56c9.74,0,14.11,3.6,14.11,8.59,0,4.8-2.26,7-7.25,10.27L87,313.89H105.6l-1,6.72H72.71Z"/><path class="cls-2" d="M109.1,315.57l5.42-4.61s3.51,3.65,11.62,3.65c6.19,0,8.25-2,8.25-4.37,0-1.73-1.15-3.12-5.37-3.12H120l.81-5.81h8.69c6,0,6.82-2.3,6.82-4.27s-2.21-4-7.64-4c-5,0-9.84,1.2-13,3.17l-3-5.37c4.56-3,9.94-4.56,17.38-4.56,8.83,0,14.4,4.08,14.4,9.6a9.75,9.75,0,0,1-4.42,8,6.67,6.67,0,0,1,2.55,5.48c0,6.52-6.2,11.81-17.43,11.81C112.41,321.19,109.1,315.57,109.1,315.57Z"/><path class="cls-2" d="M176.83,286.86l-3,21.27h7.3l-.86,6.24h-7.3l-.87,6.24h-6.72l.87-6.24h-20.5l.58-4,26.06-23.52ZM155.9,308.51H167l1.58-11.13Z"/><path class="cls-2" d="M218.25,286.86l-.86,6.24H195.88l-1.63,7h10.61c8.4,0,12.34,2.64,12.34,8,0,7.25-6.34,13.16-18.53,13.16-12.63,0-15.17-5.62-15.17-5.62l5.42-4.61s3,3.65,11.09,3.65c7.78,0,10-2.5,10-4.95,0-2-1.68-3.4-6.28-3.4h-17l.53-3.56L191,286.86Z"/><path class="cls-2" d="M221.37,311.2c0-2.88,1.58-5.71,3.26-8.16l11.28-16.18h7.68l-8.78,12.48a19.55,19.55,0,0,1,5.09-.53c10.08,0,15.41,4,15.41,10,0,7.25-6.77,12.34-18.53,12.34C226.7,321.14,221.37,317.1,221.37,311.2Zm7.73-.77c0,2.59,2.64,4.51,8.54,4.51,6.87,0,9.94-2.35,9.94-5.47,0-2.69-2.59-4.56-8.55-4.56C232.22,304.91,229.1,307.22,229.1,310.43Z"/><path class="cls-2" d="M289.53,286.86l-22.9,33.75h-7.1L279,293.1H257.9l.86-6.24Z"/><path class="cls-2" d="M324,296.61c-.81,5.76-6.29,7.53-6.29,7.53s4,1.92,3.22,7.2-5.38,9.8-16.27,9.8-14.31-4.61-13.59-9.8a9.59,9.59,0,0,1,5.23-7.2,6.77,6.77,0,0,1-4.17-7.53c.81-5.86,6.19-10.32,17.42-10.32S324.86,290.75,324,296.61Zm-10,14.11c0-1.78-1.68-3.5-7.39-3.5-6.68,0-8.45,2.16-8.45,4.22,0,1.82,1.63,3.65,7.34,3.65C312.23,315.09,314,312.74,314,310.72Zm3.74-14.45c0-2-2-3.89-9-3.89-8.16,0-10.18,2.4-10.18,4.61,0,2,1.92,4.13,8.93,4.13C315.64,301.12,317.75,298.43,317.75,296.27Z"/><path class="cls-2" d="M363.06,296.27c0,2.88-1.58,5.71-3.26,8.16l-11.28,16.18h-7.68l8.78-12.48a19.5,19.5,0,0,1-5.08.53c-10.08,0-15.41-4-15.41-10,0-7.25,6.76-12.34,18.57-12.34C357.74,286.33,363.06,290.37,363.06,296.27Zm-7.72.77c0-2.59-2.6-4.51-8.5-4.51-6.87,0-10,2.35-10,5.47,0,2.69,2.64,4.56,8.54,4.56C352.26,302.56,355.34,300.26,355.34,297Z"/><path class="cls-2" d="M373.09,317a4.43,4.43,0,0,1-4.41,4.18,3.23,3.23,0,0,1-3.27-3.32,4.35,4.35,0,0,1,4.32-4.22A3.34,3.34,0,0,1,373.09,317Zm-4.22-30.15c6.38,0,10.51,3.22,10.51,8.74,0,6.72-5.18,8.5-5.95,12.38l-.58,2.93h-5.56l.24-2.93c.81-6,4.94-6.09,4.94-10.51,0-2.5-1.87-4-4.51-4Z"/><path class="cls-2" d="M401.65,320.61v-8.45H388.26v8.45h-6.72V299.87c0-8.06,5.62-13.58,13.39-13.58s13.45,5.52,13.45,13.58v20.74Zm-13.39-14.69h13.39v-6.05c0-4.22-2.64-6.86-6.72-6.86s-6.67,2.64-6.67,6.86Z"/><path class="cls-2" d="M429,286.86a10.44,10.44,0,0,1,10.41,10.42,8.63,8.63,0,0,1-3.12,6.82,8.67,8.67,0,0,1,2.45,6.14,10.47,10.47,0,0,1-10.46,10.37H415.48V286.86ZM422.2,301H429a3.7,3.7,0,0,0,0-7.4H422.2Zm0,12.91h6.05a3.7,3.7,0,0,0,0-7.39H422.2Z"/><path class="cls-2" d="M464.1,293.34h-3.89c-6.62,0-10.65,4.56-10.65,10.32s4,10.47,10.7,10.47h3.89v6.48h-3.89c-10.46,0-17.47-7.3-17.47-16.95,0-9.45,7-16.8,17.18-16.8h4.13Z"/><path class="cls-2" d="M478.6,286.86c9.69,0,17.47,7.3,17.47,16.9s-7.78,16.85-17.47,16.85h-9V286.86Zm-2.31,27.27h2.31a10.4,10.4,0,1,0,0-20.79h-2.31Z"/><path class="cls-2" d="M519.35,286.86v6.48H507.78v7.49h10.94v6.24H507.78v7.06h11.57v6.48H501.06V286.86Z"/><path class="cls-2" d="M543.59,286.86v6.48H532v7.49H543v6.24H532v13.54H525.3V286.86Z"/><path class="cls-2" d="M569.36,293.34h-4.94c-6.63,0-10.66,4.56-10.66,10.32s4,10.47,10.71,10.47h.09V303.76h6.1v16.85h-6.19c-10.47,0-17.48-7.3-17.48-16.95,0-9.45,7-16.8,17.19-16.8h5.18Z"/><path class="cls-2" d="M583.19,286.86v14h14.64v-14h6.72v33.75h-6.72V307.07H583.19v13.54h-6.72V286.86Z"/><path class="cls-2" d="M618.37,286.86v33.75h-6.72V286.86Z"/><path class="cls-2" d="M634.55,286.86l0,22.32a11.27,11.27,0,0,1-11.28,11.43v-6.72a4.56,4.56,0,0,0,4.52-4.71V286.86Z"/><path class="cls-2" d="M648.13,286.86V300.4l11.57-13.54h8.16l-13.68,16.23,13.58,17.52h-8.59L649.66,308l-1.53,1.78v10.8h-6.72V286.86Z"/><path class="cls-2" d="M677.41,286.86v27.27H688.5v6.48H670.69V286.86Z"/><path class="cls-2" d="M694.93,286.86l14.35,14.88,14.35-14.88h2.12v33.75H719V301.5l.09-.57-9.36,10h-1l-9.41-10,.15.57v19.11h-6.72V286.86Z"/><path class="cls-2" d="M733.81,286.86,754.21,306V286.86h6.72v33.75h-1l-20.4-19.11v19.11h-6.72V286.86Z"/><path class="cls-2" d="M800.91,303.76a17.5,17.5,0,1,1-17.47-17.47A17.47,17.47,0,0,1,800.91,303.76Zm-28.27.05A10.78,10.78,0,1,0,783.39,293,10.74,10.74,0,0,0,772.64,303.81Z"/><path class="cls-2" d="M816,286.86a13.42,13.42,0,0,1,13.83,13.3c0,7.1-5.67,13.15-13.59,13.34h-3.65v7.11H805.9V286.86Zm-3.41,19.92h3.6a6.61,6.61,0,1,0,0-13.2h-3.6Z"/><path class="cls-2" d="M867.59,303.71a17.52,17.52,0,0,1-14.12,17.14l-.05,5.57H846.7l0-5.57a17.45,17.45,0,1,1,20.84-17.14Zm-28.28.1a10.81,10.81,0,0,0,7.39,10.13v-6.58h6.72v6.58a10.74,10.74,0,1,0-14.11-10.13Z"/><path class="cls-2" d="M882.7,286.86a13.42,13.42,0,0,1,13.83,13.3,13.22,13.22,0,0,1-5.81,10.94l.72,1.11c1,1.58,2.4,1.92,4.56,1.92v6.48c-5.43,0-7.44-1-9.75-4.56l-1.68-2.64c-.52,0-1.1.09-1.63.09h-3.65v7.11h-6.72V286.86Zm-3.41,19.92h3.6a6.61,6.61,0,1,0,0-13.2h-3.6Z"/><path class="cls-2" d="M917.12,293.53h-3.55c-2.64,0-3.65,1.49-3.65,3.22,0,3.41,5.47,8.83,5.47,14.45,0,5.42-3.74,9.41-10.8,9.41h-4.66v-6.72h3c2.83,0,4.7-1.25,4.7-3.75,0-3.5-5.42-9.12-5.42-14.78,0-5.09,3.74-8.5,10-8.5h4.85Z"/><path class="cls-2" d="M942.89,286.86v6.48h-8.11v27.27h-6.72V293.34H920v-6.48Z"/><path class="cls-2" d="M954,286.86v20.31a7.32,7.32,0,0,0,14.64,0V286.86h6.72v20.31a14,14,0,0,1-28.08,0V286.86Z"/><path class="cls-2" d="M985.09,286.86l8.64,20,8.64-20h7l-15.17,33.75h-1l-15.17-33.75Z"/><path class="cls-2" d="M1040.58,320.61l-9.46-19.39-9.46,19.39h-2.83l-9.41-33.75h6.77l5.23,19,9.22-19h1l9.22,19,5.23-19h6.77l-9.41,33.75Z"/><path class="cls-2" d="M1061,286.86l7.87,11.86,7.83-11.86h7.63l-11.23,16.9,11.23,16.85h-7.54l-7.92-11.91L1061,320.61h-7.53l11.18-16.85-11.18-16.9Z"/><path class="cls-2" d="M1112.81,286.86v9.79c0,6.87-4.08,11.86-10,13.25v10.71h-6.72V309.9c-6-1.34-10.08-6.38-10.08-13.25v-9.79h6.72v9.79c0,4.23,2.64,6.87,6.72,6.87s6.67-2.64,6.67-6.87v-9.79Z"/><path class="cls-2" d="M1151.12,303.76a17.5,17.5,0,1,1-17.48-17.47A17.47,17.47,0,0,1,1151.12,303.76Zm-28.28.05A10.78,10.78,0,1,0,1133.6,293,10.75,10.75,0,0,0,1122.84,303.81Z"/><path class="cls-2" d="M1166.19,286.86v33.75h-6.72V293.1h-5.28v-6.24Z"/><path class="cls-2" d="M1170.31,292.38a12.61,12.61,0,0,1,10.8-6.09,11,11,0,0,1,11.19,11.32,12.09,12.09,0,0,1-2.5,7.25l-6.62,9h9v6.72h-20.45l0-2.55,12-16.41c1-1.3,1.59-2.11,1.59-3.84a4.67,4.67,0,0,0-4.51-4.8c-2.21,0-3.8.91-5.29,3.26Z"/><path class="cls-2" d="M1196.19,291.47s2.39-5.18,9.31-5.18a10.69,10.69,0,0,1,10.65,10.84,9.1,9.1,0,0,1-3.21,7.21,8.63,8.63,0,0,1,3.26,6.81,10.12,10.12,0,0,1-10.17,10,10.75,10.75,0,0,1-9.46-5.09l4.75-4.23a5.71,5.71,0,0,0,4.47,2.55,3.38,3.38,0,0,0,3.74-3.46,3.44,3.44,0,0,0-3.74-3.46h-2.17l.05-6.28h1.63a3.85,3.85,0,0,0,4.09-4,4,4,0,0,0-4.13-4.13,4.8,4.8,0,0,0-4.23,2.69Z"/><path class="cls-2" d="M1239.82,286.86v21.27h4.51v6.24h-4.51v6.24h-6.72v-6.24h-13.78v-4l16-23.52Zm-12.1,21.65h5.38v-8.88Z"/><path class="cls-2" d="M1265.45,286.86v6.24h-9.22l-.67,6.92h1.2c7.11,0,10.9,4.32,10.9,10.12,0,6-4.42,11.05-10.66,11.05a10.81,10.81,0,0,1-9.41-5.09l4.75-4.23a6.07,6.07,0,0,0,4.52,2.55,4,4,0,0,0,4.08-4c0-2.35-1.78-4.12-4.66-4.12h-6.91v-3l1.58-16.37Z"/><path class="cls-2" d="M1289.64,286.86,1283.4,298A11.63,11.63,0,1,1,1271,309.66a12.58,12.58,0,0,1,1.82-6.28l9.07-16.52Zm-6.91,27.6a4.92,4.92,0,0,0,0-9.84,4.92,4.92,0,1,0,0,9.84Z"/><path class="cls-2" d="M97.65,335.86l-12,33.75H78.59l9.75-27.51H78.26v-6.24Z"/><path class="cls-2" d="M99.71,346.13a10.85,10.85,0,0,1,21.7,0,8.93,8.93,0,0,1-3.65,7.4,8.74,8.74,0,0,1,2.88,6.62,10.11,10.11,0,0,1-20.21,0,8.8,8.8,0,0,1,2.83-6.57A9.14,9.14,0,0,1,99.71,346.13Zm6.72,0a4.13,4.13,0,0,0,8.26,0,4.13,4.13,0,0,0-8.26,0Zm.68,13.88a3.39,3.39,0,0,0,3.4,3.45,3.49,3.49,0,0,0,3.56-3.45,3.57,3.57,0,0,0-3.51-3.51A3.48,3.48,0,0,0,107.11,360Z"/><path class="cls-2" d="M136,358.14a5.1,5.1,0,0,1-.62,0c-6,0-10.56-5.08-10.56-11.18a11.69,11.69,0,0,1,23.37-.19,12.69,12.69,0,0,1-1.87,6.29l-9.07,16.51h-7.68ZM131.58,347a4.95,4.95,0,1,0,4.9-4.94A4.92,4.92,0,0,0,131.58,347Z"/><path class="cls-2" d="M152.7,335.86c7,0,11.81,3.7,11.81,10.08,0,5.67-4.13,7.49-4.32,11l-.14,2.93h-5.57l-.15-2.93c0-5.52,3.46-6,3.46-9.89,0-2.88-2.21-4.65-5.09-4.65Zm8.45,30.58a3.81,3.81,0,0,1-3.84,3.75,3.77,3.77,0,0,1,0-7.54A3.84,3.84,0,0,1,161.15,366.44Z"/><path class="cls-2" d="M169.89,369.61V346.13c0-6.43,3-10.75,9.26-10.75s9.31,4.32,9.31,10.75v23.48h-6.72v-8.16h-5.13v8.16Zm6.72-14.4h5.13v-9.12c0-2.88-1-4.08-2.59-4.08s-2.54,1.2-2.54,4.08Z"/><path class="cls-2" d="M201.66,335.86a10.41,10.41,0,0,1,10.42,10.42,7.63,7.63,0,0,1-3.36,6.67,8.59,8.59,0,0,1,2.49,6.24,10.4,10.4,0,0,1-10.41,10.42h-7.11V335.86ZM200.41,350h1.25a3.7,3.7,0,0,0,0-7.4h-1.25Zm0,12.91h.39a3.7,3.7,0,1,0,0-7.39h-.39Z"/><path class="cls-2" d="M228.83,342.49c-4.94,0-7.34,3.41-7.34,10.27s2.4,10.22,7.34,10.22v6.63c-9.79,0-14.06-7.2-14.06-16.85s4.41-16.9,14.06-16.9Z"/><path class="cls-2" d="M237.76,335.86c8.06,0,13.87,5.71,13.87,16.9s-5.81,16.85-13.87,16.85h-4.85V335.86Zm1.87,26.6h.58c2.44,0,4.7-2.88,4.7-9.75s-2.26-9.7-4.7-9.7h-.58Z"/><path class="cls-2" d="M268.24,335.86v6.48h-6v7.25h6v6.24h-6v7.3h6v6.48H255.52V335.86Z"/><path class="cls-2" d="M285.47,335.86v6.48h-6v7.25h6v6.24h-6v13.78h-6.72V335.86Z"/><path class="cls-2" d="M295.6,352.76c0,5,1.24,8.11,3.84,9.46v-9.46h6.24v16.85h-2.74c-9.79,0-14.06-7.2-14.06-16.85s4.41-16.9,14.06-16.9h2.31v6.63h-2.31C298,342.49,295.6,345.9,295.6,352.76Z"/><path class="cls-2" d="M316.81,335.86v13.78h6.1V335.86h6.72v33.75h-6.72V355.88h-6.1v13.73h-6.72V335.86Z"/><path class="cls-2" d="M341.34,335.86v33.75h-6.72V335.86Z"/><path class="cls-2" d="M356.17,335.86v22.32a11.27,11.27,0,0,1-11.28,11.43v-6.72a4.59,4.59,0,0,0,4.56-4.71V335.86Z"/><path class="cls-2" d="M367.69,335.86v13.35l5.09-13.35h7.73l-6.68,15.75,6.63,18h-7.83l-4.22-12.05-.72,1.78v10.27H361V335.86Z"/><path class="cls-2" d="M390.11,335.86v27.27h6v6.48H383.38V335.86Z"/><path class="cls-2" d="M402,335.86,410.55,350l8.89-14.16h2.39v33.75h-6.24V352.14l-4.51,8.49H410l-4.23-8.49v17.47h-6.24V335.86Z"/><path class="cls-2" d="M427.79,335.86l11.56,16.23V335.86h6.24v33.75h-1l-11.56-16.23v16.23h-6.25V335.86Z"/><path class="cls-2" d="M459.61,370.14c-6.05,0-10-5.67-10-17.43s3.89-17.33,10-17.33,10,5.71,10,17.33S465.75,370.14,459.61,370.14Zm0-6.63c1.87,0,3.31-2.64,3.31-10.8s-1.44-10.7-3.31-10.7-3.26,2.59-3.26,10.7S457.79,363.51,459.61,363.51Z"/><path class="cls-2" d="M480.39,335.86c7.54,0,11.91,6.43,11.91,13.35s-4.37,12.86-11.91,13.29v7.11h-6.72V335.86Zm0,19.92c3.12,0,5.19-2.68,5.19-6.57s-2.07-6.63-5.19-6.63Z"/><path class="cls-2" d="M508.38,369.46l.14,5.19H501.8l.1-5c-4.28-1.68-6.92-7.25-6.92-16.9,0-11.62,3.89-17.33,10-17.33s10,5.71,10,17.33C515,362.12,512.5,367.59,508.38,369.46ZM505,363.51c1.87,0,3.31-2.64,3.31-10.8S506.84,342,505,342s-3.27,2.59-3.27,10.7S503.14,363.51,505,363.51Z"/><path class="cls-2" d="M525.75,335.86c7.54,0,11.91,6.43,11.91,13.35a13.17,13.17,0,0,1-4.47,10.27l1.39,2.21a2.48,2.48,0,0,0,2.4,1.44v6.48c-4.36,0-6.33-.91-7.68-3.46l-2.16-4a6.89,6.89,0,0,1-1.39.14v7.3H519V335.86Zm0,19.92c3.12,0,5.19-2.68,5.19-6.57s-2.07-6.63-5.19-6.63Z"/><path class="cls-2" d="M555.42,335.86v6.48h-2a3.21,3.21,0,0,0-3.55,3.51c0,3.31,3.45,8.73,3.45,13.82,0,6.1-3.74,9.94-10.7,9.94H540v-6.48h1.73c2.78,0,4.46-1.35,4.46-4.08,0-3.31-3.41-9-3.41-14.6,0-5.23,3.75-8.59,10-8.59Z"/><path class="cls-2" d="M574.62,335.86v6.48h-5.24v27.27h-6.72V342.34h-5.23v-6.48Z"/><path class="cls-2" d="M584.65,335.86v21.22c0,4.8.91,6.43,2.54,6.43s2.59-1.63,2.59-6.43V335.86h6.72v21.08c0,8.35-3,13.2-9.31,13.2s-9.26-4.85-9.26-13.2V335.86Z"/><path class="cls-2" d="M605.81,335.86l3.32,14.4.62,5.76.62-5.76,3.32-14.4H621l-10.32,33.75h-1.92l-10.23-33.75Z"/><path class="cls-2" d="M627.8,335.86l2.59,11.95.38,3.37,4.28-15.32h1.87l4.22,15.32.39-3.37,2.59-11.95h7.34l-9.84,33.75h-1.44l-4.32-16.71-4.13,16.71h-1.44l-9.74-33.75Z"/><path class="cls-2" d="M659.29,335.86l2.49,11.23,2.55-11.23h7.34l-5.47,16.9,5.47,16.85h-7.34l-2.55-11.19-2.49,11.19h-7.35l5.47-16.85-5.47-16.9Z"/><path class="cls-2" d="M680.31,335.86v8.5c0,3.7.91,5,2.54,5s2.6-1.29,2.6-5v-8.5h6.72v7.73c0,6.72-2,10.61-6,11.91v14.11h-6.72V355.5c-4-1.3-5.9-5.19-5.9-11.91v-7.73Z"/><path class="cls-2" d="M705.08,370.14c-6.05,0-10-5.67-10-17.43s3.89-17.33,10-17.33,10,5.71,10,17.33S711.22,370.14,705.08,370.14Zm0-6.63c1.87,0,3.31-2.64,3.31-10.8S707,342,705.08,342s-3.27,2.59-3.27,10.7S703.25,363.51,705.08,363.51Z"/><path class="cls-2" d="M727.78,335.86v33.75h-6.72V342.1h-2.88v-6.24Z"/><path class="cls-2" d="M731,341.72c1.68-3.65,4.41-6.34,9.36-6.34a9.22,9.22,0,0,1,9.46,9.07c0,3.13-.58,5.33-3,9.65l-4.7,8.79h7.58v6.72H732.24v-2.07l9.17-16.89a8.37,8.37,0,0,0,1.3-4.52c0-2.3-1.15-3.93-2.93-3.93s-2.78,1.2-3.65,3.36Z"/><path class="cls-2" d="M769.35,352.9s2.4,1.92,2.4,7.35c0,5.76-3.94,9.94-9.46,9.94-4.94,0-7.68-2.69-9.36-6.34l5.19-3.84c1.1,2.35,1.77,3.36,3.64,3.36s2.93-1.35,2.93-3.65-.62-3.22-2.21-3.22h-1.92v-6.28h1.92c1.59,0,2.21-1.4,2.21-4.09,0-2.3-1.15-3.93-2.93-3.93s-2.68,1-3.64,3.36l-5.19-3.84c1.68-3.65,4.42-6.34,9.36-6.34,5.52,0,9.46,4,9.46,9.94C771.75,350.55,769.35,352.9,769.35,352.9Z"/><path class="cls-2" d="M792.92,335.86v21.75H796v6.24h-3.07v5.76H786.2v-5.76H774.34v-4l13.63-24ZM781.78,358h4.42v-8.88Z"/><path class="cls-2" d="M799.54,355.06v-2.83l1-16.37H815v6.24h-8.79l-.33,6.67h1.87c6.53,0,9.26,3.85,9.26,10.61,0,6.29-3.93,10.81-9.45,10.81-5,0-7.3-2.69-9-6.34l5.18-3.84c.82,2.16,1.59,3.36,3.46,3.36s2.74-1.44,2.74-4c0-2.93-1.16-4.28-3.12-4.28Z"/><path class="cls-2" d="M829.49,370.19c-5.47,0-10-4.81-10-11.67a17.68,17.68,0,0,1,1.44-6.43l6.43-16.23h7.06l-4.52,11.47a3.6,3.6,0,0,1,.53,0c5,0,9,4.56,9,11.23C839.43,365.38,835,370.19,829.49,370.19Zm0-6.73c1.82,0,3.22-1.72,3.22-4.94s-1.4-4.9-3.22-4.9-3.26,1.73-3.26,4.9S827.62,363.46,829.49,363.46Z"/><path class="cls-2" d="M858.77,335.86l-9.6,33.75h-7.11l7.83-27.51h-8.16v-6.24Z"/><path class="cls-2" d="M860.5,345.9c0-6,3.5-10.61,9.5-10.61s9.55,4.6,9.55,10.61a10,10,0,0,1-2.88,7.63,10.72,10.72,0,0,1,2.12,6.57c0,5.57-3.22,10.09-8.79,10.09s-8.78-4.52-8.78-10.09a9.69,9.69,0,0,1,2.11-6.57A10.12,10.12,0,0,1,860.5,345.9Zm6.72.23c0,2.26,1,4.09,2.78,4.09s2.83-1.83,2.83-4.09S871.78,342,870,342,867.22,343.88,867.22,346.13Zm.62,13.88c0,1.92.72,3.45,2.16,3.45s2.21-1.53,2.21-3.45-.77-3.51-2.21-3.51S867.84,358.09,867.84,360Z"/><path class="cls-2" d="M892.08,335.38c5.47,0,10,4.71,10,11.57a17.68,17.68,0,0,1-1.45,6.43l-6.43,16.23h-7.05l4.51-11.47a3.6,3.6,0,0,1-.53,0c-5,0-9-4.56-9-11.23C882.14,340.09,886.56,335.38,892.08,335.38Zm0,6.63c-1.82,0-3.21,1.72-3.21,4.94s1.39,4.9,3.21,4.9,3.27-1.73,3.27-4.9S894,342,892.08,342Z"/><path class="cls-2" d="M905,335.86c7,0,11.76,3.65,11.76,10.13,0,5.62-4.13,7.44-4.32,11l-.14,2.93h-5.52l-.19-2.93c0-5.47,3.45-6,3.45-10.08,0-2.73-2.16-4.46-5-4.46Zm8.4,30.58a3.73,3.73,0,0,1-3.79,3.75,3.77,3.77,0,0,1,0-7.54A3.77,3.77,0,0,1,913.39,366.44Z"/><path class="cls-2" d="M974.31,369.61v-9.75H925.82v9.75h-3.64V352.9c0-9.6,7.39-17,18.67-17h18.43c11.28,0,18.68,7.44,18.68,17v16.71Zm-48.49-13.3h48.49V352.9c0-7.58-6-13.39-15-13.39H940.85c-9,0-15,5.81-15,13.39Z"/><path class="cls-2" d="M1032.44,335.86c6.81,0,11.32,4.08,11.32,9.51,0,3.84-1.87,6.62-5.9,7.87a6.85,6.85,0,0,1,4.75,6.91c0,5.47-4.27,9.46-11.33,9.46H986.74V335.86Zm-42.06,15.36h42c5,0,7.68-2.45,7.68-5.85s-2.88-5.86-7.68-5.86h-42Zm0,14.74h40.86c5,0,7.63-2.3,7.63-5.71s-2.83-5.47-7.63-5.47H990.38Z"/><path class="cls-2" d="M1104.29,335.86v3.65h-37.63c-9.22,0-14.84,5.42-14.84,13.25s5.62,13.2,14.84,13.2h37.63v3.65h-37.63c-11.48,0-18.48-7-18.48-16.85s7-16.9,18.48-16.9Z"/><path class="cls-2" d="M1155.41,335.86a17,17,0,0,1,17.33,16.9c0,9.5-7.73,16.85-17.33,16.85h-44.83V335.86Zm-41.19,30.24h41.19a13.35,13.35,0,1,0,0-26.69h-41.19Z"/><path class="cls-2" d="M1229.19,335.86v3.65H1183v11.71h46.18v3.56H1183V366h46.18v3.65h-49.83V335.86Z"/><path class="cls-2" d="M1286.55,335.86v3.65h-46.18v11.71h46.18v3.56h-46.18v14.83h-3.65V335.86Z"/><path class="cls-2" d="M123.52,384.86v3.65H85.88c-9.21,0-14.83,5.42-14.83,13.25S76.67,415,85.88,415h34v-13.2h3.65v16.85H85.88c-11.47,0-18.48-7-18.48-16.85s7-16.9,18.48-16.9Z"/><path class="cls-2" d="M191.73,418.61h-3.65V403.82H134.8v14.79h-3.65V384.86h3.65v15.36h53.28V384.86h3.65Z"/><path class="cls-2" d="M249.86,384.86v3.55H225.8V415.1h24.06v3.51h-51.8V415.1h24.1V388.41h-24.1v-3.55Z"/><path class="cls-2" d="M252.68,415h29.43c9.07,0,15-6,15-13.87V384.86h3.65v16.23c0,9.89-7.34,17.52-18.67,17.52H252.68Z"/><path class="cls-2" d="M312.73,418.61h-3.65V384.86h3.65v15.07l45.56-15.07h9.26l-48.48,16.27,48.48,17.48h-9.26L314,402.82l-1.3.43Z"/><path class="cls-2" d="M376.14,384.86V415H421.5v3.65h-49V384.86Z"/><path class="cls-2" d="M428.27,384.86,464,403.49l35.19-18.63h1.34v33.75h-3.6V390.53l-32.35,16.89h-1.15l-32.89-16.89v28.08H427V384.86Z"/><path class="cls-2" d="M510.06,384.86l55.49,28.37V384.86h3.65v33.75h-.53l-55.49-28.37v28.37h-3.65V384.86Z"/><path class="cls-2" d="M594.11,418.61c-11.48,0-18.29-7-18.29-16.85s6.81-16.9,18.29-16.9h29.28c11.47,0,18.29,7.06,18.29,16.9s-6.82,16.85-18.29,16.85ZM623.39,415c9.22,0,14.64-5.38,14.64-13.2s-5.42-13.25-14.64-13.25H594.11c-9.22,0-14.65,5.42-14.65,13.25s5.43,13.2,14.65,13.2Z"/><path class="cls-2" d="M690.06,384.86c8.5,0,14.31,5.81,14.31,13s-5.81,12.91-14.31,12.91H652v7.83H648.3V384.86ZM652,407.23h38.11c6.58,0,10.56-4.17,10.56-9.36s-4-9.36-10.56-9.36H652Z"/><path class="cls-2" d="M743,418.61v5.81h-3.64v-5.81H726.54c-11.48,0-18.29-7-18.29-16.85s6.81-16.9,18.29-16.9h29.28c11.47,0,18.29,7.06,18.29,16.9s-6.82,16.85-18.29,16.85Zm0-3.65h12.82c9.22,0,14.64-5.38,14.64-13.2s-5.42-13.25-14.64-13.25H726.54c-9.22,0-14.64,5.42-14.64,13.25s5.42,13.2,14.64,13.2h12.82v-5H743Z"/><path class="cls-2" d="M822.49,384.86c8.5,0,14.31,5.81,14.31,13a12.47,12.47,0,0,1-5.24,10.23l3.41,5.52a2.29,2.29,0,0,0,2.16,1.34h.29v3.65h-.58a4.72,4.72,0,0,1-4.51-2.4l-4-6.43a17.78,17.78,0,0,1-5.86,1H784.38v7.83h-3.65V384.86Zm-38.11,22.37h38.11c6.58,0,10.56-4.17,10.56-9.36s-4-9.36-10.56-9.36H784.38Z"/><path class="cls-2" d="M897.18,384.86v3.55H858c-9.17,0-11.67,1.83-11.67,5.09s2.21,4.95,10.18,5.38l28,1.54c10.23.57,14.07,3.79,14.07,9,0,5.52-4.47,9.17-16.23,9.17H842.12v-3.55h39.51c9.31,0,12.62-1.92,12.62-5.43,0-3.26-2.3-5.09-11-5.57l-27.65-1.48c-9.12-.49-13.39-3.41-13.39-9,0-5.18,4-8.69,15.6-8.69Z"/><path class="cls-2" d="M953.77,384.86v3.55h-24.1v30.2H926v-30.2h-24.1v-3.55Z"/><path class="cls-2" d="M962.65,384.86v16.71c0,7.58,6,13.39,15,13.39h18.44c9,0,15-5.81,15-13.39V384.86h3.65v16.71c0,9.6-7.39,17-18.67,17H977.67c-11.28,0-18.67-7.44-18.67-17V384.86Z"/><path class="cls-2" d="M1023.51,384.86l28.9,27,2.49,2.5,2.55-2.5,28.85-27h5.28l-36.34,33.75h-.67l-36.29-33.75Z"/><path class="cls-2" d="M1157.05,418.61,1130,389.42l-27,29.19h-1.3l-9.36-33.75h3.7l7.68,27.8,25.73-27.8h1.15l25.73,27.8,7.68-27.8h3.7l-9.31,33.75Z"/><path class="cls-2" d="M1175.81,384.86l29.38,14.93,29.43-14.93h6.86l-32.59,16.85,32.59,16.9h-6.86l-29.43-14.93-29.38,14.93h-6.91l32.59-16.9-32.59-16.85Z"/><path class="cls-2" d="M1246.9,384.86v5.81c0,7.58,6,12.91,15,12.91h18.43c9,0,15-5.33,15-12.91v-5.81H1299v5.81c0,9.6-7.39,16.56-18.67,16.56H1273v11.38h-3.65V407.23h-7.39c-11.29,0-18.68-7-18.68-16.56v-5.81Z"/><path class="cls-2" d="M99.52,467.61c-11.47,0-18.29-7-18.29-16.85s6.82-16.9,18.29-16.9h21.55c11.48,0,18.29,7.06,18.29,16.9s-6.81,16.85-18.29,16.85ZM121.07,464c9.22,0,14.64-5.38,14.64-13.2s-5.42-13.25-14.64-13.25H99.52c-9.22,0-14.64,5.42-14.64,13.25S90.3,464,99.52,464Z"/><path class="cls-2" d="M182.37,433.86V464.1h12.14v3.51H143.73V464.1h35V437.41H144.93v-3.55Z"/><path class="cls-2" d="M198.35,438.33s2.88-4.47,10.94-4.47h30.1c7.73,0,11.19,3.31,11.19,8.16s-2.59,7.59-10.9,10.52l-19.87,7c-5,1.77-8.84,3.12-11.72,4.46h43.26v3.65h-53.1V464a205,205,0,0,1,21.8-8.79l19.73-6.72c4.41-1.49,6.24-3.12,6.24-6.14s-2.5-4.95-7.15-4.95H210.06c-4.22,0-7.05,1.3-8.69,3.12Z"/><path class="cls-2" d="M265.65,437.41a7.34,7.34,0,0,0-6,3.17l-3-2.25s2.21-4.47,8.54-4.47h33.08c5.47,0,9.55,3.75,9.55,9.27a8,8,0,0,1-4.46,7.68,7.78,7.78,0,0,1,4.7,7.34,9.23,9.23,0,0,1-9.55,9.46H265.26c-6.33,0-8.54-4.47-8.54-4.47l3-2.25a7.37,7.37,0,0,0,6,3.07h32.83a5.72,5.72,0,0,0,6-5.81c0-3.31-2.83-5.37-6.29-5.37H269.44v-3.56h28.75a5.91,5.91,0,1,0,0-11.81Z"/><path class="cls-2" d="M353.2,433.86h2.5v23.19H367v3.41H355.7v7.15h-3.65v-7.15H312.69v-2.21Zm-29.67,23.19h28.52V438L320,457.29Z"/><path class="cls-2" d="M380,467.61c-6.34,0-8.54-4.47-8.54-4.47l3-2.25a7.34,7.34,0,0,0,6,3.17h31.1c4.47,0,7.3-2.6,7.3-6.29s-2.83-5.91-7.44-5.91H372.21l1.87-18h45.41v3.55H377.15L376,448.31h35.43c7,0,11,3.84,11,9.46s-4,9.84-10.8,9.84Z"/><path class="cls-2" d="M438,467.61A10.67,10.67,0,0,1,427.36,457a10.91,10.91,0,0,1,1.48-5.42l9.85-17.72h4.17l-7.44,13.2a12,12,0,0,1,4.7-.67h31.16a10.61,10.61,0,0,1,0,21.22Zm0-17.52A6.94,6.94,0,1,0,438,464h33.32a6.94,6.94,0,0,0,0-13.87Z"/><path class="cls-2" d="M529.89,433.86l-11.95,33.75h-3.89l10.65-30.2H479.82v-3.55Z"/><path class="cls-2" d="M543.28,467.61a9.18,9.18,0,0,1-9.32-9.07,8.45,8.45,0,0,1,4-7.35,8.54,8.54,0,0,1-4.37-7.73c0-5.66,4-9.6,9.89-9.6h33.07c5.86,0,9.89,3.94,9.89,9.6a8.54,8.54,0,0,1-4.37,7.73,8.45,8.45,0,0,1,4,7.35,9.18,9.18,0,0,1-9.31,9.07Zm33.55-18.24a6,6,0,0,0,5.95-6,5.82,5.82,0,0,0-5.95-5.9H543.18a5.82,5.82,0,0,0-5.95,5.9,6,6,0,0,0,5.95,6Zm0,14.59a5.59,5.59,0,0,0,0-11.18H543.13a5.59,5.59,0,0,0,0,11.18Z"/><path class="cls-2" d="M635.25,433.86a10.68,10.68,0,0,1,10.61,10.61,11,11,0,0,1-1.49,5.43l-9.84,17.71h-4.18l7.44-13.2a12,12,0,0,1-4.7.67H601.6a10.61,10.61,0,0,1,0-21.22Zm0,17.52a6.94,6.94,0,1,0,0-13.87H601.6a6.94,6.94,0,0,0,0,13.87Z"/><path class="cls-2" d="M668.7,457.91s-.14-2.88-.14-3.12c0-2.64,1.48-4.46,5-5.23l11.28-2.45c3.84-.82,5.47-2.54,5.47-5.38s-2.3-4.89-6.34-4.89H661.6c-4.23,0-7.06,1.29-8.69,3.12l-3-2.21s2.88-4.46,11-4.46h23.33c7,0,10.7,3.26,10.7,8.3s-2.64,7.78-8.35,9l-11.14,2.35c-2.49.53-2.92,1.2-3,2.78l-.1,2.21Zm-1.63,7.87c0-1.53.62-2.4,3.31-2.4s3.31.87,3.31,2.4-.62,2.4-3.31,2.4S667.07,467.37,667.07,465.78Z"/><path class="cls-2" d="M729.71,464.49h-22.8l-2.31,3.12H697l25.2-33.75h1l15.65,33.75h-7.63Zm-18.19-6.24h15.31L721,445.43Z"/><path class="cls-2" d="M773,433.86a9,9,0,0,1,9,9.22,9.51,9.51,0,0,1-5.23,8.5,7.61,7.61,0,0,1,1.34,4.46c0,6.24-5.81,11.57-12,11.57h-22.8L748,433.86Zm-22,27h16.08a4.38,4.38,0,0,0,4.23-4.08,3.24,3.24,0,0,0-3.22-3.31H752ZM752.75,448H771a4.34,4.34,0,0,0,4.27-4.08,3.24,3.24,0,0,0-3.22-3.31H753.8Z"/><path class="cls-2" d="M820.48,440.34H804.63c-7.29,0-12.24,5.33-12.24,11.72,0,5.13,3.36,9.07,9.37,9.07H817.6l-.92,6.48H800.84c-9.45,0-15.26-6.29-15.26-14.79,0-10.46,8.54-19,19.73-19h16.08Z"/><path class="cls-2" d="M846.64,433.86c8.88,0,15.26,6.39,15.26,14.93,0,10.56-9.45,18.82-20,18.82H823.31l4.75-33.75Zm-15.7,27.27h11.85c6.49,0,12.34-5.14,12.34-11.57a9.09,9.09,0,0,0-9.41-9.22H833.87Z"/><path class="cls-2" d="M901.55,433.86l-.91,6.48h-24.1l-1.06,7.35h23.14l-.86,6.24H874.62l-1,7.2h24.1l-.91,6.48H866l4.75-33.75Z"/><path class="cls-2" d="M939.42,433.86l-.91,6.48h-24.1l-1.06,7.49h23.14l-.86,6.24H912.49l-1.92,13.54h-6.72l4.75-33.75Z"/><path class="cls-2" d="M951.66,433.86l-4.76,33.75h-6.72l4.76-33.75Z"/><path class="cls-2" d="M952.18,467.61l.92-6.53h12.81a5.62,5.62,0,0,0,5.19-4.9l3.12-22.32H981l-3.12,22.32A13.38,13.38,0,0,1,965,467.61Z"/><path class="cls-2" d="M994.52,447.59l20.36-13.73h10.17l-21.94,15.75,17.62,18h-10.56l-13.06-13.78-3.89,2.83-1.53,10.95H985l4.75-33.75h6.72Z"/><path class="cls-2" d="M1035.9,433.86l-3.84,27.27h21.31l-.91,6.48h-28l4.76-33.75Z"/><path class="cls-2" d="M1071.42,433.86l11.28,22.32,17.57-22.32h2l5.33,33.75h-6.77l-3.45-20.45-15.75,20.45h-1l-10.08-20.5-9.12,20.5h-6.77l14.79-33.75Z"/><path class="cls-2" d="M1118.89,433.86l26,21,3-21h6.72l-4.75,33.75h-1l-26-21-3,21h-6.72l4.76-33.75Z"/><path class="cls-2" d="M1200.11,448.55c0,10.56-8,19.63-23.09,19.63-12.58,0-18.39-6.76-18.39-15.21,0-10.47,8.07-19.68,23.28-19.68C1194.3,433.29,1200.11,440.1,1200.11,448.55Zm-34.71,3.65c0,5.18,3.46,9.26,12.58,9.26,11,0,15.36-5.71,15.36-12.14,0-5.19-3.46-9.31-12.44-9.31C1169.67,440,1165.4,445.77,1165.4,452.2Z"/><path class="cls-2" d="M1231.11,433.86c7.39,0,12.1,5.43,12.1,11.81,0,7.73-7,14.64-15.6,14.83h-15.7l-1,7.11h-6.72l4.75-33.75Zm-18.29,19.92h15.65c4.13,0,7.92-3.16,7.92-7.34a5.78,5.78,0,0,0-6.05-5.86H1214.7Z"/><path class="cls-2" d="M1287.85,448.55c0,8-4.61,15-13.44,18.1l2,4.18h-7.34l-1.3-2.79a29.28,29.28,0,0,1-3,.14c-12.58,0-18.39-6.76-18.39-15.21,0-10.47,8.07-19.68,23.29-19.68C1282,433.29,1287.85,440.1,1287.85,448.55Zm-16.18,12.19c6.63-1.77,9.41-6.33,9.41-11.42s-3.46-9.31-12.43-9.31c-11.24,0-15.51,5.76-15.51,12.19,0,5,3.22,9,11.57,9.26l-1.77-3.84h7.29Z"/><path class="cls-2" d="M93.33,482.86c7.39,0,12.1,5.43,12.1,11.81,0,5.14-3.12,9.79-7.73,12.58l4.46,9.36H94.82l-3.41-7.2c-.53,0-1.06.09-1.59.09H76.53l-1,7.11H68.8l4.75-33.75ZM77.44,502.78H90.69c4.13,0,7.92-3.16,7.92-7.34a5.78,5.78,0,0,0-6-5.86H79.31Z"/><path class="cls-2" d="M142,492.27s-4.13-3.55-12.53-3.55c-8.68,0-10.27,1.87-10.27,3.84s2.16,2.88,10.42,3.79c11.33.91,15.41,3.17,15.41,8.69,0,7.54-5.95,12.14-18.48,12.14-13,0-17.19-4.94-17.19-4.94l4.23-5.33s4.51,3.84,14.06,3.84c9.31,0,10.46-1.92,10.46-4.13,0-1.77-1.53-3.07-10-3.84-10.94-1-15.7-3.55-15.7-9.26,0-6.87,6.1-11.23,18.25-11.23,12.43,0,16.17,4.36,16.17,4.36Z"/><path class="cls-2" d="M187.12,482.86l-.91,6.48H172.34l-3.84,27.27h-6.72l3.84-27.27H151.74l.91-6.48Z"/><path class="cls-2" d="M199.21,482.86l-2.54,18.24c-.77,5.48,2.59,9.36,10,9.36s11.8-3.88,12.57-9.36l2.55-18.24h6.76l-2.68,18.72c-1.11,7.78-8.5,15.51-20.16,15.51s-16.9-7.73-15.8-15.51l2.64-18.72Z"/><path class="cls-2" d="M250.53,505,267,482.86h7.63l-25.2,33.75h-1l-15.65-33.75h7.63Z"/><path class="cls-2" d="M312.06,516.61l-11.28-22.32-17.57,22.32h-2l-5.33-33.75h6.77l3.45,20.45,15.75-20.45h1l10.08,20.5,9.12-20.5h6.77L314,516.61Z"/><path class="cls-2" d="M340,482.86l9.51,11.86,12.91-11.86H371L353,499.42l14.16,17.19h-8.5l-10.56-12.39-13.73,12.39h-8.5l18.63-17.19-13.1-16.56Z"/><path class="cls-2" d="M381.13,482.86l9.7,12.72L404,482.86h8.26l-18.82,17.86-2.26,15.89h-6.72l2.26-15.89-13.87-17.86Z"/><path class="cls-2" d="M449.3,482.86l-25.35,27H445l-1,6.72H409.21l25-27H414l1-6.72Z"/><path class="cls-2" d="M491.49,497.55c0,10.56-8,19.63-23.09,19.63-12.58,0-18.39-6.76-18.39-15.21,0-10.47,8.07-19.68,23.28-19.68C485.68,482.29,491.49,489.1,491.49,497.55Zm-34.71,3.65c0,5.18,3.46,9.26,12.58,9.26,11,0,15.36-5.71,15.36-12.14,0-5.19-3.51-9.31-12.43-9.31C461,489,456.78,494.77,456.78,501.2Z"/><path class="cls-2" d="M509.53,482.86l-4.75,33.75h-6.72L502,489.1h-7.06l.87-6.24Z"/><path class="cls-2" d="M511.79,511.14l23.95-15.22c1.54-1,2.16-1.73,2.16-3.31,0-1.88-2.25-3.56-7.34-3.56a25.09,25.09,0,0,0-13.06,3.46l-3.22-5.66a33.29,33.29,0,0,1,17.57-4.56c9.75,0,14.12,3.6,14.12,8.59,0,4.8-2.26,7-7.25,10.27l-13.39,8.74H543.9l-1,6.72H511Z"/><path class="cls-2" d="M547.4,511.57l5.43-4.61s3.5,3.65,11.62,3.65c6.19,0,8.25-2,8.25-4.37,0-1.73-1.15-3.12-5.37-3.12h-9.08l.82-5.81h8.69c6,0,6.81-2.3,6.81-4.27s-2.2-4-7.63-4c-5,0-9.84,1.2-13,3.17l-3-5.37c4.56-3,9.93-4.56,17.37-4.56,8.84,0,14.4,4.08,14.4,9.6a9.76,9.76,0,0,1-4.41,8,6.66,6.66,0,0,1,2.54,5.48c0,6.52-6.19,11.8-17.42,11.8C550.72,517.18,547.4,511.57,547.4,511.57Z"/><path class="cls-2" d="M615.13,482.86l-3,21.27h7.3l-.87,6.24h-7.29l-.87,6.24h-6.72l.87-6.24H584l.57-4,26.07-23.52ZM594.2,504.51h11.14l1.59-11.13Z"/><path class="cls-2" d="M656.56,482.86l-.87,6.24h-21.5l-1.63,7h10.6c8.41,0,12.34,2.64,12.34,8,0,7.25-6.33,13.15-18.53,13.15-12.62,0-15.17-5.61-15.17-5.61l5.43-4.61s3,3.65,11.09,3.65c7.77,0,10-2.5,10-4.95,0-2-1.68-3.4-6.29-3.4H625.07l.53-3.56,3.74-15.84Z"/><path class="cls-2" d="M659.67,507.2c0-2.88,1.59-5.71,3.27-8.16l11.28-16.18h7.68l-8.78,12.48a19.5,19.5,0,0,1,5.08-.53c10.09,0,15.41,4,15.41,10,0,7.25-6.77,12.34-18.53,12.34C665,517.14,659.67,513.1,659.67,507.2Zm7.73-.77c0,2.59,2.64,4.51,8.55,4.51,6.86,0,9.93-2.35,9.93-5.47,0-2.69-2.59-4.56-8.54-4.56C670.52,500.91,667.4,503.22,667.4,506.43Z"/><path class="cls-2" d="M727.84,482.86l-22.9,33.75h-7.11l19.45-27.51H696.2l.87-6.24Z"/><path class="cls-2" d="M762.35,492.61c-.82,5.76-6.29,7.53-6.29,7.53s4,1.92,3.22,7.2-5.38,9.8-16.28,9.8-14.3-4.61-13.58-9.8a9.59,9.59,0,0,1,5.23-7.2,6.79,6.79,0,0,1-4.18-7.53c.82-5.86,6.2-10.32,17.43-10.32S763.16,486.75,762.35,492.61Zm-10,14.11c0-1.78-1.69-3.5-7.4-3.5-6.67,0-8.45,2.16-8.45,4.22,0,1.82,1.64,3.65,7.35,3.65C750.54,511.09,752.32,508.74,752.32,506.72Zm3.74-14.45c0-2-2-3.89-9-3.89-8.16,0-10.18,2.4-10.18,4.61,0,2,1.92,4.13,8.93,4.13C754,497.12,756.06,494.43,756.06,492.27Z"/><path class="cls-2" d="M801.37,492.27c0,2.88-1.58,5.71-3.26,8.16l-11.28,16.18h-7.68l8.78-12.48a19.64,19.64,0,0,1-5.09.53c-10.08,0-15.41-4-15.41-10,0-7.25,6.77-12.34,18.58-12.34C796,482.33,801.37,486.37,801.37,492.27Zm-7.73.77c0-2.59-2.59-4.51-8.49-4.51-6.87,0-10,2.35-10,5.47,0,2.69,2.64,4.56,8.55,4.56C790.57,498.56,793.64,496.25,793.64,493Z"/><path class="cls-2" d="M811.4,513a4.42,4.42,0,0,1-4.42,4.17,3.21,3.21,0,0,1-3.26-3.31,4.35,4.35,0,0,1,4.32-4.22A3.34,3.34,0,0,1,811.4,513Zm-4.22-30.15c6.38,0,10.51,3.22,10.51,8.74,0,6.72-5.18,8.49-6,12.38l-.58,2.93h-5.57l.24-2.93c.82-6,4.95-6.09,4.95-10.51,0-2.5-1.88-4-4.52-4Z"/><path class="cls-2" d="M820.81,516.61v-21c0-7.77,5.28-13.2,12.57-13.2S846,487.81,846,495.58v21h-3.65V505.47h-17.9v11.14Zm3.65-14.69h17.9v-6.34c0-5.76-3.65-9.55-9-9.55s-8.92,3.79-8.92,9.55Z"/><path class="cls-2" d="M865.16,482.86c6.05,0,10.22,4.37,10.22,9.75a7.9,7.9,0,0,1-5.13,7.82,7.73,7.73,0,0,1,3.94,7,9.21,9.21,0,0,1-9.32,9.22H855V482.86Zm-6.48,15.56h6.67c3.89,0,6.39-2.5,6.39-5.81s-2.5-6.1-6.58-6.1h-6.48Zm0,14.54h6.19a5.69,5.69,0,0,0,5.67-5.57,5.53,5.53,0,0,0-5.67-5.42h-6.19Z"/><path class="cls-2" d="M896.89,516.61c-9.94,0-16.9-7.2-16.9-16.85s7-16.9,16.9-16.9h2.45v3.65h-2.45c-8,0-13.25,5.66-13.25,13.25S888.87,513,896.89,513h2.45v3.6Z"/><path class="cls-2" d="M914.89,482.86a17,17,0,0,1,17.33,16.9c0,9.5-7.73,16.85-17.33,16.85H906V482.86Zm-5.28,30.24h5.28a13.35,13.35,0,1,0,0-26.69h-5.28Z"/><path class="cls-2" d="M954.54,482.86v3.55h-12v11.52h11.09v3.56H942.49V513.1h12v3.51h-15.7V482.86Z"/><path class="cls-2" d="M977.43,482.86v3.55h-12v11.52h11.09v3.56H965.38v15.12h-3.65V482.86Z"/><path class="cls-2" d="M1004.65,499.76v16.85h-6.1c-9.94,0-16.9-7.2-16.9-16.85s7-16.9,16.9-16.9h5.09v3.65h-5.09c-8,0-13.25,5.66-13.25,13.25S990.53,513,998.55,513H1001V499.76Z"/><path class="cls-2" d="M1015.69,482.86V498h19.2V482.86h3.65v33.75h-3.65V501.54h-19.2v15.07H1012V482.86Z"/><path class="cls-2" d="M1051.21,482.86v33.75h-3.65V482.86Z"/><path class="cls-2" d="M1066.37,482.86v23.76a9.87,9.87,0,0,1-9.74,10V513a6.24,6.24,0,0,0,6.09-6.34V482.86Z"/><path class="cls-2" d="M1078.71,482.86v16.47l16.66-16.47h4.51l-16.08,16.32,15.45,17.43h-4.75l-13.2-14.74-2.59,2.5v12.24h-3.65V482.86Z"/><path class="cls-2" d="M1107.22,482.86v30.2h12.24v3.55h-15.89V482.86Z"/><path class="cls-2" d="M1126.56,482.86l14.55,19.06,14.35-19.06h1.68v33.75h-3.65V492.37l0-.63-12.09,15.89h-.68l-12.09-15.89,0,.63v24.24h-3.64V482.86Z"/><path class="cls-2" d="M1166.69,482.86l22.56,25.2v-25.2h3.65v33.75h-.53l-22.56-25.2v25.2h-3.65V482.86Z"/><path class="cls-2" d="M1216.85,482.33a17.41,17.41,0,1,1-17.38,17.43A17.43,17.43,0,0,1,1216.85,482.33Zm0,31.21a13.78,13.78,0,1,0-13.73-13.78A13.76,13.76,0,0,0,1216.85,513.54Z"/><path class="cls-2" d="M1247.76,482.86a13,13,0,0,1,0,26h-3.21v7.73h-3.65V482.86Zm-3.21,22.37h3.21a9.36,9.36,0,0,0,0-18.72h-3.21Z"/><path class="cls-2" d="M1282.18,482.33A17.4,17.4,0,0,1,1284,517v4.61h-3.64V517a17.4,17.4,0,0,1,1.82-34.71Zm-1.82,31.11v-5H1284v5a13.73,13.73,0,1,0-3.64,0Z"/><path class="cls-2" d="M103.94,531.86a13,13,0,0,1,8.3,23l3.46,5.67a2.86,2.86,0,0,0,2.69,1.53v3.51c-3.12,0-4.32-.87-5.62-2.93L109,556.82a12.6,12.6,0,0,1-5.09,1.06h-3.22v7.73H97.07V531.86Zm-3.22,22.37h3.22a9.36,9.36,0,0,0,0-18.72h-3.22Z"/><path class="cls-2" d="M136.82,531.86v3.55H133c-2.89,0-4.71,1.54-4.71,4.32,0,5.28,7.11,10.81,7.11,17.48,0,4.94-3.22,8.4-8.55,8.4h-5.42v-3.55h4.32c3.21,0,5.52-1.78,5.52-5.19,0-5-7.11-10.61-7.11-17.57a7.1,7.1,0,0,1,7.49-7.44Z"/><path class="cls-2" d="M160.1,531.86v3.55h-8.21v30.2h-3.65v-30.2H140v-3.55Z"/><path class="cls-2" d="M169.17,531.86v21c0,5.76,3.65,9.55,8.93,9.55s9-3.79,9-9.55v-21h3.65v21c0,7.77-5.28,13.2-12.62,13.2s-12.58-5.43-12.58-13.2v-21Z"/><path class="cls-2" d="M198.78,531.86,210,558.46l11.33-26.6h3.79L210.4,565.61h-.77l-14.69-33.75Z"/><path class="cls-2" d="M257.59,565.61l-10.33-25.3-10.36,25.3h-1.16l-9.31-33.75h3.7l6.81,24.77,9.75-24.77h1.1l9.8,24.77,6.81-24.77h3.7l-9.36,33.75Z"/><path class="cls-2" d="M274,531.86,283.84,546l9.79-14.16h4.18l-11.71,16.9,11.71,16.85h-4.13l-9.84-14.16L274,565.61h-4.13l11.67-16.85-11.67-16.9Z"/><path class="cls-2" d="M303.9,531.86V539c0,5.76,3.65,9.55,8.93,9.55s9-3.79,9-9.55v-7.11h3.65V539c0,7.1-4.42,12.29-10.8,13.1v13.54H311V552.07c-6.34-.81-10.76-6-10.76-13.1v-7.11Z"/><path class="cls-2" d="M347.15,531.33a17.41,17.41,0,1,1-17.38,17.43A17.43,17.43,0,0,1,347.15,531.33Zm0,31.21a13.78,13.78,0,1,0-13.73-13.78A13.76,13.76,0,0,0,347.15,562.54Z"/><path class="cls-2" d="M377,531.86v33.75h-3.65V535.27h-5.23v-3.41Z"/><path class="cls-2" d="M382.48,536.37c1-2,3.74-5.08,9.21-5.08A10.17,10.17,0,0,1,402,541.56a13.31,13.31,0,0,1-3,8.45l-9.26,12h12.86v3.65h-19v-1.78l12.1-15.6c1.87-2.45,2.49-3.89,2.49-6.67a6.74,6.74,0,0,0-6.62-6.63,7.17,7.17,0,0,0-6.24,3.51Z"/><path class="cls-2" d="M406.86,535.37a9.46,9.46,0,0,1,8.21-4.08,10.17,10.17,0,0,1,10.08,10.22,8.73,8.73,0,0,1-4.66,8.11A7.84,7.84,0,0,1,425,557a9.05,9.05,0,0,1-9.22,9.16,9.87,9.87,0,0,1-8.21-4.08l2.59-2.3a7.1,7.1,0,0,0,5.53,2.74,5.45,5.45,0,0,0,5.71-5.52,5.72,5.72,0,0,0-5.62-5.62H414V548h1.44a6.51,6.51,0,0,0-.52-13,6.64,6.64,0,0,0-5.48,2.74Z"/><path class="cls-2" d="M447.71,531.86v23.19h4.46v3.41h-4.46v7.15h-3.65v-7.15H429v-2.21l16.22-24.39Zm-14,23.19h10.37v-15.7Z"/><path class="cls-2" d="M472.77,531.86v3.41H462.54l-1,10.8h2c7,0,10.89,3.75,10.89,9.94a10.15,10.15,0,0,1-18.29,6.09l2.6-2.3a7.17,7.17,0,0,0,5.76,2.74,6.41,6.41,0,0,0,6.29-6.53c0-4.18-2.84-6.58-7.54-6.58h-5.19V547.7l1.54-15.84Z"/><path class="cls-2" d="M494.75,531.86l-7.68,13.68a8,8,0,0,1,2.49-.33,10.51,10.51,0,0,1,10.52,10.37,10.52,10.52,0,1,1-21-.2c0-1.87.67-3.93,2.21-6.72l9.31-16.8Zm-5.23,30.68a6.94,6.94,0,1,0-7-7A7,7,0,0,0,489.52,562.54Z"/><path class="cls-2" d="M521.2,531.86l-12,33.75h-3.88l10.7-30.34H503.24v-3.41Z"/><path class="cls-2" d="M524.31,541.51a10.18,10.18,0,1,1,20.36,0,9,9,0,0,1-5.47,8.31,8.06,8.06,0,0,1,4.41,7.24,9.28,9.28,0,0,1-9.17,9.12,9.12,9.12,0,0,1-9.12-9.12,8,8,0,0,1,4.42-7.24A8.93,8.93,0,0,1,524.31,541.51Zm3.65,0a6.53,6.53,0,0,0,13.06,0,6.53,6.53,0,1,0-13.06,0Zm6.48,21a5.55,5.55,0,1,0-5.52-5.52A5.53,5.53,0,0,0,534.44,562.54Z"/><path class="cls-2" d="M554.31,565.61,562,551.93a8.09,8.09,0,0,1-2.5.33A10.5,10.5,0,0,1,549,541.89a10.51,10.51,0,1,1,21,.2c0,2.06-.67,3.93-2.21,6.72l-9.31,16.8Zm5.24-30.68a6.94,6.94,0,1,0,7,7A7,7,0,0,0,559.55,534.93Z"/><path class="cls-2" d="M575.62,531.86c3.8.29,9.51,2.5,9.51,9.7,0,6.19-4.46,8-4.61,12.82l-.09,3.4H577.5l-.15-3.4c-.24-6.1,4.23-7,4.23-12.34a6.37,6.37,0,0,0-6-6.63Zm5.62,31.83A2.21,2.21,0,0,1,579,565.9a2.24,2.24,0,1,1,0-4.47A2.22,2.22,0,0,1,581.24,563.69Z"/><path class="cls-2" d="M604.28,565.61V554.76h-9.17v10.85h-3.64V542.47c0-7.2,3.07-11.09,8.2-11.09s8.26,3.89,8.26,11.09v23.14Zm-9.17-23v8.6h9.17v-8.6c0-5.71-2-7.63-4.61-7.63S595.11,536.9,595.11,542.61Z"/><path class="cls-2" d="M619.4,531.86c6.15,0,10.32,4.08,10.32,9.51a7.94,7.94,0,0,1-5.28,7.77,7.36,7.36,0,0,1,4.42,7c0,5.48-4.13,9.51-10.47,9.51H614V531.86Zm-1.73,15.36h1.73c4.23,0,6.67-2.68,6.67-5.85,0-3.36-2.59-5.86-6.67-5.86h-1.73Zm0,14.74h.72c4.28,0,6.82-2.16,6.82-5.57s-2.54-5.61-6.82-5.61h-.72Z"/><path class="cls-2" d="M645.85,535.46c-6.62,0-9.12,5.47-9.12,13.3s2.5,13.25,9.12,13.25v3.6c-8.54,0-12.77-6.72-12.77-16.85s4.23-16.9,12.77-16.9Z"/><path class="cls-2" d="M650.65,565.61V531.86h4.66c6.33,0,11.57,6.43,11.57,16.9s-5.19,16.85-11.57,16.85Zm5.14-3.65c3.55,0,7.44-4.42,7.44-13.2s-3.89-13.25-7.44-13.25H654.3V562Z"/><path class="cls-2" d="M683.1,531.86v3.65h-7.92v11.71h7.92v3.56h-7.92V562h7.92v3.65H671.53V531.86Z"/><path class="cls-2" d="M699.75,531.86v3.65h-7.92v11.71h7.92v3.56h-7.92v14.83h-3.64V531.86Z"/><path class="cls-2" d="M707.1,548.76c0,7,2,12.1,7.15,13.06V548.76h3.31v16.85h-1.34c-8.55,0-12.77-6.72-12.77-16.85s4.22-16.9,12.77-16.9h1.34v3.6h-1.34C709.59,535.46,707.1,540.93,707.1,548.76Z"/><path class="cls-2" d="M726.39,531.86v15.36h9.75V531.86h3.65v33.75h-3.65V550.78h-9.75v14.83h-3.65V531.86Z"/><path class="cls-2" d="M749.29,531.86v33.75h-3.65V531.86Z"/><path class="cls-2" d="M761.43,531.86v25.2c0,4.85-3.31,8.55-8.25,8.55V562a4.45,4.45,0,0,0,4.56-4.71V531.86Z"/><path class="cls-2" d="M770.79,531.86v13.39l9.51-13.39h4.22v.63l-10.8,15.31L784.62,565v.58H780.3L771,551l-.24.33v14.31h-3.65V531.86Z"/><path class="cls-2" d="M791.33,531.86V562.1h7.3v3.51h-10.9V531.86Z"/><path class="cls-2" d="M803.72,531.86l8.83,20.5,9-20.5h1.29v33.75h-3.4V544.34l-6.48,14.88h-.82l-6.24-14.88v21.27h-3.41V531.86Z"/><path class="cls-2" d="M829.4,531.86l12.33,22.28V531.86h3.37v33.75h-.72L832,543.33v22.28h-3.36V531.86Z"/><path class="cls-2" d="M868,548.76c0,10.56-3.17,17.38-9.12,17.38s-9-6.82-9-17.38,3.11-17.38,9-17.38S868,538.15,868,548.76Zm-14.5,0c0,8.93,1.83,13.78,5.38,13.78,3.74,0,5.47-4.85,5.47-13.78S862.57,535,858.87,535,853.49,539.83,853.49,548.76Z"/><path class="cls-2" d="M876.15,531.86c7.06,0,12,6,12,12.82,0,6.58-4.46,12.34-11.76,12.58v8.35h-3.65V531.86Zm.24,21.75c4.8,0,8.11-4,8.11-8.93s-3.31-9.17-8.11-9.17Z"/><path class="cls-2" d="M909.41,548.76c0,9.36-2.49,15.79-7.2,17.09l.1,4.8h-3.65l.05-4.71c-4.9-1.1-7.44-7.58-7.44-17.18,0-10.61,3.12-17.38,9-17.38S909.41,538.15,909.41,548.76Zm-14.49,0c0,8.74,1.77,13.78,5.37,13.78,3.75,0,5.48-4.85,5.48-13.78S904,535,900.29,535,894.92,539.83,894.92,548.76Z"/><path class="cls-2" d="M920.88,556.82a12.71,12.71,0,0,1-3.07.44v8.35h-3.64V531.86h3.4c7.06,0,12,6,12,12.82a12.63,12.63,0,0,1-5.13,10.46l3.55,5.62a2.15,2.15,0,0,0,2.06,1.2h.34v3.65h-.77c-2.4,0-3.74-.91-5.23-3.27Zm-3.07-3.21c4.8,0,8.12-4,8.12-8.93s-3.32-9.17-8.12-9.17Z"/><path class="cls-2" d="M946.76,531.86v3.55H945.7c-3.17,0-5.33,1.83-5.33,6.24,0,4.13,3.36,9.17,3.36,14.31,0,5.66-2.64,9.65-9.21,9.65h-2.26V562h1.68c4.27,0,5.95-1.92,5.95-6.05s-3.36-9.26-3.36-14.69c0-5.66,3.6-9.36,8.79-9.36Z"/><path class="cls-2" d="M963.65,531.86v3.55h-5.8v30.2H954.2v-30.2h-5.81v-3.55Z"/><path class="cls-2" d="M980.12,554.9v-23h3.65v23.19c0,7.2-3.08,11.09-8.26,11.09s-8.21-3.89-8.21-11.09V531.86H971v23c0,5.72,2,7.64,4.56,7.64S980.12,560.62,980.12,554.9Z"/><path class="cls-2" d="M994.8,548.23l2,8.35,2-8.35,4.42-16.37h3.93l-9.93,33.75h-.72l-9.89-33.75h3.89Z"/><path class="cls-2" d="M1011.36,531.86l3.36,16.47.92,4.7,5-21.17h1.58l5.14,21.17.81-4.7,3.37-16.47h3.93l-7.77,33.75H1027l-5.56-23.43-5.48,23.43h-.67l-7.78-33.75Z"/><path class="cls-2" d="M1040.83,531.86l4.28,13.78,4.32-13.78h3.93l-5.9,16.85,6,16.9h-3.94l-4.51-13.78-4.42,13.78h-4l6-16.9-5.81-16.85Z"/><path class="cls-2" d="M1068.68,540.17v-8.31h3.64v8.45c0,6.29-2.35,10-6.38,10.9v14.4h-3.65v-14.4c-4.08-.82-6.43-4.56-6.43-10.9v-8.45h3.65v8.31c0,5.71,2,7.63,4.56,7.63S1068.68,545.88,1068.68,540.17Z"/><path class="cls-2" d="M1094,548.76c0,10.42-3.31,17.38-9.12,17.38s-9-7-9-17.38,3.26-17.38,9-17.38S1094,538.29,1094,548.76Zm-14.5,0c0,8.78,1.92,13.78,5.38,13.78s5.47-5,5.47-13.78S1088.45,535,1084.9,535,1079.52,540,1079.52,548.76Z"/><path class="cls-2" d="M1104.63,531.86v33.75H1101V535.27h-4v-3.41Z"/><path class="cls-2" d="M1108.66,536.76a7.7,7.7,0,0,1,7.63-5.09c4.66,0,7.68,3.5,7.68,8.93a17.54,17.54,0,0,1-2.35,8.3L1114.8,562h9.36v3.65H1109v-1.25l9.12-16.9a13,13,0,0,0,2.06-6.62c0-3.65-1.73-5.52-4-5.52s-3.55,1.15-4.61,3.5Z"/><path class="cls-2" d="M1135,547.08c2.21,0,3.74-1.44,3.74-5.47,0-4.42-1.72-6.58-4-6.58s-3.36,1.15-4.42,3.5l-2.83-2.06c1.25-2.88,3.46-5.09,7.11-5.09,4.61,0,8,3.46,8,10.32,0,5.57-3.07,7.2-3.07,7.2s3.27,2.31,3.27,7.73c0,6-3.41,9.51-8,9.51a7.76,7.76,0,0,1-7.3-5.09l2.83-2.07c1.06,2.36,2.31,3.51,4.61,3.51,2.55,0,4-2.11,4-6s-1.73-6-3.94-6h-2.64v-3.46Z"/><path class="cls-2" d="M1161.07,531.86v23.19H1164v3.41h-2.93v7.15h-3.64v-7.15h-11.72v-2.07l12.72-24.53ZM1150,555.05h7.45V540Z"/><path class="cls-2" d="M1173.79,546.36c5.76,0,8.31,4.85,8.31,10.27,0,6-3.41,9.51-8,9.51a7.76,7.76,0,0,1-7.3-5.09l2.84-2.07c1.05,2.36,2.3,3.51,4.6,3.51s4-2.11,4-5.76c0-4.23-1.73-6.91-5.28-6.91h-4.8V548l1-16.13h11.43v3.41h-8.31l-.62,11.09Z"/><path class="cls-2" d="M1197.17,531.86l-5.23,12.87a5.52,5.52,0,0,1,2-.29c5.19,0,8.6,4.8,8.6,10.56s-3.22,11.14-8.65,11.14c-5.61,0-8.54-5-8.54-11.19a18.77,18.77,0,0,1,1.54-7.15l6.38-15.94Zm-3.27,30.68c3.46,0,5-3.51,5-7.4s-1.68-7.29-5-7.29-5,3.5-5,7.29S1190.4,562.54,1193.9,562.54Z"/><path class="cls-2" d="M1219.2,531.86l-9.6,33.75h-3.79l8.64-30.34h-10.13v-3.41Z"/><path class="cls-2" d="M1225.54,550a10,10,0,0,1-4.13-8.5c0-5.62,3.12-10.22,8.69-10.22s8.78,4.6,8.78,10.22a9.86,9.86,0,0,1-4.27,8.5,9.11,9.11,0,0,1,3.17,7.34c0,4.9-3.27,8.83-7.68,8.83s-7.68-3.93-7.68-8.83A9.16,9.16,0,0,1,1225.54,550Zm4.56-15.08c-3.08,0-5,3-5,6.58,0,3.41,2,6.48,5,6.48s5.13-3.07,5.13-6.48C1235.23,537.91,1233.22,534.93,1230.1,534.93Zm0,17.09c-2.5,0-4.08,2.36-4.08,5.33s1.58,5.19,4.08,5.19,4.08-2.36,4.08-5.19S1232.59,552,1230.1,552Z"/><path class="cls-2" d="M1247.33,565.61l5.23-12.87a5.55,5.55,0,0,1-2,.29c-5.18,0-8.59-4.8-8.59-10.56s3.36-11.09,8.64-11.09c5.47,0,8.55,5.28,8.55,11.28a18.11,18.11,0,0,1-1.54,7l-6.39,15.94Zm3.26-30.63c-3.31,0-5,3.65-5,7.49s1.68,7.15,5,7.15,5-3.36,5-7.15S1254,535,1250.59,535Z"/><path class="cls-2" d="M1262.4,531.86c3.79.29,9.5,2.5,9.5,9.7,0,6.19-4.46,8-4.61,12.82l-.09,3.4h-2.93l-.14-3.4c-.24-6.1,4.22-7,4.22-12.34a6.37,6.37,0,0,0-5.95-6.63Zm5.62,31.83a2.22,2.22,0,0,1-2.26,2.21,2.24,2.24,0,1,1,0-4.47A2.23,2.23,0,0,1,1268,563.69Z"/></g></svg>