<?xml version='1.0' encoding='UTF-8'?>
<svg xmlns="http://www.w3.org/2000/svg" xmlns:xlink="http://www.w3.org/1999/xlink" width="1366px" height="768px" viewBox="0 0 1366 768" x="0px" y="0px" enable-background="new 0 0 1366 768"><defs><symbol overflow="visible" id="631bb9fda"><path d="M2.4-9.9H1.28V0H2.4zm0 0"/></symbol><symbol overflow="visible" id="631bb9fdb"><path d="M7.6-9.9H.3v1.03h3.1V0h1.15v-8.88H7.6zm0 0"/></symbol><symbol overflow="visible" id="631bb9fdc"><path d="M7.34 0h1.24L5.03-9.9H3.78L.13 0h1.23l.97-2.72H6.4zM2.7-3.77L4.4-8.63l1.65 4.86zm0 0"/></symbol><symbol overflow="visible" id="631bb9fdd"><path d="M2.44-1.05V-9.9H1.27V0h5.62v-1.05zm0 0"/></symbol><symbol overflow="visible" id="631bb9fde"><path d="M7.8-9.9v8.92L3.02-9.91H1.27V0h1.09v-8.9L7.13 0h1.75v-9.9zm0 0"/></symbol><symbol overflow="visible" id="631bb9fdg"><path d="M6.36-5.14a2.23 2.23 0 001.67-2.14c0-1.64-.97-2.63-3.1-2.63H1.28V0h3.87C7.5 0 8.45-1.08 8.45-2.81c0-1.27-.82-2.14-2.1-2.33zM4.64-8.86c1.34 0 2.22.4 2.22 1.58 0 1.08-.75 1.72-2.03 1.72H2.4v-3.3zm.27 7.83H2.4v-3.5h2.51c1.42 0 2.38.4 2.38 1.72 0 1.39-.96 1.78-2.4 1.78zm0 0"/></symbol><symbol overflow="visible" id="631bb9fdh"><path d="M4.98.17c2.57 0 4.33-2.06 4.33-5.1 0-3.07-1.76-5.15-4.33-5.15-2.54 0-4.3 2.08-4.3 5.14C.67-1.89 2.43.17 4.97.17zm0-1.03c-1.9 0-3.15-1.56-3.15-4.08 0-2.54 1.25-4.1 3.15-4.1 1.93 0 3.18 1.56 3.18 4.1 0 2.52-1.25 4.08-3.18 4.08zm0 0"/></symbol><symbol overflow="visible" id="631bb9fdi"><path d="M4.23-9.9H1.27V0h2.96c2.64 0 4.52-1.9 4.52-4.94C8.75-8 6.87-9.9 4.23-9.9zm-.17 8.87H2.41v-7.83h1.65c2.24 0 3.53 1.44 3.53 3.92 0 2.46-1.32 3.9-3.53 3.9zm0 0"/></symbol><symbol overflow="visible" id="631bb9fdj"><path d="M11.83-4.3H.28v1.05h11.55zm0 0"/></symbol><symbol overflow="visible" id="631bb9fdk"><path d="M2.63-9.9c-.24 1.03-.7 1.65-2.3 1.71v1.02c1.01 0 1.64-.16 2.12-.63V0h1.17v-9.9zm0 0"/></symbol><symbol overflow="visible" id="631bb9fdl"><path d="M4.25-6.5c-1.13 0-1.95.5-2.4 1.4v-.23c0-2.14.87-3.7 2.43-3.7 1.02 0 1.58.53 1.77 1.5H7.2c-.25-1.63-1.18-2.55-2.92-2.55-1.86 0-3.56 1.52-3.56 5.05 0 2.69.76 5.2 3.42 5.2 1.94 0 3.22-1.37 3.22-3.39 0-1.86-1.16-3.28-3.11-3.28zM4.19-.87c-1.38 0-2.14-1.2-2.14-2.35 0-1.17.8-2.23 2.14-2.23 1.36 0 2.03 1.06 2.03 2.23 0 1.16-.67 2.35-2.03 2.35zm0 0"/></symbol><symbol overflow="visible" id="631bb9fdm"><path d="M4.42.17c2.33 0 3.7-2.1 3.7-5.1 0-3-1.37-5.15-3.7-5.15-2.34 0-3.7 2.16-3.7 5.16 0 2.98 1.36 5.1 3.7 5.1zm0-1.08c-1.67 0-2.58-1.54-2.58-4.01C1.84-7.41 2.75-9 4.42-9c1.66 0 2.56 1.6 2.56 4.08 0 2.47-.9 4.01-2.56 4.01zm0 0"/></symbol><symbol overflow="visible" id="631bb9fdn"><path d="M5.1-9.9H1.26V0h1.15v-4.33h2.56c2.13 0 3.18-1.19 3.18-2.81 0-1.7-.96-2.77-3.07-2.77zm-.2 4.54H2.41v-3.5H4.9C6.36-8.86 7-8.25 7-7.14c0 1.06-.64 1.78-2.1 1.78zm0 0"/></symbol><symbol overflow="visible" id="631bb9fdo"><path d="M4.4.17C6.68.17 7.95-1 7.95-2.73c0-1.43-.88-2.3-2.4-2.66l-2.09-.52c-1.06-.26-1.4-.75-1.4-1.46 0-.94.75-1.66 2.08-1.66 1.37 0 2.28.6 2.45 1.9H7.8c-.2-2.03-1.63-2.95-3.64-2.95C2.1-10.08.83-8.83.83-7.23c0 1.3.75 2.18 2.1 2.51l2.16.5c1.1.27 1.64.78 1.64 1.66 0 .95-.75 1.7-2.32 1.7-1.5 0-2.49-.69-2.66-2.08H.53C.72-.95 1.97.17 4.41.17zm0 0"/></symbol><symbol overflow="visible" id="631bb9fdp"><path d="M7.4-9.9L4.38-1.54 1.4-9.91H.17L3.84 0h1.04l3.76-9.9zm0 0"/></symbol><symbol overflow="visible" id="631bb9fdq"><path d="M7.67-8.84v-1.07h-6.4V0h6.4v-1.05H2.41v-3.5h4.68v-1.03H2.41v-3.26zm0 0"/></symbol><symbol overflow="visible" id="631bb9fdr"><path d="M7.38 0h1.3l-3-4.45c1.71-.22 2.48-1.24 2.48-2.72 0-1.67-.97-2.74-3.08-2.74H1.27V0h1.15v-4.33h2.02zM2.42-8.86h2.49C6.27-8.86 7-8.3 7-7.17c0 1.15-.7 1.81-2.06 1.81H2.42zm0 0"/></symbol><symbol overflow="visible" id="631bb9fds"><path d="M4.77-5.13v1.04h3.25C8-2.13 6.88-.86 5.03-.86c-1.92 0-3.2-1.5-3.2-4.08 0-2.54 1.3-4.1 3.15-4.1 1.46 0 2.27.65 2.7 1.8H8.9C8.36-9.2 6.94-10.07 5-10.07 2.4-10.08.67-7.97.67-4.94.67-1.89 2.42.17 5.03.17c1.61 0 2.58-.8 3.06-1.98V0h1.04l.01-5.13zm0 0"/></symbol><symbol overflow="visible" id="631bb9fdt"><path d="M8.81-9.9H7.67v6.1C7.67-1.86 6.55-.9 5-.9c-1.63 0-2.7-1-2.7-2.94v-6.07H1.16v6.07C1.16-1.2 2.66.17 4.98.17c2.35 0 3.83-1.34 3.83-4.01zm0 0"/></symbol><symbol overflow="visible" id="631bb9fdu"><path d="M2.3-.58c0-.6-.36-.9-.78-.9a.8.8 0 00-.8.82c0 .33.19.6.44.75l.18.1c-.12.53-.28.92-.62 1.72h.72c.6-1.2.86-1.99.86-2.49zm0 0"/></symbol><symbol overflow="visible" id="631bb9fdv"><path d="M11.6-9.9L9.37-1.78 6.98-9.9H5.9L3.67-1.78 1.34-9.91H.17L3.11 0h1.14l2.17-8.23L8.8 0h1.12l2.81-9.9zm0 0"/></symbol><symbol overflow="visible" id="631bb9fdw"><path d="M8.27 0L4.9-5.22 8-9.9H6.68L4.2-5.97 1.7-9.9H.34l3.1 4.77L.08 0h1.34l2.7-4.33L6.95 0zm0 0"/></symbol><symbol overflow="visible" id="631bb9fdx"><path d="M66.88-17.44h-.96C56.8-7.84 50.23-1.28 39.52-1.28H27.2V-53.6h18.88c3.36 0 6.56 0 15.05 9.28h.95v-20h-.95c-8.49 9.44-11.7 9.44-15.05 9.44H27.2v-56.33h9.28c4.32 0 15.2 8 23.83 14.56h.97l-3.51-15.84H3.2v.64c5.6 5.76 9.28 9.6 9.28 15.53v80.15c0 5.93-3.68 9.75-9.28 15.52V0h59.36zm0 0"/></symbol><symbol overflow="visible" id="631bb9fdy"><path d="M42.56-49.44L63.2-15.69C67.7-8.3 66.72-3.84 64-.64V0h30.72v-.64c-6.56-3.84-9.28-6.88-15.52-17.28L51.7-63.52l22.08-30.71c4.95-6.9 11.18-14.72 18.71-17.61v-.64h-24v.64c4 2.07 6.72 4.8 6.72 8.48 0 3.84-2.08 7.84-4.97 11.84L50.87-64.64 31.52-96.8c-4.47-7.51-3.52-11.84-.8-15.04v-.64H0v.64c6.56 3.84 9.28 6.89 15.52 17.28l26.25 43.69-23.2 32.64C13.76-11.36 7.51-3.52 0-.64V0h24v-.64c-4-2.08-6.72-4.31-6.72-8.95 0-4 2.08-7.36 4.95-11.36zm0 0"/></symbol><symbol overflow="visible" id="631bb9fdz"><path d="M9.28-111.84c2.56 7.68 2.56 13.6 2.56 24.8v61.6c0 11.2 0 17.13-2.56 24.8V0h18.24v-.64c-2.57-7.67-2.57-13.6-2.57-24.8v-5.76h34.57c39.35 0 69.28-10.24 69.28-40.64s-29.93-40.64-69.28-40.64H9.28zm50.24.32c35.04 0 56.17 12.47 56.17 39.68 0 27.84-21.13 39.68-56.17 39.68H24.95v-79.36zm0 0"/></symbol><symbol overflow="visible" id="631bb9fdA"><path d="M65.92-17.44C56.8-7.84 50.41-1.28 39.52-1.28H27.2v-95.03c0-5.92 3.36-9.77 8.64-15.53v-.64H3.2v.64c5.6 5.76 9.28 9.6 9.28 15.53v80.15c0 5.93-3.68 9.75-9.28 15.52V0h59.36l4.31-17.44zm0 0"/></symbol><symbol overflow="visible" id="631bb9fdB"><path d="M80 2.4c44.16 0 71.69-24.32 71.69-58.4 0-37.92-31.05-58.88-71.85-58.88C35.7-114.88 8-91.2 8-56.48 8-18.08 37.28 2.4 80 2.4zM23.84-58.55c0-29.92 16.8-54.56 55.85-54.56 36.15 0 56.15 24 56.15 59.2C135.84-24.48 120 .64 80 .64c-37.6 0-56.16-23.36-56.16-59.2zm0 0"/></symbol><symbol overflow="visible" id="631bb9fdC"><path d="M79.84-16.16c-7.04-12.32-15.36-16-30.72-16h-2.56c23.2-3.84 37.6-19.53 37.6-40.97 0-23.03-13.93-39.35-49.93-39.35H3.2v.64c5.6 5.76 9.28 9.6 9.28 15.53v80.15c0 5.93-3.68 9.75-9.28 15.52V0h32.64v-.64c-5.28-5.77-8.64-9.6-8.64-15.52V-32.8c2.24 1.11 7.03 1.6 10.57 1.6 9.59 0 13.75-.16 23.18 13.43l4.97 7.2C72.8-.63 81.6 3.7 94.23 0v-.64c-5.28-.8-7.36-3.2-9.92-7.67zm-45.6-95.04c26.88 0 34.24 21.12 34.24 38.72 0 21.6-5.6 40-31.53 40-3.18 0-6.87-.32-9.75-1.6v-77.12zm0 0"/></symbol><symbol overflow="visible" id="631bb9fdD"><path d="M36.48-111.2c4.32 0 14.57 8.33 23.83 14.56h.97l-3.51-15.84H3.2v.64c5.6 5.76 9.28 9.6 9.28 15.53v80.15c0 5.93-3.68 9.75-9.28 15.52V0H60l5.92-20.64h-.97c-9.1 9.6-18.54 19.36-28 19.36H27.2V-53.6h13.44c3.36 0 6.56 0 15.05 9.28h.95v-20h-.95C47.2-54.87 44-54.87 40.64-54.87H27.2v-56.33zm0 0"/></symbol><symbol overflow="visible" id="631bb9fdE"><path d="M37.28-64.64c-5.76-9.6-13.6-20.64-13.6-31.84 0-9.93 4.32-16.64 13.45-16.64 8.64 0 14.87 9.12 21.74 19.2h.97v-17.92c-4.32-1.28-13.28-2.57-19.53-2.57-18.23 0-28.62 11.7-28.62 28 0 11.53 5.6 19.05 11.03 28l11.84 19.36c4 6.4 7.2 11.7 7.2 20.97C41.77-8.16 36.8.64 26.57.64c-8.8 0-15.36-9.6-22.4-20l-.96.16v16C8.8-.16 18.56 1.92 25.92 1.92c20.16 0 29.6-9.92 29.6-26.23 0-10.57-4.65-18.1-10.08-26.9zm0 0"/></symbol><symbol overflow="visible" id="631bb9fdF"><path d="M100.16-88.95c5.28-11.36 8.8-17.28 14.56-22.9v-.63H97.28v.64c3.03 3.2 5.13 6.25 5.13 10.56 0 3.2-.82 6.23-3.2 11.36l-12 25.44L72-95.52c-4-8.32-5.13-12-5.13-15.68v-1.28H48.31v.64c3.38 4 4.49 6.25 9.92 17.28l21.93 45.12-16.32 35.2L24-95.51c-2.08-4.32-3.2-7.36-3.2-10.71 0-2.41.48-3.85.97-5.13v-1.12H.3v.64c3.38 4 4.49 6.25 9.92 17.28l46.9 96.48h.64l23.18-49.76 24.17 49.76h.65l42.39-90.87c5.28-11.36 8.8-17.28 14.56-22.9v-.63h-17.44v.64c3.03 3.2 5.13 6.25 5.13 10.56 0 3.05-1.28 6.87-3.05 10.72l-35.52 76.33L88-62.87zm0 0"/></symbol><symbol overflow="visible" id="631bb9fdG"><path d="M27.2-96.31c0-5.92 3.36-9.77 8.64-15.53v-.64H3.2v.64c5.6 5.76 9.28 9.6 9.28 15.53v80.15c0 5.93-3.68 9.75-9.28 15.52V0h32.64v-.64c-5.28-5.77-8.64-9.6-8.64-15.52zm0 0"/></symbol><symbol overflow="visible" id="631bb9fdH"><path d="M3.2-111.84c5.6 5.76 9.28 9.6 9.28 15.53v80.15c0 5.93-3.68 9.75-9.28 15.52V0H148c41.6 0 63.05-24.31 63.05-57.13 0-31.18-21.46-55.35-63.05-55.35H3.2zm24 .64h118.24c36 0 49.92 26.25 49.92 54.72 0 28.48-13.92 55.2-49.92 55.2H27.2zm0 0"/></symbol><symbol overflow="visible" id="631bb9fdI"><path d="M1.6-112.48v18.25l.63.15c9.13-9.76 16.18-17.12 28.49-17.12h52.8v95.04c0 5.93-3.68 9.75-9.29 15.52V0h32.64v-.64c-5.28-5.77-8.64-9.6-8.64-15.52v-95.04h52.97c12.32 0 19.36 7.36 28.49 17.12l.62-.15v-18.25zm0 0"/></symbol><symbol overflow="visible" id="631bb9fdJ"><path d="M98.72-96.31c0-5.92 3.36-9.77 8.64-15.53v-.64H74.72v.64c5.6 5.76 9.28 9.6 9.28 15.53v41.6H27.2v-41.6c0-5.92 3.36-9.77 8.64-15.53v-.64H3.2v.64c5.6 5.76 9.28 9.6 9.28 15.53v80.15c0 5.93-3.68 9.75-9.28 15.52V0h32.64v-.64c-5.28-5.77-8.64-9.6-8.64-15.52v-37.28H84v37.28c0 5.93-3.69 9.75-9.28 15.52V0h32.64v-.64c-5.28-5.77-8.64-9.6-8.64-15.52zm0 0"/></symbol><symbol overflow="visible" id="631bb9fdK"><path d="M17.92-92.16c0-11.68 7.85-20.97 19.36-20.97 6.56 0 10.08 2.9 14.24 6.72 3.04 2.72 9.12 8.33 13.6 12.49h.96l-3.03-17.6c-7.53-2.25-14.9-2.89-23.85-2.89-20 0-32.8 10.72-32.8 29.61 0 12.64 7.04 21.6 16.96 28.64l18.72 13.44c8.8 6.24 13.28 11.67 13.28 21.13C55.36-9.6 47.84.64 36.3.64c-5.75 0-11.67-3.36-18.72-9.12-4-3.36-8.46-7.52-13.28-12.47l-.95.15 2.4 17.6c8 3.51 20.47 5.12 28.8 5.12C54.56 1.92 68-9.77 68-27.84c0-14.88-8.48-21.29-19.52-29.44L30.56-70.72c-7.51-5.6-12.64-11.05-12.64-21.44zm0 0"/></symbol><symbol overflow="visible" id="631bb9fdL"><path d="M58.23-53.44l14.25 38.72c3.04 8.16 0 11.36-3.53 14.08V0h29.46v-.64c-3.85-2.4-7.53-8.31-9.46-13.28l-36.8-98.56h-.63c-1.29 6.25-5.93 10.71-9.75 14.07L12.8-16.48C10.87-11.05 7.36-3.68.8-.64V0h20v-.64c-6.72-1.6-8.49-4-8.49-7.84 0-3.68 2.25-8.96 4-13.75l11.05-31.2zM42.41-96.48l15.36 41.76H27.84zm0 0"/></symbol><symbol overflow="visible" id="631bb9fdM"><path d="M187.05-93.44c0-11.69 1.6-16.64 10.72-18.4v-.64h-22.9v.64c8.82 1.6 10.41 6.72 10.41 18.4v76.49L31.52-112.48H1.59v.64c3.85.8 8.49 2.25 10.57 4.64v88.15c0 11.7-1.6 16.82-10.4 18.4V0h22.88v-.64c-9.12-1.77-10.72-6.72-10.72-18.4v-86.4L185.6 1.92l1.46-.33zm0 0"/></symbol><symbol overflow="visible" id="631bb9fdN"><path d="M3.2-111.84c5.6 5.76 9.28 9.6 9.28 15.53v80.15c0 5.93-3.68 9.75-9.28 15.52V0h56.32c51.2 0 72.64-22.72 72.64-57.13 0-32.8-21.44-55.35-72.64-55.35H3.2zm24 110.56V-111.2h29.75c45.61 0 59.53 26.25 59.53 54.72 0 28.48-13.92 55.2-59.53 55.2zm0 0"/></symbol><symbol overflow="visible" id="631bb9fdP"><path d="M100.16-88.95c5.28-11.36 8.8-17.28 14.56-22.9v-.63H97.28v.64c3.03 3.2 5.13 6.25 5.13 10.56 0 3.2-.82 6.23-3.2 11.36l-12 25.44L72-95.52c-4-8.32-5.13-12-5.13-15.68v-1.28H48.31v.64c3.38 4 4.49 6.25 9.92 17.28l21.93 45.12-16.32 35.2L24-95.51c-2.08-4.32-3.2-7.36-3.2-10.71 0-2.41.48-3.85.97-5.13v-1.12H.3v.64c3.38 4 4.49 6.25 9.92 17.28l46.9 96.48h.64l23.18-49.76 24.17 49.76h.65l42.39-90.87c5.28-11.36 8.8-17.28 14.56-22.9v-.63h-17.44v.64c3.03 3.2 5.13 6.25 5.13 10.56 0 3.05-1.28 6.87-3.05 10.72l-35.52 76.33L88-62.87zm0 0"/></symbol><symbol overflow="visible" id="631bb9fdQ"><path d="M66.88-17.44h-.96C56.8-7.84 50.23-1.28 39.52-1.28H27.2V-53.6h18.88c3.36 0 6.56 0 15.05 9.28h.95v-20h-.95c-8.49 9.44-11.7 9.44-15.05 9.44H27.2v-56.33h9.28c4.32 0 15.2 8 23.83 14.56h.97l-3.51-15.84H3.2v.64c5.6 5.76 9.28 9.6 9.28 15.53v80.15c0 5.93-3.68 9.75-9.28 15.52V0h59.36zm0 0"/></symbol><symbol overflow="visible" id="631bb9fdR"><path d="M27.2-96.31c0-5.92 3.36-9.77 8.64-15.53v-.64H3.2v.64c5.6 5.76 9.28 9.6 9.28 15.53v80.15c0 5.93-3.68 9.75-9.28 15.52V0h32.64v-.64c-5.28-5.77-8.64-9.6-8.64-15.52zm0 0"/></symbol><symbol overflow="visible" id="631bb9fdS"><path d="M100.95-55.05h-21.9v.64c6.08 3.36 7.36 9.46 7.36 16.97v24.49C86.4-3.85 81.59.3 66.4.3c-34.9 0-45.46-29.6-45.46-56.8 0-27.2 11.36-56.63 43.2-56.63 13.13 0 24.16 7.84 39.05 22.56h.96l-6.4-19.67c-11.04-3.2-20.8-4.18-31.84-4.18-38.72 0-60.64 24.97-60.64 57.93 0 32.17 20.64 58.07 60.95 58.07 7.54 0 25.29-1.43 34.72-5.75zm0 0"/></symbol><symbol overflow="visible" id="631bb9fdT"><path d="M98.72-96.31c0-5.92 3.36-9.77 8.64-15.53v-.64H74.72v.64c5.6 5.76 9.28 9.6 9.28 15.53v41.6H27.2v-41.6c0-5.92 3.36-9.77 8.64-15.53v-.64H3.2v.64c5.6 5.76 9.28 9.6 9.28 15.53v80.15c0 5.93-3.68 9.75-9.28 15.52V0h32.64v-.64c-5.28-5.77-8.64-9.6-8.64-15.52v-37.28H84v37.28c0 5.93-3.69 9.75-9.28 15.52V0h32.64v-.64c-5.28-5.77-8.64-9.6-8.64-15.52zm0 0"/></symbol><symbol overflow="visible" id="631bb9fdU"><path d="M1.6-112.48v18.25l.63.15c9.13-9.76 16.18-17.12 28.49-17.12h3.69v95.04c0 5.93-3.7 9.75-9.28 15.52V0h32.64v-.64c-5.29-5.77-8.65-9.6-8.65-15.52v-95.04h3.68c12.33 0 19.36 7.36 28.48 17.12l.64-.15v-18.25zm0 0"/></symbol><symbol overflow="visible" id="631bb9fdV"><path d="M17.92-92.16c0-11.68 7.85-20.97 19.36-20.97 6.56 0 10.08 2.9 14.24 6.72 3.04 2.72 9.12 8.33 13.6 12.49h.96l-3.03-17.6c-7.53-2.25-14.9-2.89-23.85-2.89-20 0-32.8 10.72-32.8 29.61 0 12.64 7.04 21.6 16.96 28.64l18.72 13.44c8.8 6.24 13.28 11.67 13.28 21.13C55.36-9.6 47.84.64 36.3.64c-5.75 0-11.67-3.36-18.72-9.12-4-3.36-8.46-7.52-13.28-12.47l-.95.15 2.4 17.6c8 3.51 20.47 5.12 28.8 5.12C54.56 1.92 68-9.77 68-27.84c0-14.88-8.48-21.29-19.52-29.44L30.56-70.72c-7.51-5.6-12.64-11.05-12.64-21.44zm0 0"/></symbol></defs><path fill="#fdfaf5" d="M0 0h1366v768H0z"/><g fill="#1a26cd"><use xlink:href="#631bb9fda" x="77" y="727.9854"/><use xlink:href="#631bb9fdb" x="81.007801" y="727.9854"/><use xlink:href="#631bb9fdc" x="89.269615" y="727.9854"/><use xlink:href="#631bb9fdd" x="98.379496" y="727.9854"/><use xlink:href="#631bb9fda" x="105.847957" y="727.9854"/><use xlink:href="#631bb9fdc" x="109.855757" y="727.9854"/><use xlink:href="#631bb9fde" x="118.965638" y="727.9854"/><use xlink:href="#631bb9fdf" x="129.443369" y="727.9854"/><use xlink:href="#631bb9fdg" x="133.122886" y="727.9854"/><use xlink:href="#631bb9fdh" x="142.602086" y="727.9854"/><use xlink:href="#631bb9fdd" x="152.929354" y="727.9854"/><use xlink:href="#631bb9fdi" x="160.397815" y="727.9854"/><use xlink:href="#631bb9fdf" x="170.314727" y="727.9854"/><use xlink:href="#631bb9fdf" x="173.994244" y="727.9854"/></g><use xlink:href="#631bb9fdj" x="177.67376" y="727.9854" fill="#1a26cd"/><g fill="#1a26cd"><use xlink:href="#631bb9fdf" x="190.121195" y="727.9854"/><use xlink:href="#631bb9fdf" x="193.800712" y="727.9854"/><use xlink:href="#631bb9fdk" x="197.480228" y="727.9854"/><use xlink:href="#631bb9fdl" x="202.705415" y="727.9854"/><use xlink:href="#631bb9fdm" x="211.090336" y="727.9854"/><use xlink:href="#631bb9fdf" x="220.268609" y="727.9854"/><use xlink:href="#631bb9fdn" x="223.948126" y="727.9854"/><use xlink:href="#631bb9fdb" x="232.866508" y="727.9854"/><use xlink:href="#631bb9fdo" x="241.128321" y="727.9854"/></g><g fill="#1a26cd"><use xlink:href="#631bb9fdp" x="999.806324" y="727.9854"/><use xlink:href="#631bb9fdq" x="1008.916205" y="727.9854"/><use xlink:href="#631bb9fdr" x="1017.643088" y="727.9854"/><use xlink:href="#631bb9fdo" x="1027.053896" y="727.9854"/><use xlink:href="#631bb9fda" x="1035.931242" y="727.9854"/><use xlink:href="#631bb9fdh" x="1039.939043" y="727.9854"/><use xlink:href="#631bb9fde" x="1050.26631" y="727.9854"/><use xlink:href="#631bb9fdo" x="1060.744041" y="727.9854"/><use xlink:href="#631bb9fdf" x="1069.621388" y="727.9854"/><use xlink:href="#631bb9fdr" x="1073.300904" y="727.9854"/><use xlink:href="#631bb9fdq" x="1082.711712" y="727.9854"/><use xlink:href="#631bb9fds" x="1091.438596" y="727.9854"/><use xlink:href="#631bb9fdt" x="1101.738506" y="727.9854"/><use xlink:href="#631bb9fdd" x="1112.052095" y="727.9854"/><use xlink:href="#631bb9fdc" x="1119.520556" y="727.9854"/><use xlink:href="#631bb9fdr" x="1128.630437" y="727.9854"/><use xlink:href="#631bb9fdu" x="1138.041245" y="727.9854"/><use xlink:href="#631bb9fdf" x="1141.406156" y="727.9854"/><use xlink:href="#631bb9fdv" x="1145.085673" y="727.9854"/><use xlink:href="#631bb9fda" x="1158.408532" y="727.9854"/><use xlink:href="#631bb9fdi" x="1162.416332" y="727.9854"/><use xlink:href="#631bb9fdq" x="1172.333245" y="727.9854"/><use xlink:href="#631bb9fdf" x="1181.060128" y="727.9854"/><use xlink:href="#631bb9fdc" x="1184.739644" y="727.9854"/><use xlink:href="#631bb9fde" x="1193.849525" y="727.9854"/><use xlink:href="#631bb9fdi" x="1204.327256" y="727.9854"/><use xlink:href="#631bb9fdf" x="1214.244169" y="727.9854"/><use xlink:href="#631bb9fdq" x="1217.923685" y="727.9854"/><use xlink:href="#631bb9fdw" x="1226.650568" y="727.9854"/><use xlink:href="#631bb9fdb" x="1235.350094" y="727.9854"/><use xlink:href="#631bb9fdq" x="1243.611908" y="727.9854"/><use xlink:href="#631bb9fde" x="1252.338791" y="727.9854"/><use xlink:href="#631bb9fdi" x="1262.816522" y="727.9854"/><use xlink:href="#631bb9fdq" x="1272.733435" y="727.9854"/><use xlink:href="#631bb9fdi" x="1281.460318" y="727.9854"/></g><use xlink:href="#631bb9fdx" x="317.04" y="306.8081"/><use xlink:href="#631bb9fdy" x="386.479306" y="306.8081"/><use xlink:href="#631bb9fdz" x="479.278378" y="306.8081"/><use xlink:href="#631bb9fdA" x="607.277098" y="306.8081"/><use xlink:href="#631bb9fdB" x="666.156509" y="306.8081"/><use xlink:href="#631bb9fdC" x="821.354957" y="306.8081"/><use xlink:href="#631bb9fdD" x="917.034" y="306.8081"/><use xlink:href="#631bb9fdE" x="984.553325" y="306.8081"/><use xlink:href="#631bb9fdF" x="295.280218" y="426.8081"/><use xlink:href="#631bb9fdG" x="458.478586" y="426.8081"/><use xlink:href="#631bb9fdH" x="496.878202" y="426.8081"/><use xlink:href="#631bb9fdI" x="706.476106" y="426.8081"/><use xlink:href="#631bb9fdJ" x="889.194278" y="426.8081"/><use xlink:href="#631bb9fdK" x="998.793182" y="426.8081"/><use xlink:href="#631bb9fdL" x="128.5244" y="546.8081"/><use xlink:href="#631bb9fdM" x="227.7244" y="546.8081"/><use xlink:href="#631bb9fdN" x="426.4444" y="546.8081"/><g><use xlink:href="#631bb9fdO" x="563.8844" y="546.8081"/><use xlink:href="#631bb9fdP" x="597.3244" y="546.8081"/><use xlink:href="#631bb9fdQ" x="757.4844" y="546.8081"/><use xlink:href="#631bb9fdR" x="827.7244" y="546.8081"/><use xlink:href="#631bb9fdS" x="866.7644" y="546.8081"/><use xlink:href="#631bb9fdT" x="971.4044" y="546.8081"/></g><g><use xlink:href="#631bb9fdU" x="1081.9644" y="546.8081"/><use xlink:href="#631bb9fdV" x="1165.4844" y="546.8081"/></g></svg>