<?xml version="1.0" encoding="UTF-8"?><svg id="Layer_1" xmlns="http://www.w3.org/2000/svg" viewBox="0 0 1366 768"><defs><style>.cls-1{fill:#fdfaf5;}.cls-2{fill:#12100b;}</style></defs><rect class="cls-2" width="1366" height="768"/><g><path class="cls-1" d="M584.02,578.47v32.5h-182.48v-32.5l53.22-5.85-44.24-104.65H205.93l-40.09,104.65,58.75,5.85v32.5H73.91v-32.5l50.46-5.85L290.26,141.03h55.3l190.08,431.6,48.38,5.85Zm-192.16-154.05l-89.86-208.65-79.49,208.65h169.35Z"/><path class="cls-1" d="M743.48,179.38v393.25l49.77,5.85v32.5h-175.57v-32.5l53.22-5.85h1.38V179.38l-53.22-5.85v-32.5h174.88v32.5l-50.46,5.85Z"/><path class="cls-1" d="M1287.31,580.42l-19.35,30.55c-117.51-46.15-192.16-122.85-241.23-210.6h-68.43v172.25l58.06,5.85v32.5h-182.48v-32.5l53.22-5.85V179.38l-52.53-5.85v-32.5h216.35c116.81,0,186.63,45.5,186.63,126.75,0,68.9-55.99,110.5-127.87,125.45,39.4,76.7,93.31,133.9,177.64,187.2Zm-257.13-218.4c82.94,0,129.26-31.2,129.26-94.25,0-59.8-54.61-87.75-132.71-87.75-12.44,0-43.55,0-68.43-.65v182.65h71.89Z"/></g><g><path class="cls-1" d="M88.46,724.72c0,2.72-2.21,4.9-4.93,4.9s-4.9-2.19-4.9-4.9,2.19-4.93,4.9-4.93,4.93,2.21,4.93,4.93Zm-.83,0c0-2.26-1.85-4.1-4.1-4.1s-4.08,1.85-4.08,4.1,1.82,4.08,4.08,4.08,4.1-1.82,4.1-4.08Zm-1.02,.04c0,1.68-1.29,3.04-3.08,3.04s-3.08-1.36-3.08-3.04h.49c.31,1.5,1.33,2.23,2.59,2.23s2.28-.73,2.59-2.23h.49Zm-4.8-1.68c0-.55,.18-.97,.52-.97s.48,.42,.48,.97-.15,.99-.48,.99-.52-.45-.52-.99Zm2.45,0c0-.55,.15-.97,.48-.97s.52,.42,.52,.97-.18,.99-.52,.99-.48-.45-.48-.99Z"/><path class="cls-1" d="M97.74,725.3h-2.06v4.16h-1.19v-9.51h3.91c2.17,0,3.17,1.01,3.17,2.62,0,1.43-.78,2.4-2.55,2.61l3.07,4.29h-1.33l-3.01-4.16Zm-2.06-.99h2.58c1.39,0,2.12-.63,2.12-1.74s-.76-1.62-2.14-1.62h-2.55v3.36Z"/><path class="cls-1" d="M105.13,720.95v3.14h4.8v1h-4.8v3.36h5.39v1.01h-6.57v-9.51h6.57v1.01h-5.39Z"/><path class="cls-1" d="M118.41,726.84h-4.19l-.99,2.62h-1.26l3.75-9.51h1.27l3.63,9.51h-1.26l-.95-2.62Zm-.36-1l-1.7-4.68-1.76,4.68h3.46Z"/><path class="cls-1" d="M130.06,724.71c0,2.93-1.92,4.75-4.62,4.75h-3.05v-9.51h3.05c2.7,0,4.62,1.82,4.62,4.76Zm-1.19,0c0-2.38-1.33-3.77-3.61-3.77h-1.69v7.52h1.69c2.26,0,3.61-1.39,3.61-3.75Z"/><path class="cls-1" d="M133.55,720.95v3.14h4.8v1h-4.8v3.36h5.39v1.01h-6.57v-9.51h6.57v1.01h-5.39Z"/><path class="cls-1" d="M144.25,725.3h-2.06v4.16h-1.19v-9.51h3.91c2.17,0,3.17,1.01,3.17,2.62,0,1.43-.78,2.4-2.55,2.61l3.07,4.29h-1.33l-3.01-4.16Zm-2.06-.99h2.58c1.39,0,2.12-.63,2.12-1.74s-.76-1.62-2.14-1.62h-2.55v3.36Z"/><path class="cls-1" d="M157.65,725.3h-2.06v4.16h-1.19v-9.51h3.91c2.17,0,3.17,1.01,3.17,2.62,0,1.43-.78,2.4-2.55,2.61l3.07,4.29h-1.33l-3.01-4.16Zm-2.06-.99h2.58c1.39,0,2.12-.63,2.12-1.74s-.76-1.62-2.14-1.62h-2.55v3.36Z"/><path class="cls-1" d="M163.21,724.71c0-2.94,1.81-4.93,4.43-4.93s4.43,1.99,4.43,4.93-1.81,4.92-4.43,4.92-4.43-1.99-4.43-4.92Zm7.66,0c0-2.44-1.27-3.94-3.24-3.94s-3.24,1.5-3.24,3.94,1.27,3.92,3.24,3.92,3.24-1.5,3.24-3.92Z"/><path class="cls-1" d="M183.96,719.95v9.51h-1.19v-8.47l-3.22,8.47h-.77l-3.26-8.49v8.49h-1.19v-9.51h1.93l2.9,7.63,2.9-7.63h1.9Z"/><path class="cls-1" d="M192.13,726.84h-4.19l-.99,2.62h-1.26l3.75-9.51h1.27l3.63,9.51h-1.26l-.95-2.62Zm-.36-1l-1.7-4.68-1.76,4.68h3.46Z"/><path class="cls-1" d="M203.91,719.95v9.51h-1.79l-4.89-8.56v8.56h-1.12v-9.51h1.79l4.9,8.56v-8.56h1.11Z"/></g><g><path class="cls-1" d="M1225.49,724.72c0,2.72-2.21,4.9-4.93,4.9s-4.9-2.19-4.9-4.9,2.18-4.93,4.9-4.93,4.93,2.21,4.93,4.93Zm-.83,0c0-2.26-1.85-4.1-4.1-4.1s-4.08,1.85-4.08,4.1,1.82,4.08,4.08,4.08,4.1-1.82,4.1-4.08Zm-1.02,.04c0,1.68-1.29,3.04-3.08,3.04s-3.08-1.36-3.08-3.04h.49c.31,1.5,1.33,2.23,2.59,2.23s2.28-.73,2.59-2.23h.49Zm-4.8-1.68c0-.55,.18-.97,.52-.97s.48,.42,.48,.97-.15,.99-.48,.99-.52-.45-.52-.99Zm2.45,0c0-.55,.15-.97,.48-.97s.52,.42,.52,.97-.18,.99-.52,.99-.48-.45-.48-.99Z"/><path class="cls-1" d="M1237.77,726.36c0,1.95-1.32,3.26-3.29,3.26-2.73,0-3.52-2.42-3.52-5,0-3.39,1.75-4.85,3.66-4.85,1.78,0,2.75,.88,3,2.44h-1.19c-.2-.92-.77-1.43-1.81-1.43-1.6,0-2.49,1.5-2.49,3.56v.2c.46-.85,1.3-1.33,2.47-1.33,2,0,3.18,1.37,3.18,3.15Zm-1.16,0c0-1.12-.69-2.14-2.09-2.14s-2.19,1.02-2.19,2.14,.79,2.25,2.19,2.25,2.09-1.13,2.09-2.25Z"/><path class="cls-1" d="M1246.22,726.42c0,1.68-1.12,3.21-3.31,3.21-1.98,0-3.36-1.18-3.36-2.91h1.19c.06,1.16,.88,1.92,2.18,1.92s2.12-.98,2.12-2.24-.74-2.17-2.13-2.17c-.84,0-1.43,.35-1.76,.94h-1.37l.36-5.21h5.6v.98h-4.64l-.21,3.21c.48-.59,1.26-.95,2.23-.95,1.93,0,3.1,1.42,3.1,3.24Z"/><path class="cls-1" d="M1247.87,724.72c0-2.87,1.4-4.95,3.8-4.95s3.8,2.07,3.8,4.95-1.4,4.9-3.8,4.9-3.8-2.03-3.8-4.9Zm6.43,0c0-2.38-.92-3.91-2.63-3.91s-2.63,1.53-2.63,3.91,.92,3.87,2.63,3.87,2.63-1.49,2.63-3.87Z"/><path class="cls-1" d="M1268.66,722.59c0,1.57-1.08,2.7-3.25,2.7h-2.63v4.16h-1.19v-9.51h3.92c2.17,0,3.15,1.01,3.15,2.65Zm-1.19,0c0-1.07-.66-1.65-2.16-1.65h-2.54v3.36h2.54c1.5,0,2.16-.69,2.16-1.71Z"/><path class="cls-1" d="M1277.35,720.93h-3.15v8.53h-1.18v-8.53h-3.17v-.98h7.49v.98Z"/><path class="cls-1" d="M1278.43,726.63h1.25c.18,1.34,1.18,2,2.72,2,1.62,0,2.38-.71,2.38-1.64,0-.84-.56-1.33-1.67-1.58l-2.21-.49c-1.4-.31-2.16-1.16-2.16-2.41,0-1.54,1.3-2.73,3.4-2.73s3.52,.88,3.73,2.83h-1.25c-.18-1.26-1.11-1.83-2.51-1.83s-2.13,.7-2.13,1.6c0,.69,.35,1.16,1.44,1.42l2.14,.49c1.54,.35,2.45,1.19,2.45,2.55,0,1.67-1.3,2.8-3.63,2.8-2.49,0-3.77-1.08-3.96-3Z"/></g></svg>