<?xml version='1.0' encoding='UTF-8'?>
<svg xmlns="http://www.w3.org/2000/svg" xmlns:xlink="http://www.w3.org/1999/xlink" width="1366px" height="768px" viewBox="0 0 1366 768" x="0px" y="0px" enable-background="new 0 0 1366 768"><defs><symbol overflow="visible" id="8d00031da"><path d="M5.53-9.66a4.9 4.9 0 100 9.82 4.9 4.9 0 000-9.82zm0 9a4.08 4.08 0 110-8.16 4.08 4.08 0 010 8.16zm-1.2-4.71c.31 0 .47-.46.47-1 0-.55-.16-.97-.47-.97-.35 0-.52.42-.52.96 0 .55.17 1 .52 1zm2.4 0c.33 0 .52-.46.52-1 0-.55-.19-.97-.52-.97-.32 0-.46.42-.46.96 0 .55.14 1 .46 1zm1.4.68c-.32 1.5-1.33 2.22-2.6 2.22-1.26 0-2.28-.72-2.6-2.22h-.48a3 3 0 003.08 3.03 3 3 0 003.08-3.03zm0 0"/></symbol><symbol overflow="visible" id="8d00031dc"><path d="M2.47-9.5H1.28V0h1.19zm0 0"/></symbol><symbol overflow="visible" id="8d00031dd"><path d="M7.8-9.5H.3v.97h3.16V0h1.17v-8.53H7.8zm0 0"/></symbol><symbol overflow="visible" id="8d00031de"><path d="M7.52 0h1.26L5.16-9.5H3.87L.13 0H1.4l.99-2.63h4.18zM2.75-3.6l1.77-4.68L6.2-3.61zm0 0"/></symbol><symbol overflow="visible" id="8d00031df"><path d="M2.48-1.02V-9.5h-1.2V0h5.78v-1.02zm0 0"/></symbol><symbol overflow="visible" id="8d00031dg"><path d="M5.1.17c2.46 0 3.63-1.19 4.06-3.2H7.9c-.38 1.58-1.3 2.2-2.82 2.2-1.8 0-3.21-1.53-3.21-3.92 0-2.4 1.42-3.94 3.21-3.94 1.57 0 2.47.67 2.8 2.22h1.25c-.37-1.92-1.53-3.2-4.05-3.2C2.42-9.67.7-7.61.7-4.75.69-1.87 2.44.17 5.09.17zm0 0"/></symbol><symbol overflow="visible" id="8d00031dh"><path d="M7.55 0h1.33L5.8-4.28C7.58-4.5 8.36-5.45 8.36-6.9c0-1.61-1-2.61-3.17-2.61h-3.9V0h1.2v-4.16h2.04zM2.48-8.52h2.55c1.38 0 2.14.54 2.14 1.63 0 1.1-.73 1.73-2.12 1.73H2.48zm0 0"/></symbol><symbol overflow="visible" id="8d00031di"><path d="M7.86-8.5v-1H1.28V0h6.58v-1.02h-5.4v-3.35h4.8v-.99h-4.8V-8.5zm0 0"/></symbol><symbol overflow="visible" id="8d00031dj"><path d="M4.9-4.92v.98h3.3C8.2-2.04 7.05-.83 5.16-.83c-1.99 0-3.29-1.44-3.29-3.92 0-2.44 1.33-3.94 3.24-3.94 1.48 0 2.31.63 2.75 1.75H9.1c-.56-1.89-2.02-2.73-3.98-2.73C2.46-9.67.68-7.66.68-4.75.69-1.81 2.49.17 5.16.17 6.8.17 7.8-.6 8.28-1.73V0h1.06l.02-4.92zm0 0"/></symbol><symbol overflow="visible" id="8d00031dk"><path d="M9.03-9.5H7.86v5.86C7.86-1.8 6.7-.87 5.12-.87c-1.67 0-2.76-.96-2.76-2.83v-5.8H1.17v5.8C1.17-1.14 2.72.17 5.11.17c2.39 0 3.92-1.3 3.92-3.87zm0 0"/></symbol><symbol overflow="visible" id="8d00031dl"><path d="M6.52-4.94A2.17 2.17 0 008.22-7c0-1.56-1-2.5-3.17-2.5H1.28V0h3.99c2.4 0 3.39-1.03 3.39-2.7 0-1.22-.85-2.07-2.14-2.24zM4.75-8.52c1.38 0 2.28.38 2.28 1.52 0 1.05-.76 1.66-2.1 1.66H2.48v-3.18zM5.03-1H2.47v-3.36h2.58c1.45 0 2.42.4 2.42 1.66C7.47-1.37 6.5-1 5.03-1zm0 0"/></symbol><symbol overflow="visible" id="8d00031dm"><path d="M5.1.17c2.63 0 4.43-1.98 4.43-4.92s-1.8-4.92-4.42-4.92C2.48-9.67.69-7.7.69-4.75S2.49.17 5.1.17zm0-1c-1.94 0-3.22-1.5-3.22-3.92 0-2.44 1.28-3.94 3.23-3.94s3.23 1.5 3.23 3.94c0 2.42-1.28 3.92-3.23 3.92zm0 0"/></symbol><symbol overflow="visible" id="8d00031dn"><path d="M4.34-9.5H1.28V0h3.06c2.7 0 4.61-1.81 4.61-4.75S7.05-9.5 4.35-9.5zM4.16-1h-1.7v-7.52h1.7c2.28 0 3.6 1.4 3.6 3.77C7.77-2.37 6.42-1 4.17-1zm0 0"/></symbol></defs><path fill="#f7b3ca" d="M0 0h1366v768H0z"/><path d="M215.53 507.08c69.25-10.42 133.29-75.2 133.29-129.56 0-20.85-9.69-34.25-31.28-34.25-37.23 0-73.72 54.35-94.57 121.37zm199.56 151.16l-67.02 11.91c-29.78-43.19-71.48-100.52-110.2-154.88l1.49-.74c-8.2 1.49-17.13 2.23-26.07 2.98l-25.31 140.73H129.9l78.92-435.6 6.7-43.2-57.33-24.56.75-9.68 120.63-20.1 4.46 5.2-15.64 81.91-34.25 189.88c29.04-55.85 67.02-90.84 114.68-90.84 39.46 0 61.8 24.57 61.8 62.55 0 55.84-40.96 102.75-110.95 126.58 37.23 55.1 74.46 107.97 115.42 157.86M708.38 384.22l-67.76 55.85 163.82 218.17h-79.67c0-8.2-3.73-15.64-11.18-25.32L595.95 475.06 566.9 498.9v139.24l52.12 2.24v17.87H451.49v-17.87l52.12-2.24V199.55c-13.4-21.59-23.08-32.76-42.44-49.14l.74-8.94 96.8-34.25 8.2 5.21v367.85l104.98-84.89c11.92-9.68 27.56-25.32 27.56-39.47 0-10.42-5.96-20.1-13.4-26.06v-6.7h122.11v14.15c-28.3 1.49-63.3 19.36-99.78 46.9M1238.77 658.24h-130.3c0-8.19-3.73-15.64-11.17-25.32L994.54 488.47l-14.9 11.17v139.24l41.7 2.23v17.13h-185.4V641.1l41.7-2.23V192.57c0-11.92-13.41-41.7-31.28-55.85l1.49-7.45L964.75 98l14.9 13.4v368.87l109.46-83.4c10.42-9.67 15.63-18.6 15.63-33.5 0-11.91-5.95-28.3-13.4-35.74v-4.47h137v14.15c-25.3 1.49-57.33 15.64-90.09 39.46l-64.04 50.64zm0 0" fill="#12100b"/><use xlink:href="#8d00031da" x="241.4028" y="713.4561" fill="#12100b"/><g fill="#12100b"><use xlink:href="#8d00031db" x="252.8408" y="713.4561"/><use xlink:href="#8d00031dc" x="256.6068" y="713.4561"/></g><use xlink:href="#8d00031dd" x="260.5646" y="713.4561" fill="#12100b"/><use xlink:href="#8d00031de" x="267.888" y="713.4561" fill="#12100b"/><g fill="#12100b"><use xlink:href="#8d00031df" x="277.1448" y="713.4561"/><use xlink:href="#8d00031dc" x="284.6908" y="713.4561"/><use xlink:href="#8d00031dg" x="288.6948" y="713.4561"/></g><use xlink:href="#8d00031da" x="586.4048" y="713.4561" fill="#12100b"/><g fill="#12100b"><use xlink:href="#8d00031db" x="597.8428" y="713.4561"/><use xlink:href="#8d00031dh" x="601.6088" y="713.4561"/></g><g fill="#12100b"><use xlink:href="#8d00031di" x="611.07" y="713.4561"/><use xlink:href="#8d00031dj" x="619.666" y="713.4561"/></g><use xlink:href="#8d00031dk" x="630.1464" y="713.4561" fill="#12100b"/><use xlink:href="#8d00031df" x="640.5946" y="713.4561" fill="#12100b"/><use xlink:href="#8d00031de" x="648.7272" y="713.4561" fill="#12100b"/><use xlink:href="#8d00031dh" x="657.9854" y="713.4561" fill="#12100b"/><use xlink:href="#8d00031da" x="1015.4068" y="713.4561" fill="#12100b"/><g fill="#12100b"><use xlink:href="#8d00031db" x="1026.8448" y="713.4561"/><use xlink:href="#8d00031dl" x="1030.6108" y="713.4561"/><use xlink:href="#8d00031dm" x="1040.2148" y="713.4561"/></g><g fill="#12100b"><use xlink:href="#8d00031df" x="1050.719" y="713.4561"/><use xlink:href="#8d00031dn" x="1058.265" y="713.4561"/></g></svg>