<?xml version="1.0" encoding="UTF-8"?><svg id="Layer_1" xmlns="http://www.w3.org/2000/svg" xmlns:xlink="http://www.w3.org/1999/xlink" viewBox="0 0 1366 768"><defs><style>.cls-1{clip-path:url(#clippath);}.cls-2{fill:#e6e6e6;}.cls-3{fill:#12100b;}</style><clipPath id="clippath"><rect class="cls-2" width="1366" height="768"/></clipPath></defs><g><rect class="cls-2" width="1366" height="768"/><g class="cls-1"><rect class="cls-2" x="9.51" y="6.58" width="1346.99" height="760.1"/></g></g><g><path class="cls-3" d="M216.46,212.6c0,2.72-2.21,4.9-4.93,4.9s-4.9-2.19-4.9-4.9,2.19-4.93,4.9-4.93,4.93,2.21,4.93,4.93Zm-.83,0c0-2.26-1.85-4.1-4.1-4.1s-4.08,1.85-4.08,4.1,1.82,4.08,4.08,4.08,4.1-1.82,4.1-4.08Zm-1.02,.04c0,1.68-1.29,3.04-3.08,3.04s-3.08-1.36-3.08-3.04h.49c.31,1.5,1.33,2.23,2.59,2.23s2.28-.73,2.59-2.23h.49Zm-4.8-1.68c0-.55,.18-.97,.52-.97s.48,.42,.48,.97-.15,.99-.48,.99-.52-.45-.52-.99Zm2.45,0c0-.55,.15-.97,.48-.97s.52,.42,.52,.97-.18,.99-.52,.99-.48-.45-.48-.99Z"/><path class="cls-3" d="M228.26,216.33v1.01h-5.77v-9.51h1.2v8.5h4.57Z"/><path class="cls-3" d="M231.22,217.34h-1.18v-9.51h1.18v9.51Z"/><path class="cls-3" d="M242.12,212.41v4.93h-1.06v-1.74c-.49,1.13-1.48,1.91-3.14,1.91-2.68,0-4.47-1.99-4.47-4.92s1.78-4.93,4.44-4.93c1.98,0,3.43,.84,3.99,2.73h-1.26c-.43-1.12-1.26-1.74-2.75-1.74-1.91,0-3.24,1.5-3.24,3.94s1.3,3.92,3.28,3.92,3.04-1.22,3.05-3.11h-3.32v-.99h4.47Z"/><path class="cls-3" d="M252.41,207.83v9.51h-1.18v-4.45h-5.45v4.45h-1.18v-9.51h1.18v4.06h5.45v-4.06h1.18Z"/><path class="cls-3" d="M261.73,208.81h-3.15v8.53h-1.18v-8.53h-3.17v-.98h7.49v.98Z"/></g><g><path class="cls-3" d="M217.46,383.6c0,2.72-2.21,4.9-4.93,4.9s-4.9-2.19-4.9-4.9,2.19-4.93,4.9-4.93,4.93,2.21,4.93,4.93Zm-.83,0c0-2.26-1.85-4.1-4.1-4.1s-4.08,1.85-4.08,4.1,1.82,4.08,4.08,4.08,4.1-1.82,4.1-4.08Zm-1.02,.04c0,1.68-1.29,3.04-3.08,3.04s-3.08-1.36-3.08-3.04h.49c.31,1.5,1.33,2.23,2.59,2.23s2.28-.73,2.59-2.23h.49Zm-4.8-1.68c0-.55,.18-.97,.52-.97s.48,.42,.48,.97-.15,.99-.48,.99-.52-.45-.52-.99Zm2.45,0c0-.55,.15-.97,.48-.97s.52,.42,.52,.97-.18,.99-.52,.99-.48-.45-.48-.99Z"/><path class="cls-3" d="M226.74,384.18h-2.06v4.16h-1.19v-9.51h3.91c2.17,0,3.17,1.01,3.17,2.62,0,1.43-.78,2.4-2.55,2.61l3.07,4.29h-1.33l-3.01-4.16Zm-2.06-.99h2.58c1.39,0,2.12-.63,2.12-1.74s-.76-1.62-2.14-1.62h-2.55v3.36Z"/><path class="cls-3" d="M234.13,379.83v3.14h4.8v1h-4.8v3.36h5.39v1.01h-6.57v-9.51h6.57v1.01h-5.39Z"/><path class="cls-3" d="M249.62,383.41v4.93h-1.06v-1.74c-.49,1.13-1.48,1.91-3.14,1.91-2.68,0-4.47-1.99-4.47-4.92s1.78-4.93,4.44-4.93c1.98,0,3.43,.84,3.99,2.73h-1.26c-.43-1.12-1.26-1.74-2.75-1.74-1.91,0-3.24,1.5-3.24,3.94s1.3,3.92,3.28,3.92,3.04-1.22,3.05-3.11h-3.32v-.99h4.47Z"/><path class="cls-3" d="M259.78,384.64c0,2.58-1.53,3.87-3.92,3.87s-3.94-1.3-3.94-3.87v-5.81h1.18v5.81c0,1.86,1.11,2.83,2.77,2.83s2.73-.92,2.73-2.77v-5.87h1.18v5.81Z"/><path class="cls-3" d="M268.25,387.33v1.01h-5.77v-9.51h1.2v8.5h4.57Z"/><path class="cls-3" d="M275.89,385.72h-4.19l-.99,2.62h-1.26l3.75-9.51h1.27l3.63,9.51h-1.26l-.95-2.62Zm-.36-1l-1.7-4.68-1.76,4.68h3.46Z"/><path class="cls-3" d="M283.12,384.18h-2.06v4.16h-1.19v-9.51h3.91c2.17,0,3.17,1.01,3.17,2.62,0,1.43-.78,2.4-2.55,2.61l3.07,4.29h-1.33l-3.01-4.16Zm-2.06-.99h2.58c1.39,0,2.12-.63,2.12-1.74s-.76-1.62-2.14-1.62h-2.55v3.36Z"/></g><g><path class="cls-3" d="M217.46,556.6c0,2.72-2.21,4.9-4.93,4.9s-4.9-2.19-4.9-4.9,2.19-4.93,4.9-4.93,4.93,2.21,4.93,4.93Zm-.83,0c0-2.26-1.85-4.1-4.1-4.1s-4.08,1.85-4.08,4.1,1.82,4.08,4.08,4.08,4.1-1.82,4.1-4.08Zm-1.02,.04c0,1.68-1.29,3.04-3.08,3.04s-3.08-1.36-3.08-3.04h.49c.31,1.5,1.33,2.23,2.59,2.23s2.28-.73,2.59-2.23h.49Zm-4.8-1.68c0-.55,.18-.97,.52-.97s.48,.42,.48,.97-.15,.99-.48,.99-.52-.45-.52-.99Zm2.45,0c0-.55,.15-.97,.48-.97s.52,.42,.52,.97-.18,.99-.52,.99-.48-.45-.48-.99Z"/><path class="cls-3" d="M230.86,558.63c0,1.67-.98,2.7-3.39,2.7h-3.98v-9.51h3.77c2.17,0,3.17,.94,3.17,2.51,0,1.01-.76,1.83-1.71,2.06,1.3,.18,2.14,1.02,2.14,2.24Zm-6.19-5.81v3.17h2.48c1.32,0,2.09-.6,2.09-1.65,0-1.13-.9-1.51-2.28-1.51h-2.28Zm5.01,5.81c0-1.26-.98-1.65-2.44-1.65h-2.58v3.36h2.56c1.47,0,2.45-.38,2.45-1.71Z"/><path class="cls-3" d="M232.5,556.59c0-2.94,1.81-4.93,4.43-4.93s4.43,1.99,4.43,4.93-1.81,4.92-4.43,4.92-4.43-1.99-4.43-4.92Zm7.66,0c0-2.44-1.27-3.94-3.24-3.94s-3.24,1.5-3.24,3.94,1.27,3.92,3.24,3.92,3.24-1.5,3.24-3.92Z"/><path class="cls-3" d="M249.38,560.33v1.01h-5.77v-9.51h1.2v8.5h4.57Z"/><path class="cls-3" d="M258.83,556.59c0,2.93-1.92,4.75-4.62,4.75h-3.05v-9.51h3.05c2.7,0,4.62,1.82,4.62,4.76Zm-1.19,0c0-2.38-1.33-3.77-3.61-3.77h-1.69v7.52h1.69c2.26,0,3.61-1.39,3.61-3.75Z"/></g><g><path class="cls-3" d="M489.46,383.6c0,2.72-2.21,4.9-4.93,4.9s-4.9-2.19-4.9-4.9,2.19-4.93,4.9-4.93,4.93,2.21,4.93,4.93Zm-.83,0c0-2.26-1.85-4.1-4.1-4.1s-4.08,1.85-4.08,4.1,1.82,4.08,4.08,4.08,4.1-1.82,4.1-4.08Zm-1.02,.04c0,1.68-1.29,3.04-3.08,3.04s-3.08-1.36-3.08-3.04h.49c.31,1.5,1.33,2.23,2.59,2.23s2.28-.73,2.59-2.23h.49Zm-4.8-1.68c0-.55,.18-.97,.52-.97s.48,.42,.48,.97-.15,.99-.48,.99-.52-.45-.52-.99Zm2.45,0c0-.55,.15-.97,.48-.97s.52,.42,.52,.97-.18,.99-.52,.99-.48-.45-.48-.99Z"/><path class="cls-3" d="M498.74,384.18h-2.06v4.16h-1.19v-9.51h3.91c2.17,0,3.17,1.01,3.17,2.62,0,1.43-.78,2.4-2.55,2.61l3.07,4.29h-1.33l-3.01-4.16Zm-2.06-.99h2.58c1.39,0,2.12-.63,2.12-1.74s-.76-1.62-2.14-1.62h-2.55v3.36Z"/><path class="cls-3" d="M506.13,379.83v3.14h4.8v1h-4.8v3.36h5.39v1.01h-6.57v-9.51h6.57v1.01h-5.39Z"/><path class="cls-3" d="M521.62,383.41v4.93h-1.06v-1.74c-.49,1.13-1.48,1.91-3.14,1.91-2.68,0-4.47-1.99-4.47-4.92s1.78-4.93,4.44-4.93c1.98,0,3.43,.84,3.99,2.73h-1.26c-.43-1.12-1.26-1.74-2.75-1.74-1.91,0-3.24,1.5-3.24,3.94s1.3,3.92,3.28,3.92,3.04-1.22,3.05-3.11h-3.32v-.99h4.47Z"/><path class="cls-3" d="M531.78,384.64c0,2.58-1.53,3.87-3.92,3.87s-3.94-1.3-3.94-3.87v-5.81h1.18v5.81c0,1.86,1.11,2.83,2.77,2.83s2.73-.92,2.73-2.77v-5.87h1.18v5.81Z"/><path class="cls-3" d="M540.25,387.33v1.01h-5.77v-9.51h1.2v8.5h4.57Z"/><path class="cls-3" d="M547.89,385.72h-4.19l-.99,2.62h-1.26l3.75-9.51h1.27l3.63,9.51h-1.26l-.95-2.62Zm-.36-1l-1.7-4.68-1.76,4.68h3.46Z"/><path class="cls-3" d="M555.12,384.18h-2.06v4.16h-1.19v-9.51h3.91c2.17,0,3.17,1.01,3.17,2.62,0,1.43-.78,2.4-2.55,2.61l3.07,4.29h-1.33l-3.01-4.16Zm-2.06-.99h2.58c1.39,0,2.12-.63,2.12-1.74s-.76-1.62-2.14-1.62h-2.55v3.36Z"/><path class="cls-3" d="M566.45,388.34h-1.18v-9.51h1.18v9.51Z"/><path class="cls-3" d="M575.74,379.81h-3.15v8.53h-1.18v-8.53h-3.17v-.98h7.49v.98Z"/><path class="cls-3" d="M581.83,385.72h-4.19l-.99,2.62h-1.26l3.75-9.51h1.27l3.63,9.51h-1.26l-.95-2.62Zm-.36-1l-1.7-4.68-1.76,4.68h3.46Z"/><path class="cls-3" d="M591.58,387.33v1.01h-5.77v-9.51h1.2v8.5h4.57Z"/><path class="cls-3" d="M594.54,388.34h-1.18v-9.51h1.18v9.51Z"/><path class="cls-3" d="M596.77,383.59c0-2.87,1.74-4.93,4.41-4.93,2.51,0,3.67,1.29,4.05,3.21h-1.25c-.34-1.54-1.25-2.21-2.8-2.21-1.79,0-3.22,1.54-3.22,3.94s1.43,3.92,3.22,3.92c1.51,0,2.44-.63,2.82-2.2h1.25c-.42,2-1.6,3.19-4.06,3.19-2.66,0-4.41-2.04-4.41-4.92Z"/></g><g><path class="cls-3" d="M836.46,383.6c0,2.72-2.21,4.9-4.93,4.9s-4.9-2.19-4.9-4.9,2.19-4.93,4.9-4.93,4.93,2.21,4.93,4.93Zm-.83,0c0-2.26-1.85-4.1-4.1-4.1s-4.08,1.85-4.08,4.1,1.82,4.08,4.08,4.08,4.1-1.82,4.1-4.08Zm-1.02,.04c0,1.68-1.29,3.04-3.08,3.04s-3.08-1.36-3.08-3.04h.49c.31,1.5,1.33,2.23,2.59,2.23s2.28-.73,2.59-2.23h.49Zm-4.8-1.68c0-.55,.18-.97,.52-.97s.48,.42,.48,.97-.15,.99-.48,.99-.52-.45-.52-.99Zm2.45,0c0-.55,.15-.97,.48-.97s.52,.42,.52,.97-.18,.99-.52,.99-.48-.45-.48-.99Z"/><path class="cls-3" d="M850.29,378.83v9.51h-1.18v-4.45h-5.45v4.45h-1.18v-9.51h1.18v4.06h5.45v-4.06h1.18Z"/><path class="cls-3" d="M859.99,378.83l-3.4,5.64v3.87h-1.19v-3.87l-3.36-5.64h1.29l2.69,4.55,2.69-4.55h1.29Z"/><path class="cls-3" d="M868.8,381.47c0,1.57-1.08,2.7-3.25,2.7h-2.63v4.16h-1.19v-9.51h3.92c2.17,0,3.15,1.01,3.15,2.65Zm-1.19,0c0-1.07-.66-1.65-2.16-1.65h-2.54v3.36h2.54c1.5,0,2.16-.69,2.16-1.71Z"/><path class="cls-3" d="M871.85,379.83v3.14h4.8v1h-4.8v3.36h5.39v1.01h-6.57v-9.51h6.57v1.01h-5.39Z"/><path class="cls-3" d="M882.55,384.18h-2.06v4.16h-1.19v-9.51h3.91c2.17,0,3.17,1.01,3.17,2.62,0,1.43-.78,2.4-2.55,2.61l3.07,4.29h-1.33l-3.01-4.16Zm-2.06-.99h2.58c1.39,0,2.12-.63,2.12-1.74s-.76-1.62-2.14-1.62h-2.55v3.36Z"/><path class="cls-3" d="M893.88,388.34h-1.18v-9.51h1.18v9.51Z"/><path class="cls-3" d="M903.17,379.81h-3.15v8.53h-1.18v-8.53h-3.17v-.98h7.49v.98Z"/><path class="cls-3" d="M909.26,385.72h-4.19l-.99,2.62h-1.26l3.75-9.51h1.27l3.63,9.51h-1.26l-.95-2.62Zm-.36-1l-1.7-4.68-1.76,4.68h3.46Z"/><path class="cls-3" d="M919.01,387.33v1.01h-5.77v-9.51h1.2v8.5h4.57Z"/><path class="cls-3" d="M921.97,388.34h-1.18v-9.51h1.18v9.51Z"/><path class="cls-3" d="M924.2,383.59c0-2.87,1.74-4.93,4.41-4.93,2.51,0,3.67,1.29,4.05,3.21h-1.25c-.34-1.54-1.25-2.21-2.8-2.21-1.79,0-3.22,1.54-3.22,3.94s1.43,3.92,3.22,3.92c1.51,0,2.44-.63,2.82-2.2h1.25c-.42,2-1.6,3.19-4.06,3.19-2.66,0-4.41-2.04-4.41-4.92Z"/></g><path class="cls-3" d="M339.17,193.12h-5.49c-4.85-9.37-7.11-17.13-7.43-27.79,10.02-8.73,32.32-21.33,47.18-21.33,22.94,0,34.9,16.48,34.9,38.13,0,14.22-1.29,44.6-1.29,58.49,0,15.51,3.88,21.98,21.33,21.98l.65,6.46-38.46,7.43-2.91-19.07c-8.73,10.34-20.68,20.68-35.87,20.68-20.68,0-32.96-13.57-32.96-31.35,0-16.48,10.34-29.08,29.41-33.93,12.6-3.23,24.24-4.85,39.43-7.11v-22.3c0-15.84-11.96-22.94-24.56-22.94-5.17,0-10.66,1.29-15.19,2.91l-8.73,29.73Zm48.47,20.04c-7.76,1.62-17.77,3.88-26.5,6.14-12.6,3.23-19.71,11.31-19.71,22.62,0,11.96,8.4,19.71,21.01,19.71,11.31,0,20.04-5.17,25.21-11.31v-37.16Z"/><path class="cls-3" d="M348.22,452.95c-20.04,0-34.58-13.57-34.58-32.96,0-18.1,9.37-30.38,36.19-36.19,9.05-1.94,20.68-3.88,35.87-6.14v-24.88c0-15.84-11.96-21.98-24.56-21.98-8.4,0-12.6,1.29-17.13,2.91l-8.4,28.76h-8.4c-4.85-9.37-7.11-17.13-7.43-27.79,14.87-9.05,30.7-21.33,52.03-21.33s39.75,17.45,39.75,38.13c0,14.22-.65,42.98-.65,56.88,0,15.19,1.94,22.94,15.51,22.94,1.94,0,4.2-.32,6.79-.65l.97,10.66-42.98,8.4-5.49-19.07c-6.79,13.25-20.04,22.3-37.49,22.3Zm37.16-64.96c-9.37,1.62-17.45,3.55-26.18,5.82-11.63,2.91-19.71,10.66-19.71,21.01,0,12.28,7.43,19.07,19.71,19.07,9.69,0,21.98-5.49,25.85-14.22l.32-31.67Z"/><path class="cls-3" d="M341.43,635.86c-18.74,0-33.93-13.25-33.93-34.58,0-32.64,43.3-40.07,68.51-43.63v-18.74c0-12.6-6.79-20.36-17.77-20.36-4.2,0-8.73,1.29-11.96,2.91l-9.05,30.38h-11.96c-5.17-5.49-10.99-23.59-9.69-31.67,17.13-12.28,36.52-23.91,56.55-23.91,29.08,0,50.09,17.13,50.09,41.69,0,19.07-1.29,39.43-1.29,53.32,0,15.19,1.94,22.94,13.25,22.94,1.94,0,3.55-.32,5.82-.65l.97,13.9-58.17,8.4-5.17-19.39c-7.76,10.66-19.39,19.39-36.19,19.39Zm34.58-63.34c-12.28,.97-29.41,5.82-29.41,21.01,0,10.66,6.46,15.84,14.87,15.84,7.11,0,11.96-2.91,14.54-5.82v-31.02Z"/><path class="cls-3" d="M735.4,427.57c7.11,0,13.57-7.11,18.1-13.57l4.85,2.59c-3.23,12.28-24.56,32.32-38.46,32.32-11.63,0-14.87-8.4-14.87-20.04,0-10.02,4.85-24.24,10.02-41.37h-1.62c-11.31,19.71-29.08,60.76-55.26,60.76-18.74,0-24.56-15.84-24.88-36.84-.65-42.98,25.21-96.95,69.8-96.95,12.28,0,23.91,3.23,31.02,6.79,0,0,8.4-6.79,12.6-6.79,2.59,0,5.82,2.26,5.82,4.85-12.93,27.15-21.65,77.56-21.65,100.5,0,3.88,.65,7.76,4.52,7.76Zm-39.43-100.18c-28.76,0-39.1,50.74-39.75,74.33-.32,12.28,2.91,27.47,11.96,27.47,17.77,0,51.71-69.8,52.68-90.81-3.88-5.49-15.84-10.99-24.88-10.99Z"/><path class="cls-3" d="M1064.61,427.48c6.63,0,16.4-10.99,25.48-23.91l4.89,1.62c-13.26,23.59-32.81,43.95-51.31,43.95-9.07,0-14.31-4.85-14.31-12.93s4.54-15.84,11.17-25.53l17.8-26.18h-2.44c-14.31,19.71-46.07,63.99-72.6,63.99-12.56,0-19.2-7.43-19.2-18.74,0-44.6,62.82-115.05,110.99-115.05,12.91,0,24.78,3.23,31.06,6.79,6.28-3.55,12.22-6.79,16.05-6.79,2.44,0,5.58,2.26,4.54,4.85-23.04,25.21-67.01,86.61-67.01,103.41,0,2.91,1.74,4.52,4.89,4.52Zm-.35-99.86c-32.11,0-72.25,61.08-72.25,89.19,0,6.79,3.84,9.37,8.73,9.37s12.22-3.88,19.2-10.34c19.89-18.42,49.21-53.97,68.06-81.44-5.58-4.2-14.66-6.79-23.73-6.79Z"/></svg>