<svg xmlns="http://www.w3.org/2000/svg" viewBox="0 0 1366 768"><defs><style>.cls-1{fill:#f2f2f2;}.cls-2{fill:#fdfaf5;}</style></defs><g id="Layer_1" data-name="Layer 1"><rect width="1366" height="768"/><path class="cls-1" d="M930.93,718.08,927.16,728h-1l-3.68-9.91h1.23l3,8.37,3-8.37Z"/><path class="cls-1" d="M933.81,719.13v3.27h4.69v1h-4.69v3.51h5.26v1h-6.41v-9.91h6.41v1Z"/><path class="cls-1" d="M944.56,723.65h-2V728h-1.16v-9.91h3.81c2.12,0,3.09,1,3.09,2.73a2.51,2.51,0,0,1-2.49,2.71l3,4.47h-1.3Zm-2-1h2.52c1.35,0,2.06-.66,2.06-1.81s-.74-1.69-2.09-1.69h-2.49Z"/><path class="cls-1" d="M950.07,725h1.22a2.33,2.33,0,0,0,2.65,2.08c1.59,0,2.33-.74,2.33-1.7s-.55-1.39-1.63-1.65l-2.16-.51a2.45,2.45,0,0,1-2.11-2.51c0-1.6,1.28-2.84,3.33-2.84s3.43.91,3.63,2.94h-1.21a2.15,2.15,0,0,0-2.45-1.91c-1.34,0-2.08.73-2.08,1.66,0,.72.34,1.21,1.41,1.48l2.09.51a2.66,2.66,0,0,1,2.39,2.65c0,1.74-1.27,2.92-3.54,2.92C951.51,728.16,950.27,727,950.07,725Z"/><path class="cls-1" d="M960.82,728h-1.14v-9.91h1.14Z"/><path class="cls-1" d="M963.1,723c0-3.06,1.76-5.13,4.32-5.13s4.32,2.07,4.32,5.13-1.77,5.12-4.32,5.12S963.1,726.09,963.1,723Zm7.47,0c0-2.54-1.24-4.1-3.15-4.1s-3.16,1.56-3.16,4.1,1.24,4.08,3.16,4.08S970.57,725.56,970.57,723Z"/><path class="cls-1" d="M981.63,718.08V728h-1.75l-4.78-8.92V728H974v-9.91h1.75l4.79,8.91v-8.91Z"/><path class="cls-1" d="M983.76,725H985a2.33,2.33,0,0,0,2.65,2.08c1.59,0,2.33-.74,2.33-1.7s-.55-1.39-1.63-1.65l-2.16-.51a2.45,2.45,0,0,1-2.11-2.51c0-1.6,1.28-2.84,3.33-2.84s3.43.91,3.63,2.94h-1.21a2.15,2.15,0,0,0-2.45-1.91c-1.34,0-2.08.73-2.08,1.66,0,.72.34,1.21,1.41,1.48l2.09.51a2.66,2.66,0,0,1,2.39,2.65c0,1.74-1.27,2.92-3.54,2.92C985.2,728.16,984,727,983.76,725Z"/><path class="cls-1" d="M1000.22,723.65h-2V728H997v-9.91h3.82c2.12,0,3.09,1,3.09,2.73a2.52,2.52,0,0,1-2.49,2.71l3,4.47h-1.3Zm-2-1h2.51c1.36,0,2.07-.66,2.07-1.81s-.74-1.69-2.09-1.69h-2.49Z"/><path class="cls-1" d="M1007.6,719.13v3.27h4.69v1h-4.69v3.51h5.27v1h-6.41v-9.91h6.41v1Z"/><path class="cls-1" d="M1023.06,722.85l0,5.14h-1v-1.81a3.05,3.05,0,0,1-3.06,2c-2.62,0-4.37-2.07-4.37-5.12s1.74-5.13,4.34-5.13a3.68,3.68,0,0,1,3.9,2.84h-1.24a2.54,2.54,0,0,0-2.67-1.81c-1.86,0-3.16,1.56-3.16,4.1s1.27,4.08,3.2,4.08,3-1.26,3-3.23h-3.24v-1Z"/><path class="cls-1" d="M1033,724.13c0,2.69-1.49,4-3.83,4s-3.84-1.36-3.84-4v-6h1.15v6c0,1.94,1.08,3,2.71,3a2.56,2.56,0,0,0,2.66-2.89v-6.11H1033Z"/><path class="cls-1" d="M1041.43,726.94v1h-5.63v-9.91H1037v8.86Z"/><path class="cls-1" d="M1048.42,725.26h-4.09l-1,2.73h-1.23l3.66-9.91H1047l3.54,9.91h-1.23Zm-.36-1-1.65-4.87-1.72,4.87Z"/><path class="cls-1" d="M1055.55,723.65h-2V728h-1.17v-9.91h3.82c2.12,0,3.09,1,3.09,2.73a2.52,2.52,0,0,1-2.49,2.71l3,4.47h-1.29Zm-2-1h2.51c1.36,0,2.07-.66,2.07-1.81s-.74-1.69-2.1-1.69h-2.48Z"/><path class="cls-1" d="M1062,729.9h-.71a10.72,10.72,0,0,0,.62-1.73l-.18-.1a.83.83,0,0,1-.44-.74.81.81,0,0,1,.79-.83.8.8,0,0,1,.78.9A6.18,6.18,0,0,1,1062,729.9Z"/><path class="cls-1" d="M1080.3,718.08l-2.8,9.91h-1.14l-2.36-8.25-2.18,8.25h-1.15l-2.92-9.91h1.16l2.32,8.13,2.23-8.13h1.1l2.38,8.14,2.24-8.14Z"/><path class="cls-1" d="M1083.3,728h-1.15v-9.91h1.15Z"/><path class="cls-1" d="M1093.65,723c0,3.05-1.87,5-4.51,5h-3v-9.91h3C1091.78,718.08,1093.65,720,1093.65,723Zm-1.16,0c0-2.48-1.3-3.92-3.53-3.92h-1.65V727H1089C1091.16,727,1092.49,725.51,1092.49,723Z"/><path class="cls-1" d="M1097.22,719.13v3.27h4.69v1h-4.69v3.51h5.27v1h-6.41v-9.91h6.41v1Z"/><path class="cls-1" d="M1108.55,729.69h-1l4.13-12.15h1Z"/><path class="cls-1" d="M1126,718.08V728h-1.75l-4.78-8.92V728h-1.09v-9.91h1.75l4.79,8.91v-8.91Z"/><path class="cls-1" d="M1130,719.13v3.27h4.69v1H1130v3.51h5.26v1h-6.41v-9.91h6.41v1Z"/><path class="cls-1" d="M1136.81,725H1138c.17,1.4,1.15,2.08,2.65,2.08s2.32-.74,2.32-1.7-.54-1.39-1.62-1.65l-2.16-.51a2.45,2.45,0,0,1-2.11-2.51c0-1.6,1.27-2.84,3.32-2.84s3.43.91,3.64,2.94h-1.22a2.14,2.14,0,0,0-2.44-1.91c-1.34,0-2.08.73-2.08,1.66,0,.72.34,1.21,1.41,1.48l2.09.51a2.67,2.67,0,0,1,2.39,2.65c0,1.74-1.27,2.92-3.54,2.92C1138.25,728.16,1137,727,1136.81,725Z"/><path class="cls-1" d="M1152.77,719.1h-3.08V728h-1.15V719.1h-3.08v-1h7.31Z"/><path class="cls-1" d="M1155.82,728h-1.15v-9.91h1.15Z"/><path class="cls-1" d="M1166.3,718.08V728h-1.75l-4.77-8.92V728h-1.1v-9.91h1.75l4.79,8.91v-8.91Z"/><path class="cls-1" d="M1177,722.85V728h-1v-1.81a3.06,3.06,0,0,1-3.07,2c-2.61,0-4.36-2.07-4.36-5.12s1.74-5.13,4.34-5.13a3.67,3.67,0,0,1,3.89,2.84h-1.23a2.54,2.54,0,0,0-2.68-1.81c-1.86,0-3.16,1.56-3.16,4.1s1.27,4.08,3.2,4.08,3-1.26,3-3.23h-3.24v-1Z"/><path class="cls-1" d="M1188.29,725.26h-4.09l-1,2.73H1182l3.67-9.91h1.24l3.54,9.91h-1.23Zm-.35-1-1.66-4.87-1.72,4.87Z"/><path class="cls-1" d="M1199.86,718.08V728h-1.75l-4.77-8.92V728h-1.09v-9.91H1194l4.78,8.91v-8.91Z"/><path class="cls-1" d="M1210.22,723c0,3.05-1.87,5-4.51,5h-3v-9.91h3C1208.35,718.08,1210.22,720,1210.22,723Zm-1.16,0c0-2.48-1.3-3.92-3.53-3.92h-1.66V727h1.66C1207.73,727,1209.06,725.51,1209.06,723Z"/><path class="cls-1" d="M1215.73,723c0-3,1.7-5.13,4.31-5.13a3.64,3.64,0,0,1,4,3.34h-1.21a2.52,2.52,0,0,0-2.74-2.31c-1.75,0-3.14,1.61-3.14,4.1s1.39,4.08,3.14,4.08a2.53,2.53,0,0,0,2.75-2.29H1224a3.64,3.64,0,0,1-4,3.33C1217.44,728.16,1215.73,726,1215.73,723Z"/><path class="cls-1" d="M1225.69,723c0-3.06,1.77-5.13,4.32-5.13s4.32,2.07,4.32,5.13-1.76,5.12-4.32,5.12S1225.69,726.09,1225.69,723Zm7.48,0c0-2.54-1.24-4.1-3.16-4.1s-3.16,1.56-3.16,4.1,1.25,4.08,3.16,4.08S1233.17,725.56,1233.17,723Z"/><path class="cls-1" d="M1244.22,718.08V728h-1.75l-4.77-8.92V728h-1.09v-9.91h1.75l4.78,8.91v-8.91Z"/><path class="cls-1" d="M1253.44,719.1h-3.07V728h-1.15V719.1h-3.09v-1h7.31Z"/><path class="cls-1" d="M1258.52,723.65h-2V728h-1.16v-9.91h3.81c2.12,0,3.09,1,3.09,2.73a2.51,2.51,0,0,1-2.49,2.71l3,4.47h-1.3Zm-2-1H1259c1.36,0,2.07-.66,2.07-1.81s-.74-1.69-2.09-1.69h-2.49Z"/><path class="cls-1" d="M1269.91,725.26h-4.09l-1,2.73h-1.23l3.67-9.91h1.24l3.54,9.91h-1.23Zm-.35-1-1.66-4.87-1.72,4.87Z"/><path class="cls-1" d="M1273.28,723c0-3,1.69-5.13,4.31-5.13a3.65,3.65,0,0,1,4,3.34h-1.22a2.51,2.51,0,0,0-2.73-2.31c-1.75,0-3.15,1.61-3.15,4.1s1.4,4.08,3.15,4.08a2.53,2.53,0,0,0,2.74-2.29h1.22a3.64,3.64,0,0,1-4,3.33C1275,728.16,1273.28,726,1273.28,723Z"/><path class="cls-1" d="M1290.18,719.1h-3.07V728H1286V719.1h-3.09v-1h7.31Z"/><path class="cls-1" d="M1293.23,728h-1.14v-9.91h1.14Z"/><path class="cls-1" d="M1295.51,723c0-3.06,1.76-5.13,4.32-5.13s4.32,2.07,4.32,5.13-1.77,5.12-4.32,5.12S1295.51,726.09,1295.51,723Zm7.47,0c0-2.54-1.24-4.1-3.15-4.1s-3.16,1.56-3.16,4.1,1.24,4.08,3.16,4.08S1303,725.56,1303,723Z"/><path class="cls-1" d="M1314,718.08V728h-1.75l-4.77-8.92V728h-1.1v-9.91h1.75L1313,727v-8.91Z"/><path class="cls-1" d="M1316.17,725h1.22a2.33,2.33,0,0,0,2.65,2.08c1.59,0,2.33-.74,2.33-1.7s-.55-1.39-1.63-1.65l-2.16-.51a2.44,2.44,0,0,1-2.1-2.51c0-1.6,1.27-2.84,3.32-2.84s3.43.91,3.63,2.94h-1.21a2.15,2.15,0,0,0-2.45-1.91c-1.34,0-2.08.73-2.08,1.66,0,.72.34,1.21,1.41,1.48l2.09.51a2.66,2.66,0,0,1,2.39,2.65c0,1.74-1.27,2.92-3.54,2.92C1317.61,728.16,1316.37,727,1316.17,725Z"/><path class="cls-1" d="M79.41,728H78.26v-9.91h1.15Z"/><path class="cls-1" d="M88.62,719.1H85.55V728H84.4V719.1H81.31v-1h7.31Z"/><path class="cls-1" d="M95.68,725.26H91.59l-1,2.73H89.39l3.67-9.91H94.3L97.84,728H96.61Zm-.35-1-1.66-4.87L92,724.22Z"/><path class="cls-1" d="M105.27,726.94v1H99.64v-9.91h1.17v8.86Z"/><path class="cls-1" d="M108.25,728h-1.14v-9.91h1.14Z"/><path class="cls-1" d="M116.27,725.26h-4.09l-1,2.73H110l3.66-9.91h1.25l3.54,9.91H117.2Zm-.36-1-1.65-4.87-1.72,4.87Z"/><path class="cls-1" d="M127.84,718.08V728h-1.75l-4.77-8.92V728h-1.1v-9.91H122l4.79,8.91v-8.91Z"/><path class="cls-1" d="M141.57,725.17c0,1.74-1,2.82-3.31,2.82h-3.88v-9.91h3.68c2.12,0,3.09,1,3.09,2.61a2.24,2.24,0,0,1-1.67,2.15A2.27,2.27,0,0,1,141.57,725.17Zm-6-6v3.29H138c1.28,0,2-.62,2-1.72s-.88-1.57-2.23-1.57Zm4.89,6c0-1.31-.95-1.72-2.38-1.72h-2.51V727H138C139.47,727,140.42,726.56,140.42,725.17Z"/><path class="cls-1" d="M143.27,723c0-3.06,1.76-5.13,4.32-5.13s4.32,2.07,4.32,5.13-1.76,5.12-4.32,5.12S143.27,726.09,143.27,723Zm7.48,0c0-2.54-1.24-4.1-3.16-4.1s-3.16,1.56-3.16,4.1,1.25,4.08,3.16,4.08S150.75,725.56,150.75,723Z"/><path class="cls-1" d="M159.82,726.94v1h-5.63v-9.91h1.17v8.86Z"/><path class="cls-1" d="M169.15,723c0,3.05-1.88,5-4.51,5h-3v-9.91h3C167.27,718.08,169.15,720,169.15,723ZM168,723c0-2.48-1.29-3.92-3.52-3.92H162.8V727h1.66C166.66,727,168,725.51,168,723Z"/><path class="cls-1" d="M189.5,724.73H178v-1.05H189.5Z"/><path class="cls-1" d="M204.72,725.21a3,3,0,0,1-3.32,2.95c-2.2,0-3.32-1.25-3.33-3h1.12a2,2,0,0,0,2.23,2,1.91,1.91,0,0,0,2.13-1.91c0-1.09-.67-1.75-2.39-1.75h-.78v-1.08h.78c1.58,0,2.14-.77,2.14-1.73a1.7,1.7,0,0,0-1.86-1.71,1.88,1.88,0,0,0-2,1.81H198.3a3,3,0,0,1,3.16-2.84,2.75,2.75,0,0,1,3,2.68,2.26,2.26,0,0,1-1.31,2.25A2.3,2.3,0,0,1,204.72,725.21Z"/><path class="cls-1" d="M213.11,725.58h-1.2V728h-1.18v-2.41h-4.66v-1l4.11-6.48h1.73v6.48h1.2Zm-2.38-1V719l-3.53,5.55Z"/><path class="cls-1" d="M214.69,723.05c0-3,1.36-5.14,3.7-5.14s3.71,2.15,3.71,5.14-1.37,5.11-3.71,5.11S214.69,726,214.69,723.05Zm6.27,0c0-2.47-.9-4.06-2.57-4.06s-2.57,1.59-2.57,4.06.9,4,2.57,4S221,725.54,221,723.05Z"/><path class="cls-1" d="M235,720.84c0,1.63-1.05,2.81-3.17,2.81h-2.57V728h-1.16v-9.91h3.83C234,718.08,235,719.13,235,720.84Zm-1.16,0c0-1.11-.64-1.72-2.1-1.72h-2.48v3.5h2.48C233.19,722.62,233.83,721.9,233.83,720.84Z"/><path class="cls-1" d="M243.37,719.1h-3.08V728h-1.15V719.1h-3.09v-1h7.32Z"/><path class="cls-1" d="M244.55,725h1.21a2.33,2.33,0,0,0,2.65,2.08c1.59,0,2.33-.74,2.33-1.7s-.55-1.39-1.63-1.65l-2.16-.51a2.44,2.44,0,0,1-2.1-2.51c0-1.6,1.27-2.84,3.32-2.84s3.43.91,3.64,2.94h-1.22a2.15,2.15,0,0,0-2.45-1.91c-1.34,0-2.08.73-2.08,1.66,0,.72.34,1.21,1.41,1.48l2.09.51a2.67,2.67,0,0,1,2.4,2.65c0,1.74-1.28,2.92-3.55,2.92C246,728.16,244.74,727,244.55,725Z"/><path class="cls-2" d="M249.37,330.92l-7.88,31.83H103.91v-1.16c10.22-10.52,16.94-17.53,16.94-28.34V186.91c0-10.81-6.72-17.82-16.94-28.33v-1.17H163.5v1.17c-9.64,10.51-15.78,17.52-15.78,28.33V360.42h51.7c19.87,0,31.55-12,48.2-29.5Zm61.34-53.46a212.35,212.35,0,0,0,14.61,24.25v1.16H295.23v-1.16c0-5.85-2.33-12-9.35-25.71l-1.46-2.92H193l-3.51,7.3c-3.79,7.89-.87,14.9,6.43,21.33v1.16H170.8v-1.16c6.13-4.68,11.39-12.57,18.69-27.17l47.91-93.76c4.67-9.06,8.47-16.36,10.22-24.25h1.17Zm-27.45-6.72L238.56,184l-44.39,86.75Z"/><path class="cls-2" d="M448,159.75V262.56h41.48c6.14,0,12,0,27.46-17.23h1.75v36.51h-1.75c-15.48-16.94-21.32-16.94-27.46-16.94H448v68.35c0,10.81,6.14,17.82,15.78,28.34v1.16H404.19v-1.16c10.22-10.52,16.94-17.53,16.94-28.34V186.91c0-10.81-6.72-17.82-16.94-28.33v-1.17H515.48l6.43,28.92h-1.76c-15.77-11.4-35.63-26.58-43.52-26.58Z"/><path class="cls-2" d="M572.24,159.75V262.56h24.53c6.14,0,12,0,27.46-17.23H626v36.51h-1.75c-15.48-16.94-21.32-16.94-27.46-16.94H572.24v95.52h17.81c17.24,0,34.47-17.82,51.12-35.35h1.75l-10.8,37.68H528.42v-1.16c10.22-10.52,16.94-17.53,16.94-28.34V186.91c0-10.81-6.72-17.82-16.94-28.33v-1.17H628l6.42,28.92H632.7c-16.94-11.4-35.64-26.58-43.52-26.58Z"/><path class="cls-2" d="M890.48,158.58c-9.64,7.59-15.78,14.6-15.78,25.41V333.25c0,10.81,6.14,17.82,15.78,28.34v1.16H830.89v-1.16c10.22-10.52,16.94-17.53,16.94-28.34V162.08L761.08,322.44h-1.46l-92.31-144V328c0,12.27,7,23.37,19.87,33.6v1.16H645.11v-1.16C657.38,352,665,340.26,665,328V186.91c0-15.19-7-21-19.87-28.33v-1.17h41.77l87,135.82,73.9-135.82h42.65Z"/><path class="cls-2" d="M1143.12,158.58c-9.64,7.59-15.78,14.6-15.78,25.41V333.25c0,10.81,6.14,17.82,15.78,28.34v1.16h-59.59v-1.16c10.22-10.52,16.94-17.53,16.94-28.34V162.08l-86.75,160.36h-1.46L920,178.44V328c0,12.27,7,23.37,19.87,33.6v1.16H897.75v-1.16C910,352,917.62,340.26,917.62,328V186.91c0-15.19-7-21-19.87-28.33v-1.17h41.77l87,135.82,73.9-135.82h42.65Z"/><path class="cls-2" d="M1195.79,159.75V262.56h24.53c6.14,0,12,0,27.46-17.23h1.75v36.51h-1.75c-15.48-16.94-21.32-16.94-27.46-16.94h-24.53v95.52h17.82c17.23,0,34.46-17.82,51.11-35.35h1.75l-10.8,37.68H1152v-1.16c10.23-10.52,16.94-17.53,16.94-28.34V186.91c0-10.81-6.71-17.82-16.94-28.33v-1.17h99.61l6.42,28.92h-1.75c-16.94-11.4-35.63-26.58-43.52-26.58Z"/><path class="cls-2" d="M342.4,577.82c4.67,8.18,8.76,11.68,16.94,12.27v1.17c-17.24,3.21-28.63-2.92-37.68-17.24L311.73,558c-14.9-23.66-21.62-23.66-50-23.66a142.42,142.42,0,0,1-26-2.63v37.39c0,7.89,3.8,14.6,12.85,21v1.17H206.86v-1.17c9.35-6.43,13.15-13.14,13.15-21V408.11c0-7.89-3.8-14.6-13.15-21v-1.17h53.46c54,0,82.66,28.92,82.66,71.86,0,38-24.83,67.77-65.14,75.07h4.38c26.29,0,38.56,7,51.12,28.62ZM235.78,387.67V529.92a117.13,117.13,0,0,0,25.41,2.63c45.57,0,65.14-32.72,65.14-74.2,0-35.93-20.45-70.68-66-70.68Z"/><path class="cls-2" d="M526.39,591.26H369.82v-1.17c9.35-6.43,13.15-13.14,13.15-21V408.11c0-7.89-3.8-14.6-13.15-21v-1.17h90l6.13,22.49-1.46.3c-10.51-11.1-21.9-21-31.84-21H398.74V491.36h46.45c5.84,0,10.51-.88,20.73-14.61h1.46v31h-1.46C455.7,494,451,493.11,445.19,493.11H398.74V589.5h96.69c14.89,0,25.12-8.17,37.09-24l1.17.29Zm16.36-129.11c8.18,9.35,14.6,19.86,14.6,33.88,0,22.2-16.36,37.68-40.6,37.68-14.31,0-26-5-36.51-13.14V498.66H482c10.81,26.58,20.45,33.3,34.76,33.3,18.4,0,27.75-11.68,27.75-28.92,0-14-5.84-23.07-15.48-33.59l-14.61-15.19c-9.93-10.51-15.19-21-15.19-35.34,0-23.37,18.7-36.51,41.77-36.51a137.28,137.28,0,0,1,29.8,3.21v24.54H569c-8.77-19.57-16.07-25.71-29.51-25.71-18.11,0-28.33,11.1-28.33,27.17,0,12.85,6.13,21.9,14,31.25Z"/><path class="cls-2" d="M641.36,498.37c10.23,15.19,18.7,29.21,18.7,49.37,0,29.21-17.24,47-50.83,47-15.19,0-31.25-5.55-40-12.85l-1.46-19.57,1.46-.29c8.18,14.31,20.45,31,40.61,31,21.9,0,35.34-16.65,35.34-38.85,0-18.11-7.3-30.67-14.9-42.06l-21.91-33c-10.51-15.77-19.86-29.21-19.86-49.36,0-28.92,19-47.32,48.49-47.32A101.74,101.74,0,0,1,668.24,388L670,408.11h-1.46c-8.18-12-19.28-23.95-34.18-23.95-22.49,0-32.71,14.6-32.71,36.22,0,18.69,12,35.64,22.2,51.41Z"/><path class="cls-2" d="M672.09,489c0-58.71,40-106.61,105.16-106.61,68.64,0,109,45.86,109,106.32,0,58.13-40,105.45-106,105.45C713.28,594.18,672.09,546.57,672.09,489ZM780.17,592.43c63.67,0,89.09-50.54,89.09-99.9,0-57.55-28.92-108.37-92.31-108.37-61.34,0-87.63,47.9-87.63,101.65C689.32,539,717.66,592.43,780.17,592.43Z"/><path class="cls-2" d="M1000.24,550.66c33.3,43.52,83.54,46.44,131.73,39.14V591c-52,10.22-113,4.67-146.34-36.52l-20.45-25.12a90.73,90.73,0,0,1-27.75,4.09H927.8v32.13c0,15.78,3.79,19.57,8.76,24.54v1.17h-33.3v-1.17c4.67-5,8.47-9.06,8.47-20.74V408.11c0-12.27-3.8-16.06-8.47-21v-1.17H938.9c49.65,0,74.77,33.89,74.77,74.49,0,27.45-12.85,50.53-34.46,62.51Zm-72.44-163v144h10.51c38,0,58.42-34.76,58.42-71,0-35.64-19-73-57.25-73Zm171.17,0V504.21c0,20.16,1.16,25.71,3.21,32.13v1.17h-21v-1.17c2-6.42,3.21-12,3.21-32.13V387.67h-17.23c-23.08,0-32.72,4.08-36.81,12.85l-1.17-.3V385.91h125v14.31l-1.17.3c-4.38-8.77-14-12.85-36.51-12.85Z"/></g></svg>