<?xml version='1.0' encoding='UTF-8'?>
<svg xmlns="http://www.w3.org/2000/svg" xmlns:xlink="http://www.w3.org/1999/xlink" width="1366px" height="768px" viewBox="0 0 1366 768" x="0px" y="0px" enable-background="new 0 0 1366 768"><defs><symbol overflow="visible" id="a5af7c4ca"><path d="M32.81-76.94v-5.7H3.9v5.7l8.8 1.03v69.16h-.24l-8.8 1.03V0H32.7v-5.72l-8.22-1.03v-69.16zm0 0"/></symbol><symbol overflow="visible" id="a5af7c4cb"><path d="M76.81-63.44l-1.94-19.2H3.1l-1.96 19.2 5.72.69c1.14-4.34 2.51-8.81 4.1-13.16H33.5v69.16l-9.95 1.03V0H55.9v-5.72L45.27-6.75v-69.16h21.71c1.61 4.35 2.97 8.82 4.13 13.16zm0 0"/></symbol><symbol overflow="visible" id="a5af7c4cd"><path d="M48.92-38.3c11.9-2.62 21.16-9.93 21.16-22.06 0-14.28-11.55-22.28-30.88-22.28H3.42v5.7l8.69 1.03v69.16L3.3-5.72V0H33.5v-5.72l-9.6-1.03v-30.28h11.3C43.33-21.61 55.67-8.11 75.1 0l3.2-5.38C64.36-14.74 55.44-24.8 48.92-38.3zM23.9-43.78v-32.13c4.11.11 9.27.11 11.31.11 12.92 0 21.96 4.92 21.96 15.44 0 11.1-7.66 16.58-21.38 16.58zm0 0"/></symbol><symbol overflow="visible" id="a5af7c4ce"><path d="M77.5-6.75l-31.44-75.9h-9.14L9.48-6.74 1.14-5.72V0h24.92v-5.72l-9.72-1.03 6.64-18.4h33.83l7.31 18.4-8.8 1.03V0H85.5v-5.72zM25.72-32.81L38.86-69.5l14.87 36.69zm0 0"/></symbol><symbol overflow="visible" id="a5af7c4cf"><path d="M46.53-44.92L26.52-55.1c-4.35-2.18-8-5.72-8-11.1 0-7.2 5.37-10.97 14.64-10.97 5.48 0 10.04 1.14 14.51 4.7 1.6 3.65 3.08 8.44 4 11.65h5.83l-.34-23.55h-6.63c0 1.6-.23 2.97-.69 4.45-4.92-2.97-10.64-4.45-17.84-4.45-14.05 0-24.56 8.45-24.56 21.27 0 10.17 5.01 16.34 13.93 20.56l17.96 8.47c7.08 3.31 11.2 8 11.2 14.28 0 9.37-6.98 14.3-16.69 14.3-6.06 0-11.54-1.38-15.67-4.7-1.7-3.88-3.31-8.79-5.03-15.2H7.31l.8 21.04c7.33 4 16.47 6.17 25.39 6.17 18.63 0 28.34-10.17 28.34-23.2 0-11.44-5.93-18.75-15.3-23.55zM20.93-5.14l.45.69c-.11-.24-.24-.47-.46-.7zm0 0"/></symbol><symbol overflow="visible" id="a5af7c4cg"><path d="M63.33-21.48c-4.35 9.37-10.4 14.73-19.9 14.73H23.79v-32.1h26.17l1.27 8.33h5.6v-21.71h-5.6l-1.16 6.62H23.78v-30.3h17.49c9.48 0 15.54 5.38 19.89 14.75l4.68-2.06-6.75-19.42H3.42v5.7L12-75.9v69.16L3.42-5.72V0h57.85l6.75-19.44zm0 0"/></symbol><symbol overflow="visible" id="a5af7c4ch"><path d="M71.9-19.1C65.74-11.54 58.3-6.85 47.79-6.85c-18.86 0-29.72-15.44-29.72-34.3 0-19.76 7.66-36.68 26.86-36.68 12.69 0 19.2 6.28 23.67 16.57l7.32-1.6-4.8-22.52-6.64 1.03.92 5.03c-6.17-3.78-12.69-4.92-18.98-4.92-25.27 0-41.27 19.78-41.27 42.88 0 24.23 15.9 43.2 40.81 43.2 14.63 0 25.27-8.11 30.86-17.38zm0 0"/></symbol><symbol overflow="visible" id="a5af7c4ci"><path d="M85.97-41.6c0-23-16.58-42.88-41.16-42.65-25.26.23-40.47 19.1-40.47 42.88 0 23.65 16.7 43.2 41.16 43.2 26.06 0 40.47-19.55 40.47-43.44zm-68.7-1.26c0-18.98 7.2-34.53 26.4-34.53 20 0 29.38 17.83 29.38 39.55 0 16.23-7.32 32.8-25.27 32.8-21.37 0-30.51-17.94-30.51-37.82zm0 0"/></symbol><symbol overflow="visible" id="a5af7c4cj"><path d="M86.88-82.64h-23.9v5.7l8.8 1.03v58.53L25.27-82.64H5.03v5.7l8.8 1.03v69.16l-8.8 1.03V0h23.78v-5.72l-8.34-1.03v-61.6L69.6-.12h8.92v-75.8l8.34-1.03zm0 0"/></symbol><symbol overflow="visible" id="a5af7c4ck"><path d="M82.31-82.64h-23.9v5.7l8.8 1.03v48.25c0 14.52-7.65 21.04-20.8 21.04-16 0-23.43-8.35-23.43-21.72v-47.57l8.35-1.03v-5.7H2.4v5.7l8.8 1.03V-28C11.3-6.97 24.8 1.72 44.11 1.72c19.1 0 29.72-10.86 29.83-29.72v-47.9l8.36-1.04zm0 0"/></symbol><symbol overflow="visible" id="a5af7c4cl"><path d="M83.1-82.64H58.89v5.7l8.8 1.03h.23L45.84-17.95 21.48-75.91l8.02-1.03v-5.7H0v5.7l8.23.92L40.81-.1h4.8l29.27-75.8 8.23-1.03zm0 0"/></symbol><symbol overflow="visible" id="a5af7c4cm"><path d="M38.98-82.64H4.45v5.7l8.7 1.03v69.16l-8.7 1.03V0h31.1c28.47 0 44.92-17.48 44.92-42.06 0-23.33-15.31-40.58-41.49-40.58zM35.2-6.62c-2.51 0-6.86 0-10.39-.13v-69.16h11.77c20.92 0 32.23 14.07 32.23 33.85 0 21.72-10.4 35.44-33.6 35.44zm0 0"/></symbol><symbol overflow="visible" id="a5af7c4cn"><path d="M63.33-21.48c-4.35 9.37-10.4 14.73-19.9 14.73H23.9v-69.16l8.34-1.03v-5.7H3.31v5.7l8.8 1.03v69.16L3.42-5.72V0h57.85l6.75-19.44zm0 0"/></symbol><symbol overflow="visible" id="a5af7c4co"><path d="M88.14-40.47H56.92v6.17l10.86.8v22.64c-5.6 3.31-12.8 4.92-19.55 4.92-20.8 0-30.96-16.01-30.96-36.36 0-18.4 9.82-34.06 31.3-34.06 7.45 0 13.85 1.48 19.34 4.8 1.7 4.58 3.3 10.06 4.8 13.83h5.59l-.11-26.63h-6.63c0 1.72-.23 3.31-.58 5.03-7.2-2.86-14.17-4-23.09-4-26.4 0-43.55 19.31-43.55 41.95 0 24.24 16.7 43.2 44.02 43.2 10.86 0 22.52-2.16 31.1-8V-33.6l8.68-.69zm0 0"/></symbol><symbol overflow="visible" id="a5af7c4cp"><path d="M41.27-75.9c9.48 0 15.54 5.37 19.89 14.74l4.68-2.06-6.75-19.42H3.42v5.7L12-75.9v69.16L3.31-5.72V0h33.16v-5.72L23.78-6.75v-30.97h26.17l1.27 8.34h5.6v-21.71h-5.6l-1.16 6.62H23.78V-75.9zm0 0"/></symbol><symbol overflow="visible" id="a5af7c4cq"><path d="M104.6-76.94v-5.7H80.24L55.91-18.86 31.67-82.64H4.92v5.7l8.8 1.03v69.16l-8.8 1.03V0h23.9v-5.72l-8.35-1.03v-68.58L50.07-.1h5.02l29.4-75.8v69.16l-8.82 1.03V0h28.92v-5.72l-8.34-1.03v-69.16zm0 0"/></symbol><symbol overflow="visible" id="a5af7c4cr"><path d="M12.4-26.92v-2H1.48v2l3.33.36v24.2h-.1L1.37-2v2h10.99v-2l-3.11-.36v-24.2zm0 0"/></symbol><symbol overflow="visible" id="a5af7c4cs"><path d="M23.28-2.36V-13.8c0-3.89-2.42-6.84-6.3-6.84-3.15 0-5.62 2.05-7.39 4.05h-.43v-4H7.9l-6.61 4v1.15l3.4.16v12.92L1.37-2v2h10.94v-2l-3.15-.36v-11.48c1.42-1.88 3.28-3.64 5.87-3.64 2.9 0 3.81 2.32 3.81 5.25v9.87L15.52-2v2h10.92v-2zm0 0"/></symbol><symbol overflow="visible" id="a5af7c4ct"><path d="M14.81-4.2c-.86.64-2.15 1.48-3.53 1.48-1.56 0-2.34-.76-2.34-2.51v-12.18h6.6V-20h-6.6l.9-4.77h-1.1l-8.1 5.85v1.51h3.9v14.1C4.61-.56 6.3.64 9.24.64c2.42 0 5.31-1.87 6.66-3.48zm0 0"/></symbol><symbol overflow="visible" id="a5af7c4cu"><path d="M15.38-20.64c-2.2 0-3.97 2.72-5.88 5.4h-.34v-5.35H7.9l-6.61 4v1.15l3.4.16v12.92L1.37-2v2h11.38v-2l-3.6-.36v-10.16c1.82-2.56 2.82-3.84 3.85-3.84 1.05 0 1.52.64 2.47 2.16l3.84-2.88c-1.12-1.97-2.08-3.56-3.93-3.56zm0 0"/></symbol><symbol overflow="visible" id="a5af7c4cv"><path d="M1.52-10.05C1.52-4.8 5.58.65 12.7.65c6.66 0 10.8-4.85 10.8-10.57 0-5.92-4.45-10.67-11.23-10.67-6.52 0-10.75 4.64-10.75 10.54zm10.28-8.23c4.45 0 7.25 4.28 7.25 9.23 0 4.13-2.11 7.13-5.88 7.13-4.62 0-7.25-4.49-7.25-9 0-4.28 2.11-7.36 5.88-7.36zm0 0"/></symbol><symbol overflow="visible" id="a5af7c4cL"><path d="M13.14-12.95c7.47 0 12.52-2.53 12.52-8.18 0-5.39-5.1-7.8-11.7-7.8H1.3v2l3.28.37v24.2L1.25-2v2h12.23v-2l-4.45-.36v-10.6zm-.7-13.61c4.97 0 8.73 1.43 8.73 5.43 0 4.18-2.98 5.82-8.69 5.82H9.03v-11.25zm0 0"/></symbol><symbol overflow="visible" id="a5af7c4cw"><path d="M58.48-26.2c0-14.49-11.28-27-28-26.86-17.18.14-27.53 12.01-27.53 27 0 14.9 11.36 27.22 28 27.22 17.74 0 27.53-12.32 27.53-27.36zM11.75-27c0-11.95 4.9-21.75 17.95-21.75 13.61 0 19.99 11.23 19.99 24.92 0 10.22-4.97 20.66-17.19 20.66-14.53 0-20.75-11.3-20.75-23.83zm0 0"/></symbol><symbol overflow="visible" id="a5af7c4cx"><path d="M41.77-4.25v-20.52c0-6.98-3.58-12.39-10.9-12.39-5.82 0-10.42 3.53-13.76 7.43h-.86V-48.4l3.73-2.16-2.56-3.95-15.4 7.92v2.16l6.23.72v39.45l-6 .66V0h19.69v-3.6l-5.69-.65V-24.7c3.19-4.1 6.14-6.77 10.58-6.77 5.3 0 6.92 4.03 6.92 9.08v18.14l-5.98.66V0h19.67v-3.6zm0 0"/></symbol><symbol overflow="visible" id="a5af7c4cz"><path d="M43.08-13.53C40.13-7.63 36-4.25 29.55-4.25h-13.3v-43.56l5.69-.64v-3.61H2.25v3.6l6 .65v43.56l-5.92.66V0h39.36l4.58-12.23zm0 0"/></symbol><symbol overflow="visible" id="a5af7c4cA"><path d="M2.72-18.08c0 9.44 7.31 19.24 20.14 19.24 11.98 0 19.44-8.72 19.44-19.02 0-10.66-8-19.22-20.22-19.22-11.74 0-19.36 8.35-19.36 19zM21.23-32.9c8 0 13.07 7.7 13.07 16.64 0 7.41-3.82 12.82-10.58 12.82-8.33 0-13.06-8.07-13.06-16.2 0-7.7 3.8-13.26 10.57-13.26zm0 0"/></symbol><symbol overflow="visible" id="a5af7c4cB"><path d="M27.69-37.16c-3.97 0-7.16 4.91-10.58 9.72h-.63v-9.64h-2.25l-11.9 7.2v2.08l6.14.3v23.25l-5.99.66V0h20.46v-3.6l-6.46-.65v-18.28c3.27-4.61 5.07-6.92 6.93-6.92 1.87 0 2.71 1.15 4.43 3.89l6.93-5.19c-2.04-3.52-3.74-6.4-7.08-6.4zm0 0"/></symbol><symbol overflow="visible" id="a5af7c4cC"><path d="M39.66-6.34V-48.4l3.73-2.16-2.56-3.95-15.4 7.92v2.16l6.23.72v9.5a21.06 21.06 0 00-10.43-2.96c-10.8 0-18.51 8.94-18.51 19.88 0 9.36 5.98 18.44 16.95 18.44 4.9 0 9.03-2.54 11.99-5.47h.84v5.53h1.48l11.9-6.47V-9.5zM22.7-4.4c-8 0-12.04-6.99-12.04-14.9 0-7.13 3.65-13.18 11.04-13.18 4.11 0 7.7 2.3 9.96 5.4V-7.7a13.67 13.67 0 01-8.96 3.3zm0 0"/></symbol><symbol overflow="visible" id="a5af7c4cD"><path d="M7.7-54l2.72 34.13h4.13L17.27-54zm4.58 45c-2.8 0-5.05 2.1-5.05 4.69 0 2.65 2.25 4.75 5.05 4.75 2.9 0 5.14-2.1 5.14-4.75 0-2.6-2.25-4.69-5.14-4.69zm0 0"/></symbol><symbol overflow="visible" id="a5af7c4cE"><path d="M44.72-36H28.55v3.6l5.9.65-10.1 23.4-9.57-23.4h.08l5.67-.66V-36H.78v3.6l5.05.57L19.67.14 8.41 16.34h9.25l8.7-19.57h.08l-.08-.08 12.67-28.44 5.69-.66zm0 0"/></symbol><symbol overflow="visible" id="a5af7c4cF"><path d="M34.84-9.14c-2.87 3.23-6.45 4.53-10.8 4.53-9.26 0-13.62-8.28-13.62-15.98h26.83c-.23-9.94-6.69-16.57-15.94-16.57-12.22 0-18.6 9.3-18.6 19.74 0 9.94 6.93 18.58 18.91 18.58 7.93 0 12.99-3.9 15.7-8.64zM19.52-32.91c5.45 0 8.01 3.53 8.8 8.43H10.65c.78-4.25 3.8-8.43 8.86-8.43zm0 0"/></symbol><symbol overflow="visible" id="a5af7c4cG"><path d="M12.83-16.63l6.92 2.88c3.42 1.44 5.14 2.66 5.14 5.83 0 3.39-3.1 5.04-7.47 5.04-4.9 0-8.87-2.09-9.4-9.43h-3.5V-.64c4.57 1.36 9.09 1.8 13.53 1.8 9.01 0 13.76-4.25 13.76-10.88 0-4.97-3.18-8.14-8.25-10.3l-8.01-3.45c-2.33-1.01-4.43-2.16-4.43-5.19 0-3.03 2.26-4.82 5.91-4.82 5.9 0 7.94 3.3 8.7 8.93h3.58v-11.17c-4.89-.92-7.15-1.44-12.2-1.44-6.45 0-12.83 2.96-12.83 10.02 0 6.19 4.27 8.7 8.55 10.52zm0 0"/></symbol><symbol overflow="visible" id="a5af7c4cH"><path d="M8.55-7.84L3.1 10.58h3.66l9.56-13.03v-5.4zm0 0"/></symbol><symbol overflow="visible" id="a5af7c4cI"><path d="M12.9-45c2.88 0 5.15-2.1 5.15-4.69 0-2.65-2.27-4.75-5.14-4.75-2.8 0-5.05 2.1-5.05 4.75 0 2.6 2.25 4.69 5.05 4.69zm3.58 40.75v-32.83h-2.25l-11.9 7.2v2.08l6.14.3v23.25l-5.99.66V0h19.68v-3.6zm0 0"/></symbol><symbol overflow="visible" id="a5af7c4cJ"><path d="M41.92-4.25v-20.6c0-6.98-4.36-12.3-11.36-12.3-5.67 0-10.1 3.67-13.3 7.27h-.78v-7.2h-2.25l-11.9 7.2v2.08l6.14.3v23.25l-5.99.66V0h19.68v-3.6l-5.68-.65v-20.66c2.57-3.39 5.91-6.56 10.58-6.56 5.2 0 6.85 4.19 6.85 9.44v17.78l-5.99.66V0H47.6v-3.6zm0 0"/></symbol><symbol overflow="visible" id="a5af7c4cK"><path d="M11.44 1.08c2.87 0 5.12-2.1 5.12-4.67 0-2.68-2.25-4.77-5.12-4.77-2.81 0-5.06 2.1-5.06 4.77 0 2.57 2.25 4.67 5.06 4.67zm0 0"/></symbol><symbol overflow="visible" id="a5af7c4cM"><path d="M5.53-9.66a4.9 4.9 0 100 9.82 4.9 4.9 0 000-9.82zm0 9a4.08 4.08 0 110-8.16 4.08 4.08 0 010 8.16zm-1.2-4.71c.31 0 .47-.46.47-1 0-.55-.16-.97-.47-.97-.35 0-.52.42-.52.96 0 .55.17 1 .52 1zm2.4 0c.33 0 .52-.46.52-1 0-.55-.19-.97-.52-.97-.32 0-.46.42-.46.96 0 .55.14 1 .46 1zm1.4.68c-.32 1.5-1.33 2.22-2.6 2.22-1.26 0-2.28-.72-2.6-2.22h-.48a3 3 0 003.08 3.03 3 3 0 003.08-3.03zm0 0"/></symbol><symbol overflow="visible" id="a5af7c4cO"><path d="M7.55 0h1.33L5.8-4.28C7.58-4.5 8.36-5.45 8.36-6.9c0-1.61-1-2.61-3.17-2.61h-3.9V0h1.2v-4.16h2.04zM2.48-8.52h2.55c1.38 0 2.14.54 2.14 1.63 0 1.1-.73 1.73-2.12 1.73H2.48zm0 0"/></symbol><symbol overflow="visible" id="a5af7c4cP"><path d="M7.86-8.5v-1H1.28V0h6.58v-1.02h-5.4v-3.35h4.8v-.99h-4.8V-8.5zm0 0"/></symbol><symbol overflow="visible" id="a5af7c4cQ"><path d="M7.52 0h1.26L5.16-9.5H3.87L.13 0H1.4l.99-2.63h4.18zM2.75-3.6l1.77-4.68L6.2-3.61zm0 0"/></symbol><symbol overflow="visible" id="a5af7c4cR"><path d="M4.34-9.5H1.28V0h3.06c2.7 0 4.61-1.81 4.61-4.75S7.05-9.5 4.35-9.5zM4.16-1h-1.7v-7.52h1.7c2.28 0 3.6 1.4 3.6 3.77C7.77-2.37 6.42-1 4.17-1zm0 0"/></symbol><symbol overflow="visible" id="a5af7c4cS"><path d="M5.1.17c2.63 0 4.43-1.98 4.43-4.92s-1.8-4.92-4.42-4.92C2.48-9.67.69-7.7.69-4.75S2.49.17 5.1.17zm0-1c-1.94 0-3.22-1.5-3.22-3.92 0-2.44 1.28-3.94 3.23-3.94s3.23 1.5 3.23 3.94c0 2.42-1.28 3.92-3.23 3.92zm0 0"/></symbol><symbol overflow="visible" id="a5af7c4cT"><path d="M9.02-9.5l-2.9 7.63-2.9-7.63H1.28V0h1.2v-8.48L5.73 0h.79l3.21-8.47V0h1.2v-9.5zm0 0"/></symbol><symbol overflow="visible" id="a5af7c4cU"><path d="M7.98-9.5v8.55L3.08-9.5h-1.8V0h1.13v-8.55L7.3 0h1.8v-9.5zm0 0"/></symbol><symbol overflow="visible" id="a5af7c4cV"><path d="M2.69-9.5c-.24.97-.74 1.58-2.35 1.63v.98c1.03 0 1.68-.16 2.16-.6V0h1.2v-9.5zm0 0"/></symbol><symbol overflow="visible" id="a5af7c4cW"><path d="M7.53-3.3H6.3v-6.2H4.53L.33-3.3v.99h4.76V0h1.2v-2.31h1.24zm-6.05 0L5.1-8.6v5.3zm0 0"/></symbol><symbol overflow="visible" id="a5af7c4cX"><path d="M5.2-9.5H1.28V0h1.2v-4.16h2.63c2.17 0 3.25-1.14 3.25-2.7 0-1.64-.98-2.64-3.16-2.64zm-.18 4.34H2.48v-3.36h2.54c1.5 0 2.15.6 2.15 1.66 0 1.02-.65 1.7-2.15 1.7zm0 0"/></symbol><symbol overflow="visible" id="a5af7c4cY"><path d="M7.8-9.5H.3v.97h3.16V0h1.17v-8.53H7.8zm0 0"/></symbol><symbol overflow="visible" id="a5af7c4cZ"><path d="M4.52.17c2.3 0 3.62-1.14 3.62-2.8 0-1.35-.92-2.2-2.45-2.56l-2.14-.48c-1.1-.25-1.46-.72-1.46-1.4 0-.91.77-1.62 2.14-1.62 1.4 0 2.32.58 2.5 1.85h1.25C7.77-8.8 6.31-9.67 4.25-9.67c-2.1 0-3.4 1.19-3.4 2.73 0 1.24.76 2.1 2.17 2.4l2.2.5c1.1.24 1.67.74 1.67 1.57 0 .92-.76 1.64-2.37 1.64-1.55 0-2.55-.65-2.72-2H.55c.18 1.92 1.47 3 3.97 3zm0 0"/></symbol><symbol overflow="visible" id="a5af7c4caa"><path d="M.27-9.5v.97H5.3L1.28 0h1.24l3.92-8.55v-.95zm0 0"/></symbol><symbol overflow="visible" id="a5af7c4cab"><path d="M3.08-2.72L5.25-4c1.53-.9 1.84-1.78 1.84-2.81 0-1.63-1.1-2.86-3.07-2.86C1.94-9.67.8-8.34.73-6.47h1.15c.07-1.36.8-2.22 2.14-2.22 1.3 0 1.89.88 1.89 1.88 0 .83-.36 1.42-1.3 1.97l-1.9 1.1C1.22-2.85.64-1.8.64-.4V0h6.46v-.98H1.81c.14-.82.58-1.33 1.27-1.74zm0 0"/></symbol></defs><path fill="#12100b" d="M0 0h1366v768H0z"/><use xlink:href="#a5af7c4ca" x="403.9619" y="159.791" fill="#fff"/><g fill="#fff"><use xlink:href="#a5af7c4cb" x="440.689928" y="159.791"/><use xlink:href="#a5af7c4cc" x="520.364486" y="159.791"/><use xlink:href="#a5af7c4cd" x="548.713539" y="159.791"/></g><use xlink:href="#a5af7c4ce" x="630.045602" y="159.791" fill="#fff"/><use xlink:href="#a5af7c4ca" x="717.458995" y="159.791" fill="#fff"/><use xlink:href="#a5af7c4cf" x="751.054909" y="159.791" fill="#fff"/><use xlink:href="#a5af7c4cg" x="815.651886" y="159.791" fill="#fff"/><g fill="#fff"><use xlink:href="#a5af7c4cf" x="886.284468" y="159.791"/><use xlink:href="#a5af7c4cc" x="954.756577" y="159.791"/></g><use xlink:href="#a5af7c4ch" x="200.603165" y="263.813737" fill="#fff"/><use xlink:href="#a5af7c4ci" x="279.226064" y="263.813737" fill="#fff"/><use xlink:href="#a5af7c4cj" x="365.747833" y="263.813737" fill="#fff"/><use xlink:href="#a5af7c4cf" x="453.389847" y="263.813737" fill="#fff"/><g fill="#fff"><use xlink:href="#a5af7c4ch" x="517.838219" y="263.813737"/><use xlink:href="#a5af7c4ca" x="597.169845" y="263.813737"/></g><use xlink:href="#a5af7c4ci" x="630.834346" y="263.813737" fill="#fff"/><use xlink:href="#a5af7c4ck" x="717.927669" y="263.813737" fill="#fff"/><g fill="#fff"><use xlink:href="#a5af7c4cf" x="799.385473" y="263.813737"/><use xlink:href="#a5af7c4cj" x="863.056533" y="263.813737"/></g><use xlink:href="#a5af7c4cg" x="953.567746" y="263.813737" fill="#fff"/><use xlink:href="#a5af7c4cf" x="1024.200327" y="263.813737" fill="#fff"/><use xlink:href="#a5af7c4cf" x="1089.483168" y="263.813737" fill="#fff"/><use xlink:href="#a5af7c4cc" x="1157.955277" y="263.813737" fill="#fff"/><use xlink:href="#a5af7c4ca" x="126.987074" y="367.836474" fill="#fff"/><use xlink:href="#a5af7c4cj" x="162.206201" y="367.836474" fill="#fff"/><use xlink:href="#a5af7c4cl" x="254.603539" y="367.836474" fill="#fff"/><use xlink:href="#a5af7c4ca" x="339.696424" y="367.836474" fill="#fff"/><use xlink:href="#a5af7c4cb" x="376.413021" y="367.836474" fill="#fff"/><use xlink:href="#a5af7c4cg" x="455.24168" y="367.836474" fill="#fff"/><use xlink:href="#a5af7c4cf" x="525.874262" y="367.836474" fill="#fff"/><g fill="#fff"><use xlink:href="#a5af7c4cc" x="594.346371" y="367.836474"/><use xlink:href="#a5af7c4cm" x="622.695424" y="367.836474"/><use xlink:href="#a5af7c4ca" x="704.313264" y="367.836474"/></g><use xlink:href="#a5af7c4ce" x="741.612846" y="367.836474" fill="#fff"/><use xlink:href="#a5af7c4cn" x="829.163411" y="367.836474" fill="#fff"/><use xlink:href="#a5af7c4ci" x="895.897997" y="367.836474" fill="#fff"/><g fill="#fff"><use xlink:href="#a5af7c4co" x="985.12893" y="367.836474"/><use xlink:href="#a5af7c4ck" x="1072.462305" y="367.836474"/></g><use xlink:href="#a5af7c4cg" x="1157.578052" y="367.836474" fill="#fff"/><use xlink:href="#a5af7c4cc" x="1231.651385" y="367.836474" fill="#fff"/><use xlink:href="#a5af7c4ce" x="130.873638" y="471.859211" fill="#fff"/><use xlink:href="#a5af7c4cj" x="217.532579" y="471.859211" fill="#fff"/><g fill="#fff"><use xlink:href="#a5af7c4cm" x="307.472238" y="471.859211"/><use xlink:href="#a5af7c4cc" x="392.862331" y="471.859211"/><use xlink:href="#a5af7c4cb" x="421.211385" y="471.859211"/></g><use xlink:href="#a5af7c4cd" x="500.051474" y="471.859211" fill="#fff"/><use xlink:href="#a5af7c4ce" x="581.383537" y="471.859211" fill="#fff"/><use xlink:href="#a5af7c4cj" x="668.042479" y="471.859211" fill="#fff"/><use xlink:href="#a5af7c4cf" x="755.684493" y="471.859211" fill="#fff"/><use xlink:href="#a5af7c4cp" x="820.350056" y="471.859211" fill="#fff"/><use xlink:href="#a5af7c4ci" x="886.993194" y="471.859211" fill="#fff"/><g fill="#fff"><use xlink:href="#a5af7c4cd" x="974.463742" y="471.859211"/><use xlink:href="#a5af7c4cq" x="1053.681057" y="471.859211"/></g><g fill="#fff"><use xlink:href="#a5af7c4cf" x="1159.258419" y="471.859211"/><use xlink:href="#a5af7c4cc" x="1227.730528" y="471.859211"/></g><use xlink:href="#a5af7c4ch" x="423.394719" y="575.881948" fill="#fff"/><g fill="#fff"><use xlink:href="#a5af7c4ck" x="503.537951" y="575.881948"/><use xlink:href="#a5af7c4cn" x="588.699422" y="575.881948"/></g><g fill="#fff"><use xlink:href="#a5af7c4cb" x="644.997442" y="575.881948"/><use xlink:href="#a5af7c4ck" x="724.443379" y="575.881948"/><use xlink:href="#a5af7c4cd" x="809.60485" y="575.881948"/></g><use xlink:href="#a5af7c4cg" x="889.679495" y="575.881948" fill="#fff"/><use xlink:href="#a5af7c4cr" x="56" y="74.2793"/><use xlink:href="#a5af7c4cs" x="69.4352" y="74.2793"/><use xlink:href="#a5af7c4ct" x="95.0528" y="74.2793"/><use xlink:href="#a5af7c4cu" x="111.49904" y="74.2793"/><use xlink:href="#a5af7c4cv" x="130.48112" y="74.2793"/><use xlink:href="#a5af7c4cw" x="284.7676" y="694.5029" fill="#fff"/><g fill="#fff"><use xlink:href="#a5af7c4cx" x="343.282" y="694.5029"/><use xlink:href="#a5af7c4cy" x="391.72648" y="694.5029"/><use xlink:href="#a5af7c4cz" x="410.23336" y="694.5029"/></g><use xlink:href="#a5af7c4cA" x="456.243952" y="694.5029" fill="#fff"/><use xlink:href="#a5af7c4cB" x="498.949744" y="694.5029" fill="#fff"/><use xlink:href="#a5af7c4cC" x="532.31656" y="694.5029" fill="#fff"/><g fill="#fff"><use xlink:href="#a5af7c4cD" x="576.554224" y="694.5029"/><use xlink:href="#a5af7c4cy" x="600.893104" y="694.5029"/><use xlink:href="#a5af7c4cE" x="619.399984" y="694.5029"/></g><use xlink:href="#a5af7c4cF" x="661.20376" y="694.5029" fill="#fff"/><use xlink:href="#a5af7c4cG" x="699.438352" y="694.5029" fill="#fff"/><g fill="#fff"><use xlink:href="#a5af7c4cH" x="731.374384" y="694.5029"/><use xlink:href="#a5af7c4cy" x="763.100464" y="694.5029"/><use xlink:href="#a5af7c4cI" x="781.607344" y="694.5029"/></g><use xlink:href="#a5af7c4cJ" x="804.927568" y="694.5029" fill="#fff"/><use xlink:href="#a5af7c4cC" x="850.992592" y="694.5029" fill="#fff"/><use xlink:href="#a5af7c4cF" x="897.042064" y="694.5029" fill="#fff"/><use xlink:href="#a5af7c4cF" x="935.673232" y="694.5029" fill="#fff"/><use xlink:href="#a5af7c4cC" x="974.3044" y="694.5029" fill="#fff"/><use xlink:href="#a5af7c4cD" x="1018.542064" y="694.5029" fill="#fff"/><g fill="#fff"><use xlink:href="#a5af7c4cK" x="1039.475056" y="694.5029"/><use xlink:href="#a5af7c4cy" x="1062.725296" y="694.5029"/></g><use xlink:href="#a5af7c4cL" x="1191.1528" y="74.2793"/><use xlink:href="#a5af7c4cv" x="1216.2088" y="74.2793"/><use xlink:href="#a5af7c4cu" x="1240.2928" y="74.2793"/><use xlink:href="#a5af7c4ct" x="1260.73072" y="74.2793"/><use xlink:href="#a5af7c4cv" x="1275.9976" y="74.2793"/><use xlink:href="#a5af7c4cM" x="619.2275" y="736.8955" fill="#c1d11a"/><g fill="#c1d11a"><use xlink:href="#a5af7c4cN" x="630.6655" y="736.8955"/><use xlink:href="#a5af7c4cO" x="634.4315" y="736.8955"/></g><use xlink:href="#a5af7c4cP" x="643.8927" y="736.8955" fill="#c1d11a"/><g fill="#c1d11a"><use xlink:href="#a5af7c4cQ" x="653.0669" y="736.8955"/><use xlink:href="#a5af7c4cR" x="662.3209" y="736.8955"/></g><use xlink:href="#a5af7c4cP" x="672.3029" y="736.8955" fill="#c1d11a"/><use xlink:href="#a5af7c4cO" x="680.9311" y="736.8955" fill="#c1d11a"/><g fill="#c1d11a"><use xlink:href="#a5af7c4cN" x="690.5631" y="736.8955"/><use xlink:href="#a5af7c4cO" x="694.3291" y="736.8955"/></g><g fill="#c1d11a"><use xlink:href="#a5af7c4cS" x="703.7469" y="736.8955"/><use xlink:href="#a5af7c4cT" x="714.2469" y="736.8955"/></g><g fill="#c1d11a"><use xlink:href="#a5af7c4cQ" x="726.7811" y="736.8955"/><use xlink:href="#a5af7c4cU" x="736.0351" y="736.8955"/></g><use xlink:href="#a5af7c4cM" x="650.7835" y="55.8935" fill="#c1d11a"/><g fill="#c1d11a"><use xlink:href="#a5af7c4cN" x="662.2215" y="55.8935"/><use xlink:href="#a5af7c4cV" x="665.9875" y="55.8935"/><use xlink:href="#a5af7c4cV" x="671.1815" y="55.8935"/><use xlink:href="#a5af7c4cW" x="676.3755" y="55.8935"/></g><g fill="#c1d11a"><use xlink:href="#a5af7c4cN" x="684.7895" y="55.8935"/><use xlink:href="#a5af7c4cX" x="688.5555" y="55.8935"/></g><use xlink:href="#a5af7c4cY" x="697.8081" y="55.8935" fill="#c1d11a"/><use xlink:href="#a5af7c4cZ" x="706.1423" y="55.8935" fill="#c1d11a"/><g fill="#c1d11a"><use xlink:href="#a5af7c4cM" x="652.5755" y="612.8975"/><use xlink:href="#a5af7c4cN" x="664.0135" y="612.8975"/><use xlink:href="#a5af7c4caa" x="667.7795" y="612.8975"/></g><g fill="#c1d11a"><use xlink:href="#a5af7c4cab" x="674.7697" y="612.8975"/><use xlink:href="#a5af7c4cN" x="682.9877" y="612.8975"/><use xlink:href="#a5af7c4cX" x="686.7537" y="612.8975"/></g><g fill="#c1d11a"><use xlink:href="#a5af7c4cY" x="696.0063" y="612.8975"/></g><g fill="#c1d11a"><use xlink:href="#a5af7c4cZ" x="704.3405" y="612.8975"/></g></svg>