<?xml version="1.0" encoding="UTF-8"?>
<svg id="Layer_1" data-name="Layer 1" xmlns="http://www.w3.org/2000/svg" xmlns:xlink="http://www.w3.org/1999/xlink" viewBox="0 0 1366 768">
  <defs>
    <style>
      .cls-1 {
        clip-path: url(#clippath);
      }

      .cls-2 {
        fill: #c572ff;
      }

      .cls-2, .cls-3 {
        stroke-width: 0px;
      }

      .cls-4, .cls-3 {
        fill: #12100b;
      }
    </style>
    <clipPath id="clippath">
      <rect class="cls-3" x="-10" y="-10" width="1386" height="788"/>
    </clipPath>
  </defs>
  <g>
    <rect class="cls-4" x="-10" y="-10" width="1386" height="788"/>
    <g class="cls-1">
      <rect class="cls-3" x="-.35" y="-3.25" width="1366.71" height="779.89"/>
    </g>
  </g>
  <g>
    <path class="cls-2" d="M477.94,449.75l-7.01,11.76c-42.54-17.77-69.57-47.3-87.34-81.08h-24.77v66.31l21.02,2.25v12.51h-66.06v-12.51l19.27-2.25v-151.4l-19.02-2.25v-12.51h78.33c42.29,0,67.57,17.52,67.57,48.8,0,26.53-20.27,42.54-46.3,48.3,14.26,29.53,33.78,51.55,64.31,72.07ZM384.85,365.67c30.03,0,46.8-12.01,46.8-36.29,0-23.02-19.77-33.78-48.05-33.78-4.5,0-15.77,0-24.77-.25v70.32h26.03Z"/>
    <path class="cls-2" d="M549,332.63c39.29,0,65.06,29.78,65.06,66.82s-24.02,66.06-62.56,66.06c-41.29,0-64.81-34.03-64.81-66.82,0-37.04,24.52-66.06,62.31-66.06ZM512.22,393.19c0,28.28,15.27,56.3,42.04,56.3,21.77,0,34.03-18.77,34.03-44.54,0-31.03-16.27-57.81-42.04-57.81-21.77,0-34.03,19.27-34.03,46.04Z"/>
    <path class="cls-2" d="M775.97,449v12.51h-63.31v-12.51l19.27-2.25v-61.81c0-18.27-5.25-32.78-22.02-32.78-15.01,0-25.78,11.01-34.03,22.77v71.82l18.27,2.25v12.51h-63.31v-12.51l19.27-2.25v-80.83l-19.77-1v-7.26l38.29-25.02h7.26v25.02h2.5c10.26-12.51,24.52-25.27,42.79-25.27,22.52,0,36.54,18.52,36.54,42.79v71.57l18.27,2.25Z"/>
    <path class="cls-2" d="M927.36,428.48v14.76l-38.29,22.52h-4.75v-19.27h-2.75c-9.51,10.26-22.77,19.02-38.54,19.02-35.29,0-54.55-31.53-54.55-64.06,0-38.04,24.77-69.07,59.56-69.07,12.26,0,24.02,4.25,33.53,10.26v-33.03l-20.02-2.5v-7.51l49.55-27.53,8.26,13.76-12.01,7.51v146.14l20.02-11.01ZM881.57,434.73v-67.32c-7.26-10.76-18.77-18.77-32.03-18.77-23.77,0-35.53,21.02-35.53,45.79,0,27.53,13.01,51.8,38.79,51.8,11.26,0,21.27-4.5,28.78-11.51Z"/>
    <path class="cls-2" d="M1054.48,447v12.01c-5.25,2.25-9.51,4.5-16.52,4.5-10.51,0-18.77-5-22.52-15.51h-3c-10.26,10.01-23.52,17.52-39.04,17.52-23.27,0-34.78-15.51-34.78-33.28s14.01-27.53,29.28-32.78c13.01-4.5,28.28-9.26,44.54-14.01v-14.51c0-16.77-9.01-25.27-23.77-25.27-10.26,0-18.27,3.75-18.27,13.51,0,3.5,1.5,8.01,4,11.01l-26.03,5.5c-2.25-4-3-8.26-3-12.76,0-18.27,21.27-30.53,45.79-30.53,30.03,0,47.3,9.76,47.3,36.79v67.32c0,6.51,1.75,12.51,7.76,12.51,3,0,5.5-.75,8.26-2ZM1012.44,433.98v-36.04c-11.51,3.25-22.27,6.51-30.78,9.51-12.51,4.25-17.02,12.51-17.02,21.77,0,12.76,10.26,19.77,21.52,19.77s19.77-6.76,26.28-15.01Z"/>
  </g>
</svg>