<?xml version='1.0' encoding='UTF-8'?>
<svg xmlns="http://www.w3.org/2000/svg" xmlns:xlink="http://www.w3.org/1999/xlink" width="1366px" height="768px" viewBox="0 0 1366 768" x="0px" y="0px" enable-background="new 0 0 1366 768"><defs><symbol overflow="visible" id="174e2c24a"><path d="M84.66-78.6L48.25-96.4c-7.9-3.8-14.55-10-14.55-19.4 0-12.6 9.77-19.2 26.61-19.2 9.99 0 18.31 2 26.42 8.2 2.91 6.4 5.63 14.8 7.29 20.4h10.6l-.62-41.2H91.94c0 2.8-.42 5.2-1.25 7.8-8.94-5.2-19.35-7.8-32.46-7.8-25.57 0-44.71 14.8-44.71 37.2 0 17.8 9.15 28.6 25.37 36l32.66 14.8c12.9 5.8 20.39 14 20.39 25 0 16.4-12.69 25-30.38 25-11.01 0-21-2.4-28.48-8.2-3.13-6.8-6.03-15.4-9.16-26.6h-10.6l1.45 36.8c13.3 7 29.95 10.8 46.17 10.8 33.9 0 51.6-17.8 51.6-40.6 0-20-10.82-32.8-27.88-41.2zM38.06-9l.83 1.2c-.2-.4-.4-.8-.83-1.2zm0 0"/></symbol><symbol overflow="visible" id="174e2c24b"><path d="M149.77-144.6h-43.49v10l16.02 1.8v84.4c0 25.4-13.92 36.8-37.85 36.8-29.12 0-42.64-14.6-42.64-38v-83.2l15.17-1.8v-10H4.38v10l16.01 1.8V-49c.2 36.8 24.75 52 59.9 52 34.74 0 54.08-19 54.29-52v-83.8l15.19-1.8zm0 0"/></symbol><symbol overflow="visible" id="174e2c24c"><path d="M89.03-67c21.63-4.6 38.47-17.4 38.47-38.6 0-25-21-39-56.16-39H6.24v10l15.8 1.8v121l-16 1.8V0h54.9v-10l-17.47-1.8v-53h20.6c14.76 27 37.23 50.6 72.59 64.8l5.82-9.4c-25.37-16.4-41.6-34-53.45-57.6zm-45.56-9.6v-56.2c7.48.2 16.84.2 20.6.2 23.5 0 39.93 8.6 39.93 27 0 19.4-13.94 29-38.9 29zm0 0"/></symbol><symbol overflow="visible" id="174e2c24d"><path d="M63.23-64.8c35.99 0 60.32-12.6 60.32-40.8 0-27-24.53-39-56.36-39H6.23v10l15.82 1.8v121L6.03-10V0H64.9v-10l-21.42-1.8v-53zm-3.32-68c23.92 0 42.01 7.2 42.01 27.2 0 20.8-14.36 29-41.81 29H43.47v-56.2zm0 0"/></symbol><symbol overflow="visible" id="174e2c24e"><path d="M115.23-37.6c-7.9 16.4-18.93 25.8-36.18 25.8H43.47v-121l15.19-1.8v-10H6.03v10l16.02 1.8v121L6.23-10V0h105.25l12.29-34zm0 0"/></symbol><symbol overflow="visible" id="174e2c24f"><path d="M141.03-11.8l-57.2-132.8H67.19L17.27-11.8 2.07-10V0h45.35v-10l-17.67-1.8L41.81-44h61.56l13.32 32.2-16.02 1.8V0h54.9v-10zM46.8-57.4l23.92-64.2 27.05 64.2zm0 0"/></symbol><symbol overflow="visible" id="174e2c24g"><path d="M30.58 3C38.27 3 44.3-2.8 44.3-10c0-7.4-6.03-13.2-13.72-13.2-7.49 0-13.52 5.8-13.52 13.2 0 7.2 6.03 13 13.52 13zm0 0"/></symbol><symbol overflow="visible" id="174e2c24h"><path d="M94.22-78.8c11.03-3.2 29.33-10.8 29.33-31.8 0-28-33.9-34-60.74-34H6.23v10l15.4 1.8v121L6.22-10V0h66.99c36.6 0 59.28-14 59.28-41.4 0-21.4-17.06-33-38.28-37.4zm-28.9-53.8c19.13 0 34.3 6.8 34.3 24.4 0 17.4-14.76 25.6-34.73 25.6H42.84v-50zm2.7 120.8H42.84v-59h28.08c23.1 0 37.66 9.8 37.66 28.8 0 19.8-14.36 30.2-40.56 30.2zm0 0"/></symbol><symbol overflow="visible" id="174e2c24i"><path d="M130.83-33.4C119.59-20.2 106.08-12 86.93-12c-34.3 0-54.07-27-54.07-60 0-34.6 13.94-64.2 48.89-64.2 23.08 0 34.94 11 43.05 29l13.3-2.8-8.72-39.4-12.07 1.8 1.66 8.8c-11.22-6.6-23.08-8.6-34.52-8.6-45.97 0-75.1 34.6-75.1 75C9.36-30 38.28 3.2 83.62 3.2c26.62 0 45.97-14.2 56.17-30.4zm0 0"/></symbol><symbol overflow="visible" id="174e2c24j"><path d="M16.02-23.6l10.4 5.1c4.56 2.3 6.86 3.7 6.86 7.5 0 4.7-4.16 7-9.98 7-6.55 0-11.86-2.9-12.58-13.1H6.03v15.3C12.48.4 18.2 1.6 24.13 1.6c12.06 0 18.4-5.6 18.4-14.8 0-6.3-4.26-10.6-11.01-14L20.8-32.6c-3.33-1.7-5.93-3.8-5.93-7.4 0-3.9 2.91-6.5 7.7-6.5 8 0 10.82 5.5 11.85 12.4h4.78v-15.5c-6.54-1.3-9.56-2-16.33-2-8.62 0-17.15 3.7-17.15 13.5 0 7.2 4.58 11.7 10.3 14.5zm0 0"/></symbol><symbol overflow="visible" id="174e2c24k"><path d="M55.33-9.5v-42H52.3l-15.9 10v2.9l8.1.4v26.3c-3.43 3.2-7.59 5.6-11.65 5.6-7.9 0-10.81-4.4-10.81-12v-33.2h-3.02l-15.9 10v2.9l8.1.4v23.7c0 9.1 4.99 16.1 15.29 16.1 7.39 0 13.62-4.5 18.09-8.9h1.05v9h1.97l15.92-10v-5.9zm0 0"/></symbol><symbol overflow="visible" id="174e2c24l"><path d="M37.03-51.6c-5.31 0-9.58 6.8-14.16 13.5h-.82v-13.4h-3.02l-15.9 10v2.9l8.21.4v32.3L3.33-5v5h27.36v-5l-8.64-.9v-25.4c4.37-6.4 6.76-9.6 9.25-9.6 2.5 0 3.64 1.6 5.93 5.4l9.25-7.2c-2.7-4.9-4.98-8.9-9.45-8.9zm0 0"/></symbol><symbol overflow="visible" id="174e2c24m"><path d="M39.31-51.6c-7.48 0-12.58 4.6-16.53 10.3h-.73v-10.2h-3.02l-15.9 10v2.9l8.21.4v55l-8.01.9v5h27.36v-5l-8.64-.9V-3.9c3.84 2.9 8.84 5.4 14.67 5.4 12.47 0 23.7-10.5 23.7-27.7 0-12.2-7.9-25.4-21.1-25.4zM35.36-4.9c-5.3 0-9.56-2.2-13.31-6.3v-24c2.8-4.2 7.39-8.6 13.62-8.6 9.88 0 14.14 9.2 14.14 20.2 0 10.4-4.47 18.7-14.45 18.7zm0 0"/></symbol><symbol overflow="visible" id="174e2c24n"><path d="M21.73-5.9v-61.3l5-3-3.43-5.5-20.6 11v3l8.33 1v54.8L3.02-5v5h26.3v-5zm0 0"/></symbol><symbol overflow="visible" id="174e2c24o"><path d="M47.31-5c-2.48 0-3.22-2.4-3.22-5v-26.9c0-10.8-7.17-14.7-19.65-14.7-10.19 0-19.03 4.9-19.03 12.2 0 1.8.3 3.5 1.25 5.1l10.8-2.2a7.31 7.31 0 01-1.65-4.4c0-3.9 3.33-5.4 7.6-5.4 6.12 0 9.87 3.4 9.87 10.1v5.8c-6.76 1.9-13.1 3.8-18.51 5.6-6.35 2.1-12.18 6.3-12.18 13.1 0 7.1 4.8 13.3 14.47 13.3 6.44 0 11.96-3 16.22-7h1.25C36.1-1.2 39.52.8 43.9.8c2.9 0 4.67-.9 6.86-1.8v-4.8a8.2 8.2 0 01-3.44.8zM22.36-5c-4.67 0-8.94-2.8-8.94-7.9 0-3.7 1.86-7 7.06-8.7 3.55-1.2 8.02-2.5 12.8-3.8V-11c-2.7 3.3-6.45 6-10.92 6zm0 0"/></symbol><symbol overflow="visible" id="174e2c24p"><path d="M15.28 1.5c3.86 0 6.88-2.9 6.88-6.5 0-3.7-3.02-6.6-6.88-6.6A6.63 6.63 0 008.53-5c0 3.6 3.02 6.5 6.75 6.5zm0 0"/></symbol><symbol overflow="visible" id="174e2c24q"><path d="M38.06-51.6c-7.69 0-13.42 5.4-16.53 11.1h-.83v-26.7l4.99-3-3.44-5.5-20.6 11v3l8.33 1V-1C18.3.5 25.06 1.6 32.86 1.6c16.02 0 26-13.6 26-28.3 0-12-6.97-24.9-20.8-24.9zM34.02-4c-5.2 0-10.3-2.4-13.32-6.1v-23c3.11-6.5 7.7-10.8 13.93-10.8 9.15 0 13.42 10 13.42 19.7C48.05-13.5 43.69-4 34.02-4zm0 0"/></symbol><symbol overflow="visible" id="174e2c24r"><path d="M29.22-45.7c-9.56 0-15.7 8.2-15.7 18.5 0 10.5 5.93 20.7 19.14 20.7 6.03 0 10.6-2.4 14.25-6.5l3.32 1.8c-2.6 6.7-9.46 12.8-21.21 12.8-15.2 0-25.38-11.2-25.38-25.2 0-15.3 10.19-27.9 27.34-27.9 5.74 0 11.04 1.4 14.79 4.3 2.17 1.7 3.73 4.4 3.73 6.9 0 2.8-1.77 4.7-4.27 4.7-2.8 0-4.46-1.2-5.6-3.7-1.68-3.7-4.9-6.4-10.41-6.4zm0 0"/></symbol><symbol overflow="visible" id="174e2c24s"><path d="M5.53-9.66a4.9 4.9 0 100 9.82 4.9 4.9 0 000-9.82zm0 9a4.08 4.08 0 110-8.16 4.08 4.08 0 010 8.16zm-1.2-4.71c.31 0 .47-.46.47-1 0-.55-.16-.97-.47-.97-.35 0-.52.42-.52.96 0 .55.17 1 .52 1zm2.4 0c.33 0 .52-.46.52-1 0-.55-.19-.97-.52-.97-.32 0-.46.42-.46.96 0 .55.14 1 .46 1zm1.4.68c-.32 1.5-1.33 2.22-2.6 2.22-1.26 0-2.28-.72-2.6-2.22h-.48a3 3 0 003.08 3.03 3 3 0 003.08-3.03zm0 0"/></symbol><symbol overflow="visible" id="174e2c24u"><path d="M7.55 0h1.33L5.8-4.28C7.58-4.5 8.36-5.45 8.36-6.9c0-1.61-1-2.61-3.17-2.61h-3.9V0h1.2v-4.16h2.04zM2.48-8.52h2.55c1.38 0 2.14.54 2.14 1.63 0 1.1-.73 1.73-2.12 1.73H2.48zm0 0"/></symbol><symbol overflow="visible" id="174e2c24v"><path d="M7.86-8.5v-1H1.28V0h6.58v-1.02h-5.4v-3.35h4.8v-.99h-4.8V-8.5zm0 0"/></symbol><symbol overflow="visible" id="174e2c24w"><path d="M7.52 0h1.26L5.16-9.5H3.87L.13 0H1.4l.99-2.63h4.18zM2.75-3.6l1.77-4.68L6.2-3.61zm0 0"/></symbol><symbol overflow="visible" id="174e2c24x"><path d="M4.34-9.5H1.28V0h3.06c2.7 0 4.61-1.81 4.61-4.75S7.05-9.5 4.35-9.5zM4.16-1h-1.7v-7.52h1.7c2.28 0 3.6 1.4 3.6 3.77C7.77-2.37 6.42-1 4.17-1zm0 0"/></symbol><symbol overflow="visible" id="174e2c24y"><path d="M5.1.17c2.63 0 4.43-1.98 4.43-4.92s-1.8-4.92-4.42-4.92C2.48-9.67.69-7.7.69-4.75S2.49.17 5.1.17zm0-1c-1.94 0-3.22-1.5-3.22-3.92 0-2.44 1.28-3.94 3.23-3.94s3.23 1.5 3.23 3.94c0 2.42-1.28 3.92-3.23 3.92zm0 0"/></symbol><symbol overflow="visible" id="174e2c24z"><path d="M9.02-9.5l-2.9 7.63-2.9-7.63H1.28V0h1.2v-8.48L5.73 0h.79l3.21-8.47V0h1.2v-9.5zm0 0"/></symbol><symbol overflow="visible" id="174e2c24A"><path d="M7.98-9.5v8.55L3.08-9.5h-1.8V0h1.13v-8.55L7.3 0h1.8v-9.5zm0 0"/></symbol><symbol overflow="visible" id="174e2c24B"><path d="M3.08-2.72L5.25-4c1.53-.9 1.84-1.78 1.84-2.81 0-1.63-1.1-2.86-3.07-2.86C1.94-9.67.8-8.34.73-6.47h1.15c.07-1.36.8-2.22 2.14-2.22 1.3 0 1.89.88 1.89 1.88 0 .83-.36 1.42-1.3 1.97l-1.9 1.1C1.22-2.85.64-1.8.64-.4V0h6.46v-.98H1.81c.14-.82.58-1.33 1.27-1.74zm0 0"/></symbol><symbol overflow="visible" id="174e2c24C"><path d="M4.52.17c2.4 0 3.8-2.03 3.8-4.9 0-2.88-1.4-4.94-3.8-4.94S.73-7.61.73-4.73c0 2.87 1.4 4.9 3.79 4.9zm0-1.04c-1.7 0-2.63-1.49-2.63-3.86 0-2.38.92-3.91 2.63-3.91s2.64 1.53 2.64 3.9c0 2.38-.93 3.87-2.64 3.87zm0 0"/></symbol><symbol overflow="visible" id="174e2c24D"><path d="M5.2-9.5H1.28V0h1.2v-4.16h2.63c2.17 0 3.25-1.14 3.25-2.7 0-1.64-.98-2.64-3.16-2.64zm-.18 4.34H2.48v-3.36h2.54c1.5 0 2.15.6 2.15 1.66 0 1.02-.65 1.7-2.15 1.7zm0 0"/></symbol><symbol overflow="visible" id="174e2c24E"><path d="M7.8-9.5H.3v.97h3.16V0h1.17v-8.53H7.8zm0 0"/></symbol><symbol overflow="visible" id="174e2c24F"><path d="M4.52.17c2.3 0 3.62-1.14 3.62-2.8 0-1.35-.92-2.2-2.45-2.56l-2.14-.48c-1.1-.25-1.46-.72-1.46-1.4 0-.91.77-1.62 2.14-1.62 1.4 0 2.32.58 2.5 1.85h1.25C7.77-8.8 6.31-9.67 4.25-9.67c-2.1 0-3.4 1.19-3.4 2.73 0 1.24.76 2.1 2.17 2.4l2.2.5c1.1.24 1.67.74 1.67 1.57 0 .92-.76 1.64-2.37 1.64-1.55 0-2.55-.65-2.72-2H.55c.18 1.92 1.47 3 3.97 3zm0 0"/></symbol><symbol overflow="visible" id="174e2c24G"><path d="M2.69-9.5c-.24.97-.74 1.58-2.35 1.63v.98c1.03 0 1.68-.16 2.16-.6V0h1.2v-9.5zm0 0"/></symbol></defs><path fill="#12100b" d="M0 0h1366v768H0z"/><g fill="#fff"><use xlink:href="#174e2c24a" x="48" y="416.3975"/><use xlink:href="#174e2c24b" x="163.856" y="416.3975"/></g><use xlink:href="#174e2c24c" x="317.9008" y="416.3975" fill="#fff"/><use xlink:href="#174e2c24d" x="462.8768" y="416.3975" fill="#fff"/><use xlink:href="#174e2c24e" x="585.784" y="416.3975" fill="#fff"/><use xlink:href="#174e2c24b" x="703.304" y="416.3975" fill="#fff"/><use xlink:href="#174e2c24a" x="850.6928" y="416.3975" fill="#fff"/><use xlink:href="#174e2c24f" x="48" y="232.3975" fill="#fff"/><use xlink:href="#174e2c24g" x="202.8768" y="232.3975" fill="#fff"/><use xlink:href="#174e2c24h" x="260.888" y="232.3975" fill="#fff"/><g fill="#fff"><use xlink:href="#174e2c24g" x="394.8192" y="232.3975"/><use xlink:href="#174e2c24i" x="442.6592" y="232.3975"/></g><use xlink:href="#174e2c24g" x="585.9296" y="232.3975" fill="#fff"/><use xlink:href="#174e2c24j" x="955.292" y="673.6992" fill="#fff"/><use xlink:href="#174e2c24k" x="998.4312" y="673.6992" fill="#fff"/><use xlink:href="#174e2c24l" x="1062.4848" y="673.6992" fill="#fff"/><use xlink:href="#174e2c24m" x="1110.7096" y="673.6992" fill="#fff"/><g fill="#fff"><use xlink:href="#174e2c24n" x="1171.1648" y="673.6992"/><use xlink:href="#174e2c24k" x="1198.6208" y="673.6992"/></g><use xlink:href="#174e2c24j" x="1262.04" y="673.6992" fill="#fff"/><use xlink:href="#174e2c24o" x="1066.884" y="572.6992" fill="#fff"/><g fill="#fff"><use xlink:href="#174e2c24p" x="1117.5944" y="572.6992"/><use xlink:href="#174e2c24q" x="1143.0744" y="572.6992"/></g><use xlink:href="#174e2c24p" x="1200.2328" y="572.6992" fill="#fff"/><use xlink:href="#174e2c24r" x="1226.3056" y="572.6992" fill="#fff"/><use xlink:href="#174e2c24p" x="1276.6936" y="572.6992" fill="#fff"/><path d="M47 336a4 4 0 11-8 0 4 4 0 018 0M170 95a4 4 0 11-8 0 4 4 0 018 0M835 253a4 4 0 11-8 0 4 4 0 018 0M1238 691a4 4 0 11-8 0 4 4 0 018 0M1084 691a4 4 0 11-8 0 4 4 0 018 0" fill="#666"/><use xlink:href="#174e2c24s" x="187.2275" y="736.8955" fill="#c1d11a"/><g fill="#c1d11a"><use xlink:href="#174e2c24t" x="198.6655" y="736.8955"/><use xlink:href="#174e2c24u" x="202.4315" y="736.8955"/></g><use xlink:href="#174e2c24v" x="211.8927" y="736.8955" fill="#c1d11a"/><g fill="#c1d11a"><use xlink:href="#174e2c24w" x="221.0669" y="736.8955"/><use xlink:href="#174e2c24x" x="230.3209" y="736.8955"/></g><use xlink:href="#174e2c24v" x="240.3029" y="736.8955" fill="#c1d11a"/><use xlink:href="#174e2c24u" x="248.9311" y="736.8955" fill="#c1d11a"/><g fill="#c1d11a"><use xlink:href="#174e2c24t" x="258.5631" y="736.8955"/><use xlink:href="#174e2c24u" x="262.3291" y="736.8955"/></g><g fill="#c1d11a"><use xlink:href="#174e2c24y" x="271.7469" y="736.8955"/><use xlink:href="#174e2c24z" x="282.2469" y="736.8955"/></g><g fill="#c1d11a"><use xlink:href="#174e2c24w" x="294.7811" y="736.8955"/><use xlink:href="#174e2c24A" x="304.0351" y="736.8955"/></g><g fill="#c1d11a"><use xlink:href="#174e2c24s" x="214.7375" y="55.8935"/><use xlink:href="#174e2c24t" x="226.1755" y="55.8935"/><use xlink:href="#174e2c24B" x="229.9415" y="55.8935"/></g><use xlink:href="#174e2c24C" x="238.0167" y="55.8935" fill="#c1d11a"/><g fill="#c1d11a"><use xlink:href="#174e2c24C" x="247.4289" y="55.8935"/><use xlink:href="#174e2c24t" x="256.8229" y="55.8935"/><use xlink:href="#174e2c24D" x="260.5889" y="55.8935"/></g><use xlink:href="#174e2c24E" x="269.8415" y="55.8935" fill="#c1d11a"/><use xlink:href="#174e2c24F" x="278.1757" y="55.8935" fill="#c1d11a"/><use xlink:href="#174e2c24s" x="1051.2235" y="736.8955" fill="#c1d11a"/><g fill="#c1d11a"><use xlink:href="#174e2c24t" x="1062.6615" y="736.8955"/><use xlink:href="#174e2c24u" x="1066.4275" y="736.8955"/></g><use xlink:href="#174e2c24v" x="1075.8887" y="736.8955" fill="#c1d11a"/><g fill="#c1d11a"><use xlink:href="#174e2c24w" x="1085.0629" y="736.8955"/><use xlink:href="#174e2c24x" x="1094.3169" y="736.8955"/></g><use xlink:href="#174e2c24v" x="1104.2989" y="736.8955" fill="#c1d11a"/><use xlink:href="#174e2c24u" x="1112.9271" y="736.8955" fill="#c1d11a"/><g fill="#c1d11a"><use xlink:href="#174e2c24t" x="1122.5591" y="736.8955"/><use xlink:href="#174e2c24u" x="1126.3251" y="736.8955"/></g><g fill="#c1d11a"><use xlink:href="#174e2c24y" x="1135.7429" y="736.8955"/><use xlink:href="#174e2c24z" x="1146.2429" y="736.8955"/></g><g fill="#c1d11a"><use xlink:href="#174e2c24w" x="1158.7771" y="736.8955"/><use xlink:href="#174e2c24A" x="1168.0311" y="736.8955"/></g><g fill="#c1d11a"><use xlink:href="#174e2c24s" x="1080.1335" y="55.8935"/><use xlink:href="#174e2c24t" x="1091.5715" y="55.8935"/><use xlink:href="#174e2c24G" x="1095.3375" y="55.8935"/></g><use xlink:href="#174e2c24C" x="1100.6029" y="55.8935" fill="#c1d11a"/><g fill="#c1d11a"><use xlink:href="#174e2c24C" x="1110.0151" y="55.8935"/><use xlink:href="#174e2c24t" x="1119.4091" y="55.8935"/><use xlink:href="#174e2c24D" x="1123.1751" y="55.8935"/></g><use xlink:href="#174e2c24E" x="1132.4277" y="55.8935" fill="#c1d11a"/><use xlink:href="#174e2c24F" x="1140.7619" y="55.8935" fill="#c1d11a"/></svg>