<?xml version="1.0" encoding="UTF-8"?><svg id="Layer_1" xmlns="http://www.w3.org/2000/svg" viewBox="0 0 1366 768"><defs><style>.cls-1{fill:#fdfaf5;}.cls-2{fill:#8152db;}</style></defs><rect class="cls-2" x="-62" y="-37" width="1490" height="827"/><g><path class="cls-1" d="M405.76,279.51c0,23.44-13.02,40.72-41.43,40.72h-39.06v-2.96c6.63-.12,8.29-1.78,8.29-7.1v-57.77c0-5.33-2.84-6.63-8.29-7.1v-2.96h34.33c30.66,0,46.17,14.09,46.17,37.17Zm-11.72,2.49c0-28.29-12.9-36.82-33.15-36.82-5.33,0-11.36,.83-16.57,2.13v67.48c9.71,1.78,17.05,2.37,24.5,2.37,21.19,0,25.21-16.81,25.21-35.16Z"/><path class="cls-1" d="M473.16,299.52l-4.62,20.72h-60.25v-2.96c6.63-.12,8.29-1.78,8.29-7.1v-57.77c0-5.33-2.84-6.63-8.29-7.1v-2.96h56.23l3.43,20.83-2.25,.47c-6.39-13.73-9.35-17.05-18.94-17.76-7.34-.36-12.55-.59-19.41-.71v34.57h17.99c6.63,0,8.52-2.96,9.71-10.65h2.37v24.62h-2.37c-1.18-7.69-3.08-10.89-9.71-10.89h-17.99v34.57c10.77-.12,17.05-.24,24.03-.59,10.89-.83,15.03-8.05,19.53-17.76l2.25,.47Z"/><path class="cls-1" d="M552.47,280.58c10.06,1.3,17.99,8.17,17.99,18.58,0,14.21-9.94,21.07-25.33,21.07h-34.45v-2.96c6.63-.12,8.29-1.78,8.29-7.1v-57.77c0-5.33-2.84-6.63-8.29-7.1v-2.96h34.92c12.07,0,21.66,6.27,21.66,18.47,0,13.97-11.84,17.28-15.27,18.35l-3.2,.95,3.67,.47Zm-22.73-35.4v34.45l11.01-.59c9.47-.47,14.09-9.35,14.09-17.28,0-10.42-6.51-17.05-16.81-17.05-3.08,0-5.68,.12-8.29,.47Zm28.65,54.81c0-10.89-7.81-17.52-18.94-17.52h-9.71v34.57c4.03,.24,9.12,.36,12.55,.36,10.3,0,16.1-7.34,16.1-17.4Z"/><path class="cls-1" d="M638.57,299.52l-4.62,20.72h-60.25v-2.96c6.63-.12,8.29-1.78,8.29-7.1v-57.77c0-5.33-2.84-6.63-8.29-7.1v-2.96h56.23l3.43,20.83-2.25,.47c-6.39-13.73-9.35-17.05-18.94-17.76-7.34-.36-12.55-.59-19.41-.71v34.57h17.99c6.63,0,8.52-2.96,9.71-10.65h2.37v24.62h-2.37c-1.18-7.69-3.08-10.89-9.71-10.89h-17.99v34.57c10.77-.12,17.05-.24,24.03-.59,10.89-.83,15.03-8.05,19.53-17.76l2.25,.47Z"/><path class="cls-1" d="M706.81,310.17c2.01,5.33,4.14,7.34,10.89,7.34v2.72h-31.37v-2.72c9,0,10.42-3.43,8.64-8.17l-7.46-19.3h-27.46l-7.81,21.19c-1.66,4.38,4.26,6.27,10.77,6.27v2.72h-24.74v-2.72c5.21,0,8.64-1.89,10.3-6.39l21.19-55.87c2.49-6.39-.47-10.54-9.59-10.54v-2.37h20.6l26.04,67.83Zm-45.69-23.2h25.21l-12.9-33.38-12.31,33.38Z"/><path class="cls-1" d="M720.26,252.4c0-5.33-2.84-6.63-8.29-7.1v-2.96h29.24v2.96c-7.1,.83-10.18,1.78-10.18,7.1v43.92c0,15.03,6.87,20.95,19.53,20.95,13.97,0,22.61-4.74,22.61-22.85v-40.96c0-6.39-2.01-8.05-11.84-8.17v-2.96h23.79v2.96c-6.63,.12-8.29,1.78-8.29,7.1v40.6c0,24.27-15.27,29.12-29.24,29.12-17.88,0-27.35-9.11-27.35-25.81v-43.92Z"/><path class="cls-1" d="M841.25,242.34h22.61v2.96c-6.04,0-8.64,1.89-10.42,7.1l-19.65,57.89,3.79,9.94h-12.08l-26.52-67.59c-2.01-5.09-4.85-6.87-10.3-7.34v-2.96h30.42v2.96c-6.63,.83-9.11,3.2-7.34,7.81l20.48,53.15,17.4-52.8c2.01-6.16,1.3-8.05-8.41-8.17v-2.96Z"/><path class="cls-1" d="M859.51,282.59c0-16.45,6.98-41.31,38.59-41.31,24.98,0,38.12,18.35,38.12,39.42,0,16.45-6.63,41.43-38.12,41.43-24.98,0-38.59-18.47-38.59-39.54Zm64.99,3.32c0-22.02-8.76-41.67-28.77-41.67s-24.5,20.12-24.5,33.03c0,21.43,8.76,41.79,29.71,41.79s23.56-20.24,23.56-33.15Z"/><path class="cls-1" d="M966.57,245.3c-6.39,.47-8.41,1.78-8.41,7.1v56.7c0,6.39,2.01,8.05,8.41,8.17v2.96h-27.46v-2.96c6.63-.12,8.29-1.78,8.29-7.1v-57.77c0-5.33-2.84-6.63-8.29-7.1v-2.96h27.46v2.96Z"/><path class="cls-1" d="M1041.57,318.46v1.78h-12.43l-29.48-37.53h-9.23v26.4c0,6.39,2.84,8.05,12.79,8.17v2.96h-31.84v-2.96c6.63-.12,8.29-1.78,8.29-7.1v-57.77c0-5.33-2.84-6.63-8.29-7.1v-2.96h31.25c20.01,0,31.37,5.8,31.37,19.41,0,11.6-9,18.23-21.43,20.24l29,36.46Zm-51.14-39.78c4.5,.83,9.12,1.42,14.21,1.42,12.31,0,17.99-6.87,17.99-17.28,0-12.31-6.75-17.52-20.01-17.52-4.26,0-9,.59-12.19,1.3v32.08Z"/></g><g><path class="cls-1" d="M350.43,409.47l1.3,20.48h-2.49c-4.38-14.44-12.08-20.6-20.6-20.6-9.71,0-14.32,5.92-14.32,13.85,0,7.22,4.62,11.72,10.77,15.27l16.46,9.47c6.75,3.91,11.72,9.35,11.72,17.99,0,13.73-11.48,21.19-25.92,21.19-7.1,0-16.81-2.25-22.37-4.62l-2.37-20.6,2.96-.47c5.45,14.92,12.31,22.73,23.79,22.73,6.04,0,13.85-3.43,13.85-13.02,0-7.46-4.26-12.07-9.94-15.39l-15.86-9.23c-8.17-4.73-13.02-10.42-13.02-19.77,0-13.02,9.94-20.48,25.45-20.48,7.22,0,14.09,1.07,20.6,3.2Z"/><path class="cls-1" d="M390.33,410.3c-6.39,.47-8.41,1.78-8.41,7.1v56.7c0,6.39,2.01,8.05,8.41,8.17v2.96h-27.46v-2.96c6.63-.12,8.29-1.78,8.29-7.1v-57.77c0-5.33-2.84-6.63-8.29-7.1v-2.96h27.46v2.96Z"/><path class="cls-1" d="M467.39,483.46v1.78h-12.43l-29.48-37.53h-9.23v26.4c0,6.39,2.84,8.05,12.79,8.17v2.96h-31.84v-2.96c6.63-.12,8.29-1.78,8.29-7.1v-57.77c0-5.33-2.84-6.63-8.29-7.1v-2.96h31.25c20.01,0,31.37,5.8,31.37,19.41,0,11.6-9,18.23-21.43,20.24l29,36.46Zm-51.14-39.78c4.5,.83,9.12,1.42,14.21,1.42,12.31,0,17.99-6.87,17.99-17.28,0-12.31-6.75-17.52-20.01-17.52-4.26,0-9,.59-12.19,1.3v32.08Z"/><path class="cls-1" d="M500.88,410.3c-6.39,.47-8.4,1.78-8.4,7.1v56.7c0,6.39,2.01,8.05,8.4,8.17v2.96h-27.46v-2.96c6.63-.12,8.29-1.78,8.29-7.1v-57.77c0-5.33-2.84-6.63-8.29-7.1v-2.96h27.46v2.96Z"/><path class="cls-1" d="M617.6,410.3c-6.39,.47-8.41,1.78-8.41,7.1v56.7c0,6.39,2.01,8.05,8.41,8.17v2.96h-27.46v-2.96c6.63-.12,8.29-1.78,8.29-7.1v-27.23h-38.59v26.16c0,6.39,2.01,8.05,8.4,8.17v2.96h-27.46v-2.96c6.63-.12,8.29-1.78,8.29-7.1v-57.77c0-5.33-2.84-6.63-8.29-7.1v-2.96h27.46v2.96c-6.39,.47-8.4,1.78-8.4,7.1v27.46h38.59v-27.46c0-5.33-2.84-6.63-8.29-7.1v-2.96h27.46v2.96Z"/><path class="cls-1" d="M632.16,417.4c0-5.33-2.84-6.63-8.29-7.1v-2.96h29.24v2.96c-7.1,.83-10.18,1.78-10.18,7.1v43.92c0,15.03,6.87,20.95,19.53,20.95,13.97,0,22.61-4.74,22.61-22.85v-40.96c0-6.39-2.01-8.05-11.84-8.17v-2.96h23.79v2.96c-6.63,.12-8.29,1.78-8.29,7.1v40.6c0,24.27-15.27,29.12-29.24,29.12-17.88,0-27.34-9.11-27.34-25.81v-43.92Z"/><path class="cls-1" d="M752.66,409.47l1.3,20.48h-2.49c-4.38-14.44-12.07-20.6-20.6-20.6-9.71,0-14.32,5.92-14.32,13.85,0,7.22,4.62,11.72,10.77,15.27l16.46,9.47c6.75,3.91,11.72,9.35,11.72,17.99,0,13.73-11.48,21.19-25.92,21.19-7.1,0-16.81-2.25-22.37-4.62l-2.37-20.6,2.96-.47c5.45,14.92,12.31,22.73,23.79,22.73,6.04,0,13.85-3.43,13.85-13.02,0-7.46-4.26-12.07-9.94-15.39l-15.86-9.23c-8.17-4.73-13.02-10.42-13.02-19.77,0-13.02,9.94-20.48,25.45-20.48,7.22,0,14.09,1.07,20.6,3.2Z"/><path class="cls-1" d="M815.64,407.34h22.61v2.96c-6.04,0-8.64,1.89-10.42,7.1l-19.65,57.89,3.79,9.94h-12.08l-26.52-67.59c-2.01-5.09-4.85-6.87-10.3-7.34v-2.96h30.42v2.96c-6.63,.83-9.11,3.2-7.34,7.81l20.48,53.15,17.4-52.8c2.01-6.16,1.3-8.05-8.41-8.17v-2.96Z"/><path class="cls-1" d="M906.79,464.52l-4.62,20.72h-60.25v-2.96c6.63-.12,8.29-1.78,8.29-7.1v-57.77c0-5.33-2.84-6.63-8.29-7.1v-2.96h56.23l3.43,20.83-2.25,.47c-6.39-13.73-9.35-17.05-18.94-17.76-7.34-.36-12.55-.59-19.41-.71v34.57h17.99c6.63,0,8.52-2.96,9.71-10.65h2.37v24.62h-2.37c-1.18-7.69-3.08-10.89-9.71-10.89h-17.99v34.57c10.77-.12,17.05-.24,24.03-.59,10.89-.83,15.03-8.05,19.53-17.76l2.25,.47Z"/><path class="cls-1" d="M992.73,444.51c0,23.44-13.02,40.72-41.43,40.72h-39.06v-2.96c6.63-.12,8.29-1.78,8.29-7.1v-57.77c0-5.33-2.84-6.63-8.29-7.1v-2.96h34.33c30.66,0,46.17,14.09,46.17,37.17Zm-11.72,2.49c0-28.29-12.9-36.82-33.15-36.82-5.33,0-11.36,.83-16.57,2.13v67.48c9.71,1.78,17.05,2.37,24.5,2.37,21.19,0,25.21-16.81,25.21-35.16Z"/><path class="cls-1" d="M1064.7,409.71l2.96,18.47-2.25,.71c-4.74-9.71-6.63-19.06-16.81-19.18h-10.18v64.4c0,6.39,2.6,8.05,9,8.17v2.96h-28.77v-2.96c6.39-.12,9-1.78,9-8.17v-64.4h-10.89c-10.18,.12-12.43,9.47-17.17,19.18l-2.25-.71,2.6-18.47v-2.49h64.75v2.49Z"/></g><g><path class="cls-1" d="M240.37,576.34h23.79v2.96c-6.63,.12-8.29,1.78-8.29,7.1l-.59,67.83h-1.89l-52.09-62.62,.36,51.49c0,6.39,2.01,8.05,12.19,8.17v2.96h-23.79v-2.96c6.63-.12,8.29-1.78,8.29-7.1l.47-54.93-8.29-10.06v-2.84h12.67l49.96,61.2-.59-50.07c-.12-6.39-2.01-8.05-12.19-8.17v-2.96Z"/><path class="cls-1" d="M266.36,616.59c0-16.45,6.98-41.31,38.59-41.31,24.98,0,38.12,18.35,38.12,39.42,0,16.45-6.63,41.43-38.12,41.43-24.98,0-38.59-18.47-38.59-39.54Zm64.99,3.32c0-22.02-8.76-41.67-28.77-41.67s-24.5,20.12-24.5,33.03c0,21.43,8.76,41.79,29.71,41.79s23.56-20.24,23.56-33.15Z"/><path class="cls-1" d="M395.79,576.34h23.79v2.96c-6.63,.12-8.29,1.78-8.29,7.1l-.59,67.83h-1.89l-52.09-62.62,.36,51.49c0,6.39,2.01,8.05,12.19,8.17v2.96h-23.79v-2.96c6.63-.12,8.29-1.78,8.29-7.1l.47-54.93-8.29-10.06v-2.84h12.67l49.96,61.2-.59-50.07c-.12-6.39-2.01-8.05-12.19-8.17v-2.96Z"/><path class="cls-1" d="M485.33,644.17c2.01,5.33,4.14,7.34,10.89,7.34v2.72h-31.37v-2.72c9,0,10.42-3.43,8.64-8.17l-7.46-19.3h-27.46l-7.81,21.19c-1.66,4.38,4.26,6.27,10.77,6.27v2.72h-24.74v-2.72c5.21,0,8.64-1.89,10.3-6.39l21.19-55.87c2.49-6.39-.47-10.54-9.59-10.54v-2.37h20.6l26.04,67.83Zm-45.69-23.2h25.21l-12.9-33.38-12.31,33.38Z"/><path class="cls-1" d="M591.39,597.18l-2.25,.47c-4.5-9.83-7.46-16.93-18.35-17.76-10.06-.47-11.25-.59-21.19-.71v34.57h19.18c6.63,0,8.52-2.96,9.71-10.65h2.37v24.62h-2.37c-1.18-7.69-3.08-10.89-9.71-10.89h-19.18v26.28c0,6.39,2.84,8.05,12.79,8.17v2.96h-31.84v-2.96c6.63-.12,8.29-1.78,8.29-7.1v-57.77c0-5.33-2.84-6.63-8.29-7.1v-2.96h57.41l3.43,20.83Z"/><path class="cls-1" d="M659.12,633.52l-4.62,20.72h-60.25v-2.96c6.63-.12,8.29-1.78,8.29-7.1v-57.77c0-5.33-2.84-6.63-8.29-7.1v-2.96h56.23l3.43,20.83-2.25,.47c-6.39-13.73-9.35-17.05-18.94-17.76-7.34-.36-12.55-.59-19.41-.71v34.57h17.99c6.63,0,8.52-2.96,9.71-10.65h2.37v24.62h-2.37c-1.18-7.69-3.08-10.89-9.71-10.89h-17.99v34.57c10.77-.12,17.05-.24,24.03-.59,10.89-.83,15.03-8.05,19.53-17.76l2.25,.47Z"/><path class="cls-1" d="M731.67,652.46v1.78h-12.43l-29.48-37.53h-9.23v26.4c0,6.39,2.84,8.05,12.79,8.17v2.96h-31.84v-2.96c6.63-.12,8.29-1.78,8.29-7.1v-57.77c0-5.33-2.84-6.63-8.29-7.1v-2.96h31.25c20.01,0,31.37,5.8,31.37,19.41,0,11.6-9,18.23-21.43,20.24l29,36.46Zm-51.14-39.78c4.5,.83,9.12,1.42,14.21,1.42,12.31,0,17.99-6.87,17.99-17.28,0-12.31-6.75-17.52-20.01-17.52-4.26,0-9,.59-12.19,1.3v32.08Z"/><path class="cls-1" d="M786.13,576.34h23.79v2.96c-6.63,.12-8.29,1.78-8.29,7.1l-.59,67.83h-1.89l-52.09-62.62,.35,51.49c0,6.39,2.01,8.05,12.19,8.17v2.96h-23.79v-2.96c6.63-.12,8.29-1.78,8.29-7.1l.47-54.93-8.29-10.06v-2.84h12.67l49.96,61.2-.59-50.07c-.12-6.39-2.01-8.05-12.19-8.17v-2.96Z"/><path class="cls-1" d="M875.67,644.17c2.01,5.33,4.14,7.34,10.89,7.34v2.72h-31.37v-2.72c9,0,10.42-3.43,8.64-8.17l-7.46-19.3h-27.46l-7.81,21.19c-1.66,4.38,4.26,6.27,10.77,6.27v2.72h-24.74v-2.72c5.21,0,8.64-1.89,10.3-6.39l21.19-55.87c2.49-6.39-.47-10.54-9.59-10.54v-2.37h20.6l26.04,67.83Zm-45.69-23.2h25.21l-12.9-33.38-12.31,33.38Zm7.34-52.68l-1.42-1.18c5.68-14.09,8.4-21.43,14.21-21.43,2.72,0,4.5,1.66,4.5,4.5,0,5.33-4.97,8.88-17.28,18.11Z"/><path class="cls-1" d="M939.32,576.34h23.79v2.96c-6.63,.12-8.29,1.78-8.29,7.1l-.59,67.83h-1.89l-52.09-62.62,.35,51.49c0,6.39,2.01,8.05,12.19,8.17v2.96h-23.79v-2.96c6.63-.12,8.29-1.78,8.29-7.1l.47-54.93-8.29-10.06v-2.84h12.67l49.96,61.2-.59-50.07c-.12-6.39-2.01-8.05-12.19-8.17v-2.96Z"/><path class="cls-1" d="M1048.34,613.51c0,23.44-13.02,40.72-41.43,40.72h-39.06v-2.96c6.63-.12,8.29-1.78,8.29-7.1v-57.77c0-5.33-2.84-6.63-8.29-7.1v-2.96h34.33c30.66,0,46.17,14.09,46.17,37.17Zm-11.72,2.49c0-28.29-12.9-36.82-33.15-36.82-5.33,0-11.36,.83-16.57,2.13v67.48c9.71,1.78,17.05,2.37,24.5,2.37,21.19,0,25.21-16.81,25.21-35.16Z"/><path class="cls-1" d="M1115.75,633.52l-4.62,20.72h-60.25v-2.96c6.63-.12,8.29-1.78,8.29-7.1v-57.77c0-5.33-2.84-6.63-8.29-7.1v-2.96h56.23l3.43,20.83-2.25,.47c-6.39-13.73-9.35-17.05-18.94-17.76-7.34-.36-12.55-.59-19.41-.71v34.57h17.99c6.63,0,8.52-2.96,9.71-10.65h2.37v24.62h-2.37c-1.18-7.69-3.08-10.89-9.71-10.89h-17.99v34.57c10.77-.12,17.05-.24,24.03-.59,10.89-.83,15.03-8.05,19.53-17.76l2.25,.47Z"/><path class="cls-1" d="M1176.9,576.34v1.78l-46.52,73.28,25.57-.59c9.71-.24,15.51-12.43,19.89-22.02l2.25,.47-5.56,24.98h-54.93v-1.66l45.93-73.28-24.15,.59c-9.47,.24-14.56,10.54-18.94,20.12l-2.25-.47,4.62-23.2h54.1Z"/></g><g><path class="cls-1" d="M519.37,211.19l5.06,5.46h-1.49l-4.86-5.13v5.13h-1.24v-9.91h1.24v4.17l4.81-4.17h1.6l-5.13,4.45Z"/><path class="cls-1" d="M534.36,212.79c0,2.68-1.59,4.03-4.08,4.03s-4.1-1.36-4.1-4.03v-6.05h1.22v6.05c0,1.94,1.15,2.95,2.89,2.95s2.84-.96,2.84-2.89v-6.11h1.23v6.05Z"/><path class="cls-1" d="M544.66,209.5c0,1.63-1.12,2.82-3.38,2.82h-2.74v4.33h-1.24v-9.91h4.08c2.26,0,3.28,1.05,3.28,2.76Zm-1.24,0c0-1.11-.69-1.72-2.25-1.72h-2.64v3.5h2.64c1.56,0,2.25-.71,2.25-1.78Z"/><path class="cls-1" d="M554.16,209.5c0,1.63-1.12,2.82-3.38,2.82h-2.74v4.33h-1.24v-9.91h4.08c2.26,0,3.28,1.05,3.28,2.76Zm-1.24,0c0-1.11-.69-1.72-2.25-1.72h-2.64v3.5h2.64c1.56,0,2.25-.71,2.25-1.78Z"/><path class="cls-1" d="M561.8,213.92h-4.36l-1.04,2.73h-1.31l3.91-9.91h1.33l3.78,9.91h-1.31l-.99-2.73Zm-.38-1.04l-1.76-4.87-1.84,4.87h3.6Z"/><path class="cls-1" d="M575.43,213.92h-4.36l-1.04,2.73h-1.31l3.91-9.91h1.33l3.78,9.91h-1.31l-.99-2.73Zm-.38-1.04l-1.76-4.87-1.84,4.87h3.6Z"/><path class="cls-1" d="M583.03,212.31h-2.14v4.33h-1.24v-9.91h4.07c2.26,0,3.3,1.05,3.3,2.73,0,1.49-.82,2.49-2.66,2.71l3.19,4.46h-1.39l-3.14-4.33Zm-2.14-1.04h2.68c1.44,0,2.2-.66,2.2-1.81s-.79-1.69-2.23-1.69h-2.66v3.5Z"/><path class="cls-1" d="M595.17,213.92h-4.36l-1.04,2.73h-1.31l3.91-9.91h1.33l3.78,9.91h-1.31l-.99-2.73Zm-.38-1.04l-1.76-4.87-1.84,4.87h3.6Z"/><path class="cls-1" d="M607.06,213.83c0,1.74-1.02,2.82-3.53,2.82h-4.14v-9.91h3.92c2.26,0,3.3,.98,3.3,2.61,0,1.05-.79,1.91-1.78,2.14,1.36,.19,2.23,1.07,2.23,2.33Zm-6.45-6.05v3.3h2.58c1.37,0,2.17-.63,2.17-1.72,0-1.18-.93-1.58-2.38-1.58h-2.38Zm5.22,6.05c0-1.31-1.02-1.72-2.54-1.72h-2.68v3.5h2.67c1.53,0,2.55-.39,2.55-1.78Z"/><path class="cls-1" d="M610.71,216.64h-1.23v-9.91h1.23v9.91Z"/><path class="cls-1" d="M613.13,211.7c0-2.99,1.81-5.13,4.59-5.13,2.61,0,3.82,1.34,4.22,3.34h-1.3c-.35-1.6-1.3-2.3-2.92-2.3-1.87,0-3.35,1.6-3.35,4.1s1.49,4.08,3.35,4.08c1.58,0,2.54-.66,2.93-2.29h1.3c-.44,2.09-1.66,3.33-4.23,3.33-2.77,0-4.59-2.13-4.59-5.12Z"/><path class="cls-1" d="M631.68,212.31h-2.14v4.33h-1.24v-9.91h4.07c2.26,0,3.3,1.05,3.3,2.73,0,1.49-.82,2.49-2.66,2.71l3.19,4.46h-1.39l-3.14-4.33Zm-2.14-1.04h2.68c1.44,0,2.2-.66,2.2-1.81s-.79-1.69-2.23-1.69h-2.66v3.5Z"/><path class="cls-1" d="M639.55,207.79v3.27h5v1.04h-5v3.5h5.62v1.05h-6.84v-9.91h6.84v1.05h-5.62Z"/><path class="cls-1" d="M656.03,211.51v5.13h-1.11v-1.81c-.51,1.18-1.55,1.98-3.27,1.98-2.79,0-4.65-2.07-4.65-5.12s1.85-5.13,4.62-5.13c2.06,0,3.57,.88,4.16,2.84h-1.31c-.45-1.17-1.31-1.81-2.86-1.81-1.98,0-3.37,1.56-3.37,4.1s1.36,4.08,3.41,4.08,3.17-1.27,3.18-3.24h-3.46v-1.04h4.65Z"/><path class="cls-1" d="M666.67,212.79c0,2.68-1.59,4.03-4.08,4.03s-4.1-1.36-4.1-4.03v-6.05h1.22v6.05c0,1.94,1.15,2.95,2.89,2.95s2.84-.96,2.84-2.89v-6.11h1.23v6.05Z"/><path class="cls-1" d="M675.61,215.59v1.05h-6.01v-9.91h1.25v8.85h4.75Z"/><path class="cls-1" d="M683.06,213.92h-4.36l-1.04,2.73h-1.31l3.91-9.91h1.33l3.78,9.91h-1.31l-.99-2.73Zm-.38-1.04l-1.76-4.87-1.84,4.87h3.6Z"/><path class="cls-1" d="M690.66,212.31h-2.14v4.33h-1.24v-9.91h4.07c2.26,0,3.3,1.05,3.3,2.73,0,1.49-.82,2.49-2.66,2.71l3.19,4.46h-1.39l-3.14-4.33Zm-2.14-1.04h2.68c1.44,0,2.2-.66,2.2-1.81s-.79-1.69-2.23-1.69h-2.66v3.5Z"/><path class="cls-1" d="M706.72,213.92h-4.36l-1.04,2.73h-1.31l3.91-9.91h1.33l3.78,9.91h-1.31l-.99-2.73Zm-.38-1.04l-1.76-4.87-1.84,4.87h3.6Z"/><path class="cls-1" d="M719.06,206.74v9.91h-1.87l-5.09-8.91v8.91h-1.17v-9.91h1.87l5.11,8.91v-8.91h1.15Z"/><path class="cls-1" d="M730.1,211.7c0,3.05-2,4.95-4.81,4.95h-3.18v-9.91h3.18c2.82,0,4.81,1.9,4.81,4.96Zm-1.24,0c0-2.48-1.39-3.92-3.76-3.92h-1.76v7.83h1.76c2.35,0,3.76-1.44,3.76-3.91Z"/><path class="cls-1" d="M744.27,213.83c0,1.74-1.02,2.82-3.53,2.82h-4.14v-9.91h3.92c2.26,0,3.3,.98,3.3,2.61,0,1.05-.79,1.91-1.78,2.14,1.36,.19,2.23,1.07,2.23,2.33Zm-6.45-6.05v3.3h2.58c1.37,0,2.17-.63,2.17-1.72,0-1.18-.93-1.58-2.38-1.58h-2.38Zm5.22,6.05c0-1.31-1.02-1.72-2.54-1.72h-2.68v3.5h2.67c1.53,0,2.55-.39,2.55-1.78Z"/><path class="cls-1" d="M746.07,211.7c0-3.06,1.88-5.13,4.61-5.13s4.61,2.07,4.61,5.13-1.88,5.12-4.61,5.12-4.61-2.07-4.61-5.12Zm7.98,0c0-2.54-1.33-4.1-3.37-4.1s-3.37,1.56-3.37,4.1,1.33,4.08,3.37,4.08,3.37-1.56,3.37-4.08Z"/><path class="cls-1" d="M763.72,215.59v1.05h-6.01v-9.91h1.25v8.85h4.75Z"/><path class="cls-1" d="M773.66,211.7c0,3.05-2,4.95-4.81,4.95h-3.18v-9.91h3.18c2.82,0,4.81,1.9,4.81,4.96Zm-1.24,0c0-2.48-1.39-3.92-3.76-3.92h-1.76v7.83h1.76c2.35,0,3.76-1.44,3.76-3.91Z"/><path class="cls-1" d="M791.44,212.06h-12.33v-1.05h12.33v1.05Z"/><path class="cls-1" d="M797.91,215.62h5.5v1.02h-6.74v-.42c0-1.46,.61-2.55,2.17-3.47l1.97-1.15c.98-.57,1.36-1.2,1.36-2.06,0-1.04-.63-1.94-1.97-1.94s-2.14,.89-2.23,2.3h-1.2c.07-1.96,1.25-3.34,3.43-3.34,2.04,0,3.21,1.28,3.21,2.98,0,1.08-.33,1.98-1.92,2.93l-2.26,1.34c-.71,.42-1.18,.96-1.31,1.81Z"/><path class="cls-1" d="M808.43,206.74v9.91h-1.25v-7.8c-.51,.47-1.18,.63-2.26,.63v-1.02c1.69-.06,2.2-.69,2.45-1.71h1.06Z"/><path class="cls-1" d="M817.81,213.48c0,1.75-1.17,3.34-3.44,3.34-2.06,0-3.5-1.23-3.5-3.03h1.24c.06,1.21,.92,2,2.28,2s2.2-1.02,2.2-2.33-.77-2.26-2.22-2.26c-.88,0-1.49,.37-1.84,.98h-1.43l.38-5.43h5.83v1.02h-4.83l-.22,3.34c.5-.61,1.31-.99,2.32-.99,2.01,0,3.22,1.47,3.22,3.37Z"/><path class="cls-1" d="M831.43,209.5c0,1.63-1.12,2.82-3.38,2.82h-2.74v4.33h-1.24v-9.91h4.08c2.26,0,3.28,1.05,3.28,2.76Zm-1.24,0c0-1.11-.69-1.72-2.25-1.72h-2.64v3.5h2.64c1.56,0,2.25-.71,2.25-1.78Z"/><path class="cls-1" d="M840.35,207.76h-3.28v8.88h-1.22v-8.88h-3.3v-1.02h7.8v1.02Z"/><path class="cls-1" d="M841.6,213.7h1.3c.19,1.4,1.23,2.09,2.83,2.09,1.69,0,2.48-.74,2.48-1.71,0-.88-.58-1.39-1.74-1.65l-2.3-.51c-1.46-.32-2.25-1.21-2.25-2.51,0-1.6,1.36-2.84,3.54-2.84s3.66,.92,3.88,2.95h-1.3c-.19-1.31-1.15-1.91-2.61-1.91s-2.22,.73-2.22,1.66c0,.71,.36,1.21,1.5,1.47l2.23,.51c1.6,.37,2.55,1.24,2.55,2.66,0,1.74-1.36,2.92-3.78,2.92-2.6,0-3.92-1.12-4.13-3.12Z"/></g><g><path class="cls-1" d="M548.55,358.19l5.06,5.46h-1.49l-4.86-5.13v5.13h-1.24v-9.91h1.24v4.17l4.81-4.17h1.6l-5.13,4.45Z"/><path class="cls-1" d="M563.54,359.79c0,2.68-1.59,4.03-4.08,4.03s-4.1-1.36-4.1-4.03v-6.05h1.22v6.05c0,1.94,1.15,2.95,2.89,2.95s2.84-.96,2.84-2.89v-6.11h1.23v6.05Z"/><path class="cls-1" d="M573.84,356.5c0,1.63-1.12,2.82-3.38,2.82h-2.74v4.33h-1.24v-9.91h4.08c2.26,0,3.28,1.05,3.28,2.76Zm-1.24,0c0-1.11-.69-1.72-2.25-1.72h-2.64v3.5h2.64c1.56,0,2.25-.71,2.25-1.78Z"/><path class="cls-1" d="M583.34,356.5c0,1.63-1.12,2.82-3.38,2.82h-2.74v4.33h-1.24v-9.91h4.08c2.26,0,3.28,1.05,3.28,2.76Zm-1.24,0c0-1.11-.69-1.72-2.25-1.72h-2.64v3.5h2.64c1.56,0,2.25-.71,2.25-1.78Z"/><path class="cls-1" d="M590.98,360.92h-4.36l-1.04,2.73h-1.31l3.91-9.91h1.33l3.78,9.91h-1.31l-.99-2.73Zm-.38-1.04l-1.76-4.87-1.84,4.87h3.6Z"/><path class="cls-1" d="M602.5,359.31h-2.14v4.33h-1.24v-9.91h4.07c2.26,0,3.3,1.05,3.3,2.73,0,1.49-.82,2.49-2.66,2.71l3.19,4.46h-1.39l-3.14-4.33Zm-2.14-1.04h2.68c1.44,0,2.2-.66,2.2-1.81s-.79-1.69-2.23-1.69h-2.66v3.5Z"/><path class="cls-1" d="M610.37,354.79v3.27h5v1.04h-5v3.5h5.62v1.05h-6.84v-9.91h6.84v1.05h-5.62Z"/><path class="cls-1" d="M626.85,358.51v5.13h-1.11v-1.81c-.51,1.18-1.55,1.98-3.27,1.98-2.79,0-4.65-2.07-4.65-5.12s1.85-5.13,4.62-5.13c2.06,0,3.57,.88,4.16,2.84h-1.31c-.45-1.17-1.31-1.81-2.86-1.81-1.98,0-3.37,1.56-3.37,4.1s1.36,4.08,3.41,4.08,3.17-1.27,3.18-3.24h-3.46v-1.04h4.65Z"/><path class="cls-1" d="M637.49,359.79c0,2.68-1.59,4.03-4.08,4.03s-4.1-1.36-4.1-4.03v-6.05h1.22v6.05c0,1.94,1.15,2.95,2.89,2.95s2.84-.96,2.84-2.89v-6.11h1.23v6.05Z"/><path class="cls-1" d="M646.43,362.59v1.05h-6.01v-9.91h1.25v8.85h4.75Z"/><path class="cls-1" d="M653.88,360.92h-4.36l-1.04,2.73h-1.31l3.91-9.91h1.33l3.78,9.91h-1.31l-.99-2.73Zm-.38-1.04l-1.76-4.87-1.84,4.87h3.6Z"/><path class="cls-1" d="M661.48,359.31h-2.14v4.33h-1.24v-9.91h4.07c2.26,0,3.3,1.05,3.3,2.73,0,1.49-.82,2.49-2.66,2.71l3.19,4.46h-1.39l-3.14-4.33Zm-2.14-1.04h2.68c1.44,0,2.2-.66,2.2-1.81s-.79-1.69-2.23-1.69h-2.66v3.5Z"/><path class="cls-1" d="M677.54,360.92h-4.36l-1.04,2.73h-1.31l3.91-9.91h1.33l3.78,9.91h-1.31l-.99-2.73Zm-.38-1.04l-1.76-4.87-1.84,4.87h3.6Z"/><path class="cls-1" d="M689.88,353.74v9.91h-1.87l-5.09-8.91v8.91h-1.17v-9.91h1.87l5.11,8.91v-8.91h1.15Z"/><path class="cls-1" d="M700.92,358.7c0,3.05-2,4.95-4.81,4.95h-3.18v-9.91h3.18c2.82,0,4.81,1.9,4.81,4.96Zm-1.24,0c0-2.48-1.39-3.92-3.76-3.92h-1.76v7.83h1.76c2.35,0,3.76-1.44,3.76-3.91Z"/><path class="cls-1" d="M715.09,360.83c0,1.74-1.02,2.82-3.53,2.82h-4.14v-9.91h3.92c2.26,0,3.3,.98,3.3,2.61,0,1.05-.79,1.91-1.78,2.14,1.36,.19,2.23,1.07,2.23,2.33Zm-6.45-6.05v3.3h2.58c1.37,0,2.17-.63,2.17-1.72,0-1.18-.93-1.58-2.38-1.58h-2.38Zm5.22,6.05c0-1.31-1.02-1.72-2.54-1.72h-2.68v3.5h2.67c1.53,0,2.55-.39,2.55-1.78Z"/><path class="cls-1" d="M716.89,358.7c0-3.06,1.88-5.13,4.61-5.13s4.61,2.07,4.61,5.13-1.88,5.12-4.61,5.12-4.61-2.07-4.61-5.12Zm7.98,0c0-2.54-1.33-4.1-3.37-4.1s-3.37,1.56-3.37,4.1,1.33,4.08,3.37,4.08,3.37-1.56,3.37-4.08Z"/><path class="cls-1" d="M734.54,362.59v1.05h-6.01v-9.91h1.25v8.85h4.76Z"/><path class="cls-1" d="M744.48,358.7c0,3.05-2,4.95-4.81,4.95h-3.18v-9.91h3.18c2.82,0,4.81,1.9,4.81,4.96Zm-1.24,0c0-2.48-1.39-3.92-3.76-3.92h-1.76v7.83h1.76c2.35,0,3.76-1.44,3.76-3.91Z"/><path class="cls-1" d="M762.26,359.06h-12.33v-1.05h12.33v1.05Z"/><path class="cls-1" d="M768.72,362.62h5.5v1.02h-6.74v-.42c0-1.46,.61-2.55,2.17-3.47l1.97-1.15c.98-.57,1.36-1.2,1.36-2.06,0-1.04-.63-1.94-1.97-1.94s-2.14,.89-2.23,2.3h-1.2c.07-1.96,1.25-3.34,3.43-3.34,2.04,0,3.21,1.28,3.21,2.98,0,1.08-.33,1.98-1.92,2.93l-2.26,1.34c-.71,.42-1.18,.96-1.31,1.81Z"/><path class="cls-1" d="M779.25,353.74v9.91h-1.25v-7.8c-.51,.47-1.18,.63-2.26,.63v-1.02c1.69-.06,2.2-.69,2.45-1.71h1.06Z"/><path class="cls-1" d="M788.63,360.48c0,1.75-1.17,3.34-3.44,3.34-2.06,0-3.5-1.23-3.5-3.03h1.24c.06,1.21,.92,2,2.28,2s2.2-1.02,2.2-2.33-.77-2.26-2.22-2.26c-.88,0-1.49,.37-1.84,.98h-1.43l.38-5.43h5.83v1.02h-4.83l-.22,3.34c.5-.61,1.31-.99,2.32-.99,2.01,0,3.22,1.47,3.22,3.37Z"/><path class="cls-1" d="M802.25,356.5c0,1.63-1.12,2.82-3.38,2.82h-2.74v4.33h-1.24v-9.91h4.08c2.26,0,3.28,1.05,3.28,2.76Zm-1.24,0c0-1.11-.69-1.72-2.25-1.72h-2.64v3.5h2.64c1.56,0,2.25-.71,2.25-1.78Z"/><path class="cls-1" d="M811.17,354.76h-3.28v8.88h-1.22v-8.88h-3.3v-1.02h7.8v1.02Z"/><path class="cls-1" d="M812.42,360.7h1.3c.19,1.4,1.23,2.09,2.83,2.09,1.69,0,2.48-.74,2.48-1.71,0-.88-.58-1.39-1.74-1.65l-2.3-.51c-1.46-.32-2.25-1.21-2.25-2.51,0-1.6,1.36-2.84,3.54-2.84s3.66,.92,3.88,2.95h-1.3c-.19-1.31-1.15-1.91-2.61-1.91s-2.22,.73-2.22,1.66c0,.71,.36,1.21,1.5,1.47l2.23,.51c1.6,.37,2.55,1.24,2.55,2.66,0,1.74-1.36,2.92-3.78,2.92-2.6,0-3.92-1.12-4.13-3.12Z"/></g><g><path class="cls-1" d="M548.55,522.19l5.06,5.46h-1.49l-4.86-5.13v5.13h-1.24v-9.91h1.24v4.17l4.81-4.17h1.6l-5.13,4.45Z"/><path class="cls-1" d="M563.54,523.79c0,2.68-1.59,4.03-4.08,4.03s-4.1-1.36-4.1-4.03v-6.05h1.22v6.05c0,1.94,1.15,2.95,2.89,2.95s2.84-.96,2.84-2.89v-6.11h1.23v6.05Z"/><path class="cls-1" d="M573.84,520.5c0,1.63-1.12,2.82-3.38,2.82h-2.74v4.33h-1.24v-9.91h4.08c2.26,0,3.28,1.05,3.28,2.76Zm-1.24,0c0-1.11-.69-1.72-2.25-1.72h-2.64v3.5h2.64c1.56,0,2.25-.71,2.25-1.78Z"/><path class="cls-1" d="M583.34,520.5c0,1.63-1.12,2.82-3.38,2.82h-2.74v4.33h-1.24v-9.91h4.08c2.26,0,3.28,1.05,3.28,2.76Zm-1.24,0c0-1.11-.69-1.72-2.25-1.72h-2.64v3.5h2.64c1.56,0,2.25-.71,2.25-1.78Z"/><path class="cls-1" d="M590.98,524.92h-4.36l-1.04,2.73h-1.31l3.91-9.91h1.33l3.78,9.91h-1.31l-.99-2.73Zm-.38-1.04l-1.76-4.87-1.84,4.87h3.6Z"/><path class="cls-1" d="M606.79,524.83c0,1.74-1.02,2.82-3.53,2.82h-4.14v-9.91h3.92c2.26,0,3.3,.98,3.3,2.61,0,1.05-.79,1.91-1.78,2.14,1.36,.19,2.23,1.07,2.23,2.33Zm-6.45-6.05v3.3h2.58c1.37,0,2.17-.63,2.17-1.72,0-1.18-.93-1.58-2.38-1.58h-2.38Zm5.22,6.05c0-1.31-1.02-1.72-2.54-1.72h-2.68v3.5h2.67c1.53,0,2.55-.39,2.55-1.78Z"/><path class="cls-1" d="M608.59,522.7c0-3.06,1.88-5.13,4.61-5.13s4.61,2.07,4.61,5.13-1.88,5.12-4.61,5.12-4.61-2.07-4.61-5.12Zm7.98,0c0-2.54-1.33-4.1-3.37-4.1s-3.37,1.56-3.37,4.1,1.33,4.08,3.37,4.08,3.37-1.56,3.37-4.08Z"/><path class="cls-1" d="M626.24,526.59v1.05h-6.01v-9.91h1.25v8.85h4.75Z"/><path class="cls-1" d="M636.18,522.7c0,3.05-2,4.95-4.81,4.95h-3.18v-9.91h3.18c2.82,0,4.81,1.9,4.81,4.96Zm-1.24,0c0-2.48-1.39-3.92-3.76-3.92h-1.76v7.83h1.76c2.35,0,3.76-1.44,3.76-3.91Z"/><path class="cls-1" d="M648.18,524.92h-4.36l-1.04,2.73h-1.31l3.91-9.91h1.33l3.78,9.91h-1.31l-.99-2.73Zm-.38-1.04l-1.76-4.87-1.84,4.87h3.6Z"/><path class="cls-1" d="M660.51,517.74v9.91h-1.87l-5.09-8.91v8.91h-1.17v-9.91h1.87l5.11,8.91v-8.91h1.15Z"/><path class="cls-1" d="M671.55,522.7c0,3.05-2,4.95-4.81,4.95h-3.18v-9.91h3.18c2.82,0,4.81,1.9,4.81,4.96Zm-1.24,0c0-2.48-1.39-3.92-3.76-3.92h-1.76v7.83h1.76c2.35,0,3.76-1.44,3.76-3.91Z"/><path class="cls-1" d="M681.44,523.31h-2.14v4.33h-1.24v-9.91h4.07c2.26,0,3.3,1.05,3.3,2.73,0,1.49-.82,2.49-2.66,2.71l3.19,4.46h-1.39l-3.14-4.33Zm-2.14-1.04h2.68c1.44,0,2.2-.66,2.2-1.81s-.79-1.69-2.23-1.69h-2.66v3.5Z"/><path class="cls-1" d="M689.31,518.79v3.27h5v1.04h-5v3.5h5.62v1.05h-6.84v-9.91h6.84v1.05h-5.62Z"/><path class="cls-1" d="M705.79,522.51v5.13h-1.11v-1.81c-.51,1.18-1.55,1.98-3.27,1.98-2.79,0-4.65-2.07-4.65-5.12s1.85-5.13,4.62-5.13c2.06,0,3.57,.88,4.16,2.84h-1.31c-.45-1.17-1.31-1.81-2.86-1.81-1.98,0-3.37,1.56-3.37,4.1s1.36,4.08,3.41,4.08,3.17-1.27,3.18-3.24h-3.46v-1.04h4.65Z"/><path class="cls-1" d="M716.43,523.79c0,2.68-1.59,4.03-4.08,4.03s-4.1-1.36-4.1-4.03v-6.05h1.22v6.05c0,1.94,1.15,2.95,2.89,2.95s2.84-.96,2.84-2.89v-6.11h1.23v6.05Z"/><path class="cls-1" d="M725.37,526.59v1.05h-6.01v-9.91h1.25v8.85h4.75Z"/><path class="cls-1" d="M732.82,524.92h-4.36l-1.04,2.73h-1.31l3.91-9.91h1.33l3.78,9.91h-1.31l-.99-2.73Zm-.38-1.04l-1.76-4.87-1.84,4.87h3.6Z"/><path class="cls-1" d="M740.41,523.31h-2.14v4.33h-1.24v-9.91h4.07c2.26,0,3.3,1.05,3.3,2.73,0,1.49-.82,2.49-2.66,2.71l3.19,4.46h-1.39l-3.14-4.33Zm-2.14-1.04h2.68c1.44,0,2.2-.66,2.2-1.81s-.79-1.69-2.23-1.69h-2.66v3.5Z"/><path class="cls-1" d="M762.26,523.06h-12.33v-1.05h12.33v1.05Z"/><path class="cls-1" d="M768.72,526.62h5.5v1.02h-6.74v-.42c0-1.46,.61-2.55,2.17-3.47l1.97-1.15c.98-.57,1.36-1.2,1.36-2.06,0-1.04-.63-1.94-1.97-1.94s-2.14,.89-2.23,2.3h-1.2c.07-1.96,1.25-3.34,3.43-3.34,2.04,0,3.21,1.28,3.21,2.98,0,1.08-.33,1.98-1.92,2.93l-2.26,1.34c-.71,.42-1.18,.96-1.31,1.81Z"/><path class="cls-1" d="M779.25,517.74v9.91h-1.25v-7.8c-.51,.47-1.18,.63-2.26,.63v-1.02c1.69-.06,2.2-.69,2.45-1.71h1.06Z"/><path class="cls-1" d="M788.63,524.48c0,1.75-1.17,3.34-3.44,3.34-2.06,0-3.5-1.23-3.5-3.03h1.24c.06,1.21,.92,2,2.28,2s2.2-1.02,2.2-2.33-.77-2.26-2.22-2.26c-.88,0-1.49,.37-1.84,.98h-1.43l.38-5.43h5.83v1.02h-4.83l-.22,3.34c.5-.61,1.31-.99,2.32-.99,2.01,0,3.22,1.47,3.22,3.37Z"/><path class="cls-1" d="M802.25,520.5c0,1.63-1.12,2.82-3.38,2.82h-2.74v4.33h-1.24v-9.91h4.08c2.26,0,3.28,1.05,3.28,2.76Zm-1.24,0c0-1.11-.69-1.72-2.25-1.72h-2.64v3.5h2.64c1.56,0,2.25-.71,2.25-1.78Z"/><path class="cls-1" d="M811.17,518.76h-3.28v8.88h-1.22v-8.88h-3.3v-1.02h7.8v1.02Z"/><path class="cls-1" d="M812.42,524.7h1.3c.19,1.4,1.23,2.09,2.83,2.09,1.69,0,2.48-.74,2.48-1.71,0-.88-.58-1.39-1.74-1.65l-2.3-.51c-1.46-.32-2.25-1.21-2.25-2.51,0-1.6,1.36-2.84,3.54-2.84s3.66,.92,3.88,2.95h-1.3c-.19-1.31-1.15-1.91-2.61-1.91s-2.22,.73-2.22,1.66c0,.71,.36,1.21,1.5,1.47l2.23,.51c1.6,.37,2.55,1.24,2.55,2.66,0,1.74-1.36,2.92-3.78,2.92-2.6,0-3.92-1.12-4.13-3.12Z"/></g><g><path class="cls-1" d="M548.55,689.19l5.06,5.46h-1.49l-4.86-5.13v5.13h-1.24v-9.91h1.24v4.17l4.81-4.17h1.6l-5.13,4.45Z"/><path class="cls-1" d="M563.54,690.79c0,2.68-1.59,4.03-4.08,4.03s-4.1-1.36-4.1-4.03v-6.05h1.22v6.05c0,1.94,1.15,2.95,2.89,2.95s2.84-.96,2.84-2.89v-6.11h1.23v6.05Z"/><path class="cls-1" d="M573.84,687.5c0,1.63-1.12,2.82-3.38,2.82h-2.74v4.33h-1.24v-9.91h4.08c2.26,0,3.28,1.05,3.28,2.76Zm-1.24,0c0-1.11-.69-1.72-2.25-1.72h-2.64v3.5h2.64c1.56,0,2.25-.71,2.25-1.78Z"/><path class="cls-1" d="M583.34,687.5c0,1.63-1.12,2.82-3.38,2.82h-2.74v4.33h-1.24v-9.91h4.08c2.26,0,3.28,1.05,3.28,2.76Zm-1.24,0c0-1.11-.69-1.72-2.25-1.72h-2.64v3.5h2.64c1.56,0,2.25-.71,2.25-1.78Z"/><path class="cls-1" d="M590.98,691.92h-4.36l-1.04,2.73h-1.31l3.91-9.91h1.33l3.78,9.91h-1.31l-.99-2.73Zm-.38-1.04l-1.76-4.87-1.84,4.87h3.6Z"/><path class="cls-1" d="M602.5,690.31h-2.14v4.33h-1.24v-9.91h4.07c2.26,0,3.3,1.05,3.3,2.73,0,1.49-.82,2.49-2.66,2.71l3.19,4.46h-1.39l-3.14-4.33Zm-2.14-1.04h2.68c1.44,0,2.2-.66,2.2-1.81s-.79-1.69-2.23-1.69h-2.66v3.5Z"/><path class="cls-1" d="M610.37,685.79v3.27h5v1.04h-5v3.5h5.62v1.05h-6.84v-9.91h6.84v1.05h-5.62Z"/><path class="cls-1" d="M626.85,689.51v5.13h-1.11v-1.81c-.51,1.18-1.55,1.98-3.27,1.98-2.79,0-4.65-2.07-4.65-5.12s1.85-5.13,4.62-5.13c2.06,0,3.57,.88,4.16,2.84h-1.31c-.45-1.17-1.31-1.81-2.86-1.81-1.98,0-3.37,1.56-3.37,4.1s1.36,4.08,3.41,4.08,3.17-1.27,3.18-3.24h-3.46v-1.04h4.65Z"/><path class="cls-1" d="M637.49,690.79c0,2.68-1.59,4.03-4.08,4.03s-4.1-1.36-4.1-4.03v-6.05h1.22v6.05c0,1.94,1.15,2.95,2.89,2.95s2.84-.96,2.84-2.89v-6.11h1.23v6.05Z"/><path class="cls-1" d="M646.43,693.59v1.05h-6.01v-9.91h1.25v8.85h4.75Z"/><path class="cls-1" d="M653.88,691.92h-4.36l-1.04,2.73h-1.31l3.91-9.91h1.33l3.78,9.91h-1.31l-.99-2.73Zm-.38-1.04l-1.76-4.87-1.84,4.87h3.6Z"/><path class="cls-1" d="M661.48,690.31h-2.14v4.33h-1.24v-9.91h4.07c2.26,0,3.3,1.05,3.3,2.73,0,1.49-.82,2.49-2.66,2.71l3.19,4.46h-1.39l-3.14-4.33Zm-2.14-1.04h2.68c1.44,0,2.2-.66,2.2-1.81s-.79-1.69-2.23-1.69h-2.66v3.5Z"/><path class="cls-1" d="M677.54,691.92h-4.36l-1.04,2.73h-1.31l3.91-9.91h1.33l3.78,9.91h-1.31l-.99-2.73Zm-.38-1.04l-1.76-4.87-1.84,4.87h3.6Z"/><path class="cls-1" d="M689.88,684.74v9.91h-1.87l-5.09-8.91v8.91h-1.17v-9.91h1.87l5.11,8.91v-8.91h1.15Z"/><path class="cls-1" d="M700.92,689.7c0,3.05-2,4.95-4.81,4.95h-3.18v-9.91h3.18c2.82,0,4.81,1.9,4.81,4.96Zm-1.24,0c0-2.48-1.39-3.92-3.76-3.92h-1.76v7.83h1.76c2.35,0,3.76-1.44,3.76-3.91Z"/><path class="cls-1" d="M715.09,691.83c0,1.74-1.02,2.82-3.53,2.82h-4.14v-9.91h3.92c2.26,0,3.3,.98,3.3,2.61,0,1.05-.79,1.91-1.78,2.14,1.36,.19,2.23,1.07,2.23,2.33Zm-6.45-6.05v3.3h2.58c1.37,0,2.17-.63,2.17-1.72,0-1.18-.93-1.58-2.38-1.58h-2.38Zm5.22,6.05c0-1.31-1.02-1.72-2.54-1.72h-2.68v3.5h2.67c1.53,0,2.55-.39,2.55-1.78Z"/><path class="cls-1" d="M716.89,689.7c0-3.06,1.88-5.13,4.61-5.13s4.61,2.07,4.61,5.13-1.88,5.12-4.61,5.12-4.61-2.07-4.61-5.12Zm7.98,0c0-2.54-1.33-4.1-3.37-4.1s-3.37,1.56-3.37,4.1,1.33,4.08,3.37,4.08,3.37-1.56,3.37-4.08Z"/><path class="cls-1" d="M734.54,693.59v1.05h-6.01v-9.91h1.25v8.85h4.76Z"/><path class="cls-1" d="M744.48,689.7c0,3.05-2,4.95-4.81,4.95h-3.18v-9.91h3.18c2.82,0,4.81,1.9,4.81,4.96Zm-1.24,0c0-2.48-1.39-3.92-3.76-3.92h-1.76v7.83h1.76c2.35,0,3.76-1.44,3.76-3.91Z"/><path class="cls-1" d="M762.26,690.06h-12.33v-1.05h12.33v1.05Z"/><path class="cls-1" d="M768.72,693.62h5.5v1.02h-6.74v-.42c0-1.46,.61-2.55,2.17-3.47l1.97-1.15c.98-.57,1.36-1.2,1.36-2.06,0-1.04-.63-1.94-1.97-1.94s-2.14,.89-2.23,2.3h-1.2c.07-1.96,1.25-3.34,3.43-3.34,2.04,0,3.21,1.28,3.21,2.98,0,1.08-.33,1.98-1.92,2.93l-2.26,1.34c-.71,.42-1.18,.96-1.31,1.81Z"/><path class="cls-1" d="M779.25,684.74v9.91h-1.25v-7.8c-.51,.47-1.18,.63-2.26,.63v-1.02c1.69-.06,2.2-.69,2.45-1.71h1.06Z"/><path class="cls-1" d="M788.63,691.48c0,1.75-1.17,3.34-3.44,3.34-2.06,0-3.5-1.23-3.5-3.03h1.24c.06,1.21,.92,2,2.28,2s2.2-1.02,2.2-2.33-.77-2.26-2.22-2.26c-.88,0-1.49,.37-1.84,.98h-1.43l.38-5.43h5.83v1.02h-4.83l-.22,3.34c.5-.61,1.31-.99,2.32-.99,2.01,0,3.22,1.47,3.22,3.37Z"/><path class="cls-1" d="M802.25,687.5c0,1.63-1.12,2.82-3.38,2.82h-2.74v4.33h-1.24v-9.91h4.08c2.26,0,3.28,1.05,3.28,2.76Zm-1.24,0c0-1.11-.69-1.72-2.25-1.72h-2.64v3.5h2.64c1.56,0,2.25-.71,2.25-1.78Z"/><path class="cls-1" d="M811.17,685.76h-3.28v8.88h-1.22v-8.88h-3.3v-1.02h7.8v1.02Z"/><path class="cls-1" d="M812.42,691.7h1.3c.19,1.4,1.23,2.09,2.83,2.09,1.69,0,2.48-.74,2.48-1.71,0-.88-.58-1.39-1.74-1.65l-2.3-.51c-1.46-.32-2.25-1.21-2.25-2.51,0-1.6,1.36-2.84,3.54-2.84s3.66,.92,3.88,2.95h-1.3c-.19-1.31-1.15-1.91-2.61-1.91s-2.22,.73-2.22,1.66c0,.71,.36,1.21,1.5,1.47l2.23,.51c1.6,.37,2.55,1.24,2.55,2.66,0,1.74-1.36,2.92-3.78,2.92-2.6,0-3.92-1.12-4.13-3.12Z"/></g><g><path class="cls-1" d="M393.99,137.96c0,12.78-5.26,22.56-26.94,22.56-10.4,0-21.05-4.26-21.05-18.8,0-11.03,8.14-24.18,14.91-31.33,1.13-3.26,2-8.77,2.38-11.9l.88-.5c16.92,15.04,29.82,26.94,29.82,39.97Zm-4.26,2.38c0-5.51-8.02-12.28-23.06-23.43-6.89,3.76-16.67,14.03-16.67,21.05s7.52,10.53,18.42,10.53c13.28,0,21.3-2.51,21.3-8.14Zm-38.59-56.26c2.26-2.76,4.64-5.26,7.39-7.52,2.51,2,6.01,5.14,8.27,7.89-2.13,2.76-4.51,5.14-7.39,7.52-2.13-2.63-5.64-5.76-8.27-7.89Zm18.92,.25c2.26-2.76,4.64-5.26,7.39-7.52,2.51,2,6.01,5.14,8.27,7.89-2.13,2.76-4.51,5.14-7.39,7.52-2.13-2.63-5.64-5.76-8.27-7.89Zm96.98,64.41v11.78c-8.27,0-12.66-3.76-17.54-9.27-.38,18.92-18.17,40.72-32.58,40.72-1.88,0-3.38-.13-5.14-.5l-12.78-12.28,.75-1.75c5.01,1.13,9.65,1.75,14.66,1.75,16.16,0,28.82-9.9,30.83-20.93,.63-3.26-9.4-22.68-14.66-29.7l8.77-9.65h1.5c2.63,5.51,4.64,10.78,6.01,15.54,4.26,12.78,10.02,14.28,20.17,14.28Zm77.56-27.19l7.89-7.64h.88c5.26,7.52,9.02,17.92,9.02,21.8,0,9.77-9.4,24.81-24.18,24.81-8.65,0-13.78-3.63-15.91-11.78-4.64,8.14-9.65,11.78-17.67,11.78s-11.9-4.76-13.66-11.9c-3.13,7.89-10.02,11.9-21.68,11.9h-2.26c-3.38,0-5.26-2.88-5.26-5.89s1.88-5.89,5.26-5.89h6.89c5.89,0,8.77-.88,10.78-2.26,5.64-3.63,7.77-9.9,12.15-22.43l4.01-.88,.38,.88c-1.88,7.02-3.26,11.78-3.26,15.04,0,5.89,2.76,9.65,9.77,9.65,3.76,0,6.77-1,8.77-2.38,5.26-3.63,7.39-9.77,11.9-22.3l3.88-.88,.38,.88c-1.75,7.02-3.26,12.15-3.26,15.04,0,5.89,4.76,9.65,14.16,9.65,8.02,0,12.53-3.51,14.03-6.52,1.13-2.26-7.27-14.66-13.03-20.68Zm81.95,23.18c0,3.63-4.76,10.53-8.9,12.15-7.27,2.88-22.3,3.63-31.08,3.63h-11.78l-2.26-12.66h3.76c8.27-4.64,23.68-16.29,27.94-20.17-12.03-8.02-26.31-15.79-35.59-20.05l3.88-12.28c12.91,7.39,26.56,17.17,36.84,26.44,2.76-4.14,3.26-8.4,3.26-14.54,0-9.02-1.63-19.05-4.14-32.96l11.03-3.26c.88,8.4,2.26,19.17,2.26,24.56,0,11.4-5.14,21.43-10.15,28.19,8.9,8.27,14.91,16.04,14.91,20.93Zm-55.64-60.02c-.5-1.38,0-3.01,1.13-4.26,.88-1,2.13-1.88,3.38-2.63-1.63-1.5-2.76-3.26-2.76-4.89,0-5.26,5.76-10.9,11.9-10.9s8.14,4.39,6.14,6.39l-1.75,1.75c-.75-1.13-3.63-2.88-6.77-2.88-2.76,0-5.26,1.13-5.26,2.88,0,2.13,4.64,3.76,10.15,3.76h7.89l-3.01,5.89h-3.51c-5.89,0-13.28,1.38-17.54,4.89Zm52.38,58.64c-3.26-4.14-9.27-8.9-16.42-13.78-4.76,5.14-11.28,11.4-18.29,18.04,5.39,0,10.78-.13,14.91-.25,10.28-.38,19.8-1.13,19.8-4.01Zm22.3,18.29h2l4.76-14.54c.88-9.52,1.25-24.81,1.25-34.21,0-13.03-1.25-27.94-2.76-41.85l-10.53,7.02c3.51,20.42,6.01,59.77,5.26,83.58Z"/><path class="cls-1" d="M830.42,160.51c-11.78,0-21.93-2-28.82-6.77-8.02,4.26-19.42,6.77-34.46,6.77-7.52,0-15.66-.88-21.68-3.01-1.63,19.05-9.77,34.46-32.45,34.46-30.95,0-36.59-27.82-20.68-53l3.13,1.25c-9.52,23.68,3.26,29.57,18.04,29.57s24.94-4.39,24.94-13.78c0-5.01-8.77-18.17-15.16-28.07l10.53-8.52h3.13c2.13,4.76,5.26,9.4,6.89,11.78,2.51,3.63,4.64,5.51,10.65,6.52,7.52-15.29,17.92-30.7,35.84-30.7,16.42,0,25.81,11.78,25.81,24.43,0,2.13-.25,4.14-.75,6.01,4.76,.75,9.77,.75,15.04,.75v22.3Zm-21.68-24.81c2.13-3.51-7.02-9.77-20.42-9.77-11.53,0-20.55,3.88-27.94,12.28,2.38,.13,5.01,.13,8.14,.13,27.69,0,38.47,.13,40.22-2.63Zm64.4,24.81c-8.14,0-16.92-1.5-20.42-9.77-4.39,5.14-12.66,9.77-22.3,9.77-3.38,0-5.26-3.51-5.26-11.28,0-8.52,1.88-11.15,5.26-11.15,8.14,0,14.66-2.13,17.17-4.01,3.26-2.51,4.89-3.76,11.53-18.42l5.39-1.13,.38,.88c-2.26,7.02-2.51,8.4-2.63,11.78-.25,6.52,4.51,10.9,10.9,10.9v22.43Zm-10.4-62.65c-3.01,3.76-6.27,7.14-10.28,10.53-3.01-3.63-7.89-8.02-11.53-11.03,3.26-3.88,6.52-7.14,10.28-10.4,3.63,2.88,8.52,7.14,11.53,10.9Zm17.67,40.1c9.77-.38,13.66-3.88,12.78-12.91l-4.51-44.61,16.04-9.4c0,23.31-.13,50-.88,68.04-.63,14.66-13.16,21.43-27.32,21.43h-3.38c-4.14,0-5.26-4.76-5.26-11.53s1.13-10.9,5.26-10.9c.63,0,3.38,0,7.27-.13Zm45.61,23.68h2l7.27-14.54c2.13-12.03,3.26-24.81,3.26-36.71,0-10.53-.75-25.44-2.26-39.35l-15.54,7.02c3.51,20.42,6.01,59.77,5.26,83.58Zm27.94,13.91l-1.5,2.63,18.8,18.92c5.76,0,11.9-1.13,17.42-2.76,22.05-6.52,31.33-23.56,31.33-49.62,0-19.3-6.77-35.71-23.06-35.71-12.41,0-21.18,14.03-21.18,26.69,0,13.28,6.01,23.93,22.81,23.93,3.13,0,7.77-.88,12.53-1.5-1.38,6.14-9.52,10.4-16.42,12.91-10.15,3.63-27.69,6.14-40.72,4.51Zm30.7-39.1c0-4.51,3.63-8.65,10.28-8.65h1.63c5.14,0,11.4,4.76,12.66,11.9-4.64,.38-8.65,.5-12.66,.5-9.02,0-11.9-1-11.9-3.76Z"/></g></svg>