<svg xmlns="http://www.w3.org/2000/svg" viewBox="0 0 1366 768"><defs><style>.cls-1{fill:#00d800;}.cls-2{fill:#fff;}.cls-3{fill:#f2f2f2;}.cls-4,.cls-5,.cls-7{fill:none;}.cls-4,.cls-5,.cls-7,.cls-8{stroke:#fff;stroke-linecap:round;stroke-linejoin:round;stroke-width:5px;}.cls-5{stroke-dasharray:1.01 15.18;}.cls-6,.cls-8{fill:#1a26cd;}.cls-7{stroke-dasharray:1 14.97;}</style></defs><g id="Layer_1" data-name="Layer 1"><rect class="cls-1" width="1366" height="768"/><path class="cls-2" d="M851.4,435.54c43.8-64.2,82.2-120,127.8-120,25.2,0,40.8,12,40.8,33,0,58.8-81,124.2-81,163.8q0,12.6,10.8,12.6c13.8,0,31.8-20.4,48.6-51l7.8,4.2c-16.8,33-48,87-87,87-16.2,0-29.4-10.8-29.4-30.6,0-46.8,79.8-121.8,79.8-160.2,0-10.2-6-16.2-22.8-16.2-42,0-102,100.2-113.4,121.2-24,43.8-34.8,67.2-39,82.2h-51l180-336c5.4-10.2,15-28.8,15-36,0-7.8-.6-12-22.8-25.8l2.4-7.2,90.6-24.61,6,4.2-32.4,60.61c-36.6,67.8-60,108.6-87,156.6-25.8,45.6-39.6,70.2-48,82.2Z"/><path class="cls-2" d="M1119,355.74c-13.2,0-32.4,15.6-60,51.6l-7.2-6c38.4-51.6,65.4-85.8,96.6-85.8,22.8,0,27.6,17.4,29.4,43.8,2.4,30.6-.6,118.8-12,174,33.6-43.8,87.61-106.2,87.61-164.4,0-19.2-7.2-27.6-19.81-31.8,10.81-10.8,21.61-18,36-18,16.8,0,27.6,12,27.6,30.6,0,75.6-203.41,327.6-342,327.6-24.6,0-42.6-12-42.6-33.6,0-23.4,20.4-37.8,45-37.8-5.4,23.4,4.2,36.6,28.8,36.6,57.6,0,115.8-51.6,141-75.6,9.6-72,9.6-155.4,4.2-193.8C1129.79,362.34,1128,355.74,1119,355.74Z"/><path class="cls-2" d="M459.84,525.28c13.16,0,25.11-13.2,33.48-25.2l9,4.8c-6,22.8-45.44,60-71.14,60-21.53,0-27.5-15.6-27.5-37.2,0-18.6,9-45,18.53-76.8h-3c-20.92,36.6-53.81,112.8-102.23,112.8-34.68,0-45.44-29.4-46-68.4-1.19-79.8,46.63-180,129.14-180,22.72,0,44.24,6,57.39,12.6,0,0,15.55-12.6,23.32-12.6,4.78,0,10.76,4.2,10.76,9-23.91,50.4-40.06,144-40.06,186.6C451.47,518.08,452.67,525.28,459.84,525.28Zm-72.93-186c-53.21,0-72.34,94.2-73.54,138-.6,22.8,5.38,51,22.12,51,32.88,0,95.66-129.6,97.45-168.6C425.77,349.48,403.65,339.28,386.91,339.28Z"/><path class="cls-2" d="M672.68,591.28c-49.63,0-86.1-30-135.72-30-9,0-13.75,6.6-19.73,6.6-10.16,0-12-5.4-12-12.6,56.19-46.8,139.89-142.8,163.21-193.8-23.91,7.2-50.82,7.2-74.13,6.6-18.54-.6-36.47-3-52-7.2a49.86,49.86,0,0,1-4.78-21.6c0-9,4.78-19.8,10.16-24,37.67,9.6,91.48,11.4,133.92,11.4,15,0,15.55-8.4,24.52-8.4,5.38,0,10.76,5.4,12,10.8-37.66,70.8-104,151.8-151.85,200.4,37.66,4.8,74.13,15,104.62,15,13.75,0,25.11-4.2,34.08-12C715.12,545.08,709.15,591.28,672.68,591.28Z"/><path class="cls-3" d="M490.94,207.52V217h-1.19v-8.47L486.52,217h-.77l-3.27-8.49V217h-1.19v-9.51h1.94l2.9,7.64,2.9-7.64Z"/><path class="cls-3" d="M494.92,217h-1.18v-9.51h1.18Z"/><path class="cls-3" d="M503.46,216v1h-5.78v-9.51h1.21V216Z"/><path class="cls-3" d="M511.12,214.41h-4.19l-1,2.62h-1.26l3.76-9.51h1.27l3.63,9.51h-1.26Zm-.37-1-1.69-4.68-1.77,4.68Z"/><path class="cls-3" d="M520.13,217H519v-9.51h1.18Z"/><path class="cls-3" d="M529.44,208.5h-3.16V217h-1.17V208.5h-3.17v-1h7.5Z"/><path class="cls-3" d="M535.55,214.41h-4.2l-1,2.62h-1.27l3.76-9.51h1.28l3.63,9.51H536.5Zm-.37-1-1.7-4.68-1.76,4.68Z"/><path class="cls-3" d="M545.31,216v1h-5.77v-9.51h1.2V216Z"/><path class="cls-3" d="M548.28,217H547.1v-9.51h1.18Z"/><path class="cls-3" d="M550.52,212.28c0-2.87,1.74-4.93,4.42-4.93a3.67,3.67,0,0,1,4,3.21h-1.25a2.53,2.53,0,0,0-2.8-2.21c-1.8,0-3.23,1.54-3.23,3.93s1.43,3.93,3.23,3.93a2.55,2.55,0,0,0,2.81-2.2H559c-.42,2-1.6,3.19-4.06,3.19C552.27,217.2,550.52,215.16,550.52,212.28Z"/><path class="cls-3" d="M1027.94,207.52V217h-1.19v-8.47l-3.23,8.47h-.77l-3.27-8.49V217h-1.19v-9.51h1.94l2.9,7.64,2.9-7.64Z"/><path class="cls-3" d="M1031.92,217h-1.18v-9.51h1.18Z"/><path class="cls-3" d="M1040.46,216v1h-5.78v-9.51h1.21V216Z"/><path class="cls-3" d="M1048.12,214.41h-4.19l-1,2.62h-1.26l3.76-9.51h1.27l3.63,9.51h-1.26Zm-.37-1-1.69-4.68-1.77,4.68Z"/><path class="cls-3" d="M1055.21,214.2h1.25c.18,1.35,1.17,2,2.72,2s2.38-.72,2.38-1.64-.56-1.33-1.67-1.58l-2.21-.49a2.4,2.4,0,0,1-2.16-2.41c0-1.55,1.3-2.74,3.4-2.74s3.52.89,3.73,2.83h-1.24c-.19-1.26-1.11-1.83-2.51-1.83s-2.14.7-2.14,1.6c0,.68.36,1.16,1.45,1.41l2.14.49c1.55.35,2.46,1.19,2.46,2.55,0,1.67-1.31,2.8-3.63,2.8C1056.68,217.2,1055.4,216.12,1055.21,214.2Z"/><path class="cls-3" d="M1072.73,213.33c0,2.58-1.53,3.87-3.93,3.87s-3.94-1.3-3.94-3.87v-5.81H1066v5.81a2.57,2.57,0,0,0,2.78,2.84,2.54,2.54,0,0,0,2.73-2.78v-5.87h1.18Z"/><path class="cls-3" d="M1082.53,210.17c0,1.57-1.08,2.7-3.26,2.7h-2.63V217h-1.19v-9.51h3.92C1081.55,207.52,1082.53,208.53,1082.53,210.17Zm-1.19,0c0-1.07-.66-1.65-2.16-1.65h-2.54v3.36h2.54C1080.68,211.88,1081.34,211.19,1081.34,210.17Z"/><path class="cls-3" d="M1085.59,208.53v3.14h4.81v1h-4.81V216h5.4v1h-6.57v-9.51H1091v1Z"/><path class="cls-3" d="M1096.32,212.87h-2.06V217h-1.2v-9.51H1097c2.17,0,3.17,1,3.17,2.62,0,1.43-.79,2.4-2.56,2.61l3.07,4.28h-1.33Zm-2.06-1h2.58c1.38,0,2.11-.63,2.11-1.74s-.75-1.62-2.14-1.62h-2.55Z"/><path class="cls-3" d="M1107.67,217h-1.18v-9.51h1.18Z"/><path class="cls-3" d="M1117,208.5h-3.16V217h-1.17V208.5h-3.17v-1h7.5Z"/><path class="cls-3" d="M1123.08,214.41h-4.19l-1,2.62h-1.27l3.76-9.51h1.28l3.63,9.51H1124Zm-.36-1-1.7-4.68-1.76,4.68Z"/><path class="cls-3" d="M1132.85,216v1h-5.77v-9.51h1.2V216Z"/><path class="cls-3" d="M1135.82,217h-1.18v-9.51h1.18Z"/><path class="cls-3" d="M1138.06,212.28c0-2.87,1.74-4.93,4.41-4.93a3.68,3.68,0,0,1,4.06,3.21h-1.25a2.54,2.54,0,0,0-2.81-2.21c-1.79,0-3.22,1.54-3.22,3.93s1.43,3.93,3.22,3.93a2.56,2.56,0,0,0,2.82-2.2h1.25c-.42,2-1.6,3.19-4.07,3.19C1139.81,217.2,1138.06,215.16,1138.06,212.28Z"/><path class="cls-3" d="M1024.66,237.49V239h-7.16v-.52a3.81,3.81,0,0,1,2.16-3.46l1.93-1.12a1.77,1.77,0,0,0,1.08-1.59,1.39,1.39,0,0,0-1.49-1.45,1.66,1.66,0,0,0-1.66,1.92h-1.89a3.28,3.28,0,0,1,3.55-3.46c2.3,0,3.43,1.39,3.43,3a3,3,0,0,1-1.66,2.72l-2.26,1.34a1.91,1.91,0,0,0-.94,1.08Z"/><path class="cls-3" d="M1033.08,235.91a3.34,3.34,0,0,1-3.63,3.29c-2.61,0-3.75-1.89-3.75-5,0-3.29,1.69-4.89,3.87-4.89,1.93,0,3.06,1,3.3,2.55H1031a1.28,1.28,0,0,0-1.42-1.06c-1.24,0-2,1-2,2.69v.25a2.65,2.65,0,0,1,2.23-1A3,3,0,0,1,1033.08,235.91Zm-1.92,0a1.61,1.61,0,0,0-1.7-1.7,1.72,1.72,0,1,0,0,3.44A1.63,1.63,0,0,0,1031.16,235.91Z"/><path class="cls-3" d="M1038.62,231.62a2.31,2.31,0,1,1-2.3-2.32A2.24,2.24,0,0,1,1038.62,231.62Zm-3.35,0c0,.77.38,1.25,1,1.25s1-.48,1-1.25-.36-1.27-1-1.27S1035.27,230.87,1035.27,231.62Z"/><path class="cls-3" d="M227.66,342.49V344H220.5v-.52a3.81,3.81,0,0,1,2.16-3.46l1.93-1.12a1.77,1.77,0,0,0,1.08-1.59,1.39,1.39,0,0,0-1.49-1.45,1.66,1.66,0,0,0-1.66,1.92h-1.89a3.28,3.28,0,0,1,3.55-3.46c2.3,0,3.43,1.39,3.43,3a3,3,0,0,1-1.66,2.72l-2.26,1.34a1.91,1.91,0,0,0-.94,1.08Z"/><path class="cls-3" d="M236.08,340.91a3.34,3.34,0,0,1-3.63,3.29c-2.61,0-3.75-1.89-3.75-5,0-3.29,1.69-4.89,3.87-4.89,1.93,0,3.06,1,3.3,2.55H234a1.28,1.28,0,0,0-1.42-1.06c-1.24,0-1.95,1-1.95,2.69v.25a2.65,2.65,0,0,1,2.23-1A3,3,0,0,1,236.08,340.91Zm-1.92,0a1.61,1.61,0,0,0-1.7-1.7,1.72,1.72,0,1,0,0,3.44A1.63,1.63,0,0,0,234.16,340.91Z"/><path class="cls-3" d="M241.62,336.62a2.31,2.31,0,1,1-2.3-2.32A2.24,2.24,0,0,1,241.62,336.62Zm-3.35,0c0,.77.38,1.25,1,1.25s1-.48,1-1.25-.36-1.27-1-1.27S238.27,335.87,238.27,336.62Z"/><line class="cls-4" x1="211.5" y1="332.5" x2="211.27" y2="332.94"/><line class="cls-5" x1="204.18" y1="346.36" x2="94.28" y2="554.35"/><line class="cls-4" x1="90.73" y1="561.06" x2="90.5" y2="561.5"/><path class="cls-3" d="M488.68,236.39c0,1.57-1.43,2.81-3.67,2.81s-3.68-1.24-3.68-2.81a2.35,2.35,0,0,1,1.73-2.26,2.19,2.19,0,0,1-1.52-2.09c0-1.45,1.22-2.69,3.44-2.69s3.49,1.24,3.49,2.69a2.14,2.14,0,0,1-1.54,2.08A2.3,2.3,0,0,1,488.68,236.39Zm-2-.12c0-.79-.64-1.4-1.69-1.4s-1.7.61-1.7,1.4.66,1.4,1.7,1.4S486.7,237.09,486.7,236.27Zm-3.22-4.09a1.54,1.54,0,1,0,1.53-1.31A1.36,1.36,0,0,0,483.48,232.18Z"/><path class="cls-3" d="M494.34,231.62a2.31,2.31,0,1,1-2.3-2.32A2.24,2.24,0,0,1,494.34,231.62Zm-3.35,0c0,.77.38,1.25,1,1.25s1-.48,1-1.25-.36-1.27-1-1.27S491,230.87,491,231.62Z"/><path class="cls-3" d="M141.68,315.27c0,1.56-1.43,2.81-3.67,2.81s-3.68-1.25-3.68-2.81a2.35,2.35,0,0,1,1.73-2.26,2.19,2.19,0,0,1-1.52-2.09c0-1.45,1.22-2.69,3.44-2.69s3.49,1.24,3.49,2.69a2.14,2.14,0,0,1-1.54,2.08A2.3,2.3,0,0,1,141.68,315.27Zm-2-.12c0-.79-.64-1.4-1.69-1.4s-1.7.61-1.7,1.4.66,1.4,1.7,1.4S139.7,316,139.7,315.15Zm-3.22-4.09a1.54,1.54,0,1,0,1.53-1.31A1.36,1.36,0,0,0,136.48,311.06Z"/><path class="cls-3" d="M147.34,310.5a2.31,2.31,0,1,1-2.3-2.32A2.24,2.24,0,0,1,147.34,310.5Zm-3.35,0c0,.77.38,1.25,1,1.25s1-.48,1-1.25-.36-1.27-1-1.27S144,309.75,144,310.5Z"/><line class="cls-6" x1="125.5" y1="308.5" x2="89.5" y2="561.5"/><line class="cls-4" x1="125.5" y1="308.5" x2="125.43" y2="309"/><line class="cls-7" x1="123.32" y1="323.82" x2="90.63" y2="553.59"/><line class="cls-4" x1="89.57" y1="561" x2="89.5" y2="561.5"/><line class="cls-8" x1="89.51" y1="306.5" x2="89.51" y2="561.5"/><line class="cls-8" x1="89.5" y1="561.5" x2="210.5" y2="561.5"/></g></svg>