<?xml version='1.0' encoding='UTF-8'?>
<svg xmlns="http://www.w3.org/2000/svg" xmlns:xlink="http://www.w3.org/1999/xlink" width="1366px" height="768px" viewBox="0 0 1366 768" x="0px" y="0px" enable-background="new 0 0 1366 768"><defs><symbol overflow="visible" id="0799f9e3a"><path d="M48.28 1.6c22.2 0 33.9-10.91 38.03-30.33h-10.1C72.35-12.91 62.9-6.52 48.27-6.52c-18.1 0-31.92-15.03-31.92-38.57 0-23.53 13.83-38.7 31.92-38.7 14.9 0 24.34 6.79 27.8 22.34h10.1C82.46-80.2 70.9-91.91 48.29-91.91c-25.14 0-41.5 19.43-41.5 46.82 0 27.4 16.5 46.68 41.5 46.68zm0 0"/></symbol><symbol overflow="visible" id="0799f9e3b"><path d="M97.63-68.77L77.27-10.64 58.78-68.77h-8.1l-18.63 58.4-20.35-58.4H2.27L27 0h10.38L54.8-54.53 72.1 0h10.35l24.75-68.77zm0 0"/></symbol><symbol overflow="visible" id="0799f9e3c"><path d="M85.92-70.36c-10.9 0-19.01 5.06-23.4 13.3-4-8.64-11.97-13.3-22.08-13.3-9.72 0-17.16 4.4-21.28 11.84v-10.25h-8.79V0h9.18v-41.63c0-13.3 8.65-20.48 18.89-20.48 10.5 0 17.95 7.19 17.95 20.88V0h9.05v-41.63c0-13.3 8.51-20.48 19.01-20.48 10.38 0 17.83 7.19 17.83 20.88V0h9.05v-42.16c0-18.09-10.25-28.2-25.4-28.2zm0 0"/></symbol><symbol overflow="visible" id="0799f9e3d"><path d="M43.75-70.36c-11.83 0-19.94 5.72-24.33 14.77v-40.18h-9.05V0h8.79v-14.36C23.55-4.92 31.78 1.6 43.48 1.6c17.04 0 30.07-14.09 30.07-35.9 0-21.55-12.77-36.05-29.8-36.05zM42.03-6.39c-13.17 0-22.6-10.9-22.6-27.66v-.53c0-16.1 9.57-27.94 22.6-27.94 13.97 0 22.47 11.44 22.47 28.2 0 16.76-9.31 27.93-22.47 27.93zm0 0"/></symbol><symbol overflow="visible" id="0799f9e3e"><path d="M37.1-69.56c-9.16 0-15.29 4.92-17.94 12.37v-11.58h-8.79V0h9.18v-40.3c0-12.37 6.25-20.48 17.56-20.48 1.33 0 2.27 0 3.33.14v-8.52c-1.33-.26-2.27-.4-3.33-.4zm0 0"/></symbol><symbol overflow="visible" id="0799f9e3f"><path d="M35.9-70.36c-15.56 0-26.06 7.58-27.92 22.75h9.05c1.45-10.52 8.24-14.9 18.88-14.9 10.37 0 17.03 4.92 17.03 15.7v4.78l-24.2 2.66C13.82-37.77 6.12-30.6 6.12-18.75 6.13-6.92 16.36 1.59 29.8 1.59c10.23 0 18.07-3.98 23.67-12.36V0h8.51v-46.55c0-16.1-10.37-23.8-26.07-23.8zM31.53-6.25c-9.85 0-15.83-5.6-15.83-12.77 0-6.92 4-11.96 14.64-13.3l22.6-2.66v7.59c0 12.62-8.24 21.14-21.41 21.14zm0 0"/></symbol><symbol overflow="visible" id="0799f9e3g"><path d="M40.44-70.36c-10.25 0-17.16 4.27-21.28 12.11v-10.52h-8.79V0h9.18v-39.64c0-14.63 7.72-22.61 19.15-22.61 11.32 0 17.83 7.72 17.83 21.95V0h9.03v-41.9c0-18.35-9.97-28.46-25.12-28.46zm0 0"/></symbol><symbol overflow="visible" id="0799f9e3h"><path d="M21.02-4.52c0-4.92-3.2-7.59-6.93-7.59a6.76 6.76 0 00-6.9 6.8c0 2.92 1.6 5.17 3.98 6.37l1.6.8c-1.2 4.53-2.66 7.98-5.99 15.44h5.99C18.75 6.52 21.02-.27 21.02-4.52zm0 0"/></symbol><symbol overflow="visible" id="0799f9e3j"><path d="M49.34-90.31H12.5V0h9.72v-40.17h26.33c19.95 0 29.92-10.9 29.92-25.4 0-15.02-9.17-24.74-29.13-24.74zm-1.47 42.03H22.23v-33.9h25.66c14.5 0 21.01 6.24 21.01 16.62 0 10.1-6.52 17.28-21.02 17.28zm0 0"/></symbol><symbol overflow="visible" id="0799f9e3k"><path d="M68.23-34.19c0-22.2-10.37-36.17-30.59-36.17-17.95 0-31.39 13.97-31.39 36.58 0 21.01 11.97 35.37 32.6 35.37 16.34 0 25.52-9.84 28.32-21.67H57.6C55.47-12.1 48.94-6.52 38.3-6.52c-12.62 0-21.93-8.78-22.87-24.46H68.1s.14-1.2.14-3.2zm-52.67-4.65c1.6-15.28 10.38-23.68 22.08-23.68 12.1 0 20.34 7.72 21.14 23.68zm0 0"/></symbol><symbol overflow="visible" id="0799f9e3l"><path d="M39.1-60.78v-7.99H23.56v-19.4H14.5v19.4H2.66v7.99H14.5v43.1C14.5-5.46 21.14.8 31.92.8c2.8 0 4.92-.27 7.19-.8v-7.98c-1.73.4-3.2.53-5.72.53-5.73 0-9.84-3.05-9.84-11.18v-42.15zm0 0"/></symbol><symbol overflow="visible" id="0799f9e3m"><path d="M19.95-95.77h-9.18V0h9.18zm0 0"/></symbol><symbol overflow="visible" id="0799f9e3n"><path d="M93.44-121.08H3.2v5h42.44V0h5.53v-116.08h42.27zm0 0"/></symbol><symbol overflow="visible" id="0799f9e3o"><path d="M52.25-94.33c-14.8 0-26.4 8.74-31.75 22.64v-56.7h-5.17V0h5.17v-52.42c0-21.94 13.2-36.9 31.03-36.9 19.27 0 29.42 13.35 29.42 35.12V0h5.35v-54.4c0-24.41-11.94-39.93-34.05-39.93zm0 0"/></symbol><symbol overflow="visible" id="0799f9e3p"><path d="M88.8-47.6c0-27.82-13.9-46.73-39.4-46.73-24.43 0-40.13 20.16-40.13 48.69 0 27.1 14.8 47.78 41.9 47.78 20.69 0 32.1-13.2 36.2-29.06h-5.7C78.45-13.02 67.22-2.86 51-2.86c-22.83 0-36.02-17.47-36.56-41.19h74.19zm-74.36-1.26c1.08-24.25 14.62-40.47 34.95-40.47 20.86 0 33.7 14.97 33.88 40.47zm0 0"/></symbol><symbol overflow="visible" id="0799f9e3r"><path d="M125.9-121.08L76.5-7.13 27.1-121.08h-8.74V0h5.36v-116.08L74.36 0H79l50.28-116.44V0h5.52v-121.08zm0 0"/></symbol><symbol overflow="visible" id="0799f9e3s"><path d="M50.1 2.14c25.15 0 40.3-20.5 40.3-48.14 0-27.83-15.15-48.33-40.48-48.33-25.5 0-40.65 20.69-40.65 48.33 0 27.64 15.15 48.14 40.84 48.14zm0-5C27.65-2.86 14.45-21.22 14.45-46c0-24.8 12.84-43.33 35.48-43.33 22.3 0 35.31 18.53 35.31 43.33 0 24.78-13.37 43.14-35.12 43.14zm0 0"/></symbol><symbol overflow="visible" id="0799f9e3t"><path d="M84.7-128.4v61c-5.36-15.87-17.65-26.93-36.03-26.93C24.61-94.33 9.1-74 9.1-46c0 27.98 15.88 48.14 39.94 48.14 18.55 0 30.86-11.6 36.03-28.17V0h4.99v-128.4zM49.58-2.85C28.36-2.86 14.27-21.05 14.27-46c0-25.14 13.73-43.33 34.95-43.33 22.1 0 35.48 19.08 35.48 41.55v3.2c0 22.64-13.2 41.72-35.12 41.72zm0 0"/></symbol><symbol overflow="visible" id="0799f9e3u"><path d="M47.25-93.25c-14.08 0-23.9 9.8-27.1 21.75v-20.69h-4.82V0h5.17v-53.67c0-21.58 11.42-34.42 26.22-34.42 1.25 0 2.31 0 3.75.18v-5c-1.44-.34-2.14-.34-3.22-.34zm0 0"/></symbol><symbol overflow="visible" id="0799f9e3v"><path d="M52.25-94.33c-16.05 0-26.75 8.03-31.92 21.58v-19.44h-5V0h5.17v-53.5c0-21.92 11.95-35.83 31.2-35.83 19.27 0 29.25 13.36 29.25 35.13V0h5.35v-55.45c0-24.78-13.02-38.88-34.05-38.88zm0 0"/></symbol><symbol overflow="visible" id="0799f9e3w"><path d="M18.72-112.16c3.22 0 5.7-2.86 5.7-6.06 0-3.39-2.48-5.89-5.7-5.89-3.4 0-6.06 2.5-6.06 5.9 0 3.2 2.67 6.05 6.06 6.05zM15.88 0h5.17v-92.19h-5.18zm0 0"/></symbol><symbol overflow="visible" id="0799f9e3x"><path d="M45.64 2.14C67.22 2.14 79.9-7.3 79.9-23c0-13.55-7.67-20.69-25.5-24.25l-20.16-4.1C19.97-54.4 14.98-59.38 14.98-69.2c0-11.76 9.44-20.33 27.46-20.33 17.83 0 28.17 8.2 30.14 25.7h5.51c-2.12-20.7-14.8-30.5-35.65-30.5C21.58-94.33 9.8-83.46 9.8-69c0 12.83 7.13 19.08 22.81 22.45l19.8 4.11c15.35 3.2 22.3 8.56 22.3 19.8 0 12.83-11.42 19.97-29.08 19.97-18 0-29.23-8.03-31.9-24.25H8.36C11.23-7.84 24.07 2.14 45.65 2.14zm0 0"/></symbol><symbol overflow="visible" id="0799f9e3y"><path d="M47.97-87.19v-5H25.14v-26.03H19.8v26.03H3.4v5h16.4v67.4C19.8-5 28.36 1.05 39.77 1.05c3.75 0 5.7-.17 8.2-.89v-4.62c-2.67.36-4.28.53-7.49.53-8.03 0-15.34-3.4-15.34-16.77v-66.5zm0 0"/></symbol><symbol overflow="visible" id="0799f9e3z"><path d="M68-84.88v33.75H26.12v-33.74H9V0h17.13v-37H68V0h17.13v-84.88zm0 0"/></symbol><symbol overflow="visible" id="0799f9e3A"><path d="M50.63-64.63L33.86-22.24 18.13-64.63H.63L25.38-5.74 11.74 23.5h17.5l38.13-88.13zm0 0"/></symbol><symbol overflow="visible" id="0799f9e3B"><path d="M52.63-90v33.5c-4.38-6.25-11.26-9.63-20.26-9.63C17-66.13 3.88-54 3.88-32.24 3.88-10.87 17.63 1.5 33 1.5c9.88 0 17.13-4.25 21.25-12.38V0h14.88v-90zm-16 78.25c-9.38 0-16.13-8-16.13-20.5s6.38-20.63 16.13-20.63c9.24 0 16 8.26 16 20.63 0 12.63-6.63 20.5-16 20.5zm0 0"/></symbol><symbol overflow="visible" id="0799f9e3C"><path d="M35.75-66.13c-18.88 0-32 13.75-32 34.25 0 19.63 11.88 33.38 32.5 33.38 16.38 0 26.63-8.88 29.5-20.38H49.37C47.5-14.13 43.5-11 36.38-11c-8.74 0-15-4.88-16.12-16.63H67s.13-1.75.13-3.75C67.5-52.13 56-66.13 35.75-66.13zM20.5-38.38c1.63-10.24 7.5-15.24 15.38-15.24 8.5 0 13.87 5.5 14.37 15.24zm0 0"/></symbol><symbol overflow="visible" id="0799f9e3E"><path d="M48.25-84.88H9V0h17.25v-34.88h21.63c20.12 0 30-11.5 30-25.62 0-14.25-9.5-24.38-29.63-24.38zM45.5-48.13H26.25v-23.5h19.13c10.5 0 15.37 4 15.37 11.5 0 7.13-4.88 12-15.25 12zm0 0"/></symbol><symbol overflow="visible" id="0799f9e3F"><path d="M34.63-66.13c-17 0-27.38 7.38-29.13 21.38H22c1.25-6.38 5.38-9.38 12.88-9.38 7.12 0 11.62 3.5 11.62 10.76v3.5l-19.5 2c-16.13 1.62-22.88 9.24-22.88 20 0 11.25 9.5 19.37 23.25 19.37C36.13 1.5 43-1.63 48-8.25V0h14.88v-42.38c0-16.37-10.76-23.74-28.26-23.74zm-2.88 56.5c-6.88 0-10.88-4-10.88-9 0-4.87 3.13-8.5 10-9.37l15.5-2v4.75c0 9.25-5.12 15.63-14.62 15.63zm0 0"/></symbol><symbol overflow="visible" id="0799f9e3G"><path d="M39.25-65.25c-7.63 0-14 4-17.13 11.75v-11.13H7.26V0h16.5v-34.38c0-10.24 5.5-16.12 15.63-16.12 1.62 0 2.74.13 3.74.25v-14.5c-1.37-.38-2.5-.5-3.87-.5zm0 0"/></symbol><symbol overflow="visible" id="0799f9e3H"><path d="M68.25 0L38.87-36.25 67-64.63H48.75L23.75-40v-50H7.25V0h16.5v-31.88L49.38 0zm0 0"/></symbol><symbol overflow="visible" id="0799f9e3I"><path d="M41.13 1.5C64.5 1.5 76-10.38 76-25.38c0-11.37-6.75-20.5-22.25-23.25l-19.88-3.74C26-53.88 23-57.26 23-62.13c0-6 5.13-10.87 15.5-10.87 10.63 0 16.38 3.75 17.75 11.88h17.88C72.5-77.39 59.5-86.39 38.63-86.39c-21.63 0-33.38 11.88-33.38 26 0 11.26 7.25 20.13 21.5 22.88l19.75 3.88c8.13 1.62 11.75 5.24 11.75 10.74 0 6.25-5.25 11-17.25 11-11.75 0-18.13-4.5-19.63-13.37H3.63C5.5-8.37 16.88 1.5 41.13 1.5zm0 0"/></symbol><symbol overflow="visible" id="0799f9e3J"><path d="M42.13-66.13c-8.38 0-14.63 3.63-18.38 10.13v-34H7.25V0h16.5v-37.13C23.75-47 29.5-52.24 37-52.24c7.25 0 12.75 4.88 12.75 14.88V0h16.5v-40.63c0-16.74-10.38-25.5-24.13-25.5zm0 0"/></symbol><symbol overflow="visible" id="0799f9e3K"><path d="M98.63-73.88c5.62 0 9.87-4.5 9.87-9.75a9.71 9.71 0 00-9.88-9.75 9.56 9.56 0 00-9.87 9.75 9.87 9.87 0 009.88 9.75zM13.25 0h16.5v-51h21.88V0h16.62v-51h21.88V0h16.5v-64.63H68.25v-3.75c0-6.5 3.63-9.25 10.25-9.25 1.25 0 2.25.13 3.25.38v-13.13c-1.88-.62-3.63-.75-6-.75-15.13 0-24.13 8.38-24.13 23.5v3H29.75v-3.75c0-6.5 3.63-9.25 10.25-9.25 2.5 0 3.75.13 5.63.63v-13a28.3 28.3 0 00-8.38-1.13c-15 0-24 8.38-24 23.5v3h-11V-51h11zm0 0"/></symbol><symbol overflow="visible" id="0799f9e3L"><path d="M23.88-90H7.38V0h16.5zm0 0"/></symbol><symbol overflow="visible" id="0799f9e3M"><path d="M54.72 1.98c34.1 0 49.1-16.48 49.1-36.92 0-17.97-9.05-30.48-30.82-33.78l-27.19-4.12c-6.42-.99-9.06-3.63-9.06-8.24 0-5.6 4.78-9.89 15.33-9.89 10.37 0 15.81 3.63 17.14 10.4h32.95c-2.31-20.62-18.62-33.3-49.94-33.3-31.46 0-47.45 17.14-47.45 36.09 0 18.3 10.05 29.83 30.81 33.28l26.86 4.45c6.92 1.16 9.4 4.28 9.4 9.07 0 5.28-4.12 9.89-16.97 9.89-11.86 0-17.15-4.61-17.96-12.2H3.62C5.45-11.2 19.62 1.99 54.73 1.99zm0 0"/></symbol><symbol overflow="visible" id="0799f9e3N"><path d="M97.23 0L65.1-47.47 96.58-85.2H61.3L38.9-57.52v-61.14H6.26V0h32.62v-35.27L60.97 0zm0 0"/></symbol><symbol overflow="visible" id="0799f9e3O"><path d="M93.1-42.84c0-23.74-14.16-44.33-44.5-44.33-29.65 0-45.63 19.6-45.63 44.33 0 26.53 16.81 44.82 45.64 44.82 22.9 0 37.25-10.54 41.53-26.87H60.31c-2.14 5.28-4.78 7.25-11.2 7.25-8.23 0-12.86-4.94-14-17.95h57.67c.33-3.14.33-4.78.33-7.25zm-57.83-8.08c1.48-12.19 6.59-16.64 13.34-16.64 8.08 0 12.2 5.76 12.36 16.64zm0 0"/></symbol><symbol overflow="visible" id="0799f9e3P"><path d="M38.9-118.66H6.26V0h32.62zm0 0"/></symbol><symbol overflow="visible" id="0799f9e3Q"><path d="M114.86-87.17c-11.2 0-20.27 4.94-25.7 14.5-5.44-10.06-15.99-14.5-28.52-14.5-11.2 0-20.1 5.1-25.37 14.98V-85.2h-29V0h32.62v-47.95c0-11.38 4.78-15.66 12.2-15.66 5.77 0 9.4 4.13 9.4 11.53V0H93.1v-47.95c0-11.38 4.78-15.66 12.2-15.66 5.77 0 9.4 4.13 9.4 11.53V0h32.62v-55.53c0-22.1-14.35-31.64-32.47-31.64zm0 0"/></symbol><symbol overflow="visible" id="0799f9e3R"><path d="M58.02-86.03c-9.74 0-18.63 4.45-23.41 16V-85.2H6.27V0h32.62v-41.03c0-12.2 7.42-18.3 17.97-18.3 2.97 0 4.78.17 6.6.33v-26.2c-1.34-.66-3.48-.83-5.44-.83zm0 0"/></symbol><symbol overflow="visible" id="0799f9e3S"><path d="M44.66 1.98c27.86 0 42.36-11.54 42.36-29.01 0-12.36-6.6-21.75-23.74-24.22l-23.23-3.3c-5.28-.83-7.58-3.3-7.58-6.6 0-3.79 3.3-6.74 10.7-6.74 7.42 0 11.38 3.12 12.36 8.89H85.2c-2.97-20.27-18.8-28.17-42.68-28.17C17.3-87.17 3.3-74.48 3.3-59c0 13.69 8.07 22.58 24.54 25.05l21.6 3.3c4.95.82 6.76 3.8 6.76 6.76 0 4.1-3.3 6.92-11.04 6.92-7.91 0-12.03-2.81-13.2-7.92H2.32C4.78-7.58 18.45 1.98 44.66 1.98zm0 0"/></symbol><symbol overflow="visible" id="0799f9e3T"><path d="M63.78-118.66v43.35c-5.28-8.74-13.51-11.86-24.06-11.86-18.3 0-36.75 15.48-36.75 44.65 0 29.5 18.45 44.5 36.75 44.5 12.69 0 21.25-5.43 26.03-16.65V0h30.66v-118.66zM49.94-21.42c-8.08 0-14.35-5.44-14.35-21.27 0-15.33 6.1-21.1 14.18-21.1 7.57 0 14.01 5.62 14.01 20.95 0 16.47-6.44 21.42-13.84 21.42zm0 0"/></symbol><symbol overflow="visible" id="0799f9e3U"><path d="M46.8-87.17C19.45-87.17 6.1-75.64 4.45-59H35.6c.99-5.27 4.61-8.4 11.38-8.4 6.42 0 10.05 3.62 10.05 9.73v5.26l-21.43 1.99C14.67-48.45 3.12-38.9 3.12-23.41 3.13-9.06 14.35 2 33.63 2a33.43 33.43 0 0026.36-12.37V0h28.85v-54.55c0-18.78-11.05-32.62-42.03-32.62zm-2.3 70.53c-6.27 0-10.4-3.3-10.4-8.9 0-5.77 4.3-9.4 12.54-10.55l9.72-1.32v9.07c0 6.59-4.45 11.7-11.86 11.7zm0 0"/></symbol><symbol overflow="visible" id="0799f9e3V"><path d="M6.31-11.05A5.62 5.62 0 106.36.2a5.62 5.62 0 00-.05-11.24zm0 1.16a4.47 4.47 0 11.03 8.94 4.47 4.47 0 01-.03-8.94zm0 0"/></symbol><symbol overflow="visible" id="0799f9e3X"><path d="M7.44-5.64A2.48 2.48 0 009.39-8c0-1.8-1.14-2.86-3.6-2.86H1.46V0h4.55c2.75 0 3.87-1.19 3.87-3.1 0-1.38-.97-2.34-2.45-2.54zm-2.02-4.1c1.6 0 2.61.44 2.61 1.74 0 1.2-.87 1.9-2.39 1.9H2.81v-3.63zm.33 8.6H2.81v-3.83h2.96c1.65 0 2.78.44 2.78 1.88 0 1.53-1.13 1.95-2.8 1.95zm0 0"/></symbol><symbol overflow="visible" id="0799f9e3Y"><path d="M5.84.19c2.99 0 5.05-2.27 5.05-5.61 0-3.36-2.06-5.64-5.05-5.64-3 0-5.06 2.28-5.06 5.64 0 3.34 2.06 5.6 5.06 5.6zm0-1.13c-2.25 0-3.7-1.72-3.7-4.48 0-2.78 1.45-4.5 3.7-4.5 2.24 0 3.7 1.72 3.7 4.5 0 2.76-1.46 4.48-3.7 4.48zm0 0"/></symbol><symbol overflow="visible" id="0799f9e3Z"><path d="M9.88-10.86H8.1L2.83-6.28v-4.58H1.47V0h1.36v-5.63L8.16 0H9.8L4.23-5.98zm0 0"/></symbol><symbol overflow="visible" id="0799f9e3aa"><path d="M13.84-4.72H.31v1.16h13.53zm0 0"/></symbol><symbol overflow="visible" id="0799f9e3ab"><path d="M3.08-10.86C2.8-9.75 2.23-9.06.39-8.98v1.1c1.17 0 1.9-.17 2.47-.68V0h1.37v-10.86zm0 0"/></symbol><symbol overflow="visible" id="0799f9e3ac"><path d="M6.64-5.64c1.05-.42 1.53-1.33 1.53-2.47 0-1.73-1.5-2.95-3.51-2.95-1.93 0-3.47 1.12-3.7 3.12h1.32c.17-1.36 1.14-1.98 2.36-1.98 1.3 0 2.17.75 2.17 1.87 0 1.07-.65 1.9-2.51 1.9h-.9v1.2h.9c2.01 0 2.8.72 2.8 1.9 0 1.17-.9 2.11-2.5 2.11-1.65 0-2.52-.83-2.6-2.2H.69C.7-1.2 2.02.19 4.59.19c2.52 0 3.9-1.5 3.9-3.24 0-1.33-.7-2.23-1.85-2.6zm0 0"/></symbol><symbol overflow="visible" id="0799f9e3ad"><path d="M5.95-10.86H1.47V0h1.36v-4.75h3.01c2.47 0 3.7-1.3 3.7-3.1 0-1.87-1.1-3-3.59-3zm-.22 4.97h-2.9v-3.84h2.9c1.7 0 2.46.67 2.46 1.89 0 1.17-.75 1.95-2.46 1.95zm0 0"/></symbol><symbol overflow="visible" id="0799f9e3ae"><path d="M8.9-10.86H.37v1.11h3.6V0h1.35v-9.75h3.6zm0 0"/></symbol><symbol overflow="visible" id="0799f9e3af"><path d="M1.83-1.63c-.52 0-.94.4-.94.91a.92.92 0 001.84 0 .9.9 0 00-.9-.9zm0 0"/></symbol><symbol overflow="visible" id="0799f9e3ag"><path d="M5.16.19c2.65 0 4.14-1.3 4.14-3.2 0-1.55-1.05-2.5-2.8-2.91l-2.45-.56C2.8-6.77 2.4-7.31 2.4-8.1c0-1.04.86-1.83 2.42-1.83 1.6 0 2.65.65 2.87 2.1h1.42c-.24-2.23-1.9-3.24-4.26-3.24-2.4 0-3.9 1.36-3.9 3.12 0 1.42.88 2.4 2.48 2.75l2.53.57c1.26.28 1.9.84 1.9 1.8 0 1.05-.85 1.88-2.71 1.88-1.77 0-2.91-.76-3.11-2.3H.63C.83-1.03 2.3.2 5.16.2zm0 0"/></symbol><symbol overflow="visible" id="0799f9e3ah"><path d="M10.31-10.86H8.97v6.7c0 2.11-1.31 3.18-3.11 3.18-1.9 0-3.17-1.11-3.17-3.24v-6.64H1.34v6.64c0 2.92 1.77 4.4 4.5 4.4 2.74 0 4.47-1.46 4.47-4.4zm0 0"/></symbol><symbol overflow="visible" id="0799f9e3ai"><path d="M8.97-9.72v-1.14h-7.5V0h7.5v-1.16H2.8v-3.82H8.3v-1.14H2.8v-3.6zm0 0"/></symbol><symbol overflow="visible" id="0799f9e3aj"><path d="M8.63 0h1.51l-3.5-4.9c2.02-.24 2.9-1.33 2.9-2.97 0-1.85-1.12-2.99-3.6-2.99H1.47V0h1.36v-4.75h2.36zm-5.8-9.73h2.92c1.58 0 2.44.6 2.44 1.86 0 1.26-.83 1.98-2.4 1.98H2.82zm0 0"/></symbol><symbol overflow="visible" id="0799f9e3ak"><path d="M4.97-7.14c-1.33 0-2.28.55-2.81 1.53v-.23c0-2.35 1.03-4.07 2.86-4.07 1.17 0 1.82.58 2.06 1.64h1.36c-.3-1.78-1.4-2.8-3.42-2.8-2.2 0-4.2 1.68-4.2 5.55 0 2.94.91 5.7 4.02 5.7 2.27 0 3.77-1.5 3.77-3.71 0-2.03-1.34-3.61-3.64-3.61zM4.89-.95c-1.6 0-2.48-1.3-2.48-2.58a2.4 2.4 0 012.48-2.45c1.61 0 2.4 1.17 2.4 2.45 0 1.28-.79 2.58-2.4 2.58zm0 0"/></symbol><symbol overflow="visible" id="0799f9e3al"><path d="M8.6-3.77H7.2v-7.09H5.2L.37-3.76v1.12h5.46V0H7.2v-2.64h1.4zm-6.9 0l4.13-6.07v6.07zm0 0"/></symbol><symbol overflow="visible" id="0799f9e3am"><path d="M10.3-10.86L6.98-2.14l-3.3-8.72H1.48V0h1.36v-9.7L6.56 0h.88l3.68-9.69V0h1.36v-10.86zm0 0"/></symbol><symbol overflow="visible" id="0799f9e3an"><path d="M4.95-10.86H1.47V0h3.48c3.1 0 5.28-2.08 5.28-5.42 0-3.36-2.18-5.44-5.28-5.44zm-.2 9.72H2.81v-8.6h1.94c2.6 0 4.13 1.6 4.13 4.32 0 2.7-1.55 4.28-4.13 4.28zm0 0"/></symbol><symbol overflow="visible" id="0799f9e3ao"><path d="M2.81-10.86H1.47V0H2.8zm0 0"/></symbol><symbol overflow="visible" id="0799f9e3ap"><path d="M3.52-3.1L6-4.59C7.75-5.6 8.1-6.6 8.1-7.8c0-1.84-1.27-3.26-3.5-3.26C2.2-11.06.9-9.53.82-7.4h1.31c.1-1.55.92-2.53 2.45-2.53 1.47 0 2.16 1 2.16 2.12 0 .96-.4 1.64-1.48 2.27L3.1-4.27C1.39-3.27.7-2.07.7-.47V0h7.4v-1.13H2.08c.14-.92.65-1.51 1.44-1.98zm0 0"/></symbol><symbol overflow="visible" id="0799f9e3aq"><path d="M4.88-7.17c-1.1 0-2 .42-2.54 1.1l.24-3.68h5.3v-1.1H1.46l-.4 5.94h1.55c.4-.67 1.07-1.07 2.02-1.07 1.58 0 2.44 1.04 2.44 2.48S6.16-.94 4.66-.94c-1.49 0-2.44-.87-2.5-2.2H.8C.8-1.16 2.4.19 4.64.19c2.5 0 3.78-1.74 3.78-3.66 0-2.08-1.33-3.7-3.54-3.7zm0 0"/></symbol><symbol overflow="visible" id="0799f9e3ar"><path d="M9.05-10.86v4.64H2.8v-4.64H1.47V0H2.8v-5.1h6.24V0h1.34v-10.86zm0 0"/></symbol><symbol overflow="visible" id="0799f9e3as"><path d="M9.13-10.86v9.77l-5.61-9.77H1.47V0h1.28v-9.78L8.35 0h2.04v-10.86zm0 0"/></symbol><symbol overflow="visible" id="0799f9e3at"><path d="M.3-10.86v1.11h5.75L1.47 0h1.4l4.49-9.77v-1.09zm0 0"/></symbol><symbol overflow="visible" id="0799f9e3au"><path d="M6.53-5.69a2.5 2.5 0 001.75-2.4c0-1.7-1.48-2.97-3.56-2.97-2.1 0-3.58 1.26-3.58 2.97 0 1.12.7 2.06 1.75 2.4a2.78 2.78 0 00-2.1 2.7C.8-1.15 2.46.2 4.73.2c2.26 0 3.9-1.35 3.9-3.17 0-1.33-.85-2.36-2.09-2.7zM4.72-9.95c1.31 0 2.16.8 2.16 1.9 0 .96-.75 1.85-2.16 1.85-1.4 0-2.17-.9-2.17-1.85 0-1.1.84-1.9 2.17-1.9zm0 8.98c-1.44 0-2.44-.83-2.44-2.08 0-1.23 1-2.06 2.44-2.06s2.42.83 2.42 2.06c0 1.25-.98 2.08-2.42 2.08zm0 0"/></symbol></defs><path fill="#f2f2f2" d="M0 0h1366v768H0z"/><use xlink:href="#0799f9e3a" x="117.4004" y="176.3516"/><use xlink:href="#0799f9e3b" x="210.3674" y="176.3516"/><use xlink:href="#0799f9e3c" x="319.8264" y="176.3516"/><use xlink:href="#0799f9e3d" x="440.8564" y="176.3516"/><use xlink:href="#0799f9e3e" x="520.5234" y="176.3516"/><use xlink:href="#0799f9e3f" x="563.7484" y="176.3516"/><use xlink:href="#0799f9e3g" x="635.4354" y="176.3516"/><use xlink:href="#0799f9e3h" x="710.7134" y="176.3516"/><use xlink:href="#0799f9e3i" x="738.7764" y="176.3516"/><use xlink:href="#0799f9e3j" x="771.6274" y="176.3516"/><use xlink:href="#0799f9e3k" x="854.2204" y="176.3516"/><use xlink:href="#0799f9e3l" x="928.3014" y="176.3516"/><use xlink:href="#0799f9e3k" x="971.5264" y="176.3516"/><use xlink:href="#0799f9e3e" x="1045.6074" y="176.3516"/><use xlink:href="#0799f9e3m" x="1088.8324" y="176.3516"/><use xlink:href="#0799f9e3k" x="1119.5554" y="176.3516"/><use xlink:href="#0799f9e3k" x="1193.6364" y="176.3516"/><use xlink:href="#0799f9e3n" x="123.0684" y="668.1641"/><use xlink:href="#0799f9e3o" x="220.959218" y="668.1641"/><use xlink:href="#0799f9e3p" x="322.594493" y="668.1641"/><use xlink:href="#0799f9e3q" x="421.020233" y="668.1641"/><use xlink:href="#0799f9e3r" x="468.450028" y="668.1641"/><use xlink:href="#0799f9e3s" x="622.686015" y="668.1641"/><use xlink:href="#0799f9e3t" x="723.60806" y="668.1641"/><use xlink:href="#0799f9e3p" x="830.235945" y="668.1641"/><use xlink:href="#0799f9e3u" x="928.661685" y="668.1641"/><use xlink:href="#0799f9e3v" x="983.402087" y="668.1641"/><use xlink:href="#0799f9e3w" x="1085.037362" y="668.1641"/><use xlink:href="#0799f9e3x" x="1123.195168" y="668.1641"/><use xlink:href="#0799f9e3y" x="1212.527225" y="668.1641"/><g><use xlink:href="#0799f9e3z" x="119.5615" y="495.332"/><use xlink:href="#0799f9e3A" x="213.6865" y="495.332"/><use xlink:href="#0799f9e3B" x="281.0615" y="495.332"/><use xlink:href="#0799f9e3C" x="357.3115" y="495.332"/><use xlink:href="#0799f9e3D" x="428.3115" y="495.332"/><use xlink:href="#0799f9e3E" x="456.6865" y="495.332"/><use xlink:href="#0799f9e3F" x="537.5615" y="495.332"/><use xlink:href="#0799f9e3G" x="607.0615" y="495.332"/><use xlink:href="#0799f9e3H" x="652.5615" y="495.332"/><use xlink:href="#0799f9e3D" x="720.8115" y="495.332"/><use xlink:href="#0799f9e3I" x="749.1865" y="495.332"/><use xlink:href="#0799f9e3J" x="828.9365" y="495.332"/><use xlink:href="#0799f9e3C" x="901.8115" y="495.332"/><use xlink:href="#0799f9e3K" x="972.8115" y="495.332"/><use xlink:href="#0799f9e3C" x="1087.0615" y="495.332"/><use xlink:href="#0799f9e3L" x="1158.0615" y="495.332"/><use xlink:href="#0799f9e3B" x="1189.3115" y="495.332"/></g><g><use xlink:href="#0799f9e3M" x="122.9131" y="343.3164"/><use xlink:href="#0799f9e3N" x="235.638831" y="343.3164"/><use xlink:href="#0799f9e3O" x="336.333892" y="343.3164"/><use xlink:href="#0799f9e3P" x="437.193756" y="343.3164"/><use xlink:href="#0799f9e3Q" x="486.964473" y="343.3164"/><use xlink:href="#0799f9e3O" x="644.516811" y="343.3164"/><use xlink:href="#0799f9e3R" x="745.376675" y="343.3164"/><use xlink:href="#0799f9e3S" x="816.077462" y="343.3164"/><use xlink:href="#0799f9e3T" x="910.180375" y="343.3164"/><use xlink:href="#0799f9e3U" x="1017.467584" y="343.3164"/><use xlink:href="#0799f9e3P" x="1116.185" y="343.3164"/><use xlink:href="#0799f9e3O" x="1165.955717" y="343.3164"/></g><g fill="#1a26cd"><use xlink:href="#0799f9e3V" x="267.1953" y="79.1191"/><use xlink:href="#0799f9e3W" x="279.8673" y="79.1191"/></g><g fill="#1a26cd"><use xlink:href="#0799f9e3X" x="283.7713" y="79.1191"/><use xlink:href="#0799f9e3Y" x="294.4593" y="79.1191"/><use xlink:href="#0799f9e3Y" x="306.1393" y="79.1191"/><use xlink:href="#0799f9e3Z" x="317.8193" y="79.1191"/><use xlink:href="#0799f9e3W" x="327.7873" y="79.1191"/></g><g fill="#1a26cd"><use xlink:href="#0799f9e3aa" x="331.6913" y="79.1191"/></g><g fill="#1a26cd"><use xlink:href="#0799f9e3W" x="345.8513" y="79.1191"/><use xlink:href="#0799f9e3ab" x="349.7553" y="79.1191"/><use xlink:href="#0799f9e3ac" x="355.4673" y="79.1191"/><use xlink:href="#0799f9e3ac" x="364.7473" y="79.1191"/><use xlink:href="#0799f9e3W" x="374.0273" y="79.1191"/><use xlink:href="#0799f9e3ad" x="377.9313" y="79.1191"/><use xlink:href="#0799f9e3ae" x="387.9633" y="79.1191"/><use xlink:href="#0799f9e3af" x="397.2273" y="79.1191"/></g><g fill="#1a26cd"><use xlink:href="#0799f9e3V" x="759.1953" y="220.1271"/><use xlink:href="#0799f9e3W" x="771.8673" y="220.1271"/></g><g fill="#1a26cd"><use xlink:href="#0799f9e3ag" x="775.7713" y="220.1271"/><use xlink:href="#0799f9e3ah" x="785.7553" y="220.1271"/><use xlink:href="#0799f9e3ad" x="797.4193" y="220.1271"/><use xlink:href="#0799f9e3ai" x="807.4513" y="220.1271"/><use xlink:href="#0799f9e3aj" x="817.2593" y="220.1271"/><use xlink:href="#0799f9e3W" x="827.8673" y="220.1271"/></g><g fill="#1a26cd"><use xlink:href="#0799f9e3aa" x="831.7713" y="220.1271"/></g><g fill="#1a26cd"><use xlink:href="#0799f9e3W" x="845.9313" y="220.1271"/><use xlink:href="#0799f9e3ab" x="849.8353" y="220.1271"/><use xlink:href="#0799f9e3ak" x="855.5473" y="220.1271"/><use xlink:href="#0799f9e3al" x="864.9553" y="220.1271"/><use xlink:href="#0799f9e3W" x="874.1713" y="220.1271"/><use xlink:href="#0799f9e3ad" x="878.0753" y="220.1271"/><use xlink:href="#0799f9e3ae" x="888.1073" y="220.1271"/></g><g fill="#1a26cd"><use xlink:href="#0799f9e3V" x="502.2033" y="398.1271"/><use xlink:href="#0799f9e3W" x="514.8753" y="398.1271"/></g><g fill="#1a26cd"><use xlink:href="#0799f9e3am" x="518.7793" y="398.1271"/><use xlink:href="#0799f9e3ai" x="532.7313" y="398.1271"/><use xlink:href="#0799f9e3an" x="542.5393" y="398.1271"/><use xlink:href="#0799f9e3ao" x="553.7393" y="398.1271"/><use xlink:href="#0799f9e3ah" x="558.0273" y="398.1271"/><use xlink:href="#0799f9e3am" x="569.6913" y="398.1271"/><use xlink:href="#0799f9e3W" x="583.6433" y="398.1271"/></g><g fill="#1a26cd"><use xlink:href="#0799f9e3aa" x="587.5473" y="398.1271"/></g><g fill="#1a26cd"><use xlink:href="#0799f9e3W" x="601.7073" y="398.1271"/><use xlink:href="#0799f9e3ab" x="605.6113" y="398.1271"/><use xlink:href="#0799f9e3ap" x="611.3233" y="398.1271"/><use xlink:href="#0799f9e3aq" x="620.3153" y="398.1271"/><use xlink:href="#0799f9e3W" x="629.4193" y="398.1271"/><use xlink:href="#0799f9e3ad" x="633.3233" y="398.1271"/><use xlink:href="#0799f9e3ae" x="643.3553" y="398.1271"/></g><g fill="#1a26cd"><use xlink:href="#0799f9e3V" x="936.2033" y="543.1351"/><use xlink:href="#0799f9e3W" x="948.8753" y="543.1351"/></g><g fill="#1a26cd"><use xlink:href="#0799f9e3ae" x="952.7793" y="543.1351"/><use xlink:href="#0799f9e3ar" x="962.0433" y="543.1351"/><use xlink:href="#0799f9e3ao" x="973.8993" y="543.1351"/><use xlink:href="#0799f9e3as" x="978.1873" y="543.1351"/><use xlink:href="#0799f9e3W" x="990.0433" y="543.1351"/></g><g fill="#1a26cd"><use xlink:href="#0799f9e3aa" x="993.9473" y="543.1351"/></g><g fill="#1a26cd"><use xlink:href="#0799f9e3W" x="1008.1073" y="543.1351"/><use xlink:href="#0799f9e3ab" x="1012.0113" y="543.1351"/><use xlink:href="#0799f9e3at" x="1017.7233" y="543.1351"/><use xlink:href="#0799f9e3au" x="1025.3873" y="543.1351"/><use xlink:href="#0799f9e3W" x="1034.8113" y="543.1351"/><use xlink:href="#0799f9e3ad" x="1038.7153" y="543.1351"/><use xlink:href="#0799f9e3ae" x="1048.7473" y="543.1351"/></g></svg>