<?xml version="1.0" encoding="UTF-8"?><svg id="Layer_1" xmlns="http://www.w3.org/2000/svg" viewBox="0 0 1366 768"><defs><style>.cls-1{fill:#fdfaf5;}.cls-2{fill:#12100b;}</style></defs><rect class="cls-2" width="1366" height="768"/><g><path class="cls-1" d="M587.02,576.47v32.5h-182.48v-32.5l53.22-5.85-44.24-104.65H208.93l-40.09,104.65,58.75,5.85v32.5H76.91v-32.5l50.46-5.85L293.26,139.03h55.3l190.08,431.6,48.38,5.85Zm-192.16-154.05l-89.86-208.65-79.49,208.65h169.35Z"/><path class="cls-1" d="M746.48,177.38v393.25l49.77,5.85v32.5h-175.57v-32.5l53.22-5.85h1.38V177.38l-53.22-5.85v-32.5h174.88v32.5l-50.46,5.85Z"/><path class="cls-1" d="M1290.31,578.42l-19.35,30.55c-117.51-46.15-192.16-122.85-241.23-210.6h-68.43v172.25l58.06,5.85v32.5h-182.48v-32.5l53.22-5.85V177.38l-52.53-5.85v-32.5h216.35c116.81,0,186.63,45.5,186.63,126.75,0,68.9-55.99,110.5-127.87,125.45,39.4,76.7,93.31,133.9,177.64,187.2Zm-257.13-218.4c82.94,0,129.26-31.2,129.26-94.25,0-59.8-54.61-87.75-132.71-87.75-12.44,0-43.55,0-68.43-.65v182.65h71.89Z"/></g><g><path class="cls-1" d="M88.46,724.72c0,2.72-2.21,4.9-4.93,4.9s-4.9-2.19-4.9-4.9,2.19-4.93,4.9-4.93,4.93,2.21,4.93,4.93Zm-.83,0c0-2.26-1.85-4.1-4.1-4.1s-4.08,1.85-4.08,4.1,1.82,4.08,4.08,4.08,4.1-1.82,4.1-4.08Zm-1.02,.04c0,1.68-1.29,3.04-3.08,3.04s-3.08-1.36-3.08-3.04h.49c.31,1.5,1.33,2.23,2.59,2.23s2.28-.73,2.59-2.23h.49Zm-4.8-1.68c0-.55,.18-.97,.52-.97s.48,.42,.48,.97-.15,.99-.48,.99-.52-.45-.52-.99Zm2.45,0c0-.55,.15-.97,.48-.97s.52,.42,.52,.97-.18,.99-.52,.99-.48-.45-.48-.99Z"/><path class="cls-1" d="M97.74,725.3h-2.06v4.16h-1.19v-9.51h3.91c2.17,0,3.17,1.01,3.17,2.62,0,1.43-.78,2.4-2.55,2.61l3.07,4.29h-1.33l-3.01-4.16Zm-2.06-.99h2.58c1.39,0,2.12-.63,2.12-1.74s-.76-1.62-2.14-1.62h-2.55v3.36Z"/><path class="cls-1" d="M105.13,720.95v3.14h4.8v1h-4.8v3.36h5.39v1.01h-6.57v-9.51h6.57v1.01h-5.39Z"/><path class="cls-1" d="M118.41,726.84h-4.19l-.99,2.62h-1.26l3.75-9.51h1.27l3.63,9.51h-1.26l-.95-2.62Zm-.36-1l-1.7-4.68-1.76,4.68h3.46Z"/><path class="cls-1" d="M130.06,724.71c0,2.93-1.92,4.75-4.62,4.75h-3.05v-9.51h3.05c2.7,0,4.62,1.82,4.62,4.76Zm-1.19,0c0-2.38-1.33-3.77-3.61-3.77h-1.69v7.52h1.69c2.26,0,3.61-1.39,3.61-3.75Z"/><path class="cls-1" d="M133.55,720.95v3.14h4.8v1h-4.8v3.36h5.39v1.01h-6.57v-9.51h6.57v1.01h-5.39Z"/><path class="cls-1" d="M144.25,725.3h-2.06v4.16h-1.19v-9.51h3.91c2.17,0,3.17,1.01,3.17,2.62,0,1.43-.78,2.4-2.55,2.61l3.07,4.29h-1.33l-3.01-4.16Zm-2.06-.99h2.58c1.39,0,2.12-.63,2.12-1.74s-.76-1.62-2.14-1.62h-2.55v3.36Z"/><path class="cls-1" d="M157.65,725.3h-2.06v4.16h-1.19v-9.51h3.91c2.17,0,3.17,1.01,3.17,2.62,0,1.43-.78,2.4-2.55,2.61l3.07,4.29h-1.33l-3.01-4.16Zm-2.06-.99h2.58c1.39,0,2.12-.63,2.12-1.74s-.76-1.62-2.14-1.62h-2.55v3.36Z"/><path class="cls-1" d="M163.21,724.71c0-2.94,1.81-4.93,4.43-4.93s4.43,1.99,4.43,4.93-1.81,4.92-4.43,4.92-4.43-1.99-4.43-4.92Zm7.66,0c0-2.44-1.27-3.94-3.24-3.94s-3.24,1.5-3.24,3.94,1.27,3.92,3.24,3.92,3.24-1.5,3.24-3.92Z"/><path class="cls-1" d="M183.96,719.95v9.51h-1.19v-8.47l-3.22,8.47h-.77l-3.26-8.49v8.49h-1.19v-9.51h1.93l2.9,7.63,2.9-7.63h1.9Z"/><path class="cls-1" d="M192.13,726.84h-4.19l-.99,2.62h-1.26l3.75-9.51h1.27l3.63,9.51h-1.26l-.95-2.62Zm-.36-1l-1.7-4.68-1.76,4.68h3.46Z"/><path class="cls-1" d="M203.91,719.95v9.51h-1.79l-4.89-8.56v8.56h-1.12v-9.51h1.79l4.9,8.56v-8.56h1.11Z"/></g><g><path class="cls-1" d="M1225.49,724.72c0,2.72-2.21,4.9-4.93,4.9s-4.9-2.19-4.9-4.9,2.18-4.93,4.9-4.93,4.93,2.21,4.93,4.93Zm-.83,0c0-2.26-1.85-4.1-4.1-4.1s-4.08,1.85-4.08,4.1,1.82,4.08,4.08,4.08,4.1-1.82,4.1-4.08Zm-1.02,.04c0,1.68-1.29,3.04-3.08,3.04s-3.08-1.36-3.08-3.04h.49c.31,1.5,1.33,2.23,2.59,2.23s2.28-.73,2.59-2.23h.49Zm-4.8-1.68c0-.55,.18-.97,.52-.97s.48,.42,.48,.97-.15,.99-.48,.99-.52-.45-.52-.99Zm2.45,0c0-.55,.15-.97,.48-.97s.52,.42,.52,.97-.18,.99-.52,.99-.48-.45-.48-.99Z"/><path class="cls-1" d="M1237.77,726.36c0,1.95-1.32,3.26-3.29,3.26-2.73,0-3.52-2.42-3.52-5,0-3.39,1.75-4.85,3.66-4.85,1.78,0,2.75,.88,3,2.44h-1.19c-.2-.92-.77-1.43-1.81-1.43-1.6,0-2.49,1.5-2.49,3.56v.2c.46-.85,1.3-1.33,2.47-1.33,2,0,3.18,1.37,3.18,3.15Zm-1.16,0c0-1.12-.69-2.14-2.09-2.14s-2.19,1.02-2.19,2.14,.79,2.25,2.19,2.25,2.09-1.13,2.09-2.25Z"/><path class="cls-1" d="M1246.22,726.42c0,1.68-1.12,3.21-3.31,3.21-1.98,0-3.36-1.18-3.36-2.91h1.19c.06,1.16,.88,1.92,2.18,1.92s2.12-.98,2.12-2.24-.74-2.17-2.13-2.17c-.84,0-1.43,.35-1.76,.94h-1.37l.36-5.21h5.6v.98h-4.64l-.21,3.21c.48-.59,1.26-.95,2.23-.95,1.93,0,3.1,1.42,3.1,3.24Z"/><path class="cls-1" d="M1247.87,724.72c0-2.87,1.4-4.95,3.8-4.95s3.8,2.07,3.8,4.95-1.4,4.9-3.8,4.9-3.8-2.03-3.8-4.9Zm6.43,0c0-2.38-.92-3.91-2.63-3.91s-2.63,1.53-2.63,3.91,.92,3.87,2.63,3.87,2.63-1.49,2.63-3.87Z"/><path class="cls-1" d="M1268.66,722.59c0,1.57-1.08,2.7-3.25,2.7h-2.63v4.16h-1.19v-9.51h3.92c2.17,0,3.15,1.01,3.15,2.65Zm-1.19,0c0-1.07-.66-1.65-2.16-1.65h-2.54v3.36h2.54c1.5,0,2.16-.69,2.16-1.71Z"/><path class="cls-1" d="M1277.35,720.93h-3.15v8.53h-1.18v-8.53h-3.17v-.98h7.49v.98Z"/><path class="cls-1" d="M1278.43,726.63h1.25c.18,1.34,1.18,2,2.72,2,1.62,0,2.38-.71,2.38-1.64,0-.84-.56-1.33-1.67-1.58l-2.21-.49c-1.4-.31-2.16-1.16-2.16-2.41,0-1.54,1.3-2.73,3.4-2.73s3.52,.88,3.73,2.83h-1.25c-.18-1.26-1.11-1.83-2.51-1.83s-2.13,.7-2.13,1.6c0,.69,.35,1.16,1.44,1.42l2.14,.49c1.54,.35,2.45,1.19,2.45,2.55,0,1.67-1.3,2.8-3.63,2.8-2.49,0-3.77-1.08-3.96-3Z"/></g><g><path class="cls-1" d="M85.29,44.66c0,2.37-1.56,4.3-4.73,4.3h-3.41v5.86h-2.72v-14.26h6.19c3.17,0,4.67,1.7,4.67,4.09Zm-2.7,.06c0-1.26-.77-1.93-2.42-1.93h-3.01v3.95h3.03c1.64,0,2.4-.82,2.4-2.02Z"/><path class="cls-1" d="M92.34,43.95v2.44c-.16-.02-.33-.04-.59-.04-1.6,0-2.46,.99-2.46,2.71v5.77h-2.6v-10.86h2.34v1.87c.49-1.3,1.5-1.97,2.7-1.97,.22,0,.39,.02,.61,.08Z"/><path class="cls-1" d="M93.09,49.41c0-3.49,2.25-5.69,5.18-5.69s5.16,2.21,5.16,5.69-2.25,5.67-5.16,5.67-5.18-2.18-5.18-5.67Zm7.68,0c0-2.12-.95-3.44-2.52-3.44s-2.52,1.34-2.52,3.44,.95,3.42,2.52,3.42,2.52-1.32,2.52-3.42Z"/><path class="cls-1" d="M107.65,56.02c0,1.87-.95,3-2.84,3-.73,0-1.02-.08-1.36-.19v-2.1c.16,.04,.28,.06,.55,.06,.71,0,1.04-.4,1.04-1.16v-11.67h2.6v12.05Zm-2.86-15.24c0-.9,.63-1.64,1.58-1.64s1.54,.73,1.54,1.64-.63,1.64-1.54,1.64-1.58-.76-1.58-1.64Z"/><path class="cls-1" d="M119.26,49.56c0,.34-.02,.63-.02,.63h-7.37c.18,1.97,1.16,2.79,2.54,2.79,1.12,0,1.75-.53,2.05-1.32h2.58c-.45,1.93-2.07,3.42-4.65,3.42-3.25,0-5.12-2.31-5.12-5.61s2.07-5.75,5.04-5.75c3.19,0,5,2.35,4.94,5.84Zm-2.66-1.18c-.08-1.64-.93-2.56-2.27-2.56-1.24,0-2.17,.84-2.42,2.56h4.69Z"/><path class="cls-1" d="M120.41,49.39c0-3.53,2.15-5.67,5.08-5.67s4.43,1.7,4.77,4.07h-2.64c-.24-1.22-.93-1.83-2.15-1.83-1.48,0-2.42,1.26-2.42,3.4s.91,3.46,2.44,3.46c1.24,0,1.87-.63,2.13-1.83h2.62c-.33,2.42-1.97,4.07-4.75,4.07-2.94,0-5.08-2.14-5.08-5.69Z"/><path class="cls-1" d="M135.33,46.26v4.83c0,1.03,.47,1.53,1.34,1.53,.35,0,.59-.02,.83-.08v2.25c-.51,.15-.81,.17-1.44,.17-2.3,0-3.33-1.39-3.33-3.74v-4.96h-1.6v-2.29h1.6v-3.06h2.6v3.06h2.17v2.29h-2.17Z"/><path class="cls-1" d="M153.92,49.41c0,3.59-2.17,5.67-4.59,5.67-1.46,0-2.58-.69-3.29-1.89v1.64h-2.38v-15.12h2.58v5.63c.69-1.05,1.77-1.62,3.19-1.62,2.42,0,4.49,2.04,4.49,5.69Zm-2.62,0c0-2.1-1-3.46-2.54-3.46-1.46,0-2.52,1.38-2.52,3.46s1.04,3.44,2.52,3.44,2.54-1.34,2.54-3.44Z"/><path class="cls-1" d="M164.32,47.71v7.12h-2.34v-1.39c-.79,1.11-1.87,1.64-3.25,1.64-2.17,0-3.66-1.37-3.66-3.25s1.06-3.09,3.6-3.36l3.07-.34v-.59c0-1.22-.71-1.81-1.83-1.81-1.18,0-1.83,.5-2.03,1.58h-2.6c.28-2.35,1.91-3.59,4.59-3.59s4.45,1.24,4.45,3.99Zm-2.6,2.88v-.8l-2.44,.34c-1.08,.15-1.58,.76-1.58,1.57s.63,1.51,1.71,1.51c1.5,0,2.31-1.07,2.31-2.62Z"/><path class="cls-1" d="M165.87,51.66h2.54c.22,.96,.93,1.47,2.17,1.47s1.89-.5,1.89-1.24c0-.63-.35-1.07-1.28-1.24l-2.19-.44c-2.07-.42-2.94-1.45-2.94-3.11,0-1.81,1.46-3.38,4.24-3.38s4.25,1.41,4.59,3.59h-2.56c-.16-1.09-.87-1.64-2.05-1.64s-1.77,.57-1.77,1.26c0,.59,.3,.99,1.36,1.18l2.15,.4c2.23,.4,3.03,1.51,3.03,3.19,0,1.81-1.34,3.38-4.45,3.38s-4.35-1.39-4.73-3.42Z"/><path class="cls-1" d="M186.13,49.56c0,.34-.02,.63-.02,.63h-7.37c.18,1.97,1.16,2.79,2.54,2.79,1.12,0,1.75-.53,2.05-1.32h2.58c-.45,1.93-2.07,3.42-4.65,3.42-3.25,0-5.12-2.31-5.12-5.61s2.07-5.75,5.04-5.75c3.19,0,5,2.35,4.94,5.84Zm-2.66-1.18c-.08-1.64-.93-2.56-2.27-2.56-1.24,0-2.17,.84-2.42,2.56h4.69Z"/><path class="cls-1" d="M197.57,39.71v15.12h-2.34v-1.83c-.65,1.36-1.79,2.08-3.35,2.08-2.42,0-4.59-2.08-4.59-5.67s2.07-5.69,4.49-5.69c1.42,0,2.5,.57,3.19,1.62v-5.63h2.6Zm-2.6,9.7c0-2.08-1.06-3.46-2.52-3.46-1.54,0-2.54,1.36-2.54,3.46s1.06,3.44,2.54,3.44,2.52-1.32,2.52-3.44Z"/><path class="cls-1" d="M203.75,49.41c0-3.49,2.25-5.69,5.18-5.69s5.16,2.21,5.16,5.69-2.25,5.67-5.16,5.67-5.18-2.18-5.18-5.67Zm7.68,0c0-2.12-.95-3.44-2.52-3.44s-2.52,1.34-2.52,3.44,.95,3.42,2.52,3.42,2.52-1.32,2.52-3.42Z"/><path class="cls-1" d="M225.08,47.98v6.84h-2.6v-6.21c0-1.79-.79-2.58-1.99-2.58s-2.11,.88-2.11,2.58v6.21h-2.6v-10.86h2.34v1.53c.67-1.2,1.75-1.79,3.21-1.79,2.13,0,3.74,1.34,3.74,4.26Z"/><path class="cls-1" d="M249.72,40.57l-3.82,14.26h-3.13l-2.56-10.12-2.36,10.12h-3.19l-3.94-14.26h2.76l2.78,10.96,2.66-10.96h2.62l2.88,10.96,2.6-10.96h2.72Z"/><path class="cls-1" d="M250.87,40.78c0-.9,.63-1.64,1.58-1.64s1.54,.73,1.54,1.64-.63,1.64-1.54,1.64-1.58-.76-1.58-1.64Zm.26,3.19h2.6v10.86h-2.6v-10.86Z"/><path class="cls-1" d="M258.55,54.83h-2.6v-15.12h2.6v15.12Z"/><path class="cls-1" d="M263.36,54.83h-2.6v-15.12h2.6v15.12Z"/><path class="cls-1" d="M265.31,40.78c0-.9,.63-1.64,1.58-1.64s1.54,.73,1.54,1.64-.63,1.64-1.54,1.64-1.58-.76-1.58-1.64Zm.26,3.19h2.6v10.86h-2.6v-10.86Z"/><path class="cls-1" d="M279.12,47.71v7.12h-2.34v-1.39c-.79,1.11-1.87,1.64-3.25,1.64-2.17,0-3.66-1.37-3.66-3.25s1.06-3.09,3.6-3.36l3.07-.34v-.59c0-1.22-.71-1.81-1.83-1.81-1.18,0-1.83,.5-2.03,1.58h-2.6c.28-2.35,1.91-3.59,4.59-3.59s4.45,1.24,4.45,3.99Zm-2.6,2.88v-.8l-2.44,.34c-1.08,.15-1.58,.76-1.58,1.57s.63,1.51,1.71,1.51c1.5,0,2.31-1.07,2.31-2.62Z"/><path class="cls-1" d="M296.85,48.02v6.8h-2.6v-6.24c0-1.7-.79-2.48-1.89-2.48s-2.01,.8-2.01,2.35v6.36h-2.6v-6.24c0-1.7-.79-2.48-1.89-2.48s-1.99,.78-1.99,2.35v6.36h-2.6v-10.86h2.34v1.51c.65-1.18,1.75-1.76,3.11-1.76,1.46,0,2.58,.71,3.17,2,.69-1.32,1.85-2,3.29-2,2.23,0,3.66,1.6,3.66,4.3Z"/><path class="cls-1" d="M318.7,40.57v14.26h-2.7v-11.65l-3.66,11.65h-2.15l-3.68-11.67v11.67h-2.72v-14.26h4.24l3.25,10.22,3.21-10.22h4.22Z"/><path class="cls-1" d="M320.65,49.41c0-3.49,2.25-5.69,5.18-5.69s5.16,2.21,5.16,5.69-2.25,5.67-5.16,5.67-5.18-2.18-5.18-5.67Zm7.68,0c0-2.12-.95-3.44-2.52-3.44s-2.52,1.34-2.52,3.44,.95,3.42,2.52,3.42,2.52-1.32,2.52-3.42Z"/><path class="cls-1" d="M338.33,43.95v2.44c-.16-.02-.33-.04-.59-.04-1.6,0-2.46,.99-2.46,2.71v5.77h-2.6v-10.86h2.34v1.87c.49-1.3,1.5-1.97,2.7-1.97,.22,0,.39,.02,.61,.08Z"/><path class="cls-1" d="M345.28,43.95v2.44c-.16-.02-.33-.04-.59-.04-1.6,0-2.46,.99-2.46,2.71v5.77h-2.6v-10.86h2.34v1.87c.49-1.3,1.5-1.97,2.7-1.97,.22,0,.39,.02,.61,.08Z"/><path class="cls-1" d="M346.33,40.78c0-.9,.63-1.64,1.58-1.64s1.54,.73,1.54,1.64-.63,1.64-1.54,1.64-1.58-.76-1.58-1.64Zm.26,3.19h2.6v10.86h-2.6v-10.86Z"/><path class="cls-1" d="M350.79,51.66h2.54c.22,.96,.93,1.47,2.17,1.47s1.89-.5,1.89-1.24c0-.63-.35-1.07-1.28-1.24l-2.19-.44c-2.07-.42-2.94-1.45-2.94-3.11,0-1.81,1.46-3.38,4.24-3.38s4.25,1.41,4.59,3.59h-2.56c-.16-1.09-.87-1.64-2.05-1.64s-1.77,.57-1.77,1.26c0,.59,.3,.99,1.36,1.18l2.15,.4c2.23,.4,3.03,1.51,3.03,3.19,0,1.81-1.34,3.38-4.45,3.38s-4.35-1.39-4.73-3.42Z"/><path class="cls-1" d="M369.56,46.26v4.83c0,1.03,.47,1.53,1.34,1.53,.35,0,.59-.02,.83-.08v2.25c-.51,.15-.81,.17-1.44,.17-2.3,0-3.33-1.39-3.33-3.74v-4.96h-1.6v-2.29h1.6v-3.06h2.6v3.06h2.17v2.29h-2.17Z"/><path class="cls-1" d="M383.12,43.97l-6.01,14.8h-2.76l2.15-4.91-3.9-9.89h2.76l2.48,7.12,2.64-7.12h2.64Z"/><path class="cls-1" d="M394.52,49.41c0,3.59-2.19,5.67-4.61,5.67-1.34,0-2.36-.57-3.07-1.57v5.27h-2.6v-14.8h2.34v1.76c.69-1.28,1.83-2.02,3.45-2.02,2.42,0,4.49,2.04,4.49,5.69Zm-2.64,0c0-2.08-1-3.46-2.54-3.46-1.46,0-2.5,1.41-2.5,3.46s1.04,3.44,2.5,3.44,2.54-1.34,2.54-3.44Z"/><path class="cls-1" d="M405.65,49.56c0,.34-.02,.63-.02,.63h-7.37c.18,1.97,1.16,2.79,2.54,2.79,1.12,0,1.75-.53,2.05-1.32h2.58c-.45,1.93-2.07,3.42-4.65,3.42-3.25,0-5.12-2.31-5.12-5.61s2.07-5.75,5.04-5.75c3.19,0,5,2.35,4.94,5.84Zm-2.66-1.18c-.08-1.64-.93-2.56-2.27-2.56-1.24,0-2.17,.84-2.42,2.56h4.69Z"/><path class="cls-1" d="M410.6,43.32v.65h2.42v2.29h-2.42v8.57h-2.6v-8.57h-1.6v-2.29h1.6v-.63c0-2.52,1.46-3.84,3.6-3.84,.59,0,1.1,.08,1.52,.23v2.12c-.3-.08-.61-.13-.93-.13-1.04,0-1.6,.53-1.6,1.6Z"/><path class="cls-1" d="M423.08,47.71v7.12h-2.34v-1.39c-.79,1.11-1.87,1.64-3.25,1.64-2.17,0-3.66-1.37-3.66-3.25s1.06-3.09,3.6-3.36l3.07-.34v-.59c0-1.22-.71-1.81-1.83-1.81-1.18,0-1.83,.5-2.03,1.58h-2.6c.28-2.35,1.91-3.59,4.59-3.59s4.45,1.24,4.45,3.99Zm-2.6,2.88v-.8l-2.44,.34c-1.08,.15-1.58,.76-1.58,1.57s.63,1.51,1.71,1.51c1.5,0,2.31-1.07,2.31-2.62Z"/><path class="cls-1" d="M424.68,49.39c0-3.53,2.15-5.67,5.08-5.67s4.43,1.7,4.77,4.07h-2.64c-.24-1.22-.93-1.83-2.15-1.83-1.48,0-2.42,1.26-2.42,3.4s.91,3.46,2.44,3.46c1.24,0,1.87-.63,2.13-1.83h2.62c-.33,2.42-1.97,4.07-4.75,4.07-2.94,0-5.08-2.14-5.08-5.69Z"/><path class="cls-1" d="M445.63,49.56c0,.34-.02,.63-.02,.63h-7.37c.18,1.97,1.16,2.79,2.54,2.79,1.12,0,1.75-.53,2.05-1.32h2.58c-.45,1.93-2.07,3.42-4.65,3.42-3.25,0-5.12-2.31-5.12-5.61s2.07-5.75,5.04-5.75c3.19,0,5,2.35,4.94,5.84Zm-2.66-1.18c-.08-1.64-.93-2.56-2.27-2.56-1.24,0-2.17,.84-2.42,2.56h4.69Z"/><path class="cls-1" d="M455.25,46.26v4.83c0,1.03,.47,1.53,1.34,1.53,.35,0,.59-.02,.83-.08v2.25c-.51,.15-.81,.17-1.44,.17-2.3,0-3.33-1.39-3.33-3.74v-4.96h-1.6v-2.29h1.6v-3.06h2.6v3.06h2.17v2.29h-2.17Z"/><path class="cls-1" d="M468.37,48v6.82h-2.6v-6.28c0-1.68-.87-2.5-2.01-2.5s-2.09,.88-2.09,2.54v6.24h-2.6v-15.12h2.6v5.71c.59-1.09,1.58-1.7,2.9-1.7,2.17,0,3.8,1.47,3.8,4.28Z"/><path class="cls-1" d="M479.96,49.56c0,.34-.02,.63-.02,.63h-7.37c.18,1.97,1.16,2.79,2.54,2.79,1.12,0,1.75-.53,2.05-1.32h2.58c-.45,1.93-2.07,3.42-4.65,3.42-3.25,0-5.12-2.31-5.12-5.61s2.07-5.75,5.04-5.75c3.19,0,5,2.35,4.94,5.84Zm-2.66-1.18c-.08-1.64-.93-2.56-2.27-2.56-1.24,0-2.17,.84-2.42,2.56h4.69Z"/><path class="cls-1" d="M498.69,47.12l-.02,7.71h-2.36v-2.16c-.83,1.57-1.99,2.41-4.12,2.41-3.94,0-6.48-2.86-6.48-7.37s2.76-7.39,6.56-7.39c3.35,0,5.52,1.64,6.15,4.6h-2.84c-.43-1.41-1.4-2.29-3.29-2.29-2.23,0-3.86,1.74-3.86,5.1s1.5,5.06,4.04,5.06c2.09,0,3.41-1.3,3.55-3.42h-3.8v-2.25h6.48Z"/><path class="cls-1" d="M500.3,49.41c0-3.49,2.25-5.69,5.18-5.69s5.16,2.21,5.16,5.69-2.25,5.67-5.16,5.67-5.18-2.18-5.18-5.67Zm7.68,0c0-2.12-.95-3.44-2.52-3.44s-2.52,1.34-2.52,3.44,.95,3.42,2.52,3.42,2.52-1.32,2.52-3.42Z"/><path class="cls-1" d="M514.95,54.83h-2.6v-15.12h2.6v15.12Z"/><path class="cls-1" d="M526.94,39.71v15.12h-2.34v-1.83c-.65,1.36-1.79,2.08-3.35,2.08-2.42,0-4.59-2.08-4.59-5.67s2.07-5.69,4.49-5.69c1.42,0,2.5,.57,3.19,1.62v-5.63h2.6Zm-2.6,9.7c0-2.08-1.06-3.46-2.52-3.46-1.54,0-2.54,1.36-2.54,3.46s1.06,3.44,2.54,3.44,2.52-1.32,2.52-3.44Z"/><path class="cls-1" d="M538.6,49.56c0,.34-.02,.63-.02,.63h-7.37c.18,1.97,1.16,2.79,2.54,2.79,1.12,0,1.75-.53,2.05-1.32h2.58c-.45,1.93-2.07,3.42-4.65,3.42-3.25,0-5.12-2.31-5.12-5.61s2.07-5.75,5.04-5.75c3.19,0,5,2.35,4.94,5.84Zm-2.66-1.18c-.08-1.64-.93-2.56-2.27-2.56-1.24,0-2.17,.84-2.42,2.56h4.69Z"/><path class="cls-1" d="M549.59,47.98v6.84h-2.6v-6.21c0-1.79-.79-2.58-1.99-2.58s-2.11,.88-2.11,2.58v6.21h-2.6v-10.86h2.34v1.53c.67-1.2,1.75-1.79,3.21-1.79,2.13,0,3.74,1.34,3.74,4.26Z"/><path class="cls-1" d="M566.59,42.96h-4.2v11.86h-2.7v-11.86h-4.2v-2.39h11.09v2.39Z"/><path class="cls-1" d="M575.8,43.97l-6.01,14.8h-2.76l2.15-4.91-3.9-9.89h2.76l2.48,7.12,2.64-7.12h2.64Z"/><path class="cls-1" d="M587.2,49.41c0,3.59-2.19,5.67-4.61,5.67-1.34,0-2.36-.57-3.07-1.57v5.27h-2.6v-14.8h2.34v1.76c.69-1.28,1.83-2.02,3.45-2.02,2.42,0,4.49,2.04,4.49,5.69Zm-2.64,0c0-2.08-1-3.46-2.54-3.46-1.46,0-2.5,1.41-2.5,3.46s1.04,3.44,2.5,3.44,2.54-1.34,2.54-3.44Z"/><path class="cls-1" d="M598.34,49.56c0,.34-.02,.63-.02,.63h-7.37c.18,1.97,1.16,2.79,2.54,2.79,1.12,0,1.75-.53,2.05-1.32h2.58c-.45,1.93-2.07,3.42-4.65,3.42-3.25,0-5.12-2.31-5.12-5.61s2.07-5.75,5.04-5.75c3.19,0,5,2.35,4.94,5.84Zm-2.66-1.18c-.08-1.64-.93-2.56-2.27-2.56-1.24,0-2.17,.84-2.42,2.56h4.69Z"/><path class="cls-1" d="M602.93,53.29c0,.99-.75,1.79-1.67,1.79s-1.67-.8-1.67-1.79,.75-1.76,1.67-1.76,1.67,.8,1.67,1.76Z"/></g></svg>