<?xml version="1.0" encoding="UTF-8"?>
<svg id="Layer_1" data-name="Layer 1" xmlns="http://www.w3.org/2000/svg" viewBox="0 0 1366 768">
  <defs>
    <style>
      .cls-1 {
        fill: #12100b;
        stroke-width: 0px;
      }
    </style>
  </defs>
  <path class="cls-1" d="M747.53,153.9h53.12c26.31,0,38.48,12.33,38.48,29.76,0,10.2-4.28,18.91-16.94,22.86,16.61,4.44,21.54,12.99,21.54,26.48,0,17.43-12.83,32.56-39.47,32.56h-56.73v-111.66ZM798.51,198.14c8.39,0,12.5-5.1,12.5-11.35,0-6.91-4.28-11.84-12.66-11.84h-22.86v23.19h23.02ZM801.14,244.51c9.7,0,14.47-4.93,14.47-13.16s-5.59-12.5-14.31-12.5h-25.82v25.65h25.65Z"/>
  <path class="cls-1" d="M909.18,255.2c-6.25,8.39-15.46,12.33-26.48,12.33-19.24,0-31.25-11.02-31.25-25.49s8.06-24.5,31.08-26.8l23.84-2.3v-3.78c0-7.73-4.6-12-12.5-12s-12.17,3.29-13.81,9.54h-27.13c2.47-18.09,16.12-28.12,40.62-28.12s39.63,10.03,39.63,32.4v54.6h-24.01v-10.36ZM875.14,141.07c7.73,0,13.98,6.41,13.98,14.14s-6.08,13.81-13.98,13.81-13.98-6.08-13.98-13.81,6.25-14.14,13.98-14.14ZM890.27,250.76c10.85,0,15.79-7.56,15.79-18.25v-4.77l-16.61,2.3c-7.07.99-11.02,5.1-11.02,10.52,0,5.75,4.28,10.2,11.84,10.2ZM912.3,141.07c7.73,0,14.14,6.41,14.14,14.14s-6.41,13.81-14.14,13.81-13.81-6.08-13.81-13.81,6.08-14.14,13.81-14.14Z"/>
  <path class="cls-1" d="M941.74,244.84c0-2.8.17-6.41,1.48-12.5l11.02-51.8h27.13l-10.36,48.51c-.66,2.8-.99,5.1-.99,7.07,0,5.76,3.78,9.21,10.52,9.21,8.22,0,14.31-5.76,17.27-15.29l10.52-49.5h27.13l-13.65,64.13c-1.97,9.04-2.47,14.47-2.47,20.88h-24.34c0-4.77.33-8.06,1.48-13.16-7.07,9.54-16.44,15.13-28.94,15.13-16.44,0-25.82-9.7-25.82-22.69Z"/>
  <path class="cls-1" d="M1133.48,201.59c-8.06,0-13.32,5.26-13.32,15.79v48.18h-27.13v-47.85c0-11.35-4.93-16.12-12.66-16.12s-13.32,4.93-13.32,15.79v48.18h-27.13v-85.02h24.01v12.33c5.75-9.87,15.29-14.31,26.47-14.31,12.33,0,21.54,5.59,26.31,15.46,5.75-10.52,15.46-15.46,26.8-15.46,18.25,0,29.77,12.33,29.77,32.89v54.1h-27.13v-47.85c0-11.35-4.93-16.12-12.66-16.12Z"/>
  <path class="cls-1" d="M1182,223.46c0-26.15,17.1-44.89,43.74-44.89s43.91,19.24,43.25,46.04c0,2.63-.17,5.43-.17,5.43h-60.02c1.48,13.48,8.06,18.09,17.92,18.09,7.24,0,11.35-2.8,13.48-7.4h26.64c-4.11,15.46-18.91,26.8-41.11,26.8-27.96,0-43.74-18.58-43.74-44.07ZM1241.53,214.09c-.99-9.21-6.08-15.95-15.62-15.95-8.55,0-14.47,5.26-16.61,15.95h32.23Z"/>
  <path class="cls-1" d="M300.55,343.27h13.98l27.96,91.59,26.8-91.59h13.16l28.61,91.76,26.97-91.76h13.48l-33.71,111.66h-13.65l-28.45-92.91-26.15,92.91h-13.81l-35.19-111.66Z"/>
  <path class="cls-1" d="M459.25,412.66c0-26.64,15.46-44.73,39.8-44.73s39.96,17.92,39.96,44.56-15.46,44.4-39.79,44.4-39.96-17.76-39.96-44.24ZM499.21,445.22c16.61,0,26.64-13.81,26.64-32.72s-9.87-32.89-26.8-32.89-26.64,13.98-26.64,33.05,10.03,32.56,26.8,32.56Z"/>
  <path class="cls-1" d="M551.17,412.17c0-27.46,16.61-44.24,39.8-44.24s34.37,12.33,36.67,31.08h-13.65c-2.3-12.5-9.87-19.4-23.02-19.4-16.45,0-26.64,12.66-26.64,32.56s10.2,33.05,26.64,33.05c12.99,0,20.72-6.91,23.02-19.24h13.65c-2.47,18.58-14.47,30.92-36.67,30.92s-39.8-16.94-39.8-44.73Z"/>
  <path class="cls-1" d="M680.26,379.78c-12.66,0-22.04,9.04-22.04,26.97v48.18h-13.16v-118.4h13.16v45.22c5.43-8.88,14.14-13.81,25.32-13.81,18.25,0,30.59,12.66,30.59,35.19v51.8h-12.99v-50.32c0-16.44-8.55-24.83-20.88-24.83Z"/>
  <path class="cls-1" d="M729.93,424.01c0-4.77.49-10.03,1.31-14.31,4.77-24.67,22.69-41.77,46.37-41.77,20.23,0,32.23,12.99,32.23,33.88,0,5.43-.49,10.36-1.97,15.46h-64.46c-.17,1.64-.33,3.29-.33,4.93,0,14.64,7.4,23.52,22.86,23.52,12.17,0,20.06-6.08,24.17-15.62h13.48c-5.59,16.12-18.09,26.8-39.14,26.8-24.01,0-34.53-15.79-34.53-32.89ZM796.36,406.09c.33-2.14.33-3.62.33-6.91,0-11.35-6.74-20.06-20.39-20.06-14.96,0-26.48,10.36-30.92,26.97h50.98Z"/>
  <path class="cls-1" d="M861.49,379.61c-12.99,0-22.2,8.88-22.2,26.31v49h-13.16v-85.02h12.66v11.68c5.1-8.88,13.32-13.65,25.32-13.65,18.58,0,31.08,12.33,31.08,35.03v51.96h-13.16v-49.66c0-16.94-7.56-25.65-20.55-25.65Z"/>
  <path class="cls-1" d="M911.64,413.32c0-28.45,17.27-45.39,39.47-45.39,25.32,0,38.15,17.1,38.15,45.22,0,2.79-.16,4.11-.16,4.11h-64.13c1.31,18.58,12.5,27.96,26.64,27.96,12.66,0,20.06-6.25,22.69-15.13h13.65c-3.29,14.64-14.8,26.8-35.36,26.8-25.82,0-40.95-17.27-40.95-43.58ZM975.61,406.09c-1.15-18.75-10.85-26.8-24.5-26.8s-23.68,8.88-25.82,26.8h50.32Z"/>
  <path class="cls-1" d="M1041.72,379.61c-12.99,0-22.2,8.88-22.2,26.31v49h-13.16v-85.02h12.66v11.68c5.1-8.88,13.32-13.65,25.33-13.65,18.58,0,31.08,12.33,31.08,35.03v51.96h-13.15v-49.66c0-16.94-7.56-25.65-20.56-25.65Z"/>
  <path class="cls-1" d="M1091.88,412.5c0-26.97,16.12-44.56,36.84-44.56,14.31,0,23.68,6.25,29.27,16.61v-48.02h13.15v118.4h-12.5v-17.1c-5.43,11.35-15.29,19.08-29.44,19.08-20.88,0-37.33-17.1-37.33-44.4ZM1131.35,445.39c15.13,0,26.64-12.17,26.64-32.89,0-19.57-11.68-33.22-26.64-33.22-16.44,0-26.31,13.32-26.31,33.22s11.02,32.89,26.31,32.89Z"/>
  <path class="cls-1" d="M1188.41,413.32c0-28.45,17.27-45.39,39.47-45.39,25.32,0,38.15,17.1,38.15,45.22,0,2.79-.17,4.11-.17,4.11h-64.13c1.32,18.58,12.5,27.96,26.64,27.96,12.66,0,20.06-6.25,22.69-15.13h13.65c-3.29,14.64-14.8,26.8-35.36,26.8-25.82,0-40.95-17.27-40.95-43.58ZM1252.38,406.09c-1.15-18.75-10.85-26.8-24.5-26.8s-23.68,8.88-25.82,26.8h50.32Z"/>
  <path class="cls-1" d="M537.03,532.64h38.32c24.5,0,34.53,11.68,34.53,28.45,0,12.83-9.21,23.52-22.04,25.82,17.27,1.81,27.13,13.32,27.13,26.48,0,19.73-12.5,30.92-41.61,30.92h-36.34v-111.66ZM579.46,585.42c15.46,0,27.3-10.2,27.3-24.34,0-15.13-8.88-25.49-31.41-25.49h-35.36v49.83h39.47ZM573.38,641.33c21.54,0,38.48-6.08,38.48-27.96,0-15.13-13.48-25-32.4-25h-39.47v52.95h33.38Z"/>
  <path class="cls-1" d="M665.63,643.31c18.25,0,29.93-14.8,29.93-35.36v-48.68h2.96v85.02h-2.8v-22.36c-3.95,15.13-14.64,24.34-30.42,24.34-21.87,0-29.93-13.65-29.93-31.57v-55.42h2.96v55.42c0,16.28,7.4,28.61,27.3,28.61Z"/>
  <path class="cls-1" d="M719.08,602.03c0-25.49,12.99-44.73,37.16-44.73,21.54,0,32.4,13.81,35.03,31.08h-3.12c-2.47-16.12-12.83-28.12-31.9-28.12-22.53,0-34.2,17.92-34.2,41.44s11.68,41.6,34.2,41.6c19.08,0,29.44-12,31.9-27.96h3.12c-2.63,17.1-13.48,30.92-35.03,30.92-24.17,0-37.16-19.24-37.16-44.24Z"/>
  <path class="cls-1" d="M843.9,560.26c-17.27,0-30.09,14.8-30.09,35.68v48.35h-2.96v-118.4h2.96v54.27c4.77-13.98,15.79-22.86,30.09-22.86,20.88,0,31.57,14.64,31.57,37.17v49.83h-2.96v-49.83c0-21.05-9.7-34.21-28.61-34.21Z"/>
  <path class="cls-1" d="M904.08,644.29h-2.96v-118.4h2.96v118.4Z"/>
  <path class="cls-1" d="M981.87,625.38c-8.06,12.99-22.86,20.88-38.15,20.88s-24.01-8.22-24.01-19.24c0-20.56,16.61-32.89,68.57-33.05l.66-2.79c1.15-5.59,1.81-8.72,1.81-12.33,0-11.84-7.73-18.58-22.2-18.58-15.62,0-30.26,7.73-34.37,25.16h-3.12c4.11-18.25,18.91-28.12,37.66-28.12,16.61,0,25.16,7.89,25.16,21.21,0,2.63-.49,6.08-1.81,12.17l-4.93,22.69c-2.96,13.65-4.11,19.57-5.43,30.92h-2.96c.99-7.56,1.81-12.66,3.12-18.91ZM944.04,643.31c19.9,0,37-14.47,40.45-31.08l3.29-15.29c-52.79.17-65.12,13.32-65.12,29.6,0,9.54,7.73,16.77,21.38,16.77Z"/>
  <path class="cls-1" d="M1009,601.87c0-25.49,13.98-44.56,36.51-44.56,17.76,0,29.76,11.68,34.2,27.79v-59.2h2.96v118.4h-2.8v-26.15c-4.28,16.44-16.12,28.12-34.04,28.12-22.53,0-36.84-18.91-36.84-44.4ZM1045.84,643.31c21.38,0,33.88-18.91,33.88-39.8v-3.62c0-21.05-12.66-39.63-34.2-39.63-20.39,0-33.55,17.76-33.55,41.6s13.32,41.44,33.88,41.44Z"/>
  <path class="cls-1" d="M1103.23,602.03c0-25.82,13.98-44.73,36.51-44.73s35.85,17.6,35.85,42.59v3.12h-69.4c.33,22.53,12.66,40.29,35.36,40.29,15.46,0,26.48-10.03,29.44-23.84h3.29c-3.78,14.64-14.14,26.8-32.89,26.8-24.67,0-38.15-19.57-38.15-44.24ZM1172.62,600.06c0-24.5-12.33-39.8-32.89-39.8s-32.89,16.61-33.55,39.8h66.44Z"/>
  <path class="cls-1" d="M1228.54,560.26c-18.91,0-30.26,13.81-30.26,34.7v49.33h-2.96v-85.02h2.8v19.9c4.44-13.48,14.8-21.87,30.42-21.87,19.57,0,31.41,13.16,31.41,36.01v50.98h-2.96v-50.16c0-20.72-9.7-33.88-28.45-33.88Z"/>
</svg>