<?xml version="1.0" encoding="UTF-8"?><svg id="Layer_1" xmlns="http://www.w3.org/2000/svg" viewBox="0 0 1366 768"><defs><style>.cls-1{fill:#fff;}</style></defs><rect width="1366" height="768"/><g><path class="cls-1" d="M158.33,282.86v23.02H81.04v-111.66h27.96v88.63h49.33Z"/><path class="cls-1" d="M166.06,195.38c0-8.22,5.92-14.8,15.29-14.8s15.13,6.58,15.13,14.8-6.08,14.96-15.13,14.96-15.29-6.74-15.29-14.96Zm1.64,25.49h27.13v85.02h-27.13v-85.02Z"/><path class="cls-1" d="M235.62,305.88h-27.13v-118.4h27.13v118.4Z"/><path class="cls-1" d="M276.24,305.88h-27.13v-118.4h27.13v118.4Z"/><path class="cls-1" d="M374.58,220.86l-49,115.93h-28.45l17.92-38.48-33.22-77.45h28.78l18.09,50.48,18.75-50.48h27.13Z"/><path class="cls-1" d="M458.95,261.97h-15.13v43.91h-27.96v-111.66h55.09c25.65,0,40.29,14.47,40.29,33.05,0,14.31-7.56,26.31-24.17,31.25l28.45,47.36h-30.59l-25.98-43.91Zm-15.13-21.05h22.53c12.66,0,16.94-6.25,16.94-13.32s-4.28-12.33-17.1-12.33h-22.36v25.65Z"/><path class="cls-1" d="M605.3,264.93c0,2.63-.16,5.43-.16,5.43h-60.02c1.48,13.48,8.06,18.09,17.92,18.09,7.24,0,11.35-2.8,13.48-7.4h26.64c-4.11,15.46-18.91,26.8-41.11,26.8-27.96,0-43.74-18.58-43.74-44.07s17.1-44.89,43.74-44.89,43.91,19.24,43.25,46.04Zm-27.46-10.52c-.99-9.21-6.08-15.95-15.62-15.95-8.55,0-14.47,5.26-16.61,15.95h32.23Z"/><path class="cls-1" d="M613.53,195.38c0-8.22,5.92-14.8,15.29-14.8s15.13,6.58,15.13,14.8-6.08,14.96-15.13,14.96-15.29-6.74-15.29-14.96Zm1.64,25.49h27.13v85.02h-27.13v-85.02Z"/><path class="cls-1" d="M651.84,263.45c0-27.79,18.75-44.56,44.07-44.56s38.64,13.98,41.6,32.4h-27.3c-1.64-7.56-6.25-11.18-14.64-11.18-9.87,0-16.28,8.22-16.28,23.02s6.08,23.52,16.44,23.52c8.72,0,12.5-3.78,14.47-11.35h27.13c-3.12,19.24-17.76,32.56-41.44,32.56-25.32,0-44.07-16.77-44.07-44.4Z"/><path class="cls-1" d="M830.6,251.45v54.43h-27.13v-48.51c0-11.02-6.41-16.12-14.31-16.12s-14.47,5.43-14.47,15.46v49.17h-27.13v-118.4h27.13v44.4c4.77-8.39,12.66-12.99,23.52-12.99,18.09,0,32.4,10.69,32.4,32.56Z"/><path class="cls-1" d="M125.28,446.41h-24.17v48.84h-13.98v-111.66h45.88c25.49,0,37.16,11.84,37.16,30.75,0,16.77-9.21,28.12-29.93,30.59l36.01,50.32h-15.62l-35.36-48.84Zm-24.17-11.68h30.26c16.28,0,24.83-7.4,24.83-20.39s-8.88-19.08-25.16-19.08h-29.93v39.47Z"/><path class="cls-1" d="M267.53,410.23v85.02h-12.33v-17.1c-5.43,11.35-15.29,19.08-29.44,19.08-20.88,0-37.33-17.1-37.33-44.4s16.12-44.56,36.84-44.56c14.47,0,24.17,6.58,29.6,17.1v-15.13h12.66Zm-12.99,42.59c0-19.57-11.68-33.22-26.64-33.22-16.44,0-26.31,13.32-26.31,33.22s11.02,32.89,26.31,32.89,26.64-12.17,26.64-32.89Z"/><path class="cls-1" d="M362.74,410.23l-52.13,115.93h-14.14l17.43-38.48-31.08-77.45h13.81l24.67,63.64,27.63-63.64h13.81Z"/><path class="cls-1" d="M432.96,395.43v36.83h56.4v11.68h-56.4v39.47h63.31v11.84h-77.12v-111.66h77.12v11.84h-63.31Z"/><path class="cls-1" d="M582.28,437.69v57.56h-12.33v-11.84c-6.91,9.37-16.12,13.81-28.12,13.81-16.44,0-29.6-10.36-29.6-25.32s9.87-23.68,28.45-25.65l28.61-2.96v-6.08c0-12.5-8.06-17.76-20.06-17.76s-20.06,4.93-21.71,16.94h-13.16c2.3-18.75,15.62-28.12,34.86-28.12s33.05,9.04,33.05,29.44Zm-13.16,24.17v-8.88l-26.15,3.29c-12.33,1.48-16.77,7.24-16.77,15.29s6.91,14.47,18.09,14.47c15.46,0,24.83-9.54,24.83-24.17Z"/><path class="cls-1" d="M731.6,443.45v51.8h-13.16v-50.32c0-16.44-9.04-24.83-20.88-24.83s-22.04,8.06-22.04,22.86v52.29h-12.99v-50.32c0-16.44-9.21-24.83-21.05-24.83s-21.87,7.89-21.87,22.86v52.29h-13.16v-85.02h12.66v11.18c5.26-8.22,13.98-13.16,25.32-13.16,12,0,21.71,5.43,26.8,15.46,5.59-9.54,15.62-15.46,28.45-15.46,18.91,0,31.9,12.66,31.9,35.19Z"/><path class="cls-1" d="M828.13,457.59h-64.13c1.32,18.58,12.5,27.96,26.64,27.96,12.66,0,20.06-6.25,22.69-15.13h13.65c-3.29,14.64-14.8,26.8-35.36,26.8-25.82,0-40.95-17.27-40.95-43.58,0-28.45,17.27-45.39,39.47-45.39,25.32,0,38.15,17.1,38.15,45.22,0,2.79-.16,4.11-.16,4.11Zm-13.48-11.18c-1.15-18.75-10.85-26.8-24.5-26.8s-23.68,8.88-25.82,26.8h50.32Z"/><path class="cls-1" d="M842.28,470.42h12.99c2.14,10.85,9.54,16.12,23.02,16.12s20.56-5.1,20.56-13.16c0-7.07-3.62-11.51-14.8-13.48l-18.09-3.29c-14.96-2.79-22.36-10.2-22.36-23.02,0-13.65,11.51-25.33,31.74-25.33s32.72,10.36,34.86,28.12h-13.32c-1.64-11.84-8.88-17.43-21.87-17.43-12.17,0-18.75,6.08-18.75,13.65,0,6.41,3.29,10.52,13.81,12.33l17.76,3.12c17.1,2.96,23.84,11.68,23.84,23.84,0,14.31-10.2,25.32-33.71,25.32s-33.55-11.18-35.68-26.8Z"/><path class="cls-1" d="M148.96,649.42h-56.24l-13.48,35.19h-3.12l42.76-111.66h2.8l44.4,111.66h-3.12l-13.98-35.19Zm-1.32-2.96l-27.46-68.9-26.31,68.9h53.77Z"/><path class="cls-1" d="M181.36,575.75c0-2.63,1.97-4.6,4.6-4.6,2.47,0,4.44,1.97,4.44,4.6,0,2.47-1.97,4.6-4.44,4.6-2.63,0-4.6-2.14-4.6-4.6Zm2.96,23.84h2.96v85.02h-2.96v-85.02Z"/><path class="cls-1" d="M281.34,633.64v50.98h-2.96v-50.16c0-20.72-9.7-33.88-28.45-33.88s-30.26,13.81-30.26,34.7v49.33h-2.96v-85.02h2.8v19.9c4.44-13.48,14.8-21.87,30.42-21.87,19.57,0,31.41,13.16,31.41,36.01Z"/><path class="cls-1" d="M303.38,642.19c0-25.32,13.65-44.56,37-44.56s36.84,19.24,36.84,44.56-13.65,44.4-36.67,44.4-37.16-19.08-37.16-44.4Zm70.88,0c0-23.68-12.33-41.6-33.88-41.6s-34.04,17.92-34.04,41.6,12.66,41.44,34.2,41.44,33.71-17.76,33.71-41.44Z"/><path class="cls-1" d="M552.35,572.96v111.66h-2.96v-109.03l-48.35,109.03h-3.12l-48.68-108.7v108.7h-2.96v-111.66h4.77l48.35,108.37,48.02-108.37h4.93Z"/><path class="cls-1" d="M641.16,684.62c-.82-7.24-1.15-13.98-1.15-22.2-4.28,13.48-15.62,24.17-34.37,24.17-16.77,0-28.12-10.52-28.12-24.17s8.39-22.86,27.46-25l20.88-2.3c10.03-1.15,13.65-5.59,13.65-12.99,0-11.51-9.37-21.54-26.15-21.54h-.33c-15.29,0-27.13,8.22-29.27,25.16h-3.12c2.47-20.39,17.1-28.12,32.4-28.12h.33c18.42,0,29.27,10.2,29.27,25.16v37.66c0,8.71,.49,16.44,1.48,24.17h-2.96Zm-1.48-35.19v-17.76c-2.96,3.78-5.59,5.43-15.62,6.58l-19.9,2.3c-17.43,1.97-23.68,11.02-23.68,21.87,0,11.84,10.2,21.21,25.49,21.21,21.05,0,33.71-15.95,33.71-34.21Z"/><path class="cls-1" d="M701.51,598.78v2.96c-1.32-.16-2.14-.16-3.12-.16-13.65,0-24.83,12.33-24.83,33.71v49.33h-2.96v-85.02h2.63v20.88c2.63-11.68,12.33-21.87,25.82-21.87,.82,0,1.32,0,2.47,.16Z"/><path class="cls-1" d="M712.03,659.79h3.12c2.63,15.95,13.65,23.84,30.92,23.84s28.28-6.91,28.28-19.73c0-11.02-7.07-16.12-21.87-19.24l-18.25-3.95c-14.47-3.12-20.88-8.55-20.88-20.23,0-13.16,10.69-22.86,29.76-22.86s30.42,8.72,32.4,28.12h-3.12c-1.81-17.1-12-25.16-29.27-25.16s-26.8,8.39-26.8,19.9c0,9.7,4.93,14.47,18.75,17.43l18.75,3.95c16.28,3.45,23.52,9.37,23.52,22.04,0,14.47-12.17,22.69-31.24,22.69s-31.24-8.72-34.04-26.8Z"/><path class="cls-1" d="M797.05,575.75c0-2.63,1.97-4.6,4.6-4.6,2.47,0,4.44,1.97,4.44,4.6,0,2.47-1.97,4.6-4.44,4.6-2.63,0-4.6-2.14-4.6-4.6Zm2.96,23.84h2.96v85.02h-2.96v-85.02Z"/><path class="cls-1" d="M826.65,642.19c0-25.32,13.65-44.56,37-44.56s36.84,19.24,36.84,44.56-13.65,44.4-36.67,44.4-37.16-19.08-37.16-44.4Zm70.88,0c0-23.68-12.33-41.6-33.88-41.6s-34.04,17.92-34.04,41.6,12.66,41.44,34.2,41.44,33.71-17.76,33.71-41.44Z"/><path class="cls-1" d="M957.55,643.5h-45.06v-2.96h45.06v2.96Z"/><path class="cls-1" d="M1037.8,649.42h-56.24l-13.48,35.19h-3.12l42.76-111.66h2.8l44.4,111.66h-3.12l-13.98-35.19Zm-1.32-2.96l-27.46-68.9-26.31,68.9h53.77Z"/><path class="cls-1" d="M1128.42,669.32c-5.59,11.02-14.8,17.27-30.92,17.27-20.06,0-31.41-12.17-31.41-27.3s11.68-26.8,32.07-26.8c14.96,0,25.65,6.41,30.09,16.61v-21.38c0-17.6-9.04-27.13-26.48-27.13-13.81,0-25,6.25-28.45,20.39h-3.12c3.62-15.46,15.79-23.35,31.57-23.35,19.57,0,29.44,11.68,29.44,29.76v57.23h-2.8v-15.29Zm-.16-9.54c0-13.81-11.84-24.5-29.6-24.5-18.75,0-29.44,10.03-29.44,24.01s10.69,24.5,29.27,24.5,29.76-12,29.76-24.01Z"/><path class="cls-1" d="M1162.62,684.62h-2.96v-118.4h2.96v118.4Z"/><path class="cls-1" d="M1198.96,602.56v64.13c0,12.99,7.24,15.95,14.8,15.95,2.8,0,4.28-.16,6.91-.49v2.8c-2.3,.49-3.78,.66-7.24,.66-9.7,0-17.43-4.93-17.43-18.25v-64.79h-15.46v-2.96h15.46v-24.01h2.96v24.01h21.71v2.96h-21.71Z"/><path class="cls-1" d="M1233.5,642.19c0-25.32,13.65-44.56,37-44.56s36.84,19.24,36.84,44.56-13.65,44.4-36.67,44.4-37.16-19.08-37.16-44.4Zm70.88,0c0-23.68-12.33-41.6-33.88-41.6s-34.04,17.92-34.04,41.6,12.66,41.44,34.2,41.44,33.71-17.76,33.71-41.44Z"/></g><g><path class="cls-1" d="M86.28,52.58h-5.3l-1.08,3.4h-2.86l5.06-14.26h3.15l4.92,14.26h-2.86l-1.04-3.4Zm-.71-2.31l-1.91-6.19-1.95,6.19h3.86Z"/><path class="cls-1" d="M102.77,51.87c0,2.33-1.48,4.12-4.75,4.12h-6.34v-14.26h5.97c3.11,0,4.53,1.51,4.53,3.78,0,1.37-.69,2.52-2.15,2.98,1.95,.48,2.74,1.64,2.74,3.38Zm-8.39-7.92v3.65h3.03c1.34,0,2.07-.76,2.07-1.85,0-1.2-.81-1.8-2.19-1.8h-2.92Zm5.67,7.79c0-1.39-.95-1.93-2.36-1.93h-3.31v3.95h3.29c1.5,0,2.38-.61,2.38-2.02Z"/><path class="cls-1" d="M104.18,48.87c0-4.35,2.5-7.39,6.46-7.39,3.68,0,5.54,2.04,6.07,5.19h-2.76c-.35-1.85-1.4-2.88-3.31-2.88-2.17,0-3.74,1.87-3.74,5.1s1.58,5.04,3.74,5.04c1.89,0,2.94-1.01,3.31-2.86h2.78c-.57,3.19-2.42,5.17-6.09,5.17-3.94,0-6.46-3.04-6.46-7.37Z"/><path class="cls-1" d="M135.19,41.73v14.26h-3.88l-5.5-11.3v11.3h-2.58v-14.26h3.72l5.65,11.59v-11.59h2.58Z"/><path class="cls-1" d="M137.2,50.57c0-3.49,2.25-5.69,5.18-5.69s5.16,2.2,5.16,5.69-2.25,5.67-5.16,5.67-5.18-2.18-5.18-5.67Zm7.68,0c0-2.12-.95-3.44-2.52-3.44s-2.52,1.34-2.52,3.44,.95,3.42,2.52,3.42,2.52-1.32,2.52-3.42Z"/><path class="cls-1" d="M154.93,45.11v2.44c-.16-.02-.33-.04-.59-.04-1.6,0-2.46,.99-2.46,2.71v5.77h-2.6v-10.85h2.34v1.87c.49-1.3,1.5-1.97,2.7-1.97,.22,0,.39,.02,.61,.08Z"/><path class="cls-1" d="M172.03,49.18v6.8h-2.6v-6.24c0-1.7-.79-2.48-1.89-2.48s-2.01,.8-2.01,2.35v6.36h-2.6v-6.24c0-1.7-.79-2.48-1.89-2.48s-1.99,.78-1.99,2.35v6.36h-2.6v-10.85h2.34v1.51c.65-1.18,1.75-1.76,3.11-1.76,1.46,0,2.58,.71,3.17,1.99,.69-1.32,1.85-1.99,3.29-1.99,2.23,0,3.66,1.6,3.66,4.3Z"/><path class="cls-1" d="M182.98,48.87v7.12h-2.34v-1.39c-.79,1.11-1.87,1.64-3.25,1.64-2.17,0-3.66-1.36-3.66-3.25s1.06-3.09,3.6-3.36l3.07-.34v-.59c0-1.22-.71-1.8-1.83-1.8-1.18,0-1.83,.5-2.03,1.57h-2.6c.28-2.35,1.91-3.59,4.59-3.59s4.45,1.24,4.45,3.99Zm-2.6,2.88v-.8l-2.44,.34c-1.08,.15-1.58,.76-1.58,1.58s.63,1.51,1.71,1.51c1.5,0,2.31-1.07,2.31-2.62Z"/><path class="cls-1" d="M187.79,55.99h-2.6v-15.12h2.6v15.12Z"/><path class="cls-1" d="M210.38,45.13l-3.13,10.85h-3.09l-2.15-7.6-2.07,7.6h-3.09l-3.11-10.85h2.7l2.07,8.1,2.15-8.1h2.9l2.17,8.1,2.01-8.1h2.66Z"/><path class="cls-1" d="M220.61,48.87v7.12h-2.34v-1.39c-.79,1.11-1.87,1.64-3.25,1.64-2.17,0-3.66-1.36-3.66-3.25s1.06-3.09,3.6-3.36l3.07-.34v-.59c0-1.22-.71-1.8-1.83-1.8-1.18,0-1.83,.5-2.03,1.57h-2.6c.28-2.35,1.91-3.59,4.59-3.59s4.45,1.24,4.45,3.99Zm-2.6,2.88v-.8l-2.44,.34c-1.08,.15-1.58,.76-1.58,1.58s.63,1.51,1.71,1.51c1.5,0,2.31-1.07,2.31-2.62Z"/><path class="cls-1" d="M222.2,52.81h2.54c.22,.97,.93,1.47,2.17,1.47s1.89-.5,1.89-1.24c0-.63-.35-1.07-1.28-1.24l-2.19-.44c-2.07-.42-2.94-1.45-2.94-3.11,0-1.81,1.46-3.38,4.24-3.38s4.25,1.41,4.59,3.59h-2.56c-.16-1.09-.87-1.64-2.05-1.64s-1.77,.57-1.77,1.26c0,.59,.3,.99,1.36,1.18l2.15,.4c2.23,.4,3.03,1.51,3.03,3.19,0,1.8-1.34,3.38-4.45,3.38s-4.35-1.39-4.73-3.42Z"/><path class="cls-1" d="M243.24,45.11v2.44c-.16-.02-.33-.04-.59-.04-1.6,0-2.46,.99-2.46,2.71v5.77h-2.6v-10.85h2.34v1.87c.49-1.3,1.5-1.97,2.7-1.97,.22,0,.39,.02,.61,.08Z"/><path class="cls-1" d="M254.19,50.71c0,.34-.02,.63-.02,.63h-7.37c.18,1.97,1.16,2.79,2.54,2.79,1.12,0,1.75-.52,2.05-1.32h2.58c-.45,1.93-2.07,3.42-4.65,3.42-3.25,0-5.12-2.31-5.12-5.61s2.07-5.75,5.04-5.75c3.19,0,5,2.35,4.94,5.84Zm-2.66-1.18c-.08-1.64-.93-2.56-2.27-2.56-1.24,0-2.17,.84-2.42,2.56h4.69Z"/><path class="cls-1" d="M258.57,55.99h-2.6v-15.12h2.6v15.12Z"/><path class="cls-1" d="M270.31,50.71c0,.34-.02,.63-.02,.63h-7.37c.18,1.97,1.16,2.79,2.54,2.79,1.12,0,1.75-.52,2.05-1.32h2.58c-.45,1.93-2.07,3.42-4.65,3.42-3.25,0-5.12-2.31-5.12-5.61s2.07-5.75,5.04-5.75c3.19,0,5,2.35,4.94,5.84Zm-2.66-1.18c-.08-1.64-.93-2.56-2.27-2.56-1.24,0-2.17,.84-2.42,2.56h4.69Z"/><path class="cls-1" d="M280.83,48.87v7.12h-2.34v-1.39c-.79,1.11-1.87,1.64-3.25,1.64-2.17,0-3.66-1.36-3.66-3.25s1.06-3.09,3.6-3.36l3.07-.34v-.59c0-1.22-.71-1.8-1.83-1.8-1.18,0-1.83,.5-2.03,1.57h-2.6c.28-2.35,1.91-3.59,4.59-3.59s4.45,1.24,4.45,3.99Zm-2.6,2.88v-.8l-2.44,.34c-1.08,.15-1.58,.76-1.58,1.58s.63,1.51,1.71,1.51c1.5,0,2.31-1.07,2.31-2.62Z"/><path class="cls-1" d="M282.42,52.81h2.54c.22,.97,.93,1.47,2.17,1.47s1.89-.5,1.89-1.24c0-.63-.35-1.07-1.28-1.24l-2.19-.44c-2.07-.42-2.94-1.45-2.94-3.11,0-1.81,1.46-3.38,4.24-3.38s4.25,1.41,4.59,3.59h-2.56c-.16-1.09-.87-1.64-2.05-1.64s-1.77,.57-1.77,1.26c0,.59,.3,.99,1.36,1.18l2.15,.4c2.23,.4,3.03,1.51,3.03,3.19,0,1.8-1.34,3.38-4.45,3.38s-4.35-1.39-4.73-3.42Z"/><path class="cls-1" d="M302.77,50.71c0,.34-.02,.63-.02,.63h-7.37c.18,1.97,1.16,2.79,2.54,2.79,1.12,0,1.75-.52,2.05-1.32h2.58c-.45,1.93-2.07,3.42-4.65,3.42-3.25,0-5.12-2.31-5.12-5.61s2.07-5.75,5.04-5.75c3.19,0,5,2.35,4.94,5.84Zm-2.66-1.18c-.08-1.64-.93-2.56-2.27-2.56-1.24,0-2.17,.84-2.42,2.56h4.69Z"/><path class="cls-1" d="M314.27,40.87v15.12h-2.34v-1.83c-.65,1.37-1.79,2.08-3.35,2.08-2.42,0-4.59-2.08-4.59-5.67s2.07-5.69,4.49-5.69c1.42,0,2.5,.57,3.19,1.62v-5.63h2.6Zm-2.6,9.7c0-2.08-1.06-3.46-2.52-3.46-1.54,0-2.54,1.37-2.54,3.46s1.06,3.44,2.54,3.44,2.52-1.32,2.52-3.44Z"/><path class="cls-1" d="M320.77,41.94c0-.9,.63-1.64,1.58-1.64s1.54,.74,1.54,1.64-.63,1.64-1.54,1.64-1.58-.76-1.58-1.64Zm.26,3.19h2.6v10.85h-2.6v-10.85Z"/><path class="cls-1" d="M335.25,49.14v6.84h-2.6v-6.21c0-1.78-.79-2.58-1.99-2.58s-2.11,.88-2.11,2.58v6.21h-2.6v-10.85h2.34v1.53c.67-1.2,1.75-1.78,3.21-1.78,2.13,0,3.74,1.34,3.74,4.26Z"/><path class="cls-1" d="M351.52,53.68v2.31h-10.05v-.78c0-2.35,1.06-3.97,3.03-5.19l2.7-1.68c1.1-.69,1.52-1.43,1.52-2.39,0-1.15-.69-2.16-2.09-2.16s-2.36,1.11-2.32,2.88h-2.66c-.12-2.83,1.75-5.19,4.98-5.19s4.83,2.08,4.83,4.49c0,1.55-.55,2.92-2.34,4.07l-3.17,2.02c-.65,.42-1.1,.88-1.32,1.62h6.9Z"/><path class="cls-1" d="M353.08,48.87c0-4.66,2.27-7.39,5.73-7.39s5.71,2.73,5.71,7.39-2.25,7.37-5.71,7.37-5.73-2.62-5.73-7.37Zm8.73,0c0-3.15-.87-5.04-2.99-5.04s-3.01,1.89-3.01,5.04,.93,5.06,3.01,5.06,2.99-1.91,2.99-5.06Z"/><path class="cls-1" d="M371.8,41.73v14.26h-2.7v-10.27c-.91,.65-1.81,.9-3.37,.9v-2.29c2.42-.08,3.21-1.03,3.68-2.6h2.38Z"/><path class="cls-1" d="M382.73,41.73v2.31l-5.12,11.95h-2.88l5.32-11.95h-6.54v-2.31h9.22Z"/><path class="cls-1" d="M387.2,54.45c0,.99-.75,1.78-1.67,1.78s-1.67-.8-1.67-1.78,.75-1.76,1.67-1.76,1.67,.8,1.67,1.76Z"/><path class="cls-1" d="M401.11,55.99h-2.7v-14.26h2.7v14.26Z"/><path class="cls-1" d="M407.08,47.42v4.83c0,1.03,.47,1.53,1.34,1.53,.35,0,.59-.02,.83-.08v2.25c-.51,.15-.81,.17-1.44,.17-2.3,0-3.33-1.39-3.33-3.74v-4.96h-1.6v-2.29h1.6v-3.07h2.6v3.07h2.17v2.29h-2.17Z"/><path class="cls-1" d="M415.17,41.94c0-.9,.63-1.64,1.58-1.64s1.54,.74,1.54,1.64-.63,1.64-1.54,1.64-1.58-.76-1.58-1.64Zm.26,3.19h2.6v10.85h-2.6v-10.85Z"/><path class="cls-1" d="M419.76,52.81h2.54c.22,.97,.93,1.47,2.17,1.47s1.89-.5,1.89-1.24c0-.63-.35-1.07-1.28-1.24l-2.19-.44c-2.07-.42-2.94-1.45-2.94-3.11,0-1.81,1.46-3.38,4.24-3.38s4.25,1.41,4.59,3.59h-2.56c-.16-1.09-.87-1.64-2.05-1.64s-1.77,.57-1.77,1.26c0,.59,.3,.99,1.36,1.18l2.15,.4c2.23,.4,3.03,1.51,3.03,3.19,0,1.8-1.34,3.38-4.45,3.38s-4.35-1.39-4.73-3.42Z"/><path class="cls-1" d="M438.54,47.42v4.83c0,1.03,.47,1.53,1.34,1.53,.35,0,.59-.02,.83-.08v2.25c-.51,.15-.81,.17-1.44,.17-2.3,0-3.33-1.39-3.33-3.74v-4.96h-1.6v-2.29h1.6v-3.07h2.6v3.07h2.17v2.29h-2.17Z"/><path class="cls-1" d="M451.69,49.16v6.82h-2.6v-6.28c0-1.68-.87-2.5-2.01-2.5s-2.09,.88-2.09,2.54v6.24h-2.6v-15.12h2.6v5.71c.59-1.09,1.58-1.7,2.9-1.7,2.17,0,3.8,1.47,3.8,4.28Z"/><path class="cls-1" d="M463.32,50.71c0,.34-.02,.63-.02,.63h-7.37c.18,1.97,1.16,2.79,2.54,2.79,1.12,0,1.75-.52,2.05-1.32h2.58c-.45,1.93-2.07,3.42-4.65,3.42-3.25,0-5.12-2.31-5.12-5.61s2.07-5.75,5.04-5.75c3.19,0,5,2.35,4.94,5.84Zm-2.66-1.18c-.08-1.64-.93-2.56-2.27-2.56-1.24,0-2.17,.84-2.42,2.56h4.69Z"/><path class="cls-1" d="M475.19,45.11v2.44c-.16-.02-.33-.04-.59-.04-1.6,0-2.46,.99-2.46,2.71v5.77h-2.6v-10.85h2.34v1.87c.49-1.3,1.5-1.97,2.7-1.97,.22,0,.39,.02,.61,.08Z"/><path class="cls-1" d="M486.15,50.71c0,.34-.02,.63-.02,.63h-7.37c.18,1.97,1.16,2.79,2.54,2.79,1.12,0,1.75-.52,2.05-1.32h2.58c-.45,1.93-2.07,3.42-4.65,3.42-3.25,0-5.12-2.31-5.12-5.61s2.07-5.75,5.04-5.75c3.19,0,5,2.35,4.94,5.84Zm-2.66-1.18c-.08-1.64-.93-2.56-2.27-2.56-1.24,0-2.17,.84-2.42,2.56h4.69Z"/><path class="cls-1" d="M487.31,52.81h2.54c.22,.97,.93,1.47,2.17,1.47s1.89-.5,1.89-1.24c0-.63-.35-1.07-1.28-1.24l-2.19-.44c-2.07-.42-2.94-1.45-2.94-3.11,0-1.81,1.46-3.38,4.24-3.38s4.25,1.41,4.59,3.59h-2.56c-.16-1.09-.87-1.64-2.05-1.64s-1.77,.57-1.77,1.26c0,.59,.3,.99,1.36,1.18l2.15,.4c2.23,.4,3.03,1.51,3.03,3.19,0,1.8-1.34,3.38-4.45,3.38s-4.35-1.39-4.73-3.42Z"/><path class="cls-1" d="M507.23,45.13v10.85h-2.32v-1.64c-.69,1.24-1.79,1.89-3.17,1.89-2.29,0-3.6-1.41-3.6-3.99v-7.12h2.6v6.74c0,1.3,.63,2.06,1.77,2.06,1.28,0,2.13-.97,2.13-2.46v-6.34h2.6Z"/><path class="cls-1" d="M512.13,55.99h-2.6v-15.12h2.6v15.12Z"/><path class="cls-1" d="M517.82,47.42v4.83c0,1.03,.47,1.53,1.34,1.53,.35,0,.59-.02,.83-.08v2.25c-.51,.15-.81,.17-1.44,.17-2.3,0-3.33-1.39-3.33-3.74v-4.96h-1.6v-2.29h1.6v-3.07h2.6v3.07h2.17v2.29h-2.17Z"/><path class="cls-1" d="M525.6,50.57c0-3.49,2.25-5.69,5.18-5.69s5.16,2.2,5.16,5.69-2.25,5.67-5.16,5.67-5.18-2.18-5.18-5.67Zm7.68,0c0-2.12-.95-3.44-2.52-3.44s-2.52,1.34-2.52,3.44,.95,3.42,2.52,3.42,2.52-1.32,2.52-3.42Z"/><path class="cls-1" d="M541.09,44.48v.65h2.42v2.29h-2.42v8.57h-2.6v-8.57h-1.6v-2.29h1.6v-.63c0-2.52,1.46-3.84,3.6-3.84,.59,0,1.1,.08,1.52,.23v2.12c-.3-.08-.61-.13-.93-.13-1.04,0-1.6,.52-1.6,1.6Z"/><path class="cls-1" d="M552.75,47.42v4.83c0,1.03,.47,1.53,1.34,1.53,.35,0,.59-.02,.83-.08v2.25c-.51,.15-.81,.17-1.44,.17-2.3,0-3.33-1.39-3.33-3.74v-4.96h-1.6v-2.29h1.6v-3.07h2.6v3.07h2.17v2.29h-2.17Z"/><path class="cls-1" d="M565.91,49.16v6.82h-2.6v-6.28c0-1.68-.87-2.5-2.01-2.5s-2.09,.88-2.09,2.54v6.24h-2.6v-15.12h2.6v5.71c.59-1.09,1.58-1.7,2.9-1.7,2.17,0,3.8,1.47,3.8,4.28Z"/><path class="cls-1" d="M577.53,50.71c0,.34-.02,.63-.02,.63h-7.37c.18,1.97,1.16,2.79,2.54,2.79,1.12,0,1.75-.52,2.05-1.32h2.58c-.45,1.93-2.07,3.42-4.65,3.42-3.25,0-5.12-2.31-5.12-5.61s2.07-5.75,5.04-5.75c3.19,0,5,2.35,4.94,5.84Zm-2.66-1.18c-.08-1.64-.93-2.56-2.27-2.56-1.24,0-2.17,.84-2.42,2.56h4.69Z"/><path class="cls-1" d="M583.16,52.81h2.54c.22,.97,.93,1.47,2.17,1.47s1.89-.5,1.89-1.24c0-.63-.35-1.07-1.28-1.24l-2.19-.44c-2.07-.42-2.94-1.45-2.94-3.11,0-1.81,1.46-3.38,4.24-3.38s4.25,1.41,4.59,3.59h-2.56c-.16-1.09-.87-1.64-2.05-1.64s-1.77,.57-1.77,1.26c0,.59,.3,.99,1.36,1.18l2.15,.4c2.23,.4,3.03,1.51,3.03,3.19,0,1.8-1.34,3.38-4.45,3.38s-4.35-1.39-4.73-3.42Z"/><path class="cls-1" d="M597.47,47.42v4.83c0,1.03,.47,1.53,1.34,1.53,.35,0,.59-.02,.83-.08v2.25c-.51,.15-.81,.17-1.44,.17-2.3,0-3.33-1.39-3.33-3.74v-4.96h-1.6v-2.29h1.6v-3.07h2.6v3.07h2.17v2.29h-2.17Z"/><path class="cls-1" d="M610.33,45.13v10.85h-2.32v-1.64c-.69,1.24-1.79,1.89-3.17,1.89-2.29,0-3.6-1.41-3.6-3.99v-7.12h2.6v6.74c0,1.3,.63,2.06,1.77,2.06,1.28,0,2.13-.97,2.13-2.46v-6.34h2.6Z"/><path class="cls-1" d="M622.37,40.87v15.12h-2.34v-1.83c-.65,1.37-1.79,2.08-3.35,2.08-2.42,0-4.59-2.08-4.59-5.67s2.07-5.69,4.49-5.69c1.42,0,2.5,.57,3.19,1.62v-5.63h2.6Zm-2.6,9.7c0-2.08-1.06-3.46-2.52-3.46-1.54,0-2.54,1.37-2.54,3.46s1.06,3.44,2.54,3.44,2.52-1.32,2.52-3.44Z"/><path class="cls-1" d="M634.11,45.13l-6.01,14.8h-2.76l2.15-4.91-3.9-9.89h2.76l2.48,7.12,2.64-7.12h2.64Z"/><path class="cls-1" d="M639.17,50.57c0-3.49,2.25-5.69,5.18-5.69s5.16,2.2,5.16,5.69-2.25,5.67-5.16,5.67-5.18-2.18-5.18-5.67Zm7.68,0c0-2.12-.95-3.44-2.52-3.44s-2.52,1.34-2.52,3.44,.95,3.42,2.52,3.42,2.52-1.32,2.52-3.42Z"/><path class="cls-1" d="M654.65,44.48v.65h2.42v2.29h-2.42v8.57h-2.6v-8.57h-1.6v-2.29h1.6v-.63c0-2.52,1.46-3.84,3.6-3.84,.59,0,1.1,.08,1.52,.23v2.12c-.3-.08-.61-.13-.93-.13-1.04,0-1.6,.52-1.6,1.6Z"/><path class="cls-1" d="M673.27,44.12h-4.2v11.86h-2.7v-11.86h-4.2v-2.39h11.09v2.39Z"/><path class="cls-1" d="M684.1,49.16v6.82h-2.6v-6.28c0-1.68-.87-2.5-2.01-2.5s-2.09,.88-2.09,2.54v6.24h-2.6v-15.12h2.6v5.71c.59-1.09,1.58-1.7,2.9-1.7,2.17,0,3.8,1.47,3.8,4.28Z"/><path class="cls-1" d="M695.72,50.71c0,.34-.02,.63-.02,.63h-7.37c.18,1.97,1.16,2.79,2.54,2.79,1.12,0,1.75-.52,2.05-1.32h2.58c-.45,1.93-2.07,3.42-4.65,3.42-3.25,0-5.12-2.31-5.12-5.61s2.07-5.75,5.04-5.75c3.19,0,5,2.35,4.94,5.84Zm-2.66-1.18c-.08-1.64-.93-2.56-2.27-2.56-1.24,0-2.17,.84-2.42,2.56h4.69Z"/><path class="cls-1" d="M697.24,41.94c0-.9,.63-1.64,1.58-1.64s1.54,.74,1.54,1.64-.63,1.64-1.54,1.64-1.58-.76-1.58-1.64Zm.26,3.19h2.6v10.85h-2.6v-10.85Z"/><path class="cls-1" d="M711.72,49.14v6.84h-2.6v-6.21c0-1.78-.79-2.58-1.99-2.58s-2.11,.88-2.11,2.58v6.21h-2.6v-10.85h2.34v1.53c.67-1.2,1.75-1.78,3.21-1.78,2.13,0,3.74,1.34,3.74,4.26Z"/><path class="cls-1" d="M723.2,49.16v6.82h-2.6v-6.28c0-1.68-.87-2.5-2.01-2.5s-2.09,.88-2.09,2.54v6.24h-2.6v-15.12h2.6v5.71c.59-1.09,1.58-1.7,2.9-1.7,2.17,0,3.8,1.47,3.8,4.28Z"/><path class="cls-1" d="M734.16,48.87v7.12h-2.34v-1.39c-.79,1.11-1.87,1.64-3.25,1.64-2.17,0-3.66-1.36-3.66-3.25s1.06-3.09,3.6-3.36l3.07-.34v-.59c0-1.22-.71-1.8-1.83-1.8-1.18,0-1.83,.5-2.03,1.57h-2.6c.28-2.35,1.91-3.59,4.59-3.59s4.45,1.24,4.45,3.99Zm-2.6,2.88v-.8l-2.44,.34c-1.08,.15-1.58,.76-1.58,1.58s.63,1.51,1.71,1.51c1.5,0,2.31-1.07,2.31-2.62Z"/><path class="cls-1" d="M742,45.11v2.44c-.16-.02-.33-.04-.59-.04-1.6,0-2.46,.99-2.46,2.71v5.77h-2.6v-10.85h2.34v1.87c.49-1.3,1.5-1.97,2.7-1.97,.22,0,.39,.02,.61,.08Z"/><path class="cls-1" d="M753.26,40.87v15.12h-2.34v-1.83c-.65,1.37-1.79,2.08-3.35,2.08-2.42,0-4.59-2.08-4.59-5.67s2.07-5.69,4.49-5.69c1.42,0,2.5,.57,3.19,1.62v-5.63h2.6Zm-2.6,9.7c0-2.08-1.06-3.46-2.52-3.46-1.54,0-2.54,1.37-2.54,3.46s1.06,3.44,2.54,3.44,2.52-1.32,2.52-3.44Z"/><path class="cls-1" d="M758.92,47.42v4.83c0,1.03,.47,1.53,1.34,1.53,.35,0,.59-.02,.83-.08v2.25c-.51,.15-.81,.17-1.44,.17-2.3,0-3.33-1.39-3.33-3.74v-4.96h-1.6v-2.29h1.6v-3.07h2.6v3.07h2.17v2.29h-2.17Z"/><path class="cls-1" d="M764.24,58.78h-1.75c.55-1.11,.85-1.85,1.08-2.67l-.18-.11c-.61-.29-.93-.82-.93-1.55,0-.97,.73-1.76,1.67-1.76s1.67,.76,1.67,1.8-.3,2.08-1.58,4.28Z"/><path class="cls-1" d="M777.45,50.13h-2.21v5.86h-2.72v-14.26h6.19c3.05,0,4.67,1.72,4.67,4.12,0,1.93-.98,3.44-3.15,3.97l3.76,6.17h-2.97l-3.57-5.86Zm-2.21-2.22h3.05c1.67,0,2.38-.84,2.38-2.04s-.73-1.91-2.42-1.91h-3.01v3.95Z"/><path class="cls-1" d="M794.87,50.71c0,.34-.02,.63-.02,.63h-7.37c.18,1.97,1.16,2.79,2.54,2.79,1.12,0,1.75-.52,2.05-1.32h2.58c-.45,1.93-2.07,3.42-4.65,3.42-3.25,0-5.12-2.31-5.12-5.61s2.07-5.75,5.04-5.75c3.19,0,5,2.35,4.94,5.84Zm-2.66-1.18c-.08-1.64-.93-2.56-2.27-2.56-1.24,0-2.17,.84-2.42,2.56h4.69Z"/><path class="cls-1" d="M805.92,49.14v6.84h-2.6v-6.21c0-1.78-.79-2.58-1.99-2.58s-2.11,.88-2.11,2.58v6.21h-2.6v-10.85h2.34v1.53c.67-1.2,1.75-1.78,3.21-1.78,2.13,0,3.74,1.34,3.74,4.26Z"/><path class="cls-1" d="M817.4,49.14v6.84h-2.6v-6.21c0-1.78-.79-2.58-1.99-2.58s-2.11,.88-2.11,2.58v6.21h-2.6v-10.85h2.34v1.53c.67-1.2,1.75-1.78,3.21-1.78,2.13,0,3.74,1.34,3.74,4.26Z"/><path class="cls-1" d="M829.03,50.71c0,.34-.02,.63-.02,.63h-7.37c.18,1.97,1.16,2.79,2.54,2.79,1.12,0,1.75-.52,2.05-1.32h2.58c-.45,1.93-2.07,3.42-4.65,3.42-3.25,0-5.12-2.31-5.12-5.61s2.07-5.75,5.04-5.75c3.19,0,5,2.35,4.94,5.84Zm-2.66-1.18c-.08-1.64-.93-2.56-2.27-2.56-1.24,0-2.17,.84-2.42,2.56h4.69Z"/><path class="cls-1" d="M836.43,45.11v2.44c-.16-.02-.33-.04-.59-.04-1.6,0-2.46,.99-2.46,2.71v5.77h-2.6v-10.85h2.34v1.87c.49-1.3,1.5-1.97,2.7-1.97,.22,0,.39,.02,.61,.08Z"/><path class="cls-1" d="M839.41,58.78h-1.75c.55-1.11,.85-1.85,1.08-2.67l-.18-.11c-.61-.29-.93-.82-.93-1.55,0-.97,.73-1.76,1.67-1.76s1.67,.76,1.67,1.8-.3,2.08-1.58,4.28Z"/><path class="cls-1" d="M859.66,41.73v14.26h-3.88l-5.5-11.3v11.3h-2.58v-14.26h3.72l5.65,11.59v-11.59h2.58Z"/><path class="cls-1" d="M861.67,50.57c0-3.49,2.25-5.69,5.18-5.69s5.16,2.2,5.16,5.69-2.25,5.67-5.16,5.67-5.18-2.18-5.18-5.67Zm7.68,0c0-2.12-.95-3.44-2.52-3.44s-2.52,1.34-2.52,3.44,.95,3.42,2.52,3.42,2.52-1.32,2.52-3.42Z"/><path class="cls-1" d="M883.2,45.13l-3.68,10.85h-3.01l-3.78-10.85h2.7l2.62,8.12,2.48-8.12h2.68Z"/><path class="cls-1" d="M893.26,48.87v7.12h-2.34v-1.39c-.79,1.11-1.87,1.64-3.25,1.64-2.17,0-3.66-1.36-3.66-3.25s1.06-3.09,3.6-3.36l3.07-.34v-.59c0-1.22-.71-1.8-1.83-1.8-1.18,0-1.83,.5-2.03,1.57h-2.6c.28-2.35,1.91-3.59,4.59-3.59s4.45,1.24,4.45,3.99Zm-2.6,2.88v-.8l-2.44,.34c-1.08,.15-1.58,.76-1.58,1.58s.63,1.51,1.71,1.51c1.5,0,2.31-1.07,2.31-2.62Z"/><path class="cls-1" d="M901.1,45.11v2.44c-.16-.02-.33-.04-.59-.04-1.6,0-2.46,.99-2.46,2.71v5.77h-2.6v-10.85h2.34v1.87c.49-1.3,1.5-1.97,2.7-1.97,.22,0,.39,.02,.61,.08Z"/><path class="cls-1" d="M912.06,50.71c0,.34-.02,.63-.02,.63h-7.37c.18,1.97,1.16,2.79,2.54,2.79,1.12,0,1.75-.52,2.05-1.32h2.58c-.45,1.93-2.07,3.42-4.65,3.42-3.25,0-5.12-2.31-5.12-5.61s2.07-5.75,5.04-5.75c3.19,0,5,2.35,4.94,5.84Zm-2.66-1.18c-.08-1.64-.93-2.56-2.27-2.56-1.24,0-2.17,.84-2.42,2.56h4.69Z"/><path class="cls-1" d="M913.22,52.81h2.54c.22,.97,.93,1.47,2.17,1.47s1.89-.5,1.89-1.24c0-.63-.35-1.07-1.28-1.24l-2.19-.44c-2.07-.42-2.94-1.45-2.94-3.11,0-1.81,1.46-3.38,4.24-3.38s4.25,1.41,4.59,3.59h-2.56c-.16-1.09-.87-1.64-2.05-1.64s-1.77,.57-1.77,1.26c0,.59,.3,.99,1.36,1.18l2.15,.4c2.23,.4,3.03,1.51,3.03,3.19,0,1.8-1.34,3.38-4.45,3.38s-4.35-1.39-4.73-3.42Z"/><path class="cls-1" d="M933.57,50.71c0,.34-.02,.63-.02,.63h-7.37c.18,1.97,1.16,2.79,2.54,2.79,1.12,0,1.75-.52,2.05-1.32h2.58c-.45,1.93-2.07,3.42-4.65,3.42-3.25,0-5.12-2.31-5.12-5.61s2.07-5.75,5.04-5.75c3.19,0,5,2.35,4.94,5.84Zm-2.66-1.18c-.08-1.64-.93-2.56-2.27-2.56-1.24,0-2.17,.84-2.42,2.56h4.69Z"/><path class="cls-1" d="M949.23,55.99l-1.6-1.68-.06,.06c-.98,1.18-1.99,1.87-3.86,1.87-2.82,0-4.29-1.74-4.29-3.72,0-1.55,.79-2.6,2.27-3.72l.45-.34-.18-.19c-1.3-1.38-1.73-2.14-1.73-3.3,0-1.87,1.4-3.51,3.92-3.51s3.92,1.66,3.92,3.46c0,1.22-.53,2.14-2.07,3.34l-.51,.4,2.07,2.18,1.58-1.93h2.97l-2.99,3.59,3.29,3.46h-3.17Zm-3.15-3.34l-2.4-2.54-.35,.27c-.91,.69-1.2,1.2-1.2,1.97,0,.92,.65,1.68,1.77,1.68,.81,0,1.34-.32,1.89-1.03l.3-.36Zm-2.09-5.54l.35-.27c.93-.71,1.18-1.2,1.18-1.83,0-.73-.53-1.36-1.38-1.36s-1.36,.63-1.36,1.36c0,.67,.22,1.07,.95,1.83l.26,.27Z"/><path class="cls-1" d="M970.72,48.28l-.02,7.71h-2.36v-2.16c-.83,1.58-1.99,2.42-4.12,2.42-3.94,0-6.48-2.86-6.48-7.37s2.76-7.39,6.56-7.39c3.35,0,5.52,1.64,6.15,4.6h-2.84c-.43-1.41-1.4-2.29-3.29-2.29-2.23,0-3.86,1.74-3.86,5.1s1.5,5.06,4.04,5.06c2.09,0,3.41-1.3,3.55-3.42h-3.8v-2.25h6.48Z"/><path class="cls-1" d="M982.19,50.71c0,.34-.02,.63-.02,.63h-7.37c.18,1.97,1.16,2.79,2.54,2.79,1.12,0,1.75-.52,2.05-1.32h2.58c-.45,1.93-2.07,3.42-4.65,3.42-3.25,0-5.12-2.31-5.12-5.61s2.07-5.75,5.04-5.75c3.19,0,5,2.35,4.94,5.84Zm-2.66-1.18c-.08-1.64-.93-2.56-2.27-2.56-1.24,0-2.17,.84-2.42,2.56h4.69Z"/><path class="cls-1" d="M989.59,45.11v2.44c-.16-.02-.33-.04-.59-.04-1.6,0-2.46,.99-2.46,2.71v5.77h-2.6v-10.85h2.34v1.87c.49-1.3,1.5-1.97,2.7-1.97,.22,0,.39,.02,.61,.08Z"/><path class="cls-1" d="M990.52,52.81h2.54c.22,.97,.93,1.47,2.17,1.47s1.89-.5,1.89-1.24c0-.63-.35-1.07-1.28-1.24l-2.19-.44c-2.07-.42-2.94-1.45-2.94-3.11,0-1.81,1.46-3.38,4.24-3.38s4.25,1.41,4.59,3.59h-2.56c-.16-1.09-.87-1.64-2.05-1.64s-1.77,.57-1.77,1.26c0,.59,.3,.99,1.36,1.18l2.15,.4c2.23,.4,3.03,1.51,3.03,3.19,0,1.8-1.34,3.38-4.45,3.38s-4.35-1.39-4.73-3.42Z"/><path class="cls-1" d="M1004.82,47.42v4.83c0,1.03,.47,1.53,1.34,1.53,.35,0,.59-.02,.83-.08v2.25c-.51,.15-.81,.17-1.44,.17-2.3,0-3.33-1.39-3.33-3.74v-4.96h-1.6v-2.29h1.6v-3.07h2.6v3.07h2.17v2.29h-2.17Z"/><path class="cls-1" d="M1017.98,49.14v6.84h-2.6v-6.21c0-1.78-.79-2.58-1.99-2.58s-2.11,.88-2.11,2.58v6.21h-2.6v-10.85h2.34v1.53c.67-1.2,1.75-1.78,3.21-1.78,2.13,0,3.74,1.34,3.74,4.26Z"/><path class="cls-1" d="M1029.6,50.71c0,.34-.02,.63-.02,.63h-7.37c.18,1.97,1.16,2.79,2.54,2.79,1.12,0,1.75-.52,2.05-1.32h2.58c-.45,1.93-2.07,3.42-4.65,3.42-3.25,0-5.12-2.31-5.12-5.61s2.07-5.75,5.04-5.75c3.19,0,5,2.35,4.94,5.84Zm-2.66-1.18c-.08-1.64-.93-2.56-2.27-2.56-1.24,0-2.17,.84-2.42,2.56h4.69Z"/><path class="cls-1" d="M1037.01,45.11v2.44c-.16-.02-.33-.04-.59-.04-1.6,0-2.46,.99-2.46,2.71v5.77h-2.6v-10.85h2.34v1.87c.49-1.3,1.5-1.97,2.7-1.97,.22,0,.39,.02,.61,.08Z"/><path class="cls-1" d="M1041.58,54.45c0,.99-.75,1.78-1.67,1.78s-1.67-.8-1.67-1.78,.75-1.76,1.67-1.76,1.67,.8,1.67,1.76Z"/><path class="cls-1" d="M1066.02,41.73l-3.82,14.26h-3.13l-2.56-10.12-2.36,10.12h-3.19l-3.94-14.26h2.76l2.78,10.96,2.66-10.96h2.62l2.88,10.96,2.6-10.96h2.72Z"/><path class="cls-1" d="M1076.78,50.71c0,.34-.02,.63-.02,.63h-7.37c.18,1.97,1.16,2.79,2.54,2.79,1.12,0,1.75-.52,2.05-1.32h2.58c-.45,1.93-2.07,3.42-4.65,3.42-3.25,0-5.12-2.31-5.12-5.61s2.07-5.75,5.04-5.75c3.19,0,5,2.35,4.94,5.84Zm-2.66-1.18c-.08-1.64-.93-2.56-2.27-2.56-1.24,0-2.17,.84-2.42,2.56h4.69Z"/><path class="cls-1" d="M1098.59,49.18v6.8h-2.6v-6.24c0-1.7-.79-2.48-1.89-2.48s-2.01,.8-2.01,2.35v6.36h-2.6v-6.24c0-1.7-.79-2.48-1.89-2.48s-1.99,.78-1.99,2.35v6.36h-2.6v-10.85h2.34v1.51c.65-1.18,1.75-1.76,3.11-1.76,1.46,0,2.58,.71,3.17,1.99,.69-1.32,1.85-1.99,3.29-1.99,2.23,0,3.66,1.6,3.66,4.3Z"/><path class="cls-1" d="M1109.54,48.87v7.12h-2.34v-1.39c-.79,1.11-1.87,1.64-3.25,1.64-2.17,0-3.66-1.36-3.66-3.25s1.06-3.09,3.6-3.36l3.07-.34v-.59c0-1.22-.71-1.8-1.83-1.8-1.18,0-1.83,.5-2.03,1.57h-2.6c.28-2.35,1.91-3.59,4.59-3.59s4.45,1.24,4.45,3.99Zm-2.6,2.88v-.8l-2.44,.34c-1.08,.15-1.58,.76-1.58,1.58s.63,1.51,1.71,1.51c1.5,0,2.31-1.07,2.31-2.62Z"/><path class="cls-1" d="M1121.48,40.87v15.12h-2.34v-1.83c-.65,1.37-1.79,2.08-3.35,2.08-2.42,0-4.59-2.08-4.59-5.67s2.07-5.69,4.49-5.69c1.42,0,2.5,.57,3.19,1.62v-5.63h2.6Zm-2.6,9.7c0-2.08-1.06-3.46-2.52-3.46-1.54,0-2.54,1.37-2.54,3.46s1.06,3.44,2.54,3.44,2.52-1.32,2.52-3.44Z"/><path class="cls-1" d="M1133.18,50.71c0,.34-.02,.63-.02,.63h-7.37c.18,1.97,1.16,2.79,2.54,2.79,1.12,0,1.75-.52,2.05-1.32h2.58c-.45,1.93-2.07,3.42-4.65,3.42-3.25,0-5.12-2.31-5.12-5.61s2.07-5.75,5.04-5.75c3.19,0,5,2.35,4.94,5.84Zm-2.66-1.18c-.08-1.64-.93-2.56-2.27-2.56-1.24,0-2.17,.84-2.42,2.56h4.69Z"/><path class="cls-1" d="M1149.35,51.3c0,2.81-2.05,4.93-5.1,4.93-3.66,0-5.26-2.83-5.26-7.43,0-4.93,2.36-7.33,5.44-7.33,2.7,0,4.29,1.47,4.63,3.82h-2.64c-.22-1.07-.89-1.6-1.99-1.6-1.75,0-2.74,1.55-2.74,4.03v.38c.65-.9,1.65-1.45,3.13-1.45,2.92,0,4.53,1.95,4.53,4.64Zm-2.7,0c0-1.38-.83-2.54-2.38-2.54s-2.44,1.22-2.44,2.56,.91,2.58,2.44,2.58,2.38-1.2,2.38-2.6Z"/><path class="cls-1" d="M1155.08,52.81h2.54c.22,.97,.93,1.47,2.17,1.47s1.89-.5,1.89-1.24c0-.63-.35-1.07-1.28-1.24l-2.19-.44c-2.07-.42-2.94-1.45-2.94-3.11,0-1.81,1.46-3.38,4.24-3.38s4.25,1.41,4.59,3.59h-2.56c-.16-1.09-.87-1.64-2.05-1.64s-1.77,.57-1.77,1.26c0,.59,.3,.99,1.36,1.18l2.15,.4c2.23,.4,3.03,1.51,3.03,3.19,0,1.8-1.34,3.38-4.45,3.38s-4.35-1.39-4.73-3.42Z"/><path class="cls-1" d="M1169.38,47.42v4.83c0,1.03,.47,1.53,1.34,1.53,.35,0,.59-.02,.83-.08v2.25c-.51,.15-.81,.17-1.44,.17-2.3,0-3.33-1.39-3.33-3.74v-4.96h-1.6v-2.29h1.6v-3.07h2.6v3.07h2.17v2.29h-2.17Z"/><path class="cls-1" d="M1182.72,45.13l-6.01,14.8h-2.76l2.15-4.91-3.9-9.89h2.76l2.48,7.12,2.64-7.12h2.64Z"/><path class="cls-1" d="M1186.48,55.99h-2.6v-15.12h2.6v15.12Z"/><path class="cls-1" d="M1188.55,41.94c0-.9,.63-1.64,1.58-1.64s1.54,.74,1.54,1.64-.63,1.64-1.54,1.64-1.58-.76-1.58-1.64Zm.26,3.19h2.6v10.85h-2.6v-10.85Z"/><path class="cls-1" d="M1193.14,52.81h2.54c.22,.97,.93,1.47,2.17,1.47s1.89-.5,1.89-1.24c0-.63-.35-1.07-1.28-1.24l-2.19-.44c-2.07-.42-2.94-1.45-2.94-3.11,0-1.81,1.46-3.38,4.24-3.38s4.25,1.41,4.59,3.59h-2.56c-.16-1.09-.87-1.64-2.05-1.64s-1.77,.57-1.77,1.26c0,.59,.3,.99,1.36,1.18l2.15,.4c2.23,.4,3.03,1.51,3.03,3.19,0,1.8-1.34,3.38-4.45,3.38s-4.35-1.39-4.73-3.42Z"/><path class="cls-1" d="M1207.44,47.42v4.83c0,1.03,.47,1.53,1.34,1.53,.35,0,.59-.02,.83-.08v2.25c-.51,.15-.81,.17-1.44,.17-2.3,0-3.33-1.39-3.33-3.74v-4.96h-1.6v-2.29h1.6v-3.07h2.6v3.07h2.17v2.29h-2.17Z"/><path class="cls-1" d="M1211.07,41.94c0-.9,.63-1.64,1.58-1.64s1.54,.74,1.54,1.64-.63,1.64-1.54,1.64-1.58-.76-1.58-1.64Zm.26,3.19h2.6v10.85h-2.6v-10.85Z"/><path class="cls-1" d="M1215.7,50.55c0-3.53,2.15-5.67,5.08-5.67s4.43,1.7,4.77,4.07h-2.64c-.24-1.22-.93-1.83-2.15-1.83-1.48,0-2.42,1.26-2.42,3.4s.91,3.46,2.44,3.46c1.24,0,1.87-.63,2.13-1.83h2.62c-.33,2.41-1.97,4.07-4.75,4.07-2.94,0-5.08-2.14-5.08-5.69Z"/><path class="cls-1" d="M80.76,86.99h-2.6v-15.12h2.6v15.12Z"/><path class="cls-1" d="M82.52,81.57c0-3.49,2.25-5.69,5.18-5.69s5.16,2.2,5.16,5.69-2.25,5.67-5.16,5.67-5.18-2.18-5.18-5.67Zm7.68,0c0-2.12-.95-3.44-2.52-3.44s-2.52,1.34-2.52,3.44,.95,3.42,2.52,3.42,2.52-1.32,2.52-3.42Z"/><path class="cls-1" d="M110.41,76.13l-3.13,10.85h-3.09l-2.15-7.6-2.07,7.6h-3.09l-3.11-10.85h2.7l2.07,8.1,2.15-8.1h2.9l2.17,8.1,2.01-8.1h2.66Z"/><path class="cls-1" d="M121.3,81.71c0,.34-.02,.63-.02,.63h-7.37c.18,1.97,1.16,2.79,2.54,2.79,1.12,0,1.75-.52,2.05-1.32h2.58c-.45,1.93-2.07,3.42-4.65,3.42-3.25,0-5.12-2.31-5.12-5.61s2.07-5.75,5.04-5.75c3.19,0,5,2.35,4.94,5.84Zm-2.66-1.18c-.08-1.64-.93-2.56-2.27-2.56-1.24,0-2.17,.84-2.42,2.56h4.69Z"/><path class="cls-1" d="M128.71,76.11v2.44c-.16-.02-.33-.04-.59-.04-1.6,0-2.46,.99-2.46,2.71v5.77h-2.6v-10.85h2.34v1.87c.49-1.3,1.5-1.97,2.7-1.97,.22,0,.39,.02,.61,.08Z"/><path class="cls-1" d="M129.68,81.55c0-3.53,2.15-5.67,5.08-5.67s4.43,1.7,4.77,4.07h-2.64c-.24-1.22-.93-1.83-2.15-1.83-1.48,0-2.42,1.26-2.42,3.4s.91,3.46,2.44,3.46c1.24,0,1.87-.63,2.13-1.83h2.62c-.33,2.41-1.97,4.07-4.75,4.07-2.94,0-5.08-2.14-5.08-5.69Z"/><path class="cls-1" d="M150.08,79.87v7.12h-2.34v-1.39c-.79,1.11-1.87,1.64-3.25,1.64-2.17,0-3.66-1.36-3.66-3.25s1.06-3.09,3.6-3.36l3.07-.34v-.59c0-1.22-.71-1.8-1.83-1.8-1.18,0-1.83,.5-2.03,1.57h-2.6c.28-2.35,1.91-3.59,4.59-3.59s4.45,1.24,4.45,3.99Zm-2.6,2.88v-.8l-2.44,.34c-1.08,.15-1.58,.76-1.58,1.58s.63,1.51,1.71,1.51c1.5,0,2.31-1.07,2.31-2.62Z"/><path class="cls-1" d="M151.68,83.81h2.54c.22,.97,.93,1.47,2.17,1.47s1.89-.5,1.89-1.24c0-.63-.35-1.07-1.28-1.24l-2.19-.44c-2.07-.42-2.94-1.45-2.94-3.11,0-1.81,1.46-3.38,4.24-3.38s4.25,1.41,4.59,3.59h-2.56c-.16-1.09-.87-1.64-2.05-1.64s-1.77,.57-1.77,1.26c0,.59,.3,.99,1.36,1.18l2.15,.4c2.23,.4,3.03,1.51,3.03,3.19,0,1.8-1.34,3.38-4.45,3.38s-4.35-1.39-4.73-3.42Z"/><path class="cls-1" d="M172.03,81.71c0,.34-.02,.63-.02,.63h-7.37c.18,1.97,1.16,2.79,2.54,2.79,1.12,0,1.75-.52,2.05-1.32h2.58c-.45,1.93-2.07,3.42-4.65,3.42-3.25,0-5.12-2.31-5.12-5.61s2.07-5.75,5.04-5.75c3.19,0,5,2.35,4.94,5.84Zm-2.66-1.18c-.08-1.64-.93-2.56-2.27-2.56-1.24,0-2.17,.84-2.42,2.56h4.69Z"/><path class="cls-1" d="M180.44,78.44h-1.99l-.33-5.71h2.64l-.32,5.71Zm3.88,0h-1.97l-.35-5.71h2.66l-.33,5.71Z"/><path class="cls-1" d="M195.57,79.87v7.12h-2.34v-1.39c-.79,1.11-1.87,1.64-3.25,1.64-2.17,0-3.66-1.36-3.66-3.25s1.06-3.09,3.6-3.36l3.07-.34v-.59c0-1.22-.71-1.8-1.83-1.8-1.18,0-1.83,.5-2.03,1.57h-2.6c.28-2.35,1.91-3.59,4.59-3.59s4.45,1.24,4.45,3.99Zm-2.6,2.88v-.8l-2.44,.34c-1.08,.15-1.58,.76-1.58,1.58s.63,1.51,1.71,1.51c1.5,0,2.31-1.07,2.31-2.62Z"/><path class="cls-1" d="M199.94,78.44h-1.99l-.33-5.71h2.64l-.32,5.71Zm3.88,0h-1.97l-.35-5.71h2.66l-.33,5.71Z"/><path class="cls-1" d="M206.46,77.79c0-.99,.75-1.79,1.67-1.79s1.67,.8,1.67,1.79-.75,1.76-1.67,1.76-1.67-.8-1.67-1.76Zm1.1,9.32l-.18-.11c-.57-.27-.93-.82-.93-1.55,0-.97,.73-1.76,1.67-1.76s1.65,.76,1.65,1.8-.28,2.08-1.56,4.28h-1.75c.55-1.11,.85-1.85,1.08-2.67Z"/><path class="cls-1" d="M228.62,72.73v14.26h-3.88l-5.5-11.3v11.3h-2.58v-14.26h3.72l5.65,11.59v-11.59h2.58Z"/><path class="cls-1" d="M240.62,81.71c0,.34-.02,.63-.02,.63h-7.37c.18,1.97,1.16,2.79,2.54,2.79,1.12,0,1.75-.52,2.05-1.32h2.58c-.45,1.93-2.07,3.42-4.65,3.42-3.25,0-5.12-2.31-5.12-5.61s2.07-5.75,5.04-5.75c3.19,0,5,2.35,4.94,5.84Zm-2.66-1.18c-.08-1.64-.93-2.56-2.27-2.56-1.24,0-2.17,.84-2.42,2.56h4.69Z"/><path class="cls-1" d="M251.38,76.13v10.85h-2.32v-1.64c-.69,1.24-1.79,1.89-3.17,1.89-2.29,0-3.6-1.41-3.6-3.99v-7.12h2.6v6.74c0,1.3,.63,2.06,1.77,2.06,1.28,0,2.13-.97,2.13-2.46v-6.34h2.6Z"/><path class="cls-1" d="M257.05,78.42v4.83c0,1.03,.47,1.53,1.34,1.53,.35,0,.59-.02,.83-.08v2.25c-.51,.15-.81,.17-1.44,.17-2.3,0-3.33-1.39-3.33-3.74v-4.96h-1.6v-2.29h1.6v-3.07h2.6v3.07h2.17v2.29h-2.17Z"/><path class="cls-1" d="M266.56,76.11v2.44c-.16-.02-.33-.04-.59-.04-1.6,0-2.46,.99-2.46,2.71v5.77h-2.6v-10.85h2.34v1.87c.49-1.3,1.5-1.97,2.7-1.97,.22,0,.39,.02,.61,.08Z"/><path class="cls-1" d="M276.85,79.87v7.12h-2.34v-1.39c-.79,1.11-1.87,1.64-3.25,1.64-2.17,0-3.66-1.36-3.66-3.25s1.06-3.09,3.6-3.36l3.07-.34v-.59c0-1.22-.71-1.8-1.83-1.8-1.18,0-1.83,.5-2.03,1.57h-2.6c.28-2.35,1.91-3.59,4.59-3.59s4.45,1.24,4.45,3.99Zm-2.6,2.88v-.8l-2.44,.34c-1.08,.15-1.58,.76-1.58,1.58s.63,1.51,1.71,1.51c1.5,0,2.31-1.07,2.31-2.62Z"/><path class="cls-1" d="M281.65,86.99h-2.6v-15.12h2.6v15.12Z"/><path class="cls-1" d="M289.63,72.73h1.75c-.53,1.13-.85,1.87-1.08,2.69l.2,.08c.59,.29,.91,.82,.91,1.58,0,.97-.73,1.76-1.67,1.76s-1.65-.78-1.65-1.81,.3-2.08,1.56-4.3Z"/><path class="cls-1" d="M302.14,79.87v7.12h-2.34v-1.39c-.79,1.11-1.87,1.64-3.25,1.64-2.17,0-3.66-1.36-3.66-3.25s1.06-3.09,3.6-3.36l3.07-.34v-.59c0-1.22-.71-1.8-1.83-1.8-1.18,0-1.83,.5-2.03,1.57h-2.6c.28-2.35,1.91-3.59,4.59-3.59s4.45,1.24,4.45,3.99Zm-2.6,2.88v-.8l-2.44,.34c-1.08,.15-1.58,.76-1.58,1.58s.63,1.51,1.71,1.51c1.5,0,2.31-1.07,2.31-2.62Z"/><path class="cls-1" d="M305.78,78.84h-1.75c.55-1.13,.85-1.87,1.08-2.69l-.18-.1c-.61-.27-.93-.82-.93-1.55,0-.96,.73-1.76,1.67-1.76s1.67,.78,1.67,1.81-.3,2.08-1.58,4.3Z"/><path class="cls-1" d="M313.11,84.4v-7.75c0-3.95,1.1-6.05,5-6.3v2.06c-1.75,.31-2.58,1.39-2.58,3.86v8.5c0,2.48,.83,3.55,2.58,3.86v2.06c-3.9-.25-5-2.35-5-6.3Z"/><path class="cls-1" d="M329.95,81.57c0,3.59-2.17,5.67-4.59,5.67-1.46,0-2.58-.69-3.29-1.89v1.64h-2.38v-15.12h2.58v5.63c.69-1.05,1.77-1.62,3.19-1.62,2.42,0,4.49,2.04,4.49,5.69Zm-2.62,0c0-2.1-1-3.46-2.54-3.46-1.46,0-2.52,1.39-2.52,3.46s1.04,3.44,2.52,3.44,2.54-1.34,2.54-3.44Z"/><path class="cls-1" d="M341.18,76.13l-6.01,14.8h-2.76l2.15-4.91-3.9-9.89h2.76l2.48,7.12,2.64-7.12h2.64Z"/><path class="cls-1" d="M356.55,71.87v15.12h-2.34v-1.83c-.65,1.37-1.79,2.08-3.35,2.08-2.42,0-4.59-2.08-4.59-5.67s2.07-5.69,4.49-5.69c1.42,0,2.5,.57,3.19,1.62v-5.63h2.6Zm-2.6,9.7c0-2.08-1.06-3.46-2.52-3.46-1.54,0-2.54,1.37-2.54,3.46s1.06,3.44,2.54,3.44,2.52-1.32,2.52-3.44Z"/><path class="cls-1" d="M368.25,81.71c0,.34-.02,.63-.02,.63h-7.37c.18,1.97,1.16,2.79,2.54,2.79,1.12,0,1.75-.52,2.05-1.32h2.58c-.45,1.93-2.07,3.42-4.65,3.42-3.25,0-5.12-2.31-5.12-5.61s2.07-5.75,5.04-5.75c3.19,0,5,2.35,4.94,5.84Zm-2.66-1.18c-.08-1.64-.93-2.56-2.27-2.56-1.24,0-2.17,.84-2.42,2.56h4.69Z"/><path class="cls-1" d="M373.41,75.48v.65h2.42v2.29h-2.42v8.57h-2.6v-8.57h-1.6v-2.29h1.6v-.63c0-2.52,1.46-3.84,3.6-3.84,.59,0,1.1,.08,1.52,.23v2.12c-.3-.08-.61-.13-.93-.13-1.04,0-1.6,.52-1.6,1.6Z"/><path class="cls-1" d="M385.98,79.87v7.12h-2.34v-1.39c-.79,1.11-1.87,1.64-3.25,1.64-2.17,0-3.66-1.36-3.66-3.25s1.06-3.09,3.6-3.36l3.07-.34v-.59c0-1.22-.71-1.8-1.83-1.8-1.18,0-1.83,.5-2.03,1.57h-2.6c.28-2.35,1.91-3.59,4.59-3.59s4.45,1.24,4.45,3.99Zm-2.6,2.88v-.8l-2.44,.34c-1.08,.15-1.58,.76-1.58,1.58s.63,1.51,1.71,1.51c1.5,0,2.31-1.07,2.31-2.62Z"/><path class="cls-1" d="M397.17,76.13v10.85h-2.32v-1.64c-.69,1.24-1.79,1.89-3.17,1.89-2.29,0-3.6-1.41-3.6-3.99v-7.12h2.6v6.74c0,1.3,.63,2.06,1.77,2.06,1.28,0,2.13-.97,2.13-2.46v-6.34h2.6Z"/><path class="cls-1" d="M402.07,86.99h-2.6v-15.12h2.6v15.12Z"/><path class="cls-1" d="M407.77,78.42v4.83c0,1.03,.47,1.53,1.34,1.53,.35,0,.59-.02,.83-.08v2.25c-.51,.15-.81,.17-1.44,.17-2.3,0-3.33-1.39-3.33-3.74v-4.96h-1.6v-2.29h1.6v-3.07h2.6v3.07h2.17v2.29h-2.17Z"/><path class="cls-1" d="M410.92,88.64c1.77-.32,2.58-1.39,2.58-3.86v-8.5c0-2.48-.81-3.55-2.58-3.86v-2.06c3.9,.25,5.02,2.35,5.02,6.3v7.75c0,3.95-1.12,6.05-5.02,6.3v-2.06Z"/><path class="cls-1" d="M419.05,89.78h-1.75c.55-1.11,.85-1.85,1.08-2.67l-.18-.11c-.61-.29-.93-.82-.93-1.55,0-.97,.73-1.76,1.67-1.76s1.67,.76,1.67,1.8-.3,2.08-1.58,4.28Z"/><path class="cls-1" d="M439.34,72.73v14.26h-2.7v-6.21h-6.6v6.21h-2.7v-14.26h2.7v5.67h6.6v-5.67h2.7Z"/><path class="cls-1" d="M450.91,76.13v10.85h-2.32v-1.64c-.69,1.24-1.79,1.89-3.17,1.89-2.29,0-3.6-1.41-3.6-3.99v-7.12h2.6v6.74c0,1.3,.63,2.06,1.77,2.06,1.28,0,2.13-.97,2.13-2.46v-6.34h2.6Z"/><path class="cls-1" d="M468.77,80.18v6.8h-2.6v-6.24c0-1.7-.79-2.48-1.89-2.48s-2.01,.8-2.01,2.35v6.36h-2.6v-6.24c0-1.7-.79-2.48-1.89-2.48s-1.99,.78-1.99,2.35v6.36h-2.6v-10.85h2.34v1.51c.65-1.18,1.75-1.76,3.11-1.76,1.46,0,2.58,.71,3.17,1.99,.69-1.32,1.85-1.99,3.29-1.99,2.23,0,3.66,1.6,3.66,4.3Z"/><path class="cls-1" d="M479.73,79.87v7.12h-2.34v-1.39c-.79,1.11-1.87,1.64-3.25,1.64-2.17,0-3.66-1.36-3.66-3.25s1.06-3.09,3.6-3.36l3.07-.34v-.59c0-1.22-.71-1.8-1.83-1.8-1.18,0-1.83,.5-2.03,1.57h-2.6c.28-2.35,1.91-3.59,4.59-3.59s4.45,1.24,4.45,3.99Zm-2.6,2.88v-.8l-2.44,.34c-1.08,.15-1.58,.76-1.58,1.58s.63,1.51,1.71,1.51c1.5,0,2.31-1.07,2.31-2.62Z"/><path class="cls-1" d="M491.21,80.14v6.84h-2.6v-6.21c0-1.78-.79-2.58-1.99-2.58s-2.11,.88-2.11,2.58v6.21h-2.6v-10.85h2.34v1.53c.67-1.2,1.75-1.78,3.21-1.78,2.13,0,3.74,1.34,3.74,4.26Z"/><path class="cls-1" d="M493.16,72.94c0-.9,.63-1.64,1.58-1.64s1.54,.74,1.54,1.64-.63,1.64-1.54,1.64-1.58-.76-1.58-1.64Zm.26,3.19h2.6v10.85h-2.6v-10.85Z"/><path class="cls-1" d="M497.75,83.81h2.54c.22,.97,.93,1.47,2.17,1.47s1.89-.5,1.89-1.24c0-.63-.35-1.07-1.28-1.24l-2.19-.44c-2.07-.42-2.94-1.45-2.94-3.11,0-1.81,1.46-3.38,4.24-3.38s4.25,1.41,4.59,3.59h-2.56c-.16-1.09-.87-1.64-2.05-1.64s-1.77,.57-1.77,1.26c0,.59,.3,.99,1.36,1.18l2.15,.4c2.23,.4,3.03,1.51,3.03,3.19,0,1.8-1.34,3.38-4.45,3.38s-4.35-1.39-4.73-3.42Z"/><path class="cls-1" d="M512.05,78.42v4.83c0,1.03,.47,1.53,1.34,1.53,.35,0,.59-.02,.83-.08v2.25c-.51,.15-.81,.17-1.44,.17-2.3,0-3.33-1.39-3.33-3.74v-4.96h-1.6v-2.29h1.6v-3.07h2.6v3.07h2.17v2.29h-2.17Z"/><path class="cls-1" d="M521.59,72.73h1.75c-.53,1.13-.85,1.87-1.08,2.69l.2,.08c.59,.29,.91,.82,.91,1.58,0,.97-.73,1.76-1.67,1.76s-1.65-.78-1.65-1.81,.3-2.08,1.56-4.3Z"/><path class="cls-1" d="M534.09,79.87v7.12h-2.34v-1.39c-.79,1.11-1.87,1.64-3.25,1.64-2.17,0-3.66-1.36-3.66-3.25s1.06-3.09,3.6-3.36l3.07-.34v-.59c0-1.22-.71-1.8-1.83-1.8-1.18,0-1.83,.5-2.03,1.57h-2.6c.28-2.35,1.91-3.59,4.59-3.59s4.45,1.24,4.45,3.99Zm-2.6,2.88v-.8l-2.44,.34c-1.08,.15-1.58,.76-1.58,1.58s.63,1.51,1.71,1.51c1.5,0,2.31-1.07,2.31-2.62Z"/><path class="cls-1" d="M537.74,78.84h-1.75c.55-1.13,.85-1.87,1.08-2.69l-.18-.1c-.61-.27-.93-.82-.93-1.55,0-.96,.73-1.76,1.67-1.76s1.67,.78,1.67,1.81-.3,2.08-1.58,4.3Z"/><path class="cls-1" d="M542.66,89.78h-1.75c.55-1.11,.85-1.85,1.08-2.67l-.18-.11c-.61-.29-.93-.82-.93-1.55,0-.97,.73-1.76,1.67-1.76s1.67,.76,1.67,1.8-.3,2.08-1.58,4.28Z"/><path class="cls-1" d="M561.02,75.12h-4.2v11.86h-2.7v-11.86h-4.2v-2.39h11.09v2.39Z"/><path class="cls-1" d="M568.21,76.11v2.44c-.16-.02-.33-.04-.59-.04-1.6,0-2.46,.99-2.46,2.71v5.77h-2.6v-10.85h2.34v1.87c.49-1.3,1.5-1.97,2.7-1.97,.22,0,.39,.02,.61,.08Z"/><path class="cls-1" d="M578.5,79.87v7.12h-2.34v-1.39c-.79,1.11-1.87,1.64-3.25,1.64-2.17,0-3.66-1.36-3.66-3.25s1.06-3.09,3.6-3.36l3.07-.34v-.59c0-1.22-.71-1.8-1.83-1.8-1.18,0-1.83,.5-2.03,1.57h-2.6c.28-2.35,1.91-3.59,4.59-3.59s4.45,1.24,4.45,3.99Zm-2.6,2.88v-.8l-2.44,.34c-1.08,.15-1.58,.76-1.58,1.58s.63,1.51,1.71,1.51c1.5,0,2.31-1.07,2.31-2.62Z"/><path class="cls-1" d="M589.98,80.14v6.84h-2.6v-6.21c0-1.78-.79-2.58-1.99-2.58s-2.11,.88-2.11,2.58v6.21h-2.6v-10.85h2.34v1.53c.67-1.2,1.75-1.78,3.21-1.78,2.13,0,3.74,1.34,3.74,4.26Z"/><path class="cls-1" d="M591.58,83.81h2.54c.22,.97,.93,1.47,2.17,1.47s1.89-.5,1.89-1.24c0-.63-.35-1.07-1.28-1.24l-2.19-.44c-2.07-.42-2.94-1.45-2.94-3.11,0-1.81,1.46-3.38,4.24-3.38s4.25,1.41,4.59,3.59h-2.56c-.16-1.09-.87-1.64-2.05-1.64s-1.77,.57-1.77,1.26c0,.59,.3,.99,1.36,1.18l2.15,.4c2.23,.4,3.03,1.51,3.03,3.19,0,1.8-1.34,3.38-4.45,3.38s-4.35-1.39-4.73-3.42Z"/><path class="cls-1" d="M602.25,72.94c0-.9,.63-1.64,1.58-1.64s1.54,.74,1.54,1.64-.63,1.64-1.54,1.64-1.58-.76-1.58-1.64Zm.26,3.19h2.6v10.85h-2.6v-10.85Z"/><path class="cls-1" d="M610.82,78.42v4.83c0,1.03,.47,1.53,1.34,1.53,.35,0,.59-.02,.83-.08v2.25c-.51,.15-.81,.17-1.44,.17-2.3,0-3.33-1.39-3.33-3.74v-4.96h-1.6v-2.29h1.6v-3.07h2.6v3.07h2.17v2.29h-2.17Z"/><path class="cls-1" d="M614.45,72.94c0-.9,.63-1.64,1.58-1.64s1.54,.74,1.54,1.64-.63,1.64-1.54,1.64-1.58-.76-1.58-1.64Zm.26,3.19h2.6v10.85h-2.6v-10.85Z"/><path class="cls-1" d="M619.07,81.57c0-3.49,2.25-5.69,5.18-5.69s5.16,2.2,5.16,5.69-2.25,5.67-5.16,5.67-5.18-2.18-5.18-5.67Zm7.68,0c0-2.12-.95-3.44-2.52-3.44s-2.52,1.34-2.52,3.44,.95,3.42,2.52,3.42,2.52-1.32,2.52-3.42Z"/><path class="cls-1" d="M640.45,80.14v6.84h-2.6v-6.21c0-1.78-.79-2.58-1.99-2.58s-2.11,.88-2.11,2.58v6.21h-2.6v-10.85h2.34v1.53c.67-1.2,1.75-1.78,3.21-1.78,2.13,0,3.74,1.34,3.74,4.26Z"/><path class="cls-1" d="M651.4,79.87v7.12h-2.34v-1.39c-.79,1.11-1.87,1.64-3.25,1.64-2.17,0-3.66-1.36-3.66-3.25s1.06-3.09,3.6-3.36l3.07-.34v-.59c0-1.22-.71-1.8-1.83-1.8-1.18,0-1.83,.5-2.03,1.57h-2.6c.28-2.35,1.91-3.59,4.59-3.59s4.45,1.24,4.45,3.99Zm-2.6,2.88v-.8l-2.44,.34c-1.08,.15-1.58,.76-1.58,1.58s.63,1.51,1.71,1.51c1.5,0,2.31-1.07,2.31-2.62Z"/><path class="cls-1" d="M656.21,86.99h-2.6v-15.12h2.6v15.12Z"/><path class="cls-1" d="M664.19,72.73h1.75c-.53,1.13-.85,1.87-1.08,2.69l.2,.08c.59,.29,.91,.82,.91,1.58,0,.97-.73,1.76-1.67,1.76s-1.65-.78-1.65-1.81,.3-2.08,1.56-4.3Z"/><path class="cls-1" d="M676.69,79.87v7.12h-2.34v-1.39c-.79,1.11-1.87,1.64-3.25,1.64-2.17,0-3.66-1.36-3.66-3.25s1.06-3.09,3.6-3.36l3.07-.34v-.59c0-1.22-.71-1.8-1.83-1.8-1.18,0-1.83,.5-2.03,1.57h-2.6c.28-2.35,1.91-3.59,4.59-3.59s4.45,1.24,4.45,3.99Zm-2.6,2.88v-.8l-2.44,.34c-1.08,.15-1.58,.76-1.58,1.58s.63,1.51,1.71,1.51c1.5,0,2.31-1.07,2.31-2.62Z"/><path class="cls-1" d="M680.34,78.84h-1.75c.55-1.13,.85-1.87,1.08-2.69l-.18-.1c-.61-.27-.93-.82-.93-1.55,0-.96,.73-1.76,1.67-1.76s1.67,.78,1.67,1.81-.3,2.08-1.58,4.3Z"/><path class="cls-1" d="M685.26,89.78h-1.75c.55-1.11,.85-1.85,1.08-2.67l-.18-.11c-.61-.29-.93-.82-.93-1.55,0-.97,.73-1.76,1.67-1.76s1.67,.76,1.67,1.8-.3,2.08-1.58,4.28Z"/><path class="cls-1" d="M708.47,72.73v14.26h-2.7v-11.65l-3.66,11.65h-2.15l-3.68-11.67v11.67h-2.72v-14.26h4.24l3.25,10.23,3.21-10.23h4.22Z"/><path class="cls-1" d="M710.5,81.57c0-3.49,2.25-5.69,5.18-5.69s5.16,2.2,5.16,5.69-2.25,5.67-5.16,5.67-5.18-2.18-5.18-5.67Zm7.68,0c0-2.12-.95-3.44-2.52-3.44s-2.52,1.34-2.52,3.44,.95,3.42,2.52,3.42,2.52-1.32,2.52-3.42Z"/><path class="cls-1" d="M732.32,71.87v15.12h-2.34v-1.83c-.65,1.37-1.79,2.08-3.35,2.08-2.42,0-4.59-2.08-4.59-5.67s2.07-5.69,4.49-5.69c1.42,0,2.5,.57,3.19,1.62v-5.63h2.6Zm-2.6,9.7c0-2.08-1.06-3.46-2.52-3.46-1.54,0-2.54,1.37-2.54,3.46s1.06,3.44,2.54,3.44,2.52-1.32,2.52-3.44Z"/><path class="cls-1" d="M744.03,81.71c0,.34-.02,.63-.02,.63h-7.37c.18,1.97,1.16,2.79,2.54,2.79,1.12,0,1.75-.52,2.05-1.32h2.58c-.45,1.93-2.07,3.42-4.65,3.42-3.25,0-5.12-2.31-5.12-5.61s2.07-5.75,5.04-5.75c3.19,0,5,2.35,4.94,5.84Zm-2.66-1.18c-.08-1.64-.93-2.56-2.27-2.56-1.24,0-2.17,.84-2.42,2.56h4.69Z"/><path class="cls-1" d="M751.43,76.11v2.44c-.16-.02-.33-.04-.59-.04-1.6,0-2.46,.99-2.46,2.71v5.77h-2.6v-10.85h2.34v1.87c.49-1.3,1.5-1.97,2.7-1.97,.22,0,.39,.02,.61,.08Z"/><path class="cls-1" d="M762.25,80.14v6.84h-2.6v-6.21c0-1.78-.79-2.58-1.99-2.58s-2.11,.88-2.11,2.58v6.21h-2.6v-10.85h2.34v1.53c.67-1.2,1.75-1.78,3.21-1.78,2.13,0,3.74,1.34,3.74,4.26Z"/><path class="cls-1" d="M770.11,72.73h1.75c-.53,1.13-.85,1.87-1.08,2.69l.2,.08c.59,.29,.91,.82,.91,1.58,0,.97-.73,1.76-1.67,1.76s-1.65-.78-1.65-1.81,.3-2.08,1.56-4.3Z"/><path class="cls-1" d="M782.62,79.87v7.12h-2.34v-1.39c-.79,1.11-1.87,1.64-3.25,1.64-2.17,0-3.66-1.36-3.66-3.25s1.06-3.09,3.6-3.36l3.07-.34v-.59c0-1.22-.71-1.8-1.83-1.8-1.18,0-1.83,.5-2.03,1.57h-2.6c.28-2.35,1.91-3.59,4.59-3.59s4.45,1.24,4.45,3.99Zm-2.6,2.88v-.8l-2.44,.34c-1.08,.15-1.58,.76-1.58,1.58s.63,1.51,1.71,1.51c1.5,0,2.31-1.07,2.31-2.62Z"/><path class="cls-1" d="M786.26,78.84h-1.75c.55-1.13,.85-1.87,1.08-2.69l-.18-.1c-.61-.27-.93-.82-.93-1.55,0-.96,.73-1.76,1.67-1.76s1.67,.78,1.67,1.81-.3,2.08-1.58,4.3Z"/><path class="cls-1" d="M791.18,89.78h-1.75c.55-1.11,.85-1.85,1.08-2.67l-.18-.11c-.61-.29-.93-.82-.93-1.55,0-.97,.73-1.76,1.67-1.76s1.67,.76,1.67,1.8-.3,2.08-1.58,4.28Z"/><path class="cls-1" d="M811.71,79.28l-.02,7.71h-2.36v-2.16c-.83,1.58-1.99,2.42-4.12,2.42-3.94,0-6.48-2.86-6.48-7.37s2.76-7.39,6.56-7.39c3.35,0,5.52,1.64,6.15,4.6h-2.84c-.43-1.41-1.4-2.29-3.29-2.29-2.23,0-3.86,1.74-3.86,5.1s1.5,5.06,4.04,5.06c2.09,0,3.41-1.3,3.55-3.42h-3.8v-2.25h6.48Z"/><path class="cls-1" d="M823.18,81.71c0,.34-.02,.63-.02,.63h-7.37c.18,1.97,1.16,2.79,2.54,2.79,1.12,0,1.75-.52,2.05-1.32h2.58c-.45,1.93-2.07,3.42-4.65,3.42-3.25,0-5.12-2.31-5.12-5.61s2.07-5.75,5.04-5.75c3.19,0,5,2.35,4.94,5.84Zm-2.66-1.18c-.08-1.64-.93-2.56-2.27-2.56-1.24,0-2.17,.84-2.42,2.56h4.69Z"/><path class="cls-1" d="M824.38,81.57c0-3.49,2.25-5.69,5.18-5.69s5.16,2.2,5.16,5.69-2.25,5.67-5.16,5.67-5.18-2.18-5.18-5.67Zm7.68,0c0-2.12-.95-3.44-2.52-3.44s-2.52,1.34-2.52,3.44,.95,3.42,2.52,3.42,2.52-1.32,2.52-3.42Z"/><path class="cls-1" d="M852.03,80.18v6.8h-2.6v-6.24c0-1.7-.79-2.48-1.89-2.48s-2.01,.8-2.01,2.35v6.36h-2.6v-6.24c0-1.7-.79-2.48-1.89-2.48s-1.99,.78-1.99,2.35v6.36h-2.6v-10.85h2.34v1.51c.65-1.18,1.75-1.76,3.11-1.76,1.46,0,2.58,.71,3.17,1.99,.69-1.32,1.85-1.99,3.29-1.99,2.23,0,3.66,1.6,3.66,4.3Z"/><path class="cls-1" d="M863.66,81.71c0,.34-.02,.63-.02,.63h-7.37c.18,1.97,1.16,2.79,2.54,2.79,1.12,0,1.75-.52,2.05-1.32h2.58c-.45,1.93-2.07,3.42-4.65,3.42-3.25,0-5.12-2.31-5.12-5.61s2.07-5.75,5.04-5.75c3.19,0,5,2.35,4.94,5.84Zm-2.66-1.18c-.08-1.64-.93-2.56-2.27-2.56-1.24,0-2.17,.84-2.42,2.56h4.69Z"/><path class="cls-1" d="M868.8,78.42v4.83c0,1.03,.47,1.53,1.34,1.53,.35,0,.59-.02,.83-.08v2.25c-.51,.15-.81,.17-1.44,.17-2.3,0-3.33-1.39-3.33-3.74v-4.96h-1.6v-2.29h1.6v-3.07h2.6v3.07h2.17v2.29h-2.17Z"/><path class="cls-1" d="M878.31,76.11v2.44c-.16-.02-.33-.04-.59-.04-1.6,0-2.46,.99-2.46,2.71v5.77h-2.6v-10.85h2.34v1.87c.49-1.3,1.5-1.97,2.7-1.97,.22,0,.39,.02,.61,.08Z"/><path class="cls-1" d="M879.59,72.94c0-.9,.63-1.64,1.58-1.64s1.54,.74,1.54,1.64-.63,1.64-1.54,1.64-1.58-.76-1.58-1.64Zm.26,3.19h2.6v10.85h-2.6v-10.85Z"/><path class="cls-1" d="M884.22,81.55c0-3.53,2.15-5.67,5.08-5.67s4.43,1.7,4.77,4.07h-2.64c-.24-1.22-.93-1.83-2.15-1.83-1.48,0-2.42,1.26-2.42,3.4s.91,3.46,2.44,3.46c1.24,0,1.87-.63,2.13-1.83h2.62c-.33,2.41-1.97,4.07-4.75,4.07-2.94,0-5.08-2.14-5.08-5.69Z"/><path class="cls-1" d="M901.54,72.73h1.75c-.53,1.13-.85,1.87-1.08,2.69l.2,.08c.59,.29,.91,.82,.91,1.58,0,.97-.73,1.76-1.67,1.76s-1.65-.78-1.65-1.81,.3-2.08,1.56-4.3Z"/><path class="cls-1" d="M914.05,79.87v7.12h-2.34v-1.39c-.79,1.11-1.87,1.64-3.25,1.64-2.17,0-3.66-1.36-3.66-3.25s1.06-3.09,3.6-3.36l3.07-.34v-.59c0-1.22-.71-1.8-1.83-1.8-1.18,0-1.83,.5-2.03,1.57h-2.6c.28-2.35,1.91-3.59,4.59-3.59s4.45,1.24,4.45,3.99Zm-2.6,2.88v-.8l-2.44,.34c-1.08,.15-1.58,.76-1.58,1.58s.63,1.51,1.71,1.51c1.5,0,2.31-1.07,2.31-2.62Z"/><path class="cls-1" d="M917.69,78.84h-1.75c.55-1.13,.85-1.87,1.08-2.69l-.18-.1c-.61-.27-.93-.82-.93-1.55,0-.96,.73-1.76,1.67-1.76s1.67,.78,1.67,1.81-.3,2.08-1.58,4.3Z"/><path class="cls-1" d="M935.07,86.99l-1.6-1.68-.06,.06c-.98,1.18-1.99,1.87-3.86,1.87-2.82,0-4.29-1.74-4.29-3.72,0-1.55,.79-2.6,2.27-3.72l.45-.34-.18-.19c-1.3-1.38-1.73-2.14-1.73-3.3,0-1.87,1.4-3.51,3.92-3.51s3.92,1.66,3.92,3.46c0,1.22-.53,2.14-2.07,3.34l-.51,.4,2.07,2.18,1.58-1.93h2.97l-2.99,3.59,3.29,3.46h-3.17Zm-3.15-3.34l-2.4-2.54-.35,.27c-.91,.69-1.2,1.2-1.2,1.97,0,.92,.65,1.68,1.77,1.68,.81,0,1.34-.32,1.89-1.03l.3-.36Zm-2.09-5.54l.35-.27c.93-.71,1.18-1.2,1.18-1.83,0-.73-.53-1.36-1.38-1.36s-1.36,.63-1.36,1.36c0,.67,.22,1.07,.95,1.83l.26,.27Z"/><path class="cls-1" d="M947.02,75.06v3.49h6.3v2.31h-6.3v3.8h7.01v2.33h-9.71v-14.26h9.71v2.33h-7.01Z"/><path class="cls-1" d="M962.74,86.99l-2.46-3.99-2.4,3.99h-2.9l3.72-5.67-3.57-5.19h2.9l2.25,3.4,2.25-3.4h2.92l-3.57,5.19,3.76,5.67h-2.9Z"/><path class="cls-1" d="M977.1,81.57c0,3.59-2.19,5.67-4.61,5.67-1.34,0-2.36-.57-3.07-1.58v5.27h-2.6v-14.8h2.34v1.76c.69-1.28,1.83-2.02,3.45-2.02,2.42,0,4.49,2.04,4.49,5.69Zm-2.64,0c0-2.08-1-3.46-2.54-3.46-1.46,0-2.5,1.41-2.5,3.46s1.04,3.44,2.5,3.44,2.54-1.34,2.54-3.44Z"/><path class="cls-1" d="M984.49,76.11v2.44c-.16-.02-.33-.04-.59-.04-1.6,0-2.46,.99-2.46,2.71v5.77h-2.6v-10.85h2.34v1.87c.49-1.3,1.5-1.97,2.7-1.97,.22,0,.39,.02,.61,.08Z"/><path class="cls-1" d="M995.44,81.71c0,.34-.02,.63-.02,.63h-7.37c.18,1.97,1.16,2.79,2.54,2.79,1.12,0,1.75-.52,2.05-1.32h2.58c-.45,1.93-2.07,3.42-4.65,3.42-3.25,0-5.12-2.31-5.12-5.61s2.07-5.75,5.04-5.75c3.19,0,5,2.35,4.94,5.84Zm-2.66-1.18c-.08-1.64-.93-2.56-2.27-2.56-1.24,0-2.17,.84-2.42,2.56h4.69Z"/><path class="cls-1" d="M996.6,83.81h2.54c.22,.97,.93,1.47,2.17,1.47s1.89-.5,1.89-1.24c0-.63-.35-1.07-1.28-1.24l-2.19-.44c-2.07-.42-2.94-1.45-2.94-3.11,0-1.81,1.46-3.38,4.24-3.38s4.25,1.41,4.59,3.59h-2.56c-.16-1.09-.87-1.64-2.05-1.64s-1.77,.57-1.77,1.26c0,.59,.3,.99,1.36,1.18l2.15,.4c2.23,.4,3.03,1.51,3.03,3.19,0,1.8-1.34,3.38-4.45,3.38s-4.35-1.39-4.73-3.42Z"/><path class="cls-1" d="M1006.93,83.81h2.54c.22,.97,.93,1.47,2.17,1.47s1.89-.5,1.89-1.24c0-.63-.35-1.07-1.28-1.24l-2.19-.44c-2.07-.42-2.94-1.45-2.94-3.11,0-1.81,1.46-3.38,4.24-3.38s4.25,1.41,4.59,3.59h-2.56c-.16-1.09-.87-1.64-2.05-1.64s-1.77,.57-1.77,1.26c0,.59,.3,.99,1.36,1.18l2.15,.4c2.23,.4,3.03,1.51,3.03,3.19,0,1.8-1.34,3.38-4.45,3.38s-4.35-1.39-4.73-3.42Z"/><path class="cls-1" d="M1017.6,72.94c0-.9,.63-1.64,1.58-1.64s1.54,.74,1.54,1.64-.63,1.64-1.54,1.64-1.58-.76-1.58-1.64Zm.26,3.19h2.6v10.85h-2.6v-10.85Z"/><path class="cls-1" d="M1032.24,76.13l-3.68,10.85h-3.01l-3.78-10.85h2.7l2.62,8.12,2.48-8.12h2.68Z"/><path class="cls-1" d="M1042.98,81.71c0,.34-.02,.63-.02,.63h-7.37c.18,1.97,1.16,2.79,2.54,2.79,1.12,0,1.75-.52,2.05-1.32h2.58c-.45,1.93-2.07,3.42-4.65,3.42-3.25,0-5.12-2.31-5.12-5.61s2.07-5.75,5.04-5.75c3.19,0,5,2.35,4.94,5.84Zm-2.66-1.18c-.08-1.64-.93-2.56-2.27-2.56-1.24,0-2.17,.84-2.42,2.56h4.69Z"/><path class="cls-1" d="M1050.4,72.73h1.75c-.53,1.13-.85,1.87-1.08,2.69l.2,.08c.59,.29,.91,.82,.91,1.58,0,.97-.73,1.76-1.67,1.76s-1.65-.78-1.65-1.81,.3-2.08,1.56-4.3Z"/><path class="cls-1" d="M1062.91,79.87v7.12h-2.34v-1.39c-.79,1.11-1.87,1.64-3.25,1.64-2.17,0-3.66-1.36-3.66-3.25s1.06-3.09,3.6-3.36l3.07-.34v-.59c0-1.22-.71-1.8-1.83-1.8-1.18,0-1.83,.5-2.03,1.57h-2.6c.28-2.35,1.91-3.59,4.59-3.59s4.45,1.24,4.45,3.99Zm-2.6,2.88v-.8l-2.44,.34c-1.08,.15-1.58,.76-1.58,1.58s.63,1.51,1.71,1.51c1.5,0,2.31-1.07,2.31-2.62Z"/><path class="cls-1" d="M1066.55,78.84h-1.75c.55-1.13,.85-1.87,1.08-2.69l-.18-.1c-.61-.27-.93-.82-.93-1.55,0-.96,.73-1.76,1.67-1.76s1.67,.78,1.67,1.81-.3,2.08-1.58,4.3Z"/><path class="cls-1" d="M1076.35,89.44h-2.52l6.11-17.49h2.54l-6.13,17.49Z"/><path class="cls-1" d="M1087.99,82.74h2.8c.24,1.49,1.24,2.25,3.09,2.25s2.72-.8,2.72-1.85c0-.92-.57-1.53-1.85-1.8l-3.11-.65c-2.25-.46-3.39-1.95-3.39-3.84,0-2.37,1.85-4.37,5.26-4.37s5.34,1.51,5.59,4.24h-2.82c-.22-1.37-1.12-2-2.8-2s-2.44,.82-2.44,1.83c0,.82,.47,1.38,1.71,1.64l3.13,.63c2.44,.46,3.51,1.99,3.51,3.9,0,2.52-1.81,4.51-5.5,4.51s-5.61-1.66-5.91-4.49Z"/><path class="cls-1" d="M1100.58,81.57c0-3.49,2.25-5.69,5.18-5.69s5.16,2.2,5.16,5.69-2.25,5.67-5.16,5.67-5.18-2.18-5.18-5.67Zm7.68,0c0-2.12-.95-3.44-2.52-3.44s-2.52,1.34-2.52,3.44,.95,3.42,2.52,3.42,2.52-1.32,2.52-3.42Z"/><path class="cls-1" d="M1128.23,80.18v6.8h-2.6v-6.24c0-1.7-.79-2.48-1.89-2.48s-2.01,.8-2.01,2.35v6.36h-2.6v-6.24c0-1.7-.79-2.48-1.89-2.48s-1.99,.78-1.99,2.35v6.36h-2.6v-10.85h2.34v1.51c.65-1.18,1.75-1.76,3.11-1.76,1.46,0,2.58,.71,3.17,1.99,.69-1.32,1.85-1.99,3.29-1.99,2.23,0,3.66,1.6,3.66,4.3Z"/><path class="cls-1" d="M1139.86,81.71c0,.34-.02,.63-.02,.63h-7.37c.18,1.97,1.16,2.79,2.54,2.79,1.12,0,1.75-.52,2.05-1.32h2.58c-.45,1.93-2.07,3.42-4.65,3.42-3.25,0-5.12-2.31-5.12-5.61s2.07-5.75,5.04-5.75c3.19,0,5,2.35,4.94,5.84Zm-2.66-1.18c-.08-1.64-.93-2.56-2.27-2.56-1.24,0-2.17,.84-2.42,2.56h4.69Z"/><path class="cls-1" d="M1149.49,75.48v.65h2.42v2.29h-2.42v8.57h-2.6v-8.57h-1.6v-2.29h1.6v-.63c0-2.52,1.46-3.84,3.6-3.84,.59,0,1.1,.08,1.52,.23v2.12c-.3-.08-.61-.13-.93-.13-1.04,0-1.6,.52-1.6,1.6Z"/><path class="cls-1" d="M1162.73,81.71c0,.34-.02,.63-.02,.63h-7.37c.18,1.97,1.16,2.79,2.54,2.79,1.12,0,1.75-.52,2.05-1.32h2.58c-.45,1.93-2.07,3.42-4.65,3.42-3.25,0-5.12-2.31-5.12-5.61s2.07-5.75,5.04-5.75c3.19,0,5,2.35,4.94,5.84Zm-2.66-1.18c-.08-1.64-.93-2.56-2.27-2.56-1.24,0-2.17,.84-2.42,2.56h4.69Z"/><path class="cls-1" d="M1173.25,79.87v7.12h-2.34v-1.39c-.79,1.11-1.87,1.64-3.25,1.64-2.17,0-3.66-1.36-3.66-3.25s1.06-3.09,3.6-3.36l3.07-.34v-.59c0-1.22-.71-1.8-1.83-1.8-1.18,0-1.83,.5-2.03,1.57h-2.6c.28-2.35,1.91-3.59,4.59-3.59s4.45,1.24,4.45,3.99Zm-2.6,2.88v-.8l-2.44,.34c-1.08,.15-1.58,.76-1.58,1.58s.63,1.51,1.71,1.51c1.5,0,2.31-1.07,2.31-2.62Z"/><path class="cls-1" d="M1178.82,78.42v4.83c0,1.03,.47,1.53,1.34,1.53,.35,0,.59-.02,.83-.08v2.25c-.51,.15-.81,.17-1.44,.17-2.3,0-3.33-1.39-3.33-3.74v-4.96h-1.6v-2.29h1.6v-3.07h2.6v3.07h2.17v2.29h-2.17Z"/><path class="cls-1" d="M1191.68,76.13v10.85h-2.32v-1.64c-.69,1.24-1.79,1.89-3.17,1.89-2.29,0-3.6-1.41-3.6-3.99v-7.12h2.6v6.74c0,1.3,.63,2.06,1.77,2.06,1.28,0,2.13-.97,2.13-2.46v-6.34h2.6Z"/><path class="cls-1" d="M1199.62,76.11v2.44c-.16-.02-.33-.04-.59-.04-1.6,0-2.46,.99-2.46,2.71v5.77h-2.6v-10.85h2.34v1.87c.49-1.3,1.5-1.97,2.7-1.97,.22,0,.39,.02,.61,.08Z"/><path class="cls-1" d="M1210.57,81.71c0,.34-.02,.63-.02,.63h-7.37c.18,1.97,1.16,2.79,2.54,2.79,1.12,0,1.75-.52,2.05-1.32h2.58c-.45,1.93-2.07,3.42-4.65,3.42-3.25,0-5.12-2.31-5.12-5.61s2.07-5.75,5.04-5.75c3.19,0,5,2.35,4.94,5.84Zm-2.66-1.18c-.08-1.64-.93-2.56-2.27-2.56-1.24,0-2.17,.84-2.42,2.56h4.69Z"/><path class="cls-1" d="M1211.74,83.81h2.54c.22,.97,.93,1.47,2.17,1.47s1.89-.5,1.89-1.24c0-.63-.35-1.07-1.28-1.24l-2.19-.44c-2.07-.42-2.94-1.45-2.94-3.11,0-1.81,1.46-3.38,4.24-3.38s4.25,1.41,4.59,3.59h-2.56c-.16-1.09-.87-1.64-2.05-1.64s-1.77,.57-1.77,1.26c0,.59,.3,.99,1.36,1.18l2.15,.4c2.23,.4,3.03,1.51,3.03,3.19,0,1.8-1.34,3.38-4.45,3.38s-4.35-1.39-4.73-3.42Z"/><path class="cls-1" d="M1235.89,79.87v7.12h-2.34v-1.39c-.79,1.11-1.87,1.64-3.25,1.64-2.17,0-3.66-1.36-3.66-3.25s1.06-3.09,3.6-3.36l3.07-.34v-.59c0-1.22-.71-1.8-1.83-1.8-1.18,0-1.83,.5-2.03,1.57h-2.6c.28-2.35,1.91-3.59,4.59-3.59s4.45,1.24,4.45,3.99Zm-2.6,2.88v-.8l-2.44,.34c-1.08,.15-1.58,.76-1.58,1.58s.63,1.51,1.71,1.51c1.5,0,2.31-1.07,2.31-2.62Z"/><path class="cls-1" d="M1243.73,76.11v2.44c-.16-.02-.33-.04-.59-.04-1.6,0-2.46,.99-2.46,2.71v5.77h-2.6v-10.85h2.34v1.87c.49-1.3,1.5-1.97,2.7-1.97,.22,0,.39,.02,.61,.08Z"/><path class="cls-1" d="M1254.68,81.71c0,.34-.02,.63-.02,.63h-7.37c.18,1.97,1.16,2.79,2.54,2.79,1.12,0,1.75-.52,2.05-1.32h2.58c-.45,1.93-2.07,3.42-4.65,3.42-3.25,0-5.12-2.31-5.12-5.61s2.07-5.75,5.04-5.75c3.19,0,5,2.35,4.94,5.84Zm-2.66-1.18c-.08-1.64-.93-2.56-2.27-2.56-1.24,0-2.17,.84-2.42,2.56h4.69Z"/><path class="cls-1" d="M1271.17,81.57c0,3.59-2.17,5.67-4.59,5.67-1.46,0-2.58-.69-3.29-1.89v1.64h-2.38v-15.12h2.58v5.63c.69-1.05,1.77-1.62,3.19-1.62,2.42,0,4.49,2.04,4.49,5.69Zm-2.62,0c0-2.1-1-3.46-2.54-3.46-1.46,0-2.52,1.39-2.52,3.46s1.04,3.44,2.52,3.44,2.54-1.34,2.54-3.44Z"/><path class="cls-1" d="M1272.69,72.94c0-.9,.63-1.64,1.58-1.64s1.54,.74,1.54,1.64-.63,1.64-1.54,1.64-1.58-.76-1.58-1.64Zm.26,3.19h2.6v10.85h-2.6v-10.85Z"/><path class="cls-1" d="M1287.6,76.13v10.31c0,2.6-1.44,4.75-5.04,4.75s-4.85-1.66-5.06-3.84h2.74c.1,1.11,.71,1.83,2.32,1.83s2.46-.9,2.46-2.62v-1.72c-.71,1.16-1.75,1.66-3.13,1.66-2.5,0-4.55-2.04-4.55-5.31s2.03-5.29,4.55-5.29c1.46,0,2.62,.65,3.33,1.85v-1.6h2.38Zm-2.58,5.04c0-1.87-1.1-3.09-2.54-3.09s-2.52,1.22-2.52,3.09,1.1,3.11,2.52,3.11,2.54-1.28,2.54-3.11Z"/><path class="cls-1" d="M86.71,117.99l-3.41-5.75-3.27,5.75h-3.03l4.37-7.43-4.18-6.82h3.03l3.13,5.21,3.13-5.21h3.01l-4.24,6.76,4.45,7.5h-3.01Z"/><path class="cls-1" d="M104.62,111.16v6.82h-2.6v-6.28c0-1.68-.87-2.5-2.01-2.5s-2.09,.88-2.09,2.54v6.24h-2.6v-15.12h2.6v5.71c.59-1.09,1.58-1.7,2.9-1.7,2.17,0,3.8,1.47,3.8,4.28Z"/><path class="cls-1" d="M116.24,112.71c0,.34-.02,.63-.02,.63h-7.37c.18,1.97,1.16,2.79,2.54,2.79,1.12,0,1.75-.52,2.05-1.32h2.58c-.45,1.93-2.07,3.42-4.65,3.42-3.25,0-5.12-2.31-5.12-5.61s2.07-5.75,5.04-5.75c3.19,0,5,2.35,4.94,5.84Zm-2.66-1.18c-.08-1.64-.93-2.56-2.27-2.56-1.24,0-2.17,.84-2.42,2.56h4.69Z"/><path class="cls-1" d="M117.76,103.94c0-.9,.63-1.64,1.58-1.64s1.54,.74,1.54,1.64-.63,1.64-1.54,1.64-1.58-.76-1.58-1.64Zm.26,3.19h2.6v10.85h-2.6v-10.85Z"/><path class="cls-1" d="M132.67,107.13v10.31c0,2.6-1.44,4.75-5.04,4.75s-4.85-1.66-5.06-3.84h2.74c.1,1.11,.71,1.83,2.32,1.83s2.46-.9,2.46-2.62v-1.72c-.71,1.16-1.75,1.66-3.13,1.66-2.5,0-4.55-2.04-4.55-5.31s2.03-5.29,4.55-5.29c1.46,0,2.62,.65,3.33,1.85v-1.6h2.38Zm-2.58,5.04c0-1.87-1.1-3.09-2.54-3.09s-2.52,1.22-2.52,3.09,1.1,3.11,2.52,3.11,2.54-1.28,2.54-3.11Z"/><path class="cls-1" d="M144.25,111.16v6.82h-2.6v-6.28c0-1.68-.87-2.5-2.01-2.5s-2.09,.88-2.09,2.54v6.24h-2.6v-15.12h2.6v5.71c.59-1.09,1.58-1.7,2.9-1.7,2.17,0,3.8,1.47,3.8,4.28Z"/><path class="cls-1" d="M149.83,109.42v4.83c0,1.03,.47,1.53,1.34,1.53,.35,0,.59-.02,.83-.08v2.25c-.51,.15-.81,.17-1.44,.17-2.3,0-3.33-1.39-3.33-3.74v-4.96h-1.6v-2.29h1.6v-3.07h2.6v3.07h2.17v2.29h-2.17Z"/><path class="cls-1" d="M155.14,120.78h-1.75c.55-1.11,.85-1.85,1.08-2.67l-.18-.11c-.61-.29-.93-.82-.93-1.55,0-.97,.73-1.76,1.67-1.76s1.67,.76,1.67,1.8-.3,2.08-1.58,4.28Z"/><path class="cls-1" d="M162.57,114.81h2.54c.22,.97,.93,1.47,2.17,1.47s1.89-.5,1.89-1.24c0-.63-.35-1.07-1.28-1.24l-2.19-.44c-2.07-.42-2.94-1.45-2.94-3.11,0-1.81,1.46-3.38,4.24-3.38s4.25,1.41,4.59,3.59h-2.56c-.16-1.09-.87-1.64-2.05-1.64s-1.77,.57-1.77,1.26c0,.59,.3,.99,1.36,1.18l2.15,.4c2.23,.4,3.03,1.51,3.03,3.19,0,1.8-1.34,3.38-4.45,3.38s-4.35-1.39-4.73-3.42Z"/><path class="cls-1" d="M189.07,111.18v6.8h-2.6v-6.24c0-1.7-.79-2.48-1.89-2.48s-2.01,.8-2.01,2.35v6.36h-2.6v-6.24c0-1.7-.79-2.48-1.89-2.48s-1.99,.78-1.99,2.35v6.36h-2.6v-10.85h2.34v1.51c.65-1.18,1.75-1.76,3.11-1.76,1.46,0,2.58,.71,3.17,1.99,.69-1.32,1.85-1.99,3.29-1.99,2.23,0,3.66,1.6,3.66,4.3Z"/><path class="cls-1" d="M200.02,110.87v7.12h-2.34v-1.39c-.79,1.11-1.87,1.64-3.25,1.64-2.17,0-3.66-1.36-3.66-3.25s1.06-3.09,3.6-3.36l3.07-.34v-.59c0-1.22-.71-1.8-1.83-1.8-1.18,0-1.83,.5-2.03,1.57h-2.6c.28-2.35,1.91-3.59,4.59-3.59s4.45,1.24,4.45,3.99Zm-2.6,2.88v-.8l-2.44,.34c-1.08,.15-1.58,.76-1.58,1.58s.63,1.51,1.71,1.51c1.5,0,2.31-1.07,2.31-2.62Z"/><path class="cls-1" d="M204.83,117.99h-2.6v-15.12h2.6v15.12Z"/><path class="cls-1" d="M209.75,117.99h-2.6v-15.12h2.6v15.12Z"/><path class="cls-1" d="M215.98,112.55c0-3.53,2.15-5.67,5.08-5.67s4.43,1.7,4.77,4.07h-2.64c-.24-1.22-.93-1.83-2.15-1.83-1.48,0-2.42,1.26-2.42,3.4s.91,3.46,2.44,3.46c1.24,0,1.87-.63,2.13-1.83h2.62c-.33,2.41-1.97,4.07-4.75,4.07-2.94,0-5.08-2.14-5.08-5.69Z"/><path class="cls-1" d="M236.38,110.87v7.12h-2.34v-1.39c-.79,1.11-1.87,1.64-3.25,1.64-2.17,0-3.66-1.36-3.66-3.25s1.06-3.09,3.6-3.36l3.07-.34v-.59c0-1.22-.71-1.8-1.83-1.8-1.18,0-1.83,.5-2.03,1.57h-2.6c.28-2.35,1.91-3.59,4.59-3.59s4.45,1.24,4.45,3.99Zm-2.6,2.88v-.8l-2.44,.34c-1.08,.15-1.58,.76-1.58,1.58s.63,1.51,1.71,1.51c1.5,0,2.31-1.07,2.31-2.62Z"/><path class="cls-1" d="M248.85,112.57c0,3.59-2.19,5.67-4.61,5.67-1.34,0-2.36-.57-3.07-1.58v5.27h-2.6v-14.8h2.34v1.76c.69-1.28,1.83-2.02,3.45-2.02,2.42,0,4.49,2.04,4.49,5.69Zm-2.64,0c0-2.08-1-3.46-2.54-3.46-1.46,0-2.5,1.41-2.5,3.46s1.04,3.44,2.5,3.44,2.54-1.34,2.54-3.44Z"/><path class="cls-1" d="M250,114.81h2.54c.22,.97,.93,1.47,2.17,1.47s1.89-.5,1.89-1.24c0-.63-.35-1.07-1.28-1.24l-2.19-.44c-2.07-.42-2.94-1.45-2.94-3.11,0-1.81,1.46-3.38,4.24-3.38s4.25,1.41,4.59,3.59h-2.56c-.16-1.09-.87-1.64-2.05-1.64s-1.77,.57-1.77,1.26c0,.59,.3,.99,1.36,1.18l2.15,.4c2.23,.4,3.03,1.51,3.03,3.19,0,1.8-1.34,3.38-4.45,3.38s-4.35-1.39-4.73-3.42Z"/><path class="cls-1" d="M274.15,110.87v7.12h-2.34v-1.39c-.79,1.11-1.87,1.64-3.25,1.64-2.17,0-3.66-1.36-3.66-3.25s1.06-3.09,3.6-3.36l3.07-.34v-.59c0-1.22-.71-1.8-1.83-1.8-1.18,0-1.83,.5-2.03,1.57h-2.6c.28-2.35,1.91-3.59,4.59-3.59s4.45,1.24,4.45,3.99Zm-2.6,2.88v-.8l-2.44,.34c-1.08,.15-1.58,.76-1.58,1.58s.63,1.51,1.71,1.51c1.5,0,2.31-1.07,2.31-2.62Z"/><path class="cls-1" d="M285.63,111.14v6.84h-2.6v-6.21c0-1.78-.79-2.58-1.99-2.58s-2.11,.88-2.11,2.58v6.21h-2.6v-10.85h2.34v1.53c.67-1.2,1.75-1.78,3.21-1.78,2.13,0,3.74,1.34,3.74,4.26Z"/><path class="cls-1" d="M297.57,102.87v15.12h-2.34v-1.83c-.65,1.37-1.79,2.08-3.35,2.08-2.42,0-4.59-2.08-4.59-5.67s2.07-5.69,4.49-5.69c1.42,0,2.5,.57,3.19,1.62v-5.63h2.6Zm-2.6,9.7c0-2.08-1.06-3.46-2.52-3.46-1.54,0-2.54,1.37-2.54,3.46s1.06,3.44,2.54,3.44,2.52-1.32,2.52-3.44Z"/><path class="cls-1" d="M303.83,110.89c0-4.39,2.56-7.41,6.62-7.41s6.62,3.02,6.62,7.41-2.58,7.39-6.62,7.39-6.62-3.02-6.62-7.39Zm10.54,0c0-3.09-1.46-5.1-3.92-5.1s-3.92,1.99-3.92,5.1,1.46,5.06,3.92,5.06,3.92-2,3.92-5.06Z"/><path class="cls-1" d="M329.15,112.57c0,3.59-2.17,5.67-4.59,5.67-1.46,0-2.58-.69-3.29-1.89v1.64h-2.38v-15.12h2.58v5.63c.69-1.05,1.77-1.62,3.19-1.62,2.42,0,4.49,2.04,4.49,5.69Zm-2.62,0c0-2.1-1-3.46-2.54-3.46-1.46,0-2.52,1.39-2.52,3.46s1.04,3.44,2.52,3.44,2.54-1.34,2.54-3.44Z"/><path class="cls-1" d="M333.52,117.99h-2.6v-15.12h2.6v15.12Z"/><path class="cls-1" d="M335.59,103.94c0-.9,.63-1.64,1.58-1.64s1.54,.74,1.54,1.64-.63,1.64-1.54,1.64-1.58-.76-1.58-1.64Zm.26,3.19h2.6v10.85h-2.6v-10.85Z"/><path class="cls-1" d="M350.5,107.13v14.87h-2.58v-5.56c-.63,1.18-1.65,1.81-3.09,1.81-2.42,0-4.59-2.08-4.59-5.67s2.07-5.69,4.49-5.69c1.58,0,2.7,.69,3.39,1.95v-1.7h2.38Zm-2.58,5.44c0-2.06-1.06-3.46-2.52-3.46-1.54,0-2.54,1.37-2.54,3.46s1.06,3.44,2.54,3.44,2.52-1.32,2.52-3.44Z"/><path class="cls-1" d="M361.79,107.13v10.85h-2.32v-1.64c-.69,1.24-1.79,1.89-3.17,1.89-2.29,0-3.6-1.41-3.6-3.99v-7.12h2.6v6.74c0,1.3,.63,2.06,1.77,2.06,1.28,0,2.13-.97,2.13-2.46v-6.34h2.6Z"/><path class="cls-1" d="M373.51,112.71c0,.34-.02,.63-.02,.63h-7.37c.18,1.97,1.16,2.79,2.54,2.79,1.12,0,1.75-.52,2.05-1.32h2.58c-.45,1.93-2.07,3.42-4.65,3.42-3.25,0-5.12-2.31-5.12-5.61s2.07-5.75,5.04-5.75c3.19,0,5,2.35,4.94,5.84Zm-2.66-1.18c-.08-1.64-.93-2.56-2.27-2.56-1.24,0-2.17,.84-2.42,2.56h4.69Z"/><path class="cls-1" d="M374.67,114.81h2.54c.22,.97,.93,1.47,2.17,1.47s1.89-.5,1.89-1.24c0-.63-.35-1.07-1.28-1.24l-2.19-.44c-2.07-.42-2.94-1.45-2.94-3.11,0-1.81,1.46-3.38,4.24-3.38s4.25,1.41,4.59,3.59h-2.56c-.16-1.09-.87-1.64-2.05-1.64s-1.77,.57-1.77,1.26c0,.59,.3,.99,1.36,1.18l2.15,.4c2.23,.4,3.03,1.51,3.03,3.19,0,1.8-1.34,3.38-4.45,3.38s-4.35-1.39-4.73-3.42Z"/><path class="cls-1" d="M388.64,116.45c0,.99-.75,1.78-1.67,1.78s-1.67-.8-1.67-1.78,.75-1.76,1.67-1.76,1.67,.8,1.67,1.76Z"/><path class="cls-1" d="M394.53,113.74h2.8c.24,1.49,1.24,2.25,3.09,2.25s2.72-.8,2.72-1.85c0-.92-.57-1.53-1.85-1.8l-3.11-.65c-2.25-.46-3.39-1.95-3.39-3.84,0-2.37,1.85-4.37,5.26-4.37s5.34,1.51,5.59,4.24h-2.82c-.22-1.37-1.12-2-2.8-2s-2.44,.82-2.44,1.83c0,.82,.47,1.38,1.71,1.64l3.13,.63c2.44,.46,3.51,1.99,3.51,3.9,0,2.52-1.81,4.51-5.5,4.51s-5.61-1.66-5.91-4.49Z"/><path class="cls-1" d="M416.67,107.13v10.85h-2.32v-1.64c-.69,1.24-1.79,1.89-3.17,1.89-2.29,0-3.6-1.41-3.6-3.99v-7.12h2.6v6.74c0,1.3,.63,2.06,1.77,2.06,1.28,0,2.13-.97,2.13-2.46v-6.34h2.6Z"/><path class="cls-1" d="M429.23,112.57c0,3.59-2.19,5.67-4.61,5.67-1.34,0-2.36-.57-3.07-1.58v5.27h-2.6v-14.8h2.34v1.76c.69-1.28,1.83-2.02,3.45-2.02,2.42,0,4.49,2.04,4.49,5.69Zm-2.64,0c0-2.08-1-3.46-2.54-3.46-1.46,0-2.5,1.41-2.5,3.46s1.04,3.44,2.5,3.44,2.54-1.34,2.54-3.44Z"/><path class="cls-1" d="M441.25,112.57c0,3.59-2.19,5.67-4.61,5.67-1.34,0-2.36-.57-3.07-1.58v5.27h-2.6v-14.8h2.34v1.76c.69-1.28,1.83-2.02,3.45-2.02,2.42,0,4.49,2.04,4.49,5.69Zm-2.64,0c0-2.08-1-3.46-2.54-3.46-1.46,0-2.5,1.41-2.5,3.46s1.04,3.44,2.5,3.44,2.54-1.34,2.54-3.44Z"/><path class="cls-1" d="M442.43,112.57c0-3.49,2.25-5.69,5.18-5.69s5.16,2.2,5.16,5.69-2.25,5.67-5.16,5.67-5.18-2.18-5.18-5.67Zm7.68,0c0-2.12-.95-3.44-2.52-3.44s-2.52,1.34-2.52,3.44,.95,3.42,2.52,3.42,2.52-1.32,2.52-3.42Z"/><path class="cls-1" d="M460.16,107.11v2.44c-.16-.02-.33-.04-.59-.04-1.6,0-2.46,.99-2.46,2.71v5.77h-2.6v-10.85h2.34v1.87c.49-1.3,1.5-1.97,2.7-1.97,.22,0,.39,.02,.61,.08Z"/><path class="cls-1" d="M465.07,109.42v4.83c0,1.03,.47,1.53,1.34,1.53,.35,0,.59-.02,.83-.08v2.25c-.51,.15-.81,.17-1.44,.17-2.3,0-3.33-1.39-3.33-3.74v-4.96h-1.6v-2.29h1.6v-3.07h2.6v3.07h2.17v2.29h-2.17Z"/><path class="cls-1" d="M468.34,114.81h2.54c.22,.97,.93,1.47,2.17,1.47s1.89-.5,1.89-1.24c0-.63-.35-1.07-1.28-1.24l-2.19-.44c-2.07-.42-2.94-1.45-2.94-3.11,0-1.81,1.46-3.38,4.24-3.38s4.25,1.41,4.59,3.59h-2.56c-.16-1.09-.87-1.64-2.05-1.64s-1.77,.57-1.77,1.26c0,.59,.3,.99,1.36,1.18l2.15,.4c2.23,.4,3.03,1.51,3.03,3.19,0,1.8-1.34,3.38-4.45,3.38s-4.35-1.39-4.73-3.42Z"/><path class="cls-1" d="M483.13,114.81h2.54c.22,.97,.93,1.47,2.17,1.47s1.89-.5,1.89-1.24c0-.63-.35-1.07-1.28-1.24l-2.19-.44c-2.07-.42-2.94-1.45-2.94-3.11,0-1.81,1.46-3.38,4.24-3.38s4.25,1.41,4.59,3.59h-2.56c-.16-1.09-.87-1.64-2.05-1.64s-1.77,.57-1.77,1.26c0,.59,.3,.99,1.36,1.18l2.15,.4c2.23,.4,3.03,1.51,3.03,3.19,0,1.8-1.34,3.38-4.45,3.38s-4.35-1.39-4.73-3.42Z"/><path class="cls-1" d="M503.48,112.71c0,.34-.02,.63-.02,.63h-7.37c.18,1.97,1.16,2.79,2.54,2.79,1.12,0,1.75-.52,2.05-1.32h2.58c-.45,1.93-2.07,3.42-4.65,3.42-3.25,0-5.12-2.31-5.12-5.61s2.07-5.75,5.04-5.75c3.19,0,5,2.35,4.94,5.84Zm-2.66-1.18c-.08-1.64-.93-2.56-2.27-2.56-1.24,0-2.17,.84-2.42,2.56h4.69Z"/><path class="cls-1" d="M514.69,107.13l-3.68,10.85h-3.01l-3.78-10.85h2.7l2.62,8.12,2.48-8.12h2.68Z"/><path class="cls-1" d="M525.42,112.71c0,.34-.02,.63-.02,.63h-7.37c.18,1.97,1.16,2.79,2.54,2.79,1.12,0,1.75-.52,2.05-1.32h2.58c-.45,1.93-2.07,3.42-4.65,3.42-3.25,0-5.12-2.31-5.12-5.61s2.07-5.75,5.04-5.75c3.19,0,5,2.35,4.94,5.84Zm-2.66-1.18c-.08-1.64-.93-2.56-2.27-2.56-1.24,0-2.17,.84-2.42,2.56h4.69Z"/><path class="cls-1" d="M532.83,107.11v2.44c-.16-.02-.33-.04-.59-.04-1.6,0-2.46,.99-2.46,2.71v5.77h-2.6v-10.85h2.34v1.87c.49-1.3,1.5-1.97,2.7-1.97,.22,0,.39,.02,.61,.08Z"/><path class="cls-1" d="M543.11,110.87v7.12h-2.34v-1.39c-.79,1.11-1.87,1.64-3.25,1.64-2.17,0-3.66-1.36-3.66-3.25s1.06-3.09,3.6-3.36l3.07-.34v-.59c0-1.22-.71-1.8-1.83-1.8-1.18,0-1.83,.5-2.03,1.57h-2.6c.28-2.35,1.91-3.59,4.59-3.59s4.45,1.24,4.45,3.99Zm-2.6,2.88v-.8l-2.44,.34c-1.08,.15-1.58,.76-1.58,1.58s.63,1.51,1.71,1.51c1.5,0,2.31-1.07,2.31-2.62Z"/><path class="cls-1" d="M547.92,117.99h-2.6v-15.12h2.6v15.12Z"/><path class="cls-1" d="M563.8,115.59v2.39h-8.83v-14.26h2.72v11.86h6.11Z"/><path class="cls-1" d="M574.08,110.87v7.12h-2.34v-1.39c-.79,1.11-1.87,1.64-3.25,1.64-2.17,0-3.66-1.36-3.66-3.25s1.06-3.09,3.6-3.36l3.07-.34v-.59c0-1.22-.71-1.8-1.83-1.8-1.18,0-1.83,.5-2.03,1.57h-2.6c.28-2.35,1.91-3.59,4.59-3.59s4.45,1.24,4.45,3.99Zm-2.6,2.88v-.8l-2.44,.34c-1.08,.15-1.58,.76-1.58,1.58s.63,1.51,1.71,1.51c1.5,0,2.31-1.07,2.31-2.62Z"/><path class="cls-1" d="M579.66,109.42v4.83c0,1.03,.47,1.53,1.34,1.53,.35,0,.59-.02,.83-.08v2.25c-.51,.15-.81,.17-1.44,.17-2.3,0-3.33-1.39-3.33-3.74v-4.96h-1.6v-2.29h1.6v-3.07h2.6v3.07h2.17v2.29h-2.17Z"/><path class="cls-1" d="M583.28,103.94c0-.9,.63-1.64,1.58-1.64s1.54,.74,1.54,1.64-.63,1.64-1.54,1.64-1.58-.76-1.58-1.64Zm.26,3.19h2.6v10.85h-2.6v-10.85Z"/><path class="cls-1" d="M597.76,111.14v6.84h-2.6v-6.21c0-1.78-.79-2.58-1.99-2.58s-2.11,.88-2.11,2.58v6.21h-2.6v-10.85h2.34v1.53c.67-1.2,1.75-1.78,3.21-1.78,2.13,0,3.74,1.34,3.74,4.26Z"/><path class="cls-1" d="M613.18,110.87v7.12h-2.34v-1.39c-.79,1.11-1.87,1.64-3.25,1.64-2.17,0-3.66-1.36-3.66-3.25s1.06-3.09,3.6-3.36l3.07-.34v-.59c0-1.22-.71-1.8-1.83-1.8-1.18,0-1.83,.5-2.03,1.57h-2.6c.28-2.35,1.91-3.59,4.59-3.59s4.45,1.24,4.45,3.99Zm-2.6,2.88v-.8l-2.44,.34c-1.08,.15-1.58,.76-1.58,1.58s.63,1.51,1.71,1.51c1.5,0,2.31-1.07,2.31-2.62Z"/><path class="cls-1" d="M617.99,117.99h-2.6v-15.12h2.6v15.12Z"/><path class="cls-1" d="M630.58,112.57c0,3.59-2.19,5.67-4.61,5.67-1.34,0-2.36-.57-3.07-1.58v5.27h-2.6v-14.8h2.34v1.76c.69-1.28,1.83-2.02,3.45-2.02,2.42,0,4.49,2.04,4.49,5.69Zm-2.64,0c0-2.08-1-3.46-2.54-3.46-1.46,0-2.5,1.41-2.5,3.46s1.04,3.44,2.5,3.44,2.54-1.34,2.54-3.44Z"/><path class="cls-1" d="M641.61,111.16v6.82h-2.6v-6.28c0-1.68-.87-2.5-2.01-2.5s-2.09,.88-2.09,2.54v6.24h-2.6v-15.12h2.6v5.71c.59-1.09,1.58-1.7,2.9-1.7,2.17,0,3.8,1.47,3.8,4.28Z"/><path class="cls-1" d="M652.56,110.87v7.12h-2.34v-1.39c-.79,1.11-1.87,1.64-3.25,1.64-2.17,0-3.66-1.36-3.66-3.25s1.06-3.09,3.6-3.36l3.07-.34v-.59c0-1.22-.71-1.8-1.83-1.8-1.18,0-1.83,.5-2.03,1.57h-2.6c.28-2.35,1.91-3.59,4.59-3.59s4.45,1.24,4.45,3.99Zm-2.6,2.88v-.8l-2.44,.34c-1.08,.15-1.58,.76-1.58,1.58s.63,1.51,1.71,1.51c1.5,0,2.31-1.07,2.31-2.62Z"/><path class="cls-1" d="M665.01,112.57c0,3.59-2.17,5.67-4.59,5.67-1.46,0-2.58-.69-3.29-1.89v1.64h-2.38v-15.12h2.58v5.63c.69-1.05,1.77-1.62,3.19-1.62,2.42,0,4.49,2.04,4.49,5.69Zm-2.62,0c0-2.1-1-3.46-2.54-3.46-1.46,0-2.52,1.39-2.52,3.46s1.04,3.44,2.52,3.44,2.54-1.34,2.54-3.44Z"/><path class="cls-1" d="M676.2,112.71c0,.34-.02,.63-.02,.63h-7.37c.18,1.97,1.16,2.79,2.54,2.79,1.12,0,1.75-.52,2.05-1.32h2.58c-.45,1.93-2.07,3.42-4.65,3.42-3.25,0-5.12-2.31-5.12-5.61s2.07-5.75,5.04-5.75c3.19,0,5,2.35,4.94,5.84Zm-2.66-1.18c-.08-1.64-.93-2.56-2.27-2.56-1.24,0-2.17,.84-2.42,2.56h4.69Z"/><path class="cls-1" d="M681.34,109.42v4.83c0,1.03,.47,1.53,1.34,1.53,.35,0,.59-.02,.83-.08v2.25c-.51,.15-.81,.17-1.44,.17-2.3,0-3.33-1.39-3.33-3.74v-4.96h-1.6v-2.29h1.6v-3.07h2.6v3.07h2.17v2.29h-2.17Z"/><path class="cls-1" d="M699.94,112.57c0,3.59-2.17,5.67-4.59,5.67-1.46,0-2.58-.69-3.29-1.89v1.64h-2.38v-15.12h2.58v5.63c.69-1.05,1.77-1.62,3.19-1.62,2.42,0,4.49,2.04,4.49,5.69Zm-2.62,0c0-2.1-1-3.46-2.54-3.46-1.46,0-2.52,1.39-2.52,3.46s1.04,3.44,2.52,3.44,2.54-1.34,2.54-3.44Z"/><path class="cls-1" d="M710.46,110.87v7.12h-2.34v-1.39c-.79,1.11-1.87,1.64-3.25,1.64-2.17,0-3.66-1.36-3.66-3.25s1.06-3.09,3.6-3.36l3.07-.34v-.59c0-1.22-.71-1.8-1.83-1.8-1.18,0-1.83,.5-2.03,1.57h-2.6c.28-2.35,1.91-3.59,4.59-3.59s4.45,1.24,4.45,3.99Zm-2.6,2.88v-.8l-2.44,.34c-1.08,.15-1.58,.76-1.58,1.58s.63,1.51,1.71,1.51c1.5,0,2.31-1.07,2.31-2.62Z"/><path class="cls-1" d="M712.05,114.81h2.54c.22,.97,.93,1.47,2.17,1.47s1.89-.5,1.89-1.24c0-.63-.35-1.07-1.28-1.24l-2.19-.44c-2.07-.42-2.94-1.45-2.94-3.11,0-1.81,1.46-3.38,4.24-3.38s4.25,1.41,4.59,3.59h-2.56c-.16-1.09-.87-1.64-2.05-1.64s-1.77,.57-1.77,1.26c0,.59,.3,.99,1.36,1.18l2.15,.4c2.23,.4,3.03,1.51,3.03,3.19,0,1.8-1.34,3.38-4.45,3.38s-4.35-1.39-4.73-3.42Z"/><path class="cls-1" d="M732.4,112.71c0,.34-.02,.63-.02,.63h-7.37c.18,1.97,1.16,2.79,2.54,2.79,1.12,0,1.75-.52,2.05-1.32h2.58c-.45,1.93-2.07,3.42-4.65,3.42-3.25,0-5.12-2.31-5.12-5.61s2.07-5.75,5.04-5.75c3.19,0,5,2.35,4.94,5.84Zm-2.66-1.18c-.08-1.64-.93-2.56-2.27-2.56-1.24,0-2.17,.84-2.42,2.56h4.69Z"/><path class="cls-1" d="M743.9,102.87v15.12h-2.34v-1.83c-.65,1.37-1.79,2.08-3.35,2.08-2.42,0-4.59-2.08-4.59-5.67s2.07-5.69,4.49-5.69c1.42,0,2.5,.57,3.19,1.62v-5.63h2.6Zm-2.6,9.7c0-2.08-1.06-3.46-2.52-3.46-1.54,0-2.54,1.37-2.54,3.46s1.06,3.44,2.54,3.44,2.52-1.32,2.52-3.44Z"/><path class="cls-1" d="M753.26,117.99h-2.6v-15.12h2.6v15.12Z"/><path class="cls-1" d="M764.33,110.87v7.12h-2.34v-1.39c-.79,1.11-1.87,1.64-3.25,1.64-2.17,0-3.66-1.36-3.66-3.25s1.06-3.09,3.6-3.36l3.07-.34v-.59c0-1.22-.71-1.8-1.83-1.8-1.18,0-1.83,.5-2.03,1.57h-2.6c.28-2.35,1.91-3.59,4.59-3.59s4.45,1.24,4.45,3.99Zm-2.6,2.88v-.8l-2.44,.34c-1.08,.15-1.58,.76-1.58,1.58s.63,1.51,1.71,1.51c1.5,0,2.31-1.07,2.31-2.62Z"/><path class="cls-1" d="M775.82,111.14v6.84h-2.6v-6.21c0-1.78-.79-2.58-1.99-2.58s-2.11,.88-2.11,2.58v6.21h-2.6v-10.85h2.34v1.53c.67-1.2,1.75-1.78,3.21-1.78,2.13,0,3.74,1.34,3.74,4.26Z"/><path class="cls-1" d="M787.73,107.13v10.31c0,2.6-1.44,4.75-5.04,4.75s-4.85-1.66-5.06-3.84h2.74c.1,1.11,.71,1.83,2.32,1.83s2.46-.9,2.46-2.62v-1.72c-.71,1.16-1.75,1.66-3.13,1.66-2.5,0-4.55-2.04-4.55-5.31s2.03-5.29,4.55-5.29c1.46,0,2.62,.65,3.33,1.85v-1.6h2.38Zm-2.58,5.04c0-1.87-1.1-3.09-2.54-3.09s-2.52,1.22-2.52,3.09,1.1,3.11,2.52,3.11,2.54-1.28,2.54-3.11Z"/><path class="cls-1" d="M799.02,107.13v10.85h-2.32v-1.64c-.69,1.24-1.79,1.89-3.17,1.89-2.29,0-3.6-1.41-3.6-3.99v-7.12h2.6v6.74c0,1.3,.63,2.06,1.77,2.06,1.28,0,2.13-.97,2.13-2.46v-6.34h2.6Z"/><path class="cls-1" d="M810.07,110.87v7.12h-2.34v-1.39c-.79,1.11-1.87,1.64-3.25,1.64-2.17,0-3.66-1.36-3.66-3.25s1.06-3.09,3.6-3.36l3.07-.34v-.59c0-1.22-.71-1.8-1.83-1.8-1.18,0-1.83,.5-2.03,1.57h-2.6c.28-2.35,1.91-3.59,4.59-3.59s4.45,1.24,4.45,3.99Zm-2.6,2.88v-.8l-2.44,.34c-1.08,.15-1.58,.76-1.58,1.58s.63,1.51,1.71,1.51c1.5,0,2.31-1.07,2.31-2.62Z"/><path class="cls-1" d="M821.99,107.13v10.31c0,2.6-1.44,4.75-5.04,4.75s-4.85-1.66-5.06-3.84h2.74c.1,1.11,.71,1.83,2.32,1.83s2.46-.9,2.46-2.62v-1.72c-.71,1.16-1.75,1.66-3.13,1.66-2.5,0-4.55-2.04-4.55-5.31s2.03-5.29,4.55-5.29c1.46,0,2.62,.65,3.33,1.85v-1.6h2.38Zm-2.58,5.04c0-1.87-1.1-3.09-2.54-3.09s-2.52,1.22-2.52,3.09,1.1,3.11,2.52,3.11,2.54-1.28,2.54-3.11Z"/><path class="cls-1" d="M833.71,112.71c0,.34-.02,.63-.02,.63h-7.37c.18,1.97,1.16,2.79,2.54,2.79,1.12,0,1.75-.52,2.05-1.32h2.58c-.45,1.93-2.07,3.42-4.65,3.42-3.25,0-5.12-2.31-5.12-5.61s2.07-5.75,5.04-5.75c3.19,0,5,2.35,4.94,5.84Zm-2.66-1.18c-.08-1.64-.93-2.56-2.27-2.56-1.24,0-2.17,.84-2.42,2.56h4.69Z"/><path class="cls-1" d="M834.87,114.81h2.54c.22,.97,.93,1.47,2.17,1.47s1.89-.5,1.89-1.24c0-.63-.35-1.07-1.28-1.24l-2.19-.44c-2.07-.42-2.94-1.45-2.94-3.11,0-1.81,1.46-3.38,4.24-3.38s4.25,1.41,4.59,3.59h-2.56c-.16-1.09-.87-1.64-2.05-1.64s-1.77,.57-1.77,1.26c0,.59,.3,.99,1.36,1.18l2.15,.4c2.23,.4,3.03,1.51,3.03,3.19,0,1.8-1.34,3.38-4.45,3.38s-4.35-1.39-4.73-3.42Z"/><path class="cls-1" d="M848.84,116.45c0,.99-.75,1.78-1.67,1.78s-1.67-.8-1.67-1.78,.75-1.76,1.67-1.76,1.67,.8,1.67,1.76Z"/></g></svg>