<svg xmlns="http://www.w3.org/2000/svg" viewBox="0 0 1366 1124"><defs><style>.cls-1{fill:#12100b;}.cls-2{fill:#fff;}.cls-3{fill:#c1d11a;}</style></defs><g id="Layer_1" data-name="Layer 1"><rect class="cls-1" width="1366" height="1124"/><path class="cls-2" d="M95.47,80.3v26.5l10.71.9v5H76.75v-5l8-.9V46.29l-7.9-.89v-5h30.47c15.91,0,28.19,6,28.19,19.51,0,14.1-12.17,20.4-30.16,20.4Zm0-34V74.4h8.32c13.72,0,20.9-4.1,20.9-14.5,0-10-9-13.61-21-13.61Z"/><path class="cls-2" d="M183.54,70l-9.25,7.2c-2.29-3.8-3.44-5.4-5.93-5.4s-4.89,3.2-9.26,9.6v25.4l8.63.9v5H140.38v-5l8-.9V74.5l-8.22-.4V71.2l15.92-10h3V74.6h.83c4.58-6.7,8.84-13.5,14.15-13.5C178.55,61.1,180.84,65.1,183.54,70Z"/><path class="cls-2" d="M215.34,107.7v5H189v-5l8-.9V74.5l-8.22-.4V71.2l15.92-10h3v45.6Zm-19.13-64A6.82,6.82,0,1,1,203,50.2,6.64,6.64,0,0,1,196.21,43.7Z"/><path class="cls-2" d="M281.59,107.7v5H255.28v-5l8-.9V82.1c0-7.3-2.19-13.1-9.15-13.1-6.24,0-10.72,4.4-14.15,9.1v28.7l7.59.9v5H221.27v-5l8-.9V74.5l-8.22-.4V71.2L237,61.2h3v10h1c4.26-5,10.19-10.1,17.79-10.1,9.36,0,15.18,7.4,15.18,17.1v28.6Z"/><path class="cls-2" d="M318,105.6c-3.22,4-10.19,8.7-16,8.7-7.07,0-11.12-3-11.33-9.9V69.2h-9.36V65.4l19.45-14.6h2.7l-2.18,11.9h15.91v6.5H301.25V99.6c0,4.4,1.87,6.3,5.61,6.3,3.33,0,6.45-2.1,8.53-3.7Z"/><path class="cls-2" d="M349.24,107.7v5H322.93v-5l8-.9V74.5l-8.22-.4V71.2l15.91-10h3v45.6Zm-19.13-64a6.82,6.82,0,1,1,6.76,6.5A6.64,6.64,0,0,1,330.11,43.7Z"/><path class="cls-2" d="M415.49,107.7v5H389.18v-5l8-.9V82.1C397.19,74.8,395,69,388,69c-6.24,0-10.71,4.4-14.14,9.1v28.7l7.59.9v5H355.17v-5l8-.9V74.5L355,74.1V71.2l15.91-10h3v10h1c4.26-5,10.19-10.1,17.78-10.1,9.36,0,15.19,7.4,15.19,17.1v28.6Z"/><path class="cls-2" d="M472.62,70.4c-3.12,0-6.55,0-10.2-.3a18.48,18.48,0,0,1,3.12,10.5c0,11.3-9.36,19.2-22,19.2a33.52,33.52,0,0,1-7.91-1c-1.77,1.5-3.74,3.3-3.74,5.1s1.77,2.9,4,2.9c7.39,0,12.69-.1,19.35-.1,10.82,0,16.33,5.3,16.33,12.4,0,11.6-16.33,17.8-33.49,17.8-9.67,0-17.16-4.3-17.16-10.9,0-4.7,3.22-8,7.07-10.3-3.64-.8-6.66-2.4-6.66-5.7,0-4.6,6.35-9.4,10.72-12.5-7-3.1-11.44-9.2-11.44-17.2,0-11.3,9.67-19.2,22.36-19.2a30.05,30.05,0,0,1,8.73,1.3,62.57,62.57,0,0,0,13.83,1.4c2.08,0,5.1-.1,7.08-.3ZM433.2,116.3c-2.08,2.1-3.43,4.2-3.43,7,0,6.1,7.59,7.7,14.66,7.7,10.19,0,19.45-2.7,19.45-8.9,0-4.6-5-6.1-12.38-6.1-6,0-9.46.4-15,.4C435.49,116.4,434.34,116.4,433.2,116.3Zm21.42-34.1c0-9.1-3.32-16.9-12.27-16.9-7.59,0-10.81,6.3-10.81,13.4,0,9,3.74,16.4,12.16,16.4C451.82,95.1,454.62,89.1,454.62,82.2Z"/><path class="cls-2" d="M550.72,106.9v4.8c-2.18.9-4,1.8-6.86,1.8-4.37,0-7.8-2-9.36-6.2h-1.25c-4.27,4-9.78,7-16.23,7-9.67,0-14.45-6.2-14.45-13.3,0-6.8,5.82-11,12.17-13.1,5.4-1.8,11.75-3.7,18.51-5.6V76.5c0-6.7-3.75-10.1-9.88-10.1-4.27,0-7.59,1.5-7.59,5.4a7.25,7.25,0,0,0,1.66,4.4l-10.82,2.2a9.83,9.83,0,0,1-1.24-5.1c0-7.3,8.83-12.2,19-12.2,12.48,0,19.65,3.9,19.65,14.7v26.9c0,2.6.73,5,3.23,5A8.17,8.17,0,0,0,550.72,106.9Zm-17.47-5.2V87.3c-4.79,1.3-9.26,2.6-12.79,3.8-5.21,1.7-7.08,5-7.08,8.7,0,5.1,4.27,7.9,9,7.9C526.8,107.7,530.54,105,533.25,101.7Z"/><path class="cls-2" d="M616.55,107.7v5H590.24v-5l8-.9V82.1c0-7.3-2.19-13.1-9.15-13.1-6.24,0-10.72,4.4-14.15,9.1v28.7l7.59.9v5H556.23v-5l8-.9V74.5L556,74.1V71.2l15.91-10h3v10h1c4.26-5,10.19-10.1,17.79-10.1,9.36,0,15.18,7.4,15.18,17.1v28.6Z"/><path class="cls-2" d="M676.91,99.5v5.9l-15.91,9h-2v-7.7h-1.15c-4,4.1-9.46,7.6-16,7.6-14.66,0-22.67-12.6-22.67-25.6,0-15.2,10.3-27.6,24.75-27.6a27.27,27.27,0,0,1,13.94,4.1V52l-8.32-1V48l20.59-11,3.44,5.51-5,3v58.4Zm-19,2.5V75.1c-3-4.3-7.8-7.5-13.31-7.5-9.88,0-14.77,8.4-14.77,18.3,0,11,5.41,20.7,16.12,20.7A17.83,17.83,0,0,0,657.88,102Z"/><path class="cls-2" d="M743.89,105.6c-3.23,4-10.2,8.7-16,8.7-7.07,0-11.13-3-11.34-9.9V69.2h-9.36V65.4l19.45-14.6h2.71l-2.19,11.9h15.91v6.5H727.14V99.6c0,4.4,1.87,6.3,5.62,6.3,3.33,0,6.45-2.1,8.53-3.7Z"/><path class="cls-2" d="M806.15,67.7l-7.59.9-16.95,39.5.1.1h-.1L770,135.4H757.58l15.08-22.5L754.15,68.5l-6.76-.8v-5h26.42v5l-7.6.9h-.1l12.79,32.5,13.52-32.5-7.9-.9v-5h21.63Z"/><path class="cls-2" d="M866.47,86.5c0,17.2-11.23,27.7-23.71,27.7a24.52,24.52,0,0,1-14.67-5.4v20.7l8.64.9v5H809.37v-5l8-.9v-55l-8.22-.4V71.2l15.92-10h3V71.4h.73c3.95-5.7,9-10.3,16.54-10.3C858.57,61.1,866.47,74.3,866.47,86.5Zm-10.61,2.6c0-11-4.26-20.2-14.14-20.2-6.24,0-10.82,4.4-13.63,8.6v24c3.75,4.1,8,6.3,13.32,6.3C851.39,107.8,855.86,99.5,855.86,89.1Z"/><path class="cls-2" d="M898.78,61.2c16.33,0,27,11.9,27,26.7,0,14.3-10,26.4-26,26.4-17.16,0-26.94-13.6-26.94-26.7C872.88,72.8,883.08,61.2,898.78,61.2ZM883.49,85.4c0,11.3,6.35,22.5,17.48,22.5,9,0,14.14-7.5,14.14-17.8,0-12.4-6.76-23.1-17.47-23.1C888.59,67,883.49,74.7,883.49,85.4Z"/><path class="cls-2" d="M984.11,70.4c-3.12,0-6.55,0-10.19-.3A18.48,18.48,0,0,1,977,80.6c0,11.3-9.36,19.2-22,19.2a33.37,33.37,0,0,1-7.9-1c-1.77,1.5-3.75,3.3-3.75,5.1s1.77,2.9,4.06,2.9c7.39,0,12.69-.1,19.35-.1,10.81,0,16.32,5.3,16.32,12.4,0,11.6-16.32,17.8-33.49,17.8-9.67,0-17.16-4.3-17.16-10.9,0-4.7,3.23-8,7.08-10.3-3.64-.8-6.66-2.4-6.66-5.7,0-4.6,6.34-9.4,10.71-12.5-7-3.1-11.44-9.2-11.44-17.2,0-11.3,9.67-19.2,22.36-19.2a30.12,30.12,0,0,1,8.74,1.3A62.51,62.51,0,0,0,977,63.8c2.08,0,5.1-.1,7.07-.3ZM944.7,116.3c-2.08,2.1-3.44,4.2-3.44,7,0,6.1,7.6,7.7,14.67,7.7,10.19,0,19.45-2.7,19.45-8.9,0-4.6-5-6.1-12.38-6.1-6,0-9.46.4-15,.4C947,116.4,945.84,116.4,944.7,116.3Zm21.42-34.1c0-9.1-3.33-16.9-12.27-16.9-7.59,0-10.82,6.3-10.82,13.4,0,9,3.75,16.4,12.17,16.4C963.31,95.1,966.12,89.1,966.12,82.2Z"/><path class="cls-2" d="M1032.3,70,1023,77.2c-2.29-3.8-3.43-5.4-5.93-5.4s-4.89,3.2-9.25,9.6v25.4l8.63.9v5H989.14v-5l8-.9V74.5l-8.21-.4V71.2l15.91-10h3V74.6h.83c4.57-6.7,8.84-13.5,14.14-13.5C1027.3,61.1,1029.59,65.1,1032.3,70Z"/><path class="cls-2" d="M1083.89,106.9v4.8c-2.18.9-4,1.8-6.86,1.8-4.37,0-7.8-2-9.36-6.2h-1.25c-4.27,4-9.78,7-16.23,7-9.67,0-14.45-6.2-14.45-13.3,0-6.8,5.82-11,12.17-13.1,5.4-1.8,11.75-3.7,18.51-5.6V76.5c0-6.7-3.75-10.1-9.88-10.1-4.27,0-7.59,1.5-7.59,5.4a7.25,7.25,0,0,0,1.66,4.4l-10.82,2.2a9.84,9.84,0,0,1-1.25-5.1c0-7.3,8.84-12.2,19-12.2,12.48,0,19.65,3.9,19.65,14.7v26.9c0,2.6.73,5,3.23,5A8.17,8.17,0,0,0,1083.89,106.9Zm-17.47-5.2V87.3c-4.79,1.3-9.26,2.6-12.8,3.8-5.2,1.7-7.07,5-7.07,8.7,0,5.1,4.27,7.9,9,7.9C1060,107.7,1063.71,105,1066.42,101.7Z"/><path class="cls-2" d="M1143,86.5c0,17.2-11.23,27.7-23.71,27.7a24.51,24.51,0,0,1-14.66-5.4v20.7l8.63.9v5h-27.35v-5l8-.9v-55l-8.21-.4V71.2l15.91-10h3V71.4h.73c3.95-5.7,9-10.3,16.53-10.3C1135.12,61.1,1143,74.3,1143,86.5Zm-10.6,2.6c0-11-4.27-20.2-14.15-20.2-6.24,0-10.81,4.4-13.62,8.6v24c3.74,4.1,8,6.3,13.31,6.3C1127.94,107.8,1132.42,99.5,1132.42,89.1Z"/><path class="cls-2" d="M1206.91,107.7v5H1180.6v-5l8-.9V81.6c0-7-2.19-12.6-9.26-12.6-5.93,0-9.88,3.7-14.14,9.4v28.4l7.59.9v5h-26.31v-5l8-.9V52l-8.32-1V48l20.6-11,3.43,5.51-5,3V71.4h1.14c4.47-5.4,10.61-10.3,18.41-10.3,9.78,0,14.56,7.5,14.56,17.2v28.5Z"/><path class="cls-2" d="M1238.56,107.7v5h-26.31v-5l8-.9V74.5l-8.21-.4V71.2l15.91-10h3v45.6Zm-19.14-64a6.82,6.82,0,1,1,6.76,6.5A6.65,6.65,0,0,1,1219.42,43.7Z"/><path class="cls-2" d="M1267.73,67c-9.57,0-15.71,8.2-15.71,18.5,0,10.5,5.93,20.7,19.14,20.7a18.19,18.19,0,0,0,14.25-6.5l3.33,1.8c-2.6,6.7-9.47,12.8-21.22,12.8-15.18,0-25.38-11.2-25.38-25.2,0-15.3,10.2-27.9,27.36-27.9,5.72,0,11,1.4,14.77,4.3a9.36,9.36,0,0,1,3.74,6.9c0,2.8-1.77,4.7-4.26,4.7a5.58,5.58,0,0,1-5.62-3.7C1276.46,69.7,1273.24,67,1267.73,67Z"/><path class="cls-2" d="M111.06,175c-9.57,0-15.7,8.2-15.7,18.5,0,10.5,5.92,20.7,19.13,20.7a18.18,18.18,0,0,0,14.25-6.5l3.33,1.8c-2.6,6.7-9.46,12.8-21.22,12.8-15.18,0-25.37-11.2-25.37-25.2,0-15.3,10.19-27.9,27.35-27.9,5.72,0,11,1.4,14.77,4.3a9.36,9.36,0,0,1,3.74,6.9c0,2.8-1.77,4.7-4.26,4.7a5.59,5.59,0,0,1-5.62-3.7C119.8,177.7,116.57,175,111.06,175Z"/><path class="cls-2" d="M162.81,169.2c16.33,0,27,11.9,27,26.7,0,14.3-10,26.4-26,26.4-17.16,0-26.94-13.6-26.94-26.7C136.91,180.8,147.11,169.2,162.81,169.2Zm-15.29,24.2c0,11.3,6.35,22.5,17.48,22.5,9,0,14.14-7.5,14.14-17.8,0-12.4-6.76-23.1-17.47-23.1C152.62,175,147.52,182.7,147.52,193.4Z"/><path class="cls-2" d="M289.3,215.7v5H263v-5l8-.9V190.1c0-7.3-2.18-13.1-10-13.1-5.72,0-10.09,4.3-13.52,8.9v28.9l7.59.9v5H228.77v-5l8-.9V190.1c0-7.3-2.19-13.1-9.16-13.1-6.24,0-10.71,4.4-14.14,9.1v28.7l7.59.9v5H194.76v-5l8-.9V182.5l-8.22-.4v-2.9l15.91-10h3v10h1c4.26-5,10.19-10.1,17.78-10.1s12.8,4.8,14.56,11.7c4.37-5.4,11.34-11.7,19.66-11.7,9.36,0,15.19,7.4,15.19,17.1v28.6Z"/><path class="cls-2" d="M389.52,215.7v5H363.21v-5l8-.9V190.1c0-7.3-2.19-13.1-10-13.1-5.72,0-10.09,4.3-13.52,8.9v28.9l7.59.9v5H329v-5l8-.9V190.1c0-7.3-2.18-13.1-9.15-13.1-6.24,0-10.71,4.4-14.15,9.1v28.7l7.6.9v5H295v-5l8-.9V182.5l-8.22-.4v-2.9l15.92-10h3v10h1c4.27-5,10.2-10.1,17.79-10.1s12.79,4.8,14.56,11.7c4.37-5.4,11.33-11.7,19.66-11.7,9.36,0,15.18,7.4,15.18,17.1v28.6Z"/><path class="cls-2" d="M451.31,206.5v5.9l-15.92,10h-2v-9h-1c-4.47,4.4-10.71,8.9-18.1,8.9-10.29,0-15.29-7-15.29-16.1V182.5l-8.11-.4v-2.9l15.91-10h3v33.2c0,7.6,2.91,12,10.82,12,4.05,0,8.21-2.4,11.64-5.6V182.5l-8.11-.4v-2.9l15.91-10h3v42Z"/><path class="cls-2" d="M515.88,215.7v5H489.57v-5l8-.9V190.1c0-7.3-2.18-13.1-9.15-13.1-6.24,0-10.71,4.4-14.14,9.1v28.7l7.59.9v5H455.56v-5l8-.9V182.5l-8.22-.4v-2.9l15.91-10h3v10h1c4.26-5,10.19-10.1,17.78-10.1,9.36,0,15.19,7.4,15.19,17.1v28.6Z"/><path class="cls-2" d="M547.53,215.7v5H521.21v-5l8-.9V182.5l-8.22-.4v-2.9l15.92-10h3v45.6Zm-19.14-64a6.82,6.82,0,1,1,6.76,6.5A6.64,6.64,0,0,1,528.39,151.7Z"/><path class="cls-2" d="M576.7,175c-9.57,0-15.71,8.2-15.71,18.5,0,10.5,5.93,20.7,19.14,20.7a18.19,18.19,0,0,0,14.25-6.5l3.33,1.8c-2.61,6.7-9.47,12.8-21.22,12.8-15.19,0-25.38-11.2-25.38-25.2,0-15.3,10.19-27.9,27.35-27.9,5.72,0,11,1.4,14.77,4.3a9.34,9.34,0,0,1,3.75,6.9c0,2.8-1.77,4.7-4.27,4.7a5.57,5.57,0,0,1-5.61-3.7C585.43,177.7,582.21,175,576.7,175Z"/><path class="cls-2" d="M651.7,214.9v4.8c-2.18.9-4,1.8-6.86,1.8-4.37,0-7.8-2-9.36-6.2h-1.25c-4.27,4-9.78,7-16.23,7-9.67,0-14.45-6.2-14.45-13.3,0-6.8,5.82-11,12.17-13.1,5.4-1.8,11.75-3.7,18.51-5.6v-5.8c0-6.7-3.75-10.1-9.88-10.1-4.27,0-7.59,1.5-7.59,5.4a7.25,7.25,0,0,0,1.66,4.4l-10.82,2.2a9.83,9.83,0,0,1-1.24-5.1c0-7.3,8.84-12.2,19-12.2,12.48,0,19.65,3.9,19.65,14.7v26.9c0,2.6.73,5,3.23,5A8.17,8.17,0,0,0,651.7,214.9Zm-17.47-5.2V195.3c-4.79,1.3-9.26,2.6-12.79,3.8-5.2,1.7-7.08,5-7.08,8.7,0,5.1,4.27,7.9,8.95,7.9C627.78,215.7,631.52,213,634.23,209.7Z"/><path class="cls-2" d="M689.13,213.6c-3.22,4-10.19,8.7-16,8.7-7.07,0-11.13-3-11.33-9.9V177.2h-9.36v-3.8l19.45-14.6h2.7l-2.19,11.9H688.3v6.5H672.38v30.4c0,4.4,1.88,6.3,5.62,6.3,3.33,0,6.45-2.1,8.53-3.7Z"/><path class="cls-2" d="M720.38,215.7v5H694.07v-5l8-.9V182.5l-8.22-.4v-2.9l15.91-10h3v45.6Zm-19.14-64a6.82,6.82,0,1,1,6.76,6.5A6.65,6.65,0,0,1,701.24,151.7Z"/><path class="cls-2" d="M749.5,169.2c16.33,0,27,11.9,27,26.7,0,14.3-10,26.4-26,26.4-17.16,0-26.94-13.6-26.94-26.7C723.6,180.8,733.79,169.2,749.5,169.2Zm-15.29,24.2c0,11.3,6.34,22.5,17.47,22.5,9.05,0,14.15-7.5,14.15-17.8,0-12.4-6.76-23.1-17.47-23.1C739.31,175,734.21,182.7,734.21,193.4Z"/><path class="cls-2" d="M841.77,215.7v5H815.46v-5l8-.9V190.1c0-7.3-2.18-13.1-9.15-13.1-6.24,0-10.71,4.4-14.14,9.1v28.7l7.59.9v5H781.45v-5l8-.9V182.5l-8.22-.4v-2.9l15.91-10h3v10h1c4.26-5,10.19-10.1,17.78-10.1,9.36,0,15.19,7.4,15.19,17.1v28.6Z"/><path class="cls-2" d="M899.28,215.7v5H873v-5l8-.9V160l-8.32-1v-3l20.6-11,3.43,5.51-5,3v61.3Z"/><path class="cls-2" d="M931.32,215.7v5H905v-5l8-.9V182.5l-8.22-.4v-2.9l15.91-10h3v45.6Zm-19.14-64a6.82,6.82,0,1,1,6.76,6.5A6.65,6.65,0,0,1,912.18,151.7Z"/><path class="cls-2" d="M981.19,210.3c-3.64,6.6-10.4,12-21,12-16,0-25.27-12-25.27-25.8,0-14.5,8.52-27.4,24.85-27.4,12.38,0,21,9.2,21.32,23H945.2c0,10.7,5.83,22.2,18.2,22.2,5.83,0,10.61-1.8,14.46-6.3Zm-35.68-23.6h23.61c-1-6.8-4.47-11.7-11.75-11.7C950.61,175,946.55,180.8,945.51,186.7Z"/><path class="cls-2" d="M1062.62,214.9v4.8c-2.19.9-3.95,1.8-6.87,1.8-4.36,0-7.8-2-9.36-6.2h-1.24c-4.27,4-9.78,7-16.23,7-9.67,0-14.46-6.2-14.46-13.3,0-6.8,5.83-11,12.17-13.1,5.41-1.8,11.76-3.7,18.52-5.6v-5.8c0-6.7-3.75-10.1-9.88-10.1-4.27,0-7.6,1.5-7.6,5.4a7.27,7.27,0,0,0,1.67,4.4l-10.82,2.2a9.75,9.75,0,0,1-1.25-5.1c0-7.3,8.84-12.2,19-12.2,12.48,0,19.65,3.9,19.65,14.7v26.9c0,2.6.73,5,3.23,5A8.24,8.24,0,0,0,1062.62,214.9Zm-17.47-5.2V195.3c-4.79,1.3-9.26,2.6-12.8,3.8-5.2,1.7-7.07,5-7.07,8.7,0,5.1,4.26,7.9,9,7.9C1038.7,215.7,1042.44,213,1045.15,209.7Z"/><path class="cls-2" d="M1100.05,213.6c-3.23,4-10.2,8.7-16,8.7-7.07,0-11.13-3-11.34-9.9V177.2h-9.36v-3.8l19.45-14.6h2.71l-2.19,11.9h15.91v6.5H1083.3v30.4c0,4.4,1.87,6.3,5.62,6.3,3.33,0,6.45-2.1,8.53-3.7Z"/><path class="cls-2" d="M1166,213.6c-3.22,4-10.19,8.7-16,8.7-7.07,0-11.12-3-11.33-9.9V177.2h-9.36v-3.8l19.45-14.6h2.7l-2.18,11.9h15.91v6.5h-15.91v30.4c0,4.4,1.87,6.3,5.61,6.3,3.33,0,6.45-2.1,8.53-3.7Z"/><path class="cls-2" d="M1231.2,215.7v5h-26.31v-5l8-.9V189.6c0-7-2.18-12.6-9.25-12.6-5.93,0-9.88,3.7-14.15,9.4v28.4l7.6.9v5h-26.32v-5l8-.9V160l-8.32-1v-3l20.59-11,3.44,5.51-5,3v25.9h1.15c4.47-5.4,10.61-10.3,18.41-10.3,9.77,0,14.56,7.5,14.56,17.2v28.5Z"/><path class="cls-2" d="M1280.11,210.3c-3.64,6.6-10.4,12-21,12-16,0-25.27-12-25.27-25.8,0-14.5,8.53-27.4,24.86-27.4,12.37,0,21,9.2,21.32,23h-35.89c0,10.7,5.83,22.2,18.21,22.2,5.82,0,10.6-1.8,14.45-6.3Zm-35.67-23.6h23.61c-1-6.8-4.48-11.7-11.76-11.7C1249.53,175,1245.48,180.8,1244.44,186.7Z"/><path class="cls-2" d="M99.62,264.79c-.21,6.21,5.62,13.91,16.64,13.91v6H103.05v38.1l9.57.9v5H84.23v-5l8-.9V284.7H83.6v-6h8.64c-1-4-3.33-7.1-3.33-11.7,0-8.21,6.76-13.91,17.26-13.91a43.73,43.73,0,0,1,13.94,2V269.7H115c-.52-6.1-2.6-11.61-8.73-11.61C102.33,258.09,99.73,260.9,99.62,264.79Z"/><path class="cls-2" d="M145.7,277.2c16.33,0,27.05,11.9,27.05,26.7,0,14.3-10,26.4-26,26.4-17.16,0-26.93-13.6-26.93-26.7C119.81,288.8,130,277.2,145.7,277.2Zm-15.28,24.2c0,11.3,6.34,22.5,17.47,22.5,9.05,0,14.14-7.5,14.14-17.8,0-12.4-6.76-23.1-17.47-23.1C135.51,283,130.42,290.7,130.42,301.4Z"/><path class="cls-2" d="M237.87,314.5v5.9L222,330.4h-2v-9h-1c-4.47,4.4-10.71,8.9-18.1,8.9-10.29,0-15.29-7-15.29-16.1V290.5l-8.11-.4v-2.9l15.92-10h3v33.2c0,7.6,2.91,12,10.82,12,4.05,0,8.21-2.4,11.65-5.6V290.5l-8.12-.4v-2.9l15.92-10h3v42Z"/><path class="cls-2" d="M302.44,323.7v5H276.13v-5l8-.9V298.1c0-7.3-2.19-13.1-9.16-13.1-6.24,0-10.71,4.4-14.14,9.1v28.7l7.59.9v5H242.12v-5l8-.9V290.5l-8.22-.4v-2.9l15.91-10h3v10h1c4.26-5,10.19-10.1,17.78-10.1,9.36,0,15.19,7.4,15.19,17.1v28.6Z"/><path class="cls-2" d="M362.8,315.5v5.9l-15.91,9h-2v-7.7h-1.14c-3.95,4.1-9.46,7.6-16,7.6-14.66,0-22.67-12.6-22.67-25.6,0-15.2,10.3-27.6,24.75-27.6a27.27,27.27,0,0,1,13.94,4.1V268l-8.32-1v-3L356,253l3.43,5.51-5,3v58.4Zm-19,2.5V291.1c-3-4.3-7.8-7.5-13.31-7.5-9.88,0-14.77,8.4-14.77,18.3,0,11,5.41,20.7,16.12,20.7A17.83,17.83,0,0,0,343.77,318Z"/><path class="cls-2" d="M416.19,322.9v4.8c-2.18.9-3.95,1.8-6.86,1.8-4.37,0-7.8-2-9.36-6.2h-1.25c-4.26,4-9.77,7-16.22,7-9.67,0-14.46-6.2-14.46-13.3,0-6.8,5.83-11,12.17-13.1,5.41-1.8,11.75-3.7,18.51-5.6v-5.8c0-6.7-3.74-10.1-9.88-10.1-4.26,0-7.59,1.5-7.59,5.4a7.25,7.25,0,0,0,1.66,4.4l-10.81,2.2a9.75,9.75,0,0,1-1.25-5.1c0-7.3,8.84-12.2,19-12.2,12.48,0,19.66,3.9,19.66,14.7v26.9c0,2.6.73,5,3.22,5A8.17,8.17,0,0,0,416.19,322.9Zm-17.47-5.2V303.3c-4.78,1.3-9.25,2.6-12.79,3.8-5.2,1.7-7.07,5-7.07,8.7,0,5.1,4.26,7.9,8.94,7.9C392.27,323.7,396,321,398.72,317.7Z"/><path class="cls-2" d="M453.62,321.6c-3.22,4-10.19,8.7-16,8.7-7.08,0-11.13-3-11.34-9.9V285.2h-9.36v-3.8l19.45-14.6h2.7l-2.18,11.9h15.91v6.5H436.88v30.4c0,4.4,1.87,6.3,5.62,6.3,3.32,0,6.44-2.1,8.52-3.7Z"/><path class="cls-2" d="M484.87,323.7v5H458.56v-5l8-.9V290.5l-8.22-.4v-2.9l15.92-10h3v45.6Zm-19.13-64a6.82,6.82,0,1,1,6.76,6.5A6.64,6.64,0,0,1,465.74,259.7Z"/><path class="cls-2" d="M514,277.2c16.33,0,27,11.9,27,26.7,0,14.3-10,26.4-26,26.4-17.16,0-26.93-13.6-26.93-26.7C488.1,288.8,498.29,277.2,514,277.2ZM498.7,301.4c0,11.3,6.35,22.5,17.48,22.5,9,0,14.14-7.5,14.14-17.8,0-12.4-6.76-23.1-17.47-23.1C503.8,283,498.7,290.7,498.7,301.4Z"/><path class="cls-2" d="M606.26,323.7v5H580v-5l8-.9V298.1c0-7.3-2.19-13.1-9.16-13.1-6.24,0-10.71,4.4-14.14,9.1v28.7l7.59.9v5H545.94v-5l8-.9V290.5l-8.22-.4v-2.9l15.91-10h3v10h1c4.26-5,10.19-10.1,17.79-10.1,9.36,0,15.18,7.4,15.18,17.1v28.6Z"/><path class="cls-2" d="M664,277.2c16.33,0,27,11.9,27,26.7,0,14.3-10,26.4-26,26.4-17.16,0-26.94-13.6-26.94-26.7C638.08,288.8,648.28,277.2,664,277.2Zm-15.29,24.2c0,11.3,6.35,22.5,17.47,22.5,9.05,0,14.15-7.5,14.15-17.8,0-12.4-6.76-23.1-17.47-23.1C653.79,283,648.69,290.7,648.69,301.4Z"/><path class="cls-2" d="M710.4,264.79C710.2,271,716,278.7,727,278.7v6h-13.2v38.1l9.56.9v5H695v-5l8-.9V284.7h-8.63v-6H703c-1-4-3.33-7.1-3.33-11.7,0-8.21,6.76-13.91,17.27-13.91a43.71,43.71,0,0,1,13.93,2V269.7H725.8c-.52-6.1-2.6-11.61-8.74-11.61C713.11,258.09,710.51,260.9,710.4,264.79Z"/><path class="cls-2" d="M809.31,322.9v4.8c-2.19.9-3.95,1.8-6.87,1.8-4.36,0-7.8-2-9.36-6.2h-1.25c-4.26,4-9.77,7-16.22,7-9.67,0-14.46-6.2-14.46-13.3,0-6.8,5.83-11,12.17-13.1,5.41-1.8,11.76-3.7,18.51-5.6v-5.8c0-6.7-3.74-10.1-9.87-10.1-4.27,0-7.6,1.5-7.6,5.4a7.27,7.27,0,0,0,1.67,4.4l-10.82,2.2a9.75,9.75,0,0,1-1.25-5.1c0-7.3,8.84-12.2,19-12.2,12.48,0,19.65,3.9,19.65,14.7v26.9c0,2.6.73,5,3.23,5A8.24,8.24,0,0,0,809.31,322.9Zm-17.48-5.2V303.3c-4.78,1.3-9.25,2.6-12.79,3.8-5.2,1.7-7.07,5-7.07,8.7,0,5.1,4.26,7.9,8.95,7.9C785.39,323.7,789.13,321,791.83,317.7Z"/><path class="cls-2" d="M901.66,323.7v5H875.35v-5l8-.9V298.1c0-7.3-2.18-13.1-9.15-13.1-6.24,0-10.71,4.4-14.14,9.1v28.7l7.59.9v5H841.34v-5l8-.9V290.5l-8.21-.4v-2.9l15.91-10h3v10h1c4.26-5,10.19-10.1,17.78-10.1,9.36,0,15.19,7.4,15.19,17.1v28.6Z"/><path class="cls-2" d="M950.58,318.3c-3.64,6.6-10.4,12-21,12-16,0-25.27-12-25.27-25.8,0-14.5,8.53-27.4,24.86-27.4,12.37,0,21,9.2,21.32,23H914.59c0,10.7,5.83,22.2,18.21,22.2,5.82,0,10.6-1.8,14.45-6.3Zm-35.67-23.6h23.61c-1-6.8-4.48-11.7-11.76-11.7C920,283,916,288.8,914.91,294.7Z"/><path class="cls-2" d="M1037,283.7l-6.55.8-16.54,44.2h-3.74L996.62,299,983,328.7h-3.75l-20.59-44.3-6.66-.7v-5h25.28v5l-7.6.9,13.84,29.9,10.19-21.8-3.64-8.1-8-.9v-5h26.31v5l-7.28.9,12.79,28.8,10.93-28.8-8-.9v-5H1037Z"/><path class="cls-2" d="M1125.16,323.7v5h-25.48v-5l6.66-.8-15.71-19.7-5.82,4.6v15l7.59.9v5h-26.31v-5l8-.9V268l-8.22-1v-3l20.59-11,3.44,5.51-5.1,3.09V301.4l21-16.8-8-.9v-5h23.71v5l-7.48.9L1098.43,297l20.29,25.9Z"/><path class="cls-2" d="M1156.21,323.7v5h-26.32v-5l8-.9V290.5l-8.22-.4v-2.9l15.92-10h3v45.6Zm-19.14-64a6.82,6.82,0,1,1,6.76,6.5A6.64,6.64,0,0,1,1137.07,259.7Z"/><path class="cls-2" d="M1222.45,323.7v5h-26.31v-5l8-.9V298.1c0-7.3-2.19-13.1-9.15-13.1-6.24,0-10.72,4.4-14.15,9.1v28.7l7.59.9v5h-26.31v-5l8-.9V290.5l-8.22-.4v-2.9l15.91-10h3v10h1c4.27-5,10.19-10.1,17.79-10.1,9.36,0,15.18,7.4,15.18,17.1v28.6Z"/><path class="cls-2" d="M1282.81,315.5v5.9l-15.91,9h-2v-7.7h-1.15c-4,4.1-9.46,7.6-16,7.6-14.66,0-22.67-12.6-22.67-25.6,0-15.2,10.3-27.6,24.75-27.6a27.27,27.27,0,0,1,13.94,4.1V268l-8.32-1v-3l20.59-11,3.44,5.51-5,3v58.4Zm-19,2.5V291.1c-3-4.3-7.8-7.5-13.31-7.5-9.88,0-14.77,8.4-14.77,18.3,0,11,5.41,20.7,16.12,20.7A17.83,17.83,0,0,0,1263.78,318Z"/><path class="cls-2" d="M260.06,385.2c16.33,0,27,11.9,27,26.7,0,14.3-10,26.4-26,26.4-17.16,0-26.94-13.6-26.94-26.7C234.16,396.8,244.36,385.2,260.06,385.2Zm-15.29,24.2c0,11.3,6.35,22.5,17.47,22.5,9.05,0,14.15-7.5,14.15-17.8,0-12.4-6.76-23.1-17.47-23.1C249.87,391,244.77,398.7,244.77,409.4Z"/><path class="cls-2" d="M306.48,372.79c-.2,6.21,5.62,13.91,16.64,13.91v6h-13.2v38.1l9.56.9v5H291.09v-5l8-.9V392.7h-8.63v-6h8.63c-1-4-3.33-7.1-3.33-11.7,0-8.21,6.76-13.91,17.27-13.91a43.71,43.71,0,0,1,13.93,2V377.7h-5.09c-.52-6.1-2.6-11.61-8.74-11.61C309.19,366.09,306.59,368.9,306.48,372.79Z"/><path class="cls-2" d="M360.35,398.6c0-9.8,8.53-13.5,17.16-13.5,6.77,0,9.78.7,16.33,2v15.5h-4.78c-1-6.9-3.85-12.4-11.86-12.4-4.78,0-7.69,2.6-7.69,6.5,0,3.6,2.6,5.7,5.92,7.4l10.72,5.4c6.76,3.4,11,7.7,11,14,0,9.2-6.34,14.8-18.41,14.8a54.93,54.93,0,0,1-18.09-3.4V419.6h4.68c.72,10.2,6,13.1,12.58,13.1,5.82,0,10-2.3,10-7,0-3.8-2.29-5.2-6.87-7.5l-10.4-5.1C364.93,410.3,360.35,405.8,360.35,398.6Z"/><path class="cls-2" d="M428.72,385.2c16.33,0,27,11.9,27,26.7,0,14.3-10,26.4-26,26.4-17.16,0-26.93-13.6-26.93-26.7C402.83,396.8,413,385.2,428.72,385.2Zm-15.29,24.2c0,11.3,6.35,22.5,17.48,22.5,9,0,14.14-7.5,14.14-17.8,0-12.4-6.76-23.1-17.47-23.1C418.53,391,413.43,398.7,413.43,409.4Z"/><path class="cls-2" d="M487.7,391c-9.57,0-15.7,8.2-15.7,18.5,0,10.5,5.92,20.7,19.13,20.7a18.18,18.18,0,0,0,14.25-6.5l3.33,1.8c-2.6,6.7-9.46,12.8-21.22,12.8-15.18,0-25.37-11.2-25.37-25.2,0-15.3,10.19-27.9,27.35-27.9,5.72,0,11,1.4,14.77,4.3a9.36,9.36,0,0,1,3.74,6.9c0,2.8-1.77,4.7-4.26,4.7a5.59,5.59,0,0,1-5.62-3.7C496.44,393.7,493.21,391,487.7,391Z"/><path class="cls-2" d="M540.91,431.7v5H514.59v-5l8-.9V398.5l-8.21-.4v-2.9l15.91-10h3v45.6Zm-19.14-64a6.82,6.82,0,1,1,6.76,6.5A6.65,6.65,0,0,1,521.77,367.7Z"/><path class="cls-2" d="M590.78,426.3c-3.65,6.6-10.4,12-21,12-16,0-25.28-12-25.28-25.8,0-14.5,8.53-27.4,24.86-27.4,12.38,0,21,9.2,21.32,23H554.79c0,10.7,5.82,22.2,18.2,22.2,5.82,0,10.61-1.8,14.46-6.3ZM555.1,402.7h23.61c-1-6.8-4.47-11.7-11.75-11.7C560.2,391,556.14,396.8,555.1,402.7Z"/><path class="cls-2" d="M631.09,429.6c-3.22,4-10.19,8.7-16,8.7-7.07,0-11.13-3-11.34-9.9V393.2h-9.36v-3.8l19.45-14.6h2.7l-2.18,11.9h15.91v6.5H614.35v30.4c0,4.4,1.87,6.3,5.62,6.3,3.32,0,6.45-2.1,8.53-3.7Z"/><path class="cls-2" d="M693.36,391.7l-7.59.9-17,39.5.11.1h-.11l-11.64,27.2H644.79l15.08-22.5-18.51-44.4-6.76-.8v-5H661v5l-7.59.9h-.1l12.79,32.5,13.52-32.5-7.9-.9v-5h21.63Z"/><path class="cls-2" d="M748.89,431.7v5H722.58v-5l8-.9V398.5l-8.22-.4v-2.9l15.91-10h3v45.6Zm-19.13-64a6.82,6.82,0,1,1,6.76,6.5A6.64,6.64,0,0,1,729.76,367.7Z"/><path class="cls-2" d="M815.14,431.7v5H788.83v-5l8-.9V406.1c0-7.3-2.19-13.1-9.16-13.1-6.24,0-10.71,4.4-14.14,9.1v28.7l7.59.9v5H754.82v-5l8-.9V398.5l-8.22-.4v-2.9l15.91-10h3v10h1c4.26-5,10.19-10.1,17.78-10.1,9.36,0,15.19,7.4,15.19,17.1v28.6Z"/><path class="cls-2" d="M926.52,391.7l-6.55.8-16.53,44.2h-3.75L886.17,407l-13.62,29.7H868.8l-20.59-44.3-6.66-.7v-5h25.28v5l-7.6.9,13.84,29.9,10.19-21.8-3.64-8.1-8-.9v-5h26.31v5l-7.28.9,12.8,28.8,10.92-28.8-8-.9v-5h20.17Z"/><path class="cls-2" d="M987,431.7v5H960.64v-5l8-.9V405.6c0-7-2.18-12.6-9.25-12.6-5.93,0-9.88,3.7-14.15,9.4v28.4l7.59.9v5H926.53v-5l8-.9V376l-8.32-1v-3l20.59-11,3.43,5.51-5,3v25.9h1.15c4.47-5.4,10.6-10.3,18.4-10.3,9.78,0,14.57,7.5,14.57,17.2v28.5Z"/><path class="cls-2" d="M1018.6,431.7v5H992.29v-5l8-.9V398.5l-8.22-.4v-2.9l15.92-10h3v45.6Zm-19.13-64a6.82,6.82,0,1,1,6.76,6.5A6.64,6.64,0,0,1,999.47,367.7Z"/><path class="cls-2" d="M1047.77,391c-9.56,0-15.7,8.2-15.7,18.5,0,10.5,5.93,20.7,19.14,20.7a18.19,18.19,0,0,0,14.25-6.5l3.32,1.8c-2.6,6.7-9.46,12.8-21.21,12.8-15.19,0-25.38-11.2-25.38-25.2,0-15.3,10.19-27.9,27.35-27.9,5.72,0,11,1.4,14.77,4.3a9.34,9.34,0,0,1,3.75,6.9c0,2.8-1.77,4.7-4.27,4.7a5.59,5.59,0,0,1-5.62-3.7C1056.51,393.7,1053.29,391,1047.77,391Z"/><path class="cls-2" d="M1133.92,431.7v5h-26.31v-5l8-.9V405.6c0-7-2.18-12.6-9.25-12.6-5.93,0-9.88,3.7-14.15,9.4v28.4l7.6.9v5h-26.32v-5l8-.9V376l-8.32-1v-3l20.59-11,3.44,5.51-5,3v25.9h1.15c4.47-5.4,10.61-10.3,18.41-10.3,9.77,0,14.56,7.5,14.56,17.2v28.5Z"/><path class="cls-2" d="M154.83,539.7v5H128.52v-5l8-.9V506.5l-8.22-.4v-2.9l15.92-10h3v45.6Zm-19.13-64a6.82,6.82,0,1,1,6.76,6.5A6.64,6.64,0,0,1,135.7,475.7Z"/><path class="cls-2" d="M221.08,539.7v5H194.77v-5l8-.9V514.1c0-7.3-2.19-13.1-9.15-13.1-6.24,0-10.72,4.4-14.15,9.1v28.7l7.59.9v5H160.76v-5l8-.9V506.5l-8.22-.4v-2.9l15.91-10h3v10h1c4.27-5,10.19-10.1,17.79-10.1,9.36,0,15.18,7.4,15.18,17.1v28.6Z"/><path class="cls-2" d="M281.44,531.5v5.9l-15.91,9h-2v-7.7h-1.15c-4,4.1-9.46,7.6-16,7.6-14.66,0-22.67-12.6-22.67-25.6,0-15.2,10.3-27.6,24.75-27.6a27.27,27.27,0,0,1,13.94,4.1V484l-8.32-1v-3l20.59-11,3.44,5.51-5,3v58.4Zm-19,2.5V507.1c-3-4.3-7.8-7.5-13.31-7.5-9.88,0-14.77,8.4-14.77,18.3,0,11,5.41,20.7,16.12,20.7A17.83,17.83,0,0,0,262.41,534Z"/><path class="cls-2" d="M332.63,534.3c-3.64,6.6-10.4,12-21,12-16,0-25.27-12-25.27-25.8,0-14.5,8.53-27.4,24.86-27.4,12.37,0,21,9.2,21.32,23H296.65c0,10.7,5.82,22.2,18.2,22.2,5.82,0,10.61-1.8,14.45-6.3ZM297,510.7h23.61c-1-6.8-4.48-11.7-11.76-11.7C302.05,499,298,504.8,297,510.7Z"/><path class="cls-2" d="M395.45,518.5c0,17.2-11.24,27.7-23.72,27.7a24.51,24.51,0,0,1-14.66-5.4v20.7l8.63.9v5H338.35v-5l8-.9v-55l-8.22-.4v-2.9l15.91-10h3v10.2h.73c3.95-5.7,9.05-10.3,16.53-10.3C387.54,493.1,395.45,506.3,395.45,518.5Zm-10.61,2.6c0-11-4.27-20.2-14.15-20.2-6.24,0-10.81,4.4-13.62,8.6v24c3.74,4.1,8,6.3,13.31,6.3C380.37,539.8,384.84,531.5,384.84,521.1Z"/><path class="cls-2" d="M448.14,534.3c-3.64,6.6-10.4,12-21,12-16,0-25.27-12-25.27-25.8,0-14.5,8.53-27.4,24.86-27.4,12.37,0,21,9.2,21.32,23H412.16c0,10.7,5.82,22.2,18.2,22.2,5.82,0,10.61-1.8,14.46-6.3Zm-35.67-23.6h23.61c-1-6.8-4.47-11.7-11.75-11.7C417.57,499,413.51,504.8,412.47,510.7Z"/><path class="cls-2" d="M514.18,539.7v5H487.87v-5l8-.9V514.1c0-7.3-2.18-13.1-9.15-13.1-6.24,0-10.72,4.4-14.15,9.1v28.7l7.59.9v5H453.86v-5l8-.9V506.5l-8.22-.4v-2.9l15.92-10h3v10h1c4.27-5,10.19-10.1,17.79-10.1,9.36,0,15.18,7.4,15.18,17.1v28.6Z"/><path class="cls-2" d="M574.54,531.5v5.9l-15.91,9h-2v-7.7h-1.15c-4,4.1-9.46,7.6-16,7.6-14.67,0-22.68-12.6-22.68-25.6,0-15.2,10.3-27.6,24.76-27.6a27.26,27.26,0,0,1,13.93,4.1V484l-8.32-1v-3l20.6-11,3.43,5.51-5,3v58.4Zm-19,2.5V507.1c-3-4.3-7.8-7.5-13.31-7.5-9.88,0-14.77,8.4-14.77,18.3,0,11,5.41,20.7,16.12,20.7A17.83,17.83,0,0,0,555.51,534Z"/><path class="cls-2" d="M625.73,534.3c-3.64,6.6-10.4,12-21,12-16,0-25.27-12-25.27-25.8,0-14.5,8.53-27.4,24.86-27.4,12.37,0,21,9.2,21.32,23H589.75c0,10.7,5.82,22.2,18.2,22.2,5.82,0,10.61-1.8,14.45-6.3Zm-35.67-23.6h23.61c-1-6.8-4.47-11.7-11.75-11.7C595.16,499,591.1,504.8,590.06,510.7Z"/><path class="cls-2" d="M691.77,539.7v5H665.46v-5l8-.9V514.1c0-7.3-2.19-13.1-9.15-13.1-6.24,0-10.72,4.4-14.15,9.1v28.7l7.59.9v5H631.45v-5l8-.9V506.5l-8.22-.4v-2.9l15.91-10h3v10h1c4.26-5,10.19-10.1,17.79-10.1,9.36,0,15.18,7.4,15.18,17.1v28.6Z"/><path class="cls-2" d="M728.17,537.6c-3.22,4-10.19,8.7-16,8.7-7.07,0-11.12-3-11.33-9.9V501.2h-9.36v-3.8l19.45-14.6h2.7l-2.18,11.9h15.91v6.5H711.43v30.4c0,4.4,1.87,6.3,5.61,6.3,3.33,0,6.45-2.1,8.53-3.7Z"/><path class="cls-2" d="M794.11,537.6c-3.23,4-10.2,8.7-16,8.7-7.07,0-11.13-3-11.34-9.9V501.2h-9.36v-3.8l19.45-14.6h2.7l-2.18,11.9h15.91v6.5H777.36v30.4c0,4.4,1.87,6.3,5.62,6.3,3.32,0,6.44-2.1,8.52-3.7Z"/><path class="cls-2" d="M859.32,539.7v5H833v-5l8-.9V513.6c0-7-2.19-12.6-9.26-12.6-5.93,0-9.88,3.7-14.14,9.4v28.4l7.59.9v5H798.9v-5l8-.9V484l-8.33-1v-3l20.6-11,3.43,5.51-5,3v25.9h1.14c4.47-5.4,10.61-10.3,18.41-10.3,9.78,0,14.56,7.5,14.56,17.2v28.5Z"/><path class="cls-2" d="M887.85,493.2c16.33,0,27,11.9,27,26.7,0,14.3-10,26.4-26,26.4-17.16,0-26.94-13.6-26.94-26.7C862,504.8,872.14,493.2,887.85,493.2Zm-15.29,24.2c0,11.3,6.35,22.5,17.47,22.5,9.05,0,14.15-7.5,14.15-17.8,0-12.4-6.76-23.1-17.47-23.1C877.66,499,872.56,506.7,872.56,517.4Z"/><path class="cls-2" d="M980,530.5v5.9l-15.91,10h-2v-9h-1c-4.48,4.4-10.72,8.9-18.1,8.9-10.3,0-15.29-7-15.29-16.1V506.5l-8.11-.4v-2.9l15.91-10h3v33.2c0,7.6,2.91,12,10.81,12,4.06,0,8.22-2.4,11.65-5.6V506.5l-8.11-.4v-2.9l15.91-10h3v42Z"/><path class="cls-2" d="M1036.05,502.4c-3.12,0-6.55,0-10.19-.3a18.56,18.56,0,0,1,3.12,10.5c0,11.3-9.36,19.2-22.05,19.2a33.52,33.52,0,0,1-7.91-1c-1.77,1.5-3.74,3.3-3.74,5.1s1.77,2.9,4.05,2.9c7.39,0,12.69-.1,19.35-.1,10.82,0,16.33,5.3,16.33,12.4,0,11.6-16.33,17.8-33.49,17.8-9.67,0-17.16-4.3-17.16-10.9,0-4.7,3.22-8,7.07-10.3-3.64-.8-6.66-2.4-6.66-5.7,0-4.6,6.35-9.4,10.72-12.5-7-3.1-11.44-9.2-11.44-17.2,0-11.3,9.67-19.2,22.36-19.2a30.05,30.05,0,0,1,8.73,1.3,62.66,62.66,0,0,0,13.84,1.4c2.08,0,5.09-.1,7.07-.3Zm-39.42,45.9c-2.08,2.1-3.43,4.2-3.43,7,0,6.1,7.59,7.7,14.66,7.7,10.2,0,19.45-2.7,19.45-8.9,0-4.6-5-6.1-12.37-6.1-6,0-9.47.4-15,.4C998.92,548.4,997.77,548.4,996.63,548.3Zm21.43-34.1c0-9.1-3.33-16.9-12.28-16.9-7.59,0-10.81,6.3-10.81,13.4,0,9,3.74,16.4,12.16,16.4C1015.25,527.1,1018.06,521.1,1018.06,514.2Z"/><path class="cls-2" d="M1100,539.7v5h-26.32v-5l8-.9V513.6c0-7-2.18-12.6-9.25-12.6-5.93,0-9.88,3.7-14.15,9.4v28.4l7.59.9v5h-26.31v-5l8-.9V484l-8.32-1v-3l20.59-11,3.43,5.51-5,3v25.9h1.15c4.47-5.4,10.6-10.3,18.4-10.3,9.78,0,14.57,7.5,14.57,17.2v28.5Z"/><path class="cls-2" d="M1136.43,537.6c-3.23,4-10.19,8.7-16,8.7-7.07,0-11.13-3-11.33-9.9V501.2h-9.37v-3.8l19.45-14.6h2.71l-2.19,11.9h15.92v6.5h-15.92v30.4c0,4.4,1.88,6.3,5.62,6.3,3.33,0,6.45-2.1,8.53-3.7Z"/><path class="cls-2" d="M1193.73,539.7v5h-26.31v-5l8-.9V506.5l-8.21-.4v-2.9l15.91-10h3v45.6Zm-19.14-64a6.82,6.82,0,1,1,6.76,6.5A6.65,6.65,0,0,1,1174.59,475.7Z"/><path class="cls-2" d="M1200.56,506.6c0-9.8,8.53-13.5,17.16-13.5,6.76,0,9.78.7,16.33,2v15.5h-4.78c-1-6.9-3.85-12.4-11.86-12.4-4.79,0-7.7,2.6-7.7,6.5,0,3.6,2.6,5.7,5.93,7.4l10.71,5.4c6.76,3.4,11,7.7,11,14,0,9.2-6.35,14.8-18.41,14.8a55,55,0,0,1-18.1-3.4V527.6h4.68c.73,10.2,6,13.1,12.59,13.1,5.82,0,10-2.3,10-7,0-3.8-2.29-5.2-6.86-7.5l-10.4-5.1C1205.14,518.3,1200.56,513.8,1200.56,506.6Z"/><path class="cls-2" d="M163.37,647.7v5H137.05v-5l8-.9V622.1c0-7.3-2.18-13.1-9.15-13.1-6.24,0-10.71,4.4-14.15,9.1v28.7l7.6.9v5H103v-5l8-.9V614.5l-8.22-.4v-2.9l15.92-10h3v10h1c4.27-5,10.2-10.1,17.79-10.1,9.36,0,15.18,7.4,15.18,17.1v28.6Z"/><path class="cls-2" d="M224.75,638.5v5.9l-15.92,10h-2v-9h-1c-4.48,4.4-10.72,8.9-18.1,8.9-10.3,0-15.29-7-15.29-16.1V614.5l-8.11-.4v-2.9l15.91-10h3v33.2c0,7.6,2.91,12,10.81,12,4.06,0,8.22-2.4,11.65-5.6V614.5l-8.11-.4v-2.9l15.91-10h3v42Z"/><path class="cls-2" d="M272.16,610l-9.26,7.2c-2.29-3.8-3.43-5.4-5.93-5.4s-4.89,3.2-9.25,9.6v25.4l8.63.9v5H229v-5l8-.9V614.5l-8.21-.4v-2.9l15.91-10h3v13.4h.83c4.57-6.7,8.84-13.5,14.14-13.5C267.17,601.1,269.45,605.1,272.16,610Z"/><path class="cls-2" d="M313.44,645.6c-3.22,4-10.19,8.7-16,8.7-7.08,0-11.13-3-11.34-9.9V609.2h-9.36v-3.8l19.45-14.6h2.7l-2.18,11.9h15.91v6.5H296.7v30.4c0,4.4,1.87,6.3,5.62,6.3,3.32,0,6.44-2.1,8.52-3.7Z"/><path class="cls-2" d="M378.14,638.5v5.9l-15.91,10h-2v-9h-1c-4.47,4.4-10.71,8.9-18.09,8.9-10.3,0-15.29-7-15.29-16.1V614.5l-8.11-.4v-2.9l15.91-10h3v33.2c0,7.6,2.92,12,10.82,12,4.06,0,8.22-2.4,11.65-5.6V614.5l-8.11-.4v-2.9l15.91-10h3v42Z"/><path class="cls-2" d="M425.55,610l-9.25,7.2c-2.29-3.8-3.43-5.4-5.93-5.4s-4.89,3.2-9.26,9.6v25.4l8.64.9v5H382.39v-5l8-.9V614.5l-8.22-.4v-2.9l15.92-10h3v13.4h.83c4.58-6.7,8.85-13.5,14.15-13.5C420.56,601.1,422.85,605.1,425.55,610Z"/><path class="cls-2" d="M474.94,642.3c-3.64,6.6-10.4,12-21,12-16,0-25.27-12-25.27-25.8,0-14.5,8.53-27.4,24.86-27.4,12.37,0,21,9.2,21.32,23H439c0,10.7,5.82,22.2,18.2,22.2,5.82,0,10.61-1.8,14.45-6.3Zm-35.67-23.6h23.61c-1-6.8-4.47-11.7-11.76-11.7C444.37,607,440.31,612.8,439.27,618.7Z"/><path class="cls-2" d="M539.09,639.5v5.9l-15.91,9h-2v-7.7h-1.14c-4,4.1-9.47,7.6-16,7.6-14.66,0-22.67-12.6-22.67-25.6,0-15.2,10.29-27.6,24.75-27.6a27.3,27.3,0,0,1,13.94,4.1V592l-8.32-1v-3l20.59-11,3.43,5.51-5,3v58.4Zm-19,2.5V615.1c-3-4.3-7.8-7.5-13.32-7.5-9.88,0-14.76,8.4-14.76,18.3,0,11,5.4,20.7,16.12,20.7A17.83,17.83,0,0,0,520.06,642Z"/><path class="cls-2" d="M618.54,646.9v4.8c-2.18.9-3.95,1.8-6.86,1.8-4.37,0-7.8-2-9.36-6.2h-1.25c-4.26,4-9.78,7-16.22,7-9.68,0-14.46-6.2-14.46-13.3,0-6.8,5.82-11,12.17-13.1,5.41-1.8,11.75-3.7,18.51-5.6v-5.8c0-6.7-3.74-10.1-9.88-10.1-4.26,0-7.59,1.5-7.59,5.4a7.25,7.25,0,0,0,1.66,4.4l-10.81,2.2a9.75,9.75,0,0,1-1.25-5.1c0-7.3,8.84-12.2,19-12.2,12.48,0,19.66,3.9,19.66,14.7v26.9c0,2.6.72,5,3.22,5A8.17,8.17,0,0,0,618.54,646.9Zm-17.47-5.2V627.3c-4.78,1.3-9.26,2.6-12.79,3.8-5.2,1.7-7.07,5-7.07,8.7,0,5.1,4.26,7.9,8.94,7.9C594.62,647.7,598.37,645,601.07,641.7Z"/><path class="cls-2" d="M684.38,647.7v5H658.06v-5l8-.9V622.1c0-7.3-2.18-13.1-9.15-13.1-6.24,0-10.71,4.4-14.15,9.1v28.7l7.6.9v5H624.05v-5l8-.9V614.5l-8.22-.4v-2.9l15.92-10h3v10h1c4.27-5,10.2-10.1,17.79-10.1,9.36,0,15.18,7.4,15.18,17.1v28.6Z"/><path class="cls-2" d="M744.74,639.5v5.9l-15.92,9h-2v-7.7H725.7c-4,4.1-9.46,7.6-16,7.6C695,654.3,687,641.7,687,628.7c0-15.2,10.3-27.6,24.76-27.6a27.26,27.26,0,0,1,13.93,4.1V592l-8.32-1v-3L738,577l3.43,5.51-5,3v58.4Zm-19,2.5V615.1c-3-4.3-7.8-7.5-13.31-7.5-9.88,0-14.77,8.4-14.77,18.3,0,11,5.41,20.7,16.12,20.7A17.83,17.83,0,0,0,725.7,642Z"/><path class="cls-2" d="M802.76,647.7v5H776.45v-5l8-.9V592l-8.32-1v-3l20.59-11,3.43,5.51-5,3v61.3Z"/><path class="cls-2" d="M855.92,646.9v4.8c-2.19.9-3.95,1.8-6.87,1.8-4.36,0-7.8-2-9.36-6.2h-1.24c-4.27,4-9.78,7-16.23,7-9.67,0-14.46-6.2-14.46-13.3,0-6.8,5.83-11,12.17-13.1,5.41-1.8,11.76-3.7,18.52-5.6v-5.8c0-6.7-3.75-10.1-9.88-10.1-4.27,0-7.6,1.5-7.6,5.4a7.27,7.27,0,0,0,1.67,4.4l-10.82,2.2a9.75,9.75,0,0,1-1.25-5.1c0-7.3,8.84-12.2,19-12.2,12.48,0,19.65,3.9,19.65,14.7v26.9c0,2.6.73,5,3.23,5A8.24,8.24,0,0,0,855.92,646.9Zm-17.47-5.2V627.3c-4.79,1.3-9.26,2.6-12.8,3.8-5.2,1.7-7.07,5-7.07,8.7,0,5.1,4.26,7.9,8.95,7.9C832,647.7,835.74,645,838.45,641.7Z"/><path class="cls-2" d="M904.59,610l-9.26,7.2c-2.29-3.8-3.43-5.4-5.92-5.4s-4.89,3.2-9.26,9.6v25.4l8.63.9v5H861.43v-5l8-.9V614.5l-8.22-.4v-2.9l15.91-10h3v13.4H881c4.58-6.7,8.84-13.5,14.14-13.5C899.6,601.1,901.89,605.1,904.59,610Z"/><path class="cls-2" d="M961.07,610.4c-3.12,0-6.55,0-10.19-.3A18.48,18.48,0,0,1,954,620.6c0,11.3-9.36,19.2-22,19.2a33.37,33.37,0,0,1-7.9-1c-1.77,1.5-3.75,3.3-3.75,5.1s1.77,2.9,4.06,2.9c7.38,0,12.69-.1,19.34-.1,10.82,0,16.33,5.3,16.33,12.4,0,11.6-16.33,17.8-33.49,17.8-9.67,0-17.16-4.3-17.16-10.9,0-4.7,3.23-8,7.07-10.3-3.64-.8-6.65-2.4-6.65-5.7,0-4.6,6.34-9.4,10.71-12.5-7-3.1-11.44-9.2-11.44-17.2,0-11.3,9.67-19.2,22.36-19.2a30.12,30.12,0,0,1,8.74,1.3A62.51,62.51,0,0,0,954,603.8c2.08,0,5.1-.1,7.07-.3Zm-39.42,45.9c-2.08,2.1-3.43,4.2-3.43,7,0,6.1,7.59,7.7,14.67,7.7,10.19,0,19.44-2.7,19.44-8.9,0-4.6-5-6.1-12.37-6.1-6,0-9.47.4-15,.4C923.94,656.4,922.8,656.4,921.65,656.3Zm21.43-34.1c0-9.1-3.33-16.9-12.27-16.9-7.6,0-10.82,6.3-10.82,13.4,0,9,3.74,16.4,12.17,16.4C940.27,635.1,943.08,629.1,943.08,622.2Z"/><path class="cls-2" d="M1010,642.3c-3.64,6.6-10.4,12-21,12-16,0-25.27-12-25.27-25.8,0-14.5,8.53-27.4,24.86-27.4,12.37,0,21,9.2,21.32,23H974c0,10.7,5.82,22.2,18.2,22.2,5.82,0,10.61-1.8,14.46-6.3Zm-35.67-23.6h23.61c-1-6.8-4.47-11.7-11.75-11.7C979.42,607,975.36,612.8,974.32,618.7Z"/><path class="cls-2" d="M1058.87,610l-9.25,7.2c-2.29-3.8-3.44-5.4-5.93-5.4s-4.89,3.2-9.26,9.6v25.4l8.63.9v5h-27.35v-5l8-.9V614.5l-8.22-.4v-2.9l15.92-10h3v13.4h.83c4.58-6.7,8.84-13.5,14.15-13.5C1053.88,601.1,1056.17,605.1,1058.87,610Z"/><path class="cls-2" d="M1138,646.9v4.8c-2.18.9-4,1.8-6.86,1.8-4.37,0-7.8-2-9.36-6.2h-1.25c-4.26,4-9.77,7-16.22,7-9.68,0-14.46-6.2-14.46-13.3,0-6.8,5.82-11,12.17-13.1,5.41-1.8,11.75-3.7,18.51-5.6v-5.8c0-6.7-3.74-10.1-9.88-10.1-4.26,0-7.59,1.5-7.59,5.4a7.25,7.25,0,0,0,1.66,4.4l-10.81,2.2a9.75,9.75,0,0,1-1.25-5.1c0-7.3,8.84-12.2,19-12.2,12.48,0,19.66,3.9,19.66,14.7v26.9c0,2.6.73,5,3.22,5A8.17,8.17,0,0,0,1138,646.9Zm-17.47-5.2V627.3c-4.78,1.3-9.25,2.6-12.79,3.8-5.2,1.7-7.07,5-7.07,8.7,0,5.1,4.26,7.9,8.94,7.9C1114.09,647.7,1117.84,645,1120.54,641.7Z"/><path class="cls-2" d="M1203.85,647.7v5h-26.32v-5l8-.9V622.1c0-7.3-2.18-13.1-9.15-13.1-6.24,0-10.71,4.4-14.14,9.1v28.7l7.59.9v5h-26.32v-5l8-.9V614.5l-8.21-.4v-2.9l15.91-10h3v10h1c4.26-5,10.19-10.1,17.78-10.1,9.36,0,15.18,7.4,15.18,17.1v28.6Z"/><path class="cls-2" d="M1264.21,639.5v5.9l-15.92,9h-2v-7.7h-1.15c-4,4.1-9.46,7.6-16,7.6-14.67,0-22.67-12.6-22.67-25.6,0-15.2,10.29-27.6,24.75-27.6a27.26,27.26,0,0,1,13.93,4.1V592l-8.32-1v-3l20.6-11,3.43,5.51-5,3v58.4Zm-19,2.5V615.1c-3-4.3-7.79-7.5-13.31-7.5-9.88,0-14.77,8.4-14.77,18.3,0,11,5.41,20.7,16.12,20.7A17.83,17.83,0,0,0,1245.17,642Z"/><path class="cls-2" d="M152.42,755.7v5H126.11v-5l8-.9V700l-8.32-1v-3l20.59-11,3.43,5.51-5,3v61.3Z"/><path class="cls-2" d="M205.58,754.9v4.8c-2.19.9-4,1.8-6.87,1.8-4.37,0-7.8-2-9.36-6.2H188.1c-4.26,4-9.77,7-16.22,7-9.67,0-14.46-6.2-14.46-13.3,0-6.8,5.83-11,12.17-13.1,5.41-1.8,11.75-3.7,18.51-5.6v-5.8c0-6.7-3.74-10.1-9.88-10.1-4.26,0-7.59,1.5-7.59,5.4a7.25,7.25,0,0,0,1.66,4.4l-10.81,2.2a9.75,9.75,0,0,1-1.25-5.1c0-7.3,8.84-12.2,19-12.2,12.48,0,19.66,3.9,19.66,14.7v26.9c0,2.6.73,5,3.22,5A8.25,8.25,0,0,0,205.58,754.9Zm-17.48-5.2V735.3c-4.78,1.3-9.25,2.6-12.79,3.8-5.2,1.7-7.07,5-7.07,8.7,0,5.1,4.26,7.9,8.94,7.9C181.65,755.7,185.4,753,188.1,749.7Z"/><path class="cls-2" d="M254.25,718,245,725.2c-2.29-3.8-3.43-5.4-5.93-5.4s-4.89,3.2-9.25,9.6v25.4l8.63.9v5H211.08v-5l8-.9V722.5l-8.21-.4v-2.9l15.91-10h3v13.4h.83c4.57-6.7,8.84-13.5,14.14-13.5C249.25,709.1,251.54,713.1,254.25,718Z"/><path class="cls-2" d="M310.73,718.4c-3.12,0-6.55,0-10.19-.3a18.56,18.56,0,0,1,3.12,10.5c0,11.3-9.36,19.2-22.05,19.2a33.52,33.52,0,0,1-7.91-1c-1.76,1.5-3.74,3.3-3.74,5.1s1.77,2.9,4.06,2.9c7.38,0,12.68-.1,19.34-.1,10.82,0,16.33,5.3,16.33,12.4,0,11.6-16.33,17.8-33.49,17.8-9.67,0-17.16-4.3-17.16-10.9,0-4.7,3.22-8,7.07-10.3-3.64-.8-6.65-2.4-6.65-5.7,0-4.6,6.34-9.4,10.71-12.5-7-3.1-11.44-9.2-11.44-17.2,0-11.3,9.67-19.2,22.36-19.2a30.05,30.05,0,0,1,8.73,1.3,62.66,62.66,0,0,0,13.84,1.4c2.08,0,5.09-.1,7.07-.3Zm-39.42,45.9c-2.08,2.1-3.43,4.2-3.43,7,0,6.1,7.59,7.7,14.66,7.7,10.2,0,19.45-2.7,19.45-8.9,0-4.6-5-6.1-12.37-6.1-6,0-9.47.4-15,.4C273.6,764.4,272.46,764.4,271.31,764.3Zm21.43-34.1c0-9.1-3.33-16.9-12.28-16.9-7.59,0-10.81,6.3-10.81,13.4,0,9,3.74,16.4,12.17,16.4C289.93,743.1,292.74,737.1,292.74,730.2Z"/><path class="cls-2" d="M359.65,750.3c-3.64,6.6-10.4,12-21,12-16,0-25.27-12-25.27-25.8,0-14.5,8.53-27.4,24.86-27.4,12.37,0,21,9.2,21.32,23H323.67c0,10.7,5.82,22.2,18.2,22.2,5.82,0,10.6-1.8,14.45-6.3ZM324,726.7h23.61c-1-6.8-4.48-11.7-11.76-11.7C329.07,715,325,720.8,324,726.7Z"/><path class="cls-2" d="M408.53,718l-9.26,7.2c-2.28-3.8-3.43-5.4-5.93-5.4s-4.88,3.2-9.25,9.6v25.4l8.63.9v5H365.37v-5l8-.9V722.5l-8.22-.4v-2.9l15.91-10h3v13.4h.83c4.58-6.7,8.84-13.5,14.15-13.5C403.54,709.1,405.83,713.1,408.53,718Z"/><path class="cls-2" d="M492.66,718.4c-3.12,0-6.55,0-10.19-.3a18.48,18.48,0,0,1,3.12,10.5c0,11.3-9.36,19.2-22,19.2a33.37,33.37,0,0,1-7.9-1c-1.77,1.5-3.75,3.3-3.75,5.1s1.77,2.9,4.06,2.9c7.38,0,12.69-.1,19.34-.1,10.82,0,16.33,5.3,16.33,12.4,0,11.6-16.33,17.8-33.49,17.8-9.67,0-17.16-4.3-17.16-10.9,0-4.7,3.23-8,7.08-10.3-3.64-.8-6.66-2.4-6.66-5.7,0-4.6,6.34-9.4,10.71-12.5-7-3.1-11.44-9.2-11.44-17.2,0-11.3,9.67-19.2,22.36-19.2a30.12,30.12,0,0,1,8.74,1.3,62.51,62.51,0,0,0,13.83,1.4c2.08,0,5.1-.1,7.07-.3Zm-39.41,45.9c-2.08,2.1-3.44,4.2-3.44,7,0,6.1,7.6,7.7,14.67,7.7,10.19,0,19.45-2.7,19.45-8.9,0-4.6-5-6.1-12.38-6.1-6,0-9.46.4-15,.4C455.53,764.4,454.39,764.4,453.25,764.3Zm21.42-34.1c0-9.1-3.33-16.9-12.27-16.9-7.59,0-10.82,6.3-10.82,13.4,0,9,3.75,16.4,12.17,16.4C471.86,743.1,474.67,737.1,474.67,730.2Z"/><path class="cls-2" d="M540.85,718l-9.26,7.2c-2.29-3.8-3.43-5.4-5.93-5.4s-4.89,3.2-9.25,9.6v25.4l8.63.9v5H497.68v-5l8-.9V722.5l-8.21-.4v-2.9l15.91-10h3v13.4h.83c4.57-6.7,8.84-13.5,14.14-13.5C535.85,709.1,538.14,713.1,540.85,718Z"/><path class="cls-2" d="M569.74,709.2c16.32,0,27,11.9,27,26.7,0,14.3-10,26.4-26,26.4-17.16,0-26.94-13.6-26.94-26.7C543.84,720.8,554,709.2,569.74,709.2Zm-15.29,24.2c0,11.3,6.34,22.5,17.47,22.5,9.05,0,14.14-7.5,14.14-17.8,0-12.4-6.76-23.1-17.47-23.1C559.54,715,554.45,722.7,554.45,733.4Z"/><path class="cls-2" d="M661.9,746.5v5.9L646,762.4h-2v-9h-1c-4.47,4.4-10.71,8.9-18.09,8.9-10.3,0-15.29-7-15.29-16.1V722.5l-8.12-.4v-2.9l15.92-10h3v33.2c0,7.6,2.92,12,10.82,12,4.06,0,8.22-2.4,11.65-5.6V722.5l-8.11-.4v-2.9l15.91-10h3v42Z"/><path class="cls-2" d="M721,734.5c0,17.2-11.23,27.7-23.71,27.7a24.54,24.54,0,0,1-14.67-5.4v20.7l8.64.9v5H663.9v-5l8-.9v-55l-8.21-.4v-2.9l15.91-10h3v10.2h.73c4-5.7,9-10.3,16.54-10.3C713.1,709.1,721,722.3,721,734.5Zm-10.61,2.6c0-11-4.26-20.2-14.14-20.2-6.24,0-10.82,4.4-13.63,8.6v24c3.75,4.1,8,6.3,13.32,6.3C705.92,755.8,710.39,747.5,710.39,737.1Z"/><path class="cls-2" d="M728.85,722.6c0-9.8,8.53-13.5,17.16-13.5,6.76,0,9.78.7,16.33,2v15.5h-4.78c-1-6.9-3.85-12.4-11.86-12.4-4.78,0-7.7,2.6-7.7,6.5,0,3.6,2.6,5.7,5.93,7.4l10.72,5.4c6.76,3.4,11,7.7,11,14,0,9.2-6.34,14.8-18.41,14.8a55,55,0,0,1-18.1-3.4V743.6h4.68c.73,10.2,6,13.1,12.59,13.1,5.82,0,10-2.3,10-7,0-3.8-2.29-5.2-6.86-7.5l-10.4-5.1C733.43,734.3,728.85,729.8,728.85,722.6Z"/><path class="cls-2" d="M846.48,754.9v4.8c-2.19.9-4,1.8-6.87,1.8-4.37,0-7.8-2-9.36-6.2H829c-4.26,4-9.77,7-16.22,7-9.67,0-14.46-6.2-14.46-13.3,0-6.8,5.83-11,12.17-13.1,5.41-1.8,11.75-3.7,18.51-5.6v-5.8c0-6.7-3.74-10.1-9.88-10.1-4.26,0-7.59,1.5-7.59,5.4a7.25,7.25,0,0,0,1.66,4.4l-10.81,2.2a9.75,9.75,0,0,1-1.25-5.1c0-7.3,8.84-12.2,19-12.2,12.48,0,19.66,3.9,19.66,14.7v26.9c0,2.6.73,5,3.22,5A8.25,8.25,0,0,0,846.48,754.9ZM829,749.7V735.3c-4.78,1.3-9.25,2.6-12.79,3.8-5.2,1.7-7.07,5-7.07,8.7,0,5.1,4.26,7.9,8.94,7.9C822.55,755.7,826.3,753,829,749.7Z"/><path class="cls-2" d="M895.15,718l-9.26,7.2c-2.29-3.8-3.43-5.4-5.93-5.4s-4.89,3.2-9.25,9.6v25.4l8.63.9v5H852v-5l8-.9V722.5l-8.21-.4v-2.9l15.91-10h3v13.4h.83c4.57-6.7,8.84-13.5,14.14-13.5C890.16,709.1,892.44,713.1,895.15,718Z"/><path class="cls-2" d="M944.54,750.3c-3.64,6.6-10.4,12-21,12-16,0-25.28-12-25.28-25.8,0-14.5,8.53-27.4,24.86-27.4,12.38,0,21,9.2,21.32,23H908.55c0,10.7,5.83,22.2,18.2,22.2,5.83,0,10.61-1.8,14.46-6.3Zm-35.68-23.6h23.61c-1-6.8-4.47-11.7-11.75-11.7C914,715,909.9,720.8,908.86,726.7Z"/><path class="cls-2" d="M1034.08,734c0,14.7-10,28.3-26,28.3-7.8,0-14.56-1.1-22.88-2.6V700l-8.32-1v-3l20.59-11,3.43,5.51-5,3v26.7h.83c3.12-5.7,8.84-11.1,16.54-11.1C1027.11,709.1,1034.08,722,1034.08,734Zm-10.82,2.5c0-9.7-4.26-19.7-13.41-19.7-6.24,0-10.82,4.3-13.94,10.8v23a17.52,17.52,0,0,0,13.31,6.1C1018.89,756.7,1023.26,747.2,1023.26,736.5Z"/><path class="cls-2" d="M1086.78,750.3c-3.65,6.6-10.4,12-21,12-16,0-25.28-12-25.28-25.8,0-14.5,8.53-27.4,24.86-27.4,12.38,0,21,9.2,21.32,23h-35.88c0,10.7,5.82,22.2,18.2,22.2,5.82,0,10.61-1.8,14.46-6.3Zm-35.68-23.6h23.61c-1-6.8-4.47-11.7-11.75-11.7C1056.2,715,1052.14,720.8,1051.1,726.7Z"/><path class="cls-2" d="M1118.81,755.7v5h-26.32v-5l8-.9V722.5l-8.21-.4v-2.9l15.91-10h3v45.6Zm-19.14-64a6.82,6.82,0,1,1,6.76,6.5A6.65,6.65,0,0,1,1099.67,691.7Z"/><path class="cls-2" d="M1185.05,755.7v5h-26.31v-5l8-.9V730.1c0-7.3-2.18-13.1-9.15-13.1-6.24,0-10.72,4.4-14.15,9.1v28.7l7.59.9v5h-26.31v-5l8-.9V722.5l-8.22-.4v-2.9l15.92-10h3v10h1c4.27-5,10.19-10.1,17.79-10.1,9.36,0,15.18,7.4,15.18,17.1v28.6Z"/><path class="cls-2" d="M1242.18,718.4c-3.12,0-6.55,0-10.19-.3a18.56,18.56,0,0,1,3.12,10.5c0,11.3-9.36,19.2-22,19.2a33.37,33.37,0,0,1-7.9-1c-1.77,1.5-3.75,3.3-3.75,5.1s1.77,2.9,4.06,2.9c7.38,0,12.69-.1,19.34-.1,10.82,0,16.33,5.3,16.33,12.4,0,11.6-16.33,17.8-33.49,17.8-9.67,0-17.16-4.3-17.16-10.9,0-4.7,3.22-8,7.07-10.3-3.64-.8-6.65-2.4-6.65-5.7,0-4.6,6.34-9.4,10.71-12.5-7-3.1-11.44-9.2-11.44-17.2,0-11.3,9.67-19.2,22.36-19.2a30.12,30.12,0,0,1,8.74,1.3,62.51,62.51,0,0,0,13.83,1.4c2.08,0,5.1-.1,7.07-.3Zm-39.42,45.9c-2.08,2.1-3.43,4.2-3.43,7,0,6.1,7.59,7.7,14.67,7.7,10.19,0,19.44-2.7,19.44-8.9,0-4.6-5-6.1-12.37-6.1-6,0-9.47.4-15,.4C1205.05,764.4,1203.91,764.4,1202.76,764.3Zm21.43-34.1c0-9.1-3.33-16.9-12.27-16.9-7.6,0-10.82,6.3-10.82,13.4,0,9,3.74,16.4,12.17,16.4C1221.38,743.1,1224.19,737.1,1224.19,730.2Z"/><path class="cls-2" d="M147.58,826.4c-3.12,0-6.55,0-10.19-.3a18.56,18.56,0,0,1,3.12,10.5c0,11.3-9.36,19.2-22,19.2a33.52,33.52,0,0,1-7.91-1c-1.76,1.5-3.74,3.3-3.74,5.1s1.77,2.9,4.06,2.9c7.38,0,12.69-.1,19.34-.1,10.82,0,16.33,5.3,16.33,12.4,0,11.6-16.33,17.8-33.49,17.8-9.67,0-17.16-4.3-17.16-10.9,0-4.7,3.22-8,7.07-10.3-3.64-.8-6.65-2.4-6.65-5.7,0-4.6,6.34-9.4,10.71-12.5-7-3.1-11.44-9.2-11.44-17.2,0-11.3,9.67-19.2,22.36-19.2a30.12,30.12,0,0,1,8.74,1.3,62.51,62.51,0,0,0,13.83,1.4c2.08,0,5.09-.1,7.07-.3Zm-39.42,45.9c-2.08,2.1-3.43,4.2-3.43,7,0,6.1,7.59,7.7,14.67,7.7,10.19,0,19.44-2.7,19.44-8.9,0-4.6-5-6.1-12.37-6.1-6,0-9.47.4-15,.4C110.45,872.4,109.31,872.4,108.16,872.3Zm21.43-34.1c0-9.1-3.33-16.9-12.27-16.9-7.6,0-10.82,6.3-10.82,13.4,0,9,3.74,16.4,12.17,16.4C126.78,851.1,129.59,845.1,129.59,838.2Z"/><path class="cls-2" d="M178.92,863.7v5H152.6v-5l8-.9V830.5l-8.22-.4v-2.9l15.92-10h3v45.6Zm-19.14-64a6.82,6.82,0,1,1,6.76,6.5A6.64,6.64,0,0,1,159.78,799.7Z"/><path class="cls-2" d="M236,823.7l-7.49.9-16.74,44.1h-7.91l-18-44.2-7.18-.8v-5h25.69v5l-6.86.8,13,33.3,12.06-33.3-7.48-.8v-5H236Z"/><path class="cls-2" d="M283.38,858.3c-3.64,6.6-10.4,12-21,12-16,0-25.27-12-25.27-25.8,0-14.5,8.53-27.4,24.86-27.4,12.37,0,21,9.2,21.32,23H247.4c0,10.7,5.82,22.2,18.2,22.2,5.82,0,10.61-1.8,14.45-6.3Zm-35.67-23.6h23.61c-1-6.8-4.48-11.7-11.76-11.7C252.8,823,248.75,828.8,247.71,834.7Z"/><path class="cls-2" d="M349.42,863.7v5H323.11v-5l8-.9V838.1c0-7.3-2.19-13.1-9.16-13.1-6.24,0-10.71,4.4-14.14,9.1v28.7l7.59.9v5H289.1v-5l8-.9V830.5l-8.22-.4v-2.9l15.91-10h3v10h1c4.26-5,10.19-10.1,17.78-10.1,9.36,0,15.19,7.4,15.19,17.1v28.6Z"/><path class="cls-2" d="M415.88,861.6c-3.23,4-10.2,8.7-16,8.7-7.07,0-11.13-3-11.34-9.9V825.2h-9.36v-3.8l19.45-14.6h2.71l-2.19,11.9H415v6.5H399.13v30.4c0,4.4,1.87,6.3,5.62,6.3,3.33,0,6.45-2.1,8.53-3.7Z"/><path class="cls-2" d="M481.09,863.7v5H454.78v-5l8-.9V837.6c0-7-2.18-12.6-9.26-12.6-5.93,0-9.88,3.7-14.14,9.4v28.4l7.59.9v5H420.67v-5l8-.9V808l-8.32-1v-3L441,793l3.43,5.51-5,3v25.9h1.14c4.47-5.4,10.61-10.3,18.41-10.3,9.78,0,14.56,7.5,14.56,17.2v28.5Z"/><path class="cls-2" d="M530,858.3c-3.64,6.6-10.4,12-21,12-16,0-25.28-12-25.28-25.8,0-14.5,8.53-27.4,24.86-27.4,12.38,0,21,9.2,21.32,23H494c0,10.7,5.82,22.2,18.2,22.2,5.82,0,10.61-1.8,14.46-6.3Zm-35.67-23.6h23.61c-1-6.8-4.47-11.7-11.75-11.7C499.43,823,495.37,828.8,494.33,834.7Z"/><path class="cls-2" d="M590.22,817.2c16.33,0,27,11.9,27,26.7,0,14.3-10,26.4-26,26.4-17.16,0-26.94-13.6-26.94-26.7C564.32,828.8,574.51,817.2,590.22,817.2Zm-15.29,24.2c0,11.3,6.34,22.5,17.47,22.5,9.05,0,14.15-7.5,14.15-17.8,0-12.4-6.76-23.1-17.48-23.1C580,823,574.93,830.7,574.93,841.4Z"/><path class="cls-2" d="M679.26,842.5c0,17.2-11.23,27.7-23.71,27.7a24.49,24.49,0,0,1-14.66-5.4v20.7l8.63.9v5H622.17v-5l8-.9v-55l-8.21-.4v-2.9l15.91-10h3v10.2h.72c4-5.7,9-10.3,16.54-10.3C671.36,817.1,679.26,830.3,679.26,842.5Zm-10.6,2.6c0-11-4.27-20.2-14.15-20.2-6.24,0-10.82,4.4-13.62,8.6v24c3.74,4.1,8,6.3,13.31,6.3C664.18,863.8,668.66,855.5,668.66,845.1Z"/><path class="cls-2" d="M741.66,842.5c0,17.2-11.23,27.7-23.71,27.7a24.49,24.49,0,0,1-14.66-5.4v20.7l8.63.9v5H684.57v-5l8-.9v-55l-8.21-.4v-2.9l15.91-10h3v10.2H704c4-5.7,9-10.3,16.54-10.3C733.76,817.1,741.66,830.3,741.66,842.5Zm-10.61,2.6c0-11-4.26-20.2-14.14-20.2-6.24,0-10.82,4.4-13.62,8.6v24c3.74,4.1,8,6.3,13.31,6.3C726.58,863.8,731.05,855.5,731.05,845.1Z"/><path class="cls-2" d="M774,817.2c16.33,0,27,11.9,27,26.7,0,14.3-10,26.4-26,26.4-17.16,0-26.93-13.6-26.93-26.7C748.08,828.8,758.27,817.2,774,817.2Zm-15.28,24.2c0,11.3,6.34,22.5,17.47,22.5,9.05,0,14.14-7.5,14.14-17.8,0-12.4-6.76-23.1-17.47-23.1C763.78,823,758.69,830.7,758.69,841.4Z"/><path class="cls-2" d="M849.08,826l-9.25,7.2c-2.29-3.8-3.44-5.4-5.93-5.4s-4.89,3.2-9.26,9.6v25.4l8.63.9v5H805.92v-5l8-.9V830.5l-8.22-.4v-2.9l15.92-10h3v13.4h.83c4.58-6.7,8.84-13.5,14.15-13.5C844.09,817.1,846.38,821.1,849.08,826Z"/><path class="cls-2" d="M890.37,861.6c-3.22,4-10.19,8.7-16,8.7-7.07,0-11.13-3-11.33-9.9V825.2h-9.36v-3.8l19.45-14.6h2.7l-2.19,11.9h15.92v6.5H873.62v30.4c0,4.4,1.88,6.3,5.62,6.3,3.33,0,6.45-2.1,8.53-3.7Z"/><path class="cls-2" d="M955.07,854.5v5.9l-15.91,10h-2v-9h-1c-4.47,4.4-10.71,8.9-18.1,8.9-10.29,0-15.29-7-15.29-16.1V830.5l-8.11-.4v-2.9l15.91-10h3v33.2c0,7.6,2.91,12,10.82,12,4.05,0,8.21-2.4,11.65-5.6V830.5l-8.12-.4v-2.9l15.92-10h3v42Z"/><path class="cls-2" d="M1019.64,863.7v5H993.33v-5l8-.9V838.1c0-7.3-2.19-13.1-9.16-13.1-6.24,0-10.71,4.4-14.14,9.1v28.7l7.59.9v5H959.32v-5l8-.9V830.5l-8.22-.4v-2.9l15.91-10h3v10h1c4.26-5,10.19-10.1,17.78-10.1,9.36,0,15.19,7.4,15.19,17.1v28.6Z"/><path class="cls-2" d="M1051.29,863.7v5H1025v-5l8-.9V830.5l-8.22-.4v-2.9l15.92-10h3v45.6Zm-19.14-64a6.82,6.82,0,1,1,6.76,6.5A6.65,6.65,0,0,1,1032.15,799.7Z"/><path class="cls-2" d="M1088.89,861.6c-3.22,4-10.19,8.7-16,8.7-7.08,0-11.13-3-11.34-9.9V825.2h-9.36v-3.8l19.45-14.6h2.7l-2.18,11.9h15.91v6.5h-15.91v30.4c0,4.4,1.87,6.3,5.61,6.3,3.33,0,6.45-2.1,8.53-3.7Z"/><path class="cls-2" d="M1151.16,823.7l-7.6.9-17,39.5.11.1h-.11L1115,891.4h-12.37l15.08-22.5-18.52-44.4-6.76-.8v-5h26.42v5l-7.59.9h-.1l12.79,32.5,13.52-32.5-7.91-.9v-5h21.64Z"/><path class="cls-2" d="M1215.32,861.6c-3.22,4-10.19,8.7-16,8.7-7.07,0-11.12-3-11.33-9.9V825.2h-9.36v-3.8l19.45-14.6h2.7l-2.18,11.9h15.91v6.5h-15.91v30.4c0,4.4,1.87,6.3,5.61,6.3,3.33,0,6.45-2.1,8.53-3.7Z"/><path class="cls-2" d="M1243.48,817.2c16.33,0,27,11.9,27,26.7,0,14.3-10,26.4-26,26.4-17.16,0-26.93-13.6-26.93-26.7C1217.59,828.8,1227.78,817.2,1243.48,817.2Zm-15.28,24.2c0,11.3,6.34,22.5,17.47,22.5,9,0,14.14-7.5,14.14-17.8,0-12.4-6.76-23.1-17.47-23.1C1233.29,823,1228.2,830.7,1228.2,841.4Z"/><path class="cls-2" d="M132.43,950.5c0,17.2-11.23,27.7-23.71,27.7a24.52,24.52,0,0,1-14.67-5.4v20.7l8.64.9v5H75.33v-5l8-.9v-55l-8.22-.4v-2.9L91,925.2h3v10.2h.73c4-5.7,9-10.3,16.54-10.3C124.53,925.1,132.43,938.3,132.43,950.5Zm-10.61,2.6c0-11-4.26-20.2-14.14-20.2-6.24,0-10.82,4.4-13.63,8.6v24c3.75,4.1,8,6.3,13.32,6.3C117.35,971.8,121.82,963.5,121.82,953.1Z"/><path class="cls-2" d="M185.69,970.9v4.8c-2.19.9-3.95,1.8-6.86,1.8-4.37,0-7.81-2-9.37-6.2h-1.24c-4.27,4-9.78,7-16.23,7-9.67,0-14.45-6.2-14.45-13.3,0-6.8,5.82-11,12.16-13.1,5.41-1.8,11.76-3.7,18.52-5.6v-5.8c0-6.7-3.75-10.1-9.88-10.1-4.27,0-7.6,1.5-7.6,5.4a7.27,7.27,0,0,0,1.67,4.4l-10.82,2.2a9.84,9.84,0,0,1-1.25-5.1c0-7.3,8.84-12.2,19-12.2,12.48,0,19.65,3.9,19.65,14.7v26.9c0,2.6.73,5,3.23,5A8.24,8.24,0,0,0,185.69,970.9Zm-17.47-5.2V951.3c-4.79,1.3-9.26,2.6-12.8,3.8-5.2,1.7-7.07,5-7.07,8.7,0,5.1,4.27,7.9,9,7.9C161.77,971.7,165.51,969,168.22,965.7Z"/><path class="cls-2" d="M234.36,934l-9.26,7.2c-2.28-3.8-3.43-5.4-5.92-5.4s-4.89,3.2-9.26,9.6v25.4l8.63.9v5H191.2v-5l8-.9V938.5l-8.22-.4v-2.9l15.91-10h3v13.4h.83c4.58-6.7,8.84-13.5,14.15-13.5C229.37,925.1,231.66,929.1,234.36,934Z"/><path class="cls-2" d="M275.65,969.6c-3.23,4-10.19,8.7-16,8.7-7.07,0-11.13-3-11.34-9.9V933.2h-9.36v-3.8l19.45-14.6h2.71l-2.19,11.9h15.92v6.5H258.9v30.4c0,4.4,1.87,6.3,5.62,6.3,3.33,0,6.45-2.1,8.53-3.7Z"/><path class="cls-2" d="M306.9,971.7v5H280.58v-5l8-.9V938.5l-8.21-.4v-2.9l15.91-10h3v45.6Zm-19.14-64a6.82,6.82,0,1,1,6.76,6.5A6.65,6.65,0,0,1,287.76,907.7Z"/><path class="cls-2" d="M336.07,931c-9.57,0-15.71,8.2-15.71,18.5,0,10.5,5.93,20.7,19.14,20.7a18.19,18.19,0,0,0,14.25-6.5l3.33,1.8c-2.6,6.7-9.47,12.8-21.22,12.8-15.18,0-25.38-11.2-25.38-25.2,0-15.3,10.2-27.9,27.36-27.9,5.72,0,11,1.4,14.77,4.3a9.36,9.36,0,0,1,3.74,6.9c0,2.8-1.77,4.7-4.27,4.7a5.58,5.58,0,0,1-5.61-3.7C344.8,933.7,341.58,931,336.07,931Z"/><path class="cls-2" d="M389.27,971.7v5H363v-5l8-.9V938.5l-8.22-.4v-2.9l15.92-10h3v45.6Zm-19.13-64a6.82,6.82,0,1,1,6.76,6.5A6.64,6.64,0,0,1,370.14,907.7Z"/><path class="cls-2" d="M448.83,950.5c0,17.2-11.24,27.7-23.72,27.7a24.51,24.51,0,0,1-14.66-5.4v20.7l8.63.9v5H391.73v-5l8-.9v-55l-8.22-.4v-2.9l15.91-10h3v10.2h.73c3.95-5.7,9-10.3,16.53-10.3C440.92,925.1,448.83,938.3,448.83,950.5Zm-10.61,2.6c0-11-4.27-20.2-14.15-20.2-6.24,0-10.81,4.4-13.62,8.6v24c3.74,4.1,8,6.3,13.31,6.3C433.74,971.8,438.22,963.5,438.22,953.1Z"/><path class="cls-2" d="M502.08,970.9v4.8c-2.18.9-3.95,1.8-6.86,1.8-4.37,0-7.8-2-9.36-6.2h-1.25c-4.26,4-9.78,7-16.22,7-9.68,0-14.46-6.2-14.46-13.3,0-6.8,5.82-11,12.17-13.1,5.41-1.8,11.75-3.7,18.51-5.6v-5.8c0-6.7-3.74-10.1-9.88-10.1-4.26,0-7.59,1.5-7.59,5.4a7.25,7.25,0,0,0,1.66,4.4L458,942.4a9.75,9.75,0,0,1-1.25-5.1c0-7.3,8.84-12.2,19-12.2,12.48,0,19.66,3.9,19.66,14.7v26.9c0,2.6.72,5,3.22,5A8.17,8.17,0,0,0,502.08,970.9Zm-17.47-5.2V951.3c-4.78,1.3-9.26,2.6-12.79,3.8-5.2,1.7-7.07,5-7.07,8.7,0,5.1,4.26,7.9,8.94,7.9C478.16,971.7,481.91,969,484.61,965.7Z"/><path class="cls-2" d="M539.51,969.6c-3.22,4-10.19,8.7-16,8.7-7.08,0-11.13-3-11.34-9.9V933.2H502.8v-3.8l19.45-14.6H525l-2.18,11.9h15.91v6.5H522.77v30.4c0,4.4,1.87,6.3,5.61,6.3,3.33,0,6.45-2.1,8.53-3.7Z"/><path class="cls-2" d="M588.46,966.3c-3.64,6.6-10.4,12-21,12-16,0-25.28-12-25.28-25.8,0-14.5,8.53-27.4,24.86-27.4,12.38,0,21,9.2,21.32,23H552.48c0,10.7,5.82,22.2,18.2,22.2,5.82,0,10.61-1.8,14.46-6.3Zm-35.67-23.6H576.4c-1-6.8-4.47-11.7-11.75-11.7C557.89,931,553.83,936.8,552.79,942.7Z"/><path class="cls-2" d="M669.89,970.9v4.8c-2.18.9-3.95,1.8-6.86,1.8-4.37,0-7.8-2-9.36-6.2h-1.25c-4.26,4-9.77,7-16.22,7-9.68,0-14.46-6.2-14.46-13.3,0-6.8,5.82-11,12.17-13.1,5.41-1.8,11.75-3.7,18.51-5.6v-5.8c0-6.7-3.74-10.1-9.88-10.1-4.26,0-7.59,1.5-7.59,5.4a7.25,7.25,0,0,0,1.66,4.4l-10.81,2.2a9.75,9.75,0,0,1-1.25-5.1c0-7.3,8.84-12.2,19-12.2,12.48,0,19.66,3.9,19.66,14.7v26.9c0,2.6.73,5,3.22,5A8.17,8.17,0,0,0,669.89,970.9Zm-17.47-5.2V951.3c-4.78,1.3-9.25,2.6-12.79,3.8-5.2,1.7-7.07,5-7.07,8.7,0,5.1,4.26,7.9,8.94,7.9C646,971.7,649.72,969,652.42,965.7Z"/><path class="cls-2" d="M698.66,931c-9.57,0-15.7,8.2-15.7,18.5,0,10.5,5.92,20.7,19.13,20.7a18.19,18.19,0,0,0,14.25-6.5l3.33,1.8c-2.6,6.7-9.47,12.8-21.22,12.8-15.18,0-25.38-11.2-25.38-25.2,0-15.3,10.2-27.9,27.36-27.9,5.72,0,11,1.4,14.77,4.3a9.36,9.36,0,0,1,3.74,6.9c0,2.8-1.77,4.7-4.26,4.7a5.58,5.58,0,0,1-5.62-3.7C707.4,933.7,704.17,931,698.66,931Z"/><path class="cls-2" d="M761.25,969.6c-3.23,4-10.2,8.7-16,8.7-7.07,0-11.13-3-11.34-9.9V933.2h-9.36v-3.8L744,914.8h2.71l-2.19,11.9h15.92v6.5H744.5v30.4c0,4.4,1.87,6.3,5.62,6.3,3.33,0,6.45-2.1,8.53-3.7Z"/><path class="cls-2" d="M792.5,971.7v5H766.18v-5l8-.9V938.5l-8.21-.4v-2.9l15.91-10h3v45.6Zm-19.14-64a6.82,6.82,0,1,1,6.76,6.5A6.65,6.65,0,0,1,773.36,907.7Z"/><path class="cls-2" d="M849.58,931.7l-7.49.9-16.74,44.1h-7.9l-18-44.2-7.17-.8v-5H818v5l-6.87.8,13,33.3,12.07-33.3-7.49-.8v-5h20.9Z"/><path class="cls-2" d="M897,966.3c-3.64,6.6-10.4,12-21,12-16,0-25.28-12-25.28-25.8,0-14.5,8.53-27.4,24.86-27.4,12.38,0,21,9.2,21.32,23H861c0,10.7,5.82,22.2,18.2,22.2,5.82,0,10.61-1.8,14.46-6.3Zm-35.67-23.6H884.9c-1-6.8-4.47-11.7-11.75-11.7C866.39,931,862.33,936.8,861.29,942.7Z"/><path class="cls-2" d="M928.29,971.7v5H902v-5l8-.9V916l-8.32-1v-3l20.6-11,3.43,5.51-5,3v61.3Z"/><path class="cls-2" d="M987.58,931.7l-7.59.9-17,39.5.11.1H963l-11.64,27.2H939l15.08-22.5-18.51-44.4-6.76-.8v-5h26.41v5l-7.59.9h-.1l12.79,32.5,13.52-32.5-7.9-.9v-5h21.63Z"/><path class="cls-2" d="M1043.11,971.7v5H1016.8v-5l8-.9V938.5l-8.22-.4v-2.9l15.91-10h3v45.6Zm-19.13-64a6.82,6.82,0,1,1,6.76,6.5A6.64,6.64,0,0,1,1024,907.7Z"/><path class="cls-2" d="M1109.36,971.7v5h-26.31v-5l8-.9V946.1c0-7.3-2.19-13.1-9.16-13.1-6.24,0-10.71,4.4-14.14,9.1v28.7l7.59.9v5H1049v-5l8-.9V938.5l-8.22-.4v-2.9l15.91-10h3v10h1c4.26-5,10.19-10.1,17.78-10.1,9.36,0,15.19,7.4,15.19,17.1v28.6Z"/><path class="cls-2" d="M1175.81,969.6c-3.22,4-10.19,8.7-16,8.7-7.07,0-11.13-3-11.34-9.9V933.2h-9.36v-3.8l19.45-14.6h2.7l-2.18,11.9H1175v6.5h-15.91v30.4c0,4.4,1.87,6.3,5.62,6.3,3.32,0,6.44-2.1,8.52-3.7Z"/><path class="cls-2" d="M1241,971.7v5h-26.31v-5l8-.9V945.6c0-7-2.19-12.6-9.26-12.6-5.93,0-9.88,3.7-14.14,9.4v28.4l7.59.9v5h-26.31v-5l8-.9V916l-8.32-1v-3l20.6-11,3.43,5.51-5,3v25.9h1.14c4.47-5.4,10.61-10.3,18.41-10.3,9.78,0,14.56,7.5,14.56,17.2v28.5Z"/><path class="cls-2" d="M1289.94,966.3c-3.64,6.6-10.4,12-21,12-16,0-25.27-12-25.27-25.8,0-14.5,8.53-27.4,24.86-27.4,12.37,0,21,9.2,21.32,23H1254c0,10.7,5.82,22.2,18.2,22.2,5.82,0,10.61-1.8,14.46-6.3Zm-35.67-23.6h23.61c-1-6.8-4.47-11.7-11.75-11.7C1259.37,931,1255.31,936.8,1254.27,942.7Z"/><path class="cls-2" d="M342.73,1046.6c0-9.8,8.53-13.5,17.16-13.5,6.76,0,9.78.7,16.33,2v15.5h-4.78c-1-6.9-3.85-12.4-11.86-12.4-4.78,0-7.69,2.6-7.69,6.5,0,3.6,2.6,5.7,5.92,7.4l10.72,5.4c6.76,3.4,11,7.7,11,14,0,9.2-6.34,14.8-18.41,14.8a55,55,0,0,1-18.1-3.4v-15.3h4.69c.72,10.2,6,13.1,12.58,13.1,5.82,0,10-2.3,10-7,0-3.8-2.28-5.2-6.86-7.5l-10.4-5.1C347.31,1058.3,342.73,1053.8,342.73,1046.6Z"/><path class="cls-2" d="M411.1,1033.2c16.33,0,27,11.9,27,26.7,0,14.3-10,26.4-26,26.4-17.16,0-26.93-13.6-26.93-26.7C385.21,1044.8,395.4,1033.2,411.1,1033.2Zm-15.29,24.2c0,11.3,6.35,22.5,17.48,22.5,9,0,14.14-7.5,14.14-17.8,0-12.4-6.76-23.1-17.47-23.1C400.91,1039,395.81,1046.7,395.81,1057.4Z"/><path class="cls-2" d="M470.08,1039c-9.57,0-15.7,8.2-15.7,18.5,0,10.5,5.92,20.7,19.13,20.7a18.19,18.19,0,0,0,14.25-6.5l3.33,1.8c-2.6,6.7-9.47,12.8-21.22,12.8-15.18,0-25.37-11.2-25.37-25.2,0-15.3,10.19-27.9,27.35-27.9,5.72,0,11,1.4,14.77,4.3a9.36,9.36,0,0,1,3.74,6.9c0,2.8-1.77,4.7-4.26,4.7a5.58,5.58,0,0,1-5.62-3.7C478.82,1041.7,475.59,1039,470.08,1039Z"/><path class="cls-2" d="M523.29,1079.7v5H497v-5l8-.9v-32.3l-8.21-.4v-2.9l15.91-10h3v45.6Zm-19.14-64a6.82,6.82,0,1,1,6.76,6.5A6.65,6.65,0,0,1,504.15,1015.7Z"/><path class="cls-2" d="M576.64,1078.9v4.8c-2.19.9-3.95,1.8-6.87,1.8-4.36,0-7.8-2-9.36-6.2h-1.24c-4.27,4-9.78,7-16.23,7-9.67,0-14.46-6.2-14.46-13.3,0-6.8,5.83-11,12.17-13.1,5.41-1.8,11.76-3.7,18.52-5.6v-5.8c0-6.7-3.75-10.1-9.88-10.1-4.27,0-7.6,1.5-7.6,5.4a7.27,7.27,0,0,0,1.67,4.4l-10.82,2.2a9.75,9.75,0,0,1-1.25-5.1c0-7.3,8.84-12.2,19-12.2,12.48,0,19.65,3.9,19.65,14.7v26.9c0,2.6.73,5,3.23,5A8.24,8.24,0,0,0,576.64,1078.9Zm-17.47-5.2v-14.4c-4.79,1.3-9.26,2.6-12.8,3.8-5.2,1.7-7.07,5-7.07,8.7,0,5.1,4.26,7.9,9,7.9C552.72,1079.7,556.46,1077,559.17,1073.7Z"/><path class="cls-2" d="M608.33,1079.7v5H582v-5l8-.9V1024l-8.32-1v-3l20.59-11,3.44,5.51-5,3v61.3Z"/><path class="cls-2" d="M698.18,1058.5c0,17.2-11.23,27.7-23.71,27.7a24.52,24.52,0,0,1-14.67-5.4v20.7l8.64.9v5H641.08v-5l8-.9v-55l-8.21-.4v-2.9l15.91-10h3v10.2h.73c4-5.7,9.05-10.3,16.54-10.3C690.28,1033.1,698.18,1046.3,698.18,1058.5Zm-10.61,2.6c0-11-4.26-20.2-14.14-20.2-6.24,0-10.82,4.4-13.63,8.6v24c3.75,4.1,8,6.3,13.32,6.3C683.1,1079.8,687.57,1071.5,687.57,1061.1Z"/><path class="cls-2" d="M746.64,1042l-9.25,7.2c-2.29-3.8-3.43-5.4-5.93-5.4s-4.89,3.2-9.26,9.6v25.4l8.63.9v5H703.48v-5l8-.9v-32.3l-8.22-.4v-2.9l15.92-10h3v13.4H723c4.57-6.7,8.84-13.5,14.14-13.5C741.65,1033.1,743.94,1037.1,746.64,1042Z"/><path class="cls-2" d="M775.53,1033.2c16.33,0,27,11.9,27,26.7,0,14.3-10,26.4-26,26.4-17.16,0-26.93-13.6-26.93-26.7C749.64,1044.8,759.83,1033.2,775.53,1033.2Zm-15.29,24.2c0,11.3,6.35,22.5,17.48,22.5,9,0,14.14-7.5,14.14-17.8,0-12.4-6.76-23.1-17.47-23.1C765.34,1039,760.24,1046.7,760.24,1057.4Z"/><path class="cls-2" d="M834.51,1039c-9.57,0-15.7,8.2-15.7,18.5,0,10.5,5.92,20.7,19.13,20.7a18.18,18.18,0,0,0,14.25-6.5l3.33,1.8c-2.6,6.7-9.46,12.8-21.22,12.8-15.18,0-25.37-11.2-25.37-25.2,0-15.3,10.19-27.9,27.35-27.9,5.72,0,11,1.4,14.77,4.3a9.36,9.36,0,0,1,3.74,6.9c0,2.8-1.77,4.7-4.26,4.7a5.59,5.59,0,0,1-5.62-3.7C843.25,1041.7,840,1039,834.51,1039Z"/><path class="cls-2" d="M906.85,1074.3c-3.64,6.6-10.4,12-21,12-16,0-25.28-12-25.28-25.8,0-14.5,8.53-27.4,24.86-27.4,12.38,0,21,9.2,21.32,23H870.87c0,10.7,5.82,22.2,18.2,22.2,5.82,0,10.61-1.8,14.46-6.3Zm-35.67-23.6h23.61c-1-6.8-4.47-11.7-11.75-11.7C876.28,1039,872.22,1044.8,871.18,1050.7Z"/><path class="cls-2" d="M914.83,1046.6c0-9.8,8.53-13.5,17.16-13.5,6.76,0,9.78.7,16.33,2v15.5h-4.79c-1-6.9-3.84-12.4-11.85-12.4-4.79,0-7.7,2.6-7.7,6.5,0,3.6,2.6,5.7,5.93,7.4l10.71,5.4c6.76,3.4,11,7.7,11,14,0,9.2-6.35,14.8-18.41,14.8a55,55,0,0,1-18.1-3.4v-15.3h4.68c.73,10.2,6,13.1,12.59,13.1,5.82,0,10-2.3,10-7,0-3.8-2.29-5.2-6.86-7.5l-10.41-5.1C919.41,1058.3,914.83,1053.8,914.83,1046.6Z"/><path class="cls-2" d="M959.53,1046.6c0-9.8,8.52-13.5,17.16-13.5,6.76,0,9.77.7,16.33,2v15.5h-4.79c-1-6.9-3.85-12.4-11.85-12.4-4.79,0-7.7,2.6-7.7,6.5,0,3.6,2.6,5.7,5.93,7.4l10.71,5.4c6.76,3.4,11,7.7,11,14,0,9.2-6.34,14.8-18.4,14.8a55,55,0,0,1-18.1-3.4v-15.3h4.68c.73,10.2,6,13.1,12.58,13.1,5.83,0,10-2.3,10-7,0-3.8-2.29-5.2-6.87-7.5l-10.4-5.1C964.1,1058.3,959.53,1053.8,959.53,1046.6Z"/><path class="cls-2" d="M1006.21,1079.7a6.82,6.82,0,1,1,6.76,6.5A6.64,6.64,0,0,1,1006.21,1079.7Z"/><path class="cls-3" d="M629.69,680.72a4.92,4.92,0,1,1-4.93-4.93A4.91,4.91,0,0,1,629.69,680.72Zm-.83,0a4.09,4.09,0,1,0-4.1,4.08A4.11,4.11,0,0,0,628.86,680.72Zm-1,0a3.08,3.08,0,0,1-6.16,0h.49a2.62,2.62,0,0,0,5.18,0Zm-4.8-1.68c0-.54.18-1,.52-1s.47.42.47,1-.15,1-.47,1S623,679.63,623,679.08Zm2.45,0c0-.54.15-1,.47-1s.52.42.52,1-.18,1-.52,1S625.49,679.63,625.49,679.08Z"/><path class="cls-3" d="M639,681.3h-2.06v4.16h-1.19V676h3.91c2.17,0,3.16,1,3.16,2.61,0,1.43-.78,2.4-2.55,2.61l3.07,4.29H642Zm-2.06-1h2.58c1.38,0,2.11-.63,2.11-1.74s-.75-1.62-2.14-1.62h-2.55Z"/><path class="cls-3" d="M646.36,677v3.14h4.8v1h-4.8v3.36h5.39v1h-6.57V676h6.57v1Z"/><path class="cls-3" d="M659.64,682.84h-4.19l-1,2.62h-1.26L657,676h1.27l3.63,9.51h-1.26Zm-.37-1-1.69-4.68-1.77,4.68Z"/><path class="cls-3" d="M671.29,680.71a4.43,4.43,0,0,1-4.62,4.75h-3.06V676h3.06A4.43,4.43,0,0,1,671.29,680.71Zm-1.19,0c0-2.38-1.33-3.77-3.61-3.77h-1.7v7.52h1.7C668.74,684.46,670.1,683.08,670.1,680.71Z"/><path class="cls-3" d="M674.77,677v3.14h4.81v1h-4.81v3.36h5.4v1H673.6V676h6.57v1Z"/><path class="cls-3" d="M685.47,681.3h-2.05v4.16h-1.2V676h3.91c2.17,0,3.17,1,3.17,2.61,0,1.43-.79,2.4-2.55,2.61l3.07,4.29h-1.33Zm-2.05-1H686c1.39,0,2.12-.63,2.12-1.74s-.76-1.62-2.15-1.62h-2.54Z"/><path class="cls-3" d="M698.87,681.3h-2.06v4.16h-1.19V676h3.91c2.17,0,3.17,1,3.17,2.61,0,1.43-.79,2.4-2.55,2.61l3.06,4.29h-1.33Zm-2.06-1h2.58c1.39,0,2.11-.63,2.11-1.74s-.75-1.62-2.14-1.62h-2.55Z"/><path class="cls-3" d="M704.44,680.71c0-2.94,1.8-4.93,4.42-4.93s4.43,2,4.43,4.93-1.81,4.91-4.43,4.91S704.44,683.63,704.44,680.71Zm7.66,0c0-2.44-1.27-3.94-3.24-3.94s-3.23,1.5-3.23,3.94,1.27,3.92,3.23,3.92S712.1,683.13,712.1,680.71Z"/><path class="cls-3" d="M725.18,676v9.51H724V677l-3.22,8.48H720L716.74,677v8.49h-1.2V676h1.94l2.9,7.63,2.9-7.63Z"/><path class="cls-3" d="M733.36,682.84h-4.19l-1,2.62h-1.26l3.75-9.51H732l3.62,9.51h-1.26Zm-.36-1-1.7-4.68-1.76,4.68Z"/><path class="cls-3" d="M745.14,676v9.51h-1.79l-4.89-8.56v8.56h-1.12V676h1.79l4.9,8.55V676Z"/><path class="cls-3" d="M658.61,357.72a4.92,4.92,0,1,1-4.93-4.93A4.91,4.91,0,0,1,658.61,357.72Zm-.83,0a4.09,4.09,0,1,0-8.18,0,4.09,4.09,0,0,0,8.18,0Zm-1,0a3.09,3.09,0,0,1-6.17,0h.49a2.62,2.62,0,0,0,5.19,0ZM652,356.08c0-.54.19-1,.52-1s.48.42.48,1-.16,1-.48,1S652,356.63,652,356.08Zm2.45,0c0-.54.16-1,.48-1s.52.42.52,1-.18,1-.52,1S654.4,356.63,654.4,356.08Z"/><path class="cls-3" d="M667.06,353v9.51h-1.21V355a3,3,0,0,1-2.17.6v-1c1.63-.05,2.12-.65,2.36-1.63Z"/><path class="cls-3" d="M669.34,357.72c0-2.87,1.4-4.94,3.8-4.94s3.79,2.07,3.79,4.94-1.4,4.9-3.79,4.9S669.34,360.59,669.34,357.72Zm6.43,0c0-2.38-.92-3.91-2.63-3.91s-2.64,1.53-2.64,3.91.93,3.87,2.64,3.87S675.77,360.1,675.77,357.72Z"/><path class="cls-3" d="M678.75,357.72c0-2.87,1.4-4.94,3.8-4.94s3.79,2.07,3.79,4.94-1.4,4.9-3.79,4.9S678.75,360.59,678.75,357.72Zm6.43,0c0-2.38-.92-3.91-2.63-3.91s-2.63,1.53-2.63,3.91.92,3.87,2.63,3.87S685.18,360.1,685.18,357.72Z"/><path class="cls-3" d="M699.55,355.59c0,1.57-1.08,2.71-3.25,2.71h-2.64v4.16h-1.19V353h3.93C698.57,353,699.55,354,699.55,355.59Zm-1.19,0c0-1.06-.66-1.65-2.16-1.65h-2.54v3.36h2.54C697.7,357.3,698.36,356.62,698.36,355.59Z"/><path class="cls-3" d="M708.24,353.93h-3.15v8.53h-1.18v-8.53h-3.16v-1h7.49Z"/><path class="cls-3" d="M709.32,359.63h1.24c.19,1.34,1.18,2,2.72,2s2.38-.71,2.38-1.64-.56-1.33-1.66-1.58l-2.22-.49a2.4,2.4,0,0,1-2.15-2.41c0-1.54,1.3-2.73,3.4-2.73s3.52.88,3.73,2.83h-1.25c-.18-1.26-1.11-1.84-2.51-1.84s-2.13.7-2.13,1.6c0,.68.35,1.16,1.45,1.41l2.14.49c1.54.35,2.45,1.19,2.45,2.55,0,1.67-1.3,2.8-3.63,2.8C710.79,362.62,709.51,361.55,709.32,359.63Z"/></g></svg>