<svg xmlns="http://www.w3.org/2000/svg" viewBox="0 0 1366 768"><defs><style>.cls-1{fill:#e6e6e6;}</style></defs><g id="Layer_1" data-name="Layer 1"><rect width="1366" height="768"/><path class="cls-1" d="M143.11,360.83c0,18.26-13.53,30.61-33.82,30.61H94.74v32.3H78V331.23h31.45C129.75,331.23,143.11,343.24,143.11,360.83Zm-18.44-.17c0-10.15-7.27-15.05-17.75-15.05H94.74V376.9h12.18C118.25,376.9,124.67,371.48,124.67,360.66Z"/><path class="cls-1" d="M238.93,389.91c0,20.13-15.56,36.37-35.69,36.37S167.73,410,167.73,389.91s15.39-36.35,35.51-36.35S238.93,369.79,238.93,389.91Zm-54.12,0c0,11.84,7.44,20.64,18.43,20.64,11.34,0,18.61-8.63,18.61-20.64s-7.27-20.46-18.61-20.46C192.25,369.45,184.81,377.91,184.81,389.91Z"/><path class="cls-1" d="M292.62,426.28c-14.88,0-19.45-8.46-19.45-21.65V314.32h17.09v87.27c0,7.94,1.18,9.8,9.47,9.8l-1,14.38A54.73,54.73,0,0,1,292.62,426.28Z"/><path class="cls-1" d="M393,372.67l-16.24,6.42a16.37,16.37,0,0,0-15.39-9.64c-9.47,0-18.43,6.77-18.43,20.46s9,20.47,18.43,20.47a16.37,16.37,0,0,0,15.39-9.64L393,407.17s-7.11,19.11-31.12,19.11c-21,0-36-16.24-36-36.37s15.05-36.35,36-36.35C385.84,353.56,393,372.67,393,372.67Z"/><path class="cls-1" d="M465.67,423.74C464.82,421,464,418,463.3,415c-4.57,7.1-11,11.49-22.32,11.49-11.67,0-21-8.28-21-20.8,0-13.86,10.82-21.64,27.9-23.16,3.89-.34,9.81-.68,14.21-.85V371.15H426.43l.17-15.06h52.6v51.08c0,8.79,1,12.85,2.37,16.57Zm-3.55-31.46a77.69,77.69,0,0,0-13.7,1.19c-6.76,1.18-10.65,5.24-10.65,10.15,0,5.58,4.22,8.79,9.47,8.79,9.64,0,14.88-6.43,14.88-15.05Z"/><path class="cls-1" d="M605.23,409.2v15.72H537.59V410.21L585.44,348h-46.5V332.42h66.29V348L557,409.2Z"/><path class="cls-1" d="M674.83,424.92c-.84-2.7-1.69-5.74-2.36-8.79-4.57,7.1-11,11.5-22.33,11.5-11.67,0-21-8.29-21-20.8,0-13.87,10.83-21.65,27.91-23.17,3.89-.34,9.81-.67,14.2-.85V372.33H635.6l.17-15.05h52.59v51.07c0,8.8,1,12.86,2.37,16.57Zm-3.55-31.45a78.31,78.31,0,0,0-13.69,1.18c-6.77,1.19-10.66,5.25-10.66,10.15,0,5.58,4.23,8.8,9.47,8.8,9.64,0,14.88-6.43,14.88-15.06Z"/><path class="cls-1" d="M795.23,390.93c0,20-12.69,36.53-32,36.53a28.33,28.33,0,0,1-20.8-8.45v34.67H725.38v-96.4h16.24l.51,7.61c4.9-6.09,11.83-10,22.15-10C782.54,354.91,795.23,371.32,795.23,390.93Zm-17.08.17c0-12.17-7.44-20.46-18.27-20.46-10.65,0-17.08,7.95-17.41,20.46.33,12.52,7.78,20.63,17.75,20.63C771.05,411.73,778.15,403.45,778.15,391.1Z"/><path class="cls-1" d="M866.62,424.92c-.84-2.7-1.69-5.74-2.36-8.79-4.57,7.1-11,11.5-22.33,11.5-11.67,0-21-8.29-21-20.8,0-13.87,10.83-21.65,27.91-23.17,3.89-.34,9.81-.67,14.2-.85V372.33H827.39l.17-15.05h52.59v51.07c0,8.8,1,12.86,2.37,16.57Zm-3.55-31.45a78.31,78.31,0,0,0-13.69,1.18c-6.77,1.19-10.66,5.25-10.66,10.15,0,5.58,4.23,8.8,9.47,8.8,9.64,0,14.88-6.43,14.88-15.06Z"/><path class="cls-1" d="M944.84,427.46c-13.7,0-19.11-8.45-19.11-21V371.82h-14.2V357.28h14.2V340.37h16.74v16.91h16.24v14.54H942.47v31.63c0,7.27,3.22,9.47,9.14,9.47a48.23,48.23,0,0,0,7.1-.51l.51,13.53A79.26,79.26,0,0,1,944.84,427.46Z"/><path class="cls-1" d="M1052.28,394.65h-48.87c1.18,9.81,6.76,17.42,16.91,17.42,8.12,0,12.85-4.22,15.39-11.16l15.73,5.92c-5.75,13.19-16.74,20.63-31.8,20.63-22.15,0-33.14-17.93-33.14-37.2,0-18.1,12.17-35.35,33.48-35.35,19.62,0,32.81,15.56,32.81,33.83A33.33,33.33,0,0,1,1052.28,394.65Zm-32.81-25.2c-8.11.18-13.86,5.42-15.38,13.2h30.61C1034,374.87,1028.1,369.29,1019.47,369.45Z"/><path class="cls-1" d="M1127.27,356.27l-1.35,17.58a20.22,20.22,0,0,0-8.63-1.69c-5.75,0-11.83,3-14.71,8.46v44.3h-16.74V357.28h16.23l.34,6.42c4.06-5.07,9.13-8.79,15.39-8.79A31.79,31.79,0,0,1,1127.27,356.27Z"/><path class="cls-1" d="M1155,424.92V357.28h17.08v67.64Zm17.42-85.57h-17.25l11.17-25h20.29Z"/><path class="cls-1" d="M1249.5,424.92c-.84-2.7-1.69-5.74-2.37-8.79-4.56,7.1-11,11.5-22.32,11.5-11.67,0-21-8.29-21-20.8,0-13.87,10.82-21.65,27.9-23.17,3.89-.34,9.81-.67,14.21-.85V372.33h-35.68l.17-15.05H1263v51.07c0,8.8,1,12.86,2.37,16.57ZM1246,393.47a78.48,78.48,0,0,0-13.7,1.18c-6.76,1.19-10.65,5.25-10.65,10.15,0,5.58,4.23,8.8,9.47,8.8,9.64,0,14.88-6.43,14.88-15.06Z"/></g></svg>