<svg xmlns="http://www.w3.org/2000/svg" viewBox="0 0 1366 768"><defs><style>.cls-1{fill:#12100b;}.cls-2{fill:#fff;}.cls-3{fill:#c1d11a;}</style></defs><g id="Layer_1" data-name="Layer 1"><rect class="cls-1" x="-41.27" y="-79.94" width="1446.07" height="930.38"/><path class="cls-2" d="M360.45,690C167.18,690,35.32,543.92,35.32,367.12,35.32,189.47,155.44,48.54,355,46.84c194.17-1.71,325.13,146.9,325.13,318.57C680.16,543.92,566.36,690,360.45,690Zm18.06-51.25c141.79,0,199.59-123.84,199.59-245.12,0-162.28-74.05-295.52-232.1-295.52C194.27,98.08,137.37,214.24,137.37,356,137.37,504.63,209.62,638.72,378.51,638.72Z"/><path class="cls-2" d="M1332,633.6v42.7H1086.3V633.6l56.9-6L897.54,374l-17.16,14.51V625.91l65.93,7.69v42.7H717.82V633.6l69.54-7.69V109.19l-69.54-7.69V58.79H946.31V101.5l-65.93,7.69V331.25l261-222.06h-17.16l-69.54-7.69V58.79h228.49V101.5l-65,7.69L970.7,313.31,1266,625.91Z"/><path class="cls-3" d="M88.46,724.72a4.92,4.92,0,1,1-4.93-4.93A4.91,4.91,0,0,1,88.46,724.72Zm-.82,0a4.09,4.09,0,1,0-8.18,0,4.09,4.09,0,0,0,8.18,0Zm-1,0a3.08,3.08,0,0,1-6.16,0h.49a2.62,2.62,0,0,0,5.18,0Zm-4.8-1.68c0-.54.18-1,.52-1s.47.42.47,1-.15,1-.47,1S81.81,723.63,81.81,723.08Zm2.45,0c0-.54.16-1,.48-1s.52.42.52,1-.19,1-.52,1S84.26,723.63,84.26,723.08Z"/><path class="cls-3" d="M97.74,725.3H95.68v4.16H94.49V720H98.4c2.17,0,3.17,1,3.17,2.61,0,1.43-.79,2.4-2.55,2.61l3.06,4.29h-1.33Zm-2.06-1h2.58c1.39,0,2.12-.63,2.12-1.74s-.76-1.62-2.15-1.62H95.68Z"/><path class="cls-3" d="M105.13,721v3.14h4.81v1h-4.81v3.36h5.39v1H104V720h6.57v1Z"/><path class="cls-3" d="M118.41,726.84h-4.19l-1,2.62H112l3.75-9.51H117l3.62,9.51h-1.26Zm-.36-1-1.7-4.68-1.76,4.68Z"/><path class="cls-3" d="M130.06,724.71a4.43,4.43,0,0,1-4.62,4.75h-3V720h3A4.43,4.43,0,0,1,130.06,724.71Zm-1.19,0c0-2.38-1.33-3.77-3.61-3.77h-1.7v7.52h1.7C127.51,728.46,128.87,727.08,128.87,724.71Z"/><path class="cls-3" d="M133.55,721v3.14h4.8v1h-4.8v3.36h5.39v1h-6.57V720h6.57v1Z"/><path class="cls-3" d="M144.25,725.3h-2.06v4.16H141V720h3.91c2.17,0,3.16,1,3.16,2.61,0,1.43-.78,2.4-2.55,2.61l3.07,4.29h-1.33Zm-2.06-1h2.58c1.38,0,2.11-.63,2.11-1.74s-.76-1.62-2.14-1.62h-2.55Z"/><path class="cls-3" d="M157.64,725.3h-2v4.16h-1.2V720h3.91c2.17,0,3.17,1,3.17,2.61,0,1.43-.79,2.4-2.55,2.61l3.07,4.29h-1.33Zm-2-1h2.57c1.39,0,2.12-.63,2.12-1.74s-.76-1.62-2.15-1.62h-2.54Z"/><path class="cls-3" d="M163.21,724.71c0-2.94,1.81-4.93,4.43-4.93s4.42,2,4.42,4.93-1.8,4.91-4.42,4.91S163.21,727.63,163.21,724.71Zm7.66,0c0-2.44-1.27-3.94-3.23-3.94s-3.24,1.5-3.24,3.94,1.28,3.92,3.24,3.92S170.87,727.13,170.87,724.71Z"/><path class="cls-3" d="M184,720v9.51h-1.2V721l-3.22,8.48h-.77L175.51,721v8.49h-1.19V720h1.93l2.9,7.63,2.9-7.63Z"/><path class="cls-3" d="M192.13,726.84h-4.19l-1,2.62h-1.26l3.75-9.51h1.28l3.63,9.51h-1.26Zm-.36-1-1.7-4.68-1.76,4.68Z"/><path class="cls-3" d="M203.91,720v9.51h-1.79l-4.89-8.56v8.56h-1.12V720h1.79l4.91,8.55V720Z"/><path class="cls-3" d="M1226,724.72a4.92,4.92,0,1,1-4.93-4.93A4.91,4.91,0,0,1,1226,724.72Zm-.82,0a4.09,4.09,0,1,0-8.18,0,4.09,4.09,0,0,0,8.18,0Zm-1,0a3.08,3.08,0,0,1-6.16,0h.49a2.62,2.62,0,0,0,5.18,0Zm-4.8-1.68c0-.54.18-1,.52-1s.47.42.47,1-.15,1-.47,1S1219.31,723.63,1219.31,723.08Zm2.45,0c0-.54.15-1,.48-1s.51.42.51,1-.18,1-.51,1S1221.76,723.63,1221.76,723.08Z"/><path class="cls-3" d="M1238.13,726.79c0,1.52-1.21,2.83-3.41,2.83s-3.4-1.2-3.42-2.91h1.15c.07,1.21.84,1.92,2.29,1.92s2.18-.81,2.18-1.84-.68-1.68-2.45-1.68h-.8v-1h.8c1.62,0,2.2-.75,2.2-1.67a1.7,1.7,0,0,0-1.91-1.64,1.88,1.88,0,0,0-2,1.74h-1.17a3,3,0,0,1,3.24-2.73c1.76,0,3.08,1.06,3.08,2.57a2.14,2.14,0,0,1-1.35,2.16A2.24,2.24,0,0,1,1238.13,726.79Z"/><path class="cls-3" d="M1246.58,726.42a3.09,3.09,0,0,1-3.31,3.2c-2,0-3.36-1.17-3.36-2.91h1.19a2,2,0,0,0,2.19,1.92,2.08,2.08,0,0,0,2.11-2.24,2,2,0,0,0-2.13-2.17,1.88,1.88,0,0,0-1.76.94h-1.37l.36-5.21h5.6v1h-4.63l-.21,3.2a2.77,2.77,0,0,1,2.22-1A3,3,0,0,1,1246.58,726.42Z"/><path class="cls-3" d="M1255,726.79c0,1.52-1.21,2.83-3.41,2.83s-3.4-1.2-3.41-2.91h1.14c.08,1.21.85,1.92,2.29,1.92s2.18-.81,2.18-1.84-.68-1.68-2.45-1.68h-.8v-1h.8c1.63,0,2.2-.75,2.2-1.67a1.69,1.69,0,0,0-1.9-1.64,1.89,1.89,0,0,0-2.06,1.74h-1.17a3,3,0,0,1,3.24-2.73c1.77,0,3.08,1.06,3.08,2.57a2.15,2.15,0,0,1-1.34,2.16A2.23,2.23,0,0,1,1255,726.79Z"/><path class="cls-3" d="M1268.19,722.59c0,1.57-1.08,2.71-3.25,2.71h-2.63v4.16h-1.19V720H1265C1267.21,720,1268.19,721,1268.19,722.59Zm-1.19,0c0-1.06-.66-1.65-2.16-1.65h-2.53v3.36h2.53C1266.34,724.3,1267,723.62,1267,722.59Z"/><path class="cls-3" d="M1276.88,720.93h-3.15v8.53h-1.17v-8.53h-3.17v-1h7.49Z"/><path class="cls-3" d="M1278,726.63h1.25c.18,1.34,1.18,2,2.72,2s2.38-.71,2.38-1.64-.56-1.33-1.67-1.58l-2.21-.49a2.41,2.41,0,0,1-2.16-2.41c0-1.54,1.3-2.73,3.4-2.73s3.52.88,3.73,2.83h-1.25c-.18-1.26-1.1-1.84-2.5-1.84s-2.13.7-2.13,1.6c0,.68.35,1.16,1.44,1.41l2.14.49c1.54.35,2.45,1.19,2.45,2.55,0,1.67-1.3,2.8-3.62,2.8C1279.43,729.62,1278.16,728.55,1278,726.63Z"/></g></svg>