<?xml version="1.0" encoding="UTF-8"?>
<svg id="Layer_1" data-name="Layer 1" xmlns="http://www.w3.org/2000/svg" xmlns:xlink="http://www.w3.org/1999/xlink" viewBox="0 0 1366 768">
  <defs>
    <style>
      .cls-1 {
        clip-path: url(#clippath);
      }

      .cls-2, .cls-3 {
        stroke-width: 0px;
      }

      .cls-2, .cls-4 {
        fill: #dde0e4;
      }

      .cls-3 {
        fill: #000;
      }
    </style>
    <clipPath id="clippath">
      <rect class="cls-2" x="-10" y="-10" width="1386" height="788"/>
    </clipPath>
  </defs>
  <g>
    <rect class="cls-4" x="-10" y="-10" width="1386" height="788"/>
    <g class="cls-1">
      <rect class="cls-2" x="-.35" y="-3.25" width="1366.71" height="779.89"/>
    </g>
  </g>
  <g>
    <path class="cls-3" d="M56.4,36.75c0-2.2-.13-4.03-.4-5.5-.27-1.46-.88-2.63-1.85-3.5-.97-.87-2.55-1.43-4.75-1.7v-.4h11.2v.4c-1.53.87-2.5,2.12-2.9,3.75-.4,1.63-.6,3.95-.6,6.95v61.4h-.6L25,31.56c-.87-1.73-1.68-3.02-2.45-3.85-.77-.83-1.62-1.38-2.55-1.65v-.4h18.5l18.3,41.1h-.4v-30ZM26.5,30.45h.7v54.1c0,2,.12,3.75.35,5.25.23,1.5.85,2.72,1.85,3.65,1,.93,2.6,1.53,4.8,1.8v.4h-11.2v-.4c1.53-.87,2.5-2.12,2.9-3.75.4-1.63.6-3.95.6-6.95V30.45Z"/>
    <path class="cls-3" d="M43.8,188.15c-3.47,0-6.45-.65-8.95-1.95s-4.6-3.1-6.3-5.4c-1.7-2.3-3.07-4.95-4.1-7.95-1.03-3-1.77-6.23-2.2-9.7-.43-3.47-.65-7.03-.65-10.7s.22-7.23.65-10.7c.43-3.46,1.17-6.7,2.2-9.7,1.03-3,2.4-5.65,4.1-7.95s3.8-4.1,6.3-5.4,5.48-1.95,8.95-1.95,6.45.65,8.95,1.95,4.6,3.1,6.3,5.4,3.07,4.95,4.1,7.95c1.03,3,1.77,6.23,2.2,9.7.43,3.47.65,7.04.65,10.7s-.22,7.23-.65,10.7c-.43,3.47-1.17,6.7-2.2,9.7-1.04,3-2.4,5.65-4.1,7.95-1.7,2.3-3.8,4.1-6.3,5.4s-5.48,1.95-8.95,1.95ZM43.8,187.45c1.27,0,2.3-.53,3.1-1.6.8-1.07,1.43-2.62,1.9-4.65.47-2.03.8-4.5,1-7.4.2-2.9.32-6.13.35-9.7.03-3.57.05-7.45.05-11.65s-.02-8.08-.05-11.65c-.04-3.57-.15-6.8-.35-9.7-.2-2.9-.53-5.37-1-7.4-.47-2.03-1.1-3.58-1.9-4.65-.8-1.07-1.83-1.6-3.1-1.6s-2.3.53-3.1,1.6-1.43,2.62-1.9,4.65c-.47,2.03-.8,4.5-1,7.4-.2,2.9-.32,6.13-.35,9.7-.03,3.57-.05,7.45-.05,11.65s.02,8.08.05,11.65c.03,3.57.15,6.8.35,9.7.2,2.9.53,5.37,1,7.4.47,2.03,1.1,3.58,1.9,4.65.8,1.07,1.83,1.6,3.1,1.6Z"/>
    <path class="cls-3" d="M24,218.36c-.47-1.93-.95-3.63-1.45-5.1-.5-1.46-1.18-2.53-2.05-3.2v-.4h21.9v.4c-1.67.47-2.75,1.1-3.25,1.9s-.75,1.7-.75,2.7c0,.47.05,1,.15,1.6.1.6.22,1.27.35,2l7.1,31.6h-.5l6.6-29.3c.2-1,.37-1.93.5-2.8.13-.87.2-1.73.2-2.6,0-1.67-.43-2.87-1.3-3.6-.87-.73-2.37-1.23-4.5-1.5v-.4h11.2v.4c-.87.2-1.6.65-2.2,1.35s-1.08,1.53-1.45,2.5c-.37.97-.68,2.05-.95,3.25l-14.4,63.7h-.4l-14.8-62.5Z"/>
    <path class="cls-3" d="M35.2,306.75l-8.9,55.3c-.07.67-.15,1.37-.25,2.1-.1.73-.15,1.4-.15,2,0,1.67.45,2.87,1.35,3.6.9.73,2.38,1.23,4.45,1.5v.4h-11.2v-.4c1.13-.33,2.1-1.03,2.9-2.1.8-1.07,1.4-2.8,1.8-5.2l9.4-57.2h.6ZM42.4,343.25v.7h-13.6v-.7h13.6ZM33.9,305.15c-.13-1.13-.4-1.95-.8-2.45-.4-.5-1.07-.88-2-1.15v-.4h16.9l9.4,61.8c.27,1.6.57,2.97.9,4.1.33,1.13.8,2.05,1.4,2.75.6.7,1.33,1.18,2.2,1.45v.4h-22v-.4c1.2-.33,2.03-.88,2.5-1.65.46-.77.7-1.58.7-2.45,0-.73-.03-1.43-.1-2.1-.07-.67-.17-1.33-.3-2l-8.8-57.9Z"/>
    <path class="cls-3" d="M21.6,428.45c0-3.67.23-7.23.7-10.7.47-3.46,1.23-6.71,2.3-9.75,1.07-3.03,2.53-5.68,4.4-7.95,1.87-2.27,4.22-4.05,7.05-5.35,2.83-1.3,6.22-1.95,10.15-1.95,1.13,0,2.3.1,3.5.3,1.2.2,2.35.5,3.45.9,1.1.4,2.08.87,2.95,1.4v13h-.4c-.33-1.33-.65-2.7-.95-4.1-.3-1.4-.65-2.73-1.05-4-.4-1.27-.92-2.42-1.55-3.45-.63-1.03-1.38-1.85-2.25-2.45-.87-.6-1.97-.9-3.3-.9-2.07,0-3.72.77-4.95,2.3-1.23,1.54-2.17,3.8-2.8,6.8-.63,3-1.03,6.67-1.2,11-.17,4.33-.25,9.3-.25,14.9s.12,10.57.35,14.9c.23,4.33.67,8,1.3,11,.63,3,1.57,5.27,2.8,6.8,1.23,1.53,2.88,2.3,4.95,2.3,1,0,1.9-.18,2.7-.55.8-.37,1.5-.92,2.1-1.65.6-.73,1.13-1.65,1.6-2.75.47-1.1.87-2.37,1.2-3.8.33-1.43.6-3.05.8-4.85h.4v12c-.73.47-1.6.87-2.6,1.2-1,.33-2.07.6-3.2.8-1.13.2-2.33.3-3.6.3-3.93,0-7.32-.65-10.15-1.95-2.83-1.3-5.18-3.08-7.05-5.35-1.87-2.27-3.33-4.92-4.4-7.95-1.07-3.03-1.83-6.28-2.3-9.75-.47-3.47-.7-7.03-.7-10.7Z"/>
    <path class="cls-3" d="M35.2,490.75l-8.9,55.3c-.07.67-.15,1.37-.25,2.1-.1.73-.15,1.4-.15,2,0,1.67.45,2.87,1.35,3.6.9.73,2.38,1.23,4.45,1.5v.4h-11.2v-.4c1.13-.33,2.1-1.03,2.9-2.1.8-1.07,1.4-2.8,1.8-5.2l9.4-57.2h.6ZM42.4,527.25v.7h-13.6v-.7h13.6ZM33.9,489.15c-.13-1.13-.4-1.95-.8-2.45-.4-.5-1.07-.88-2-1.15v-.4h16.9l9.4,61.8c.27,1.6.57,2.97.9,4.1.33,1.13.8,2.05,1.4,2.75.6.7,1.33,1.18,2.2,1.45v.4h-22v-.4c1.2-.33,2.03-.88,2.5-1.65.46-.77.7-1.58.7-2.45,0-.73-.03-1.43-.1-2.1-.07-.67-.17-1.33-.3-2l-8.8-57.9Z"/>
    <path class="cls-3" d="M25.3,588.86c0-2.8-.22-5.03-.65-6.7-.43-1.67-1.58-3.03-3.45-4.1v-.4h20.1c5.33,0,9.68,1.07,13.05,3.2,3.37,2.13,5.87,5.08,7.5,8.85,1.63,3.77,2.45,8.15,2.45,13.15,0,4.53-.77,8.73-2.3,12.6-1.53,3.87-3.98,6.95-7.35,9.25-3.37,2.3-7.82,3.45-13.35,3.45h-1.5v8.3c0,2.8.4,5.08,1.2,6.85.8,1.77,2.5,3.08,5.1,3.95v.4h-24.9v-.4c1.87-1.07,3.02-2.43,3.45-4.1.43-1.67.65-3.9.65-6.7v-47.6ZM39.8,627.45h1.5c1.67,0,2.98-.7,3.95-2.1.97-1.4,1.68-3.28,2.15-5.65.46-2.37.77-5.02.9-7.95.13-2.93.2-5.9.2-8.9,0-3.2-.07-6.27-.2-9.2-.13-2.93-.43-5.55-.9-7.85-.47-2.3-1.18-4.12-2.15-5.45-.97-1.33-2.28-2-3.95-2h-1.5v49.1Z"/>
    <path class="cls-3" d="M25.6,702.45c-.93-1.47-1.8-3.1-2.6-4.9-.8-1.8-1.42-3.67-1.85-5.6-.43-1.93-.65-3.83-.65-5.7,0-2.73.42-5.17,1.25-7.3.83-2.13,2.07-3.97,3.7-5.5,1.63-1.53,3.6-2.7,5.9-3.5,2.3-.8,4.88-1.2,7.75-1.2,1.33,0,2.68.12,4.05.35,1.37.23,2.67.53,3.9.9,1.23.37,2.32.82,3.25,1.35v13h-.4c-.27-1.33-.58-2.7-.95-4.1-.37-1.4-.8-2.73-1.3-4-.5-1.27-1.1-2.42-1.8-3.45-.7-1.03-1.55-1.85-2.55-2.45-1-.6-2.17-.9-3.5-.9s-2.45.23-3.35.7c-.9.47-1.62,1.1-2.15,1.9-.53.8-.92,1.72-1.15,2.75-.23,1.03-.35,2.08-.35,3.15,0,2.13.28,4.15.85,6.05.57,1.9,1.27,3.65,2.1,5.25.83,1.6,1.65,3.04,2.45,4.3l7.3,11.4c1.07,1.6,2.03,3.32,2.9,5.15.87,1.83,1.57,3.72,2.1,5.65.53,1.93.8,3.9.8,5.9,0,2.93-.43,5.55-1.3,7.85-.87,2.3-2.12,4.23-3.75,5.8-1.63,1.57-3.63,2.77-6,3.6-2.37.83-5.05,1.25-8.05,1.25-1.2,0-2.43-.12-3.7-.35-1.27-.23-2.48-.55-3.65-.95-1.17-.4-2.22-.83-3.15-1.3v-13h.4c.13,1.8.37,3.48.7,5.05.33,1.57.77,2.95,1.3,4.15.53,1.2,1.17,2.23,1.9,3.1.73.87,1.58,1.52,2.55,1.95.97.43,2.02.65,3.15.65,1.4,0,2.58-.27,3.55-.8.97-.53,1.73-1.25,2.3-2.15.57-.9.98-1.93,1.25-3.1.27-1.17.4-2.38.4-3.65,0-1.87-.3-3.7-.9-5.5-.6-1.8-1.4-3.63-2.4-5.5-1-1.87-2.17-3.8-3.5-5.8l-6.8-10.5Z"/>
  </g>
  <g>
    <path class="cls-3" d="M1334.8,36.75c0-2.2-.13-4.03-.4-5.5-.27-1.46-.88-2.63-1.85-3.5-.97-.87-2.55-1.43-4.75-1.7v-.4h11.2v.4c-1.53.87-2.5,2.12-2.9,3.75-.4,1.63-.6,3.95-.6,6.95v61.4h-.6l-31.5-66.6c-.87-1.73-1.68-3.02-2.45-3.85-.77-.83-1.62-1.38-2.55-1.65v-.4h18.5l18.3,41.1h-.4v-30ZM1304.9,30.45h.7v54.1c0,2,.12,3.75.35,5.25.23,1.5.85,2.72,1.85,3.65,1,.93,2.6,1.53,4.8,1.8v.4h-11.2v-.4c1.53-.87,2.5-2.12,2.9-3.75.4-1.63.6-3.95.6-6.95V30.45Z"/>
    <path class="cls-3" d="M1322.2,188.15c-3.47,0-6.45-.65-8.95-1.95s-4.6-3.1-6.3-5.4c-1.7-2.3-3.07-4.95-4.1-7.95-1.03-3-1.77-6.23-2.2-9.7-.43-3.47-.65-7.03-.65-10.7s.22-7.23.65-10.7c.43-3.46,1.17-6.7,2.2-9.7,1.03-3,2.4-5.65,4.1-7.95s3.8-4.1,6.3-5.4,5.48-1.95,8.95-1.95,6.45.65,8.95,1.95,4.6,3.1,6.3,5.4,3.07,4.95,4.1,7.95c1.03,3,1.77,6.23,2.2,9.7.43,3.47.65,7.04.65,10.7s-.22,7.23-.65,10.7c-.43,3.47-1.17,6.7-2.2,9.7-1.04,3-2.4,5.65-4.1,7.95-1.7,2.3-3.8,4.1-6.3,5.4s-5.48,1.95-8.95,1.95ZM1322.2,187.45c1.27,0,2.3-.53,3.1-1.6.8-1.07,1.43-2.62,1.9-4.65.47-2.03.8-4.5,1-7.4.2-2.9.32-6.13.35-9.7.03-3.57.05-7.45.05-11.65s-.02-8.08-.05-11.65c-.04-3.57-.15-6.8-.35-9.7-.2-2.9-.53-5.37-1-7.4-.47-2.03-1.1-3.58-1.9-4.65-.8-1.07-1.83-1.6-3.1-1.6s-2.3.53-3.1,1.6-1.43,2.62-1.9,4.65c-.47,2.03-.8,4.5-1,7.4-.2,2.9-.32,6.13-.35,9.7-.03,3.57-.05,7.45-.05,11.65s.02,8.08.05,11.65c.03,3.57.15,6.8.35,9.7.2,2.9.53,5.37,1,7.4.47,2.03,1.1,3.58,1.9,4.65.8,1.07,1.83,1.6,3.1,1.6Z"/>
    <path class="cls-3" d="M1302.4,218.36c-.47-1.93-.95-3.63-1.45-5.1-.5-1.46-1.18-2.53-2.05-3.2v-.4h21.9v.4c-1.67.47-2.75,1.1-3.25,1.9s-.75,1.7-.75,2.7c0,.47.05,1,.15,1.6.1.6.22,1.27.35,2l7.1,31.6h-.5l6.6-29.3c.2-1,.37-1.93.5-2.8.13-.87.2-1.73.2-2.6,0-1.67-.43-2.87-1.3-3.6-.87-.73-2.37-1.23-4.5-1.5v-.4h11.2v.4c-.87.2-1.6.65-2.2,1.35s-1.08,1.53-1.45,2.5c-.37.97-.68,2.05-.95,3.25l-14.4,63.7h-.4l-14.8-62.5Z"/>
    <path class="cls-3" d="M1313.6,306.75l-8.9,55.3c-.07.67-.15,1.37-.25,2.1-.1.73-.15,1.4-.15,2,0,1.67.45,2.87,1.35,3.6.9.73,2.38,1.23,4.45,1.5v.4h-11.2v-.4c1.13-.33,2.1-1.03,2.9-2.1.8-1.07,1.4-2.8,1.8-5.2l9.4-57.2h.6ZM1320.8,343.25v.7h-13.6v-.7h13.6ZM1312.3,305.15c-.13-1.13-.4-1.95-.8-2.45-.4-.5-1.07-.88-2-1.15v-.4h16.9l9.4,61.8c.27,1.6.57,2.97.9,4.1.33,1.13.8,2.05,1.4,2.75.6.7,1.33,1.18,2.2,1.45v.4h-22v-.4c1.2-.33,2.03-.88,2.5-1.65.46-.77.7-1.58.7-2.45,0-.73-.03-1.43-.1-2.1-.07-.67-.17-1.33-.3-2l-8.8-57.9Z"/>
    <path class="cls-3" d="M1300,428.45c0-3.67.23-7.23.7-10.7.47-3.46,1.23-6.71,2.3-9.75,1.07-3.03,2.53-5.68,4.4-7.95,1.87-2.27,4.22-4.05,7.05-5.35,2.83-1.3,6.22-1.95,10.15-1.95,1.13,0,2.3.1,3.5.3,1.2.2,2.35.5,3.45.9,1.1.4,2.08.87,2.95,1.4v13h-.4c-.33-1.33-.65-2.7-.95-4.1-.3-1.4-.65-2.73-1.05-4-.4-1.27-.92-2.42-1.55-3.45-.63-1.03-1.38-1.85-2.25-2.45-.87-.6-1.97-.9-3.3-.9-2.07,0-3.72.77-4.95,2.3-1.23,1.54-2.17,3.8-2.8,6.8-.63,3-1.03,6.67-1.2,11-.17,4.33-.25,9.3-.25,14.9s.12,10.57.35,14.9c.23,4.33.67,8,1.3,11,.63,3,1.57,5.27,2.8,6.8,1.23,1.53,2.88,2.3,4.95,2.3,1,0,1.9-.18,2.7-.55.8-.37,1.5-.92,2.1-1.65.6-.73,1.13-1.65,1.6-2.75.47-1.1.87-2.37,1.2-3.8.33-1.43.6-3.05.8-4.85h.4v12c-.73.47-1.6.87-2.6,1.2-1,.33-2.07.6-3.2.8-1.13.2-2.33.3-3.6.3-3.93,0-7.32-.65-10.15-1.95-2.83-1.3-5.18-3.08-7.05-5.35-1.87-2.27-3.33-4.92-4.4-7.95-1.07-3.03-1.83-6.28-2.3-9.75-.47-3.47-.7-7.03-.7-10.7Z"/>
    <path class="cls-3" d="M1313.6,490.75l-8.9,55.3c-.07.67-.15,1.37-.25,2.1-.1.73-.15,1.4-.15,2,0,1.67.45,2.87,1.35,3.6.9.73,2.38,1.23,4.45,1.5v.4h-11.2v-.4c1.13-.33,2.1-1.03,2.9-2.1.8-1.07,1.4-2.8,1.8-5.2l9.4-57.2h.6ZM1320.8,527.25v.7h-13.6v-.7h13.6ZM1312.3,489.15c-.13-1.13-.4-1.95-.8-2.45-.4-.5-1.07-.88-2-1.15v-.4h16.9l9.4,61.8c.27,1.6.57,2.97.9,4.1.33,1.13.8,2.05,1.4,2.75.6.7,1.33,1.18,2.2,1.45v.4h-22v-.4c1.2-.33,2.03-.88,2.5-1.65.46-.77.7-1.58.7-2.45,0-.73-.03-1.43-.1-2.1-.07-.67-.17-1.33-.3-2l-8.8-57.9Z"/>
    <path class="cls-3" d="M1303.7,588.86c0-2.8-.22-5.03-.65-6.7-.43-1.67-1.58-3.03-3.45-4.1v-.4h20.1c5.33,0,9.68,1.07,13.05,3.2,3.37,2.13,5.87,5.08,7.5,8.85,1.63,3.77,2.45,8.15,2.45,13.15,0,4.53-.77,8.73-2.3,12.6-1.53,3.87-3.98,6.95-7.35,9.25-3.37,2.3-7.82,3.45-13.35,3.45h-1.5v8.3c0,2.8.4,5.08,1.2,6.85.8,1.77,2.5,3.08,5.1,3.95v.4h-24.9v-.4c1.87-1.07,3.02-2.43,3.45-4.1.43-1.67.65-3.9.65-6.7v-47.6ZM1318.2,627.45h1.5c1.67,0,2.98-.7,3.95-2.1.97-1.4,1.68-3.28,2.15-5.65.46-2.37.77-5.02.9-7.95.13-2.93.2-5.9.2-8.9,0-3.2-.07-6.27-.2-9.2-.13-2.93-.43-5.55-.9-7.85-.47-2.3-1.18-4.12-2.15-5.45-.97-1.33-2.28-2-3.95-2h-1.5v49.1Z"/>
    <path class="cls-3" d="M1304,702.45c-.93-1.47-1.8-3.1-2.6-4.9-.8-1.8-1.42-3.67-1.85-5.6-.43-1.93-.65-3.83-.65-5.7,0-2.73.42-5.17,1.25-7.3.83-2.13,2.07-3.97,3.7-5.5,1.63-1.53,3.6-2.7,5.9-3.5,2.3-.8,4.88-1.2,7.75-1.2,1.33,0,2.68.12,4.05.35,1.37.23,2.67.53,3.9.9,1.23.37,2.32.82,3.25,1.35v13h-.4c-.27-1.33-.58-2.7-.95-4.1-.37-1.4-.8-2.73-1.3-4-.5-1.27-1.1-2.42-1.8-3.45-.7-1.03-1.55-1.85-2.55-2.45-1-.6-2.17-.9-3.5-.9s-2.45.23-3.35.7c-.9.47-1.62,1.1-2.15,1.9-.53.8-.92,1.72-1.15,2.75-.23,1.03-.35,2.08-.35,3.15,0,2.13.28,4.15.85,6.05.57,1.9,1.27,3.65,2.1,5.25.83,1.6,1.65,3.04,2.45,4.3l7.3,11.4c1.07,1.6,2.03,3.32,2.9,5.15.87,1.83,1.57,3.72,2.1,5.65.53,1.93.8,3.9.8,5.9,0,2.93-.43,5.55-1.3,7.85-.87,2.3-2.12,4.23-3.75,5.8-1.63,1.57-3.63,2.77-6,3.6-2.37.83-5.05,1.25-8.05,1.25-1.2,0-2.43-.12-3.7-.35-1.27-.23-2.48-.55-3.65-.95-1.17-.4-2.22-.83-3.15-1.3v-13h.4c.13,1.8.37,3.48.7,5.05.33,1.57.77,2.95,1.3,4.15.53,1.2,1.17,2.23,1.9,3.1.73.87,1.58,1.52,2.55,1.95.97.43,2.02.65,3.15.65,1.4,0,2.58-.27,3.55-.8.97-.53,1.73-1.25,2.3-2.15.57-.9.98-1.93,1.25-3.1.27-1.17.4-2.38.4-3.65,0-1.87-.3-3.7-.9-5.5-.6-1.8-1.4-3.63-2.4-5.5-1-1.87-2.17-3.8-3.5-5.8l-6.8-10.5Z"/>
  </g>
  <g>
    <path class="cls-3" d="M145.63,36.15c0-2.13-.15-3.87-.45-5.2-.3-1.33-.9-2.42-1.8-3.25-.9-.83-2.45-1.38-4.65-1.65v-.4h11.1v.4c-1.67.73-2.67,1.87-3,3.4-.33,1.53-.5,3.77-.5,6.7v61.8h-.6L109.13,30.95c-.93-1.47-1.75-2.58-2.45-3.35-.7-.77-1.45-1.28-2.25-1.55v-.4h16.5l25.1,47.2-.4.1v-36.8ZM110.73,30.06h.8v55.3c0,1.87.12,3.5.35,4.9.23,1.4.83,2.52,1.8,3.35.96.83,2.48,1.38,4.55,1.65v.4h-11.3v-.4c1.73-.73,2.8-1.85,3.2-3.35.4-1.5.6-3.72.6-6.65V30.06Z"/>
    <path class="cls-3" d="M130.33,188.15c-3.87,0-7.17-.67-9.9-2-2.73-1.33-5.05-3.13-6.95-5.4-1.9-2.27-3.42-4.92-4.55-7.95-1.13-3.03-1.93-6.27-2.4-9.7-.47-3.43-.7-7.02-.7-10.75s.23-7.22.7-10.65c.47-3.43,1.27-6.65,2.4-9.65,1.13-3,2.65-5.65,4.55-7.95,1.9-2.3,4.22-4.1,6.95-5.4,2.73-1.3,6.03-1.95,9.9-1.95s7.08.65,9.85,1.95c2.77,1.3,5.08,3.1,6.95,5.4,1.87,2.3,3.38,4.95,4.55,7.95,1.17,3,1.98,6.22,2.45,9.65.47,3.43.7,6.98.7,10.65s-.23,7.33-.7,10.8c-.47,3.47-1.28,6.72-2.45,9.75-1.17,3.03-2.68,5.67-4.55,7.9-1.87,2.23-4.18,4.02-6.95,5.35-2.77,1.33-6.05,2-9.85,2ZM130.33,187.45c1.93,0,3.55-.55,4.85-1.65,1.3-1.1,2.37-2.7,3.2-4.8.83-2.1,1.47-4.6,1.9-7.5.43-2.9.68-6.12.75-9.65.07-3.53.1-7.37.1-11.5s-.03-7.77-.1-11.3c-.07-3.53-.32-6.75-.75-9.65-.43-2.9-1.07-5.42-1.9-7.55-.83-2.13-1.9-3.72-3.2-4.75-1.3-1.03-2.92-1.55-4.85-1.55s-3.65.52-4.95,1.55c-1.3,1.03-2.35,2.62-3.15,4.75-.8,2.13-1.4,4.65-1.8,7.55-.4,2.9-.65,6.12-.75,9.65-.1,3.53-.15,7.3-.15,11.3s.05,7.87.15,11.4c.1,3.54.35,6.77.75,9.7.4,2.93,1,5.45,1.8,7.55.8,2.1,1.87,3.7,3.2,4.8,1.33,1.1,2.96,1.65,4.9,1.65Z"/>
    <path class="cls-3" d="M107.93,217.75c-.47-1.87-.98-3.46-1.55-4.8-.57-1.33-1.28-2.33-2.15-3v-.3h19.9v.3c-1.4.53-2.33,1.15-2.8,1.85-.47.7-.7,1.48-.7,2.35,0,.47.07,1,.2,1.6.13.6.27,1.2.4,1.8l11,39.9-.9,1.5,10.8-38.6c.27-1.07.52-2.08.75-3.05.23-.97.35-1.92.35-2.85,0-1.33-.38-2.33-1.15-3-.77-.67-2.15-1.17-4.15-1.5v-.3h10.6v.3c-.87.2-1.57.63-2.1,1.3-.54.67-1,1.45-1.4,2.35-.4.9-.77,1.95-1.1,3.15l-17.6,64.3h-.3l-18.1-63.3Z"/>
    <path class="cls-3" d="M123.33,306.95l-13,55.8c-.2.67-.35,1.37-.45,2.1-.1.73-.15,1.4-.15,2,0,1.33.4,2.33,1.2,3,.8.67,2.13,1.13,4,1.4v.4h-10.4v-.4c1.13-.33,2.07-1.03,2.8-2.1.73-1.07,1.37-2.67,1.9-4.8l13.6-57.3.5-.1ZM132.43,343.36v.6h-18l.1-.6h17.9ZM121.03,305.25c-.27-1.2-.58-2.05-.95-2.55-.37-.5-.95-.92-1.75-1.25v-.3h14.9l14,62.3c.33,1.47.68,2.75,1.05,3.85.37,1.1.87,1.97,1.5,2.6.63.63,1.35,1.08,2.15,1.35v.4h-20v-.4c1.07-.27,1.83-.73,2.3-1.4.47-.67.7-1.43.7-2.3,0-.6-.05-1.22-.15-1.85-.1-.63-.22-1.25-.35-1.85l-13.4-58.6Z"/>
    <path class="cls-3" d="M105.83,428.45c0-3.87.28-7.53.85-11,.57-3.47,1.46-6.73,2.7-9.8,1.23-3.07,2.9-5.68,5-7.85,2.1-2.17,4.68-3.88,7.75-5.15,3.07-1.27,6.83-1.9,11.3-1.9,1.46,0,3,.12,4.6.35,1.6.23,3.07.6,4.4,1.1,1.33.5,2.53,1.12,3.6,1.85v11.6h-.3c-.4-1.53-.85-3-1.35-4.4-.5-1.4-1.07-2.7-1.7-3.9-.63-1.2-1.4-2.25-2.3-3.15s-1.92-1.58-3.05-2.05c-1.13-.47-2.4-.7-3.8-.7-2.87,0-5.22.82-7.05,2.45-1.83,1.63-3.27,3.98-4.3,7.05-1.04,3.07-1.73,6.75-2.1,11.05-.37,4.3-.55,9.12-.55,14.45s.2,10.25.6,14.55c.4,4.3,1.12,7.98,2.15,11.05,1.03,3.07,2.47,5.4,4.3,7,1.83,1.6,4.18,2.4,7.05,2.4,1.13,0,2.28-.18,3.45-.55,1.17-.37,2.17-.87,3-1.5.83-.63,1.6-1.47,2.3-2.5.7-1.03,1.3-2.22,1.8-3.55.5-1.33.88-2.83,1.15-4.5h.3v10.5c-1.07.6-2.28,1.1-3.65,1.5-1.37.4-2.77.72-4.2.95-1.43.23-2.92.35-4.45.35-4.4,0-8.12-.62-11.15-1.85-3.04-1.23-5.62-2.97-7.75-5.2-2.13-2.23-3.82-4.85-5.05-7.85-1.23-3-2.13-6.27-2.7-9.8-.57-3.53-.85-7.2-.85-11Z"/>
    <path class="cls-3" d="M123.33,490.95l-13,55.8c-.2.67-.35,1.37-.45,2.1-.1.73-.15,1.4-.15,2,0,1.33.4,2.33,1.2,3,.8.67,2.13,1.13,4,1.4v.4h-10.4v-.4c1.13-.33,2.07-1.03,2.8-2.1.73-1.07,1.37-2.67,1.9-4.8l13.6-57.3.5-.1ZM132.43,527.36v.6h-18l.1-.6h17.9ZM121.03,489.25c-.27-1.2-.58-2.05-.95-2.55-.37-.5-.95-.92-1.75-1.25v-.3h14.9l14,62.3c.33,1.47.68,2.75,1.05,3.85.37,1.1.87,1.97,1.5,2.6.63.63,1.35,1.08,2.15,1.35v.4h-20v-.4c1.07-.27,1.83-.73,2.3-1.4.47-.67.7-1.43.7-2.3,0-.6-.05-1.22-.15-1.85-.1-.63-.22-1.25-.35-1.85l-13.4-58.6Z"/>
    <path class="cls-3" d="M109.23,588.15c0-2.67-.2-4.77-.6-6.3-.4-1.53-1.47-2.83-3.2-3.9v-.3h21.5c5.53,0,10.08,1.05,13.65,3.15,3.57,2.1,6.22,5.05,7.95,8.85,1.73,3.8,2.6,8.2,2.6,13.2s-.83,9.12-2.5,12.95c-1.67,3.83-4.27,6.85-7.8,9.05-3.53,2.2-8.17,3.3-13.9,3.3h-5v8.9c0,2.73.37,4.92,1.1,6.55.73,1.63,2.27,2.85,4.6,3.65v.4h-22.2v-.4c1.73-1,2.8-2.28,3.2-3.85.4-1.57.6-3.68.6-6.35v-48.9ZM121.93,627.56h4.3c2.33,0,4.23-.68,5.7-2.05,1.46-1.37,2.58-3.18,3.35-5.45.77-2.27,1.32-4.88,1.65-7.85.33-2.97.5-6.08.5-9.35s-.17-6.48-.5-9.45c-.33-2.97-.88-5.58-1.65-7.85-.77-2.27-1.88-4.05-3.35-5.35-1.47-1.3-3.4-1.95-5.8-1.95h-4.2v49.3Z"/>
    <path class="cls-3" d="M112.53,702.95c-1.33-1.4-2.6-3-3.8-4.8s-2.13-3.72-2.8-5.75c-.67-2.03-1-4.18-1-6.45,0-2.6.42-4.98,1.25-7.15.83-2.17,2.12-4,3.85-5.5,1.73-1.5,3.85-2.63,6.35-3.4,2.5-.77,5.35-1.15,8.55-1.15,1.73,0,3.37.13,4.9.4,1.53.27,3.03.65,4.5,1.15,1.47.5,2.77,1.05,3.9,1.65v11.7h-.4c-.27-1.4-.62-2.82-1.05-4.25-.43-1.43-1-2.72-1.7-3.85-.7-1.13-1.48-2.17-2.35-3.1-.87-.93-1.92-1.67-3.15-2.2-1.23-.53-2.62-.8-4.15-.8-1.73,0-3.25.27-4.55.8-1.3.54-2.33,1.29-3.1,2.25-.77.97-1.33,2.05-1.7,3.25-.37,1.2-.55,2.5-.55,3.9,0,2.2.35,4.17,1.05,5.9.7,1.73,1.55,3.32,2.55,4.75s2.1,2.78,3.3,4.05l9.1,10.4c1.67,1.54,3.07,3.22,4.2,5.05,1.13,1.83,2.02,3.73,2.65,5.7.63,1.97.95,4.12.95,6.45,0,2.8-.47,5.33-1.4,7.6-.93,2.27-2.29,4.18-4.05,5.75-1.77,1.57-3.88,2.77-6.35,3.6-2.47.83-5.23,1.25-8.3,1.25-1.67,0-3.28-.13-4.85-.4s-3.1-.67-4.6-1.2c-1.5-.53-2.72-1.13-3.65-1.8v-11.4h.3c.13,1.67.45,3.25.95,4.75s1.12,2.82,1.85,3.95c.73,1.13,1.55,2.12,2.45,2.95.9.83,1.98,1.45,3.25,1.85,1.27.4,2.53.6,3.8.6,1.87,0,3.45-.27,4.75-.8,1.3-.53,2.37-1.3,3.2-2.3.83-1,1.46-2.17,1.9-3.5.43-1.33.65-2.73.65-4.2,0-2.07-.33-3.97-1-5.7-.67-1.73-1.58-3.43-2.75-5.1-1.17-1.67-2.52-3.3-4.05-4.9l-8.9-10Z"/>
  </g>
  <g>
    <path class="cls-3" d="M1250.97,36.15c0-2.13-.15-3.87-.45-5.2-.3-1.33-.9-2.42-1.8-3.25-.9-.83-2.45-1.38-4.65-1.65v-.4h11.1v.4c-1.67.73-2.67,1.87-3,3.4-.33,1.53-.5,3.77-.5,6.7v61.8h-.6l-36.6-67c-.93-1.47-1.75-2.58-2.45-3.35-.7-.77-1.45-1.28-2.25-1.55v-.4h16.5l25.1,47.2-.4.1v-36.8ZM1216.07,30.06h.8v55.3c0,1.87.12,3.5.35,4.9.23,1.4.83,2.52,1.8,3.35.96.83,2.48,1.38,4.55,1.65v.4h-11.3v-.4c1.73-.73,2.8-1.85,3.2-3.35.4-1.5.6-3.72.6-6.65V30.06Z"/>
    <path class="cls-3" d="M1235.67,188.15c-3.87,0-7.17-.67-9.9-2-2.73-1.33-5.05-3.13-6.95-5.4-1.9-2.27-3.42-4.92-4.55-7.95-1.13-3.03-1.93-6.27-2.4-9.7-.47-3.43-.7-7.02-.7-10.75s.23-7.22.7-10.65c.47-3.43,1.27-6.65,2.4-9.65,1.13-3,2.65-5.65,4.55-7.95,1.9-2.3,4.22-4.1,6.95-5.4,2.73-1.3,6.03-1.95,9.9-1.95s7.08.65,9.85,1.95c2.77,1.3,5.08,3.1,6.95,5.4,1.87,2.3,3.38,4.95,4.55,7.95,1.17,3,1.98,6.22,2.45,9.65.47,3.43.7,6.98.7,10.65s-.23,7.33-.7,10.8c-.47,3.47-1.28,6.72-2.45,9.75-1.17,3.03-2.68,5.67-4.55,7.9-1.87,2.23-4.18,4.02-6.95,5.35-2.77,1.33-6.05,2-9.85,2ZM1235.67,187.45c1.93,0,3.55-.55,4.85-1.65,1.3-1.1,2.37-2.7,3.2-4.8.83-2.1,1.47-4.6,1.9-7.5.43-2.9.68-6.12.75-9.65.07-3.53.1-7.37.1-11.5s-.03-7.77-.1-11.3c-.07-3.53-.32-6.75-.75-9.65-.43-2.9-1.07-5.42-1.9-7.55-.83-2.13-1.9-3.72-3.2-4.75-1.3-1.03-2.92-1.55-4.85-1.55s-3.65.52-4.95,1.55c-1.3,1.03-2.35,2.62-3.15,4.75-.8,2.13-1.4,4.65-1.8,7.55-.4,2.9-.65,6.12-.75,9.65-.1,3.53-.15,7.3-.15,11.3s.05,7.87.15,11.4c.1,3.54.35,6.77.75,9.7.4,2.93,1,5.45,1.8,7.55.8,2.1,1.87,3.7,3.2,4.8,1.33,1.1,2.96,1.65,4.9,1.65Z"/>
    <path class="cls-3" d="M1213.27,217.75c-.47-1.87-.98-3.46-1.55-4.8-.57-1.33-1.28-2.33-2.15-3v-.3h19.9v.3c-1.4.53-2.33,1.15-2.8,1.85-.47.7-.7,1.48-.7,2.35,0,.47.07,1,.2,1.6.13.6.27,1.2.4,1.8l11,39.9-.9,1.5,10.8-38.6c.27-1.07.52-2.08.75-3.05.23-.97.35-1.92.35-2.85,0-1.33-.38-2.33-1.15-3-.77-.67-2.15-1.17-4.15-1.5v-.3h10.6v.3c-.87.2-1.57.63-2.1,1.3-.54.67-1,1.45-1.4,2.35-.4.9-.77,1.95-1.1,3.15l-17.6,64.3h-.3l-18.1-63.3Z"/>
    <path class="cls-3" d="M1228.67,306.95l-13,55.8c-.2.67-.35,1.37-.45,2.1-.1.73-.15,1.4-.15,2,0,1.33.4,2.33,1.2,3,.8.67,2.13,1.13,4,1.4v.4h-10.4v-.4c1.13-.33,2.07-1.03,2.8-2.1.73-1.07,1.37-2.67,1.9-4.8l13.6-57.3.5-.1ZM1237.77,343.36v.6h-18l.1-.6h17.9ZM1226.37,305.25c-.27-1.2-.58-2.05-.95-2.55-.37-.5-.95-.92-1.75-1.25v-.3h14.9l14,62.3c.33,1.47.68,2.75,1.05,3.85.37,1.1.87,1.97,1.5,2.6.63.63,1.35,1.08,2.15,1.35v.4h-20v-.4c1.07-.27,1.83-.73,2.3-1.4.47-.67.7-1.43.7-2.3,0-.6-.05-1.22-.15-1.85-.1-.63-.22-1.25-.35-1.85l-13.4-58.6Z"/>
    <path class="cls-3" d="M1211.17,428.45c0-3.87.28-7.53.85-11,.57-3.47,1.46-6.73,2.7-9.8,1.23-3.07,2.9-5.68,5-7.85,2.1-2.17,4.68-3.88,7.75-5.15,3.07-1.27,6.83-1.9,11.3-1.9,1.46,0,3,.12,4.6.35,1.6.23,3.07.6,4.4,1.1,1.33.5,2.53,1.12,3.6,1.85v11.6h-.3c-.4-1.53-.85-3-1.35-4.4-.5-1.4-1.07-2.7-1.7-3.9-.63-1.2-1.4-2.25-2.3-3.15s-1.92-1.58-3.05-2.05c-1.13-.47-2.4-.7-3.8-.7-2.87,0-5.22.82-7.05,2.45-1.83,1.63-3.27,3.98-4.3,7.05-1.04,3.07-1.73,6.75-2.1,11.05-.37,4.3-.55,9.12-.55,14.45s.2,10.25.6,14.55c.4,4.3,1.12,7.98,2.15,11.05,1.03,3.07,2.47,5.4,4.3,7,1.83,1.6,4.18,2.4,7.05,2.4,1.13,0,2.28-.18,3.45-.55,1.17-.37,2.17-.87,3-1.5.83-.63,1.6-1.47,2.3-2.5.7-1.03,1.3-2.22,1.8-3.55.5-1.33.88-2.83,1.15-4.5h.3v10.5c-1.07.6-2.28,1.1-3.65,1.5-1.37.4-2.77.72-4.2.95-1.43.23-2.92.35-4.45.35-4.4,0-8.12-.62-11.15-1.85-3.04-1.23-5.62-2.97-7.75-5.2-2.13-2.23-3.82-4.85-5.05-7.85-1.23-3-2.13-6.27-2.7-9.8-.57-3.53-.85-7.2-.85-11Z"/>
    <path class="cls-3" d="M1228.67,490.95l-13,55.8c-.2.67-.35,1.37-.45,2.1-.1.73-.15,1.4-.15,2,0,1.33.4,2.33,1.2,3,.8.67,2.13,1.13,4,1.4v.4h-10.4v-.4c1.13-.33,2.07-1.03,2.8-2.1.73-1.07,1.37-2.67,1.9-4.8l13.6-57.3.5-.1ZM1237.77,527.36v.6h-18l.1-.6h17.9ZM1226.37,489.25c-.27-1.2-.58-2.05-.95-2.55-.37-.5-.95-.92-1.75-1.25v-.3h14.9l14,62.3c.33,1.47.68,2.75,1.05,3.85.37,1.1.87,1.97,1.5,2.6.63.63,1.35,1.08,2.15,1.35v.4h-20v-.4c1.07-.27,1.83-.73,2.3-1.4.47-.67.7-1.43.7-2.3,0-.6-.05-1.22-.15-1.85-.1-.63-.22-1.25-.35-1.85l-13.4-58.6Z"/>
    <path class="cls-3" d="M1214.57,588.15c0-2.67-.2-4.77-.6-6.3-.4-1.53-1.47-2.83-3.2-3.9v-.3h21.5c5.53,0,10.08,1.05,13.65,3.15,3.57,2.1,6.22,5.05,7.95,8.85,1.73,3.8,2.6,8.2,2.6,13.2s-.83,9.12-2.5,12.95c-1.67,3.83-4.27,6.85-7.8,9.05-3.53,2.2-8.17,3.3-13.9,3.3h-5v8.9c0,2.73.37,4.92,1.1,6.55.73,1.63,2.27,2.85,4.6,3.65v.4h-22.2v-.4c1.73-1,2.8-2.28,3.2-3.85.4-1.57.6-3.68.6-6.35v-48.9ZM1227.27,627.56h4.3c2.33,0,4.23-.68,5.7-2.05,1.46-1.37,2.58-3.18,3.35-5.45.77-2.27,1.32-4.88,1.65-7.85.33-2.97.5-6.08.5-9.35s-.17-6.48-.5-9.45c-.33-2.97-.88-5.58-1.65-7.85-.77-2.27-1.88-4.05-3.35-5.35-1.47-1.3-3.4-1.95-5.8-1.95h-4.2v49.3Z"/>
    <path class="cls-3" d="M1217.87,702.95c-1.33-1.4-2.6-3-3.8-4.8s-2.13-3.72-2.8-5.75c-.67-2.03-1-4.18-1-6.45,0-2.6.42-4.98,1.25-7.15.83-2.17,2.12-4,3.85-5.5,1.73-1.5,3.85-2.63,6.35-3.4,2.5-.77,5.35-1.15,8.55-1.15,1.73,0,3.37.13,4.9.4,1.53.27,3.03.65,4.5,1.15,1.47.5,2.77,1.05,3.9,1.65v11.7h-.4c-.27-1.4-.62-2.82-1.05-4.25-.43-1.43-1-2.72-1.7-3.85-.7-1.13-1.48-2.17-2.35-3.1-.87-.93-1.92-1.67-3.15-2.2-1.23-.53-2.62-.8-4.15-.8-1.73,0-3.25.27-4.55.8-1.3.54-2.33,1.29-3.1,2.25-.77.97-1.33,2.05-1.7,3.25-.37,1.2-.55,2.5-.55,3.9,0,2.2.35,4.17,1.05,5.9.7,1.73,1.55,3.32,2.55,4.75s2.1,2.78,3.3,4.05l9.1,10.4c1.67,1.54,3.07,3.22,4.2,5.05,1.13,1.83,2.02,3.73,2.65,5.7.63,1.97.95,4.12.95,6.45,0,2.8-.47,5.33-1.4,7.6-.93,2.27-2.29,4.18-4.05,5.75-1.77,1.57-3.88,2.77-6.35,3.6-2.47.83-5.23,1.25-8.3,1.25-1.67,0-3.28-.13-4.85-.4s-3.1-.67-4.6-1.2c-1.5-.53-2.72-1.13-3.65-1.8v-11.4h.3c.13,1.67.45,3.25.95,4.75s1.12,2.82,1.85,3.95c.73,1.13,1.55,2.12,2.45,2.95.9.83,1.98,1.45,3.25,1.85,1.27.4,2.53.6,3.8.6,1.87,0,3.45-.27,4.75-.8,1.3-.53,2.37-1.3,3.2-2.3.83-1,1.46-2.17,1.9-3.5.43-1.33.65-2.73.65-4.2,0-2.07-.33-3.97-1-5.7-.67-1.73-1.58-3.43-2.75-5.1-1.17-1.67-2.52-3.3-4.05-4.9l-8.9-10Z"/>
  </g>
  <g>
    <path class="cls-3" d="M244.72,35.56c0-2-.18-3.65-.55-4.95-.37-1.3-.97-2.33-1.8-3.1-.83-.77-2.25-1.25-4.25-1.45v-.3h10.7v.3c-1.6.73-2.62,1.78-3.05,3.15-.43,1.37-.65,3.42-.65,6.15v62.4h-.4l-41.8-67.6c-.8-1.13-1.5-2.02-2.1-2.65-.6-.63-1.3-1.12-2.1-1.45v-.3h14.1l32.1,53.1-.2.1v-43.4ZM204.92,29.75h.7v56.2c0,1.8.1,3.33.3,4.6.2,1.27.77,2.3,1.7,3.1s2.4,1.33,4.4,1.6v.4h-11v-.4c1.8-.67,2.9-1.71,3.3-3.15.4-1.43.6-3.48.6-6.15V29.75Z"/>
    <path class="cls-3" d="M226.82,188.06c-4.2,0-7.83-.65-10.9-1.95-3.07-1.3-5.62-3.08-7.65-5.35-2.03-2.27-3.7-4.88-5-7.85-1.3-2.97-2.22-6.22-2.75-9.75-.53-3.53-.8-7.1-.8-10.7s.27-7.22.8-10.65c.53-3.43,1.45-6.67,2.75-9.7,1.3-3.03,2.95-5.68,4.95-7.95,2-2.27,4.53-4.07,7.6-5.4,3.07-1.33,6.73-2,11-2s7.93.67,11,2c3.07,1.33,5.62,3.13,7.65,5.4,2.03,2.27,3.68,4.92,4.95,7.95,1.27,3.03,2.17,6.27,2.7,9.7.53,3.43.8,6.98.8,10.65s-.27,7.17-.8,10.7c-.53,3.53-1.43,6.8-2.7,9.8-1.27,3-2.92,5.62-4.95,7.85-2.03,2.23-4.58,4-7.65,5.3-3.07,1.3-6.73,1.95-11,1.95ZM226.82,187.56c2.73,0,5-.58,6.8-1.75,1.8-1.17,3.3-2.83,4.5-5,1.2-2.17,2.1-4.72,2.7-7.65.6-2.93,1.03-6.17,1.3-9.7.27-3.53.4-7.2.4-11s-.13-7.53-.4-11c-.27-3.47-.7-6.67-1.3-9.6-.6-2.93-1.5-5.48-2.7-7.65-1.2-2.17-2.7-3.83-4.5-5-1.8-1.17-4.07-1.75-6.8-1.75s-4.93.58-6.8,1.75c-1.87,1.17-3.38,2.83-4.55,5-1.17,2.17-2.07,4.72-2.7,7.65-.63,2.93-1.03,6.13-1.2,9.6-.17,3.47-.25,7.13-.25,11s.08,7.38.25,10.95c.17,3.57.57,6.8,1.2,9.7.63,2.9,1.53,5.45,2.7,7.65,1.17,2.2,2.68,3.88,4.55,5.05,1.87,1.17,4.13,1.75,6.8,1.75Z"/>
    <path class="cls-3" d="M201.92,216.86c-.67-1.8-1.25-3.25-1.75-4.35-.5-1.1-1.15-1.95-1.95-2.55v-.3h17.3v.3c-1.27.33-2.1.8-2.5,1.4-.4.6-.6,1.3-.6,2.1,0,.53.02,1.08.05,1.65.03.57.25,1.18.65,1.85l15.5,47.7-1.2,2.1,14.9-46.6c.4-1.13.72-2.23.95-3.3.23-1.07.35-2.03.35-2.9,0-1.07-.33-1.93-1-2.6-.67-.67-1.9-1.13-3.7-1.4v-.3h10v.3c-.8.27-1.48.68-2.05,1.25-.57.57-1.07,1.25-1.5,2.05-.43.8-.82,1.83-1.15,3.1l-20.5,65h-.5l-21.3-64.5Z"/>
    <path class="cls-3" d="M221.52,306.95l-17.4,56.5c-.2.73-.35,1.42-.45,2.05-.1.63-.15,1.25-.15,1.85,0,1.2.35,2.08,1.05,2.65.7.57,1.82.98,3.35,1.25v.4h-9.4v-.4c1-.33,1.9-1.02,2.7-2.05.8-1.03,1.5-2.58,2.1-4.65l17.5-57.6h.7ZM232.82,343.36v.6h-22.7v-.6h22.7ZM218.52,305.25c-.4-1.13-.8-1.96-1.2-2.5-.4-.53-.9-.96-1.5-1.3v-.5h12.1l19.3,63c.4,1.4.85,2.62,1.35,3.65.5,1.03,1.03,1.83,1.6,2.4.57.57,1.25.98,2.05,1.25v.4h-17.7v-.4c1-.2,1.72-.6,2.15-1.2.43-.6.65-1.23.65-1.9,0-.6-.08-1.2-.25-1.8-.17-.6-.32-1.17-.45-1.7l-18.1-59.4Z"/>
    <path class="cls-3" d="M199.72,428.56c0-4,.37-7.8,1.1-11.4.73-3.6,1.83-6.88,3.3-9.85,1.47-2.97,3.35-5.55,5.65-7.75,2.3-2.2,5.13-3.87,8.5-5,3.37-1.13,7.32-1.7,11.85-1.7,1.93,0,3.83.15,5.7.45,1.87.3,3.65.75,5.35,1.35,1.7.6,3.21,1.33,4.55,2.2v10h-.5c-.33-1.67-.85-3.2-1.55-4.6-.7-1.4-1.5-2.62-2.4-3.65-.9-1.03-1.88-1.97-2.95-2.8-1.07-.83-2.28-1.43-3.65-1.8-1.37-.37-2.85-.55-4.45-.55-3.6,0-6.63.85-9.1,2.55-2.47,1.7-4.4,4.12-5.8,7.25-1.4,3.13-2.42,6.83-3.05,11.1-.63,4.27-.95,9-.95,14.2s.33,9.92,1,14.15c.67,4.23,1.67,7.93,3,11.1,1.33,3.17,3.23,5.58,5.7,7.25,2.47,1.67,5.53,2.5,9.2,2.5,1.33,0,2.7-.15,4.1-.45,1.4-.3,2.68-.75,3.85-1.35,1.17-.6,2.2-1.38,3.1-2.35.9-.97,1.68-2.08,2.35-3.35.67-1.27,1.1-2.67,1.3-4.2h.5v9c-1.47.67-3.05,1.23-4.75,1.7-1.7.47-3.45.85-5.25,1.15-1.8.3-3.57.45-5.3.45-4.53,0-8.47-.6-11.8-1.8-3.33-1.2-6.17-2.88-8.5-5.05-2.33-2.17-4.23-4.73-5.7-7.7-1.47-2.97-2.57-6.23-3.3-9.8-.73-3.57-1.1-7.32-1.1-11.25Z"/>
    <path class="cls-3" d="M221.52,490.95l-17.4,56.5c-.2.73-.35,1.42-.45,2.05-.1.63-.15,1.25-.15,1.85,0,1.2.35,2.08,1.05,2.65.7.57,1.82.98,3.35,1.25v.4h-9.4v-.4c1-.33,1.9-1.02,2.7-2.05.8-1.03,1.5-2.58,2.1-4.65l17.5-57.6h.7ZM232.82,527.36v.6h-22.7v-.6h22.7ZM218.52,489.25c-.4-1.13-.8-1.96-1.2-2.5-.4-.53-.9-.96-1.5-1.3v-.5h12.1l19.3,63c.4,1.4.85,2.62,1.35,3.65.5,1.03,1.03,1.83,1.6,2.4.57.57,1.25.98,2.05,1.25v.4h-17.7v-.4c1-.2,1.72-.6,2.15-1.2.43-.6.65-1.23.65-1.9,0-.6-.08-1.2-.25-1.8-.17-.6-.32-1.17-.45-1.7l-18.1-59.4Z"/>
    <path class="cls-3" d="M203.22,587.45c0-2.6-.2-4.62-.6-6.05-.4-1.43-1.4-2.55-3-3.35v-.4h22.8c5.87,0,10.67,1.03,14.4,3.1,3.73,2.07,6.52,4.98,8.35,8.75,1.83,3.77,2.75,8.25,2.75,13.45s-.88,9.38-2.65,13.15c-1.77,3.77-4.53,6.72-8.3,8.85-3.77,2.13-8.62,3.2-14.55,3.2h-8.6v9.8c0,2.6.32,4.63.95,6.1.63,1.47,1.95,2.53,3.95,3.2v.4h-19.1v-.4c1.6-.87,2.6-2.02,3-3.45.4-1.43.6-3.38.6-5.85v-50.5ZM213.82,627.56h7.5c2.87,0,5.3-.63,7.3-1.9,2-1.27,3.6-2.98,4.8-5.15,1.2-2.17,2.03-4.75,2.5-7.75.46-3,.7-6.27.7-9.8s-.22-6.9-.65-9.9c-.43-3-1.25-5.62-2.45-7.85-1.2-2.23-2.8-3.97-4.8-5.2-2-1.23-4.5-1.85-7.5-1.85h-7.4v49.4Z"/>
    <path class="cls-3" d="M209.72,703.65c-1.8-1.47-3.48-3.05-5.05-4.75-1.57-1.7-2.8-3.63-3.7-5.8-.9-2.17-1.35-4.62-1.35-7.35s.47-4.95,1.4-7.05c.93-2.1,2.27-3.88,4-5.35,1.73-1.47,3.93-2.6,6.6-3.4,2.67-.8,5.7-1.2,9.1-1.2,2,0,3.95.17,5.85.5,1.9.33,3.63.77,5.2,1.3,1.57.53,3.02,1.2,4.35,2v9.9h-.5c-.27-1.4-.68-2.73-1.25-4-.57-1.27-1.27-2.45-2.1-3.55-.83-1.1-1.78-2.08-2.85-2.95-1.07-.87-2.29-1.52-3.65-1.95-1.37-.43-2.92-.65-4.65-.65-2.2,0-4.1.3-5.7.9-1.6.6-2.95,1.43-4.05,2.5-1.1,1.07-1.88,2.37-2.35,3.9-.47,1.53-.7,3.17-.7,4.9,0,2.13.38,4.03,1.15,5.7.77,1.67,1.83,3.15,3.2,4.45,1.37,1.3,2.75,2.65,4.15,4.05l10.4,8.4c2.07,1.6,3.85,3.28,5.35,5.05,1.5,1.77,2.72,3.7,3.65,5.8.93,2.1,1.4,4.52,1.4,7.25s-.5,5.3-1.5,7.5c-1,2.2-2.43,4.07-4.3,5.6-1.87,1.53-4.17,2.72-6.9,3.55-2.73.83-5.67,1.25-8.8,1.25-2,0-3.97-.17-5.9-.5-1.93-.33-3.77-.77-5.5-1.3-1.73-.53-3.13-1.17-4.2-1.9v-10.1h.4c.13,1.6.5,3.1,1.1,4.5.6,1.4,1.37,2.63,2.3,3.7.93,1.07,1.97,1.97,3.1,2.7,1.13.73,2.43,1.3,3.9,1.7,1.47.4,3,.6,4.6.6,2.27,0,4.21-.3,5.85-.9,1.63-.6,3-1.43,4.1-2.5,1.1-1.07,1.97-2.37,2.6-3.9.63-1.53.95-3.17.95-4.9,0-2.4-.42-4.47-1.25-6.2-.83-1.73-1.95-3.33-3.35-4.8-1.4-1.47-3.03-2.93-4.9-4.4l-10.2-8.3Z"/>
  </g>
  <g>
    <path class="cls-3" d="M1156.98,35.56c0-2-.18-3.65-.55-4.95-.37-1.3-.97-2.33-1.8-3.1-.83-.77-2.25-1.25-4.25-1.45v-.3h10.7v.3c-1.6.73-2.62,1.78-3.05,3.15-.43,1.37-.65,3.42-.65,6.15v62.4h-.4l-41.8-67.6c-.8-1.13-1.5-2.02-2.1-2.65-.6-.63-1.3-1.12-2.1-1.45v-.3h14.1l32.1,53.1-.2.1v-43.4ZM1117.18,29.75h.7v56.2c0,1.8.1,3.33.3,4.6.2,1.27.77,2.3,1.7,3.1s2.4,1.33,4.4,1.6v.4h-11v-.4c1.8-.67,2.9-1.71,3.3-3.15.4-1.43.6-3.48.6-6.15V29.75Z"/>
    <path class="cls-3" d="M1139.08,188.06c-4.2,0-7.83-.65-10.9-1.95-3.07-1.3-5.62-3.08-7.65-5.35-2.03-2.27-3.7-4.88-5-7.85-1.3-2.97-2.22-6.22-2.75-9.75-.53-3.53-.8-7.1-.8-10.7s.27-7.22.8-10.65c.53-3.43,1.45-6.67,2.75-9.7,1.3-3.03,2.95-5.68,4.95-7.95,2-2.27,4.53-4.07,7.6-5.4,3.07-1.33,6.73-2,11-2s7.93.67,11,2c3.07,1.33,5.62,3.13,7.65,5.4,2.03,2.27,3.68,4.92,4.95,7.95,1.27,3.03,2.17,6.27,2.7,9.7.53,3.43.8,6.98.8,10.65s-.27,7.17-.8,10.7c-.53,3.53-1.43,6.8-2.7,9.8-1.27,3-2.92,5.62-4.95,7.85-2.03,2.23-4.58,4-7.65,5.3-3.07,1.3-6.73,1.95-11,1.95ZM1139.08,187.56c2.73,0,5-.58,6.8-1.75,1.8-1.17,3.3-2.83,4.5-5,1.2-2.17,2.1-4.72,2.7-7.65.6-2.93,1.03-6.17,1.3-9.7.27-3.53.4-7.2.4-11s-.13-7.53-.4-11c-.27-3.47-.7-6.67-1.3-9.6-.6-2.93-1.5-5.48-2.7-7.65-1.2-2.17-2.7-3.83-4.5-5-1.8-1.17-4.07-1.75-6.8-1.75s-4.93.58-6.8,1.75c-1.87,1.17-3.38,2.83-4.55,5-1.17,2.17-2.07,4.72-2.7,7.65-.63,2.93-1.03,6.13-1.2,9.6-.17,3.47-.25,7.13-.25,11s.08,7.38.25,10.95c.17,3.57.57,6.8,1.2,9.7.63,2.9,1.53,5.45,2.7,7.65,1.17,2.2,2.68,3.88,4.55,5.05,1.87,1.17,4.13,1.75,6.8,1.75Z"/>
    <path class="cls-3" d="M1114.18,216.86c-.67-1.8-1.25-3.25-1.75-4.35-.5-1.1-1.15-1.95-1.95-2.55v-.3h17.3v.3c-1.27.33-2.1.8-2.5,1.4-.4.6-.6,1.3-.6,2.1,0,.53.02,1.08.05,1.65.03.57.25,1.18.65,1.85l15.5,47.7-1.2,2.1,14.9-46.6c.4-1.13.72-2.23.95-3.3.23-1.07.35-2.03.35-2.9,0-1.07-.33-1.93-1-2.6-.67-.67-1.9-1.13-3.7-1.4v-.3h10v.3c-.8.27-1.48.68-2.05,1.25-.57.57-1.07,1.25-1.5,2.05-.43.8-.82,1.83-1.15,3.1l-20.5,65h-.5l-21.3-64.5Z"/>
    <path class="cls-3" d="M1133.78,306.95l-17.4,56.5c-.2.73-.35,1.42-.45,2.05-.1.63-.15,1.25-.15,1.85,0,1.2.35,2.08,1.05,2.65.7.57,1.82.98,3.35,1.25v.4h-9.4v-.4c1-.33,1.9-1.02,2.7-2.05.8-1.03,1.5-2.58,2.1-4.65l17.5-57.6h.7ZM1145.08,343.36v.6h-22.7v-.6h22.7ZM1130.78,305.25c-.4-1.13-.8-1.96-1.2-2.5-.4-.53-.9-.96-1.5-1.3v-.5h12.1l19.3,63c.4,1.4.85,2.62,1.35,3.65.5,1.03,1.03,1.83,1.6,2.4.57.57,1.25.98,2.05,1.25v.4h-17.7v-.4c1-.2,1.72-.6,2.15-1.2.43-.6.65-1.23.65-1.9,0-.6-.08-1.2-.25-1.8-.17-.6-.32-1.17-.45-1.7l-18.1-59.4Z"/>
    <path class="cls-3" d="M1111.98,428.56c0-4,.37-7.8,1.1-11.4.73-3.6,1.83-6.88,3.3-9.85,1.47-2.97,3.35-5.55,5.65-7.75,2.3-2.2,5.13-3.87,8.5-5,3.37-1.13,7.32-1.7,11.85-1.7,1.93,0,3.83.15,5.7.45,1.87.3,3.65.75,5.35,1.35,1.7.6,3.21,1.33,4.55,2.2v10h-.5c-.33-1.67-.85-3.2-1.55-4.6-.7-1.4-1.5-2.62-2.4-3.65-.9-1.03-1.88-1.97-2.95-2.8-1.07-.83-2.28-1.43-3.65-1.8-1.37-.37-2.85-.55-4.45-.55-3.6,0-6.63.85-9.1,2.55-2.47,1.7-4.4,4.12-5.8,7.25-1.4,3.13-2.42,6.83-3.05,11.1-.63,4.27-.95,9-.95,14.2s.33,9.92,1,14.15c.67,4.23,1.67,7.93,3,11.1,1.33,3.17,3.23,5.58,5.7,7.25,2.47,1.67,5.53,2.5,9.2,2.5,1.33,0,2.7-.15,4.1-.45,1.4-.3,2.68-.75,3.85-1.35,1.17-.6,2.2-1.38,3.1-2.35.9-.97,1.68-2.08,2.35-3.35.67-1.27,1.1-2.67,1.3-4.2h.5v9c-1.47.67-3.05,1.23-4.75,1.7-1.7.47-3.45.85-5.25,1.15-1.8.3-3.57.45-5.3.45-4.53,0-8.47-.6-11.8-1.8-3.33-1.2-6.17-2.88-8.5-5.05-2.33-2.17-4.23-4.73-5.7-7.7-1.47-2.97-2.57-6.23-3.3-9.8-.73-3.57-1.1-7.32-1.1-11.25Z"/>
    <path class="cls-3" d="M1133.78,490.95l-17.4,56.5c-.2.73-.35,1.42-.45,2.05-.1.63-.15,1.25-.15,1.85,0,1.2.35,2.08,1.05,2.65.7.57,1.82.98,3.35,1.25v.4h-9.4v-.4c1-.33,1.9-1.02,2.7-2.05.8-1.03,1.5-2.58,2.1-4.65l17.5-57.6h.7ZM1145.08,527.36v.6h-22.7v-.6h22.7ZM1130.78,489.25c-.4-1.13-.8-1.96-1.2-2.5-.4-.53-.9-.96-1.5-1.3v-.5h12.1l19.3,63c.4,1.4.85,2.62,1.35,3.65.5,1.03,1.03,1.83,1.6,2.4.57.57,1.25.98,2.05,1.25v.4h-17.7v-.4c1-.2,1.72-.6,2.15-1.2.43-.6.65-1.23.65-1.9,0-.6-.08-1.2-.25-1.8-.17-.6-.32-1.17-.45-1.7l-18.1-59.4Z"/>
    <path class="cls-3" d="M1115.48,587.45c0-2.6-.2-4.62-.6-6.05-.4-1.43-1.4-2.55-3-3.35v-.4h22.8c5.87,0,10.67,1.03,14.4,3.1,3.73,2.07,6.52,4.98,8.35,8.75,1.83,3.77,2.75,8.25,2.75,13.45s-.88,9.38-2.65,13.15c-1.77,3.77-4.53,6.72-8.3,8.85-3.77,2.13-8.62,3.2-14.55,3.2h-8.6v9.8c0,2.6.32,4.63.95,6.1.63,1.47,1.95,2.53,3.95,3.2v.4h-19.1v-.4c1.6-.87,2.6-2.02,3-3.45.4-1.43.6-3.38.6-5.85v-50.5ZM1126.08,627.56h7.5c2.87,0,5.3-.63,7.3-1.9,2-1.27,3.6-2.98,4.8-5.15,1.2-2.17,2.03-4.75,2.5-7.75.46-3,.7-6.27.7-9.8s-.22-6.9-.65-9.9c-.43-3-1.25-5.62-2.45-7.85-1.2-2.23-2.8-3.97-4.8-5.2-2-1.23-4.5-1.85-7.5-1.85h-7.4v49.4Z"/>
    <path class="cls-3" d="M1121.98,703.65c-1.8-1.47-3.48-3.05-5.05-4.75-1.57-1.7-2.8-3.63-3.7-5.8-.9-2.17-1.35-4.62-1.35-7.35s.47-4.95,1.4-7.05c.93-2.1,2.27-3.88,4-5.35,1.73-1.47,3.93-2.6,6.6-3.4,2.67-.8,5.7-1.2,9.1-1.2,2,0,3.95.17,5.85.5,1.9.33,3.63.77,5.2,1.3,1.57.53,3.02,1.2,4.35,2v9.9h-.5c-.27-1.4-.68-2.73-1.25-4-.57-1.27-1.27-2.45-2.1-3.55-.83-1.1-1.78-2.08-2.85-2.95-1.07-.87-2.29-1.52-3.65-1.95-1.37-.43-2.92-.65-4.65-.65-2.2,0-4.1.3-5.7.9-1.6.6-2.95,1.43-4.05,2.5-1.1,1.07-1.88,2.37-2.35,3.9-.47,1.53-.7,3.17-.7,4.9,0,2.13.38,4.03,1.15,5.7.77,1.67,1.83,3.15,3.2,4.45,1.37,1.3,2.75,2.65,4.15,4.05l10.4,8.4c2.07,1.6,3.85,3.28,5.35,5.05,1.5,1.77,2.72,3.7,3.65,5.8.93,2.1,1.4,4.52,1.4,7.25s-.5,5.3-1.5,7.5c-1,2.2-2.43,4.07-4.3,5.6-1.87,1.53-4.17,2.72-6.9,3.55-2.73.83-5.67,1.25-8.8,1.25-2,0-3.97-.17-5.9-.5-1.93-.33-3.77-.77-5.5-1.3-1.73-.53-3.13-1.17-4.2-1.9v-10.1h.4c.13,1.6.5,3.1,1.1,4.5.6,1.4,1.37,2.63,2.3,3.7.93,1.07,1.97,1.97,3.1,2.7,1.13.73,2.43,1.3,3.9,1.7,1.47.4,3,.6,4.6.6,2.27,0,4.21-.3,5.85-.9,1.63-.6,3-1.43,4.1-2.5,1.1-1.07,1.97-2.37,2.6-3.9.63-1.53.95-3.17.95-4.9,0-2.4-.42-4.47-1.25-6.2-.83-1.73-1.95-3.33-3.35-4.8-1.4-1.47-3.03-2.93-4.9-4.4l-10.2-8.3Z"/>
  </g>
  <g>
    <path class="cls-3" d="M357,34.86c0-1.93-.13-3.52-.4-4.75-.27-1.23-.83-2.17-1.7-2.8-.87-.63-2.33-1.08-4.4-1.35v-.4h10.9v.4c-1.47.6-2.48,1.55-3.05,2.85-.57,1.3-.85,3.22-.85,5.75v63h-.3l-54.8-68.1c-.67-1-1.28-1.73-1.85-2.2-.57-.46-1.22-.9-1.95-1.3v-.4h11.9l46.8,58.9-.3.3v-49.9ZM305.1,29.15h.6v57.1c0,1.93.1,3.52.3,4.75.2,1.23.78,2.18,1.75,2.85.97.67,2.42,1.2,4.35,1.6v.2h-11.2v-.2c1.87-.67,3.03-1.67,3.5-3,.47-1.33.7-3.3.7-5.9V29.15Z"/>
    <path class="cls-3" d="M333.3,187.95c-5.2,0-9.73-.62-13.6-1.85-3.87-1.23-7.1-2.98-9.7-5.25-2.6-2.27-4.68-4.9-6.25-7.9-1.57-3-2.68-6.25-3.35-9.75-.67-3.5-1-7.12-1-10.85s.32-7.25.95-10.75c.63-3.5,1.73-6.75,3.3-9.75,1.57-3,3.67-5.63,6.3-7.9,2.63-2.27,5.87-4.02,9.7-5.25,3.83-1.23,8.42-1.85,13.75-1.85s9.82.62,13.65,1.85c3.83,1.23,7.07,2.98,9.7,5.25,2.63,2.27,4.73,4.9,6.3,7.9s2.7,6.25,3.4,9.75,1.05,7.08,1.05,10.75-.35,7.45-1.05,10.95-1.83,6.75-3.4,9.75-3.67,5.62-6.3,7.85c-2.63,2.23-5.88,3.97-9.75,5.2-3.87,1.23-8.43,1.85-13.7,1.85ZM333.3,187.56c4.13,0,7.67-.63,10.6-1.9,2.93-1.27,5.32-2.98,7.15-5.15,1.83-2.17,3.3-4.7,4.4-7.6s1.85-6.12,2.25-9.65c.4-3.53.6-7.17.6-10.9s-.2-7.38-.6-10.75c-.4-3.37-1.15-6.55-2.25-9.55s-2.57-5.6-4.4-7.8c-1.83-2.2-4.22-3.9-7.15-5.1-2.93-1.2-6.43-1.8-10.5-1.8s-7.65.6-10.55,1.8c-2.9,1.2-5.27,2.9-7.1,5.1-1.83,2.2-3.3,4.8-4.4,7.8-1.1,3-1.88,6.18-2.35,9.55-.47,3.37-.7,6.95-.7,10.75s.23,7.43.7,10.9c.47,3.47,1.25,6.67,2.35,9.6,1.1,2.93,2.57,5.52,4.4,7.75,1.83,2.23,4.22,3.95,7.15,5.15,2.93,1.2,6.4,1.8,10.4,1.8Z"/>
    <path class="cls-3" d="M301.7,216.15c-.8-1.8-1.48-3.22-2.05-4.25-.57-1.03-1.32-1.72-2.25-2.05v-.3h15.4v.3c-1.13.2-1.9.58-2.3,1.15-.4.57-.6,1.22-.6,1.95,0,.4.1.92.3,1.55.2.63.43,1.29.7,1.95l24.8,55-1.2,1.9,23.1-53.8c.46-1.2.9-2.33,1.3-3.4.4-1.07.6-1.97.6-2.7,0-1.2-.38-2.03-1.15-2.5-.77-.47-2.02-.83-3.75-1.1v-.3h10.4v.3c-.73.2-1.4.58-2,1.15-.6.57-1.15,1.27-1.65,2.1-.5.83-1.05,1.85-1.65,3.05l-28.1,65.1h-.3l-29.6-65.1Z"/>
    <path class="cls-3" d="M329.7,307.95l-25.9,56.3c-.33.67-.58,1.3-.75,1.9-.17.6-.25,1.2-.25,1.8,0,.93.32,1.67.95,2.2.63.53,1.78.97,3.45,1.3v.2h-9.6v-.2c1.13-.47,2.07-1.17,2.8-2.1.73-.93,1.47-2.3,2.2-4.1l26.4-57.3h.7ZM345.6,343.45v.6h-32.8l.2-.6h32.6ZM324.6,305.15c-.54-1.13-1-1.95-1.4-2.45s-.93-.92-1.6-1.25v-.6h10.1l30.4,63.4c.67,1.33,1.3,2.5,1.9,3.5.6,1,1.22,1.79,1.85,2.35.63.57,1.28,1.02,1.95,1.35v.2h-15.8v-.2c.87-.33,1.48-.73,1.85-1.2.37-.46.55-1,.55-1.6,0-.47-.07-.95-.2-1.45-.13-.5-.3-1.05-.5-1.65l-29.1-60.4Z"/>
    <path class="cls-3" d="M299.4,428.45c0-4.2.42-8.15,1.25-11.85.83-3.7,2.18-6.98,4.05-9.85,1.87-2.87,4.23-5.37,7.1-7.5,2.87-2.13,6.3-3.75,10.3-4.85s8.57-1.65,13.7-1.65c2.93,0,5.8.2,8.6.6,2.8.4,5.4.97,7.8,1.7,2.4.73,4.6,1.7,6.6,2.9v8.7h-.5c-.53-1.8-1.28-3.43-2.25-4.9-.97-1.46-2.15-2.73-3.55-3.8-1.4-1.07-3.02-1.92-4.85-2.55-1.83-.63-3.72-1.15-5.65-1.55-1.93-.4-3.93-.6-6-.6-4.93,0-9.12.88-12.55,2.65-3.43,1.77-6.28,4.2-8.55,7.3-2.27,3.1-3.93,6.78-5,11.05-1.07,4.27-1.6,9-1.6,14.2s.53,10.05,1.6,14.35c1.07,4.3,2.72,8,4.95,11.1,2.23,3.1,5.12,5.5,8.65,7.2,3.53,1.7,7.67,2.55,12.4,2.55,2.07,0,4.05-.13,5.95-.4,1.9-.27,3.77-.71,5.6-1.35,1.83-.63,3.47-1.42,4.9-2.35,1.43-.93,2.68-2.07,3.75-3.4,1.07-1.33,1.7-2.83,1.9-4.5h.5v8.1c-1.8.8-3.93,1.57-6.4,2.3-2.47.73-5.1,1.27-7.9,1.6s-5.63.5-8.5.5c-5.13,0-9.68-.55-13.65-1.65-3.97-1.1-7.38-2.73-10.25-4.9-2.87-2.17-5.23-4.7-7.1-7.6-1.87-2.9-3.22-6.18-4.05-9.85-.83-3.67-1.25-7.57-1.25-11.7Z"/>
    <path class="cls-3" d="M329.7,491.95l-25.9,56.3c-.33.67-.58,1.3-.75,1.9-.17.6-.25,1.2-.25,1.8,0,.93.32,1.67.95,2.2.63.53,1.78.97,3.45,1.3v.2h-9.6v-.2c1.13-.47,2.07-1.17,2.8-2.1.73-.93,1.47-2.3,2.2-4.1l26.4-57.3h.7ZM345.6,527.45v.6h-32.8l.2-.6h32.6ZM324.6,489.15c-.54-1.13-1-1.95-1.4-2.45s-.93-.92-1.6-1.25v-.6h10.1l30.4,63.4c.67,1.33,1.3,2.5,1.9,3.5.6,1,1.22,1.79,1.85,2.35.63.57,1.28,1.02,1.95,1.35v.2h-15.8v-.2c.87-.33,1.48-.73,1.85-1.2.37-.46.55-1,.55-1.6,0-.47-.07-.95-.2-1.45-.13-.5-.3-1.05-.5-1.65l-29.1-60.4Z"/>
    <path class="cls-3" d="M302.9,586.36c0-2.27-.22-4.05-.65-5.35-.43-1.3-1.42-2.32-2.95-3.05v-.4h32.2c6.07,0,11.13,1,15.2,3,4.07,2,7.07,4.9,9,8.7,1.93,3.8,2.9,8.37,2.9,13.7s-.97,9.78-2.9,13.55c-1.93,3.77-4.9,6.65-8.9,8.65s-9.1,3-15.3,3h-20.4v10.7c0,2.47.28,4.33.85,5.6.57,1.27,1.85,2.23,3.85,2.9v.3h-16.5v-.3c1.53-.8,2.52-1.83,2.95-3.1.43-1.27.65-3.07.65-5.4v-52.5ZM311.1,627.65h19.2c3.47,0,6.45-.58,8.95-1.75,2.5-1.17,4.52-2.85,6.05-5.05,1.53-2.2,2.65-4.8,3.35-7.8s1.05-6.37,1.05-10.1-.35-7.22-1.05-10.25c-.7-3.03-1.82-5.63-3.35-7.8-1.53-2.17-3.55-3.85-6.05-5.05s-5.52-1.8-9.05-1.8h-19.1v49.6Z"/>
    <path class="cls-3" d="M314.1,704.06c-3-1.33-5.6-2.82-7.8-4.45-2.2-1.63-3.9-3.57-5.1-5.8-1.2-2.23-1.8-4.82-1.8-7.75,0-2.73.55-5.17,1.65-7.3,1.1-2.13,2.73-3.95,4.9-5.45,2.17-1.5,4.93-2.65,8.3-3.45,3.37-.8,7.32-1.2,11.85-1.2,3.13,0,6.05.22,8.75.65,2.7.43,5.2,1,7.5,1.7,2.3.7,4.32,1.48,6.05,2.35v8.8h-.3c-.47-1.53-1.17-2.97-2.1-4.3-.93-1.33-2.1-2.53-3.5-3.6-1.4-1.07-2.95-1.96-4.65-2.7-1.7-.73-3.55-1.3-5.55-1.7-2-.4-4.07-.6-6.2-.6-3,0-5.75.3-8.25.9s-4.63,1.45-6.4,2.55c-1.77,1.1-3.15,2.53-4.15,4.3-1,1.77-1.5,3.82-1.5,6.15s.53,4.33,1.6,6c1.07,1.67,2.53,3.1,4.4,4.3,1.87,1.2,3.97,2.3,6.3,3.3l16.8,7.1c2.93,1.27,5.52,2.68,7.75,4.25,2.23,1.57,4.03,3.5,5.4,5.8,1.37,2.3,2.05,5.02,2.05,8.15,0,2.87-.62,5.43-1.85,7.7-1.23,2.27-3,4.18-5.3,5.75-2.3,1.57-5.12,2.73-8.45,3.5-3.33.77-7.2,1.15-11.6,1.15-3.33,0-6.4-.2-9.2-.6-2.8-.4-5.37-.93-7.7-1.6-2.33-.67-4.3-1.43-5.9-2.3v-8.9h.4c.33,1.73.98,3.29,1.95,4.65.97,1.37,2.13,2.55,3.5,3.55,1.37,1,2.93,1.85,4.7,2.55,1.77.7,3.72,1.25,5.85,1.65,2.13.4,4.3.6,6.5.6,3.2,0,6.07-.33,8.6-1,2.53-.67,4.7-1.57,6.5-2.7,1.8-1.13,3.18-2.6,4.15-4.4.97-1.8,1.45-3.83,1.45-6.1,0-2.6-.53-4.78-1.6-6.55-1.07-1.77-2.57-3.27-4.5-4.5-1.93-1.23-4.17-2.45-6.7-3.65l-16.8-6.8Z"/>
  </g>
  <g>
    <path class="cls-3" d="M1056.2,34.86c0-1.93-.13-3.52-.4-4.75-.27-1.23-.83-2.17-1.7-2.8-.87-.63-2.33-1.08-4.4-1.35v-.4h10.9v.4c-1.47.6-2.48,1.55-3.05,2.85-.57,1.3-.85,3.22-.85,5.75v63h-.3l-54.8-68.1c-.67-1-1.28-1.73-1.85-2.2-.57-.46-1.22-.9-1.95-1.3v-.4h11.9l46.8,58.9-.3.3v-49.9ZM1004.3,29.15h.6v57.1c0,1.93.1,3.52.3,4.75.2,1.23.78,2.18,1.75,2.85.97.67,2.42,1.2,4.35,1.6v.2h-11.2v-.2c1.87-.67,3.03-1.67,3.5-3,.47-1.33.7-3.3.7-5.9V29.15Z"/>
    <path class="cls-3" d="M1032.5,187.95c-5.2,0-9.73-.62-13.6-1.85-3.87-1.23-7.1-2.98-9.7-5.25-2.6-2.27-4.68-4.9-6.25-7.9-1.57-3-2.68-6.25-3.35-9.75-.67-3.5-1-7.12-1-10.85s.32-7.25.95-10.75c.63-3.5,1.73-6.75,3.3-9.75,1.57-3,3.67-5.63,6.3-7.9,2.63-2.27,5.87-4.02,9.7-5.25,3.83-1.23,8.42-1.85,13.75-1.85s9.82.62,13.65,1.85c3.83,1.23,7.07,2.98,9.7,5.25,2.63,2.27,4.73,4.9,6.3,7.9s2.7,6.25,3.4,9.75,1.05,7.08,1.05,10.75-.35,7.45-1.05,10.95-1.83,6.75-3.4,9.75-3.67,5.62-6.3,7.85c-2.63,2.23-5.88,3.97-9.75,5.2-3.87,1.23-8.43,1.85-13.7,1.85ZM1032.5,187.56c4.13,0,7.67-.63,10.6-1.9,2.93-1.27,5.32-2.98,7.15-5.15,1.83-2.17,3.3-4.7,4.4-7.6s1.85-6.12,2.25-9.65c.4-3.53.6-7.17.6-10.9s-.2-7.38-.6-10.75c-.4-3.37-1.15-6.55-2.25-9.55s-2.57-5.6-4.4-7.8c-1.83-2.2-4.22-3.9-7.15-5.1-2.93-1.2-6.43-1.8-10.5-1.8s-7.65.6-10.55,1.8c-2.9,1.2-5.27,2.9-7.1,5.1-1.83,2.2-3.3,4.8-4.4,7.8-1.1,3-1.88,6.18-2.35,9.55-.47,3.37-.7,6.95-.7,10.75s.23,7.43.7,10.9c.47,3.47,1.25,6.67,2.35,9.6,1.1,2.93,2.57,5.52,4.4,7.75,1.83,2.23,4.22,3.95,7.15,5.15,2.93,1.2,6.4,1.8,10.4,1.8Z"/>
    <path class="cls-3" d="M1000.9,216.15c-.8-1.8-1.48-3.22-2.05-4.25-.57-1.03-1.32-1.72-2.25-2.05v-.3h15.4v.3c-1.13.2-1.9.58-2.3,1.15-.4.57-.6,1.22-.6,1.95,0,.4.1.92.3,1.55.2.63.43,1.29.7,1.95l24.8,55-1.2,1.9,23.1-53.8c.46-1.2.9-2.33,1.3-3.4.4-1.07.6-1.97.6-2.7,0-1.2-.38-2.03-1.15-2.5-.77-.47-2.02-.83-3.75-1.1v-.3h10.4v.3c-.73.2-1.4.58-2,1.15-.6.57-1.15,1.27-1.65,2.1-.5.83-1.05,1.85-1.65,3.05l-28.1,65.1h-.3l-29.6-65.1Z"/>
    <path class="cls-3" d="M1028.9,307.95l-25.9,56.3c-.33.67-.58,1.3-.75,1.9-.17.6-.25,1.2-.25,1.8,0,.93.32,1.67.95,2.2.63.53,1.78.97,3.45,1.3v.2h-9.6v-.2c1.13-.47,2.07-1.17,2.8-2.1.73-.93,1.47-2.3,2.2-4.1l26.4-57.3h.7ZM1044.8,343.45v.6h-32.8l.2-.6h32.6ZM1023.8,305.15c-.54-1.13-1-1.95-1.4-2.45s-.93-.92-1.6-1.25v-.6h10.1l30.4,63.4c.67,1.33,1.3,2.5,1.9,3.5.6,1,1.22,1.79,1.85,2.35.63.57,1.28,1.02,1.95,1.35v.2h-15.8v-.2c.87-.33,1.48-.73,1.85-1.2.37-.46.55-1,.55-1.6,0-.47-.07-.95-.2-1.45-.13-.5-.3-1.05-.5-1.65l-29.1-60.4Z"/>
    <path class="cls-3" d="M998.6,428.45c0-4.2.42-8.15,1.25-11.85.83-3.7,2.18-6.98,4.05-9.85,1.87-2.87,4.23-5.37,7.1-7.5,2.87-2.13,6.3-3.75,10.3-4.85s8.57-1.65,13.7-1.65c2.93,0,5.8.2,8.6.6,2.8.4,5.4.97,7.8,1.7,2.4.73,4.6,1.7,6.6,2.9v8.7h-.5c-.53-1.8-1.28-3.43-2.25-4.9-.97-1.46-2.15-2.73-3.55-3.8-1.4-1.07-3.02-1.92-4.85-2.55-1.83-.63-3.72-1.15-5.65-1.55-1.93-.4-3.93-.6-6-.6-4.93,0-9.12.88-12.55,2.65-3.43,1.77-6.28,4.2-8.55,7.3-2.27,3.1-3.93,6.78-5,11.05-1.07,4.27-1.6,9-1.6,14.2s.53,10.05,1.6,14.35c1.07,4.3,2.72,8,4.95,11.1,2.23,3.1,5.12,5.5,8.65,7.2,3.53,1.7,7.67,2.55,12.4,2.55,2.07,0,4.05-.13,5.95-.4,1.9-.27,3.77-.71,5.6-1.35,1.83-.63,3.47-1.42,4.9-2.35,1.43-.93,2.68-2.07,3.75-3.4,1.07-1.33,1.7-2.83,1.9-4.5h.5v8.1c-1.8.8-3.93,1.57-6.4,2.3-2.47.73-5.1,1.27-7.9,1.6s-5.63.5-8.5.5c-5.13,0-9.68-.55-13.65-1.65-3.97-1.1-7.38-2.73-10.25-4.9-2.87-2.17-5.23-4.7-7.1-7.6-1.87-2.9-3.22-6.18-4.05-9.85-.83-3.67-1.25-7.57-1.25-11.7Z"/>
    <path class="cls-3" d="M1028.9,491.95l-25.9,56.3c-.33.67-.58,1.3-.75,1.9-.17.6-.25,1.2-.25,1.8,0,.93.32,1.67.95,2.2.63.53,1.78.97,3.45,1.3v.2h-9.6v-.2c1.13-.47,2.07-1.17,2.8-2.1.73-.93,1.47-2.3,2.2-4.1l26.4-57.3h.7ZM1044.8,527.45v.6h-32.8l.2-.6h32.6ZM1023.8,489.15c-.54-1.13-1-1.95-1.4-2.45s-.93-.92-1.6-1.25v-.6h10.1l30.4,63.4c.67,1.33,1.3,2.5,1.9,3.5.6,1,1.22,1.79,1.85,2.35.63.57,1.28,1.02,1.95,1.35v.2h-15.8v-.2c.87-.33,1.48-.73,1.85-1.2.37-.46.55-1,.55-1.6,0-.47-.07-.95-.2-1.45-.13-.5-.3-1.05-.5-1.65l-29.1-60.4Z"/>
    <path class="cls-3" d="M1002.1,586.36c0-2.27-.22-4.05-.65-5.35-.43-1.3-1.42-2.32-2.95-3.05v-.4h32.2c6.07,0,11.13,1,15.2,3,4.07,2,7.07,4.9,9,8.7,1.93,3.8,2.9,8.37,2.9,13.7s-.97,9.78-2.9,13.55c-1.93,3.77-4.9,6.65-8.9,8.65s-9.1,3-15.3,3h-20.4v10.7c0,2.47.28,4.33.85,5.6.57,1.27,1.85,2.23,3.85,2.9v.3h-16.5v-.3c1.53-.8,2.52-1.83,2.95-3.1.43-1.27.65-3.07.65-5.4v-52.5ZM1010.3,627.65h19.2c3.47,0,6.45-.58,8.95-1.75,2.5-1.17,4.52-2.85,6.05-5.05,1.53-2.2,2.65-4.8,3.35-7.8s1.05-6.37,1.05-10.1-.35-7.22-1.05-10.25c-.7-3.03-1.82-5.63-3.35-7.8-1.53-2.17-3.55-3.85-6.05-5.05s-5.52-1.8-9.05-1.8h-19.1v49.6Z"/>
    <path class="cls-3" d="M1013.3,704.06c-3-1.33-5.6-2.82-7.8-4.45-2.2-1.63-3.9-3.57-5.1-5.8-1.2-2.23-1.8-4.82-1.8-7.75,0-2.73.55-5.17,1.65-7.3,1.1-2.13,2.73-3.95,4.9-5.45,2.17-1.5,4.93-2.65,8.3-3.45,3.37-.8,7.32-1.2,11.85-1.2,3.13,0,6.05.22,8.75.65,2.7.43,5.2,1,7.5,1.7,2.3.7,4.32,1.48,6.05,2.35v8.8h-.3c-.47-1.53-1.17-2.97-2.1-4.3-.93-1.33-2.1-2.53-3.5-3.6-1.4-1.07-2.95-1.96-4.65-2.7-1.7-.73-3.55-1.3-5.55-1.7-2-.4-4.07-.6-6.2-.6-3,0-5.75.3-8.25.9s-4.63,1.45-6.4,2.55c-1.77,1.1-3.15,2.53-4.15,4.3-1,1.77-1.5,3.82-1.5,6.15s.53,4.33,1.6,6c1.07,1.67,2.53,3.1,4.4,4.3,1.87,1.2,3.97,2.3,6.3,3.3l16.8,7.1c2.93,1.27,5.52,2.68,7.75,4.25,2.23,1.57,4.03,3.5,5.4,5.8,1.37,2.3,2.05,5.02,2.05,8.15,0,2.87-.62,5.43-1.85,7.7-1.23,2.27-3,4.18-5.3,5.75-2.3,1.57-5.12,2.73-8.45,3.5-3.33.77-7.2,1.15-11.6,1.15-3.33,0-6.4-.2-9.2-.6-2.8-.4-5.37-.93-7.7-1.6-2.33-.67-4.3-1.43-5.9-2.3v-8.9h.4c.33,1.73.98,3.29,1.95,4.65.97,1.37,2.13,2.55,3.5,3.55,1.37,1,2.93,1.85,4.7,2.55,1.77.7,3.72,1.25,5.85,1.65,2.13.4,4.3.6,6.5.6,3.2,0,6.07-.33,8.6-1,2.53-.67,4.7-1.57,6.5-2.7,1.8-1.13,3.18-2.6,4.15-4.4.97-1.8,1.45-3.83,1.45-6.1,0-2.6-.53-4.78-1.6-6.55-1.07-1.77-2.57-3.27-4.5-4.5-1.93-1.23-4.17-2.45-6.7-3.65l-16.8-6.8Z"/>
  </g>
  <g>
    <path class="cls-3" d="M952.42,34.36c0-1.8-.15-3.3-.45-4.5s-.87-2.08-1.7-2.65c-.83-.57-2.18-.98-4.05-1.25v-.4h10.5v.4c-1.53.47-2.55,1.33-3.05,2.6-.5,1.27-.75,3.1-.75,5.5v63.4h-.5l-60.8-68.5c-.53-.8-1.03-1.42-1.5-1.85-.47-.43-1.07-.78-1.8-1.05v-.5h9.2l55.3,62.4-.4.5v-54.1ZM894.62,28.86h.4v57.9c0,1.8.13,3.3.4,4.5.27,1.2.85,2.1,1.75,2.7.9.6,2.28,1.03,4.15,1.3v.4h-10.8v-.4c1.53-.53,2.6-1.4,3.2-2.6.6-1.2.9-3.03.9-5.5V28.86Z"/>
    <path class="cls-3" d="M926.12,188.15c-5.8,0-10.8-.65-15-1.95s-7.75-3.07-10.65-5.3c-2.9-2.23-5.18-4.83-6.85-7.8-1.67-2.97-2.92-6.2-3.75-9.7-.83-3.5-1.25-7.18-1.25-11.05s.42-7.35,1.25-10.85c.83-3.5,2.08-6.75,3.75-9.75,1.67-3,3.95-5.6,6.85-7.8,2.9-2.2,6.43-3.95,10.6-5.25,4.17-1.3,9.15-1.95,14.95-1.95s10.88.65,15.05,1.95c4.17,1.3,7.7,3.05,10.6,5.25s5.2,4.8,6.9,7.8c1.7,3,2.95,6.25,3.75,9.75.8,3.5,1.2,7.12,1.2,10.85s-.4,7.47-1.2,11c-.8,3.53-2.04,6.8-3.7,9.8-1.67,3-3.95,5.62-6.85,7.85-2.9,2.23-6.45,3.98-10.65,5.25-4.2,1.27-9.2,1.9-15,1.9ZM926.12,187.45c4.93,0,9.18-.6,12.75-1.8,3.57-1.2,6.48-2.92,8.75-5.15,2.27-2.23,4.05-4.83,5.35-7.8,1.3-2.97,2.23-6.15,2.8-9.55s.85-7,.85-10.8c0-3.6-.28-7.13-.85-10.6-.57-3.46-1.5-6.67-2.8-9.6-1.3-2.93-3.08-5.52-5.35-7.75-2.27-2.23-5.17-3.97-8.7-5.2-3.53-1.23-7.83-1.85-12.9-1.85s-9.17.62-12.7,1.85c-3.54,1.23-6.45,2.97-8.75,5.2-2.3,2.23-4.12,4.82-5.45,7.75-1.33,2.93-2.25,6.13-2.75,9.6-.5,3.47-.75,7-.75,10.6s.25,7.3.75,10.7c.5,3.4,1.42,6.58,2.75,9.55,1.33,2.97,3.13,5.57,5.4,7.8,2.27,2.23,5.2,3.97,8.8,5.2,3.6,1.23,7.87,1.85,12.8,1.85Z"/>
    <path class="cls-3" d="M891.02,215.65c-.73-1.67-1.42-2.98-2.05-3.95-.63-.97-1.42-1.58-2.35-1.85v-.3h13.3v.3c-1.13.2-1.88.52-2.25.95-.37.43-.55.98-.55,1.65,0,.4.1.92.3,1.55.2.63.47,1.32.8,2.05l29.8,59.4-.9,1.2,27.7-57.8c.4-1.13.83-2.18,1.3-3.15.47-.97.7-1.78.7-2.45,0-1.13-.43-1.92-1.3-2.35-.87-.43-2.1-.78-3.7-1.05v-.3h10.4v.3c-.73.2-1.4.55-2,1.05-.6.5-1.18,1.18-1.75,2.05-.57.87-1.15,2-1.75,3.4l-31.6,65.1h-.5l-33.6-65.8Z"/>
    <path class="cls-3" d="M923.22,308.36l-30.1,56.3c-.33.67-.6,1.28-.8,1.85-.2.57-.3,1.12-.3,1.65,0,.8.3,1.48.9,2.05.6.57,1.7.92,3.3,1.05v.4h-9.4v-.4c1.13-.33,2.07-.96,2.8-1.9.73-.93,1.5-2.23,2.3-3.9l30.7-57,.6-.1ZM942.22,343.56v.4h-38.1l.1-.4h38ZM917.82,305.15c-.73-1.07-1.29-1.88-1.65-2.45-.37-.57-.82-1.02-1.35-1.35v-.5h7.6l36.9,64.2c.67,1.2,1.33,2.23,2,3.1.67.87,1.3,1.57,1.9,2.1.6.54,1.2.87,1.8,1v.4h-13.4v-.4c.73-.2,1.28-.5,1.65-.9.37-.4.55-.87.55-1.4,0-.47-.07-.92-.2-1.35-.13-.43-.37-.92-.7-1.45l-35.1-61Z"/>
    <path class="cls-3" d="M888.62,428.45c0-4.47.53-8.55,1.6-12.25,1.07-3.7,2.6-7,4.6-9.9,2-2.9,4.55-5.37,7.65-7.4,3.1-2.03,6.73-3.6,10.9-4.7,4.17-1.1,8.85-1.65,14.05-1.65,3.6,0,7.02.23,10.25.7,3.23.47,6.25,1.15,9.05,2.05,2.8.9,5.3,1.95,7.5,3.15v7.9h-.3c-.47-1.87-1.3-3.52-2.5-4.95-1.2-1.43-2.65-2.67-4.35-3.7-1.7-1.03-3.63-1.87-5.8-2.5-2.17-.63-4.38-1.1-6.65-1.4-2.27-.3-4.57-.45-6.9-.45-5.53,0-10.3.82-14.3,2.45-4,1.63-7.32,4.03-9.95,7.2-2.63,3.17-4.6,6.87-5.9,11.1-1.3,4.23-1.95,9.02-1.95,14.35s.65,10.17,1.95,14.5c1.3,4.33,3.27,8.03,5.9,11.1,2.63,3.07,6,5.42,10.1,7.05,4.1,1.63,8.82,2.45,14.15,2.45,2.2,0,4.45-.12,6.75-.35,2.3-.23,4.5-.63,6.6-1.2,2.1-.57,4.03-1.33,5.8-2.3,1.77-.97,3.25-2.1,4.45-3.4,1.2-1.3,1.96-2.78,2.3-4.45h.3v7.4c-2.07.93-4.5,1.79-7.3,2.55-2.8.77-5.83,1.35-9.1,1.75-3.27.4-6.67.6-10.2.6-5.27,0-9.98-.53-14.15-1.6-4.17-1.07-7.77-2.63-10.8-4.7-3.03-2.07-5.55-4.53-7.55-7.4-2-2.87-3.54-6.15-4.6-9.85-1.07-3.7-1.6-7.75-1.6-12.15Z"/>
    <path class="cls-3" d="M923.22,492.36l-30.1,56.3c-.33.67-.6,1.28-.8,1.85-.2.57-.3,1.12-.3,1.65,0,.8.3,1.48.9,2.05.6.57,1.7.92,3.3,1.05v.4h-9.4v-.4c1.13-.33,2.07-.96,2.8-1.9.73-.93,1.5-2.23,2.3-3.9l30.7-57,.6-.1ZM942.22,527.56v.4h-38.1l.1-.4h38ZM917.82,489.15c-.73-1.07-1.29-1.88-1.65-2.45-.37-.57-.82-1.02-1.35-1.35v-.5h7.6l36.9,64.2c.67,1.2,1.33,2.23,2,3.1.67.87,1.3,1.57,1.9,2.1.6.54,1.2.87,1.8,1v.4h-13.4v-.4c.73-.2,1.28-.5,1.65-.9.37-.4.55-.87.55-1.4,0-.47-.07-.92-.2-1.35-.13-.43-.37-.92-.7-1.45l-35.1-61Z"/>
    <path class="cls-3" d="M892.22,585.45c0-2.07-.2-3.67-.6-4.8-.4-1.13-1.27-2.03-2.6-2.7v-.4h36.5c6.07,0,11.13.98,15.2,2.95,4.07,1.97,7.13,4.83,9.2,8.6,2.07,3.77,3.1,8.42,3.1,13.95s-1.02,9.98-3.05,13.75c-2.03,3.77-5.08,6.6-9.15,8.5-4.07,1.9-9.17,2.85-15.3,2.85h-27.1v11.6c0,2.2.27,3.88.8,5.05.53,1.17,1.7,1.98,3.5,2.45v.4h-13.7v-.4c1.33-.6,2.2-1.5,2.6-2.7.4-1.2.6-2.8.6-4.8v-54.3ZM898.42,627.56h26.2c3.73,0,6.95-.52,9.65-1.55,2.7-1.03,4.95-2.63,6.75-4.8,1.8-2.17,3.13-4.77,4-7.8.87-3.03,1.3-6.48,1.3-10.35s-.43-7.53-1.3-10.6c-.87-3.07-2.2-5.67-4-7.8-1.8-2.13-4.07-3.75-6.8-4.85-2.73-1.1-5.97-1.65-9.7-1.65h-26.1v49.4Z"/>
    <path class="cls-3" d="M905.52,703.36c-3.33-1.2-6.25-2.53-8.75-4-2.5-1.47-4.42-3.32-5.75-5.55-1.33-2.23-2-4.88-2-7.95,0-2.8.58-5.23,1.75-7.3,1.17-2.07,2.95-3.85,5.35-5.35,2.4-1.5,5.4-2.63,9-3.4,3.6-.77,7.93-1.15,13-1.15,3.73,0,7.2.22,10.4.65,3.2.43,6.1,1.05,8.7,1.85,2.6.8,4.87,1.73,6.8,2.8v7.9h-.4c-.47-1.73-1.27-3.27-2.4-4.6-1.13-1.33-2.55-2.5-4.25-3.5s-3.6-1.83-5.7-2.5c-2.1-.67-4.25-1.18-6.45-1.55-2.2-.37-4.43-.55-6.7-.55-3.6,0-6.87.32-9.8.95-2.93.63-5.47,1.53-7.6,2.7-2.13,1.17-3.82,2.67-5.05,4.5-1.23,1.83-1.85,4.02-1.85,6.55s.6,4.67,1.8,6.4c1.2,1.73,2.88,3.17,5.05,4.3,2.17,1.13,4.62,2.23,7.35,3.3l20.4,6.6c3.27,1.13,6.17,2.45,8.7,3.95,2.53,1.5,4.53,3.37,6,5.6,1.47,2.23,2.2,5.02,2.2,8.35,0,2.87-.62,5.42-1.85,7.65-1.23,2.23-3.08,4.12-5.55,5.65-2.47,1.53-5.55,2.7-9.25,3.5s-8.02,1.2-12.95,1.2c-4,0-7.67-.23-11-.7-3.33-.47-6.28-1.12-8.85-1.95-2.57-.83-4.72-1.75-6.45-2.75v-7.8h.4c.33,1.8,1.08,3.35,2.25,4.65,1.17,1.3,2.6,2.45,4.3,3.45s3.62,1.85,5.75,2.55c2.13.7,4.37,1.2,6.7,1.5,2.33.3,4.67.45,7,.45,3.67,0,7.02-.28,10.05-.85,3.03-.57,5.67-1.48,7.9-2.75,2.23-1.27,3.93-2.85,5.1-4.75,1.17-1.9,1.75-4.15,1.75-6.75,0-2.87-.62-5.18-1.85-6.95-1.23-1.77-2.97-3.23-5.2-4.4-2.23-1.17-4.79-2.28-7.65-3.35l-20.4-6.6Z"/>
  </g>
  <g>
    <path class="cls-3" d="M466.28,34.36c0-1.8-.15-3.3-.45-4.5s-.87-2.08-1.7-2.65c-.83-.57-2.18-.98-4.05-1.25v-.4h10.5v.4c-1.53.47-2.55,1.33-3.05,2.6-.5,1.27-.75,3.1-.75,5.5v63.4h-.5l-60.8-68.5c-.53-.8-1.03-1.42-1.5-1.85-.47-.43-1.07-.78-1.8-1.05v-.5h9.2l55.3,62.4-.4.5v-54.1ZM408.48,28.86h.4v57.9c0,1.8.13,3.3.4,4.5.27,1.2.85,2.1,1.75,2.7.9.6,2.28,1.03,4.15,1.3v.4h-10.8v-.4c1.53-.53,2.6-1.4,3.2-2.6.6-1.2.9-3.03.9-5.5V28.86Z"/>
    <path class="cls-3" d="M439.98,188.15c-5.8,0-10.8-.65-15-1.95s-7.75-3.07-10.65-5.3c-2.9-2.23-5.18-4.83-6.85-7.8-1.67-2.97-2.92-6.2-3.75-9.7-.83-3.5-1.25-7.18-1.25-11.05s.42-7.35,1.25-10.85c.83-3.5,2.08-6.75,3.75-9.75,1.67-3,3.95-5.6,6.85-7.8,2.9-2.2,6.43-3.95,10.6-5.25,4.17-1.3,9.15-1.95,14.95-1.95s10.88.65,15.05,1.95c4.17,1.3,7.7,3.05,10.6,5.25s5.2,4.8,6.9,7.8c1.7,3,2.95,6.25,3.75,9.75.8,3.5,1.2,7.12,1.2,10.85s-.4,7.47-1.2,11c-.8,3.53-2.04,6.8-3.7,9.8-1.67,3-3.95,5.62-6.85,7.85-2.9,2.23-6.45,3.98-10.65,5.25-4.2,1.27-9.2,1.9-15,1.9ZM439.98,187.45c4.93,0,9.18-.6,12.75-1.8,3.57-1.2,6.48-2.92,8.75-5.15,2.27-2.23,4.05-4.83,5.35-7.8,1.3-2.97,2.23-6.15,2.8-9.55s.85-7,.85-10.8c0-3.6-.28-7.13-.85-10.6-.57-3.46-1.5-6.67-2.8-9.6-1.3-2.93-3.08-5.52-5.35-7.75-2.27-2.23-5.17-3.97-8.7-5.2-3.53-1.23-7.83-1.85-12.9-1.85s-9.17.62-12.7,1.85c-3.54,1.23-6.45,2.97-8.75,5.2-2.3,2.23-4.12,4.82-5.45,7.75-1.33,2.93-2.25,6.13-2.75,9.6-.5,3.47-.75,7-.75,10.6s.25,7.3.75,10.7c.5,3.4,1.42,6.58,2.75,9.55,1.33,2.97,3.13,5.57,5.4,7.8,2.27,2.23,5.2,3.97,8.8,5.2,3.6,1.23,7.87,1.85,12.8,1.85Z"/>
    <path class="cls-3" d="M404.88,215.65c-.73-1.67-1.42-2.98-2.05-3.95-.63-.97-1.42-1.58-2.35-1.85v-.3h13.3v.3c-1.13.2-1.88.52-2.25.95-.37.43-.55.98-.55,1.65,0,.4.1.92.3,1.55.2.63.47,1.32.8,2.05l29.8,59.4-.9,1.2,27.7-57.8c.4-1.13.83-2.18,1.3-3.15.47-.97.7-1.78.7-2.45,0-1.13-.43-1.92-1.3-2.35-.87-.43-2.1-.78-3.7-1.05v-.3h10.4v.3c-.73.2-1.4.55-2,1.05-.6.5-1.18,1.18-1.75,2.05-.57.87-1.15,2-1.75,3.4l-31.6,65.1h-.5l-33.6-65.8Z"/>
    <path class="cls-3" d="M437.08,308.36l-30.1,56.3c-.33.67-.6,1.28-.8,1.85-.2.57-.3,1.12-.3,1.65,0,.8.3,1.48.9,2.05.6.57,1.7.92,3.3,1.05v.4h-9.4v-.4c1.13-.33,2.07-.96,2.8-1.9.73-.93,1.5-2.23,2.3-3.9l30.7-57,.6-.1ZM456.08,343.56v.4h-38.1l.1-.4h38ZM431.68,305.15c-.73-1.07-1.29-1.88-1.65-2.45-.37-.57-.82-1.02-1.35-1.35v-.5h7.6l36.9,64.2c.67,1.2,1.33,2.23,2,3.1.67.87,1.3,1.57,1.9,2.1.6.54,1.2.87,1.8,1v.4h-13.4v-.4c.73-.2,1.28-.5,1.65-.9.37-.4.55-.87.55-1.4,0-.47-.07-.92-.2-1.35-.13-.43-.37-.92-.7-1.45l-35.1-61Z"/>
    <path class="cls-3" d="M402.48,428.45c0-4.47.53-8.55,1.6-12.25,1.07-3.7,2.6-7,4.6-9.9,2-2.9,4.55-5.37,7.65-7.4,3.1-2.03,6.73-3.6,10.9-4.7,4.17-1.1,8.85-1.65,14.05-1.65,3.6,0,7.02.23,10.25.7,3.23.47,6.25,1.15,9.05,2.05,2.8.9,5.3,1.95,7.5,3.15v7.9h-.3c-.47-1.87-1.3-3.52-2.5-4.95-1.2-1.43-2.65-2.67-4.35-3.7-1.7-1.03-3.63-1.87-5.8-2.5-2.17-.63-4.38-1.1-6.65-1.4-2.27-.3-4.57-.45-6.9-.45-5.53,0-10.3.82-14.3,2.45-4,1.63-7.32,4.03-9.95,7.2-2.63,3.17-4.6,6.87-5.9,11.1-1.3,4.23-1.95,9.02-1.95,14.35s.65,10.17,1.95,14.5c1.3,4.33,3.27,8.03,5.9,11.1,2.63,3.07,6,5.42,10.1,7.05,4.1,1.63,8.82,2.45,14.15,2.45,2.2,0,4.45-.12,6.75-.35,2.3-.23,4.5-.63,6.6-1.2,2.1-.57,4.03-1.33,5.8-2.3,1.77-.97,3.25-2.1,4.45-3.4,1.2-1.3,1.96-2.78,2.3-4.45h.3v7.4c-2.07.93-4.5,1.79-7.3,2.55-2.8.77-5.83,1.35-9.1,1.75-3.27.4-6.67.6-10.2.6-5.27,0-9.98-.53-14.15-1.6-4.17-1.07-7.77-2.63-10.8-4.7-3.03-2.07-5.55-4.53-7.55-7.4-2-2.87-3.54-6.15-4.6-9.85-1.07-3.7-1.6-7.75-1.6-12.15Z"/>
    <path class="cls-3" d="M437.08,492.36l-30.1,56.3c-.33.67-.6,1.28-.8,1.85-.2.57-.3,1.12-.3,1.65,0,.8.3,1.48.9,2.05.6.57,1.7.92,3.3,1.05v.4h-9.4v-.4c1.13-.33,2.07-.96,2.8-1.9.73-.93,1.5-2.23,2.3-3.9l30.7-57,.6-.1ZM456.08,527.56v.4h-38.1l.1-.4h38ZM431.68,489.15c-.73-1.07-1.29-1.88-1.65-2.45-.37-.57-.82-1.02-1.35-1.35v-.5h7.6l36.9,64.2c.67,1.2,1.33,2.23,2,3.1.67.87,1.3,1.57,1.9,2.1.6.54,1.2.87,1.8,1v.4h-13.4v-.4c.73-.2,1.28-.5,1.65-.9.37-.4.55-.87.55-1.4,0-.47-.07-.92-.2-1.35-.13-.43-.37-.92-.7-1.45l-35.1-61Z"/>
    <path class="cls-3" d="M406.08,585.45c0-2.07-.2-3.67-.6-4.8-.4-1.13-1.27-2.03-2.6-2.7v-.4h36.5c6.07,0,11.13.98,15.2,2.95,4.07,1.97,7.13,4.83,9.2,8.6,2.07,3.77,3.1,8.42,3.1,13.95s-1.02,9.98-3.05,13.75c-2.03,3.77-5.08,6.6-9.15,8.5-4.07,1.9-9.17,2.85-15.3,2.85h-27.1v11.6c0,2.2.27,3.88.8,5.05.53,1.17,1.7,1.98,3.5,2.45v.4h-13.7v-.4c1.33-.6,2.2-1.5,2.6-2.7.4-1.2.6-2.8.6-4.8v-54.3ZM412.28,627.56h26.2c3.73,0,6.95-.52,9.65-1.55,2.7-1.03,4.95-2.63,6.75-4.8,1.8-2.17,3.13-4.77,4-7.8.87-3.03,1.3-6.48,1.3-10.35s-.43-7.53-1.3-10.6c-.87-3.07-2.2-5.67-4-7.8-1.8-2.13-4.07-3.75-6.8-4.85-2.73-1.1-5.97-1.65-9.7-1.65h-26.1v49.4Z"/>
    <path class="cls-3" d="M419.38,703.36c-3.33-1.2-6.25-2.53-8.75-4-2.5-1.47-4.42-3.32-5.75-5.55-1.33-2.23-2-4.88-2-7.95,0-2.8.58-5.23,1.75-7.3,1.17-2.07,2.95-3.85,5.35-5.35,2.4-1.5,5.4-2.63,9-3.4,3.6-.77,7.93-1.15,13-1.15,3.73,0,7.2.22,10.4.65,3.2.43,6.1,1.05,8.7,1.85,2.6.8,4.87,1.73,6.8,2.8v7.9h-.4c-.47-1.73-1.27-3.27-2.4-4.6-1.13-1.33-2.55-2.5-4.25-3.5s-3.6-1.83-5.7-2.5c-2.1-.67-4.25-1.18-6.45-1.55-2.2-.37-4.43-.55-6.7-.55-3.6,0-6.87.32-9.8.95-2.93.63-5.47,1.53-7.6,2.7-2.13,1.17-3.82,2.67-5.05,4.5-1.23,1.83-1.85,4.02-1.85,6.55s.6,4.67,1.8,6.4c1.2,1.73,2.88,3.17,5.05,4.3,2.17,1.13,4.62,2.23,7.35,3.3l20.4,6.6c3.27,1.13,6.17,2.45,8.7,3.95,2.53,1.5,4.53,3.37,6,5.6,1.47,2.23,2.2,5.02,2.2,8.35,0,2.87-.62,5.42-1.85,7.65-1.23,2.23-3.08,4.12-5.55,5.65-2.47,1.53-5.55,2.7-9.25,3.5s-8.02,1.2-12.95,1.2c-4,0-7.67-.23-11-.7-3.33-.47-6.28-1.12-8.85-1.95-2.57-.83-4.72-1.75-6.45-2.75v-7.8h.4c.33,1.8,1.08,3.35,2.25,4.65,1.17,1.3,2.6,2.45,4.3,3.45s3.62,1.85,5.75,2.55c2.13.7,4.37,1.2,6.7,1.5,2.33.3,4.67.45,7,.45,3.67,0,7.02-.28,10.05-.85,3.03-.57,5.67-1.48,7.9-2.75,2.23-1.27,3.93-2.85,5.1-4.75,1.17-1.9,1.75-4.15,1.75-6.75,0-2.87-.62-5.18-1.85-6.95-1.23-1.77-2.97-3.23-5.2-4.4-2.23-1.17-4.79-2.28-7.65-3.35l-20.4-6.6Z"/>
  </g>
  <g>
    <path class="cls-3" d="M579.82,34.36c0-1.93-.15-3.48-.45-4.65-.3-1.17-.93-2.05-1.9-2.65-.97-.6-2.38-1-4.25-1.2v-.4h11v.4c-1.4.47-2.42,1.3-3.05,2.5-.63,1.2-.95,2.97-.95,5.3v63.6h-.4l-77.8-69c-.6-.46-1.13-.9-1.6-1.3-.47-.4-1.03-.73-1.7-1v-.5h7.1l74.4,65.9-.4.5v-57.5ZM505.32,28.65h.5v58.2c0,1.87.15,3.38.45,4.55.3,1.17.92,2.05,1.85,2.65.93.6,2.4,1,4.4,1.2v.4h-11.4v-.4c1.6-.53,2.7-1.38,3.3-2.55.6-1.17.9-2.88.9-5.15V28.65Z"/>
    <path class="cls-3" d="M545.82,188.06c-7.4,0-13.8-.6-19.2-1.8-5.4-1.2-9.9-2.9-13.5-5.1-3.6-2.2-6.48-4.78-8.65-7.75-2.17-2.97-3.73-6.23-4.7-9.8-.97-3.57-1.45-7.32-1.45-11.25s.48-7.68,1.45-11.25c.97-3.57,2.53-6.83,4.7-9.8,2.17-2.97,5.03-5.53,8.6-7.7,3.57-2.17,8.05-3.85,13.45-5.05,5.4-1.2,11.8-1.8,19.2-1.8s13.78.6,19.15,1.8c5.37,1.2,9.88,2.88,13.55,5.05,3.67,2.17,6.57,4.73,8.7,7.7,2.13,2.97,3.68,6.23,4.65,9.8.97,3.57,1.45,7.32,1.45,11.25s-.48,7.72-1.45,11.35c-.97,3.63-2.53,6.92-4.7,9.85-2.17,2.93-5.07,5.5-8.7,7.7-3.63,2.2-8.13,3.88-13.5,5.05-5.37,1.17-11.72,1.75-19.05,1.75ZM545.82,187.56c6.8,0,12.63-.62,17.5-1.85,4.87-1.23,8.9-2.93,12.1-5.1,3.2-2.17,5.73-4.75,7.6-7.75,1.87-3,3.18-6.23,3.95-9.7.77-3.47,1.15-7.07,1.15-10.8s-.38-7.23-1.15-10.7c-.77-3.47-2.08-6.68-3.95-9.65-1.87-2.96-4.4-5.55-7.6-7.75-3.2-2.2-7.23-3.93-12.1-5.2-4.87-1.27-10.73-1.9-17.6-1.9s-12.65.63-17.55,1.9c-4.9,1.27-8.95,3-12.15,5.2-3.2,2.2-5.73,4.79-7.6,7.75-1.87,2.97-3.17,6.18-3.9,9.65-.73,3.47-1.1,7.03-1.1,10.7s.37,7.23,1.1,10.7c.73,3.47,2.03,6.67,3.9,9.6,1.87,2.93,4.42,5.52,7.65,7.75,3.23,2.23,7.3,3.98,12.2,5.25,4.9,1.27,10.75,1.9,17.55,1.9Z"/>
    <path class="cls-3" d="M501.02,215.06c-.93-1.53-1.75-2.75-2.45-3.65-.7-.9-1.55-1.45-2.55-1.65v-.3h11.6v.3c-.8.2-1.43.48-1.9.85-.47.37-.7.85-.7,1.45,0,.53.15,1.05.45,1.55s.62,1.08.95,1.75l41.8,63.6-.8.5,37.7-60.9c.53-.93,1.13-1.93,1.8-3,.67-1.07,1-1.93,1-2.6,0-1.2-.5-1.98-1.5-2.35-1-.37-2.33-.65-4-.85v-.3h11.6v.3c-.8.27-1.53.62-2.2,1.05-.67.43-1.35,1.12-2.05,2.05-.7.93-1.58,2.17-2.65,3.7l-41.2,64.7h-.4l-44.5-66.2Z"/>
    <path class="cls-3" d="M543.72,309.75l-40.3,55.3c-.47.67-.83,1.25-1.1,1.75-.27.5-.4,1.02-.4,1.55,0,.67.37,1.28,1.1,1.85.73.57,2,.92,3.8,1.05v.4h-10.9v-.4c1.27-.33,2.35-.95,3.25-1.85.9-.9,1.82-2.05,2.75-3.45l41.2-56.3.6.1ZM569.52,343.45v.5h-50.8v-.5h50.8ZM536.32,305.06c-.93-1.07-1.63-1.88-2.1-2.45-.47-.57-.97-1.02-1.5-1.35v-.5h5.7l52.1,64.9c1,1.13,1.87,2.08,2.6,2.85.73.77,1.42,1.38,2.05,1.85.63.47,1.25.77,1.85.9v.4h-12.1v-.4c.67-.13,1.2-.35,1.6-.65.4-.3.6-.75.6-1.35,0-.4-.08-.77-.25-1.1-.17-.33-.48-.73-.95-1.2l-49.6-61.9Z"/>
    <path class="cls-3" d="M498.32,428.36c0-4.8.67-9.1,2-12.9,1.33-3.8,3.25-7.13,5.75-10,2.5-2.87,5.67-5.25,9.5-7.15,3.83-1.9,8.25-3.33,13.25-4.3,5-.96,10.63-1.45,16.9-1.45,4.73,0,9.35.25,13.85.75s8.7,1.28,12.6,2.35c3.9,1.07,7.38,2.37,10.45,3.9v7.1h-.4c-.47-2.07-1.55-3.85-3.25-5.35s-3.82-2.77-6.35-3.8c-2.54-1.03-5.29-1.88-8.25-2.55-2.97-.67-6.05-1.13-9.25-1.4-3.2-.27-6.27-.4-9.2-.4-7,0-13.15.77-18.45,2.3-5.3,1.53-9.73,3.82-13.3,6.85-3.57,3.03-6.25,6.73-8.05,11.1-1.8,4.37-2.7,9.35-2.7,14.95s.9,10.67,2.7,15c1.8,4.33,4.48,8.02,8.05,11.05,3.57,3.03,8.03,5.33,13.4,6.9,5.37,1.57,11.55,2.35,18.55,2.35,2.8,0,5.77-.15,8.9-.45,3.13-.3,6.2-.73,9.2-1.3,3-.57,5.75-1.37,8.25-2.4,2.5-1.03,4.62-2.21,6.35-3.55,1.73-1.33,2.77-2.93,3.1-4.8h.4v6.6c-2.93,1.4-6.33,2.57-10.2,3.5-3.87.93-8.04,1.63-12.5,2.1-4.47.47-9.13.7-14,.7-6.2,0-11.82-.47-16.85-1.4-5.03-.93-9.45-2.35-13.25-4.25s-6.95-4.28-9.45-7.15c-2.5-2.87-4.42-6.21-5.75-10.05-1.33-3.83-2-8.12-2-12.85Z"/>
    <path class="cls-3" d="M543.72,493.75l-40.3,55.3c-.47.67-.83,1.25-1.1,1.75-.27.5-.4,1.02-.4,1.55,0,.67.37,1.28,1.1,1.85.73.57,2,.92,3.8,1.05v.4h-10.9v-.4c1.27-.33,2.35-.95,3.25-1.85.9-.9,1.82-2.05,2.75-3.45l41.2-56.3.6.1ZM569.52,527.45v.5h-50.8v-.5h50.8ZM536.32,489.06c-.93-1.07-1.63-1.88-2.1-2.45-.47-.57-.97-1.02-1.5-1.35v-.5h5.7l52.1,64.9c1,1.13,1.87,2.08,2.6,2.85.73.77,1.42,1.38,2.05,1.85.63.47,1.25.77,1.85.9v.4h-12.1v-.4c.67-.13,1.2-.35,1.6-.65.4-.3.6-.75.6-1.35,0-.4-.08-.77-.25-1.1-.17-.33-.48-.73-.95-1.2l-49.6-61.9Z"/>
    <path class="cls-3" d="M502.32,584.45c0-1.67-.18-3.05-.55-4.15-.37-1.1-1.25-1.92-2.65-2.45v-.4h52.8c6.13,0,11.33.95,15.6,2.85,4.27,1.9,7.5,4.75,9.7,8.55s3.3,8.53,3.3,14.2-1.08,10.18-3.25,13.95c-2.17,3.77-5.38,6.57-9.65,8.4-4.27,1.83-9.5,2.75-15.7,2.75h-45.2v12.6c0,1.93.3,3.4.9,4.4.6,1,1.7,1.7,3.3,2.1v.4h-11.8v-.4c1.4-.6,2.28-1.42,2.65-2.45.37-1.03.55-2.38.55-4.05v-56.3ZM506.72,627.65h43.9c4.2,0,7.83-.52,10.9-1.55,3.07-1.03,5.65-2.6,7.75-4.7,2.1-2.1,3.68-4.68,4.75-7.75,1.07-3.07,1.6-6.6,1.6-10.6s-.54-7.65-1.6-10.75c-1.07-3.1-2.63-5.72-4.7-7.85-2.07-2.13-4.67-3.75-7.8-4.85-3.13-1.1-6.77-1.65-10.9-1.65h-43.9v49.7Z"/>
    <path class="cls-3" d="M518.52,702.95c-4.07-.93-7.62-2.07-10.65-3.4-3.04-1.33-5.35-3.08-6.95-5.25-1.6-2.17-2.4-4.88-2.4-8.15,0-2.93.73-5.47,2.2-7.6,1.47-2.13,3.7-3.97,6.7-5.5,3-1.53,6.9-2.67,11.7-3.4,4.8-.73,10.53-1.1,17.2-1.1,5.13,0,9.95.27,14.45.8,4.5.53,8.6,1.28,12.3,2.25,3.7.97,6.85,2.12,9.45,3.45v7.1h-.6c-.4-1.93-1.47-3.65-3.2-5.15-1.73-1.5-3.88-2.77-6.45-3.8-2.57-1.03-5.35-1.85-8.35-2.45-3-.6-6.03-1.05-9.1-1.35s-5.93-.45-8.6-.45c-4.8,0-9.28.3-13.45.9-4.17.6-7.8,1.53-10.9,2.8-3.1,1.27-5.52,2.92-7.25,4.95-1.73,2.03-2.6,4.45-2.6,7.25s.75,5.27,2.25,7c1.5,1.73,3.6,3.1,6.3,4.1,2.7,1,5.85,1.97,9.45,2.9l33.1,6.4c4.13.93,7.7,2.04,10.7,3.3,3,1.27,5.35,2.95,7.05,5.05,1.7,2.1,2.55,4.95,2.55,8.55,0,2.87-.77,5.43-2.3,7.7-1.54,2.27-3.87,4.2-7,5.8-3.13,1.6-7.12,2.78-11.95,3.55-4.83.77-10.58,1.15-17.25,1.15-5.8,0-11-.3-15.6-.9-4.6-.6-8.58-1.4-11.95-2.4-3.37-1-6.22-2.1-8.55-3.3v-7h.4c.4,1.93,1.42,3.62,3.05,5.05,1.63,1.43,3.72,2.67,6.25,3.7,2.53,1.04,5.28,1.87,8.25,2.5,2.97.63,6.03,1.1,9.2,1.4,3.17.3,6.22.45,9.15.45,5.07,0,9.73-.3,14-.9,4.27-.6,7.95-1.55,11.05-2.85,3.1-1.3,5.5-3,7.2-5.1,1.7-2.1,2.55-4.62,2.55-7.55,0-3.2-.73-5.63-2.2-7.3-1.47-1.67-3.57-3-6.3-4-2.73-1-5.97-1.9-9.7-2.7l-33.2-6.5Z"/>
  </g>
  <g>
    <path class="cls-3" d="M852.88,34.36c0-1.93-.15-3.48-.45-4.65-.3-1.17-.94-2.05-1.9-2.65-.97-.6-2.38-1-4.25-1.2v-.4h11v.4c-1.4.47-2.42,1.3-3.05,2.5-.63,1.2-.95,2.97-.95,5.3v63.6h-.4l-77.8-69c-.6-.46-1.13-.9-1.6-1.3-.47-.4-1.03-.73-1.7-1v-.5h7.1l74.4,65.9-.4.5v-57.5ZM778.38,28.65h.5v58.2c0,1.87.15,3.38.45,4.55.3,1.17.92,2.05,1.85,2.65.93.6,2.4,1,4.4,1.2v.4h-11.4v-.4c1.6-.53,2.7-1.38,3.3-2.55.6-1.17.9-2.88.9-5.15V28.65Z"/>
    <path class="cls-3" d="M818.88,188.06c-7.4,0-13.8-.6-19.2-1.8-5.4-1.2-9.9-2.9-13.5-5.1-3.6-2.2-6.48-4.78-8.65-7.75-2.17-2.97-3.73-6.23-4.7-9.8-.97-3.57-1.45-7.32-1.45-11.25s.48-7.68,1.45-11.25c.97-3.57,2.53-6.83,4.7-9.8,2.17-2.97,5.03-5.53,8.6-7.7,3.57-2.17,8.05-3.85,13.45-5.05,5.4-1.2,11.8-1.8,19.2-1.8s13.78.6,19.15,1.8c5.37,1.2,9.88,2.88,13.55,5.05,3.67,2.17,6.57,4.73,8.7,7.7,2.13,2.97,3.68,6.23,4.65,9.8.97,3.57,1.45,7.32,1.45,11.25s-.48,7.72-1.45,11.35c-.97,3.63-2.53,6.92-4.7,9.85-2.17,2.93-5.07,5.5-8.7,7.7-3.63,2.2-8.13,3.88-13.5,5.05-5.37,1.17-11.72,1.75-19.05,1.75ZM818.88,187.56c6.8,0,12.63-.62,17.5-1.85,4.87-1.23,8.9-2.93,12.1-5.1,3.2-2.17,5.73-4.75,7.6-7.75s3.18-6.23,3.95-9.7c.77-3.47,1.15-7.07,1.15-10.8s-.38-7.23-1.15-10.7c-.77-3.47-2.08-6.68-3.95-9.65-1.87-2.96-4.4-5.55-7.6-7.75-3.2-2.2-7.23-3.93-12.1-5.2-4.87-1.27-10.73-1.9-17.6-1.9s-12.65.63-17.55,1.9c-4.9,1.27-8.95,3-12.15,5.2-3.2,2.2-5.73,4.79-7.6,7.75-1.87,2.97-3.17,6.18-3.9,9.65-.73,3.47-1.1,7.03-1.1,10.7s.37,7.23,1.1,10.7c.73,3.47,2.03,6.67,3.9,9.6,1.87,2.93,4.42,5.52,7.65,7.75,3.23,2.23,7.3,3.98,12.2,5.25,4.9,1.27,10.75,1.9,17.55,1.9Z"/>
    <path class="cls-3" d="M774.08,215.06c-.93-1.53-1.75-2.75-2.45-3.65s-1.55-1.45-2.55-1.65v-.3h11.6v.3c-.8.2-1.44.48-1.9.85-.47.37-.7.85-.7,1.45,0,.53.15,1.05.45,1.55.3.5.62,1.08.95,1.75l41.8,63.6-.8.5,37.7-60.9c.53-.93,1.13-1.93,1.8-3s1-1.93,1-2.6c0-1.2-.5-1.98-1.5-2.35-1-.37-2.33-.65-4-.85v-.3h11.6v.3c-.8.27-1.53.62-2.2,1.05-.67.43-1.35,1.12-2.05,2.05-.7.93-1.58,2.17-2.65,3.7l-41.2,64.7h-.4l-44.5-66.2Z"/>
    <path class="cls-3" d="M816.78,309.75l-40.3,55.3c-.47.67-.83,1.25-1.1,1.75-.27.5-.4,1.02-.4,1.55,0,.67.37,1.28,1.1,1.85.73.57,2,.92,3.8,1.05v.4h-10.9v-.4c1.27-.33,2.35-.95,3.25-1.85s1.82-2.05,2.75-3.45l41.2-56.3.6.1ZM842.58,343.45v.5h-50.8v-.5h50.8ZM809.38,305.06c-.93-1.07-1.63-1.88-2.1-2.45-.47-.57-.97-1.02-1.5-1.35v-.5h5.7l52.1,64.9c1,1.13,1.87,2.08,2.6,2.85.73.77,1.41,1.38,2.05,1.85.63.47,1.25.77,1.85.9v.4h-12.1v-.4c.67-.13,1.2-.35,1.6-.65.4-.3.6-.75.6-1.35,0-.4-.09-.77-.25-1.1-.17-.33-.48-.73-.95-1.2l-49.6-61.9Z"/>
    <path class="cls-3" d="M771.38,428.36c0-4.8.67-9.1,2-12.9,1.33-3.8,3.25-7.13,5.75-10,2.5-2.87,5.67-5.25,9.5-7.15,3.83-1.9,8.25-3.33,13.25-4.3,5-.96,10.63-1.45,16.9-1.45,4.73,0,9.35.25,13.85.75s8.7,1.28,12.6,2.35c3.9,1.07,7.38,2.37,10.45,3.9v7.1h-.4c-.47-2.07-1.55-3.85-3.25-5.35-1.7-1.5-3.82-2.77-6.35-3.8-2.54-1.03-5.29-1.88-8.25-2.55-2.97-.67-6.05-1.13-9.25-1.4-3.2-.27-6.27-.4-9.2-.4-7,0-13.15.77-18.45,2.3-5.3,1.53-9.73,3.82-13.3,6.85-3.57,3.03-6.25,6.73-8.05,11.1-1.8,4.37-2.7,9.35-2.7,14.95s.9,10.67,2.7,15c1.8,4.33,4.48,8.02,8.05,11.05,3.57,3.03,8.03,5.33,13.4,6.9,5.37,1.57,11.55,2.35,18.55,2.35,2.8,0,5.77-.15,8.9-.45s6.2-.73,9.2-1.3c3-.57,5.75-1.37,8.25-2.4,2.5-1.03,4.62-2.21,6.35-3.55,1.73-1.33,2.77-2.93,3.1-4.8h.4v6.6c-2.93,1.4-6.33,2.57-10.2,3.5-3.87.93-8.04,1.63-12.5,2.1-4.47.47-9.13.7-14,.7-6.2,0-11.82-.47-16.85-1.4-5.03-.93-9.45-2.35-13.25-4.25-3.8-1.9-6.95-4.28-9.45-7.15-2.5-2.87-4.42-6.21-5.75-10.05-1.33-3.83-2-8.12-2-12.85Z"/>
    <path class="cls-3" d="M816.78,493.75l-40.3,55.3c-.47.67-.83,1.25-1.1,1.75-.27.5-.4,1.02-.4,1.55,0,.67.37,1.28,1.1,1.85.73.57,2,.92,3.8,1.05v.4h-10.9v-.4c1.27-.33,2.35-.95,3.25-1.85s1.82-2.05,2.75-3.45l41.2-56.3.6.1ZM842.58,527.45v.5h-50.8v-.5h50.8ZM809.38,489.06c-.93-1.07-1.63-1.88-2.1-2.45-.47-.57-.97-1.02-1.5-1.35v-.5h5.7l52.1,64.9c1,1.13,1.87,2.08,2.6,2.85.73.77,1.41,1.38,2.05,1.85.63.47,1.25.77,1.85.9v.4h-12.1v-.4c.67-.13,1.2-.35,1.6-.65.4-.3.6-.75.6-1.35,0-.4-.09-.77-.25-1.1-.17-.33-.48-.73-.95-1.2l-49.6-61.9Z"/>
    <path class="cls-3" d="M775.38,584.45c0-1.67-.18-3.05-.55-4.15-.37-1.1-1.25-1.92-2.65-2.45v-.4h52.8c6.13,0,11.33.95,15.6,2.85,4.27,1.9,7.5,4.75,9.7,8.55,2.2,3.8,3.3,8.53,3.3,14.2s-1.08,10.18-3.25,13.95c-2.17,3.77-5.38,6.57-9.65,8.4-4.27,1.83-9.5,2.75-15.7,2.75h-45.2v12.6c0,1.93.3,3.4.9,4.4.6,1,1.7,1.7,3.3,2.1v.4h-11.8v-.4c1.4-.6,2.28-1.42,2.65-2.45.37-1.03.55-2.38.55-4.05v-56.3ZM779.78,627.65h43.9c4.2,0,7.83-.52,10.9-1.55,3.07-1.03,5.65-2.6,7.75-4.7,2.1-2.1,3.68-4.68,4.75-7.75,1.07-3.07,1.6-6.6,1.6-10.6s-.54-7.65-1.6-10.75c-1.07-3.1-2.63-5.72-4.7-7.85-2.07-2.13-4.67-3.75-7.8-4.85-3.13-1.1-6.77-1.65-10.9-1.65h-43.9v49.7Z"/>
    <path class="cls-3" d="M791.58,702.95c-4.07-.93-7.62-2.07-10.65-3.4-3.04-1.33-5.35-3.08-6.95-5.25-1.6-2.17-2.4-4.88-2.4-8.15,0-2.93.73-5.47,2.2-7.6,1.46-2.13,3.7-3.97,6.7-5.5,3-1.53,6.9-2.67,11.7-3.4,4.8-.73,10.53-1.1,17.2-1.1,5.13,0,9.95.27,14.45.8,4.5.53,8.6,1.28,12.3,2.25,3.7.97,6.85,2.12,9.45,3.45v7.1h-.6c-.4-1.93-1.47-3.65-3.2-5.15-1.73-1.5-3.88-2.77-6.45-3.8-2.57-1.03-5.35-1.85-8.35-2.45-3-.6-6.03-1.05-9.1-1.35s-5.93-.45-8.6-.45c-4.8,0-9.29.3-13.45.9-4.17.6-7.8,1.53-10.9,2.8-3.1,1.27-5.52,2.92-7.25,4.95-1.73,2.03-2.6,4.45-2.6,7.25s.75,5.27,2.25,7c1.5,1.73,3.6,3.1,6.3,4.1s5.85,1.97,9.45,2.9l33.1,6.4c4.13.93,7.7,2.04,10.7,3.3,3,1.27,5.35,2.95,7.05,5.05,1.7,2.1,2.55,4.95,2.55,8.55,0,2.87-.77,5.43-2.3,7.7-1.54,2.27-3.87,4.2-7,5.8-3.13,1.6-7.12,2.78-11.95,3.55s-10.58,1.15-17.25,1.15c-5.8,0-11-.3-15.6-.9-4.6-.6-8.58-1.4-11.95-2.4-3.37-1-6.22-2.1-8.55-3.3v-7h.4c.4,1.93,1.42,3.62,3.05,5.05s3.72,2.67,6.25,3.7c2.53,1.04,5.28,1.87,8.25,2.5,2.97.63,6.03,1.1,9.2,1.4,3.17.3,6.21.45,9.15.45,5.06,0,9.73-.3,14-.9,4.27-.6,7.95-1.55,11.05-2.85s5.5-3,7.2-5.1c1.7-2.1,2.55-4.62,2.55-7.55,0-3.2-.73-5.63-2.2-7.3-1.47-1.67-3.57-3-6.3-4-2.73-1-5.97-1.9-9.7-2.7l-33.2-6.5Z"/>
  </g>
  <g>
    <path class="cls-3" d="M728.8,34.45c0-2.07-.22-3.7-.65-4.9-.43-1.2-1.18-2.08-2.25-2.65-1.07-.57-2.63-.95-4.7-1.15v-.4h12.6v.4c-1.6.47-2.77,1.3-3.5,2.5-.73,1.2-1.1,2.83-1.1,4.9v63.7h-.4l-109.2-69.2c-.47-.33-.9-.62-1.3-.85-.4-.23-1-.58-1.8-1.05v-.4h3.8l108.9,69-.4.7v-60.6ZM623.9,28.36h.4v58.2c0,2.07.2,3.7.6,4.9.4,1.2,1.15,2.08,2.25,2.65,1.1.57,2.68.95,4.75,1.15v.4h-12.6v-.4c1.6-.46,2.77-1.3,3.5-2.5.73-1.2,1.1-2.83,1.1-4.9V28.36Z"/>
    <path class="cls-3" d="M681.1,188.06c-10.67,0-19.8-.55-27.4-1.65-7.6-1.1-13.92-2.7-18.95-4.8-5.03-2.1-9.02-4.62-11.95-7.55-2.93-2.93-5-6.25-6.2-9.95-1.2-3.7-1.8-7.68-1.8-11.95s.6-8.33,1.8-12c1.2-3.67,3.25-6.97,6.15-9.9,2.9-2.93,6.87-5.42,11.9-7.45,5.03-2.03,11.35-3.6,18.95-4.7,7.6-1.1,16.7-1.65,27.3-1.65s19.8.55,27.4,1.65c7.6,1.1,13.92,2.67,18.95,4.7,5.03,2.03,9.02,4.52,11.95,7.45,2.93,2.93,5,6.23,6.2,9.9,1.2,3.67,1.8,7.67,1.8,12s-.6,8.57-1.8,12.3c-1.2,3.73-3.25,7.07-6.15,10-2.9,2.93-6.87,5.4-11.9,7.4-5.03,2-11.35,3.53-18.95,4.6-7.6,1.07-16.7,1.6-27.3,1.6ZM681.1,187.56c10.47,0,19.37-.58,26.7-1.75,7.33-1.17,13.4-2.8,18.2-4.9s8.55-4.62,11.25-7.55c2.7-2.93,4.6-6.18,5.7-9.75,1.1-3.57,1.65-7.38,1.65-11.45s-.55-7.57-1.65-11.1c-1.1-3.53-3-6.77-5.7-9.7-2.7-2.93-6.45-5.47-11.25-7.6-4.8-2.13-10.9-3.8-18.3-5-7.4-1.2-16.33-1.8-26.8-1.8s-19.37.6-26.7,1.8c-7.33,1.2-13.4,2.87-18.2,5-4.8,2.13-8.55,4.67-11.25,7.6-2.7,2.93-4.6,6.17-5.7,9.7-1.1,3.53-1.65,7.23-1.65,11.1s.55,7.57,1.65,11.1c1.1,3.54,3,6.77,5.7,9.7,2.7,2.93,6.45,5.5,11.25,7.7s10.9,3.9,18.3,5.1c7.4,1.2,16.33,1.8,26.8,1.8Z"/>
    <path class="cls-3" d="M617.7,214.36c-1.27-1.33-2.33-2.4-3.2-3.2-.87-.8-1.87-1.27-3-1.4v-.4h10.1v.4c-.67.07-1.23.27-1.7.6-.47.33-.7.77-.7,1.3,0,.47.15.9.45,1.3.3.4.62.77.95,1.1l63.3,65.3-.6.1,55.2-60.4c1.07-1.13,2.05-2.25,2.95-3.35.9-1.1,1.35-2.12,1.35-3.05,0-1.07-.57-1.78-1.7-2.15-1.13-.37-2.67-.62-4.6-.75v-.4h13.9v.4c-.93.13-1.82.43-2.65.9-.83.47-1.78,1.23-2.85,2.3s-2.5,2.57-4.3,4.5l-58,63.4h-.4l-64.5-66.5Z"/>
    <path class="cls-3" d="M679.5,312.15l-58.2,53.3c-.67.67-1.18,1.22-1.55,1.65-.37.43-.55.92-.55,1.45,0,.8.5,1.42,1.5,1.85,1,.43,2.57.72,4.7.85v.4h-13.9v-.4c1.6-.33,3.02-.93,4.25-1.8,1.23-.87,2.38-1.8,3.45-2.8l59.9-54.8.4.3ZM717.7,343.45v.4h-73v-.4h73ZM668.8,304.95c-1.33-1.13-2.32-1.95-2.95-2.45-.63-.5-1.22-.95-1.75-1.35v-.5h2.9l80.2,66.1c1.4,1.07,2.53,1.92,3.4,2.55.87.63,1.62,1.08,2.25,1.35.63.27,1.18.47,1.65.6v.4h-10v-.4c.53-.07,1.02-.18,1.45-.35.43-.17.65-.48.65-.95,0-.33-.12-.65-.35-.95-.23-.3-.55-.62-.95-.95l-76.5-63.1Z"/>
    <path class="cls-3" d="M614.8,428.25c0-5.53.93-10.32,2.8-14.35,1.87-4.03,4.6-7.43,8.2-10.2,3.6-2.77,7.98-4.97,13.15-6.6,5.17-1.63,11.05-2.82,17.65-3.55,6.6-.73,13.87-1.1,21.8-1.1,6.93,0,13.8.28,20.6.85s13.18,1.52,19.15,2.85c5.96,1.33,11.15,3.1,15.55,5.3v6.5h-.4c-.53-2.53-2.1-4.67-4.7-6.4-2.6-1.73-5.87-3.17-9.8-4.3-3.93-1.13-8.25-2.02-12.95-2.65-4.7-.63-9.42-1.07-14.15-1.3-4.73-.23-9.17-.35-13.3-.35-9.47,0-17.95.62-25.45,1.85-7.5,1.23-13.9,3.23-19.2,6-5.3,2.77-9.35,6.4-12.15,10.9-2.8,4.5-4.2,10.02-4.2,16.55s1.4,12.05,4.2,16.55c2.8,4.5,6.85,8.13,12.15,10.9,5.3,2.77,11.7,4.77,19.2,6,7.5,1.23,15.98,1.85,25.45,1.85,4.13,0,8.57-.13,13.3-.4,4.73-.27,9.45-.72,14.15-1.35,4.7-.63,9.02-1.5,12.95-2.6,3.93-1.1,7.2-2.43,9.8-4,2.6-1.57,4.17-3.45,4.7-5.65h.4v5.7c-4.73,2.13-10.07,3.85-16,5.15-5.93,1.3-12.23,2.23-18.9,2.8-6.67.57-13.47.85-20.4.85-7.93,0-15.2-.37-21.8-1.1-6.6-.73-12.48-1.92-17.65-3.55-5.17-1.63-9.55-3.83-13.15-6.6-3.6-2.77-6.33-6.17-8.2-10.2-1.87-4.03-2.8-8.82-2.8-14.35Z"/>
    <path class="cls-3" d="M679.5,496.15l-58.2,53.3c-.67.67-1.18,1.22-1.55,1.65-.37.43-.55.92-.55,1.45,0,.8.5,1.42,1.5,1.85,1,.43,2.57.72,4.7.85v.4h-13.9v-.4c1.6-.33,3.02-.93,4.25-1.8,1.23-.87,2.38-1.8,3.45-2.8l59.9-54.8.4.3ZM717.7,527.45v.4h-73v-.4h73ZM668.8,488.95c-1.33-1.13-2.32-1.95-2.95-2.45-.63-.5-1.22-.95-1.75-1.35v-.5h2.9l80.2,66.1c1.4,1.07,2.53,1.92,3.4,2.55.87.63,1.62,1.08,2.25,1.35.63.27,1.18.47,1.65.6v.4h-10v-.4c.53-.07,1.02-.18,1.45-.35.43-.17.65-.48.65-.95,0-.33-.12-.65-.35-.95-.23-.3-.55-.62-.95-.95l-76.5-63.1Z"/>
    <path class="cls-3" d="M619.8,582.75c0-.93-.18-1.88-.55-2.85-.37-.97-1.28-1.68-2.75-2.15v-.4h84.8c6.4,0,11.83.92,16.3,2.75,4.47,1.83,7.87,4.63,10.2,8.4,2.33,3.77,3.5,8.58,3.5,14.45s-1.17,10.57-3.5,14.3c-2.33,3.73-5.73,6.48-10.2,8.25-4.47,1.77-9.9,2.65-16.3,2.65h-79.3v14.1c0,1.47.38,2.58,1.15,3.35.77.77,1.88,1.32,3.35,1.65v.4h-10v-.4c1.47-.53,2.38-1.27,2.75-2.2.37-.93.55-1.87.55-2.8v-59.5ZM622,627.75h77.3c4.73,0,8.93-.52,12.6-1.55,3.67-1.03,6.75-2.6,9.25-4.7,2.5-2.1,4.38-4.7,5.65-7.8,1.27-3.1,1.9-6.68,1.9-10.75s-.63-7.77-1.9-10.9c-1.27-3.13-3.15-5.75-5.65-7.85-2.5-2.1-5.58-3.7-9.25-4.8-3.67-1.1-7.87-1.65-12.6-1.65h-77.3v50Z"/>
    <path class="cls-3" d="M636.8,702.36c-4.33-.47-8.2-1.22-11.6-2.25-3.4-1.03-6.07-2.58-8-4.65-1.93-2.07-2.9-4.83-2.9-8.3,0-3.2,1.03-5.98,3.1-8.35,2.07-2.37,5.3-4.32,9.7-5.85,4.4-1.53,10.03-2.67,16.9-3.4,6.87-.73,15.1-1.1,24.7-1.1,8.07,0,15.63.33,22.7,1,7.07.67,13.38,1.65,18.95,2.95s10.15,2.88,13.75,4.75v6.5h-.4c-.6-2.6-2.28-4.78-5.05-6.55-2.77-1.77-6.22-3.2-10.35-4.3-4.13-1.1-8.57-1.92-13.3-2.45-4.73-.53-9.4-.9-14-1.1-4.6-.2-8.7-.3-12.3-.3-7.2,0-13.95.27-20.25.8-6.3.54-11.85,1.45-16.65,2.75-4.8,1.3-8.55,3.13-11.25,5.5-2.7,2.37-4.05,5.35-4.05,8.95,0,3.33,1.02,5.88,3.05,7.65,2.03,1.77,4.7,3.05,8,3.85s6.85,1.4,10.65,1.8l63.4,6.4c5.07.47,9.25,1.23,12.55,2.3,3.3,1.07,5.78,2.6,7.45,4.6,1.67,2,2.5,4.67,2.5,8s-1.05,6.07-3.15,8.4c-2.1,2.33-5.37,4.25-9.8,5.75-4.43,1.5-10.15,2.6-17.15,3.3-7,.7-15.43,1.05-25.3,1.05-9.27,0-17.37-.42-24.3-1.25-6.93-.83-12.85-1.93-17.75-3.3-4.9-1.37-8.95-2.85-12.15-4.45v-6.5h.4c.46,2.53,2,4.67,4.6,6.4,2.6,1.73,5.88,3.17,9.85,4.3,3.97,1.13,8.27,2.02,12.9,2.65,4.63.63,9.25,1.07,13.85,1.3,4.6.23,8.8.35,12.6.35,7.73,0,14.83-.27,21.3-.8,6.47-.53,12.08-1.46,16.85-2.8,4.77-1.33,8.47-3.17,11.1-5.5,2.63-2.33,3.95-5.3,3.95-8.9,0-3.2-.87-5.63-2.6-7.3-1.73-1.67-4.22-2.88-7.45-3.65-3.23-.77-7.12-1.38-11.65-1.85l-63.4-6.4Z"/>
  </g>
</svg>