<svg xmlns="http://www.w3.org/2000/svg" viewBox="0 0 1366 768"><defs><style>.cls-1{fill:#fff;}.cls-2,.cls-6{fill:none;}.cls-2{stroke:#1d1d1b;stroke-linecap:round;stroke-linejoin:round;stroke-width:8px;}.cls-3{fill:#1a26cd;}.cls-4{fill:#1d1d1b;}.cls-5{fill:#ed1c24;}.cls-6{stroke:#ed1c24;stroke-miterlimit:10;stroke-width:11px;}</style></defs><g id="Layer_1" data-name="Layer 1"><rect class="cls-1" x="-55.82" y="-61.56" width="1466.48" height="940.05"/><path d="M211.54,68.16,203.1,73l-37,113.27H163l-28.55-83.18-32.78,83.18H98.64L59.74,73l-8.44-4.8V65.29H98.64v2.87L79.29,73l27.6,84.71L131,92.89,124.14,73l-12.46-4.8V65.29h50.79v2.87L143.11,73l26.45,84.33L195.82,73l-19.94-4.8V65.29h35.66Z"/><path d="M298.94,181.25v1.91H268.65V167.64c-2.87,9-10.54,18.59-24.72,18.59-18.59,0-24.92-11.31-24.92-29.52V112.44l-10.73-4V106.5H246.8v1.91l-12.26,4V152.5c0,14.95,3.83,21.46,15.9,21.46,11.5,0,18.21-8.05,18.21-23V112.44l-12.46-4V106.5h41.6v1.91l-13.61,3.84v65.16Z"/><path d="M347.12,138.89c16.29,4.41,19.74,11.88,19.74,23,0,15.52-10.54,24.34-29.32,24.34-10.16,0-21.09-4.79-24.92-13.42v13.42h-3.83V153.84h3.83v8.82c2.49,11.5,12.08,16.67,25.49,16.67,12.27,0,17.64-6.32,17.64-13.42,0-8-4.22-10-11.7-11.88l-15.9-4.22c-10.36-2.68-18-9-18-21.27,0-15.91,12.07-25.11,27.6-25.11,10.73,0,19.17,3.83,22.61,10.93v-10h3.84v32.39h-3.84V124.71c-3.64-12.08-10.92-15.34-22.8-15.34-9.59,0-15.53,5-15.53,13.23,0,7.47,3.84,10.54,10.93,12.46Z"/><path d="M455.2,108.41l-6.9,2.88L415,194.86c-10.73,29.7-15.53,38.52-26.45,38.52a19.11,19.11,0,0,1-10-2.3V204.82h2.88c3.83,16.1,6.9,18.59,10.73,18.59,5.18,0,9.39-10,16.29-28.55l3.26-8.44-32-75.13-8.43-2.88V106.5H414v1.91l-16.87,3.07.58,1.34,22.23,54.05,22.24-55.58-17.83-2.88V106.5H455.2Z"/><path d="M534.51,155.37H538v7.09c0,12.27-2.11,22.24-17.25,22.24-8.62,0-15.52-3.84-15.91-14-3.83,8.43-10.92,15.52-23.38,15.52-15.14,0-24.34-8.62-24.34-23.19,0-17.83,12.84-25.11,29.9-25.11a33.45,33.45,0,0,1,17.82,4.6V127.77c0-11.88-2.68-18.4-14.95-18.4-10.73,0-15.91,6.14-20.89,23.39h-2.87V106.5a134.48,134.48,0,0,1,26.06-3.07c20.89,0,28.18,8.63,28.18,27v36.8c0,5.36,1.72,8.43,6.32,8.43,5.75,0,7.86-4.6,7.86-14.57Zm-29.71,1.54v-8a24.77,24.77,0,0,0-15.33-5.37c-10.93,0-17.44,5.75-17.44,16.48,0,9.39,5.36,14.95,15.52,14.95C501.54,174.92,504.8,164.19,504.8,156.91Z"/><path d="M638.72,181.25v1.91H596.17v-1.91l13.61-3.84V136.78c0-12.65-4.41-20.89-17.63-20.89-13,0-19.36,9.2-19.36,25.68v35.84l13.41,3.84v1.91H543.65v-1.91l13.61-3.84V114.93H543.65v-1.72l28.18-8.63v19.74c5.56-13.8,15.91-20.89,28-20.89,17.06,0,25.49,11.31,25.49,28.37v45.61Z"/><path d="M721.69,155.37h3.45v7.09c0,12.27-2.1,22.24-17.25,22.24-8.62,0-15.52-3.84-15.9-14-3.84,8.43-10.93,15.52-23.39,15.52-15.14,0-24.34-8.62-24.34-23.19,0-17.83,12.84-25.11,29.9-25.11a33.46,33.46,0,0,1,17.83,4.6V127.77c0-11.88-2.69-18.4-15-18.4-10.74,0-15.91,6.14-20.9,23.39h-2.87V106.5a134.57,134.57,0,0,1,26.07-3.07c20.89,0,28.17,8.63,28.17,27v36.8c0,5.36,1.73,8.43,6.33,8.43,5.75,0,7.85-4.6,7.85-14.57ZM692,156.91v-8a24.82,24.82,0,0,0-15.34-5.37c-10.92,0-17.44,5.75-17.44,16.48,0,9.39,5.37,14.95,15.53,14.95C688.73,174.92,692,164.19,692,156.91Z"/><path d="M876.75,181.44v1.92H835.16v-1.92l12.65-3.83V137.74c0-14.18-4-21.66-17.25-21.66-13.8,0-18.59,11.31-18.59,25.3v36.23l13.8,3.83v1.92H782.65v-1.92l13.8-3.83V137.74c0-13-3.07-21.66-17.45-21.85-13-.19-18.4,10-18.59,24.53v37l13.42,3.84v1.91H731.28v-1.91l13.61-3.84V114.93H730.32v-1.72l29.13-8.63v19.74c5.56-13.8,15.72-21.08,27.22-20.89,13.8.19,22.23,7.86,24.53,20.51,5.56-12.84,14.95-20.32,27-20.32,16.48,0,25.11,11.31,25.11,28.37v45.62Z"/><path d="M946.81,141.38H892.38c1.34,19.36,11.31,31.05,28,31.05,12.46,0,19.17-3.45,23.38-13.42h3.07c-1.92,12.65-10.16,27.22-31.62,27.22-24.35,0-35.65-18.78-35.65-41.21,0-23.19,12.84-41.59,36.22-41.59C939.72,103.43,949.11,122.6,946.81,141.38Zm-14.57-5.75c0-14.37-5.55-26.45-19.74-26.45-12.46,0-19.93,9.2-20.31,26.45Z"/><path d="M1203.38,139.9l2.45.7-4.38,33.25H1138.8l-1-4.72c24-24.68,49.18-53,49.18-76.83,0-14-5.43-22.4-17.15-22.4-13.3,0-19.6,9.8-26.61,31.5l-2.62-.53,5.25-33.07a63.59,63.59,0,0,1,23.45-4.38c20.83,0,34.48,9.8,34.48,29.58,0,22.22-17.15,40.07-56.35,74h41.3Z"/><path d="M1294.73,171.23v2.62h-50.58v-2.62l18.9-4.73v-24h-49l-1.4-2.27,44.45-69.13-15.4-2.27V66.22h50.4v2.63L1277.58,72v61.77h15.22v8.75h-15.22v24Zm-69-37.46h37.27V72h-.35Z"/><path d="M1068.73,268.18l2.45.7-4.38,33.26h-62.65l-1-4.73c24-24.68,49.18-53,49.18-76.83,0-14-5.43-22.4-17.16-22.4-13.29,0-19.59,9.8-26.6,31.5l-2.62-.52,5.25-33.08a63.59,63.59,0,0,1,23.45-4.37c20.83,0,34.48,9.8,34.48,29.57,0,22.23-17.15,40.08-56.36,74H1054Z"/><path d="M1132.08,300.39v1.75h-52.33v-1.75l18.9-5.6V201.86l-18.9-5.6v-1.75h52.33v1.75l-18.9,5.6v92.93Z"/><path d="M114.32,484.56c0,21.6-16.48,28-39.68,28H37.52V511l11.36-3.2V419l-11.36-3.2v-1.6H77c22.56,0,33.76,7.52,33.76,22.56,0,12.16-10.08,20.64-24.48,22.72C102.32,460.88,114.32,468.24,114.32,484.56ZM72.4,419.76H62.8V458h6.88c18.08,0,25.76-7.68,25.76-21.12C95.44,426,87.76,419.76,72.4,419.76ZM99,484.56c0-15.52-10.4-21.12-25.44-21.12H62.8V507H75.12C90.32,507,99,500.4,99,484.56Z"/><path d="M204.08,507.92l10.08,3v1.6H172.88V511l16.48-3.2L181,482.64h-36.8l-8.32,25.12,16.8,3.2v1.6h-35.2V511l10.72-3,32.32-89-13-2.4v-2.4h39.68v2.4L173.84,419ZM146,477h33.12l-16.64-49.92Z"/><path d="M277,414.16H311v2.4l-10.08,4V478.8c-.16,22.72-12.64,36.32-35.36,36.32-23.2,0-37-10.88-37-33.92V420.56l-11.2-4v-2.4h43.36v2.4l-18.24,4v59.2c0,18.72,8.64,27.52,26.08,27.52,19.2,0,25.6-12,25.6-29.12v-57.6l-17.12-4Z"/><path d="M356.87,512.56H319.75v-1.44l12.48-3.52V419.28l-12.48-3.52v-1.6h37.76c40.65,0,58.89,19.52,58.89,48.32C416.4,494.8,399.44,512.56,356.87,512.56Zm45-49.44c0-30.88-16.63-43.36-41.92-43.36-4,0-9,.32-13.76.8v85.76c4.48.16,9.92.32,13.76.32C389.83,506.64,401.83,491.92,401.83,463.12Z"/><path d="M500.71,485.84l2.4.64-4.8,26.08h-71.2V511l11.36-3.2V419l-11.36-3.2v-1.6h68.64L498.63,441h-2.4l-11.84-21.28h-32v38.88h22.24l5.28-14.08h2.4v33.76h-2.4l-5.28-14.08H452.39V507h34.72Z"/><path d="M582,483.44l2.4.64-4.48,28.48h-69.6v-2.4l12.48-4v-85.6l-12.48-4v-2.4H554v2.4l-17.28,4V507h32.64Z"/><path d="M661.67,483.44l2.4.64-4.48,28.48H590v-2.4l12.48-4v-85.6l-12.48-4v-2.4h43.68v2.4l-17.28,4V507H649Z"/><path d="M750.63,507.92l10.08,3v1.6H719.43V511l16.48-3.2-8.32-25.12h-36.8l-8.32,25.12,16.8,3.2v1.6h-35.2V511l10.72-3,32.32-89-13-2.4v-2.4h39.68v2.4L720.39,419ZM692.55,477h33.12L709,427.12Z"/><path d="M794.31,507.76,810,511v1.6H764.71V511l15.68-3.2V419l-15.68-3.2v-1.6H810v1.6L794.31,419Z"/><path d="M888.39,498.32A70.24,70.24,0,0,0,899.75,513l-.32,1.12c-11,0-18.4-5.92-24.64-15.2L850,462.16v-1c17.44-1.44,28.32-8.32,28.32-22.4,0-14.24-10.08-19-26.72-19h-7.2v86.4l17.28,4v2.4H819.59v-2.4l10.88-4v-85.6l-10.88-4v-2.4h37.12c21.28,0,37,6.08,37,23.84,0,15.36-12.32,21.28-27.36,23.2Z"/><path d="M978.47,485.84l2.4.64-4.8,26.08h-71.2V511l11.36-3.2V419l-11.36-3.2v-1.6h68.64L976.39,441H974l-11.84-21.28h-32v38.88h22.24l5.28-14.08h2.4v33.76h-2.4l-5.28-14.08H930.15V507h34.72Z"/><path d="M142.44,622.58l-7.68,4v38.17h-1.44L121.48,653c-5.28,8.59-15.52,14.31-30.88,14.31-29.12,0-46.72-19.24-46.72-49.93,0-29.73,16.8-53,53.28-53a144.36,144.36,0,0,1,32.16,4l2.24,30.38-2.4.31-.32-.95c-6.08-18.92-16.48-28-34.72-28-24,0-35.36,20.68-35.36,44.37,0,27.67,11.84,45.79,35.2,45.79,17.92,0,27.36-10.49,27.36-23.53V626.55l-17.28-4v-2.39h38.4Z"/><path d="M216.68,641.66h2.88v5.88c0,10.18-1.76,18.45-14.4,18.45-7.2,0-13-3.18-13.28-11.61-3.2,7-9.12,12.88-19.52,12.88C159.72,667.26,152,660.1,152,648c0-14.79,10.72-20.83,25-20.83A28,28,0,0,1,191.88,631V618.76c0-9.86-2.24-15.26-12.48-15.26-9,0-13.28,5.08-17.44,19.4h-2.4V601.11a113.2,113.2,0,0,1,21.76-2.54c17.44,0,23.52,7.15,23.52,22.42v30.53c0,4.45,1.44,7,5.28,7,4.8,0,6.56-3.81,6.56-12.08Zm-24.8,1.27v-6.68a20.8,20.8,0,0,0-12.8-4.45c-9.12,0-14.56,4.77-14.56,13.68,0,7.79,4.48,12.4,13,12.4C189.16,657.88,191.88,649,191.88,642.93Z"/><path d="M259.72,628c13.6,3.66,16.48,9.86,16.48,19.09,0,12.88-8.8,20.19-24.48,20.19-8.48,0-17.6-4-20.8-11.13v11.13h-3.2V640.39h3.2v7.31c2.08,9.54,10.08,13.84,21.28,13.84,10.24,0,14.72-5.25,14.72-11.13,0-6.68-3.52-8.27-9.76-9.86l-13.28-3.5c-8.64-2.23-15-7.48-15-17.65,0-13.2,10.08-20.83,23-20.83,9,0,16,3.18,18.88,9.06v-8.27H274v26.88h-3.2v-10c-3-10-9.12-12.72-19-12.72-8,0-13,4.13-13,11,0,6.2,3.2,8.74,9.12,10.33Z"/><path d="M330.12,651.36c-2.08,7.95-6.24,15.9-18.08,15.9-12.33,0-18.41-5.72-18.41-18.13V605.88H280.19v-1.59c15.05-2.22,21.6-8.9,24-25.44h2.39v22.26h21.29v4.77H306.59v39.75c0,7.8,1.45,13,10.57,13,5.28,0,8.32-2.22,10.56-7.31Z"/><path d="M336.67,633.07c0-20.35,12-34.34,34.4-34.34,21.28,0,32.32,15.1,32.32,34.34,0,20.36-12,34.35-33.6,34.35C347.71,667.42,336.67,652.31,336.67,633.07Zm53.76,2.23c0-16.06-6.88-31.64-21.44-31.64-14.24,0-19.36,12.24-19.36,27.19,0,16.22,6.88,31.64,21.44,31.64C385.31,662.49,390.43,651.36,390.43,635.3Zm-9.28-70c-1.28,12.41-8.64,20.68-23.52,26.24l-1.12-1.75c8.48-7.63,10.88-13.67,10.88-24.49Z"/><path d="M492.67,663.13v1.59H457.15v-1.59L468.51,660V626.24c0-10.5-3.68-17.34-14.72-17.34-10.88,0-16.16,7.64-16.16,21.31V660l11.2,3.18v1.59H413.31v-1.59L424.67,660V608.11H413.31v-1.43l23.52-7.16V615.9c4.64-11.45,13.28-17.33,23.36-17.33,14.24,0,21.28,9.38,21.28,23.53V660Z"/><path d="M1142.79,436.89h89.9v3.42l-23.43,6.85V586.81c0,38.68-12.74,64.69-58.55,64.69-12.74,0-27.55-2.74-36.85-6.5l-9.64-55.79,5.16-1c10.68,27.72,26.52,50,46.16,50,16.18,0,23.76-11.63,23.76-47.92V447.16l-36.51-6.85Z"/><line class="cls-2" x1="37.37" y1="365.62" x2="1312.37" y2="365.62"/><line class="cls-2" x1="1006.53" y1="684.61" x2="1006.53" y2="366.09"/><path class="cls-3" d="M205.78,340.44a5.62,5.62,0,1,1-5.63-5.63A5.62,5.62,0,0,1,205.78,340.44Zm-10.08,0a4.47,4.47,0,0,0,8.93,0,4.47,4.47,0,1,0-8.93,0Z"/><path class="cls-3" d="M212.48,344.73h6v1.12h-7.4v-.46a4.12,4.12,0,0,1,2.39-3.81l2.16-1.26a2.48,2.48,0,0,0,1.49-2.26,2,2,0,0,0-2.17-2.13,2.36,2.36,0,0,0-2.45,2.53h-1.31a3.51,3.51,0,0,1,3.76-3.67,3.2,3.2,0,0,1,3.53,3.27c0,1.18-.37,2.18-2.12,3.22l-2.48,1.47A2.67,2.67,0,0,0,212.48,344.73Z"/><path class="cls-3" d="M227.81,342.38a3.54,3.54,0,0,1-3.78,3.67c-2.25,0-3.84-1.35-3.84-3.33h1.36a2.27,2.27,0,0,0,2.5,2.19,2.38,2.38,0,0,0,2.42-2.56,2.28,2.28,0,0,0-2.44-2.48,2.16,2.16,0,0,0-2,1.07h-1.57l.41-5.95h6.41v1.12H222l-.24,3.66a3.19,3.19,0,0,1,2.54-1.09A3.45,3.45,0,0,1,227.81,342.38Z"/><path class="cls-3" d="M229.33,340.44c0-3.28,1.6-5.65,4.34-5.65s4.33,2.37,4.33,5.65-1.6,5.61-4.33,5.61S229.33,343.72,229.33,340.44Zm7.35,0c0-2.72-1.06-4.46-3-4.46s-3,1.74-3,4.46,1.05,4.42,3,4.42S236.68,343.16,236.68,340.44Z"/><path class="cls-3" d="M252.29,338c0,1.79-1.23,3.09-3.71,3.09h-3v4.75h-1.36V335h4.48C251.17,335,252.29,336.14,252.29,338Zm-1.36,0c0-1.22-.75-1.89-2.46-1.89h-2.9V340h2.9C250.18,340,250.93,339.18,250.93,338Z"/><path class="cls-3" d="M261.68,336.11h-3.6v9.74h-1.34v-9.74h-3.62V335h8.56Z"/><path class="cls-3" d="M529.78,659.44a5.62,5.62,0,1,1-5.63-5.63A5.62,5.62,0,0,1,529.78,659.44Zm-10.08,0a4.47,4.47,0,0,0,8.93,0,4.47,4.47,0,1,0-8.93,0Z"/><path class="cls-3" d="M538.64,654v10.86h-1.37v-8.56a3.44,3.44,0,0,1-2.49.69v-1.12c1.86-.07,2.42-.75,2.69-1.87Z"/><path class="cls-3" d="M548.53,661.38a3.54,3.54,0,0,1-3.78,3.67c-2.25,0-3.84-1.35-3.84-3.33h1.36a2.27,2.27,0,0,0,2.5,2.19,2.38,2.38,0,0,0,2.42-2.56,2.28,2.28,0,0,0-2.44-2.48,2.16,2.16,0,0,0-2,1.07h-1.57l.41-6H548v1.12h-5.3l-.24,3.66a3.19,3.19,0,0,1,2.54-1.09A3.45,3.45,0,0,1,548.53,661.38Z"/><path class="cls-3" d="M550.05,659.44c0-3.28,1.6-5.65,4.34-5.65s4.33,2.37,4.33,5.65-1.6,5.61-4.33,5.61S550.05,662.72,550.05,659.44Zm7.35,0c0-2.72-1.06-4.46-3-4.46s-3,1.74-3,4.46,1,4.42,3,4.42S557.4,662.16,557.4,659.44Z"/><path class="cls-3" d="M573,657c0,1.79-1.23,3.09-3.71,3.09h-3v4.75h-1.36V654h4.48C571.89,654,573,655.14,573,657Zm-1.36,0c0-1.22-.75-1.89-2.46-1.89h-2.9V659h2.9C570.9,659,571.65,658.18,571.65,657Z"/><path class="cls-3" d="M582.4,655.11h-3.6v9.74h-1.34v-9.74h-3.62V654h8.56Z"/><path class="cls-3" d="M1144.78,340.44a5.62,5.62,0,1,1-5.63-5.63A5.62,5.62,0,0,1,1144.78,340.44Zm-10.08,0a4.47,4.47,0,0,0,8.93,0,4.47,4.47,0,1,0-8.93,0Z"/><path class="cls-3" d="M1151.48,344.73h6v1.12h-7.4v-.46a4.12,4.12,0,0,1,2.39-3.81l2.16-1.26a2.48,2.48,0,0,0,1.49-2.26,2,2,0,0,0-2.17-2.13,2.36,2.36,0,0,0-2.45,2.53h-1.31a3.51,3.51,0,0,1,3.76-3.67,3.2,3.2,0,0,1,3.53,3.27c0,1.18-.37,2.18-2.12,3.22l-2.48,1.47A2.67,2.67,0,0,0,1151.48,344.73Z"/><path class="cls-3" d="M1167,342.32a3.55,3.55,0,0,1-3.76,3.73c-3.12,0-4-2.77-4-5.72,0-3.87,2-5.54,4.18-5.54a3.09,3.09,0,0,1,3.43,2.79h-1.36a1.89,1.89,0,0,0-2.07-1.63c-1.82,0-2.85,1.71-2.85,4.06v.23a3,3,0,0,1,2.82-1.53A3.43,3.43,0,0,1,1167,342.32Zm-1.33,0a2.29,2.29,0,0,0-2.38-2.45,2.4,2.4,0,0,0-2.5,2.45,2.48,2.48,0,0,0,2.5,2.57A2.38,2.38,0,0,0,1165.67,342.32Z"/><path class="cls-3" d="M1168.63,340.44c0-3.28,1.6-5.65,4.34-5.65s4.34,2.37,4.34,5.65-1.6,5.61-4.34,5.61S1168.63,343.72,1168.63,340.44Zm7.35,0c0-2.72-1.06-4.46-3-4.46s-3,1.74-3,4.46,1.06,4.42,3,4.42S1176,343.16,1176,340.44Z"/><path class="cls-3" d="M1191.59,338c0,1.79-1.23,3.09-3.71,3.09h-3v4.75h-1.36V335H1188C1190.47,335,1191.59,336.14,1191.59,338Zm-1.36,0c0-1.22-.75-1.89-2.46-1.89h-2.9V340h2.9C1189.48,340,1190.23,339.18,1190.23,338Z"/><path class="cls-3" d="M1201,336.11h-3.6v9.74H1196v-9.74h-3.62V335H1201Z"/><polygon class="cls-4" points="46 703.86 51.06 714.1 62.37 715.75 54.19 723.73 56.12 734.99 46 729.67 35.88 734.99 37.81 723.73 29.63 715.75 40.94 714.1 46 703.86"/><polygon class="cls-4" points="116.78 703.86 121.84 714.1 133.15 715.75 124.96 723.73 126.89 734.99 116.78 729.67 106.66 734.99 108.59 723.73 100.41 715.75 111.72 714.1 116.78 703.86"/><polygon class="cls-4" points="187.56 703.86 192.61 714.1 203.93 715.75 195.74 723.73 197.67 734.99 187.56 729.67 177.44 734.99 179.37 723.73 171.19 715.75 182.5 714.1 187.56 703.86"/><polygon class="cls-4" points="258.33 703.86 263.39 714.1 274.7 715.75 266.52 723.73 268.45 734.99 258.33 729.67 248.22 734.99 250.15 723.73 241.96 715.75 253.28 714.1 258.33 703.86"/><polygon class="cls-4" points="329.11 703.86 334.17 714.1 345.48 715.75 337.3 723.73 339.23 734.99 329.11 729.67 318.99 734.99 320.93 723.73 312.74 715.75 324.05 714.1 329.11 703.86"/><polygon class="cls-4" points="399.89 703.86 404.95 714.1 416.26 715.75 408.07 723.73 410.01 734.99 399.89 729.67 389.77 734.99 391.7 723.73 383.52 715.75 394.83 714.1 399.89 703.86"/><polygon class="cls-4" points="470.67 703.86 475.73 714.1 487.04 715.75 478.85 723.73 480.78 734.99 470.67 729.67 460.55 734.99 462.48 723.73 454.3 715.75 465.61 714.1 470.67 703.86"/><polygon class="cls-4" points="541.44 703.86 546.5 714.1 557.81 715.75 549.63 723.73 551.56 734.99 541.44 729.67 531.33 734.99 533.26 723.73 525.08 715.75 536.39 714.1 541.44 703.86"/><polygon class="cls-4" points="612.22 703.86 617.28 714.1 628.59 715.75 620.41 723.73 622.34 734.99 612.22 729.67 602.11 734.99 604.04 723.73 595.85 715.75 607.16 714.1 612.22 703.86"/><polygon class="cls-4" points="683 703.86 688.06 714.1 699.37 715.75 691.18 723.73 693.12 734.99 683 729.67 672.88 734.99 674.82 723.73 666.63 715.75 677.94 714.1 683 703.86"/><polygon class="cls-4" points="753.78 703.86 758.84 714.1 770.15 715.75 761.96 723.73 763.89 734.99 753.78 729.67 743.66 734.99 745.59 723.73 737.41 715.75 748.72 714.1 753.78 703.86"/><polygon class="cls-4" points="824.56 703.86 829.61 714.1 840.92 715.75 832.74 723.73 834.67 734.99 824.56 729.67 814.44 734.99 816.37 723.73 808.19 715.75 819.5 714.1 824.56 703.86"/><polygon class="cls-4" points="895.33 703.86 900.39 714.1 911.7 715.75 903.52 723.73 905.45 734.99 895.33 729.67 885.22 734.99 887.15 723.73 878.96 715.75 890.27 714.1 895.33 703.86"/><polygon class="cls-4" points="966.11 703.86 971.17 714.1 982.48 715.75 974.3 723.73 976.23 734.99 966.11 729.67 955.99 734.99 957.93 723.73 949.74 715.75 961.05 714.1 966.11 703.86"/><polygon class="cls-4" points="1036.89 703.86 1041.95 714.1 1053.26 715.75 1045.07 723.73 1047.01 734.99 1036.89 729.67 1026.77 734.99 1028.7 723.73 1020.52 715.75 1031.83 714.1 1036.89 703.86"/><polygon class="cls-4" points="1107.67 703.86 1112.72 714.1 1124.04 715.75 1115.85 723.73 1117.78 734.99 1107.67 729.67 1097.55 734.99 1099.48 723.73 1091.3 715.75 1102.61 714.1 1107.67 703.86"/><polygon class="cls-4" points="1178.44 703.86 1183.5 714.1 1194.81 715.75 1186.63 723.73 1188.56 734.99 1178.44 729.67 1168.33 734.99 1170.26 723.73 1162.08 715.75 1173.39 714.1 1178.44 703.86"/><polygon class="cls-4" points="1249.22 703.86 1254.28 714.1 1265.59 715.75 1257.41 723.73 1259.34 734.99 1249.22 729.67 1239.11 734.99 1241.04 723.73 1232.85 715.75 1244.16 714.1 1249.22 703.86"/><polygon class="cls-4" points="1320 703.86 1325.06 714.1 1336.37 715.75 1328.18 723.73 1330.12 734.99 1320 729.67 1309.88 734.99 1311.82 723.73 1303.63 715.75 1314.94 714.1 1320 703.86"/><path class="cls-5" d="M743.41,631.55l-3,1.21-14.75,35.82c-4.76,12.74-6.86,16.52-11.57,16.47a8.25,8.25,0,0,1-4.28-1l.12-11.3h1.24c1.58,6.95,2.89,8,4.54,8,2.22,0,4.09-4.25,7.14-12.22l1.45-3.61-13.44-32.5-3.61-1.28v-.83l18.41.2v.83l-7.28,1.24.24.58L728,656.56l9.83-23.83-7.67-1.32v-.83l13.29.15Z"/><path class="cls-5" d="M746.49,647.26c-.35-10.56,5.6-18,17.15-18.41,11-.36,16.92,7.29,17.25,17.28.35,10.56-5.6,18-16.74,18.38C752.77,664.89,746.82,657.24,746.49,647.26Zm27.76.24c-.28-8.33-4.09-16.3-11.6-16-7.34.24-9.77,6.68-9.52,14.43.28,8.42,4.09,16.3,11.6,16.06C772.07,661.69,774.52,655.83,774.25,647.5Z"/><path class="cls-5" d="M826.6,658.28l.07.82-13,1-.54-6.66c-.92,4-3.88,8.34-10,8.83-8,.65-11.09-4-11.72-11.8l-1.53-19-4.75-1.36-.06-.82L801.64,628l.06.82L796.58,631l1.38,17.2c.52,6.42,2.39,9.08,7.57,8.66,4.94-.4,7.54-4.08,7-10.5l-1.33-16.54-5.49-1.29-.06-.83,17.85-1.44.07.83-5.71,2.11,2.25,28Z"/><path class="cls-5" d="M884.18,616.39l.71,4.65-8,1.22a12.92,12.92,0,0,1,4.61,8.32c1.24,8.07-2.73,14.36-11.3,16.17l.86,5.63,2.36-.36c8.16-1.25,14.16,1.34,15.23,8.36,1.26,8.24-6.4,13.34-15.54,14.73-9.79,1.5-17.55-1.24-18.81-9.48-1.08-7,4.52-11.38,12-12.53l1.71-.26-.86-5.63c-8.89.86-14.85-3.16-16.14-11.64-1.2-7.83,3.14-14.43,13.09-16a17.84,17.84,0,0,1,10.45,1.16l9-4.3Zm-9.52,17.49c-1.21-7.92-5-12.51-10.8-11.63-4.81.74-6.87,4.73-6,10.44,1.32,8.65,5.07,12.42,10.7,11.55C873.7,643.46,875.5,639.34,874.66,633.88Zm-3.86,21.21-1.63.25c-5.95.91-9.17,3.91-8.26,9.86.86,5.64,6.53,8.28,12.08,7.43,6.2-1,9.72-5.25,8.89-10.63C881,656,876.52,654.22,870.8,655.09Z"/><path class="cls-5" d="M919,626.28l-23,4.52c2.17,8.07,7.36,12.18,14.4,10.8,5.26-1,7.81-3.05,8.77-7.61l1.3-.25c.23,5.5-2,12.34-11.11,14.12-10.29,2-16.62-5-18.48-14.46-1.93-9.8,2-18.64,11.86-20.58C912.83,610.83,918.39,618.16,919,626.28Zm-6.63-1.22c-1.19-6.07-4.54-10.72-10.53-9.54-5.27,1-7.66,5.54-6.4,12.86Z"/><path class="cls-5" d="M949.83,630.48c-.11,4.27-1.26,8.77-7.21,10.16-6.19,1.44-9.92-.74-11.38-7l-5.09-21.87-6.75,1.58-.19-.81c7.3-2.88,9.8-7,9.06-15.67l1.21-.28,2.62,11.25,10.69-2.48.56,2.41-10.69,2.49,4.68,20.09c.92,3.94,2.26,6.43,6.84,5.36,2.66-.62,3.92-2.1,4.45-4.94Z"/><path class="cls-5" d="M996.69,617.5c.12,4.27-.79,8.83-6.65,10.54-6,1.75-9.84-.15-11.66-6.07l-12.16-41.76-6.07.13-.23-.79,22.91-6.67.23.79-10.49,4.43L984.2,618c1.13,3.89,2.61,6.29,7.13,5,2.61-.76,3.79-2.31,4.17-5.17Z"/><path class="cls-5" d="M997.84,607.29c-3.34-10,.24-18.86,11.2-22.52,10.42-3.46,18.3,2.18,21.45,11.65,3.34,10-.24,18.87-10.81,22.39C1008.88,622.41,1001,616.77,997.84,607.29Zm26.68-7.66c-2.64-7.91-8.56-14.46-15.69-12.09-7,2.32-7.46,9.19-5,16.55,2.66,8,8.56,14.46,15.68,12.08S1027.15,607.54,1024.52,599.63Z"/><path class="cls-5" d="M1051.77,585.56c7.24-.71,9.77,1.77,11.47,6.25,2.37,6.25-.53,11.41-8.1,14.28-4.09,1.55-9.22,1.29-12.08-1.6l2,5.41-1.55.58-4.94-13,1.54-.59,1.35,3.55c2.76,4.25,7.41,4.87,12.81,2.82,4.94-1.87,6.14-5.24,5-8.09-1.23-3.24-3.22-3.37-6.52-3l-7,.73c-4.58.5-8.63-.88-10.5-5.82-2.43-6.4,1-11.95,7.28-14.32,4.32-1.64,8.3-1.39,10.77.94l-1.52-4,1.55-.58,4.94,13-1.54.58-1.85-4.86c-3.31-4.3-6.74-4.5-11.52-2.69-3.86,1.46-5.49,4.38-4.24,7.7,1.15,3,3.16,3.66,6.31,3.35Z"/><path class="cls-5" d="M1090.5,582.9c.6,4.22.21,8.86-5.43,11.21-5.87,2.45-9.9.91-12.38-5L1064,568.36l-6.39,2.67-.32-.76c6.71-4.06,8.5-8.56,6.34-17l1.14-.47,4.45,10.66,10.13-4.22,1,2.28-10.14,4.23,8,19c1.56,3.73,3.29,6,7.63,4.15,2.51-1.05,3.52-2.72,3.57-5.6Z"/><path class="cls-5" d="M762.27,576.93l3.94,13.68c-2.43,2.93-9.27,7-15.76,9.47-15.16,5.64-28-.35-33.51-15.28-5.32-14.31-.27-29.13,15.67-35.06a67.61,67.61,0,0,1,15.57-3.59L756,560.06l-1.1.59c-6.39-7.48-13.12-11.14-22.33-7.72-12.38,4.6-13.37,15.89-9,27.57,4.75,12.77,14.78,20.57,26.77,16.11,7.2-2.67,11.83-7,10.81-19.25Z"/><path class="cls-5" d="M800.82,570l1.43-.42.87,2.92c1.51,5.07,1.86,9.44-4.39,11.3-3.56,1.06-6.88.33-8.28-3.82-.55,4-2.61,7.75-7.75,9.28-6.25,1.86-11.1-.57-12.89-6.58-2.19-7.36,2.21-11.94,9.25-14a14.46,14.46,0,0,1,7.92-.29l-1.81-6.09c-1.46-4.91-3.37-7.27-8.43-5.76-4.43,1.32-5.81,4.49-5.75,12.22l-1.19.35-3.22-10.83A57.36,57.36,0,0,1,777,553.8c8.62-2.57,12.69.09,14.95,7.69l4.52,15.19c.66,2.21,1.75,3.27,3.65,2.7,2.37-.7,2.67-2.86,1.45-7Zm-12.07,4.28-1-3.32a10.66,10.66,0,0,0-7-.33c-4.51,1.34-6.49,4.52-5.17,9,1.15,3.87,4,5.51,8.24,4.26C789.62,582.15,789.65,577.32,788.75,574.31Z"/><path class="cls-5" d="M850.1,563.11c-.07,4.26-1.19,8.78-7.13,10.21-6.09,1.47-9.82-.6-11.35-6.6L821.35,524.2l-15.16,3.66L816,568.3c.95,3.93,2.31,6.4,6.88,5.3,2.65-.64,3.9-2.13,4.41-5l1.2-.29c-.07,4.26-1.19,8.78-7.13,10.21-6.1,1.47-9.82-.6-11.35-6.6l-10.21-42.28-6.06-.15-.2-.8,44.85-10.82.2.8-10.69,3.93,9.76,40.44c.95,3.93,2.31,6.4,6.88,5.3,2.65-.64,3.9-2.13,4.41-5Z"/><path class="cls-5" d="M936.39,554.64l.13.81-17.69,2.78-.13-.82,5.12-2.47-2.66-17c-.95-6-3.16-9-8.78-8.06-5.88.92-7.16,6.05-6.22,12l2.42,15.41,6.12.71.13.82-18.35,2.88-.12-.82,5.61-2.55-2.66-17c-.87-5.54-2.75-9-8.88-8.13-5.56.79-7.16,5.47-6.27,11.68l2.47,15.74,6,.73.13.82-18.1,2.84-.13-.82,5.54-2.54-4.18-26.58-6.2,1-.11-.73,11.82-5.61,1.31,8.39c1.45-6.24,5.28-10,10.19-10.7,5.88-.84,10,1.86,11.81,7.08,1.5-5.83,5-9.64,10.13-10.45,7-1.1,11.44,3.14,12.58,10.39l3,19.41Z"/><path class="cls-5" d="M966.26,534.5,942.94,537c1.46,8.23,6.26,12.78,13.4,12,5.33-.57,8-2.35,9.4-6.81l1.32-.14c-.25,5.51-3.12,12.12-12.31,13.09-10.43,1.1-16.12-6.43-17.14-16-1.05-9.93,3.61-18.4,13.63-19.46C961.5,518.57,966.39,526.35,966.26,534.5Zm-6.5-1.8c-.65-6.16-3.58-11.08-9.66-10.44-5.33.57-8.12,4.85-7.5,12.25Z"/><path class="cls-5" d="M1013.66,548.68l0,.82-20.11,1,0-.83,6.76-2L999,520.83l-6.84.34,0-.74L1005.4,516l1.58,31.32Zm-16.55-41.56a4.58,4.58,0,1,1,4.76,4.3A4.5,4.5,0,0,1,997.11,507.12Z"/><path class="cls-5" d="M1041.82,494.53l.21,11.89-1.23,0c-2-7.39-4.32-10-8.19-9.92s-5.73,3-5.63,8.36c.07,3.88.79,7,1.45,11.28l10.23-.19,0,2.48-10.15.19.51,28.05,8.45,1.5,0,.82-21,.39,0-.82,5.83-1.76-.52-28.06-5.86.11,0-2.48,5.86-.11-.1-5.28c-.17-9.24,3.57-16.74,13.06-16.91A33,33,0,0,1,1041.82,494.53Z"/><ellipse class="cls-6" cx="885.51" cy="591.84" rx="261.78" ry="113.46" transform="matrix(0.99, -0.16, 0.16, 0.99, -85.36, 153.87)"/></g></svg>