<?xml version='1.0' encoding='UTF-8'?>
<svg xmlns="http://www.w3.org/2000/svg" xmlns:xlink="http://www.w3.org/1999/xlink" width="1366px" height="768px" viewBox="0 0 1366 768" x="0px" y="0px" enable-background="new 0 0 1366 768"><defs><symbol overflow="visible" id="d75e5641a"><path d="M13.9-15.31v-.58l-1.46.08H2.3L.77-15.9v.58L0-11.56l.45.14c.97-1.97 1.64-3.86 3.72-3.9H6.4v13.07c0 1.3-.53 1.63-1.83 1.66V0h5.83v-.6C9.1-.62 8.56-.94 8.56-2.24v-13.06h2.06c2.1.03 2.7 1.92 3.66 3.89l.45-.14zm0 0"/></symbol><symbol overflow="visible" id="d75e5641b"><path d="M11.56-.64v-6.92c0-2.19-.95-3.63-3.19-3.63-1.48 0-2.96 1.03-4 2.24v-8.5l-.26-.16-3.13 1.1-.03.3c.63.5.94.87 1.38 1.57v14L.64-.58V0h5.4v-.58L4.38-.64v-7.64a3.66 3.66 0 012.85-1.53c1.7 0 2.31 1.17 2.31 3v6.17l-1.69.06V0h5.41v-.58zm0 0"/></symbol><symbol overflow="visible" id="d75e5641c"><path d="M3.22-13.58c.84 0 1.36-.53 1.36-1.47 0-.75-.56-1.34-1.36-1.34-.81 0-1.38.62-1.38 1.34 0 .94.57 1.47 1.38 1.47zM.64 0h5.4v-.58L4.38-.64v-10.52l-.26-.17-3.13 1.11-.03.28c.63.53.94.9 1.38 1.58v7.72L.64-.58zm0 0"/></symbol><symbol overflow="visible" id="d75e5641d"><path d="M5.1-11.19c-2.6 0-3.94 1.38-3.94 3.2 0 1.65 1.14 2.52 2.25 3.05l2.62 1.27c.81.4 1.22.89 1.22 1.62 0 1.28-1.03 1.83-2.16 1.83-1.9 0-2.73-1.17-3.51-3.06l-.42.06.32 2.94c.8.36 2.2.67 3.36.67C7.44.4 9.1-.98 9.1-2.92c0-1.6-1.03-2.14-2.56-2.96L4.58-6.9c-1.1-.57-1.7-.98-1.7-1.96 0-1.11.8-1.76 1.96-1.76 1.75 0 2.63.82 3.32 2.83h.36l-.2-2.93c-1.1-.29-2.1-.46-3.23-.46zm0 0"/></symbol><symbol overflow="visible" id="d75e5641f"><path d="M7.83-2.6c-.66.91-1.4 1.48-2.14 1.48-.99 0-1.35-.68-1.35-1.83v-7.25h3.5v-.6h-3.5l.22-3.34-.34-.05-1.92 2.6-2.07 1.15v.24H2.3v7.6c0 1.9.67 3 2.26 3 1.88 0 2.9-1.46 3.63-2.8zm0 0"/></symbol><symbol overflow="visible" id="d75e5641g"><path d="M6.34.4c3.2 0 5.32-2.32 5.32-5.76 0-3.67-1.86-5.8-5.61-5.8-3.22 0-5.33 2.3-5.33 5.74 0 3.53 2 5.81 5.62 5.81zm.14-.48c-2.4 0-3.51-2.37-3.51-6.4 0-2.49.65-4.2 2.98-4.25 2.38.04 3.46 2.45 3.46 6.43 0 2.38-.63 4.22-2.93 4.22zm0 0"/></symbol><symbol overflow="visible" id="d75e5641h"><path d="M9.03-15.4c3.02 0 5.06 1.82 6.06 4.71l.44-.06-.34-4.22A18.48 18.48 0 009-16.02c-5.42 0-8.28 3.54-8.28 8.63C.72-2.88 3.48.36 9 .36c2.33 0 4.27-.4 6.19-1.03l.34-4.22-.44-.08c-1 2.9-2.73 4.74-5.75 4.74-3.98 0-6.26-3.9-6.26-7.7 0-4.04 2.08-7.48 5.95-7.48zm0 0"/></symbol><symbol overflow="visible" id="d75e5641i"><path d="M10.03-3.14a3.42 3.42 0 01-3.17 1.92c-2.66 0-4.13-2.28-4.13-5.26v-.14h7.49c-.1-3.29-1.99-4.54-4.31-4.54-3.08 0-5.2 2.38-5.2 5.74C.72-2.11 2.62.39 5.96.39c2.46 0 3.86-1.64 4.47-3.34zm-4.42-7.52c1.76 0 2.19 1.75 2.19 2.83 0 .17-.02.36-.07.53l-4.96.2C2.9-9.2 3.8-10.67 5.6-10.67zm0 0"/></symbol><symbol overflow="visible" id="d75e5641j"><path d="M4.38-6.28c0-1.74.6-2.77 2.01-2.77.74 0 1.6.1 2.22.22v-2.36c-2.3 0-3.19 1.16-3.86 2.24-.13.17-.23.4-.38.67v-2.88l-.26-.17-3.13 1.11-.03.28c.63.53.94.9 1.38 1.58v7.72L.64-.58V0h6v-.58L4.38-.64zm0 0"/></symbol><symbol overflow="visible" id="d75e5641k"><path d="M7.03-17.19h-.05C4.11-17.16 3-14.92 3-11.77v.97H.95v.6H3v9.56l-1.69.06V0h6.13v-.58l-2.4-.06v-9.53h2.94v-.63H5.05c-.3-1.39-.53-2.62-.53-3.62 0-1.38.67-2.24 1.67-2.24.26 0 .58.18.72.29.92.7 1.23 1.32 2.06 1.32.53 0 .87-.36.87-.76 0-1.02-1.65-1.38-2.8-1.38zm0 0"/></symbol><symbol overflow="visible" id="d75e5641l"><path d="M7.73-10.8v.4c1.32.18 1.54.82 1.14 1.76L6.46-2.66 4.2-8.36c-.45-1.12-.43-1.95.67-2.03v-.4H.28v.4c.8.08 1.12.6 1.34 1.12C2.97-5.9 4.03-3.48 5.37-.13L4.88.99C4.17 2.41 3 2.42 1.25 2.42V4.8c1.83 0 2.9-1.13 3.5-2.25.31-.58.44-.85.75-1.47l4.17-9.9c.49-1.13.7-1.4 1.44-1.57v-.4zm0 0"/></symbol><symbol overflow="visible" id="d75e5641m"><path d="M10.9-1.58c-.37.33-.63.42-1 .42-.78 0-.98-.45-.98-1.65L9.1-7.3c.1-2.6-1.2-3.89-3.62-3.89a4.67 4.67 0 00-4.49 3.4l.49.1C2.09-8.86 3-9.77 4.6-9.77c1.7 0 2.55.99 2.47 2.79l-.05 1.1c-.98.15-2.28.36-2.9.52-2.08.56-3.11 1.61-3.11 3.17C1.02-.55 2.06.4 3.62.4c1.3 0 2.47-.67 3.27-2C7.13-.4 7.7.27 8.73.27c.97 0 1.85-.68 2.41-1.58zm-6.24.56c-1.04 0-1.61-.71-1.61-1.75 0-1.12.8-1.93 2.23-2.25.6-.12 1.2-.23 1.74-.3L6.9-3.15c-.2 1.27-1.1 2.12-2.25 2.12zm0 0"/></symbol><symbol overflow="visible" id="d75e5641n"><path d="M8.3-11.19c-1.8 0-3.2 1.35-3.96 2.74v-2.7l-.26-.18-3.13 1.11-.01.28c.62.53.94.9 1.36 1.58V4.16l-1.67.06v.58h6v-.6l-2.29-.03V-.14c.91.31 1.85.53 2.79.53 3.34 0 5.35-2.48 5.35-6.1 0-3-1.32-5.48-4.18-5.48zM7.12-.08a2.9 2.9 0 01-2.78-2.65v-4.83a2.93 2.93 0 012.72-1.99c2.44 0 3.32 2.16 3.32 4.44 0 2.61-.9 5.03-3.26 5.03zm0 0"/></symbol><symbol overflow="visible" id="d75e5641o"><path d="M11.6-.64v-6.92c0-2.19-.97-3.63-3.2-3.63-1.65 0-3.04 1.03-4.03 2.24v-2.2l-.26-.18-3.13 1.11-.03.28c.63.53.94.9 1.38 1.58v7.72L.64-.58V0h5.4v-.58L4.38-.64v-7.6C5.1-9.11 6.14-9.8 7.25-9.8c1.7 0 2.3 1.17 2.3 3v6.17l-1.68.06V0h5.4v-.58zm0 0"/></symbol><symbol overflow="visible" id="d75e5641p"><path d="M18.84-.64v-6.92c0-1.99-.96-3.63-3.2-3.63-1.58 0-3.16 1.17-4.19 2.47-.3-1.44-1.3-2.47-3.07-2.47-1.49 0-2.97 1.03-4 2.24v-2.2l-.27-.18-3.13 1.11-.03.28c.63.53.94.9 1.38 1.58v7.72L.64-.58V0h5.4v-.58L4.38-.64v-7.61a3.41 3.41 0 012.79-1.56c1.76 0 2.37 1.08 2.37 3v6.17l-1.69.06V0h5.41v-.58l-1.69-.06v-6.92l-.01-.49C12-9.08 13.3-9.8 14.42-9.8c1.78 0 2.38 1.08 2.38 3v6.17l-1.68.06V0h5.4v-.58zm0 0"/></symbol><symbol overflow="visible" id="d75e5641q"><path d="M12.72-.95c-1.49.2-1.83.1-1.83-1.25v-15.36l-.27-.17-3.1 1.1-.04.29c.63.53.94.89 1.38 1.57v4.16a6.11 6.11 0 00-2.6-.58c-3.38 0-5.54 2.6-5.54 6.14C.72-2.09 2.32.4 5.42.4c1.25 0 2.5-.6 3.44-1.56v.95l.22.36L12.8-.3zm-6.19-.32c-2.4 0-3.8-2.21-3.8-4.92 0-2.18.91-4.34 3.54-4.34 1.39 0 2.39 1.12 2.59 2.37v6.2c-.66.5-1.4.7-2.33.7zm0 0"/></symbol><symbol overflow="visible" id="d75e5641r"><path d="M.72-5.33C.72-2.28 2.3.4 5.9.4A4.75 4.75 0 0010.44-3l-.38-.17A3.65 3.65 0 016.8-1.25c-2.6 0-4.02-2.28-4.02-4.84 0-2.29 1.02-4.57 3-4.57 1.61 0 2 2.3 3.4 2.3.57 0 .9-.36.9-.92 0-1.38-1.88-1.9-3.69-1.9-4.03 0-5.67 3.12-5.67 5.85zm0 0"/></symbol><symbol overflow="visible" id="d75e5641s"><path d="M8.05-11.19c-1.47 0-2.85.75-3.85 1.83v-8.19l-.26-.17L.8-16.6l-.01.3c.62.51.93.87 1.36 1.58v14.3c1.6.38 3.09.82 4.64.82 3.47 0 5.64-2.58 5.64-6.22 0-3.03-1.46-5.36-4.4-5.36zM6.8-.13c-1.58 0-2.6-.9-2.6-2.8V-8.8a3.33 3.33 0 012.5-1.03c2.56 0 3.76 2.45 3.76 4.86 0 2.73-1.08 4.86-3.66 4.86zm0 0"/></symbol><symbol overflow="visible" id="d75e5641t"><path d="M8.64-8.6c.4-1.07.17-1.65-1.12-1.8v-.4h3.46v.4c-.73.1-1.04.45-1.45 1.48L6 0h-.72L1.52-9c-.49-1.13-.77-1.3-1.47-1.4v-.4h4.47v.4c-.8.1-1.16.68-.88 1.4l2.7 6.77zm0 0"/></symbol><symbol overflow="visible" id="d75e5641u"><path d="M2.33-14.64v14L.64-.58V0h5.4v-.58L4.38-.64v-16.81l-.26-.16-3.13 1.1-.03.3c.63.5.94.87 1.38 1.57zm0 0"/></symbol><symbol overflow="visible" id="d75e5641v"><path d="M9.48-1.8L6.6-5.72l2.49-3.2a3.75 3.75 0 011.9-1.47v-.4H7.06v.4c1.27.14 1.72.94.86 2.02l-1.7 2.14L4.2-9c-.53-.72-.04-1.3.74-1.4v-.4H.48v.4c.55.13.9.63 1.46 1.4l3.04 4.16-2.2 2.86C1.75-.77 1.31-.55.53-.41V0h4.03v-.4c-1.39-.15-1.73-.66-.84-1.8l1.64-2.14L7.22-1.8c.53.72 0 1.3-.78 1.4V0h4.72v-.4c-.55-.13-1.05-.58-1.68-1.4zm0 0"/></symbol><symbol overflow="visible" id="d75e5641w"><path d="M13.08-.86c-1.49.19-1.83.1-1.83-1.25v-9.03l-.27-.16-3.1 1.1-.04.3c.63.5.94.87 1.38 1.57v6.22a4.45 4.45 0 01-2.74 1.05c-1.7 0-2.36-1.14-2.36-3.36v-6.72l-.26-.16-3.11 1.1-.03.3c.62.5.94.87 1.37 1.57v5.14C2.1-.89 3.34.36 5.2.36c1.6 0 2.74-.7 4.02-1.92v1.34l.22.36 3.72-.45zm0 0"/></symbol><symbol overflow="visible" id="d75e5641x"><path d="M14.05-10.8v.4c1.4.15 1.53.73 1.14 1.8l-2.2 6.32L10.55-9c-.26-.72.05-1.31.86-1.4v-.4H7.03v.4c.7.1.94.28 1.4 1.4l.26.67-2.3 5.97-2.55-6.42c-.36-.92.02-1.52.77-1.61v-.4H.23v.4c.7.1.94.27 1.4 1.39L5.2 0h.72L9-7.52 11.95 0h.72l3.28-8.92c.4-1.03.74-1.38 1.47-1.47v-.4zm0 0"/></symbol><symbol overflow="visible" id="d75e5641y"><path d="M2.42.4c.77 0 1.42-.67 1.42-1.48 0-.76-.65-1.42-1.42-1.42-.81 0-1.47.66-1.47 1.42C.95-.27 1.61.4 2.42.4zm0 0"/></symbol><symbol overflow="visible" id="d75e5641z"><path d="M72.33-160.75h-57.6V0h20.63v-59.75h34.3c43.4 0 61.34-20.63 61.34-51.44 0-31.08-16.06-49.56-58.67-49.56zm-1.06 81.19H35.36v-58.67h34.3c26.8 0 40.72 6.68 40.72 28.39 0 22.78-13.93 30.28-39.11 30.28zm0 0"/></symbol><symbol overflow="visible" id="d75e5641A"><path d="M26.8-57.6h87.33c.53-3.74.8-6.96.8-10.18 0-31.08-14.46-57.06-50.1-57.06-43.4 0-57.33 32.68-57.33 65.64 0 40.72 24.66 63.48 58.4 63.48 18.76 0 36.18-6.95 45.29-19.28v-20.63C99.13-22.77 83.3-16.86 67.25-16.86c-23.58 0-39.4-13.94-40.45-40.72zm.53-15c2.67-21.98 13.12-35.37 36.44-35.37 23.84 0 32.68 15.55 33.75 35.36zm0 0"/></symbol><symbol overflow="visible" id="d75e5641B"><path d="M61.08-124.84c-15.27 0-23.58 8.84-28.13 23.57l-1.34-19.3H16.08V0H34.3v-62.69c0-25.45 1.87-39.65 21.15-39.65 4.3 0 10.2 1.07 12.86 2.14l2.42-23.03a30.23 30.23 0 00-9.65-1.61zm0 0"/></symbol><symbol overflow="visible" id="d75e5641C"><path d="M137.97-124.84c-18.75 0-30.53 10.18-36.97 24.92-5.36-16.08-17.4-24.92-33.22-24.92-16.6 0-27.6 8.03-34.3 20.09l-1.32-15.81H16.08V0H34.3v-66.44c0-21.44 7.23-36.7 28.12-36.7 15.81 0 23.58 9.9 23.58 30.81V0h18.22v-66.44c0-21.44 7.76-36.7 28.39-36.7 16.08 0 23.58 9.9 23.58 30.81V0h18.22v-79.3c0-28.67-12.86-45.54-36.44-45.54zm0 0"/></symbol><symbol overflow="visible" id="d75e5641D"><path d="M51.17-124.84c-17.69 0-31.87 8.84-42.33 20.62v21.97c11.52-14.2 24.64-22.77 39.11-22.77 19.57 0 28.13 9.64 28.4 28.94-37.5 8.03-68.32 16.33-68.32 47.14C8.03-9.1 20.1 2.67 39.66 2.67c17.14 0 29.47-8.83 36.7-22.76V0H95.1v-77.16c0-29.47-11.52-47.68-43.94-47.68zM46.9-15c-10.45 0-17.42-5.63-17.42-16.34 0-17.96 18.48-23.32 46.89-29.2v9.9C76.36-29.2 64.83-15 46.89-15zm0 0"/></symbol><symbol overflow="visible" id="d75e5641E"><path d="M69.13-124.84c-17.7 0-28.68 9.1-34.83 22.5v-18.22H16.08V0H34.3v-66.44c0-23.58 7.76-36.7 27.33-36.7 19.28 0 26.24 11.25 26.24 31.34V0h18.22v-79.3c0-28.67-11.51-45.54-36.97-45.54zm0 0"/></symbol><symbol overflow="visible" id="d75e5641F"><path d="M82.52-99.4v-21.16H47.95v-33.75l-18.22 3.48v30.27H0v21.17h29.2v70.72C29.47-4.02 43.14 4.28 60.81 4.28c8.58 0 16.61-1.33 21.7-4.01v-19.02a50.15 50.15 0 01-15.8 2.67c-15 0-19.29-8.03-19.29-27.33v-55.98zm0 0"/></symbol><symbol overflow="visible" id="d75e5641H"><path d="M16.08 0H34.3v-174.14H16.08zm0 0"/></symbol><symbol overflow="visible" id="d75e5641I"><path d="M29.47-146.02c8.84 0 14.47-6.42 14.47-15 0-8.3-5.63-14.46-14.47-14.46-8.58 0-14.74 6.17-14.74 14.46 0 8.58 6.16 15 14.74 15zm8.58 25.46V0H19.83v-120.56zm0 0"/></symbol><symbol overflow="visible" id="d75e5641J"><path d="M7.5-60.28c0 38.84 20.9 64.56 63.77 64.56 12.32 0 26.78-2.67 35.62-9.37l-2.14-19.55c-7.77 4.81-20.63 8.3-32.42 8.3-27.05 0-45.53-15.54-45.53-45 0-28.41 17.14-44.22 45.53-44.22 11.8 0 21.97 2.95 31.08 8.04l2.95-19.03c-9.38-5.08-21.17-8.3-34.83-8.3-41.8 0-64.03 28.4-64.03 64.57zm0 0"/></symbol><symbol overflow="visible" id="d75e5641K"><path d="M91.36-32.16c0-18.48-10.45-25.43-24.92-30.8L43.4-71.52c-11.8-4.28-17.16-9.64-17.16-17.95 0-12.05 10.45-15.27 22.78-15.27 15.53 0 29.74 5.36 38.84 16.34v-20.62c-8.57-9.11-24.1-15.81-39.92-15.81-22.5 0-41.25 10.72-41.25 35.62 0 17.16 10.44 27.06 25.99 32.42l23.58 8.32c10.7 3.75 15.53 6.95 15.53 16.32 0 11.27-9.38 16.9-23.85 16.9-13.92 0-30.54-7.24-40.98-19.3v21.17C16.07-2.41 32.95 4.28 48.48 4.28c27.6 0 42.88-13.92 42.88-36.44zm0 0"/></symbol><symbol overflow="visible" id="d75e5641L"><path d="M67.52-125.1c-40.2 0-60.02 29.72-60.02 64.55S27.33 4.02 67.52 4.02c41.51 0 59.46-29.74 59.46-64.57s-17.95-64.56-59.46-64.56zm40.18 64.55c0 25.99-14.2 43.4-40.18 43.4-25.72 0-40.72-17.41-40.72-43.4 0-25.72 15-43.4 40.72-43.4 25.98 0 40.18 17.42 40.18 43.4zm0 0"/></symbol><symbol overflow="visible" id="d75e5641M"><path d="M86.8-120.56L54.4-37.23l-31.9-83.33H0L48.22 0h11.25l48.76-120.56zm0 0"/></symbol><symbol overflow="visible" id="d75e5641N"><path d="M27.78-35.8l-.01 1.36c4.32.52 4.23 3.96 3.07 7.08L24.88-10.6l-6.83-15.58c-1.6-3.6-1.57-8 3.4-8.3l.02-1.35L-.3-36l-.01 1.36c2.64.42 4.62 3.55 5.4 5.31C9.83-18.64 14.8-9.66 20 1.84l-.49 1.1C17.47 6.2 13.16 6.58 2.9 6.5l-.07 9.52c10.25.07 13.8-3.82 16.06-7.57 1.06-1.73 1.38-2.45 2.28-4.53l12.97-32.39c1.14-2.95 3.95-5.56 6.42-5.87l.02-1.36zm0 0"/></symbol><symbol overflow="visible" id="d75e5641O"><path d="M21.23.44C7.97.97 1.73-6.72 1.28-18.14c-.44-11.2 6.28-19.47 18.5-19.95 12.86-.52 19.67 7.3 20.13 18.65C40.34-8.17 33.86-.06 21.23.44zm.5-1.61c6.47-.27 7.47-5.44 7.1-15.11-.44-10.8-1.22-20.53-9.31-20.2-6.55.25-7.57 6.7-7.27 14.39.48 11.98 1.88 21.21 9.48 20.92zm0 0"/></symbol><symbol overflow="visible" id="d75e5641P"><path d="M45.52-4.81l-.2-1.35c-4.37.7-5.54-.62-5.93-4.92l-2.6-28.28-1.71-1.3-12.2 4.5-.08.82c2.06 1.32 3.76 4.39 3.89 5.65L28.5-9.77a9.64 9.64 0 01-5.7 2.46c-4.07.36-6.52-2.53-7-7.88l-2.02-22.06-1.73-1.3-12.2 4.5-.08.82c2.06 1.32 3.76 4.39 3.89 5.65l1.59 17.55C5.81-3.91 9.83.3 16.53-.3c5.72-.53 9.44-3.78 12.22-7.64l.97 6.1zm0 0"/></symbol><symbol overflow="visible" id="d75e5641R"><path d="M34.2-42.14L22.58-38.9c-2.61-1.11-6.08-1.47-10.25-.8-9.8 1.6-14.56 7.31-13.31 15.05.75 4.66 3.73 8.95 10.34 9.84-1.55 1.4-4.34 3.7-5.33 4.68C2.52-8.59 1.8-6.95 2.05-5.34c.53 3.21 3.43 4.21 8.82 4C6.7 1.76 3.84 5.22 4.5 9.33c.9 5.51 7.4 6.25 13.48 5.28C33.62 12.08 40.8 4.27 39.41-4.42c-.93-5.69-5.72-7.75-12.94-7.31l-9.88.64c-3.36.2-6.01.3-6.28-1.27-.1-.72.58-1.39 1.58-2.3 1.38.05 2.81-.1 4.4-.37 8.54-1.38 14.43-7.52 13.16-15.33a10.92 10.92 0 00-3.18-6.22l9.09 1.55zM16.14-17.02c-3.95.64-6.53-4.21-7.58-10.7-.97-6 .22-9.28 3.22-9.75 4.19-.69 7.06 4.61 8.13 11.25.82 5.13.03 8.6-3.77 9.2zm7.08 14.74c5.51-.42 8.17.53 8.73 4 .8 4.9-3.67 8.86-10.87 10.03-5.28.84-9.22-1.1-9.97-5.67-.44-2.78.37-5.25 2.02-7.63zm0 0"/></symbol><symbol overflow="visible" id="d75e5641S"><path d="M31.95-19.63c-.82 4.27-4.4 7.46-9.1 8.43C13.9-9.34 8.68-16.42 7-24.5l-.06-.3 22.62-4.7c-2.15-8.88-8.47-12.95-16.93-11.2C1.43-38.37-4.02-29.16-1.64-17.72.52-7.32 8.02-.36 19.76-2.8c8.32-1.73 13.76-8.56 13.32-16.9zM11.41-38.8c4.6-.96 6.45 4.04 6.86 9.12l-.14.11-11.47 3.03c-.8-6.2.73-11.43 4.75-12.26zm0 0"/></symbol><symbol overflow="visible" id="d75e5641T"><path d="M23.6-18.25c-.37 5.17-2 8.64-4.55 9.28-2.64.64-4.1-1.56-5.11-5.67l-5.58-22.6L19-39.85l-.44-1.8-10.64 2.63-2.12-12-1.49.37-6.75 12.78-4.86 3.27.28 1.17 5.05-1.25 5.99 24.22c1.5 6.08 4.53 9.69 11.67 7.92 5.9-1.45 9.4-7.26 9.58-15.56zm0 0"/></symbol><symbol overflow="visible" id="d75e5641V"><path d="M-8.14-46.73L4.63-3.55.38-2.03.91-.27 20-5.92 19.5-7.7l-4.36 1.03L-.09-58.2l-1.96-.92-11.1 6.78.09.8c2.26.91 4.56 3.57 4.92 4.8zm0 0"/></symbol><symbol overflow="visible" id="d75e5641W"><path d="M20.52-5.52C7.92-1.3-.22-6.94-3.86-17.78c-3.56-10.63.58-20.44 12.17-24.33 12.22-4.1 20.94 1.5 24.55 12.27 3.58 10.7-.36 20.3-12.34 24.32zm.03-1.7c6.12-2.06 5.62-7.3 2.54-16.48-3.42-10.24-6.89-19.36-14.57-16.78-6.2 2.07-5.4 8.54-2.94 15.84C9.39-13.27 13.33-4.8 20.55-7.22zm0 0"/></symbol><symbol overflow="visible" id="d75e5641X"><path d="M3.67-41.28c-9.1 3.5-12.4 9.83-9.87 16.4 2.01 5.22 6.1 7.44 11.3 7.68l7.24.28c3.24.14 5.25 1.15 6.27 3.78 1.14 2.97-.1 5.34-3.45 6.64-4.64 1.78-9.55-.55-15.44-5.81l-1.08.75 4.8 8.95c4.03-.02 9.03-.81 12.76-2.23 8.3-3.2 11.83-9.2 8.9-16.8-1.68-4.4-5.58-6.08-10.43-6.44l-7.58-.51C4.64-28.8 2-29.9.92-32.66c-1.1-2.84.02-5.75 3.44-7.06 3.66-1.4 6.45.52 12.72 6.33l1.26-.48-3.75-9.79c-3.84.52-6.95.86-10.92 2.38zm0 0"/></symbol><symbol overflow="visible" id="d75e5641Y"><path d="M20.4-21.78c.46 5.17-.6 8.84-3.02 9.87-2.5 1.07-4.29-.87-5.94-4.78L2.33-38.1l10.08-4.28-.72-1.69L1.6-39.8l-4.03-11.5-1.4.61L-8.43-37l-4.3 3.98.47 1.11 4.78-2.03L2.3-10.97C4.73-5.22 8.3-2.14 15.08-5.03c5.6-2.38 8.14-8.66 7-16.86zm0 0"/></symbol><symbol overflow="visible" id="d75e5641Z"><path d="M31.23-12.17C19.06-7.73 9.03-17.95 4.87-29.3.05-42.53 1.62-55.27 13.12-59.47c8.86-3.23 16.42.64 23.58 8.16l1.28-.74-5.78-13.72c-6.56.7-13 1.96-21.19 4.94-17.36 6.36-23.02 20.94-17.58 35.8C-.42-8.2 12-3.03 29.67-9.48a83.99 83.99 0 0019.38-9.9L44.6-33.59l-1.42.26c-.58 10.52-3.17 17.94-11.96 21.16zm0 0"/></symbol><symbol overflow="visible" id="d75e5641aa"><path d="M36.72-15.92a4.4 4.4 0 01-2.55 1.9c-2.08.6-3.84-.39-4.92-4.09L25.77-31c-2.6-9.56-8.97-12.66-17.5-10.19C.44-38.94-5.08-31.77-3.61-23.77l1.61-.46C-2-28.9-.03-32.47 5.28-34c5.38-1.55 8.7 1.33 9.9 5.75l.7 2.77a90.98 90.98 0 00-6.46 3.28C1.47-17.66-1.64-12.92-.05-7.4c1.3 4.54 5.57 7.15 11.33 5.5 4.22-1.24 7.31-5.54 8.4-10.1 1.82 3.72 4.48 5.95 9.48 4.52 4.15-1.2 6.6-4.18 8.56-7.57zm-22.05 5.87c-2.69.77-4.64-.75-5.42-3.45-1.23-4.3 1.14-7.33 5.14-9.3.66-.36 1.33-.62 1.97-.98l1.5 5.48c1.02 3.53-.11 7.36-3.19 8.25zm0 0"/></symbol><symbol overflow="visible" id="d75e5641ab"><path d="M-6.1-47.05L4.79-3.33l-4.3 1.3.44 1.8 19.33-4.82-.44-1.8-4.39.87L2.44-58.16l-1.9-1-11.38 6.28.03.83c2.23 1.02 4.4 3.77 4.72 5zm0 0"/></symbol><symbol overflow="visible" id="d75e5641ac"><path d="M-5.02-47.17L4.86-3.22.53-2l.4 1.8 19.45-4.38-.41-1.8-4.42.75L3.77-58.08l-1.88-1.05-11.52 6.04.02.8c2.22 1.07 4.33 3.87 4.6 5.12zm0 0"/></symbol><symbol overflow="visible" id="d75e5641ae"><path d="M64.55-12.38l-3.47-21.8c-1.22-7.68-5.64-12.4-13.77-11.1-5.76.92-9.39 5.12-12.04 9.78-2.2-4.52-6.13-6.9-12.2-5.92-5.46.87-9 4.67-11.62 8.98l-.89-5.53-1.81-1.17-11.9 5.28-.02.81c2.15 1.22 4.08 4.14 4.28 5.4L5.05-2.9l-4.4.93.29 1.82L20.6-3.28l-.3-1.83-4.43.49-4.15-26a12.02 12.02 0 016.58-3.4c4.52-.71 7.1 1.85 7.94 7.07l3.2 20.15-4.37.92.3 1.83 19.65-3.12-.3-1.83-4.45.48-3.47-21.8a24 24 0 00-1.04-4.04c1.71-1.9 4.12-3.1 6.25-3.44 5.06-.8 7.64 1.77 8.48 6.99l3.2 20.15-4.39.93.3 1.82 19.67-3.12-.3-1.83zm0 0"/></symbol><symbol overflow="visible" id="d75e5641af"><path d="M33.78-16.31c-1.28 4.15-5.16 6.98-9.94 7.47-9.06.95-13.54-6.63-14.4-14.83l-.03-.31 22.98-2.4c-1.25-9.04-7.12-13.73-15.72-12.84C5.3-38.03-1.06-29.4.16-17.8 1.25-7.22 8.02.45 19.96-.78c8.43-.9 14.52-7.16 14.95-15.5zM15.23-37.47c4.7-.5 6.05 4.69 5.94 9.77l-.15.1L9.3-25.74c-.16-6.25 1.87-11.32 5.93-11.74zm0 0"/></symbol><symbol overflow="visible" id="d75e5641ah"><path d="M8.02-41.94c3.76-.22 6.04-3.62 5.82-7.6-.2-3.77-2.8-6.12-6.4-5.91-3.77.2-6.14 3.53-5.92 7.3.2 3.82 2.67 6.42 6.5 6.21zM.95-.04l19.9-1.12L20.72-3l-4.46.02-1.86-33.7-1.68-1.35L.36-34l-.11.81c2.02 1.42 3.6 4.53 3.67 5.81l1.4 25-4.48.49zm0 0"/></symbol><symbol overflow="visible" id="d75e5641ai"><path d="M23.28-57.81c-10.48.23-15.97 8.6-15.7 20.44l.03 1.2-5.2.1.03 2 5.2-.1.72 31.9-4.48.33.04 1.85L26.8-.6l-.03-1.7-7.61-.21-.7-31.83 10-.23-.05-2.08-10 .23-.2-9.12c-.15-6.31 1.2-10.27 3.68-10.33 1.52-.03 2.02.36 2.98 1.3 1.8 1.72 4.43 4.54 6.82 4.48 1.92-.05 3.1-1.34 3.04-3.19-.09-4.56-7.14-4.64-11.45-4.54zm0 0"/></symbol></defs><path fill="#f7b3ca" d="M0 0h1366v768H0z"/><use xlink:href="#d75e5641a" x="265.6431" y="693.2334"/><use xlink:href="#d75e5641b" x="279.9975" y="693.2334"/><use xlink:href="#d75e5641c" x="293.7735" y="693.2334"/><use xlink:href="#d75e5641d" x="300.1095" y="693.2334"/><use xlink:href="#d75e5641e" x="310.3335" y="693.2334"/><use xlink:href="#d75e5641c" x="315.1335" y="693.2334"/><use xlink:href="#d75e5641d" x="321.4695" y="693.2334"/><use xlink:href="#d75e5641e" x="331.6935" y="693.2334"/><use xlink:href="#d75e5641f" x="336.4935" y="693.2334"/><use xlink:href="#d75e5641g" x="344.9703" y="693.2334"/><use xlink:href="#d75e5641e" x="357.5703" y="693.2334"/><use xlink:href="#d75e5641h" x="362.3703" y="693.2334"/><use xlink:href="#d75e5641i" x="378.6735" y="693.2334"/><use xlink:href="#d75e5641j" x="389.4399" y="693.2334"/><use xlink:href="#d75e5641f" x="398.8959" y="693.2334"/><use xlink:href="#d75e5641c" x="407.2983" y="693.2334"/><use xlink:href="#d75e5641k" x="413.6847" y="693.2334"/><use xlink:href="#d75e5641l" x="422.2335" y="693.2334"/><use xlink:href="#d75e5641e" x="433.4655" y="693.2334"/><use xlink:href="#d75e5641f" x="438.2655" y="693.2334"/><use xlink:href="#d75e5641b" x="446.5095" y="693.2334"/><use xlink:href="#d75e5641m" x="459.9783" y="693.2334"/><use xlink:href="#d75e5641f" x="470.6655" y="693.2334"/><use xlink:href="#d75e5641e" x="479.1135" y="693.2334"/><use xlink:href="#d75e5641f" x="483.9135" y="693.2334"/><use xlink:href="#d75e5641b" x="492.1575" y="693.2334"/><use xlink:href="#d75e5641i" x="505.2063" y="693.2334"/><use xlink:href="#d75e5641e" x="516.5583" y="693.2334"/><use xlink:href="#d75e5641n" x="521.3583" y="693.2334"/><use xlink:href="#d75e5641i" x="534.6471" y="693.2334"/><use xlink:href="#d75e5641j" x="545.4135" y="693.2334"/><use xlink:href="#d75e5641d" x="554.3799" y="693.2334"/><use xlink:href="#d75e5641g" x="564.3255" y="693.2334"/><use xlink:href="#d75e5641o" x="576.3399" y="693.2334"/><use xlink:href="#d75e5641e" x="589.8039" y="693.2334"/><use xlink:href="#d75e5641o" x="594.6039" y="693.2334"/><use xlink:href="#d75e5641m" x="608.0967" y="693.2334"/><use xlink:href="#d75e5641p" x="619.5303" y="693.2334"/><use xlink:href="#d75e5641i" x="639.8871" y="693.2334"/><use xlink:href="#d75e5641q" x="651.0591" y="693.2334"/><use xlink:href="#d75e5641e" x="664.1871" y="693.2334"/><use xlink:href="#d75e5641m" x="668.9871" y="693.2334"/><use xlink:href="#d75e5641o" x="680.4207" y="693.2334"/><use xlink:href="#d75e5641q" x="693.5679" y="693.2334"/><use xlink:href="#d75e5641e" x="706.6959" y="693.2334"/><use xlink:href="#d75e5641q" x="711.4959" y="693.2334"/><use xlink:href="#d75e5641i" x="724.1775" y="693.2334"/><use xlink:href="#d75e5641d" x="735.2271" y="693.2334"/><use xlink:href="#d75e5641r" x="745.1727" y="693.2334"/><use xlink:href="#d75e5641j" x="755.9031" y="693.2334"/><use xlink:href="#d75e5641c" x="764.9919" y="693.2334"/><use xlink:href="#d75e5641s" x="770.9463" y="693.2334"/><use xlink:href="#d75e5641i" x="784.1247" y="693.2334"/><use xlink:href="#d75e5641q" x="795.2991" y="693.2334"/><use xlink:href="#d75e5641e" x="808.4271" y="693.2334"/><use xlink:href="#d75e5641m" x="813.2271" y="693.2334"/><use xlink:href="#d75e5641s" x="824.0271" y="693.2334"/><use xlink:href="#d75e5641g" x="837.2055" y="693.2334"/><use xlink:href="#d75e5641t" x="849.1743" y="693.2334"/><use xlink:href="#d75e5641i" x="859.6887" y="693.2334"/><use xlink:href="#d75e5641e" x="871.0407" y="693.2334"/><use xlink:href="#d75e5641c" x="875.8407" y="693.2334"/><use xlink:href="#d75e5641d" x="882.1767" y="693.2334"/><use xlink:href="#d75e5641e" x="892.4007" y="693.2334"/><use xlink:href="#d75e5641n" x="897.2007" y="693.2334"/><use xlink:href="#d75e5641i" x="910.4895" y="693.2334"/><use xlink:href="#d75e5641j" x="921.2559" y="693.2334"/><use xlink:href="#d75e5641p" x="930.3447" y="693.2334"/><use xlink:href="#d75e5641c" x="951.4287" y="693.2334"/><use xlink:href="#d75e5641f" x="957.5055" y="693.2334"/><use xlink:href="#d75e5641f" x="966.2775" y="693.2334"/><use xlink:href="#d75e5641i" x="974.7543" y="693.2334"/><use xlink:href="#d75e5641q" x="985.9263" y="693.2334"/><use xlink:href="#d75e5641e" x="999.0543" y="693.2334"/><use xlink:href="#d75e5641f" x="1003.8543" y="693.2334"/><use xlink:href="#d75e5641g" x="1012.3311" y="693.2334"/><use xlink:href="#d75e5641e" x="1024.9311" y="693.2334"/><use xlink:href="#d75e5641f" x="1029.7311" y="693.2334"/><use xlink:href="#d75e5641j" x="1038.1335" y="693.2334"/><use xlink:href="#d75e5641m" x="1047.0519" y="693.2334"/><use xlink:href="#d75e5641t" x="1057.5207" y="693.2334"/><use xlink:href="#d75e5641i" x="1068.0351" y="693.2334"/><use xlink:href="#d75e5641u" x="1078.7151" y="693.2334"/><use xlink:href="#d75e5641e" x="1085.3631" y="693.2334"/><use xlink:href="#d75e5641m" x="470.5311" y="725.2254"/><use xlink:href="#d75e5641o" x="481.9647" y="725.2254"/><use xlink:href="#d75e5641q" x="495.1119" y="725.2254"/><use xlink:href="#d75e5641e" x="508.2399" y="725.2254"/><use xlink:href="#d75e5641i" x="513.0399" y="725.2254"/><use xlink:href="#d75e5641v" x="523.7103" y="725.2254"/><use xlink:href="#d75e5641n" x="535.2447" y="725.2254"/><use xlink:href="#d75e5641u" x="547.9575" y="725.2254"/><use xlink:href="#d75e5641g" x="554.0559" y="725.2254"/><use xlink:href="#d75e5641j" x="566.0679" y="725.2254"/><use xlink:href="#d75e5641i" x="574.8999" y="725.2254"/><use xlink:href="#d75e5641e" x="586.2519" y="725.2254"/><use xlink:href="#d75e5641k" x="591.0519" y="725.2254"/><use xlink:href="#d75e5641j" x="599.2455" y="725.2254"/><use xlink:href="#d75e5641i" x="608.0775" y="725.2254"/><use xlink:href="#d75e5641i" x="619.2375" y="725.2254"/><use xlink:href="#d75e5641u" x="629.9199" y="725.2254"/><use xlink:href="#d75e5641l" x="636.0087" y="725.2254"/><use xlink:href="#d75e5641e" x="647.2407" y="725.2254"/><use xlink:href="#d75e5641w" x="652.0407" y="725.2254"/><use xlink:href="#d75e5641o" x="665.7903" y="725.2254"/><use xlink:href="#d75e5641u" x="679.5903" y="725.2254"/><use xlink:href="#d75e5641i" x="685.6887" y="725.2254"/><use xlink:href="#d75e5641d" x="696.7359" y="725.2254"/><use xlink:href="#d75e5641d" x="706.5471" y="725.2254"/><use xlink:href="#d75e5641e" x="716.7711" y="725.2254"/><use xlink:href="#d75e5641q" x="721.5711" y="725.2254"/><g><use xlink:href="#d75e5641i" x="734.2527" y="725.2254"/></g><g><use xlink:href="#d75e5641f" x="745.1559" y="725.2254"/></g><g><use xlink:href="#d75e5641m" x="753.7071" y="725.2254"/></g><g><use xlink:href="#d75e5641c" x="765.1407" y="725.2254"/></g><g><use xlink:href="#d75e5641o" x="771.8679" y="725.2254"/></g><g><use xlink:href="#d75e5641i" x="784.9407" y="725.2254"/></g><g><use xlink:href="#d75e5641q" x="796.1127" y="725.2254"/><use xlink:href="#d75e5641e" x="809.2407" y="725.2254"/><use xlink:href="#d75e5641s" x="814.0407" y="725.2254"/></g><g><use xlink:href="#d75e5641l" x="826.7319" y="725.2254"/><use xlink:href="#d75e5641e" x="837.9639" y="725.2254"/><use xlink:href="#d75e5641u" x="842.7639" y="725.2254"/></g><g><use xlink:href="#d75e5641m" x="849.2055" y="725.2254"/></g><g><use xlink:href="#d75e5641x" x="859.5759" y="725.2254"/></g><g><use xlink:href="#d75e5641y" x="875.6559" y="725.2254"/><use xlink:href="#d75e5641e" x="880.4559" y="725.2254"/><use xlink:href="#d75e5641e" x="885.2559" y="725.2254"/></g><g><use xlink:href="#d75e5641z" x="105.3203" y="216.3652"/><use xlink:href="#d75e5641A" x="244.895731" y="216.3652"/><use xlink:href="#d75e5641B" x="369.200913" y="216.3652"/><use xlink:href="#d75e5641C" x="444.212661" y="216.3652"/><use xlink:href="#d75e5641D" x="636.296316" y="216.3652"/><use xlink:href="#d75e5641E" x="746.134947" y="216.3652"/><use xlink:href="#d75e5641A" x="869.904331" y="216.3652"/><use xlink:href="#d75e5641E" x="994.209514" y="216.3652"/><use xlink:href="#d75e5641F" x="1117.978898" y="216.3652"/><use xlink:href="#d75e5641G" x="1204.778206" y="216.3652"/></g><g><use xlink:href="#d75e5641H" x="302.761937" y="423.987002"/><use xlink:href="#d75e5641I" x="354.734362" y="423.987002"/><use xlink:href="#d75e5641J" x="415.01166" y="423.987002"/><use xlink:href="#d75e5641A" x="535.298355" y="423.987002"/><use xlink:href="#d75e5641E" x="659.603538" y="423.987002"/><use xlink:href="#d75e5641K" x="783.372922" y="423.987002"/><use xlink:href="#d75e5641A" x="883.031387" y="423.987002"/><use xlink:href="#d75e5641G" x="1007.33657" y="423.987002"/></g><g><use xlink:href="#d75e5641F" x="263.916567" y="631.608805"/><use xlink:href="#d75e5641L" x="350.715876" y="631.608805"/><use xlink:href="#d75e5641G" x="486.808618" y="631.608805"/><use xlink:href="#d75e5641F" x="547.353815" y="631.608805"/><use xlink:href="#d75e5641B" x="634.153123" y="631.608805"/><use xlink:href="#d75e5641D" x="709.164871" y="631.608805"/><use xlink:href="#d75e5641M" x="819.003502" y="631.608805"/><use xlink:href="#d75e5641A" x="928.842133" y="631.608805"/><use xlink:href="#d75e5641H" x="1053.147316" y="631.608805"/></g><g fill="#ed1c24"><use xlink:href="#d75e5641N" x="867.2879" y="484.5531"/></g><g fill="#ed1c24"><use xlink:href="#d75e5641O" x="908.8337" y="484.8647"/></g><g fill="#ed1c24"><use xlink:href="#d75e5641P" x="952.4196" y="483.1803"/></g><g fill="#ed1c24"><use xlink:href="#d75e5641Q" x="1001.0419" y="478.4236"/></g><g fill="#ed1c24"><use xlink:href="#d75e5641R" x="1017.2407" y="476.5504"/></g><g fill="#ed1c24"><use xlink:href="#d75e5641S" x="1059.2478" y="469.702"/></g><g fill="#ed1c24"><use xlink:href="#d75e5641T" x="1096.2721" y="461.9181"/></g><g fill="#ed1c24"><use xlink:href="#d75e5641U" x="1123.9651" y="455.0066"/></g><g fill="#ed1c24"><use xlink:href="#d75e5641V" x="1139.325" y="450.8418"/></g><g fill="#ed1c24"><use xlink:href="#d75e5641W" x="1160.5096" y="444.7691"/></g><g fill="#ed1c24"><use xlink:href="#d75e5641X" x="1201.559" y="430.8897"/></g><g fill="#ed1c24"><use xlink:href="#d75e5641Y" x="1233.589" y="418.5247"/></g><g fill="#ed1c24"><use xlink:href="#d75e5641Z" x="882.6635" y="429.8399"/></g><g fill="#ed1c24"><use xlink:href="#d75e5641aa" x="934.0145" y="411.3698"/></g><g fill="#ed1c24"><use xlink:href="#d75e5641ab" x="972.0258" y="400.5776"/></g><g fill="#ed1c24"><use xlink:href="#d75e5641ac" x="991.8826" y="395.6246"/></g><g fill="#ed1c24"><use xlink:href="#d75e5641ad" x="1011.9432" y="391.1395"/></g><g fill="#ed1c24"><use xlink:href="#d75e5641ae" x="1026.1423" y="387.5833"/></g><g fill="#ed1c24"><use xlink:href="#d75e5641af" x="1096.2614" y="376.8376"/></g><g fill="#ed1c24"><use xlink:href="#d75e5641ag" x="1132.2714" y="373.2089"/></g><g fill="#ed1c24"><use xlink:href="#d75e5641ah" x="1147.1411" y="372.0219"/></g><g fill="#ed1c24"><use xlink:href="#d75e5641ai" x="1168.5905" y="370.7435"/></g><path d="M1293.2 367c11.4 68.3-91.65 124.06-226.48 146.56-134.83 22.51-250.4 3.24-261.8-65.06-11.4-68.3 91.65-124.05 226.48-146.55 134.83-22.5 250.4-3.25 261.8 65.05zm0 0" fill="none" stroke-width="11" stroke="#ed1c24" stroke-miterlimit="10"/></svg>