<?xml version='1.0' encoding='UTF-8'?>
<svg xmlns="http://www.w3.org/2000/svg" xmlns:xlink="http://www.w3.org/1999/xlink" width="1366px" height="768px" viewBox="0 0 1366 768" x="0px" y="0px" enable-background="new 0 0 1366 768"><defs><symbol overflow="visible" id="affa6629a"><path d="M28.81-32.55H18.42v.8l5.11 1.33-7.45 23.05-8.1-23.04 5-1.34v-.8l-13.01.02v.8l2.95 1.32L14.12.52h1.16L25.8-30.42l3.01-1.33zm0 0"/></symbol><symbol overflow="visible" id="affa6629b"><path d="M10.38-17.16c-.33.64-.7 1.3-.96 1.99V-22l-7.75 2.69v.48h3.75l.02 17.24L1.69-.53V0L15.5-.02v-.53L9.7-1.59l-.01-8.72c0-3.81 1.04-7.42 4.26-7.42 1.8 0 2.8.95 3.53 3.32h.8V-22c-3.6 0-6.22 1.9-7.9 4.85zm0 0"/></symbol><symbol overflow="visible" id="affa6629c"><path d="M8.1-24.75a2.92 2.92 0 002.96-2.92 2.9 2.9 0 00-2.97-2.85 2.88 2.88 0 10.02 5.77zm2.13 23.14l-.01-20.1-8.66 2.4v.48h4.38l.01 17.24L1.58-.53V0l12.86-.02v-.53zm0 0"/></symbol><symbol overflow="visible" id="affa6629d"><path d="M8.1-24.75a2.92 2.92 0 002.96-2.92 2.9 2.9 0 00-2.97-2.85 2.88 2.88 0 10.02 5.77zm-2.2 5.92v24.7c.02 4.66-.93 6.46-3.04 6.46S-.56 11-2.11 5.77l-.53.1.02 7.04c1.42.68 3.59 1.06 5.17 1.06 5.22 0 7.73-4.74 7.73-10.33l-.01-25.34L.3-19.31v.48zm0 0"/></symbol><symbol overflow="visible" id="affa6629e"><path d="M22.52-1.6l-.04-31.26 3.74-1v-.53H12.56v.53l5.64.84.02 12.96c-1.31-1.27-3.53-1.96-5.8-1.96C5.67-22 2.1-17.34 2.1-10.42 2.11-4.28 4.7.84 10.91.83c3.7 0 6.23-1.9 7.32-4.66v3.81h8.33v-.53zM12.34-2.88c-4.48.01-6.17-3.63-6.18-8.7 0-5.09 1.62-8.85 6.21-8.87 4 0 5.49 2.7 5.85 6.1l.01 5.7c0 4.66-3.15 5.77-5.89 5.77zm0 0"/></symbol><symbol overflow="visible" id="affa6629f"><path d="M23.4-6.1c0 2.76-.57 4.02-2.15 4.02-1.27 0-1.75-.84-1.75-2.33l-.02-10.15c0-5.08-2-7.46-7.75-7.46-2 .02-4.68.33-7.15.86v7.25h.78c1.37-4.76 2.8-6.45 5.75-6.46 3.37 0 4.1 1.8 4.1 5.07v4.07a9.25 9.25 0 00-4.9-1.27c-4.69.02-8.22 2.03-8.2 6.95C2.1-1.53 4.64.85 8.8.85c3.43-.02 5.39-1.98 6.43-4.3.11 2.8 2 3.86 4.38 3.86 4.17 0 4.75-2.75 4.75-6.14V-7.7h-.95zM10.49-2.3C7.7-2.28 6.22-3.8 6.22-6.4c0-2.96 1.78-4.55 4.78-4.57 1.58 0 3.1.6 4.23 1.49v2.21c0 2.02-.89 4.97-4.75 4.97zm0 0"/></symbol><symbol overflow="visible" id="affa6629g"><path d="M24.03-22.08l-6.12 1.86c-1.63-1.1-3.8-1.75-6.49-1.75-6.42.02-9.8 3.78-9.8 8.86.02 5.5 3.4 8.61 9.08 8.92v3.64l-1.1.02C4.74-.53.8 1.69.8 6.23c.01 5.35 4.65 7.83 10.97 7.82 5.9 0 11.23-2.49 11.21-7.83 0-4.55-3.53-6.77-8.8-6.77h-1.52v-3.64c5.57-.33 8.68-3.92 8.67-9.15 0-2.22-.74-4.24-2.1-5.72h5.16v-3.02zM11.86-5.94c-3.64.02-5.64-2.73-5.66-8.34 0-3.7 1.7-6.03 4.8-6.05 3.75 0 5.7 3.28 5.7 8.4.02 3.55-1.51 6-4.84 6zm6.7 12.53c.02 3.5-2.62 5.88-6.62 5.88-3.6.01-6.9-2.2-6.92-5.86 0-3.86 2.3-5.45 6.15-5.47h1.06c3.7 0 6.33 1.6 6.33 5.45zm0 0"/></symbol><symbol overflow="visible" id="affa6629h"><path d="M11.13-2.23l-.04-28.1 5.7-1.69v-.53l-15.77.02v.53l5.7 1.69.03 28.1-5.7 1.68V0L16.8-.02v-.53zm0 0"/></symbol><symbol overflow="visible" id="affa6629j"><path d="M4.92-32l5.6 1.05.03 22.1c0 5.62-1.16 7.43-3.64 7.43-3 0-5.44-3.44-7.07-7.74l-.8.18 1.5 8.6C1.94.22 4.21.65 6.16.65c7-.02 8.96-4.05 8.96-10.02l-.04-21.57 3.6-1.07v-.53l-13.77.02zm0 0"/></symbol><symbol overflow="visible" id="affa6629k"><path d="M22.3-1.6l-.02-17.98 3.75-1.06v-.53H14.6v.53l3.43 1.1.01 10.63c0 4.13-1.84 6.36-5.01 6.36-3.32.02-4.38-1.8-4.38-5.92l-.02-11.05L12-20.64v-.53l-10.6.01v.54l2.96 1.1.01 12.22c0 5.02 1.74 8.14 6.86 8.13 3.9 0 6-2.64 6.8-5.13v4.28h8.33v-.53zm0 0"/></symbol><symbol overflow="visible" id="affa6629l"><path d="M15.6-4.45c-.74 1.68-1.74 2.42-3.47 2.42-3 .01-3.49-1.72-3.49-4.31L8.61-33l7.23-.86v-.53L.6-34.37v.53l3.75 1 .04 27.87C4.42-1 6.44.84 10.43.83c3.9 0 5.26-2.64 5.95-5.28zm0 0"/></symbol><symbol overflow="visible" id="affa6629m"><path d="M49.56-146.05l21.94-5.01v-2.49l-62.9.07v2.48l19.24 4.98.11 138.52-19.22 5V0l67.9-.06v-2.5L49.66-7.53zm91.58-7.54l-51.42.03v2.48l22.73 4.99-57.1 69.17L98.3-20.55c14 18.2 26.72 23.96 41.7 24.2l1-1.26-66.45-90.3 49.63-58.43 16.95-4.77zm0 0"/></symbol><symbol overflow="visible" id="affa6629n"><path d="M87.73-146.06l20.96-3.78v-3.74l-61.9.06v3.74l20.24 3.73L16.72-7.25 0-2.5V0l54.9-.05v-2.5L28.7-7.5l12.94-39.2 57.4-.05 13.02 39.17-25.7 5.02v2.5l64.39-.07v-2.5l-15.73-4.71zm-17.71 12.72l26.03 77.86-51.67.04zm0 0"/></symbol><symbol overflow="visible" id="affa6629o"><path d="M12.44-57.67l2.53 54.15C30.2 1.22 44.17 3.97 57.4 3.95c39.18-.03 55.64-19.26 55.62-46.47-.01-21.96-10.26-33.68-29.48-40.9L53.08-94.9c-15.72-5.97-22.47-13.95-22.47-25.94-.02-17.72 10.7-27.2 29.66-27.22 23.21-.01 32.71 11.46 40.73 42.9h3.75l-3.3-47.43c-11.98-3.23-23.2-4.72-38.93-4.7-29.2.01-48.16 16.25-48.15 42.2.02 20.97 9.77 33.95 30.49 41.67l27.72 10.46C83.3-58.97 94.8-52.73 94.8-35.52 94.83-16.8 86.36-5.8 62.9-5.78c-29.45.01-41.44-19.44-46.72-51.9zm0 0"/></symbol><symbol overflow="visible" id="affa6629p"><path d="M122.67-153.58l-107.08.08v2.48l17.74 4.99.1 138.51-17.71 5v2.5L80.6-.06v-2.5L55.16-7.53l-.07-65.4 37.44-.02 8.25 21.97h3.75l-.03-52.68h-3.75l-8.22 21.97-37.44.03-.04-63.14 49.92-.03 18.48 33.17h3.74zm0 0"/></symbol><symbol overflow="visible" id="affa6629q"><path d="M54.8-146.05l24.43-5.01v-2.49l-70.62.07v2.48l24.47 4.97.1 138.51L8.74-2.5V0l70.63-.06v-2.5L54.9-7.53zm0 0"/></symbol><symbol overflow="visible" id="affa6629r"><path d="M100.83-8.81l-50.9.03-.12-134.77 26.94-6.26v-3.74l-68.14.07v3.73l19.48 6.23L28.2-10 8.73-3.75V0L117.3-.1l6.97-44.42-3.75-1zm0 0"/></symbol><symbol overflow="visible" id="affa6629s"><path d="M184.67-10.13l-.1-133.51 19.46-6.27v-3.73l-47.42.03L107.3-29.53l-50.52-124-49.42.05v3.73l19.48 6.23.1 133.52L7.48-3.75V0l55.16-.05V-3.8l-25.72-6.22-.1-132.03L97.09 1.92l6.25.25 59.53-144.31.1 132.03-21.94 6.25V-.1l63.14-.05V-3.9zm0 0"/></symbol><symbol overflow="visible" id="affa6629t"><path d="M42-14.36C39.1-3.94 33.94-1.75 27.17-1.75c-11.26 0-17.14-9.55-17.14-21.56 0-11.02 4.28-20.05 15.9-20.05 8.65 0 13.09 5.1 16.07 13.27l1.08-.16-2.17-13.9a58.99 58.99 0 00-13.96-1.83c-14.97 0-23.68 10.71-23.68 24.18 0 14.08 8.71 22.97 22.96 22.97 6.1 0 13-1.31 15.91-3l.94-12.53zm0 0"/></symbol><symbol overflow="visible" id="affa6629u"><path d="M17.95 1.23c9.8 0 15.25-6.4 15.25-15.73 0-8.81-5.01-15.75-14.67-15.75-10.17 0-15.62 6.42-15.62 15.75 0 8.81 5.01 15.73 15.04 15.73zm.58-2.25c-6.6 0-9.73-7.07-9.73-14.5 0-6.86 2.3-12.46 8.78-12.46 6.6 0 9.73 7.14 9.73 14.5S25-1.02 18.53-1.02zm0 0"/></symbol><symbol overflow="visible" id="affa6629v"><path d="M33.28-2.19v-17.34c0-6.49-3.2-10.78-9.67-10.78-4.58 0-8.5 2.68-10.61 7.93v-7.5L2.33-26.59v.65h5.15v23.75L2.33-.73V0h16.12v-.73L13.38-2.2V-15.8c0-6.27 2.39-9.77 7.32-9.77 5.02 0 6.7 3.13 6.7 7.94V-2.2L22.22-.73V0h16.13v-.73zm0 0"/></symbol><symbol overflow="visible" id="affa6629x"><path d="M12.72-18.3c-2.69-.72-4.14-1.89-4.14-4.73 0-3.13 2.25-5.03 5.87-5.03 4.52 0 7.27 1.25 8.66 5.83v4.59h1.45v-12.31h-1.45v3.8c-1.31-2.7-4.52-4.16-8.58-4.16-5.89 0-10.47 3.5-10.47 9.54 0 4.66 2.9 7.07 6.83 8.08l6.03 1.61c2.85.74 4.44 1.46 4.44 4.52 0 2.7-2.03 5.1-6.69 5.1-5.08 0-8.72-1.96-9.65-6.34v-3.36H3.56V1.17h1.46v-5.1c1.45 3.27 5.59 5.1 9.43 5.1 7.13 0 11.13-3.36 11.13-9.26 0-4.22-1.31-7.07-7.49-8.74zm0 0"/></symbol><symbol overflow="visible" id="affa6629y"><path d="M16.64-30.31c-8.86 0-13.73 7-13.73 15.81 0 8.53 4.28 15.67 13.51 15.67 8.14 0 11.27-5.54 11.99-10.36h-1.16c-1.6 3.8-4.14 5.11-8.88 5.11-6.3 0-10.09-4.45-10.59-11.81h20.63c.87-7.14-2.7-14.42-11.77-14.42zM7.7-18.08c.14-6.55 2.99-10.05 7.7-10.05 5.38 0 7.5 4.6 7.5 10.05zm0 0"/></symbol><symbol overflow="visible" id="affa6629z"><path d="M14.31-23.6c-.44.87-.94 1.74-1.31 2.68v-9.4L2.33-26.58v.65h5.15v23.75L2.33-.73V0h19.03v-.73L13.38-2.2V-14.2c0-5.25 1.45-10.2 5.87-10.2 2.47 0 3.86 1.3 4.88 4.57h1.09V-30.3c-4.95 0-8.58 2.62-10.9 6.7zm0 0"/></symbol><symbol overflow="visible" id="affa6629A"><path d="M31.1-29.16H20.11v.74l5.82 1.1-8.14 19.3-7.93-19.23 6.33-1.17v-.74H0v.74l3.2 1.1L15.47 1.08h.73l12.28-28.34.07-.16 2.54-1.01zm0 0"/></symbol><symbol overflow="visible" id="affa6629B"><path d="M32.27-8.38c0 3.79-.82 5.54-2.99 5.54-1.75 0-2.4-1.18-2.4-3.2v-14c0-7-2.75-10.27-10.68-10.27-2.76 0-6.47.43-9.87 1.15v9.99H7.4c1.89-6.55 3.86-8.9 7.92-8.9 4.65 0 5.67 2.5 5.67 7v5.62a12.71 12.71 0 00-6.77-1.75c-6.45 0-11.32 2.78-11.32 9.54 0 5.55 3.48 8.83 9.23 8.83 4.72 0 7.4-2.7 8.86-5.9.14 3.86 2.77 5.3 6.03 5.3 5.74 0 6.53-3.77 6.53-8.45v-2.68h-1.3zM14.45-3.13c-3.84 0-5.87-2.11-5.87-5.67 0-4.1 2.47-6.27 6.6-6.27 2.18 0 4.29.8 5.82 2.03v3.07c0 2.76-1.23 6.84-6.55 6.84zm0 0"/></symbol><symbol overflow="visible" id="affa6629C"><path d="M21.94-6.13c-1.02 2.33-2.4 3.36-4.8 3.36-4.14 0-4.8-2.4-4.8-5.98v-18.22h9.68v-2.19h-9.68v-10.2h-1.07C10.17-31.78 7.19-28.72.36-27.69v.72h6.1v19.83c0 5.69 2.77 8.31 8.37 8.31 5.37 0 7.26-3.65 8.2-7.3zm0 0"/></symbol><symbol overflow="visible" id="affa6629D"><path d="M11.19-34.1a4 4 0 004.06-4 3.98 3.98 0 00-4.06-3.95 3.97 3.97 0 100 7.94zm2.9 31.91v-27.68L2.17-26.6v.65H8.2v23.75L2.17-.73V0h17.74v-.73zm0 0"/></symbol><symbol overflow="visible" id="affa6629E"><path d="M30.73-2.19v-24.78l5.16-1.45v-.74H20.12v.74l4.72 1.53v14.64c0 5.69-2.53 8.75-6.89 8.75-4.57 0-6.03-2.47-6.03-8.16v-15.23l4.64-1.53v-.74H1.96v.74l4.07 1.53v16.83c0 6.92 2.4 11.23 9.44 11.23 5.39 0 8.3-3.65 9.37-7.08V0h11.49v-.73zm0 0"/></symbol><symbol overflow="visible" id="affa6629F"><path d="M52.75-2.1v-17.35c0-6.49-3.27-10.8-9.52-10.8-4.57 0-8.14 2.84-10.25 7.73-.87-4.8-4.06-7.73-9.3-7.8-4.35-.07-8.21 2.7-10.3 7.95v-7.5L2.32-26.6v.65h5.51v23.75L2.7-.73V0H18.8v-.73L13.73-2.2v-14.06c.07-5.55 2.11-9.4 7.05-9.33 5.45.08 6.61 3.35 6.61 8.31V-2.1L22.16-.66v.74H38.5v-.74L33.28-2.1v-13.78c0-5.31 1.81-9.61 7.05-9.61 5.01 0 6.53 2.83 6.53 8.23V-2.1l-4.8 1.45v.74h15.77v-.74zm0 0"/></symbol><symbol overflow="visible" id="affa6629G"><path d="M25.56-11.95L7.96-84.17 19-90.45l-.5-2.03-34.03 8.3.5 2.02 11.23.85L13.81-9.1l-9.6 5.92.5 2.01 36.73-8.95-.5-2.02zm22.58-82.17l7.31-5.2-.5-2.04L27-94.55l.5 2.03 12.98.41.13-.03-20.2 42.1.5 2.04 29.57 23.97c9.97 8 17.63 9.44 25.77 7.58l-.34-1.35-46.75-39.23zm0 0"/></symbol><symbol overflow="visible" id="affa6629H"><path d="M28.28-90.58l10.84-4.76-.5-2.03-33.5 8.15.5 2.03 11.44-.65L8.1-6.12-.33-1.34 0 0l29.7-7.25-.32-1.34-14.83.76 1.84-22.92 31.06-7.56 12.17 19.48-13.24 6.1.32 1.34 34.85-8.48-.33-1.35-9.13-.51zm-7.92 9.24l24.31 38.7-27.95 6.81zm0 0"/></symbol><symbol overflow="visible" id="affa6629I"><path d="M-.86-32.84l8.5 28.98c8.84.55 16.78.19 23.95-1.56 21.2-5.16 27.55-17.74 23.97-32.44-2.9-11.89-9.98-16.89-21.34-18.27l-17.99-2.2C6.95-59.48 2.27-62.93.67-69.39-1.66-79 2.9-85.53 13.16-88.03c12.54-3.06 19.2 1.89 27.65 17.87l2.03-.5-8-25.22c-6.92-.18-13.17.47-21.7 2.55-15.78 3.86-23.9 15.14-20.48 29.19 2.76 11.33 9.73 17.06 21.96 18.52l16.36 2.03c6.35.73 13.38 2.57 15.66 11.9 2.47 10.13-.7 17.19-13.39 20.28C17.33-7.5 8.28-16.45 1.17-33.34zm0 0"/></symbol><symbol overflow="visible" id="affa6629J"><path d="M7.63-85.53l11.21-5.61-.34-1.34-34.03 8.3.34 1.34 11.06.17L14.14-7.73 4.4-2.5l.33 1.34 36.72-8.95-.33-1.34-15.22.86zm48.54-16.13l-27.81 6.78.34 1.35 12.94-.3-21.81 44.94 30.65 24.86c9.97 8 17.63 9.44 25.77 7.58l.36-.8-47.84-40.13 19.18-38.14 8.57-4.8zm0 0"/></symbol><symbol overflow="visible" id="affa6629K"><path d="M-7.63 85.53l-11.21 5.61.34 1.34 34.03-8.3-.34-1.34-11.06-.17-18.27-74.94L-4.4 2.5l-.33-1.34-36.72 8.95.33 1.34 15.22-.86zm-48.54 16.13l27.81-6.78-.34-1.35-12.94.3 21.81-44.94-30.65-24.86c-9.97-8-17.63-9.44-25.77-7.58l-.36.8 47.84 40.13-19.18 38.14-8.57 4.8zm0 0"/></symbol><symbol overflow="visible" id="affa6629L"><path d="M-28.28 90.58l-10.84 4.76.5 2.03 33.5-8.15-.5-2.03-11.44.65L-8.1 6.12.33 1.34 0 0l-29.7 7.25.32 1.34 14.83-.76-1.84 22.92-31.06 7.56-12.17-19.48 13.24-6.1-.32-1.34-34.85 8.48.33 1.35 9.13.51zm7.92-9.24l-24.31-38.7 27.95-6.81zm0 0"/></symbol><symbol overflow="visible" id="affa6629M"><path d="M.86 32.84l-8.5-28.98c-8.84-.55-16.78-.19-23.95 1.56-21.2 5.16-27.55 17.74-23.97 32.44 2.9 11.89 9.98 16.89 21.34 18.27l17.99 2.2c9.28 1.15 13.96 4.6 15.56 11.06C1.66 79-2.9 85.53-13.16 88.03c-12.54 3.06-19.2-1.89-27.65-17.87l-2.03.5 8 25.22c6.92.18 13.17-.47 21.7-2.55 15.78-3.86 23.9-15.14 20.48-29.19-2.76-11.33-9.73-17.06-21.96-18.52l-16.36-2.03c-6.35-.73-13.38-2.57-15.66-11.9-2.47-10.13.7-17.19 13.39-20.28 15.92-3.9 24.97 5.04 32.08 21.93zm0 0"/></symbol><symbol overflow="visible" id="affa6629N"><path d="M64.8-4.27l-.05-52.06-38 .03c-.98-7.33-2.13-12.67-2.13-19.28 0-8.87 4.75-14.08 14.02-14.1 12.2 0 15.72 8.3 18.97 20.96h2.1l-.04-23.36a111.14 111.14 0 00-19.22-1.67c-17.67.02-24.95 11.27-24.93 28.44v9.01l-9.96.02v4.22l9.96-.02.04 47.85-9.95 2.82V0l31.28-.03v-1.4l-9.95-2.8-.05-47.85 26.5-.03.05 47.84-9.96 2.83v1.4l31.29-.02v-1.4zm0 0"/></symbol><symbol overflow="visible" id="affa6629O"><path d="M41.5-11.86c-1.94 4.52-4.6 6.48-9.23 6.48-8 .02-9.29-4.62-9.29-11.53l-.04-70.92 19.2-2.26v-1.41l-40.53.03v1.4l9.97 2.66.04 74.16c.16 10.56 5.49 15.48 16.15 15.48C38.16 2.22 41.8-4.8 43.6-11.86zm0 0"/></symbol><symbol overflow="visible" id="affa6629P"><path d="M101.83-4.16l-.03-33.5c-.02-12.51-6.33-20.8-18.4-20.8-8.82 0-15.7 5.5-19.74 14.93-1.7-9.28-7.88-14.9-17.97-15.03-8.42-.16-15.86 5.2-19.9 15.34l-.02-14.48-21.33 6.34v1.27l10.67-.02.05 45.88-9.97 2.82V0l31.14-.03v-1.4l-9.81-2.8-.04-27.16c.14-10.7 4.05-18.17 13.58-18.03 10.53.12 12.78 6.45 12.78 16.03l.03 29.27L42.78-1.3V.1L74.34.09v-1.4l-10.1-2.8-.04-26.6c0-10.28 3.5-18.58 13.6-18.6 9.68 0 12.64 5.48 12.64 15.9l.03 29.26-9.25 2.83v1.4l30.44-.02v-1.4zm0 0"/></symbol><symbol overflow="visible" id="affa6629R"><path d="M62.27-16.23c.01 7.32-1.54 10.7-5.74 10.7-3.37 0-4.64-2.25-4.66-6.19l-.01-27.03c-.02-13.5-5.34-19.81-20.63-19.81-5.32.01-12.48.86-19.07 2.26l.01 19.27h2.11c3.63-12.66 7.4-17.16 15.27-17.17 8.98 0 10.93 4.78 10.95 13.5v10.84c-3.22-1.97-7.42-3.37-13.05-3.36-12.47 0-21.86 5.36-21.86 18.44.02 10.7 6.75 17.01 17.83 17.01 9.13-.01 14.31-5.21 17.11-11.4.28 7.45 5.33 10.26 11.64 10.25 11.1 0 12.63-7.31 12.61-16.33v-5.2h-2.51zM27.9-6.06c-7.43 0-11.38-4.08-11.38-10.99 0-7.87 4.78-12.1 12.77-12.1a17.97 17.97 0 0111.22 3.93v5.9c0 5.35-2.36 13.24-12.61 13.26zm0 0"/></symbol><symbol overflow="visible" id="affa6629S"><path d="M64.23-4.27l-.03-33.5c-.01-12.51-6.18-20.8-18.65-20.8-8.85 0-16.42 5.23-20.47 15.35l-.02-14.48-20.62 6.34v1.27l9.97-.02.04 45.88-9.97 2.82V0l31.14-.03v-1.4l-9.8-2.8-.04-26.32c0-12.1 4.61-18.87 14.14-18.87 9.69-.02 12.92 6.03 12.92 15.33l.03 29.82-9.95 2.83v1.4l31.14-.02v-1.4zm0 0"/></symbol><symbol overflow="visible" id="affa6629T"><path d="M59.9-4.27l-.07-83.17 9.95-2.69v-1.4l-36.33.03v1.4l15.02 2.26.01 34.48c-3.5-3.37-9.39-5.2-15.42-5.2-17.95.01-27.48 12.4-27.47 30.84 0 16.33 6.9 29.95 23.44 29.95 9.83-.01 16.56-5.07 19.49-12.39l.01 10.13L70.7-.06v-1.4zM32.82-7.63c-11.92.02-16.44-9.7-16.45-23.2 0-13.51 4.34-23.5 16.54-23.51 10.66 0 14.6 7.17 15.58 16.17l.02 15.2c0 12.4-8.41 15.34-15.7 15.34zm0 0"/></symbol><symbol overflow="visible" id="affa6629U"><path d="M21.55-65.88a7.72 7.72 0 007.84-7.73c0-4.36-3.64-7.6-7.86-7.6a7.66 7.66 0 10.02 15.33zm5.67 61.65l-.05-53.47-23.01 6.34v1.27l11.64-.02.04 45.88L4.2-1.41V0l34.24-.03v-1.4zm0 0"/></symbol><symbol overflow="visible" id="affa6629V"><path d="M42.34-11.86c-1.95 4.52-4.6 6.48-9.23 6.48-8 .02-9.28-4.62-9.28-11.53l-.03-35.17 18.65-.01v-4.22l-18.65.01-.02-19.7h-2.1C19.58-61.37 13.83-55.45.65-53.47v1.4h11.78l.03 38.26C12.48-2.83 17.8 2.23 28.6 2.23 39 2.22 42.64-4.8 44.45-11.86zm0 0"/></symbol><symbol overflow="visible" id="affa6629W"><path d="M32.08-58.56C14.97-58.55 5.58-45.03 5.59-28c0 16.47 8.3 30.23 26.11 30.22 15.7 0 21.74-10.7 23.13-20h-2.25c-3.08 7.33-7.97 9.87-17.1 9.87-12.2.02-19.51-8.57-20.5-22.78l39.83-.03c1.69-13.8-5.2-27.86-22.73-27.84zM14.84-34.91c.29-12.67 5.74-19.42 14.85-19.43 10.37 0 14.47 8.86 14.47 19.42zm0 0"/></symbol><symbol overflow="visible" id="affa6629X"><path d="M16.42-20.55h1.9c12.41 0 19.16-3.14 19.16-12.47 0-7.71-4.57-11.8-17.57-11.8H2.55v1.1L8.2-41.9v38.99L2.55-1.1V0h19.82v-1.1l-7.84-1.82V-42.2h4.8c7.26 0 11.19 3.05 11.19 9.47 0 7.14-5.6 10.42-14.1 10.78zm0 0"/></symbol><symbol overflow="visible" id="affa6629Y"><path d="M33.28-2.19v-17.34c0-6.49-3.2-10.78-9.67-10.78-4.2 0-7.98 2.33-10.23 7.06v-22.22l9.95-1.17v-.73h-21v.73l5.15 1.39v43.06L2.33-.73V0h16.12v-.73L13.38-2.2v-13.48c0-7.58 3.32-9.9 7.26-9.9 5.88 0 6.75 4.07 6.75 8.66v14.72L22.23-.73V0h16.13v-.73zm0 0"/></symbol><symbol overflow="visible" id="affa6629Z"><path d="M17.95 1.23c9.8 0 15.25-6.4 15.25-15.73 0-8.81-5.01-15.75-14.67-15.75-10.17 0-15.62 6.42-15.62 15.75 0 8.81 5.01 15.73 15.04 15.73zm.58-2.25c-6.6 0-9.73-7.07-9.73-14.5 0-6.86 2.3-12.46 8.78-12.46 6.6 0 9.73 7.14 9.73 14.5S25-1.02 18.53-1.02zm0 0"/></symbol><symbol overflow="visible" id="affa6629aa"><path d="M21.94-6.13c-1.02 2.33-2.4 3.36-4.8 3.36-4.14 0-4.8-2.4-4.8-5.98v-18.22h9.68v-2.19h-9.68v-10.2h-1.07C10.17-31.78 7.19-28.72.36-27.69v.72h6.1v19.83c0 5.69 2.77 8.31 8.37 8.31 5.37 0 7.26-3.65 8.2-7.3zm0 0"/></symbol><symbol overflow="visible" id="affa6629ab"><path d="M12.72-18.3c-2.69-.72-4.14-1.89-4.14-4.73 0-3.13 2.25-5.03 5.87-5.03 4.52 0 7.27 1.25 8.66 5.83v4.59h1.45v-12.31h-1.45v3.8c-1.31-2.7-4.52-4.16-8.58-4.16-5.89 0-10.47 3.5-10.47 9.54 0 4.66 2.9 7.07 6.83 8.08l6.03 1.61c2.85.74 4.44 1.46 4.44 4.52 0 2.7-2.03 5.1-6.69 5.1-5.08 0-8.72-1.96-9.65-6.34v-3.36H3.56V1.17h1.46v-5.1c1.45 3.27 5.59 5.1 9.43 5.1 7.13 0 11.13-3.36 11.13-9.26 0-4.22-1.31-7.07-7.49-8.74zm0 0"/></symbol><symbol overflow="visible" id="affa6629ac"><path d="M31.83-29.16h-11.7v.74l6.75 1.1L18.45-6.2l-8.42-20.56-.22-.5 6.4-1.17v-.74H0v.74l3.2 1.1L15.33 1.22l-1.24 3.22C11.5 11.52 9.88 15.3 7.92 15.3c-1.45 0-2.62-.94-4.08-7.07H2.77v9.99c1.45.8 2.68.87 3.76.87 4.16 0 5.97-3.36 10.03-14.64L29.2-27.33l2.63-1.1zm0 0"/></symbol><symbol overflow="visible" id="affa6629ad"><path d="M33.28-2.19v-17.34c0-6.49-3.2-10.78-9.67-10.78-4.58 0-8.5 2.68-10.61 7.93v-7.5L2.33-26.59v.65h5.15v23.75L2.33-.73V0h16.12v-.73L13.38-2.2V-15.8c0-6.27 2.39-9.77 7.32-9.77 5.02 0 6.7 3.13 6.7 7.94V-2.2L22.22-.73V0h16.13v-.73zm0 0"/></symbol><symbol overflow="visible" id="affa6629ae"><path d="M11.19-34.1a4 4 0 004.06-4 3.98 3.98 0 00-4.06-3.95 3.97 3.97 0 100 7.94zm2.9 31.91v-27.68L2.17-26.6v.65H8.2v23.75L2.17-.73V0h17.74v-.73zm0 0"/></symbol><symbol overflow="visible" id="affa6629af"><path d="M16.64-30.31c-8.86 0-13.73 7-13.73 15.81 0 8.53 4.28 15.67 13.51 15.67 8.14 0 11.27-5.54 11.99-10.36h-1.16c-1.6 3.8-4.14 5.11-8.88 5.11-6.3 0-10.09-4.45-10.59-11.81h20.63c.87-7.14-2.7-14.42-11.77-14.42zM7.7-18.08c.14-6.55 2.99-10.05 7.7-10.05 5.38 0 7.5 4.6 7.5 10.05zm0 0"/></symbol></defs><path fill="#fdfaf5" d="M0 0h1366v768H0z"/><path d="M517.27 612.64A52.37 52.37 0 00569.64 665h159.92a52.37 52.37 0 000-104.74H569.64a52.37 52.37 0 00-52.37 52.37s0-28.93 0 0" fill="red"/><g fill="#fff"><use xlink:href="#affa6629a" x="572.2161" y="624.5964"/><use xlink:href="#affa6629b" x="601.053995" y="624.573426"/><use xlink:href="#affa6629c" x="619.82235" y="624.558474"/><use xlink:href="#affa6629d" x="634.794859" y="624.546546"/><use xlink:href="#affa6629e" x="649.398326" y="624.534912"/><use xlink:href="#affa6629f" x="677.076379" y="624.512862"/><use xlink:href="#affa6629g" x="702.065706" y="624.492954"/></g><path d="M579.58 493.68a52.33 52.33 0 0052.33 52.33h48.5a52.33 52.33 0 000-104.65h-48.5a52.32 52.32 0 00-52.33 52.32s0-28.9 0 0" fill="red"/><use xlink:href="#affa6629h" x="601.2982" y="507.4648" fill="#fff"/><g fill="#fff"><use xlink:href="#affa6629i" x="619.170314" y="507.450562"/><use xlink:href="#affa6629j" x="633.352021" y="507.439264"/><use xlink:href="#affa6629k" x="653.649259" y="507.423094"/><use xlink:href="#affa6629l" x="681.380032" y="507.401002"/><use xlink:href="#affa6629c" x="698.303184" y="507.38752"/></g><g fill="#1d1d1b"><use xlink:href="#affa6629m" x="65.2145" y="240.6638"/><use xlink:href="#affa6629n" x="209.221641" y="240.548862"/><use xlink:href="#affa6629o" x="359.967417" y="240.428545"/><use xlink:href="#affa6629m" x="481.762018" y="240.331335"/><use xlink:href="#affa6629p" x="625.769159" y="240.216397"/><use xlink:href="#affa6629q" x="758.046082" y="240.110821"/><use xlink:href="#affa6629r" x="846.147504" y="240.040503"/><use xlink:href="#affa6629s" x="972.933687" y="239.93931"/><use xlink:href="#affa6629o" x="1185.824659" y="239.769392"/></g><use xlink:href="#affa6629t" x="832.1416" y="666.6914"/><use xlink:href="#affa6629u" x="877.767056" y="666.6914"/><use xlink:href="#affa6629v" x="913.8751" y="666.6914"/><use xlink:href="#affa6629w" x="953.10718" y="666.6914"/><use xlink:href="#affa6629x" x="952.74392" y="694.677934"/><use xlink:href="#affa6629y" x="980.496984" y="694.677934"/><use xlink:href="#affa6629z" x="1011.737344" y="694.677934"/><use xlink:href="#affa6629A" x="1039.635712" y="716.105125"/><use xlink:href="#affa6629B" x="1070.730768" y="716.105125"/><g fill="red"><use xlink:href="#affa6629C" x="1100.59074" y="694.823698"/><use xlink:href="#affa6629u" x="1124.420596" y="694.823698"/></g><use xlink:href="#affa6629z" x="1159.002948" y="666.399874"/><use xlink:href="#affa6629D" x="1184.86706" y="666.399874"/><use xlink:href="#affa6629E" x="1205.500228" y="666.399874"/><use xlink:href="#affa6629F" x="1243.71518" y="666.399874"/><use xlink:href="#affa6629t" x="832.214252" y="728.057707"/><use xlink:href="#affa6629u" x="877.839708" y="728.057707"/><use xlink:href="#affa6629v" x="913.947752" y="728.057707"/><use xlink:href="#affa6629w" x="953.179832" y="728.057707"/><use xlink:href="#affa6629x" x="952.7109" y="756.0801"/><use xlink:href="#affa6629y" x="980.463964" y="756.0801"/><use xlink:href="#affa6629z" x="1011.704324" y="756.0801"/><use xlink:href="#affa6629A" x="1039.602692" y="777.50729"/><use xlink:href="#affa6629B" x="1070.697748" y="777.50729"/><g fill="red"><use xlink:href="#affa6629C" x="1100.55772" y="756.225863"/><use xlink:href="#affa6629u" x="1124.387576" y="756.225863"/></g><use xlink:href="#affa6629z" x="1158.969928" y="777.50729"/><use xlink:href="#affa6629D" x="1184.83404" y="777.50729"/><use xlink:href="#affa6629E" x="1205.467208" y="777.50729"/><use xlink:href="#affa6629F" x="1243.68216" y="777.50729"/><use xlink:href="#affa6629t" x="832.1416" y="605.8545"/><use xlink:href="#affa6629u" x="877.767056" y="605.8545"/><use xlink:href="#affa6629v" x="913.8751" y="605.8545"/><use xlink:href="#affa6629w" x="953.10718" y="605.8545"/><use xlink:href="#affa6629x" x="952.74392" y="633.841034"/><use xlink:href="#affa6629y" x="980.496984" y="633.841034"/><use xlink:href="#affa6629z" x="1011.737344" y="633.841034"/><use xlink:href="#affa6629A" x="1039.635712" y="655.268225"/><use xlink:href="#affa6629B" x="1070.730768" y="655.268225"/><g fill="red"><use xlink:href="#affa6629C" x="1100.59074" y="633.986798"/><use xlink:href="#affa6629u" x="1124.420596" y="633.986798"/></g><use xlink:href="#affa6629z" x="1159.002948" y="605.562974"/><use xlink:href="#affa6629D" x="1184.86706" y="605.562974"/><use xlink:href="#affa6629E" x="1205.500228" y="605.562974"/><use xlink:href="#affa6629F" x="1243.71518" y="605.562974"/><use xlink:href="#affa6629G" x="115.6251" y="537.9244" fill="#ed1c24"/><use xlink:href="#affa6629H" x="181.035178" y="493.514081" fill="#ed1c24"/><use xlink:href="#affa6629I" x="269.610864" y="476.067846" fill="#ed1c24"/><use xlink:href="#affa6629J" x="339.875879" y="483.253416" fill="#ed1c24"/><use xlink:href="#affa6629K" x="424.9617" y="474.2002" fill="#ed1c24"/><use xlink:href="#affa6629L" x="359.551622" y="518.610519" fill="#ed1c24"/><use xlink:href="#affa6629M" x="270.030869" y="536.287155" fill="#ed1c24"/><g fill="#ed1c24"><use xlink:href="#affa6629K" x="200.84593" y="528.83827"/></g><path d="M480.62 461.34c24.06 98.7-56.3 175.71-171.75 203.86-115.44 28.14-222.24-3.25-246.3-101.94-24.06-98.7 56.3-175.72 171.75-203.86 115.44-28.14 222.24 3.24 246.3 101.94zm0 0" fill="none" stroke-width="10" stroke="#ed1c24" stroke-miterlimit="10"/><g fill="#1d1d1b"><use xlink:href="#affa6629N" x="63.7454" y="368.7969"/></g><g fill="#1d1d1b"><use xlink:href="#affa6629O" x="135.718399" y="368.739433"/></g><g fill="#1d1d1b"><use xlink:href="#affa6629P" x="179.146269" y="368.704758"/></g><g fill="#1d1d1b"><use xlink:href="#affa6629Q" x="292.485157" y="368.614262"/><use xlink:href="#affa6629R" x="330.218029" y="368.584134"/></g><g fill="#1d1d1b"><use xlink:href="#affa6629S" x="396.10327" y="368.531527"/></g><g fill="#1d1d1b"><use xlink:href="#affa6629T" x="467.823782" y="368.474262"/></g><g fill="#1d1d1b"><use xlink:href="#affa6629Q" x="541.466004" y="368.415462"/><use xlink:href="#affa6629R" x="579.198876" y="368.385334"/></g><g fill="#1d1d1b"><use xlink:href="#affa6629S" x="645.084118" y="368.332727"/></g><g fill="#1d1d1b"><use xlink:href="#affa6629U" x="721.461623" y="368.271743"/></g><g fill="#1d1d1b"><use xlink:href="#affa6629P" x="761.396748" y="368.239857"/></g><g fill="#1d1d1b"><use xlink:href="#affa6629R" x="872.827951" y="368.150884"/></g><g fill="#1d1d1b"><use xlink:href="#affa6629V" x="935.388773" y="368.100932"/></g><g fill="#1d1d1b"><use xlink:href="#affa6629U" x="980.948761" y="368.064554"/><use xlink:href="#affa6629W" x="1016.297028" y="368.03633"/><use xlink:href="#affa6629N" x="1072.124846" y="367.991754"/></g><g fill="#1d1d1b"><use xlink:href="#affa6629O" x="1144.097845" y="367.934287"/></g><g fill="#1d1d1b"><use xlink:href="#affa6629P" x="1187.525715" y="367.899612"/></g><g><use xlink:href="#affa6629X" x="835.4585" y="544.2734"/><use xlink:href="#affa6629Y" x="874.762366" y="544.2734"/><use xlink:href="#affa6629Z" x="913.993582" y="544.2734"/></g><g fill="red"><use xlink:href="#affa6629aa" x="950.682034" y="520.51452"/><use xlink:href="#affa6629Z" x="974.511366" y="520.51452"/></g><g fill="#12100b"><use xlink:href="#affa6629ab" x="1016.648598" y="544.2734"/><use xlink:href="#affa6629ac" x="1044.40105" y="544.2734"/><use xlink:href="#affa6629ad" x="1076.221926" y="544.2734"/></g><g><use xlink:href="#affa6629ab" x="1222.612482" y="544.2734"/><use xlink:href="#affa6629ae" x="1250.364934" y="544.2734"/><use xlink:href="#affa6629ab" x="1270.997648" y="544.2734"/></g><g><use xlink:href="#affa6629aa" x="1124.970344" y="520.51452"/><use xlink:href="#affa6629Y" x="1148.799675" y="520.51452"/><use xlink:href="#affa6629af" x="1188.030891" y="520.51452"/></g><g><use xlink:href="#affa6629X" x="835.38585" y="485.31348"/><use xlink:href="#affa6629Y" x="874.689716" y="485.31348"/><use xlink:href="#affa6629Z" x="913.920932" y="485.31348"/></g><g fill="red"><use xlink:href="#affa6629aa" x="950.609384" y="461.5546"/><use xlink:href="#affa6629Z" x="974.438715" y="461.5546"/></g><g fill="#12100b"><use xlink:href="#affa6629ab" x="1016.575947" y="485.31348"/><use xlink:href="#affa6629ac" x="1044.3284" y="485.31348"/><use xlink:href="#affa6629ad" x="1076.149275" y="485.31348"/></g><g><use xlink:href="#affa6629ab" x="1222.539831" y="485.31348"/><use xlink:href="#affa6629ae" x="1250.292284" y="485.31348"/><use xlink:href="#affa6629ab" x="1270.924998" y="485.31348"/></g><g><use xlink:href="#affa6629aa" x="1124.897694" y="461.5546"/><use xlink:href="#affa6629Y" x="1148.727025" y="461.5546"/><use xlink:href="#affa6629af" x="1187.958241" y="461.5546"/></g></svg>