<?xml version='1.0' encoding='UTF-8'?>
<svg xmlns="http://www.w3.org/2000/svg" xmlns:xlink="http://www.w3.org/1999/xlink" width="1366px" height="1107px" viewBox="0 0 1366 1107" x="0px" y="0px" enable-background="new 0 0 1366 1107"><defs><symbol overflow="visible" id="65e067b1a"><path d="M31.6-32.4c18 0 30.18-6.3 30.18-20.4 0-13.5-12.28-19.5-28.19-19.5H3.12v5l7.91.9v60.5L3.02-5v5h29.43v-5l-10.72-.9v-26.5zm-1.65-34c11.96 0 21 3.6 21 13.6 0 10.4-7.17 14.5-20.89 14.5h-8.33v-28.1zm0 0"/></symbol><symbol overflow="visible" id="65e067b1b"><path d="M37.03-51.6c-5.31 0-9.58 6.8-14.16 13.5h-.82v-13.4h-3.02l-15.9 10v2.9l8.21.4v32.3L3.33-5v5h27.36v-5l-8.64-.9v-25.4c4.37-6.4 6.76-9.6 9.25-9.6 2.5 0 3.64 1.6 5.93 5.4l9.25-7.2c-2.7-4.9-4.98-8.9-9.45-8.9zm0 0"/></symbol><symbol overflow="visible" id="65e067b1c"><path d="M17.27-62.5c3.84 0 6.86-2.9 6.86-6.5 0-3.7-3.02-6.6-6.86-6.6A6.63 6.63 0 0010.5-69c0 3.6 3.02 6.5 6.77 6.5zm4.78 56.6v-45.6h-3.02l-15.9 10v2.9l8.21.4v32.3L3.33-5v5h26.31v-5zm0 0"/></symbol><symbol overflow="visible" id="65e067b1d"><path d="M56.06-5.9v-28.6c0-9.7-5.83-17.1-15.19-17.1-7.59 0-13.51 5.1-17.78 10.1h-1.04v-10h-3.02l-15.9 10v2.9l8.21.4v32.3L3.33-5v5h26.31v-5l-7.6-.9v-28.7c3.44-4.7 7.91-9.1 14.15-9.1 6.97 0 9.15 5.8 9.15 13.1v24.7l-8 .9v5h26.3v-5zm0 0"/></symbol><symbol overflow="visible" id="65e067b1e"><path d="M35.67-10.5c-2.08 1.6-5.2 3.7-8.53 3.7-3.73 0-5.6-1.9-5.6-6.3v-30.4h15.9V-50h-15.9l2.18-11.9h-2.7L1.56-47.3v3.8h9.36v35.2c.2 6.9 4.27 9.9 11.33 9.9 5.83 0 12.8-4.7 16.02-8.7zm0 0"/></symbol><symbol overflow="visible" id="65e067b1f"><path d="M55.75-49.2c-1.98.2-5 .3-7.08.3-3.84 0-9.36-.3-13.83-1.4a30.3 30.3 0 00-8.73-1.3c-12.69 0-22.36 7.9-22.36 19.2 0 8 4.47 14.1 11.44 17.2C10.8-12.1 4.47-7.3 4.47-2.7c0 3.3 3.01 4.9 6.66 5.7-3.85 2.3-7.07 5.6-7.07 10.3 0 6.6 7.49 10.9 17.16 10.9C38.38 24.2 54.7 18 54.7 6.4 54.7-.7 49.2-6 38.37-6c-6.65 0-11.95.1-19.34.1-2.28 0-4.06-1-4.06-2.9 0-1.8 1.98-3.6 3.75-5.1 2.5.6 5.1 1 7.9 1 12.7 0 22.05-7.9 22.05-19.2 0-4-1.14-7.6-3.12-10.5 3.64.3 7.08.3 10.2.3zM26.83-17.6C18.4-17.6 14.66-25 14.66-34c0-7.1 3.23-13.4 10.82-13.4 8.94 0 12.27 7.8 12.27 16.9 0 6.9-2.81 12.9-10.92 12.9zM19.66 3.7c5.51 0 8.93-.4 14.96-.4 7.4 0 12.4 1.5 12.4 6.1 0 6.2-9.27 8.9-19.46 8.9-7.08 0-14.67-1.6-14.67-7.7 0-2.8 1.36-4.9 3.44-7 1.14.1 2.28.1 3.33.1zm0 0"/></symbol><symbol overflow="visible" id="65e067b1h"><path d="M47.31-5c-2.48 0-3.22-2.4-3.22-5v-26.9c0-10.8-7.17-14.7-19.65-14.7-10.19 0-19.03 4.9-19.03 12.2 0 1.8.3 3.5 1.25 5.1l10.8-2.2a7.31 7.31 0 01-1.65-4.4c0-3.9 3.33-5.4 7.6-5.4 6.12 0 9.87 3.4 9.87 10.1v5.8c-6.76 1.9-13.1 3.8-18.51 5.6-6.35 2.1-12.18 6.3-12.18 13.1 0 7.1 4.8 13.3 14.47 13.3 6.44 0 11.96-3 16.22-7h1.25C36.1-1.2 39.52.8 43.9.8c2.9 0 4.67-.9 6.86-1.8v-4.8a8.2 8.2 0 01-3.44.8zM22.36-5c-4.67 0-8.94-2.8-8.94-7.9 0-3.7 1.86-7 7.06-8.7 3.55-1.2 8.02-2.5 12.8-3.8V-11c-2.7 3.3-6.45 6-10.92 6zm0 0"/></symbol><symbol overflow="visible" id="65e067b1i"><path d="M53.05-8.8v-58.4l4.98-3-3.44-5.5-20.57 11v3l8.3 1v13.2a27.22 27.22 0 00-13.93-4.1C13.94-51.6 3.64-39.2 3.64-24c0 13 8 25.6 22.67 25.6 6.55 0 12.07-3.5 16.02-7.6h1.14v7.7h1.98l15.9-9v-5.9zM30.38-6.1c-10.72 0-16.13-9.7-16.13-20.7 0-9.9 4.9-18.3 14.77-18.3 5.51 0 10.3 3.2 13.3 7.5v26.9a17.86 17.86 0 01-11.95 4.6zm0 0"/></symbol><symbol overflow="visible" id="65e067b1j"><path d="M59.8-50H38.17v5l7.9.9-13.52 32.5-12.78-32.5h.09l7.6-.9v-5H1.04v5l6.75.8L26.3.2 11.23 22.7h12.38L35.25-4.5h.1l-.1-.1L52.2-44.1l7.6-.9zm0 0"/></symbol><symbol overflow="visible" id="65e067b1k"><path d="M39.31-51.6c-7.48 0-12.58 4.6-16.53 10.3h-.73v-10.2h-3.02l-15.9 10v2.9l8.21.4v55l-8.01.9v5h27.36v-5l-8.64-.9V-3.9c3.84 2.9 8.84 5.4 14.67 5.4 12.47 0 23.7-10.5 23.7-27.7 0-12.2-7.9-25.4-21.1-25.4zM35.36-4.9c-5.3 0-9.56-2.2-13.31-6.3v-24c2.8-4.2 7.39-8.6 13.62-8.6 9.88 0 14.14 9.2 14.14 20.2 0 10.4-4.47 18.7-14.45 18.7zm0 0"/></symbol><symbol overflow="visible" id="65e067b1l"><path d="M3.64-25.1c0 13.1 9.78 26.7 26.94 26.7 16.01 0 26-12.1 26-26.4 0-14.8-10.72-26.7-27.05-26.7-15.7 0-25.89 11.6-25.89 26.4zM28.4-45.7c10.72 0 17.47 10.7 17.47 23.1 0 10.3-5.1 17.8-14.14 17.8-11.13 0-17.47-11.2-17.47-22.5 0-10.7 5.1-18.4 14.14-18.4zm0 0"/></symbol><symbol overflow="visible" id="65e067b1m"><path d="M55.84-5.9v-28.5c0-9.7-4.78-17.2-14.56-17.2-7.8 0-13.92 4.9-18.4 10.3h-1.15v-25.9l5-3-3.43-5.5-20.6 11v3l8.33 1v54.8L3.02-5v5h26.3v-5l-7.59-.9v-28.4c4.27-5.7 8.22-9.4 14.14-9.4 7.08 0 9.27 5.6 9.27 12.6v25.2l-8.02.9v5h26.32v-5zm0 0"/></symbol><symbol overflow="visible" id="65e067b1n"><path d="M29.22-45.7c-9.56 0-15.7 8.2-15.7 18.5 0 10.5 5.93 20.7 19.14 20.7 6.03 0 10.6-2.4 14.25-6.5l3.32 1.8c-2.6 6.7-9.46 12.8-21.21 12.8-15.2 0-25.38-11.2-25.38-25.2 0-15.3 10.19-27.9 27.34-27.9 5.74 0 11.04 1.4 14.79 4.3 2.17 1.7 3.73 4.4 3.73 6.9 0 2.8-1.77 4.7-4.27 4.7-2.8 0-4.46-1.2-5.6-3.7-1.68-3.7-4.9-6.4-10.41-6.4zm0 0"/></symbol><symbol overflow="visible" id="65e067b1o"><path d="M90.27-5.9v-28.6c0-9.7-5.82-17.1-15.18-17.1-8.32 0-15.3 6.3-19.65 11.7-1.78-6.9-7.08-11.7-14.56-11.7-7.6 0-13.52 5.1-17.79 10.1h-1.04v-10h-3.02l-15.9 10v2.9l8.21.4v32.3L3.33-5v5h26.31v-5l-7.6-.9v-28.7c3.44-4.7 7.91-9.1 14.15-9.1 6.97 0 9.15 5.8 9.15 13.1v24.7l-8 .9v5h26.3v-5l-7.58-.9v-28.9c3.42-4.6 7.8-8.9 13.52-8.9 7.8 0 9.98 5.8 9.98 13.1v24.7l-8.01.9v5h26.3v-5zm0 0"/></symbol><symbol overflow="visible" id="65e067b1p"><path d="M55.33-9.5v-42H52.3l-15.9 10v2.9l8.1.4v26.3c-3.43 3.2-7.59 5.6-11.65 5.6-7.9 0-10.81-4.4-10.81-12v-33.2h-3.02l-15.9 10v2.9l8.1.4v23.7c0 9.1 4.99 16.1 15.29 16.1 7.39 0 13.62-4.5 18.09-8.9h1.05v9h1.97l15.92-10v-5.9zm0 0"/></symbol><symbol overflow="visible" id="65e067b1q"><path d="M21.73-5.9v-61.3l5-3-3.43-5.5-20.6 11v3l8.33 1v54.8L3.02-5v5h26.3v-5zm0 0"/></symbol><symbol overflow="visible" id="65e067b1r"><path d="M46.6-12.7c-3.85 4.5-8.65 6.3-14.46 6.3-12.37 0-18.2-11.5-18.2-22.2H49.8c-.31-13.8-8.94-23-21.31-23-16.33 0-24.86 12.9-24.86 27.4 0 13.8 9.25 25.8 25.27 25.8 10.6 0 17.37-5.4 21.01-12zm-20.5-33c7.3 0 10.71 4.9 11.76 11.7H14.25c1.03-5.9 5.1-11.7 11.86-11.7zm0 0"/></symbol><symbol overflow="visible" id="65e067b1s"><path d="M25.17-70.6c6.13 0 8.22 5.5 8.74 11.6H39v-14.6c-4.98-1.4-8.02-2-13.94-2-10.5 0-17.26 5.7-17.26 13.9 0 4.6 2.3 7.7 3.33 11.7H2.5v6h8.63v38.1l-8 .9v5h28.39v-5l-9.58-.9V-44h13.22v-6c-11.03 0-16.86-7.7-16.64-13.9.09-3.9 2.7-6.7 6.65-6.7zm0 0"/></symbol><symbol overflow="visible" id="65e067b1t"><path d="M83.2-50H63.03v5l8 .9-10.92 28.8-12.8-28.8 7.28-.9v-5H28.3v5l8 .9 3.65 8.1-10.19 21.8-13.84-29.9 7.59-.9v-5H-1.77v5l6.66.7L25.5 0h3.73l13.62-29.7L56.37 0h3.74l16.53-44.2 6.56-.8zm0 0"/></symbol><symbol overflow="visible" id="65e067b1u"><path d="M55.44-5.8L35.16-31.7l15.59-12.4 7.48-.9v-5h-23.7v5l8 .9-21 16.8v-39.8l5.1-3.1-3.44-5.5-20.6 11v3l8.22 1v54.8l-8 .9v5h26.32v-5l-7.6-.9v-15l5.83-4.6 15.7 19.7-6.65.8v5h25.47v-5zm0 0"/></symbol><symbol overflow="visible" id="65e067b1v"><path d="M16.02-23.6l10.4 5.1c4.56 2.3 6.86 3.7 6.86 7.5 0 4.7-4.16 7-9.98 7-6.55 0-11.86-2.9-12.58-13.1H6.03v15.3C12.48.4 18.2 1.6 24.13 1.6c12.06 0 18.4-5.6 18.4-14.8 0-6.3-4.26-10.6-11.01-14L20.8-32.6c-3.33-1.7-5.93-3.8-5.93-7.4 0-3.9 2.91-6.5 7.7-6.5 8 0 10.82 5.5 11.85 12.4h4.78v-15.5c-6.54-1.3-9.56-2-16.33-2-8.62 0-17.15 3.7-17.15 13.5 0 7.2 4.58 11.7 10.3 14.5zm0 0"/></symbol><symbol overflow="visible" id="65e067b1w"><path d="M38.06-51.6c-7.69 0-13.42 5.4-16.53 11.1h-.83v-26.7l4.99-3-3.44-5.5-20.6 11v3l8.33 1V-1C18.3.5 25.06 1.6 32.86 1.6c16.02 0 26-13.6 26-28.3 0-12-6.97-24.9-20.8-24.9zM34.02-4c-5.2 0-10.3-2.4-13.32-6.1v-23c3.11-6.5 7.7-10.8 13.93-10.8 9.15 0 13.42 10 13.42 19.7C48.05-13.5 43.69-4 34.02-4zm0 0"/></symbol><symbol overflow="visible" id="65e067b1x"><path d="M56.27-50H35.36v5l7.48.8-12.06 33.3-13-33.3 6.86-.8v-5H-1.05v5l7.2.8L24.12 0h7.9l16.75-44.1 7.49-.9zm0 0"/></symbol><symbol overflow="visible" id="65e067b1y"><path d="M15.28 1.5c3.86 0 6.88-2.9 6.88-6.5 0-3.7-3.02-6.6-6.88-6.6A6.63 6.63 0 008.53-5c0 3.6 3.02 6.5 6.75 6.5zm0 0"/></symbol><symbol overflow="visible" id="65e067b1z"><path d="M5.53-9.66a4.9 4.9 0 100 9.82 4.9 4.9 0 000-9.82zm0 9a4.08 4.08 0 110-8.16 4.08 4.08 0 010 8.16zm-1.2-4.71c.31 0 .47-.46.47-1 0-.55-.16-.97-.47-.97-.35 0-.52.42-.52.96 0 .55.17 1 .52 1zm2.4 0c.33 0 .52-.46.52-1 0-.55-.19-.97-.52-.97-.32 0-.46.42-.46.96 0 .55.14 1 .46 1zm1.4.68c-.32 1.5-1.33 2.22-2.6 2.22-1.26 0-2.28-.72-2.6-2.22h-.48a3 3 0 003.08 3.03 3 3 0 003.08-3.03zm0 0"/></symbol><symbol overflow="visible" id="65e067b1B"><path d="M7.55 0h1.33L5.8-4.28C7.58-4.5 8.36-5.45 8.36-6.9c0-1.61-1-2.61-3.17-2.61h-3.9V0h1.2v-4.16h2.04zM2.48-8.52h2.55c1.38 0 2.14.54 2.14 1.63 0 1.1-.73 1.73-2.12 1.73H2.48zm0 0"/></symbol><symbol overflow="visible" id="65e067b1C"><path d="M7.86-8.5v-1H1.28V0h6.58v-1.02h-5.4v-3.35h4.8v-.99h-4.8V-8.5zm0 0"/></symbol><symbol overflow="visible" id="65e067b1D"><path d="M7.52 0h1.26L5.16-9.5H3.87L.13 0H1.4l.99-2.63h4.18zM2.75-3.6l1.77-4.68L6.2-3.61zm0 0"/></symbol><symbol overflow="visible" id="65e067b1E"><path d="M4.34-9.5H1.28V0h3.06c2.7 0 4.61-1.81 4.61-4.75S7.05-9.5 4.35-9.5zM4.16-1h-1.7v-7.52h1.7c2.28 0 3.6 1.4 3.6 3.77C7.77-2.37 6.42-1 4.17-1zm0 0"/></symbol><symbol overflow="visible" id="65e067b1F"><path d="M5.1.17c2.63 0 4.43-1.98 4.43-4.92s-1.8-4.92-4.42-4.92C2.48-9.67.69-7.7.69-4.75S2.49.17 5.1.17zm0-1c-1.94 0-3.22-1.5-3.22-3.92 0-2.44 1.28-3.94 3.23-3.94s3.23 1.5 3.23 3.94c0 2.42-1.28 3.92-3.23 3.92zm0 0"/></symbol><symbol overflow="visible" id="65e067b1G"><path d="M9.02-9.5l-2.9 7.63-2.9-7.63H1.28V0h1.2v-8.48L5.73 0h.79l3.21-8.47V0h1.2v-9.5zm0 0"/></symbol><symbol overflow="visible" id="65e067b1H"><path d="M7.98-9.5v8.55L3.08-9.5h-1.8V0h1.13v-8.55L7.3 0h1.8v-9.5zm0 0"/></symbol><symbol overflow="visible" id="65e067b1I"><path d="M2.69-9.5c-.24.97-.74 1.58-2.35 1.63v.98c1.03 0 1.68-.16 2.16-.6V0h1.2v-9.5zm0 0"/></symbol><symbol overflow="visible" id="65e067b1J"><path d="M4.52.17c2.4 0 3.8-2.03 3.8-4.9 0-2.88-1.4-4.94-3.8-4.94S.73-7.61.73-4.73c0 2.87 1.4 4.9 3.79 4.9zm0-1.04c-1.7 0-2.63-1.49-2.63-3.86 0-2.38.92-3.91 2.63-3.91s2.64 1.53 2.64 3.9c0 2.38-.93 3.87-2.64 3.87zm0 0"/></symbol><symbol overflow="visible" id="65e067b1K"><path d="M5.2-9.5H1.28V0h1.2v-4.16h2.63c2.17 0 3.25-1.14 3.25-2.7 0-1.64-.98-2.64-3.16-2.64zm-.18 4.34H2.48v-3.36h2.54c1.5 0 2.15.6 2.15 1.66 0 1.02-.65 1.7-2.15 1.7zm0 0"/></symbol><symbol overflow="visible" id="65e067b1L"><path d="M7.8-9.5H.3v.97h3.16V0h1.17v-8.53H7.8zm0 0"/></symbol><symbol overflow="visible" id="65e067b1M"><path d="M4.52.17c2.3 0 3.62-1.14 3.62-2.8 0-1.35-.92-2.2-2.45-2.56l-2.14-.48c-1.1-.25-1.46-.72-1.46-1.4 0-.91.77-1.62 2.14-1.62 1.4 0 2.32.58 2.5 1.85h1.25C7.77-8.8 6.31-9.67 4.25-9.67c-2.1 0-3.4 1.19-3.4 2.73 0 1.24.76 2.1 2.17 2.4l2.2.5c1.1.24 1.67.74 1.67 1.57 0 .92-.76 1.64-2.37 1.64-1.55 0-2.55-.65-2.72-2H.55c.18 1.92 1.47 3 3.97 3zm0 0"/></symbol></defs><path fill="#12100b" d="M0 0h1366v1107H0z"/><use xlink:href="#65e067b1a" x="73.729" y="112.6992" fill="#fff"/><use xlink:href="#65e067b1b" x="137.0546" y="112.6992" fill="#fff"/><use xlink:href="#65e067b1c" x="185.7058" y="112.6992" fill="#fff"/><use xlink:href="#65e067b1d" x="217.9458" y="112.6992" fill="#fff"/><use xlink:href="#65e067b1e" x="279.7218" y="112.6992" fill="#fff"/><use xlink:href="#65e067b1c" x="319.6058" y="112.6992" fill="#fff"/><use xlink:href="#65e067b1d" x="351.8458" y="112.6992" fill="#fff"/><g fill="#fff"><use xlink:href="#65e067b1f" x="416.877" y="112.6992"/><use xlink:href="#65e067b1g" x="474.181" y="112.6992"/><use xlink:href="#65e067b1h" x="499.973" y="112.6992"/></g><use xlink:href="#65e067b1d" x="552.909" y="112.6992" fill="#fff"/><g fill="#fff"><use xlink:href="#65e067b1i" x="615.5586" y="112.6992"/><use xlink:href="#65e067b1g" x="679.8306" y="112.6992"/><use xlink:href="#65e067b1e" x="705.6226" y="112.6992"/></g><use xlink:href="#65e067b1j" x="746.3594" y="112.6992" fill="#fff"/><use xlink:href="#65e067b1k" x="806.0554" y="112.6992" fill="#fff"/><use xlink:href="#65e067b1l" x="869.2562" y="112.6992" fill="#fff"/><use xlink:href="#65e067b1f" x="928.3698" y="112.6992" fill="#fff"/><use xlink:href="#65e067b1b" x="985.8194" y="112.6992" fill="#fff"/><use xlink:href="#65e067b1h" x="1033.1498" y="112.6992" fill="#fff"/><use xlink:href="#65e067b1k" x="1082.6122" y="112.6992" fill="#fff"/><use xlink:href="#65e067b1m" x="1143.4834" y="112.6992" fill="#fff"/><use xlink:href="#65e067b1c" x="1208.9306" y="112.6992" fill="#fff"/><g fill="#fff"><use xlink:href="#65e067b1n" x="1238.5186" y="112.6992"/><use xlink:href="#65e067b1g" x="1293.1186" y="112.6992"/></g><use xlink:href="#65e067b1n" x="81.841" y="220.6992" fill="#fff"/><use xlink:href="#65e067b1l" x="133.2794" y="220.6992" fill="#fff"/><use xlink:href="#65e067b1o" x="191.4362" y="220.6992" fill="#fff"/><use xlink:href="#65e067b1o" x="291.661" y="220.6992" fill="#fff"/><use xlink:href="#65e067b1p" x="387.7674" y="220.6992" fill="#fff"/><use xlink:href="#65e067b1d" x="452.237" y="220.6992" fill="#fff"/><use xlink:href="#65e067b1c" x="517.8922" y="220.6992" fill="#fff"/><use xlink:href="#65e067b1n" x="547.4802" y="220.6992" fill="#fff"/><use xlink:href="#65e067b1h" x="600.957" y="220.6992" fill="#fff"/><use xlink:href="#65e067b1e" x="650.8666" y="220.6992" fill="#fff"/><use xlink:href="#65e067b1c" x="690.7506" y="220.6992" fill="#fff"/><use xlink:href="#65e067b1l" x="719.9746" y="220.6992" fill="#fff"/><g fill="#fff"><use xlink:href="#65e067b1d" x="778.1314" y="220.6992"/><use xlink:href="#65e067b1g" x="844.1714" y="220.6992"/><use xlink:href="#65e067b1q" x="869.9634" y="220.6992"/></g><use xlink:href="#65e067b1c" x="901.6938" y="220.6992" fill="#fff"/><g fill="#fff"><use xlink:href="#65e067b1r" x="931.2818" y="220.6992"/><use xlink:href="#65e067b1g" x="986.0898" y="220.6992"/><use xlink:href="#65e067b1h" x="1011.8818" y="220.6992"/></g><g fill="#fff"><use xlink:href="#65e067b1e" x="1061.7914" y="220.6992"/><use xlink:href="#65e067b1g" x="1101.9354" y="220.6992"/><use xlink:href="#65e067b1e" x="1127.7274" y="220.6992"/></g><use xlink:href="#65e067b1m" x="1167.7674" y="220.6992" fill="#fff"/><g fill="#fff"><use xlink:href="#65e067b1r" x="1230.1986" y="220.6992"/><use xlink:href="#65e067b1g" x="1285.0066" y="220.6992"/></g><use xlink:href="#65e067b1s" x="81.113" y="328.6992" fill="#fff"/><use xlink:href="#65e067b1l" x="116.1714" y="328.6992" fill="#fff"/><use xlink:href="#65e067b1p" x="174.3282" y="328.6992" fill="#fff"/><use xlink:href="#65e067b1d" x="238.7978" y="328.6992" fill="#fff"/><use xlink:href="#65e067b1i" x="301.4474" y="328.6992" fill="#fff"/><use xlink:href="#65e067b1h" x="365.449" y="328.6992" fill="#fff"/><use xlink:href="#65e067b1e" x="415.3586" y="328.6992" fill="#fff"/><use xlink:href="#65e067b1c" x="455.2426" y="328.6992" fill="#fff"/><use xlink:href="#65e067b1l" x="484.4666" y="328.6992" fill="#fff"/><g fill="#fff"><use xlink:href="#65e067b1d" x="542.6234" y="328.6992"/><use xlink:href="#65e067b1g" x="608.6634" y="328.6992"/><use xlink:href="#65e067b1l" x="634.4554" y="328.6992"/></g><g fill="#fff"><use xlink:href="#65e067b1s" x="691.905" y="328.6992"/><use xlink:href="#65e067b1g" x="732.777" y="328.6992"/><use xlink:href="#65e067b1h" x="758.569" y="328.6992"/><use xlink:href="#65e067b1g" x="812.233" y="328.6992"/><use xlink:href="#65e067b1d" x="838.025" y="328.6992"/></g><use xlink:href="#65e067b1r" x="900.6746" y="328.6992" fill="#fff"/><g fill="#fff"><use xlink:href="#65e067b1t" x="953.7874" y="328.6992"/><use xlink:href="#65e067b1g" x="1037.5074" y="328.6992"/><use xlink:href="#65e067b1u" x="1063.2994" y="328.6992"/></g><use xlink:href="#65e067b1c" x="1126.573" y="328.6992" fill="#fff"/><use xlink:href="#65e067b1d" x="1158.813" y="328.6992" fill="#fff"/><g fill="#fff"><use xlink:href="#65e067b1i" x="1221.4626" y="328.6992"/><use xlink:href="#65e067b1g" x="1285.7346" y="328.6992"/></g><use xlink:href="#65e067b1l" x="230.561" y="436.6992" fill="#fff"/><g fill="#fff"><use xlink:href="#65e067b1s" x="288.0106" y="436.6992"/><use xlink:href="#65e067b1g" x="328.8826" y="436.6992"/><use xlink:href="#65e067b1v" x="354.6746" y="436.6992"/></g><use xlink:href="#65e067b1l" x="399.2282" y="436.6992" fill="#fff"/><use xlink:href="#65e067b1n" x="458.5186" y="436.6992" fill="#fff"/><use xlink:href="#65e067b1c" x="511.309" y="436.6992" fill="#fff"/><use xlink:href="#65e067b1r" x="540.897" y="436.6992" fill="#fff"/><use xlink:href="#65e067b1e" x="592.8658" y="436.6992" fill="#fff"/><g fill="#fff"><use xlink:href="#65e067b1j" x="633.6026" y="436.6992"/><use xlink:href="#65e067b1g" x="693.5066" y="436.6992"/><use xlink:href="#65e067b1c" x="719.2986" y="436.6992"/></g><g fill="#fff"><use xlink:href="#65e067b1d" x="751.5386" y="436.6992"/><use xlink:href="#65e067b1g" x="817.5786" y="436.6992"/><use xlink:href="#65e067b1t" x="843.3706" y="436.6992"/></g><use xlink:href="#65e067b1m" x="923.565" y="436.6992" fill="#fff"/><use xlink:href="#65e067b1c" x="989.0122" y="436.6992" fill="#fff"/><use xlink:href="#65e067b1n" x="1018.6002" y="436.6992" fill="#fff"/><g fill="#fff"><use xlink:href="#65e067b1m" x="1070.5274" y="436.6992"/><use xlink:href="#65e067b1g" x="1136.3594" y="436.6992"/></g><use xlink:href="#65e067b1c" x="125.209" y="544.6992" fill="#fff"/><g fill="#fff"><use xlink:href="#65e067b1d" x="157.449" y="544.6992"/><use xlink:href="#65e067b1i" x="220.057" y="544.6992"/></g><use xlink:href="#65e067b1r" x="282.6858" y="544.6992" fill="#fff"/><use xlink:href="#65e067b1k" x="334.9978" y="544.6992" fill="#fff"/><use xlink:href="#65e067b1r" x="398.1882" y="544.6992" fill="#fff"/><g fill="#fff"><use xlink:href="#65e067b1d" x="450.5002" y="544.6992"/><use xlink:href="#65e067b1i" x="513.1082" y="544.6992"/></g><use xlink:href="#65e067b1r" x="575.737" y="544.6992" fill="#fff"/><use xlink:href="#65e067b1d" x="628.049" y="544.6992" fill="#fff"/><use xlink:href="#65e067b1e" x="689.825" y="544.6992" fill="#fff"/><g fill="#fff"><use xlink:href="#65e067b1g" x="729.969" y="544.6992"/><use xlink:href="#65e067b1e" x="755.761" y="544.6992"/></g><g fill="#fff"><use xlink:href="#65e067b1m" x="795.801" y="544.6992"/><use xlink:href="#65e067b1l" x="858.201" y="544.6992"/></g><use xlink:href="#65e067b1p" x="916.3578" y="544.6992" fill="#fff"/><use xlink:href="#65e067b1f" x="980.193" y="544.6992" fill="#fff"/><use xlink:href="#65e067b1m" x="1036.4362" y="544.6992" fill="#fff"/><use xlink:href="#65e067b1e" x="1098.0458" y="544.6992" fill="#fff"/><g fill="#fff"><use xlink:href="#65e067b1g" x="1138.1898" y="544.6992"/><use xlink:href="#65e067b1c" x="1163.9818" y="544.6992"/></g><use xlink:href="#65e067b1v" x="1194.7242" y="544.6992" fill="#fff"/><use xlink:href="#65e067b1g" x="1241.5242" y="544.6992" fill="#fff"/><use xlink:href="#65e067b1d" x="99.729" y="652.6992" fill="#fff"/><use xlink:href="#65e067b1p" x="161.2138" y="652.6992" fill="#fff"/><use xlink:href="#65e067b1b" x="225.6834" y="652.6992" fill="#fff"/><g fill="#fff"><use xlink:href="#65e067b1e" x="275.1874" y="652.6992"/><use xlink:href="#65e067b1p" x="314.6034" y="652.6992"/></g><use xlink:href="#65e067b1b" x="379.073" y="652.6992" fill="#fff"/><use xlink:href="#65e067b1r" x="425.0306" y="652.6992" fill="#fff"/><use xlink:href="#65e067b1i" x="477.7378" y="652.6992" fill="#fff"/><g fill="#fff"><use xlink:href="#65e067b1g" x="542.0098" y="652.6992"/><use xlink:href="#65e067b1h" x="567.8018" y="652.6992"/><use xlink:href="#65e067b1d" x="620.7378" y="652.6992"/></g><use xlink:href="#65e067b1i" x="683.3874" y="652.6992" fill="#fff"/><g fill="#fff"><use xlink:href="#65e067b1g" x="747.6594" y="652.6992"/><use xlink:href="#65e067b1q" x="773.4514" y="652.6992"/></g><g fill="#fff"><use xlink:href="#65e067b1h" x="805.1818" y="652.6992"/><use xlink:href="#65e067b1b" x="858.1178" y="652.6992"/></g><use xlink:href="#65e067b1f" x="905.3338" y="652.6992" fill="#fff"/><use xlink:href="#65e067b1r" x="960.0794" y="652.6992" fill="#fff"/><use xlink:href="#65e067b1b" x="1012.3914" y="652.6992" fill="#fff"/><g fill="#fff"><use xlink:href="#65e067b1g" x="1061.4794" y="652.6992"/><use xlink:href="#65e067b1h" x="1087.2714" y="652.6992"/><use xlink:href="#65e067b1d" x="1140.2074" y="652.6992"/></g><use xlink:href="#65e067b1i" x="1202.857" y="652.6992" fill="#fff"/><use xlink:href="#65e067b1g" x="1267.1186" y="652.6992" fill="#fff"/><use xlink:href="#65e067b1q" x="123.129" y="760.6992" fill="#fff"/><use xlink:href="#65e067b1h" x="154.8594" y="760.6992" fill="#fff"/><use xlink:href="#65e067b1b" x="207.7954" y="760.6992" fill="#fff"/><use xlink:href="#65e067b1f" x="255.0218" y="760.6992" fill="#fff"/><use xlink:href="#65e067b1r" x="309.7674" y="760.6992" fill="#fff"/><g fill="#fff"><use xlink:href="#65e067b1b" x="362.0794" y="760.6992"/><use xlink:href="#65e067b1g" x="411.1674" y="760.6992"/><use xlink:href="#65e067b1f" x="436.9594" y="760.6992"/></g><use xlink:href="#65e067b1b" x="494.3986" y="760.6992" fill="#fff"/><use xlink:href="#65e067b1l" x="540.2418" y="760.6992" fill="#fff"/><use xlink:href="#65e067b1p" x="598.3986" y="760.6992" fill="#fff"/><use xlink:href="#65e067b1k" x="660.6218" y="760.6992" fill="#fff"/><g fill="#fff"><use xlink:href="#65e067b1v" x="723.1778" y="760.6992"/><use xlink:href="#65e067b1g" x="769.9778" y="760.6992"/><use xlink:href="#65e067b1h" x="795.7698" y="760.6992"/></g><use xlink:href="#65e067b1b" x="848.7058" y="760.6992" fill="#fff"/><g fill="#fff"><use xlink:href="#65e067b1r" x="894.6634" y="760.6992"/><use xlink:href="#65e067b1g" x="949.4714" y="760.6992"/><use xlink:href="#65e067b1w" x="975.2634" y="760.6992"/></g><use xlink:href="#65e067b1r" x="1036.9042" y="760.6992" fill="#fff"/><use xlink:href="#65e067b1c" x="1089.2266" y="760.6992" fill="#fff"/><use xlink:href="#65e067b1d" x="1121.4562" y="760.6992" fill="#fff"/><g fill="#fff"><use xlink:href="#65e067b1f" x="1186.4874" y="760.6992"/><use xlink:href="#65e067b1g" x="1243.7914" y="760.6992"/></g><use xlink:href="#65e067b1f" x="91.825" y="868.6992" fill="#fff"/><use xlink:href="#65e067b1c" x="149.2642" y="868.6992" fill="#fff"/><use xlink:href="#65e067b1x" x="179.7258" y="868.6992" fill="#fff"/><use xlink:href="#65e067b1r" x="233.4522" y="868.6992" fill="#fff"/><g fill="#fff"><use xlink:href="#65e067b1d" x="285.7642" y="868.6992"/><use xlink:href="#65e067b1g" x="351.8042" y="868.6992"/><use xlink:href="#65e067b1e" x="377.5962" y="868.6992"/></g><use xlink:href="#65e067b1m" x="417.6466" y="868.6992" fill="#fff"/><g fill="#fff"><use xlink:href="#65e067b1r" x="480.0778" y="868.6992"/><use xlink:href="#65e067b1g" x="534.8858" y="868.6992"/><use xlink:href="#65e067b1l" x="560.6778" y="868.6992"/></g><use xlink:href="#65e067b1k" x="618.8346" y="868.6992" fill="#fff"/><use xlink:href="#65e067b1k" x="681.2346" y="868.6992" fill="#fff"/><use xlink:href="#65e067b1l" x="744.4354" y="868.6992" fill="#fff"/><use xlink:href="#65e067b1b" x="802.5922" y="868.6992" fill="#fff"/><use xlink:href="#65e067b1e" x="852.0962" y="868.6992" fill="#fff"/><use xlink:href="#65e067b1p" x="891.5226" y="868.6992" fill="#fff"/><use xlink:href="#65e067b1d" x="955.9922" y="868.6992" fill="#fff"/><use xlink:href="#65e067b1c" x="1021.6474" y="868.6992" fill="#fff"/><use xlink:href="#65e067b1e" x="1050.6218" y="868.6992" fill="#fff"/><g fill="#fff"><use xlink:href="#65e067b1j" x="1091.3586" y="868.6992"/><use xlink:href="#65e067b1g" x="1151.2626" y="868.6992"/><use xlink:href="#65e067b1e" x="1177.0546" y="868.6992"/></g><g fill="#fff"><use xlink:href="#65e067b1l" x="1213.9434" y="868.6992"/><use xlink:href="#65e067b1g" x="1274.9914" y="868.6992"/></g><use xlink:href="#65e067b1k" x="71.961" y="976.6992" fill="#fff"/><use xlink:href="#65e067b1h" x="134.8914" y="976.6992" fill="#fff"/><use xlink:href="#65e067b1b" x="187.8274" y="976.6992" fill="#fff"/><use xlink:href="#65e067b1e" x="237.3314" y="976.6992" fill="#fff"/><use xlink:href="#65e067b1c" x="277.2154" y="976.6992" fill="#fff"/><use xlink:href="#65e067b1n" x="306.8034" y="976.6992" fill="#fff"/><use xlink:href="#65e067b1c" x="359.5938" y="976.6992" fill="#fff"/><use xlink:href="#65e067b1k" x="388.3602" y="976.6992" fill="#fff"/><use xlink:href="#65e067b1h" x="451.2906" y="976.6992" fill="#fff"/><use xlink:href="#65e067b1e" x="501.2002" y="976.6992" fill="#fff"/><g fill="#fff"><use xlink:href="#65e067b1r" x="538.505" y="976.6992"/><use xlink:href="#65e067b1g" x="593.313" y="976.6992"/><use xlink:href="#65e067b1h" x="619.105" y="976.6992"/></g><use xlink:href="#65e067b1n" x="669.3994" y="976.6992" fill="#fff"/><use xlink:href="#65e067b1e" x="722.9386" y="976.6992" fill="#fff"/><use xlink:href="#65e067b1c" x="762.8226" y="976.6992" fill="#fff"/><use xlink:href="#65e067b1x" x="793.2842" y="976.6992" fill="#fff"/><use xlink:href="#65e067b1r" x="847.0002" y="976.6992" fill="#fff"/><use xlink:href="#65e067b1q" x="898.917" y="976.6992" fill="#fff"/><g fill="#fff"><use xlink:href="#65e067b1j" x="927.7354" y="976.6992"/><use xlink:href="#65e067b1g" x="987.6394" y="976.6992"/><use xlink:href="#65e067b1c" x="1013.4314" y="976.6992"/></g><g fill="#fff"><use xlink:href="#65e067b1d" x="1045.6714" y="976.6992"/><use xlink:href="#65e067b1g" x="1111.7114" y="976.6992"/><use xlink:href="#65e067b1e" x="1137.5034" y="976.6992"/></g><use xlink:href="#65e067b1m" x="1177.5538" y="976.6992" fill="#fff"/><g fill="#fff"><use xlink:href="#65e067b1r" x="1239.985" y="976.6992"/><use xlink:href="#65e067b1g" x="1294.793" y="976.6992"/></g><use xlink:href="#65e067b1v" x="337.0132" y="1084.6992" fill="#fff"/><g fill="#fff"><use xlink:href="#65e067b1l" x="381.5668" y="1084.6992"/><use xlink:href="#65e067b1n" x="440.8468" y="1084.6992"/><use xlink:href="#65e067b1c" x="493.6788" y="1084.6992"/></g><use xlink:href="#65e067b1h" x="525.9188" y="1084.6992" fill="#fff"/><use xlink:href="#65e067b1q" x="579.0316" y="1084.6992" fill="#fff"/><g fill="#fff"><use xlink:href="#65e067b1g" x="611.9996" y="1084.6992"/><use xlink:href="#65e067b1k" x="637.7916" y="1084.6992"/></g><use xlink:href="#65e067b1b" x="700.1916" y="1084.6992" fill="#fff"/><g fill="#fff"><use xlink:href="#65e067b1l" x="746.0348" y="1084.6992"/><use xlink:href="#65e067b1n" x="805.3148" y="1084.6992"/></g><use xlink:href="#65e067b1r" x="856.9716" y="1084.6992" fill="#fff"/><use xlink:href="#65e067b1v" x="909.138" y="1084.6992" fill="#fff"/><use xlink:href="#65e067b1v" x="953.8476" y="1084.6992" fill="#fff"/><use xlink:href="#65e067b1y" x="997.7148" y="1084.6992" fill="#fff"/><use xlink:href="#65e067b1z" x="619.2275" y="685.4561" fill="#c1d11a"/><g fill="#c1d11a"><use xlink:href="#65e067b1A" x="630.6655" y="685.4561"/><use xlink:href="#65e067b1B" x="634.4315" y="685.4561"/></g><use xlink:href="#65e067b1C" x="643.8927" y="685.4561" fill="#c1d11a"/><g fill="#c1d11a"><use xlink:href="#65e067b1D" x="653.0669" y="685.4561"/><use xlink:href="#65e067b1E" x="662.3209" y="685.4561"/></g><use xlink:href="#65e067b1C" x="672.3029" y="685.4561" fill="#c1d11a"/><use xlink:href="#65e067b1B" x="680.9311" y="685.4561" fill="#c1d11a"/><g fill="#c1d11a"><use xlink:href="#65e067b1A" x="690.5631" y="685.4561"/><use xlink:href="#65e067b1B" x="694.3291" y="685.4561"/></g><g fill="#c1d11a"><use xlink:href="#65e067b1F" x="703.7469" y="685.4561"/><use xlink:href="#65e067b1G" x="714.2469" y="685.4561"/></g><g fill="#c1d11a"><use xlink:href="#65e067b1D" x="726.7811" y="685.4561"/><use xlink:href="#65e067b1H" x="736.0351" y="685.4561"/></g><g fill="#c1d11a"><use xlink:href="#65e067b1z" x="648.1375" y="362.4621"/><use xlink:href="#65e067b1A" x="659.5755" y="362.4621"/><use xlink:href="#65e067b1I" x="663.3415" y="362.4621"/></g><use xlink:href="#65e067b1J" x="668.6069" y="362.4621" fill="#c1d11a"/><g fill="#c1d11a"><use xlink:href="#65e067b1J" x="678.0191" y="362.4621"/><use xlink:href="#65e067b1A" x="687.4131" y="362.4621"/><use xlink:href="#65e067b1K" x="691.1791" y="362.4621"/></g><use xlink:href="#65e067b1L" x="700.4317" y="362.4621" fill="#c1d11a"/><use xlink:href="#65e067b1M" x="708.7659" y="362.4621" fill="#c1d11a"/></svg>