<svg xmlns="http://www.w3.org/2000/svg" xmlns:xlink="http://www.w3.org/1999/xlink" viewBox="0 0 1366 768"><defs><style>.cls-1,.cls-3{fill:none;}.cls-2{clip-path:url(#clip-path);}.cls-3{stroke:#9b9a99;stroke-miterlimit:10;}.cls-4{fill:#fff;}</style><clipPath id="clip-path"><rect class="cls-1" x="-60.69" y="17" width="1308.88" height="654.44"/></clipPath></defs><g id="Layer_1" data-name="Layer 1"><rect width="1366" height="768"/><g class="cls-2"><rect class="cls-3" x="-71.14" y="7.46" width="1327.06" height="672.62"/></g><path class="cls-4" d="M212.36,89c0,11.27-6.4,19.64-16.29,19.64-7.85,0-13.09-5.09-15-12.22v11.34h-1.24V55.44h1.31v26c2-7.05,7.35-12.07,15.12-12.07C206.1,69.33,212.36,77.76,212.36,89Zm-1.31,0c0-10.54-5.82-18.39-14.84-18.39-9.52,0-15.12,8.22-15.12,17.52v1.6c0,9.24,5.53,17.6,15,17.6C205.16,107.36,211.05,99.5,211.05,89Z"/><path class="cls-4" d="M248.42,82.34v25.45h-1.23V98.2c-2.18,6.68-7.93,10.47-14.91,10.47-8,0-12.65-5-12.65-10.84s3.78-10,11.63-10.83l15.86-1.82V82.42c0-7.27-4.15-11.78-11.35-11.78S223.49,74,222.39,81.76H221c1-8.14,6.4-12.43,14.69-12.43S248.42,74.35,248.42,82.34Zm-1.3,9.6V86.49l-15.78,1.82c-7.13.8-10.4,4.58-10.4,9.59,0,5.17,4.29,9.46,11.34,9.46C241.08,107.36,247.12,100.74,247.12,91.94Z"/><path class="cls-4" d="M290.74,55.44v52.35h-1.23V96.23c-1.89,7.27-7.13,12.44-15.05,12.44-10,0-16.29-8.37-16.29-19.64s6.18-19.7,16.14-19.7c7.85,0,13.16,5.16,15.12,12.29V55.44Zm-1.31,34.32v-1.6c0-9.3-5.59-17.52-15.12-17.52-9,0-14.83,7.85-14.83,18.39s5.89,18.33,15,18.33C283.91,107.36,289.43,99,289.43,89.76Z"/><path class="cls-4" d="M377.05,84.09v23.7h-1.31V84.16c0-8.72-4.14-13.52-11.7-13.52-8.51,0-13.53,5.74-13.53,16.14v21h-1.3V84.16c0-8.5-4-13.52-12-13.52-7.78,0-13.31,5.74-13.31,16.14v21h-1.31V70.2h1.24v9.46c2-6.19,6.54-10.33,13.45-10.33s11.78,3.85,12.94,11c1.67-6.69,6.18-11,13.82-11C372.18,69.33,377.05,74.49,377.05,84.09Z"/><path class="cls-4" d="M418.79,89.54H388.11c.15,10,5.6,17.82,15.63,17.82a12.92,12.92,0,0,0,13-10.55h1.45c-1.67,6.48-6.25,11.86-14.54,11.86-10.91,0-16.87-8.66-16.87-19.56,0-11.42,6.18-19.78,16.14-19.78,10.26,0,15.85,7.78,15.85,18.83Zm-1.31-1.31c0-10.83-5.45-17.59-14.54-17.59-8.87,0-14.54,7.34-14.83,17.59Z"/><path class="cls-4" d="M483.14,84.09v23.7h-1.31V84.16c0-8.72-4.14-13.52-11.7-13.52-8.51,0-13.53,5.74-13.53,16.14v21h-1.3V84.16c0-8.5-4-13.52-12-13.52-7.78,0-13.31,5.74-13.31,16.14v21h-1.31V70.2h1.24v9.46c2-6.19,6.54-10.33,13.45-10.33s11.78,3.85,12.94,11c1.68-6.69,6.18-11,13.82-11C478.27,69.33,483.14,74.49,483.14,84.09Z"/><path class="cls-4" d="M492.89,89c0-11.19,6-19.7,16.36-19.7s16.29,8.51,16.29,19.7-6,19.64-16.22,19.64S492.89,100.23,492.89,89Zm31.34,0c0-10.47-5.45-18.39-15-18.39S494.2,78.56,494.2,89s5.6,18.33,15.12,18.33C518.56,107.36,524.23,99.5,524.23,89Z"/><path class="cls-4" d="M549.46,69.84v1.31a10.08,10.08,0,0,0-1.38-.07c-6,0-11,5.45-11,14.9v21.81h-1.31V70.2H537v9.24c1.16-5.17,5.45-9.67,11.41-9.67A6.48,6.48,0,0,1,549.46,69.84Z"/><path class="cls-4" d="M585.89,70.2l-25.52,51.26h-1.45l8.65-17.08-15-34.18H554L568.37,103,584.51,70.2Z"/><path class="cls-4" d="M724.33,166.45V190h-2.18V166.67c0-8.51-4.07-13.09-11.19-13.09-7.86,0-12.8,5.31-12.8,15V190H696V166.67c0-8.29-4-13.09-11.49-13.09-7.27,0-12.65,5.31-12.65,15V190h-2.11V152.42h2v8.36c2-5.6,6.54-9.23,13-9.23s11.27,3.41,12.8,9.81c1.89-6,6.4-9.81,13.52-9.81C719.32,151.55,724.33,156.78,724.33,166.45Z"/><path class="cls-4" d="M762.73,164.56V190h-2v-8.36c-2.55,6-7.86,9.23-14.4,9.23-7.93,0-12.8-4.87-12.8-10.9s3.93-10,11.85-10.91l15.27-1.74v-2.77c0-6.91-4.07-11.05-10.9-11.05s-11.64,3.13-12.66,10.47h-2.25c1-8.14,6.54-12.43,14.83-12.43S762.73,156.35,762.73,164.56Zm-2.18,9.82v-5.17l-15,1.75c-6.76.73-9.81,4.29-9.81,9s4.07,8.94,10.68,8.94C754.88,188.92,760.55,182.74,760.55,174.38Z"/><path class="cls-4" d="M802.58,152.42V190h-2v-8.58c-2,5.89-6.47,9.45-13.08,9.45-9.38,0-13.17-5.81-13.17-14v-24.5h2.19v24.43c0,7,3.19,12,11.34,12,7.78,0,12.65-6.11,12.65-14.84V152.42Z"/><path class="cls-4" d="M843.08,152.42,828,190h-2l-15.49-37.59h2.26L826.94,187l13.89-34.54Z"/><path class="cls-4" d="M877.54,164.56V190h-2v-8.36c-2.55,6-7.85,9.23-14.4,9.23-7.92,0-12.79-4.87-12.79-10.9s3.92-10,11.85-10.91l15.27-1.74v-2.77c0-6.91-4.07-11.05-10.91-11.05S852.9,156.64,851.88,164h-2.26c1-8.14,6.55-12.43,14.84-12.43S877.54,156.35,877.54,164.56Zm-2.18,9.82v-5.17l-15,1.75c-6.77.73-9.82,4.29-9.82,9s4.07,8.94,10.69,8.94C869.69,188.92,875.36,182.74,875.36,174.38Z"/><path class="cls-4" d="M888.53,141.8a2.38,2.38,0,0,1,2.47-2.39,2.31,2.31,0,0,1,2.33,2.39,2.43,2.43,0,0,1-2.33,2.48A2.5,2.5,0,0,1,888.53,141.8Zm1.31,10.62h2.1V190h-2.1Z"/><path class="cls-4" d="M901.83,179H904c1.1,6.62,5.68,9.89,13,9.89s11.85-2.91,11.85-8.14c0-4.58-2.84-6.77-9.09-8.07L911.72,171c-6.4-1.38-9.3-3.92-9.3-9.16,0-5.89,4.79-10.32,13.3-10.32s13.67,4,14.54,12.43H928c-.8-7.13-5-10.47-12.29-10.47s-11.2,3.49-11.2,8.29c0,4,2,6,7.86,7.27l8.21,1.67c7.27,1.46,10.4,4.36,10.4,9.89,0,6.4-5.16,10.25-14,10.25S903,186.81,901.83,179Z"/><path class="cls-4" d="M970.47,172.05H940.23c.21,9.67,5.6,16.8,14.9,16.8A12.34,12.34,0,0,0,967.64,179H970c-1.67,6.47-6.32,11.85-14.76,11.85-11.05,0-17.08-8.43-17.08-19.48,0-11.64,6.4-19.85,16.36-19.85,10.39,0,16.07,7.7,16.07,19Zm-2.18-2c-.07-10.4-5.31-16.51-13.81-16.51-8.29,0-13.82,6.62-14.25,16.51Z"/><path class="cls-4" d="M1053.66,166.45V190h-2.19V166.67c0-8.51-4.07-13.09-11.19-13.09-7.86,0-12.8,5.31-12.8,15V190h-2.18V166.67c0-8.29-4-13.09-11.49-13.09-7.27,0-12.65,5.31-12.65,15V190h-2.11V152.42h2v8.36c2-5.6,6.54-9.23,13-9.23s11.27,3.41,12.8,9.81c1.89-6,6.4-9.81,13.52-9.81C1048.64,151.55,1053.66,156.78,1053.66,166.45Z"/><path class="cls-4" d="M1095.54,172.05h-30.25c.22,9.67,5.6,16.8,14.91,16.8a12.34,12.34,0,0,0,12.51-9.82H1095c-1.67,6.47-6.32,11.85-14.76,11.85-11,0-17.08-8.43-17.08-19.48,0-11.64,6.39-19.85,16.36-19.85,10.39,0,16.06,7.7,16.06,19Zm-2.18-2c-.07-10.4-5.31-16.51-13.81-16.51-8.29,0-13.82,6.62-14.26,16.51Zm-12.58-23.78h-2.32l7.48-11.34h2.55Z"/><path class="cls-4" d="M1159.89,166.45V190h-2.18V166.67c0-8.51-4.07-13.09-11.2-13.09-7.85,0-12.79,5.31-12.79,15V190h-2.18V166.67c0-8.29-4-13.09-11.49-13.09-7.27,0-12.65,5.31-12.65,15V190h-2.11V152.42h2v8.36c2-5.6,6.55-9.23,13-9.23s11.27,3.41,12.8,9.81c1.89-6,6.39-9.81,13.52-9.81C1154.88,151.55,1159.89,156.78,1159.89,166.45Z"/><path class="cls-4" d="M1169.42,171.25c0-11.27,6.18-19.7,16.58-19.7s16.5,8.36,16.5,19.7-6.18,19.63-16.43,19.63C1175.6,190.88,1169.42,182.52,1169.42,171.25Zm31,0c0-10.11-5.31-17.67-14.4-17.67s-14.47,7.56-14.47,17.67,5.38,17.6,14.54,17.6C1194.94,188.85,1200.4,181.36,1200.4,171.25Z"/><path class="cls-4" d="M1211.45,141.8a2.38,2.38,0,0,1,2.47-2.39,2.31,2.31,0,0,1,2.33,2.39,2.43,2.43,0,0,1-2.33,2.48A2.5,2.5,0,0,1,1211.45,141.8Zm1.31,10.62h2.11V190h-2.11Z"/><path class="cls-4" d="M1241.92,152.13v2a10.33,10.33,0,0,0-1.53-.08c-6,0-10.69,5.24-10.69,14V190h-2.11V152.42h2v8.43c1.3-4.87,5.3-8.87,11-8.87A4.41,4.41,0,0,1,1241.92,152.13Z"/><path class="cls-4" d="M1279.29,172.05H1249c.22,9.67,5.6,16.8,14.91,16.8a12.33,12.33,0,0,0,12.5-9.82h2.33c-1.67,6.47-6.32,11.85-14.76,11.85-11,0-17.09-8.43-17.09-19.48,0-11.64,6.4-19.85,16.36-19.85,10.4,0,16.07,7.7,16.07,19Zm-2.18-2c-.07-10.4-5.31-16.51-13.82-16.51-8.29,0-13.81,6.62-14.25,16.51Z"/><path class="cls-4" d="M629.92,166.53,608,190.74h-2.62l21.08-23.2H585.28v-2H626.5l-21.08-23.2H608Z"/><path class="cls-4" d="M663.6,86v2.61l-24.21,21.89L615.17,88.63V86l23.2,21.08V59.55h2V107.1Z"/><path class="cls-4" d="M138.56,107.79H89.19V58.42h49.37Z"/><path class="cls-4" d="M363.79,618.79H305.92L335,568.62Zm-54.31-2.11h50.75L335,572.55Z"/><path class="cls-4" d="M437.94,594.22a25.52,25.52,0,1,1-25.6-25.6A25.52,25.52,0,0,1,437.94,594.22Zm-1.89,0a23.63,23.63,0,1,0-23.71,23.56A23.63,23.63,0,0,0,436.05,594.22Zm-9.24.22h1.53c-.65,9.3-6.54,15.77-16,15.77s-15.34-6.47-16-15.77h1.53c.87,8.58,6.18,13.88,14.46,13.88S425.94,603,426.81,594.44Zm-22.9-8.58c0-3.49.95-5.17,2.25-5.17s2,1.68,2,5.17c0,3.27-.73,5-2,5S403.91,589.13,403.91,585.86Zm12.65,0c0-3.49.73-5.17,2-5.17s2.25,1.68,2.25,5.17c0,3.27-.87,5-2.25,5S416.56,589.13,416.56,585.86Z"/><path class="cls-4" d="M834.56,619.79H785.19V570.42h49.37Z"/><path class="cls-4" d="M910.94,595.22a25.52,25.52,0,1,1-25.6-25.6A25.52,25.52,0,0,1,910.94,595.22Z"/><path class="cls-4" d="M1056.79,618.79H998.92L1028,568.62Zm-54.31-2.11h50.75L1028,572.55Z"/><path class="cls-4" d="M613.79,618.79H555.92L585,568.62Zm-54.31-2.11h50.75L585,572.55Z"/><path class="cls-4" d="M694.79,618.79H636.92L666,568.62Zm-54.31-2.11h50.75L666,572.55Z"/><path class="cls-4" d="M1276.79,618.79h-57.87L1248,568.62Zm-54.31-2.11h50.75L1248,572.55Z"/><path class="cls-4" d="M795.63,535.64l31.26.15-1.82,1.89-32.57-.3-.29-32.57L794.1,503l.14,31.27,35.27-35.41L831,500.3Z"/><path class="cls-4" d="M328.58,534.64l31.27.15L358,536.68l-32.57-.3-.3-32.57,1.89-1.82.15,31.27,35.26-35.41,1.46,1.45Z"/><path class="cls-4" d="M265.16,534.64l31.26.15-1.82,1.89-32.57-.3-.29-32.57,1.89-1.82.14,31.27L299,497.85l1.45,1.45Z"/><path class="cls-4" d="M132.54,534.64l31.26.15L162,536.68l-32.58-.3-.29-32.57L131,502l.15,31.27,35.26-35.41,1.46,1.45Z"/><path class="cls-4" d="M197.89,534.64l31.26.15-1.82,1.89-32.57-.3-.29-32.57,1.89-1.82.14,31.27,35.27-35.41,1.45,1.45Z"/><path class="cls-4" d="M580.51,274l-.07-31.26-35,35-1.39-1.45,35-35-31.34-.15,1.89-1.89,32.5.29.29,32.58Z"/><path class="cls-4" d="M807.43,449.3l-34.9-35.05-.14,31.27-1.89-1.82.29-32.58,32.57-.29,1.82,1.89-31.27.15,35,35Z"/><path class="cls-4" d="M716.13,336.71l-23.19-21.09v47.55h-2V315.62l-23.19,21.09v-2.62l24.21-21.89,24.21,21.89Z"/><path class="cls-4" d="M1193.74,336.71l-23.19-21.09v47.55h-2V315.62l-23.19,21.09v-2.62l24.21-21.89,24.21,21.89Z"/><path class="cls-4" d="M1262,336.71l-23.2-21.09v47.55h-2V315.62l-23.2,21.09v-2.62l24.21-21.89L1262,334.09Z"/><path class="cls-4" d="M625,266.3h5.74c1,4.8,4.22,7.13,10.18,7.13s9.09-2.26,9.09-5.82c0-3.13-1.6-5.09-6.54-6l-8-1.45c-6.61-1.24-9.89-4.51-9.89-10.18,0-6,5.09-11.2,14-11.2,9.16,0,14.46,4.58,15.41,12.43h-5.89c-.73-5.23-3.93-7.71-9.67-7.71-5.38,0-8.29,2.7-8.29,6,0,2.84,1.46,4.65,6.11,5.45l7.85,1.38c7.56,1.31,10.54,5.17,10.54,10.55,0,6.32-4.5,11.19-14.9,11.19C630.62,278.15,626,273.21,625,266.3Z"/><path class="cls-4" d="M662,258.38c0-12.14,7.34-19.56,17.6-19.56,9.88,0,15.19,5.45,16.21,13.74h-6c-1-5.52-4.36-8.58-10.17-8.58-7.27,0-11.78,5.6-11.78,14.4S672.29,273,679.56,273c5.74,0,9.16-3.05,10.17-8.51h6c-1.09,8.22-6.4,13.67-16.21,13.67C669.3,278.15,662,270.67,662,258.38Z"/><path class="cls-4" d="M735.18,254.38v22.9h-5.74V255c0-7.27-3.78-11-9.24-11s-9.74,4-9.74,11.93v21.3h-5.82V224.93h5.82v20a12.49,12.49,0,0,1,11.2-6.11C729.73,238.82,735.18,244.42,735.18,254.38Z"/><path class="cls-4" d="M751.91,277.28h-5.82V224.93h5.82Z"/><path class="cls-4" d="M795.17,260.63H766.81c.59,8.22,5.53,12.36,11.78,12.36,5.6,0,8.87-2.76,10-6.69h6c-1.45,6.47-6.54,11.85-15.63,11.85-11.42,0-18.11-7.63-18.11-19.26,0-12.58,7.64-20.07,17.45-20.07,11.2,0,16.87,7.56,16.87,20A17.18,17.18,0,0,1,795.17,260.63Zm-6-4.94c-.51-8.29-4.8-11.85-10.84-11.85S767.9,247.76,767,255.69Z"/><path class="cls-4" d="M801.72,258.38c0-12.14,7.34-19.56,17.59-19.56,9.89,0,15.2,5.45,16.22,13.74h-6c-1-5.52-4.36-8.58-10.18-8.58-7.27,0-11.78,5.6-11.78,14.4S812,273,819.31,273c5.75,0,9.16-3.05,10.18-8.51h6c-1.09,8.22-6.4,13.67-16.22,13.67C809.06,278.15,801.72,270.67,801.72,258.38Z"/><path class="cls-4" d="M874.94,254.38v22.9h-5.75V255c0-7.27-3.78-11-9.23-11-5.6,0-9.74,4-9.74,11.93v21.3H844.4V224.93h5.82v20a12.48,12.48,0,0,1,11.19-6.11C869.49,238.82,874.94,244.42,874.94,254.38Z"/><path class="cls-4" d="M893.77,244.78v21.81c0,4.15,2,5.89,5.09,5.89a12.26,12.26,0,0,0,3.13-.29v5a14.35,14.35,0,0,1-4.07.51c-6.26,0-10-3.71-10-10.55V244.78h-6.33v-5.09H888V229.08h5.81v10.61H902v5.09Z"/><path class="cls-4" d="M941.91,260.63H913.55c.58,8.22,5.53,12.36,11.78,12.36,5.6,0,8.87-2.76,10-6.69h6c-1.45,6.47-6.54,11.85-15.63,11.85-11.42,0-18.11-7.63-18.11-19.26,0-12.58,7.64-20.07,17.45-20.07,11.2,0,16.87,7.56,16.87,20A17.18,17.18,0,0,1,941.91,260.63Zm-6-4.94c-.51-8.29-4.8-11.85-10.84-11.85s-10.47,3.92-11.41,11.85Z"/><path class="cls-4" d="M975.72,233.15v16.28h24.94v5.17H975.72v17.45h28v5.23h-34.1V227.91h34.1v5.24Z"/><path class="cls-4" d="M1030.11,239.55v5.38a14.35,14.35,0,0,0-2-.08c-6.25,0-9.31,4.22-9.31,10.33v22.1H1013V239.69h5.6v5.75c1.46-3.79,4.58-6.19,9.46-6.19A7.18,7.18,0,0,1,1030.11,239.55Z"/><path class="cls-4" d="M1036.08,228.93a4.18,4.18,0,0,1,8.36,0,4.18,4.18,0,0,1-8.36,0Zm1.3,10.76h5.75v37.59h-5.75Z"/><path class="cls-4" d="M1084.94,254.31v23h-5.82v-22c0-7.49-3.34-11.34-9.09-11.34s-9.81,3.93-9.81,11.63v21.67h-5.82V239.69h5.6v5.16c2.25-3.92,5.89-6,11.19-6C1079.41,238.82,1084.94,244.27,1084.94,254.31Z"/><path class="cls-4" d="M1126.17,254.31v23h-5.82v-22c0-7.49-3.35-11.34-9.09-11.34s-9.82,3.93-9.82,11.63v21.67h-5.81V239.69h5.6v5.16c2.25-3.92,5.89-6,11.19-6C1120.64,238.82,1126.17,244.27,1126.17,254.31Z"/><path class="cls-4" d="M1168.85,260.63h-28.36c.58,8.22,5.53,12.36,11.78,12.36,5.6,0,8.87-2.76,10-6.69h6c-1.46,6.47-6.55,11.85-15.63,11.85-11.42,0-18.11-7.63-18.11-19.26,0-12.58,7.64-20.07,17.45-20.07,11.2,0,16.87,7.56,16.87,20A17.18,17.18,0,0,1,1168.85,260.63Zm-6-4.94c-.51-8.29-4.8-11.85-10.84-11.85-5.89,0-10.47,3.92-11.41,11.85Z"/><path class="cls-4" d="M1194.74,239.55v5.38a14.58,14.58,0,0,0-2-.08c-6.25,0-9.3,4.22-9.3,10.33v22.1h-5.82V239.69h5.6v5.75c1.45-3.79,4.58-6.19,9.45-6.19A7.24,7.24,0,0,1,1194.74,239.55Z"/><path class="cls-4" d="M1231.31,239.69v37.59h-5.45v-5.09c-2.26,3.78-6.11,6-11.71,6-7.93,0-12.72-4.79-12.72-13.81V239.69h5.81V263.9c0,6,3,9.16,8.22,9.16,6.4,0,10-4.43,10-11.41v-22Z"/><path class="cls-4" d="M1272.9,254.31v23h-5.81v-22c0-7.49-3.35-11.34-9.09-11.34s-9.82,3.93-9.82,11.63v21.67h-5.82V239.69h5.6v5.16c2.26-3.92,5.89-6,11.2-6C1267.38,238.82,1272.9,244.27,1272.9,254.31Z"/><path class="cls-4" d="M1316.31,239.69v35.92c0,9.16-5.09,16.21-17.23,16.21s-16.87-5.89-17.3-13.3h6c.43,5.23,4.22,8.29,11.34,8.29s11.49-3.71,11.49-10.69v-7.64a14.41,14.41,0,0,1-12.73,7.06c-9.23,0-16.5-7.06-16.5-18.25s7.12-18.47,16.29-18.47c6,0,10.47,2.62,13.08,7.12v-6.25Zm-5.74,17.6c0-8.22-5-13.31-11.78-13.31-7.2,0-11.85,5.09-11.85,13.31s5.09,13.08,11.85,13.08C1305.77,270.37,1310.57,265.07,1310.57,257.29Z"/><path class="cls-4" d="M145,166.67V190h-3.2V167c0-8.14-4.07-12.43-10.69-12.43-7,0-11.92,4.8-11.92,13.59V190H116V167c0-8-4-12.43-10.83-12.43-6.62,0-11.78,4.8-11.78,13.59V190H90.2V152.42h3v7.27a12.94,12.94,0,0,1,12.51-8.14c6.18,0,10.69,3,12.58,8.72,2.1-5.38,6.61-8.72,13.23-8.72C139.79,151.55,145,156.93,145,166.67Z"/><path class="cls-4" d="M183.71,164.56V190h-3v-7.34a14.89,14.89,0,0,1-13.89,8.21c-7.71,0-12.8-4.8-12.8-11s4-10.18,12-11.05l14.54-1.6v-2.76c0-6.54-3.93-10.11-10.33-10.11s-10.83,2.84-11.77,9.6h-3.27c1-8.22,6.61-12.43,15-12.43S183.71,156.13,183.71,164.56Zm-3.2,10v-4.8l-14,1.67c-6.47.73-9.16,4-9.16,8.43s3.78,8.15,10,8.15C175.27,188.05,180.51,182.45,180.51,174.6Z"/><path class="cls-4" d="M198.83,190h-3.2V137.66h3.2Z"/><path class="cls-4" d="M238.17,164.56V190h-3v-7.34a14.89,14.89,0,0,1-13.89,8.21c-7.71,0-12.8-4.8-12.8-11s4-10.18,12-11.05l14.54-1.6v-2.76c0-6.54-3.92-10.11-10.32-10.11-6.55,0-10.84,2.84-11.78,9.6h-3.27c1-8.22,6.61-12.43,15-12.43S238.17,156.13,238.17,164.56Zm-3.2,10v-4.8l-14,1.67c-6.47.73-9.16,4-9.16,8.43s3.78,8.15,10,8.15C229.74,188.05,235,182.45,235,174.6Z"/><path class="cls-4" d="M323.17,166.67V190H320V167c0-8.14-4.07-12.43-10.69-12.43-7,0-11.92,4.8-11.92,13.59V190h-3.2V167c0-8-4-12.43-10.83-12.43-6.62,0-11.78,4.8-11.78,13.59V190h-3.2V152.42h3v7.27a12.94,12.94,0,0,1,12.51-8.14c6.18,0,10.69,3,12.58,8.72,2.1-5.38,6.61-8.72,13.23-8.72C317.94,151.55,323.17,156.93,323.17,166.67Z"/><path class="cls-4" d="M365.35,172.41H335.61c.36,9.31,5.6,15.56,14,15.56,6.33,0,10.47-3.78,11.78-8.94h3.34c-1.59,6.47-6.39,11.85-15,11.85-11.13,0-17.38-8.21-17.38-19.41,0-11.93,6.76-19.92,16.65-19.92,10.69,0,16.29,7.7,16.29,19.34Zm-3.27-2.83c-.22-9.74-5.17-15.12-13-15.12-7.49,0-12.8,5.74-13.38,15.12Z"/><path class="cls-4" d="M429.55,166.67V190h-3.2V167c0-8.14-4.07-12.43-10.68-12.43-7.06,0-11.93,4.8-11.93,13.59V190h-3.2V167c0-8-4-12.43-10.83-12.43-6.62,0-11.78,4.8-11.78,13.59V190h-3.2V152.42h3v7.27a12.94,12.94,0,0,1,12.51-8.14c6.18,0,10.69,3,12.58,8.72,2.11-5.38,6.61-8.72,13.23-8.72C424.32,151.55,429.55,156.93,429.55,166.67Z"/><path class="cls-4" d="M438.79,171.25c0-11.41,6.33-19.7,16.87-19.7s16.87,8.29,16.87,19.7-6.4,19.63-16.8,19.63S438.79,182.67,438.79,171.25Zm30.54,0c0-9.6-5-16.79-13.67-16.79S442,161.65,442,171.25,447.08,188,455.73,188C464.17,188,469.33,180.85,469.33,171.25Z"/><path class="cls-4" d="M497.25,152.13v3.05a12.78,12.78,0,0,0-1.67-.07c-6.11,0-10.25,4.94-10.25,12.94v22h-3.2V152.42h3.05v7.49c1.46-4.51,5.16-7.93,10.54-7.93A5.8,5.8,0,0,1,497.25,152.13Z"/><path class="cls-4" d="M503.51,141.8a2.89,2.89,0,0,1,2.91-3,2.93,2.93,0,0,1,2.9,3,3,3,0,0,1-2.9,2.91A2.91,2.91,0,0,1,503.51,141.8Zm1.31,10.62H508V190h-3.19Z"/><path class="cls-4" d="M547.35,164.56V190h-3v-7.34a14.89,14.89,0,0,1-13.89,8.21c-7.7,0-12.79-4.8-12.79-11s4-10.18,12-11.05l14.54-1.6v-2.76c0-6.54-3.92-10.11-10.32-10.11s-10.83,2.84-11.78,9.6h-3.27c1-8.22,6.62-12.43,15-12.43S547.35,156.13,547.35,164.56Zm-3.2,10v-4.8l-14,1.67c-6.47.73-9.16,4-9.16,8.43s3.78,8.15,10,8.15C538.92,188.05,544.15,182.45,544.15,174.6Z"/><path class="cls-4" d="M220.9,351.85H228c.87,4.28,3.91,6.39,9.33,6.39s8.25-2.11,8.25-5.3c0-2.77-1.52-4.51-5.86-5.31l-8-1.46c-7-1.3-10.2-4.72-10.2-10.39,0-6.18,5.14-11.42,14.54-11.42S251,329.09,252,336.79h-7.17q-1.08-7-8.9-7c-4.92,0-7.53,2.48-7.53,5.46,0,2.54,1.3,4.14,5.65,4.94l7.81,1.38c7.82,1.31,10.79,5.17,10.79,10.69,0,6.33-4.71,11.42-15.42,11.42C226.76,363.7,222,358.83,220.9,351.85Z"/><path class="cls-4" d="M267.65,362.82h-7.24V310.47h7.24Z"/><path class="cls-4" d="M275.75,352.43c0-6.47,4.13-10.47,12.74-11.42l12.16-1.23v-2.4c0-4.8-2.82-7.35-8.18-7.35-5,0-8,2.18-8.61,6.76h-7.24c.87-7.63,6.44-12.43,15.71-12.43,6.15,0,10.64,1.75,13.17,5.67a16.73,16.73,0,0,1,12.74-5.67c10.85,0,17.44,7.05,17.44,20.07a19,19,0,0,1-.07,2H307.82c.72,7.64,4.77,11.34,11.07,11.34,4.56,0,7.74-2.32,8.83-5.88H335c-1.45,6.54-7,11.85-16.07,11.85-6.95,0-11.87-2.77-15-7.35-3,4.8-7.53,7.35-14.91,7.35C281.33,363.7,275.75,359,275.75,352.43Zm24.76-4.37v-3.49L290,346c-4.92.58-6.8,3.05-6.8,6.32s2.75,5.89,7.31,5.89C296.89,358.17,300.51,354.1,300.51,348.06Zm27.79-7.12c-.51-7.27-4.13-10.69-10.06-10.69-5.07,0-9.34,3.49-10.28,10.69Z"/><path class="cls-4" d="M399.51,339.7v23.12h-7.23v-22c0-6.69-3.55-10-8.33-10s-8.83,3.27-8.83,9.38v22.68H368v-22c0-6.69-3.62-10-8.4-10s-8.75,3.2-8.75,9.38v22.68h-7.24V325.23h6.73v5c2.39-3.78,6.3-5.89,11.29-5.89,5.28,0,9.48,2.47,11.72,6.84a13.66,13.66,0,0,1,12.38-6.84C393.94,324.36,399.51,330,399.51,339.7Z"/><path class="cls-4" d="M418.91,331.41v19.85c0,3.93,1.88,5.67,5,5.67a12.14,12.14,0,0,0,3.11-.29v6.11a17.59,17.59,0,0,1-4.56.51c-7,0-10.79-4.14-10.79-11.41V331.41H405.6v-6.18h6.07V314.62h7.24v10.61H427v6.18Z"/><path class="cls-4" d="M507.42,339.7v23.12h-7.23v-22c0-6.69-3.55-10-8.33-10S483,334,483,340.14v22.68h-7.16v-22c0-6.69-3.62-10-8.4-10s-8.75,3.2-8.75,9.38v22.68h-7.24V325.23h6.73v5c2.39-3.78,6.3-5.89,11.29-5.89,5.28,0,9.48,2.47,11.72,6.84a13.66,13.66,0,0,1,12.38-6.84C501.85,324.36,507.42,330,507.42,339.7Z"/><path class="cls-4" d="M516,314.33a4.78,4.78,0,1,1,4.85,4.72A4.73,4.73,0,0,1,516,314.33Zm1.23,10.9h7.09v37.59h-7.09Z"/><path class="cls-4" d="M566.41,339.56v23.26h-7.24V341c0-7-3.11-10.4-8.39-10.4s-9,3.57-9,10.62v21.59h-7.23V325.23h6.73v5.17c2.31-4,6.08-6,11.36-6C560.76,324.36,566.41,329.52,566.41,339.56Z"/><path class="cls-4" d="M607.88,339.56v23.26h-7.24V341c0-7-3.11-10.4-8.39-10.4s-9,3.57-9,10.62v21.59H576V325.23h6.73v5.17c2.31-4,6.08-6,11.36-6C602.24,324.36,607.88,329.52,607.88,339.56Z"/><path class="cls-4" d="M616.5,314.33a4.78,4.78,0,1,1,4.84,4.72A4.72,4.72,0,0,1,616.5,314.33Zm1.23,10.9h7.09v37.59h-7.09Z"/><path class="cls-4" d="M784.35,362.67,763,338.09v24.58h-9V313.3h9v20.5l21.3-20.5H795l-23,22.4,23.12,27Z"/><path class="cls-4" d="M798.1,344c0-12.07,7.92-19.77,18.68-19.77s18.69,7.7,18.69,19.7-7.85,19.63-18.61,19.63S798.1,355.91,798.1,344Zm6.47-30.46a5.13,5.13,0,1,1,5.16,5.09A5.12,5.12,0,0,1,804.57,313.52Zm22.1,30.39c0-7.56-3.63-12.58-9.89-12.58s-10,5-10,12.65c0,7.42,3.71,12.44,10,12.44S826.67,351.4,826.67,343.91Zm-7.85-30.39a5.09,5.09,0,0,1,10.18,0,5.11,5.11,0,0,1-5.09,5.09A5.06,5.06,0,0,1,818.82,313.52Z"/><path class="cls-4" d="M853.94,332.28v18c0,3.78,1.75,5.45,4.94,5.45a16.64,16.64,0,0,0,3.06-.22v7.13a21.08,21.08,0,0,1-5,.51c-7.92,0-11.63-4.51-11.63-12.36V332.28h-6v-7.2h6V314.46h8.65v10.62h8v7.2Z"/><path class="cls-4" d="M901,325.08v37.59h-7.85v-5.45a12.92,12.92,0,0,1-11.63,6.32c-8.29,0-13.16-4.87-13.16-13.81V325.08H877v23.56c0,4.87,2.4,7.63,6.91,7.63,5.16,0,8.43-3.63,8.43-9.23v-22Zm-28.64-11.56a5.13,5.13,0,1,1,5.16,5.09A5.11,5.11,0,0,1,872.34,313.52Zm14.25,0a5.09,5.09,0,0,1,10.18,0,5.11,5.11,0,0,1-5.09,5.09A5.06,5.06,0,0,1,886.59,313.52Z"/><path class="cls-4" d="M964,343.91c0,12.36-7.86,19.63-16.87,19.63a13.58,13.58,0,0,1-12.36-7.05v6.18h-8V310.32h8.65v19.85c2.55-3.78,6.55-6,12.07-6C956.54,324.21,964,331.48,964,343.91Zm-8.8,0c0-7.63-3.85-12.65-9.89-12.65-5.74,0-9.89,5.09-9.89,12.65,0,7.85,4.15,12.58,9.89,12.58S955.23,351.55,955.23,343.91Z"/><path class="cls-4" d="M1005.18,344.35c0,1.23-.07,2.11-.07,2.11H977.55c.73,7.19,4.66,10.32,10,10.32,4.51,0,7.12-2,8.14-5.09h8.73c-1.6,6.62-7.42,11.85-16.8,11.85-11.85,0-18.69-7.92-18.69-19.34,0-12.14,7.57-20,18.33-20C998.86,324.21,1005.33,332.21,1005.18,344.35Zm-8.87-3.78c-.36-6.4-3.78-9.67-8.94-9.67-4.87,0-8.65,3.2-9.6,9.67Z"/><path class="cls-4" d="M1021,362.67h-8.66V310.32H1021Z"/><path class="cls-4" d="M1039,362.67h-8.66V310.32H1039Z"/><path class="cls-4" d="M1082.33,344.35c0,1.23-.07,2.11-.07,2.11H1054.7c.73,7.19,4.66,10.32,10,10.32,4.5,0,7.12-2,8.14-5.09h8.72c-1.6,6.62-7.41,11.85-16.79,11.85-11.85,0-18.69-7.92-18.69-19.34,0-12.14,7.56-20,18.33-20C1076,324.21,1082.48,332.21,1082.33,344.35Zm-8.87-3.78c-.36-6.4-3.78-9.67-8.94-9.67-4.87,0-8.65,3.2-9.6,9.67Z"/><path class="cls-4" d="M1113.82,362.67,1098,344.06v18.61h-8.65V310.32H1098v29.37l15.27-14.61h9.6L1106,341.66l17.74,21Z"/><path class="cls-4" d="M52.73,266.42h4.94c1,5.24,4.58,7.78,10.84,7.78s9.74-2.4,9.74-6.4c0-3.41-1.89-5.45-7.13-6.39l-8-1.53c-6.62-1.24-9.82-4.36-9.82-10,0-6,5-11,13.89-11s14.25,4.44,15.19,12.43h-5c-.73-5.67-4.22-8.36-10.33-8.36-5.81,0-8.94,2.91-8.94,6.54,0,3.13,1.6,5,6.54,5.89l7.93,1.46c7.49,1.38,10.54,4.94,10.54,10.4,0,6.32-4.73,11-14.76,11C58.54,278.27,53.75,273.55,52.73,266.42Zm4.07-44.06h4.73l5.74,7.78,6-7.78h4.88l-8.36,11.2h-5Z"/><path class="cls-4" d="M126.46,258.64c0,11.93-7.13,19.63-16.51,19.63-6.18,0-10.61-3.34-13.08-8.36v21.16h-5V239.81h4.8v7.64c2.4-5.24,6.76-8.51,13.52-8.51C119.48,238.94,126.46,246.87,126.46,258.64Zm-4.95,0c0-9.16-4.65-15.41-12.28-15.41-7.13,0-12.36,6.47-12.36,15.27v.29c0,9.16,5.16,15.12,12.36,15.12S121.51,267.8,121.51,258.64Z"/><path class="cls-4" d="M163.69,252V277.4H159v-5.89a14.57,14.57,0,0,1-12.95,6.76c-7.34,0-12.94-4.65-12.94-11.12s4.22-10.4,12.36-11.27l13.23-1.45v-2.62c0-5.89-3.63-8.58-9.3-8.58s-9.53,2.4-10.33,8.14h-4.94c1-8.29,6.76-12.43,15.27-12.43S163.69,243.16,163.69,252Zm-4.95,10.47v-4.14l-12.36,1.45c-5.81.73-8,3.49-8,7.27,0,3.93,3.27,7,8.65,7C154.24,274,158.74,269.33,158.74,262.42Z"/><path class="cls-4" d="M181.87,244.17v23.05c0,4.44,2.25,6.11,5.38,6.11a12.66,12.66,0,0,0,3.13-.29v4.36a16.29,16.29,0,0,1-3.93.44c-5.89,0-9.53-3.42-9.53-10.11V244.17h-6.47v-4.36h6.47V229.2h5v10.61h8.51v4.36Z"/><path class="cls-4" d="M228.48,254.5v22.9h-4.95v-22c0-7.78-3.56-12-9.74-12s-10.47,4.36-10.47,12.36V277.4h-5V239.81h4.8v5.75c2.25-4.29,6-6.62,11.63-6.62C223,238.94,228.48,244.47,228.48,254.5Z"/><path class="cls-4" d="M267.67,252V277.4H263v-5.89a14.57,14.57,0,0,1-12.95,6.76c-7.34,0-12.94-4.65-12.94-11.12s4.22-10.4,12.36-11.27l13.24-1.45v-2.62c0-5.89-3.64-8.58-9.31-8.58-5.82,0-9.53,2.4-10.33,8.14h-4.94c1-8.29,6.76-12.43,15.27-12.43S267.67,243.16,267.67,252Zm-4.94,10.47v-4.14l-12.36,1.45c-5.82.73-8,3.49-8,7.27,0,3.93,3.27,7,8.65,7C258.22,274,262.73,269.33,262.73,262.42Zm-7.13-28.71h-4.87l7.49-11.35h5.52Z"/><path class="cls-4" d="M331.22,258.64c0,11.93-7.12,19.63-16.5,19.63-6.18,0-10.62-3.34-13.09-8.36v21.16h-5V239.81h4.8v7.64c2.4-5.24,6.76-8.51,13.52-8.51C324.24,238.94,331.22,246.87,331.22,258.64Zm-4.94,0c0-9.16-4.66-15.41-12.29-15.41-7.13,0-12.36,6.47-12.36,15.27v.29c0,9.16,5.16,15.12,12.36,15.12S326.28,267.8,326.28,258.64Z"/><path class="cls-4" d="M368.45,252V277.4H363.8v-5.89a14.56,14.56,0,0,1-12.94,6.76c-7.35,0-12.95-4.65-12.95-11.12s4.22-10.4,12.36-11.27l13.24-1.45v-2.62c0-5.89-3.64-8.58-9.31-8.58s-9.52,2.4-10.32,8.14h-4.95c1-8.29,6.76-12.43,15.27-12.43S368.45,243.16,368.45,252Zm-4.94,10.47v-4.14l-12.36,1.45c-5.82.73-8,3.49-8,7.27,0,3.93,3.27,7,8.65,7C359,274,363.51,269.33,363.51,262.42Z"/><path class="cls-4" d="M434.62,254.35v23h-4.95V254.86c0-7.49-4.07-11.41-9.74-11.41s-10.4,3.92-10.4,11.19V277.4h-4.94V254.86c0-7.49-4.07-11.41-9.82-11.41-5.59,0-10.32,3.92-10.32,11.19V277.4h-5V239.81h4.8v5.6c2.26-4.07,6.33-6.47,11.64-6.47,5.52,0,9.88,2.54,12.06,7.27,2.4-4.51,6.84-7.27,12.8-7.27C429,238.94,434.62,244.47,434.62,254.35Z"/><path class="cls-4" d="M477.16,260.46H448.37c.51,8.58,5.59,13.38,12.5,13.38,5.82,0,9.38-3,10.54-7.42h5.24c-1.53,6.47-6.54,11.85-15.49,11.85-11.27,0-17.81-7.85-17.81-19.34,0-12.36,7.34-20,17.16-20,11.05,0,16.72,7.63,16.72,19.78C477.23,259.81,477.16,260.46,477.16,260.46Zm-5.09-4.29c-.44-8.72-4.95-12.94-11.56-12.94-6.4,0-11.2,4.58-12.07,12.94ZM458,233.56l-8-11.2h4.72l5.75,7.78,6-7.78h4.87L463,233.56Z"/><path class="cls-4" d="M493.3,239.81h8.51v4.36H493.3v23.05c0,4.44,2.26,6.11,5.38,6.11a12.66,12.66,0,0,0,3.13-.29v4.36a16.29,16.29,0,0,1-3.93.44c-5.89,0-9.52-3.42-9.52-10.11V244.17h-6.47v-4.36h6.47V229.2h4.94Zm16.14-15.48-3.12,15.48h-3.78l.94-15.48Z"/><path class="cls-4" d="M137.73,398.49v52.35h-8.65v-6.32c-2.4,4.72-6.62,7.19-12.36,7.19-8.94,0-16.94-7.19-16.94-19.63,0-12.65,7.63-19.7,16.57-19.7,5.24,0,9.24,2,11.78,5.6V398.49Zm-9.6,33.59c0-7.19-3.92-12-9.3-12-5.67,0-9.38,4.72-9.38,12S113.37,444,118.83,444,128.13,439.43,128.13,432.08Z"/><path class="cls-4" d="M177.94,426.19v24.65h-8.65V446c-2.91,3.86-6.91,5.67-12,5.67-8,0-13.52-4.72-13.52-11.26,0-6.26,3.93-10.69,13.31-11.64l11.34-1.16v-2c0-4.21-2.62-6.25-6.76-6.25-4.37,0-6.77,1.75-7.49,5.45h-9.6c1-8.14,7.05-12.43,16.94-12.43C171.69,412.38,177.94,416.67,177.94,426.19ZM152.13,400.6a9,9,0,1,1,9,8.87A9,9,0,0,1,152.13,400.6Zm16.21,35.56v-2.77l-9,1.17c-4,.51-5.82,2.61-5.82,5.45s2.33,5.23,6.33,5.23C165.36,445.24,168.34,441.54,168.34,436.16ZM157.8,400.6a3.17,3.17,0,0,0,3.35,3.35,3.26,3.26,0,0,0,3.41-3.35,3.38,3.38,0,1,0-6.76,0Z"/><path class="cls-4" d="M206.37,413.18v8.43a16.75,16.75,0,0,0-2.18-.14c-5.89,0-9.09,3.42-9.09,9.38v20h-9.59V413.25h8.65v6.47a10.34,10.34,0,0,1,10-6.83A7.9,7.9,0,0,1,206.37,413.18Z"/><path class="cls-4" d="M221.14,450.84h-9.6V398.49h9.6Z"/><path class="cls-4" d="M228.26,402.2a5.75,5.75,0,1,1,5.82,5.67A5.58,5.58,0,0,1,228.26,402.2Zm1,11.05h9.6v37.59h-9.6Z"/><path class="cls-4" d="M282.8,413.25V449c0,9-5.31,16.43-18.62,16.43-13.67,0-17.88-5.74-18.68-13.3h10.1c.37,3.85,2.62,6.32,8.58,6.32s9.09-3.12,9.09-9.08v-6c-2.62,4-6.47,5.75-11.56,5.75-9.23,0-16.79-7.06-16.79-18.4s7.48-18.32,16.79-18.32c5.38,0,9.67,2.25,12.29,6.4v-5.53Zm-9.53,17.45c0-6.47-4.07-10.69-9.38-10.69s-9.31,4.22-9.31,10.69,4.08,10.76,9.31,10.76C269.27,441.46,273.27,437,273.27,430.7Z"/><path class="cls-4" d="M341,427.21v23.63h-9.6V429.1c0-5.81-3.2-8.65-7.41-8.65-4.37,0-7.71,3.05-7.71,8.8v21.59h-9.6V398.49h9.6v19.78c2.18-3.78,5.81-5.89,10.69-5.89C335,412.38,341,417.47,341,427.21Z"/><path class="cls-4" d="M381.83,413.25v37.59h-8.58v-5.67a12.94,12.94,0,0,1-11.7,6.54c-8.44,0-13.31-4.87-13.31-13.81V413.25h9.6v23.34c0,4.51,2.33,7.13,6.54,7.13,4.73,0,7.86-3.35,7.86-8.51v-22Z"/><path class="cls-4" d="M414.26,450.84l-14.9-18.54v18.54h-9.6V398.49h9.6v29.09l14.54-14.33h10.62l-16.36,16.51,17.08,21.08Z"/><path class="cls-4" d="M426.92,432.08c0-12.07,8.29-19.7,19.12-19.7s19,7.63,19,19.7-8.29,19.63-19,19.63S426.92,444.15,426.92,432.08Zm28.35,0c0-7.34-3.48-11.92-9.3-11.92s-9.31,4.65-9.31,11.92,3.49,11.86,9.31,11.86S455.27,439.35,455.27,432.08Z"/><path class="cls-4" d="M528.5,427.29v23.55h-9.6V429.25c0-5.89-2.91-8.58-7-8.58s-7.42,2.76-7.42,8.14v22h-9.6V429.25c0-5.89-2.9-8.58-7-8.58s-7.34,2.69-7.34,8.14v22H471V413.25h8.66v5.24c2.4-4.07,6.47-6.11,11.48-6.11,5.38,0,9.53,2.47,11.71,6.91A13.17,13.17,0,0,1,515,412.38C523.19,412.38,528.5,417.91,528.5,427.29Z"/><path class="cls-4" d="M593.58,427.29v23.55H584V429.25c0-5.89-2.91-8.58-7-8.58s-7.42,2.76-7.42,8.14v22H560V429.25c0-5.89-2.9-8.58-7-8.58s-7.34,2.69-7.34,8.14v22h-9.6V413.25h8.65v5.24c2.4-4.07,6.48-6.11,11.49-6.11,5.38,0,9.53,2.47,11.71,6.91a13.16,13.16,0,0,1,12.14-6.91C588.27,412.38,593.58,417.91,593.58,427.29Z"/><path class="cls-4" d="M636,432.59c0,1.17-.07,2.18-.07,2.18H608.7c.66,6.84,4.29,9.67,9.38,9.67,4.15,0,6.47-1.81,7.57-4.58h9.52c-1.67,6.69-7.63,11.85-17.16,11.85-12,0-18.9-8-18.9-19.41,0-11.92,7.63-19.92,18.61-19.92C629.5,412.38,636.19,420.52,636,432.59Zm-9.82-4.07c-.29-5.67-3.41-8.87-8.36-8.87-4.58,0-8,2.91-8.94,8.87Z"/><path class="cls-4" d="M651.61,450.84H642V398.49h9.6Z"/><path class="cls-4" d="M657.42,439.86h9.38c.8,3.35,3.42,5.09,8,5.09,4.8,0,7-1.74,7-4.29,0-2.18-1.31-3.7-4.72-4.29L669,434.85c-7.64-1.46-10.84-5-10.84-10.76,0-6.26,5.38-11.71,15.63-11.71s15.71,4.87,16.94,12.43h-9.45c-.58-3.78-3.2-5.67-7.56-5.67s-6.54,2-6.54,4.36c0,2,1.09,3.42,5,4.08l7.93,1.38c8.22,1.38,11.2,5.23,11.2,11.05,0,6.25-4.95,11.7-16.44,11.7C663.68,451.71,658.81,446.92,657.42,439.86Z"/><path class="cls-4" d="M732,432.59c0,1.17-.08,2.18-.08,2.18H704.76c.65,6.84,4.29,9.67,9.38,9.67,4.14,0,6.47-1.81,7.56-4.58h9.53c-1.68,6.69-7.64,11.85-17.16,11.85-12,0-18.91-8-18.91-19.41,0-11.92,7.64-19.92,18.62-19.92C725.55,412.38,732.24,420.52,732,432.59Zm-9.82-4.07c-.29-5.67-3.42-8.87-8.36-8.87-4.58,0-8,2.91-8.94,8.87Z"/><path class="cls-4" d="M899.27,400.61V450h-11.2V410.79L875.49,450H866.4l-12.57-39v39h-11.2V400.61H860l11,33.81,10.91-33.81Z"/><path class="cls-4" d="M941.37,425.62V450h-9.6v-4.72c-2.83,3.78-6.9,5.6-11.85,5.6-8.29,0-13.67-4.8-13.67-11.27,0-6.18,3.71-10.76,13.53-11.71l10.9-1.09v-1.89c0-3.85-2.32-5.82-6.18-5.82s-6,1.6-6.76,4.88H906.91c1.09-8.08,7.12-12.44,17.52-12.44C935.05,411.51,941.37,415.87,941.37,425.62Zm-10.83,9.74v-2.47L922.39,434c-3.56.51-5.38,2.4-5.38,5.09s2.19,4.87,5.82,4.87C928,443.94,930.54,440.38,930.54,435.36Zm-.87-29.08H919.05l7.71-11.35h12.5Z"/><path class="cls-4" d="M1022.88,426.27V450h-10.76V428.6c0-5.45-2.54-7.85-6.32-7.85s-6.62,2.54-6.62,7.56V450H988.35V428.6c0-5.45-2.55-7.85-6.33-7.85s-6.62,2.4-6.62,7.56V450H964.64V412.38h9.67v5.31c2.48-4.14,6.62-6.18,11.56-6.18,5.38,0,9.53,2.47,11.71,6.84a13,13,0,0,1,12-6.84C1017.65,411.51,1022.88,417,1022.88,426.27Z"/><path class="cls-4" d="M1065.93,431.8c0,1.16-.07,2.25-.07,2.25H1039c.65,6.47,3.92,8.87,8.65,8.87,3.63,0,5.74-1.52,6.76-3.92h10.69c-1.75,6.76-8.07,11.85-17.74,11.85-12.14,0-19-8.07-19-19.42,0-11.77,7.56-19.92,19-19.92C1059.1,411.51,1066.15,419.8,1065.93,431.8Zm-11-4.36c-.22-4.88-3-8-7.56-8-4.15,0-7.2,2.61-8.15,8Z"/><path class="cls-4" d="M1129.92,426.27V450h-10.76V428.6c0-5.45-2.55-7.85-6.33-7.85s-6.61,2.54-6.61,7.56V450h-10.84V428.6c0-5.45-2.54-7.85-6.32-7.85s-6.62,2.4-6.62,7.56V450h-10.76V412.38h9.67v5.31c2.47-4.14,6.62-6.18,11.56-6.18,5.38,0,9.52,2.47,11.71,6.84a13,13,0,0,1,12-6.84C1124.68,411.51,1129.92,417,1129.92,426.27Z"/><path class="cls-4" d="M1135.3,431.22c0-12.15,8.66-19.71,19.49-19.71s19.49,7.49,19.49,19.71-8.73,19.63-19.49,19.63S1135.3,443.43,1135.3,431.22Zm27.92,0c0-7-3.12-11.13-8.5-11.13s-8.51,4.15-8.51,11.13,3.2,11,8.58,11S1163.22,438.12,1163.22,431.22Zm-3.41-24.94h-10.62l7.71-11.35h12.5Z"/><path class="cls-4" d="M1202,412.38v9.38a16.75,16.75,0,0,0-2.18-.14c-5.82,0-9.09,3.05-9.09,9V450H1180V412.38h9.67V419a10.72,10.72,0,0,1,10.11-6.91A7.62,7.62,0,0,1,1202,412.38Z"/><path class="cls-4" d="M1206.42,401.19a6.22,6.22,0,0,1,12.43,0,6.22,6.22,0,0,1-12.43,0Zm.8,11.19h10.83V450h-10.83Z"/><path class="cls-4" d="M1259.21,425.62V450h-9.6v-4.72c-2.84,3.78-6.91,5.6-11.85,5.6-8.29,0-13.67-4.8-13.67-11.27,0-6.18,3.71-10.76,13.52-11.71l10.91-1.09v-1.89c0-3.85-2.33-5.82-6.18-5.82s-6,1.6-6.76,4.88h-10.84c1.09-8.08,7.13-12.44,17.53-12.44C1252.88,411.51,1259.21,415.87,1259.21,425.62Zm-10.84,9.74v-2.47l-8.14,1.09c-3.56.51-5.38,2.4-5.38,5.09s2.18,4.87,5.82,4.87C1245.83,443.94,1248.37,440.38,1248.37,435.36Z"/><path class="cls-4" d="M421.4,526.44v9.67H389.33v-9.3l16.44-18.62H390.06v-9.67h31.05v9.31l-16.58,18.61Z"/><path class="cls-4" d="M442.49,510.08v26h-12V517.5l-2.69,1.67-3.2-4.94,5.89-3.64V483.76h12V503.1l4.36-2.68,3.2,4.94Z"/><path class="cls-4" d="M488.88,512v24.13H478.26v-4.58c-2.76,3.71-6.83,5.46-11.7,5.46-8.51,0-13.82-4.87-13.82-11.27,0-6.11,3.56-10.84,13.74-11.85l10.55-1v-1.67c0-3.42-2-5.31-5.53-5.31s-5.38,1.45-6.11,4.21h-12c1.09-8,7.12-12.43,18-12.43C482.48,497.65,488.88,502.09,488.88,512Zm-12,9.52v-2.11l-7.34,1c-3.13.44-4.87,2.25-4.87,4.65,0,2.55,1.89,4.51,5.23,4.51C474.7,529.57,476.88,526.23,476.88,521.5Z"/><path class="cls-4" d="M550.68,517.36c0,12.65-8.5,19.63-17.23,19.63a13.77,13.77,0,0,1-10.54-4.29v17.08h-12V498.52h10.62v5.68c2.62-4.29,6.83-6.55,12.43-6.55C542.76,497.65,550.68,504.27,550.68,517.36Zm-12.14,0c0-6.18-3.27-10.33-7.92-10.33s-7.71,4.15-7.71,10.33,3.05,10.32,7.71,10.32S538.54,523.61,538.54,517.36Z"/><path class="cls-4" d="M590.31,512v24.13H579.7v-4.58c-2.76,3.71-6.84,5.46-11.71,5.46-8.5,0-13.81-4.87-13.81-11.27,0-6.11,3.56-10.84,13.74-11.85l10.54-1v-1.67c0-3.42-2-5.31-5.52-5.31s-5.38,1.45-6.11,4.21h-12c1.09-8,7.13-12.43,18-12.43C583.92,497.65,590.31,502.09,590.31,512Zm-12,9.52v-2.11l-7.35,1c-3.12.44-4.87,2.25-4.87,4.65,0,2.55,1.89,4.51,5.24,4.51C576.14,529.57,578.32,526.23,578.32,521.5Z"/><path class="cls-4" d="M655.61,512.19v23.92h-12V515c0-5-2.18-7.13-5.6-7.13s-5.89,2.33-5.89,7v21.3h-12V515c0-5-2.18-7.13-5.6-7.13s-5.89,2.18-5.89,7v21.3h-12V498.52h10.62V504c2.54-4.36,6.76-6.33,11.7-6.33,5.46,0,9.53,2.47,11.64,6.84a12.82,12.82,0,0,1,11.85-6.84C650.52,497.65,655.61,503.1,655.61,512.19Z"/><path class="cls-4" d="M661.36,487.25a6.73,6.73,0,0,1,13.45,0,6.73,6.73,0,0,1-13.45,0Zm.73,11.27h12v37.59h-12Z"/><path class="cls-4" d="M717.49,518c0,1.16-.07,2.4-.07,2.4H690.88c.65,6,3.56,8,7.92,8,3.2,0,5-1.24,6-3.27h11.77c-1.3,4.94-5.08,8.94-10.76,10.76l.08.07c-4.29,2.11-6,3.78-6,5.53,0,1.52,1.09,2.54,3.34,2.54a8.69,8.69,0,0,0,2.62-.36v4.87a11.87,11.87,0,0,1-5.09.94c-5.24,0-9.09-2.18-9.09-6,0-2.33.94-4.51,4.14-6.69C685.06,535.82,679,528,679,517.5c0-11.56,7.56-19.85,19.34-19.85C710.44,497.65,717.78,506.16,717.49,518Zm-12.21-4.65c-.15-4.07-2.55-7.06-6.77-7.06-3.78,0-6.47,2.33-7.41,7.06Z"/><path class="cls-4" d="M720.69,517.36c0-12.29,8.29-19.71,19.49-19.71s17.09,6.18,18.4,14.33H746.5c-.72-3.35-2.76-5-6.47-5-4.36,0-7.19,3.64-7.19,10.18s2.69,10.4,7.27,10.4c3.85,0,5.52-1.67,6.39-5h12c-1.38,8.51-7.85,14.4-18.32,14.4C729,537,720.69,529.57,720.69,517.36Zm25.6-24.94H734.51l7.78-11.35h13.89Z"/><path class="cls-4" d="M907.92,512.47c0,15-9.23,24.64-23.92,24.64H862.26V487.75H884C898.69,487.75,907.92,497.34,907.92,512.47Zm-12.36.07c0-10-4.44-14.83-12.94-14.83h-8v29.44h8C891.12,527.15,895.56,522.43,895.56,512.54Z"/><path class="cls-4" d="M947.7,513v24.13H937.08v-4.58c-2.76,3.71-6.83,5.46-11.71,5.46-8.5,0-13.81-4.87-13.81-11.27,0-6.11,3.56-10.84,13.74-11.85l10.54-1v-1.67c0-3.42-2-5.31-5.52-5.31s-5.38,1.45-6.11,4.21h-12c1.09-8,7.13-12.43,18-12.43C941.3,498.65,947.7,503.09,947.7,513Zm-27.2-26.4a9.78,9.78,0,1,1,9.82,9.53A9.75,9.75,0,0,1,920.5,486.58Zm15.2,35.92v-2.11l-7.35,1c-3.12.44-4.87,2.25-4.87,4.65,0,2.55,1.89,4.51,5.24,4.51C933.52,530.57,935.7,527.23,935.7,522.5ZM927,486.58a3.15,3.15,0,0,0,3.35,3.27,3.22,3.22,0,0,0,3.34-3.27,3.35,3.35,0,1,0-6.69,0Z"/><path class="cls-4" d="M965.29,537.11h-12V484.76h12Z"/><path class="cls-4" d="M970.6,488.25a6.73,6.73,0,0,1,13.45,0,6.73,6.73,0,0,1-13.45,0Zm.73,11.27h12v37.59h-12Z"/><path class="cls-4" d="M1027.39,499.52v35.56c0,8.94-5.45,16.58-19.49,16.58-14.61,0-18.54-5.68-19.56-13.31H1001c.29,3,1.67,5.09,6.83,5.09,4.94,0,7.56-2.76,7.56-8.07V530.5c-2.54,3.63-6,4.87-10.83,4.87-9.23,0-16.94-7-16.94-18.47s7.71-18.25,17.16-18.25a13.59,13.59,0,0,1,11.78,6v-5.17Zm-12,17.31c0-5.38-3.42-8.94-7.78-8.94s-7.78,3.56-7.78,9,3.42,9.24,7.78,9.24S1015.39,522.35,1015.39,516.83Z"/><path class="cls-4" d="M1048.7,509.19v13.53c0,3.27,1.45,4.94,4.8,4.94a16.27,16.27,0,0,0,3-.22V537a22.37,22.37,0,0,1-6.11.58c-9.89,0-13.67-5.45-13.67-14.47V509.19h-5.6v-9.67h5.6V488.91h12v10.61h7.78v9.67Z"/><path class="cls-4" d="M1134.93,513.19v23.92h-12V516c0-5-2.18-7.13-5.59-7.13-3.57,0-5.89,2.33-5.89,7v21.3h-12V516c0-5-2.18-7.13-5.6-7.13s-5.89,2.18-5.89,7v21.3h-12V499.52h10.61V505c2.55-4.36,6.76-6.33,11.71-6.33,5.45,0,9.52,2.47,11.63,6.84a12.82,12.82,0,0,1,11.85-6.84C1129.84,498.65,1134.93,504.1,1134.93,513.19Z"/><path class="cls-4" d="M1140,488.25a6.73,6.73,0,0,1,13.45,0,6.73,6.73,0,0,1-13.45,0Zm.73,11.27h12v37.59h-12Z"/><path class="cls-4" d="M1195.43,513v24.13h-12V515.88c0-5.38-2.54-7.41-6.25-7.41s-6.47,2.47-6.47,7.27v21.37h-12V499.52h10.62v5.38c2.54-4.28,6.91-6.25,12.21-6.25C1189.25,498.65,1195.43,502.8,1195.43,513Z"/><path class="cls-4" d="M1237.82,513v24.13h-12V515.88c0-5.38-2.55-7.41-6.26-7.41s-6.47,2.47-6.47,7.27v21.37h-12V499.52h10.61v5.38c2.55-4.28,6.91-6.25,12.22-6.25C1231.64,498.65,1237.82,502.8,1237.82,513Z"/><path class="cls-4" d="M1280.14,519c0,1.16-.07,2.4-.07,2.4h-26.54c.66,6,3.56,8,7.93,8,3.2,0,5-1.24,6-3.27h11.78C1277.38,533,1270.84,538,1261,538c-12.36,0-19.34-8.22-19.34-19.49,0-11.56,7.56-19.85,19.34-19.85C1273.09,498.65,1280.43,507.16,1280.14,519ZM1268,514.36c-.43-4.07-2.69-7.06-6.91-7.06-3.78,0-6.39,2.33-7.34,7.06Z"/><path class="cls-4" d="M761.63,673v24.5h-14.4v-23c0-3.27-1.6-5.09-4.43-5.09-3.27,0-5.38,1.89-5.38,6.91v21.16H723V645.11h14.4v18.32a12.23,12.23,0,0,1,9.89-4.43C755.3,659,761.63,663.21,761.63,673Z"/><path class="cls-4" d="M803.29,673.39v24.07H790.57v-4.58a14.71,14.71,0,0,1-11.63,5.45c-8.51,0-13.45-4.87-13.45-11.2,0-6.83,5.09-11,14.32-11.92l9.45-.87V672c0-2.69-1.6-4.29-4.43-4.29-3,0-4.58,1.38-5,3.71H766.07c.73-7.34,6.61-12.43,18.68-12.43C798.42,659,803.29,665.1,803.29,673.39ZM789,685v-4l-4.29.59c-3.63.5-5.52,2.1-5.52,4.65s1.81,3.93,4.58,3.93A4.94,4.94,0,0,0,789,685Z"/><path class="cls-4" d="M822.79,697.46h-14.4V645.11h14.4Z"/><path class="cls-4" d="M869.47,678.7c0,13-8.08,19.63-16.15,19.63-5.59,0-9.37-2.33-11.48-7.27v6.4H828.31V645.11h14.4V664.3c2.33-3.85,6-5.3,10.61-5.3C861.39,659,869.47,665.83,869.47,678.7Zm-14.4-.07c0-6.69-2.62-9.31-6.18-9.31s-6.18,2.62-6.18,9.31,2.54,9.38,6.11,9.38S855.07,685.39,855.07,678.63Z"/><path class="cls-4" d="M950.83,673v24.5h-14.4v-23c0-3.27-1.6-5.09-4.14-5.09-3.27,0-5.38,1.89-5.38,6.91v21.16h-14.4v-23c0-3.27-1.6-5.09-4.14-5.09-3.27,0-5.38,1.89-5.38,6.91v21.16h-14.4V659.87h12.8v5.74a12,12,0,0,1,11.2-6.61c5.52,0,10.17,2,12.57,6.39A12.42,12.42,0,0,1,936.51,659C944.5,659,950.83,663.21,950.83,673Z"/><path class="cls-4" d="M992.5,673.39v24.07H979.77v-4.58a14.71,14.71,0,0,1-11.63,5.45c-8.51,0-13.45-4.87-13.45-11.2,0-6.83,5.09-11,14.32-11.92l9.46-.87V672c0-2.69-1.6-4.29-4.44-4.29s-4.58,1.38-5,3.71H955.27C956,664.09,961.89,659,974,659,987.63,659,992.5,665.1,992.5,673.39Zm-32.72-24.72c0-3.56,2.54-6.25,6.76-6.25s6.76,2.69,6.76,6.25c0,3.78-2.69,6.47-6.76,6.47S959.78,652.38,959.78,648.67ZM978.17,685v-4l-4.29.59c-3.63.5-5.52,2.1-5.52,4.65s1.82,3.93,4.58,3.93A4.94,4.94,0,0,0,978.17,685Zm-2.32-36.28c0-3.56,2.54-6.25,6.83-6.25,4.07,0,6.69,2.69,6.69,6.25,0,3.71-2.62,6.47-6.69,6.47C978.39,655.14,975.85,652.38,975.85,648.67Z"/><path class="cls-4" d="M1012,697.46h-14.4V645.11H1012Z"/><path class="cls-4" d="M1055,659.87v37.59h-12.8v-5.53c-2.54,4.37-6.47,6.4-11.56,6.4-8.21,0-13.52-4.22-13.52-14v-24.5h14.39v24.28c0,2.62,1.31,4.37,4.15,4.37s4.94-2.62,4.94-6.62v-22Z"/><path class="cls-4" d="M127.45,659.87v11.56c-.8-.07-1.6-.14-2.91-.14-4.65,0-7.93,2.69-7.93,8.07v18.1H102.22V659.87h12.5v6.69a10.58,10.58,0,0,1,10.33-7A6,6,0,0,1,127.45,659.87Z"/><path class="cls-4" d="M129.92,678.7c0-13.16,9.6-19.7,20.43-19.7s20.58,6.54,20.58,19.7-9.82,19.63-20.58,19.63S129.92,691.79,129.92,678.7Zm26.61.15c0-7.56-2.61-9.75-6-9.75s-6.18,2.19-6.18,9.75c0,7.41,2.76,9.38,6.18,9.38S156.53,686.26,156.53,678.85Z"/><path class="cls-4" d="M173.26,686.48h13.09c.51,2.26,2.32,3.49,5.81,3.49s4.88-1.23,4.88-3.05c0-1.31-.8-2.62-3-3l-9.52-1.46c-7.27-1.09-10.83-5-10.83-11.05,0-6.83,6.18-12.43,17.3-12.43,10.54,0,17.52,3.49,18.83,12.43H196.74c-.43-2.54-2.18-3.93-5.45-3.93s-4.73,1.31-4.73,3c0,1.45,1,2.54,3.35,2.9l10.25,1.46c7.56,1.09,10.47,5.23,10.47,10.69,0,7.7-6.4,12.79-18.68,12.79C180.38,698.33,174.35,694.12,173.26,686.48Z"/><path class="cls-4" d="M212.74,686.48h13.09c.51,2.26,2.33,3.49,5.82,3.49s4.87-1.23,4.87-3.05c0-1.31-.8-2.62-3-3L224,682.48c-7.27-1.09-10.83-5-10.83-11.05,0-6.83,6.18-12.43,17.3-12.43,10.55,0,17.53,3.49,18.84,12.43H236.23c-.44-2.54-2.18-3.93-5.45-3.93s-4.73,1.31-4.73,3c0,1.45,1,2.54,3.34,2.9l10.26,1.46c7.56,1.09,10.47,5.23,10.47,10.69,0,7.7-6.4,12.79-18.69,12.79C219.87,698.33,213.83,694.12,212.74,686.48Z"/><path class="cls-4" d="M286.11,687.79v9.67H252.88v-9.31l16.73-18.61h-16v-9.67h32.21v9.31l-16.36,18.61Z"/><path class="cls-4" d="M367.84,673v24.5h-14.4v-23c0-3.27-1.6-5.09-4.14-5.09-3.28,0-5.38,1.9-5.38,6.91v21.16h-14.4v-23c0-3.27-1.6-5.09-4.14-5.09-3.28,0-5.38,1.9-5.38,6.91v21.16H305.6V659.87h12.8v5.74A12,12,0,0,1,329.59,659c5.53,0,10.18,2,12.58,6.4a12.4,12.4,0,0,1,11.34-6.4C361.51,659,367.84,663.21,367.84,673Z"/><path class="cls-4" d="M411.25,681.75H385.8c.51,5.75,2.55,7.93,6.18,7.93,2.84,0,4-.87,4.95-3.2h13.16c-1.89,7.2-8.22,11.85-18.33,11.85-12.72,0-20.14-8.07-20.14-19.77,0-10.91,7.06-19.56,20.14-19.56,13.38,0,19.64,9.09,19.64,19.56A24.86,24.86,0,0,1,411.25,681.75Zm-14-6.76c-.08-4.8-1.89-7.34-5.46-7.34-3,0-5.23,2-5.88,7.34Z"/><path class="cls-4" d="M477.78,673v24.5H463.39v-23c0-3.27-1.6-5.09-4.15-5.09-3.27,0-5.38,1.9-5.38,6.91v21.16h-14.4v-23c0-3.27-1.59-5.09-4.14-5.09-3.27,0-5.38,1.9-5.38,6.91v21.16h-14.4V659.87h12.8v5.74a12,12,0,0,1,11.2-6.61c5.52,0,10.18,2,12.58,6.4a12.39,12.39,0,0,1,11.34-6.4C471.46,659,477.78,663.21,477.78,673Z"/><path class="cls-4" d="M481.57,678.7c0-13.16,9.6-19.7,20.43-19.7s20.58,6.54,20.58,19.7-9.82,19.63-20.58,19.63S481.57,691.79,481.57,678.7ZM508,653.76H494.8l7.78-11.34h15.34Zm.14,25.09c0-7.56-2.62-9.75-6-9.75s-6.18,2.19-6.18,9.75c0,7.41,2.76,9.38,6.18,9.38S508.18,686.26,508.18,678.85Z"/><path class="cls-4" d="M551.88,659.87v11.56c-.8-.07-1.6-.14-2.91-.14-4.65,0-7.92,2.69-7.92,8.07v18.1h-14.4V659.87h12.51v6.69c2.11-5.09,6-7,10.32-7A6,6,0,0,1,551.88,659.87Z"/><path class="cls-4" d="M555.3,647.8a7.39,7.39,0,0,1,7.71-7.2,7.52,7.52,0,0,1,7.7,7.2,7.63,7.63,0,0,1-7.7,7.34A7.49,7.49,0,0,1,555.3,647.8Zm.51,12.07h14.4v37.59h-14.4Z"/><path class="cls-4" d="M612.16,673.39v24.07H599.44v-4.58a14.75,14.75,0,0,1-11.64,5.45c-8.51,0-13.45-4.87-13.45-11.19,0-6.84,5.09-11.06,14.32-11.93l9.46-.87V672c0-2.69-1.6-4.29-4.44-4.29s-4.58,1.38-5,3.71H574.93c.73-7.34,6.62-12.43,18.69-12.43C607.29,659,612.16,665.1,612.16,673.39ZM597.84,685v-4l-4.29.58c-3.64.51-5.53,2.11-5.53,4.65s1.82,3.93,4.58,3.93A5,5,0,0,0,597.84,685Z"/><path class="cls-4" d="M682.1,693.4,682,662.14l-35,35-1.39-1.45,35-35-31.34-.15,1.89-1.89,32.5.29.29,32.57Z"/><path class="cls-4" d="M1124.28,673.77v2.62l-24.22,21.88-24.21-21.88v-2.62l23.2,21.09V647.31h2v47.55Z"/><path class="cls-4" d="M1194.43,673.77v2.62l-24.21,21.88L1146,676.39v-2.62l23.2,21.09V647.31h2v47.55Z"/><path class="cls-4" d="M1273,670.09a25.52,25.52,0,1,1-25.59-25.6A25.51,25.51,0,0,1,1273,670.09Z"/></g></svg>