<?xml version="1.0" encoding="UTF-8"?><svg id="Layer_1" xmlns="http://www.w3.org/2000/svg" xmlns:xlink="http://www.w3.org/1999/xlink" viewBox="0 0 1366 768"><defs><style>.cls-1{clip-path:url(#clippath);}.cls-2{fill:#e6e6e6;}.cls-3{fill:#12100b;}</style><clipPath id="clippath"><rect class="cls-2" width="1366" height="768"/></clipPath></defs><g><rect class="cls-2" width="1366" height="768"/><g class="cls-1"><rect class="cls-2" x="9.51" y="6.58" width="1346.99" height="760.1"/></g></g><g><path class="cls-3" d="M88.33,40.71v14.26h-2.7v-11.65l-3.66,11.65h-2.15l-3.68-11.67v11.67h-2.72v-14.26h4.24l3.25,10.22,3.21-10.22h4.22Z"/><path class="cls-3" d="M90.58,40.92c0-.9,.63-1.64,1.58-1.64s1.54,.73,1.54,1.64-.63,1.64-1.54,1.64-1.58-.76-1.58-1.64Zm.26,3.19h2.6v10.86h-2.6v-10.86Z"/><path class="cls-3" d="M98.25,54.97h-2.6v-15.12h2.6v15.12Z"/><path class="cls-3" d="M109.24,47.85v7.12h-2.34v-1.39c-.79,1.11-1.87,1.64-3.25,1.64-2.17,0-3.66-1.37-3.66-3.25s1.06-3.09,3.6-3.36l3.07-.34v-.59c0-1.22-.71-1.81-1.83-1.81-1.18,0-1.83,.5-2.03,1.58h-2.6c.28-2.35,1.91-3.59,4.59-3.59s4.45,1.24,4.45,3.99Zm-2.6,2.88v-.8l-2.44,.34c-1.08,.15-1.58,.76-1.58,1.57s.63,1.51,1.71,1.51c1.5,0,2.31-1.07,2.31-2.62Z"/><path class="cls-3" d="M131.71,44.11l-3.13,10.86h-3.09l-2.15-7.6-2.07,7.6h-3.09l-3.11-10.86h2.7l2.07,8.11,2.15-8.11h2.9l2.17,8.11,2.01-8.11h2.66Z"/><path class="cls-3" d="M141.53,47.85v7.12h-2.34v-1.39c-.79,1.11-1.87,1.64-3.25,1.64-2.17,0-3.66-1.37-3.66-3.25s1.06-3.09,3.6-3.36l3.07-.34v-.59c0-1.22-.71-1.81-1.83-1.81-1.18,0-1.83,.5-2.03,1.58h-2.6c.28-2.35,1.91-3.59,4.59-3.59s4.45,1.24,4.45,3.99Zm-2.6,2.88v-.8l-2.44,.34c-1.08,.15-1.58,.76-1.58,1.57s.63,1.51,1.71,1.51c1.5,0,2.31-1.07,2.31-2.62Z"/><path class="cls-3" d="M143.08,51.8h2.54c.22,.96,.93,1.47,2.17,1.47s1.89-.5,1.89-1.24c0-.63-.35-1.07-1.28-1.24l-2.19-.44c-2.07-.42-2.94-1.45-2.94-3.11,0-1.81,1.46-3.38,4.24-3.38s4.25,1.41,4.59,3.59h-2.56c-.16-1.09-.87-1.64-2.05-1.64s-1.77,.57-1.77,1.26c0,.59,.3,.99,1.36,1.18l2.15,.4c2.23,.4,3.03,1.51,3.03,3.19,0,1.81-1.34,3.38-4.45,3.38s-4.35-1.39-4.73-3.42Z"/><path class="cls-3" d="M168.22,39.85v15.12h-2.34v-1.83c-.65,1.36-1.79,2.08-3.35,2.08-2.42,0-4.59-2.08-4.59-5.67s2.07-5.69,4.49-5.69c1.42,0,2.5,.57,3.19,1.62v-5.63h2.6Zm-2.6,9.7c0-2.08-1.06-3.46-2.52-3.46-1.54,0-2.54,1.36-2.54,3.46s1.06,3.44,2.54,3.44,2.52-1.32,2.52-3.44Z"/><path class="cls-3" d="M179.88,49.7c0,.34-.02,.63-.02,.63h-7.37c.18,1.97,1.16,2.79,2.54,2.79,1.12,0,1.75-.53,2.05-1.32h2.58c-.45,1.93-2.07,3.42-4.65,3.42-3.25,0-5.12-2.31-5.12-5.61s2.07-5.75,5.04-5.75c3.19,0,5,2.35,4.94,5.84Zm-2.66-1.18c-.08-1.64-.93-2.56-2.27-2.56-1.24,0-2.17,.84-2.42,2.56h4.69Z"/><path class="cls-3" d="M180.94,51.8h2.54c.22,.96,.93,1.47,2.17,1.47s1.89-.5,1.89-1.24c0-.63-.35-1.07-1.28-1.24l-2.19-.44c-2.07-.42-2.94-1.45-2.94-3.11,0-1.81,1.46-3.38,4.24-3.38s4.25,1.41,4.59,3.59h-2.56c-.16-1.09-.87-1.64-2.05-1.64s-1.77,.57-1.77,1.26c0,.59,.3,.99,1.36,1.18l2.15,.4c2.23,.4,3.03,1.51,3.03,3.19,0,1.81-1.34,3.38-4.45,3.38s-4.35-1.39-4.73-3.42Z"/><path class="cls-3" d="M191.54,40.92c0-.9,.63-1.64,1.58-1.64s1.54,.73,1.54,1.64-.63,1.64-1.54,1.64-1.58-.76-1.58-1.64Zm.26,3.19h2.6v10.86h-2.6v-10.86Z"/><path class="cls-3" d="M206.3,44.11v10.31c0,2.6-1.44,4.75-5.04,4.75s-4.85-1.66-5.06-3.84h2.74c.1,1.11,.71,1.83,2.32,1.83s2.46-.9,2.46-2.62v-1.72c-.71,1.15-1.75,1.66-3.13,1.66-2.5,0-4.55-2.04-4.55-5.31s2.03-5.29,4.55-5.29c1.46,0,2.62,.65,3.33,1.85v-1.6h2.38Zm-2.58,5.04c0-1.87-1.1-3.09-2.54-3.09s-2.52,1.22-2.52,3.09,1.1,3.11,2.52,3.11,2.54-1.28,2.54-3.11Z"/><path class="cls-3" d="M217.81,48.12v6.84h-2.6v-6.21c0-1.79-.79-2.58-1.99-2.58s-2.11,.88-2.11,2.58v6.21h-2.6v-10.86h2.34v1.53c.67-1.2,1.75-1.79,3.21-1.79,2.13,0,3.74,1.34,3.74,4.26Z"/><path class="cls-3" d="M229.4,49.7c0,.34-.02,.63-.02,.63h-7.37c.18,1.97,1.16,2.79,2.54,2.79,1.12,0,1.75-.53,2.05-1.32h2.58c-.45,1.93-2.07,3.42-4.65,3.42-3.25,0-5.12-2.31-5.12-5.61s2.07-5.75,5.04-5.75c3.19,0,5,2.35,4.94,5.84Zm-2.66-1.18c-.08-1.64-.93-2.56-2.27-2.56-1.24,0-2.17,.84-2.42,2.56h4.69Z"/><path class="cls-3" d="M240.84,39.85v15.12h-2.34v-1.83c-.65,1.36-1.79,2.08-3.35,2.08-2.42,0-4.59-2.08-4.59-5.67s2.07-5.69,4.49-5.69c1.42,0,2.5,.57,3.19,1.62v-5.63h2.6Zm-2.6,9.7c0-2.08-1.06-3.46-2.52-3.46-1.54,0-2.54,1.36-2.54,3.46s1.06,3.44,2.54,3.44,2.52-1.32,2.52-3.44Z"/><path class="cls-3" d="M256.34,47.85v7.12h-2.34v-1.39c-.79,1.11-1.87,1.64-3.25,1.64-2.17,0-3.66-1.37-3.66-3.25s1.06-3.09,3.6-3.36l3.07-.34v-.59c0-1.22-.71-1.81-1.83-1.81-1.18,0-1.83,.5-2.03,1.58h-2.6c.28-2.35,1.91-3.59,4.59-3.59s4.45,1.24,4.45,3.99Zm-2.6,2.88v-.8l-2.44,.34c-1.08,.15-1.58,.76-1.58,1.57s.63,1.51,1.71,1.51c1.5,0,2.31-1.07,2.31-2.62Z"/><path class="cls-3" d="M257.89,51.8h2.54c.22,.96,.93,1.47,2.17,1.47s1.89-.5,1.89-1.24c0-.63-.35-1.07-1.28-1.24l-2.19-.44c-2.07-.42-2.94-1.45-2.94-3.11,0-1.81,1.46-3.38,4.24-3.38s4.25,1.41,4.59,3.59h-2.56c-.16-1.09-.87-1.64-2.05-1.64s-1.77,.57-1.77,1.26c0,.59,.3,.99,1.36,1.18l2.15,.4c2.23,.4,3.03,1.51,3.03,3.19,0,1.81-1.34,3.38-4.45,3.38s-4.35-1.39-4.73-3.42Z"/><path class="cls-3" d="M283.56,49.55c0,3.59-2.19,5.67-4.61,5.67-1.34,0-2.36-.57-3.07-1.57v5.27h-2.6v-14.8h2.34v1.76c.69-1.28,1.83-2.02,3.45-2.02,2.42,0,4.49,2.04,4.49,5.69Zm-2.64,0c0-2.08-1-3.46-2.54-3.46-1.46,0-2.5,1.41-2.5,3.46s1.04,3.44,2.5,3.44,2.54-1.34,2.54-3.44Z"/><path class="cls-3" d="M293.95,47.85v7.12h-2.34v-1.39c-.79,1.11-1.87,1.64-3.25,1.64-2.17,0-3.66-1.37-3.66-3.25s1.06-3.09,3.6-3.36l3.07-.34v-.59c0-1.22-.71-1.81-1.83-1.81-1.18,0-1.83,.5-2.03,1.58h-2.6c.28-2.35,1.91-3.59,4.59-3.59s4.45,1.24,4.45,3.99Zm-2.6,2.88v-.8l-2.44,.34c-1.08,.15-1.58,.76-1.58,1.57s.63,1.51,1.71,1.51c1.5,0,2.31-1.07,2.31-2.62Z"/><path class="cls-3" d="M301.75,44.09v2.44c-.16-.02-.33-.04-.59-.04-1.6,0-2.46,.99-2.46,2.71v5.77h-2.6v-10.86h2.34v1.87c.49-1.3,1.5-1.97,2.7-1.97,.22,0,.39,.02,.61,.08Z"/><path class="cls-3" d="M306.84,46.4v4.83c0,1.03,.47,1.53,1.34,1.53,.35,0,.59-.02,.83-.08v2.25c-.51,.15-.81,.17-1.44,.17-2.3,0-3.33-1.39-3.33-3.74v-4.96h-1.6v-2.29h1.6v-3.06h2.6v3.06h2.17v2.29h-2.17Z"/><path class="cls-3" d="M314.62,49.55c0-3.49,2.25-5.69,5.18-5.69s5.16,2.21,5.16,5.69-2.25,5.67-5.16,5.67-5.18-2.18-5.18-5.67Zm7.68,0c0-2.12-.95-3.44-2.52-3.44s-2.52,1.34-2.52,3.44,.95,3.42,2.52,3.42,2.52-1.32,2.52-3.42Z"/><path class="cls-3" d="M329.86,43.46v.65h2.42v2.29h-2.42v8.57h-2.6v-8.57h-1.6v-2.29h1.6v-.63c0-2.52,1.46-3.84,3.6-3.84,.59,0,1.1,.08,1.52,.23v2.12c-.3-.08-.61-.13-.93-.13-1.04,0-1.6,.53-1.6,1.6Z"/><path class="cls-3" d="M341.52,46.4v4.83c0,1.03,.47,1.53,1.34,1.53,.35,0,.59-.02,.83-.08v2.25c-.51,.15-.81,.17-1.44,.17-2.3,0-3.33-1.39-3.33-3.74v-4.96h-1.6v-2.29h1.6v-3.06h2.6v3.06h2.17v2.29h-2.17Z"/><path class="cls-3" d="M354.64,48.14v6.82h-2.6v-6.28c0-1.68-.87-2.5-2.01-2.5s-2.09,.88-2.09,2.54v6.24h-2.6v-15.12h2.6v5.71c.59-1.09,1.58-1.7,2.9-1.7,2.17,0,3.8,1.47,3.8,4.28Z"/><path class="cls-3" d="M366.23,49.7c0,.34-.02,.63-.02,.63h-7.37c.18,1.97,1.16,2.79,2.54,2.79,1.12,0,1.75-.53,2.05-1.32h2.58c-.45,1.93-2.07,3.42-4.65,3.42-3.25,0-5.12-2.31-5.12-5.61s2.07-5.75,5.04-5.75c3.19,0,5,2.35,4.94,5.84Zm-2.66-1.18c-.08-1.64-.93-2.56-2.27-2.56-1.24,0-2.17,.84-2.42,2.56h4.69Z"/><path class="cls-3" d="M382.8,43.1h-4.2v11.86h-2.7v-11.86h-4.2v-2.39h11.09v2.39Z"/><path class="cls-3" d="M392.01,44.11l-6.01,14.8h-2.76l2.15-4.91-3.9-9.89h2.76l2.48,7.12,2.64-7.12h2.64Z"/><path class="cls-3" d="M403.42,49.55c0,3.59-2.19,5.67-4.61,5.67-1.34,0-2.36-.57-3.07-1.57v5.27h-2.6v-14.8h2.34v1.76c.69-1.28,1.83-2.02,3.45-2.02,2.42,0,4.49,2.04,4.49,5.69Zm-2.64,0c0-2.08-1-3.46-2.54-3.46-1.46,0-2.5,1.41-2.5,3.46s1.04,3.44,2.5,3.44,2.54-1.34,2.54-3.44Z"/><path class="cls-3" d="M414.55,49.7c0,.34-.02,.63-.02,.63h-7.37c.18,1.97,1.16,2.79,2.54,2.79,1.12,0,1.75-.53,2.05-1.32h2.58c-.45,1.93-2.07,3.42-4.65,3.42-3.25,0-5.12-2.31-5.12-5.61s2.07-5.75,5.04-5.75c3.19,0,5,2.35,4.94,5.84Zm-2.66-1.18c-.08-1.64-.93-2.56-2.27-2.56-1.24,0-2.17,.84-2.42,2.56h4.69Z"/><path class="cls-3" d="M432.83,47.85c0,4.37-2.58,7.12-6.5,7.12h-5.28v-14.26h5.28c3.92,0,6.5,2.75,6.5,7.14Zm-2.72,.02c0-3.17-1.46-4.81-4.12-4.81h-2.25v9.55h2.25c2.64,0,4.12-1.64,4.12-4.75Z"/><path class="cls-3" d="M444.17,49.7c0,.34-.02,.63-.02,.63h-7.37c.18,1.97,1.16,2.79,2.54,2.79,1.12,0,1.75-.53,2.05-1.32h2.58c-.45,1.93-2.07,3.42-4.65,3.42-3.25,0-5.12-2.31-5.12-5.61s2.07-5.75,5.04-5.75c3.19,0,5,2.35,4.94,5.84Zm-2.66-1.18c-.08-1.64-.93-2.56-2.27-2.56-1.24,0-2.17,.84-2.42,2.56h4.69Z"/><path class="cls-3" d="M445.23,51.8h2.54c.22,.96,.93,1.47,2.17,1.47s1.89-.5,1.89-1.24c0-.63-.35-1.07-1.28-1.24l-2.19-.44c-2.07-.42-2.94-1.45-2.94-3.11,0-1.81,1.46-3.38,4.24-3.38s4.25,1.41,4.59,3.59h-2.56c-.16-1.09-.87-1.64-2.05-1.64s-1.77,.57-1.77,1.26c0,.59,.3,.99,1.36,1.18l2.15,.4c2.23,.4,3.03,1.51,3.03,3.19,0,1.81-1.34,3.38-4.45,3.38s-4.35-1.39-4.73-3.42Z"/><path class="cls-3" d="M455.83,40.92c0-.9,.63-1.64,1.58-1.64s1.54,.73,1.54,1.64-.63,1.64-1.54,1.64-1.58-.76-1.58-1.64Zm.26,3.19h2.6v10.86h-2.6v-10.86Z"/><path class="cls-3" d="M470.59,44.11v10.31c0,2.6-1.44,4.75-5.04,4.75s-4.85-1.66-5.06-3.84h2.74c.1,1.11,.71,1.83,2.32,1.83s2.46-.9,2.46-2.62v-1.72c-.71,1.15-1.75,1.66-3.13,1.66-2.5,0-4.55-2.04-4.55-5.31s2.03-5.29,4.55-5.29c1.46,0,2.62,.65,3.33,1.85v-1.6h2.38Zm-2.58,5.04c0-1.87-1.1-3.09-2.54-3.09s-2.52,1.22-2.52,3.09,1.1,3.11,2.52,3.11,2.54-1.28,2.54-3.11Z"/><path class="cls-3" d="M482.09,48.12v6.84h-2.6v-6.21c0-1.79-.79-2.58-1.99-2.58s-2.11,.88-2.11,2.58v6.21h-2.6v-10.86h2.34v1.53c.67-1.2,1.75-1.79,3.21-1.79,2.13,0,3.74,1.34,3.74,4.26Z"/><path class="cls-3" d="M488.18,50.73h2.8c.24,1.49,1.24,2.25,3.09,2.25s2.72-.8,2.72-1.85c0-.92-.57-1.53-1.85-1.81l-3.11-.65c-2.25-.46-3.39-1.95-3.39-3.84,0-2.37,1.85-4.37,5.26-4.37s5.34,1.51,5.59,4.24h-2.82c-.22-1.36-1.12-1.99-2.8-1.99s-2.44,.82-2.44,1.83c0,.82,.47,1.39,1.71,1.64l3.13,.63c2.44,.46,3.51,2,3.51,3.91,0,2.52-1.81,4.51-5.5,4.51s-5.61-1.66-5.91-4.49Z"/><path class="cls-3" d="M511.64,49.55c0,3.59-2.19,5.67-4.61,5.67-1.34,0-2.36-.57-3.07-1.57v5.27h-2.6v-14.8h2.34v1.76c.69-1.28,1.83-2.02,3.45-2.02,2.42,0,4.49,2.04,4.49,5.69Zm-2.64,0c0-2.08-1-3.46-2.54-3.46-1.46,0-2.5,1.41-2.5,3.46s1.04,3.44,2.5,3.44,2.54-1.34,2.54-3.44Z"/><path class="cls-3" d="M522.77,49.7c0,.34-.02,.63-.02,.63h-7.37c.18,1.97,1.16,2.79,2.54,2.79,1.12,0,1.75-.53,2.05-1.32h2.58c-.45,1.93-2.07,3.42-4.65,3.42-3.25,0-5.12-2.31-5.12-5.61s2.07-5.75,5.04-5.75c3.19,0,5,2.35,4.94,5.84Zm-2.66-1.18c-.08-1.64-.93-2.56-2.27-2.56-1.24,0-2.17,.84-2.42,2.56h4.69Z"/><path class="cls-3" d="M523.92,49.53c0-3.53,2.15-5.67,5.08-5.67s4.43,1.7,4.77,4.07h-2.64c-.24-1.22-.93-1.83-2.15-1.83-1.48,0-2.42,1.26-2.42,3.4s.91,3.46,2.44,3.46c1.24,0,1.87-.63,2.13-1.83h2.62c-.33,2.42-1.97,4.07-4.75,4.07-2.94,0-5.08-2.14-5.08-5.69Z"/><path class="cls-3" d="M535.19,40.92c0-.9,.63-1.64,1.58-1.64s1.54,.73,1.54,1.64-.63,1.64-1.54,1.64-1.58-.76-1.58-1.64Zm.26,3.19h2.6v10.86h-2.6v-10.86Z"/><path class="cls-3" d="M549,47.85v7.12h-2.34v-1.39c-.79,1.11-1.87,1.64-3.25,1.64-2.17,0-3.66-1.37-3.66-3.25s1.06-3.09,3.6-3.36l3.07-.34v-.59c0-1.22-.71-1.81-1.83-1.81-1.18,0-1.83,.5-2.03,1.58h-2.6c.28-2.35,1.91-3.59,4.59-3.59s4.45,1.24,4.45,3.99Zm-2.6,2.88v-.8l-2.44,.34c-1.08,.15-1.58,.76-1.58,1.57s.63,1.51,1.71,1.51c1.5,0,2.31-1.07,2.31-2.62Z"/><path class="cls-3" d="M553.76,54.97h-2.6v-15.12h2.6v15.12Z"/><path class="cls-3" d="M555.71,40.92c0-.9,.63-1.64,1.58-1.64s1.54,.73,1.54,1.64-.63,1.64-1.54,1.64-1.58-.76-1.58-1.64Zm.26,3.19h2.6v10.86h-2.6v-10.86Z"/><path class="cls-3" d="M568.59,52.68v2.29h-8.47v-2.18l5.08-6.38h-4.89v-2.29h8.21v2.16l-5.08,6.4h5.14Z"/><path class="cls-3" d="M579.03,47.85v7.12h-2.34v-1.39c-.79,1.11-1.87,1.64-3.25,1.64-2.17,0-3.66-1.37-3.66-3.25s1.06-3.09,3.6-3.36l3.07-.34v-.59c0-1.22-.71-1.81-1.83-1.81-1.18,0-1.83,.5-2.03,1.58h-2.6c.28-2.35,1.91-3.59,4.59-3.59s4.45,1.24,4.45,3.99Zm-2.6,2.88v-.8l-2.44,.34c-1.08,.15-1.58,.76-1.58,1.57s.63,1.51,1.71,1.51c1.5,0,2.31-1.07,2.31-2.62Z"/><path class="cls-3" d="M584.39,46.4v4.83c0,1.03,.47,1.53,1.34,1.53,.35,0,.59-.02,.83-.08v2.25c-.51,.15-.81,.17-1.44,.17-2.3,0-3.33-1.39-3.33-3.74v-4.96h-1.6v-2.29h1.6v-3.06h2.6v3.06h2.17v2.29h-2.17Z"/><path class="cls-3" d="M587.87,40.92c0-.9,.63-1.64,1.58-1.64s1.54,.73,1.54,1.64-.63,1.64-1.54,1.64-1.58-.76-1.58-1.64Zm.26,3.19h2.6v10.86h-2.6v-10.86Z"/><path class="cls-3" d="M592.35,49.55c0-3.49,2.25-5.69,5.18-5.69s5.16,2.21,5.16,5.69-2.25,5.67-5.16,5.67-5.18-2.18-5.18-5.67Zm7.68,0c0-2.12-.95-3.44-2.52-3.44s-2.52,1.34-2.52,3.44,.95,3.42,2.52,3.42,2.52-1.32,2.52-3.42Z"/><path class="cls-3" d="M613.67,48.12v6.84h-2.6v-6.21c0-1.79-.79-2.58-1.99-2.58s-2.11,.88-2.11,2.58v6.21h-2.6v-10.86h2.34v1.53c.67-1.2,1.75-1.79,3.21-1.79,2.13,0,3.74,1.34,3.74,4.26Z"/><path class="cls-3" d="M631.46,44.8c0,2.37-1.56,4.3-4.73,4.3h-3.41v5.86h-2.72v-14.26h6.19c3.17,0,4.67,1.7,4.67,4.09Zm-2.7,.06c0-1.26-.77-1.93-2.42-1.93h-3.01v3.95h3.03c1.64,0,2.4-.82,2.4-2.02Z"/><path class="cls-3" d="M638.52,44.09v2.44c-.16-.02-.33-.04-.59-.04-1.6,0-2.46,.99-2.46,2.71v5.77h-2.6v-10.86h2.34v1.87c.49-1.3,1.5-1.97,2.7-1.97,.22,0,.39,.02,.61,.08Z"/><path class="cls-3" d="M639.26,49.55c0-3.49,2.25-5.69,5.18-5.69s5.16,2.21,5.16,5.69-2.25,5.67-5.16,5.67-5.18-2.18-5.18-5.67Zm7.68,0c0-2.12-.95-3.44-2.52-3.44s-2.52,1.34-2.52,3.44,.95,3.42,2.52,3.42,2.52-1.32,2.52-3.42Z"/><path class="cls-3" d="M661.02,44.11v10.31c0,2.6-1.44,4.75-5.04,4.75s-4.85-1.66-5.06-3.84h2.74c.1,1.11,.71,1.83,2.32,1.83s2.46-.9,2.46-2.62v-1.72c-.71,1.15-1.75,1.66-3.13,1.66-2.5,0-4.55-2.04-4.55-5.31s2.03-5.29,4.55-5.29c1.46,0,2.62,.65,3.33,1.85v-1.6h2.38Zm-2.58,5.04c0-1.87-1.1-3.09-2.54-3.09s-2.52,1.22-2.52,3.09,1.1,3.11,2.52,3.11,2.54-1.28,2.54-3.11Z"/><path class="cls-3" d="M668.88,44.09v2.44c-.16-.02-.33-.04-.59-.04-1.6,0-2.46,.99-2.46,2.71v5.77h-2.6v-10.86h2.34v1.87c.49-1.3,1.5-1.97,2.7-1.97,.22,0,.39,.02,.61,.08Z"/><path class="cls-3" d="M679.03,47.85v7.12h-2.34v-1.39c-.79,1.11-1.87,1.64-3.25,1.64-2.17,0-3.66-1.37-3.66-3.25s1.06-3.09,3.6-3.36l3.07-.34v-.59c0-1.22-.71-1.81-1.83-1.81-1.18,0-1.83,.5-2.03,1.58h-2.6c.28-2.35,1.91-3.59,4.59-3.59s4.45,1.24,4.45,3.99Zm-2.6,2.88v-.8l-2.44,.34c-1.08,.15-1.58,.76-1.58,1.57s.63,1.51,1.71,1.51c1.5,0,2.31-1.07,2.31-2.62Z"/><path class="cls-3" d="M696.76,48.16v6.8h-2.6v-6.24c0-1.7-.79-2.48-1.89-2.48s-2.01,.8-2.01,2.35v6.36h-2.6v-6.24c0-1.7-.79-2.48-1.89-2.48s-1.99,.78-1.99,2.35v6.36h-2.6v-10.86h2.34v1.51c.65-1.18,1.75-1.76,3.11-1.76,1.46,0,2.58,.71,3.17,2,.69-1.32,1.85-2,3.29-2,2.23,0,3.66,1.6,3.66,4.3Z"/><path class="cls-3" d="M712.18,47.85v7.12h-2.34v-1.39c-.79,1.11-1.87,1.64-3.25,1.64-2.17,0-3.66-1.37-3.66-3.25s1.06-3.09,3.6-3.36l3.07-.34v-.59c0-1.22-.71-1.81-1.83-1.81-1.18,0-1.83,.5-2.03,1.58h-2.6c.28-2.35,1.91-3.59,4.59-3.59s4.45,1.24,4.45,3.99Zm-2.6,2.88v-.8l-2.44,.34c-1.08,.15-1.58,.76-1.58,1.57s.63,1.51,1.71,1.51c1.5,0,2.31-1.07,2.31-2.62Z"/><path class="cls-3" d="M717.55,46.4v4.83c0,1.03,.47,1.53,1.34,1.53,.35,0,.59-.02,.83-.08v2.25c-.51,.15-.81,.17-1.44,.17-2.3,0-3.33-1.39-3.33-3.74v-4.96h-1.6v-2.29h1.6v-3.06h2.6v3.06h2.17v2.29h-2.17Z"/><path class="cls-3" d="M729.27,46.4v4.83c0,1.03,.47,1.53,1.34,1.53,.35,0,.59-.02,.83-.08v2.25c-.51,.15-.81,.17-1.44,.17-2.3,0-3.33-1.39-3.33-3.74v-4.96h-1.6v-2.29h1.6v-3.06h2.6v3.06h2.17v2.29h-2.17Z"/><path class="cls-3" d="M742.38,48.14v6.82h-2.6v-6.28c0-1.68-.87-2.5-2.01-2.5s-2.09,.88-2.09,2.54v6.24h-2.6v-15.12h2.6v5.71c.59-1.09,1.58-1.7,2.9-1.7,2.17,0,3.8,1.47,3.8,4.28Z"/><path class="cls-3" d="M753.97,49.7c0,.34-.02,.63-.02,.63h-7.37c.18,1.97,1.16,2.79,2.54,2.79,1.12,0,1.75-.53,2.05-1.32h2.58c-.45,1.93-2.07,3.42-4.65,3.42-3.25,0-5.12-2.31-5.12-5.61s2.07-5.75,5.04-5.75c3.19,0,5,2.35,4.94,5.84Zm-2.66-1.18c-.08-1.64-.93-2.56-2.27-2.56-1.24,0-2.17,.84-2.42,2.56h4.69Z"/><path class="cls-3" d="M771.9,49.17c0,3.95-2.05,6.05-5.79,6.05-3.94,0-5.79-2.1-5.79-6.05v-8.46h2.7v8.82c0,2.12,1.18,3.3,3.09,3.3s3.09-1.13,3.09-3.28v-8.84h2.7v8.46Z"/><path class="cls-3" d="M783.5,48.12v6.84h-2.6v-6.21c0-1.79-.79-2.58-1.99-2.58s-2.11,.88-2.11,2.58v6.21h-2.6v-10.86h2.34v1.53c.67-1.2,1.75-1.79,3.21-1.79,2.13,0,3.74,1.34,3.74,4.26Z"/><path class="cls-3" d="M785.38,40.92c0-.9,.63-1.64,1.58-1.64s1.54,.73,1.54,1.64-.63,1.64-1.54,1.64-1.58-.76-1.58-1.64Zm.26,3.19h2.6v10.86h-2.6v-10.86Z"/><path class="cls-3" d="M799.89,44.11l-3.68,10.86h-3.01l-3.78-10.86h2.7l2.62,8.13,2.48-8.13h2.68Z"/><path class="cls-3" d="M810.15,49.7c0,.34-.02,.63-.02,.63h-7.37c.18,1.97,1.16,2.79,2.54,2.79,1.12,0,1.75-.53,2.05-1.32h2.58c-.45,1.93-2.07,3.42-4.65,3.42-3.25,0-5.12-2.31-5.12-5.61s2.07-5.75,5.04-5.75c3.19,0,5,2.35,4.94,5.84Zm-2.66-1.18c-.08-1.64-.93-2.56-2.27-2.56-1.24,0-2.17,.84-2.42,2.56h4.69Z"/><path class="cls-3" d="M817.49,44.09v2.44c-.16-.02-.33-.04-.59-.04-1.6,0-2.46,.99-2.46,2.71v5.77h-2.6v-10.86h2.34v1.87c.49-1.3,1.5-1.97,2.7-1.97,.22,0,.39,.02,.61,.08Z"/><path class="cls-3" d="M818.38,51.8h2.54c.22,.96,.93,1.47,2.17,1.47s1.89-.5,1.89-1.24c0-.63-.35-1.07-1.28-1.24l-2.19-.44c-2.07-.42-2.94-1.45-2.94-3.11,0-1.81,1.46-3.38,4.24-3.38s4.25,1.41,4.59,3.59h-2.56c-.16-1.09-.87-1.64-2.05-1.64s-1.77,.57-1.77,1.26c0,.59,.3,.99,1.36,1.18l2.15,.4c2.23,.4,3.03,1.51,3.03,3.19,0,1.81-1.34,3.38-4.45,3.38s-4.35-1.39-4.73-3.42Z"/><path class="cls-3" d="M828.98,40.92c0-.9,.63-1.64,1.58-1.64s1.54,.73,1.54,1.64-.63,1.64-1.54,1.64-1.58-.76-1.58-1.64Zm.26,3.19h2.6v10.86h-2.6v-10.86Z"/><path class="cls-3" d="M837.32,46.4v4.83c0,1.03,.47,1.53,1.34,1.53,.35,0,.59-.02,.83-.08v2.25c-.51,.15-.81,.17-1.44,.17-2.3,0-3.33-1.39-3.33-3.74v-4.96h-1.6v-2.29h1.6v-3.06h2.6v3.06h2.17v2.29h-2.17Z"/><path class="cls-3" d="M850.87,44.11l-6.01,14.8h-2.76l2.15-4.91-3.9-9.89h2.76l2.48,7.12,2.64-7.12h2.64Z"/><path class="cls-3" d="M855.94,49.55c0-3.49,2.25-5.69,5.18-5.69s5.16,2.21,5.16,5.69-2.25,5.67-5.16,5.67-5.18-2.18-5.18-5.67Zm7.68,0c0-2.12-.95-3.44-2.52-3.44s-2.52,1.34-2.52,3.44,.95,3.42,2.52,3.42,2.52-1.32,2.52-3.42Z"/><path class="cls-3" d="M871.18,43.46v.65h2.42v2.29h-2.42v8.57h-2.6v-8.57h-1.6v-2.29h1.6v-.63c0-2.52,1.46-3.84,3.6-3.84,.59,0,1.1,.08,1.52,.23v2.12c-.3-.08-.61-.13-.93-.13-1.04,0-1.6,.53-1.6,1.6Z"/><path class="cls-3" d="M890.82,50.85c0,2.33-1.48,4.12-4.75,4.12h-6.34v-14.26h5.97c3.11,0,4.53,1.51,4.53,3.78,0,1.36-.69,2.52-2.15,2.98,1.95,.48,2.74,1.64,2.74,3.38Zm-8.39-7.92v3.65h3.03c1.34,0,2.07-.76,2.07-1.85,0-1.2-.81-1.81-2.19-1.81h-2.92Zm5.67,7.79c0-1.39-.95-1.93-2.36-1.93h-3.31v3.95h3.29c1.5,0,2.38-.61,2.38-2.02Z"/><path class="cls-3" d="M901.68,44.11v10.86h-2.32v-1.64c-.69,1.24-1.79,1.89-3.17,1.89-2.29,0-3.6-1.41-3.6-3.99v-7.12h2.6v6.74c0,1.3,.63,2.06,1.77,2.06,1.28,0,2.13-.97,2.13-2.46v-6.34h2.6Z"/><path class="cls-3" d="M913.35,49.7c0,.34-.02,.63-.02,.63h-7.37c.18,1.97,1.16,2.79,2.54,2.79,1.12,0,1.75-.53,2.05-1.32h2.58c-.45,1.93-2.07,3.42-4.65,3.42-3.25,0-5.12-2.31-5.12-5.61s2.07-5.75,5.04-5.75c3.19,0,5,2.35,4.94,5.84Zm-2.66-1.18c-.08-1.64-.93-2.56-2.27-2.56-1.24,0-2.17,.84-2.42,2.56h4.69Z"/><path class="cls-3" d="M924.34,48.12v6.84h-2.6v-6.21c0-1.79-.79-2.58-1.99-2.58s-2.11,.88-2.11,2.58v6.21h-2.6v-10.86h2.34v1.53c.67-1.2,1.75-1.79,3.21-1.79,2.13,0,3.74,1.34,3.74,4.26Z"/><path class="cls-3" d="M925.91,49.55c0-3.49,2.25-5.69,5.18-5.69s5.16,2.21,5.16,5.69-2.25,5.67-5.16,5.67-5.18-2.18-5.18-5.67Zm7.68,0c0-2.12-.95-3.44-2.52-3.44s-2.52,1.34-2.52,3.44,.95,3.42,2.52,3.42,2.52-1.32,2.52-3.42Z"/><path class="cls-3" d="M937.27,51.8h2.54c.22,.96,.93,1.47,2.17,1.47s1.89-.5,1.89-1.24c0-.63-.35-1.07-1.28-1.24l-2.19-.44c-2.07-.42-2.94-1.45-2.94-3.11,0-1.81,1.46-3.38,4.24-3.38s4.25,1.41,4.59,3.59h-2.56c-.16-1.09-.87-1.64-2.05-1.64s-1.77,.57-1.77,1.26c0,.59,.3,.99,1.36,1.18l2.15,.4c2.23,.4,3.03,1.51,3.03,3.19,0,1.81-1.34,3.38-4.45,3.38s-4.35-1.39-4.73-3.42Z"/><path class="cls-3" d="M960.79,51.57h-5.3l-1.08,3.4h-2.86l5.06-14.26h3.15l4.92,14.26h-2.86l-1.04-3.4Zm-.71-2.31l-1.91-6.19-1.95,6.19h3.86Z"/><path class="cls-3" d="M965.65,40.92c0-.9,.63-1.64,1.58-1.64s1.54,.73,1.54,1.64-.63,1.64-1.54,1.64-1.58-.76-1.58-1.64Zm.26,3.19h2.6v10.86h-2.6v-10.86Z"/><path class="cls-3" d="M976.38,44.09v2.44c-.16-.02-.33-.04-.59-.04-1.6,0-2.46,.99-2.46,2.71v5.77h-2.6v-10.86h2.34v1.87c.49-1.3,1.5-1.97,2.7-1.97,.22,0,.39,.02,.61,.08Z"/><path class="cls-3" d="M987.12,49.7c0,.34-.02,.63-.02,.63h-7.37c.18,1.97,1.16,2.79,2.54,2.79,1.12,0,1.75-.53,2.05-1.32h2.58c-.45,1.93-2.07,3.42-4.65,3.42-3.25,0-5.12-2.31-5.12-5.61s2.07-5.75,5.04-5.75c3.19,0,5,2.35,4.94,5.84Zm-2.66-1.18c-.08-1.64-.93-2.56-2.27-2.56-1.24,0-2.17,.84-2.42,2.56h4.69Z"/><path class="cls-3" d="M988.18,51.8h2.54c.22,.96,.93,1.47,2.17,1.47s1.89-.5,1.89-1.24c0-.63-.35-1.07-1.28-1.24l-2.19-.44c-2.07-.42-2.94-1.45-2.94-3.11,0-1.81,1.46-3.38,4.24-3.38s4.25,1.41,4.59,3.59h-2.56c-.16-1.09-.87-1.64-2.05-1.64s-1.77,.57-1.77,1.26c0,.59,.3,.99,1.36,1.18l2.15,.4c2.23,.4,3.03,1.51,3.03,3.19,0,1.81-1.34,3.38-4.45,3.38s-4.35-1.39-4.73-3.42Z"/><path class="cls-3" d="M1000.63,57.76h-1.75c.55-1.11,.85-1.85,1.08-2.67l-.18-.1c-.61-.29-.93-.82-.93-1.55,0-.96,.73-1.76,1.67-1.76s1.67,.76,1.67,1.81-.3,2.08-1.58,4.28Z"/><path class="cls-3" d="M1008.41,40.92c0-.9,.63-1.64,1.58-1.64s1.54,.73,1.54,1.64-.63,1.64-1.54,1.64-1.58-.76-1.58-1.64Zm.26,3.19h2.6v10.86h-2.6v-10.86Z"/><path class="cls-3" d="M1022.79,48.12v6.84h-2.6v-6.21c0-1.79-.79-2.58-1.99-2.58s-2.11,.88-2.11,2.58v6.21h-2.6v-10.86h2.34v1.53c.67-1.2,1.75-1.79,3.21-1.79,2.13,0,3.74,1.34,3.74,4.26Z"/><path class="cls-3" d="M1039.06,52.66v2.31h-10.05v-.78c0-2.35,1.06-3.97,3.03-5.19l2.7-1.68c1.1-.69,1.52-1.43,1.52-2.39,0-1.16-.69-2.16-2.09-2.16s-2.36,1.11-2.32,2.88h-2.66c-.12-2.83,1.75-5.19,4.98-5.19s4.83,2.08,4.83,4.49c0,1.55-.55,2.92-2.34,4.07l-3.17,2.02c-.65,.42-1.1,.88-1.32,1.62h6.9Z"/><path class="cls-3" d="M1040.45,47.85c0-4.66,2.27-7.39,5.73-7.39s5.71,2.73,5.71,7.39-2.25,7.37-5.71,7.37-5.73-2.62-5.73-7.37Zm8.73,0c0-3.15-.87-5.04-2.99-5.04s-3.01,1.89-3.01,5.04,.93,5.06,3.01,5.06,2.99-1.91,2.99-5.06Z"/><path class="cls-3" d="M1059.13,40.71v14.26h-2.7v-10.27c-.91,.65-1.81,.9-3.37,.9v-2.29c2.42-.08,3.21-1.03,3.68-2.6h2.38Z"/><path class="cls-3" d="M1071.2,52.66v2.31h-10.05v-.78c0-2.35,1.06-3.97,3.03-5.19l2.7-1.68c1.1-.69,1.52-1.43,1.52-2.39,0-1.16-.69-2.16-2.09-2.16s-2.36,1.11-2.32,2.88h-2.66c-.12-2.83,1.75-5.19,4.98-5.19s4.83,2.08,4.83,4.49c0,1.55-.55,2.92-2.34,4.07l-3.17,2.02c-.65,.42-1.1,.88-1.32,1.62h6.9Z"/><path class="cls-3" d="M1076.54,53.43c0,.99-.75,1.79-1.67,1.79s-1.67-.8-1.67-1.79,.75-1.76,1.67-1.76,1.67,.8,1.67,1.76Z"/><path class="cls-3" d="M1094.37,50.85c0,2.33-1.48,4.12-4.75,4.12h-6.34v-14.26h5.97c3.11,0,4.53,1.51,4.53,3.78,0,1.36-.69,2.52-2.15,2.98,1.95,.48,2.74,1.64,2.74,3.38Zm-8.39-7.92v3.65h3.03c1.34,0,2.07-.76,2.07-1.85,0-1.2-.81-1.81-2.19-1.81h-2.92Zm5.67,7.79c0-1.39-.95-1.93-2.36-1.93h-3.31v3.95h3.29c1.5,0,2.38-.61,2.38-2.02Z"/><path class="cls-3" d="M1104.95,47.85v7.12h-2.34v-1.39c-.79,1.11-1.87,1.64-3.25,1.64-2.17,0-3.66-1.37-3.66-3.25s1.06-3.09,3.6-3.36l3.07-.34v-.59c0-1.22-.71-1.81-1.83-1.81-1.18,0-1.83,.5-2.03,1.58h-2.6c.28-2.35,1.91-3.59,4.59-3.59s4.45,1.24,4.45,3.99Zm-2.6,2.88v-.8l-2.44,.34c-1.08,.15-1.58,.76-1.58,1.57s.63,1.51,1.71,1.51c1.5,0,2.31-1.07,2.31-2.62Z"/><path class="cls-3" d="M1106.49,51.8h2.54c.22,.96,.93,1.47,2.17,1.47s1.89-.5,1.89-1.24c0-.63-.35-1.07-1.28-1.24l-2.19-.44c-2.07-.42-2.94-1.45-2.94-3.11,0-1.81,1.46-3.38,4.24-3.38s4.25,1.41,4.59,3.59h-2.56c-.16-1.09-.87-1.64-2.05-1.64s-1.77,.57-1.77,1.26c0,.59,.3,.99,1.36,1.18l2.15,.4c2.23,.4,3.03,1.51,3.03,3.19,0,1.81-1.34,3.38-4.45,3.38s-4.35-1.39-4.73-3.42Z"/><path class="cls-3" d="M1126.75,49.7c0,.34-.02,.63-.02,.63h-7.37c.18,1.97,1.16,2.79,2.54,2.79,1.12,0,1.75-.53,2.05-1.32h2.58c-.45,1.93-2.07,3.42-4.65,3.42-3.25,0-5.12-2.31-5.12-5.61s2.07-5.75,5.04-5.75c3.19,0,5,2.35,4.94,5.84Zm-2.66-1.18c-.08-1.64-.93-2.56-2.27-2.56-1.24,0-2.17,.84-2.42,2.56h4.69Z"/><path class="cls-3" d="M1138.19,39.85v15.12h-2.34v-1.83c-.65,1.36-1.79,2.08-3.35,2.08-2.42,0-4.59-2.08-4.59-5.67s2.07-5.69,4.49-5.69c1.42,0,2.5,.57,3.19,1.62v-5.63h2.6Zm-2.6,9.7c0-2.08-1.06-3.46-2.52-3.46-1.54,0-2.54,1.36-2.54,3.46s1.06,3.44,2.54,3.44,2.52-1.32,2.52-3.44Z"/><path class="cls-3" d="M1144.38,49.55c0-3.49,2.25-5.69,5.18-5.69s5.16,2.21,5.16,5.69-2.25,5.67-5.16,5.67-5.18-2.18-5.18-5.67Zm7.68,0c0-2.12-.95-3.44-2.52-3.44s-2.52,1.34-2.52,3.44,.95,3.42,2.52,3.42,2.52-1.32,2.52-3.42Z"/><path class="cls-3" d="M1165.7,48.12v6.84h-2.6v-6.21c0-1.79-.79-2.58-1.99-2.58s-2.11,.88-2.11,2.58v6.21h-2.6v-10.86h2.34v1.53c.67-1.2,1.75-1.79,3.21-1.79,2.13,0,3.74,1.34,3.74,4.26Z"/><path class="cls-3" d="M1184.4,40.71l-5.36,14.26h-2.54l-5.22-14.26h2.76l3.8,11.09,3.78-11.09h2.78Z"/><path class="cls-3" d="M1185.44,40.92c0-.9,.63-1.64,1.58-1.64s1.54,.73,1.54,1.64-.63,1.64-1.54,1.64-1.58-.76-1.58-1.64Zm.26,3.19h2.6v10.86h-2.6v-10.86Z"/><path class="cls-3" d="M1189.93,49.53c0-3.53,2.15-5.67,5.08-5.67s4.43,1.7,4.77,4.07h-2.64c-.24-1.22-.93-1.83-2.15-1.83-1.48,0-2.42,1.26-2.42,3.4s.91,3.46,2.44,3.46c1.24,0,1.87-.63,2.13-1.83h2.62c-.33,2.42-1.97,4.07-4.75,4.07-2.94,0-5.08-2.14-5.08-5.69Z"/><path class="cls-3" d="M1210.88,49.7c0,.34-.02,.63-.02,.63h-7.37c.18,1.97,1.16,2.79,2.54,2.79,1.12,0,1.75-.53,2.05-1.32h2.58c-.45,1.93-2.07,3.42-4.65,3.42-3.25,0-5.12-2.31-5.12-5.61s2.07-5.75,5.04-5.75c3.19,0,5,2.35,4.94,5.84Zm-2.66-1.18c-.08-1.64-.93-2.56-2.27-2.56-1.24,0-2.17,.84-2.42,2.56h4.69Z"/><path class="cls-3" d="M1221.87,48.12v6.84h-2.6v-6.21c0-1.79-.79-2.58-1.99-2.58s-2.11,.88-2.11,2.58v6.21h-2.6v-10.86h2.34v1.53c.67-1.2,1.75-1.79,3.21-1.79,2.13,0,3.74,1.34,3.74,4.26Z"/><path class="cls-3" d="M1227.22,46.4v4.83c0,1.03,.47,1.53,1.34,1.53,.35,0,.59-.02,.83-.08v2.25c-.51,.15-.81,.17-1.44,.17-2.3,0-3.33-1.39-3.33-3.74v-4.96h-1.6v-2.29h1.6v-3.06h2.6v3.06h2.17v2.29h-2.17Z"/><path class="cls-3" d="M1240.23,49.7c0,.34-.02,.63-.02,.63h-7.37c.18,1.97,1.16,2.79,2.54,2.79,1.12,0,1.75-.53,2.05-1.32h2.58c-.45,1.93-2.07,3.42-4.65,3.42-3.25,0-5.12-2.31-5.12-5.61s2.07-5.75,5.04-5.75c3.19,0,5,2.35,4.94,5.84Zm-2.66-1.18c-.08-1.64-.93-2.56-2.27-2.56-1.24,0-2.17,.84-2.42,2.56h4.69Z"/><path class="cls-3" d="M85.42,69.71v14.26h-2.7v-6.21h-6.6v6.21h-2.7v-14.26h2.7v5.67h6.6v-5.67h2.7Z"/><path class="cls-3" d="M96.92,73.11v10.86h-2.32v-1.64c-.69,1.24-1.79,1.89-3.17,1.89-2.29,0-3.6-1.41-3.6-3.99v-7.12h2.6v6.74c0,1.3,.63,2.06,1.77,2.06,1.28,0,2.13-.97,2.13-2.46v-6.34h2.6Z"/><path class="cls-3" d="M98.89,69.92c0-.9,.63-1.64,1.58-1.64s1.54,.73,1.54,1.64-.63,1.64-1.54,1.64-1.58-.76-1.58-1.64Zm.26,3.19h2.6v10.86h-2.6v-10.86Z"/><path class="cls-3" d="M113.71,68.85v15.12h-2.34v-1.83c-.65,1.36-1.79,2.08-3.35,2.08-2.42,0-4.59-2.08-4.59-5.67s2.07-5.69,4.49-5.69c1.42,0,2.5,.57,3.19,1.62v-5.63h2.6Zm-2.6,9.7c0-2.08-1.06-3.46-2.52-3.46-1.54,0-2.54,1.36-2.54,3.46s1.06,3.44,2.54,3.44,2.52-1.32,2.52-3.44Z"/><path class="cls-3" d="M115.38,78.55c0-3.49,2.25-5.69,5.18-5.69s5.16,2.21,5.16,5.69-2.25,5.67-5.16,5.67-5.18-2.18-5.18-5.67Zm7.68,0c0-2.12-.95-3.44-2.52-3.44s-2.52,1.34-2.52,3.44,.95,3.42,2.52,3.42,2.52-1.32,2.52-3.42Z"/><path class="cls-3" d="M137.67,78.55c0,3.59-2.17,5.67-4.59,5.67-1.46,0-2.58-.69-3.29-1.89v1.64h-2.38v-15.12h2.58v5.63c.69-1.05,1.77-1.62,3.19-1.62,2.42,0,4.49,2.04,4.49,5.69Zm-2.62,0c0-2.1-1-3.46-2.54-3.46-1.46,0-2.52,1.38-2.52,3.46s1.04,3.44,2.52,3.44,2.54-1.34,2.54-3.44Z"/><path class="cls-3" d="M145.02,73.09v2.44c-.16-.02-.33-.04-.59-.04-1.6,0-2.46,.99-2.46,2.71v5.77h-2.6v-10.86h2.34v1.87c.49-1.3,1.5-1.97,2.7-1.97,.22,0,.39,.02,.61,.08Z"/><path class="cls-3" d="M145.78,78.55c0-3.49,2.25-5.69,5.18-5.69s5.16,2.21,5.16,5.69-2.25,5.67-5.16,5.67-5.18-2.18-5.18-5.67Zm7.68,0c0-2.12-.95-3.44-2.52-3.44s-2.52,1.34-2.52,3.44,.95,3.42,2.52,3.42,2.52-1.32,2.52-3.42Z"/><path class="cls-3" d="M158.94,75.82h-1.75c.55-1.13,.85-1.87,1.08-2.69l-.18-.11c-.61-.27-.93-.82-.93-1.55,0-.97,.73-1.76,1.67-1.76s1.67,.78,1.67,1.8-.3,2.08-1.58,4.3Z"/><path class="cls-3" d="M161.42,80.8h2.54c.22,.96,.93,1.47,2.17,1.47s1.89-.5,1.89-1.24c0-.63-.35-1.07-1.28-1.24l-2.19-.44c-2.07-.42-2.94-1.45-2.94-3.11,0-1.81,1.46-3.38,4.24-3.38s4.25,1.41,4.59,3.59h-2.56c-.16-1.09-.87-1.64-2.05-1.64s-1.77,.57-1.77,1.26c0,.59,.3,.99,1.36,1.18l2.15,.4c2.23,.4,3.03,1.51,3.03,3.19,0,1.81-1.34,3.38-4.45,3.38s-4.35-1.39-4.73-3.42Z"/><path class="cls-3" d="M187.08,78.55c0,3.59-2.19,5.67-4.61,5.67-1.34,0-2.36-.57-3.07-1.57v5.27h-2.6v-14.8h2.34v1.76c.69-1.28,1.83-2.02,3.45-2.02,2.42,0,4.49,2.04,4.49,5.69Zm-2.64,0c0-2.08-1-3.46-2.54-3.46-1.46,0-2.5,1.41-2.5,3.46s1.04,3.44,2.5,3.44,2.54-1.34,2.54-3.44Z"/><path class="cls-3" d="M188.23,78.55c0-3.49,2.25-5.69,5.18-5.69s5.16,2.21,5.16,5.69-2.25,5.67-5.16,5.67-5.18-2.18-5.18-5.67Zm7.68,0c0-2.12-.95-3.44-2.52-3.44s-2.52,1.34-2.52,3.44,.95,3.42,2.52,3.42,2.52-1.32,2.52-3.42Z"/><path class="cls-3" d="M209.7,78.7c0,.34-.02,.63-.02,.63h-7.37c.18,1.97,1.16,2.79,2.54,2.79,1.12,0,1.75-.53,2.05-1.32h2.58c-.45,1.93-2.07,3.42-4.65,3.42-3.25,0-5.12-2.31-5.12-5.61s2.07-5.75,5.04-5.75c3.19,0,5,2.35,4.94,5.84Zm-2.66-1.18c-.08-1.64-.93-2.56-2.27-2.56-1.24,0-2.17,.84-2.42,2.56h4.69Z"/><path class="cls-3" d="M226.97,77.16v6.8h-2.6v-6.24c0-1.7-.79-2.48-1.89-2.48s-2.01,.8-2.01,2.35v6.36h-2.6v-6.24c0-1.7-.79-2.48-1.89-2.48s-1.99,.78-1.99,2.35v6.36h-2.6v-10.86h2.34v1.51c.65-1.18,1.75-1.76,3.11-1.76,1.46,0,2.58,.71,3.17,2,.69-1.32,1.85-2,3.29-2,2.23,0,3.66,1.6,3.66,4.3Z"/><path class="cls-3" d="M233.28,74.01c0-1.05,.3-2.08,1.56-4.3h1.75c-.53,1.13-.85,1.87-1.08,2.69l.2,.08c.59,.29,.91,.82,.91,1.57,0,.97-.73,1.76-1.67,1.76s-1.65-.78-1.65-1.81Zm4.53,0c0-1.05,.3-2.08,1.58-4.3h1.75c-.55,1.13-.85,1.87-1.08,2.69l.18,.08c.61,.29,.93,.82,.93,1.57,0,.97-.73,1.76-1.67,1.76s-1.67-.78-1.67-1.81Z"/><path class="cls-3" d="M249.98,80.57h-5.3l-1.08,3.4h-2.86l5.06-14.26h3.15l4.92,14.26h-2.86l-1.04-3.4Zm-.71-2.31l-1.91-6.19-1.95,6.19h3.86Z"/><path class="cls-3" d="M257.69,83.97h-2.6v-15.12h2.6v15.12Z"/><path class="cls-3" d="M263.2,75.4v4.83c0,1.03,.47,1.53,1.34,1.53,.35,0,.59-.02,.83-.08v2.25c-.51,.15-.81,.17-1.44,.17-2.3,0-3.33-1.39-3.33-3.74v-4.96h-1.6v-2.29h1.6v-3.06h2.6v3.06h2.17v2.29h-2.17Z"/><path class="cls-3" d="M275.74,76.85v7.12h-2.34v-1.39c-.79,1.11-1.87,1.64-3.25,1.64-2.17,0-3.66-1.37-3.66-3.25s1.06-3.09,3.6-3.36l3.07-.34v-.59c0-1.22-.71-1.81-1.83-1.81-1.18,0-1.83,.5-2.03,1.58h-2.6c.28-2.35,1.91-3.59,4.59-3.59s4.45,1.24,4.45,3.99Zm-2.6,2.88v-.8l-2.44,.34c-1.08,.15-1.58,.76-1.58,1.57s.63,1.51,1.71,1.51c1.5,0,2.31-1.07,2.31-2.62Z"/><path class="cls-3" d="M285.67,81.68v2.29h-8.47v-2.18l5.08-6.38h-4.89v-2.29h8.21v2.16l-5.08,6.4h5.14Z"/><path class="cls-3" d="M286.65,78.55c0-3.49,2.25-5.69,5.18-5.69s5.16,2.21,5.16,5.69-2.25,5.67-5.16,5.67-5.18-2.18-5.18-5.67Zm7.68,0c0-2.12-.95-3.44-2.52-3.44s-2.52,1.34-2.52,3.44,.95,3.42,2.52,3.42,2.52-1.32,2.52-3.42Z"/><path class="cls-3" d="M304.33,73.09v2.44c-.16-.02-.33-.04-.59-.04-1.6,0-2.46,.99-2.46,2.71v5.77h-2.6v-10.86h2.34v1.87c.49-1.3,1.5-1.97,2.7-1.97,.22,0,.39,.02,.61,.08Z"/><path class="cls-3" d="M306.84,73.13l-.18-.11c-.61-.27-.93-.82-.93-1.55,0-.97,.73-1.76,1.67-1.76s1.67,.78,1.67,1.8-.3,2.08-1.58,4.3h-1.75c.55-1.13,.85-1.87,1.08-2.69Zm4.55,0l-.2-.11c-.59-.27-.93-.82-.93-1.55,0-.97,.75-1.76,1.69-1.76s1.65,.78,1.65,1.8-.3,2.08-1.56,4.3h-1.75c.53-1.13,.83-1.87,1.08-2.69Z"/><path class="cls-3" d="M317.21,82.43c0,.99-.75,1.79-1.67,1.79s-1.67-.8-1.67-1.79,.75-1.76,1.67-1.76,1.67,.8,1.67,1.76Z"/><path class="cls-3" d="M338.86,69.71v14.26h-2.7v-11.65l-3.66,11.65h-2.15l-3.68-11.67v11.67h-2.72v-14.26h4.24l3.25,10.22,3.21-10.22h4.22Z"/><path class="cls-3" d="M341.11,69.92c0-.9,.63-1.64,1.58-1.64s1.54,.73,1.54,1.64-.63,1.64-1.54,1.64-1.58-.76-1.58-1.64Zm.26,3.19h2.6v10.86h-2.6v-10.86Z"/><path class="cls-3" d="M348.79,83.97h-2.6v-15.12h2.6v15.12Z"/><path class="cls-3" d="M359.77,76.85v7.12h-2.34v-1.39c-.79,1.11-1.87,1.64-3.25,1.64-2.17,0-3.66-1.37-3.66-3.25s1.06-3.09,3.6-3.36l3.07-.34v-.59c0-1.22-.71-1.81-1.83-1.81-1.18,0-1.83,.5-2.03,1.58h-2.6c.28-2.35,1.91-3.59,4.59-3.59s4.45,1.24,4.45,3.99Zm-2.6,2.88v-.8l-2.44,.34c-1.08,.15-1.58,.76-1.58,1.57s.63,1.51,1.71,1.51c1.5,0,2.31-1.07,2.31-2.62Z"/><path class="cls-3" d="M382.24,73.11l-3.13,10.86h-3.09l-2.15-7.6-2.07,7.6h-3.09l-3.11-10.86h2.7l2.07,8.11,2.15-8.11h2.9l2.17,8.11,2.01-8.11h2.66Z"/><path class="cls-3" d="M392.07,76.85v7.12h-2.34v-1.39c-.79,1.11-1.87,1.64-3.25,1.64-2.17,0-3.66-1.37-3.66-3.25s1.06-3.09,3.6-3.36l3.07-.34v-.59c0-1.22-.71-1.81-1.83-1.81-1.18,0-1.83,.5-2.03,1.58h-2.6c.28-2.35,1.91-3.59,4.59-3.59s4.45,1.24,4.45,3.99Zm-2.6,2.88v-.8l-2.44,.34c-1.08,.15-1.58,.76-1.58,1.57s.63,1.51,1.71,1.51c1.5,0,2.31-1.07,2.31-2.62Z"/><path class="cls-3" d="M393.61,80.8h2.54c.22,.96,.93,1.47,2.17,1.47s1.89-.5,1.89-1.24c0-.63-.35-1.07-1.28-1.24l-2.19-.44c-2.07-.42-2.94-1.45-2.94-3.11,0-1.81,1.46-3.38,4.24-3.38s4.25,1.41,4.59,3.59h-2.56c-.16-1.09-.87-1.64-2.05-1.64s-1.77,.57-1.77,1.26c0,.59,.3,.99,1.36,1.18l2.15,.4c2.23,.4,3.03,1.51,3.03,3.19,0,1.81-1.34,3.38-4.45,3.38s-4.35-1.39-4.73-3.42Z"/><path class="cls-3" d="M424.58,77.16v6.8h-2.6v-6.24c0-1.7-.79-2.48-1.89-2.48s-2.01,.8-2.01,2.35v6.36h-2.6v-6.24c0-1.7-.79-2.48-1.89-2.48s-1.99,.78-1.99,2.35v6.36h-2.6v-10.86h2.34v1.51c.65-1.18,1.75-1.76,3.11-1.76,1.46,0,2.58,.71,3.17,2,.69-1.32,1.85-2,3.29-2,2.23,0,3.66,1.6,3.66,4.3Z"/><path class="cls-3" d="M436.2,78.7c0,.34-.02,.63-.02,.63h-7.37c.18,1.97,1.16,2.79,2.54,2.79,1.12,0,1.75-.53,2.05-1.32h2.58c-.45,1.93-2.07,3.42-4.65,3.42-3.25,0-5.12-2.31-5.12-5.61s2.07-5.75,5.04-5.75c3.19,0,5,2.35,4.94,5.84Zm-2.66-1.18c-.08-1.64-.93-2.56-2.27-2.56-1.24,0-2.17,.84-2.42,2.56h4.69Z"/><path class="cls-3" d="M446.57,76.85v7.12h-2.34v-1.39c-.79,1.11-1.87,1.64-3.25,1.64-2.17,0-3.66-1.37-3.66-3.25s1.06-3.09,3.6-3.36l3.07-.34v-.59c0-1.22-.71-1.81-1.83-1.81-1.18,0-1.83,.5-2.03,1.58h-2.6c.28-2.35,1.91-3.59,4.59-3.59s4.45,1.24,4.45,3.99Zm-2.6,2.88v-.8l-2.44,.34c-1.08,.15-1.58,.76-1.58,1.57s.63,1.51,1.71,1.51c1.5,0,2.31-1.07,2.31-2.62Z"/><path class="cls-3" d="M458.02,77.12v6.84h-2.6v-6.21c0-1.79-.79-2.58-1.99-2.58s-2.11,.88-2.11,2.58v6.21h-2.6v-10.86h2.34v1.53c.67-1.2,1.75-1.79,3.21-1.79,2.13,0,3.74,1.34,3.74,4.26Z"/><path class="cls-3" d="M463.37,75.4v4.83c0,1.03,.47,1.53,1.34,1.53,.35,0,.59-.02,.83-.08v2.25c-.51,.15-.81,.17-1.44,.17-2.3,0-3.33-1.39-3.33-3.74v-4.96h-1.6v-2.29h1.6v-3.06h2.6v3.06h2.17v2.29h-2.17Z"/><path class="cls-3" d="M475.09,75.4v4.83c0,1.03,.47,1.53,1.34,1.53,.35,0,.59-.02,.83-.08v2.25c-.51,.15-.81,.17-1.44,.17-2.3,0-3.33-1.39-3.33-3.74v-4.96h-1.6v-2.29h1.6v-3.06h2.6v3.06h2.17v2.29h-2.17Z"/><path class="cls-3" d="M478.05,78.55c0-3.49,2.25-5.69,5.18-5.69s5.16,2.21,5.16,5.69-2.25,5.67-5.16,5.67-5.18-2.18-5.18-5.67Zm7.68,0c0-2.12-.95-3.44-2.52-3.44s-2.52,1.34-2.52,3.44,.95,3.42,2.52,3.42,2.52-1.32,2.52-3.42Z"/><path class="cls-3" d="M504.86,78.55c0,3.59-2.17,5.67-4.59,5.67-1.46,0-2.58-.69-3.29-1.89v1.64h-2.38v-15.12h2.58v5.63c.69-1.05,1.77-1.62,3.19-1.62,2.42,0,4.49,2.04,4.49,5.69Zm-2.62,0c0-2.1-1-3.46-2.54-3.46-1.46,0-2.52,1.38-2.52,3.46s1.04,3.44,2.52,3.44,2.54-1.34,2.54-3.44Z"/><path class="cls-3" d="M516.01,78.7c0,.34-.02,.63-.02,.63h-7.37c.18,1.97,1.16,2.79,2.54,2.79,1.12,0,1.75-.53,2.05-1.32h2.58c-.45,1.93-2.07,3.42-4.65,3.42-3.25,0-5.12-2.31-5.12-5.61s2.07-5.75,5.04-5.75c3.19,0,5,2.35,4.94,5.84Zm-2.66-1.18c-.08-1.64-.93-2.56-2.27-2.56-1.24,0-2.17,.84-2.42,2.56h4.69Z"/><path class="cls-3" d="M525.64,72.46v.65h2.42v2.29h-2.42v8.57h-2.6v-8.57h-1.6v-2.29h1.6v-.63c0-2.52,1.46-3.84,3.6-3.84,.59,0,1.1,.08,1.52,.23v2.12c-.3-.08-.61-.13-.93-.13-1.04,0-1.6,.53-1.6,1.6Z"/><path class="cls-3" d="M528.7,78.55c0-3.49,2.25-5.69,5.18-5.69s5.16,2.21,5.16,5.69-2.25,5.67-5.16,5.67-5.18-2.18-5.18-5.67Zm7.68,0c0-2.12-.95-3.44-2.52-3.44s-2.52,1.34-2.52,3.44,.95,3.42,2.52,3.42,2.52-1.32,2.52-3.42Z"/><path class="cls-3" d="M546.38,73.09v2.44c-.16-.02-.33-.04-.59-.04-1.6,0-2.46,.99-2.46,2.71v5.77h-2.6v-10.86h2.34v1.87c.49-1.3,1.5-1.97,2.7-1.97,.22,0,.39,.02,.61,.08Z"/><path class="cls-3" d="M562.65,78.55c0,3.59-2.19,5.67-4.61,5.67-1.34,0-2.36-.57-3.07-1.57v5.27h-2.6v-14.8h2.34v1.76c.69-1.28,1.83-2.02,3.45-2.02,2.42,0,4.49,2.04,4.49,5.69Zm-2.64,0c0-2.08-1-3.46-2.54-3.46-1.46,0-2.5,1.41-2.5,3.46s1.04,3.44,2.5,3.44,2.54-1.34,2.54-3.44Z"/><path class="cls-3" d="M563.79,78.55c0-3.49,2.25-5.69,5.18-5.69s5.16,2.21,5.16,5.69-2.25,5.67-5.16,5.67-5.18-2.18-5.18-5.67Zm7.68,0c0-2.12-.95-3.44-2.52-3.44s-2.52,1.34-2.52,3.44,.95,3.42,2.52,3.42,2.52-1.32,2.52-3.42Z"/><path class="cls-3" d="M585.26,78.7c0,.34-.02,.63-.02,.63h-7.37c.18,1.97,1.16,2.79,2.54,2.79,1.12,0,1.75-.53,2.05-1.32h2.58c-.45,1.93-2.07,3.42-4.65,3.42-3.25,0-5.12-2.31-5.12-5.61s2.07-5.75,5.04-5.75c3.19,0,5,2.35,4.94,5.84Zm-2.66-1.18c-.08-1.64-.93-2.56-2.27-2.56-1.24,0-2.17,.84-2.42,2.56h4.69Z"/><path class="cls-3" d="M590.2,75.4v4.83c0,1.03,.47,1.53,1.34,1.53,.35,0,.59-.02,.83-.08v2.25c-.51,.15-.81,.17-1.44,.17-2.3,0-3.33-1.39-3.33-3.74v-4.96h-1.6v-2.29h1.6v-3.06h2.6v3.06h2.17v2.29h-2.17Z"/><path class="cls-3" d="M599.67,73.09v2.44c-.16-.02-.33-.04-.59-.04-1.6,0-2.46,.99-2.46,2.71v5.77h-2.6v-10.86h2.34v1.87c.49-1.3,1.5-1.97,2.7-1.97,.22,0,.39,.02,.61,.08Z"/><path class="cls-3" d="M610.97,73.11l-6.01,14.8h-2.76l2.15-4.91-3.9-9.89h2.76l2.48,7.12,2.64-7.12h2.64Z"/><path class="cls-3" d="M619.97,75.4v4.83c0,1.03,.47,1.53,1.34,1.53,.35,0,.59-.02,.83-.08v2.25c-.51,.15-.81,.17-1.44,.17-2.3,0-3.33-1.39-3.33-3.74v-4.96h-1.6v-2.29h1.6v-3.06h2.6v3.06h2.17v2.29h-2.17Z"/><path class="cls-3" d="M633.53,73.11l-6.01,14.8h-2.76l2.15-4.91-3.9-9.89h2.76l2.48,7.12,2.64-7.12h2.64Z"/><path class="cls-3" d="M644.93,78.55c0,3.59-2.19,5.67-4.61,5.67-1.34,0-2.36-.57-3.07-1.57v5.27h-2.6v-14.8h2.34v1.76c.69-1.28,1.83-2.02,3.45-2.02,2.42,0,4.49,2.04,4.49,5.69Zm-2.64,0c0-2.08-1-3.46-2.54-3.46-1.46,0-2.5,1.41-2.5,3.46s1.04,3.44,2.5,3.44,2.54-1.34,2.54-3.44Z"/><path class="cls-3" d="M656.06,78.7c0,.34-.02,.63-.02,.63h-7.37c.18,1.97,1.16,2.79,2.54,2.79,1.12,0,1.75-.53,2.05-1.32h2.58c-.45,1.93-2.07,3.42-4.65,3.42-3.25,0-5.12-2.31-5.12-5.61s2.07-5.75,5.04-5.75c3.19,0,5,2.35,4.94,5.84Zm-2.66-1.18c-.08-1.64-.93-2.56-2.27-2.56-1.24,0-2.17,.84-2.42,2.56h4.69Z"/><path class="cls-3" d="M657.13,80.8h2.54c.22,.96,.93,1.47,2.17,1.47s1.89-.5,1.89-1.24c0-.63-.35-1.07-1.28-1.24l-2.19-.44c-2.07-.42-2.94-1.45-2.94-3.11,0-1.81,1.46-3.38,4.24-3.38s4.25,1.41,4.59,3.59h-2.56c-.16-1.09-.87-1.64-2.05-1.64s-1.77,.57-1.77,1.26c0,.59,.3,.99,1.36,1.18l2.15,.4c2.23,.4,3.03,1.51,3.03,3.19,0,1.81-1.34,3.38-4.45,3.38s-4.35-1.39-4.73-3.42Z"/><path class="cls-3" d="M677.38,78.7c0,.34-.02,.63-.02,.63h-7.37c.18,1.97,1.16,2.79,2.54,2.79,1.12,0,1.75-.53,2.05-1.32h2.58c-.45,1.93-2.07,3.42-4.65,3.42-3.25,0-5.12-2.31-5.12-5.61s2.07-5.75,5.04-5.75c3.19,0,5,2.35,4.94,5.84Zm-2.66-1.18c-.08-1.64-.93-2.56-2.27-2.56-1.24,0-2.17,.84-2.42,2.56h4.69Z"/><path class="cls-3" d="M682.32,75.4v4.83c0,1.03,.47,1.53,1.34,1.53,.35,0,.59-.02,.83-.08v2.25c-.51,.15-.81,.17-1.44,.17-2.3,0-3.33-1.39-3.33-3.74v-4.96h-1.6v-2.29h1.6v-3.06h2.6v3.06h2.17v2.29h-2.17Z"/><path class="cls-3" d="M689.67,75.4v4.83c0,1.03,.47,1.53,1.34,1.53,.35,0,.59-.02,.83-.08v2.25c-.51,.15-.81,.17-1.44,.17-2.3,0-3.33-1.39-3.33-3.74v-4.96h-1.6v-2.29h1.6v-3.06h2.6v3.06h2.17v2.29h-2.17Z"/><path class="cls-3" d="M693.15,69.92c0-.9,.63-1.64,1.58-1.64s1.54,.73,1.54,1.64-.63,1.64-1.54,1.64-1.58-.76-1.58-1.64Zm.26,3.19h2.6v10.86h-2.6v-10.86Z"/><path class="cls-3" d="M707.52,77.12v6.84h-2.6v-6.21c0-1.79-.79-2.58-1.99-2.58s-2.11,.88-2.11,2.58v6.21h-2.6v-10.86h2.34v1.53c.67-1.2,1.75-1.79,3.21-1.79,2.13,0,3.74,1.34,3.74,4.26Z"/><path class="cls-3" d="M719.36,73.11v10.31c0,2.6-1.44,4.75-5.04,4.75s-4.85-1.66-5.06-3.84h2.74c.1,1.11,.71,1.83,2.32,1.83s2.46-.9,2.46-2.62v-1.72c-.71,1.15-1.75,1.66-3.13,1.66-2.5,0-4.55-2.04-4.55-5.31s2.03-5.29,4.55-5.29c1.46,0,2.62,.65,3.33,1.85v-1.6h2.38Zm-2.58,5.04c0-1.87-1.1-3.09-2.54-3.09s-2.52,1.22-2.52,3.09,1.1,3.11,2.52,3.11,2.54-1.28,2.54-3.11Z"/><path class="cls-3" d="M723.14,86.76h-1.75c.55-1.11,.85-1.85,1.08-2.67l-.18-.1c-.61-.29-.93-.82-.93-1.55,0-.96,.73-1.76,1.67-1.76s1.67,.76,1.67,1.81-.3,2.08-1.58,4.28Z"/><path class="cls-3" d="M746.98,73.11l-3.13,10.86h-3.09l-2.15-7.6-2.07,7.6h-3.09l-3.11-10.86h2.7l2.07,8.11,2.15-8.11h2.9l2.17,8.11,2.01-8.11h2.66Z"/><path class="cls-3" d="M748.03,69.92c0-.9,.63-1.64,1.58-1.64s1.54,.73,1.54,1.64-.63,1.64-1.54,1.64-1.58-.76-1.58-1.64Zm.26,3.19h2.6v10.86h-2.6v-10.86Z"/><path class="cls-3" d="M756.37,75.4v4.83c0,1.03,.47,1.53,1.34,1.53,.35,0,.59-.02,.83-.08v2.25c-.51,.15-.81,.17-1.44,.17-2.3,0-3.33-1.39-3.33-3.74v-4.96h-1.6v-2.29h1.6v-3.06h2.6v3.06h2.17v2.29h-2.17Z"/><path class="cls-3" d="M769.49,77.14v6.82h-2.6v-6.28c0-1.68-.87-2.5-2.01-2.5s-2.09,.88-2.09,2.54v6.24h-2.6v-15.12h2.6v5.71c.59-1.09,1.58-1.7,2.9-1.7,2.17,0,3.8,1.47,3.8,4.28Z"/><path class="cls-3" d="M778.77,83.97h-2.6v-15.12h2.6v15.12Z"/><path class="cls-3" d="M780.46,78.55c0-3.49,2.25-5.69,5.18-5.69s5.16,2.21,5.16,5.69-2.25,5.67-5.16,5.67-5.18-2.18-5.18-5.67Zm7.68,0c0-2.12-.95-3.44-2.52-3.44s-2.52,1.34-2.52,3.44,.95,3.42,2.52,3.42,2.52-1.32,2.52-3.42Z"/><path class="cls-3" d="M801.78,77.12v6.84h-2.6v-6.21c0-1.79-.79-2.58-1.99-2.58s-2.11,.88-2.11,2.58v6.21h-2.6v-10.86h2.34v1.53c.67-1.2,1.75-1.79,3.21-1.79,2.13,0,3.74,1.34,3.74,4.26Z"/><path class="cls-3" d="M813.62,73.11v10.31c0,2.6-1.44,4.75-5.04,4.75s-4.85-1.66-5.06-3.84h2.74c.1,1.11,.71,1.83,2.32,1.83s2.46-.9,2.46-2.62v-1.72c-.71,1.15-1.75,1.66-3.13,1.66-2.5,0-4.55-2.04-4.55-5.31s2.03-5.29,4.55-5.29c1.46,0,2.62,.65,3.33,1.85v-1.6h2.38Zm-2.58,5.04c0-1.87-1.1-3.09-2.54-3.09s-2.52,1.22-2.52,3.09,1.1,3.11,2.52,3.11,2.54-1.28,2.54-3.11Z"/><path class="cls-3" d="M829.14,76.85v7.12h-2.34v-1.39c-.79,1.11-1.87,1.64-3.25,1.64-2.17,0-3.66-1.37-3.66-3.25s1.06-3.09,3.6-3.36l3.07-.34v-.59c0-1.22-.71-1.81-1.83-1.81-1.18,0-1.83,.5-2.03,1.58h-2.6c.28-2.35,1.91-3.59,4.59-3.59s4.45,1.24,4.45,3.99Zm-2.6,2.88v-.8l-2.44,.34c-1.08,.15-1.58,.76-1.58,1.57s.63,1.51,1.71,1.51c1.5,0,2.31-1.07,2.31-2.62Z"/><path class="cls-3" d="M830.69,80.8h2.54c.22,.96,.93,1.47,2.17,1.47s1.89-.5,1.89-1.24c0-.63-.35-1.07-1.28-1.24l-2.19-.44c-2.07-.42-2.94-1.45-2.94-3.11,0-1.81,1.46-3.38,4.24-3.38s4.25,1.41,4.59,3.59h-2.56c-.16-1.09-.87-1.64-2.05-1.64s-1.77,.57-1.77,1.26c0,.59,.3,.99,1.36,1.18l2.15,.4c2.23,.4,3.03,1.51,3.03,3.19,0,1.81-1.34,3.38-4.45,3.38s-4.35-1.39-4.73-3.42Z"/><path class="cls-3" d="M840.96,78.53c0-3.53,2.15-5.67,5.08-5.67s4.43,1.7,4.77,4.07h-2.64c-.24-1.22-.93-1.83-2.15-1.83-1.48,0-2.42,1.26-2.42,3.4s.91,3.46,2.44,3.46c1.24,0,1.87-.63,2.13-1.83h2.62c-.33,2.42-1.97,4.07-4.75,4.07-2.94,0-5.08-2.14-5.08-5.69Z"/><path class="cls-3" d="M861.92,78.7c0,.34-.02,.63-.02,.63h-7.37c.18,1.97,1.16,2.79,2.54,2.79,1.12,0,1.75-.53,2.05-1.32h2.58c-.45,1.93-2.07,3.42-4.65,3.42-3.25,0-5.12-2.31-5.12-5.61s2.07-5.75,5.04-5.75c3.19,0,5,2.35,4.94,5.84Zm-2.66-1.18c-.08-1.64-.93-2.56-2.27-2.56-1.24,0-2.17,.84-2.42,2.56h4.69Z"/><path class="cls-3" d="M872.91,77.12v6.84h-2.6v-6.21c0-1.79-.79-2.58-1.99-2.58s-2.11,.88-2.11,2.58v6.21h-2.6v-10.86h2.34v1.53c.67-1.2,1.75-1.79,3.21-1.79,2.13,0,3.74,1.34,3.74,4.26Z"/><path class="cls-3" d="M884.8,68.85v15.12h-2.34v-1.83c-.65,1.36-1.79,2.08-3.35,2.08-2.42,0-4.59-2.08-4.59-5.67s2.07-5.69,4.49-5.69c1.42,0,2.5,.57,3.19,1.62v-5.63h2.6Zm-2.6,9.7c0-2.08-1.06-3.46-2.52-3.46-1.54,0-2.54,1.36-2.54,3.46s1.06,3.44,2.54,3.44,2.52-1.32,2.52-3.44Z"/><path class="cls-3" d="M896.46,78.7c0,.34-.02,.63-.02,.63h-7.37c.18,1.97,1.16,2.79,2.54,2.79,1.12,0,1.75-.53,2.05-1.32h2.58c-.45,1.93-2.07,3.42-4.65,3.42-3.25,0-5.12-2.31-5.12-5.61s2.07-5.75,5.04-5.75c3.19,0,5,2.35,4.94,5.84Zm-2.66-1.18c-.08-1.64-.93-2.56-2.27-2.56-1.24,0-2.17,.84-2.42,2.56h4.69Z"/><path class="cls-3" d="M903.8,73.09v2.44c-.16-.02-.33-.04-.59-.04-1.6,0-2.46,.99-2.46,2.71v5.77h-2.6v-10.86h2.34v1.87c.49-1.3,1.5-1.97,2.7-1.97,.22,0,.39,.02,.61,.08Z"/><path class="cls-3" d="M904.69,80.8h2.54c.22,.96,.93,1.47,2.17,1.47s1.89-.5,1.89-1.24c0-.63-.35-1.07-1.28-1.24l-2.19-.44c-2.07-.42-2.94-1.45-2.94-3.11,0-1.81,1.46-3.38,4.24-3.38s4.25,1.41,4.59,3.59h-2.56c-.16-1.09-.87-1.64-2.05-1.64s-1.77,.57-1.77,1.26c0,.59,.3,.99,1.36,1.18l2.15,.4c2.23,.4,3.03,1.51,3.03,3.19,0,1.81-1.34,3.38-4.45,3.38s-4.35-1.39-4.73-3.42Z"/><path class="cls-3" d="M928.84,76.85v7.12h-2.34v-1.39c-.79,1.11-1.87,1.64-3.25,1.64-2.17,0-3.66-1.37-3.66-3.25s1.06-3.09,3.6-3.36l3.07-.34v-.59c0-1.22-.71-1.81-1.83-1.81-1.18,0-1.83,.5-2.03,1.58h-2.6c.28-2.35,1.91-3.59,4.59-3.59s4.45,1.24,4.45,3.99Zm-2.6,2.88v-.8l-2.44,.34c-1.08,.15-1.58,.76-1.58,1.57s.63,1.51,1.71,1.51c1.5,0,2.31-1.07,2.31-2.62Z"/><path class="cls-3" d="M940.29,77.12v6.84h-2.6v-6.21c0-1.79-.79-2.58-1.99-2.58s-2.11,.88-2.11,2.58v6.21h-2.6v-10.86h2.34v1.53c.67-1.2,1.75-1.79,3.21-1.79,2.13,0,3.74,1.34,3.74,4.26Z"/><path class="cls-3" d="M952.19,68.85v15.12h-2.34v-1.83c-.65,1.36-1.79,2.08-3.35,2.08-2.42,0-4.59-2.08-4.59-5.67s2.07-5.69,4.49-5.69c1.42,0,2.5,.57,3.19,1.62v-5.63h2.6Zm-2.6,9.7c0-2.08-1.06-3.46-2.52-3.46-1.54,0-2.54,1.36-2.54,3.46s1.06,3.44,2.54,3.44,2.52-1.32,2.52-3.44Z"/><path class="cls-3" d="M967.69,76.85v7.12h-2.34v-1.39c-.79,1.11-1.87,1.64-3.25,1.64-2.17,0-3.66-1.37-3.66-3.25s1.06-3.09,3.6-3.36l3.07-.34v-.59c0-1.22-.71-1.81-1.83-1.81-1.18,0-1.83,.5-2.03,1.58h-2.6c.28-2.35,1.91-3.59,4.59-3.59s4.45,1.24,4.45,3.99Zm-2.6,2.88v-.8l-2.44,.34c-1.08,.15-1.58,.76-1.58,1.57s.63,1.51,1.71,1.51c1.5,0,2.31-1.07,2.31-2.62Z"/><path class="cls-3" d="M969.24,80.8h2.54c.22,.96,.93,1.47,2.17,1.47s1.89-.5,1.89-1.24c0-.63-.35-1.07-1.28-1.24l-2.19-.44c-2.07-.42-2.94-1.45-2.94-3.11,0-1.81,1.46-3.38,4.24-3.38s4.25,1.41,4.59,3.59h-2.56c-.16-1.09-.87-1.64-2.05-1.64s-1.77,.57-1.77,1.26c0,.59,.3,.99,1.36,1.18l2.15,.4c2.23,.4,3.03,1.51,3.03,3.19,0,1.81-1.34,3.38-4.45,3.38s-4.35-1.39-4.73-3.42Z"/><path class="cls-3" d="M989.24,73.11l-6.01,14.8h-2.76l2.15-4.91-3.9-9.89h2.76l2.48,7.12,2.64-7.12h2.64Z"/><path class="cls-3" d="M1005.95,77.16v6.8h-2.6v-6.24c0-1.7-.79-2.48-1.89-2.48s-2.01,.8-2.01,2.35v6.36h-2.6v-6.24c0-1.7-.79-2.48-1.89-2.48s-1.99,.78-1.99,2.35v6.36h-2.6v-10.86h2.34v1.51c.65-1.18,1.75-1.76,3.11-1.76,1.46,0,2.58,.71,3.17,2,.69-1.32,1.85-2,3.29-2,2.23,0,3.66,1.6,3.66,4.3Z"/><path class="cls-3" d="M1023.69,77.16v6.8h-2.6v-6.24c0-1.7-.79-2.48-1.89-2.48s-2.01,.8-2.01,2.35v6.36h-2.6v-6.24c0-1.7-.79-2.48-1.89-2.48s-1.99,.78-1.99,2.35v6.36h-2.6v-10.86h2.34v1.51c.65-1.18,1.75-1.76,3.11-1.76,1.46,0,2.58,.71,3.17,2,.69-1.32,1.85-2,3.29-2,2.23,0,3.66,1.6,3.66,4.3Z"/><path class="cls-3" d="M1035.31,78.7c0,.34-.02,.63-.02,.63h-7.37c.18,1.97,1.16,2.79,2.54,2.79,1.12,0,1.75-.53,2.05-1.32h2.58c-.45,1.93-2.07,3.42-4.65,3.42-3.25,0-5.12-2.31-5.12-5.61s2.07-5.75,5.04-5.75c3.19,0,5,2.35,4.94,5.84Zm-2.66-1.18c-.08-1.64-.93-2.56-2.27-2.56-1.24,0-2.17,.84-2.42,2.56h4.69Z"/><path class="cls-3" d="M1040.25,75.4v4.83c0,1.03,.47,1.53,1.34,1.53,.35,0,.59-.02,.83-.08v2.25c-.51,.15-.81,.17-1.44,.17-2.3,0-3.33-1.39-3.33-3.74v-4.96h-1.6v-2.29h1.6v-3.06h2.6v3.06h2.17v2.29h-2.17Z"/><path class="cls-3" d="M1049.72,73.09v2.44c-.16-.02-.33-.04-.59-.04-1.6,0-2.46,.99-2.46,2.71v5.77h-2.6v-10.86h2.34v1.87c.49-1.3,1.5-1.97,2.7-1.97,.22,0,.39,.02,.61,.08Z"/><path class="cls-3" d="M1050.77,69.92c0-.9,.63-1.64,1.58-1.64s1.54,.73,1.54,1.64-.63,1.64-1.54,1.64-1.58-.76-1.58-1.64Zm.26,3.19h2.6v10.86h-2.6v-10.86Z"/><path class="cls-3" d="M1055.26,78.53c0-3.53,2.15-5.67,5.08-5.67s4.43,1.7,4.77,4.07h-2.64c-.24-1.22-.93-1.83-2.15-1.83-1.48,0-2.42,1.26-2.42,3.4s.91,3.46,2.44,3.46c1.24,0,1.87-.63,2.13-1.83h2.62c-.33,2.42-1.97,4.07-4.75,4.07-2.94,0-5.08-2.14-5.08-5.69Z"/><path class="cls-3" d="M1070.78,80.8h2.54c.22,.96,.93,1.47,2.17,1.47s1.89-.5,1.89-1.24c0-.63-.35-1.07-1.28-1.24l-2.19-.44c-2.07-.42-2.94-1.45-2.94-3.11,0-1.81,1.46-3.38,4.24-3.38s4.25,1.41,4.59,3.59h-2.56c-.16-1.09-.87-1.64-2.05-1.64s-1.77,.57-1.77,1.26c0,.59,.3,.99,1.36,1.18l2.15,.4c2.23,.4,3.03,1.51,3.03,3.19,0,1.81-1.34,3.38-4.45,3.38s-4.35-1.39-4.73-3.42Z"/><path class="cls-3" d="M1091.04,78.7c0,.34-.02,.63-.02,.63h-7.37c.18,1.97,1.16,2.79,2.54,2.79,1.12,0,1.75-.53,2.05-1.32h2.58c-.45,1.93-2.07,3.42-4.65,3.42-3.25,0-5.12-2.31-5.12-5.61s2.07-5.75,5.04-5.75c3.19,0,5,2.35,4.94,5.84Zm-2.66-1.18c-.08-1.64-.93-2.56-2.27-2.56-1.24,0-2.17,.84-2.42,2.56h4.69Z"/><path class="cls-3" d="M1098.38,73.09v2.44c-.16-.02-.33-.04-.59-.04-1.6,0-2.46,.99-2.46,2.71v5.77h-2.6v-10.86h2.34v1.87c.49-1.3,1.5-1.97,2.7-1.97,.22,0,.39,.02,.61,.08Z"/><path class="cls-3" d="M1099.43,69.92c0-.9,.63-1.64,1.58-1.64s1.54,.73,1.54,1.64-.63,1.64-1.54,1.64-1.58-.76-1.58-1.64Zm.26,3.19h2.6v10.86h-2.6v-10.86Z"/><path class="cls-3" d="M1107.78,72.46v.65h2.42v2.29h-2.42v8.57h-2.6v-8.57h-1.6v-2.29h1.6v-.63c0-2.52,1.46-3.84,3.6-3.84,.59,0,1.1,.08,1.52,.23v2.12c-.3-.08-.61-.13-.93-.13-1.04,0-1.6,.53-1.6,1.6Z"/><path class="cls-3" d="M1111.01,80.8h2.54c.22,.96,.93,1.47,2.17,1.47s1.89-.5,1.89-1.24c0-.63-.35-1.07-1.28-1.24l-2.19-.44c-2.07-.42-2.94-1.45-2.94-3.11,0-1.81,1.46-3.38,4.24-3.38s4.25,1.41,4.59,3.59h-2.56c-.16-1.09-.87-1.64-2.05-1.64s-1.77,.57-1.77,1.26c0,.59,.3,.99,1.36,1.18l2.15,.4c2.23,.4,3.03,1.51,3.03,3.19,0,1.81-1.34,3.38-4.45,3.38s-4.35-1.39-4.73-3.42Z"/><path class="cls-3" d="M1125.04,82.43c0,.99-.75,1.79-1.67,1.79s-1.67-.8-1.67-1.79,.75-1.76,1.67-1.76,1.67,.8,1.67,1.76Z"/></g><g><path class="cls-3" d="M216.46,252.6c0,2.72-2.21,4.9-4.93,4.9s-4.9-2.19-4.9-4.9,2.19-4.93,4.9-4.93,4.93,2.21,4.93,4.93Zm-.83,0c0-2.26-1.85-4.1-4.1-4.1s-4.08,1.85-4.08,4.1,1.82,4.08,4.08,4.08,4.1-1.82,4.1-4.08Zm-1.02,.04c0,1.68-1.29,3.04-3.08,3.04s-3.08-1.36-3.08-3.04h.49c.31,1.5,1.33,2.23,2.59,2.23s2.28-.73,2.59-2.23h.49Zm-4.8-1.68c0-.55,.18-.97,.52-.97s.48,.42,.48,.97-.15,.99-.48,.99-.52-.45-.52-.99Zm2.45,0c0-.55,.15-.97,.48-.97s.52,.42,.52,.97-.18,.99-.52,.99-.48-.45-.48-.99Z"/><path class="cls-3" d="M228.26,256.33v1.01h-5.77v-9.51h1.2v8.5h4.57Z"/><path class="cls-3" d="M231.22,257.34h-1.18v-9.51h1.18v9.51Z"/><path class="cls-3" d="M242.12,252.41v4.93h-1.06v-1.74c-.49,1.13-1.48,1.91-3.14,1.91-2.68,0-4.47-1.99-4.47-4.92s1.78-4.93,4.44-4.93c1.98,0,3.43,.84,3.99,2.73h-1.26c-.43-1.12-1.26-1.74-2.75-1.74-1.91,0-3.24,1.5-3.24,3.94s1.3,3.92,3.28,3.92,3.04-1.22,3.05-3.11h-3.32v-.99h4.47Z"/><path class="cls-3" d="M252.41,247.83v9.51h-1.18v-4.45h-5.45v4.45h-1.18v-9.51h1.18v4.06h5.45v-4.06h1.18Z"/><path class="cls-3" d="M261.73,248.81h-3.15v8.53h-1.18v-8.53h-3.17v-.98h7.49v.98Z"/></g><g><path class="cls-3" d="M217.46,423.6c0,2.72-2.21,4.9-4.93,4.9s-4.9-2.19-4.9-4.9,2.19-4.93,4.9-4.93,4.93,2.21,4.93,4.93Zm-.83,0c0-2.26-1.85-4.1-4.1-4.1s-4.08,1.85-4.08,4.1,1.82,4.08,4.08,4.08,4.1-1.82,4.1-4.08Zm-1.02,.04c0,1.68-1.29,3.04-3.08,3.04s-3.08-1.36-3.08-3.04h.49c.31,1.5,1.33,2.23,2.59,2.23s2.28-.73,2.59-2.23h.49Zm-4.8-1.68c0-.55,.18-.97,.52-.97s.48,.42,.48,.97-.15,.99-.48,.99-.52-.45-.52-.99Zm2.45,0c0-.55,.15-.97,.48-.97s.52,.42,.52,.97-.18,.99-.52,.99-.48-.45-.48-.99Z"/><path class="cls-3" d="M226.74,424.18h-2.06v4.16h-1.19v-9.51h3.91c2.17,0,3.17,1.01,3.17,2.62,0,1.43-.78,2.4-2.55,2.61l3.07,4.29h-1.33l-3.01-4.16Zm-2.06-.99h2.58c1.39,0,2.12-.63,2.12-1.74s-.76-1.62-2.14-1.62h-2.55v3.36Z"/><path class="cls-3" d="M234.13,419.83v3.14h4.8v1h-4.8v3.36h5.39v1.01h-6.57v-9.51h6.57v1.01h-5.39Z"/><path class="cls-3" d="M249.62,423.41v4.93h-1.06v-1.74c-.49,1.13-1.48,1.91-3.14,1.91-2.68,0-4.47-1.99-4.47-4.92s1.78-4.93,4.44-4.93c1.98,0,3.43,.84,3.99,2.73h-1.26c-.43-1.12-1.26-1.74-2.75-1.74-1.91,0-3.24,1.5-3.24,3.94s1.3,3.92,3.28,3.92,3.04-1.22,3.05-3.11h-3.32v-.99h4.47Z"/><path class="cls-3" d="M259.78,424.64c0,2.58-1.53,3.87-3.92,3.87s-3.94-1.3-3.94-3.87v-5.81h1.18v5.81c0,1.86,1.11,2.83,2.77,2.83s2.73-.92,2.73-2.77v-5.87h1.18v5.81Z"/><path class="cls-3" d="M268.25,427.33v1.01h-5.77v-9.51h1.2v8.5h4.57Z"/><path class="cls-3" d="M275.89,425.72h-4.19l-.99,2.62h-1.26l3.75-9.51h1.27l3.63,9.51h-1.26l-.95-2.62Zm-.36-1l-1.7-4.68-1.76,4.68h3.46Z"/><path class="cls-3" d="M283.12,424.18h-2.06v4.16h-1.19v-9.51h3.91c2.17,0,3.17,1.01,3.17,2.62,0,1.43-.78,2.4-2.55,2.61l3.07,4.29h-1.33l-3.01-4.16Zm-2.06-.99h2.58c1.39,0,2.12-.63,2.12-1.74s-.76-1.62-2.14-1.62h-2.55v3.36Z"/></g><g><path class="cls-3" d="M217.46,596.6c0,2.72-2.21,4.9-4.93,4.9s-4.9-2.19-4.9-4.9,2.19-4.93,4.9-4.93,4.93,2.21,4.93,4.93Zm-.83,0c0-2.26-1.85-4.1-4.1-4.1s-4.08,1.85-4.08,4.1,1.82,4.08,4.08,4.08,4.1-1.82,4.1-4.08Zm-1.02,.04c0,1.68-1.29,3.04-3.08,3.04s-3.08-1.36-3.08-3.04h.49c.31,1.5,1.33,2.23,2.59,2.23s2.28-.73,2.59-2.23h.49Zm-4.8-1.68c0-.55,.18-.97,.52-.97s.48,.42,.48,.97-.15,.99-.48,.99-.52-.45-.52-.99Zm2.45,0c0-.55,.15-.97,.48-.97s.52,.42,.52,.97-.18,.99-.52,.99-.48-.45-.48-.99Z"/><path class="cls-3" d="M230.86,598.63c0,1.67-.98,2.7-3.39,2.7h-3.98v-9.51h3.77c2.17,0,3.17,.94,3.17,2.51,0,1.01-.76,1.83-1.71,2.06,1.3,.18,2.14,1.02,2.14,2.24Zm-6.19-5.81v3.17h2.48c1.32,0,2.09-.6,2.09-1.65,0-1.13-.9-1.51-2.28-1.51h-2.28Zm5.01,5.81c0-1.26-.98-1.65-2.44-1.65h-2.58v3.36h2.56c1.47,0,2.45-.38,2.45-1.71Z"/><path class="cls-3" d="M232.5,596.59c0-2.94,1.81-4.93,4.43-4.93s4.43,1.99,4.43,4.93-1.81,4.92-4.43,4.92-4.43-1.99-4.43-4.92Zm7.66,0c0-2.44-1.27-3.94-3.24-3.94s-3.24,1.5-3.24,3.94,1.27,3.92,3.24,3.92,3.24-1.5,3.24-3.92Z"/><path class="cls-3" d="M249.38,600.33v1.01h-5.77v-9.51h1.2v8.5h4.57Z"/><path class="cls-3" d="M258.83,596.59c0,2.93-1.92,4.75-4.62,4.75h-3.05v-9.51h3.05c2.7,0,4.62,1.82,4.62,4.76Zm-1.19,0c0-2.38-1.33-3.77-3.61-3.77h-1.69v7.52h1.69c2.26,0,3.61-1.39,3.61-3.75Z"/></g><g><path class="cls-3" d="M489.46,423.6c0,2.72-2.21,4.9-4.93,4.9s-4.9-2.19-4.9-4.9,2.19-4.93,4.9-4.93,4.93,2.21,4.93,4.93Zm-.83,0c0-2.26-1.85-4.1-4.1-4.1s-4.08,1.85-4.08,4.1,1.82,4.08,4.08,4.08,4.1-1.82,4.1-4.08Zm-1.02,.04c0,1.68-1.29,3.04-3.08,3.04s-3.08-1.36-3.08-3.04h.49c.31,1.5,1.33,2.23,2.59,2.23s2.28-.73,2.59-2.23h.49Zm-4.8-1.68c0-.55,.18-.97,.52-.97s.48,.42,.48,.97-.15,.99-.48,.99-.52-.45-.52-.99Zm2.45,0c0-.55,.15-.97,.48-.97s.52,.42,.52,.97-.18,.99-.52,.99-.48-.45-.48-.99Z"/><path class="cls-3" d="M498.74,424.18h-2.06v4.16h-1.19v-9.51h3.91c2.17,0,3.17,1.01,3.17,2.62,0,1.43-.78,2.4-2.55,2.61l3.07,4.29h-1.33l-3.01-4.16Zm-2.06-.99h2.58c1.39,0,2.12-.63,2.12-1.74s-.76-1.62-2.14-1.62h-2.55v3.36Z"/><path class="cls-3" d="M506.13,419.83v3.14h4.8v1h-4.8v3.36h5.39v1.01h-6.57v-9.51h6.57v1.01h-5.39Z"/><path class="cls-3" d="M521.62,423.41v4.93h-1.06v-1.74c-.49,1.13-1.48,1.91-3.14,1.91-2.68,0-4.47-1.99-4.47-4.92s1.78-4.93,4.44-4.93c1.98,0,3.43,.84,3.99,2.73h-1.26c-.43-1.12-1.26-1.74-2.75-1.74-1.91,0-3.24,1.5-3.24,3.94s1.3,3.92,3.28,3.92,3.04-1.22,3.05-3.11h-3.32v-.99h4.47Z"/><path class="cls-3" d="M531.78,424.64c0,2.58-1.53,3.87-3.92,3.87s-3.94-1.3-3.94-3.87v-5.81h1.18v5.81c0,1.86,1.11,2.83,2.77,2.83s2.73-.92,2.73-2.77v-5.87h1.18v5.81Z"/><path class="cls-3" d="M540.25,427.33v1.01h-5.77v-9.51h1.2v8.5h4.57Z"/><path class="cls-3" d="M547.89,425.72h-4.19l-.99,2.62h-1.26l3.75-9.51h1.27l3.63,9.51h-1.26l-.95-2.62Zm-.36-1l-1.7-4.68-1.76,4.68h3.46Z"/><path class="cls-3" d="M555.12,424.18h-2.06v4.16h-1.19v-9.51h3.91c2.17,0,3.17,1.01,3.17,2.62,0,1.43-.78,2.4-2.55,2.61l3.07,4.29h-1.33l-3.01-4.16Zm-2.06-.99h2.58c1.39,0,2.12-.63,2.12-1.74s-.76-1.62-2.14-1.62h-2.55v3.36Z"/><path class="cls-3" d="M566.45,428.34h-1.18v-9.51h1.18v9.51Z"/><path class="cls-3" d="M575.74,419.81h-3.15v8.53h-1.18v-8.53h-3.17v-.98h7.49v.98Z"/><path class="cls-3" d="M581.83,425.72h-4.19l-.99,2.62h-1.26l3.75-9.51h1.27l3.63,9.51h-1.26l-.95-2.62Zm-.36-1l-1.7-4.68-1.76,4.68h3.46Z"/><path class="cls-3" d="M591.58,427.33v1.01h-5.77v-9.51h1.2v8.5h4.57Z"/><path class="cls-3" d="M594.54,428.34h-1.18v-9.51h1.18v9.51Z"/><path class="cls-3" d="M596.77,423.59c0-2.87,1.74-4.93,4.41-4.93,2.51,0,3.67,1.29,4.05,3.21h-1.25c-.34-1.54-1.25-2.21-2.8-2.21-1.79,0-3.22,1.54-3.22,3.94s1.43,3.92,3.22,3.92c1.51,0,2.44-.63,2.82-2.2h1.25c-.42,2-1.6,3.19-4.06,3.19-2.66,0-4.41-2.04-4.41-4.92Z"/></g><g><path class="cls-3" d="M836.46,423.6c0,2.72-2.21,4.9-4.93,4.9s-4.9-2.19-4.9-4.9,2.19-4.93,4.9-4.93,4.93,2.21,4.93,4.93Zm-.83,0c0-2.26-1.85-4.1-4.1-4.1s-4.08,1.85-4.08,4.1,1.82,4.08,4.08,4.08,4.1-1.82,4.1-4.08Zm-1.02,.04c0,1.68-1.29,3.04-3.08,3.04s-3.08-1.36-3.08-3.04h.49c.31,1.5,1.33,2.23,2.59,2.23s2.28-.73,2.59-2.23h.49Zm-4.8-1.68c0-.55,.18-.97,.52-.97s.48,.42,.48,.97-.15,.99-.48,.99-.52-.45-.52-.99Zm2.45,0c0-.55,.15-.97,.48-.97s.52,.42,.52,.97-.18,.99-.52,.99-.48-.45-.48-.99Z"/><path class="cls-3" d="M850.29,418.83v9.51h-1.18v-4.45h-5.45v4.45h-1.18v-9.51h1.18v4.06h5.45v-4.06h1.18Z"/><path class="cls-3" d="M859.99,418.83l-3.4,5.64v3.87h-1.19v-3.87l-3.36-5.64h1.29l2.69,4.55,2.69-4.55h1.29Z"/><path class="cls-3" d="M868.8,421.47c0,1.57-1.08,2.7-3.25,2.7h-2.63v4.16h-1.19v-9.51h3.92c2.17,0,3.15,1.01,3.15,2.65Zm-1.19,0c0-1.07-.66-1.65-2.16-1.65h-2.54v3.36h2.54c1.5,0,2.16-.69,2.16-1.71Z"/><path class="cls-3" d="M871.85,419.83v3.14h4.8v1h-4.8v3.36h5.39v1.01h-6.57v-9.51h6.57v1.01h-5.39Z"/><path class="cls-3" d="M882.55,424.18h-2.06v4.16h-1.19v-9.51h3.91c2.17,0,3.17,1.01,3.17,2.62,0,1.43-.78,2.4-2.55,2.61l3.07,4.29h-1.33l-3.01-4.16Zm-2.06-.99h2.58c1.39,0,2.12-.63,2.12-1.74s-.76-1.62-2.14-1.62h-2.55v3.36Z"/><path class="cls-3" d="M893.88,428.34h-1.18v-9.51h1.18v9.51Z"/><path class="cls-3" d="M903.17,419.81h-3.15v8.53h-1.18v-8.53h-3.17v-.98h7.49v.98Z"/><path class="cls-3" d="M909.26,425.72h-4.19l-.99,2.62h-1.26l3.75-9.51h1.27l3.63,9.51h-1.26l-.95-2.62Zm-.36-1l-1.7-4.68-1.76,4.68h3.46Z"/><path class="cls-3" d="M919.01,427.33v1.01h-5.77v-9.51h1.2v8.5h4.57Z"/><path class="cls-3" d="M921.97,428.34h-1.18v-9.51h1.18v9.51Z"/><path class="cls-3" d="M924.2,423.59c0-2.87,1.74-4.93,4.41-4.93,2.51,0,3.67,1.29,4.05,3.21h-1.25c-.34-1.54-1.25-2.21-2.8-2.21-1.79,0-3.22,1.54-3.22,3.94s1.43,3.92,3.22,3.92c1.51,0,2.44-.63,2.82-2.2h1.25c-.42,2-1.6,3.19-4.06,3.19-2.66,0-4.41-2.04-4.41-4.92Z"/></g><path class="cls-3" d="M339.17,233.12h-5.49c-4.85-9.37-7.11-17.13-7.43-27.79,10.02-8.73,32.32-21.33,47.18-21.33,22.94,0,34.9,16.48,34.9,38.13,0,14.22-1.29,44.6-1.29,58.49,0,15.51,3.88,21.98,21.33,21.98l.65,6.46-38.46,7.43-2.91-19.07c-8.73,10.34-20.68,20.68-35.87,20.68-20.68,0-32.96-13.57-32.96-31.35,0-16.48,10.34-29.08,29.41-33.93,12.6-3.23,24.24-4.85,39.43-7.11v-22.3c0-15.84-11.96-22.94-24.56-22.94-5.17,0-10.66,1.29-15.19,2.91l-8.73,29.73Zm48.47,20.04c-7.76,1.62-17.77,3.88-26.5,6.14-12.6,3.23-19.71,11.31-19.71,22.62,0,11.96,8.4,19.71,21.01,19.71,11.31,0,20.04-5.17,25.21-11.31v-37.16Z"/><path class="cls-3" d="M348.22,492.95c-20.04,0-34.58-13.57-34.58-32.96,0-18.1,9.37-30.38,36.19-36.19,9.05-1.94,20.68-3.88,35.87-6.14v-24.88c0-15.84-11.96-21.98-24.56-21.98-8.4,0-12.6,1.29-17.13,2.91l-8.4,28.76h-8.4c-4.85-9.37-7.11-17.13-7.43-27.79,14.87-9.05,30.7-21.33,52.03-21.33s39.75,17.45,39.75,38.13c0,14.22-.65,42.98-.65,56.88,0,15.19,1.94,22.94,15.51,22.94,1.94,0,4.2-.32,6.79-.65l.97,10.66-42.98,8.4-5.49-19.07c-6.79,13.25-20.04,22.3-37.49,22.3Zm37.16-64.96c-9.37,1.62-17.45,3.55-26.18,5.82-11.63,2.91-19.71,10.66-19.71,21.01,0,12.28,7.43,19.07,19.71,19.07,9.69,0,21.98-5.49,25.85-14.22l.32-31.67Z"/><path class="cls-3" d="M341.43,675.86c-18.74,0-33.93-13.25-33.93-34.58,0-32.64,43.3-40.07,68.51-43.63v-18.74c0-12.6-6.79-20.36-17.77-20.36-4.2,0-8.73,1.29-11.96,2.91l-9.05,30.38h-11.96c-5.17-5.49-10.99-23.59-9.69-31.67,17.13-12.28,36.52-23.91,56.55-23.91,29.08,0,50.09,17.13,50.09,41.69,0,19.07-1.29,39.43-1.29,53.32,0,15.19,1.94,22.94,13.25,22.94,1.94,0,3.55-.32,5.82-.65l.97,13.9-58.17,8.4-5.17-19.39c-7.76,10.66-19.39,19.39-36.19,19.39Zm34.58-63.34c-12.28,.97-29.41,5.82-29.41,21.01,0,10.66,6.46,15.84,14.87,15.84,7.11,0,11.96-2.91,14.54-5.82v-31.02Z"/><path class="cls-3" d="M735.4,467.57c7.11,0,13.57-7.11,18.1-13.57l4.85,2.59c-3.23,12.28-24.56,32.32-38.46,32.32-11.63,0-14.87-8.4-14.87-20.04,0-10.02,4.85-24.24,10.02-41.37h-1.62c-11.31,19.71-29.08,60.76-55.26,60.76-18.74,0-24.56-15.84-24.88-36.84-.65-42.98,25.21-96.95,69.8-96.95,12.28,0,23.91,3.23,31.02,6.79,0,0,8.4-6.79,12.6-6.79,2.59,0,5.82,2.26,5.82,4.85-12.93,27.15-21.65,77.56-21.65,100.5,0,3.88,.65,7.76,4.52,7.76Zm-39.43-100.18c-28.76,0-39.1,50.74-39.75,74.33-.32,12.28,2.91,27.47,11.96,27.47,17.77,0,51.71-69.8,52.68-90.81-3.88-5.49-15.84-10.99-24.88-10.99Z"/><path class="cls-3" d="M1064.61,467.48c6.63,0,16.4-10.99,25.48-23.91l4.89,1.62c-13.26,23.59-32.81,43.95-51.31,43.95-9.07,0-14.31-4.85-14.31-12.93s4.54-15.84,11.17-25.53l17.8-26.18h-2.44c-14.31,19.71-46.07,63.99-72.6,63.99-12.56,0-19.2-7.43-19.2-18.74,0-44.6,62.82-115.05,110.99-115.05,12.91,0,24.78,3.23,31.06,6.79,6.28-3.55,12.22-6.79,16.05-6.79,2.44,0,5.58,2.26,4.54,4.85-23.04,25.21-67.01,86.61-67.01,103.41,0,2.91,1.74,4.52,4.89,4.52Zm-.35-99.86c-32.11,0-72.25,61.08-72.25,89.19,0,6.79,3.84,9.37,8.73,9.37s12.22-3.88,19.2-10.34c19.89-18.42,49.21-53.97,68.06-81.44-5.58-4.2-14.66-6.79-23.73-6.79Z"/></svg>