<?xml version='1.0' encoding='UTF-8'?>
<svg xmlns="http://www.w3.org/2000/svg" xmlns:xlink="http://www.w3.org/1999/xlink" width="1366px" height="768px" viewBox="0 0 1366 768" x="0px" y="0px" enable-background="new 0 0 1366 768"><defs><symbol overflow="visible" id="9e47e7bca"><path d="M34.22 0h7.64L26.2-33.75h-.95L.05 0h7.64l2.3-3.13h22.8zM24.09-22.17l5.82 12.81H14.59zm0 0"/></symbol><symbol overflow="visible" id="9e47e7bcb"><path d="M9.22-33.75L4.47 0h22.8C33.5 0 39.3-5.33 39.3-11.56c0-1.83-.53-3.31-1.34-4.47a9.51 9.51 0 005.23-8.5c0-5.08-3.8-9.22-9.03-9.22zm5.75 6.72h18.25a3.24 3.24 0 013.22 3.31c0 2.13-2.02 4.1-4.28 4.1H13.92zm-1.81 12.92h16.07a3.23 3.23 0 013.22 3.31c0 2.11-2.06 4.08-4.23 4.08H12.14zm0 0"/></symbol><symbol overflow="visible" id="9e47e7bcc"><path d="M40.17-33.75H24.1c-11.18 0-19.71 8.5-19.71 18.97C4.38-6.28 10.18 0 19.63 0h15.84l.92-6.48H20.55c-6 0-9.36-3.94-9.36-9.07 0-6.39 4.94-11.72 12.23-11.72h15.85zm0 0"/></symbol><symbol overflow="visible" id="9e47e7bcd"><path d="M9.27-33.75L4.52 0h18.57c10.55 0 20.02-8.25 20.02-18.81 0-8.55-6.4-14.94-15.27-14.94zm5.8 6.48h11.85c5.38 0 9.42 3.94 9.42 9.22 0 6.44-5.86 11.57-12.34 11.57H12.14zm0 0"/></symbol><symbol overflow="visible" id="9e47e7bce"><path d="M9.27-33.75L4.52 0h30.8l.91-6.48H12.14l1.02-7.2h23.12l.88-6.24H14.02l1.06-7.35h24.1l.9-6.48zm0 0"/></symbol><symbol overflow="visible" id="9e47e7bcf"><path d="M9.27-33.75L4.52 0h6.71l1.93-13.53h23.12l.88-6.25H14.02l1.06-7.49h24.1l.9-6.48zm0 0"/></symbol><symbol overflow="visible" id="9e47e7bcg"><path d="M40.17-33.75H24.1c-11.18 0-19.71 8.5-19.71 18.97C4.38-6.28 10.18 0 19.63 0h16.8l2.4-16.84h-6.1L31.25-6.48h-10.7c-6 0-9.36-3.94-9.36-9.07 0-6.39 4.94-11.72 12.23-11.72h15.85zm0 0"/></symbol><symbol overflow="visible" id="9e47e7bch"><path d="M9.27-33.75L4.52 0h6.71l1.93-13.53h23.23L34.47 0h6.72l4.75-33.75h-6.72l-1.97 13.97H14.02l1.96-13.97zm0 0"/></symbol><symbol overflow="visible" id="9e47e7bci"><path d="M7.73-33.75L2.97 0H9.7l4.75-33.75zm0 0"/></symbol><symbol overflow="visible" id="9e47e7bcj"><path d="M15.13 0c6.37 0 12-5.14 12.85-11.42l3.13-22.33h-6.77l-3.12 22.33c-.4 2.6-2.6 4.89-5.19 4.89H3.22L2.3 0zm0 0"/></symbol><symbol overflow="visible" id="9e47e7bck"><path d="M15.98-33.75H9.27L4.52 0h6.71l1.54-10.94 3.89-2.84L29.72 0h10.55L22.66-18l21.93-15.75H34.42L14.06-20.02zm0 0"/></symbol><symbol overflow="visible" id="9e47e7bcl"><path d="M9.27-33.75L4.52 0h28.03l.9-6.48h-21.3l3.83-27.27zm0 0"/></symbol><symbol overflow="visible" id="9e47e7bcm"><path d="M15.9-33.75L1.1 0h6.78l9.1-20.5L27.08 0h.95l15.75-20.45L47.23 0H54l-5.33-33.75H46.7L29.14-11.42 17.86-33.75zm0 0"/></symbol><symbol overflow="visible" id="9e47e7bcn"><path d="M9.27-33.75L4.52 0h6.71l2.97-21.03L40.22 0h.97l4.75-33.75h-6.72l-2.99 21.03-26.01-21.03zm0 0"/></symbol><symbol overflow="visible" id="9e47e7bco"><path d="M27.55-34.31c-15.2 0-23.28 9.2-23.28 19.67C4.27-6.2 10.07.58 22.66.58c15.12 0 23.09-9.08 23.09-19.64 0-8.44-5.81-15.25-18.2-15.25zm-1 6.72c8.97 0 12.42 4.12 12.42 9.3 0 6.43-4.31 12.15-15.36 12.15-9.11 0-12.56-4.08-12.56-9.27 0-6.43 4.26-12.18 15.5-12.18zm0 0"/></symbol><symbol overflow="visible" id="9e47e7bcp"><path d="M9.27-33.75L4.52 0h6.71l1-7.1h15.7c8.65-.2 15.6-7.1 15.6-14.84 0-6.37-4.7-11.81-12.1-11.81zm5.76 6.72h15.64c3.45 0 6.05 2.45 6.05 5.86 0 4.19-3.8 7.34-7.92 7.34H13.16zm0 0"/></symbol><symbol overflow="visible" id="9e47e7bcq"><path d="M27.55-34.31c-15.2 0-23.28 9.2-23.28 19.67C4.27-6.2 10.07.58 22.66.58c1.06 0 2.06-.05 3.03-.14l1.28 2.78h7.34L32.3-.95c8.84-3.13 13.45-10.14 13.45-18.11 0-8.44-5.81-15.25-18.2-15.25zm.57 24.33h-7.3l1.79 3.84c-8.36-.25-11.56-4.28-11.56-9.27 0-6.43 4.26-12.18 15.5-12.18 8.97 0 12.42 4.12 12.42 9.3 0 5.09-2.78 9.65-9.4 11.43zm0 0"/></symbol><symbol overflow="visible" id="9e47e7bcr"><path d="M9.27-33.75L4.52 0h6.71l1-7.1h13.3c.53 0 1.06-.06 1.6-.1l3.4 7.2h7.34l-4.46-9.36c4.6-2.78 7.73-7.44 7.73-12.58 0-6.37-4.7-11.81-12.1-11.81zm5.76 6.72h13.24c3.46 0 6.04 2.45 6.04 5.86 0 4.19-3.78 7.34-7.9 7.34H13.16zm0 0"/></symbol><symbol overflow="visible" id="9e47e7bcs"><path d="M41.23-29.95s-3.75-4.36-16.17-4.36c-12.15 0-18.25 4.36-18.25 11.22 0 5.71 4.75 8.26 15.7 9.26 8.5.77 10.04 2.06 10.04 3.85 0 2.2-1.16 4.12-10.47 4.12-9.55 0-14.06-3.84-14.06-3.84L3.8-4.38S7.97.58 20.97.58c12.53 0 18.48-4.61 18.48-12.14 0-5.53-4.08-7.78-15.4-8.69-8.25-.92-10.43-1.83-10.43-3.8 0-1.97 1.6-3.84 10.29-3.84 8.39 0 12.53 3.55 12.53 3.55zm0 0"/></symbol><symbol overflow="visible" id="9e47e7bct"><path d="M6.1-33.75l-.91 6.48h13.87L15.22 0h6.72l3.84-27.27h13.86l.92-6.48zm0 0"/></symbol><symbol overflow="visible" id="9e47e7bcu"><path d="M8.83-33.75L6.19-15.03C5.09-7.25 10.37.48 21.99.48c11.65 0 19.06-7.73 20.15-15.51l2.69-18.72h-6.77L35.52-15.5c-.77 5.47-5.13 9.36-12.58 9.36-7.4 0-10.75-3.9-9.99-9.36l2.55-18.25zm0 0"/></symbol><symbol overflow="visible" id="9e47e7bcv"><path d="M12.53-33.75H4.9L20.55 0h.95l25.2-33.75h-7.62L22.66-11.56zm0 0"/></symbol><symbol overflow="visible" id="9e47e7bcw"><path d="M44.06 0l14.78-33.75h-6.76l-9.13 20.5-10.08-20.5h-.95L16.17-13.3l-3.45-20.45H5.95L11.28 0h1.97l17.56-22.31L42.1 0zm0 0"/></symbol><symbol overflow="visible" id="9e47e7bcx"><path d="M6.14-33.75l13.11 16.56L.62 0h8.5l13.72-12.4L33.41 0h8.5L27.75-17.19 45.7-33.75h-8.6L24.2-21.89l-9.5-11.86zm0 0"/></symbol><symbol overflow="visible" id="9e47e7bcy"><path d="M5.1-33.75l13.85 17.86L16.7 0h6.72l2.27-15.9L44.5-33.74h-8.27L23.05-21.03l-9.7-12.72zm0 0"/></symbol><symbol overflow="visible" id="9e47e7bcz"><path d="M27.94-34.31c-15.22 0-23.28 9.2-23.28 19.67C4.66-6.2 10.46.58 23.05.58c15.1 0 23.07-9.08 23.07-19.64 0-8.44-5.8-15.25-18.18-15.25zm-1.02 6.72c8.94 0 12.44 4.12 12.44 9.3 0 6.43-4.31 12.15-15.36 12.15-9.13 0-12.58-4.08-12.58-9.27 0-6.43 4.22-12.18 15.5-12.18zm0 0"/></symbol><symbol overflow="visible" id="9e47e7bcA"><path d="M6.23-33.75l-.86 6.25h7.07L8.54 0h6.73l4.75-33.75zm0 0"/></symbol><symbol overflow="visible" id="9e47e7bcB"><path d="M2.4 0h31.91l.97-6.72H16.7l13.4-8.73c5-3.27 7.24-5.47 7.24-10.28 0-4.99-4.37-8.58-14.1-8.58-7.44 0-13.07 1.86-17.58 4.54l3.21 5.68a25.04 25.04 0 0113.07-3.46c5.1 0 7.34 1.68 7.34 3.55 0 1.58-.62 2.36-2.16 3.31L3.18-5.47zm0 0"/></symbol><symbol overflow="visible" id="9e47e7bcC"><path d="M18.1.58c11.23 0 17.42-5.28 17.42-11.81 0-2.2-.82-4.13-2.55-5.47 2.89-2.11 4.42-4.85 4.42-8.02 0-5.51-5.56-9.6-14.4-9.6-7.44 0-12.82 1.59-17.38 4.55l3.03 5.38c3.13-1.97 7.92-3.16 12.95-3.16 5.44 0 7.64 1.93 7.64 3.99 0 1.97-.86 4.26-6.8 4.26h-8.7l-.82 5.82h9.07c4.22 0 5.38 1.39 5.38 3.1C27.36-8.02 25.3-6 19.1-6 10.98-6 7.48-9.64 7.48-9.64l-5.42 4.6S5.37.57 18.1.57zm0 0"/></symbol><symbol overflow="visible" id="9e47e7bcD"><path d="M28.31-33.75L2.25-10.22l-.56 3.99h20.48L21.31 0h6.72l.86-6.23h7.3l.87-6.25h-7.3l3.02-21.27zm-3.73 10.52l-1.6 11.14H11.86zm0 0"/></symbol><symbol overflow="visible" id="9e47e7bcE"><path d="M9.6-33.75L5.85-17.91l-.53 3.55h16.94c4.6 0 6.3 1.45 6.3 3.42 0 2.44-2.21 4.94-10 4.94-8.1 0-11.09-3.64-11.09-3.64l-5.42 4.6S4.61.57 17.23.57c12.2 0 18.54-5.9 18.54-13.16 0-5.33-3.94-7.97-12.35-7.97h-10.6l1.63-6.95h21.5l.86-6.25zm0 0"/></symbol><symbol overflow="visible" id="9e47e7bcF"><path d="M19.1.53c11.76 0 18.52-5.1 18.52-12.34 0-5.96-5.32-9.99-15.4-9.99-3.31 0-5.08.53-5.08.53l8.78-12.48h-7.69L6.95-17.56C5.28-15.13 3.7-12.28 3.7-9.41 3.7-3.5 9.03.53 19.1.53zm2.26-16.23c5.95 0 8.55 1.87 8.55 4.56 0 3.12-3.08 5.48-9.94 5.48-5.9 0-8.55-1.92-8.55-4.51 0-3.22 3.13-5.53 9.94-5.53zm0 0"/></symbol><symbol overflow="visible" id="9e47e7bcG"><path d="M6.28-33.75l-.86 6.25H26.5L7.06 0h7.1l22.9-33.75zm0 0"/></symbol><symbol overflow="visible" id="9e47e7bcH"><path d="M24.4-34.31C13.15-34.31 7.77-29.86 6.94-24a6.78 6.78 0 004.2 7.53s-4.48 1.92-5.24 7.2C5.19-4.07 8.59.53 19.48.53c10.91 0 15.57-4.6 16.29-9.8.76-5.28-3.22-7.2-3.22-7.2s5.47-1.76 6.28-7.53c.81-5.86-3.31-10.31-14.44-10.31zm-2.13 14.83c-7 0-8.93-2.16-8.93-4.13 0-2.22 2.02-4.6 10.18-4.6 7.06 0 9.03 1.85 9.03 3.87 0 2.17-2.11 4.86-10.28 4.86zM20.3-5.52c-5.7 0-7.35-1.82-7.35-3.65 0-2.06 1.78-4.22 8.46-4.22 5.71 0 7.39 1.73 7.39 3.5 0 2.02-1.77 4.37-8.5 4.37zm0 0"/></symbol><symbol overflow="visible" id="9e47e7bcI"><path d="M23.38-34.27c-11.82 0-18.58 5.08-18.58 12.33 0 5.96 5.33 9.99 15.4 9.99 3.32 0 5.1-.53 5.1-.53L16.52 0h7.67l11.28-16.17c1.69-2.45 3.26-5.28 3.26-8.17 0-5.9-5.32-9.93-15.35-9.93zm-2.3 16.22c-5.9 0-8.55-1.87-8.55-4.56 0-3.12 3.11-5.47 9.99-5.47 5.9 0 8.5 1.92 8.5 4.52 0 3.2-3.08 5.51-9.94 5.51zm0 0"/></symbol><symbol overflow="visible" id="9e47e7bcJ"><path d="M5.95-27.17c2.64 0 4.52 1.55 4.52 4.03 0 4.42-4.13 4.56-4.95 10.52L5.28-9.7h5.56l.58-2.93c.77-3.89 5.96-5.65 5.96-12.39 0-5.51-4.13-8.73-10.52-8.73zM7.73-6.95a4.34 4.34 0 00-4.32 4.22A3.22 3.22 0 006.67.57c2.3 0 4.42-1.91 4.42-4.16a3.34 3.34 0 00-3.36-3.36zm0 0"/></symbol><symbol overflow="visible" id="9e47e7bcbO"><path d="M7.1-33.75l-.96 6.72h20.22L1.34 0H36.2l.97-6.72H16.08l25.34-27.03zm0 0"/></symbol><symbol overflow="visible" id="9e47e7bcK"><path d="M30.4 0v-20.73c0-8.07-5.63-13.58-13.46-13.58-7.77 0-13.4 5.51-13.4 13.58V0h6.73v-8.45h13.39V0zM10.26-20.73c0-4.22 2.64-6.86 6.67-6.86 4.1 0 6.72 2.64 6.72 6.86v6.04h-13.4zm0 0"/></symbol><symbol overflow="visible" id="9e47e7bcL"><path d="M3.55-33.75V0H16.3c5.77 0 10.47-4.7 10.47-10.38 0-2.48-.95-4.59-2.44-6.14a8.64 8.64 0 003.11-6.8c0-5.73-4.65-10.43-10.4-10.43zm6.72 6.72h6.78a3.76 3.76 0 013.68 3.7c0 1.97-1.62 3.7-3.68 3.7h-6.78zm0 12.92h6.04c2.03 0 3.7 1.72 3.7 3.69s-1.67 3.7-3.7 3.7h-6.04zm0 0"/></symbol><symbol overflow="visible" id="9e47e7bcM"><path d="M22.75-33.75h-4.13c-10.21 0-17.18 7.34-17.18 16.81C1.44-7.3 8.45 0 18.9 0h3.89v-6.48h-3.9c-6.67 0-10.7-4.61-10.7-10.46 0-5.76 4.03-10.33 10.66-10.33h3.89zm0 0"/></symbol><symbol overflow="visible" id="9e47e7bcN"><path d="M3.55-33.75V0h9.03c9.69 0 17.47-7.25 17.47-16.84 0-9.61-7.78-16.91-17.47-16.91zm6.72 6.48h2.3c5.91 0 10.76 4.52 10.76 10.43 0 5.86-4.8 10.36-10.75 10.36h-2.31zm0 0"/></symbol><symbol overflow="visible" id="9e47e7bcO"><path d="M3.55-33.75V0h18.3v-6.48H10.26v-7.05h10.95v-6.25H10.27v-7.49h11.57v-6.48zm0 0"/></symbol><symbol overflow="visible" id="9e47e7bcP"><path d="M3.55-33.75V0h6.72v-13.53h10.95v-6.25H10.27v-7.49h11.57v-6.48zm0 0"/></symbol><symbol overflow="visible" id="9e47e7bcQ"><path d="M23.81-33.75h-5.18c-10.22 0-17.2 7.34-17.2 16.81C1.44-7.3 8.46 0 18.92 0h6.2v-16.84H19v10.36h-.1c-6.68 0-10.7-4.61-10.7-10.46 0-5.76 4.02-10.33 10.65-10.33h4.95zm0 0"/></symbol><symbol overflow="visible" id="9e47e7bcR"><path d="M3.55-33.75V0h6.72v-13.53H24.9V0h6.71v-33.75h-6.71v13.97H10.27v-13.97zm0 0"/></symbol><symbol overflow="visible" id="9e47e7bcS"><path d="M3.55-33.75V0h6.72v-33.75zm0 0"/></symbol><symbol overflow="visible" id="9e47e7bcT"><path d="M5.9-33.75v22.33c0 2.6-1.92 4.7-4.5 4.7V0c6.38 0 11.27-5.14 11.27-11.42l-.04-22.33zm0 0"/></symbol><symbol overflow="visible" id="9e47e7bcU"><path d="M3.55-33.75V0h6.72v-10.8l1.54-1.78L21.31 0h8.6L16.3-17.52 30-33.75h-8.16L10.27-20.2v-13.55zm0 0"/></symbol><symbol overflow="visible" id="9e47e7bcV"><path d="M3.55-33.75V0h17.8v-6.48H10.28v-27.27zm0 0"/></symbol><symbol overflow="visible" id="9e47e7bcW"><path d="M3.55-33.75V0h6.72v-19.1l-.14-.59 9.4 9.99h.97l9.36-9.99-.1.58V0h6.72v-33.75h-2.1l-14.36 14.9-14.36-14.9zm0 0"/></symbol><symbol overflow="visible" id="9e47e7bcX"><path d="M3.55-33.75V0h6.72v-19.1L30.67 0h.95v-33.75h-6.71v19.1L4.5-33.74zm0 0"/></symbol><symbol overflow="visible" id="9e47e7bcY"><path d="M18.95-34.31A17.54 17.54 0 001.44-16.84a17.5 17.5 0 0035 0c0-9.57-7.83-17.47-17.49-17.47zm-.04 6.72c5.95 0 10.8 4.84 10.8 10.75 0 5.9-4.85 10.7-10.8 10.7-5.9 0-10.75-4.8-10.75-10.66 0-5.9 4.86-10.8 10.75-10.8zm0 0"/></symbol><symbol overflow="visible" id="9e47e7bcZ"><path d="M3.55-33.75V0h6.72v-7.1h3.65c7.92-.2 13.58-6.24 13.58-13.35 0-7.1-5.7-13.3-13.81-13.3zm6.72 6.72h3.6c3.79 0 6.91 2.8 6.91 6.62 0 3.8-3.12 6.58-6.9 6.58h-3.61zm0 0"/></symbol><symbol overflow="visible" id="9e47e7bcaa"><path d="M18.95-34.31A17.54 17.54 0 001.44-16.84C1.44-8.45 7.48-1.3 15.59.23l-.04 5.58h6.72L22.3.23a17.5 17.5 0 0014.13-17.12c0-9.52-7.83-17.42-17.49-17.42zm-.04 6.72c5.95 0 10.8 4.84 10.8 10.75 0 4.7-3.12 8.73-7.44 10.17v-6.58h-6.72v6.58a10.8 10.8 0 01-7.4-10.13c0-5.9 4.87-10.8 10.76-10.8zm0 0"/></symbol><symbol overflow="visible" id="9e47e7bcab"><path d="M3.55-33.75V0h6.72v-7.1h3.65c.53 0 1.11-.06 1.63-.1l1.68 2.64C19.53-.96 21.55 0 26.97 0v-6.48c-2.16 0-3.5-.33-4.55-1.93L21.7-9.5c3.6-2.45 5.8-6.53 5.8-10.95 0-7.1-5.7-13.3-13.81-13.3zm6.72 6.72h3.6c3.79 0 6.91 2.8 6.91 6.62 0 3.8-3.12 6.58-6.9 6.58h-3.61zm0 0"/></symbol><symbol overflow="visible" id="9e47e7bcac"><path d="M18.58-33.75h-4.85c-6.3 0-10.03 3.4-10.03 8.5 0 5.67 5.42 11.28 5.42 14.78 0 2.5-1.87 3.75-4.7 3.75H1.4V0h4.66c7.06 0 10.8-3.98 10.8-9.4 0-5.63-5.48-11.05-5.48-14.46 0-1.72 1.02-3.22 3.66-3.22h3.55zm0 0"/></symbol><symbol overflow="visible" id="9e47e7bcad"><path d="M1.25-33.75v6.48h8.1V0h6.73v-27.27h8.1v-6.48zm0 0"/></symbol><symbol overflow="visible" id="9e47e7bcae"><path d="M3.17-33.75v20.31C3.17-5.66 9.41.58 17.2.58c7.83 0 14.06-6.24 14.06-14.02v-20.31h-6.72v20.31a7.3 7.3 0 01-7.34 7.3 7.3 7.3 0 01-7.3-7.3v-20.31zm0 0"/></symbol><symbol overflow="visible" id="9e47e7bcaf"><path d="M-.48-33.75L14.69 0h.95l15.17-33.75h-7l-8.64 20.02-8.64-20.02zm0 0"/></symbol><symbol overflow="visible" id="9e47e7bcag"><path d="M34.52 0l9.4-33.75h-6.76l-5.24 19.02-9.22-19.02h-.95l-9.22 19.02L7.3-33.75H.53L9.93 0h2.84l9.45-19.4L31.69 0zm0 0"/></symbol><symbol overflow="visible" id="9e47e7bcah"><path d="M.1-33.75l11.18 16.9L.1 0h7.54l7.92-11.9L23.47 0h7.55L19.78-16.84l11.24-16.91h-7.64l-7.83 11.86-7.86-11.86zm0 0"/></symbol><symbol overflow="visible" id="9e47e7bcai"><path d="M21.64-33.75v9.8c0 4.22-2.62 6.86-6.67 6.86-4.08 0-6.72-2.64-6.72-6.86v-9.8H1.53v9.8c0 6.86 4.03 11.9 10.08 13.25V0h6.73v-10.7c5.94-1.4 10.04-6.4 10.04-13.25v-9.8zm0 0"/></symbol><symbol overflow="visible" id="9e47e7bcaj"><path d="M19.3-34.31A17.53 17.53 0 001.78-16.84a17.5 17.5 0 0034.99 0c0-9.57-7.83-17.47-17.47-17.47zm-.05 6.72a10.8 10.8 0 0110.8 10.75c0 5.9-4.85 10.7-10.8 10.7-5.9 0-10.75-4.8-10.75-10.66 0-5.9 4.84-10.8 10.75-10.8zm0 0"/></symbol><symbol overflow="visible" id="9e47e7bcak"><path d="M1.25-33.75v6.25h5.28V0h6.72v-33.75zm0 0"/></symbol><symbol overflow="visible" id="9e47e7bcal"><path d="M6.23-24.34c1.5-2.35 3.08-3.25 5.29-3.25 2.26 0 4.51 1.9 4.51 4.8 0 1.71-.62 2.54-1.58 3.84L2.41-2.55 2.45 0H22.9v-6.72h-9.02l6.63-9.03a12.03 12.03 0 002.48-7.23c0-5.91-4.3-11.33-11.17-11.33-7.54 0-10.8 6.1-10.8 6.1zm0 0"/></symbol><symbol overflow="visible" id="9e47e7bcam"><path d="M6.28-24.86s1.2-2.69 4.24-2.69a3.97 3.97 0 014.12 4.13c0 2.25-1.48 4.03-4.08 4.03H8.92l-.04 6.28h2.17c2.34 0 3.73 1.55 3.73 3.47 0 1.81-1.2 3.45-3.73 3.45-2.9 0-4.47-2.54-4.47-2.54L1.83-4.52S4.52.58 11.28.58c5.7 0 10.17-4.61 10.17-10.03 0-2.9-1.3-5.2-3.26-6.82a9.12 9.12 0 003.22-7.2c0-5.72-4.43-10.84-10.66-10.84-6.9 0-9.31 5.17-9.31 5.17zm0 0"/></symbol><symbol overflow="visible" id="9e47e7bcan"><path d="M16.84-33.75L.81-10.22v3.99H14.6V0h6.72v-6.23h4.52v-6.25H21.3v-21.27zM14.6-20.97v8.88H9.22zm0 0"/></symbol><symbol overflow="visible" id="9e47e7bcao"><path d="M4.9-33.75L3.3-17.37v3.01h6.9c2.9 0 4.66 1.78 4.66 4.14a4 4 0 01-4.07 4.03c-2.78 0-4.52-2.54-4.52-2.54L1.53-4.52s2.74 5.1 9.4 5.1c6.26 0 10.66-5.1 10.66-11.05 0-5.8-3.78-10.12-10.89-10.12H9.5l.67-6.91h9.22v-6.25zm0 0"/></symbol><symbol overflow="visible" id="9e47e7bcap"><path d="M12.53-33.75L3.45-17.23a12.78 12.78 0 00-1.83 6.3C1.63-4.7 6.96.56 13.3.56c6.48 0 11.72-5.32 11.72-11.66 0-6.14-4.86-11.18-11-11.57l6.23-11.09zM8.36-11.09c0-2.7 2.25-4.9 4.98-4.9a4.93 4.93 0 11-4.98 4.9zm0 0"/></symbol><symbol overflow="visible" id="9e47e7bcaq"><path d="M1.78-33.75v6.25h10.08L2.1 0h7.1l11.96-33.75zm0 0"/></symbol><symbol overflow="visible" id="9e47e7bcar"><path d="M5.66-16.08A8.82 8.82 0 002.83-9.5a10.1 10.1 0 0020.22.05c0-2.64-1.07-5-2.9-6.63a8.95 8.95 0 003.66-7.39 10.86 10.86 0 00-21.7 0c0 3.17 1.39 5.7 3.55 7.4zm7.3-11.51a4.19 4.19 0 014.13 4.12 4.12 4.12 0 01-4.14 4.08 4.12 4.12 0 01-4.12-4.08 4.15 4.15 0 014.12-4.12zm0 14.48c1.87 0 3.5 1.6 3.5 3.52a3.5 3.5 0 01-3.55 3.45A3.4 3.4 0 019.5-9.6a3.49 3.49 0 013.45-3.52zm0 0"/></symbol><symbol overflow="visible" id="9e47e7bcas"><path d="M6.1 0h7.68l9.06-16.52a12.64 12.64 0 001.88-6.28c0-6.18-5.28-11.51-11.7-11.51a11.75 11.75 0 00-11.68 11.7c0 6.1 4.61 11.19 10.57 11.19.32 0 .62-.05.62-.05zm6.92-27.6c2.73 0 4.98 2.2 4.98 4.94 0 2.7-2.25 4.9-4.98 4.9a4.91 4.91 0 010-9.83zm0 0"/></symbol><symbol overflow="visible" id="9e47e7bcat"><path d="M2.88-27.17c2.89 0 5.09 1.78 5.09 4.65 0 3.85-3.5 4.38-3.45 9.9l.14 2.92h5.56l.15-2.93c.2-3.54 4.32-5.37 4.32-11.03 0-6.39-4.85-10.09-11.81-10.09zm4.6 20.22a3.72 3.72 0 00-3.73 3.78A3.72 3.72 0 007.48.58c2.11 0 3.85-1.69 3.85-3.75a3.84 3.84 0 00-3.85-3.78zm0 0"/></symbol><symbol overflow="visible" id="9e47e7bcau"><path d="M9.45 0v-8.16h5.14V0h6.72v-23.47c0-6.44-3.03-10.75-9.31-10.75-6.28 0-9.27 4.31-9.27 10.75V0zm0-23.52c0-2.89 1.02-4.07 2.55-4.07 1.58 0 2.6 1.18 2.6 4.07v9.11H9.44zm0 0"/></symbol><symbol overflow="visible" id="9e47e7bcav"><path d="M2.5-33.75V0h7.1a10.4 10.4 0 0010.42-10.42c0-2.6-.96-4.7-2.5-6.24 2.06-1.39 3.36-3.59 3.36-6.67a10.4 10.4 0 00-10.41-10.42zm6.72 6.72h1.25a3.73 3.73 0 013.69 3.7c0 2.02-1.68 3.7-3.7 3.7H9.23zm0 12.92h.37c2.02 0 3.7 1.67 3.7 3.69 0 2.01-1.68 3.7-3.7 3.7h-.37zm0 0"/></symbol><symbol overflow="visible" id="9e47e7bcaw"><path d="M15.45-33.75c-9.64 0-14.06 7.25-14.06 16.9C1.4-7.2 5.66 0 15.45 0v-6.63c-4.93 0-7.34-3.35-7.34-10.21 0-6.88 2.4-10.29 7.34-10.29zm0 0"/></symbol><symbol overflow="visible" id="9e47e7bcax"><path d="M2.5-33.75V0h4.84c8.07 0 13.88-5.66 13.88-16.84 0-11.2-5.81-16.91-13.88-16.91zm6.72 7.16h.58c2.43 0 4.7 2.82 4.7 9.7 0 6.86-2.27 9.73-4.7 9.73h-.58zm0 0"/></symbol><symbol overflow="visible" id="9e47e7bcay"><path d="M2.5-33.75V0h12.72v-6.48h-6v-7.3h6v-6.24h-6v-7.25h6v-6.48zm0 0"/></symbol><symbol overflow="visible" id="9e47e7bcaz"><path d="M2.5-33.75V0h6.72v-13.78h6v-6.24h-6v-7.25h6v-6.48zm0 0"/></symbol><symbol overflow="visible" id="9e47e7bcaA"><path d="M15.45-27.13h2.32v-6.62h-2.32c-9.64 0-14.06 7.25-14.06 16.9C1.4-7.2 5.66 0 15.45 0h2.74v-16.84h-6.24v9.45c-2.6-1.34-3.84-4.47-3.84-9.45 0-6.88 2.4-10.29 7.34-10.29zm0 0"/></symbol><symbol overflow="visible" id="9e47e7bcaB"><path d="M2.5-33.75V0h6.72v-13.73h6.1V0h6.71v-33.75h-6.72v13.78h-6.1v-13.78zm0 0"/></symbol><symbol overflow="visible" id="9e47e7bcaC"><path d="M2.5-33.75V0h6.72v-33.75zm0 0"/></symbol><symbol overflow="visible" id="9e47e7bcaD"><path d="M5.6-33.75v22.33c0 2.6-1.96 4.7-4.54 4.7V0c6.38 0 11.28-5.14 11.28-11.42v-22.33zm0 0"/></symbol><symbol overflow="visible" id="9e47e7bcaE"><path d="M2.5-33.75V0h6.72v-10.27l.72-1.78L14.16 0h7.82l-6.62-18 6.67-15.75H14.3L9.22-20.41v-13.34zm0 0"/></symbol><symbol overflow="visible" id="9e47e7bcaF"><path d="M2.5-33.75V0h12.72v-6.48h-6v-27.27zm0 0"/></symbol><symbol overflow="visible" id="9e47e7bcaG"><path d="M2.5-33.75V0h6.23v-17.47l4.22 8.5h1.07l4.51-8.5V0h6.24v-33.75h-2.4l-8.89 14.17L4.9-33.75zm0 0"/></symbol><symbol overflow="visible" id="9e47e7bcaH"><path d="M2.5-33.75V0h6.23v-16.22L20.3 0h.97v-33.75h-6.24v16.23L3.45-33.75zm0 0"/></symbol><symbol overflow="visible" id="9e47e7bcaI"><path d="M21.55-16.9c0-11.62-3.94-17.32-10.03-17.32-6.1 0-9.99 5.7-9.99 17.33C1.53-5.14 5.47.53 11.52.53c6.14 0 10.03-5.67 10.03-17.42zm-13.3 0c0-8.12 1.45-10.7 3.27-10.7 1.87 0 3.3 2.58 3.3 10.7 0 8.17-1.43 10.8-3.3 10.8-1.82 0-3.27-2.63-3.27-10.8zm0 0"/></symbol><symbol overflow="visible" id="9e47e7bcaJ"><path d="M2.5-33.75V0h6.72v-7.1c7.53-.43 11.9-6.38 11.9-13.3 0-6.91-4.37-13.35-11.9-13.35zm6.72 6.72c3.12 0 5.19 2.69 5.19 6.62 0 3.9-2.07 6.58-5.2 6.58zm0 0"/></symbol><symbol overflow="visible" id="9e47e7bcaK"><path d="M21.55-16.9c0-11.62-3.94-17.32-10.03-17.32-6.1 0-9.99 5.7-9.99 17.33C1.53-7.25 4.17-1.7 8.45 0l-.1 5.05h6.73l-.16-5.2c4.14-1.87 6.63-7.33 6.63-16.74zm-13.3 0c0-8.12 1.45-10.7 3.27-10.7 1.87 0 3.3 2.58 3.3 10.7 0 8.17-1.43 10.8-3.3 10.8-1.82 0-3.27-2.63-3.27-10.8zm0 0"/></symbol><symbol overflow="visible" id="9e47e7bcaL"><path d="M2.5-33.75V0h6.72v-7.3c.48 0 .95-.04 1.39-.14l2.16 3.99C14.1-.91 16.07 0 20.45 0v-6.48c-1.2-.05-1.78-.38-2.4-1.44l-1.4-2.2c2.88-2.41 4.48-6.15 4.48-10.29 0-6.9-4.38-13.34-11.91-13.34zm6.72 6.72c3.12 0 5.19 2.69 5.19 6.62 0 3.9-2.07 6.58-5.2 6.58zm0 0"/></symbol><symbol overflow="visible" id="9e47e7bcaM"><path d="M13.69-33.75c-6.25 0-9.99 3.36-9.99 8.6 0 5.62 3.4 11.27 3.4 14.59 0 2.73-1.68 4.08-4.46 4.08H.91V0h2.68c6.97 0 10.7-3.84 10.7-9.94 0-5.1-3.45-10.51-3.45-13.83 0-1.86.97-3.5 3.57-3.5h1.96v-6.48zm0 0"/></symbol><symbol overflow="visible" id="9e47e7bcaN"><path d="M1.02-33.75v6.48h5.21V0h6.72v-27.27h5.24v-6.48zm0 0"/></symbol><symbol overflow="visible" id="9e47e7bcaO"><path d="M2.3-33.75v21.08C2.3-4.31 5.28.53 11.56.53c6.3 0 9.31-4.84 9.31-13.2v-21.08h-6.71v21.22c0 4.8-.91 6.44-2.6 6.44-1.62 0-2.53-1.64-2.53-6.44v-21.22zm0 0"/></symbol><symbol overflow="visible" id="9e47e7bcaP"><path d="M-.23-33.75L9.98 0h1.93l10.3-33.75h-7.34l-3.3 14.4-.63 5.77-.63-5.76-3.3-14.41zm0 0"/></symbol><symbol overflow="visible" id="9e47e7bcaQ"><path d="M-.19-33.75L9.55 0h1.43l4.14-16.7L19.45 0h1.43l9.85-33.75h-7.34l-2.6 11.95-.37 3.36-4.24-15.31H14.3l-4.27 15.31-.39-3.36-2.58-11.95zm0 0"/></symbol><symbol overflow="visible" id="9e47e7bcaR"><path d="M.72-33.75l5.47 16.9L.72 0h7.34l2.5-11.19L13.11 0h7.34l-5.48-16.84 5.48-16.91h-7.34l-2.55 11.23-2.5-11.23zm0 0"/></symbol><symbol overflow="visible" id="9e47e7bcaS"><path d="M1.2-33.75v7.73c0 6.72 1.93 10.61 5.9 11.91V0h6.73v-14.1c3.98-1.3 5.95-5.2 5.95-11.92v-7.73h-6.72v8.5c0 3.7-.92 5-2.6 5-1.63 0-2.54-1.3-2.54-5v-8.5zm0 0"/></symbol><symbol overflow="visible" id="9e47e7bcaT"><path d="M21.75-16.9c0-11.62-3.94-17.32-10.03-17.32-6.11 0-9.99 5.7-9.99 17.33C1.73-5.14 5.66.53 11.72.53c6.14 0 10.03-5.67 10.03-17.42zm-13.3 0c0-8.12 1.44-10.7 3.27-10.7 1.86 0 3.31 2.58 3.31 10.7 0 8.17-1.45 10.8-3.31 10.8-1.83 0-3.27-2.63-3.27-10.8zm0 0"/></symbol><symbol overflow="visible" id="9e47e7bcaU"><path d="M1.34-33.75v6.25h2.88V0h6.72v-33.75zm0 0"/></symbol><symbol overflow="visible" id="9e47e7bcaV"><path d="M5.95-24.05c.86-2.15 1.83-3.36 3.64-3.36 1.79 0 2.94 1.63 2.94 3.94 0 1.49-.25 2.55-1.3 4.52L2.06-2.06V0h17.38v-6.72h-7.58l4.7-8.78c2.46-4.33 3.02-6.53 3.02-9.66 0-4.8-3.94-9.06-9.45-9.06-4.94 0-7.68 2.69-9.36 6.33zm0 0"/></symbol><symbol overflow="visible" id="9e47e7bcaW"><path d="M20.16-24.28c0-5.9-3.94-9.94-9.46-9.94-4.93 0-7.67 2.69-9.36 6.33l5.2 3.84c.94-2.36 1.96-3.36 3.63-3.36 1.78 0 2.94 1.63 2.94 3.94 0 2.69-.63 4.08-2.22 4.08H8.97v6.28h1.92c1.6 0 2.22.97 2.22 3.22 0 2.31-1.16 3.66-2.94 3.66-1.87 0-2.54-1.02-3.64-3.36L1.34-5.77C3.04-2.1 5.77.58 10.7.58c5.52 0 9.46-4.17 9.46-9.94 0-5.42-2.4-7.34-2.4-7.34s2.4-2.36 2.4-7.58zm0 0"/></symbol><symbol overflow="visible" id="9e47e7bcaX"><path d="M14.3-33.75L.67-9.75v3.98h11.86V0h6.72v-5.77h3.06V-12h-3.06v-21.75zM12.53-20.5v8.9H8.11zm0 0"/></symbol><symbol overflow="visible" id="9e47e7bcaY"><path d="M9.5-14.55c1.97 0 3.13 1.35 3.13 4.28 0 2.58-.97 4.04-2.74 4.04-1.87 0-2.64-1.2-3.45-3.36L1.25-5.77C2.92-2.1 5.28.58 10.22.58c5.53 0 9.47-4.52 9.47-10.8 0-6.76-2.75-10.6-9.27-10.6H8.55l.32-6.68h8.79v-6.25H3.26L2.26-17.37v2.82zm0 0"/></symbol><symbol overflow="visible" id="9e47e7bcaZ"><path d="M21.22-11.1c0-6.67-3.94-11.21-8.99-11.21-.28 0-.51.04-.51.04l4.5-11.48H9.17L2.73-17.52a17.78 17.78 0 00-1.43 6.43C1.3-4.22 5.8.58 11.28.58c5.52 0 9.94-4.8 9.94-11.67zm-13.2 0c0-3.15 1.39-4.88 3.26-4.88 1.83 0 3.22 1.73 3.22 4.89 0 3.21-1.4 4.95-3.22 4.95-1.87 0-3.26-1.74-3.26-4.95zm0 0"/></symbol><symbol overflow="visible" id="9e47e7bcba"><path d="M1.34-33.75v6.25H9.5L1.69 0h7.1l9.6-33.75zm0 0"/></symbol><symbol overflow="visible" id="9e47e7bcbb"><path d="M4.52-16.08c-1.6 2.06-2.11 3.9-2.11 6.58C2.4-3.94 5.6.58 11.19.58c5.56 0 8.78-4.52 8.78-10.08 0-2.69-.72-4.52-2.11-6.58 2.06-2.1 2.87-4.42 2.87-7.64 0-6-3.54-10.6-9.54-10.6-6 0-9.5 4.6-9.5 10.6 0 3.22.81 5.53 2.83 7.64zm6.67-11.51c1.76 0 2.83 1.86 2.83 4.12 0 2.25-1.07 4.08-2.83 4.08-1.78 0-2.78-1.83-2.78-4.08 0-2.26 1-4.12 2.78-4.12zm0 14.48c1.44 0 2.2 1.6 2.2 3.52 0 1.9-.77 3.45-2.2 3.45-1.44 0-2.16-1.55-2.16-3.45 0-1.93.72-3.52 2.16-3.52zm0 0"/></symbol><symbol overflow="visible" id="9e47e7bcbc"><path d="M.95-22.66c0 6.68 3.94 11.24 8.99 11.24.28 0 .53-.05.53-.05L5.95 0h7.07l6.42-16.22a17.86 17.86 0 001.43-6.44c0-6.86-4.5-11.56-9.98-11.56-5.52 0-9.94 4.7-9.94 11.56zm13.2 0c0 3.18-1.38 4.9-3.26 4.9-1.81 0-3.2-1.72-3.2-4.9 0-3.21 1.39-4.93 3.2-4.93 1.88 0 3.27 1.71 3.27 4.93zm0 0"/></symbol><symbol overflow="visible" id="9e47e7bcbd"><path d="M1.63-27.17c2.89 0 5.04 1.73 5.04 4.47 0 4.03-3.45 4.6-3.45 10.07L3.4-9.7h5.51l.16-2.93c.19-3.54 4.31-5.37 4.31-10.98 0-6.48-4.8-10.14-11.77-10.14zm4.6 20.22A3.72 3.72 0 002.5-3.17C2.5-1.07 4.13.58 6.23.58c2.13 0 3.8-1.64 3.8-3.75 0-2.11-1.67-3.78-3.8-3.78zm0 0"/></symbol><symbol overflow="visible" id="9e47e7bcbe"><path d="M60.05 0v-16.7c0-9.6-7.4-17.05-18.67-17.05H22.93c-11.28 0-18.67 7.45-18.67 17.05V0h3.65v-9.75h48.49V0zM7.92-16.7c0-7.58 6-13.4 15.02-13.4h18.43c9.04 0 15.04 5.82 15.04 13.4v3.4H7.92zm0 0"/></symbol><symbol overflow="visible" id="9e47e7bcbf"><path d="M4.52-33.75V0h44.54C56.11 0 60.4-3.98 60.4-9.45c0-3.27-1.55-5.72-4.77-6.93 4.05-1.23 5.91-4.03 5.91-7.85 0-5.43-4.5-9.52-11.33-9.52zm3.64 3.66H50.1c4.8 0 7.69 2.5 7.69 5.86 0 3.4-2.7 5.84-7.7 5.84H8.17zm0 15.26h40.86c4.8 0 7.62 2.11 7.62 5.47 0 3.4-2.64 5.72-7.62 5.72H8.16zm0 0"/></symbol><symbol overflow="visible" id="9e47e7bcbg"><path d="M20.6-33.75c-11.48 0-18.5 7.06-18.5 16.9C2.1-7.01 9.14 0 20.6 0h37.62v-3.64H20.59c-9.21 0-14.82-5.4-14.82-13.2 0-7.83 5.6-13.25 14.82-13.25h37.63v-3.66zm0 0"/></symbol><symbol overflow="visible" id="9e47e7bcbh"><path d="M4.52-33.75V0h44.82c9.6 0 17.33-7.34 17.33-16.84 0-9.52-7.73-16.91-17.33-16.91zm3.64 3.56h41.18c7.58 0 13.7 5.85 13.7 13.35 0 7.48-6.12 13.34-13.7 13.34H8.16zm0 0"/></symbol><symbol overflow="visible" id="9e47e7bcbi"><path d="M4.52-33.75V0h49.82v-3.64H8.16v-11.19h46.18v-3.56H8.16v-11.7h46.18v-3.66zm0 0"/></symbol><symbol overflow="visible" id="9e47e7bcbj"><path d="M4.52-33.75V0h3.64v-14.83h46.18v-3.56H8.16v-11.7h46.18v-3.66zm0 0"/></symbol><symbol overflow="visible" id="9e47e7bcbk"><path d="M20.6-33.75c-11.48 0-18.5 7.06-18.5 16.9C2.1-7.01 9.14 0 20.6 0h37.62v-16.84h-3.64v13.2H20.59c-9.21 0-14.82-5.4-14.82-13.2 0-7.83 5.6-13.25 14.82-13.25h37.63v-3.66zm0 0"/></symbol><symbol overflow="visible" id="9e47e7bcbl"><path d="M65.1-33.75h-3.66v15.36H8.16v-15.36H4.52V0h3.64v-14.78h53.28V0h3.65zm0 0"/></symbol><symbol overflow="visible" id="9e47e7bcbm"><path d="M1.83-33.75v3.56h24.1V-3.5H1.82V0H53.6v-3.5H29.56v-26.69h24.05v-3.56zm0 0"/></symbol><symbol overflow="visible" id="9e47e7bcbn"><path d="M.95 0H30.4c11.33 0 18.67-7.63 18.67-17.52v-16.23h-3.65v16.23c0 7.88-5.96 13.88-15.02 13.88H.95zm0 0"/></symbol><symbol overflow="visible" id="9e47e7bcbo"><path d="M8.16-15.36l1.3-.44L53.71 0h9.25L14.5-17.47l48.47-16.28h-9.25L8.16-18.67v-15.08H4.52V0h3.64zm0 0"/></symbol><symbol overflow="visible" id="9e47e7bcbp"><path d="M4.52-33.75V0h49v-3.64H8.16v-30.11zm0 0"/></symbol><symbol overflow="visible" id="9e47e7bcbq"><path d="M4.52-33.75V0h3.54v-28.08l32.88 16.9h1.15l32.36-16.9V0h3.6v-33.75H76.7L41.52-15.12 5.82-33.75zm0 0"/></symbol><symbol overflow="visible" id="9e47e7bcbr"><path d="M4.52-33.75V0h3.64v-28.38L63.64 0h.53v-33.75h-3.64v28.38L5.05-33.75zm0 0"/></symbol><symbol overflow="visible" id="9e47e7bcbs"><path d="M20.4-3.64c-9.21 0-14.63-5.4-14.63-13.2 0-7.83 5.42-13.25 14.64-13.25h29.28c9.2 0 14.62 5.42 14.62 13.25 0 7.8-5.42 13.2-14.62 13.2zM49.7 0c11.47 0 18.28-7.02 18.28-16.84 0-9.85-6.81-16.91-18.28-16.91H20.4c-11.49 0-18.3 7.06-18.3 16.9C2.1-7.01 8.92 0 20.4 0zm0 0"/></symbol><symbol overflow="visible" id="9e47e7bcbt"><path d="M4.52-33.75V0h3.64v-7.83h38.1c8.5 0 14.32-5.7 14.32-12.9s-5.81-13.02-14.31-13.02zm3.64 3.66h38.1c6.58 0 10.57 4.17 10.57 9.36 0 5.18-3.99 9.36-10.56 9.36H8.16zm0 0"/></symbol><symbol overflow="visible" id="9e47e7bcbu"><path d="M49.69 0c11.47 0 18.28-7.02 18.28-16.84 0-9.85-6.81-16.91-18.28-16.91H20.4c-11.49 0-18.3 7.06-18.3 16.9C2.1-7.01 8.92 0 20.4 0h12.8v5.81h3.65V0zM36.86-8.69h-3.64v5.05H20.4c-9.22 0-14.64-5.4-14.64-13.2 0-7.83 5.42-13.25 14.64-13.25h29.28c9.2 0 14.62 5.42 14.62 13.25 0 7.8-5.42 13.2-14.62 13.2H36.86zm0 0"/></symbol><symbol overflow="visible" id="9e47e7bcbv"><path d="M4.52-33.75V0h3.64v-7.83h38.1c2.13 0 4.1-.37 5.87-1L56.1-2.4C57.13-.77 58.42 0 60.63 0h.57v-3.64h-.3c-.95 0-1.52-.34-2.15-1.34l-3.4-5.54a12.45 12.45 0 005.23-10.21c0-7.2-5.81-13.02-14.31-13.02zm3.64 3.66h38.1c6.58 0 10.57 4.17 10.57 9.36 0 5.18-3.99 9.36-10.56 9.36H8.16zm0 0"/></symbol><symbol overflow="visible" id="9e47e7bcbw"><path d="M18.1-33.75c-11.62 0-15.6 3.52-15.6 8.69 0 5.62 4.27 8.54 13.4 9.03l27.63 1.48c8.74.49 11.05 2.32 11.05 5.58 0 3.5-3.31 5.42-12.63 5.42H2.45V0h40.27c11.76 0 16.22-3.64 16.22-9.17 0-5.24-3.83-8.44-14.06-9.02l-28.04-1.54c-7.96-.43-10.17-2.2-10.17-5.38 0-3.27 2.5-5.08 11.67-5.08H57.5v-3.56zm0 0"/></symbol><symbol overflow="visible" id="9e47e7bcbx"><path d="M1.34-33.75v3.56h24.1V0h3.65v-30.19h24.1v-3.56zm0 0"/></symbol><symbol overflow="visible" id="9e47e7bcby"><path d="M3.9-33.75v16.7C3.9-7.44 11.27 0 22.55 0h18.42c11.29 0 18.7-7.44 18.7-17.05v-16.7h-3.66v16.7c0 7.6-6 13.4-15.04 13.4H22.56c-9.03 0-15.03-5.8-15.03-13.4v-16.7zm0 0"/></symbol><symbol overflow="visible" id="9e47e7bcbz"><path d="M-.4-33.75L35.9 0h.68L72.9-33.75h-5.28L38.77-6.77l-2.55 2.5-2.48-2.5-28.9-26.98zm0 0"/></symbol><symbol overflow="visible" id="9e47e7bcbA"><path d="M67.16 0l9.3-33.75h-3.7L65.1-5.95l-25.73-27.8H38.2L12.48-5.95 4.8-33.75H1.1L10.48 0h1.3l27.01-29.19L65.86 0zm0 0"/></symbol><symbol overflow="visible" id="9e47e7bcbB"><path d="M.1-33.75l32.59 16.86L.09 0h6.93l29.37-14.92L65.81 0h6.86l-32.6-16.9 32.6-16.85h-6.86L36.4-18.81 7.02-33.75zm0 0"/></symbol><symbol overflow="visible" id="9e47e7bcbC"><path d="M1.69-33.75v5.81c0 9.6 7.39 16.57 18.67 16.57h7.39V0h3.64v-11.38h7.4c11.27 0 18.66-6.96 18.66-16.56v-5.81h-3.64v5.81c0 7.58-6 12.9-15.03 12.9H20.36c-9.03 0-15.03-5.32-15.03-12.9v-5.81zm0 0"/></symbol><symbol overflow="visible" id="9e47e7bcbD"><path d="M20.92-3.64c-9.2 0-14.64-5.4-14.64-13.2 0-7.83 5.44-13.25 14.64-13.25h21.56c9.22 0 14.65 5.42 14.65 13.25 0 7.8-5.43 13.2-14.65 13.2zM42.48 0c11.47 0 18.29-7.02 18.29-16.84 0-9.85-6.82-16.91-18.29-16.91H20.92c-11.47 0-18.28 7.06-18.28 16.9C2.64-7.01 9.45 0 20.92 0zm0 0"/></symbol><symbol overflow="visible" id="9e47e7bcbE"><path d="M3.94-33.75v3.56h33.8V-3.5h-35V0h50.78v-3.5H41.37v-30.25zm0 0"/></symbol><symbol overflow="visible" id="9e47e7bcbF"><path d="M5.86-27.08c1.62-1.81 4.45-3.1 8.69-3.1h28.8c4.65 0 7.15 1.87 7.15 4.93 0 3.03-1.83 4.66-6.25 6.14l-19.72 6.72a202.81 202.81 0 00-21.8 8.8V0h53.1v-3.64H12.58c2.87-1.34 6.67-2.7 11.7-4.47l19.88-6.97c8.3-2.92 10.9-5.8 10.9-10.5 0-4.86-3.47-8.17-11.19-8.17H13.79c-8.06 0-10.95 4.47-10.95 4.47zm0 0"/></symbol><symbol overflow="visible" id="9e47e7bcbG"><path d="M44.16-30.19c3.45 0 6.25 2.49 6.25 5.9s-2.8 5.9-6.25 5.9H15.4v3.56h28.75c3.45 0 6.3 2.06 6.3 5.38 0 3.54-2.74 5.8-6 5.8H11.6c-3.98 0-5.95-3.07-5.95-3.07L2.69-4.47S4.89 0 11.23 0h33.32c5.51 0 9.54-4.03 9.54-9.45 0-3.4-1.82-6.05-4.7-7.35 2.88-1.43 4.47-4.07 4.47-7.68 0-5.52-4.08-9.27-9.56-9.27H11.23c-6.34 0-8.54 4.47-8.54 4.47l2.97 2.25s1.96-3.16 5.95-3.16zm0 0"/></symbol><symbol overflow="visible" id="9e47e7bcbH"><path d="M1.48-9.36v2.2h39.36V0h3.66v-7.16h11.33v-3.4H44.5v-23.19H42zm7.3-.95l32.06-19.3v19.05h-28.5zm0 0"/></symbol><symbol overflow="visible" id="9e47e7bcbI"><path d="M42.95 0c6.78 0 10.82-4.08 10.82-9.84 0-5.61-4.04-9.46-11.05-9.46H7.3l1.1-10.89h42.33v-3.56H5.33l-1.88 18h39.13c4.6 0 7.44 2.27 7.44 5.9 0 3.7-2.83 6.3-7.3 6.3H11.6c-3.98 0-5.95-3.17-5.95-3.17L2.69-4.47S4.89 0 11.23 0zm0 0"/></symbol><symbol overflow="visible" id="9e47e7bcbJ"><path d="M46.66 0c5.8 0 10.56-4.8 10.56-10.6 0-5.82-4.75-10.62-10.56-10.62H15.5c-2.34 0-3.64.25-4.7.67l7.43-13.2h-4.17L4.22-16.03c-.9 1.62-1.49 3.4-1.49 5.42C2.73-4.8 7.53 0 13.34 0zm0-17.52a6.93 6.93 0 010 13.88H13.34a6.94 6.94 0 110-13.88zm0 0"/></symbol><symbol overflow="visible" id="9e47e7bcbK"><path d="M1.25-33.75v3.56h44.88L35.47 0h3.89L51.3-33.75zm0 0"/></symbol><symbol overflow="visible" id="9e47e7bcbL"><path d="M12.63-18.23a5.98 5.98 0 01-5.96-5.96c0-3.26 2.5-5.9 5.96-5.9h33.64a5.82 5.82 0 015.95 5.9 5.98 5.98 0 01-5.95 5.96zm-.05 14.59a5.64 5.64 0 01-5.56-5.58c0-2.87 2.39-5.6 5.56-5.6H46.3a5.68 5.68 0 015.58 5.6c0 2.88-2.4 5.58-5.58 5.58zM46.18 0a9.18 9.18 0 009.3-9.08c0-3.1-1.48-5.8-3.98-7.34 2.5-1.24 4.38-4.17 4.38-7.72 0-5.67-4.04-9.61-9.9-9.61H12.91c-5.85 0-9.88 3.94-9.88 9.6 0 3.56 1.86 6.5 4.36 7.73a8.46 8.46 0 00-3.98 7.34A9.18 9.18 0 0012.7 0zm0 0"/></symbol><symbol overflow="visible" id="9e47e7bcbM"><path d="M12.14-33.75c-5.8 0-10.56 4.81-10.56 10.6 0 5.82 4.76 10.62 10.56 10.62h31.48c2.36 0 3.66-.24 4.72-.67L40.9 0h4.19l9.83-17.72c.92-1.62 1.5-3.4 1.5-5.42 0-5.8-4.82-10.61-10.61-10.61zm0 17.53a6.95 6.95 0 01-6.9-6.92 6.96 6.96 0 016.9-6.95H45.8a6.97 6.97 0 016.95 6.95c0 3.8-3.13 6.92-6.95 6.92zm0 0"/></symbol><symbol overflow="visible" id="9e47e7bcbN"><path d="M22.13.58c2.68 0 3.3-.81 3.3-2.4 0-1.54-.62-2.4-3.3-2.4-2.7 0-3.32.86-3.32 2.4 0 1.59.63 2.4 3.32 2.4zM24.05-9.7l.1-2.2c.04-1.58.48-2.26 2.98-2.79l11.12-2.36c5.72-1.18 8.36-4.07 8.36-8.97 0-5.04-3.75-8.3-10.7-8.3H12.58c-8.06 0-10.96 4.46-10.96 4.46l3.04 2.22c1.62-1.83 4.46-3.13 8.68-3.13h22.38c4.03 0 6.33 1.97 6.33 4.9 0 2.82-1.63 4.56-5.47 5.37L25.3-18.05c-3.5.77-5 2.6-5 5.24 0 .23.15 3.1.15 3.1zm0 0"/></symbol><symbol overflow="visible" id="9e47e7bcbP"><path d="M8.16 0v-11.14h17.9V0h3.66v-21.03c0-7.77-5.28-13.19-12.63-13.19-7.3 0-12.57 5.42-12.57 13.19V0zm0-21.03c0-5.75 3.65-9.55 8.93-9.55 5.33 0 8.97 3.8 8.97 9.55v6.34H8.16zm0 0"/></symbol><symbol overflow="visible" id="9e47e7bcbQ"><path d="M4.52-33.75V0h9.84a9.2 9.2 0 009.3-9.22c0-3.12-1.58-5.7-3.93-6.95 3.41-1.4 5.13-4.19 5.13-7.83 0-5.38-4.17-9.75-10.22-9.75zm3.64 3.66h6.48c4.08 0 6.58 2.73 6.58 6.09 0 3.31-2.5 5.81-6.4 5.81H8.17zm0 15.45h6.2c2.97 0 5.66 2.25 5.66 5.42a5.69 5.69 0 01-5.66 5.58h-6.2zm0 0"/></symbol><symbol overflow="visible" id="9e47e7bcbR"><path d="M21.5 0v-3.6h-2.44c-8.01 0-13.25-5.62-13.25-13.24 0-7.6 5.24-13.25 13.25-13.25h2.44v-3.66h-2.44c-9.93 0-16.9 7.3-16.9 16.9C2.16-7.2 9.12 0 19.06 0zm0 0"/></symbol><symbol overflow="visible" id="9e47e7bcbS"><path d="M4.52-33.75V0h8.92c9.6 0 17.33-7.34 17.33-16.84 0-9.52-7.72-16.91-17.33-16.91zm3.64 3.56h5.28c7.6 0 13.69 5.85 13.69 13.35 0 7.48-6.1 13.34-13.7 13.34H8.17zm0 0"/></symbol><symbol overflow="visible" id="9e47e7bcbT"><path d="M4.52-33.75V0H20.2v-3.5H8.16v-11.63h11.09v-3.54H8.15V-30.2H20.2v-3.56zm0 0"/></symbol><symbol overflow="visible" id="9e47e7bcbU"><path d="M4.52-33.75V0h3.64v-15.13h11.09v-3.54H8.15V-30.2H20.2v-3.56zm0 0"/></symbol><symbol overflow="visible" id="9e47e7bcbV"><path d="M21.5-16.84V-3.6h-2.44c-8.01 0-13.25-5.63-13.25-13.25 0-7.6 5.24-13.25 13.25-13.25h5.08v-3.66h-5.08c-9.93 0-16.9 7.3-16.9 16.9C2.16-7.2 9.12 0 19.06 0h6.1v-16.84zm0 0"/></symbol><symbol overflow="visible" id="9e47e7bcbW"><path d="M4.52-33.75V0h3.64v-15.08h19.2V0h3.66v-33.75h-3.66v15.13H8.16v-15.13zm0 0"/></symbol><symbol overflow="visible" id="9e47e7bcbX"><path d="M4.52-33.75V0h3.64v-33.75zm0 0"/></symbol><symbol overflow="visible" id="9e47e7bcbY"><path d="M7.02-33.75v23.77A6.27 6.27 0 01.9-3.64V0a9.86 9.86 0 009.75-9.98v-23.77zm0 0"/></symbol><symbol overflow="visible" id="9e47e7bcbZ"><path d="M4.52-33.75V0h3.64v-12.23l2.59-2.5L23.95 0h4.75L13.25-17.42l16.08-16.33H24.8L8.16-17.28v-16.47zm0 0"/></symbol><symbol overflow="visible" id="9e47e7bcca"><path d="M4.52-33.75V0H20.4v-3.55H8.16v-30.2zm0 0"/></symbol><symbol overflow="visible" id="9e47e7bccb"><path d="M4.52-33.75V0h3.64v-24.23l-.05-.63 12.1 15.9h.66l12.1-15.9-.05.63V0h3.66v-33.75h-1.69L20.55-14.69 6-33.75zm0 0"/></symbol><symbol overflow="visible" id="9e47e7bccc"><path d="M4.52-33.75V0h3.64v-25.2L30.72 0h.53v-33.75h-3.66v25.2L5.05-33.75zm0 0"/></symbol><symbol overflow="visible" id="9e47e7bccd"><path d="M2.06-16.84C2.06-7.2 9.8.53 19.44.53A17.4 17.4 0 102.06-16.85zm3.66 0c0-7.6 6.1-13.79 13.72-13.79a13.77 13.77 0 110 27.55A13.7 13.7 0 015.72-16.84zm0 0"/></symbol><symbol overflow="visible" id="9e47e7bcce"><path d="M4.52-33.75V0h3.64v-7.73h3.21a13 13 0 100-26.02zm3.64 3.66h3.21a9.34 9.34 0 019.36 9.36 9.34 9.34 0 01-9.36 9.36H8.16zm0 0"/></symbol><symbol overflow="visible" id="9e47e7bccf"><path d="M2.1-16.84C2.1-7.83 8.89-.48 17.67.44v4.6h3.65V.45a17.4 17.4 0 10-19.2-17.28zm3.67 0c0-7.6 6.09-13.79 13.71-13.79a13.78 13.78 0 011.83 27.45V-8.2h-3.65v5.03a13.73 13.73 0 01-11.9-13.67zm0 0"/></symbol><symbol overflow="visible" id="9e47e7bccg"><path d="M4.52-33.75V0h3.64v-7.73h3.21c1.83 0 3.55-.38 5.1-1.05l3.73 5.86C21.5-.86 22.7 0 25.83 0v-3.5c-1.35-.1-2.02-.44-2.69-1.55L19.7-10.7a13.04 13.04 0 00-8.32-23.05zm3.64 3.66h3.21a9.34 9.34 0 019.36 9.36 9.34 9.34 0 01-9.36 9.36H8.16zm0 0"/></symbol><symbol overflow="visible" id="9e47e7bcch"><path d="M11.38-33.75c-4.47 0-7.49 3.03-7.49 7.45 0 6.96 7.1 12.52 7.1 17.57 0 3.4-2.3 5.18-5.52 5.18H1.16V0h5.42c5.33 0 8.54-3.45 8.54-8.4 0-6.68-7.1-12.2-7.1-17.48 0-2.78 1.82-4.3 4.7-4.3h3.8v-3.57zm0 0"/></symbol><symbol overflow="visible" id="9e47e7bcci"><path d="M1.34-33.75v3.56h8.2V0h3.66v-30.19h8.2v-3.56zm0 0"/></symbol><symbol overflow="visible" id="9e47e7bccj"><path d="M4.08-33.75v21.03C4.08-4.94 9.36.48 16.66.48c7.34 0 12.62-5.42 12.62-13.2v-21.03h-3.66v21.03c0 5.77-3.64 9.55-8.96 9.55-5.29 0-8.93-3.78-8.93-9.55v-21.03zm0 0"/></symbol><symbol overflow="visible" id="9e47e7bcck"><path d="M.14-33.75L14.83 0h.76l14.75-33.75h-3.8L15.23-7.15 3.98-33.76zm0 0"/></symbol><symbol overflow="visible" id="9e47e7bccl"><path d="M33.45 0l9.36-33.75h-3.69L32.3-8.97l-9.78-24.78H21.4L11.66-8.97 4.84-33.75H1.16L10.46 0h1.15l10.37-25.3L32.3 0zm0 0"/></symbol><symbol overflow="visible" id="9e47e7bccm"><path d="M.63-33.75l11.65 16.9L.63 0h4.12l9.9-14.16L24.47 0h4.13L16.89-16.84l11.72-16.91h-4.17l-9.8 14.17L4.8-33.75zm0 0"/></symbol><symbol overflow="visible" id="9e47e7bccn"><path d="M1.83-33.75v7.1c0 7.12 4.4 12.3 10.75 13.12V0h3.64v-13.53c6.39-.83 10.81-6 10.81-13.11v-7.11h-3.66v7.1c0 5.77-3.64 9.56-8.96 9.56-5.29 0-8.94-3.79-8.94-9.55v-7.11zm0 0"/></symbol><symbol overflow="visible" id="9e47e7bcco"><path d="M2.5-16.84A17.3 17.3 0 0019.88.53C29.52.53 37.3-7.2 37.3-16.84c0-9.61-7.78-17.43-17.42-17.43A17.37 17.37 0 002.5-16.84zm3.64 0c0-7.6 6.1-13.79 13.73-13.79a13.77 13.77 0 010 27.55A13.7 13.7 0 016.14-16.84zm0 0"/></symbol><symbol overflow="visible" id="9e47e7bccp"><path d="M1.48-33.75v3.4h5.24V0h3.66v-33.75zm0 0"/></symbol><symbol overflow="visible" id="9e47e7bccq"><path d="M4.52-27.17c1.53-2.3 3.59-3.5 6.23-3.5a6.74 6.74 0 016.63 6.62c0 2.78-.63 4.22-2.5 6.68L2.78-1.79V0h18.97v-3.64H8.87l9.27-11.95a13.38 13.38 0 003.03-8.46c0-5.47-4.23-10.26-10.28-10.26-5.47 0-8.25 3.06-9.2 5.08zm0 0"/></symbol><symbol overflow="visible" id="9e47e7bccr"><path d="M4.52-27.9s1.71-2.73 5.46-2.73a6.52 6.52 0 016.58 6.54c0 3.89-3.26 6.43-6.04 6.48H9.08v3.4h1.72a5.72 5.72 0 015.62 5.62c0 3.07-2.31 5.51-5.72 5.51C7.1-3.08 5.2-5.8 5.2-5.8L2.59-3.5S5.14.58 10.8.58a9.06 9.06 0 009.23-9.17c0-3.18-1.58-6.14-4.47-7.4 2.6-1.3 4.65-4.12 4.65-8.1 0-5.47-4.36-10.22-10.07-10.22-5.86 0-8.2 4.08-8.2 4.08zm0 0"/></symbol><symbol overflow="visible" id="9e47e7bccs"><path d="M17.1-33.75L.85-9.35v2.2h15.08V0h3.64v-7.16h4.47v-3.4h-4.47v-23.19zm-1.16 7.5v15.69H5.56zm0 0"/></symbol><symbol overflow="visible" id="9e47e7bcct"><path d="M5.42-33.75L3.9-17.91v1.74h5.19c4.7 0 7.53 2.39 7.53 6.58a6.39 6.39 0 01-6.3 6.51c-3.87 0-5.75-2.73-5.75-2.73L1.96-3.5S4.47.58 10.43.58c5.47 0 9.83-4.61 9.83-10.17 0-6.2-3.94-9.94-10.9-9.94h-2l.95-10.81h10.23v-3.41zm0 0"/></symbol><symbol overflow="visible" id="9e47e7bccu"><path d="M13.83-33.75L4.52-16.94c-1.55 2.78-2.22 4.85-2.22 6.72C2.3-4.37 6.8.58 12.77.58a10.7 10.7 0 0010.56-10.61c0-5.77-4.85-10.38-10.52-10.38-1.58 0-2.5.35-2.5.35L18-33.75zM5.8-10.03a6.94 6.94 0 1113.88.06 6.94 6.94 0 01-13.88-.06zm0 0"/></symbol><symbol overflow="visible" id="9e47e7bccv"><path d="M1.53-33.75v3.4h12.83L3.64 0h3.9l11.94-33.75zm0 0"/></symbol><symbol overflow="visible" id="9e47e7bccw"><path d="M8.1-15.8a7.98 7.98 0 00-4.4 7.25A9.11 9.11 0 0012.81.58c5 0 9.17-4.22 9.17-9.13a8.08 8.08 0 00-4.42-7.25 8.94 8.94 0 005.49-8.3c0-5.62-4.61-10.21-10.24-10.21A10.2 10.2 0 002.7-24.1a8.89 8.89 0 005.42 8.3zm4.71-14.87a6.6 6.6 0 016.58 6.58 6.52 6.52 0 01-13.05 0c0-3.61 2.93-6.58 6.47-6.58zM7.3-8.6a5.53 5.53 0 1111.1 0c0 3.07-2.5 5.51-5.59 5.51A5.49 5.49 0 017.3-8.59zm0 0"/></symbol><symbol overflow="visible" id="9e47e7bccx"><path d="M11.14 0l9.31-16.8c1.53-2.78 2.2-4.65 2.2-6.72 0-5.86-4.5-10.8-10.46-10.8a10.7 10.7 0 00-10.56 10.6c0 5.77 4.85 10.38 10.51 10.38 1.6 0 2.5-.35 2.5-.35L6.95 0zm8.02-23.72c0 3.8-3.13 6.92-6.97 6.92a6.95 6.95 0 01-6.9-6.92 6.96 6.96 0 016.9-6.95 6.97 6.97 0 016.97 6.95zm0 0"/></symbol><symbol overflow="visible" id="9e47e7bccy"><path d="M3.31-30.19c2.5.24 5.96 2.02 5.96 6.63 0 5.33-4.47 6.23-4.22 12.33l.14 3.4H8.1l.1-3.4c.15-4.8 4.6-6.63 4.6-12.82 0-7.2-5.7-9.4-9.5-9.7zM6.67-4.17c-1.3 0-2.25.95-2.25 2.25 0 1.25.96 2.2 2.25 2.2a2.2 2.2 0 002.25-2.2c0-1.3-1-2.25-2.25-2.25zm0 0"/></symbol><symbol overflow="visible" id="9e47e7bccz"><path d="M19.63 0v-23.14c0-7.2-3.07-11.08-8.25-11.08-5.15 0-8.2 3.88-8.2 11.08V0H6.8v-10.84h9.17V0zm-8.25-30.63c2.64 0 4.6 1.93 4.6 7.65v8.57H6.81v-8.57c0-5.72 1.97-7.64 4.57-7.64zm0 0"/></symbol><symbol overflow="visible" id="9e47e7bccA"><path d="M2.92-33.75V0H7.3c6.33 0 10.47-4.03 10.47-9.5 0-2.98-1.5-5.67-4.43-6.97 3.46-1.25 5.29-4.31 5.29-7.76 0-5.43-4.18-9.52-10.33-9.52zm3.66 3.66H8.3c4.1 0 6.67 2.5 6.67 5.86 0 3.15-2.44 5.84-6.67 5.84H6.58zm0 15.26h.72c4.26 0 6.8 2.25 6.8 5.61 0 3.4-2.54 5.58-6.8 5.58h-.72zm0 0"/></symbol><symbol overflow="visible" id="9e47e7bccB"><path d="M14.55-33.75c-8.55 0-12.77 6.78-12.77 16.9C1.78-6.71 6 0 14.55 0v-3.6c-6.63 0-9.13-5.43-9.13-13.24 0-7.83 2.5-13.3 9.13-13.3zm0 0"/></symbol><symbol overflow="visible" id="9e47e7bccC"><path d="M7.58 0c6.39 0 11.58-6.44 11.58-16.84 0-10.47-5.24-16.91-11.58-16.91H2.92V0zm-1-3.64V-30.1h1.48c3.55 0 7.44 4.46 7.44 13.25 0 8.78-3.9 13.2-7.44 13.2zm0 0"/></symbol><symbol overflow="visible" id="9e47e7bccD"><path d="M2.92-33.75V0H14.5v-3.64H6.58v-11.19h7.92v-3.56H6.58v-11.7h7.92v-3.66zm0 0"/></symbol><symbol overflow="visible" id="9e47e7bccE"><path d="M2.92-33.75V0h3.66v-14.83h7.92v-3.56H6.58v-11.7h7.92v-3.66zm0 0"/></symbol><symbol overflow="visible" id="9e47e7bccF"><path d="M14.55-30.14h1.34v-3.61h-1.34c-8.55 0-12.77 6.78-12.77 16.9C1.78-6.71 6 0 14.55 0h1.34v-16.84h-3.31V-3.8c-5.19-.95-7.16-6.04-7.16-13.04 0-7.83 2.5-13.3 9.13-13.3zm0 0"/></symbol><symbol overflow="visible" id="9e47e7bccG"><path d="M2.92-33.75V0h3.66v-14.83h9.73V0h3.66v-33.75H16.3v15.36H6.58v-15.36zm0 0"/></symbol><symbol overflow="visible" id="9e47e7bccH"><path d="M2.92-33.75V0h3.66v-33.75zm0 0"/></symbol><symbol overflow="visible" id="9e47e7bccI"><path d="M5.52-33.75V-8.3c0 2.58-1.72 4.7-4.57 4.7V0c4.96 0 8.27-3.7 8.27-8.55v-25.2zm0 0"/></symbol><symbol overflow="visible" id="9e47e7bccJ"><path d="M2.92-33.75V0h3.66v-14.3l.23-.34L16.08 0h4.33v-.58L9.5-17.8l10.8-15.32v-.62h-4.22l-9.5 13.4v-13.4zm0 0"/></symbol><symbol overflow="visible" id="9e47e7bccK"><path d="M2.92-33.75V0h10.9v-3.5H6.54v-30.25zm0 0"/></symbol><symbol overflow="visible" id="9e47e7bccL"><path d="M2.92-33.75V0h3.42v-21.27l6.24 14.88h.81l6.48-14.88V0h3.41v-33.75h-1.3l-8.96 20.5-8.85-20.5zm0 0"/></symbol><symbol overflow="visible" id="9e47e7bccM"><path d="M2.92-33.75V0h3.36v-22.27L18.62 0h.72v-33.75h-3.36v22.28L3.64-33.75zm0 0"/></symbol><symbol overflow="visible" id="9e47e7bccN"><path d="M10.84-34.22c-5.9 0-9.01 6.77-9.01 17.38C1.83-6.28 4.93.53 10.84.53c5.96 0 9.13-6.81 9.13-17.37 0-10.61-3.17-17.38-9.13-17.38zm0 3.6c3.7 0 5.47 4.84 5.47 13.78 0 8.92-1.72 13.76-5.47 13.76-3.54 0-5.37-4.84-5.37-13.76 0-8.94 1.78-13.79 5.37-13.79zm0 0"/></symbol><symbol overflow="visible" id="9e47e7bccO"><path d="M2.92-33.75V0h3.66v-8.36c7.3-.23 11.76-6 11.76-12.56 0-6.78-4.95-12.83-12-12.83zm3.66 3.66c4.8 0 8.1 4.12 8.1 9.17 0 4.94-3.3 8.92-8.1 8.92zm0 0"/></symbol><symbol overflow="visible" id="9e47e7bccP"><path d="M10.84-34.22c-5.9 0-9.01 6.77-9.01 17.38C1.83-7.25 4.37-.77 9.27.34l-.05 4.7h3.64l-.1-4.8c4.7-1.3 7.2-7.72 7.2-17.08 0-10.61-3.16-17.38-9.12-17.38zm0 3.6c3.7 0 5.47 4.84 5.47 13.78 0 8.92-1.72 13.76-5.47 13.76-3.59 0-5.37-5.03-5.37-13.76 0-8.94 1.78-13.79 5.37-13.79zm0 0"/></symbol><symbol overflow="visible" id="9e47e7bccQ"><path d="M13.16-3.27C14.64-.9 15.98 0 18.39 0h.77v-3.64h-.35c-.95 0-1.53-.34-2.06-1.2l-3.55-5.63c3.27-2.3 5.14-6.19 5.14-10.45 0-6.78-4.95-12.83-12-12.83H2.92V0h3.66v-8.36c1.04 0 2.1-.19 3.06-.42zM6.58-30.09c4.8 0 8.1 4.12 8.1 9.17 0 4.94-3.3 8.92-8.1 8.92zm0 0"/></symbol><symbol overflow="visible" id="9e47e7bccR"><path d="M13.63-33.75c-5.18 0-8.79 3.7-8.79 9.36 0 5.44 3.36 10.52 3.36 14.69 0 4.14-1.67 6.06-5.95 6.06H.58V0h2.25c6.58 0 9.22-3.98 9.22-9.64 0-5.14-3.36-10.19-3.36-14.31 0-4.43 2.15-6.24 5.33-6.24h1.06v-3.56zm0 0"/></symbol><symbol overflow="visible" id="9e47e7bccS"><path d="M.9-33.75v3.56h5.82V0h3.66v-30.19h5.8v-3.56zm0 0"/></symbol><symbol overflow="visible" id="9e47e7bccT"><path d="M10.94-3.08c-2.58 0-4.55-1.9-4.55-7.62v-23.05H2.73v23.19c0 7.2 3.08 11.1 8.2 11.1 5.2 0 8.27-3.9 8.27-11.1v-23.19h-3.65v23.05c0 5.72-1.97 7.62-4.61 7.62zm0 0"/></symbol><symbol overflow="visible" id="9e47e7bccU"><path d="M3.94-33.75H.04L9.95 0h.72l9.93-33.75h-3.93l-4.43 16.38-1.96 8.34-1.97-8.35zm0 0"/></symbol><symbol overflow="visible" id="9e47e7bccV"><path d="M.34-33.75L8.11 0h.67l5.47-23.42L19.83 0h.72l7.76-33.75H24.4l-3.36 16.47-.83 4.7-5.12-21.17h-1.6L8.5-12.58l-.92-4.7-3.36-16.47zm0 0"/></symbol><symbol overflow="visible" id="9e47e7bccW"><path d="M1.1-33.75l5.8 16.86L.87 0h3.98l4.43-13.78L13.78 0h3.94l-6.06-16.9 5.9-16.85h-3.93L9.3-19.97 5.05-33.75zm0 0"/></symbol><symbol overflow="visible" id="9e47e7bccX"><path d="M9.7-17.81c-2.6 0-4.56-1.92-4.56-7.63v-8.31H1.48v8.45c0 6.35 2.36 10.08 6.44 10.9V0h3.64v-14.4c4.03-.87 6.4-4.62 6.4-10.9v-8.45H14.3v8.31c0 5.7-1.96 7.63-4.6 7.63zm0 0"/></symbol><symbol overflow="visible" id="9e47e7bccY"><path d="M11.1-34.22c-5.77 0-9.04 6.9-9.04 17.38C2.06-6.44 5.33.53 11.1.53c5.8 0 9.11-6.97 9.11-17.37 0-10.47-3.3-17.38-9.1-17.38zm0 3.6c3.54 0 5.46 5 5.46 13.78S14.64-3.08 11.1-3.08c-3.46 0-5.37-4.98-5.37-13.76 0-8.79 1.9-13.79 5.37-13.79zm0 0"/></symbol><symbol overflow="visible" id="9e47e7bccZ"><path d="M.86-33.75v3.4h4.03V0h3.66v-33.75zm0 0"/></symbol><symbol overflow="visible" id="9e47e7bcda"><path d="M4.08-26.78c1.06-2.36 2.31-3.5 4.6-3.5 2.3 0 4.04 1.86 4.04 5.51 0 1.44-.28 3.5-2.06 6.63L1.53-1.25V0h15.22v-3.64H7.39L14.2-16.7c1.64-3.18 2.36-5.68 2.36-8.32 0-5.42-3.03-8.92-7.68-8.92-4.18 0-6.38 2.2-7.63 5.1zm0 0"/></symbol><symbol overflow="visible" id="9e47e7bcdb"><path d="M6.34-18.53v3.45h2.63c2.22 0 3.94 2.22 3.94 6 0 3.85-1.49 5.96-4.04 5.96-2.3 0-3.54-1.15-4.6-3.5L1.44-4.56C2.69-1.7 5.09.54 8.74.54c4.6 0 8.01-3.5 8.01-9.5 0-5.45-3.27-7.74-3.27-7.74s3.08-1.64 3.08-7.2c0-6.87-3.4-10.32-8.01-10.32-3.66 0-5.86 2.2-7.11 5.08l2.83 2.06c1.06-2.34 2.12-3.5 4.42-3.5s4.03 2.16 4.03 6.58c0 4.03-1.53 5.47-3.75 5.47zm0 0"/></symbol><symbol overflow="visible" id="9e47e7bcdc"><path d="M13.48-33.75L.77-9.22v2.06h11.71V0h3.64v-7.16h2.94v-3.4h-2.93v-23.19zm-1 8.13v15.06H5.05zm0 0"/></symbol><symbol overflow="visible" id="9e47e7bcdd"><path d="M6.23-19.25l.63-11.1h8.31v-3.4H3.75L2.73-17.61v1.81h4.8c3.56 0 5.28 2.7 5.28 6.93 0 3.64-1.72 5.74-4.03 5.74-2.3 0-3.55-1.14-4.6-3.5L1.33-4.55C2.6-1.7 4.98.54 8.64.54c4.61 0 8.02-3.5 8.02-9.5 0-5.45-2.55-10.29-8.3-10.29zm0 0"/></symbol><symbol overflow="visible" id="9e47e7bcde"><path d="M9.64-33.75L3.27-17.81a18.68 18.68 0 00-1.54 7.15c0 6.14 2.93 11.2 8.54 11.2 5.43 0 8.64-5.24 8.64-11.15 0-5.77-3.41-10.56-8.6-10.56-1.34 0-2.01.3-2.01.3l5.23-12.88zm-4.4 23.28c0-3.78 1.67-7.3 5.03-7.3 3.3 0 5 3.52 5 7.3 0 3.9-1.54 7.4-5 7.4-3.5 0-5.04-3.56-5.04-7.4zm0 0"/></symbol><symbol overflow="visible" id="9e47e7bcdf"><path d="M1.06-33.75v3.4H11.2L2.55 0h3.8l9.59-33.75zm0 0"/></symbol><symbol overflow="visible" id="9e47e7bcdg"><path d="M2.88-8.25c0 4.9 3.21 8.83 7.68 8.83 4.4 0 7.67-3.94 7.67-8.83 0-3.22-1.18-5.77-3.15-7.34 2.78-1.74 4.26-5.05 4.26-8.5 0-5.63-3.17-10.22-8.78-10.22-5.58 0-8.69 4.6-8.69 10.22 0 3.45 1.44 6.76 4.13 8.5-1.92 1.53-3.13 4.12-3.13 7.34zM15.7-24.09c0 3.4-2.01 6.48-5.14 6.48-3.08 0-5.04-3.08-5.04-6.48 0-3.61 1.96-6.58 5.04-6.58 3.13 0 5.14 2.97 5.14 6.58zM14.64-8.25c0 2.83-1.58 5.17-4.08 5.17S6.48-5.42 6.48-8.25c0-2.98 1.58-5.33 4.08-5.33s4.08 2.35 4.08 5.33zm0 0"/></symbol><symbol overflow="visible" id="9e47e7bcdh"><path d="M10.47 0l6.37-15.94a18.04 18.04 0 001.55-7c0-6-3.08-11.28-8.55-11.28-5.28 0-8.64 5.33-8.64 11.08 0 5.77 3.4 10.56 8.6 10.56 1.34 0 2.01-.28 2.01-.28L6.58 0zm4.4-23.14c0 3.8-1.67 7.16-5.03 7.16-3.3 0-5-3.36-5-7.16 0-3.83 1.7-7.48 5-7.48 3.36 0 5.04 3.65 5.04 7.48zm0 0"/></symbol><symbol overflow="visible" id="9e47e7bcdi"><path d="M1.58-30.19c2.5.24 5.95 2.02 5.95 6.63 0 5.33-4.45 6.23-4.22 12.33l.14 3.4H6.4l.1-3.4c.13-4.8 4.6-6.63 4.6-12.82 0-7.2-5.71-9.4-9.51-9.7zM4.94-4.17c-1.3 0-2.25.95-2.25 2.25 0 1.25.95 2.2 2.25 2.2a2.22 2.22 0 100-4.45zm0 0"/></symbol></defs><path fill="red" d="M0 0h1366v768H0z"/><g fill="#f2f2f2"><use xlink:href="#9e47e7bca" x="69.0381" y="222.6084"/><use xlink:href="#9e47e7bcb" x="110.9421" y="222.6084"/><use xlink:href="#9e47e7bcc" x="153.3261" y="222.6084"/><use xlink:href="#9e47e7bcd" x="190.9101" y="222.6084"/><use xlink:href="#9e47e7bce" x="233.5821" y="222.6084"/><use xlink:href="#9e47e7bcf" x="271.4541" y="222.6084"/><use xlink:href="#9e47e7bcg" x="309.3261" y="222.6084"/><use xlink:href="#9e47e7bch" x="348.6381" y="222.6084"/><use xlink:href="#9e47e7bci" x="394.3341" y="222.6084"/><use xlink:href="#9e47e7bcj" x="407.0061" y="222.6084"/><use xlink:href="#9e47e7bck" x="437.5821" y="222.6084"/><use xlink:href="#9e47e7bcl" x="477.0381" y="222.6084"/><use xlink:href="#9e47e7bcm" x="510.6861" y="222.6084"/><use xlink:href="#9e47e7bcn" x="565.7901" y="222.6084"/><use xlink:href="#9e47e7bco" x="611.4861" y="222.6084"/><use xlink:href="#9e47e7bcp" x="656.7981" y="222.6084"/><use xlink:href="#9e47e7bcq" x="699.2301" y="222.6084"/><use xlink:href="#9e47e7bcr" x="744.5421" y="222.6084"/><use xlink:href="#9e47e7bcs" x="785.7741" y="222.6084"/><use xlink:href="#9e47e7bct" x="826.8141" y="222.6084"/><use xlink:href="#9e47e7bcu" x="863.9661" y="222.6084"/><use xlink:href="#9e47e7bcv" x="908.1261" y="222.6084"/><use xlink:href="#9e47e7bcw" x="950.2221" y="222.6084"/><use xlink:href="#9e47e7bcx" x="1005.5181" y="222.6084"/><use xlink:href="#9e47e7bcy" x="1048.0461" y="222.6084"/></g><use xlink:href="#9e47e7bcz" x="1086.3501" y="222.6084" fill="#f2f2f2"/><g fill="#f2f2f2"><use xlink:href="#9e47e7bcA" x="1130.5101" y="222.6084"/><use xlink:href="#9e47e7bcB" x="1149.6141" y="222.6084"/><use xlink:href="#9e47e7bcC" x="1186.3341" y="222.6084"/><use xlink:href="#9e47e7bcD" x="1223.3421" y="222.6084"/><use xlink:href="#9e47e7bcE" x="1260.7341" y="222.6084"/></g><use xlink:href="#9e47e7bcF" x="62.5581" y="271.6164" fill="#f2f2f2"/><g fill="#f2f2f2"><use xlink:href="#9e47e7bcG" x="97.3581" y="271.6164"/><use xlink:href="#9e47e7bcH" x="130.0941" y="271.6164"/><use xlink:href="#9e47e7bcI" x="169.2141" y="271.6164"/><use xlink:href="#9e47e7bcJ" x="206.8941" y="271.6164"/><use xlink:href="#9e47e7bca" x="222.8781" y="271.6164"/><use xlink:href="#9e47e7bcb" x="264.7821" y="271.6164"/><use xlink:href="#9e47e7bcc" x="307.1661" y="271.6164"/><use xlink:href="#9e47e7bcd" x="344.7501" y="271.6164"/><use xlink:href="#9e47e7bce" x="387.4221" y="271.6164"/><use xlink:href="#9e47e7bcf" x="425.2941" y="271.6164"/><use xlink:href="#9e47e7bcg" x="463.1661" y="271.6164"/><use xlink:href="#9e47e7bch" x="502.4781" y="271.6164"/><use xlink:href="#9e47e7bci" x="548.1741" y="271.6164"/><use xlink:href="#9e47e7bcj" x="560.8461" y="271.6164"/><use xlink:href="#9e47e7bck" x="591.4221" y="271.6164"/><use xlink:href="#9e47e7bcl" x="630.8781" y="271.6164"/><use xlink:href="#9e47e7bcm" x="664.5261" y="271.6164"/><use xlink:href="#9e47e7bcn" x="719.6301" y="271.6164"/><use xlink:href="#9e47e7bco" x="765.3261" y="271.6164"/><use xlink:href="#9e47e7bcp" x="810.6381" y="271.6164"/><use xlink:href="#9e47e7bcq" x="853.0701" y="271.6164"/><use xlink:href="#9e47e7bcr" x="898.3821" y="271.6164"/><use xlink:href="#9e47e7bcs" x="939.6141" y="271.6164"/><use xlink:href="#9e47e7bct" x="980.6541" y="271.6164"/><use xlink:href="#9e47e7bcu" x="1017.8061" y="271.6164"/><use xlink:href="#9e47e7bcv" x="1061.9661" y="271.6164"/><use xlink:href="#9e47e7bcw" x="1104.0621" y="271.6164"/><use xlink:href="#9e47e7bcx" x="1159.3581" y="271.6164"/><use xlink:href="#9e47e7bcy" x="1201.8861" y="271.6164"/></g><use xlink:href="#9e47e7bcz" x="1240.1901" y="271.6164" fill="#f2f2f2"/><use xlink:href="#9e47e7bcA" x="1284.3501" y="271.6164" fill="#f2f2f2"/><g fill="#f2f2f2"><use xlink:href="#9e47e7bcB" x="70.3341" y="320.6244"/><use xlink:href="#9e47e7bcC" x="107.0541" y="320.6244"/><use xlink:href="#9e47e7bcD" x="144.0621" y="320.6244"/><use xlink:href="#9e47e7bcE" x="181.4541" y="320.6244"/><use xlink:href="#9e47e7bcF" x="217.6941" y="320.6244"/></g><g fill="#f2f2f2"><use xlink:href="#9e47e7bcG" x="252.4941" y="320.6244"/><use xlink:href="#9e47e7bcH" x="285.2301" y="320.6244"/><use xlink:href="#9e47e7bcI" x="324.3501" y="320.6244"/><use xlink:href="#9e47e7bcJ" x="362.0301" y="320.6244"/></g><g fill="#f2f2f2"><use xlink:href="#9e47e7bcK" x="378.0141" y="320.6244"/><use xlink:href="#9e47e7bcL" x="411.9501" y="320.6244"/><use xlink:href="#9e47e7bcM" x="441.3741" y="320.6244"/><use xlink:href="#9e47e7bcN" x="466.0461" y="320.6244"/><use xlink:href="#9e47e7bcO" x="497.5341" y="320.6244"/><use xlink:href="#9e47e7bcP" x="521.7741" y="320.6244"/><use xlink:href="#9e47e7bcQ" x="545.5821" y="320.6244"/><use xlink:href="#9e47e7bcR" x="572.9421" y="320.6244"/><use xlink:href="#9e47e7bcS" x="608.1261" y="320.6244"/><use xlink:href="#9e47e7bcT" x="621.9501" y="320.6244"/><use xlink:href="#9e47e7bcU" x="637.8861" y="320.6244"/><use xlink:href="#9e47e7bcV" x="667.1661" y="320.6244"/><use xlink:href="#9e47e7bcW" x="689.2941" y="320.6244"/><use xlink:href="#9e47e7bcX" x="729.3261" y="320.6244"/><use xlink:href="#9e47e7bcY" x="764.5101" y="320.6244"/><use xlink:href="#9e47e7bcZ" x="802.3821" y="320.6244"/><use xlink:href="#9e47e7bcaa" x="831.1821" y="320.6244"/><use xlink:href="#9e47e7bcab" x="869.0541" y="320.6244"/><use xlink:href="#9e47e7bcac" x="898.5741" y="320.6244"/><use xlink:href="#9e47e7bcad" x="918.7341" y="320.6244"/><use xlink:href="#9e47e7bcae" x="944.1741" y="320.6244"/><use xlink:href="#9e47e7bcaf" x="978.5901" y="320.6244"/><use xlink:href="#9e47e7bcag" x="1008.9261" y="320.6244"/><use xlink:href="#9e47e7bcah" x="1053.3741" y="320.6244"/><use xlink:href="#9e47e7bcai" x="1084.4781" y="320.6244"/><use xlink:href="#9e47e7bcaj" x="1114.3821" y="320.6244"/><use xlink:href="#9e47e7bcak" x="1152.9741" y="320.6244"/><use xlink:href="#9e47e7bcal" x="1169.3421" y="320.6244"/><use xlink:href="#9e47e7bcam" x="1194.7821" y="320.6244"/><use xlink:href="#9e47e7bcan" x="1218.5421" y="320.6244"/><use xlink:href="#9e47e7bcao" x="1246.0941" y="320.6244"/><use xlink:href="#9e47e7bcap" x="1269.4221" y="320.6244"/></g><g fill="#f2f2f2"><use xlink:href="#9e47e7bcaq" x="76.4781" y="369.6324"/><use xlink:href="#9e47e7bcar" x="97.5981" y="369.6324"/><use xlink:href="#9e47e7bcas" x="123.4701" y="369.6324"/><use xlink:href="#9e47e7bcat" x="149.8221" y="369.6324"/></g><g fill="#f2f2f2"><use xlink:href="#9e47e7bcau" x="167.1501" y="369.6324"/><use xlink:href="#9e47e7bcav" x="191.1981" y="369.6324"/><use xlink:href="#9e47e7bcaw" x="213.3741" y="369.6324"/><use xlink:href="#9e47e7bcax" x="230.4141" y="369.6324"/><use xlink:href="#9e47e7bcay" x="253.0221" y="369.6324"/><use xlink:href="#9e47e7bcaz" x="270.2541" y="369.6324"/><use xlink:href="#9e47e7bcaA" x="287.4861" y="369.6324"/><use xlink:href="#9e47e7bcaB" x="307.5981" y="369.6324"/><use xlink:href="#9e47e7bcaC" x="332.1261" y="369.6324"/><use xlink:href="#9e47e7bcaD" x="343.8381" y="369.6324"/><use xlink:href="#9e47e7bcaE" x="358.4781" y="369.6324"/><use xlink:href="#9e47e7bcaF" x="380.8941" y="369.6324"/><use xlink:href="#9e47e7bcaG" x="397.0701" y="369.6324"/><use xlink:href="#9e47e7bcaH" x="424.3341" y="369.6324"/><use xlink:href="#9e47e7bcaI" x="448.0941" y="369.6324"/><use xlink:href="#9e47e7bcaJ" x="471.1821" y="369.6324"/><use xlink:href="#9e47e7bcaK" x="493.4541" y="369.6324"/><use xlink:href="#9e47e7bcaL" x="516.5421" y="369.6324"/><use xlink:href="#9e47e7bcaM" x="539.0541" y="369.6324"/><use xlink:href="#9e47e7bcaN" x="556.4301" y="369.6324"/><use xlink:href="#9e47e7bcaO" x="575.6301" y="369.6324"/><use xlink:href="#9e47e7bcaP" x="598.8141" y="369.6324"/><use xlink:href="#9e47e7bcaQ" x="620.7501" y="369.6324"/><use xlink:href="#9e47e7bcaR" x="651.2301" y="369.6324"/><use xlink:href="#9e47e7bcaS" x="672.3981" y="369.6324"/><use xlink:href="#9e47e7bcaT" x="693.3741" y="369.6324"/><use xlink:href="#9e47e7bcaU" x="716.8461" y="369.6324"/><use xlink:href="#9e47e7bcaV" x="730.1901" y="369.6324"/><use xlink:href="#9e47e7bcaW" x="751.5981" y="369.6324"/><use xlink:href="#9e47e7bcaX" x="773.6781" y="369.6324"/><use xlink:href="#9e47e7bcaY" x="797.2941" y="369.6324"/><use xlink:href="#9e47e7bcaZ" x="818.2221" y="369.6324"/><use xlink:href="#9e47e7bcba" x="840.3981" y="369.6324"/><use xlink:href="#9e47e7bcbb" x="858.8301" y="369.6324"/><use xlink:href="#9e47e7bcbc" x="881.1981" y="369.6324"/><use xlink:href="#9e47e7bcbd" x="903.3741" y="369.6324"/></g><g fill="#f2f2f2"><use xlink:href="#9e47e7bcbe" x="917.9181" y="369.6324"/><use xlink:href="#9e47e7bcbf" x="982.2381" y="369.6324"/><use xlink:href="#9e47e7bcbg" x="1046.0781" y="369.6324"/><use xlink:href="#9e47e7bcbh" x="1106.0781" y="369.6324"/><use xlink:href="#9e47e7bcbi" x="1174.8621" y="369.6324"/><use xlink:href="#9e47e7bcbj" x="1232.2221" y="369.6324"/></g><g fill="#f2f2f2"><use xlink:href="#9e47e7bcbk" x="65.2941" y="418.6404"/><use xlink:href="#9e47e7bcbl" x="126.6381" y="418.6404"/><use xlink:href="#9e47e7bcbm" x="196.2381" y="418.6404"/><use xlink:href="#9e47e7bcbn" x="251.7261" y="418.6404"/><use xlink:href="#9e47e7bcbo" x="304.5741" y="418.6404"/><use xlink:href="#9e47e7bcbp" x="367.9821" y="418.6404"/><use xlink:href="#9e47e7bcbq" x="422.4621" y="418.6404"/><use xlink:href="#9e47e7bcbr" x="505.0221" y="418.6404"/><use xlink:href="#9e47e7bcbs" x="573.7101" y="418.6404"/><use xlink:href="#9e47e7bcbt" x="643.7901" y="418.6404"/><use xlink:href="#9e47e7bcbu" x="706.1421" y="418.6404"/><use xlink:href="#9e47e7bcbv" x="776.2221" y="418.6404"/><use xlink:href="#9e47e7bcbw" x="839.6781" y="418.6404"/><use xlink:href="#9e47e7bcbx" x="900.5901" y="418.6404"/><use xlink:href="#9e47e7bcby" x="955.1181" y="418.6404"/><use xlink:href="#9e47e7bcbz" x="1018.6701" y="418.6404"/><use xlink:href="#9e47e7bcbA" x="1091.1981" y="418.6404"/><use xlink:href="#9e47e7bcbB" x="1168.8141" y="418.6404"/><use xlink:href="#9e47e7bcbC" x="1241.5821" y="418.6404"/></g><use xlink:href="#9e47e7bcbD" x="78.5901" y="467.6484" fill="#f2f2f2"/><g fill="#f2f2f2"><use xlink:href="#9e47e7bcbE" x="140.9901" y="467.6484"/><use xlink:href="#9e47e7bcbF" x="195.5181" y="467.6484"/><use xlink:href="#9e47e7bcbG" x="254.0301" y="467.6484"/><use xlink:href="#9e47e7bcbH" x="311.1981" y="467.6484"/><use xlink:href="#9e47e7bcbI" x="368.7501" y="467.6484"/><use xlink:href="#9e47e7bcbJ" x="424.6221" y="467.6484"/></g><g fill="#f2f2f2"><use xlink:href="#9e47e7bcbK" x="478.5741" y="467.6484"/><use xlink:href="#9e47e7bcbL" x="530.5581" y="467.6484"/><use xlink:href="#9e47e7bcbM" x="589.4541" y="467.6484"/><use xlink:href="#9e47e7bcbN" x="648.2541" y="467.6484"/></g><g fill="#f2f2f2"><use xlink:href="#9e47e7bca" x="696.9261" y="467.6484"/><use xlink:href="#9e47e7bcb" x="738.8301" y="467.6484"/><use xlink:href="#9e47e7bcc" x="781.2141" y="467.6484"/><use xlink:href="#9e47e7bcd" x="818.7981" y="467.6484"/><use xlink:href="#9e47e7bce" x="861.4701" y="467.6484"/><use xlink:href="#9e47e7bcf" x="899.3421" y="467.6484"/><use xlink:href="#9e47e7bci" x="937.2141" y="467.6484"/><use xlink:href="#9e47e7bcj" x="949.8861" y="467.6484"/><use xlink:href="#9e47e7bck" x="980.4621" y="467.6484"/><use xlink:href="#9e47e7bcl" x="1019.9181" y="467.6484"/><use xlink:href="#9e47e7bcm" x="1053.5661" y="467.6484"/><use xlink:href="#9e47e7bcn" x="1108.6701" y="467.6484"/><use xlink:href="#9e47e7bco" x="1154.3661" y="467.6484"/><use xlink:href="#9e47e7bcp" x="1199.6781" y="467.6484"/><use xlink:href="#9e47e7bcq" x="1242.1101" y="467.6484"/></g><g fill="#f2f2f2"><use xlink:href="#9e47e7bcr" x="64.2861" y="516.6564"/><use xlink:href="#9e47e7bcs" x="105.5181" y="516.6564"/><use xlink:href="#9e47e7bct" x="146.5581" y="516.6564"/><use xlink:href="#9e47e7bcu" x="183.7101" y="516.6564"/><use xlink:href="#9e47e7bcv" x="227.8701" y="516.6564"/><use xlink:href="#9e47e7bcw" x="269.9661" y="516.6564"/><use xlink:href="#9e47e7bcx" x="325.2621" y="516.6564"/><use xlink:href="#9e47e7bcy" x="367.7901" y="516.6564"/><use xlink:href="#9e47e7bcbO" x="407.8701" y="516.6564"/></g><use xlink:href="#9e47e7bcz" x="445.3581" y="516.6564" fill="#f2f2f2"/><g fill="#f2f2f2"><use xlink:href="#9e47e7bcA" x="489.5181" y="516.6564"/><use xlink:href="#9e47e7bcB" x="508.6221" y="516.6564"/><use xlink:href="#9e47e7bcC" x="545.3421" y="516.6564"/><use xlink:href="#9e47e7bcD" x="582.3501" y="516.6564"/><use xlink:href="#9e47e7bcE" x="619.7421" y="516.6564"/><use xlink:href="#9e47e7bcF" x="655.9821" y="516.6564"/></g><g fill="#f2f2f2"><use xlink:href="#9e47e7bcG" x="690.7821" y="516.6564"/><use xlink:href="#9e47e7bcH" x="723.5181" y="516.6564"/><use xlink:href="#9e47e7bcI" x="762.6381" y="516.6564"/><use xlink:href="#9e47e7bcJ" x="800.3181" y="516.6564"/></g><g fill="#f2f2f2"><use xlink:href="#9e47e7bcbP" x="816.3021" y="516.6564"/><use xlink:href="#9e47e7bcbQ" x="850.5261" y="516.6564"/><use xlink:href="#9e47e7bcbR" x="877.8381" y="516.6564"/><use xlink:href="#9e47e7bcbS" x="901.4541" y="516.6564"/><use xlink:href="#9e47e7bcbT" x="934.3341" y="516.6564"/><use xlink:href="#9e47e7bcbU" x="957.2301" y="516.6564"/><use xlink:href="#9e47e7bcbV" x="979.5021" y="516.6564"/><use xlink:href="#9e47e7bcbW" x="1007.5341" y="516.6564"/><use xlink:href="#9e47e7bcbX" x="1043.0541" y="516.6564"/><use xlink:href="#9e47e7bcbY" x="1055.7261" y="516.6564"/><use xlink:href="#9e47e7bcbZ" x="1070.5581" y="516.6564"/><use xlink:href="#9e47e7bcca" x="1099.0701" y="516.6564"/><use xlink:href="#9e47e7bccb" x="1120.5741" y="516.6564"/><use xlink:href="#9e47e7bccc" x="1161.6621" y="516.6564"/><use xlink:href="#9e47e7bccd" x="1197.4221" y="516.6564"/><use xlink:href="#9e47e7bcce" x="1236.3981" y="516.6564"/><use xlink:href="#9e47e7bccf" x="1262.7021" y="516.6564"/></g><g fill="#f2f2f2"><use xlink:href="#9e47e7bccg" x="92.5581" y="565.6644"/><use xlink:href="#9e47e7bcch" x="120.3021" y="565.6644"/><use xlink:href="#9e47e7bcci" x="138.6861" y="565.6644"/><use xlink:href="#9e47e7bccj" x="161.4381" y="565.6644"/><use xlink:href="#9e47e7bcck" x="194.7981" y="565.6644"/><use xlink:href="#9e47e7bccl" x="225.2781" y="565.6644"/><use xlink:href="#9e47e7bccm" x="269.1981" y="565.6644"/><use xlink:href="#9e47e7bccn" x="298.4301" y="565.6644"/><use xlink:href="#9e47e7bcco" x="327.2781" y="565.6644"/></g><g fill="#f2f2f2"><use xlink:href="#9e47e7bccp" x="366.5949" y="565.6644"/><use xlink:href="#9e47e7bccq" x="380.8029" y="565.6644"/><use xlink:href="#9e47e7bccr" x="404.9469" y="565.6644"/><use xlink:href="#9e47e7bccs" x="428.1309" y="565.6644"/><use xlink:href="#9e47e7bcct" x="454.2429" y="565.6644"/><use xlink:href="#9e47e7bccu" x="476.7549" y="565.6644"/><use xlink:href="#9e47e7bccv" x="501.7149" y="565.6644"/><use xlink:href="#9e47e7bccw" x="521.6349" y="565.6644"/><use xlink:href="#9e47e7bccx" x="547.3629" y="565.6644"/><use xlink:href="#9e47e7bccy" x="572.3229" y="565.6644"/></g><g fill="#f2f2f2"><use xlink:href="#9e47e7bccz" x="588.3069" y="565.6644"/><use xlink:href="#9e47e7bccA" x="611.1069" y="565.6644"/><use xlink:href="#9e47e7bccB" x="631.3149" y="565.6644"/><use xlink:href="#9e47e7bccC" x="647.7309" y="565.6644"/><use xlink:href="#9e47e7bccD" x="668.6109" y="565.6644"/><use xlink:href="#9e47e7bccE" x="685.2669" y="565.6644"/></g><g fill="#f2f2f2"><use xlink:href="#9e47e7bccF" x="701.6829" y="565.6644"/><use xlink:href="#9e47e7bccG" x="719.8269" y="565.6644"/><use xlink:href="#9e47e7bccH" x="742.7229" y="565.6644"/><use xlink:href="#9e47e7bccI" x="752.2269" y="565.6644"/><use xlink:href="#9e47e7bccJ" x="764.2269" y="565.6644"/><use xlink:href="#9e47e7bccK" x="784.8189" y="565.6644"/><use xlink:href="#9e47e7bccL" x="799.5549" y="565.6644"/><use xlink:href="#9e47e7bccM" x="825.7629" y="565.6644"/><use xlink:href="#9e47e7bccN" x="848.0349" y="565.6644"/><use xlink:href="#9e47e7bccO" x="869.8269" y="565.6644"/><use xlink:href="#9e47e7bccP" x="889.4589" y="565.6644"/><use xlink:href="#9e47e7bccQ" x="911.2509" y="565.6644"/><use xlink:href="#9e47e7bccR" x="931.6989" y="565.6644"/><use xlink:href="#9e47e7bccS" x="947.4909" y="565.6644"/><use xlink:href="#9e47e7bccT" x="964.5789" y="565.6644"/><use xlink:href="#9e47e7bccU" x="986.5149" y="565.6644"/><use xlink:href="#9e47e7bccV" x="1007.1549" y="565.6644"/><use xlink:href="#9e47e7bccW" x="1035.8109" y="565.6644"/><use xlink:href="#9e47e7bccX" x="1054.3869" y="565.6644"/><use xlink:href="#9e47e7bccY" x="1073.8269" y="565.6644"/><use xlink:href="#9e47e7bccZ" x="1096.0989" y="565.6644"/><use xlink:href="#9e47e7bcda" x="1107.4269" y="565.6644"/><use xlink:href="#9e47e7bcdb" x="1126.0509" y="565.6644"/><use xlink:href="#9e47e7bcdc" x="1144.9629" y="565.6644"/><use xlink:href="#9e47e7bcdd" x="1165.4589" y="565.6644"/><use xlink:href="#9e47e7bcde" x="1183.6509" y="565.6644"/></g><g fill="#f2f2f2"><use xlink:href="#9e47e7bcdf" x="1203.2829" y="565.6644"/><use xlink:href="#9e47e7bcdg" x="1219.5549" y="565.6644"/><use xlink:href="#9e47e7bcdh" x="1240.7709" y="565.6644"/><use xlink:href="#9e47e7bcdi" x="1260.8349" y="565.6644"/></g></svg>