<?xml version="1.0" encoding="UTF-8"?><svg id="Layer_1" xmlns="http://www.w3.org/2000/svg" xmlns:xlink="http://www.w3.org/1999/xlink" viewBox="0 0 1366 768"><defs><style>.cls-1{clip-path:url(#clippath);}.cls-2{fill:#f2f2f2;}.cls-3{fill:#fff;}.cls-4{fill:#fdfaf5;}</style><clipPath id="clippath"><rect width="1366" height="768"/></clipPath></defs><g><rect width="1366" height="768"/><g class="cls-1"><rect x="9.51" y="6.58" width="1346.99" height="760.1"/></g></g><g><path class="cls-2" d="M930.93,718.08l-3.77,9.91h-1.03l-3.68-9.91h1.23l2.98,8.37,3.04-8.37h1.23Z"/><path class="cls-2" d="M933.81,719.13v3.27h4.69v1.04h-4.69v3.5h5.26v1.05h-6.41v-9.91h6.41v1.05h-5.26Z"/><path class="cls-2" d="M944.56,723.65h-2.01v4.33h-1.16v-9.91h3.81c2.12,0,3.09,1.05,3.09,2.73,0,1.49-.77,2.49-2.49,2.71l2.99,4.46h-1.3l-2.94-4.33Zm-2.01-1.04h2.52c1.35,0,2.06-.66,2.06-1.81s-.74-1.69-2.09-1.69h-2.49v3.5Z"/><path class="cls-2" d="M950.07,725.04h1.22c.18,1.4,1.15,2.09,2.65,2.09,1.59,0,2.32-.74,2.32-1.71,0-.88-.55-1.39-1.63-1.65l-2.16-.51c-1.37-.32-2.11-1.21-2.11-2.51,0-1.6,1.27-2.84,3.32-2.84s3.43,.92,3.64,2.95h-1.22c-.18-1.31-1.08-1.91-2.45-1.91s-2.08,.73-2.08,1.66c0,.71,.34,1.21,1.41,1.47l2.09,.51c1.5,.37,2.39,1.24,2.39,2.66,0,1.74-1.27,2.92-3.54,2.92-2.43,0-3.68-1.12-3.87-3.12Z"/><path class="cls-2" d="M960.82,727.99h-1.15v-9.91h1.15v9.91Z"/><path class="cls-2" d="M963.1,723.04c0-3.06,1.76-5.13,4.32-5.13s4.32,2.07,4.32,5.13-1.76,5.12-4.32,5.12-4.32-2.07-4.32-5.12Zm7.48,0c0-2.54-1.24-4.1-3.16-4.1s-3.16,1.56-3.16,4.1,1.24,4.08,3.16,4.08,3.16-1.56,3.16-4.08Z"/><path class="cls-2" d="M981.63,718.08v9.91h-1.75l-4.77-8.91v8.91h-1.09v-9.91h1.75l4.79,8.91v-8.91h1.08Z"/><path class="cls-2" d="M983.76,725.04h1.22c.18,1.4,1.15,2.09,2.65,2.09,1.59,0,2.32-.74,2.32-1.71,0-.88-.55-1.39-1.63-1.65l-2.16-.51c-1.37-.32-2.11-1.21-2.11-2.51,0-1.6,1.27-2.84,3.32-2.84s3.43,.92,3.64,2.95h-1.22c-.18-1.31-1.08-1.91-2.45-1.91s-2.08,.73-2.08,1.66c0,.71,.34,1.21,1.41,1.47l2.09,.51c1.5,.37,2.39,1.24,2.39,2.66,0,1.74-1.27,2.92-3.54,2.92-2.43,0-3.68-1.12-3.87-3.12Z"/><path class="cls-2" d="M1000.22,723.65h-2.01v4.33h-1.16v-9.91h3.81c2.12,0,3.09,1.05,3.09,2.73,0,1.49-.77,2.49-2.49,2.71l2.99,4.46h-1.3l-2.94-4.33Zm-2.01-1.04h2.52c1.35,0,2.06-.66,2.06-1.81s-.74-1.69-2.09-1.69h-2.49v3.5Z"/><path class="cls-2" d="M1007.6,719.13v3.27h4.69v1.04h-4.69v3.5h5.26v1.05h-6.41v-9.91h6.41v1.05h-5.26Z"/><path class="cls-2" d="M1023.06,722.85v5.13h-1.04v-1.81c-.48,1.18-1.45,1.98-3.06,1.98-2.61,0-4.36-2.07-4.36-5.12s1.74-5.13,4.33-5.13c1.93,0,3.35,.88,3.9,2.84h-1.23c-.42-1.17-1.23-1.81-2.68-1.81-1.86,0-3.16,1.56-3.16,4.1s1.27,4.08,3.2,4.08,2.97-1.27,2.98-3.24h-3.24v-1.04h4.36Z"/><path class="cls-2" d="M1033.04,724.13c0,2.68-1.49,4.03-3.83,4.03s-3.84-1.36-3.84-4.03v-6.05h1.15v6.05c0,1.94,1.08,2.95,2.71,2.95s2.67-.96,2.67-2.89v-6.11h1.15v6.05Z"/><path class="cls-2" d="M1041.43,726.94v1.05h-5.63v-9.91h1.18v8.86h4.46Z"/><path class="cls-2" d="M1048.42,725.26h-4.09l-.97,2.73h-1.23l3.66-9.91h1.24l3.54,9.91h-1.23l-.93-2.73Zm-.36-1.04l-1.65-4.87-1.72,4.87h3.38Z"/><path class="cls-2" d="M1055.55,723.65h-2.01v4.33h-1.16v-9.91h3.81c2.12,0,3.09,1.05,3.09,2.73,0,1.49-.77,2.49-2.49,2.71l2.99,4.46h-1.3l-2.94-4.33Zm-2.01-1.04h2.52c1.35,0,2.06-.66,2.06-1.81s-.74-1.69-2.09-1.69h-2.49v3.5Z"/><path class="cls-2" d="M1061.96,729.9h-.71c.34-.8,.49-1.2,.62-1.72l-.18-.1c-.26-.15-.44-.41-.44-.74,0-.47,.36-.83,.79-.83s.78,.32,.78,.91c0,.51-.25,1.28-.86,2.49Z"/><path class="cls-2" d="M1080.3,718.08l-2.8,9.91h-1.13l-2.37-8.24-2.17,8.24h-1.15l-2.93-9.91h1.16l2.32,8.13,2.23-8.13h1.09l2.38,8.14,2.24-8.14h1.12Z"/><path class="cls-2" d="M1083.3,727.99h-1.15v-9.91h1.15v9.91Z"/><path class="cls-2" d="M1093.65,723.04c0,3.05-1.87,4.95-4.51,4.95h-2.98v-9.91h2.98c2.64,0,4.51,1.9,4.51,4.96Zm-1.16,0c0-2.48-1.3-3.92-3.53-3.92h-1.65v7.83h1.65c2.2,0,3.53-1.44,3.53-3.91Z"/><path class="cls-2" d="M1097.22,719.13v3.27h4.69v1.04h-4.69v3.5h5.26v1.05h-6.41v-9.91h6.41v1.05h-5.26Z"/><path class="cls-2" d="M1108.55,729.69h-.96l4.13-12.15h.96l-4.13,12.15Z"/><path class="cls-2" d="M1125.95,718.08v9.91h-1.75l-4.77-8.91v8.91h-1.09v-9.91h1.75l4.79,8.91v-8.91h1.08Z"/><path class="cls-2" d="M1129.96,719.13v3.27h4.69v1.04h-4.69v3.5h5.26v1.05h-6.41v-9.91h6.41v1.05h-5.26Z"/><path class="cls-2" d="M1136.81,725.04h1.22c.18,1.4,1.15,2.09,2.65,2.09,1.59,0,2.32-.74,2.32-1.71,0-.88-.55-1.39-1.63-1.65l-2.16-.51c-1.37-.32-2.11-1.21-2.11-2.51,0-1.6,1.27-2.84,3.32-2.84s3.43,.92,3.64,2.95h-1.22c-.18-1.31-1.08-1.91-2.45-1.91s-2.08,.73-2.08,1.66c0,.71,.34,1.21,1.41,1.47l2.09,.51c1.5,.37,2.39,1.24,2.39,2.66,0,1.74-1.27,2.92-3.54,2.92-2.43,0-3.68-1.12-3.87-3.12Z"/><path class="cls-2" d="M1152.77,719.1h-3.08v8.88h-1.15v-8.88h-3.09v-1.02h7.31v1.02Z"/><path class="cls-2" d="M1155.82,727.99h-1.15v-9.91h1.15v9.91Z"/><path class="cls-2" d="M1166.3,718.08v9.91h-1.75l-4.77-8.91v8.91h-1.09v-9.91h1.75l4.79,8.91v-8.91h1.08Z"/><path class="cls-2" d="M1177.03,722.85v5.13h-1.04v-1.81c-.48,1.18-1.45,1.98-3.06,1.98-2.61,0-4.36-2.07-4.36-5.12s1.74-5.13,4.33-5.13c1.93,0,3.35,.88,3.9,2.84h-1.23c-.42-1.17-1.23-1.81-2.68-1.81-1.86,0-3.16,1.56-3.16,4.1s1.27,4.08,3.2,4.08,2.97-1.27,2.98-3.24h-3.24v-1.04h4.36Z"/><path class="cls-2" d="M1188.29,725.26h-4.09l-.97,2.73h-1.23l3.66-9.91h1.24l3.54,9.91h-1.23l-.93-2.73Zm-.36-1.04l-1.65-4.87-1.72,4.87h3.38Z"/><path class="cls-2" d="M1199.86,718.08v9.91h-1.75l-4.77-8.91v8.91h-1.09v-9.91h1.75l4.79,8.91v-8.91h1.08Z"/><path class="cls-2" d="M1210.22,723.04c0,3.05-1.87,4.95-4.51,4.95h-2.98v-9.91h2.98c2.64,0,4.51,1.9,4.51,4.96Zm-1.16,0c0-2.48-1.3-3.92-3.53-3.92h-1.65v7.83h1.65c2.2,0,3.53-1.44,3.53-3.91Z"/><path class="cls-2" d="M1215.73,723.04c0-2.99,1.7-5.13,4.31-5.13,2.45,0,3.58,1.34,3.95,3.34h-1.22c-.33-1.6-1.22-2.3-2.73-2.3-1.75,0-3.14,1.6-3.14,4.1s1.39,4.08,3.14,4.08c1.48,0,2.38-.66,2.75-2.29h1.22c-.41,2.09-1.56,3.33-3.96,3.33-2.6,0-4.31-2.13-4.31-5.12Z"/><path class="cls-2" d="M1225.69,723.04c0-3.06,1.76-5.13,4.32-5.13s4.32,2.07,4.32,5.13-1.76,5.12-4.32,5.12-4.32-2.07-4.32-5.12Zm7.48,0c0-2.54-1.24-4.1-3.16-4.1s-3.16,1.56-3.16,4.1,1.24,4.08,3.16,4.08,3.16-1.56,3.16-4.08Z"/><path class="cls-2" d="M1244.22,718.08v9.91h-1.75l-4.77-8.91v8.91h-1.09v-9.91h1.75l4.79,8.91v-8.91h1.08Z"/><path class="cls-2" d="M1253.44,719.1h-3.08v8.88h-1.15v-8.88h-3.09v-1.02h7.31v1.02Z"/><path class="cls-2" d="M1258.52,723.65h-2.01v4.33h-1.16v-9.91h3.81c2.12,0,3.09,1.05,3.09,2.73,0,1.49-.77,2.49-2.49,2.71l2.99,4.46h-1.3l-2.94-4.33Zm-2.01-1.04h2.52c1.35,0,2.06-.66,2.06-1.81s-.74-1.69-2.09-1.69h-2.49v3.5Z"/><path class="cls-2" d="M1269.91,725.26h-4.09l-.97,2.73h-1.23l3.66-9.91h1.24l3.54,9.91h-1.23l-.93-2.73Zm-.36-1.04l-1.65-4.87-1.72,4.87h3.38Z"/><path class="cls-2" d="M1273.28,723.04c0-2.99,1.7-5.13,4.31-5.13,2.45,0,3.58,1.34,3.95,3.34h-1.22c-.33-1.6-1.22-2.3-2.73-2.3-1.75,0-3.14,1.6-3.14,4.1s1.39,4.08,3.14,4.08c1.48,0,2.38-.66,2.75-2.29h1.22c-.41,2.09-1.56,3.33-3.96,3.33-2.6,0-4.31-2.13-4.31-5.12Z"/><path class="cls-2" d="M1290.18,719.1h-3.08v8.88h-1.15v-8.88h-3.09v-1.02h7.31v1.02Z"/><path class="cls-2" d="M1293.23,727.99h-1.15v-9.91h1.15v9.91Z"/><path class="cls-2" d="M1295.51,723.04c0-3.06,1.76-5.13,4.32-5.13s4.32,2.07,4.32,5.13-1.76,5.12-4.32,5.12-4.32-2.07-4.32-5.12Zm7.48,0c0-2.54-1.24-4.1-3.16-4.1s-3.16,1.56-3.16,4.1,1.24,4.08,3.16,4.08,3.16-1.56,3.16-4.08Z"/><path class="cls-2" d="M1314.04,718.08v9.91h-1.75l-4.77-8.91v8.91h-1.09v-9.91h1.75l4.79,8.91v-8.91h1.08Z"/><path class="cls-2" d="M1316.17,725.04h1.22c.18,1.4,1.15,2.09,2.65,2.09,1.59,0,2.32-.74,2.32-1.71,0-.88-.55-1.39-1.63-1.65l-2.16-.51c-1.37-.32-2.11-1.21-2.11-2.51,0-1.6,1.27-2.84,3.32-2.84s3.43,.92,3.64,2.95h-1.22c-.18-1.31-1.08-1.91-2.45-1.91s-2.08,.73-2.08,1.66c0,.71,.34,1.21,1.41,1.47l2.09,.51c1.5,.37,2.39,1.24,2.39,2.66,0,1.74-1.27,2.92-3.54,2.92-2.43,0-3.68-1.12-3.87-3.12Z"/></g><g><path class="cls-2" d="M79.41,727.99h-1.15v-9.91h1.15v9.91Z"/><path class="cls-2" d="M88.62,719.1h-3.08v8.88h-1.15v-8.88h-3.09v-1.02h7.31v1.02Z"/><path class="cls-2" d="M95.68,725.26h-4.09l-.97,2.73h-1.23l3.66-9.91h1.24l3.54,9.91h-1.23l-.93-2.73Zm-.36-1.04l-1.65-4.87-1.72,4.87h3.38Z"/><path class="cls-2" d="M105.27,726.94v1.05h-5.63v-9.91h1.18v8.86h4.46Z"/><path class="cls-2" d="M108.25,727.99h-1.15v-9.91h1.15v9.91Z"/><path class="cls-2" d="M116.27,725.26h-4.09l-.97,2.73h-1.23l3.66-9.91h1.24l3.54,9.91h-1.23l-.93-2.73Zm-.36-1.04l-1.65-4.87-1.72,4.87h3.38Z"/><path class="cls-2" d="M127.84,718.08v9.91h-1.75l-4.77-8.91v8.91h-1.09v-9.91h1.75l4.79,8.91v-8.91h1.08Z"/><path class="cls-2" d="M141.57,725.17c0,1.74-.96,2.82-3.31,2.82h-3.88v-9.91h3.68c2.12,0,3.09,.98,3.09,2.61,0,1.05-.74,1.91-1.67,2.14,1.27,.19,2.09,1.06,2.09,2.33Zm-6.04-6.05v3.3h2.42c1.29,0,2.04-.63,2.04-1.72,0-1.18-.88-1.58-2.23-1.58h-2.23Zm4.89,6.05c0-1.31-.96-1.72-2.38-1.72h-2.52v3.5h2.5c1.44,0,2.39-.39,2.39-1.78Z"/><path class="cls-2" d="M143.27,723.04c0-3.06,1.76-5.13,4.32-5.13s4.32,2.07,4.32,5.13-1.76,5.12-4.32,5.12-4.32-2.07-4.32-5.12Zm7.48,0c0-2.54-1.24-4.1-3.16-4.1s-3.16,1.56-3.16,4.1,1.24,4.08,3.16,4.08,3.16-1.56,3.16-4.08Z"/><path class="cls-2" d="M159.82,726.94v1.05h-5.63v-9.91h1.18v8.86h4.46Z"/><path class="cls-2" d="M169.15,723.04c0,3.05-1.87,4.95-4.51,4.95h-2.98v-9.91h2.98c2.64,0,4.51,1.9,4.51,4.96Zm-1.16,0c0-2.48-1.3-3.92-3.53-3.92h-1.65v7.83h1.65c2.2,0,3.53-1.44,3.53-3.91Z"/><path class="cls-2" d="M189.5,724.73h-11.55v-1.05h11.55v1.05Z"/><path class="cls-2" d="M204.72,725.21c0,1.58-1.18,2.95-3.32,2.95s-3.32-1.25-3.34-3.03h1.12c.07,1.25,.82,2,2.23,2s2.13-.85,2.13-1.91-.67-1.75-2.39-1.75h-.78v-1.08h.78c1.59,0,2.15-.77,2.15-1.74,0-1.02-.75-1.71-1.86-1.71-1.04,0-1.87,.57-2.01,1.81h-1.13c.19-1.82,1.52-2.84,3.16-2.84,1.72,0,3.01,1.11,3.01,2.68,0,1.04-.42,1.87-1.31,2.25,.98,.34,1.57,1.17,1.57,2.38Z"/><path class="cls-2" d="M213.11,725.58h-1.2v2.41h-1.18v-2.41h-4.66v-1.02l4.12-6.48h1.72v6.48h1.2v1.02Zm-2.38-1.02v-5.54l-3.53,5.54h3.53Z"/><path class="cls-2" d="M214.69,723.05c0-2.99,1.37-5.15,3.71-5.15s3.71,2.16,3.71,5.15-1.37,5.11-3.71,5.11-3.71-2.12-3.71-5.11Zm6.28,0c0-2.48-.9-4.07-2.57-4.07s-2.57,1.59-2.57,4.07,.9,4.03,2.57,4.03,2.57-1.55,2.57-4.03Z"/><path class="cls-2" d="M234.99,720.84c0,1.63-1.05,2.82-3.17,2.82h-2.57v4.33h-1.16v-9.91h3.83c2.12,0,3.08,1.05,3.08,2.76Zm-1.16,0c0-1.11-.64-1.72-2.11-1.72h-2.47v3.5h2.47c1.46,0,2.11-.71,2.11-1.78Z"/><path class="cls-2" d="M243.37,719.1h-3.08v8.88h-1.15v-8.88h-3.09v-1.02h7.31v1.02Z"/><path class="cls-2" d="M244.55,725.04h1.22c.18,1.4,1.15,2.09,2.65,2.09,1.59,0,2.32-.74,2.32-1.71,0-.88-.55-1.39-1.63-1.65l-2.16-.51c-1.37-.32-2.11-1.21-2.11-2.51,0-1.6,1.27-2.84,3.32-2.84s3.43,.92,3.64,2.95h-1.22c-.18-1.31-1.08-1.91-2.45-1.91s-2.08,.73-2.08,1.66c0,.71,.34,1.21,1.41,1.47l2.09,.51c1.5,.37,2.39,1.24,2.39,2.66,0,1.74-1.27,2.92-3.54,2.92-2.43,0-3.68-1.12-3.87-3.12Z"/></g><g><path class="cls-4" d="M252.97,365.36c0,31.79-4.5,54.88-31.79,54.88-7.5,0-15.59-1.8-19.79-4.5v-27.89h1.2c2.4,23.99,9.3,30.89,17.39,30.89,13.8,0,15-18.89,15-40.79V234.91c0-13.79-1.2-20.09-11.4-24.29v-1.5h36.89v1.5c-6.3,3.6-7.5,9.6-7.5,24.29v130.46Z"/><path class="cls-4" d="M375.03,399.85c2.4,10.8,4.2,15.89,9.6,18.29v.9h-32.69v-.9c5.1-1.8,6.3-5.1,6.3-8.1,0-2.7-.6-6-1.5-9.9l-13.8-64.18h-48.88l-15,62.38c-.9,4.5-1.8,9-1.8,12,0,4.5,2.4,6.9,8.4,7.8v.9h-17.99v-.9c4.5-1.8,6.6-5.4,9.9-19.79l41.39-173.94-.9-4.2c-1.2-6.3-2.4-8.4-4.8-11.7v-1.5h20.09l41.69,192.83Zm-80.67-65.38h48.28l-23.09-106.76-25.19,106.76Z"/><path class="cls-4" d="M443.11,206.72c14.4,0,24.59,4.2,30.29,7.8l2.1,19.79-1.2,.3c-5.1-14.99-13.5-26.39-30.89-26.39-35.99,0-42.29,42.29-42.29,105.26s6.3,105.26,42.29,105.26c17.39,0,25.79-11.4,30.89-24.59l1.2,.3-2.1,17.99c-5.7,3.6-16.79,7.8-30.29,7.8-48.28,0-61.78-43.48-61.78-106.76s13.5-106.76,61.78-106.76Z"/><path class="cls-4" d="M622.44,467.63v1.2c-4.5,1.2-10.5,2.4-17.99,2.4-33.89,0-54.58-16.19-61.18-49.78-50.38-.3-59.08-57.28-59.08-107.96s8.7-106.76,59.38-106.76,57.88,56.08,57.88,106.76c0,44.38-7.2,93.87-41.39,105.26,3.6,33.29,23.39,50.08,48.88,50.08,4.5,0,9-.3,13.5-1.2Zm-78.87-47.68c36.29,0,38.09-54.58,38.09-106.46s-1.8-105.26-38.09-105.26-39.59,53.38-39.59,105.26,2.1,106.46,39.59,106.46Z"/><path class="cls-4" d="M616.14,366.26V237.31c0-15.59-.6-22.49-7.5-26.69v-1.5h32.99v1.2c-6.9,4.5-7.5,11.4-7.5,26.99v126.56c0,30.29,8.7,50.08,35.99,50.08s35.09-20.69,35.09-50.08v-126.56c0-15.59-1.8-23.09-12.3-26.99v-1.2h22.79v1.2c-7.2,3.9-9,11.4-9,26.99v129.26c0,32.99-11.1,53.68-44.68,53.68s-45.88-20.09-45.88-53.98Z"/><path class="cls-4" d="M801.18,205.22l6.3,19.79-1.2,.3c-6-11.7-12.9-14.69-29.69-14.69h-26.39v111.86h27.89c11.7,0,17.09-.9,19.49-10.2h1.2v21.89h-1.2c-2.4-9.3-7.8-10.2-19.49-10.2h-27.89v93.57h23.99c22.79,0,32.39-4.5,41.99-21.89l1.2,.3-11.7,26.99h-1.5c-2.7-2.4-6.6-3.9-15-3.9h-64.18v-1.5c6.3-3.6,7.5-9.6,7.5-24.29V234.91c0-14.69-1.2-20.69-7.5-24.29v-1.5h59.98c8.4,0,12-1.5,14.99-3.9h1.2Z"/><path class="cls-4" d="M967.32,210.62c-6.3,3.6-7.5,9.6-7.5,24.29v158.35c0,14.7,1.2,20.69,7.5,24.29v1.5h-33.29v-1.5c6.3-3.6,7.8-9.6,7.8-24.29V216.62l-53.98,207.83h-1.2l-55.18-205.13v177.24c0,11.4,1.2,17.99,12,20.99v1.5h-21.89v-1.5c7.5-3.3,8.4-9.6,8.4-20.99V233.41c0-13.2-1.2-18.89-7.5-22.79v-1.5h24.89l47.98,179.34,46.48-179.34h25.49v1.5Z"/><path class="cls-4" d="M983.82,366.26V237.31c0-15.59-.6-22.49-7.5-26.69v-1.5h32.99v1.2c-6.9,4.5-7.5,11.4-7.5,26.99v126.56c0,30.29,8.7,50.08,35.99,50.08s35.09-20.69,35.09-50.08v-126.56c0-15.59-1.8-23.09-12.3-26.99v-1.2h22.79v1.2c-7.2,3.9-9,11.4-9,26.99v129.26c0,32.99-11.1,53.68-44.68,53.68s-45.88-20.09-45.88-53.98Z"/><path class="cls-4" d="M1107.37,297.59c-9.3-13.79-16.19-29.99-16.19-49.18,0-24.89,16.49-41.69,41.99-41.69,14.99,0,25.19,6.3,30.59,12l1.8,20.39-1.5,.3c-3.9-15-11.4-31.19-29.99-31.19s-27.29,13.79-27.29,33.59c0,17.69,7.5,30.89,15.89,44.08l27.29,41.09c9.6,14.4,15.29,28.49,15.29,47.38,0,29.69-17.09,45.88-44.98,45.88-11.4,0-21.89-4.2-27.29-9l-1.8-20.39,1.5-.3c4.2,15,12.6,28.19,28.79,28.19,18.89,0,28.49-15.29,28.49-35.09,0-17.39-6.3-30.29-15.59-44.68l-26.99-41.39Z"/><path class="cls-4" d="M124.73,450.91l103.93,107.51-13.04,13.53,105-121.04h36.61v.89c-2.86,.95-5.06,2.64-6.61,5.07-1.55,2.43-2.32,5.85-2.32,10.24v90.96c0,5.58,.77,9.67,2.32,12.28,1.55,2.61,3.75,4.21,6.61,4.81v.89h-46.96v-.89c3.33-.59,5.89-2.16,7.68-4.72,1.79-2.55,2.68-6.67,2.68-12.37v-106.09h1.25l-109.82,126.74h-.89l-112.5-116.77,1.07-.89v93.81c0,3.56,.54,6.83,1.61,9.79,1.07,2.97,2.83,5.4,5.27,7.3,2.44,1.9,5.56,2.97,9.38,3.2v.89h-31.07v-.89c2.86-.24,5.27-1.13,7.23-2.67,1.96-1.54,3.45-3.8,4.46-6.76,1.01-2.96,1.52-6.59,1.52-10.86v-85.97c0-4.98-1.01-8.72-3.04-11.21-2.03-2.49-5.42-4.45-10.18-5.87v-.89h39.82Z"/><path class="cls-4" d="M377.15,565.37c-.12,.12-.27,.27-.45,.44-.18,.18-.33,.33-.45,.45-1.31,1.54-1.96,2.91-1.96,4.09s.39,2.14,1.16,2.85c.77,.71,1.93,1.37,3.48,1.96v.89h-19.64v-.89c3.09-.71,5.68-1.75,7.77-3.12,2.08-1.36,4.43-3.35,7.05-5.96l101.6-99.5h2.32l-100.89,98.79Zm150.53-40.41v1.6h-111.07v-1.6h111.07Zm-82.86-66.39c-3.1-2.85-5.51-4.83-7.23-5.96-1.73-1.13-3.42-1.81-5.09-2.05v-1.07h41.78l109.1,103.77c5.83,5.7,11.55,10.68,17.14,14.95,5.59,4.27,9.46,6.53,11.61,6.76v1.07h-57.68v-1.07c4.05-.47,6.07-1.84,6.07-4.09,0-.95-.27-1.78-.8-2.49s-1.34-1.66-2.41-2.85l-112.5-106.98Z"/><path class="cls-4" d="M629.04,468.89c0-4.51-.86-8.19-2.59-11.04-1.73-2.85-4.91-4.92-9.55-6.23v-.71h148.93c23.09,0,39.79,3.77,50.09,11.3,10.3,7.54,15.45,18.84,15.45,33.91,0,13.29-4.73,23.47-14.2,30.53-9.46,7.06-24.44,11.6-44.91,13.62v.71h15.36c9.4,0,16.84,1.1,22.32,3.29,5.47,2.2,11.01,6.44,16.61,12.73l7.14,8.19c.12,.12,.21,.21,.27,.27,.06,.06,.15,.15,.27,.27,2.97,3.56,5.59,6.11,7.86,7.65,2.26,1.54,5.24,2.02,8.93,1.42v.71c-9.05,2.14-17.08,3.12-24.11,2.94-7.03-.18-13.1-1.46-18.21-3.83-5.12-2.37-9.53-5.81-13.21-10.32l-9.11-11.04c-2.86-3.44-5.36-5.96-7.5-7.56-2.14-1.6-4.73-2.73-7.77-3.38-3.04-.65-7.41-.98-13.12-.98h-101.25v16.73c0,4.63,.95,8.34,2.86,11.12,1.9,2.79,5.59,4.84,11.07,6.14v.71h-53.75v-.71c4.64-1.3,7.83-3.38,9.55-6.23,1.72-2.85,2.59-6.52,2.59-11.04v-89.18Zm129.28,70.84c9.64,0,17.62-1.6,23.93-4.81,6.31-3.2,11.01-8.04,14.11-14.51,3.09-6.47,4.64-14.57,4.64-24.3s-1.55-17.83-4.64-24.3c-3.1-6.47-7.8-11.3-14.11-14.51-6.31-3.2-14.29-4.81-23.93-4.81h-101.6v87.22h101.6Z"/><path class="cls-4" d="M1003.28,452.51h-108.93v67.64h117.68c3.69,0,6.55-.21,8.57-.62,2.02-.42,3.87-1.48,5.54-3.2,1.67-1.72,3.04-4.48,4.11-8.28h.71v25.81h-.71c-1.07-3.8-2.44-6.56-4.11-8.28-1.67-1.72-3.51-2.79-5.54-3.2-2.03-.41-4.88-.62-8.57-.62h-117.68v36.31c0,3.09,.39,5.7,1.16,7.83,.77,2.14,2.17,4.01,4.2,5.61,2.02,1.6,4.88,2.88,8.57,3.83v.71h-53.93v-.71c4.64-1.3,7.86-3.35,9.64-6.14,1.79-2.79,2.68-6.5,2.68-11.12v-89.18c0-4.63-.89-8.33-2.68-11.12-1.79-2.79-5-4.83-9.64-6.14v-.71h133.57c17.62,0,29.2-.15,34.73-.45,5.54-.29,9.25-1.04,11.16-2.22h1.43l3.93,20.29-.71,.18c-2.26-6.29-6.04-10.56-11.34-12.82-5.3-2.25-13.24-3.38-23.84-3.38Z"/><path class="cls-4" d="M1048.96,565.37c-.12,.12-.27,.27-.45,.44-.18,.18-.33,.33-.45,.45-1.31,1.54-1.96,2.91-1.96,4.09s.39,2.14,1.16,2.85c.77,.71,1.93,1.37,3.48,1.96v.89h-19.64v-.89c3.09-.71,5.68-1.75,7.77-3.12,2.08-1.36,4.43-3.35,7.05-5.96l101.6-99.5h2.32l-100.89,98.79Zm150.53-40.41v1.6h-111.07v-1.6h111.07Zm-82.86-66.39c-3.1-2.85-5.51-4.83-7.23-5.96-1.73-1.13-3.42-1.81-5.09-2.05v-1.07h41.78l109.1,103.77c5.83,5.7,11.55,10.68,17.14,14.95,5.59,4.27,9.46,6.53,11.61,6.76v1.07h-57.68v-1.07c4.05-.47,6.07-1.84,6.07-4.09,0-.95-.27-1.78-.8-2.49s-1.34-1.66-2.41-2.85l-112.5-106.98Z"/></g><g><path class="cls-3" d="M81.12,54.99h-2.7v-14.26h2.7v14.26Z"/><path class="cls-3" d="M87.09,46.42v4.83c0,1.03,.47,1.53,1.34,1.53,.35,0,.59-.02,.83-.08v2.25c-.51,.15-.81,.17-1.44,.17-2.3,0-3.33-1.39-3.33-3.74v-4.96h-1.6v-2.29h1.6v-3.07h2.6v3.07h2.17v2.29h-2.17Z"/><path class="cls-3" d="M99.71,47.87v7.12h-2.34v-1.39c-.79,1.11-1.87,1.64-3.25,1.64-2.17,0-3.66-1.36-3.66-3.25s1.06-3.09,3.6-3.36l3.07-.34v-.59c0-1.22-.71-1.8-1.83-1.8-1.18,0-1.83,.5-2.03,1.57h-2.6c.28-2.35,1.91-3.59,4.59-3.59s4.45,1.24,4.45,3.99Zm-2.6,2.88v-.8l-2.44,.34c-1.08,.15-1.58,.76-1.58,1.58s.63,1.51,1.71,1.51c1.5,0,2.31-1.07,2.31-2.62Z"/><path class="cls-3" d="M104.52,54.99h-2.6v-15.12h2.6v15.12Z"/><path class="cls-3" d="M106.59,40.94c0-.9,.63-1.64,1.58-1.64s1.54,.74,1.54,1.64-.63,1.64-1.54,1.64-1.58-.76-1.58-1.64Zm.26,3.19h2.6v10.85h-2.6v-10.85Z"/><path class="cls-3" d="M120.53,47.87v7.12h-2.34v-1.39c-.79,1.11-1.87,1.64-3.25,1.64-2.17,0-3.66-1.36-3.66-3.25s1.06-3.09,3.6-3.36l3.07-.34v-.59c0-1.22-.71-1.8-1.83-1.8-1.18,0-1.83,.5-2.03,1.57h-2.6c.28-2.35,1.91-3.59,4.59-3.59s4.45,1.24,4.45,3.99Zm-2.6,2.88v-.8l-2.44,.34c-1.08,.15-1.58,.76-1.58,1.58s.63,1.51,1.71,1.51c1.5,0,2.31-1.07,2.31-2.62Z"/><path class="cls-3" d="M132.02,48.14v6.84h-2.6v-6.21c0-1.78-.79-2.58-1.99-2.58s-2.11,.88-2.11,2.58v6.21h-2.6v-10.85h2.34v1.53c.67-1.2,1.75-1.78,3.21-1.78,2.13,0,3.74,1.34,3.74,4.26Z"/><path class="cls-3" d="M138.07,52.4v-7.75c0-3.95,1.1-6.05,5-6.3v2.06c-1.75,.31-2.58,1.39-2.58,3.86v8.5c0,2.48,.83,3.55,2.58,3.86v2.06c-3.9-.25-5-2.35-5-6.3Z"/><path class="cls-3" d="M162.63,40.73l-3.82,14.26h-3.13l-2.56-10.12-2.36,10.12h-3.19l-3.94-14.26h2.76l2.78,10.96,2.66-10.96h2.62l2.88,10.96,2.6-10.96h2.72Z"/><path class="cls-3" d="M167,53.45c0,.99-.75,1.78-1.67,1.78s-1.67-.8-1.67-1.78,.75-1.76,1.67-1.76,1.67,.8,1.67,1.76Z"/><path class="cls-3" d="M171.97,54.99h-2.7v-14.26h2.7v14.26Z"/><path class="cls-3" d="M177.6,53.45c0,.99-.75,1.78-1.67,1.78s-1.67-.8-1.67-1.78,.75-1.76,1.67-1.76,1.67,.8,1.67,1.76Z"/><path class="cls-3" d="M190.72,44.82c0,2.37-1.56,4.3-4.73,4.3h-3.41v5.86h-2.72v-14.26h6.19c3.17,0,4.67,1.7,4.67,4.09Zm-2.7,.06c0-1.26-.77-1.93-2.42-1.93h-3.01v3.95h3.03c1.64,0,2.4-.82,2.4-2.02Z"/><path class="cls-3" d="M195.39,53.45c0,.99-.75,1.78-1.67,1.78s-1.67-.8-1.67-1.78,.75-1.76,1.67-1.76,1.67,.8,1.67,1.76Z"/><path class="cls-3" d="M196.67,56.64c1.77-.32,2.58-1.39,2.58-3.86v-8.5c0-2.48-.81-3.55-2.58-3.86v-2.06c3.9,.25,5.02,2.35,5.02,6.3v7.75c0,3.95-1.12,6.05-5.02,6.3v-2.06Z"/><path class="cls-3" d="M207.25,50.74h2.8c.24,1.49,1.24,2.25,3.09,2.25s2.72-.8,2.72-1.85c0-.92-.57-1.53-1.85-1.8l-3.11-.65c-2.25-.46-3.39-1.95-3.39-3.84,0-2.37,1.85-4.37,5.26-4.37s5.34,1.51,5.59,4.24h-2.82c-.22-1.37-1.12-2-2.8-2s-2.44,.82-2.44,1.83c0,.82,.47,1.38,1.71,1.64l3.13,.63c2.44,.46,3.51,1.99,3.51,3.9,0,2.52-1.81,4.51-5.5,4.51s-5.61-1.66-5.91-4.49Z"/><path class="cls-3" d="M223.78,46.42v4.83c0,1.03,.47,1.53,1.34,1.53,.35,0,.59-.02,.83-.08v2.25c-.51,.15-.81,.17-1.44,.17-2.3,0-3.33-1.39-3.33-3.74v-4.96h-1.6v-2.29h1.6v-3.07h2.6v3.07h2.17v2.29h-2.17Z"/><path class="cls-3" d="M236.4,47.87v7.12h-2.34v-1.39c-.79,1.11-1.87,1.64-3.25,1.64-2.17,0-3.66-1.36-3.66-3.25s1.06-3.09,3.6-3.36l3.07-.34v-.59c0-1.22-.71-1.8-1.83-1.8-1.18,0-1.83,.5-2.03,1.57h-2.6c.28-2.35,1.91-3.59,4.59-3.59s4.45,1.24,4.45,3.99Zm-2.6,2.88v-.8l-2.44,.34c-1.08,.15-1.58,.76-1.58,1.58s.63,1.51,1.71,1.51c1.5,0,2.31-1.07,2.31-2.62Z"/><path class="cls-3" d="M244.24,44.11v2.44c-.16-.02-.33-.04-.59-.04-1.6,0-2.46,.99-2.46,2.71v5.77h-2.6v-10.85h2.34v1.87c.49-1.3,1.5-1.97,2.7-1.97,.22,0,.39,.02,.61,.08Z"/><path class="cls-3" d="M249.15,46.42v4.83c0,1.03,.47,1.53,1.34,1.53,.35,0,.59-.02,.83-.08v2.25c-.51,.15-.81,.17-1.44,.17-2.3,0-3.33-1.39-3.33-3.74v-4.96h-1.6v-2.29h1.6v-3.07h2.6v3.07h2.17v2.29h-2.17Z"/><path class="cls-3" d="M262.45,49.71c0,.34-.02,.63-.02,.63h-7.37c.18,1.97,1.16,2.79,2.54,2.79,1.12,0,1.75-.52,2.05-1.32h2.58c-.45,1.93-2.07,3.42-4.65,3.42-3.25,0-5.12-2.31-5.12-5.61s2.07-5.75,5.04-5.75c3.19,0,5,2.35,4.94,5.84Zm-2.66-1.18c-.08-1.64-.93-2.56-2.27-2.56-1.24,0-2.17,.84-2.42,2.56h4.69Z"/><path class="cls-3" d="M273.95,39.87v15.12h-2.34v-1.83c-.65,1.37-1.79,2.08-3.35,2.08-2.42,0-4.59-2.08-4.59-5.67s2.07-5.69,4.49-5.69c1.42,0,2.5,.57,3.19,1.62v-5.63h2.6Zm-2.6,9.7c0-2.08-1.06-3.46-2.52-3.46-1.54,0-2.54,1.37-2.54,3.46s1.06,3.44,2.54,3.44,2.52-1.32,2.52-3.44Z"/><path class="cls-3" d="M289.45,47.87v7.12h-2.34v-1.39c-.79,1.11-1.87,1.64-3.25,1.64-2.17,0-3.66-1.36-3.66-3.25s1.06-3.09,3.6-3.36l3.07-.34v-.59c0-1.22-.71-1.8-1.83-1.8-1.18,0-1.83,.5-2.03,1.57h-2.6c.28-2.35,1.91-3.59,4.59-3.59s4.45,1.24,4.45,3.99Zm-2.6,2.88v-.8l-2.44,.34c-1.08,.15-1.58,.76-1.58,1.58s.63,1.51,1.71,1.51c1.5,0,2.31-1.07,2.31-2.62Z"/><path class="cls-3" d="M291.05,51.81h2.54c.22,.97,.93,1.47,2.17,1.47s1.89-.5,1.89-1.24c0-.63-.35-1.07-1.28-1.24l-2.19-.44c-2.07-.42-2.94-1.45-2.94-3.11,0-1.81,1.46-3.38,4.24-3.38s4.25,1.41,4.59,3.59h-2.56c-.16-1.09-.87-1.64-2.05-1.64s-1.77,.57-1.77,1.26c0,.59,.3,.99,1.36,1.18l2.15,.4c2.23,.4,3.03,1.51,3.03,3.19,0,1.8-1.34,3.38-4.45,3.38s-4.35-1.39-4.73-3.42Z"/><path class="cls-3" d="M315.2,47.87v7.12h-2.34v-1.39c-.79,1.11-1.87,1.64-3.25,1.64-2.17,0-3.66-1.36-3.66-3.25s1.06-3.09,3.6-3.36l3.07-.34v-.59c0-1.22-.71-1.8-1.83-1.8-1.18,0-1.83,.5-2.03,1.57h-2.6c.28-2.35,1.91-3.59,4.59-3.59s4.45,1.24,4.45,3.99Zm-2.6,2.88v-.8l-2.44,.34c-1.08,.15-1.58,.76-1.58,1.58s.63,1.51,1.71,1.51c1.5,0,2.31-1.07,2.31-2.62Z"/><path class="cls-3" d="M321.31,49.55c0-3.53,2.15-5.67,5.08-5.67s4.43,1.7,4.77,4.07h-2.64c-.24-1.22-.93-1.83-2.15-1.83-1.48,0-2.42,1.26-2.42,3.4s.91,3.46,2.44,3.46c1.24,0,1.87-.63,2.13-1.83h2.62c-.33,2.41-1.97,4.07-4.75,4.07-2.94,0-5.08-2.14-5.08-5.69Z"/><path class="cls-3" d="M332.4,49.57c0-3.49,2.25-5.69,5.18-5.69s5.16,2.2,5.16,5.69-2.25,5.67-5.16,5.67-5.18-2.18-5.18-5.67Zm7.68,0c0-2.12-.95-3.44-2.52-3.44s-2.52,1.34-2.52,3.44,.95,3.42,2.52,3.42,2.52-1.32,2.52-3.42Z"/><path class="cls-3" d="M360.05,48.18v6.8h-2.6v-6.24c0-1.7-.79-2.48-1.89-2.48s-2.01,.8-2.01,2.35v6.36h-2.6v-6.24c0-1.7-.79-2.48-1.89-2.48s-1.99,.78-1.99,2.35v6.36h-2.6v-10.85h2.34v1.51c.65-1.18,1.75-1.76,3.11-1.76,1.46,0,2.58,.71,3.17,1.99,.69-1.32,1.85-1.99,3.29-1.99,2.23,0,3.66,1.6,3.66,4.3Z"/><path class="cls-3" d="M372.52,49.57c0,3.59-2.19,5.67-4.61,5.67-1.34,0-2.36-.57-3.07-1.58v5.27h-2.6v-14.8h2.34v1.76c.69-1.28,1.83-2.02,3.45-2.02,2.42,0,4.49,2.04,4.49,5.69Zm-2.64,0c0-2.08-1-3.46-2.54-3.46-1.46,0-2.5,1.41-2.5,3.46s1.04,3.44,2.5,3.44,2.54-1.34,2.54-3.44Z"/><path class="cls-3" d="M383.02,47.87v7.12h-2.34v-1.39c-.79,1.11-1.87,1.64-3.25,1.64-2.17,0-3.66-1.36-3.66-3.25s1.06-3.09,3.6-3.36l3.07-.34v-.59c0-1.22-.71-1.8-1.83-1.8-1.18,0-1.83,.5-2.03,1.57h-2.6c.28-2.35,1.91-3.59,4.59-3.59s4.45,1.24,4.45,3.99Zm-2.6,2.88v-.8l-2.44,.34c-1.08,.15-1.58,.76-1.58,1.58s.63,1.51,1.71,1.51c1.5,0,2.31-1.07,2.31-2.62Z"/><path class="cls-3" d="M394.94,44.13v10.31c0,2.6-1.44,4.75-5.04,4.75s-4.85-1.66-5.06-3.84h2.74c.1,1.11,.71,1.83,2.32,1.83s2.46-.9,2.46-2.62v-1.72c-.71,1.16-1.75,1.66-3.13,1.66-2.5,0-4.55-2.04-4.55-5.31s2.03-5.29,4.55-5.29c1.46,0,2.62,.65,3.33,1.85v-1.6h2.38Zm-2.58,5.04c0-1.87-1.1-3.09-2.54-3.09s-2.52,1.22-2.52,3.09,1.1,3.11,2.52,3.11,2.54-1.28,2.54-3.11Z"/><path class="cls-3" d="M406.52,48.14v6.84h-2.6v-6.21c0-1.78-.79-2.58-1.99-2.58s-2.11,.88-2.11,2.58v6.21h-2.6v-10.85h2.34v1.53c.67-1.2,1.75-1.78,3.21-1.78,2.13,0,3.74,1.34,3.74,4.26Z"/><path class="cls-3" d="M408.16,49.57c0-3.49,2.25-5.69,5.18-5.69s5.16,2.2,5.16,5.69-2.25,5.67-5.16,5.67-5.18-2.18-5.18-5.67Zm7.68,0c0-2.12-.95-3.44-2.52-3.44s-2.52,1.34-2.52,3.44,.95,3.42,2.52,3.42,2.52-1.32,2.52-3.42Z"/><path class="cls-3" d="M429.53,48.14v6.84h-2.6v-6.21c0-1.78-.79-2.58-1.99-2.58s-2.11,.88-2.11,2.58v6.21h-2.6v-10.85h2.34v1.53c.67-1.2,1.75-1.78,3.21-1.78,2.13,0,3.74,1.34,3.74,4.26Z"/><path class="cls-3" d="M435.64,49.57c0-3.49,2.25-5.69,5.18-5.69s5.16,2.2,5.16,5.69-2.25,5.67-5.16,5.67-5.18-2.18-5.18-5.67Zm7.68,0c0-2.12-.95-3.44-2.52-3.44s-2.52,1.34-2.52,3.44,.95,3.42,2.52,3.42,2.52-1.32,2.52-3.42Z"/><path class="cls-3" d="M451.12,43.48v.65h2.42v2.29h-2.42v8.57h-2.6v-8.57h-1.6v-2.29h1.6v-.63c0-2.52,1.46-3.84,3.6-3.84,.59,0,1.1,.08,1.52,.23v2.12c-.3-.08-.61-.13-.93-.13-1.04,0-1.6,.52-1.6,1.6Z"/><path class="cls-3" d="M471.1,49.19c0,3.95-2.05,6.05-5.79,6.05-3.94,0-5.79-2.1-5.79-6.05v-8.46h2.7v8.82c0,2.12,1.18,3.3,3.09,3.3s3.09-1.13,3.09-3.28v-8.84h2.7v8.46Z"/><path class="cls-3" d="M473.03,47.89c0-4.39,2.56-7.41,6.62-7.41s6.62,3.02,6.62,7.41-2.58,7.39-6.62,7.39-6.62-3.02-6.62-7.39Zm10.54,0c0-3.09-1.46-5.1-3.92-5.1s-3.92,1.99-3.92,5.1,1.46,5.06,3.92,5.06,3.92-2,3.92-5.06Z"/><path class="cls-3" d="M503.26,40.73v14.26h-2.7v-11.65l-3.66,11.65h-2.15l-3.68-11.67v11.67h-2.72v-14.26h4.24l3.25,10.23,3.21-10.23h4.22Z"/><path class="cls-3" d="M505.37,47.89c0-4.39,2.56-7.41,6.62-7.41s6.62,3.02,6.62,7.41-2.58,7.39-6.62,7.39-6.62-3.02-6.62-7.39Zm10.54,0c0-3.09-1.46-5.1-3.92-5.1s-3.92,1.99-3.92,5.1,1.46,5.06,3.92,5.06,3.92-2,3.92-5.06Z"/><path class="cls-3" d="M521.88,57.78h-1.75c.55-1.11,.85-1.85,1.08-2.67l-.18-.11c-.61-.29-.93-.82-.93-1.55,0-.97,.73-1.76,1.67-1.76s1.67,.76,1.67,1.8-.3,2.08-1.58,4.28Z"/><path class="cls-3" d="M538.66,47.87v7.12h-2.34v-1.39c-.79,1.11-1.87,1.64-3.25,1.64-2.17,0-3.66-1.36-3.66-3.25s1.06-3.09,3.6-3.36l3.07-.34v-.59c0-1.22-.71-1.8-1.83-1.8-1.18,0-1.83,.5-2.03,1.57h-2.6c.28-2.35,1.91-3.59,4.59-3.59s4.45,1.24,4.45,3.99Zm-2.6,2.88v-.8l-2.44,.34c-1.08,.15-1.58,.76-1.58,1.58s.63,1.51,1.71,1.51c1.5,0,2.31-1.07,2.31-2.62Z"/><path class="cls-3" d="M540.26,51.81h2.54c.22,.97,.93,1.47,2.17,1.47s1.89-.5,1.89-1.24c0-.63-.35-1.07-1.28-1.24l-2.19-.44c-2.07-.42-2.94-1.45-2.94-3.11,0-1.81,1.46-3.38,4.24-3.38s4.25,1.41,4.59,3.59h-2.56c-.16-1.09-.87-1.64-2.05-1.64s-1.77,.57-1.77,1.26c0,.59,.3,.99,1.36,1.18l2.15,.4c2.23,.4,3.03,1.51,3.03,3.19,0,1.8-1.34,3.38-4.45,3.38s-4.35-1.39-4.73-3.42Z"/><path class="cls-3" d="M559.03,46.42v4.83c0,1.03,.47,1.53,1.34,1.53,.35,0,.59-.02,.83-.08v2.25c-.51,.15-.81,.17-1.44,.17-2.3,0-3.33-1.39-3.33-3.74v-4.96h-1.6v-2.29h1.6v-3.07h2.6v3.07h2.17v2.29h-2.17Z"/><path class="cls-3" d="M572.19,48.16v6.82h-2.6v-6.28c0-1.68-.87-2.5-2.01-2.5s-2.09,.88-2.09,2.54v6.24h-2.6v-15.12h2.6v5.71c.59-1.09,1.58-1.7,2.9-1.7,2.17,0,3.8,1.47,3.8,4.28Z"/><path class="cls-3" d="M583.81,49.71c0,.34-.02,.63-.02,.63h-7.37c.18,1.97,1.16,2.79,2.54,2.79,1.12,0,1.75-.52,2.05-1.32h2.58c-.45,1.93-2.07,3.42-4.65,3.42-3.25,0-5.12-2.31-5.12-5.61s2.07-5.75,5.04-5.75c3.19,0,5,2.35,4.94,5.84Zm-2.66-1.18c-.08-1.64-.93-2.56-2.27-2.56-1.24,0-2.17,.84-2.42,2.56h4.69Z"/><path class="cls-3" d="M589.45,51.81h2.54c.22,.97,.93,1.47,2.17,1.47s1.89-.5,1.89-1.24c0-.63-.35-1.07-1.28-1.24l-2.19-.44c-2.07-.42-2.94-1.45-2.94-3.11,0-1.81,1.46-3.38,4.24-3.38s4.25,1.41,4.59,3.59h-2.56c-.16-1.09-.87-1.64-2.05-1.64s-1.77,.57-1.77,1.26c0,.59,.3,.99,1.36,1.18l2.15,.4c2.23,.4,3.03,1.51,3.03,3.19,0,1.8-1.34,3.38-4.45,3.38s-4.35-1.39-4.73-3.42Z"/><path class="cls-3" d="M609.8,49.71c0,.34-.02,.63-.02,.63h-7.37c.18,1.97,1.16,2.79,2.54,2.79,1.12,0,1.75-.52,2.05-1.32h2.58c-.45,1.93-2.07,3.42-4.65,3.42-3.25,0-5.12-2.31-5.12-5.61s2.07-5.75,5.04-5.75c3.19,0,5,2.35,4.94,5.84Zm-2.66-1.18c-.08-1.64-.93-2.56-2.27-2.56-1.24,0-2.17,.84-2.42,2.56h4.69Z"/><path class="cls-3" d="M617.2,44.11v2.44c-.16-.02-.33-.04-.59-.04-1.6,0-2.46,.99-2.46,2.71v5.77h-2.6v-10.85h2.34v1.87c.49-1.3,1.5-1.97,2.7-1.97,.22,0,.39,.02,.61,.08Z"/><path class="cls-3" d="M618.48,40.94c0-.9,.63-1.64,1.58-1.64s1.54,.74,1.54,1.64-.63,1.64-1.54,1.64-1.58-.76-1.58-1.64Zm.26,3.19h2.6v10.85h-2.6v-10.85Z"/><path class="cls-3" d="M627.07,43.48v.65h2.42v2.29h-2.42v8.57h-2.6v-8.57h-1.6v-2.29h1.6v-.63c0-2.52,1.46-3.84,3.6-3.84,.59,0,1.1,.08,1.52,.23v2.12c-.3-.08-.61-.13-.93-.13-1.04,0-1.6,.52-1.6,1.6Z"/><path class="cls-3" d="M644.8,44.13l-3.68,10.85h-3.01l-3.78-10.85h2.7l2.62,8.12,2.48-8.12h2.68Z"/><path class="cls-3" d="M655.54,49.71c0,.34-.02,.63-.02,.63h-7.37c.18,1.97,1.16,2.79,2.54,2.79,1.12,0,1.75-.52,2.05-1.32h2.58c-.45,1.93-2.07,3.42-4.65,3.42-3.25,0-5.12-2.31-5.12-5.61s2.07-5.75,5.04-5.75c3.19,0,5,2.35,4.94,5.84Zm-2.66-1.18c-.08-1.64-.93-2.56-2.27-2.56-1.24,0-2.17,.84-2.42,2.56h4.69Z"/><path class="cls-3" d="M662.94,44.11v2.44c-.16-.02-.33-.04-.59-.04-1.6,0-2.46,.99-2.46,2.71v5.77h-2.6v-10.85h2.34v1.87c.49-1.3,1.5-1.97,2.7-1.97,.22,0,.39,.02,.61,.08Z"/><path class="cls-3" d="M663.87,51.81h2.54c.22,.97,.93,1.47,2.17,1.47s1.89-.5,1.89-1.24c0-.63-.35-1.07-1.28-1.24l-2.19-.44c-2.07-.42-2.94-1.45-2.94-3.11,0-1.81,1.46-3.38,4.24-3.38s4.25,1.41,4.59,3.59h-2.56c-.16-1.09-.87-1.64-2.05-1.64s-1.77,.57-1.77,1.26c0,.59,.3,.99,1.36,1.18l2.15,.4c2.23,.4,3.03,1.51,3.03,3.19,0,1.8-1.34,3.38-4.45,3.38s-4.35-1.39-4.73-3.42Z"/><path class="cls-3" d="M674.55,40.94c0-.9,.63-1.64,1.58-1.64s1.54,.74,1.54,1.64-.63,1.64-1.54,1.64-1.58-.76-1.58-1.64Zm.26,3.19h2.6v10.85h-2.6v-10.85Z"/><path class="cls-3" d="M679.18,49.57c0-3.49,2.25-5.69,5.18-5.69s5.16,2.2,5.16,5.69-2.25,5.67-5.16,5.67-5.18-2.18-5.18-5.67Zm7.68,0c0-2.12-.95-3.44-2.52-3.44s-2.52,1.34-2.52,3.44,.95,3.42,2.52,3.42,2.52-1.32,2.52-3.42Z"/><path class="cls-3" d="M700.55,48.14v6.84h-2.6v-6.21c0-1.78-.79-2.58-1.99-2.58s-2.11,.88-2.11,2.58v6.21h-2.6v-10.85h2.34v1.53c.67-1.2,1.75-1.78,3.21-1.78,2.13,0,3.74,1.34,3.74,4.26Z"/><path class="cls-3" d="M706.66,49.57c0-3.49,2.25-5.69,5.18-5.69s5.16,2.2,5.16,5.69-2.25,5.67-5.16,5.67-5.18-2.18-5.18-5.67Zm7.68,0c0-2.12-.95-3.44-2.52-3.44s-2.52,1.34-2.52,3.44,.95,3.42,2.52,3.42,2.52-1.32,2.52-3.42Z"/><path class="cls-3" d="M722.14,43.48v.65h2.42v2.29h-2.42v8.57h-2.6v-8.57h-1.6v-2.29h1.6v-.63c0-2.52,1.46-3.84,3.6-3.84,.59,0,1.1,.08,1.52,.23v2.12c-.3-.08-.61-.13-.93-.13-1.04,0-1.6,.52-1.6,1.6Z"/><path class="cls-3" d="M730.18,40.94c0-.9,.63-1.64,1.58-1.64s1.54,.74,1.54,1.64-.63,1.64-1.54,1.64-1.58-.76-1.58-1.64Zm.26,3.19h2.6v10.85h-2.6v-10.85Z"/><path class="cls-3" d="M738.75,46.42v4.83c0,1.03,.47,1.53,1.34,1.53,.35,0,.59-.02,.83-.08v2.25c-.51,.15-.81,.17-1.44,.17-2.3,0-3.33-1.39-3.33-3.74v-4.96h-1.6v-2.29h1.6v-3.07h2.6v3.07h2.17v2.29h-2.17Z"/><path class="cls-3" d="M745.66,53.45c0,.99-.75,1.78-1.67,1.78s-1.67-.8-1.67-1.78,.75-1.76,1.67-1.76,1.67,.8,1.67,1.76Z"/><path class="cls-3" d="M763.49,50.87c0,2.33-1.48,4.12-4.75,4.12h-6.34v-14.26h5.97c3.11,0,4.53,1.51,4.53,3.78,0,1.37-.69,2.52-2.15,2.98,1.95,.48,2.74,1.64,2.74,3.38Zm-8.39-7.92v3.65h3.03c1.34,0,2.07-.76,2.07-1.85,0-1.2-.81-1.8-2.19-1.8h-2.92Zm5.67,7.79c0-1.39-.95-1.93-2.36-1.93h-3.31v3.95h3.29c1.5,0,2.38-.61,2.38-2.02Z"/><path class="cls-3" d="M774.14,47.87v7.12h-2.34v-1.39c-.79,1.11-1.87,1.64-3.25,1.64-2.17,0-3.66-1.36-3.66-3.25s1.06-3.09,3.6-3.36l3.07-.34v-.59c0-1.22-.71-1.8-1.83-1.8-1.18,0-1.83,.5-2.03,1.57h-2.6c.28-2.35,1.91-3.59,4.59-3.59s4.45,1.24,4.45,3.99Zm-2.6,2.88v-.8l-2.44,.34c-1.08,.15-1.58,.76-1.58,1.58s.63,1.51,1.71,1.51c1.5,0,2.31-1.07,2.31-2.62Z"/><path class="cls-3" d="M775.74,51.81h2.54c.22,.97,.93,1.47,2.17,1.47s1.89-.5,1.89-1.24c0-.63-.35-1.07-1.28-1.24l-2.19-.44c-2.07-.42-2.94-1.45-2.94-3.11,0-1.81,1.46-3.38,4.24-3.38s4.25,1.41,4.59,3.59h-2.56c-.16-1.09-.87-1.64-2.05-1.64s-1.77,.57-1.77,1.26c0,.59,.3,.99,1.36,1.18l2.15,.4c2.23,.4,3.03,1.51,3.03,3.19,0,1.8-1.34,3.38-4.45,3.38s-4.35-1.39-4.73-3.42Z"/><path class="cls-3" d="M796.09,49.71c0,.34-.02,.63-.02,.63h-7.37c.18,1.97,1.16,2.79,2.54,2.79,1.12,0,1.75-.52,2.05-1.32h2.58c-.45,1.93-2.07,3.42-4.65,3.42-3.25,0-5.12-2.31-5.12-5.61s2.07-5.75,5.04-5.75c3.19,0,5,2.35,4.94,5.84Zm-2.66-1.18c-.08-1.64-.93-2.56-2.27-2.56-1.24,0-2.17,.84-2.42,2.56h4.69Z"/><path class="cls-3" d="M807.59,39.87v15.12h-2.34v-1.83c-.65,1.37-1.79,2.08-3.35,2.08-2.42,0-4.59-2.08-4.59-5.67s2.07-5.69,4.49-5.69c1.42,0,2.5,.57,3.19,1.62v-5.63h2.6Zm-2.6,9.7c0-2.08-1.06-3.46-2.52-3.46-1.54,0-2.54,1.37-2.54,3.46s1.06,3.44,2.54,3.44,2.52-1.32,2.52-3.44Z"/><path class="cls-3" d="M813.78,49.57c0-3.49,2.25-5.69,5.18-5.69s5.16,2.2,5.16,5.69-2.25,5.67-5.16,5.67-5.18-2.18-5.18-5.67Zm7.68,0c0-2.12-.95-3.44-2.52-3.44s-2.52,1.34-2.52,3.44,.95,3.42,2.52,3.42,2.52-1.32,2.52-3.42Z"/><path class="cls-3" d="M835.15,48.14v6.84h-2.6v-6.21c0-1.78-.79-2.58-1.99-2.58s-2.11,.88-2.11,2.58v6.21h-2.6v-10.85h2.34v1.53c.67-1.2,1.75-1.78,3.21-1.78,2.13,0,3.74,1.34,3.74,4.26Z"/><path class="cls-3" d="M844.78,54.99h-2.7v-14.26h2.7v14.26Z"/><path class="cls-3" d="M850.75,46.42v4.83c0,1.03,.47,1.53,1.34,1.53,.35,0,.59-.02,.83-.08v2.25c-.51,.15-.81,.17-1.44,.17-2.3,0-3.33-1.39-3.33-3.74v-4.96h-1.6v-2.29h1.6v-3.07h2.6v3.07h2.17v2.29h-2.17Z"/><path class="cls-3" d="M863.38,47.87v7.12h-2.34v-1.39c-.79,1.11-1.87,1.64-3.25,1.64-2.17,0-3.66-1.36-3.66-3.25s1.06-3.09,3.6-3.36l3.07-.34v-.59c0-1.22-.71-1.8-1.83-1.8-1.18,0-1.83,.5-2.03,1.57h-2.6c.28-2.35,1.91-3.59,4.59-3.59s4.45,1.24,4.45,3.99Zm-2.6,2.88v-.8l-2.44,.34c-1.08,.15-1.58,.76-1.58,1.58s.63,1.51,1.71,1.51c1.5,0,2.31-1.07,2.31-2.62Z"/><path class="cls-3" d="M868.19,54.99h-2.6v-15.12h2.6v15.12Z"/><path class="cls-3" d="M870.25,40.94c0-.9,.63-1.64,1.58-1.64s1.54,.74,1.54,1.64-.63,1.64-1.54,1.64-1.58-.76-1.58-1.64Zm.26,3.19h2.6v10.85h-2.6v-10.85Z"/><path class="cls-3" d="M884.2,47.87v7.12h-2.34v-1.39c-.79,1.11-1.87,1.64-3.25,1.64-2.17,0-3.66-1.36-3.66-3.25s1.06-3.09,3.6-3.36l3.07-.34v-.59c0-1.22-.71-1.8-1.83-1.8-1.18,0-1.83,.5-2.03,1.57h-2.6c.28-2.35,1.91-3.59,4.59-3.59s4.45,1.24,4.45,3.99Zm-2.6,2.88v-.8l-2.44,.34c-1.08,.15-1.58,.76-1.58,1.58s.63,1.51,1.71,1.51c1.5,0,2.31-1.07,2.31-2.62Z"/><path class="cls-3" d="M895.69,48.14v6.84h-2.6v-6.21c0-1.78-.79-2.58-1.99-2.58s-2.11,.88-2.11,2.58v6.21h-2.6v-10.85h2.34v1.53c.67-1.2,1.75-1.78,3.21-1.78,2.13,0,3.74,1.34,3.74,4.26Z"/><path class="cls-3" d="M910.48,51.58h-5.3l-1.08,3.4h-2.86l5.06-14.26h3.15l4.92,14.26h-2.86l-1.04-3.4Zm-.71-2.31l-1.91-6.19-1.95,6.19h3.86Z"/><path class="cls-3" d="M921.26,44.11v2.44c-.16-.02-.33-.04-.59-.04-1.6,0-2.46,.99-2.46,2.71v5.77h-2.6v-10.85h2.34v1.87c.49-1.3,1.5-1.97,2.7-1.97,.22,0,.39,.02,.61,.08Z"/><path class="cls-3" d="M926.16,46.42v4.83c0,1.03,.47,1.53,1.34,1.53,.35,0,.59-.02,.83-.08v2.25c-.51,.15-.81,.17-1.44,.17-2.3,0-3.33-1.39-3.33-3.74v-4.96h-1.6v-2.29h1.6v-3.07h2.6v3.07h2.17v2.29h-2.17Z"/><path class="cls-3" d="M937.11,54.99h-2.6v-15.12h2.6v15.12Z"/><path class="cls-3" d="M948.85,49.71c0,.34-.02,.63-.02,.63h-7.37c.18,1.97,1.16,2.79,2.54,2.79,1.12,0,1.75-.52,2.05-1.32h2.58c-.45,1.93-2.07,3.42-4.65,3.42-3.25,0-5.12-2.31-5.12-5.61s2.07-5.75,5.04-5.75c3.19,0,5,2.35,4.94,5.84Zm-2.66-1.18c-.08-1.64-.93-2.56-2.27-2.56-1.24,0-2.17,.84-2.42,2.56h4.69Z"/><path class="cls-3" d="M953.99,46.42v4.83c0,1.03,.47,1.53,1.34,1.53,.35,0,.59-.02,.83-.08v2.25c-.51,.15-.81,.17-1.44,.17-2.3,0-3.33-1.39-3.33-3.74v-4.96h-1.6v-2.29h1.6v-3.07h2.6v3.07h2.17v2.29h-2.17Z"/><path class="cls-3" d="M961.24,46.42v4.83c0,1.03,.47,1.53,1.34,1.53,.35,0,.59-.02,.83-.08v2.25c-.51,.15-.81,.17-1.44,.17-2.3,0-3.33-1.39-3.33-3.74v-4.96h-1.6v-2.29h1.6v-3.07h2.6v3.07h2.17v2.29h-2.17Z"/><path class="cls-3" d="M974.54,49.71c0,.34-.02,.63-.02,.63h-7.37c.18,1.97,1.16,2.79,2.54,2.79,1.12,0,1.75-.52,2.05-1.32h2.58c-.45,1.93-2.07,3.42-4.65,3.42-3.25,0-5.12-2.31-5.12-5.61s2.07-5.75,5.04-5.75c3.19,0,5,2.35,4.94,5.84Zm-2.66-1.18c-.08-1.64-.93-2.56-2.27-2.56-1.24,0-2.17,.84-2.42,2.56h4.69Z"/><path class="cls-3" d="M981.95,44.11v2.44c-.16-.02-.33-.04-.59-.04-1.6,0-2.46,.99-2.46,2.71v5.77h-2.6v-10.85h2.34v1.87c.49-1.3,1.5-1.97,2.7-1.97,.22,0,.39,.02,.61,.08Z"/><path class="cls-3" d="M983.23,40.94c0-.9,.63-1.64,1.58-1.64s1.54,.74,1.54,1.64-.63,1.64-1.54,1.64-1.58-.76-1.58-1.64Zm.26,3.19h2.6v10.85h-2.6v-10.85Z"/><path class="cls-3" d="M997.71,48.14v6.84h-2.6v-6.21c0-1.78-.79-2.58-1.99-2.58s-2.11,.88-2.11,2.58v6.21h-2.6v-10.85h2.34v1.53c.67-1.2,1.75-1.78,3.21-1.78,2.13,0,3.74,1.34,3.74,4.26Z"/><path class="cls-3" d="M1009.62,44.13v10.31c0,2.6-1.44,4.75-5.04,4.75s-4.85-1.66-5.06-3.84h2.74c.1,1.11,.71,1.83,2.32,1.83s2.46-.9,2.46-2.62v-1.72c-.71,1.16-1.75,1.66-3.13,1.66-2.5,0-4.55-2.04-4.55-5.31s2.03-5.29,4.55-5.29c1.46,0,2.62,.65,3.33,1.85v-1.6h2.38Zm-2.58,5.04c0-1.87-1.1-3.09-2.54-3.09s-2.52,1.22-2.52,3.09,1.1,3.11,2.52,3.11,2.54-1.28,2.54-3.11Z"/><path class="cls-3" d="M1015.83,49.55c0-3.53,2.15-5.67,5.08-5.67s4.43,1.7,4.77,4.07h-2.64c-.24-1.22-.93-1.83-2.15-1.83-1.48,0-2.42,1.26-2.42,3.4s.91,3.46,2.44,3.46c1.24,0,1.87-.63,2.13-1.83h2.62c-.33,2.41-1.97,4.07-4.75,4.07-2.94,0-5.08-2.14-5.08-5.69Z"/><path class="cls-3" d="M1026.92,49.57c0-3.49,2.25-5.69,5.18-5.69s5.16,2.2,5.16,5.69-2.25,5.67-5.16,5.67-5.18-2.18-5.18-5.67Zm7.68,0c0-2.12-.95-3.44-2.52-3.44s-2.52,1.34-2.52,3.44,.95,3.42,2.52,3.42,2.52-1.32,2.52-3.42Z"/><path class="cls-3" d="M1048.29,48.14v6.84h-2.6v-6.21c0-1.78-.79-2.58-1.99-2.58s-2.11,.88-2.11,2.58v6.21h-2.6v-10.85h2.34v1.53c.67-1.2,1.75-1.78,3.21-1.78,2.13,0,3.74,1.34,3.74,4.26Z"/><path class="cls-3" d="M1053.87,46.42v4.83c0,1.03,.47,1.53,1.34,1.53,.35,0,.59-.02,.83-.08v2.25c-.51,.15-.81,.17-1.44,.17-2.3,0-3.33-1.39-3.33-3.74v-4.96h-1.6v-2.29h1.6v-3.07h2.6v3.07h2.17v2.29h-2.17Z"/><path class="cls-3" d="M1067.16,49.71c0,.34-.02,.63-.02,.63h-7.37c.18,1.97,1.16,2.79,2.54,2.79,1.12,0,1.75-.52,2.05-1.32h2.58c-.45,1.93-2.07,3.42-4.65,3.42-3.25,0-5.12-2.31-5.12-5.61s2.07-5.75,5.04-5.75c3.19,0,5,2.35,4.94,5.84Zm-2.66-1.18c-.08-1.64-.93-2.56-2.27-2.56-1.24,0-2.17,.84-2.42,2.56h4.69Z"/><path class="cls-3" d="M1084.5,48.18v6.8h-2.6v-6.24c0-1.7-.79-2.48-1.89-2.48s-2.01,.8-2.01,2.35v6.36h-2.6v-6.24c0-1.7-.79-2.48-1.89-2.48s-1.99,.78-1.99,2.35v6.36h-2.6v-10.85h2.34v1.51c.65-1.18,1.75-1.76,3.11-1.76,1.46,0,2.58,.71,3.17,1.99,.69-1.32,1.85-1.99,3.29-1.99,2.23,0,3.66,1.6,3.66,4.3Z"/><path class="cls-3" d="M1096.97,49.57c0,3.59-2.19,5.67-4.61,5.67-1.34,0-2.36-.57-3.07-1.58v5.27h-2.6v-14.8h2.34v1.76c.69-1.28,1.83-2.02,3.45-2.02,2.42,0,4.49,2.04,4.49,5.69Zm-2.64,0c0-2.08-1-3.46-2.54-3.46-1.46,0-2.5,1.41-2.5,3.46s1.04,3.44,2.5,3.44,2.54-1.34,2.54-3.44Z"/><path class="cls-3" d="M1101.32,54.99h-2.6v-15.12h2.6v15.12Z"/><path class="cls-3" d="M1112.39,47.87v7.12h-2.34v-1.39c-.79,1.11-1.87,1.64-3.25,1.64-2.17,0-3.66-1.36-3.66-3.25s1.06-3.09,3.6-3.36l3.07-.34v-.59c0-1.22-.71-1.8-1.83-1.8-1.18,0-1.83,.5-2.03,1.57h-2.6c.28-2.35,1.91-3.59,4.59-3.59s4.45,1.24,4.45,3.99Zm-2.6,2.88v-.8l-2.44,.34c-1.08,.15-1.58,.76-1.58,1.58s.63,1.51,1.71,1.51c1.5,0,2.31-1.07,2.31-2.62Z"/><path class="cls-3" d="M1117.97,46.42v4.83c0,1.03,.47,1.53,1.34,1.53,.35,0,.59-.02,.83-.08v2.25c-.51,.15-.81,.17-1.44,.17-2.3,0-3.33-1.39-3.33-3.74v-4.96h-1.6v-2.29h1.6v-3.07h2.6v3.07h2.17v2.29h-2.17Z"/><path class="cls-3" d="M1131.26,49.71c0,.34-.02,.63-.02,.63h-7.37c.18,1.97,1.16,2.79,2.54,2.79,1.12,0,1.75-.52,2.05-1.32h2.58c-.45,1.93-2.07,3.42-4.65,3.42-3.25,0-5.12-2.31-5.12-5.61s2.07-5.75,5.04-5.75c3.19,0,5,2.35,4.94,5.84Zm-2.66-1.18c-.08-1.64-.93-2.56-2.27-2.56-1.24,0-2.17,.84-2.42,2.56h4.69Z"/><path class="cls-3" d="M1132.43,51.81h2.54c.22,.97,.93,1.47,2.17,1.47s1.89-.5,1.89-1.24c0-.63-.35-1.07-1.28-1.24l-2.19-.44c-2.07-.42-2.94-1.45-2.94-3.11,0-1.81,1.46-3.38,4.24-3.38s4.25,1.41,4.59,3.59h-2.56c-.16-1.09-.87-1.64-2.05-1.64s-1.77,.57-1.77,1.26c0,.59,.3,.99,1.36,1.18l2.15,.4c2.23,.4,3.03,1.51,3.03,3.19,0,1.8-1.34,3.38-4.45,3.38s-4.35-1.39-4.73-3.42Z"/><path class="cls-3" d="M1157.56,39.87v15.12h-2.34v-1.83c-.65,1.37-1.79,2.08-3.35,2.08-2.42,0-4.59-2.08-4.59-5.67s2.07-5.69,4.49-5.69c1.42,0,2.5,.57,3.19,1.62v-5.63h2.6Zm-2.6,9.7c0-2.08-1.06-3.46-2.52-3.46-1.54,0-2.54,1.37-2.54,3.46s1.06,3.44,2.54,3.44,2.52-1.32,2.52-3.44Z"/><path class="cls-3" d="M1159.59,40.94c0-.9,.63-1.64,1.58-1.64s1.54,.74,1.54,1.64-.63,1.64-1.54,1.64-1.58-.76-1.58-1.64Zm.26,3.19h2.6v10.85h-2.6v-10.85Z"/><path class="cls-3" d="M1165.58,46.42h-1.6v-2.29h1.6v-.63c0-2.52,1.46-3.84,3.6-3.84,.59,0,1.1,.08,1.52,.23v2.12c-.3-.08-.57-.13-.89-.13-1.04,0-1.64,.48-1.64,1.6v.65h3.45v-.63c0-2.52,1.46-3.84,3.6-3.84,.59,0,1.1,.08,1.52,.23v2.12c-.3-.08-.57-.13-.89-.13-1.04,0-1.63,.48-1.63,1.6v.65h2.42v2.29h-2.42v8.57h-2.6v-8.57h-3.45v8.57h-2.6v-8.57Z"/><path class="cls-3" d="M1187.46,49.71c0,.34-.02,.63-.02,.63h-7.37c.18,1.97,1.16,2.79,2.54,2.79,1.12,0,1.75-.52,2.05-1.32h2.58c-.45,1.93-2.07,3.42-4.65,3.42-3.25,0-5.12-2.31-5.12-5.61s2.07-5.75,5.04-5.75c3.19,0,5,2.35,4.94,5.84Zm-2.66-1.18c-.08-1.64-.93-2.56-2.27-2.56-1.24,0-2.17,.84-2.42,2.56h4.69Z"/><path class="cls-3" d="M1194.87,44.11v2.44c-.16-.02-.33-.04-.59-.04-1.6,0-2.46,.99-2.46,2.71v5.77h-2.6v-10.85h2.34v1.87c.49-1.3,1.5-1.97,2.7-1.97,.22,0,.39,.02,.61,.08Z"/><path class="cls-3" d="M1205.82,49.71c0,.34-.02,.63-.02,.63h-7.37c.18,1.97,1.16,2.79,2.54,2.79,1.12,0,1.75-.52,2.05-1.32h2.58c-.45,1.93-2.07,3.42-4.65,3.42-3.25,0-5.12-2.31-5.12-5.61s2.07-5.75,5.04-5.75c3.19,0,5,2.35,4.94,5.84Zm-2.66-1.18c-.08-1.64-.93-2.56-2.27-2.56-1.24,0-2.17,.84-2.42,2.56h4.69Z"/><path class="cls-3" d="M1216.88,48.14v6.84h-2.6v-6.21c0-1.78-.79-2.58-1.99-2.58s-2.11,.88-2.11,2.58v6.21h-2.6v-10.85h2.34v1.53c.67-1.2,1.75-1.78,3.21-1.78,2.13,0,3.74,1.34,3.74,4.26Z"/><path class="cls-3" d="M1222.45,46.42v4.83c0,1.03,.47,1.53,1.34,1.53,.35,0,.59-.02,.83-.08v2.25c-.51,.15-.81,.17-1.44,.17-2.3,0-3.33-1.39-3.33-3.74v-4.96h-1.6v-2.29h1.6v-3.07h2.6v3.07h2.17v2.29h-2.17Z"/><path class="cls-3" d="M93.96,70.13l-3.13,10.85h-3.09l-2.15-7.6-2.07,7.6h-3.09l-3.11-10.85h2.7l2.07,8.1,2.15-8.1h2.9l2.17,8.1,2.01-8.1h2.66Z"/><path class="cls-3" d="M104.85,75.71c0,.34-.02,.63-.02,.63h-7.37c.18,1.97,1.16,2.79,2.54,2.79,1.12,0,1.75-.52,2.05-1.32h2.58c-.45,1.93-2.07,3.42-4.65,3.42-3.25,0-5.12-2.31-5.12-5.61s2.07-5.75,5.04-5.75c3.19,0,5,2.35,4.94,5.84Zm-2.66-1.18c-.08-1.64-.93-2.56-2.27-2.56-1.24,0-2.17,.84-2.42,2.56h4.69Z"/><path class="cls-3" d="M106.37,66.94c0-.9,.63-1.64,1.58-1.64s1.54,.74,1.54,1.64-.63,1.64-1.54,1.64-1.58-.76-1.58-1.64Zm.26,3.19h2.6v10.85h-2.6v-10.85Z"/><path class="cls-3" d="M121.28,70.13v10.31c0,2.6-1.44,4.75-5.04,4.75s-4.85-1.66-5.06-3.84h2.74c.1,1.11,.71,1.83,2.32,1.83s2.46-.9,2.46-2.62v-1.72c-.71,1.16-1.75,1.66-3.13,1.66-2.5,0-4.55-2.04-4.55-5.31s2.03-5.29,4.55-5.29c1.46,0,2.62,.65,3.33,1.85v-1.6h2.38Zm-2.58,5.04c0-1.87-1.1-3.09-2.54-3.09s-2.52,1.22-2.52,3.09,1.1,3.11,2.52,3.11,2.54-1.28,2.54-3.11Z"/><path class="cls-3" d="M132.87,74.16v6.82h-2.6v-6.28c0-1.68-.87-2.5-2.01-2.5s-2.09,.88-2.09,2.54v6.24h-2.6v-15.12h2.6v5.71c.59-1.09,1.58-1.7,2.9-1.7,2.17,0,3.8,1.47,3.8,4.28Z"/><path class="cls-3" d="M138.44,72.42v4.83c0,1.03,.47,1.53,1.34,1.53,.35,0,.59-.02,.83-.08v2.25c-.51,.15-.81,.17-1.44,.17-2.3,0-3.33-1.39-3.33-3.74v-4.96h-1.6v-2.29h1.6v-3.07h2.6v3.07h2.17v2.29h-2.17Z"/><path class="cls-3" d="M141.71,77.81h2.54c.22,.97,.93,1.47,2.17,1.47s1.89-.5,1.89-1.24c0-.63-.35-1.07-1.28-1.24l-2.19-.44c-2.07-.42-2.94-1.45-2.94-3.11,0-1.81,1.46-3.38,4.24-3.38s4.25,1.41,4.59,3.59h-2.56c-.16-1.09-.87-1.64-2.05-1.64s-1.77,.57-1.77,1.26c0,.59,.3,.99,1.36,1.18l2.15,.4c2.23,.4,3.03,1.51,3.03,3.19,0,1.8-1.34,3.38-4.45,3.38s-4.35-1.39-4.73-3.42Z"/><path class="cls-3" d="M165.86,73.87v7.12h-2.34v-1.39c-.79,1.11-1.87,1.64-3.25,1.64-2.17,0-3.66-1.36-3.66-3.25s1.06-3.09,3.6-3.36l3.07-.34v-.59c0-1.22-.71-1.8-1.83-1.8-1.18,0-1.83,.5-2.03,1.57h-2.6c.28-2.35,1.91-3.59,4.59-3.59s4.45,1.24,4.45,3.99Zm-2.6,2.88v-.8l-2.44,.34c-1.08,.15-1.58,.76-1.58,1.58s.63,1.51,1.71,1.51c1.5,0,2.31-1.07,2.31-2.62Z"/><path class="cls-3" d="M177.35,74.14v6.84h-2.6v-6.21c0-1.78-.79-2.58-1.99-2.58s-2.11,.88-2.11,2.58v6.21h-2.6v-10.85h2.34v1.53c.67-1.2,1.75-1.78,3.21-1.78,2.13,0,3.74,1.34,3.74,4.26Z"/><path class="cls-3" d="M189.28,65.87v15.12h-2.34v-1.83c-.65,1.37-1.79,2.08-3.35,2.08-2.42,0-4.59-2.08-4.59-5.67s2.07-5.69,4.49-5.69c1.42,0,2.5,.57,3.19,1.62v-5.63h2.6Zm-2.6,9.7c0-2.08-1.06-3.46-2.52-3.46-1.54,0-2.54,1.37-2.54,3.46s1.06,3.44,2.54,3.44,2.52-1.32,2.52-3.44Z"/><path class="cls-3" d="M211.84,70.13l-3.13,10.85h-3.09l-2.15-7.6-2.07,7.6h-3.09l-3.11-10.85h2.7l2.07,8.1,2.15-8.1h2.9l2.17,8.1,2.01-8.1h2.66Z"/><path class="cls-3" d="M213.06,66.94c0-.9,.63-1.64,1.58-1.64s1.54,.74,1.54,1.64-.63,1.64-1.54,1.64-1.58-.76-1.58-1.64Zm.26,3.19h2.6v10.85h-2.6v-10.85Z"/><path class="cls-3" d="M227.99,65.87v15.12h-2.34v-1.83c-.65,1.37-1.79,2.08-3.35,2.08-2.42,0-4.59-2.08-4.59-5.67s2.07-5.69,4.49-5.69c1.42,0,2.5,.57,3.19,1.62v-5.63h2.6Zm-2.6,9.7c0-2.08-1.06-3.46-2.52-3.46-1.54,0-2.54,1.37-2.54,3.46s1.06,3.44,2.54,3.44,2.52-1.32,2.52-3.44Z"/><path class="cls-3" d="M233.65,72.42v4.83c0,1.03,.47,1.53,1.34,1.53,.35,0,.59-.02,.83-.08v2.25c-.51,.15-.81,.17-1.44,.17-2.3,0-3.33-1.39-3.33-3.74v-4.96h-1.6v-2.29h1.6v-3.07h2.6v3.07h2.17v2.29h-2.17Z"/><path class="cls-3" d="M246.8,74.16v6.82h-2.6v-6.28c0-1.68-.87-2.5-2.01-2.5s-2.09,.88-2.09,2.54v6.24h-2.6v-15.12h2.6v5.71c.59-1.09,1.58-1.7,2.9-1.7,2.17,0,3.8,1.47,3.8,4.28Z"/><path class="cls-3" d="M248.4,77.81h2.54c.22,.97,.93,1.47,2.17,1.47s1.89-.5,1.89-1.24c0-.63-.35-1.07-1.28-1.24l-2.19-.44c-2.07-.42-2.94-1.45-2.94-3.11,0-1.81,1.46-3.38,4.24-3.38s4.25,1.41,4.59,3.59h-2.56c-.16-1.09-.87-1.64-2.05-1.64s-1.77,.57-1.77,1.26c0,.59,.3,.99,1.36,1.18l2.15,.4c2.23,.4,3.03,1.51,3.03,3.19,0,1.8-1.34,3.38-4.45,3.38s-4.35-1.39-4.73-3.42Z"/><path class="cls-3" d="M267.19,69.48v.65h2.42v2.29h-2.42v8.57h-2.6v-8.57h-1.6v-2.29h1.6v-.63c0-2.52,1.46-3.84,3.6-3.84,.59,0,1.1,.08,1.52,.23v2.12c-.3-.08-.61-.13-.93-.13-1.04,0-1.6,.52-1.6,1.6Z"/><path class="cls-3" d="M276.65,70.11v2.44c-.16-.02-.33-.04-.59-.04-1.6,0-2.46,.99-2.46,2.71v5.77h-2.6v-10.85h2.34v1.87c.49-1.3,1.5-1.97,2.7-1.97,.22,0,.39,.02,.61,.08Z"/><path class="cls-3" d="M277.61,75.57c0-3.49,2.25-5.69,5.18-5.69s5.16,2.2,5.16,5.69-2.25,5.67-5.16,5.67-5.18-2.18-5.18-5.67Zm7.68,0c0-2.12-.95-3.44-2.52-3.44s-2.52,1.34-2.52,3.44,.95,3.42,2.52,3.42,2.52-1.32,2.52-3.42Z"/><path class="cls-3" d="M305.27,74.18v6.8h-2.6v-6.24c0-1.7-.79-2.48-1.89-2.48s-2.01,.8-2.01,2.35v6.36h-2.6v-6.24c0-1.7-.79-2.48-1.89-2.48s-1.99,.78-1.99,2.35v6.36h-2.6v-10.85h2.34v1.51c.65-1.18,1.75-1.76,3.11-1.76,1.46,0,2.58,.71,3.17,1.99,.69-1.32,1.85-1.99,3.29-1.99,2.23,0,3.66,1.6,3.66,4.3Z"/><path class="cls-3" d="M311.38,75.55c0-3.53,2.15-5.67,5.08-5.67s4.43,1.7,4.77,4.07h-2.64c-.24-1.22-.93-1.83-2.15-1.83-1.48,0-2.42,1.26-2.42,3.4s.91,3.46,2.44,3.46c1.24,0,1.87-.63,2.13-1.83h2.62c-.33,2.41-1.97,4.07-4.75,4.07-2.94,0-5.08-2.14-5.08-5.69Z"/><path class="cls-3" d="M322.47,75.57c0-3.49,2.25-5.69,5.18-5.69s5.16,2.2,5.16,5.69-2.25,5.67-5.16,5.67-5.18-2.18-5.18-5.67Zm7.68,0c0-2.12-.95-3.44-2.52-3.44s-2.52,1.34-2.52,3.44,.95,3.42,2.52,3.42,2.52-1.32,2.52-3.42Z"/><path class="cls-3" d="M343.84,74.14v6.84h-2.6v-6.21c0-1.78-.79-2.58-1.99-2.58s-2.11,.88-2.11,2.58v6.21h-2.6v-10.85h2.34v1.53c.67-1.2,1.75-1.78,3.21-1.78,2.13,0,3.74,1.34,3.74,4.26Z"/><path class="cls-3" d="M355.78,65.87v15.12h-2.34v-1.83c-.65,1.37-1.79,2.08-3.35,2.08-2.42,0-4.59-2.08-4.59-5.67s2.07-5.69,4.49-5.69c1.42,0,2.5,.57,3.19,1.62v-5.63h2.6Zm-2.6,9.7c0-2.08-1.06-3.46-2.52-3.46-1.54,0-2.54,1.37-2.54,3.46s1.06,3.44,2.54,3.44,2.52-1.32,2.52-3.44Z"/><path class="cls-3" d="M367.48,75.71c0,.34-.02,.63-.02,.63h-7.37c.18,1.97,1.16,2.79,2.54,2.79,1.12,0,1.75-.52,2.05-1.32h2.58c-.45,1.93-2.07,3.42-4.65,3.42-3.25,0-5.12-2.31-5.12-5.61s2.07-5.75,5.04-5.75c3.19,0,5,2.35,4.94,5.84Zm-2.66-1.18c-.08-1.64-.93-2.56-2.27-2.56-1.24,0-2.17,.84-2.42,2.56h4.69Z"/><path class="cls-3" d="M378.53,74.14v6.84h-2.6v-6.21c0-1.78-.79-2.58-1.99-2.58s-2.11,.88-2.11,2.58v6.21h-2.6v-10.85h2.34v1.53c.67-1.2,1.75-1.78,3.21-1.78,2.13,0,3.74,1.34,3.74,4.26Z"/><path class="cls-3" d="M380.13,77.81h2.54c.22,.97,.93,1.47,2.17,1.47s1.89-.5,1.89-1.24c0-.63-.35-1.07-1.28-1.24l-2.19-.44c-2.07-.42-2.94-1.45-2.94-3.11,0-1.81,1.46-3.38,4.24-3.38s4.25,1.41,4.59,3.59h-2.56c-.16-1.09-.87-1.64-2.05-1.64s-1.77,.57-1.77,1.26c0,.59,.3,.99,1.36,1.18l2.15,.4c2.23,.4,3.03,1.51,3.03,3.19,0,1.8-1.34,3.38-4.45,3.38s-4.35-1.39-4.73-3.42Z"/><path class="cls-3" d="M400.48,75.71c0,.34-.02,.63-.02,.63h-7.37c.18,1.97,1.16,2.79,2.54,2.79,1.12,0,1.75-.52,2.05-1.32h2.58c-.45,1.93-2.07,3.42-4.65,3.42-3.25,0-5.12-2.31-5.12-5.61s2.07-5.75,5.04-5.75c3.19,0,5,2.35,4.94,5.84Zm-2.66-1.18c-.08-1.64-.93-2.56-2.27-2.56-1.24,0-2.17,.84-2.42,2.56h4.69Z"/><path class="cls-3" d="M411.98,65.87v15.12h-2.34v-1.83c-.65,1.37-1.79,2.08-3.35,2.08-2.42,0-4.59-2.08-4.59-5.67s2.07-5.69,4.49-5.69c1.42,0,2.5,.57,3.19,1.62v-5.63h2.6Zm-2.6,9.7c0-2.08-1.06-3.46-2.52-3.46-1.54,0-2.54,1.37-2.54,3.46s1.06,3.44,2.54,3.44,2.52-1.32,2.52-3.44Z"/><path class="cls-3" d="M422.1,72.42v4.83c0,1.03,.47,1.53,1.34,1.53,.35,0,.59-.02,.83-.08v2.25c-.51,.15-.81,.17-1.44,.17-2.3,0-3.33-1.39-3.33-3.74v-4.96h-1.6v-2.29h1.6v-3.07h2.6v3.07h2.17v2.29h-2.17Z"/><path class="cls-3" d="M425.41,75.57c0-3.49,2.25-5.69,5.18-5.69s5.16,2.2,5.16,5.69-2.25,5.67-5.16,5.67-5.18-2.18-5.18-5.67Zm7.68,0c0-2.12-.95-3.44-2.52-3.44s-2.52,1.34-2.52,3.44,.95,3.42,2.52,3.42,2.52-1.32,2.52-3.42Z"/><path class="cls-3" d="M451.4,75.71c0,.34-.02,.63-.02,.63h-7.37c.18,1.97,1.16,2.79,2.54,2.79,1.12,0,1.75-.52,2.05-1.32h2.58c-.45,1.93-2.07,3.42-4.65,3.42-3.25,0-5.12-2.31-5.12-5.61s2.07-5.75,5.04-5.75c3.19,0,5,2.35,4.94,5.84Zm-2.66-1.18c-.08-1.64-.93-2.56-2.27-2.56-1.24,0-2.17,.84-2.42,2.56h4.69Z"/><path class="cls-3" d="M459.91,80.99l-2.46-3.99-2.4,3.99h-2.9l3.72-5.67-3.57-5.19h2.9l2.25,3.4,2.25-3.4h2.92l-3.57,5.19,3.76,5.67h-2.9Z"/><path class="cls-3" d="M467.37,72.42v4.83c0,1.03,.47,1.53,1.34,1.53,.35,0,.59-.02,.83-.08v2.25c-.51,.15-.81,.17-1.44,.17-2.3,0-3.33-1.39-3.33-3.74v-4.96h-1.6v-2.29h1.6v-3.07h2.6v3.07h2.17v2.29h-2.17Z"/><path class="cls-3" d="M480.67,75.71c0,.34-.02,.63-.02,.63h-7.37c.18,1.97,1.16,2.79,2.54,2.79,1.12,0,1.75-.52,2.05-1.32h2.58c-.45,1.93-2.07,3.42-4.65,3.42-3.25,0-5.12-2.31-5.12-5.61s2.07-5.75,5.04-5.75c3.19,0,5,2.35,4.94,5.84Zm-2.66-1.18c-.08-1.64-.93-2.56-2.27-2.56-1.24,0-2.17,.84-2.42,2.56h4.69Z"/><path class="cls-3" d="M491.72,74.14v6.84h-2.6v-6.21c0-1.78-.79-2.58-1.99-2.58s-2.11,.88-2.11,2.58v6.21h-2.6v-10.85h2.34v1.53c.67-1.2,1.75-1.78,3.21-1.78,2.13,0,3.74,1.34,3.74,4.26Z"/><path class="cls-3" d="M503.66,65.87v15.12h-2.34v-1.83c-.65,1.37-1.79,2.08-3.35,2.08-2.42,0-4.59-2.08-4.59-5.67s2.07-5.69,4.49-5.69c1.42,0,2.5,.57,3.19,1.62v-5.63h2.6Zm-2.6,9.7c0-2.08-1.06-3.46-2.52-3.46-1.54,0-2.54,1.37-2.54,3.46s1.06,3.44,2.54,3.44,2.52-1.32,2.52-3.44Z"/><path class="cls-3" d="M515.36,75.71c0,.34-.02,.63-.02,.63h-7.37c.18,1.97,1.16,2.79,2.54,2.79,1.12,0,1.75-.52,2.05-1.32h2.58c-.45,1.93-2.07,3.42-4.65,3.42-3.25,0-5.12-2.31-5.12-5.61s2.07-5.75,5.04-5.75c3.19,0,5,2.35,4.94,5.84Zm-2.66-1.18c-.08-1.64-.93-2.56-2.27-2.56-1.24,0-2.17,.84-2.42,2.56h4.69Z"/><path class="cls-3" d="M526.86,65.87v15.12h-2.34v-1.83c-.65,1.37-1.79,2.08-3.35,2.08-2.42,0-4.59-2.08-4.59-5.67s2.07-5.69,4.49-5.69c1.42,0,2.5,.57,3.19,1.62v-5.63h2.6Zm-2.6,9.7c0-2.08-1.06-3.46-2.52-3.46-1.54,0-2.54,1.37-2.54,3.46s1.06,3.44,2.54,3.44,2.52-1.32,2.52-3.44Z"/><path class="cls-3" d="M530.59,83.78h-1.75c.55-1.11,.85-1.85,1.08-2.67l-.18-.11c-.61-.29-.93-.82-.93-1.55,0-.97,.73-1.76,1.67-1.76s1.67,.76,1.67,1.8-.3,2.08-1.58,4.28Z"/><path class="cls-3" d="M547.37,73.87v7.12h-2.34v-1.39c-.79,1.11-1.87,1.64-3.25,1.64-2.17,0-3.66-1.36-3.66-3.25s1.06-3.09,3.6-3.36l3.07-.34v-.59c0-1.22-.71-1.8-1.83-1.8-1.18,0-1.83,.5-2.03,1.57h-2.6c.28-2.35,1.91-3.59,4.59-3.59s4.45,1.24,4.45,3.99Zm-2.6,2.88v-.8l-2.44,.34c-1.08,.15-1.58,.76-1.58,1.58s.63,1.51,1.71,1.51c1.5,0,2.31-1.07,2.31-2.62Z"/><path class="cls-3" d="M558.85,74.14v6.84h-2.6v-6.21c0-1.78-.79-2.58-1.99-2.58s-2.11,.88-2.11,2.58v6.21h-2.6v-10.85h2.34v1.53c.67-1.2,1.75-1.78,3.21-1.78,2.13,0,3.74,1.34,3.74,4.26Z"/><path class="cls-3" d="M570.79,65.87v15.12h-2.34v-1.83c-.65,1.37-1.79,2.08-3.35,2.08-2.42,0-4.59-2.08-4.59-5.67s2.07-5.69,4.49-5.69c1.42,0,2.5,.57,3.19,1.62v-5.63h2.6Zm-2.6,9.7c0-2.08-1.06-3.46-2.52-3.46-1.54,0-2.54,1.37-2.54,3.46s1.06,3.44,2.54,3.44,2.52-1.32,2.52-3.44Z"/><path class="cls-3" d="M586.29,73.87v7.12h-2.34v-1.39c-.79,1.11-1.87,1.64-3.25,1.64-2.17,0-3.66-1.36-3.66-3.25s1.06-3.09,3.6-3.36l3.07-.34v-.59c0-1.22-.71-1.8-1.83-1.8-1.18,0-1.83,.5-2.03,1.57h-2.6c.28-2.35,1.91-3.59,4.59-3.59s4.45,1.24,4.45,3.99Zm-2.6,2.88v-.8l-2.44,.34c-1.08,.15-1.58,.76-1.58,1.58s.63,1.51,1.71,1.51c1.5,0,2.31-1.07,2.31-2.62Z"/><path class="cls-3" d="M608.77,70.13l-3.13,10.85h-3.09l-2.15-7.6-2.07,7.6h-3.09l-3.11-10.85h2.7l2.07,8.1,2.15-8.1h2.9l2.17,8.1,2.01-8.1h2.66Z"/><path class="cls-3" d="M609.99,66.94c0-.9,.63-1.64,1.58-1.64s1.54,.74,1.54,1.64-.63,1.64-1.54,1.64-1.58-.76-1.58-1.64Zm.26,3.19h2.6v10.85h-2.6v-10.85Z"/><path class="cls-3" d="M624.92,65.87v15.12h-2.34v-1.83c-.65,1.37-1.79,2.08-3.35,2.08-2.42,0-4.59-2.08-4.59-5.67s2.07-5.69,4.49-5.69c1.42,0,2.5,.57,3.19,1.62v-5.63h2.6Zm-2.6,9.7c0-2.08-1.06-3.46-2.52-3.46-1.54,0-2.54,1.37-2.54,3.46s1.06,3.44,2.54,3.44,2.52-1.32,2.52-3.44Z"/><path class="cls-3" d="M636.62,75.71c0,.34-.02,.63-.02,.63h-7.37c.18,1.97,1.16,2.79,2.54,2.79,1.12,0,1.75-.52,2.05-1.32h2.58c-.45,1.93-2.07,3.42-4.65,3.42-3.25,0-5.12-2.31-5.12-5.61s2.07-5.75,5.04-5.75c3.19,0,5,2.35,4.94,5.84Zm-2.66-1.18c-.08-1.64-.93-2.56-2.27-2.56-1.24,0-2.17,.84-2.42,2.56h4.69Z"/><path class="cls-3" d="M642.26,77.81h2.54c.22,.97,.93,1.47,2.17,1.47s1.89-.5,1.89-1.24c0-.63-.35-1.07-1.28-1.24l-2.19-.44c-2.07-.42-2.94-1.45-2.94-3.11,0-1.81,1.46-3.38,4.24-3.38s4.25,1.41,4.59,3.59h-2.56c-.16-1.09-.87-1.64-2.05-1.64s-1.77,.57-1.77,1.26c0,.59,.3,.99,1.36,1.18l2.15,.4c2.23,.4,3.03,1.51,3.03,3.19,0,1.8-1.34,3.38-4.45,3.38s-4.35-1.39-4.73-3.42Z"/><path class="cls-3" d="M662.61,75.71c0,.34-.02,.63-.02,.63h-7.37c.18,1.97,1.16,2.79,2.54,2.79,1.12,0,1.75-.52,2.05-1.32h2.58c-.45,1.93-2.07,3.42-4.65,3.42-3.25,0-5.12-2.31-5.12-5.61s2.07-5.75,5.04-5.75c3.19,0,5,2.35,4.94,5.84Zm-2.66-1.18c-.08-1.64-.93-2.56-2.27-2.56-1.24,0-2.17,.84-2.42,2.56h4.69Z"/><path class="cls-3" d="M667.75,72.42v4.83c0,1.03,.47,1.53,1.34,1.53,.35,0,.59-.02,.83-.08v2.25c-.51,.15-.81,.17-1.44,.17-2.3,0-3.33-1.39-3.33-3.74v-4.96h-1.6v-2.29h1.6v-3.07h2.6v3.07h2.17v2.29h-2.17Z"/><path class="cls-3" d="M675.53,75.57c0-3.49,2.25-5.69,5.18-5.69s5.16,2.2,5.16,5.69-2.25,5.67-5.16,5.67-5.18-2.18-5.18-5.67Zm7.68,0c0-2.12-.95-3.44-2.52-3.44s-2.52,1.34-2.52,3.44,.95,3.42,2.52,3.42,2.52-1.32,2.52-3.42Z"/><path class="cls-3" d="M691.01,69.48v.65h2.42v2.29h-2.42v8.57h-2.6v-8.57h-1.6v-2.29h1.6v-.63c0-2.52,1.46-3.84,3.6-3.84,.59,0,1.1,.08,1.52,.23v2.12c-.3-.08-.61-.13-.93-.13-1.04,0-1.6,.52-1.6,1.6Z"/><path class="cls-3" d="M701.91,80.99h-2.6v-15.12h2.6v15.12Z"/><path class="cls-3" d="M703.98,66.94c0-.9,.63-1.64,1.58-1.64s1.54,.74,1.54,1.64-.63,1.64-1.54,1.64-1.58-.76-1.58-1.64Zm.26,3.19h2.6v10.85h-2.6v-10.85Z"/><path class="cls-3" d="M718.89,70.13v10.31c0,2.6-1.44,4.75-5.04,4.75s-4.85-1.66-5.06-3.84h2.74c.1,1.11,.71,1.83,2.32,1.83s2.46-.9,2.46-2.62v-1.72c-.71,1.16-1.75,1.66-3.13,1.66-2.5,0-4.55-2.04-4.55-5.31s2.03-5.29,4.55-5.29c1.46,0,2.62,.65,3.33,1.85v-1.6h2.38Zm-2.58,5.04c0-1.87-1.1-3.09-2.54-3.09s-2.52,1.22-2.52,3.09,1.1,3.11,2.52,3.11,2.54-1.28,2.54-3.11Z"/><path class="cls-3" d="M729.94,73.87v7.12h-2.34v-1.39c-.79,1.11-1.87,1.64-3.25,1.64-2.17,0-3.66-1.36-3.66-3.25s1.06-3.09,3.6-3.36l3.07-.34v-.59c0-1.22-.71-1.8-1.83-1.8-1.18,0-1.83,.5-2.03,1.57h-2.6c.28-2.35,1.91-3.59,4.59-3.59s4.45,1.24,4.45,3.99Zm-2.6,2.88v-.8l-2.44,.34c-1.08,.15-1.58,.76-1.58,1.58s.63,1.51,1.71,1.51c1.5,0,2.31-1.07,2.31-2.62Z"/><path class="cls-3" d="M735.51,72.42v4.83c0,1.03,.47,1.53,1.34,1.53,.35,0,.59-.02,.83-.08v2.25c-.51,.15-.81,.17-1.44,.17-2.3,0-3.33-1.39-3.33-3.74v-4.96h-1.6v-2.29h1.6v-3.07h2.6v3.07h2.17v2.29h-2.17Z"/><path class="cls-3" d="M748.38,70.13v10.85h-2.32v-1.64c-.69,1.24-1.79,1.89-3.17,1.89-2.29,0-3.6-1.41-3.6-3.99v-7.12h2.6v6.74c0,1.3,.63,2.06,1.77,2.06,1.28,0,2.13-.97,2.13-2.46v-6.34h2.6Z"/><path class="cls-3" d="M756.32,70.11v2.44c-.16-.02-.33-.04-.59-.04-1.6,0-2.46,.99-2.46,2.71v5.77h-2.6v-10.85h2.34v1.87c.49-1.3,1.5-1.97,2.7-1.97,.22,0,.39,.02,.61,.08Z"/><path class="cls-3" d="M767.27,75.71c0,.34-.02,.63-.02,.63h-7.37c.18,1.97,1.16,2.79,2.54,2.79,1.12,0,1.75-.52,2.05-1.32h2.58c-.45,1.93-2.07,3.42-4.65,3.42-3.25,0-5.12-2.31-5.12-5.61s2.07-5.75,5.04-5.75c3.19,0,5,2.35,4.94,5.84Zm-2.66-1.18c-.08-1.64-.93-2.56-2.27-2.56-1.24,0-2.17,.84-2.42,2.56h4.69Z"/><path class="cls-3" d="M768.43,77.81h2.54c.22,.97,.93,1.47,2.17,1.47s1.89-.5,1.89-1.24c0-.63-.35-1.07-1.28-1.24l-2.19-.44c-2.07-.42-2.94-1.45-2.94-3.11,0-1.81,1.46-3.38,4.24-3.38s4.25,1.41,4.59,3.59h-2.56c-.16-1.09-.87-1.64-2.05-1.64s-1.77,.57-1.77,1.26c0,.59,.3,.99,1.36,1.18l2.15,.4c2.23,.4,3.03,1.51,3.03,3.19,0,1.8-1.34,3.38-4.45,3.38s-4.35-1.39-4.73-3.42Z"/><path class="cls-3" d="M780.8,83.78h-1.75c.55-1.11,.85-1.85,1.08-2.67l-.18-.11c-.61-.29-.93-.82-.93-1.55,0-.97,.73-1.76,1.67-1.76s1.67,.76,1.67,1.8-.3,2.08-1.58,4.28Z"/><path class="cls-3" d="M788.27,75.55c0-3.53,2.15-5.67,5.08-5.67s4.43,1.7,4.77,4.07h-2.64c-.24-1.22-.93-1.83-2.15-1.83-1.48,0-2.42,1.26-2.42,3.4s.91,3.46,2.44,3.46c1.24,0,1.87-.63,2.13-1.83h2.62c-.33,2.41-1.97,4.07-4.75,4.07-2.94,0-5.08-2.14-5.08-5.69Z"/><path class="cls-3" d="M799.36,75.57c0-3.49,2.25-5.69,5.18-5.69s5.16,2.2,5.16,5.69-2.25,5.67-5.16,5.67-5.18-2.18-5.18-5.67Zm7.68,0c0-2.12-.95-3.44-2.52-3.44s-2.52,1.34-2.52,3.44,.95,3.42,2.52,3.42,2.52-1.32,2.52-3.42Z"/><path class="cls-3" d="M820.73,74.14v6.84h-2.6v-6.21c0-1.78-.79-2.58-1.99-2.58s-2.11,.88-2.11,2.58v6.21h-2.6v-10.85h2.34v1.53c.67-1.2,1.75-1.78,3.21-1.78,2.13,0,3.74,1.34,3.74,4.26Z"/><path class="cls-3" d="M826.31,72.42v4.83c0,1.03,.47,1.53,1.34,1.53,.35,0,.59-.02,.83-.08v2.25c-.51,.15-.81,.17-1.44,.17-2.3,0-3.33-1.39-3.33-3.74v-4.96h-1.6v-2.29h1.6v-3.07h2.6v3.07h2.17v2.29h-2.17Z"/><path class="cls-3" d="M838.93,73.87v7.12h-2.34v-1.39c-.79,1.11-1.87,1.64-3.25,1.64-2.17,0-3.66-1.36-3.66-3.25s1.06-3.09,3.6-3.36l3.07-.34v-.59c0-1.22-.71-1.8-1.83-1.8-1.18,0-1.83,.5-2.03,1.57h-2.6c.28-2.35,1.91-3.59,4.59-3.59s4.45,1.24,4.45,3.99Zm-2.6,2.88v-.8l-2.44,.34c-1.08,.15-1.58,.76-1.58,1.58s.63,1.51,1.71,1.51c1.5,0,2.31-1.07,2.31-2.62Z"/><path class="cls-3" d="M840.57,75.55c0-3.53,2.15-5.67,5.08-5.67s4.43,1.7,4.77,4.07h-2.64c-.24-1.22-.93-1.83-2.15-1.83-1.48,0-2.42,1.26-2.42,3.4s.91,3.46,2.44,3.46c1.24,0,1.87-.63,2.13-1.83h2.62c-.33,2.41-1.97,4.07-4.75,4.07-2.94,0-5.08-2.14-5.08-5.69Z"/><path class="cls-3" d="M855.6,72.42v4.83c0,1.03,.47,1.53,1.34,1.53,.35,0,.59-.02,.83-.08v2.25c-.51,.15-.81,.17-1.44,.17-2.3,0-3.33-1.39-3.33-3.74v-4.96h-1.6v-2.29h1.6v-3.07h2.6v3.07h2.17v2.29h-2.17Z"/><path class="cls-3" d="M859.22,66.94c0-.9,.63-1.64,1.58-1.64s1.54,.74,1.54,1.64-.63,1.64-1.54,1.64-1.58-.76-1.58-1.64Zm.26,3.19h2.6v10.85h-2.6v-10.85Z"/><path class="cls-3" d="M863.85,75.57c0-3.49,2.25-5.69,5.18-5.69s5.16,2.2,5.16,5.69-2.25,5.67-5.16,5.67-5.18-2.18-5.18-5.67Zm7.68,0c0-2.12-.95-3.44-2.52-3.44s-2.52,1.34-2.52,3.44,.95,3.42,2.52,3.42,2.52-1.32,2.52-3.42Z"/><path class="cls-3" d="M885.22,74.14v6.84h-2.6v-6.21c0-1.78-.79-2.58-1.99-2.58s-2.11,.88-2.11,2.58v6.21h-2.6v-10.85h2.34v1.53c.67-1.2,1.75-1.78,3.21-1.78,2.13,0,3.74,1.34,3.74,4.26Z"/><path class="cls-3" d="M886.82,77.81h2.54c.22,.97,.93,1.47,2.17,1.47s1.89-.5,1.89-1.24c0-.63-.35-1.07-1.28-1.24l-2.19-.44c-2.07-.42-2.94-1.45-2.94-3.11,0-1.81,1.46-3.38,4.24-3.38s4.25,1.41,4.59,3.59h-2.56c-.16-1.09-.87-1.64-2.05-1.64s-1.77,.57-1.77,1.26c0,.59,.3,.99,1.36,1.18l2.15,.4c2.23,.4,3.03,1.51,3.03,3.19,0,1.8-1.34,3.38-4.45,3.38s-4.35-1.39-4.73-3.42Z"/><path class="cls-3" d="M910.97,73.87v7.12h-2.34v-1.39c-.79,1.11-1.87,1.64-3.25,1.64-2.17,0-3.66-1.36-3.66-3.25s1.06-3.09,3.6-3.36l3.07-.34v-.59c0-1.22-.71-1.8-1.83-1.8-1.18,0-1.83,.5-2.03,1.57h-2.6c.28-2.35,1.91-3.59,4.59-3.59s4.45,1.24,4.45,3.99Zm-2.6,2.88v-.8l-2.44,.34c-1.08,.15-1.58,.76-1.58,1.58s.63,1.51,1.71,1.51c1.5,0,2.31-1.07,2.31-2.62Z"/><path class="cls-3" d="M922.46,74.14v6.84h-2.6v-6.21c0-1.78-.79-2.58-1.99-2.58s-2.11,.88-2.11,2.58v6.21h-2.6v-10.85h2.34v1.53c.67-1.2,1.75-1.78,3.21-1.78,2.13,0,3.74,1.34,3.74,4.26Z"/><path class="cls-3" d="M934.39,65.87v15.12h-2.34v-1.83c-.65,1.37-1.79,2.08-3.35,2.08-2.42,0-4.59-2.08-4.59-5.67s2.07-5.69,4.49-5.69c1.42,0,2.5,.57,3.19,1.62v-5.63h2.6Zm-2.6,9.7c0-2.08-1.06-3.46-2.52-3.46-1.54,0-2.54,1.37-2.54,3.46s1.06,3.44,2.54,3.44,2.52-1.32,2.52-3.44Z"/><path class="cls-3" d="M950.43,74.14v6.84h-2.6v-6.21c0-1.78-.79-2.58-1.99-2.58s-2.11,.88-2.11,2.58v6.21h-2.6v-10.85h2.34v1.53c.67-1.2,1.75-1.78,3.21-1.78,2.13,0,3.74,1.34,3.74,4.26Z"/><path class="cls-3" d="M962.05,75.71c0,.34-.02,.63-.02,.63h-7.37c.18,1.97,1.16,2.79,2.54,2.79,1.12,0,1.75-.52,2.05-1.32h2.58c-.45,1.93-2.07,3.42-4.65,3.42-3.25,0-5.12-2.31-5.12-5.61s2.07-5.75,5.04-5.75c3.19,0,5,2.35,4.94,5.84Zm-2.66-1.18c-.08-1.64-.93-2.56-2.27-2.56-1.24,0-2.17,.84-2.42,2.56h4.69Z"/><path class="cls-3" d="M963.21,77.81h2.54c.22,.97,.93,1.47,2.17,1.47s1.89-.5,1.89-1.24c0-.63-.35-1.07-1.28-1.24l-2.19-.44c-2.07-.42-2.94-1.45-2.94-3.11,0-1.81,1.46-3.38,4.24-3.38s4.25,1.41,4.59,3.59h-2.56c-.16-1.09-.87-1.64-2.05-1.64s-1.77,.57-1.77,1.26c0,.59,.3,.99,1.36,1.18l2.15,.4c2.23,.4,3.03,1.51,3.03,3.19,0,1.8-1.34,3.38-4.45,3.38s-4.35-1.39-4.73-3.42Z"/><path class="cls-3" d="M977.51,72.42v4.83c0,1.03,.47,1.53,1.34,1.53,.35,0,.59-.02,.83-.08v2.25c-.51,.15-.81,.17-1.44,.17-2.3,0-3.33-1.39-3.33-3.74v-4.96h-1.6v-2.29h1.6v-3.07h2.6v3.07h2.17v2.29h-2.17Z"/><path class="cls-3" d="M980.78,77.81h2.54c.22,.97,.93,1.47,2.17,1.47s1.89-.5,1.89-1.24c0-.63-.35-1.07-1.28-1.24l-2.19-.44c-2.07-.42-2.94-1.45-2.94-3.11,0-1.81,1.46-3.38,4.24-3.38s4.25,1.41,4.59,3.59h-2.56c-.16-1.09-.87-1.64-2.05-1.64s-1.77,.57-1.77,1.26c0,.59,.3,.99,1.36,1.18l2.15,.4c2.23,.4,3.03,1.51,3.03,3.19,0,1.8-1.34,3.38-4.45,3.38s-4.35-1.39-4.73-3.42Z"/><path class="cls-3" d="M994.75,79.45c0,.99-.75,1.78-1.67,1.78s-1.67-.8-1.67-1.78,.75-1.76,1.67-1.76,1.67,.8,1.67,1.76Z"/><path class="cls-3" d="M90.18,92.73l-5.36,14.26h-2.54l-5.22-14.26h2.76l3.8,11.09,3.78-11.09h2.78Z"/><path class="cls-3" d="M100.09,99.87v7.12h-2.34v-1.39c-.79,1.11-1.87,1.64-3.25,1.64-2.17,0-3.66-1.36-3.66-3.25s1.06-3.09,3.6-3.36l3.07-.34v-.59c0-1.22-.71-1.8-1.83-1.8-1.18,0-1.83,.5-2.03,1.57h-2.6c.28-2.35,1.91-3.59,4.59-3.59s4.45,1.24,4.45,3.99Zm-2.6,2.88v-.8l-2.44,.34c-1.08,.15-1.58,.76-1.58,1.58s.63,1.51,1.71,1.51c1.5,0,2.31-1.07,2.31-2.62Z"/><path class="cls-3" d="M107.93,96.11v2.44c-.16-.02-.33-.04-.59-.04-1.6,0-2.46,.99-2.46,2.71v5.77h-2.6v-10.85h2.34v1.87c.49-1.3,1.5-1.97,2.7-1.97,.22,0,.39,.02,.61,.08Z"/><path class="cls-3" d="M109.21,92.94c0-.9,.63-1.64,1.58-1.64s1.54,.74,1.54,1.64-.63,1.64-1.54,1.64-1.58-.76-1.58-1.64Zm.26,3.19h2.6v10.85h-2.6v-10.85Z"/><path class="cls-3" d="M123.15,99.87v7.12h-2.34v-1.39c-.79,1.11-1.87,1.64-3.25,1.64-2.17,0-3.66-1.36-3.66-3.25s1.06-3.09,3.6-3.36l3.07-.34v-.59c0-1.22-.71-1.8-1.83-1.8-1.18,0-1.83,.5-2.03,1.57h-2.6c.28-2.35,1.91-3.59,4.59-3.59s4.45,1.24,4.45,3.99Zm-2.6,2.88v-.8l-2.44,.34c-1.08,.15-1.58,.76-1.58,1.58s.63,1.51,1.71,1.51c1.5,0,2.31-1.07,2.31-2.62Z"/><path class="cls-3" d="M135.6,101.57c0,3.59-2.17,5.67-4.59,5.67-1.46,0-2.58-.69-3.29-1.89v1.64h-2.38v-15.12h2.58v5.63c.69-1.05,1.77-1.62,3.19-1.62,2.42,0,4.49,2.04,4.49,5.69Zm-2.62,0c0-2.1-1-3.46-2.54-3.46-1.46,0-2.52,1.39-2.52,3.46s1.04,3.44,2.52,3.44,2.54-1.34,2.54-3.44Z"/><path class="cls-3" d="M139.98,106.99h-2.6v-15.12h2.6v15.12Z"/><path class="cls-3" d="M151.72,101.71c0,.34-.02,.63-.02,.63h-7.37c.18,1.97,1.16,2.79,2.54,2.79,1.12,0,1.75-.52,2.05-1.32h2.58c-.45,1.93-2.07,3.42-4.65,3.42-3.25,0-5.12-2.31-5.12-5.61s2.07-5.75,5.04-5.75c3.19,0,5,2.35,4.94,5.84Zm-2.66-1.18c-.08-1.64-.93-2.56-2.27-2.56-1.24,0-2.17,.84-2.42,2.56h4.69Z"/><path class="cls-3" d="M161.35,95.48v.65h2.42v2.29h-2.42v8.57h-2.6v-8.57h-1.6v-2.29h1.6v-.63c0-2.52,1.46-3.84,3.6-3.84,.59,0,1.1,.08,1.52,.23v2.12c-.3-.08-.61-.13-.93-.13-1.04,0-1.6,.52-1.6,1.6Z"/><path class="cls-3" d="M164.6,101.57c0-3.49,2.25-5.69,5.18-5.69s5.16,2.2,5.16,5.69-2.25,5.67-5.16,5.67-5.18-2.18-5.18-5.67Zm7.68,0c0-2.12-.95-3.44-2.52-3.44s-2.52,1.34-2.52,3.44,.95,3.42,2.52,3.42,2.52-1.32,2.52-3.42Z"/><path class="cls-3" d="M185.97,100.14v6.84h-2.6v-6.21c0-1.78-.79-2.58-1.99-2.58s-2.11,.88-2.11,2.58v6.21h-2.6v-10.85h2.34v1.53c.67-1.2,1.75-1.78,3.21-1.78,2.13,0,3.74,1.34,3.74,4.26Z"/><path class="cls-3" d="M191.55,98.42v4.83c0,1.03,.47,1.53,1.34,1.53,.35,0,.59-.02,.83-.08v2.25c-.51,.15-.81,.17-1.44,.17-2.3,0-3.33-1.39-3.33-3.74v-4.96h-1.6v-2.29h1.6v-3.07h2.6v3.07h2.17v2.29h-2.17Z"/><path class="cls-3" d="M196.87,109.78h-1.75c.55-1.11,.85-1.85,1.08-2.67l-.18-.11c-.61-.29-.93-.82-.93-1.55,0-.97,.73-1.76,1.67-1.76s1.67,.76,1.67,1.8-.3,2.08-1.58,4.28Z"/><path class="cls-3" d="M208.27,98.42v4.83c0,1.03,.47,1.53,1.34,1.53,.35,0,.59-.02,.83-.08v2.25c-.51,.15-.81,.17-1.44,.17-2.3,0-3.33-1.39-3.33-3.74v-4.96h-1.6v-2.29h1.6v-3.07h2.6v3.07h2.17v2.29h-2.17Z"/><path class="cls-3" d="M211.58,101.57c0-3.49,2.25-5.69,5.18-5.69s5.16,2.2,5.16,5.69-2.25,5.67-5.16,5.67-5.18-2.18-5.18-5.67Zm7.68,0c0-2.12-.95-3.44-2.52-3.44s-2.52,1.34-2.52,3.44,.95,3.42,2.52,3.42,2.52-1.32,2.52-3.42Z"/><path class="cls-3" d="M238.39,101.57c0,3.59-2.17,5.67-4.59,5.67-1.46,0-2.58-.69-3.29-1.89v1.64h-2.38v-15.12h2.58v5.63c.69-1.05,1.77-1.62,3.19-1.62,2.42,0,4.49,2.04,4.49,5.69Zm-2.62,0c0-2.1-1-3.46-2.54-3.46-1.46,0-2.52,1.39-2.52,3.46s1.04,3.44,2.52,3.44,2.54-1.34,2.54-3.44Z"/><path class="cls-3" d="M249.58,101.71c0,.34-.02,.63-.02,.63h-7.37c.18,1.97,1.16,2.79,2.54,2.79,1.12,0,1.75-.52,2.05-1.32h2.58c-.45,1.93-2.07,3.42-4.65,3.42-3.25,0-5.12-2.31-5.12-5.61s2.07-5.75,5.04-5.75c3.19,0,5,2.35,4.94,5.84Zm-2.66-1.18c-.08-1.64-.93-2.56-2.27-2.56-1.24,0-2.17,.84-2.42,2.56h4.69Z"/><path class="cls-3" d="M261.46,96.11v2.44c-.16-.02-.33-.04-.59-.04-1.6,0-2.46,.99-2.46,2.71v5.77h-2.6v-10.85h2.34v1.87c.49-1.3,1.5-1.97,2.7-1.97,.22,0,.39,.02,.61,.08Z"/><path class="cls-3" d="M272.41,101.71c0,.34-.02,.63-.02,.63h-7.37c.18,1.97,1.16,2.79,2.54,2.79,1.12,0,1.75-.52,2.05-1.32h2.58c-.45,1.93-2.07,3.42-4.65,3.42-3.25,0-5.12-2.31-5.12-5.61s2.07-5.75,5.04-5.75c3.19,0,5,2.35,4.94,5.84Zm-2.66-1.18c-.08-1.64-.93-2.56-2.27-2.56-1.24,0-2.17,.84-2.42,2.56h4.69Z"/><path class="cls-3" d="M282.93,99.87v7.12h-2.34v-1.39c-.79,1.11-1.87,1.64-3.25,1.64-2.17,0-3.66-1.36-3.66-3.25s1.06-3.09,3.6-3.36l3.07-.34v-.59c0-1.22-.71-1.8-1.83-1.8-1.18,0-1.83,.5-2.03,1.57h-2.6c.28-2.35,1.91-3.59,4.59-3.59s4.45,1.24,4.45,3.99Zm-2.6,2.88v-.8l-2.44,.34c-1.08,.15-1.58,.76-1.58,1.58s.63,1.51,1.71,1.51c1.5,0,2.31-1.07,2.31-2.62Z"/><path class="cls-3" d="M287.74,106.99h-2.6v-15.12h2.6v15.12Z"/><path class="cls-3" d="M299.48,101.71c0,.34-.02,.63-.02,.63h-7.37c.18,1.97,1.16,2.79,2.54,2.79,1.12,0,1.75-.52,2.05-1.32h2.58c-.45,1.93-2.07,3.42-4.65,3.42-3.25,0-5.12-2.31-5.12-5.61s2.07-5.75,5.04-5.75c3.19,0,5,2.35,4.94,5.84Zm-2.66-1.18c-.08-1.64-.93-2.56-2.27-2.56-1.24,0-2.17,.84-2.42,2.56h4.69Z"/><path class="cls-3" d="M300.64,103.81h2.54c.22,.97,.93,1.47,2.17,1.47s1.89-.5,1.89-1.24c0-.63-.35-1.07-1.28-1.24l-2.19-.44c-2.07-.42-2.94-1.45-2.94-3.11,0-1.81,1.46-3.38,4.24-3.38s4.25,1.41,4.59,3.59h-2.56c-.16-1.09-.87-1.64-2.05-1.64s-1.77,.57-1.77,1.26c0,.59,.3,.99,1.36,1.18l2.15,.4c2.23,.4,3.03,1.51,3.03,3.19,0,1.8-1.34,3.38-4.45,3.38s-4.35-1.39-4.73-3.42Z"/><path class="cls-3" d="M320.99,101.71c0,.34-.02,.63-.02,.63h-7.37c.18,1.97,1.16,2.79,2.54,2.79,1.12,0,1.75-.52,2.05-1.32h2.58c-.45,1.93-2.07,3.42-4.65,3.42-3.25,0-5.12-2.31-5.12-5.61s2.07-5.75,5.04-5.75c3.19,0,5,2.35,4.94,5.84Zm-2.66-1.18c-.08-1.64-.93-2.56-2.27-2.56-1.24,0-2.17,.84-2.42,2.56h4.69Z"/><path class="cls-3" d="M332.49,91.87v15.12h-2.34v-1.83c-.65,1.37-1.79,2.08-3.35,2.08-2.42,0-4.59-2.08-4.59-5.67s2.07-5.69,4.49-5.69c1.42,0,2.5,.57,3.19,1.62v-5.63h2.6Zm-2.6,9.7c0-2.08-1.06-3.46-2.52-3.46-1.54,0-2.54,1.37-2.54,3.46s1.06,3.44,2.54,3.44,2.52-1.32,2.52-3.44Z"/><path class="cls-3" d="M342.64,95.48v.65h2.42v2.29h-2.42v8.57h-2.6v-8.57h-1.6v-2.29h1.6v-.63c0-2.52,1.46-3.84,3.6-3.84,.59,0,1.1,.08,1.52,.23v2.12c-.3-.08-.61-.13-.93-.13-1.04,0-1.6,.52-1.6,1.6Z"/><path class="cls-3" d="M355.21,99.87v7.12h-2.34v-1.39c-.79,1.11-1.87,1.64-3.25,1.64-2.17,0-3.66-1.36-3.66-3.25s1.06-3.09,3.6-3.36l3.07-.34v-.59c0-1.22-.71-1.8-1.83-1.8-1.18,0-1.83,.5-2.03,1.57h-2.6c.28-2.35,1.91-3.59,4.59-3.59s4.45,1.24,4.45,3.99Zm-2.6,2.88v-.8l-2.44,.34c-1.08,.15-1.58,.76-1.58,1.58s.63,1.51,1.71,1.51c1.5,0,2.31-1.07,2.31-2.62Z"/><path class="cls-3" d="M360.01,106.99h-2.6v-15.12h2.6v15.12Z"/><path class="cls-3" d="M364.94,106.99h-2.6v-15.12h2.6v15.12Z"/><path class="cls-3" d="M371.16,101.57c0-3.49,2.25-5.69,5.18-5.69s5.16,2.2,5.16,5.69-2.25,5.67-5.16,5.67-5.18-2.18-5.18-5.67Zm7.68,0c0-2.12-.95-3.44-2.52-3.44s-2.52,1.34-2.52,3.44,.95,3.42,2.52,3.42,2.52-1.32,2.52-3.42Z"/><path class="cls-3" d="M386.65,95.48v.65h2.42v2.29h-2.42v8.57h-2.6v-8.57h-1.6v-2.29h1.6v-.63c0-2.52,1.46-3.84,3.6-3.84,.59,0,1.1,.08,1.52,.23v2.12c-.3-.08-.61-.13-.93-.13-1.04,0-1.6,.52-1.6,1.6Z"/><path class="cls-3" d="M404.53,104.68v2.31h-10.05v-.78c0-2.35,1.06-3.97,3.03-5.19l2.7-1.68c1.1-.69,1.52-1.43,1.52-2.39,0-1.15-.69-2.16-2.09-2.16s-2.36,1.11-2.32,2.88h-2.66c-.12-2.83,1.75-5.19,4.98-5.19s4.83,2.08,4.83,4.49c0,1.55-.55,2.92-2.34,4.07l-3.17,2.02c-.65,.42-1.1,.88-1.32,1.62h6.9Z"/><path class="cls-3" d="M406.09,99.87c0-4.66,2.27-7.39,5.73-7.39s5.71,2.73,5.71,7.39-2.25,7.37-5.71,7.37-5.73-2.62-5.73-7.37Zm8.73,0c0-3.15-.87-5.04-2.99-5.04s-3.01,1.89-3.01,5.04,.93,5.06,3.01,5.06,2.99-1.91,2.99-5.06Z"/><path class="cls-3" d="M429.04,104.68v2.31h-10.05v-.78c0-2.35,1.06-3.97,3.03-5.19l2.7-1.68c1.1-.69,1.52-1.43,1.52-2.39,0-1.15-.69-2.16-2.09-2.16s-2.36,1.11-2.32,2.88h-2.66c-.12-2.83,1.75-5.19,4.98-5.19s4.83,2.08,4.83,4.49c0,1.55-.55,2.92-2.34,4.07l-3.17,2.02c-.65,.42-1.1,.88-1.32,1.62h6.9Z"/><path class="cls-3" d="M440.6,104.68v2.31h-10.05v-.78c0-2.35,1.06-3.97,3.03-5.19l2.7-1.68c1.1-.69,1.52-1.43,1.52-2.39,0-1.15-.69-2.16-2.09-2.16s-2.36,1.11-2.32,2.88h-2.66c-.12-2.83,1.75-5.19,4.98-5.19s4.83,2.08,4.83,4.49c0,1.55-.55,2.92-2.34,4.07l-3.17,2.02c-.65,.42-1.1,.88-1.32,1.62h6.9Z"/><path class="cls-3" d="M445.61,105.45c0,.99-.75,1.78-1.67,1.78s-1.67-.8-1.67-1.78,.75-1.76,1.67-1.76,1.67,.8,1.67,1.76Z"/></g></svg>