<svg xmlns="http://www.w3.org/2000/svg" viewBox="0 0 1366 768"><defs><style>.cls-1{fill:#00d800;}.cls-2{fill:#fdfaf5;}.cls-3{fill:#fff;}.cls-4{fill:#f2f2f2;}</style></defs><g id="Layer_1" data-name="Layer 1"><rect class="cls-1" width="1366" height="768"/><path class="cls-2" d="M216.46,172.6a4.92,4.92,0,1,1-4.93-4.93A4.92,4.92,0,0,1,216.46,172.6Zm-.82,0a4.09,4.09,0,1,0-8.18,0,4.09,4.09,0,0,0,8.18,0Zm-1,.05a3.08,3.08,0,0,1-6.16,0h.49a2.62,2.62,0,0,0,5.18,0Zm-4.8-1.69c0-.54.18-1,.52-1s.47.42.47,1-.15,1-.47,1S209.81,171.51,209.81,171Zm2.45,0c0-.54.16-1,.48-1s.52.42.52,1-.19,1-.52,1S212.26,171.51,212.26,171Z"/><path class="cls-2" d="M228.26,176.33v1h-5.77v-9.51h1.21v8.5Z"/><path class="cls-2" d="M231.22,177.34H230v-9.51h1.18Z"/><path class="cls-2" d="M242.12,172.41v4.93h-1.05V175.6a3.14,3.14,0,0,1-3.14,1.91c-2.68,0-4.47-2-4.47-4.92s1.78-4.93,4.44-4.93a3.74,3.74,0,0,1,4,2.73h-1.26a2.6,2.6,0,0,0-2.74-1.74c-1.91,0-3.24,1.5-3.24,3.94s1.3,3.92,3.28,3.92A2.87,2.87,0,0,0,241,173.4h-3.32v-1Z"/><path class="cls-2" d="M252.41,167.83v9.51h-1.18v-4.46h-5.44v4.46h-1.18v-9.51h1.18v4.06h5.44v-4.06Z"/><path class="cls-2" d="M261.73,168.81h-3.16v8.53H257.4v-8.53h-3.17v-1h7.5Z"/><path class="cls-2" d="M217.46,373.6a4.92,4.92,0,1,1-4.93-4.93A4.92,4.92,0,0,1,217.46,373.6Zm-.82,0a4.09,4.09,0,1,0-8.18,0,4.09,4.09,0,0,0,8.18,0Zm-1,0a3.08,3.08,0,0,1-6.16,0h.49a2.62,2.62,0,0,0,5.18,0Zm-4.8-1.69c0-.54.18-1,.52-1s.47.42.47,1-.15,1-.47,1S210.81,372.51,210.81,372Zm2.45,0c0-.54.16-1,.48-1s.52.42.52,1-.19,1-.52,1S213.26,372.51,213.26,372Z"/><path class="cls-2" d="M226.74,374.18h-2.06v4.16h-1.19v-9.51h3.91c2.17,0,3.17,1,3.17,2.62,0,1.43-.79,2.39-2.55,2.6l3.06,4.29h-1.33Zm-2.06-1h2.58c1.39,0,2.12-.63,2.12-1.73s-.76-1.63-2.15-1.63h-2.55Z"/><path class="cls-2" d="M234.13,369.83V373h4.81v1h-4.81v3.36h5.39v1H233v-9.51h6.57v1Z"/><path class="cls-2" d="M249.62,373.41v4.93h-1.05V376.6a3.14,3.14,0,0,1-3.14,1.91c-2.68,0-4.47-2-4.47-4.92s1.78-4.93,4.44-4.93a3.74,3.74,0,0,1,4,2.73h-1.26a2.6,2.6,0,0,0-2.74-1.74c-1.91,0-3.24,1.5-3.24,3.94s1.3,3.92,3.28,3.92a2.87,2.87,0,0,0,3.05-3.11h-3.32v-1Z"/><path class="cls-2" d="M259.78,374.64c0,2.58-1.53,3.87-3.92,3.87s-3.94-1.31-3.94-3.87v-5.81h1.18v5.81a2.75,2.75,0,1,0,5.5.06v-5.87h1.18Z"/><path class="cls-2" d="M268.25,377.33v1h-5.77v-9.51h1.21v8.5Z"/><path class="cls-2" d="M275.89,375.72h-4.18l-1,2.62h-1.26l3.75-9.51h1.28l3.63,9.51h-1.26Zm-.36-1-1.7-4.68-1.76,4.68Z"/><path class="cls-2" d="M283.12,374.18h-2.06v4.16h-1.19v-9.51h3.91c2.17,0,3.16,1,3.16,2.62,0,1.43-.78,2.39-2.54,2.6l3.06,4.29h-1.33Zm-2.06-1h2.58c1.39,0,2.11-.63,2.11-1.73s-.75-1.63-2.14-1.63h-2.55Z"/><path class="cls-2" d="M217.46,596.6a4.92,4.92,0,1,1-4.93-4.93A4.92,4.92,0,0,1,217.46,596.6Zm-.82,0a4.09,4.09,0,1,0-8.18,0,4.09,4.09,0,0,0,8.18,0Zm-1,0a3.08,3.08,0,0,1-6.16,0h.49a2.62,2.62,0,0,0,5.18,0Zm-4.8-1.69c0-.54.18-1,.52-1s.47.42.47,1-.15,1-.47,1S210.81,595.51,210.81,595Zm2.45,0c0-.54.16-1,.48-1s.52.42.52,1-.19,1-.52,1S213.26,595.51,213.26,595Z"/><path class="cls-2" d="M230.86,598.63c0,1.67-1,2.71-3.39,2.71h-4v-9.51h3.77c2.17,0,3.17.94,3.17,2.5a2.17,2.17,0,0,1-1.71,2.06A2.25,2.25,0,0,1,230.86,598.63Zm-6.19-5.81V596h2.48c1.31,0,2.09-.61,2.09-1.66s-.9-1.51-2.29-1.51Zm5,5.81c0-1.26-1-1.65-2.43-1.65h-2.58v3.36h2.56C228.7,600.34,229.68,600,229.68,598.63Z"/><path class="cls-2" d="M232.5,596.59c0-2.94,1.81-4.93,4.42-4.93s4.43,2,4.43,4.93-1.81,4.92-4.43,4.92S232.5,599.52,232.5,596.59Zm7.66,0c0-2.44-1.27-3.94-3.24-3.94s-3.23,1.5-3.23,3.94,1.27,3.92,3.23,3.92S240.16,599,240.16,596.59Z"/><path class="cls-2" d="M249.38,600.33v1h-5.77v-9.51h1.2v8.5Z"/><path class="cls-2" d="M258.83,596.59a4.42,4.42,0,0,1-4.62,4.75h-3.05v-9.51h3.05A4.43,4.43,0,0,1,258.83,596.59Zm-1.19,0c0-2.38-1.33-3.77-3.61-3.77h-1.7v7.52H254C256.28,600.34,257.64,599,257.64,596.59Z"/><path class="cls-2" d="M489.46,373.6a4.92,4.92,0,1,1-4.93-4.93A4.92,4.92,0,0,1,489.46,373.6Zm-.82,0a4.09,4.09,0,1,0-8.18,0,4.09,4.09,0,0,0,8.18,0Zm-1,0a3.08,3.08,0,0,1-6.16,0h.49a2.62,2.62,0,0,0,5.18,0Zm-4.8-1.69c0-.54.18-1,.52-1s.47.42.47,1-.15,1-.47,1S482.81,372.51,482.81,372Zm2.45,0c0-.54.16-1,.48-1s.52.42.52,1-.19,1-.52,1S485.26,372.51,485.26,372Z"/><path class="cls-2" d="M498.74,374.18h-2.06v4.16h-1.19v-9.51h3.91c2.17,0,3.17,1,3.17,2.62,0,1.43-.79,2.39-2.55,2.6l3.06,4.29h-1.33Zm-2.06-1h2.58c1.39,0,2.12-.63,2.12-1.73s-.76-1.63-2.15-1.63h-2.55Z"/><path class="cls-2" d="M506.13,369.83V373h4.81v1h-4.81v3.36h5.39v1H505v-9.51h6.57v1Z"/><path class="cls-2" d="M521.62,373.41v4.93h-1.05V376.6a3.14,3.14,0,0,1-3.14,1.91c-2.68,0-4.47-2-4.47-4.92s1.78-4.93,4.44-4.93a3.74,3.74,0,0,1,4,2.73h-1.26a2.6,2.6,0,0,0-2.74-1.74c-1.91,0-3.24,1.5-3.24,3.94s1.3,3.92,3.28,3.92a2.87,2.87,0,0,0,3.05-3.11h-3.32v-1Z"/><path class="cls-2" d="M531.78,374.64c0,2.58-1.53,3.87-3.92,3.87s-3.94-1.31-3.94-3.87v-5.81h1.18v5.81a2.75,2.75,0,1,0,5.5.06v-5.87h1.18Z"/><path class="cls-2" d="M540.25,377.33v1h-5.77v-9.51h1.21v8.5Z"/><path class="cls-2" d="M547.89,375.72h-4.18l-1,2.62h-1.26l3.75-9.51h1.28l3.63,9.51h-1.26Zm-.36-1-1.7-4.68-1.76,4.68Z"/><path class="cls-2" d="M555.12,374.18h-2.06v4.16h-1.19v-9.51h3.91c2.17,0,3.16,1,3.16,2.62,0,1.43-.78,2.39-2.54,2.6l3.06,4.29h-1.33Zm-2.06-1h2.58c1.39,0,2.11-.63,2.11-1.73s-.75-1.63-2.14-1.63h-2.55Z"/><path class="cls-2" d="M566.45,378.34h-1.18v-9.51h1.18Z"/><path class="cls-2" d="M575.74,369.81h-3.15v8.53h-1.18v-8.53h-3.16v-1h7.49Z"/><path class="cls-2" d="M581.83,375.72h-4.19l-1,2.62h-1.26l3.75-9.51h1.28l3.62,9.51h-1.26Zm-.36-1-1.7-4.68L578,374.72Z"/><path class="cls-2" d="M591.58,377.33v1h-5.77v-9.51H587v8.5Z"/><path class="cls-2" d="M594.53,378.34h-1.17v-9.51h1.17Z"/><path class="cls-2" d="M596.77,373.59c0-2.87,1.73-4.93,4.41-4.93a3.67,3.67,0,0,1,4.05,3.21H604a2.54,2.54,0,0,0-2.8-2.22c-1.8,0-3.22,1.54-3.22,3.94s1.42,3.92,3.22,3.92a2.55,2.55,0,0,0,2.81-2.2h1.25c-.42,2-1.6,3.2-4.06,3.2C598.52,378.51,596.77,376.46,596.77,373.59Z"/><path class="cls-2" d="M866.46,373.6a4.92,4.92,0,1,1-4.93-4.93A4.92,4.92,0,0,1,866.46,373.6Zm-.82,0a4.09,4.09,0,1,0-8.18,0,4.09,4.09,0,0,0,8.18,0Zm-1,0a3.08,3.08,0,0,1-6.16,0h.49a2.62,2.62,0,0,0,5.18,0Zm-4.8-1.69c0-.54.18-1,.52-1s.47.42.47,1-.15,1-.47,1S859.81,372.51,859.81,372Zm2.45,0c0-.54.16-1,.48-1s.52.42.52,1-.19,1-.52,1S862.26,372.51,862.26,372Z"/><path class="cls-2" d="M880.29,368.83v9.51h-1.17v-4.46h-5.45v4.46h-1.18v-9.51h1.18v4.06h5.45v-4.06Z"/><path class="cls-2" d="M890,368.83l-3.4,5.64v3.87H885.4v-3.87L882,368.83h1.29l2.69,4.55,2.68-4.55Z"/><path class="cls-2" d="M898.8,371.47c0,1.57-1.08,2.71-3.25,2.71h-2.64v4.16h-1.19v-9.51h3.93C897.82,368.83,898.8,369.83,898.8,371.47Zm-1.19,0c0-1.06-.66-1.65-2.16-1.65h-2.54v3.36h2.54C897,373.18,897.61,372.5,897.61,371.47Z"/><path class="cls-2" d="M901.85,369.83V373h4.8v1h-4.8v3.36h5.39v1h-6.57v-9.51h6.57v1Z"/><path class="cls-2" d="M912.55,374.18h-2.06v4.16H909.3v-9.51h3.91c2.17,0,3.16,1,3.16,2.62,0,1.43-.78,2.39-2.54,2.6l3.06,4.29h-1.33Zm-2.06-1h2.58c1.39,0,2.11-.63,2.11-1.73s-.75-1.63-2.14-1.63h-2.55Z"/><path class="cls-2" d="M923.88,378.34H922.7v-9.51h1.18Z"/><path class="cls-2" d="M933.17,369.81H930v8.53h-1.18v-8.53h-3.16v-1h7.49Z"/><path class="cls-2" d="M939.26,375.72h-4.19l-1,2.62h-1.26l3.75-9.51h1.28l3.62,9.51h-1.26Zm-.36-1L937.2,370l-1.76,4.68Z"/><path class="cls-2" d="M949,377.33v1h-5.77v-9.51h1.2v8.5Z"/><path class="cls-2" d="M952,378.34h-1.17v-9.51H952Z"/><path class="cls-2" d="M954.2,373.59c0-2.87,1.73-4.93,4.41-4.93a3.67,3.67,0,0,1,4,3.21h-1.25a2.54,2.54,0,0,0-2.8-2.22c-1.8,0-3.22,1.54-3.22,3.94s1.42,3.92,3.22,3.92a2.56,2.56,0,0,0,2.81-2.2h1.25c-.42,2-1.6,3.2-4.06,3.2C956,378.51,954.2,376.46,954.2,373.59Z"/><path class="cls-3" d="M345.53,144.17h-6.6c-5.82-11.26-8.53-20.57-8.92-33.38,12-10.48,38.81-25.61,56.66-25.61,27.56,0,41.91,19.79,41.91,45.79,0,17.08-1.55,53.56-1.55,70.25,0,18.63,4.66,26.39,25.62,26.39l.77,7.76-46.18,8.93-3.49-22.9c-10.48,12.42-24.84,24.84-43.08,24.84-24.84,0-39.59-16.3-39.59-37.65,0-19.79,12.42-34.93,35.32-40.75,15.13-3.88,29.11-5.82,47.35-8.54V132.53c0-19-14.36-27.56-29.5-27.56A56.39,56.39,0,0,0,356,108.46Zm58.22,24.06c-9.32,1.94-21.35,4.66-31.83,7.37-15.13,3.89-23.67,13.59-23.67,27.17,0,14.36,10.09,23.68,25.23,23.68a39.22,39.22,0,0,0,30.27-13.59Z"/><path class="cls-3" d="M356.4,456.2c-24.06,0-41.53-16.3-41.53-39.59,0-21.73,11.26-36.48,43.47-43.46,10.87-2.33,24.84-4.66,43.08-7.38V335.89c0-19-14.36-26.39-29.5-26.39-10.09,0-15.13,1.55-20.57,3.49l-10.09,34.54H331.17c-5.82-11.25-8.54-20.57-8.92-33.38,17.85-10.86,36.87-25.61,62.48-25.61,26,0,47.74,21,47.74,45.8,0,17.07-.78,51.61-.78,68.3,0,18.24,2.33,27.56,18.63,27.56a70.84,70.84,0,0,0,8.15-.78l1.16,12.81L408,452.32l-6.6-22.9C393.27,445.33,377.36,456.2,356.4,456.2Zm44.63-78c-11.26,1.94-21,4.27-31.44,7-14,3.49-23.67,12.8-23.67,25.22,0,14.75,8.93,22.9,23.67,22.9,11.65,0,26.39-6.6,31.05-17.08Z"/><path class="cls-3" d="M348.25,675.86c-22.51,0-40.75-15.91-40.75-41.53,0-39.19,52-48.12,82.27-52.39V559.43c0-15.13-8.15-24.45-21.34-24.45a34,34,0,0,0-14.36,3.49L343.2,575H328.84c-6.21-6.59-13.19-28.33-11.64-38,20.57-14.75,43.85-28.72,67.92-28.72,34.92,0,60.15,20.57,60.15,50.07,0,22.89-1.55,47.34-1.55,64,0,18.24,2.33,27.56,15.91,27.56a47.85,47.85,0,0,0,7-.78l1.16,16.69-69.86,10.09-6.21-23.29C382.4,665.38,368.43,675.86,348.25,675.86Zm41.52-76.07c-14.74,1.17-35.31,7-35.31,25.23,0,12.81,7.76,19,17.85,19,8.54,0,14.36-3.5,17.46-7Z"/><path class="cls-4" d="M761.32,425.73c8.54,0,16.3-8.54,21.74-16.3l5.82,3.1c-3.88,14.75-29.5,38.81-46.19,38.81-14,0-17.85-10.09-17.85-24.06,0-12,5.82-29.11,12-49.68h-1.94c-13.58,23.68-34.93,73-66.36,73-22.51,0-29.5-19-29.88-44.24-.78-51.62,30.27-116.43,83.82-116.43,14.75,0,28.72,3.88,37.26,8.15,0,0,10.09-8.15,15.14-8.15,3.1,0,7,2.72,7,5.82-15.52,32.6-26,93.15-26,120.7C755.89,421.07,756.67,425.73,761.32,425.73ZM714,305.42c-34.54,0-47,60.93-47.74,89.26-.39,14.75,3.49,33,14.36,33,21.34,0,62.09-83.83,63.26-109.06C739.2,312,724.84,305.42,714,305.42Z"/><path class="cls-4" d="M1108.64,425.62c8,0,19.7-13.2,30.6-28.72l5.87,1.94c-15.93,28.33-39.4,52.78-61.61,52.78-10.9,0-17.19-5.82-17.19-15.52,0-10.1,5.45-19,13.41-30.66L1101.1,374h-2.93c-17.19,23.67-55.33,76.84-87.18,76.84-15.09,0-23.06-8.92-23.06-22.51,0-53.55,75.45-138.16,133.29-138.16,15.51,0,29.76,3.88,37.3,8.15,7.55-4.27,14.67-8.15,19.28-8.15,2.94,0,6.71,2.72,5.45,5.82-27.66,30.27-80.47,104-80.47,124.19C1102.78,423.68,1104.87,425.62,1108.64,425.62Zm-.41-119.92c-38.56,0-86.77,73.35-86.77,107.11,0,8.15,4.61,11.25,10.48,11.25s14.67-4.65,23.06-12.41c23.89-22.13,59.09-64.82,81.73-97.8C1130,308.8,1119.12,305.7,1108.23,305.7Z"/></g></svg>