<?xml version="1.0" encoding="UTF-8"?><svg id="Layer_1" xmlns="http://www.w3.org/2000/svg" xmlns:xlink="http://www.w3.org/1999/xlink" viewBox="0 0 1366 768"><defs><style>.cls-1{clip-path:url(#clippath);}.cls-2{fill:#e6e6e6;}</style><clipPath id="clippath"><rect x="-51.48" y="-88" width="1466.48" height="940.05"/></clipPath></defs><g><rect x="-51.48" y="-88" width="1466.48" height="940.05"/><g class="cls-1"><rect x="-41.27" y="-79.94" width="1446.07" height="930.38"/></g></g><g><path class="cls-2" d="M143.11,360.83c0,18.26-13.53,30.61-33.82,30.61h-14.54v32.3h-16.74v-92.5h31.45c20.29,0,33.65,12.01,33.65,29.6Zm-18.43-.17c0-10.15-7.27-15.05-17.76-15.05h-12.18v31.29h12.18c11.33,0,17.76-5.41,17.76-16.23Z"/><path class="cls-2" d="M238.93,389.91c0,20.13-15.56,36.36-35.68,36.36s-35.51-16.23-35.51-36.36,15.39-36.36,35.51-36.36,35.68,16.23,35.68,36.36Zm-54.12,0c0,11.84,7.44,20.63,18.43,20.63s18.6-8.62,18.6-20.63-7.27-20.46-18.6-20.46-18.43,8.46-18.43,20.46Z"/><path class="cls-2" d="M292.62,426.28c-14.88,0-19.45-8.46-19.45-21.65v-90.3h17.08v87.26c0,7.95,1.18,9.81,9.47,9.81l-1.02,14.38c-1.18,.17-4.23,.51-6.09,.51Z"/><path class="cls-2" d="M392.95,372.67l-16.23,6.42s-3.72-9.64-15.39-9.64c-9.47,0-18.43,6.76-18.43,20.46s8.96,20.46,18.43,20.46c11.67,0,15.39-9.64,15.39-9.64l16.23,6.43s-7.1,19.11-31.12,19.11c-20.97,0-36.02-16.23-36.02-36.36s15.05-36.36,36.02-36.36c24.01,0,31.12,19.11,31.12,19.11Z"/><path class="cls-2" d="M465.67,423.74c-.84-2.71-1.69-5.75-2.37-8.79-4.57,7.1-10.99,11.5-22.32,11.5s-20.97-8.29-20.97-20.8c0-13.87,10.82-21.65,27.9-23.17,3.89-.34,9.81-.68,14.21-.85v-10.48h-35.68l.17-15.05h52.59v51.07c0,8.79,1.02,12.85,2.37,16.57h-15.9Zm-3.55-31.46c-3.55,0-7.61,.17-13.7,1.19-6.76,1.18-10.65,5.24-10.65,10.15,0,5.58,4.23,8.79,9.47,8.79,9.64,0,14.88-6.43,14.88-15.05v-5.07Z"/><path class="cls-2" d="M605.23,409.2v15.73h-67.65v-14.71l47.86-62.23h-46.51v-15.56h66.29v15.56l-48.2,61.22h48.2Z"/><path class="cls-2" d="M674.83,424.92c-.84-2.71-1.69-5.75-2.37-8.79-4.57,7.1-10.99,11.5-22.32,11.5s-20.97-8.29-20.97-20.8c0-13.87,10.82-21.65,27.9-23.17,3.89-.34,9.81-.68,14.21-.85v-10.48h-35.68l.17-15.05h52.59v51.07c0,8.79,1.02,12.85,2.37,16.57h-15.9Zm-3.55-31.46c-3.55,0-7.61,.17-13.7,1.19-6.77,1.18-10.65,5.24-10.65,10.15,0,5.58,4.23,8.79,9.47,8.79,9.64,0,14.88-6.43,14.88-15.05v-5.07Z"/><path class="cls-2" d="M795.23,390.93c0,19.96-12.68,36.53-31.96,36.53-8.96,0-15.73-3.38-20.8-8.46v34.67h-17.08v-96.4h16.23l.51,7.61c4.9-6.09,11.84-9.98,22.15-9.98,18.26,0,30.95,16.4,30.95,36.02Zm-17.08,.17c0-12.17-7.44-20.46-18.26-20.46s-17.08,7.95-17.42,20.46c.34,12.52,7.78,20.63,17.76,20.63,10.82,0,17.93-8.29,17.93-20.63Z"/><path class="cls-2" d="M866.62,424.92c-.84-2.71-1.69-5.75-2.37-8.79-4.57,7.1-10.99,11.5-22.32,11.5s-20.97-8.29-20.97-20.8c0-13.87,10.82-21.65,27.9-23.17,3.89-.34,9.81-.68,14.21-.85v-10.48h-35.68l.17-15.05h52.59v51.07c0,8.79,1.02,12.85,2.37,16.57h-15.9Zm-3.55-31.46c-3.55,0-7.61,.17-13.7,1.19-6.77,1.18-10.65,5.24-10.65,10.15,0,5.58,4.23,8.79,9.47,8.79,9.64,0,14.88-6.43,14.88-15.05v-5.07Z"/><path class="cls-2" d="M944.84,427.46c-13.7,0-19.11-8.46-19.11-20.97v-34.67h-14.2v-14.54h14.2v-16.91h16.74v16.91h16.23v14.54h-16.23v31.63c0,7.27,3.21,9.47,9.13,9.47,2.37,0,4.9-.17,7.1-.51l.51,13.53c-4.23,.85-9.81,1.52-14.38,1.52Z"/><path class="cls-2" d="M1052.28,394.65h-48.88c1.18,9.81,6.77,17.42,16.91,17.42,8.12,0,12.85-4.23,15.39-11.16l15.73,5.92c-5.75,13.19-16.74,20.63-31.79,20.63-22.15,0-33.15-17.93-33.15-37.21,0-18.09,12.18-35.34,33.48-35.34,19.62,0,32.81,15.56,32.81,33.82,0,1.69-.17,4.39-.51,5.92Zm-32.81-25.2c-8.12,.17-13.87,5.41-15.39,13.19h30.61c-.68-7.78-6.6-13.36-15.22-13.19Z"/><path class="cls-2" d="M1127.27,356.27l-1.35,17.59c-2.54-1.18-5.41-1.69-8.63-1.69-5.75,0-11.84,3.04-14.71,8.46v44.31h-16.74v-67.65h16.23l.34,6.42c4.06-5.07,9.13-8.79,15.39-8.79,3.89,0,6.43,.51,9.47,1.35Z"/><path class="cls-2" d="M1155.04,424.92v-67.65h17.08v67.65h-17.08Zm17.42-85.57h-17.25l11.16-25.03h20.29l-14.21,25.03Z"/><path class="cls-2" d="M1249.5,424.92c-.84-2.71-1.69-5.75-2.37-8.79-4.57,7.1-10.99,11.5-22.32,11.5s-20.97-8.29-20.97-20.8c0-13.87,10.82-21.65,27.9-23.17,3.89-.34,9.81-.68,14.21-.85v-10.48h-35.68l.17-15.05h52.59v51.07c0,8.79,1.02,12.85,2.37,16.57h-15.9Zm-3.55-31.46c-3.55,0-7.61,.17-13.7,1.19-6.77,1.18-10.65,5.24-10.65,10.15,0,5.58,4.23,8.79,9.47,8.79,9.64,0,14.88-6.43,14.88-15.05v-5.07Z"/></g></svg>