<?xml version="1.0" encoding="UTF-8"?>
<svg id="Layer_1" data-name="Layer 1" xmlns="http://www.w3.org/2000/svg" xmlns:xlink="http://www.w3.org/1999/xlink" viewBox="0 0 1366 768">
  <defs>
    <style>
      .cls-1 {
        clip-path: url(#clippath);
      }

      .cls-2, .cls-3 {
        fill: none;
      }

      .cls-2, .cls-4, .cls-5 {
        stroke-width: 0px;
      }

      .cls-3 {
        stroke: #fff;
      }

      .cls-4 {
        fill: #1d1d1b;
      }

      .cls-5 {
        fill: #ccbbe4;
      }
    </style>
    <clipPath id="clippath">
      <rect class="cls-2" x="-50.24" y="-84.43" width="1466.48" height="940.05"/>
    </clipPath>
  </defs>
  <rect class="cls-5" x="-40.03" y="-76.37" width="1446.07" height="930.38"/>
  <g class="cls-1">
    <rect class="cls-3" x="-40.03" y="-76.37" width="1446.07" height="930.38"/>
  </g>
  <g>
    <path class="cls-4" d="M104.07,174.76v-26.94h-46.28v26.94h-2.08v-48.05c0-14.98,10.19-26.1,25.27-26.1s25.17,11.13,25.17,26.1v48.05h-2.08ZM57.79,145.74h46.28v-19.03c0-13.94-9.15-24.02-23.09-24.02s-23.19,10.09-23.19,24.02v19.03Z"/>
    <path class="cls-4" d="M226.58,101.64v2.08h-33.28c-19.87,0-35.57,15.08-35.57,34.43s15.7,34.53,35.57,34.53h33.28v2.08h-33.28c-20.9,0-37.65-16.12-37.65-36.61s16.75-36.51,37.65-36.51h33.28Z"/>
    <path class="cls-4" d="M275.14,100.6c21.01,0,38.07,16.64,38.07,37.65s-17.06,37.65-38.07,37.65-38.07-16.54-38.07-37.65,16.95-37.65,38.07-37.65ZM275.14,173.82c19.97,0,35.99-15.5,35.99-35.57s-16.02-35.57-35.99-35.57-35.99,15.6-35.99,35.57,15.91,35.57,35.99,35.57Z"/>
    <path class="cls-4" d="M330.99,101.64l52.83,67.81v-67.81h2.08v73.84l-53.77-68.75v68.02h-2.08v-73.12h.94Z"/>
    <path class="cls-4" d="M515.59,101.64v2.08h-56.68v71.04h-2.08v-71.04h-56.58v-2.08h115.34Z"/>
    <path class="cls-4" d="M632.38,101.64v2.08h-100.36v33.8h100.36v2.08h-100.36v33.07h100.36v2.08h-102.44v-73.12h102.44Z"/>
    <path class="cls-4" d="M664.3,101.64l21.95,68.33,21.95-68.33h1.56l20.28,73.12h-2.18l-18.93-68.23-21.84,68.23h-1.66l-21.84-68.33-18.93,68.33h-2.18l20.28-73.12h1.56Z"/>
    <path class="cls-4" d="M756.97,101.64c14.77,0,26.83,11.65,26.83,26.42s-12.06,26.83-26.83,26.83h-10.19v19.87h-2.08v-73.12h12.27ZM746.77,152.81h10.19c13.73,0,24.75-11.02,24.75-24.75s-11.02-24.34-24.75-24.34h-10.19v49.09Z"/>
    <path class="cls-4" d="M893.52,101.64c21.11,0,38.07,15.6,38.07,36.61s-16.95,36.51-38.07,36.51h-61.99c-21.11,0-38.07-15.39-38.07-36.51s16.95-36.61,38.07-36.61h61.99ZM831.53,103.72c-20.07,0-35.99,14.56-35.99,34.53s15.91,34.43,35.99,34.43h61.99c20.07,0,35.99-14.35,35.99-34.43s-15.91-34.53-35.99-34.53h-61.99Z"/>
    <path class="cls-4" d="M1036.1,101.64c14.77,0,26.83,11.65,26.83,26.42,0,9.57-5.3,18.1-12.9,22.88l15.29,23.82h-2.5l-14.46-22.78c-3.64,1.87-7.9,2.91-12.27,2.91h-85.6v19.87h-2.08v-73.12h87.68ZM950.51,152.81h85.6c13.73,0,24.75-11.02,24.75-24.75s-11.02-24.34-24.75-24.34h-85.6v49.09Z"/>
    <path class="cls-4" d="M1103.49,101.64l31.2,73.12h-2.5l-5.3-12.69h-48.15c-1.77,4.37-3.54,8.42-5.3,12.69h-2.5l31.31-73.12h1.25ZM1079.57,159.99h46.49c-7.8-18.72-15.29-35.78-23.19-54.5l-23.3,54.5Z"/>
    <path class="cls-4" d="M1234.95,101.64c14.77,0,26.83,11.65,26.83,26.42,0,9.57-5.3,18.1-12.9,22.88l15.29,23.82h-2.5l-14.46-22.78c-3.64,1.87-7.9,2.91-12.27,2.91h-85.59v19.87h-2.08v-73.12h87.67ZM1149.35,152.81h85.59c13.73,0,24.75-11.02,24.75-24.75s-11.03-24.34-24.75-24.34h-85.59v49.09Z"/>
    <path class="cls-4" d="M1272.69,101.64l24.34,35.36,24.34-35.36h2.5l-25.79,37.54v35.57h-2.08v-35.57l-25.79-37.54h2.5Z"/>
    <path class="cls-4" d="M98.83,226.44v2.08h-21.32v71.03h-2.1v-71.03h-21.32v-2.08h44.75Z"/>
    <path class="cls-4" d="M105.76,226.44l24.58,35.36,24.58-35.36h2.52l-26.05,37.54v35.57h-2.1v-35.57l-26.05-37.54h2.52Z"/>
    <path class="cls-4" d="M259.02,226.44c14.92,0,27.1,11.65,27.1,26.42s-12.18,26.42-27.1,26.42h-86.45v20.28h-2.1v-73.11h88.55ZM172.57,277.2h86.45c13.87,0,25-10.61,25-24.34s-11.13-24.34-25-24.34h-86.45v48.67Z"/>
    <path class="cls-4" d="M340.21,225.19c29.41,0,45.06,15.7,45.06,37.86s-15.65,37.75-45.06,37.75-45.48-15.81-45.48-37.75,16.07-37.86,45.48-37.86ZM340.21,298.72c27.94,0,42.96-14.98,42.96-35.67s-15.02-35.78-42.96-35.78-43.38,13.73-43.38,35.67,15.44,35.78,43.38,35.78Z"/>
    <path class="cls-4" d="M439.58,262.64v36.92h-5.99c-21.32,0-38.45-15.6-38.45-36.5s17.12-36.61,38.45-36.61h4.73v2.08h-4.73c-20.27,0-36.34,14.56-36.34,34.53s16.07,34.42,36.34,34.42h3.89v-34.84h2.1Z"/>
    <path class="cls-4" d="M531.91,299.56l-16.07-26c-3.15,1.35-6.83,2.39-10.5,2.39h-47.16v23.61h-2.1v-73.11h49.26c13.87,0,25.21,10.82,25.21,24.54,0,8.94-5.25,17.16-12.92,21.63l16.7,26.94h-2.42ZM458.17,273.87h47.16c12.81,0,23.11-10.19,23.11-22.88s-10.29-22.46-23.11-22.46h-47.16v45.35Z"/>
    <path class="cls-4" d="M583.59,226.44l44.96,73.11h-2.31l-8.93-14.25h-69.85l-8.93,14.25h-2.42l45.38-73.11h2.1ZM548.5,283.23h67.75l-33.72-54.5-34.03,54.5Z"/>
    <path class="cls-4" d="M652.28,226.44c14.92,0,27.1,11.65,27.1,26.42s-12.18,26.83-27.1,26.83h-10.29v19.86h-2.1v-73.11h12.39ZM641.99,277.61h10.29c13.87,0,25-11.03,25-24.75s-11.13-24.34-25-24.34h-10.29v49.09Z"/>
    <path class="cls-4" d="M697.34,226.44v35.57h51.05v-35.57h2.1v73.11h-2.1v-35.47h-51.05v35.47h-2.1v-73.11h2.1Z"/>
    <path class="cls-4" d="M817.51,226.44v14.77c0,14.67-9.77,25.69-24.37,26.11v32.24h-2.1v-32.24c-14.81-.42-24.47-11.44-24.47-26.11v-14.77h2.1v14.77c0,13.94,9.24,24.03,23.42,24.03s23.32-10.09,23.32-24.03v-14.77h2.1Z"/>
    <path class="cls-4" d="M865.93,226.44h4.73v2.08h-4.73c-20.27,0-36.34,14.56-36.34,34.53s16.07,34.42,36.34,34.42h4.73v2.08h-4.73c-21.32,0-38.45-15.6-38.45-36.5s17.12-36.61,38.45-36.61Z"/>
    <path class="cls-4" d="M1024.96,226.44v2.08h-76.89c-25.21,0-33.93,6.14-33.93,16.54,0,8.22,6.72,13.62,25.63,14.56l62.08,3.12c18.8.94,26.26,6.66,26.26,17.06,0,11.65-9.35,19.76-36.03,19.76h-80.99v-2.08h80.99c25.21,0,33.93-7.7,33.93-17.68,0-8.63-6.09-14.04-25-14.98l-61.87-3.22c-18.8-.94-27.1-6.45-27.1-16.54,0-11.65,9.35-18.62,36.03-18.62h76.89Z"/>
    <path class="cls-4" d="M1036.72,226.44l24.58,35.36,24.58-35.36h2.52l-26.05,37.54v35.57h-2.1v-35.57l-26.05-37.54h2.52Z"/>
    <path class="cls-4" d="M1137.56,226.44v2.08h-21.32v71.03h-2.1v-71.03h-21.32v-2.08h44.75Z"/>
    <path class="cls-4" d="M1218.23,226.44v2.08h-66.18v33.49h64.08v2.08h-64.08v33.39h66.18v2.08h-68.28v-73.11h68.28Z"/>
    <path class="cls-4" d="M1249.01,226.44l22.16,68.33,22.16-68.33h1.58l20.48,73.11h-2.21l-19.12-68.23-22.06,68.23h-1.68l-22.06-68.33-19.12,68.33h-2.21l20.48-73.11h1.58Z"/>
    <path class="cls-4" d="M117.96,351.24v2.18h-37.65v70.93h-2.29v-70.93h-37.65v-2.18h77.59Z"/>
    <path class="cls-4" d="M131.89,351.24v35.47h74.05v-35.47h2.08v73.12h-2.08v-35.57h-74.05v35.57h-2.08v-73.12h2.08Z"/>
    <path class="cls-4" d="M252.01,351.24l31.2,73.12h-2.5l-5.3-12.69h-48.15c-1.77,4.37-3.54,8.42-5.3,12.69h-2.5l31.31-73.12h1.25ZM228.09,409.59h46.49c-7.8-18.72-15.29-35.78-23.19-54.5l-23.3,54.5Z"/>
    <path class="cls-4" d="M325.75,351.24v2.08h-21.11v71.04h-2.08v-71.04h-21.11v-2.08h44.31Z"/>
    <path class="cls-4" d="M475.4,351.24v2.08h-100.36v33.8h100.36v2.08h-100.36v33.07h100.36v2.08h-102.44v-73.12h102.44Z"/>
    <path class="cls-4" d="M490.06,351.24l37.96,34.95,38.27-34.95h1.77v1.04l-38.69,35.46,39.73,35.57v1.04h-1.77l-39.31-34.95-37.96,34.95h-1.77v-1.04l38.38-35.57-38.38-35.46v-1.04h1.77Z"/>
    <path class="cls-4" d="M632.75,351.24c13.73,0,24.96,10.82,24.96,24.54s-11.23,24.96-24.96,24.96h-46.7v23.61h-2.08v-73.12h48.78ZM586.05,398.67h46.7c12.69,0,22.88-10.19,22.88-22.88s-10.19-22.46-22.88-22.46h-46.7v45.35Z"/>
    <path class="cls-4" d="M677.78,351.24v71.04h59.49v2.08h-61.57v-73.12h2.08Z"/>
    <path class="cls-4" d="M782.71,350.2c21.01,0,38.07,16.64,38.07,37.65s-17.06,37.65-38.07,37.65-38.07-16.54-38.07-37.65,16.95-37.65,38.07-37.65ZM782.71,423.42c19.97,0,35.99-15.5,35.99-35.57s-16.02-35.57-35.99-35.57-35.99,15.6-35.99,35.57,15.91,35.57,35.99,35.57Z"/>
    <path class="cls-4" d="M849.9,351.24c14.77,0,26.83,11.65,26.83,26.42,0,9.05-4.68,17.16-11.54,22.05l14.35,24.65h-2.29l-13.73-23.61c-4.16,2.5-8.74,3.74-13.62,3.74h-10.19v19.87h-2.08v-73.12h12.27ZM839.7,402.41h10.19c13.73,0,24.75-11.02,24.75-24.75s-11.02-24.34-24.75-24.34h-10.19v49.09Z"/>
    <path class="cls-4" d="M997.89,351.24v2.08h-100.36v33.8h100.36v2.08h-100.36v33.07h100.36v2.08h-102.44v-73.12h102.44Z"/>
    <path class="cls-4" d="M1039.49,353.32h-8.63c-8.63,0-14.04,5.3-14.04,13s3.85,14.35,7.8,20.8c3.95,6.55,7.7,13,7.7,20.28,0,11.13-8.32,16.95-19.55,16.95h-7.07v-2.08h7.07c9.98,0,17.47-5.2,17.47-14.87,0-6.76-3.85-13.21-7.38-19.24-3.85-6.55-8.11-13.94-8.11-21.84,0-8.74,6.45-15.08,16.12-15.08h8.63v2.08Z"/>
    <path class="cls-4" d="M1104.13,353.32h-8.29c-8.29,0-13.48,5.3-13.48,13s3.69,14.35,7.49,20.8c3.79,6.55,7.39,13,7.39,20.28,0,11.13-7.99,16.95-18.77,16.95h-6.79v-2.08h6.79c9.58,0,16.77-5.2,16.77-14.87,0-6.76-3.69-13.21-7.09-19.24-3.69-6.55-7.79-13.94-7.79-21.84,0-8.74,6.19-15.08,15.48-15.08h8.29v2.08Z"/>
    <path class="cls-4" d="M1136.28,351.24l29.95,73.12h-2.4l-5.09-12.69h-46.22c-1.7,4.37-3.39,8.42-5.09,12.69h-2.4l30.05-73.12h1.2ZM1113.32,409.59h44.63c-7.49-18.72-14.68-35.78-22.26-54.5l-22.36,54.5Z"/>
    <path class="cls-4" d="M1179.21,351.24l50.72,67.81v-67.81h2v73.84l-51.62-68.75v68.02h-2v-73.12h.9Z"/>
    <path class="cls-4" d="M1253.69,414.37c5.79,5.51,17.17,9.57,34.64,9.57,19.27,0,32.15-7.18,32.15-17.68s-11.98-15.08-33.75-17.58c-23.16-2.5-35.44-7.18-35.44-19.45,0-11.54,13.88-19.76,34.14-19.76,27.46,0,36.14,9.88,36.14,9.88l-1.5,1.77c-5.79-5.51-17.17-9.57-34.64-9.57-19.27,0-32.15,7.18-32.15,17.68s11.88,14.87,33.65,17.37c23.16,2.5,35.54,7.38,35.54,19.66,0,11.54-13.88,19.76-34.14,19.76-27.46,0-36.14-9.88-36.14-9.88l1.5-1.77Z"/>
    <path class="cls-4" d="M97.88,512.23v36.92h-5.93c-21.11,0-38.07-15.6-38.07-36.51s16.95-36.61,38.07-36.61h4.68v2.08h-4.68c-20.07,0-35.99,14.56-35.99,34.53s15.91,34.43,35.99,34.43h3.85v-34.84h2.08Z"/>
    <path class="cls-4" d="M149.78,476.04v2.08h-31.62v33.49h29.54v2.08h-29.54v33.38h31.62v2.08h-33.7v-73.12h33.7Z"/>
    <path class="cls-4" d="M198.55,475c21.01,0,38.07,16.64,38.07,37.65s-17.06,37.65-38.07,37.65-38.07-16.54-38.07-37.65,16.95-37.65,38.07-37.65ZM198.55,548.22c19.97,0,35.99-15.5,35.99-35.57s-16.02-35.57-35.99-35.57-35.99,15.6-35.99,35.57,15.91,35.57,35.99,35.57Z"/>
    <path class="cls-4" d="M266.26,476.04l21.94,68.33,21.94-68.33h1.56l20.28,73.12h-2.18l-18.93-68.23-21.84,68.23h-1.66l-21.84-68.33-18.93,68.33h-2.18l20.28-73.12h1.56Z"/>
    <path class="cls-4" d="M380.34,476.04v2.08h-31.62v33.49h29.54v2.08h-29.54v33.38h31.62v2.08h-33.7v-73.12h33.7Z"/>
    <path class="cls-4" d="M433.59,476.04v2.08h-21.11v71.04h-2.08v-71.04h-21.11v-2.08h44.31Z"/>
    <path class="cls-4" d="M460.21,476.04c14.77,0,26.83,11.65,26.83,26.42,0,9.05-4.68,17.16-11.54,22.05l14.35,24.65h-2.29l-13.73-23.61c-4.16,2.5-8.74,3.74-13.62,3.74h-10.19v19.87h-2.08v-73.12h12.27ZM450.02,527.21h10.19c13.73,0,24.75-11.02,24.75-24.75s-11.02-24.34-24.75-24.34h-10.19v49.09Z"/>
    <path class="cls-4" d="M507.84,476.04v73.12h-2.08v-73.12h2.08Z"/>
    <path class="cls-4" d="M562.75,476.04h4.68v2.08h-4.68c-20.07,0-35.99,14.56-35.99,34.53s15.91,34.43,35.99,34.43h4.68v2.08h-4.68c-21.11,0-38.07-15.6-38.07-36.51s16.95-36.61,38.07-36.61Z"/>
    <path class="cls-4" d="M637.32,478.12h-8.63c-8.63,0-14.04,5.3-14.04,13s3.85,14.35,7.8,20.8c3.95,6.55,7.7,13,7.7,20.28,0,11.13-8.32,16.95-19.55,16.95h-7.07v-2.08h7.07c9.98,0,17.47-5.2,17.47-14.87,0-6.76-3.85-13.21-7.38-19.24-3.85-6.55-8.11-13.94-8.11-21.84,0-8.74,6.45-15.08,16.12-15.08h8.63v2.08Z"/>
    <path class="cls-4" d="M686.1,476.04v2.08h-21.11v71.04h-2.08v-71.04h-21.11v-2.08h44.31Z"/>
    <path class="cls-4" d="M692.96,476.04l24.34,35.36,24.34-35.36h2.5l-25.79,37.54v35.57h-2.08v-35.57l-25.79-37.54h2.5Z"/>
    <path class="cls-4" d="M759.1,476.04v71.04h29.02v2.08h-31.1v-73.12h2.08Z"/>
    <path class="cls-4" d="M836.79,476.04v2.08h-31.62v33.49h29.54v2.08h-29.54v33.38h31.62v2.08h-33.7v-73.12h33.7Z"/>
    <path class="cls-4" d="M895.96,501.63c-4.47-5.51-5.93-9.15-5.93-13.52,0-7.9,6.55-13.31,14.35-13.31,7.18,0,13.31,4.78,13.31,12.58,0,6.45-2.7,12.48-16.64,17.37,8.53,10.71,16.95,21.01,25.48,31.72,4.16-6.55,6.34-15.6,6.66-25.06h2.08c-.31,9.98-2.71,19.45-7.49,26.73l9.05,11.03h-2.6l-7.59-9.36c-4.99,6.76-12.27,10.61-22.26,10.61-16.12,0-25.58-8.74-25.58-21.95,0-9.88,4.99-19.03,19.03-24.54l-1.87-2.29ZM898.98,505.58c-13.73,5.2-18.1,13.52-18.1,22.88,0,12.69,9.46,19.87,23.5,19.87,9.26,0,16.22-3.64,20.91-10.09l-26.31-32.66ZM899.81,503.08c13.83-4.78,15.81-9.98,15.81-15.71,0-6.45-4.99-10.5-11.23-10.5-6.76,0-12.27,4.37-12.27,11.23,0,3.33.31,6.03,5.2,11.96l2.5,3.02Z"/>
    <path class="cls-4" d="M983.94,476.04v73.12h-2.08v-73.12h2.08Z"/>
    <path class="cls-4" d="M1042.6,476.04v2.08h-21.11v71.04h-2.08v-71.04h-21.11v-2.08h44.31Z"/>
    <path class="cls-4" d="M1073.28,476.04l31.2,73.12h-2.5l-5.3-12.69h-48.15c-1.77,4.37-3.54,8.43-5.3,12.69h-2.5l31.3-73.12h1.25ZM1049.36,534.39h46.49c-7.8-18.72-15.29-35.78-23.19-54.5l-23.3,54.5Z"/>
    <path class="cls-4" d="M1119.14,476.04v71.04h29.02v2.08h-31.1v-73.12h2.08Z"/>
    <path class="cls-4" d="M1165.21,476.04v73.12h-2.08v-73.12h2.08Z"/>
    <path class="cls-4" d="M1210.24,476.04l31.2,73.12h-2.5l-5.3-12.69h-48.15c-1.77,4.37-3.54,8.43-5.3,12.69h-2.5l31.31-73.12h1.25ZM1186.32,534.39h46.49c-7.8-18.72-15.29-35.78-23.19-54.5l-23.3,54.5Z"/>
    <path class="cls-4" d="M1254.96,476.04l52.83,67.81v-67.81h2.08v73.84l-53.77-68.75v68.02h-2.08v-73.12h.94Z"/>
    <path class="cls-4" d="M445.6,600.84l31.2,73.11h-2.5l-5.3-12.69h-48.15c-1.77,4.37-3.54,8.42-5.3,12.69h-2.5l31.31-73.11h1.25ZM421.67,659.19h46.49c-7.8-18.72-15.29-35.78-23.19-54.5l-23.3,54.5Z"/>
    <path class="cls-4" d="M501.65,600.84c14.77,0,26.83,11.65,26.83,26.42,0,9.05-4.68,17.16-11.54,22.05l14.35,24.65h-2.29l-13.73-23.61c-4.16,2.5-8.74,3.74-13.62,3.74h-10.19v19.86h-2.08v-73.11h12.27ZM491.46,652.01h10.19c13.73,0,24.75-11.03,24.75-24.75s-11.02-24.34-24.75-24.34h-10.19v49.09Z"/>
    <path class="cls-4" d="M580.27,600.84v2.08h-21.11v71.03h-2.08v-71.03h-21.11v-2.08h44.31Z"/>
    <path class="cls-4" d="M644.44,600.84c20.91,0,37.65,16.12,37.65,36.5s-16.75,36.61-37.65,36.61h-20.07v-73.11h20.07ZM626.45,671.88h17.99c19.87,0,35.57-15.08,35.57-34.53s-15.71-34.42-35.57-34.42h-17.99v68.95Z"/>
    <path class="cls-4" d="M801.38,600.84v2.08h-100.36v33.8h100.36v2.08h-100.36v33.07h100.36v2.08h-102.44v-73.11h102.44Z"/>
    <path class="cls-4" d="M851.71,600.84h4.68v2.08h-4.68c-20.07,0-35.99,14.56-35.99,34.53s15.91,34.42,35.99,34.42h4.68v2.08h-4.68c-21.11,0-38.07-15.6-38.07-36.5s16.95-36.61,38.07-36.61Z"/>
    <path class="cls-4" d="M901.63,599.8c21.01,0,38.07,16.64,38.07,37.65s-17.06,37.65-38.07,37.65-38.07-16.54-38.07-37.65,16.95-37.65,38.07-37.65ZM901.63,673.02c19.97,0,35.99-15.5,35.99-35.57s-16.02-35.57-35.99-35.57-35.99,15.6-35.99,35.57,15.91,35.57,35.99,35.57Z"/>
    <path class="cls-4" d="M952.28,672.92c0,1.25-1.04,2.29-2.29,2.29s-2.29-1.04-2.29-2.29,1.04-2.29,2.29-2.29,2.29,1.04,2.29,2.29Z"/>
  </g>
</svg>