<?xml version="1.0" encoding="UTF-8"?><svg id="Layer_1" xmlns="http://www.w3.org/2000/svg" viewBox="0 0 1366 768"><defs><style>.cls-1{fill:#f2f2f2;}.cls-2{fill:#8152db;}</style></defs><rect class="cls-2" x="-99" y="-37" width="1570" height="827"/><g><path class="cls-1" d="M83.29,54.99l-5.88-6.97v6.97h-2.9v-14.26h2.9v5.84l5.86-5.84h3.38l-6.4,6.47,6.49,7.79h-3.44Z"/><path class="cls-1" d="M96.94,44.13v10.85h-2.48v-1.64c-.73,1.24-1.91,1.89-3.38,1.89-2.44,0-3.84-1.41-3.84-3.99v-7.12h2.77v6.74c0,1.3,.67,2.06,1.89,2.06,1.36,0,2.27-.97,2.27-2.46v-6.34h2.77Z"/><path class="cls-1" d="M110.19,49.57c0,3.59-2.33,5.67-4.91,5.67-1.43,0-2.52-.57-3.28-1.58v5.27h-2.77v-14.8h2.5v1.76c.73-1.28,1.95-2.02,3.67-2.02,2.58,0,4.79,2.04,4.79,5.69Zm-2.81,0c0-2.08-1.07-3.46-2.71-3.46s-2.67,1.41-2.67,3.46,1.11,3.44,2.67,3.44,2.71-1.34,2.71-3.44Z"/><path class="cls-1" d="M122.89,49.57c0,3.59-2.33,5.67-4.91,5.67-1.43,0-2.52-.57-3.28-1.58v5.27h-2.77v-14.8h2.5v1.76c.73-1.28,1.95-2.02,3.67-2.02,2.58,0,4.79,2.04,4.79,5.69Zm-2.81,0c0-2.08-1.07-3.46-2.71-3.46s-2.67,1.41-2.67,3.46,1.11,3.44,2.67,3.44,2.71-1.34,2.71-3.44Z"/><path class="cls-1" d="M133.9,47.87v7.12h-2.5v-1.39c-.84,1.11-1.99,1.64-3.46,1.64-2.31,0-3.91-1.36-3.91-3.25s1.13-3.09,3.84-3.36l3.28-.34v-.59c0-1.22-.76-1.8-1.95-1.8-1.26,0-1.95,.5-2.16,1.57h-2.77c.29-2.35,2.04-3.59,4.89-3.59s4.75,1.24,4.75,3.99Zm-2.77,2.88v-.8l-2.6,.34c-1.15,.15-1.68,.76-1.68,1.58s.67,1.51,1.83,1.51c1.6,0,2.46-1.07,2.46-2.62Z"/><path class="cls-1" d="M140.62,40.94c0-.9,.67-1.64,1.68-1.64s1.64,.74,1.64,1.64-.67,1.64-1.64,1.64-1.68-.76-1.68-1.64Zm.27,3.19h2.77v10.85h-2.77v-10.85Z"/><path class="cls-1" d="M145.31,51.81h2.71c.23,.97,.99,1.47,2.31,1.47s2.02-.5,2.02-1.24c0-.63-.38-1.07-1.36-1.24l-2.33-.44c-2.2-.42-3.13-1.45-3.13-3.11,0-1.81,1.55-3.38,4.51-3.38s4.54,1.41,4.89,3.59h-2.73c-.17-1.09-.92-1.64-2.18-1.64s-1.89,.57-1.89,1.26c0,.59,.31,.99,1.45,1.18l2.29,.4c2.37,.4,3.23,1.51,3.23,3.19,0,1.8-1.43,3.38-4.75,3.38s-4.64-1.39-5.04-3.42Z"/><path class="cls-1" d="M170.93,47.87v7.12h-2.5v-1.39c-.84,1.11-1.99,1.64-3.46,1.64-2.31,0-3.91-1.36-3.91-3.25s1.13-3.09,3.84-3.36l3.28-.34v-.59c0-1.22-.76-1.8-1.95-1.8-1.26,0-1.95,.5-2.16,1.57h-2.77c.29-2.35,2.04-3.59,4.89-3.59s4.75,1.24,4.75,3.99Zm-2.77,2.88v-.8l-2.6,.34c-1.15,.15-1.68,.76-1.68,1.58s.67,1.51,1.83,1.51c1.6,0,2.46-1.07,2.46-2.62Z"/><path class="cls-1" d="M187.98,44.13l-3.93,10.85h-3.21l-4.03-10.85h2.88l2.79,8.12,2.65-8.12h2.86Z"/><path class="cls-1" d="M198.84,49.71c0,.34-.02,.63-.02,.63h-7.85c.19,1.97,1.24,2.79,2.71,2.79,1.2,0,1.87-.52,2.18-1.32h2.75c-.48,1.93-2.2,3.42-4.96,3.42-3.46,0-5.46-2.31-5.46-5.61s2.2-5.75,5.38-5.75c3.4,0,5.33,2.35,5.27,5.84Zm-2.83-1.18c-.08-1.64-.99-2.56-2.41-2.56-1.32,0-2.31,.84-2.58,2.56h5Z"/><path class="cls-1" d="M206.6,44.11v2.44c-.17-.02-.36-.04-.63-.04-1.7,0-2.62,.99-2.62,2.71v5.77h-2.77v-10.85h2.5v1.87c.52-1.3,1.6-1.97,2.88-1.97,.23,0,.42,.02,.65,.08Z"/><path class="cls-1" d="M207.48,51.81h2.71c.23,.97,.99,1.47,2.31,1.47s2.02-.5,2.02-1.24c0-.63-.38-1.07-1.36-1.24l-2.33-.44c-2.2-.42-3.13-1.45-3.13-3.11,0-1.81,1.55-3.38,4.51-3.38s4.54,1.41,4.89,3.59h-2.73c-.17-1.09-.92-1.64-2.18-1.64s-1.89,.57-1.89,1.26c0,.59,.31,.99,1.45,1.18l2.29,.4c2.37,.4,3.23,1.51,3.23,3.19,0,1.8-1.43,3.38-4.75,3.38s-4.64-1.39-5.04-3.42Z"/><path class="cls-1" d="M228.36,47.87v7.12h-2.5v-1.39c-.84,1.11-1.99,1.64-3.46,1.64-2.31,0-3.91-1.36-3.91-3.25s1.13-3.09,3.84-3.36l3.28-.34v-.59c0-1.22-.76-1.8-1.95-1.8-1.26,0-1.95,.5-2.16,1.57h-2.77c.29-2.35,2.04-3.59,4.89-3.59s4.75,1.24,4.75,3.99Zm-2.77,2.88v-.8l-2.6,.34c-1.15,.15-1.68,.76-1.68,1.58s.67,1.51,1.83,1.51c1.6,0,2.46-1.07,2.46-2.62Z"/><path class="cls-1" d="M234.01,46.42v4.83c0,1.03,.5,1.53,1.43,1.53,.38,0,.63-.02,.88-.08v2.25c-.55,.15-.86,.17-1.53,.17-2.46,0-3.55-1.39-3.55-3.74v-4.96h-1.7v-2.29h1.7v-3.07h2.77v3.07h2.31v2.29h-2.31Z"/><path class="cls-1" d="M237.65,40.94c0-.9,.67-1.64,1.68-1.64s1.64,.74,1.64,1.64-.67,1.64-1.64,1.64-1.68-.76-1.68-1.64Zm.27,3.19h2.77v10.85h-2.77v-10.85Z"/><path class="cls-1" d="M245.76,54.99h-2.77v-15.12h2.77v15.12Z"/><path class="cls-1" d="M258.14,49.71c0,.34-.02,.63-.02,.63h-7.85c.19,1.97,1.24,2.79,2.71,2.79,1.2,0,1.87-.52,2.18-1.32h2.75c-.48,1.93-2.2,3.42-4.96,3.42-3.46,0-5.46-2.31-5.46-5.61s2.2-5.75,5.38-5.75c3.4,0,5.33,2.35,5.27,5.84Zm-2.83-1.18c-.08-1.64-.99-2.56-2.41-2.56-1.32,0-2.31,.84-2.58,2.56h5Z"/><path class="cls-1" d="M268.26,46.42v4.83c0,1.03,.5,1.53,1.43,1.53,.38,0,.63-.02,.88-.08v2.25c-.55,.15-.86,.17-1.53,.17-2.46,0-3.55-1.39-3.55-3.74v-4.96h-1.7v-2.29h1.7v-3.07h2.77v3.07h2.31v2.29h-2.31Z"/><path class="cls-1" d="M282.64,44.13l-6.4,14.8h-2.94l2.29-4.91-4.16-9.89h2.94l2.65,7.12,2.81-7.12h2.81Z"/><path class="cls-1" d="M294.73,49.57c0,3.59-2.33,5.67-4.91,5.67-1.43,0-2.52-.57-3.28-1.58v5.27h-2.77v-14.8h2.5v1.76c.73-1.28,1.95-2.02,3.67-2.02,2.58,0,4.79,2.04,4.79,5.69Zm-2.81,0c0-2.08-1.07-3.46-2.71-3.46s-2.67,1.41-2.67,3.46,1.11,3.44,2.67,3.44,2.71-1.34,2.71-3.44Z"/><path class="cls-1" d="M306.53,49.71c0,.34-.02,.63-.02,.63h-7.85c.19,1.97,1.24,2.79,2.71,2.79,1.2,0,1.87-.52,2.18-1.32h2.75c-.48,1.93-2.2,3.42-4.96,3.42-3.46,0-5.46-2.31-5.46-5.61s2.2-5.75,5.38-5.75c3.4,0,5.33,2.35,5.27,5.84Zm-2.83-1.18c-.08-1.64-.99-2.56-2.41-2.56-1.32,0-2.31,.84-2.58,2.56h5Z"/><path class="cls-1" d="M311.74,43.48v.65h2.58v2.29h-2.58v8.57h-2.77v-8.57h-1.7v-2.29h1.7v-.63c0-2.52,1.55-3.84,3.84-3.84,.63,0,1.18,.08,1.62,.23v2.12c-.31-.08-.65-.13-.99-.13-1.11,0-1.7,.52-1.7,1.6Z"/><path class="cls-1" d="M324.97,47.87v7.12h-2.5v-1.39c-.84,1.11-1.99,1.64-3.46,1.64-2.31,0-3.91-1.36-3.91-3.25s1.13-3.09,3.84-3.36l3.28-.34v-.59c0-1.22-.76-1.8-1.95-1.8-1.26,0-1.95,.5-2.16,1.57h-2.77c.29-2.35,2.04-3.59,4.89-3.59s4.75,1.24,4.75,3.99Zm-2.77,2.88v-.8l-2.6,.34c-1.15,.15-1.68,.76-1.68,1.58s.67,1.51,1.83,1.51c1.6,0,2.46-1.07,2.46-2.62Z"/><path class="cls-1" d="M326.61,49.55c0-3.53,2.29-5.67,5.42-5.67s4.72,1.7,5.08,4.07h-2.81c-.25-1.22-.99-1.83-2.29-1.83-1.57,0-2.58,1.26-2.58,3.4s.97,3.46,2.6,3.46c1.32,0,1.99-.63,2.27-1.83h2.79c-.36,2.41-2.1,4.07-5.06,4.07-3.13,0-5.42-2.14-5.42-5.69Z"/><path class="cls-1" d="M348.88,49.71c0,.34-.02,.63-.02,.63h-7.85c.19,1.97,1.24,2.79,2.71,2.79,1.2,0,1.87-.52,2.18-1.32h2.75c-.48,1.93-2.2,3.42-4.96,3.42-3.46,0-5.46-2.31-5.46-5.61s2.2-5.75,5.38-5.75c3.4,0,5.33,2.35,5.27,5.84Zm-2.83-1.18c-.08-1.64-.99-2.56-2.41-2.56-1.32,0-2.31,.84-2.58,2.56h5Z"/><path class="cls-1" d="M365.78,39.87v15.12h-2.5v-1.83c-.69,1.37-1.91,2.08-3.57,2.08-2.58,0-4.89-2.08-4.89-5.67s2.2-5.69,4.79-5.69c1.51,0,2.67,.57,3.4,1.62v-5.63h2.77Zm-2.77,9.7c0-2.08-1.13-3.46-2.69-3.46-1.64,0-2.71,1.37-2.71,3.46s1.13,3.44,2.71,3.44,2.69-1.32,2.69-3.44Z"/><path class="cls-1" d="M378.14,49.71c0,.34-.02,.63-.02,.63h-7.85c.19,1.97,1.24,2.79,2.71,2.79,1.2,0,1.87-.52,2.18-1.32h2.75c-.48,1.93-2.2,3.42-4.96,3.42-3.46,0-5.46-2.31-5.46-5.61s2.2-5.75,5.38-5.75c3.4,0,5.33,2.35,5.27,5.84Zm-2.83-1.18c-.08-1.64-.99-2.56-2.41-2.56-1.32,0-2.31,.84-2.58,2.56h5Z"/><path class="cls-1" d="M379.21,51.81h2.71c.23,.97,.99,1.47,2.31,1.47s2.02-.5,2.02-1.24c0-.63-.38-1.07-1.36-1.24l-2.33-.44c-2.2-.42-3.13-1.45-3.13-3.11,0-1.81,1.55-3.38,4.51-3.38s4.54,1.41,4.89,3.59h-2.73c-.17-1.09-.92-1.64-2.18-1.64s-1.89,.57-1.89,1.26c0,.59,.31,.99,1.45,1.18l2.29,.4c2.37,.4,3.23,1.51,3.23,3.19,0,1.8-1.43,3.38-4.75,3.38s-4.64-1.39-5.04-3.42Z"/><path class="cls-1" d="M390.44,40.94c0-.9,.67-1.64,1.68-1.64s1.64,.74,1.64,1.64-.67,1.64-1.64,1.64-1.68-.76-1.68-1.64Zm.27,3.19h2.77v10.85h-2.77v-10.85Z"/><path class="cls-1" d="M406.1,44.13v10.31c0,2.6-1.53,4.75-5.38,4.75s-5.17-1.66-5.4-3.84h2.92c.1,1.11,.76,1.83,2.48,1.83s2.62-.9,2.62-2.62v-1.72c-.76,1.16-1.87,1.66-3.34,1.66-2.67,0-4.85-2.04-4.85-5.31s2.16-5.29,4.85-5.29c1.55,0,2.79,.65,3.55,1.85v-1.6h2.54Zm-2.75,5.04c0-1.87-1.18-3.09-2.71-3.09s-2.69,1.22-2.69,3.09,1.18,3.11,2.69,3.11,2.71-1.28,2.71-3.11Z"/><path class="cls-1" d="M418.3,48.14v6.84h-2.77v-6.21c0-1.78-.84-2.58-2.12-2.58s-2.25,.88-2.25,2.58v6.21h-2.77v-10.85h2.5v1.53c.71-1.2,1.87-1.78,3.42-1.78,2.27,0,3.99,1.34,3.99,4.26Z"/><path class="cls-1" d="M430.59,49.71c0,.34-.02,.63-.02,.63h-7.85c.19,1.97,1.24,2.79,2.71,2.79,1.2,0,1.87-.52,2.18-1.32h2.75c-.48,1.93-2.2,3.42-4.96,3.42-3.46,0-5.46-2.31-5.46-5.61s2.2-5.75,5.38-5.75c3.4,0,5.33,2.35,5.27,5.84Zm-2.83-1.18c-.08-1.64-.99-2.56-2.41-2.56-1.32,0-2.31,.84-2.58,2.56h5Z"/><path class="cls-1" d="M442.72,39.87v15.12h-2.5v-1.83c-.69,1.37-1.91,2.08-3.57,2.08-2.58,0-4.89-2.08-4.89-5.67s2.2-5.69,4.79-5.69c1.51,0,2.67,.57,3.4,1.62v-5.63h2.77Zm-2.77,9.7c0-2.08-1.13-3.46-2.69-3.46-1.64,0-2.71,1.37-2.71,3.46s1.13,3.44,2.71,3.44,2.69-1.32,2.69-3.44Z"/><path class="cls-1" d="M449.52,40.94c0-.9,.67-1.64,1.68-1.64s1.64,.74,1.64,1.64-.67,1.64-1.64,1.64-1.68-.76-1.68-1.64Zm.27,3.19h2.77v10.85h-2.77v-10.85Z"/><path class="cls-1" d="M464.77,48.14v6.84h-2.77v-6.21c0-1.78-.84-2.58-2.12-2.58s-2.25,.88-2.25,2.58v6.21h-2.77v-10.85h2.5v1.53c.71-1.2,1.87-1.78,3.42-1.78,2.27,0,3.99,1.34,3.99,4.26Z"/><path class="cls-1" d="M471.12,51.81h2.71c.23,.97,.99,1.47,2.31,1.47s2.02-.5,2.02-1.24c0-.63-.38-1.07-1.36-1.24l-2.33-.44c-2.2-.42-3.13-1.45-3.13-3.11,0-1.81,1.55-3.38,4.51-3.38s4.54,1.41,4.89,3.59h-2.73c-.17-1.09-.92-1.64-2.18-1.64s-1.89,.57-1.89,1.26c0,.59,.31,.99,1.45,1.18l2.29,.4c2.37,.4,3.23,1.51,3.23,3.19,0,1.8-1.43,3.38-4.75,3.38s-4.64-1.39-5.04-3.42Z"/><path class="cls-1" d="M492.64,49.71c0,.34-.02,.63-.02,.63h-7.85c.19,1.97,1.24,2.79,2.71,2.79,1.2,0,1.87-.52,2.18-1.32h2.75c-.48,1.93-2.2,3.42-4.96,3.42-3.46,0-5.46-2.31-5.46-5.61s2.2-5.75,5.38-5.75c3.4,0,5.33,2.35,5.27,5.84Zm-2.83-1.18c-.08-1.64-.99-2.56-2.41-2.56-1.32,0-2.31,.84-2.58,2.56h5Z"/><path class="cls-1" d="M504.05,44.13l-3.93,10.85h-3.21l-4.03-10.85h2.88l2.79,8.12,2.65-8.12h2.86Z"/><path class="cls-1" d="M514.91,49.71c0,.34-.02,.63-.02,.63h-7.85c.19,1.97,1.24,2.79,2.71,2.79,1.2,0,1.87-.52,2.18-1.32h2.75c-.48,1.93-2.2,3.42-4.96,3.42-3.46,0-5.46-2.31-5.46-5.61s2.2-5.75,5.38-5.75c3.4,0,5.33,2.35,5.27,5.84Zm-2.83-1.18c-.08-1.64-.99-2.56-2.41-2.56-1.32,0-2.31,.84-2.58,2.56h5Z"/><path class="cls-1" d="M526.55,48.14v6.84h-2.77v-6.21c0-1.78-.84-2.58-2.12-2.58s-2.25,.88-2.25,2.58v6.21h-2.77v-10.85h2.5v1.53c.71-1.2,1.87-1.78,3.42-1.78,2.27,0,3.99,1.34,3.99,4.26Z"/><path class="cls-1" d="M550.39,44.13l-3.34,10.85h-3.3l-2.29-7.6-2.2,7.6h-3.3l-3.32-10.85h2.88l2.2,8.1,2.29-8.1h3.09l2.31,8.1,2.14-8.1h2.83Z"/><path class="cls-1" d="M561.47,49.71c0,.34-.02,.63-.02,.63h-7.85c.19,1.97,1.24,2.79,2.71,2.79,1.2,0,1.87-.52,2.18-1.32h2.75c-.48,1.93-2.2,3.42-4.96,3.42-3.46,0-5.46-2.31-5.46-5.61s2.2-5.75,5.38-5.75c3.4,0,5.33,2.35,5.27,5.84Zm-2.83-1.18c-.08-1.64-.99-2.56-2.41-2.56-1.32,0-2.31,.84-2.58,2.56h5Z"/><path class="cls-1" d="M562.92,40.94c0-.9,.67-1.64,1.68-1.64s1.64,.74,1.64,1.64-.67,1.64-1.64,1.64-1.68-.76-1.68-1.64Zm.27,3.19h2.77v10.85h-2.77v-10.85Z"/><path class="cls-1" d="M578.58,44.13v10.31c0,2.6-1.53,4.75-5.38,4.75s-5.17-1.66-5.4-3.84h2.92c.1,1.11,.76,1.83,2.48,1.83s2.62-.9,2.62-2.62v-1.72c-.76,1.16-1.87,1.66-3.34,1.66-2.67,0-4.85-2.04-4.85-5.31s2.16-5.29,4.85-5.29c1.55,0,2.79,.65,3.55,1.85v-1.6h2.54Zm-2.75,5.04c0-1.87-1.18-3.09-2.71-3.09s-2.69,1.22-2.69,3.09,1.18,3.11,2.69,3.11,2.71-1.28,2.71-3.11Z"/><path class="cls-1" d="M590.78,48.16v6.82h-2.77v-6.28c0-1.68-.92-2.5-2.14-2.5s-2.23,.88-2.23,2.54v6.24h-2.77v-15.12h2.77v5.71c.63-1.09,1.68-1.7,3.09-1.7,2.31,0,4.05,1.47,4.05,4.28Z"/><path class="cls-1" d="M596.41,46.42v4.83c0,1.03,.5,1.53,1.43,1.53,.38,0,.63-.02,.88-.08v2.25c-.55,.15-.86,.17-1.53,.17-2.46,0-3.55-1.39-3.55-3.74v-4.96h-1.7v-2.29h1.7v-3.07h2.77v3.07h2.31v2.29h-2.31Z"/><path class="cls-1" d="M599.73,51.81h2.71c.23,.97,.99,1.47,2.31,1.47s2.02-.5,2.02-1.24c0-.63-.38-1.07-1.36-1.24l-2.33-.44c-2.2-.42-3.13-1.45-3.13-3.11,0-1.81,1.55-3.38,4.51-3.38s4.54,1.41,4.89,3.59h-2.73c-.17-1.09-.92-1.64-2.18-1.64s-1.89,.57-1.89,1.26c0,.59,.31,.99,1.45,1.18l2.29,.4c2.37,.4,3.23,1.51,3.23,3.19,0,1.8-1.43,3.38-4.75,3.38s-4.64-1.39-5.04-3.42Z"/><path class="cls-1" d="M619.63,43.48v.65h2.58v2.29h-2.58v8.57h-2.77v-8.57h-1.7v-2.29h1.7v-.63c0-2.52,1.55-3.84,3.84-3.84,.63,0,1.18,.08,1.62,.23v2.12c-.31-.08-.65-.13-.99-.13-1.11,0-1.7,.52-1.7,1.6Z"/><path class="cls-1" d="M622.82,49.57c0-3.49,2.39-5.69,5.52-5.69s5.5,2.2,5.5,5.69-2.39,5.67-5.5,5.67-5.52-2.18-5.52-5.67Zm8.19,0c0-2.12-1.01-3.44-2.69-3.44s-2.69,1.34-2.69,3.44,1.01,3.42,2.69,3.42,2.69-1.32,2.69-3.42Z"/><path class="cls-1" d="M641.6,44.11v2.44c-.17-.02-.36-.04-.63-.04-1.7,0-2.62,.99-2.62,2.71v5.77h-2.77v-10.85h2.5v1.87c.52-1.3,1.6-1.97,2.88-1.97,.23,0,.42,.02,.65,.08Z"/><path class="cls-1" d="M653.88,44.11v2.44c-.17-.02-.36-.04-.63-.04-1.7,0-2.62,.99-2.62,2.71v5.77h-2.77v-10.85h2.5v1.87c.52-1.3,1.6-1.97,2.88-1.97,.23,0,.42,.02,.65,.08Z"/><path class="cls-1" d="M654.62,49.57c0-3.49,2.39-5.69,5.52-5.69s5.5,2.2,5.5,5.69-2.39,5.67-5.5,5.67-5.52-2.18-5.52-5.67Zm8.19,0c0-2.12-1.01-3.44-2.69-3.44s-2.69,1.34-2.69,3.44,1.01,3.42,2.69,3.42,2.69-1.32,2.69-3.42Z"/><path class="cls-1" d="M683.98,48.18v6.8h-2.77v-6.24c0-1.7-.84-2.48-2.02-2.48s-2.14,.8-2.14,2.35v6.36h-2.77v-6.24c0-1.7-.84-2.48-2.02-2.48s-2.12,.78-2.12,2.35v6.36h-2.77v-10.85h2.5v1.51c.69-1.18,1.87-1.76,3.32-1.76,1.55,0,2.75,.71,3.38,1.99,.73-1.32,1.97-1.99,3.51-1.99,2.37,0,3.91,1.6,3.91,4.3Z"/><path class="cls-1" d="M695.55,47.87v7.12h-2.5v-1.39c-.84,1.11-1.99,1.64-3.46,1.64-2.31,0-3.91-1.36-3.91-3.25s1.13-3.09,3.84-3.36l3.28-.34v-.59c0-1.22-.76-1.8-1.95-1.8-1.26,0-1.95,.5-2.16,1.57h-2.77c.29-2.35,2.04-3.59,4.89-3.59s4.75,1.24,4.75,3.99Zm-2.77,2.88v-.8l-2.6,.34c-1.15,.15-1.68,.76-1.68,1.58s.67,1.51,1.83,1.51c1.6,0,2.46-1.07,2.46-2.62Z"/><path class="cls-1" d="M707.68,48.14v6.84h-2.77v-6.21c0-1.78-.84-2.58-2.12-2.58s-2.25,.88-2.25,2.58v6.21h-2.77v-10.85h2.5v1.53c.71-1.2,1.87-1.78,3.42-1.78,2.27,0,3.99,1.34,3.99,4.26Z"/><path class="cls-1" d="M713.28,53.45c0,.99-.8,1.78-1.78,1.78s-1.78-.8-1.78-1.78,.8-1.76,1.78-1.76,1.78,.8,1.78,1.76Z"/><path class="cls-1" d="M729.12,54.99l-5.88-6.97v6.97h-2.9v-14.26h2.9v5.84l5.86-5.84h3.38l-6.4,6.47,6.49,7.79h-3.44Z"/><path class="cls-1" d="M742.77,44.13v10.85h-2.48v-1.64c-.73,1.24-1.91,1.89-3.38,1.89-2.44,0-3.84-1.41-3.84-3.99v-7.12h2.77v6.74c0,1.3,.67,2.06,1.89,2.06,1.36,0,2.27-.97,2.27-2.46v-6.34h2.77Z"/><path class="cls-1" d="M756.02,49.57c0,3.59-2.33,5.67-4.91,5.67-1.43,0-2.52-.57-3.28-1.58v5.27h-2.77v-14.8h2.5v1.76c.73-1.28,1.95-2.02,3.67-2.02,2.58,0,4.79,2.04,4.79,5.69Zm-2.81,0c0-2.08-1.07-3.46-2.71-3.46s-2.67,1.41-2.67,3.46,1.11,3.44,2.67,3.44,2.71-1.34,2.71-3.44Z"/><path class="cls-1" d="M768.72,49.57c0,3.59-2.33,5.67-4.91,5.67-1.43,0-2.52-.57-3.28-1.58v5.27h-2.77v-14.8h2.5v1.76c.73-1.28,1.95-2.02,3.67-2.02,2.58,0,4.79,2.04,4.79,5.69Zm-2.81,0c0-2.08-1.07-3.46-2.71-3.46s-2.67,1.41-2.67,3.46,1.11,3.44,2.67,3.44,2.71-1.34,2.71-3.44Z"/><path class="cls-1" d="M779.73,47.87v7.12h-2.5v-1.39c-.84,1.11-1.99,1.64-3.46,1.64-2.31,0-3.91-1.36-3.91-3.25s1.13-3.09,3.84-3.36l3.28-.34v-.59c0-1.22-.76-1.8-1.95-1.8-1.26,0-1.95,.5-2.16,1.57h-2.77c.29-2.35,2.04-3.59,4.89-3.59s4.75,1.24,4.75,3.99Zm-2.77,2.88v-.8l-2.6,.34c-1.15,.15-1.68,.76-1.68,1.58s.67,1.51,1.83,1.51c1.6,0,2.46-1.07,2.46-2.62Z"/><path class="cls-1" d="M783.93,46.44h-2.12l-.36-5.71h2.81l-.34,5.71Z"/><path class="cls-1" d="M785.64,51.81h2.71c.23,.97,.99,1.47,2.31,1.47s2.02-.5,2.02-1.24c0-.63-.38-1.07-1.36-1.24l-2.33-.44c-2.2-.42-3.13-1.45-3.13-3.11,0-1.81,1.55-3.38,4.51-3.38s4.54,1.41,4.89,3.59h-2.73c-.17-1.09-.92-1.64-2.18-1.64s-1.89,.57-1.89,1.26c0,.59,.31,.99,1.45,1.18l2.29,.4c2.37,.4,3.23,1.51,3.23,3.19,0,1.8-1.43,3.38-4.75,3.38s-4.64-1.39-5.04-3.42Z"/><path class="cls-1" d="M812.87,49.57c0,3.59-2.33,5.67-4.91,5.67-1.43,0-2.52-.57-3.28-1.58v5.27h-2.77v-14.8h2.5v1.76c.73-1.28,1.95-2.02,3.67-2.02,2.58,0,4.79,2.04,4.79,5.69Zm-2.81,0c0-2.08-1.07-3.46-2.71-3.46s-2.67,1.41-2.67,3.46,1.11,3.44,2.67,3.44,2.71-1.34,2.71-3.44Z"/><path class="cls-1" d="M820.64,44.11v2.44c-.17-.02-.36-.04-.63-.04-1.7,0-2.62,.99-2.62,2.71v5.77h-2.77v-10.85h2.5v1.87c.52-1.3,1.6-1.97,2.88-1.97,.23,0,.42,.02,.65,.08Z"/><path class="cls-1" d="M821.69,40.94c0-.9,.67-1.64,1.68-1.64s1.64,.74,1.64,1.64-.67,1.64-1.64,1.64-1.68-.76-1.68-1.64Zm.27,3.19h2.77v10.85h-2.77v-10.85Z"/><path class="cls-1" d="M843.64,48.18v6.8h-2.77v-6.24c0-1.7-.84-2.48-2.02-2.48s-2.14,.8-2.14,2.35v6.36h-2.77v-6.24c0-1.7-.84-2.48-2.02-2.48s-2.12,.78-2.12,2.35v6.36h-2.77v-10.85h2.5v1.51c.69-1.18,1.87-1.76,3.32-1.76,1.55,0,2.75,.71,3.38,1.99,.73-1.32,1.97-1.99,3.51-1.99,2.37,0,3.91,1.6,3.91,4.3Z"/><path class="cls-1" d="M855.21,47.87v7.12h-2.5v-1.39c-.84,1.11-1.99,1.64-3.46,1.64-2.31,0-3.91-1.36-3.91-3.25s1.13-3.09,3.84-3.36l3.28-.34v-.59c0-1.22-.76-1.8-1.95-1.8-1.26,0-1.95,.5-2.16,1.57h-2.77c.29-2.35,2.04-3.59,4.89-3.59s4.75,1.24,4.75,3.99Zm-2.77,2.88v-.8l-2.6,.34c-1.15,.15-1.68,.76-1.68,1.58s.67,1.51,1.83,1.51c1.6,0,2.46-1.07,2.46-2.62Z"/><path class="cls-1" d="M863.46,44.11v2.44c-.17-.02-.36-.04-.63-.04-1.7,0-2.62,.99-2.62,2.71v5.77h-2.77v-10.85h2.5v1.87c.52-1.3,1.6-1.97,2.88-1.97,.23,0,.42,.02,.65,.08Z"/><path class="cls-1" d="M875.43,44.13l-6.4,14.8h-2.94l2.29-4.91-4.16-9.89h2.94l2.65,7.12,2.81-7.12h2.81Z"/><path class="cls-1" d="M892.25,49.57c0,3.59-2.33,5.67-4.91,5.67-1.43,0-2.52-.57-3.28-1.58v5.27h-2.77v-14.8h2.5v1.76c.73-1.28,1.95-2.02,3.67-2.02,2.58,0,4.79,2.04,4.79,5.69Zm-2.81,0c0-2.08-1.07-3.46-2.71-3.46s-2.67,1.41-2.67,3.46,1.11,3.44,2.67,3.44,2.71-1.34,2.71-3.44Z"/><path class="cls-1" d="M903.61,44.13v10.85h-2.48v-1.64c-.73,1.24-1.91,1.89-3.38,1.89-2.44,0-3.84-1.41-3.84-3.99v-7.12h2.77v6.74c0,1.3,.67,2.06,1.89,2.06,1.36,0,2.27-.97,2.27-2.46v-6.34h2.77Z"/><path class="cls-1" d="M911.92,44.11v2.44c-.17-.02-.36-.04-.63-.04-1.7,0-2.62,.99-2.62,2.71v5.77h-2.77v-10.85h2.5v1.87c.52-1.3,1.6-1.97,2.88-1.97,.23,0,.42,.02,.65,.08Z"/><path class="cls-1" d="M924.19,49.57c0,3.59-2.33,5.67-4.91,5.67-1.43,0-2.52-.57-3.28-1.58v5.27h-2.77v-14.8h2.5v1.76c.73-1.28,1.95-2.02,3.67-2.02,2.58,0,4.79,2.04,4.79,5.69Zm-2.81,0c0-2.08-1.07-3.46-2.71-3.46s-2.67,1.41-2.67,3.46,1.11,3.44,2.67,3.44,2.71-1.34,2.71-3.44Z"/><path class="cls-1" d="M925.35,49.57c0-3.49,2.39-5.69,5.52-5.69s5.5,2.2,5.5,5.69-2.39,5.67-5.5,5.67-5.52-2.18-5.52-5.67Zm8.19,0c0-2.12-1.01-3.44-2.69-3.44s-2.69,1.34-2.69,3.44,1.01,3.42,2.69,3.42,2.69-1.32,2.69-3.42Z"/><path class="cls-1" d="M937.4,51.81h2.71c.23,.97,.99,1.47,2.31,1.47s2.02-.5,2.02-1.24c0-.63-.38-1.07-1.36-1.24l-2.33-.44c-2.2-.42-3.13-1.45-3.13-3.11,0-1.81,1.55-3.38,4.51-3.38s4.54,1.41,4.89,3.59h-2.73c-.17-1.09-.92-1.64-2.18-1.64s-1.89,.57-1.89,1.26c0,.59,.31,.99,1.45,1.18l2.29,.4c2.37,.4,3.23,1.51,3.23,3.19,0,1.8-1.43,3.38-4.75,3.38s-4.64-1.39-5.04-3.42Z"/><path class="cls-1" d="M958.92,49.71c0,.34-.02,.63-.02,.63h-7.85c.19,1.97,1.24,2.79,2.71,2.79,1.2,0,1.87-.52,2.18-1.32h2.75c-.48,1.93-2.2,3.42-4.96,3.42-3.46,0-5.46-2.31-5.46-5.61s2.2-5.75,5.38-5.75c3.4,0,5.33,2.35,5.27,5.84Zm-2.83-1.18c-.08-1.64-.99-2.56-2.41-2.56-1.32,0-2.31,.84-2.58,2.56h5Z"/><path class="cls-1" d="M965.18,40.94c0-.9,.67-1.64,1.68-1.64s1.64,.74,1.64,1.64-.67,1.64-1.64,1.64-1.68-.76-1.68-1.64Zm.27,3.19h2.77v10.85h-2.77v-10.85Z"/><path class="cls-1" d="M969.87,51.81h2.71c.23,.97,.99,1.47,2.31,1.47s2.02-.5,2.02-1.24c0-.63-.38-1.07-1.36-1.24l-2.33-.44c-2.2-.42-3.13-1.45-3.13-3.11,0-1.81,1.55-3.38,4.51-3.38s4.54,1.41,4.89,3.59h-2.73c-.17-1.09-.92-1.64-2.18-1.64s-1.89,.57-1.89,1.26c0,.59,.31,.99,1.45,1.18l2.29,.4c2.37,.4,3.23,1.51,3.23,3.19,0,1.8-1.43,3.38-4.75,3.38s-4.64-1.39-5.04-3.42Z"/><path class="cls-1" d="M989.76,46.42v4.83c0,1.03,.5,1.53,1.43,1.53,.38,0,.63-.02,.88-.08v2.25c-.55,.15-.86,.17-1.53,.17-2.46,0-3.55-1.39-3.55-3.74v-4.96h-1.7v-2.29h1.7v-3.07h2.77v3.07h2.31v2.29h-2.31Z"/><path class="cls-1" d="M992.85,49.57c0-3.49,2.39-5.69,5.52-5.69s5.5,2.2,5.5,5.69-2.39,5.67-5.5,5.67-5.52-2.18-5.52-5.67Zm8.19,0c0-2.12-1.01-3.44-2.69-3.44s-2.69,1.34-2.69,3.44,1.01,3.42,2.69,3.42,2.69-1.32,2.69-3.42Z"/><path class="cls-1" d="M1021.3,49.57c0,3.59-2.31,5.67-4.89,5.67-1.55,0-2.75-.69-3.51-1.89v1.64h-2.54v-15.12h2.75v5.63c.73-1.05,1.89-1.62,3.4-1.62,2.58,0,4.79,2.04,4.79,5.69Zm-2.79,0c0-2.1-1.07-3.46-2.71-3.46s-2.69,1.39-2.69,3.46,1.11,3.44,2.69,3.44,2.71-1.34,2.71-3.44Z"/><path class="cls-1" d="M1033.11,49.71c0,.34-.02,.63-.02,.63h-7.85c.19,1.97,1.24,2.79,2.71,2.79,1.2,0,1.87-.52,2.18-1.32h2.75c-.48,1.93-2.2,3.42-4.96,3.42-3.46,0-5.46-2.31-5.46-5.61s2.2-5.75,5.38-5.75c3.4,0,5.33,2.35,5.27,5.84Zm-2.83-1.18c-.08-1.64-.99-2.56-2.41-2.56-1.32,0-2.31,.84-2.58,2.56h5Z"/><path class="cls-1" d="M1049.68,49.71c0,.34-.02,.63-.02,.63h-7.85c.19,1.97,1.24,2.79,2.71,2.79,1.2,0,1.87-.52,2.18-1.32h2.75c-.48,1.93-2.2,3.42-4.96,3.42-3.46,0-5.46-2.31-5.46-5.61s2.2-5.75,5.38-5.75c3.4,0,5.33,2.35,5.27,5.84Zm-2.83-1.18c-.08-1.64-.99-2.56-2.41-2.56-1.32,0-2.31,.84-2.58,2.56h5Z"/><path class="cls-1" d="M1052.3,46.42h-1.85v-2.29h1.85v-.5c0-2.54,1.51-3.95,4.03-3.95,.57,0,.97,.06,1.41,.19v2.18c-.31-.08-.52-.1-.94-.1-1.11,0-1.72,.46-1.72,1.55v.63h3.67v-.5c0-2.54,1.51-3.95,4.05-3.95,.4,0,.69,.02,1.01,.12v2.21c-.17-.04-.34-.06-.55-.06-1.11,0-1.72,.46-1.72,1.55v.63h6.45v10.85h-2.77v-8.57h-3.67v8.57h-2.79v-8.57h-3.67v8.57h-2.77v-8.57Zm12.68-5.48c0-.9,.67-1.64,1.66-1.64s1.66,.74,1.66,1.64-.71,1.64-1.66,1.64-1.66-.78-1.66-1.64Z"/><path class="cls-1" d="M1069.77,49.55c0-3.53,2.29-5.67,5.42-5.67s4.72,1.7,5.08,4.07h-2.81c-.25-1.22-.99-1.83-2.29-1.83-1.57,0-2.58,1.26-2.58,3.4s.97,3.46,2.6,3.46c1.32,0,1.99-.63,2.27-1.83h2.79c-.36,2.41-2.1,4.07-5.06,4.07-3.13,0-5.42-2.14-5.42-5.69Z"/><path class="cls-1" d="M1081.71,40.94c0-.9,.67-1.64,1.68-1.64s1.64,.74,1.64,1.64-.67,1.64-1.64,1.64-1.68-.76-1.68-1.64Zm.27,3.19h2.77v10.85h-2.77v-10.85Z"/><path class="cls-1" d="M1097.07,49.71c0,.34-.02,.63-.02,.63h-7.85c.19,1.97,1.24,2.79,2.71,2.79,1.2,0,1.87-.52,2.18-1.32h2.75c-.48,1.93-2.2,3.42-4.96,3.42-3.46,0-5.46-2.31-5.46-5.61s2.2-5.75,5.38-5.75c3.4,0,5.33,2.35,5.27,5.84Zm-2.83-1.18c-.08-1.64-.99-2.56-2.41-2.56-1.32,0-2.31,.84-2.58,2.56h5Z"/><path class="cls-1" d="M1108.71,48.14v6.84h-2.77v-6.21c0-1.78-.84-2.58-2.12-2.58s-2.25,.88-2.25,2.58v6.21h-2.77v-10.85h2.5v1.53c.71-1.2,1.87-1.78,3.42-1.78,2.27,0,3.99,1.34,3.99,4.26Z"/><path class="cls-1" d="M1114.35,46.42v4.83c0,1.03,.5,1.53,1.43,1.53,.38,0,.63-.02,.88-.08v2.25c-.55,.15-.86,.17-1.53,.17-2.46,0-3.55-1.39-3.55-3.74v-4.96h-1.7v-2.29h1.7v-3.07h2.77v3.07h2.31v2.29h-2.31Z"/><path class="cls-1" d="M1126.74,43.48v.65h2.58v2.29h-2.58v8.57h-2.77v-8.57h-1.7v-2.29h1.7v-.63c0-2.52,1.55-3.84,3.84-3.84,.63,0,1.18,.08,1.62,.23v2.12c-.31-.08-.65-.13-.99-.13-1.11,0-1.7,.52-1.7,1.6Z"/><path class="cls-1" d="M1129.93,49.57c0-3.49,2.39-5.69,5.52-5.69s5.5,2.2,5.5,5.69-2.39,5.67-5.5,5.67-5.52-2.18-5.52-5.67Zm8.19,0c0-2.12-1.01-3.44-2.69-3.44s-2.69,1.34-2.69,3.44,1.01,3.42,2.69,3.42,2.69-1.32,2.69-3.42Z"/><path class="cls-1" d="M1148.7,44.11v2.44c-.17-.02-.36-.04-.63-.04-1.7,0-2.62,.99-2.62,2.71v5.77h-2.77v-10.85h2.5v1.87c.52-1.3,1.6-1.97,2.88-1.97,.23,0,.42,.02,.65,.08Z"/><path class="cls-1" d="M1165.02,49.71c0,.34-.02,.63-.02,.63h-7.85c.19,1.97,1.24,2.79,2.71,2.79,1.2,0,1.87-.52,2.18-1.32h2.75c-.48,1.93-2.2,3.42-4.96,3.42-3.46,0-5.46-2.31-5.46-5.61s2.2-5.75,5.38-5.75c3.4,0,5.33,2.35,5.27,5.84Zm-2.83-1.18c-.08-1.64-.99-2.56-2.41-2.56-1.32,0-2.31,.84-2.58,2.56h5Z"/><path class="cls-1" d="M1177.15,39.87v15.12h-2.5v-1.83c-.69,1.37-1.91,2.08-3.57,2.08-2.58,0-4.89-2.08-4.89-5.67s2.2-5.69,4.79-5.69c1.51,0,2.67,.57,3.4,1.62v-5.63h2.77Zm-2.77,9.7c0-2.08-1.13-3.46-2.69-3.46-1.64,0-2.71,1.37-2.71,3.46s1.13,3.44,2.71,3.44,2.69-1.32,2.69-3.44Z"/><path class="cls-1" d="M1179.18,40.94c0-.9,.67-1.64,1.68-1.64s1.64,.74,1.64,1.64-.67,1.64-1.64,1.64-1.68-.76-1.68-1.64Zm.27,3.19h2.77v10.85h-2.77v-10.85Z"/><path class="cls-1" d="M1187.99,46.42v4.83c0,1.03,.5,1.53,1.43,1.53,.38,0,.63-.02,.88-.08v2.25c-.55,.15-.86,.17-1.53,.17-2.46,0-3.55-1.39-3.55-3.74v-4.96h-1.7v-2.29h1.7v-3.07h2.77v3.07h2.31v2.29h-2.31Z"/><path class="cls-1" d="M1191.08,49.57c0-3.49,2.39-5.69,5.52-5.69s5.5,2.2,5.5,5.69-2.39,5.67-5.5,5.67-5.52-2.18-5.52-5.67Zm8.19,0c0-2.12-1.01-3.44-2.69-3.44s-2.69,1.34-2.69,3.44,1.01,3.42,2.69,3.42,2.69-1.32,2.69-3.42Z"/><path class="cls-1" d="M1209.86,44.11v2.44c-.17-.02-.36-.04-.63-.04-1.7,0-2.62,.99-2.62,2.71v5.77h-2.77v-10.85h2.5v1.87c.52-1.3,1.6-1.97,2.88-1.97,.23,0,.42,.02,.65,.08Z"/><path class="cls-1" d="M1210.91,40.94c0-.9,.67-1.64,1.68-1.64s1.64,.74,1.64,1.64-.67,1.64-1.64,1.64-1.68-.76-1.68-1.64Zm.27,3.19h2.77v10.85h-2.77v-10.85Z"/><path class="cls-1" d="M1225.56,47.87v7.12h-2.5v-1.39c-.84,1.11-1.99,1.64-3.46,1.64-2.31,0-3.91-1.36-3.91-3.25s1.13-3.09,3.84-3.36l3.28-.34v-.59c0-1.22-.76-1.8-1.95-1.8-1.26,0-1.95,.5-2.16,1.57h-2.77c.29-2.35,2.04-3.59,4.89-3.59s4.75,1.24,4.75,3.99Zm-2.77,2.88v-.8l-2.6,.34c-1.15,.15-1.68,.76-1.68,1.58s.67,1.51,1.83,1.51c1.6,0,2.46-1.07,2.46-2.62Z"/><path class="cls-1" d="M1230.57,54.99h-2.77v-15.12h2.77v15.12Z"/><path class="cls-1" d="M84.61,68.87v15.12h-2.5v-1.83c-.69,1.37-1.91,2.08-3.57,2.08-2.58,0-4.89-2.08-4.89-5.67s2.2-5.69,4.79-5.69c1.51,0,2.67,.57,3.4,1.62v-5.63h2.77Zm-2.77,9.7c0-2.08-1.13-3.46-2.69-3.46-1.64,0-2.71,1.37-2.71,3.46s1.13,3.44,2.71,3.44,2.69-1.32,2.69-3.44Z"/><path class="cls-1" d="M96.97,78.71c0,.34-.02,.63-.02,.63h-7.85c.19,1.97,1.24,2.79,2.71,2.79,1.2,0,1.87-.52,2.18-1.32h2.75c-.48,1.93-2.2,3.42-4.96,3.42-3.46,0-5.46-2.31-5.46-5.61s2.2-5.75,5.38-5.75c3.4,0,5.33,2.35,5.27,5.84Zm-2.83-1.18c-.08-1.64-.99-2.56-2.41-2.56-1.32,0-2.31,.84-2.58,2.56h5Z"/><path class="cls-1" d="M98.04,80.81h2.71c.23,.97,.99,1.47,2.31,1.47s2.02-.5,2.02-1.24c0-.63-.38-1.07-1.36-1.24l-2.33-.44c-2.2-.42-3.13-1.45-3.13-3.11,0-1.81,1.55-3.38,4.51-3.38s4.54,1.41,4.89,3.59h-2.73c-.17-1.09-.92-1.64-2.18-1.64s-1.89,.57-1.89,1.26c0,.59,.31,.99,1.45,1.18l2.29,.4c2.37,.4,3.23,1.51,3.23,3.19,0,1.8-1.43,3.38-4.75,3.38s-4.64-1.39-5.04-3.42Z"/><path class="cls-1" d="M109.27,69.94c0-.9,.67-1.64,1.68-1.64s1.64,.74,1.64,1.64-.67,1.64-1.64,1.64-1.68-.76-1.68-1.64Zm.27,3.19h2.77v10.85h-2.77v-10.85Z"/><path class="cls-1" d="M124.93,73.13v10.31c0,2.6-1.53,4.75-5.38,4.75s-5.17-1.66-5.4-3.84h2.92c.1,1.11,.76,1.83,2.48,1.83s2.62-.9,2.62-2.62v-1.72c-.76,1.16-1.87,1.66-3.34,1.66-2.67,0-4.85-2.04-4.85-5.31s2.16-5.29,4.85-5.29c1.55,0,2.79,.65,3.55,1.85v-1.6h2.54Zm-2.75,5.04c0-1.87-1.18-3.09-2.71-3.09s-2.69,1.22-2.69,3.09,1.18,3.11,2.69,3.11,2.71-1.28,2.71-3.11Z"/><path class="cls-1" d="M137.13,77.14v6.84h-2.77v-6.21c0-1.78-.84-2.58-2.12-2.58s-2.25,.88-2.25,2.58v6.21h-2.77v-10.85h2.5v1.53c.71-1.2,1.87-1.78,3.42-1.78,2.27,0,3.99,1.34,3.99,4.26Z"/><path class="cls-1" d="M146.9,83.99h-2.77v-15.12h2.77v15.12Z"/><path class="cls-1" d="M148.91,69.94c0-.9,.67-1.64,1.68-1.64s1.64,.74,1.64,1.64-.67,1.64-1.64,1.64-1.68-.76-1.68-1.64Zm.27,3.19h2.77v10.85h-2.77v-10.85Z"/><path class="cls-1" d="M161.33,83.99l-4.3-5.35v5.35h-2.77v-15.12h2.77v8.4l4.2-4.14h3.07l-4.72,4.77,4.93,6.09h-3.17Z"/><path class="cls-1" d="M175.01,78.71c0,.34-.02,.63-.02,.63h-7.85c.19,1.97,1.24,2.79,2.71,2.79,1.2,0,1.87-.52,2.18-1.32h2.75c-.48,1.93-2.2,3.42-4.96,3.42-3.46,0-5.46-2.31-5.46-5.61s2.2-5.75,5.38-5.75c3.4,0,5.33,2.35,5.27,5.84Zm-2.83-1.18c-.08-1.64-.99-2.56-2.41-2.56-1.32,0-2.31,.84-2.58,2.56h5Z"/><path class="cls-1" d="M198.12,77.18v6.8h-2.77v-6.24c0-1.7-.84-2.48-2.02-2.48s-2.14,.8-2.14,2.35v6.36h-2.77v-6.24c0-1.7-.84-2.48-2.02-2.48s-2.12,.78-2.12,2.35v6.36h-2.77v-10.85h2.5v1.51c.69-1.18,1.87-1.76,3.32-1.76,1.55,0,2.75,.71,3.38,1.99,.73-1.32,1.97-1.99,3.51-1.99,2.37,0,3.91,1.6,3.91,4.3Z"/><path class="cls-1" d="M209.7,76.87v7.12h-2.5v-1.39c-.84,1.11-1.99,1.64-3.46,1.64-2.31,0-3.91-1.36-3.91-3.25s1.13-3.09,3.84-3.36l3.28-.34v-.59c0-1.22-.76-1.8-1.95-1.8-1.26,0-1.95,.5-2.16,1.57h-2.77c.29-2.35,2.04-3.59,4.89-3.59s4.75,1.24,4.75,3.99Zm-2.77,2.88v-.8l-2.6,.34c-1.15,.15-1.68,.76-1.68,1.58s.67,1.51,1.83,1.51c1.6,0,2.46-1.07,2.46-2.62Z"/><path class="cls-1" d="M222.25,73.13v10.31c0,2.6-1.53,4.75-5.38,4.75s-5.17-1.66-5.4-3.84h2.92c.1,1.11,.76,1.83,2.48,1.83s2.62-.9,2.62-2.62v-1.72c-.76,1.16-1.87,1.66-3.34,1.66-2.67,0-4.85-2.04-4.85-5.31s2.16-5.29,4.85-5.29c1.55,0,2.79,.65,3.55,1.85v-1.6h2.54Zm-2.75,5.04c0-1.87-1.18-3.09-2.71-3.09s-2.69,1.22-2.69,3.09,1.18,3.11,2.69,3.11,2.71-1.28,2.71-3.11Z"/><path class="cls-1" d="M233.88,76.87v7.12h-2.5v-1.39c-.84,1.11-1.99,1.64-3.46,1.64-2.31,0-3.91-1.36-3.91-3.25s1.13-3.09,3.84-3.36l3.28-.34v-.59c0-1.22-.76-1.8-1.95-1.8-1.26,0-1.95,.5-2.16,1.57h-2.77c.29-2.35,2.04-3.59,4.89-3.59s4.75,1.24,4.75,3.99Zm-2.77,2.88v-.8l-2.6,.34c-1.15,.15-1.68,.76-1.68,1.58s.67,1.51,1.83,1.51c1.6,0,2.46-1.07,2.46-2.62Z"/><path class="cls-1" d="M244.4,81.7v2.29h-9.03v-2.18l5.42-6.38h-5.21v-2.29h8.76v2.16l-5.42,6.4h5.48Z"/><path class="cls-1" d="M245.85,69.94c0-.9,.67-1.64,1.68-1.64s1.64,.74,1.64,1.64-.67,1.64-1.64,1.64-1.68-.76-1.68-1.64Zm.27,3.19h2.77v10.85h-2.77v-10.85Z"/><path class="cls-1" d="M261.1,77.14v6.84h-2.77v-6.21c0-1.78-.84-2.58-2.12-2.58s-2.25,.88-2.25,2.58v6.21h-2.77v-10.85h2.5v1.53c.71-1.2,1.87-1.78,3.42-1.78,2.27,0,3.99,1.34,3.99,4.26Z"/><path class="cls-1" d="M273.39,78.71c0,.34-.02,.63-.02,.63h-7.85c.19,1.97,1.24,2.79,2.71,2.79,1.2,0,1.87-.52,2.18-1.32h2.75c-.48,1.93-2.2,3.42-4.96,3.42-3.46,0-5.46-2.31-5.46-5.61s2.2-5.75,5.38-5.75c3.4,0,5.33,2.35,5.27,5.84Zm-2.83-1.18c-.08-1.64-.99-2.56-2.41-2.56-1.32,0-2.31,.84-2.58,2.56h5Z"/><path class="cls-1" d="M274.46,80.81h2.71c.23,.97,.99,1.47,2.31,1.47s2.02-.5,2.02-1.24c0-.63-.38-1.07-1.36-1.24l-2.33-.44c-2.2-.42-3.13-1.45-3.13-3.11,0-1.81,1.55-3.38,4.51-3.38s4.54,1.41,4.89,3.59h-2.73c-.17-1.09-.92-1.64-2.18-1.64s-1.89,.57-1.89,1.26c0,.59,.31,.99,1.45,1.18l2.29,.4c2.37,.4,3.23,1.51,3.23,3.19,0,1.8-1.43,3.38-4.75,3.38s-4.64-1.39-5.04-3.42Z"/><path class="cls-1" d="M294.34,75.42v4.83c0,1.03,.5,1.53,1.43,1.53,.38,0,.63-.02,.88-.08v2.25c-.55,.15-.86,.17-1.53,.17-2.46,0-3.55-1.39-3.55-3.74v-4.96h-1.7v-2.29h1.7v-3.07h2.77v3.07h2.31v2.29h-2.31Z"/><path class="cls-1" d="M308.26,77.16v6.82h-2.77v-6.28c0-1.68-.92-2.5-2.14-2.5s-2.23,.88-2.23,2.54v6.24h-2.77v-15.12h2.77v5.71c.63-1.09,1.68-1.7,3.09-1.7,2.31,0,4.05,1.47,4.05,4.28Z"/><path class="cls-1" d="M319.8,76.87v7.12h-2.5v-1.39c-.84,1.11-1.99,1.64-3.46,1.64-2.31,0-3.91-1.36-3.91-3.25s1.13-3.09,3.84-3.36l3.28-.34v-.59c0-1.22-.76-1.8-1.95-1.8-1.26,0-1.95,.5-2.16,1.57h-2.77c.29-2.35,2.04-3.59,4.89-3.59s4.75,1.24,4.75,3.99Zm-2.77,2.88v-.8l-2.6,.34c-1.15,.15-1.68,.76-1.68,1.58s.67,1.51,1.83,1.51c1.6,0,2.46-1.07,2.46-2.62Z"/><path class="cls-1" d="M325.44,75.42v4.83c0,1.03,.5,1.53,1.43,1.53,.38,0,.63-.02,.88-.08v2.25c-.55,.15-.86,.17-1.53,.17-2.46,0-3.55-1.39-3.55-3.74v-4.96h-1.7v-2.29h1.7v-3.07h2.77v3.07h2.31v2.29h-2.31Z"/><path class="cls-1" d="M340.23,73.11v2.44c-.17-.02-.36-.04-.63-.04-1.7,0-2.62,.99-2.62,2.71v5.77h-2.77v-10.85h2.5v1.87c.52-1.3,1.6-1.97,2.88-1.97,.23,0,.42,.02,.65,.08Z"/><path class="cls-1" d="M351.61,78.71c0,.34-.02,.63-.02,.63h-7.85c.19,1.97,1.24,2.79,2.71,2.79,1.2,0,1.87-.52,2.18-1.32h2.75c-.48,1.93-2.2,3.42-4.96,3.42-3.46,0-5.46-2.31-5.46-5.61s2.2-5.75,5.38-5.75c3.4,0,5.33,2.35,5.27,5.84Zm-2.83-1.18c-.08-1.64-.99-2.56-2.41-2.56-1.32,0-2.31,.84-2.58,2.56h5Z"/><path class="cls-1" d="M363.71,73.13v14.87h-2.75v-5.56c-.67,1.18-1.76,1.81-3.3,1.81-2.58,0-4.89-2.08-4.89-5.67s2.2-5.69,4.79-5.69c1.68,0,2.88,.69,3.61,1.95v-1.7h2.54Zm-2.75,5.44c0-2.06-1.13-3.46-2.69-3.46-1.64,0-2.71,1.37-2.71,3.46s1.13,3.44,2.71,3.44,2.69-1.32,2.69-3.44Z"/><path class="cls-1" d="M375.63,73.13v10.85h-2.48v-1.64c-.73,1.24-1.91,1.89-3.38,1.89-2.44,0-3.84-1.41-3.84-3.99v-7.12h2.77v6.74c0,1.3,.67,2.06,1.89,2.06,1.36,0,2.27-.97,2.27-2.46v-6.34h2.77Z"/><path class="cls-1" d="M377.67,69.94c0-.9,.67-1.64,1.68-1.64s1.64,.74,1.64,1.64-.67,1.64-1.64,1.64-1.68-.76-1.68-1.64Zm.27,3.19h2.77v10.85h-2.77v-10.85Z"/><path class="cls-1" d="M389.04,73.11v2.44c-.17-.02-.36-.04-.63-.04-1.7,0-2.62,.99-2.62,2.71v5.77h-2.77v-10.85h2.5v1.87c.52-1.3,1.6-1.97,2.88-1.97,.23,0,.42,.02,.65,.08Z"/><path class="cls-1" d="M400.42,78.71c0,.34-.02,.63-.02,.63h-7.85c.19,1.97,1.24,2.79,2.71,2.79,1.2,0,1.87-.52,2.18-1.32h2.75c-.48,1.93-2.2,3.42-4.96,3.42-3.46,0-5.46-2.31-5.46-5.61s2.2-5.75,5.38-5.75c3.4,0,5.33,2.35,5.27,5.84Zm-2.83-1.18c-.08-1.64-.99-2.56-2.41-2.56-1.32,0-2.31,.84-2.58,2.56h5Z"/><path class="cls-1" d="M401.48,80.81h2.71c.23,.97,.99,1.47,2.31,1.47s2.02-.5,2.02-1.24c0-.63-.38-1.07-1.36-1.24l-2.33-.44c-2.2-.42-3.13-1.45-3.13-3.11,0-1.81,1.55-3.38,4.51-3.38s4.54,1.41,4.89,3.59h-2.73c-.17-1.09-.92-1.64-2.18-1.64s-1.89,.57-1.89,1.26c0,.59,.31,.99,1.45,1.18l2.29,.4c2.37,.4,3.23,1.51,3.23,3.19,0,1.8-1.43,3.38-4.75,3.38s-4.64-1.39-5.04-3.42Z"/><path class="cls-1" d="M427.1,76.87v7.12h-2.5v-1.39c-.84,1.11-1.99,1.64-3.46,1.64-2.31,0-3.91-1.36-3.91-3.25s1.13-3.09,3.84-3.36l3.28-.34v-.59c0-1.22-.76-1.8-1.95-1.8-1.26,0-1.95,.5-2.16,1.57h-2.77c.29-2.35,2.04-3.59,4.89-3.59s4.75,1.24,4.75,3.99Zm-2.77,2.88v-.8l-2.6,.34c-1.15,.15-1.68,.76-1.68,1.58s.67,1.51,1.83,1.51c1.6,0,2.46-1.07,2.46-2.62Z"/><path class="cls-1" d="M437.71,72.48v.65h2.58v2.29h-2.58v8.57h-2.77v-8.57h-1.7v-2.29h1.7v-.63c0-2.52,1.55-3.84,3.84-3.84,.63,0,1.18,.08,1.62,.23v2.12c-.31-.08-.65-.13-.99-.13-1.11,0-1.7,.52-1.7,1.6Z"/><path class="cls-1" d="M450.94,76.87v7.12h-2.5v-1.39c-.84,1.11-1.99,1.64-3.46,1.64-2.31,0-3.91-1.36-3.91-3.25s1.13-3.09,3.84-3.36l3.28-.34v-.59c0-1.22-.76-1.8-1.95-1.8-1.26,0-1.95,.5-2.16,1.57h-2.77c.29-2.35,2.04-3.59,4.89-3.59s4.75,1.24,4.75,3.99Zm-2.77,2.88v-.8l-2.6,.34c-1.15,.15-1.68,.76-1.68,1.58s.67,1.51,1.83,1.51c1.6,0,2.46-1.07,2.46-2.62Z"/><path class="cls-1" d="M469.76,77.18v6.8h-2.77v-6.24c0-1.7-.84-2.48-2.02-2.48s-2.14,.8-2.14,2.35v6.36h-2.77v-6.24c0-1.7-.84-2.48-2.02-2.48s-2.12,.78-2.12,2.35v6.36h-2.77v-10.85h2.5v1.51c.69-1.18,1.87-1.76,3.32-1.76,1.55,0,2.75,.71,3.38,1.99,.73-1.32,1.97-1.99,3.51-1.99,2.37,0,3.91,1.6,3.91,4.3Z"/><path class="cls-1" d="M471.7,69.94c0-.9,.67-1.64,1.68-1.64s1.64,.74,1.64,1.64-.67,1.64-1.64,1.64-1.68-.76-1.68-1.64Zm.27,3.19h2.77v10.85h-2.77v-10.85Z"/><path class="cls-1" d="M479.82,83.99h-2.77v-15.12h2.77v15.12Z"/><path class="cls-1" d="M492.19,73.13l-6.4,14.8h-2.94l2.29-4.91-4.16-9.89h2.94l2.65,7.12,2.81-7.12h2.81Z"/><path class="cls-1" d="M514.91,73.13l-3.34,10.85h-3.3l-2.29-7.6-2.2,7.6h-3.3l-3.32-10.85h2.88l2.2,8.1,2.29-8.1h3.09l2.31,8.1,2.14-8.1h2.83Z"/><path class="cls-1" d="M515.98,69.94c0-.9,.67-1.64,1.68-1.64s1.64,.74,1.64,1.64-.67,1.64-1.64,1.64-1.68-.76-1.68-1.64Zm.27,3.19h2.77v10.85h-2.77v-10.85Z"/><path class="cls-1" d="M524.79,75.42v4.83c0,1.03,.5,1.53,1.43,1.53,.38,0,.63-.02,.88-.08v2.25c-.55,.15-.86,.17-1.53,.17-2.46,0-3.55-1.39-3.55-3.74v-4.96h-1.7v-2.29h1.7v-3.07h2.77v3.07h2.31v2.29h-2.31Z"/><path class="cls-1" d="M538.71,77.16v6.82h-2.77v-6.28c0-1.68-.92-2.5-2.14-2.5s-2.23,.88-2.23,2.54v6.24h-2.77v-15.12h2.77v5.71c.63-1.09,1.68-1.7,3.09-1.7,2.31,0,4.05,1.47,4.05,4.28Z"/><path class="cls-1" d="M555.02,76.87v7.12h-2.5v-1.39c-.84,1.11-1.99,1.64-3.46,1.64-2.31,0-3.91-1.36-3.91-3.25s1.13-3.09,3.84-3.36l3.28-.34v-.59c0-1.22-.76-1.8-1.95-1.8-1.26,0-1.95,.5-2.16,1.57h-2.77c.29-2.35,2.04-3.59,4.89-3.59s4.75,1.24,4.75,3.99Zm-2.77,2.88v-.8l-2.6,.34c-1.15,.15-1.68,.76-1.68,1.58s.67,1.51,1.83,1.51c1.6,0,2.46-1.07,2.46-2.62Z"/><path class="cls-1" d="M560.03,83.99h-2.77v-15.12h2.77v15.12Z"/><path class="cls-1" d="M565.83,75.42v4.83c0,1.03,.5,1.53,1.43,1.53,.38,0,.63-.02,.88-.08v2.25c-.55,.15-.86,.17-1.53,.17-2.46,0-3.55-1.39-3.55-3.74v-4.96h-1.7v-2.29h1.7v-3.07h2.77v3.07h2.31v2.29h-2.31Z"/><path class="cls-1" d="M579.62,78.71c0,.34-.02,.63-.02,.63h-7.85c.19,1.97,1.24,2.79,2.71,2.79,1.2,0,1.87-.52,2.18-1.32h2.75c-.48,1.93-2.2,3.42-4.96,3.42-3.46,0-5.46-2.31-5.46-5.61s2.2-5.75,5.38-5.75c3.4,0,5.33,2.35,5.27,5.84Zm-2.83-1.18c-.08-1.64-.99-2.56-2.41-2.56-1.32,0-2.31,.84-2.58,2.56h5Z"/><path class="cls-1" d="M587.38,73.11v2.44c-.17-.02-.36-.04-.63-.04-1.7,0-2.62,.99-2.62,2.71v5.77h-2.77v-10.85h2.5v1.87c.52-1.3,1.6-1.97,2.88-1.97,.23,0,.42,.02,.65,.08Z"/><path class="cls-1" d="M598.6,77.14v6.84h-2.77v-6.21c0-1.78-.84-2.58-2.12-2.58s-2.25,.88-2.25,2.58v6.21h-2.77v-10.85h2.5v1.53c.71-1.2,1.87-1.78,3.42-1.78,2.27,0,3.99,1.34,3.99,4.26Z"/><path class="cls-1" d="M610.14,76.87v7.12h-2.5v-1.39c-.84,1.11-1.99,1.64-3.46,1.64-2.31,0-3.91-1.36-3.91-3.25s1.13-3.09,3.84-3.36l3.28-.34v-.59c0-1.22-.76-1.8-1.95-1.8-1.26,0-1.95,.5-2.16,1.57h-2.77c.29-2.35,2.04-3.59,4.89-3.59s4.75,1.24,4.75,3.99Zm-2.77,2.88v-.8l-2.6,.34c-1.15,.15-1.68,.76-1.68,1.58s.67,1.51,1.83,1.51c1.6,0,2.46-1.07,2.46-2.62Z"/><path class="cls-1" d="M615.79,75.42v4.83c0,1.03,.5,1.53,1.43,1.53,.38,0,.63-.02,.88-.08v2.25c-.55,.15-.86,.17-1.53,.17-2.46,0-3.55-1.39-3.55-3.74v-4.96h-1.7v-2.29h1.7v-3.07h2.77v3.07h2.31v2.29h-2.31Z"/><path class="cls-1" d="M619.43,69.94c0-.9,.67-1.64,1.68-1.64s1.64,.74,1.64,1.64-.67,1.64-1.64,1.64-1.68-.76-1.68-1.64Zm.27,3.19h2.77v10.85h-2.77v-10.85Z"/><path class="cls-1" d="M634.83,73.13l-3.93,10.85h-3.21l-4.03-10.85h2.88l2.79,8.12,2.65-8.12h2.86Z"/><path class="cls-1" d="M645.69,78.71c0,.34-.02,.63-.02,.63h-7.85c.19,1.97,1.24,2.79,2.71,2.79,1.2,0,1.87-.52,2.18-1.32h2.75c-.48,1.93-2.2,3.42-4.96,3.42-3.46,0-5.46-2.31-5.46-5.61s2.2-5.75,5.38-5.75c3.4,0,5.33,2.35,5.27,5.84Zm-2.83-1.18c-.08-1.64-.99-2.56-2.41-2.56-1.32,0-2.31,.84-2.58,2.56h5Z"/><path class="cls-1" d="M655.81,75.42v4.83c0,1.03,.5,1.53,1.43,1.53,.38,0,.63-.02,.88-.08v2.25c-.55,.15-.86,.17-1.53,.17-2.46,0-3.55-1.39-3.55-3.74v-4.96h-1.7v-2.29h1.7v-3.07h2.77v3.07h2.31v2.29h-2.31Z"/><path class="cls-1" d="M669.61,78.71c0,.34-.02,.63-.02,.63h-7.85c.19,1.97,1.24,2.79,2.71,2.79,1.2,0,1.87-.52,2.18-1.32h2.75c-.48,1.93-2.2,3.42-4.96,3.42-3.46,0-5.46-2.31-5.46-5.61s2.2-5.75,5.38-5.75c3.4,0,5.33,2.35,5.27,5.84Zm-2.83-1.18c-.08-1.64-.99-2.56-2.41-2.56-1.32,0-2.31,.84-2.58,2.56h5Z"/><path class="cls-1" d="M678.01,83.99l-2.62-3.99-2.56,3.99h-3.09l3.97-5.67-3.8-5.19h3.09l2.39,3.4,2.39-3.4h3.11l-3.8,5.19,4.01,5.67h-3.09Z"/><path class="cls-1" d="M686.19,75.42v4.83c0,1.03,.5,1.53,1.43,1.53,.38,0,.63-.02,.88-.08v2.25c-.55,.15-.86,.17-1.53,.17-2.46,0-3.55-1.39-3.55-3.74v-4.96h-1.7v-2.29h1.7v-3.07h2.77v3.07h2.31v2.29h-2.31Z"/><path class="cls-1" d="M699.69,73.13v10.85h-2.48v-1.64c-.73,1.24-1.91,1.89-3.38,1.89-2.44,0-3.84-1.41-3.84-3.99v-7.12h2.77v6.74c0,1.3,.67,2.06,1.89,2.06,1.36,0,2.27-.97,2.27-2.46v-6.34h2.77Z"/><path class="cls-1" d="M708,73.11v2.44c-.17-.02-.36-.04-.63-.04-1.7,0-2.62,.99-2.62,2.71v5.77h-2.77v-10.85h2.5v1.87c.52-1.3,1.6-1.97,2.88-1.97,.23,0,.42,.02,.65,.08Z"/><path class="cls-1" d="M719.38,78.71c0,.34-.02,.63-.02,.63h-7.85c.19,1.97,1.24,2.79,2.71,2.79,1.2,0,1.87-.52,2.18-1.32h2.75c-.48,1.93-2.2,3.42-4.96,3.42-3.46,0-5.46-2.31-5.46-5.61s2.2-5.75,5.38-5.75c3.4,0,5.33,2.35,5.27,5.84Zm-2.83-1.18c-.08-1.64-.99-2.56-2.41-2.56-1.32,0-2.31,.84-2.58,2.56h5Z"/><path class="cls-1" d="M720.45,80.81h2.71c.23,.97,.99,1.47,2.31,1.47s2.02-.5,2.02-1.24c0-.63-.38-1.07-1.36-1.24l-2.33-.44c-2.2-.42-3.13-1.45-3.13-3.11,0-1.81,1.55-3.38,4.51-3.38s4.54,1.41,4.89,3.59h-2.73c-.17-1.09-.92-1.64-2.18-1.64s-1.89,.57-1.89,1.26c0,.59,.31,.99,1.45,1.18l2.29,.4c2.37,.4,3.23,1.51,3.23,3.19,0,1.8-1.43,3.38-4.75,3.38s-4.64-1.39-5.04-3.42Z"/><path class="cls-1" d="M740.35,72.48v.65h2.58v2.29h-2.58v8.57h-2.77v-8.57h-1.7v-2.29h1.7v-.63c0-2.52,1.55-3.84,3.84-3.84,.63,0,1.18,.08,1.62,.23v2.12c-.31-.08-.65-.13-.99-.13-1.11,0-1.7,.52-1.7,1.6Z"/><path class="cls-1" d="M743.54,78.57c0-3.49,2.39-5.69,5.52-5.69s5.5,2.2,5.5,5.69-2.39,5.67-5.5,5.67-5.52-2.18-5.52-5.67Zm8.19,0c0-2.12-1.01-3.44-2.69-3.44s-2.69,1.34-2.69,3.44,1.01,3.42,2.69,3.42,2.69-1.32,2.69-3.42Z"/><path class="cls-1" d="M762.32,73.11v2.44c-.17-.02-.36-.04-.63-.04-1.7,0-2.62,.99-2.62,2.71v5.77h-2.77v-10.85h2.5v1.87c.52-1.3,1.6-1.97,2.88-1.97,.23,0,.42,.02,.65,.08Z"/><path class="cls-1" d="M778.49,77.16v6.82h-2.77v-6.28c0-1.68-.92-2.5-2.14-2.5s-2.23,.88-2.23,2.54v6.24h-2.77v-15.12h2.77v5.71c.63-1.09,1.68-1.7,3.09-1.7,2.31,0,4.05,1.47,4.05,4.28Z"/><path class="cls-1" d="M790.78,78.71c0,.34-.02,.63-.02,.63h-7.85c.19,1.97,1.24,2.79,2.71,2.79,1.2,0,1.87-.52,2.18-1.32h2.75c-.48,1.93-2.2,3.42-4.96,3.42-3.46,0-5.46-2.31-5.46-5.61s2.2-5.75,5.38-5.75c3.4,0,5.33,2.35,5.27,5.84Zm-2.83-1.18c-.08-1.64-.99-2.56-2.41-2.56-1.32,0-2.31,.84-2.58,2.56h5Z"/><path class="cls-1" d="M801.76,76.87v7.12h-2.5v-1.39c-.84,1.11-1.99,1.64-3.46,1.64-2.31,0-3.91-1.36-3.91-3.25s1.13-3.09,3.84-3.36l3.28-.34v-.59c0-1.22-.76-1.8-1.95-1.8-1.26,0-1.95,.5-2.16,1.57h-2.77c.29-2.35,2.04-3.59,4.89-3.59s4.75,1.24,4.75,3.99Zm-2.77,2.88v-.8l-2.6,.34c-1.15,.15-1.68,.76-1.68,1.58s.67,1.51,1.83,1.51c1.6,0,2.46-1.07,2.46-2.62Z"/><path class="cls-1" d="M814.37,68.87v15.12h-2.5v-1.83c-.69,1.37-1.91,2.08-3.57,2.08-2.58,0-4.89-2.08-4.89-5.67s2.2-5.69,4.79-5.69c1.51,0,2.67,.57,3.4,1.62v-5.63h2.77Zm-2.77,9.7c0-2.08-1.13-3.46-2.69-3.46-1.64,0-2.71,1.37-2.71,3.46s1.13,3.44,2.71,3.44,2.69-1.32,2.69-3.44Z"/><path class="cls-1" d="M819.43,83.99h-2.77v-15.12h2.77v15.12Z"/><path class="cls-1" d="M821.44,69.94c0-.9,.67-1.64,1.68-1.64s1.64,.74,1.64,1.64-.67,1.64-1.64,1.64-1.68-.76-1.68-1.64Zm.27,3.19h2.77v10.85h-2.77v-10.85Z"/><path class="cls-1" d="M836.69,77.14v6.84h-2.77v-6.21c0-1.78-.84-2.58-2.12-2.58s-2.25,.88-2.25,2.58v6.21h-2.77v-10.85h2.5v1.53c.71-1.2,1.87-1.78,3.42-1.78,2.27,0,3.99,1.34,3.99,4.26Z"/><path class="cls-1" d="M848.98,78.71c0,.34-.02,.63-.02,.63h-7.85c.19,1.97,1.24,2.79,2.71,2.79,1.2,0,1.87-.52,2.18-1.32h2.75c-.48,1.93-2.2,3.42-4.96,3.42-3.46,0-5.46-2.31-5.46-5.61s2.2-5.75,5.38-5.75c3.4,0,5.33,2.35,5.27,5.84Zm-2.83-1.18c-.08-1.64-.99-2.56-2.41-2.56-1.32,0-2.31,.84-2.58,2.56h5Z"/><path class="cls-1" d="M850.05,80.81h2.71c.23,.97,.99,1.47,2.31,1.47s2.02-.5,2.02-1.24c0-.63-.38-1.07-1.36-1.24l-2.33-.44c-2.2-.42-3.13-1.45-3.13-3.11,0-1.81,1.55-3.38,4.51-3.38s4.54,1.41,4.89,3.59h-2.73c-.17-1.09-.92-1.64-2.18-1.64s-1.89,.57-1.89,1.26c0,.59,.31,.99,1.45,1.18l2.29,.4c2.37,.4,3.23,1.51,3.23,3.19,0,1.8-1.43,3.38-4.75,3.38s-4.64-1.39-5.04-3.42Z"/><path class="cls-1" d="M864.93,82.45c0,.99-.8,1.78-1.78,1.78s-1.78-.8-1.78-1.78,.8-1.76,1.78-1.76,1.78,.8,1.78,1.76Z"/><path class="cls-1" d="M882.72,72.12h-4.47v11.86h-2.88v-11.86h-4.47v-2.39h11.82v2.39Z"/><path class="cls-1" d="M894.01,77.16v6.82h-2.77v-6.28c0-1.68-.92-2.5-2.14-2.5s-2.23,.88-2.23,2.54v6.24h-2.77v-15.12h2.77v5.71c.63-1.09,1.68-1.7,3.09-1.7,2.31,0,4.05,1.47,4.05,4.28Z"/><path class="cls-1" d="M906.3,78.71c0,.34-.02,.63-.02,.63h-7.85c.19,1.97,1.24,2.79,2.71,2.79,1.2,0,1.87-.52,2.18-1.32h2.75c-.48,1.93-2.2,3.42-4.96,3.42-3.46,0-5.46-2.31-5.46-5.61s2.2-5.75,5.38-5.75c3.4,0,5.33,2.35,5.27,5.84Zm-2.83-1.18c-.08-1.64-.99-2.56-2.41-2.56-1.32,0-2.31,.84-2.58,2.56h5Z"/><path class="cls-1" d="M912.56,69.94c0-.9,.67-1.64,1.68-1.64s1.64,.74,1.64,1.64-.67,1.64-1.64,1.64-1.68-.76-1.68-1.64Zm.27,3.19h2.77v10.85h-2.77v-10.85Z"/><path class="cls-1" d="M927.81,77.14v6.84h-2.77v-6.21c0-1.78-.84-2.58-2.12-2.58s-2.25,.88-2.25,2.58v6.21h-2.77v-10.85h2.5v1.53c.71-1.2,1.87-1.78,3.42-1.78,2.27,0,3.99,1.34,3.99,4.26Z"/><path class="cls-1" d="M929.74,69.94c0-.9,.67-1.64,1.68-1.64s1.64,.74,1.64,1.64-.67,1.64-1.64,1.64-1.68-.76-1.68-1.64Zm.27,3.19h2.77v10.85h-2.77v-10.85Z"/><path class="cls-1" d="M938.56,75.42v4.83c0,1.03,.5,1.53,1.43,1.53,.38,0,.63-.02,.88-.08v2.25c-.55,.15-.86,.17-1.53,.17-2.46,0-3.55-1.39-3.55-3.74v-4.96h-1.7v-2.29h1.7v-3.07h2.77v3.07h2.31v2.29h-2.31Z"/><path class="cls-1" d="M942.2,69.94c0-.9,.67-1.64,1.68-1.64s1.64,.74,1.64,1.64-.67,1.64-1.64,1.64-1.68-.76-1.68-1.64Zm.27,3.19h2.77v10.85h-2.77v-10.85Z"/><path class="cls-1" d="M956.85,76.87v7.12h-2.5v-1.39c-.84,1.11-1.99,1.64-3.46,1.64-2.31,0-3.91-1.36-3.91-3.25s1.13-3.09,3.84-3.36l3.28-.34v-.59c0-1.22-.76-1.8-1.95-1.8-1.26,0-1.95,.5-2.16,1.57h-2.77c.29-2.35,2.04-3.59,4.89-3.59s4.75,1.24,4.75,3.99Zm-2.77,2.88v-.8l-2.6,.34c-1.15,.15-1.68,.76-1.68,1.58s.67,1.51,1.83,1.51c1.6,0,2.46-1.07,2.46-2.62Z"/><path class="cls-1" d="M961.85,83.99h-2.77v-15.12h2.77v15.12Z"/><path class="cls-1" d="M968.7,69.94c0-.9,.67-1.64,1.68-1.64s1.64,.74,1.64,1.64-.67,1.64-1.64,1.64-1.68-.76-1.68-1.64Zm.27,3.19h2.77v10.85h-2.77v-10.85Z"/><path class="cls-1" d="M984.42,68.87v15.12h-2.5v-1.83c-.69,1.37-1.91,2.08-3.57,2.08-2.58,0-4.89-2.08-4.89-5.67s2.2-5.69,4.79-5.69c1.51,0,2.67,.57,3.4,1.62v-5.63h2.77Zm-2.77,9.7c0-2.08-1.13-3.46-2.69-3.46-1.64,0-2.71,1.37-2.71,3.46s1.13,3.44,2.71,3.44,2.69-1.32,2.69-3.44Z"/><path class="cls-1" d="M996.79,78.71c0,.34-.02,.63-.02,.63h-7.85c.19,1.97,1.24,2.79,2.71,2.79,1.2,0,1.87-.52,2.18-1.32h2.75c-.48,1.93-2.2,3.42-4.96,3.42-3.46,0-5.46-2.31-5.46-5.61s2.2-5.75,5.38-5.75c3.4,0,5.33,2.35,5.27,5.84Zm-2.83-1.18c-.08-1.64-.99-2.56-2.41-2.56-1.32,0-2.31,.84-2.58,2.56h5Z"/><path class="cls-1" d="M1007.77,76.87v7.12h-2.5v-1.39c-.84,1.11-1.99,1.64-3.46,1.64-2.31,0-3.91-1.36-3.91-3.25s1.13-3.09,3.84-3.36l3.28-.34v-.59c0-1.22-.76-1.8-1.95-1.8-1.26,0-1.95,.5-2.16,1.57h-2.77c.29-2.35,2.04-3.59,4.89-3.59s4.75,1.24,4.75,3.99Zm-2.77,2.88v-.8l-2.6,.34c-1.15,.15-1.68,.76-1.68,1.58s.67,1.51,1.83,1.51c1.6,0,2.46-1.07,2.46-2.62Z"/><path class="cls-1" d="M1018.38,72.48v.65h2.58v2.29h-2.58v8.57h-2.77v-8.57h-1.7v-2.29h1.7v-.63c0-2.52,1.55-3.84,3.84-3.84,.63,0,1.18,.08,1.62,.23v2.12c-.31-.08-.65-.13-.99-.13-1.11,0-1.7,.52-1.7,1.6Z"/><path class="cls-1" d="M1021.57,78.57c0-3.49,2.39-5.69,5.52-5.69s5.5,2.2,5.5,5.69-2.39,5.67-5.5,5.67-5.52-2.18-5.52-5.67Zm8.19,0c0-2.12-1.01-3.44-2.69-3.44s-2.69,1.34-2.69,3.44,1.01,3.42,2.69,3.42,2.69-1.32,2.69-3.42Z"/><path class="cls-1" d="M1040.34,73.11v2.44c-.17-.02-.36-.04-.63-.04-1.7,0-2.62,.99-2.62,2.71v5.77h-2.77v-10.85h2.5v1.87c.52-1.3,1.6-1.97,2.88-1.97,.23,0,.42,.02,.65,.08Z"/><path class="cls-1" d="M1050.21,75.42v4.83c0,1.03,.5,1.53,1.43,1.53,.38,0,.63-.02,.88-.08v2.25c-.55,.15-.86,.17-1.53,.17-2.46,0-3.55-1.39-3.55-3.74v-4.96h-1.7v-2.29h1.7v-3.07h2.77v3.07h2.31v2.29h-2.31Z"/><path class="cls-1" d="M1064.13,77.16v6.82h-2.77v-6.28c0-1.68-.92-2.5-2.14-2.5s-2.23,.88-2.23,2.54v6.24h-2.77v-15.12h2.77v5.71c.63-1.09,1.68-1.7,3.09-1.7,2.31,0,4.05,1.47,4.05,4.28Z"/><path class="cls-1" d="M1076.42,78.71c0,.34-.02,.63-.02,.63h-7.85c.19,1.97,1.24,2.79,2.71,2.79,1.2,0,1.87-.52,2.18-1.32h2.75c-.48,1.93-2.2,3.42-4.96,3.42-3.46,0-5.46-2.31-5.46-5.61s2.2-5.75,5.38-5.75c3.4,0,5.33,2.35,5.27,5.84Zm-2.83-1.18c-.08-1.64-.99-2.56-2.41-2.56-1.32,0-2.31,.84-2.58,2.56h5Z"/><path class="cls-1" d="M1082.3,80.81h2.71c.23,.97,.99,1.47,2.31,1.47s2.02-.5,2.02-1.24c0-.63-.38-1.07-1.36-1.24l-2.33-.44c-2.2-.42-3.13-1.45-3.13-3.11,0-1.81,1.55-3.38,4.51-3.38s4.54,1.41,4.89,3.59h-2.73c-.17-1.09-.92-1.64-2.18-1.64s-1.89,.57-1.89,1.26c0,.59,.31,.99,1.45,1.18l2.29,.4c2.37,.4,3.23,1.51,3.23,3.19,0,1.8-1.43,3.38-4.75,3.38s-4.64-1.39-5.04-3.42Z"/><path class="cls-1" d="M1103.18,76.87v7.12h-2.5v-1.39c-.84,1.11-1.99,1.64-3.46,1.64-2.31,0-3.91-1.36-3.91-3.25s1.13-3.09,3.84-3.36l3.28-.34v-.59c0-1.22-.76-1.8-1.95-1.8-1.26,0-1.95,.5-2.16,1.57h-2.77c.29-2.35,2.04-3.59,4.89-3.59s4.75,1.24,4.75,3.99Zm-2.77,2.88v-.8l-2.6,.34c-1.15,.15-1.68,.76-1.68,1.58s.67,1.51,1.83,1.51c1.6,0,2.46-1.07,2.46-2.62Z"/><path class="cls-1" d="M1115.31,77.14v6.84h-2.77v-6.21c0-1.78-.84-2.58-2.12-2.58s-2.25,.88-2.25,2.58v6.21h-2.77v-10.85h2.5v1.53c.71-1.2,1.87-1.78,3.42-1.78,2.27,0,3.99,1.34,3.99,4.26Z"/><path class="cls-1" d="M1116.89,80.81h2.71c.23,.97,.99,1.47,2.31,1.47s2.02-.5,2.02-1.24c0-.63-.38-1.07-1.36-1.24l-2.33-.44c-2.2-.42-3.13-1.45-3.13-3.11,0-1.81,1.55-3.38,4.51-3.38s4.54,1.41,4.89,3.59h-2.73c-.17-1.09-.92-1.64-2.18-1.64s-1.89,.57-1.89,1.26c0,.59,.31,.99,1.45,1.18l2.29,.4c2.37,.4,3.23,1.51,3.23,3.19,0,1.8-1.43,3.38-4.75,3.38s-4.64-1.39-5.04-3.42Z"/><path class="cls-1" d="M1143.24,73.13l-3.93,10.85h-3.21l-4.03-10.85h2.88l2.79,8.12,2.65-8.12h2.86Z"/><path class="cls-1" d="M1154.1,78.71c0,.34-.02,.63-.02,.63h-7.85c.19,1.97,1.24,2.79,2.71,2.79,1.2,0,1.87-.52,2.18-1.32h2.75c-.48,1.93-2.2,3.42-4.96,3.42-3.46,0-5.46-2.31-5.46-5.61s2.2-5.75,5.38-5.75c3.4,0,5.33,2.35,5.27,5.84Zm-2.83-1.18c-.08-1.64-.99-2.56-2.41-2.56-1.32,0-2.31,.84-2.58,2.56h5Z"/><path class="cls-1" d="M1161.86,73.11v2.44c-.17-.02-.36-.04-.63-.04-1.7,0-2.62,.99-2.62,2.71v5.77h-2.77v-10.85h2.5v1.87c.52-1.3,1.6-1.97,2.88-1.97,.23,0,.42,.02,.65,.08Z"/><path class="cls-1" d="M1162.75,80.81h2.71c.23,.97,.99,1.47,2.31,1.47s2.02-.5,2.02-1.24c0-.63-.38-1.07-1.36-1.24l-2.33-.44c-2.2-.42-3.13-1.45-3.13-3.11,0-1.81,1.55-3.38,4.51-3.38s4.54,1.41,4.89,3.59h-2.73c-.17-1.09-.92-1.64-2.18-1.64s-1.89,.57-1.89,1.26c0,.59,.31,.99,1.45,1.18l2.29,.4c2.37,.4,3.23,1.51,3.23,3.19,0,1.8-1.43,3.38-4.75,3.38s-4.64-1.39-5.04-3.42Z"/><path class="cls-1" d="M1173.98,69.94c0-.9,.67-1.64,1.68-1.64s1.64,.74,1.64,1.64-.67,1.64-1.64,1.64-1.68-.76-1.68-1.64Zm.27,3.19h2.77v10.85h-2.77v-10.85Z"/><path class="cls-1" d="M1178.69,78.57c0-3.49,2.39-5.69,5.52-5.69s5.5,2.2,5.5,5.69-2.39,5.67-5.5,5.67-5.52-2.18-5.52-5.67Zm8.19,0c0-2.12-1.01-3.44-2.69-3.44s-2.69,1.34-2.69,3.44,1.01,3.42,2.69,3.42,2.69-1.32,2.69-3.42Z"/><path class="cls-1" d="M1201.35,77.14v6.84h-2.77v-6.21c0-1.78-.84-2.58-2.12-2.58s-2.25,.88-2.25,2.58v6.21h-2.77v-10.85h2.5v1.53c.71-1.2,1.87-1.78,3.42-1.78,2.27,0,3.99,1.34,3.99,4.26Z"/><path class="cls-1" d="M1207.74,78.57c0-3.49,2.39-5.69,5.52-5.69s5.5,2.2,5.5,5.69-2.39,5.67-5.5,5.67-5.52-2.18-5.52-5.67Zm8.19,0c0-2.12-1.01-3.44-2.69-3.44s-2.69,1.34-2.69,3.44,1.01,3.42,2.69,3.42,2.69-1.32,2.69-3.42Z"/><path class="cls-1" d="M1223.92,72.48v.65h2.58v2.29h-2.58v8.57h-2.77v-8.57h-1.7v-2.29h1.7v-.63c0-2.52,1.55-3.84,3.84-3.84,.63,0,1.18,.08,1.62,.23v2.12c-.31-.08-.65-.13-.99-.13-1.11,0-1.7,.52-1.7,1.6Z"/><path class="cls-1" d="M1241.68,83.99l-5.88-6.97v6.97h-2.9v-14.26h2.9v5.84l5.86-5.84h3.38l-6.4,6.47,6.49,7.79h-3.44Z"/><path class="cls-1" d="M1255.34,73.13v10.85h-2.48v-1.64c-.73,1.24-1.91,1.89-3.38,1.89-2.44,0-3.84-1.41-3.84-3.99v-7.12h2.77v6.74c0,1.3,.67,2.06,1.89,2.06,1.36,0,2.27-.97,2.27-2.46v-6.34h2.77Z"/><path class="cls-1" d="M1268.59,78.57c0,3.59-2.33,5.67-4.91,5.67-1.43,0-2.52-.57-3.28-1.58v5.27h-2.77v-14.8h2.5v1.76c.73-1.28,1.95-2.02,3.67-2.02,2.58,0,4.79,2.04,4.79,5.69Zm-2.81,0c0-2.08-1.07-3.46-2.71-3.46s-2.67,1.41-2.67,3.46,1.11,3.44,2.67,3.44,2.71-1.34,2.71-3.44Z"/><path class="cls-1" d="M1281.28,78.57c0,3.59-2.33,5.67-4.91,5.67-1.43,0-2.52-.57-3.28-1.58v5.27h-2.77v-14.8h2.5v1.76c.73-1.28,1.95-2.02,3.67-2.02,2.58,0,4.79,2.04,4.79,5.69Zm-2.81,0c0-2.08-1.07-3.46-2.71-3.46s-2.67,1.41-2.67,3.46,1.11,3.44,2.67,3.44,2.71-1.34,2.71-3.44Z"/><path class="cls-1" d="M1292.29,76.87v7.12h-2.5v-1.39c-.84,1.11-1.99,1.64-3.46,1.64-2.31,0-3.91-1.36-3.91-3.25s1.13-3.09,3.84-3.36l3.28-.34v-.59c0-1.22-.76-1.8-1.95-1.8-1.26,0-1.95,.5-2.16,1.57h-2.77c.29-2.35,2.04-3.59,4.89-3.59s4.75,1.24,4.75,3.99Zm-2.77,2.88v-.8l-2.6,.34c-1.15,.15-1.68,.76-1.68,1.58s.67,1.51,1.83,1.51c1.6,0,2.46-1.07,2.46-2.62Z"/><path class="cls-1" d="M91.08,102.13l-3.34,10.85h-3.3l-2.29-7.6-2.2,7.6h-3.3l-3.32-10.85h2.88l2.2,8.1,2.29-8.1h3.09l2.31,8.1,2.14-8.1h2.83Z"/><path class="cls-1" d="M101.48,105.87v7.12h-2.5v-1.39c-.84,1.11-1.99,1.64-3.46,1.64-2.31,0-3.91-1.36-3.91-3.25s1.13-3.09,3.84-3.36l3.28-.34v-.59c0-1.22-.76-1.8-1.95-1.8-1.26,0-1.95,.5-2.16,1.57h-2.77c.29-2.35,2.04-3.59,4.89-3.59s4.75,1.24,4.75,3.99Zm-2.77,2.88v-.8l-2.6,.34c-1.15,.15-1.68,.76-1.68,1.58s.67,1.51,1.83,1.51c1.6,0,2.46-1.07,2.46-2.62Z"/><path class="cls-1" d="M103.06,109.81h2.71c.23,.97,.99,1.47,2.31,1.47s2.02-.5,2.02-1.24c0-.63-.38-1.07-1.36-1.24l-2.33-.44c-2.2-.42-3.13-1.45-3.13-3.11,0-1.81,1.55-3.38,4.51-3.38s4.54,1.41,4.89,3.59h-2.73c-.17-1.09-.92-1.64-2.18-1.64s-1.89,.57-1.89,1.26c0,.59,.31,.99,1.45,1.18l2.29,.4c2.37,.4,3.23,1.51,3.23,3.19,0,1.8-1.43,3.38-4.75,3.38s-4.64-1.39-5.04-3.42Z"/><path class="cls-1" d="M122.95,104.42v4.83c0,1.03,.5,1.53,1.43,1.53,.38,0,.63-.02,.88-.08v2.25c-.55,.15-.86,.17-1.53,.17-2.46,0-3.55-1.39-3.55-3.74v-4.96h-1.7v-2.29h1.7v-3.07h2.77v3.07h2.31v2.29h-2.31Z"/><path class="cls-1" d="M126.04,107.57c0-3.49,2.39-5.69,5.52-5.69s5.5,2.2,5.5,5.69-2.39,5.67-5.5,5.67-5.52-2.18-5.52-5.67Zm8.19,0c0-2.12-1.01-3.44-2.69-3.44s-2.69,1.34-2.69,3.44,1.01,3.42,2.69,3.42,2.69-1.32,2.69-3.42Z"/><path class="cls-1" d="M153.61,107.71c0,.34-.02,.63-.02,.63h-7.85c.19,1.97,1.24,2.79,2.71,2.79,1.2,0,1.87-.52,2.18-1.32h2.75c-.48,1.93-2.2,3.42-4.96,3.42-3.46,0-5.46-2.31-5.46-5.61s2.2-5.75,5.38-5.75c3.4,0,5.33,2.35,5.27,5.84Zm-2.83-1.18c-.08-1.64-.99-2.56-2.41-2.56-1.32,0-2.31,.84-2.58,2.56h5Z"/><path class="cls-1" d="M162.01,112.99l-2.62-3.99-2.56,3.99h-3.09l3.97-5.67-3.8-5.19h3.09l2.39,3.4,2.39-3.4h3.11l-3.8,5.19,4.01,5.67h-3.09Z"/><path class="cls-1" d="M177.2,107.57c0,3.59-2.33,5.67-4.91,5.67-1.43,0-2.52-.57-3.28-1.58v5.27h-2.77v-14.8h2.5v1.76c.73-1.28,1.95-2.02,3.67-2.02,2.58,0,4.79,2.04,4.79,5.69Zm-2.81,0c0-2.08-1.07-3.46-2.71-3.46s-2.67,1.41-2.67,3.46,1.11,3.44,2.67,3.44,2.71-1.34,2.71-3.44Z"/><path class="cls-1" d="M189.01,107.71c0,.34-.02,.63-.02,.63h-7.85c.19,1.97,1.24,2.79,2.71,2.79,1.2,0,1.87-.52,2.18-1.32h2.75c-.48,1.93-2.2,3.42-4.96,3.42-3.46,0-5.46-2.31-5.46-5.61s2.2-5.75,5.38-5.75c3.4,0,5.33,2.35,5.27,5.84Zm-2.83-1.18c-.08-1.64-.99-2.56-2.41-2.56-1.32,0-2.31,.84-2.58,2.56h5Z"/><path class="cls-1" d="M196.77,102.11v2.44c-.17-.02-.36-.04-.63-.04-1.7,0-2.62,.99-2.62,2.71v5.77h-2.77v-10.85h2.5v1.87c.52-1.3,1.6-1.97,2.88-1.97,.23,0,.42,.02,.65,.08Z"/><path class="cls-1" d="M197.81,98.94c0-.9,.67-1.64,1.68-1.64s1.64,.74,1.64,1.64-.67,1.64-1.64,1.64-1.68-.76-1.68-1.64Zm.27,3.19h2.77v10.85h-2.77v-10.85Z"/><path class="cls-1" d="M219.77,106.18v6.8h-2.77v-6.24c0-1.7-.84-2.48-2.02-2.48s-2.14,.8-2.14,2.35v6.36h-2.77v-6.24c0-1.7-.84-2.48-2.02-2.48s-2.12,.78-2.12,2.35v6.36h-2.77v-10.85h2.5v1.51c.69-1.18,1.87-1.76,3.32-1.76,1.55,0,2.75,.71,3.38,1.99,.73-1.32,1.97-1.99,3.51-1.99,2.37,0,3.91,1.6,3.91,4.3Z"/><path class="cls-1" d="M232.08,107.71c0,.34-.02,.63-.02,.63h-7.85c.19,1.97,1.24,2.79,2.71,2.79,1.2,0,1.87-.52,2.18-1.32h2.75c-.48,1.93-2.2,3.42-4.96,3.42-3.46,0-5.46-2.31-5.46-5.61s2.2-5.75,5.38-5.75c3.4,0,5.33,2.35,5.27,5.84Zm-2.83-1.18c-.08-1.64-.99-2.56-2.41-2.56-1.32,0-2.31,.84-2.58,2.56h5Z"/><path class="cls-1" d="M243.73,106.14v6.84h-2.77v-6.21c0-1.78-.84-2.58-2.12-2.58s-2.25,.88-2.25,2.58v6.21h-2.77v-10.85h2.5v1.53c.71-1.2,1.87-1.78,3.42-1.78,2.27,0,3.99,1.34,3.99,4.26Z"/><path class="cls-1" d="M249.37,104.42v4.83c0,1.03,.5,1.53,1.43,1.53,.38,0,.63-.02,.88-.08v2.25c-.55,.15-.86,.17-1.53,.17-2.46,0-3.55-1.39-3.55-3.74v-4.96h-1.7v-2.29h1.7v-3.07h2.77v3.07h2.31v2.29h-2.31Z"/><path class="cls-1" d="M274.98,102.13l-3.34,10.85h-3.3l-2.29-7.6-2.2,7.6h-3.3l-3.32-10.85h2.88l2.2,8.1,2.29-8.1h3.09l2.31,8.1,2.14-8.1h2.83Z"/><path class="cls-1" d="M276.05,98.94c0-.9,.67-1.64,1.68-1.64s1.64,.74,1.64,1.64-.67,1.64-1.64,1.64-1.68-.76-1.68-1.64Zm.27,3.19h2.77v10.85h-2.77v-10.85Z"/><path class="cls-1" d="M284.86,104.42v4.83c0,1.03,.5,1.53,1.43,1.53,.38,0,.63-.02,.88-.08v2.25c-.55,.15-.86,.17-1.53,.17-2.46,0-3.55-1.39-3.55-3.74v-4.96h-1.7v-2.29h1.7v-3.07h2.77v3.07h2.31v2.29h-2.31Z"/><path class="cls-1" d="M298.78,106.16v6.82h-2.77v-6.28c0-1.68-.92-2.5-2.14-2.5s-2.23,.88-2.23,2.54v6.24h-2.77v-15.12h2.77v5.71c.63-1.09,1.68-1.7,3.09-1.7,2.31,0,4.05,1.47,4.05,4.28Z"/><path class="cls-1" d="M309.36,104.42v4.83c0,1.03,.5,1.53,1.43,1.53,.38,0,.63-.02,.88-.08v2.25c-.55,.15-.86,.17-1.53,.17-2.46,0-3.55-1.39-3.55-3.74v-4.96h-1.7v-2.29h1.7v-3.07h2.77v3.07h2.31v2.29h-2.31Z"/><path class="cls-1" d="M323.28,106.16v6.82h-2.77v-6.28c0-1.68-.92-2.5-2.14-2.5s-2.23,.88-2.23,2.54v6.24h-2.77v-15.12h2.77v5.71c.63-1.09,1.68-1.7,3.09-1.7,2.31,0,4.05,1.47,4.05,4.28Z"/><path class="cls-1" d="M335.56,107.71c0,.34-.02,.63-.02,.63h-7.85c.19,1.97,1.24,2.79,2.71,2.79,1.2,0,1.87-.52,2.18-1.32h2.75c-.48,1.93-2.2,3.42-4.96,3.42-3.46,0-5.46-2.31-5.46-5.61s2.2-5.75,5.38-5.75c3.4,0,5.33,2.35,5.27,5.84Zm-2.83-1.18c-.08-1.64-.99-2.56-2.41-2.56-1.32,0-2.31,.84-2.58,2.56h5Z"/><path class="cls-1" d="M351.99,106.16v6.82h-2.77v-6.28c0-1.68-.92-2.5-2.14-2.5s-2.23,.88-2.23,2.54v6.24h-2.77v-15.12h2.77v5.71c.63-1.09,1.68-1.7,3.09-1.7,2.31,0,4.05,1.47,4.05,4.28Z"/><path class="cls-1" d="M353.59,107.57c0-3.49,2.39-5.69,5.52-5.69s5.5,2.2,5.5,5.69-2.39,5.67-5.5,5.67-5.52-2.18-5.52-5.67Zm8.19,0c0-2.12-1.01-3.44-2.69-3.44s-2.69,1.34-2.69,3.44,1.01,3.42,2.69,3.42,2.69-1.32,2.69-3.42Z"/><path class="cls-1" d="M372.37,102.11v2.44c-.17-.02-.36-.04-.63-.04-1.7,0-2.62,.99-2.62,2.71v5.77h-2.77v-10.85h2.5v1.87c.52-1.3,1.6-1.97,2.88-1.97,.23,0,.42,.02,.65,.08Z"/><path class="cls-1" d="M373.42,98.94c0-.9,.67-1.64,1.68-1.64s1.64,.74,1.64,1.64-.67,1.64-1.64,1.64-1.68-.76-1.68-1.64Zm.27,3.19h2.77v10.85h-2.77v-10.85Z"/><path class="cls-1" d="M387.07,110.7v2.29h-9.03v-2.18l5.42-6.38h-5.21v-2.29h8.76v2.16l-5.42,6.4h5.48Z"/><path class="cls-1" d="M388.05,107.57c0-3.49,2.39-5.69,5.52-5.69s5.5,2.2,5.5,5.69-2.39,5.67-5.5,5.67-5.52-2.18-5.52-5.67Zm8.19,0c0-2.12-1.01-3.44-2.69-3.44s-2.69,1.34-2.69,3.44,1.01,3.42,2.69,3.42,2.69-1.32,2.69-3.42Z"/><path class="cls-1" d="M410.71,106.14v6.84h-2.77v-6.21c0-1.78-.84-2.58-2.12-2.58s-2.25,.88-2.25,2.58v6.21h-2.77v-10.85h2.5v1.53c.71-1.2,1.87-1.78,3.42-1.78,2.27,0,3.99,1.34,3.99,4.26Z"/><path class="cls-1" d="M416.34,104.42v4.83c0,1.03,.5,1.53,1.43,1.53,.38,0,.63-.02,.88-.08v2.25c-.55,.15-.86,.17-1.53,.17-2.46,0-3.55-1.39-3.55-3.74v-4.96h-1.7v-2.29h1.7v-3.07h2.77v3.07h2.31v2.29h-2.31Z"/><path class="cls-1" d="M429.65,105.87v7.12h-2.5v-1.39c-.84,1.11-1.99,1.64-3.46,1.64-2.31,0-3.91-1.36-3.91-3.25s1.13-3.09,3.84-3.36l3.28-.34v-.59c0-1.22-.76-1.8-1.95-1.8-1.26,0-1.95,.5-2.16,1.57h-2.77c.29-2.35,2.04-3.59,4.89-3.59s4.75,1.24,4.75,3.99Zm-2.77,2.88v-.8l-2.6,.34c-1.15,.15-1.68,.76-1.68,1.58s.67,1.51,1.83,1.51c1.6,0,2.46-1.07,2.46-2.62Z"/><path class="cls-1" d="M434.65,112.99h-2.77v-15.12h2.77v15.12Z"/><path class="cls-1" d="M441.12,109.81h2.71c.23,.97,.99,1.47,2.31,1.47s2.02-.5,2.02-1.24c0-.63-.38-1.07-1.36-1.24l-2.33-.44c-2.2-.42-3.13-1.45-3.13-3.11,0-1.81,1.55-3.38,4.51-3.38s4.54,1.41,4.89,3.59h-2.73c-.17-1.09-.92-1.64-2.18-1.64s-1.89,.57-1.89,1.26c0,.59,.31,.99,1.45,1.18l2.29,.4c2.37,.4,3.23,1.51,3.23,3.19,0,1.8-1.43,3.38-4.75,3.38s-4.64-1.39-5.04-3.42Z"/><path class="cls-1" d="M456.2,104.42v4.83c0,1.03,.5,1.53,1.43,1.53,.38,0,.63-.02,.88-.08v2.25c-.55,.15-.86,.17-1.53,.17-2.46,0-3.55-1.39-3.55-3.74v-4.96h-1.7v-2.29h1.7v-3.07h2.77v3.07h2.31v2.29h-2.31Z"/><path class="cls-1" d="M466.23,102.11v2.44c-.17-.02-.36-.04-.63-.04-1.7,0-2.62,.99-2.62,2.71v5.77h-2.77v-10.85h2.5v1.87c.52-1.3,1.6-1.97,2.88-1.97,.23,0,.42,.02,.65,.08Z"/><path class="cls-1" d="M477.61,107.71c0,.34-.02,.63-.02,.63h-7.85c.19,1.97,1.24,2.79,2.71,2.79,1.2,0,1.87-.52,2.18-1.32h2.75c-.48,1.93-2.2,3.42-4.96,3.42-3.46,0-5.46-2.31-5.46-5.61s2.2-5.75,5.38-5.75c3.4,0,5.33,2.35,5.27,5.84Zm-2.83-1.18c-.08-1.64-.99-2.56-2.41-2.56-1.32,0-2.31,.84-2.58,2.56h5Z"/><path class="cls-1" d="M478.67,109.81h2.71c.23,.97,.99,1.47,2.31,1.47s2.02-.5,2.02-1.24c0-.63-.38-1.07-1.36-1.24l-2.33-.44c-2.2-.42-3.13-1.45-3.13-3.11,0-1.81,1.55-3.38,4.51-3.38s4.54,1.41,4.89,3.59h-2.73c-.17-1.09-.92-1.64-2.18-1.64s-1.89,.57-1.89,1.26c0,.59,.31,.99,1.45,1.18l2.29,.4c2.37,.4,3.23,1.51,3.23,3.19,0,1.8-1.43,3.38-4.75,3.38s-4.64-1.39-5.04-3.42Z"/><path class="cls-1" d="M489.58,109.81h2.71c.23,.97,.99,1.47,2.31,1.47s2.02-.5,2.02-1.24c0-.63-.38-1.07-1.36-1.24l-2.33-.44c-2.2-.42-3.13-1.45-3.13-3.11,0-1.81,1.55-3.38,4.51-3.38s4.54,1.41,4.89,3.59h-2.73c-.17-1.09-.92-1.64-2.18-1.64s-1.89,.57-1.89,1.26c0,.59,.31,.99,1.45,1.18l2.29,.4c2.37,.4,3.23,1.51,3.23,3.19,0,1.8-1.43,3.38-4.75,3.38s-4.64-1.39-5.04-3.42Z"/><path class="cls-1" d="M502.78,115.78h-1.87c.59-1.11,.9-1.85,1.15-2.67l-.19-.11c-.65-.29-.99-.82-.99-1.55,0-.97,.78-1.76,1.78-1.76s1.78,.76,1.78,1.8-.31,2.08-1.68,4.28Z"/><path class="cls-1" d="M527.81,106.18v6.8h-2.77v-6.24c0-1.7-.84-2.48-2.02-2.48s-2.14,.8-2.14,2.35v6.36h-2.77v-6.24c0-1.7-.84-2.48-2.02-2.48s-2.12,.78-2.12,2.35v6.36h-2.77v-10.85h2.5v1.51c.69-1.18,1.87-1.76,3.32-1.76,1.55,0,2.75,.71,3.38,1.99,.73-1.32,1.97-1.99,3.51-1.99,2.37,0,3.91,1.6,3.91,4.3Z"/><path class="cls-1" d="M539.39,105.87v7.12h-2.5v-1.39c-.84,1.11-1.99,1.64-3.46,1.64-2.31,0-3.91-1.36-3.91-3.25s1.13-3.09,3.84-3.36l3.28-.34v-.59c0-1.22-.76-1.8-1.95-1.8-1.26,0-1.95,.5-2.16,1.57h-2.77c.29-2.35,2.04-3.59,4.89-3.59s4.75,1.24,4.75,3.99Zm-2.77,2.88v-.8l-2.6,.34c-1.15,.15-1.68,.76-1.68,1.58s.67,1.51,1.83,1.51c1.6,0,2.46-1.07,2.46-2.62Z"/><path class="cls-1" d="M548.68,112.99l-4.3-5.35v5.35h-2.77v-15.12h2.77v8.4l4.2-4.14h3.07l-4.72,4.77,4.93,6.09h-3.17Z"/><path class="cls-1" d="M552.72,98.94c0-.9,.67-1.64,1.68-1.64s1.64,.74,1.64,1.64-.67,1.64-1.64,1.64-1.68-.76-1.68-1.64Zm.27,3.19h2.77v10.85h-2.77v-10.85Z"/><path class="cls-1" d="M567.97,106.14v6.84h-2.77v-6.21c0-1.78-.84-2.58-2.12-2.58s-2.25,.88-2.25,2.58v6.21h-2.77v-10.85h2.5v1.53c.71-1.2,1.87-1.78,3.42-1.78,2.27,0,3.99,1.34,3.99,4.26Z"/><path class="cls-1" d="M580.52,102.13v10.31c0,2.6-1.53,4.75-5.38,4.75s-5.17-1.66-5.4-3.84h2.92c.1,1.11,.76,1.83,2.48,1.83s2.62-.9,2.62-2.62v-1.72c-.76,1.16-1.87,1.66-3.34,1.66-2.67,0-4.85-2.04-4.85-5.31s2.16-5.29,4.85-5.29c1.55,0,2.79,.65,3.55,1.85v-1.6h2.54Zm-2.75,5.04c0-1.87-1.18-3.09-2.71-3.09s-2.69,1.22-2.69,3.09,1.18,3.11,2.69,3.11,2.71-1.28,2.71-3.11Z"/><path class="cls-1" d="M596.94,105.87v7.12h-2.5v-1.39c-.84,1.11-1.99,1.64-3.46,1.64-2.31,0-3.91-1.36-3.91-3.25s1.13-3.09,3.84-3.36l3.28-.34v-.59c0-1.22-.76-1.8-1.95-1.8-1.26,0-1.95,.5-2.16,1.57h-2.77c.29-2.35,2.04-3.59,4.89-3.59s4.75,1.24,4.75,3.99Zm-2.77,2.88v-.8l-2.6,.34c-1.15,.15-1.68,.76-1.68,1.58s.67,1.51,1.83,1.51c1.6,0,2.46-1.07,2.46-2.62Z"/><path class="cls-1" d="M620.52,106.18v6.8h-2.77v-6.24c0-1.7-.84-2.48-2.02-2.48s-2.14,.8-2.14,2.35v6.36h-2.77v-6.24c0-1.7-.84-2.48-2.02-2.48s-2.12,.78-2.12,2.35v6.36h-2.77v-10.85h2.5v1.51c.69-1.18,1.87-1.76,3.32-1.76,1.55,0,2.75,.71,3.38,1.99,.73-1.32,1.97-1.99,3.51-1.99,2.37,0,3.91,1.6,3.91,4.3Z"/><path class="cls-1" d="M622.16,107.57c0-3.49,2.39-5.69,5.52-5.69s5.5,2.2,5.5,5.69-2.39,5.67-5.5,5.67-5.52-2.18-5.52-5.67Zm8.19,0c0-2.12-1.01-3.44-2.69-3.44s-2.69,1.34-2.69,3.44,1.01,3.42,2.69,3.42,2.69-1.32,2.69-3.42Z"/><path class="cls-1" d="M640.94,102.11v2.44c-.17-.02-.36-.04-.63-.04-1.7,0-2.62,.99-2.62,2.71v5.77h-2.77v-10.85h2.5v1.87c.52-1.3,1.6-1.97,2.88-1.97,.23,0,.42,.02,.65,.08Z"/><path class="cls-1" d="M652.32,107.71c0,.34-.02,.63-.02,.63h-7.85c.19,1.97,1.24,2.79,2.71,2.79,1.2,0,1.87-.52,2.18-1.32h2.75c-.48,1.93-2.2,3.42-4.96,3.42-3.46,0-5.46-2.31-5.46-5.61s2.2-5.75,5.38-5.75c3.4,0,5.33,2.35,5.27,5.84Zm-2.83-1.18c-.08-1.64-.99-2.56-2.41-2.56-1.32,0-2.31,.84-2.58,2.56h5Z"/><path class="cls-1" d="M658.24,107.55c0-3.53,2.29-5.67,5.42-5.67s4.72,1.7,5.08,4.07h-2.81c-.25-1.22-.99-1.83-2.29-1.83-1.57,0-2.58,1.26-2.58,3.4s.97,3.46,2.6,3.46c1.32,0,1.99-.63,2.27-1.83h2.79c-.36,2.41-2.1,4.07-5.06,4.07-3.13,0-5.42-2.14-5.42-5.69Z"/><path class="cls-1" d="M669.86,107.57c0-3.49,2.39-5.69,5.52-5.69s5.5,2.2,5.5,5.69-2.39,5.67-5.5,5.67-5.52-2.18-5.52-5.67Zm8.19,0c0-2.12-1.01-3.44-2.69-3.44s-2.69,1.34-2.69,3.44,1.01,3.42,2.69,3.42,2.69-1.32,2.69-3.42Z"/><path class="cls-1" d="M692.52,106.14v6.84h-2.77v-6.21c0-1.78-.84-2.58-2.12-2.58s-2.25,.88-2.25,2.58v6.21h-2.77v-10.85h2.5v1.53c.71-1.2,1.87-1.78,3.42-1.78,2.27,0,3.99,1.34,3.99,4.26Z"/><path class="cls-1" d="M698.16,104.42v4.83c0,1.03,.5,1.53,1.43,1.53,.38,0,.63-.02,.88-.08v2.25c-.55,.15-.86,.17-1.53,.17-2.46,0-3.55-1.39-3.55-3.74v-4.96h-1.7v-2.29h1.7v-3.07h2.77v3.07h2.31v2.29h-2.31Z"/><path class="cls-1" d="M711.96,107.71c0,.34-.02,.63-.02,.63h-7.85c.19,1.97,1.24,2.79,2.71,2.79,1.2,0,1.87-.52,2.18-1.32h2.75c-.48,1.93-2.2,3.42-4.96,3.42-3.46,0-5.46-2.31-5.46-5.61s2.2-5.75,5.38-5.75c3.4,0,5.33,2.35,5.27,5.84Zm-2.83-1.18c-.08-1.64-.99-2.56-2.41-2.56-1.32,0-2.31,.84-2.58,2.56h5Z"/><path class="cls-1" d="M730.3,106.18v6.8h-2.77v-6.24c0-1.7-.84-2.48-2.02-2.48s-2.14,.8-2.14,2.35v6.36h-2.77v-6.24c0-1.7-.84-2.48-2.02-2.48s-2.12,.78-2.12,2.35v6.36h-2.77v-10.85h2.5v1.51c.69-1.18,1.87-1.76,3.32-1.76,1.55,0,2.75,.71,3.38,1.99,.73-1.32,1.97-1.99,3.51-1.99,2.37,0,3.91,1.6,3.91,4.3Z"/><path class="cls-1" d="M743.5,107.57c0,3.59-2.33,5.67-4.91,5.67-1.43,0-2.52-.57-3.28-1.58v5.27h-2.77v-14.8h2.5v1.76c.73-1.28,1.95-2.02,3.67-2.02,2.58,0,4.79,2.04,4.79,5.69Zm-2.81,0c0-2.08-1.07-3.46-2.71-3.46s-2.67,1.41-2.67,3.46,1.11,3.44,2.67,3.44,2.71-1.34,2.71-3.44Z"/><path class="cls-1" d="M744.66,107.57c0-3.49,2.39-5.69,5.52-5.69s5.5,2.2,5.5,5.69-2.39,5.67-5.5,5.67-5.52-2.18-5.52-5.67Zm8.19,0c0-2.12-1.01-3.44-2.69-3.44s-2.69,1.34-2.69,3.44,1.01,3.42,2.69,3.42,2.69-1.32,2.69-3.42Z"/><path class="cls-1" d="M763.44,102.11v2.44c-.17-.02-.36-.04-.63-.04-1.7,0-2.62,.99-2.62,2.71v5.77h-2.77v-10.85h2.5v1.87c.52-1.3,1.6-1.97,2.88-1.97,.23,0,.42,.02,.65,.08Z"/><path class="cls-1" d="M774.19,105.87v7.12h-2.5v-1.39c-.84,1.11-1.99,1.64-3.46,1.64-2.31,0-3.91-1.36-3.91-3.25s1.13-3.09,3.84-3.36l3.28-.34v-.59c0-1.22-.76-1.8-1.95-1.8-1.26,0-1.95,.5-2.16,1.57h-2.77c.29-2.35,2.04-3.59,4.89-3.59s4.75,1.24,4.75,3.99Zm-2.77,2.88v-.8l-2.6,.34c-1.15,.15-1.68,.76-1.68,1.58s.67,1.51,1.83,1.51c1.6,0,2.46-1.07,2.46-2.62Z"/><path class="cls-1" d="M782.44,102.11v2.44c-.17-.02-.36-.04-.63-.04-1.7,0-2.62,.99-2.62,2.71v5.77h-2.77v-10.85h2.5v1.87c.52-1.3,1.6-1.97,2.88-1.97,.23,0,.42,.02,.65,.08Z"/><path class="cls-1" d="M794.41,102.13l-6.4,14.8h-2.94l2.29-4.91-4.16-9.89h2.94l2.65,7.12,2.81-7.12h2.81Z"/><path class="cls-1" d="M809.62,105.87v7.12h-2.5v-1.39c-.84,1.11-1.99,1.64-3.46,1.64-2.31,0-3.91-1.36-3.91-3.25s1.13-3.09,3.84-3.36l3.28-.34v-.59c0-1.22-.76-1.8-1.95-1.8-1.26,0-1.95,.5-2.16,1.57h-2.77c.29-2.35,2.04-3.59,4.89-3.59s4.75,1.24,4.75,3.99Zm-2.77,2.88v-.8l-2.6,.34c-1.15,.15-1.68,.76-1.68,1.58s.67,1.51,1.83,1.51c1.6,0,2.46-1.07,2.46-2.62Z"/><path class="cls-1" d="M821.75,106.14v6.84h-2.77v-6.21c0-1.78-.84-2.58-2.12-2.58s-2.25,.88-2.25,2.58v6.21h-2.77v-10.85h2.5v1.53c.71-1.2,1.87-1.78,3.42-1.78,2.27,0,3.99,1.34,3.99,4.26Z"/><path class="cls-1" d="M834.36,97.87v15.12h-2.5v-1.83c-.69,1.37-1.91,2.08-3.57,2.08-2.58,0-4.89-2.08-4.89-5.67s2.2-5.69,4.79-5.69c1.51,0,2.67,.57,3.4,1.62v-5.63h2.77Zm-2.77,9.7c0-2.08-1.13-3.46-2.69-3.46-1.64,0-2.71,1.37-2.71,3.46s1.13,3.44,2.71,3.44,2.69-1.32,2.69-3.44Z"/><path class="cls-1" d="M844.21,112.99h-2.77v-15.12h2.77v15.12Z"/><path class="cls-1" d="M856.59,107.71c0,.34-.02,.63-.02,.63h-7.85c.19,1.97,1.24,2.79,2.71,2.79,1.2,0,1.87-.52,2.18-1.32h2.75c-.48,1.93-2.2,3.42-4.96,3.42-3.46,0-5.46-2.31-5.46-5.61s2.2-5.75,5.38-5.75c3.4,0,5.33,2.35,5.27,5.84Zm-2.83-1.18c-.08-1.64-.99-2.56-2.41-2.56-1.32,0-2.31,.84-2.58,2.56h5Z"/><path class="cls-1" d="M857.66,109.81h2.71c.23,.97,.99,1.47,2.31,1.47s2.02-.5,2.02-1.24c0-.63-.38-1.07-1.36-1.24l-2.33-.44c-2.2-.42-3.13-1.45-3.13-3.11,0-1.81,1.55-3.38,4.51-3.38s4.54,1.41,4.89,3.59h-2.73c-.17-1.09-.92-1.64-2.18-1.64s-1.89,.57-1.89,1.26c0,.59,.31,.99,1.45,1.18l2.29,.4c2.37,.4,3.23,1.51,3.23,3.19,0,1.8-1.43,3.38-4.75,3.38s-4.64-1.39-5.04-3.42Z"/><path class="cls-1" d="M868.57,109.81h2.71c.23,.97,.99,1.47,2.31,1.47s2.02-.5,2.02-1.24c0-.63-.38-1.07-1.36-1.24l-2.33-.44c-2.2-.42-3.13-1.45-3.13-3.11,0-1.81,1.55-3.38,4.51-3.38s4.54,1.41,4.89,3.59h-2.73c-.17-1.09-.92-1.64-2.18-1.64s-1.89,.57-1.89,1.26c0,.59,.31,.99,1.45,1.18l2.29,.4c2.37,.4,3.23,1.51,3.23,3.19,0,1.8-1.43,3.38-4.75,3.38s-4.64-1.39-5.04-3.42Z"/><path class="cls-1" d="M884.21,109.81h2.71c.23,.97,.99,1.47,2.31,1.47s2.02-.5,2.02-1.24c0-.63-.38-1.07-1.36-1.24l-2.33-.44c-2.2-.42-3.13-1.45-3.13-3.11,0-1.81,1.55-3.38,4.51-3.38s4.54,1.41,4.89,3.59h-2.73c-.17-1.09-.92-1.64-2.18-1.64s-1.89,.57-1.89,1.26c0,.59,.31,.99,1.45,1.18l2.29,.4c2.37,.4,3.23,1.51,3.23,3.19,0,1.8-1.43,3.38-4.75,3.38s-4.64-1.39-5.04-3.42Z"/><path class="cls-1" d="M905.34,102.13v10.85h-2.48v-1.64c-.73,1.24-1.91,1.89-3.38,1.89-2.44,0-3.84-1.41-3.84-3.99v-7.12h2.77v6.74c0,1.3,.67,2.06,1.89,2.06,1.36,0,2.27-.97,2.27-2.46v-6.34h2.77Z"/><path class="cls-1" d="M918.57,107.57c0,3.59-2.31,5.67-4.89,5.67-1.55,0-2.75-.69-3.51-1.89v1.64h-2.54v-15.12h2.75v5.63c.73-1.05,1.89-1.62,3.4-1.62,2.58,0,4.79,2.04,4.79,5.69Zm-2.79,0c0-2.1-1.07-3.46-2.71-3.46s-2.69,1.39-2.69,3.46,1.11,3.44,2.69,3.44,2.71-1.34,2.71-3.44Z"/><path class="cls-1" d="M923.77,104.42v4.83c0,1.03,.5,1.53,1.43,1.53,.38,0,.63-.02,.88-.08v2.25c-.55,.15-.86,.17-1.53,.17-2.46,0-3.55-1.39-3.55-3.74v-4.96h-1.7v-2.29h1.7v-3.07h2.77v3.07h2.31v2.29h-2.31Z"/><path class="cls-1" d="M930.61,112.99h-2.77v-15.12h2.77v15.12Z"/><path class="cls-1" d="M942.99,107.71c0,.34-.02,.63-.02,.63h-7.85c.19,1.97,1.24,2.79,2.71,2.79,1.2,0,1.87-.52,2.18-1.32h2.75c-.48,1.93-2.2,3.42-4.96,3.42-3.46,0-5.46-2.31-5.46-5.61s2.2-5.75,5.38-5.75c3.4,0,5.33,2.35,5.27,5.84Zm-2.83-1.18c-.08-1.64-.99-2.56-2.41-2.56-1.32,0-2.31,.84-2.58,2.56h5Z"/><path class="cls-1" d="M948.92,107.55c0-3.53,2.29-5.67,5.42-5.67s4.72,1.7,5.08,4.07h-2.81c-.25-1.22-.99-1.83-2.29-1.83-1.57,0-2.58,1.26-2.58,3.4s.97,3.46,2.6,3.46c1.32,0,1.99-.63,2.27-1.83h2.79c-.36,2.41-2.1,4.07-5.06,4.07-3.13,0-5.42-2.14-5.42-5.69Z"/><path class="cls-1" d="M960.54,107.57c0-3.49,2.39-5.69,5.52-5.69s5.5,2.2,5.5,5.69-2.39,5.67-5.5,5.67-5.52-2.18-5.52-5.67Zm8.19,0c0-2.12-1.01-3.44-2.69-3.44s-2.69,1.34-2.69,3.44,1.01,3.42,2.69,3.42,2.69-1.32,2.69-3.42Z"/><path class="cls-1" d="M989.9,106.18v6.8h-2.77v-6.24c0-1.7-.84-2.48-2.02-2.48s-2.14,.8-2.14,2.35v6.36h-2.77v-6.24c0-1.7-.84-2.48-2.02-2.48s-2.12,.78-2.12,2.35v6.36h-2.77v-10.85h2.5v1.51c.69-1.18,1.87-1.76,3.32-1.76,1.55,0,2.75,.71,3.38,1.99,.73-1.32,1.97-1.99,3.51-1.99,2.37,0,3.91,1.6,3.91,4.3Z"/><path class="cls-1" d="M1003.11,107.57c0,3.59-2.33,5.67-4.91,5.67-1.43,0-2.52-.57-3.28-1.58v5.27h-2.77v-14.8h2.5v1.76c.73-1.28,1.95-2.02,3.67-2.02,2.58,0,4.79,2.04,4.79,5.69Zm-2.81,0c0-2.08-1.07-3.46-2.71-3.46s-2.67,1.41-2.67,3.46,1.11,3.44,2.67,3.44,2.71-1.34,2.71-3.44Z"/><path class="cls-1" d="M1014.11,105.87v7.12h-2.5v-1.39c-.84,1.11-1.99,1.64-3.46,1.64-2.31,0-3.91-1.36-3.91-3.25s1.13-3.09,3.84-3.36l3.28-.34v-.59c0-1.22-.76-1.8-1.95-1.8-1.26,0-1.95,.5-2.16,1.57h-2.77c.29-2.35,2.04-3.59,4.89-3.59s4.75,1.24,4.75,3.99Zm-2.77,2.88v-.8l-2.6,.34c-1.15,.15-1.68,.76-1.68,1.58s.67,1.51,1.83,1.51c1.6,0,2.46-1.07,2.46-2.62Z"/><path class="cls-1" d="M1026.24,106.14v6.84h-2.77v-6.21c0-1.78-.84-2.58-2.12-2.58s-2.25,.88-2.25,2.58v6.21h-2.77v-10.85h2.5v1.53c.71-1.2,1.87-1.78,3.42-1.78,2.27,0,3.99,1.34,3.99,4.26Z"/><path class="cls-1" d="M1028.18,98.94c0-.9,.67-1.64,1.68-1.64s1.64,.74,1.64,1.64-.67,1.64-1.64,1.64-1.68-.76-1.68-1.64Zm.27,3.19h2.77v10.85h-2.77v-10.85Z"/><path class="cls-1" d="M1032.89,107.57c0-3.49,2.39-5.69,5.52-5.69s5.5,2.2,5.5,5.69-2.39,5.67-5.5,5.67-5.52-2.18-5.52-5.67Zm8.19,0c0-2.12-1.01-3.44-2.69-3.44s-2.69,1.34-2.69,3.44,1.01,3.42,2.69,3.42,2.69-1.32,2.69-3.42Z"/><path class="cls-1" d="M1055.55,106.14v6.84h-2.77v-6.21c0-1.78-.84-2.58-2.12-2.58s-2.25,.88-2.25,2.58v6.21h-2.77v-10.85h2.5v1.53c.71-1.2,1.87-1.78,3.42-1.78,2.27,0,3.99,1.34,3.99,4.26Z"/><path class="cls-1" d="M1066.16,101.48v.65h2.58v2.29h-2.58v8.57h-2.77v-8.57h-1.7v-2.29h1.7v-.63c0-2.52,1.55-3.84,3.84-3.84,.63,0,1.18,.08,1.62,.23v2.12c-.31-.08-.65-.13-.99-.13-1.11,0-1.7,.52-1.7,1.6Z"/><path class="cls-1" d="M1069.35,107.57c0-3.49,2.39-5.69,5.52-5.69s5.5,2.2,5.5,5.69-2.39,5.67-5.5,5.67-5.52-2.18-5.52-5.67Zm8.19,0c0-2.12-1.01-3.44-2.69-3.44s-2.69,1.34-2.69,3.44,1.01,3.42,2.69,3.42,2.69-1.32,2.69-3.42Z"/><path class="cls-1" d="M1088.12,102.11v2.44c-.17-.02-.36-.04-.63-.04-1.7,0-2.62,.99-2.62,2.71v5.77h-2.77v-10.85h2.5v1.87c.52-1.3,1.6-1.97,2.88-1.97,.23,0,.42,.02,.65,.08Z"/><path class="cls-1" d="M1097.99,104.42v4.83c0,1.03,.5,1.53,1.43,1.53,.38,0,.63-.02,.88-.08v2.25c-.55,.15-.86,.17-1.53,.17-2.46,0-3.55-1.39-3.55-3.74v-4.96h-1.7v-2.29h1.7v-3.07h2.77v3.07h2.31v2.29h-2.31Z"/><path class="cls-1" d="M1111.91,106.16v6.82h-2.77v-6.28c0-1.68-.92-2.5-2.14-2.5s-2.23,.88-2.23,2.54v6.24h-2.77v-15.12h2.77v5.71c.63-1.09,1.68-1.7,3.09-1.7,2.31,0,4.05,1.47,4.05,4.28Z"/><path class="cls-1" d="M1124.19,107.71c0,.34-.02,.63-.02,.63h-7.85c.19,1.97,1.24,2.79,2.71,2.79,1.2,0,1.87-.52,2.18-1.32h2.75c-.48,1.93-2.2,3.42-4.96,3.42-3.46,0-5.46-2.31-5.46-5.61s2.2-5.75,5.38-5.75c3.4,0,5.33,2.35,5.27,5.84Zm-2.83-1.18c-.08-1.64-.99-2.56-2.41-2.56-1.32,0-2.31,.84-2.58,2.56h5Z"/><path class="cls-1" d="M1130.1,108.74h2.98c.25,1.49,1.32,2.25,3.3,2.25s2.9-.8,2.9-1.85c0-.92-.61-1.53-1.97-1.8l-3.32-.65c-2.39-.46-3.61-1.95-3.61-3.84,0-2.37,1.97-4.37,5.61-4.37s5.69,1.51,5.96,4.24h-3c-.23-1.37-1.2-2-2.98-2s-2.6,.82-2.6,1.83c0,.82,.5,1.38,1.83,1.64l3.34,.63c2.6,.46,3.74,1.99,3.74,3.9,0,2.52-1.93,4.51-5.86,4.51s-5.98-1.66-6.3-4.49Z"/><path class="cls-1" d="M1154.08,107.71c0,.34-.02,.63-.02,.63h-7.85c.19,1.97,1.24,2.79,2.71,2.79,1.2,0,1.87-.52,2.18-1.32h2.75c-.48,1.93-2.2,3.42-4.96,3.42-3.46,0-5.46-2.31-5.46-5.61s2.2-5.75,5.38-5.75c3.4,0,5.33,2.35,5.27,5.84Zm-2.83-1.18c-.08-1.64-.99-2.56-2.41-2.56-1.32,0-2.31,.84-2.58,2.56h5Z"/><path class="cls-1" d="M1161.84,102.11v2.44c-.17-.02-.36-.04-.63-.04-1.7,0-2.62,.99-2.62,2.71v5.77h-2.77v-10.85h2.5v1.87c.52-1.3,1.6-1.97,2.88-1.97,.23,0,.42,.02,.65,.08Z"/><path class="cls-1" d="M1162.89,98.94c0-.9,.67-1.64,1.68-1.64s1.64,.74,1.64,1.64-.67,1.64-1.64,1.64-1.68-.76-1.68-1.64Zm.27,3.19h2.77v10.85h-2.77v-10.85Z"/><path class="cls-1" d="M1171.72,101.48v.65h2.58v2.29h-2.58v8.57h-2.77v-8.57h-1.7v-2.29h1.7v-.63c0-2.52,1.55-3.84,3.84-3.84,.63,0,1.18,.08,1.62,.23v2.12c-.31-.08-.65-.13-.99-.13-1.11,0-1.7,.52-1.7,1.6Z"/><path class="cls-1" d="M1184.02,104.42v4.83c0,1.03,.5,1.53,1.43,1.53,.38,0,.63-.02,.88-.08v2.25c-.55,.15-.86,.17-1.53,.17-2.46,0-3.55-1.39-3.55-3.74v-4.96h-1.7v-2.29h1.7v-3.07h2.77v3.07h2.31v2.29h-2.31Z"/><path class="cls-1" d="M1198.4,102.13l-6.4,14.8h-2.94l2.29-4.91-4.16-9.89h2.94l2.65,7.12,2.81-7.12h2.81Z"/><path class="cls-1" d="M1210.49,107.57c0,3.59-2.33,5.67-4.91,5.67-1.43,0-2.52-.57-3.28-1.58v5.27h-2.77v-14.8h2.5v1.76c.73-1.28,1.95-2.02,3.67-2.02,2.58,0,4.79,2.04,4.79,5.69Zm-2.81,0c0-2.08-1.07-3.46-2.71-3.46s-2.67,1.41-2.67,3.46,1.11,3.44,2.67,3.44,2.71-1.34,2.71-3.44Z"/><path class="cls-1" d="M1222.29,107.71c0,.34-.02,.63-.02,.63h-7.85c.19,1.97,1.24,2.79,2.71,2.79,1.2,0,1.87-.52,2.18-1.32h2.75c-.48,1.93-2.2,3.42-4.96,3.42-3.46,0-5.46-2.31-5.46-5.61s2.2-5.75,5.38-5.75c3.4,0,5.33,2.35,5.27,5.84Zm-2.83-1.18c-.08-1.64-.99-2.56-2.41-2.56-1.32,0-2.31,.84-2.58,2.56h5Z"/><path class="cls-1" d="M1227.5,101.48v.65h2.58v2.29h-2.58v8.57h-2.77v-8.57h-1.7v-2.29h1.7v-.63c0-2.52,1.55-3.84,3.84-3.84,.63,0,1.18,.08,1.62,.23v2.12c-.31-.08-.65-.13-.99-.13-1.11,0-1.7,.52-1.7,1.6Z"/><path class="cls-1" d="M1240.73,105.87v7.12h-2.5v-1.39c-.84,1.11-1.99,1.64-3.46,1.64-2.31,0-3.91-1.36-3.91-3.25s1.13-3.09,3.84-3.36l3.28-.34v-.59c0-1.22-.76-1.8-1.95-1.8-1.26,0-1.95,.5-2.16,1.57h-2.77c.29-2.35,2.04-3.59,4.89-3.59s4.75,1.24,4.75,3.99Zm-2.77,2.88v-.8l-2.6,.34c-1.15,.15-1.68,.76-1.68,1.58s.67,1.51,1.83,1.51c1.6,0,2.46-1.07,2.46-2.62Z"/><path class="cls-1" d="M1242.37,107.55c0-3.53,2.29-5.67,5.42-5.67s4.72,1.7,5.08,4.07h-2.81c-.25-1.22-.99-1.83-2.29-1.83-1.57,0-2.58,1.26-2.58,3.4s.97,3.46,2.6,3.46c1.32,0,1.99-.63,2.27-1.83h2.79c-.36,2.41-2.1,4.07-5.06,4.07-3.13,0-5.42-2.14-5.42-5.69Z"/><path class="cls-1" d="M1264.64,107.71c0,.34-.02,.63-.02,.63h-7.85c.19,1.97,1.24,2.79,2.71,2.79,1.2,0,1.87-.52,2.18-1.32h2.75c-.48,1.93-2.2,3.42-4.96,3.42-3.46,0-5.46-2.31-5.46-5.61s2.2-5.75,5.38-5.75c3.4,0,5.33,2.35,5.27,5.84Zm-2.83-1.18c-.08-1.64-.99-2.56-2.41-2.56-1.32,0-2.31,.84-2.58,2.56h5Z"/><path class="cls-1" d="M1269.46,111.45c0,.99-.8,1.78-1.78,1.78s-1.78-.8-1.78-1.78,.8-1.76,1.78-1.76,1.78,.8,1.78,1.76Z"/></g><g><path class="cls-1" d="M456.45,660.01l-57.06,10.14c-25.36-36.77-60.86-85.59-93.83-131.87l1.27-.63c-6.97,1.27-14.58,1.9-22.19,2.54l-21.56,119.83h-49.45l67.2-370.89,5.71-36.77-48.82-20.92,.63-8.24,102.71-17.12,3.8,4.44-13.31,69.74-29.16,161.67c24.73-47.55,57.06-77.35,97.64-77.35,33.6,0,52.62,20.92,52.62,53.26,0,47.55-34.87,87.49-94.47,107.78,31.7,46.92,63.4,91.93,98.27,134.41Zm-169.91-128.7c58.96-8.88,113.49-64.03,113.49-110.32,0-17.75-8.24-29.16-26.63-29.16-31.7,0-62.77,46.28-80.52,103.34l-6.34,36.14Z"/><path class="cls-1" d="M706.18,426.7l-57.69,47.55,139.48,185.76h-67.84c0-6.97-3.17-13.31-9.51-21.56l-100.17-134.41-24.73,20.29v118.56l44.38,1.9v15.22h-142.65v-15.22l44.38-1.9V269.47c-11.41-18.38-19.65-27.9-36.14-41.84l.63-7.61,82.42-29.16,6.97,4.44V508.48l89.39-72.28c10.14-8.24,23.46-21.56,23.46-33.6,0-8.88-5.07-17.12-11.41-22.19v-5.71h103.98v12.05c-24.09,1.27-53.89,16.48-84.96,39.94Z"/><path class="cls-1" d="M1157.77,660.01h-110.95c0-6.97-3.17-13.31-9.51-21.56l-87.49-123-12.68,9.51v118.56l35.5,1.9v14.58h-157.87v-14.58l35.5-1.9V263.52c0-10.14-11.41-35.5-26.63-47.55l1.27-6.34,99.54-26.63,12.68,11.41V508.48l93.2-71.01c8.88-8.24,13.31-15.85,13.31-28.53,0-10.14-5.07-24.09-11.41-30.43v-3.8h116.66v12.05c-21.56,1.27-48.82,13.31-76.71,33.6l-54.52,43.11,140.11,196.54Z"/></g><g><path class="cls-1" d="M297.87,708.72c0,2.72-2.21,4.9-4.93,4.9s-4.9-2.19-4.9-4.9,2.19-4.93,4.9-4.93,4.93,2.21,4.93,4.93Zm-.83,0c0-2.26-1.85-4.1-4.1-4.1s-4.08,1.85-4.08,4.1,1.82,4.08,4.08,4.08,4.1-1.82,4.1-4.08Zm-1.02,.04c0,1.68-1.29,3.04-3.08,3.04s-3.08-1.36-3.08-3.04h.49c.31,1.5,1.33,2.23,2.59,2.23s2.28-.73,2.59-2.23h.49Zm-4.8-1.68c0-.55,.18-.97,.52-.97s.48,.42,.48,.97-.15,.99-.48,.99-.52-.45-.52-.99Zm2.45,0c0-.55,.15-.97,.48-.97s.52,.42,.52,.97-.18,.99-.52,.99-.48-.45-.48-.99Z"/><path class="cls-1" d="M305.07,713.46h-1.18v-9.51h1.18v9.51Z"/><path class="cls-1" d="M314.37,704.93h-3.15v8.53h-1.18v-8.53h-3.17v-.98h7.49v.98Z"/><path class="cls-1" d="M320.46,710.84h-4.19l-.99,2.62h-1.26l3.75-9.51h1.27l3.63,9.51h-1.26l-.95-2.62Zm-.36-1l-1.7-4.68-1.76,4.68h3.46Z"/><path class="cls-1" d="M330.21,712.45v1.01h-5.77v-9.51h1.2v8.5h4.57Z"/><path class="cls-1" d="M333.16,713.46h-1.18v-9.51h1.18v9.51Z"/><path class="cls-1" d="M335.39,708.71c0-2.87,1.74-4.93,4.41-4.93,2.51,0,3.67,1.29,4.05,3.21h-1.25c-.34-1.54-1.25-2.21-2.8-2.21-1.79,0-3.22,1.54-3.22,3.94s1.43,3.92,3.22,3.92c1.51,0,2.44-.63,2.82-2.2h1.25c-.42,2-1.6,3.19-4.06,3.19-2.66,0-4.41-2.04-4.41-4.92Z"/></g><g><path class="cls-1" d="M597.87,708.72c0,2.72-2.21,4.9-4.93,4.9s-4.9-2.19-4.9-4.9,2.19-4.93,4.9-4.93,4.93,2.21,4.93,4.93Zm-.83,0c0-2.26-1.85-4.1-4.1-4.1s-4.08,1.85-4.08,4.1,1.82,4.08,4.08,4.08,4.1-1.82,4.1-4.08Zm-1.02,.04c0,1.68-1.29,3.04-3.08,3.04s-3.08-1.36-3.08-3.04h.49c.31,1.5,1.33,2.23,2.59,2.23s2.28-.73,2.59-2.23h.49Zm-4.8-1.68c0-.55,.18-.97,.52-.97s.48,.42,.48,.97-.15,.99-.48,.99-.52-.45-.52-.99Zm2.45,0c0-.55,.15-.97,.48-.97s.52,.42,.52,.97-.18,.99-.52,.99-.48-.45-.48-.99Z"/><path class="cls-1" d="M607.15,709.3h-2.06v4.16h-1.19v-9.51h3.91c2.17,0,3.17,1.01,3.17,2.62,0,1.43-.78,2.4-2.55,2.61l3.07,4.29h-1.33l-3.01-4.16Zm-2.06-.99h2.58c1.39,0,2.12-.63,2.12-1.74s-.76-1.62-2.14-1.62h-2.55v3.36Z"/><path class="cls-1" d="M614.53,704.95v3.14h4.8v1h-4.8v3.36h5.39v1.01h-6.57v-9.51h6.57v1.01h-5.39Z"/><path class="cls-1" d="M630.02,708.53v4.93h-1.06v-1.74c-.49,1.13-1.48,1.91-3.14,1.91-2.68,0-4.47-1.99-4.47-4.92s1.78-4.93,4.44-4.93c1.98,0,3.43,.84,3.99,2.73h-1.26c-.43-1.12-1.26-1.74-2.75-1.74-1.91,0-3.24,1.5-3.24,3.94s1.3,3.92,3.28,3.92,3.04-1.22,3.05-3.11h-3.32v-.99h4.47Z"/><path class="cls-1" d="M640.18,709.76c0,2.58-1.53,3.87-3.92,3.87s-3.94-1.3-3.94-3.87v-5.81h1.18v5.81c0,1.86,1.11,2.83,2.77,2.83s2.73-.92,2.73-2.77v-5.87h1.18v5.81Z"/><path class="cls-1" d="M648.65,712.45v1.01h-5.77v-9.51h1.2v8.5h4.57Z"/><path class="cls-1" d="M656.3,710.84h-4.19l-.99,2.62h-1.26l3.75-9.51h1.27l3.63,9.51h-1.26l-.95-2.62Zm-.36-1l-1.7-4.68-1.76,4.68h3.46Z"/><path class="cls-1" d="M663.52,709.3h-2.06v4.16h-1.19v-9.51h3.91c2.17,0,3.17,1.01,3.17,2.62,0,1.43-.78,2.4-2.55,2.61l3.07,4.29h-1.33l-3.01-4.16Zm-2.06-.99h2.58c1.39,0,2.12-.63,2.12-1.74s-.76-1.62-2.14-1.62h-2.55v3.36Z"/></g><g><path class="cls-1" d="M973.87,708.72c0,2.72-2.21,4.9-4.93,4.9s-4.9-2.19-4.9-4.9,2.19-4.93,4.9-4.93,4.93,2.21,4.93,4.93Zm-.83,0c0-2.26-1.85-4.1-4.1-4.1s-4.08,1.85-4.08,4.1,1.82,4.08,4.08,4.08,4.1-1.82,4.1-4.08Zm-1.02,.04c0,1.68-1.29,3.04-3.08,3.04s-3.08-1.36-3.08-3.04h.49c.31,1.5,1.33,2.23,2.59,2.23s2.28-.73,2.59-2.23h.49Zm-4.8-1.68c0-.55,.18-.97,.52-.97s.48,.42,.48,.97-.15,.99-.48,.99-.52-.45-.52-.99Zm2.45,0c0-.55,.15-.97,.48-.97s.52,.42,.52,.97-.18,.99-.52,.99-.48-.45-.48-.99Z"/><path class="cls-1" d="M987.26,710.75c0,1.67-.98,2.7-3.39,2.7h-3.98v-9.51h3.77c2.17,0,3.17,.94,3.17,2.51,0,1.01-.76,1.83-1.71,2.06,1.3,.18,2.14,1.02,2.14,2.24Zm-6.19-5.81v3.17h2.48c1.32,0,2.09-.6,2.09-1.65,0-1.13-.9-1.51-2.28-1.51h-2.28Zm5.01,5.81c0-1.26-.98-1.65-2.44-1.65h-2.58v3.36h2.56c1.47,0,2.45-.38,2.45-1.71Z"/><path class="cls-1" d="M988.9,708.71c0-2.94,1.81-4.93,4.43-4.93s4.43,1.99,4.43,4.93-1.81,4.92-4.43,4.92-4.43-1.99-4.43-4.92Zm7.66,0c0-2.44-1.27-3.94-3.24-3.94s-3.24,1.5-3.24,3.94,1.27,3.92,3.24,3.92,3.24-1.5,3.24-3.92Z"/><path class="cls-1" d="M1005.78,712.45v1.01h-5.77v-9.51h1.2v8.5h4.57Z"/><path class="cls-1" d="M1015.24,708.71c0,2.93-1.92,4.75-4.62,4.75h-3.05v-9.51h3.05c2.7,0,4.62,1.82,4.62,4.76Zm-1.19,0c0-2.38-1.33-3.77-3.61-3.77h-1.69v7.52h1.69c2.26,0,3.61-1.39,3.61-3.75Z"/></g></svg>