<?xml version='1.0' encoding='UTF-8'?>
<svg xmlns="http://www.w3.org/2000/svg" xmlns:xlink="http://www.w3.org/1999/xlink" width="1366px" height="768px" viewBox="0 0 1366 768" x="0px" y="0px" enable-background="new 0 0 1366 768"><defs><symbol overflow="visible" id="302caa13a"><path d="M21.4-21.84c-3.62 6.21-6.17 10.59-6.17 15.3 0 4.7 3.27 7.56 9.63 7.56 13.06 0 22.5-9.75 29.94-22.86l-2.55-.85c-4.72 6.9-10.88 12.44-17.05 12.44-2.54 0-4.17-1.17-4.17-3.19 0-2.19 1.99-5.37 5.8-11.94l53.89-93.73-1.81-1.17-27.41 6.87-.72 2.02c6.53 3.7 6.9 5.05 6.9 7.23 0 2.02-2.54 6.55-4.18 9.41zm0 0"/></symbol><symbol overflow="visible" id="302caa13b"><path d="M82.92-58.47c0-7.72-8.17-10.4-15.42-10.4-25.4 0-48.45 29.39-48.45 50.39C19.05-7.56 25.22.84 37.92.84c11.8 0 23.22-7.23 31.56-22.68l-2.53-.85C61.15-14.6 53.7-9.08 45.72-9.08c-8.53 0-12.33-5.37-12.33-14.28 0-2.17.17-5.37 1.27-8.73 28.67-3.36 48.26-11.75 48.26-26.38zM62.6-61.48c4.72 0 7.27 1.84 7.27 5.54 0 7.22-8.36 16.97-33.75 19.49 4.34-12.94 15.6-25.03 26.48-25.03zm0 0"/></symbol><symbol overflow="visible" id="302caa13d"><path d="M61.14-94.92c0 3.03 1.81 5.37 5.63 5.37 6.36 0 12.89-7.04 12.89-13.1 0-2.7-1.46-5.04-5.27-5.04-7.62 0-13.25 7.06-13.25 12.77zM35.56-13.78c0-2.52 1.63-6.05 3.81-9.58L53.53-47.2c3.44-5.9 5.99-11.6 5.99-15.8 0-3.53-2.55-5.88-6.18-5.88-9.25 0-16.15 7.72-29.57 24.2l2.36 1.5c3.26-3.35 11.06-14.45 15.25-14.45 1.62 0 2.53.68 2.53 2.36 0 1.85-1.27 5.04-4.9 11.08l-15.6 26.05c-2.36 4.03-3.63 7.72-3.63 10.75 0 5.03 3.08 8.4 8.7 8.4 11.44 0 20.86-12.1 25.77-21l-2.55-.84c-5.08 6.72-8.89 10.58-13.06 10.58-2.17 0-3.08-1.52-3.08-3.53zm0 0"/></symbol><symbol overflow="visible" id="302caa13e"><path d="M73.3-66.53c-2.9-1-6.53-1.52-10.88-1.52-25.23 0-35.94 20.85-35.94 30.92 0 7.05 2.55 11.43 6.54 14.11L14.7-10.75c-2 5.03 1.99 8.9 6.53 9.73V0C7.8 5.2-2.72 10.25-2.72 19.16c0 8.39 9.97 13.93 30.3 13.93 25.76 0 40.45-10.92 40.45-23.51 0-19.66-37.37-14.78-37.37-23.86 0-2.19 1.82-3.53 3.8-4.88L36.84-21c4.36 1.69 9.44 2.19 14.34 2.19 22.13 0 34.11-16.3 34.11-31.25 0-3.03-.73-6.72-2.9-9.9l12.51 1.5c3.81-1.85 5.08-5.71 4.53-8.07zM50.08-24.7c-4.9 0-9.99-1.85-9.99-9.4 0-8.57 7.44-28.06 21.41-28.06 6.53 0 10.34 2.7 10.34 8.91 0 9.06-6.89 28.55-21.76 28.55zm2.36 38.64c0 7.56-8.9 13.78-22.69 13.78-11.97 0-18.86-4.53-18.86-11.25 0-6.22 5.63-10.75 16.14-14.63 20.88 3.36 25.4 6.57 25.4 12.1zm0 0"/></symbol><symbol overflow="visible" id="302caa13f"><path d="M72.94-13.78c0-11.25 24.5-29.4 24.5-45.52 0-6.06-4.17-9.58-11.44-9.58-13.42 0-25.03 15.46-38.28 33.6h-1.27C53.7-45.36 61.7-56.78 61.7-63c0-3.03-2-5.88-6.35-5.88-10.7 0-19.59 12.6-29.22 24.02l2.18 1.69c6.17-7.4 11.8-14.45 15.25-14.45 1.8 0 2.53 1.01 2.53 2.51 0 1.69-1.27 4.7-4.7 10.6C34.47-32.78 22.68-13.62 14.7 0h15.6c2.54-7.06 6.17-13.6 7.98-16.8C45-29.06 63.14-56.95 76.75-56.95c3.63 0 5.44 1.68 5.44 4.7 0 10.25-24.13 31.92-24.13 44.52 0 5.54 3.81 8.75 9.25 8.75 11.06 0 20.86-15.13 25.96-24.38l-2.2-1.5c-5.62 9.4-11.05 14.61-15.05 14.61-1.99 0-3.08-1.17-3.08-3.53zm0 0"/></symbol><symbol overflow="visible" id="302caa13g"><path d="M11.6-9.08c0 5.9 6.37 5.9 6.37 9.08 0 8.06-8.36 16.3-23.78 18.98-.36 1.68 0 2.7 2 2.36 15.78-2.03 33.39-13.6 33.39-29.57 0-4.2-2.55-8.91-8.9-8.91-4.71 0-9.07 3.36-9.07 8.06zm0 0"/></symbol><symbol overflow="visible" id="302caa13j"><path d="M28.84-12.94c0-2.01 2-5.2 3.27-7.56l23.23-40.31 18.14-.35c3.63-1.67 5.27-4.03 5.27-6.89H58.97l11.42-19.98c-2.36-1.69-8.7-1.84-14.14 0L49.89-67.7l-15.97.84c-3.26 1.34-4.53 3.52-4.17 5.88h12.16L16.88-17.3c-1.46 2.52-3.63 6.88-3.63 10.4 0 5.56 3.63 7.92 9.42 7.92 15.25 0 25.05-13.79 30.13-22.86l-2.53-.85c-4.91 7.24-11.08 12.44-17.43 12.44-2.72 0-4-1.17-4-2.69zm0 0"/></symbol><symbol overflow="visible" id="302caa13k"><path d="M44.64-35.1c7.06-10.26 15.42-22.18 15.42-27.56 0-4.87-3.45-6.22-6.53-6.22-9.98 0-18.33 11.08-29.03 24.02l2.17 1.69c7.08-8.58 11.97-14.45 15.24-14.45a2.42 2.42 0 012.54 2.51c0 1.52-1.1 4.38-3.62 8.73C34.1-34.94 21.77-14.6 13.06 0h15.61c1.27-3.7 3.81-8.73 5.25-11.77 9.8-19.48 27.05-39.46 44.83-39.46 3.44-3.54 7.06-9.25 7.06-14.46 0-2.36-1.62-3.19-4.34-3.19-11.61 0-20.88 14.11-35.56 33.77zm0 0"/></symbol><symbol overflow="visible" id="302caa13y"><path d="M108.5-29.4c-9.25 13.1-22.31 21-40.1 21-13.8 0-29.03-5.38-29.03-26.2 0-33.45 27.22-69.06 67.13-69.06 14.34 0 24.5 5.05 24.5 14.46 0 4.86-1.27 10.58-2.9 16.12h4.17l15.96-33.26c-7.62-2.86-23.76-5.2-35.01-5.2-58.25 0-90.9 41.65-90.9 77.95 0 26.2 20.5 35.28 41 35.28 25.4 0 41.2-13.78 49.16-29.4zm0 0"/></symbol><symbol overflow="visible" id="302caa13z"><path d="M40.83.84c33.37 0 47.53-34.78 47.53-50.9 0-13.11-8.34-18.81-20.5-18.81-30.84 0-48.98 33.76-48.98 51.23C18.88-3.2 29.38.84 40.83.84zm32.83-51.07c0 15.96-11.97 43.17-29.94 43.17-6.16 0-10.16-4.19-10.16-11.08 0-18.66 13.61-43.02 29.94-43.02 7.63 0 10.16 4.03 10.16 10.93zm0 0"/></symbol><symbol overflow="visible" id="302caa13A"><path d="M128.83-91.06c0-14.61-12.9-19.66-32.3-19.66-8.53 0-22.14.84-36.84.84l-1.63 3.86c6.7 1.52 9.97 4.05 9.97 7.07 0 2.51-1.08 5.2-2.17 7.22L29.94-23.2C23.95-11.92 20.5-6.05 6.89-3.86L5.81 0c11.42 0 28.85.84 42.81.84 46.27 0 59.7-22.01 59.7-39.8 0-9.93-5.26-14.63-11.62-17.32-1.26-.5-2.17-1-2.17-1.52 0-.15 0-.5.17-.67 18.88-1.84 34.13-15.45 34.13-32.6zm-64.6 30.42l22.32-44.02c3.8-.17 6.53-.51 9.08-.51 9.8 0 17.76 3.36 17.76 14.95 0 18.99-19.22 29.58-40.27 29.58zM50.98-6.04c-5.07 0-9.6-.35-13.96-.85l23.76-46.88c3.99-.15 10.53-.32 15.97-.32 10.34 0 15.6 4.53 15.6 15.28 0 13.95-9.62 32.76-41.37 32.76zm0 0"/></symbol><symbol overflow="visible" id="302caa13B"><path d="M64.6-12.6c0-8.74 22.85-40.65 34.82-53.76.55-1.34-1.08-2.52-2.36-2.52-1.98 0-5.08 1.68-8.34 3.52-3.27-1.84-9.44-3.52-16.14-3.52-25.05 0-57.7 36.63-57.7 59.8 0 5.9 3.45 9.75 9.98 9.75 13.78 0 30.3-23.01 37.73-33.26h1.27L54.6-19c-3.44 5.05-5.8 8.91-5.8 13.27 0 4.2 2.72 6.74 7.44 6.74 9.6 0 19.77-10.6 26.67-22.86l-2.55-.85c-4.71 6.74-9.8 12.44-13.25 12.44-1.62 0-2.53-.84-2.53-2.34zm14.68-46.02c-9.8 14.26-25.03 32.74-35.37 42.32-3.63 3.36-7.44 5.38-9.99 5.38-2.53 0-4.53-1.35-4.53-4.88 0-14.6 20.88-46.36 37.56-46.36 4.72 0 9.44 1.35 12.33 3.53zm0 0"/></symbol><symbol overflow="visible" id="302caa13C"><path d="M125.56-119.1l-1.83-1.18-27.39 6.87-.9 2.02c6.34 3.36 7.08 4.87 7.08 7.23 0 2.02-2.55 6.55-4.18 9.41C94.7-88.7 88-77.11 82.2-67.2c-3.08-1-6.9-1.67-10.88-1.67-25.76 0-58.06 36.62-58.06 59.8 0 5.88 3.27 9.74 9.97 9.74 13.6 0 29.76-22.17 37.75-33.26h1.26C55.7-22.52 49.9-12.44 49.9-6.9c0 5.55 3.45 7.9 10.17 7.9 10.88 0 21.05-7.9 29.4-22.85l-2.55-.85C82.38-15.95 76-10.25 69.67-10.25c-2.17 0-3.98-1-3.98-3.02 0-3.2 4.17-9.25 6.15-12.6zm-47.9 60.47c-11.61 17.13-36.47 47.7-45.72 47.7-2.72 0-4.17-1.16-4.17-4.02 0-16.13 21.57-47.2 37-47.2 4.36 0 9.62 1.34 12.89 3.52zm0 0"/></symbol><symbol overflow="visible" id="302caa13i"><path d="M107.4-31.25c-6.53 18.14-19.95 24.7-36.63 24.7-28.68 0-44.1-20.5-44.1-47.89 0-29.22 14.52-49.22 42.81-49.22 17.25 0 29.94 6.4 33.58 25.7l6.9-.17-.74-28.21c-9.97-3.2-23.4-5.2-35.74-5.2-42.64 0-63.5 26.2-63.5 57.77C9.98-19.48 31.94 1.7 68.77 1.7c16.51 0 28.67-3.03 38.82-7.56l6.53-23.7zm0 0"/></symbol><symbol overflow="visible" id="302caa13aa"><path d="M24.13-86.69c0-9.58 5.45-16.8 19.59-16.8 17.06 0 23.6 10.93 25.6 24.2l7.43-.18-.9-27.05a106.63 106.63 0 00-31.4-5.03c-19.6 0-35.92 10.25-35.92 28.57 0 11.42 6.35 21.32 18.14 27.2l16.69 8.4c9.98 5.04 18.69 10.76 18.69 22.18S54.44-6.72 41.55-6.72c-17.42 0-25.03-11.6-27.22-26.87H7.25c-.72 8.39-.17 18.64.38 27.37 6.89 4.7 21.4 7.9 31.92 7.9 26.67 0 39.92-11.93 39.92-30.74 0-13.11-8.53-22.17-19.78-28.07l-19.4-10.24C31.02-72.23 24.12-78.8 24.12-86.7zm0 0"/></symbol><symbol overflow="visible" id="302caa13l"><path d="M127.13 0v-5.19l-10.8-2.06-8.28-81.1 9.3-2.67v-5.78H90.59L65.27-24.42 39.07-96.8H13.62v5.78l8.14 2.66-6.2 70.75C14.8-8.14 11.98-6.66 5.03-5.19V0h32.4v-5.19L22.65-7.25l6.08-77.27L60.39 0h4.28l29.75-85.84 7.25 66.9c1.05 10.66-1.92 11.83-14.2 13.75V0zm0 0"/></symbol><symbol overflow="visible" id="302caa13m"><path d="M28.72-60.69l-1.64-1.76c-4.58 0-18.94 2.8-22.64 5.17v4.3l9.62 4.14c.3 8 .14 17.9.14 27.39 0 9.6-.43 14.34-5.76 15.68l-4 1.04V0c7.25-.14 9.92-.3 17.31-.3 4.16 0 13.03.3 17.17.44v-5.03L26.34-5.92c-.43-13.17-.3-26.19 0-40.4 2.82-1.48 6.96-2.96 11.1-2.96 3.1 0 5.62.73 8 2.36 1.19-2.36 1.78-5.92 1.78-8.44 0-2.8-.3-5.6-.9-7.1-8.43 0-14.35 6.07-19.68 12.15zm0 0"/></symbol><symbol overflow="visible" id="302caa13n"><path d="M22.94-7.4c0-4.88-2.96-7.85-7.4-7.85-4.88 0-8.43 4.6-8.43 9.33 0 4.3 2.81 7.7 7.39 7.7 4.6 0 8.44-3.86 8.44-9.19zm0 0"/></symbol><symbol overflow="visible" id="302caa13p"><path d="M88.8-91.31v-5.49c-7.7.6-29.46.6-36.85.6v4.89l8.28 2.51 4.6 13.32-18.95 52.54L22.5-88.95l15.98-2.07v-5.78H-.59v5.78l8 2.07L38.48 0h6.8l23.25-65.56L92.5 0h6.36l23.53-79.03c1.92-6.81 4-10.36 11.4-11.84v-5.93h-32.12v5.63l15.25 2.22-19.1 65.26-22.79-65.1zm0 0"/></symbol><symbol overflow="visible" id="302caa13q"><path d="M26.64-84.8c0 5.33-3.84 9.17-8.58 9.17-4.6 0-7.4-3.4-7.4-7.84 0-4.73 3.7-9.33 8.57-9.33 4.46 0 7.41 2.96 7.41 8zm-.44 44.4c0-12.44.44-17.62.88-19.83l-2.22-2.22c-4.58 0-16.13 3.1-19.67 5.17v4.3l9.17 5.03v29.75c0 8.87-1.63 11.84-5.78 12.73l-4.14.88V.14h32.12v-5.03L26.2-5.77zm0 0"/></symbol><symbol overflow="visible" id="302caa13r"><path d="M22.34-105.81c-4.57 0-16.12 3.1-19.68 5.17v4.14l9.03 5.03v67.5c0 11.4.3 16.86-5.63 18.34l-3.4.9V0C8.73 0 14.8-.3 22.05-.3c4 0 7.84.16 13.62.3v-5.03l-11.98-.9v-83.62c0-5.9.58-12.42.87-14.04zm0 0"/></symbol><symbol overflow="visible" id="302caa13s"><path d="M33.3 1.48c16.87 0 30.64-13.92 30.64-34.18 0-17.77-10.81-29.75-28.72-29.75-17.16 0-30.78 13.47-30.78 33.15 0 18.5 11.25 30.78 28.86 30.78zm17.6-34.04c0 13.76-5.76 26.94-17 26.94-11.7 0-17.18-11.4-17.18-24.27 0-14.22 6.51-26.2 18.2-26.2 10.66 0 15.99 10.51 15.99 23.53zm0 0"/></symbol><symbol overflow="visible" id="302caa13t"><path d="M50.9-9.17L53.29 0 74.9-3.84l-.45-4.9c-1.33.16-2.52.3-3.55.3-7.25 0-8.58-3.54-8.58-10.5 0-8.6.14-22.8 1.03-43.22l-24.12 4.14v5.33l11.69 2.52c-.14 9.92-.6 28.72-.44 37.73-3.7 2.38-9.03 4.16-13.61 4.16-9.92 0-13.03-7.11-13.03-18.66 0-9.47.6-20.42 1.19-35.22L3.25-58.02v5.33l9.48 2.52c-.15 5.76-.75 17.31-.75 29.75 0 13.31 5.93 21.9 19.4 21.9 7.84 0 14.65-4.14 19.53-10.65zm0 0"/></symbol><symbol overflow="visible" id="302caa13u"><path d="M25.6-21.02c1.93.3 3.85.44 5.93.44 13.17-.14 25-7.39 25-21.45 0-4-1.33-7.84-3.69-11.1l11.24-1.18c.6-3.11-.3-7.55-2.06-9.63l-14.66 5.92c-4.14-2.8-9.63-4.43-15.98-4.43-14.07 0-25.02 9.33-25.02 21.3 0 9.92 6.08 16.3 14.52 18.95l-12.6 9.62c0 4.74 4.6 9.03 9.78 9.63v1.03C11.25.89 6.66 5.92 6.66 12.44c0 10.95 10.51 16.42 23.39 16.42 17.6 0 33.43-12.58 33.43-28.27 0-8.3-5.6-12.87-16.71-12.87-2.82 0-9.18-.16-14.2-.16-6.82 0-9.77-1.03-9.77-3.69 0-2.23 1.32-3.56 2.8-4.89zm5.18 19.83h9.92c6.82 0 11.1 2.67 11.1 8.6 0 9.46-8.88 15.23-20.27 15.23-8.6 0-14.36-4.58-14.36-12.42 0-4.45 2.81-8.74 5.92-11.85 1.77.15 4.14.44 7.7.44zM17.77-41.73c0-7.85 4.28-14.36 13.01-14.36 9.47 0 13.92 7.1 13.92 15.54 0 8.74-5.48 13.61-13.33 13.61-8.14 0-13.6-6.51-13.6-14.8zm0 0"/></symbol><symbol overflow="visible" id="302caa13v"><path d="M23.4-105.81c-4.6 0-16.15 3.1-19.7 5.17v4.3l9.33 4.87v67.5c0 11.83-.3 16.72-6.22 18.34l-3.1.9V0c5.76-.14 11.54-.3 18.63-.3 4 0 7.85.16 13.63.3v-5.03l-11.11-.9v-42.02c4.44-2.96 9.03-5.33 14.95-5.33 9.33 0 14.2 5.76 14.2 14.95v14.36c0 11.69-.13 17.31-5.92 18.5l-3.39.74V0c7.55-.14 9.9-.3 18.94-.3 4 0 6.36.16 11.98.3v-4.9l-9.6-.87c-.3-6.96-.16-31.23-.16-33.15 0-13.03-4.14-23.53-18.94-23.53-8.44 0-15.39 4.58-22.06 9.47 0-12.29-.14-38.49.16-51.07zm0 0"/></symbol><symbol overflow="visible" id="302caa13w"><path d="M23.69-49.58c3.25-1.78 7.98-3.84 13.01-3.84 13.33 0 19.99 11.1 19.99 24.4 0 13.47-5.92 24.43-18.36 24.43-8.14 0-14.64-6.5-14.64-17.16zm-12-41.89c0 11.25.15 23.69.15 40.7 0 19.4-.15 37.74-.3 50.77l3.12.73 5.03-5.92c4.58 3.57 11.25 6.67 18.8 6.67 19.67 0 29.74-15.98 29.74-33.45 0-17.76-8.73-30.48-25.6-30.48-7.26 0-14.07 4.43-18.94 8.14v-27.67c0-8.3.43-19.4.87-21.61l-2.22-2.22c-4.57 0-15.98 3.1-19.53 5.17v4.3zm0 0"/></symbol><symbol overflow="visible" id="302caa13x"><path d="M38.03-11.55L21.75-53.58l8.6-1.62v-5.03H0v5.17l4.6 1.19c3.98 1.03 5.76 3.56 7.24 7.24L29.6-1.48h4.3C30.64 6.06 25.02 14.8 15.84 14.8a53.8 53.8 0 01-10.07-1.03c-1.93 3.4-1.47 10.8 1.04 13.3 13.77 0 27.53-11.82 33.3-27.07l20.12-53.13 9.18-2.07v-5.03H41.73v5.03l8 1.33c2.96.59 3.25 2.67 2.22 5.48zm0 0"/></symbol><symbol overflow="visible" id="302caa13D"><path d="M100.9-29.36C94.78-12.3 82.17-6.16 66.48-6.16c-26.92 0-41.42-19.25-41.42-44.97 0-27.46 13.64-46.24 40.23-46.24 16.19 0 28.13 6 31.53 24.15l6.47-.17-.67-26.5c-9.38-3-22-4.9-33.58-4.9-40.06 0-59.66 24.62-59.66 54.29C9.38-18.31 30 1.58 64.6 1.58c15.52 0 26.94-2.85 36.47-7.11l6.14-22.25zm0 0"/></symbol><symbol overflow="visible" id="302caa13E"><path d="M104.98-85.38c0-8.35 2.74-10.1 12.11-11.68v-6.14H73.97v6.14L89.66-95v39.45h-55.4V-95l15.16-2.06v-6.14H6.14v6.14L18.92-95v71.02c0 12.3-1.03 15.46-12.6 18.45V0h45.84v-5.53L34.26-7.9v-40.56h55.22v24.47c0 12.62-1.87 15.93-14.15 18.45V0h44.83v-5.53L104.98-7.9zm0 0"/></symbol><symbol overflow="visible" id="302caa13F"><path d="M78.4-25.1c5.96 14.37 3.76 18-11.59 19.57V0h46.36v-5.53L101.75-7.9l-36.98-98.64-14.66 6.48-28.47 71.17C14.66-11.36 12.95-7.27 2.9-5.52V0h37.67v-5.53l-18.4-2.2 10.73-27.3h41.42zM35.63-42.13l18.76-48.92 17.54 48.92zm0 0"/></symbol><symbol overflow="visible" id="302caa13G"><path d="M6.31 0h45.16v-5.84L33.92-8.7v-35.03c4.94.64 10.74.95 15.5.95 25.74 0 41.25-10.89 41.25-31.56 0-21.31-18.06-28.87-43.12-28.87H6.15v5.36l12.6 2.04v71.66c0 12.3-.86 15.45-12.44 18.45zM34.1-95.8c4.6-.78 8.35-1.26 13.28-1.26 17.57 0 26.6 7.73 26.6 23.36 0 15.15-8.02 24.47-24.88 24.47-4.95 0-10.57-.65-15-2.22zm0 0"/></symbol><symbol overflow="visible" id="302caa13H"><path d="M27.78 0H73.8v-5.84l-16.36-4.1v-86.33h15c12.78.16 14.65 8.2 18.58 20.52l6.8-1.27-2.71-26.82c-8.7.64-21.14.8-37.33.8-22.33 0-36.64 0-54.37-.8L.86-76.7l6.98.95c2.9-12.47 4.25-20.52 19.6-20.52h14.65v72.29c0 12.3-2.72 15.14-14.3 18.14zm0 0"/></symbol><symbol overflow="visible" id="302caa13I"><path d="M34.1-95.64c7.5.16 14.82.33 22.32.64 13.97.47 16.36 7.1 18.24 18.63l7.67-.33-1.72-26.5H6.14v5.36l12.61 2.04v71.82c0 12.3-1.03 15.62-12.44 18.14V0h78.22l2.22-27.94-5.97-.15c-4.6 17.51-8 21.46-19.25 21.46-8.19 0-18.4-.48-27.44-1.57v-41.03c7.66 0 14.83.15 20.96.46 7.33.32 8.53 4.11 9.54 11.36h5.8v-31.07h-5.8c-1.01 7.89-2.22 11.51-9.54 11.67-5.8.15-13.3.15-20.96.15zm0 0"/></symbol><symbol overflow="visible" id="302caa13J"><path d="M63.58-46.72c20.95-4.1 27.26-17.67 27.26-27.76 0-21.16-18.23-28.72-43.12-28.72H6.32v5.36l12.6 2.04v71.82c0 12.3-1.03 15.3-12.44 18.14V0h45.16v-5.84L34.27-8.7v-36.45h12.78C55.56-34.1 70.9-8.52 77.55 0c7.67 0 19.43.63 27.1 1.1l.85-5.52c-11.42-1.74-17.4-7.9-24.9-17.36-5.6-7.1-11.57-17.2-17.02-24.94zM47.89-97.06c17.9 0 26.25 8.69 26.25 22.89 0 13.58-8.19 22.87-25.73 22.87-5.11 0-9.9-.62-14.14-1.1v-43.4a78.77 78.77 0 0113.62-1.26zm0 0"/></symbol><symbol overflow="visible" id="302caa13L"><path d="M77.72-85.06c5.45-7.74 9.03-10.25 19.26-11.52v-6.8H62.55v6.8l11.42 2.2L52.5-63.44l-22.16-31.4 15.16-2.22v-6.31H-.52v6.64l11.43 1.89 31.7 45.3-24.38 34.71c-4.59 6.47-7.5 8.2-16.53 8.99V0h38.7v-5.84L24.02-8.7l23.69-33.76 23.53 33.6-15.34 3.5V0h47.37v-5.84l-12.44-3-33.4-47.5zm0 0"/></symbol><symbol overflow="visible" id="302caa13M"><path d="M6.14-103.2v5.98l12.61 2.06v70.86c0 12.3-1.03 16.72-12.6 18.46V0H46.7v-5.84L34.1-9v-86.16l12.6-2.06v-5.98zm0 0"/></symbol><symbol overflow="visible" id="302caa13N"><path d="M9.02-9.5l-2.9 7.63-2.9-7.63H1.28V0h1.2v-8.48L5.73 0h.79l3.21-8.47V0h1.2v-9.5zm0 0"/></symbol><symbol overflow="visible" id="302caa13O"><path d="M2.47-9.5H1.28V0h1.19zm0 0"/></symbol><symbol overflow="visible" id="302caa13P"><path d="M2.48-1.02V-9.5h-1.2V0h5.78v-1.02zm0 0"/></symbol><symbol overflow="visible" id="302caa13Q"><path d="M7.52 0h1.26L5.16-9.5H3.87L.13 0H1.4l.99-2.63h4.18zM2.75-3.6l1.77-4.68L6.2-3.61zm0 0"/></symbol><symbol overflow="visible" id="302caa13S"><path d="M4.52.17c2.3 0 3.62-1.14 3.62-2.8 0-1.35-.92-2.2-2.45-2.56l-2.14-.48c-1.1-.25-1.46-.72-1.46-1.4 0-.91.77-1.62 2.14-1.62 1.4 0 2.32.58 2.5 1.85h1.25C7.77-8.8 6.31-9.67 4.25-9.67c-2.1 0-3.4 1.19-3.4 2.73 0 1.24.76 2.1 2.17 2.4l2.2.5c1.1.24 1.67.74 1.67 1.57 0 .92-.76 1.64-2.37 1.64-1.55 0-2.55-.65-2.72-2H.55c.18 1.92 1.47 3 3.97 3zm0 0"/></symbol><symbol overflow="visible" id="302caa13T"><path d="M9.03-9.5H7.86v5.86C7.86-1.8 6.7-.87 5.12-.87c-1.67 0-2.76-.96-2.76-2.83v-5.8H1.17v5.8C1.17-1.14 2.72.17 5.11.17c2.39 0 3.92-1.3 3.92-3.87zm0 0"/></symbol><symbol overflow="visible" id="302caa13U"><path d="M5.2-9.5H1.28V0h1.2v-4.16h2.63c2.17 0 3.25-1.14 3.25-2.7 0-1.64-.98-2.64-3.16-2.64zm-.18 4.34H2.48v-3.36h2.54c1.5 0 2.15.6 2.15 1.66 0 1.02-.65 1.7-2.15 1.7zm0 0"/></symbol><symbol overflow="visible" id="302caa13V"><path d="M7.86-8.5v-1H1.28V0h6.58v-1.02h-5.4v-3.35h4.8v-.99h-4.8V-8.5zm0 0"/></symbol><symbol overflow="visible" id="302caa13W"><path d="M7.55 0h1.33L5.8-4.28C7.58-4.5 8.36-5.45 8.36-6.9c0-1.61-1-2.61-3.17-2.61h-3.9V0h1.2v-4.16h2.04zM2.48-8.52h2.55c1.38 0 2.14.54 2.14 1.63 0 1.1-.73 1.73-2.12 1.73H2.48zm0 0"/></symbol><symbol overflow="visible" id="302caa13X"><path d="M7.8-9.5H.3v.97h3.16V0h1.17v-8.53H7.8zm0 0"/></symbol><symbol overflow="visible" id="302caa13Y"><path d="M5.1.17c2.46 0 3.63-1.19 4.06-3.2H7.9c-.38 1.58-1.3 2.2-2.82 2.2-1.8 0-3.21-1.53-3.21-3.92 0-2.4 1.42-3.94 3.21-3.94 1.57 0 2.47.67 2.8 2.22h1.25c-.37-1.92-1.53-3.2-4.05-3.2C2.42-9.67.7-7.61.7-4.75.69-1.87 2.44.17 5.09.17zm0 0"/></symbol><symbol overflow="visible" id="302caa13Z"><path d="M4.9-4.92v.98h3.3C8.2-2.04 7.05-.83 5.16-.83c-1.99 0-3.29-1.44-3.29-3.92 0-2.44 1.33-3.94 3.24-3.94 1.48 0 2.31.63 2.75 1.75H9.1c-.56-1.89-2.02-2.73-3.98-2.73C2.46-9.67.68-7.66.68-4.75.69-1.81 2.49.17 5.16.17 6.8.17 7.8-.6 8.28-1.73V0h1.06l.02-4.92zm0 0"/></symbol><symbol overflow="visible" id="302caa13ab"><path d="M5.53-9.66a4.9 4.9 0 100 9.82 4.9 4.9 0 000-9.82zm0 9a4.08 4.08 0 110-8.16 4.08 4.08 0 010 8.16zm-1.2-4.71c.31 0 .47-.46.47-1 0-.55-.16-.97-.47-.97-.35 0-.52.42-.52.96 0 .55.17 1 .52 1zm2.4 0c.33 0 .52-.46.52-1 0-.55-.19-.97-.52-.97-.32 0-.46.42-.46.96 0 .55.14 1 .46 1zm1.4.68c-.32 1.5-1.33 2.22-2.6 2.22-1.26 0-2.28-.72-2.6-2.22h-.48a3 3 0 003.08 3.03 3 3 0 003.08-3.03zm0 0"/></symbol><symbol overflow="visible" id="302caa13ac"><path d="M2.69-9.5c-.24.97-.74 1.58-2.35 1.63v.98c1.03 0 1.68-.16 2.16-.6V0h1.2v-9.5zm0 0"/></symbol><symbol overflow="visible" id="302caa13ad"><path d="M4.36-6.25c-1.17 0-2 .48-2.47 1.34v-.2c0-2.06.9-3.56 2.49-3.56 1.04 0 1.6.51 1.8 1.44h1.2c-.25-1.57-1.22-2.44-3-2.44-1.9 0-3.65 1.45-3.65 4.84 0 2.58.79 5 3.5 5 1.99 0 3.3-1.31 3.3-3.26 0-1.79-1.17-3.16-3.17-3.16zm-.08 5.4C2.9-.84 2.1-1.96 2.1-3.08a2.1 2.1 0 012.2-2.14c1.4 0 2.08 1.01 2.08 2.14 0 1.12-.68 2.25-2.09 2.25zm0 0"/></symbol><symbol overflow="visible" id="302caa13ae"><path d="M5.72-4.97a2.21 2.21 0 001.53-2.1c0-1.5-1.3-2.6-3.13-2.6C2.3-9.67 1-8.57 1-7.07c0 .96.6 1.79 1.53 2.1A2.4 2.4 0 00.7-2.63C.7-1.01 2.14.17 4.12.17c2 0 3.43-1.19 3.43-2.8a2.4 2.4 0 00-1.83-2.34zM4.12-8.7c1.16 0 1.9.7 1.9 1.65 0 .85-.66 1.61-1.9 1.61-1.23 0-1.9-.76-1.9-1.6 0-.96.75-1.66 1.9-1.66zm0 7.84C2.88-.86 2-1.56 2-2.66c0-1.09.88-1.8 2.13-1.8 1.26 0 2.12.71 2.12 1.8 0 1.1-.86 1.8-2.13 1.8zm0 0"/></symbol><symbol overflow="visible" id="302caa13af"><path d="M7.53-3.3H6.3v-6.2H4.53L.33-3.3v.99h4.76V0h1.2v-2.31h1.24zm-6.05 0L5.1-8.6v5.3zm0 0"/></symbol><symbol overflow="visible" id="302caa13ag"><path d="M4.27-6.27c-.97 0-1.75.36-2.22.96l.2-3.22h4.64v-.97H1.3L.91-4.3H2.3c.33-.6.92-.93 1.76-.93 1.4 0 2.13.9 2.13 2.17 0 1.25-.8 2.23-2.11 2.23-1.31 0-2.13-.75-2.19-1.92H.7C.7-1.02 2.1.17 4.06.17c2.19 0 3.3-1.53 3.3-3.2 0-1.83-1.16-3.24-3.1-3.24zm0 0"/></symbol></defs><path d="M0 768h1365V0H0zm0 0" fill="#00d800"/><g fill="#fdfaf5"><use xlink:href="#302caa13a" x="207.9404" y="183.5586"/><use xlink:href="#302caa13b" x="250.39736" y="183.5586"/></g><g fill="#fdfaf5"><use xlink:href="#302caa13c" x="315.35288" y="183.5586"/><use xlink:href="#302caa13c" x="353.27384" y="183.5586"/><use xlink:href="#302caa13c" x="391.1948" y="183.5586"/></g><use xlink:href="#302caa13d" x="429.11576" y="183.5586" fill="#fdfaf5"/><use xlink:href="#302caa13e" x="470.592944" y="183.5586" fill="#fdfaf5"/><use xlink:href="#302caa13f" x="538.560368" y="183.5586" fill="#fdfaf5"/><use xlink:href="#302caa13b" x="619.573328" y="183.5586" fill="#fdfaf5"/><use xlink:href="#302caa13g" x="684.238544" y="183.5586" fill="#fdfaf5"/><use xlink:href="#302caa13h" x="715.990544" y="183.5586" fill="#fdfaf5"/><use xlink:href="#302caa13i" x="754.455824" y="183.5586" fill="#fdfaf5"/><use xlink:href="#302caa13b" x="857.31416" y="183.5586" fill="#fdfaf5"/><use xlink:href="#302caa13f" x="912.29048" y="183.5586" fill="#fdfaf5"/><use xlink:href="#302caa13j" x="994.736816" y="183.5586" fill="#fdfaf5"/><g fill="#fdfaf5"><use xlink:href="#302caa13k" x="1037.447792" y="183.5586"/><use xlink:href="#302caa13b" x="1093.149872" y="183.5586"/></g><g fill="#fdfaf5"><use xlink:href="#302caa13l" x="236.9131" y="337.8916"/><use xlink:href="#302caa13m" x="367.3011" y="337.8916"/></g><use xlink:href="#302caa13n" x="410.7539" y="337.8916" fill="#fdfaf5"/><g fill="#fdfaf5"><use xlink:href="#302caa13o" x="441.0939" y="337.8916"/><use xlink:href="#302caa13p" x="472.0259" y="337.8916"/></g><g fill="#fdfaf5"><use xlink:href="#302caa13q" x="605.0187" y="337.8916"/><use xlink:href="#302caa13r" x="643.9427" y="337.8916"/></g><use xlink:href="#302caa13r" x="681.2979" y="337.8916" fill="#fdfaf5"/><use xlink:href="#302caa13s" x="713.5471" y="337.8916" fill="#fdfaf5"/><use xlink:href="#302caa13t" x="777.9123" y="337.8916" fill="#fdfaf5"/><use xlink:href="#302caa13u" x="850.7875" y="337.8916" fill="#fdfaf5"/><use xlink:href="#302caa13v" x="916.6475" y="337.8916" fill="#fdfaf5"/><use xlink:href="#302caa13w" x="989.8039" y="337.8916" fill="#fdfaf5"/><use xlink:href="#302caa13x" x="1059.6599" y="337.8916" fill="#fdfaf5"/><use xlink:href="#302caa13y" x="154.1274" y="503.2861" fill="#fdfaf5"/><use xlink:href="#302caa13z" x="260.487528" y="503.2861" fill="#fdfaf5"/><use xlink:href="#302caa13a" x="331.158408" y="503.2861" fill="#fdfaf5"/><use xlink:href="#302caa13z" x="373.706088" y="503.2861" fill="#fdfaf5"/><use xlink:href="#302caa13f" x="444.014088" y="503.2861" fill="#fdfaf5"/><use xlink:href="#302caa13b" x="525.027048" y="503.2861" fill="#fdfaf5"/><use xlink:href="#302caa13a" x="586.081608" y="503.2861" fill="#fdfaf5"/><g fill="#fdfaf5"><use xlink:href="#302caa13h" x="633.800328" y="503.2861"/><use xlink:href="#302caa13A" x="672.265608" y="503.2861"/></g><use xlink:href="#302caa13k" x="771.059688" y="503.2861" fill="#fdfaf5"/><use xlink:href="#302caa13B" x="826.471464" y="503.2861" fill="#fdfaf5"/><use xlink:href="#302caa13f" x="898.829736" y="503.2861" fill="#fdfaf5"/><use xlink:href="#302caa13C" x="981.276072" y="503.2861" fill="#fdfaf5"/><use xlink:href="#302caa13z" x="1056.646248" y="503.2861" fill="#fdfaf5"/><use xlink:href="#302caa13f" x="1126.954248" y="503.2861" fill="#fdfaf5"/><use xlink:href="#302caa13D" x="157.2114" y="672.5049" fill="#fdfaf5"/><g fill="#fdfaf5"><use xlink:href="#302caa13E" x="266.286472" y="672.5049"/><use xlink:href="#302caa13F" x="394.449682" y="672.5049"/></g><use xlink:href="#302caa13G" x="512.216673" y="672.5049" fill="#fdfaf5"/><g fill="#fdfaf5"><use xlink:href="#302caa13H" x="610.009293" y="672.5049"/><use xlink:href="#302caa13I" x="710.562875" y="672.5049"/></g><use xlink:href="#302caa13J" x="801.487173" y="672.5049" fill="#fdfaf5"/><g fill="#fdfaf5"><use xlink:href="#302caa13K" x="903.55758" y="672.5049"/><use xlink:href="#302caa13L" x="939.177408" y="672.5049"/></g><use xlink:href="#302caa13L" x="1048.201351" y="672.5049" fill="#fdfaf5"/><use xlink:href="#302caa13M" x="1154.788148" y="672.5049" fill="#fdfaf5"/><g fill="#fdfaf5"><use xlink:href="#302caa13N" x="211" y="215.3379"/><use xlink:href="#302caa13O" x="223.418" y="215.3379"/></g><use xlink:href="#302caa13P" x="227.3548" y="215.3379" fill="#fdfaf5"/><use xlink:href="#302caa13Q" x="235.4874" y="215.3379" fill="#fdfaf5"/><g fill="#fdfaf5"><use xlink:href="#302caa13R" x="244.8114" y="215.3379"/><use xlink:href="#302caa13S" x="248.5774" y="215.3379"/></g><use xlink:href="#302caa13T" x="257.5836" y="215.3379" fill="#fdfaf5"/><use xlink:href="#302caa13U" x="268.0318" y="215.3379" fill="#fdfaf5"/><use xlink:href="#302caa13V" x="276.982" y="215.3379" fill="#fdfaf5"/><use xlink:href="#302caa13W" x="285.6088" y="215.3379" fill="#fdfaf5"/><g fill="#fdfaf5"><use xlink:href="#302caa13R" x="295.2408" y="215.3379"/><use xlink:href="#302caa13O" x="299.0068" y="215.3379"/><use xlink:href="#302caa13X" x="302.9688" y="215.3379"/></g><use xlink:href="#302caa13Q" x="310.2908" y="215.3379" fill="#fdfaf5"/><use xlink:href="#302caa13P" x="319.549" y="215.3379" fill="#fdfaf5"/><use xlink:href="#302caa13O" x="327.0992" y="215.3379" fill="#fdfaf5"/><use xlink:href="#302caa13Y" x="331.1088" y="215.3379" fill="#fdfaf5"/><use xlink:href="#302caa13N" x="346.996" y="369.3379" fill="#fdfaf5"/><g fill="#fdfaf5"><use xlink:href="#302caa13O" x="359.4182" y="369.3379"/><use xlink:href="#302caa13P" x="363.3522" y="369.3379"/></g><use xlink:href="#302caa13Q" x="371.4848" y="369.3379" fill="#fdfaf5"/><g fill="#fdfaf5"><use xlink:href="#302caa13R" x="380.8088" y="369.3379"/><use xlink:href="#302caa13W" x="384.5748" y="369.3379"/><use xlink:href="#302caa13V" x="394.0388" y="369.3379"/></g><use xlink:href="#302caa13Z" x="402.6376" y="369.3379" fill="#fdfaf5"/><use xlink:href="#302caa13T" x="413.118" y="369.3379" fill="#fdfaf5"/><use xlink:href="#302caa13P" x="423.5662" y="369.3379" fill="#fdfaf5"/><use xlink:href="#302caa13Q" x="431.6988" y="369.3379" fill="#fdfaf5"/><use xlink:href="#302caa13W" x="440.957" y="369.3379" fill="#fdfaf5"/><g fill="#fdfaf5"><use xlink:href="#302caa13N" x="615.992" y="705.3379"/><use xlink:href="#302caa13O" x="628.41" y="705.3379"/></g><use xlink:href="#302caa13P" x="632.3468" y="705.3379" fill="#fdfaf5"/><use xlink:href="#302caa13Q" x="640.4794" y="705.3379" fill="#fdfaf5"/><g fill="#fdfaf5"><use xlink:href="#302caa13R" x="649.8034" y="705.3379"/><use xlink:href="#302caa13O" x="653.5694" y="705.3379"/><use xlink:href="#302caa13X" x="657.5314" y="705.3379"/></g><use xlink:href="#302caa13Q" x="664.852" y="705.3379" fill="#fdfaf5"/><use xlink:href="#302caa13P" x="674.1102" y="705.3379" fill="#fdfaf5"/><use xlink:href="#302caa13O" x="681.6618" y="705.3379" fill="#fdfaf5"/><use xlink:href="#302caa13Y" x="685.67" y="705.3379" fill="#fdfaf5"/><g fill="#fdfaf5"><use xlink:href="#302caa13N" x="475.992" y="538.3319"/><use xlink:href="#302caa13O" x="488.41" y="538.3319"/></g><use xlink:href="#302caa13P" x="492.3468" y="538.3319" fill="#fdfaf5"/><use xlink:href="#302caa13Q" x="500.4794" y="538.3319" fill="#fdfaf5"/><g fill="#fdfaf5"><use xlink:href="#302caa13R" x="509.8034" y="538.3319"/><use xlink:href="#302caa13S" x="513.5694" y="538.3319"/></g><use xlink:href="#302caa13T" x="522.5756" y="538.3319" fill="#fdfaf5"/><use xlink:href="#302caa13U" x="533.0238" y="538.3319" fill="#fdfaf5"/><use xlink:href="#302caa13V" x="541.974" y="538.3319" fill="#fdfaf5"/><use xlink:href="#302caa13W" x="550.6008" y="538.3319" fill="#fdfaf5"/><g fill="#fdfaf5"><use xlink:href="#302caa13R" x="560.2328" y="538.3319"/><use xlink:href="#302caa13O" x="563.9988" y="538.3319"/><use xlink:href="#302caa13X" x="567.9608" y="538.3319"/></g><use xlink:href="#302caa13Q" x="575.2828" y="538.3319" fill="#fdfaf5"/><use xlink:href="#302caa13P" x="584.541" y="538.3319" fill="#fdfaf5"/><use xlink:href="#302caa13O" x="592.0912" y="538.3319" fill="#fdfaf5"/><use xlink:href="#302caa13Y" x="596.1008" y="538.3319" fill="#fdfaf5"/><use xlink:href="#302caa13aa" x="351.4658" y="182.6084" fill="#fdfaf5"/><g fill="#fdfaf5"><use xlink:href="#302caa13ab" x="73.9424" y="127.8955"/><use xlink:href="#302caa13R" x="85.3804" y="127.8955"/><use xlink:href="#302caa13ac" x="89.1464" y="127.8955"/></g><g fill="#fdfaf5"><use xlink:href="#302caa13ad" x="94.4356" y="127.8955"/><use xlink:href="#302caa13ae" x="103.0176" y="127.8955"/><use xlink:href="#302caa13R" x="111.6136" y="127.8955"/><use xlink:href="#302caa13U" x="115.3796" y="127.8955"/></g><use xlink:href="#302caa13X" x="124.6322" y="127.8955" fill="#fdfaf5"/><use xlink:href="#302caa13S" x="132.9664" y="127.8955" fill="#fdfaf5"/><g fill="#fdfaf5"><use xlink:href="#302caa13ab" x="1232.0504" y="288.8955"/><use xlink:href="#302caa13R" x="1243.4884" y="288.8955"/><use xlink:href="#302caa13ac" x="1247.2544" y="288.8955"/></g><use xlink:href="#302caa13af" x="1252.4526" y="288.8955" fill="#fdfaf5"/><g fill="#fdfaf5"><use xlink:href="#302caa13ae" x="1260.9198" y="288.8955"/><use xlink:href="#302caa13R" x="1269.5158" y="288.8955"/><use xlink:href="#302caa13U" x="1273.2818" y="288.8955"/></g><use xlink:href="#302caa13X" x="1282.5344" y="288.8955" fill="#fdfaf5"/><use xlink:href="#302caa13S" x="1290.8686" y="288.8955" fill="#fdfaf5"/><g fill="#fdfaf5"><use xlink:href="#302caa13ab" x="73.9424" y="443.8895"/><use xlink:href="#302caa13R" x="85.3804" y="443.8895"/><use xlink:href="#302caa13ac" x="89.1464" y="443.8895"/></g><g fill="#fdfaf5"><use xlink:href="#302caa13ad" x="94.4356" y="443.8895"/><use xlink:href="#302caa13ae" x="103.0176" y="443.8895"/><use xlink:href="#302caa13R" x="111.6136" y="443.8895"/><use xlink:href="#302caa13U" x="115.3796" y="443.8895"/></g><use xlink:href="#302caa13X" x="124.6322" y="443.8895" fill="#fdfaf5"/><use xlink:href="#302caa13S" x="132.9664" y="443.8895" fill="#fdfaf5"/><g fill="#fdfaf5"><use xlink:href="#302caa13ab" x="1232.2044" y="627.8915"/><use xlink:href="#302caa13R" x="1243.6424" y="627.8915"/><use xlink:href="#302caa13ac" x="1247.4084" y="627.8915"/></g><use xlink:href="#302caa13ag" x="1252.7116" y="627.8915" fill="#fdfaf5"/><g fill="#fdfaf5"><use xlink:href="#302caa13ag" x="1261.0458" y="627.8915"/><use xlink:href="#302caa13R" x="1269.3618" y="627.8915"/><use xlink:href="#302caa13U" x="1273.1278" y="627.8915"/></g><use xlink:href="#302caa13X" x="1282.3804" y="627.8915" fill="#fdfaf5"/><use xlink:href="#302caa13S" x="1290.7146" y="627.8915" fill="#fdfaf5"/></svg>