<?xml version='1.0' encoding='UTF-8'?>
<svg xmlns="http://www.w3.org/2000/svg" xmlns:xlink="http://www.w3.org/1999/xlink" width="1366px" height="768px" viewBox="0 0 1366 768" x="0px" y="0px" enable-background="new 0 0 1366 768"><defs><symbol overflow="visible" id="d824e2c9b"><path d="M42.27-77.77c-7.82 0-12.32-.12-20.02-.12H3.2v2.95c5.44.49 8.28 1.78 8.28 7.11v57.77c0 5.33-1.65 6.98-8.28 7.1V0h39.07C69.48 0 82.5-17.28 82.5-40.72c0-19.66-9.94-37.05-40.23-37.05zm0 74.7c-7.82 0-14.7-.96-20.02-2.26v-68.06c5.1-.83 11.95-1.42 18.6-1.42C61.3-74.81 70.3-57.9 70.3-39.2c0 16.94-8.04 36.11-28.04 36.11zm0 0"/></symbol><symbol overflow="visible" id="d824e2c9c"><path d="M65.81-21.19c-4.5 9.7-8.64 16.92-19.53 17.75-6.98.36-13.25.49-24.03.6v-34.57h18c6.63 0 8.52 3.2 9.7 10.9h2.38v-24.63h-2.38c-1.18 7.7-3.08 10.66-9.7 10.66h-18v-34.57c6.88.11 12.08.36 19.42.7 9.58.72 12.55 4.04 18.94 17.77l2.25-.48-3.44-20.83H3.2v2.95c5.44.49 8.28 1.78 8.28 7.11v57.77c0 5.33-1.65 6.98-8.28 7.1V0h60.25l4.61-20.72zm0 0"/></symbol><symbol overflow="visible" id="d824e2c9e"><path d="M41.31-40.13l3.2-.95c3.32-1.3 15.27-4.37 15.27-18.34 0-12.19-9.6-18.47-21.67-18.47H3.2v2.95c5.43.49 8.27 1.78 8.27 7.11v57.77c0 5.33-1.65 6.98-8.28 7.1V0h34.44c15.4 0 25.33-6.86 25.33-21.08 0-11.72-10.64-18.34-21.66-19.05zM30.55-75.52c10.3 0 16.8 6.63 16.8 17.04 0 7.93-3.55 15.75-12.32 17.17-2.12.36-8.16.6-12.78.7v-34.44c2.6-.36 5.22-.47 8.3-.47zM34.8-2.84c-3.42 0-8.52-.11-12.55-.36v-34.57h9.72c11.12 0 18.94 6.65 18.94 17.54 0 10.04-5.82 17.39-16.11 17.39zm0 0"/></symbol><symbol overflow="visible" id="d824e2c9f"><path d="M76.6-2.72c-6.76 0-8.41-2.01-10.9-7.34L39.53-77.9l.13-.13h-20.6v2.38c9.11 0 11.6 5.33 10.07 10.66L7.45-9.11C5.56-4.6 2.37-2.7-2.85-2.7V0L8.53-.7 21.9 0v-2.72C15.39-2.72 9.83-4.6 11.12-9l.24-.7 7.58-20.49h27.58l7.34 19.3c1.55 4.86.36 8.17-8.64 8.17V0l18.34-.7L76.6 0zM20-33.27l12.55-33.96 12.9 33.96zm0 0"/></symbol><symbol overflow="visible" id="d824e2c9g"><path d="M10.77-67.83v43.92c0 16.7 9.46 25.8 27.34 25.8 13.97 0 29.25-4.84 29.25-29.1v-40.62c0-5.33 1.66-6.98 8.28-7.1v-2.96h-23.8v2.95c9.83.13 11.72 1.78 11.85 8.17v40.96c0 18.12-8.64 22.86-22.61 22.86-12.67 0-19.53-5.92-19.53-20.96v-43.92c0-5.33 3.07-6.28 10.17-7.1v-2.96H2.48v2.95c5.46.49 8.29 1.78 8.29 7.11zm0 0"/></symbol><symbol overflow="visible" id="d824e2c9h"><path d="M53.75-77.9v2.96c9.7.13 10.4 2.02 8.4 8.17l-17.4 52.8-20.48-53.16c-1.79-4.6.71-6.98 7.34-7.8v-2.96H1.19v2.95c5.44.49 8.28 2.25 10.3 7.35L38 0h12.08l-3.8-9.94 19.66-57.89c1.76-5.2 4.37-7.1 10.42-7.1v-2.96zm0 0"/></symbol><symbol overflow="visible" id="d824e2c9i"><path d="M42.86 1.9C17.52 1.9 3.55-15.4 3.55-38.84c0-22.73 14.68-40.12 38-40.12 25.58 0 38.72 16.1 38.72 40.72 0 22.73-14.93 40.12-37.41 40.12zm.94-3.09c20.48 0 24.75-19.04 24.75-36.69 0-17.28-7.58-38.12-27.6-38.12-20.12 0-25.68 16.94-25.68 34.81 0 20.83 7.57 40 28.53 40zm0 0"/></symbol><symbol overflow="visible" id="d824e2c9j"><path d="M31.02-74.94v-2.95H3.55v2.95c5.45.49 8.3 1.78 8.3 7.11v57.77c0 5.33-1.66 6.98-8.3 7.1V0h27.47v-2.95c-6.4-.13-8.41-1.78-8.41-8.18v-56.7c0-5.33 2.02-6.62 8.4-7.1zm0 0"/></symbol><symbol overflow="visible" id="d824e2c9k"><path d="M44.16-37.28C57.17-39.66 65.8-47 65.8-57.9c0-14.2-11.36-20.23-29-20.23-8.87 0-16.22.23-23.8.23h-9.8v2.95c5.43.49 8.27 1.78 8.27 7.11v57.77c0 5.33-1.65 6.98-8.28 7.1V0h31.83v-2.95c-9.94-.13-12.78-1.78-12.78-8.18v-25.8c2.84.23 6.16.48 9.23.59L60.97 0h12.42v-1.78zM22.25-74.94c2.84-.23 7.81-.83 10.55-.83 17.98 0 21.65 11.14 21.65 18.36 0 7.46-4.14 18.46-23.2 18.46-3.44 0-6.27-.35-9-1.07zm0 0"/></symbol><symbol overflow="visible" id="d824e2c9l"><path d="M32.9-78.95c-15.5 0-25.45 7.45-25.45 20.47 0 9.35 4.74 15.28 13.03 19.78l17.05 9.23c5.8 3.19 9.94 7.92 9.94 15.38 0 9.59-7.81 13.03-13.84 13.03-11.49 0-18.36-7.81-23.8-22.74l-2.97.49 2.37 20.6c5.57 2.35 15.27 4.6 22.38 4.6 14.44 0 25.92-7.45 25.92-21.19 0-8.64-5.1-13.84-11.72-17.98l-17.64-9.49c-6.15-3.65-10.76-8.04-10.76-15.26 0-7.92 4.6-13.84 14.3-13.84 8.54 0 16.23 6.15 20.62 20.59h2.48L53.5-75.77a65.9 65.9 0 00-20.6-3.18zm0 0"/></symbol><symbol overflow="visible" id="d824e2c9m"><path d="M79.31-74.94v-2.95H51.84v2.95c5.46.49 8.3 1.78 8.3 7.11v27.47h-38.6v-27.47c0-5.33 2.02-6.62 8.41-7.1v-2.96H2.48v2.95c5.46.49 8.29 1.78 8.29 7.11v57.77c0 5.33-1.66 6.98-8.29 7.1V0h27.47v-2.95c-6.39-.13-8.4-1.78-8.4-8.18v-26.15h38.6v27.22c0 5.33-1.67 6.98-8.3 7.1V0H79.3v-2.95c-6.39-.13-8.4-1.78-8.4-8.18v-56.7c0-5.33 2.01-6.62 8.4-7.1zm0 0"/></symbol><symbol overflow="visible" id="d824e2c9n"><path d="M68.55-75.52v-2.84l-7.24.34H11.36l-7.58-.34v2.84L0-57.06l2.25.72c4.73-9.7 8.05-19.07 18.34-19.18h10.9v64.4c0 6.39-2.6 8.04-9 8.17V0h28.76v-2.95c-6.4-.13-8.98-1.78-8.98-8.18v-64.39h10.17c10.3.11 13.26 9.47 18 19.18l2.25-.72zm0 0"/></symbol><symbol overflow="visible" id="d824e2c9o"><path d="M52.44-77.9v2.96c10.19.13 12.08 1.78 12.19 8.17l.59 49.85L20-77.9H2.37v2.95c6.99.13 8.52 1.78 8.52 7.11l-.47 57.77c0 5.33-1.65 6.98-8.3 7.1V0h23.8v-2.95c-10.17-.13-12.19-1.78-12.19-8.18l-.36-57.65L65.47 0h1.89l.6-67.83c0-5.33 1.65-6.98 8.27-7.1v-2.96zm0 0"/></symbol><symbol overflow="visible" id="d824e2c9p"><path d="M59.42-77.9H2.02v2.96c5.43.49 8.28 1.78 8.28 7.11v57.77c0 5.33-1.66 6.98-8.28 7.1V0h31.84v-2.95c-9.95-.13-12.78-1.78-12.78-8.18V-37.4h19.17c6.63 0 8.52 3.2 9.7 10.9h2.38v-24.63h-2.38c-1.18 7.7-3.08 10.66-9.7 10.66H21.08v-34.57c9.94.11 11.12.24 21.19.7 10.89.83 13.84 7.94 18.34 17.77l2.25-.48zm0 0"/></symbol><symbol overflow="visible" id="d824e2c9q"><path d="M47.47-99.08l-7.58-7.81-17.4 22.14 1.67 1.77zM76.59-2.72c-6.75 0-8.4-2.01-10.89-7.34L39.53-77.9l.13-.13h-20.6v2.38c9.11 0 11.6 5.33 10.07 10.66L7.45-9.11C5.56-4.6 2.37-2.7-2.85-2.7V0L8.53-.7 21.9 0v-2.72C15.39-2.72 9.83-4.6 11.12-9l.24-.7 7.58-20.49h27.58l7.34 19.3c1.55 4.86.36 8.17-8.64 8.17V0l18.34-.7L76.6 0zM20-33.27l12.55-33.96 12.9 33.96zm0 0"/></symbol><symbol overflow="visible" id="d824e2c9r"><path d="M60.6-25.45c-4.37 9.6-9.35 20.72-19.88 22.01-8.75.24-17.75.49-25.56.6l46.51-73.27v-1.78H7.57L2.96-54.7l2.25.47c4.4-9.58 8.53-18.94 18.96-20.12 8.51-.24 16.8-.47 24.14-.6L2.38-1.66V0H57.3l5.56-24.98zm0 0"/></symbol><symbol overflow="visible" id="d824e2c9s"><path d="M9-9.9H7.4L2.57-5.74v-4.18H1.34V0h1.24v-5.13L7.44 0h1.48L3.86-5.45zm0 0"/></symbol><symbol overflow="visible" id="d824e2c9t"><path d="M9.4-9.9H8.18v6.1c0 1.94-1.19 2.9-2.84 2.9-1.74 0-2.88-1-2.88-2.94v-6.07H1.22v6.07c0 2.65 1.6 4.01 4.1 4.01 2.5 0 4.09-1.34 4.09-4.01zm0 0"/></symbol><symbol overflow="visible" id="d824e2c9u"><path d="M5.42-9.9H1.34V0h1.24v-4.33h2.75c2.25 0 3.37-1.19 3.37-2.81 0-1.7-1.01-2.77-3.28-2.77zm-.2 4.54H2.58v-3.5h2.64c1.56 0 2.25.61 2.25 1.72 0 1.06-.69 1.78-2.25 1.78zm0 0"/></symbol><symbol overflow="visible" id="d824e2c9v"><path d="M7.83 0h1.31L5.36-9.9H4.03L.13 0h1.3l1.05-2.72h4.36zM2.86-3.77l1.83-4.86 1.76 4.86zm0 0"/></symbol><symbol overflow="visible" id="d824e2c9x"><path d="M7.86 0h1.39l-3.2-4.45C7.89-4.67 8.7-5.7 8.7-7.17c0-1.67-1.03-2.74-3.3-2.74H1.35V0h1.24v-4.33h2.14zM2.58-8.86h2.65c1.44 0 2.24.55 2.24 1.69 0 1.15-.77 1.81-2.2 1.81h-2.7zm0 0"/></symbol><symbol overflow="visible" id="d824e2c9y"><path d="M6.78-5.14a2.26 2.26 0 001.78-2.14c0-1.64-1.04-2.63-3.3-2.63H1.35V0h4.14c2.5 0 3.54-1.08 3.54-2.81 0-1.27-.88-2.14-2.24-2.33zM4.94-8.86c1.45 0 2.37.4 2.37 1.58 0 1.08-.8 1.72-2.17 1.72H2.56v-3.3zm.3 7.83H2.55v-3.5h2.69c1.52 0 2.53.4 2.53 1.72 0 1.39-1.01 1.78-2.55 1.78zm0 0"/></symbol><symbol overflow="visible" id="d824e2c9z"><path d="M2.56-9.9H1.34V0h1.22zm0 0"/></symbol><symbol overflow="visible" id="d824e2c9A"><path d="M5.31.17c2.57 0 3.78-1.23 4.22-3.33h-1.3c-.39 1.64-1.36 2.3-2.92 2.3-1.87 0-3.36-1.6-3.36-4.08 0-2.5 1.49-4.1 3.36-4.1 1.61 0 2.57.7 2.9 2.3h1.3c-.38-2-1.59-3.34-4.2-3.34-2.8 0-4.6 2.14-4.6 5.14C.72-1.95 2.54.17 5.32.17zm0 0"/></symbol><symbol overflow="visible" id="d824e2c9B"><path d="M8.17-8.84v-1.07H1.34V0h6.83v-1.05h-5.6v-3.5h5v-1.03h-5v-3.26zm0 0"/></symbol><symbol overflow="visible" id="d824e2c9C"><path d="M5.1-5.13v1.04h3.45C8.53-2.13 7.33-.86 5.35-.86c-2.04 0-3.4-1.5-3.4-4.08 0-2.54 1.4-4.1 3.38-4.1 1.53 0 2.39.65 2.84 1.8h1.31c-.57-1.96-2.09-2.84-4.15-2.84-2.77 0-4.61 2.11-4.61 5.14C.72-1.89 2.58.17 5.36.17c1.72 0 2.76-.8 3.26-1.98V0h1.1l.01-5.13zm0 0"/></symbol><symbol overflow="visible" id="d824e2c9D"><path d="M2.6-1.05V-9.9H1.33V0h6v-1.05zm0 0"/></symbol><symbol overflow="visible" id="d824e2c9E"><path d="M8.31-9.9v8.92l-5.1-8.93H1.33V0H2.5v-8.9L7.6 0h1.87v-9.9zm0 0"/></symbol><symbol overflow="visible" id="d824e2c9F"><path d="M4.52-9.9H1.34V0h3.18c2.8 0 4.8-1.9 4.8-4.94 0-3.06-2-4.97-4.8-4.97zm-.2 8.87H2.57v-7.83h1.77c2.37 0 3.76 1.44 3.76 3.92 0 2.46-1.42 3.9-3.76 3.9zm0 0"/></symbol><symbol overflow="visible" id="d824e2c9G"><path d="M5.33.17c2.72 0 4.6-2.06 4.6-5.1 0-3.07-1.88-5.15-4.6-5.15C2.59-10.08.72-8 .72-4.94.72-1.89 2.59.17 5.32.17zm0-1.03c-2.05 0-3.38-1.56-3.38-4.08 0-2.54 1.33-4.1 3.38-4.1 2.03 0 3.36 1.56 3.36 4.1 0 2.52-1.33 4.08-3.36 4.08zm0 0"/></symbol><symbol overflow="visible" id="d824e2c9H"><path d="M12.6-5.63H.3v1.05h12.3zm0 0"/></symbol><symbol overflow="visible" id="d824e2c9I"><path d="M3.2-2.83l2.27-1.34c1.6-.94 1.92-1.85 1.92-2.92 0-1.7-1.17-2.99-3.2-2.99-2.17 0-3.36 1.4-3.42 3.35h1.18c.1-1.43.83-2.3 2.24-2.3 1.34 0 1.97.89 1.97 1.94 0 .86-.4 1.48-1.36 2.04L2.83-3.89C1.27-2.97.66-1.87.66-.42V0h6.73v-1.02H1.9c.14-.84.61-1.39 1.31-1.8zm0 0"/></symbol><symbol overflow="visible" id="d824e2c9J"><path d="M2.8-9.9C2.55-8.88 2.05-8.26.34-8.2v1.02c1.08 0 1.75-.16 2.27-.63V0h1.25v-9.9zm0 0"/></symbol><symbol overflow="visible" id="d824e2c9K"><path d="M4.45-6.53c-1.01 0-1.83.37-2.33.98l.22-3.33h4.83V-9.9H1.34L.97-4.47h1.42c.34-.62.97-.98 1.84-.98 1.44 0 2.2.95 2.2 2.26 0 1.31-.82 2.33-2.18 2.33-1.36 0-2.22-.78-2.28-2H.73C.73-1.05 2.17.17 4.23.17c2.27 0 3.44-1.6 3.44-3.33 0-1.9-1.22-3.37-3.22-3.37zm0 0"/></symbol><symbol overflow="visible" id="d824e2c9L"><path d="M8.13-9.9H.33v1.03H3.6V0h1.23v-8.88h3.29zm0 0"/></symbol><symbol overflow="visible" id="d824e2c9M"><path d="M4.69.17C7.1.17 8.47-1 8.47-2.73c0-1.43-.95-2.3-2.55-2.66L3.7-5.91c-1.14-.26-1.5-.75-1.5-1.46 0-.94.78-1.66 2.22-1.66 1.45 0 2.42.6 2.6 1.9h1.3c-.22-2.03-1.73-2.95-3.87-2.95-2.19 0-3.55 1.25-3.55 2.85 0 1.3.78 2.18 2.25 2.51l2.3.5c1.15.27 1.73.78 1.73 1.66 0 .95-.78 1.7-2.48 1.7-1.6 0-2.63-.69-2.83-2.08H.56C.76-.95 2.1.17 4.7.17zm0 0"/></symbol></defs><path fill="#f7b3ca" d="M0 0h1366v768H0z"/><use xlink:href="#d824e2c9a" x="671.0781" y="407.7051"/><use xlink:href="#d824e2c9b" x="305.6099" y="320.2334"/><use xlink:href="#d824e2c9c" x="387.381761" y="320.2334"/><use xlink:href="#d824e2c9d" x="457.813518" y="320.2334"/><use xlink:href="#d824e2c9e" x="481.488058" y="320.2334"/><use xlink:href="#d824e2c9c" x="544.509683" y="320.2334"/><use xlink:href="#d824e2c9f" x="615.367581" y="320.2334"/><use xlink:href="#d824e2c9g" x="683.692304" y="320.2334"/><use xlink:href="#d824e2c9h" x="761.936659" y="320.2334"/><use xlink:href="#d824e2c9i" x="830.060147" y="320.2334"/><use xlink:href="#d824e2c9j" x="909.819673" y="320.2334"/><use xlink:href="#d824e2c9k" x="942.549724" y="320.2334"/><use xlink:href="#d824e2c9l" x="291.641921" y="485.244944"/><use xlink:href="#d824e2c9j" x="355.681552" y="485.244944"/><use xlink:href="#d824e2c9k" x="390.601499" y="485.244944"/><use xlink:href="#d824e2c9j" x="466.833517" y="485.244944"/><use xlink:href="#d824e2c9d" x="501.753464" y="485.244944"/><use xlink:href="#d824e2c9m" x="525.901495" y="485.244944"/><use xlink:href="#d824e2c9g" x="608.052148" y="485.244944"/><use xlink:href="#d824e2c9l" x="686.769994" y="485.244944"/><use xlink:href="#d824e2c9h" x="750.809625" y="485.244944"/><use xlink:href="#d824e2c9c" x="827.633507" y="485.244944"/><use xlink:href="#d824e2c9b" x="898.538754" y="485.244944"/><use xlink:href="#d824e2c9n" x="985.069198" y="485.244944"/><use xlink:href="#d824e2c9o" x="184.633001" y="654.281159"/><use xlink:href="#d824e2c9i" x="259.515571" y="654.281159"/><use xlink:href="#d824e2c9o" x="339.630214" y="654.281159"/><use xlink:href="#d824e2c9f" x="415.862233" y="654.281159"/><use xlink:href="#d824e2c9d" x="491.028897" y="654.281159"/><use xlink:href="#d824e2c9p" x="514.703437" y="654.281159"/><use xlink:href="#d824e2c9c" x="577.500155" y="654.281159"/><use xlink:href="#d824e2c9k" x="644.984431" y="654.281159"/><use xlink:href="#d824e2c9o" x="720.399678" y="654.281159"/><use xlink:href="#d824e2c9q" x="796.631697" y="654.281159"/><g><use xlink:href="#d824e2c9o" x="871.656314" y="654.281159"/></g><g><use xlink:href="#d824e2c9b" x="949.427178" y="654.281159"/></g><g><use xlink:href="#d824e2c9c" x="1031.199039" y="654.281159"/><use xlink:href="#d824e2c9r" x="1099.026596" y="654.281159"/></g><g fill="#12100b"><use xlink:href="#d824e2c9s" x="515.5068" y="216.6426"/><use xlink:href="#d824e2c9t" x="524.95464" y="216.6426"/><use xlink:href="#d824e2c9u" x="535.94796" y="216.6426"/><use xlink:href="#d824e2c9u" x="545.45412" y="216.6426"/><use xlink:href="#d824e2c9v" x="554.96028" y="216.6426"/><use xlink:href="#d824e2c9w" x="564.67056" y="216.6426"/><use xlink:href="#d824e2c9v" x="568.59258" y="216.6426"/><use xlink:href="#d824e2c9x" x="578.30286" y="216.6426"/><use xlink:href="#d824e2c9v" x="588.3339" y="216.6426"/><use xlink:href="#d824e2c9y" x="598.04418" y="216.6426"/><use xlink:href="#d824e2c9z" x="608.14812" y="216.6426"/><use xlink:href="#d824e2c9A" x="612.42006" y="216.6426"/><use xlink:href="#d824e2c9w" x="623.0343" y="216.6426"/><use xlink:href="#d824e2c9x" x="626.95632" y="216.6426"/><use xlink:href="#d824e2c9B" x="636.98736" y="216.6426"/><use xlink:href="#d824e2c9C" x="646.2894" y="216.6426"/><use xlink:href="#d824e2c9t" x="657.26814" y="216.6426"/><use xlink:href="#d824e2c9D" x="668.26146" y="216.6426"/><use xlink:href="#d824e2c9v" x="676.22214" y="216.6426"/><use xlink:href="#d824e2c9x" x="685.93242" y="216.6426"/><use xlink:href="#d824e2c9w" x="695.96346" y="216.6426"/><use xlink:href="#d824e2c9v" x="699.88548" y="216.6426"/><use xlink:href="#d824e2c9E" x="709.59576" y="216.6426"/><use xlink:href="#d824e2c9F" x="720.76404" y="216.6426"/><use xlink:href="#d824e2c9w" x="731.33454" y="216.6426"/><use xlink:href="#d824e2c9y" x="735.25656" y="216.6426"/><use xlink:href="#d824e2c9G" x="745.3605" y="216.6426"/><use xlink:href="#d824e2c9D" x="756.3684" y="216.6426"/><use xlink:href="#d824e2c9F" x="764.32908" y="216.6426"/><use xlink:href="#d824e2c9w" x="774.89958" y="216.6426"/><use xlink:href="#d824e2c9H" x="778.8216" y="216.6426"/><use xlink:href="#d824e2c9w" x="792.0894" y="216.6426"/></g><g fill="#12100b"><use xlink:href="#d824e2c9I" x="796.01142" y="216.6426"/><use xlink:href="#d824e2c9J" x="804.56988" y="216.6426"/><use xlink:href="#d824e2c9K" x="810.13944" y="216.6426"/></g><g fill="#12100b"><use xlink:href="#d824e2c9w" x="818.79996" y="216.6426"/><use xlink:href="#d824e2c9u" x="822.72198" y="216.6426"/><use xlink:href="#d824e2c9L" x="832.22814" y="216.6426"/><use xlink:href="#d824e2c9M" x="841.03446" y="216.6426"/></g><g fill="#12100b"><use xlink:href="#d824e2c9s" x="544.68138" y="363.63816"/><use xlink:href="#d824e2c9t" x="554.12922" y="363.63816"/><use xlink:href="#d824e2c9u" x="565.12254" y="363.63816"/><use xlink:href="#d824e2c9u" x="574.6287" y="363.63816"/><use xlink:href="#d824e2c9v" x="584.13486" y="363.63816"/><use xlink:href="#d824e2c9w" x="593.84514" y="363.63816"/><use xlink:href="#d824e2c9x" x="597.76716" y="363.63816"/><use xlink:href="#d824e2c9B" x="607.7982" y="363.63816"/><use xlink:href="#d824e2c9C" x="617.10024" y="363.63816"/><use xlink:href="#d824e2c9t" x="628.07898" y="363.63816"/><use xlink:href="#d824e2c9D" x="639.0723" y="363.63816"/><use xlink:href="#d824e2c9v" x="647.03298" y="363.63816"/><use xlink:href="#d824e2c9x" x="656.74326" y="363.63816"/><use xlink:href="#d824e2c9w" x="666.7743" y="363.63816"/><use xlink:href="#d824e2c9v" x="670.69632" y="363.63816"/><use xlink:href="#d824e2c9E" x="680.4066" y="363.63816"/><use xlink:href="#d824e2c9F" x="691.57488" y="363.63816"/><use xlink:href="#d824e2c9w" x="702.14538" y="363.63816"/><use xlink:href="#d824e2c9y" x="706.0674" y="363.63816"/><use xlink:href="#d824e2c9G" x="716.17134" y="363.63816"/><use xlink:href="#d824e2c9D" x="727.17924" y="363.63816"/><use xlink:href="#d824e2c9F" x="735.13992" y="363.63816"/><use xlink:href="#d824e2c9w" x="745.71042" y="363.63816"/><use xlink:href="#d824e2c9H" x="749.63244" y="363.63816"/><use xlink:href="#d824e2c9w" x="762.90024" y="363.63816"/></g><g fill="#12100b"><use xlink:href="#d824e2c9I" x="766.82226" y="363.63816"/><use xlink:href="#d824e2c9J" x="775.38072" y="363.63816"/><use xlink:href="#d824e2c9K" x="780.95028" y="363.63816"/></g><g fill="#12100b"><use xlink:href="#d824e2c9w" x="789.6108" y="363.63816"/><use xlink:href="#d824e2c9u" x="793.53282" y="363.63816"/><use xlink:href="#d824e2c9L" x="803.03898" y="363.63816"/><use xlink:href="#d824e2c9M" x="811.8453" y="363.63816"/></g><g fill="#12100b"><use xlink:href="#d824e2c9s" x="544.68138" y="527.634"/><use xlink:href="#d824e2c9t" x="554.12922" y="527.634"/><use xlink:href="#d824e2c9u" x="565.12254" y="527.634"/><use xlink:href="#d824e2c9u" x="574.6287" y="527.634"/><use xlink:href="#d824e2c9v" x="584.13486" y="527.634"/><use xlink:href="#d824e2c9w" x="593.84514" y="527.634"/><use xlink:href="#d824e2c9y" x="597.76716" y="527.634"/><use xlink:href="#d824e2c9G" x="607.8711" y="527.634"/><use xlink:href="#d824e2c9D" x="618.879" y="527.634"/><use xlink:href="#d824e2c9F" x="626.83968" y="527.634"/><use xlink:href="#d824e2c9w" x="637.41018" y="527.634"/><use xlink:href="#d824e2c9v" x="641.3322" y="527.634"/><use xlink:href="#d824e2c9E" x="651.04248" y="527.634"/><use xlink:href="#d824e2c9F" x="662.21076" y="527.634"/><use xlink:href="#d824e2c9w" x="672.78126" y="527.634"/><use xlink:href="#d824e2c9x" x="676.70328" y="527.634"/><use xlink:href="#d824e2c9B" x="686.73432" y="527.634"/><use xlink:href="#d824e2c9C" x="696.03636" y="527.634"/><use xlink:href="#d824e2c9t" x="707.0151" y="527.634"/><use xlink:href="#d824e2c9D" x="718.00842" y="527.634"/><use xlink:href="#d824e2c9v" x="725.9691" y="527.634"/><use xlink:href="#d824e2c9x" x="735.67938" y="527.634"/><use xlink:href="#d824e2c9w" x="745.71042" y="527.634"/><use xlink:href="#d824e2c9H" x="749.63244" y="527.634"/><use xlink:href="#d824e2c9w" x="762.90024" y="527.634"/></g><g fill="#12100b"><use xlink:href="#d824e2c9I" x="766.82226" y="527.634"/><use xlink:href="#d824e2c9J" x="775.38072" y="527.634"/><use xlink:href="#d824e2c9K" x="780.95028" y="527.634"/></g><g fill="#12100b"><use xlink:href="#d824e2c9w" x="789.6108" y="527.634"/><use xlink:href="#d824e2c9u" x="793.53282" y="527.634"/><use xlink:href="#d824e2c9L" x="803.03898" y="527.634"/><use xlink:href="#d824e2c9M" x="811.8453" y="527.634"/></g><g fill="#12100b"><use xlink:href="#d824e2c9s" x="544.68138" y="694.63332"/><use xlink:href="#d824e2c9t" x="554.12922" y="694.63332"/><use xlink:href="#d824e2c9u" x="565.12254" y="694.63332"/><use xlink:href="#d824e2c9u" x="574.6287" y="694.63332"/><use xlink:href="#d824e2c9v" x="584.13486" y="694.63332"/><use xlink:href="#d824e2c9w" x="593.84514" y="694.63332"/><use xlink:href="#d824e2c9x" x="597.76716" y="694.63332"/><use xlink:href="#d824e2c9B" x="607.7982" y="694.63332"/><use xlink:href="#d824e2c9C" x="617.10024" y="694.63332"/><use xlink:href="#d824e2c9t" x="628.07898" y="694.63332"/><use xlink:href="#d824e2c9D" x="639.0723" y="694.63332"/><use xlink:href="#d824e2c9v" x="647.03298" y="694.63332"/><use xlink:href="#d824e2c9x" x="656.74326" y="694.63332"/><use xlink:href="#d824e2c9w" x="666.7743" y="694.63332"/><use xlink:href="#d824e2c9v" x="670.69632" y="694.63332"/><use xlink:href="#d824e2c9E" x="680.4066" y="694.63332"/><use xlink:href="#d824e2c9F" x="691.57488" y="694.63332"/><use xlink:href="#d824e2c9w" x="702.14538" y="694.63332"/><use xlink:href="#d824e2c9y" x="706.0674" y="694.63332"/><use xlink:href="#d824e2c9G" x="716.17134" y="694.63332"/><use xlink:href="#d824e2c9D" x="727.17924" y="694.63332"/><use xlink:href="#d824e2c9F" x="735.13992" y="694.63332"/><use xlink:href="#d824e2c9w" x="745.71042" y="694.63332"/><use xlink:href="#d824e2c9H" x="749.63244" y="694.63332"/><use xlink:href="#d824e2c9w" x="762.90024" y="694.63332"/></g><g fill="#12100b"><use xlink:href="#d824e2c9I" x="766.82226" y="694.63332"/><use xlink:href="#d824e2c9J" x="775.38072" y="694.63332"/><use xlink:href="#d824e2c9K" x="780.95028" y="694.63332"/></g><g fill="#12100b"><use xlink:href="#d824e2c9w" x="789.6108" y="694.63332"/><use xlink:href="#d824e2c9u" x="793.53282" y="694.63332"/><use xlink:href="#d824e2c9L" x="803.03898" y="694.63332"/><use xlink:href="#d824e2c9M" x="811.8453" y="694.63332"/></g><path d="M665.6 161.64h2l4.76-14.53c.88-9.53 1.26-24.82 1.26-34.22 0-13.03-1.26-27.94-2.76-41.85l-10.53 7.02c3.51 20.42 6.02 59.77 5.27 83.58m-22.3-18.3c-3.26-4.13-9.28-8.9-16.42-13.78-4.76 5.14-11.28 11.4-18.3 18.05 5.4 0 10.78-.13 14.92-.25 10.27-.38 19.8-1.13 19.8-4.02M590.91 84.7c-.5-1.38 0-3 1.12-4.26.88-1 2.14-1.88 3.39-2.63-1.63-1.5-2.76-3.26-2.76-4.89 0-5.26 5.76-10.9 11.9-10.9 5.9 0 8.15 4.39 6.14 6.39l-1.75 1.76c-.75-1.13-3.63-2.88-6.77-2.88-2.75 0-5.26 1.12-5.26 2.88 0 2.13 4.64 3.76 10.15 3.76h7.9l-3.01 5.89h-3.5c-5.9 0-13.3 1.38-17.55 4.88m55.63 60.02c0 3.64-4.76 10.53-8.9 12.16-7.26 2.88-22.3 3.63-31.07 3.63H594.8l-2.25-12.65h3.75c8.27-4.64 23.69-16.3 27.95-20.18a287.87 287.87 0 00-35.59-20.05l3.89-12.27c12.9 7.39 26.56 17.16 36.84 26.43 2.75-4.13 3.25-8.4 3.25-14.53 0-9.03-1.63-19.05-4.13-32.96l11.03-3.26c.87 8.4 2.25 19.17 2.25 24.57 0 11.4-5.14 21.42-10.15 28.19 8.9 8.27 14.91 16.04 14.91 20.92m-81.94-23.18l7.89-7.64h.88c5.26 7.52 9.02 17.92 9.02 21.8 0 9.78-9.4 24.81-24.19 24.81-8.64 0-13.78-3.63-15.9-11.78-4.65 8.15-9.66 11.78-17.68 11.78-7.77 0-11.9-4.76-13.66-11.9-3.13 7.9-10.02 11.9-21.67 11.9h-2.26c-3.38 0-5.26-2.88-5.26-5.89 0-2.88 1.88-5.89 5.26-5.89h6.89c5.89 0 8.77-.87 10.78-2.25 5.64-3.64 7.77-9.9 12.15-22.43l4.01-.88.38.88c-1.88 7.02-3.26 11.78-3.26 15.04 0 5.88 2.76 9.64 9.78 9.64 3.75 0 6.76-1 8.77-2.38 5.26-3.63 7.39-9.77 11.9-22.3l3.88-.88.38.88c-1.75 7.02-3.26 12.15-3.26 15.04 0 5.88 4.76 9.64 14.16 9.64 8.02 0 12.53-3.5 14.04-6.51 1.13-2.26-7.27-14.67-13.03-20.68m-77.57 27.2v11.77c-8.27 0-12.65-3.76-17.54-9.27-.38 18.92-18.17 40.72-32.58 40.72-1.88 0-3.38-.12-5.14-.5L419 179.18l.75-1.75a65.26 65.26 0 0014.66 1.75c16.17 0 28.82-9.9 30.83-20.92.63-3.26-9.4-22.68-14.66-29.7l8.77-9.65h1.5a103.26 103.26 0 016.02 15.54c4.26 12.78 10.02 14.28 20.17 14.28m-96.98-64.4a52.16 52.16 0 017.4-7.52c2.5 2 6 5.14 8.26 7.9a46.43 46.43 0 01-7.4 7.5c-2.12-2.62-5.63-5.75-8.26-7.88m-18.92-.26a52.54 52.54 0 017.4-7.51c2.5 2 6 5.14 8.26 7.9a46.43 46.43 0 01-7.4 7.5c-2.12-2.62-5.63-5.75-8.26-7.89m38.59 56.27c0-5.52-8.02-12.28-23.05-23.43-6.9 3.75-16.67 14.03-16.67 21.05 0 7.01 7.52 10.52 18.42 10.52 13.28 0 21.3-2.5 21.3-8.14m4.26-2.38c0 12.78-5.26 22.55-26.94 22.55-10.4 0-21.05-4.26-21.05-18.8 0-11.02 8.14-24.18 14.91-31.32 1.13-3.26 2-8.77 2.38-11.9l.88-.5c16.92 15.03 29.82 26.94 29.82 39.97M1004.66 136.45c0-4.5 3.64-8.64 10.28-8.64h1.63c5.14 0 11.4 4.76 12.65 11.9-4.63.38-8.64.5-12.65.5-9.02 0-11.9-1-11.9-3.76m-30.7 39.1l-1.5 2.63 18.79 18.92c5.76 0 11.9-1.13 17.42-2.76 22.05-6.51 31.32-23.55 31.32-49.62 0-19.3-6.77-35.7-23.06-35.7-12.4 0-21.17 14.03-21.17 26.68 0 13.28 6.01 23.94 22.8 23.94 3.14 0 7.77-.88 12.53-1.5-1.37 6.13-9.52 10.4-16.41 12.9-10.15 3.63-27.7 6.14-40.73 4.51m-27.94-13.9h2l7.28-14.54a215.1 215.1 0 003.25-36.72c0-10.53-.75-25.44-2.25-39.35l-15.54 7.02c3.51 20.42 6.01 59.77 5.26 83.58m-45.6-23.68c9.77-.38 13.65-3.89 12.78-12.9l-4.52-44.62 16.04-9.4c0 23.31-.12 50-.88 68.05-.62 14.66-13.15 21.42-27.31 21.42h-3.39c-4.13 0-5.26-4.76-5.26-11.53 0-6.64 1.13-10.9 5.26-10.9.63 0 3.39 0 7.27-.12m-17.66-40.1c-3.01 3.76-6.27 7.14-10.28 10.53-3-3.64-7.9-8.03-11.53-11.03a89.2 89.2 0 0110.28-10.4c3.63 2.88 8.52 7.14 11.53 10.9m10.4 62.65c-8.15 0-16.92-1.5-20.43-9.77-4.38 5.13-12.65 9.77-22.3 9.77-3.39 0-5.27-3.5-5.27-11.28 0-8.52 1.88-11.15 5.27-11.15 8.14 0 14.66-2.13 17.16-4.01 3.26-2.5 4.9-3.76 11.53-18.42l5.39-1.13.38.88c-2.26 7.02-2.51 8.4-2.64 11.78-.25 6.52 4.51 10.9 10.9 10.9zm-64.4-24.8c2.13-3.52-7.02-9.78-20.43-9.78-11.53 0-20.55 3.88-27.95 12.28 2.39.12 5.02.12 8.15.12 27.7 0 38.47.13 40.22-2.63m21.68 24.81c-11.78 0-21.93-2-28.82-6.76-8.02 4.26-19.42 6.76-34.46 6.76-7.51 0-15.66-.87-21.68-3-1.62 19.04-9.77 34.45-32.45 34.45-30.95 0-36.59-27.82-20.67-53l3.13 1.25c-9.52 23.68 3.26 29.58 18.04 29.58 14.29 0 24.94-4.4 24.94-13.79 0-5.01-8.77-18.17-15.16-28.07l10.52-8.52h3.13c2.13 4.77 5.27 9.4 6.9 11.78 2.5 3.63 4.63 5.51 10.64 6.52 7.52-15.3 17.93-30.7 35.84-30.7 16.42 0 25.82 11.78 25.82 24.43 0 2.13-.25 4.13-.75 6.02 4.75.75 9.77.75 15.03.75zm0 0"/></svg>