<?xml version="1.0" encoding="UTF-8"?>
<svg id="Layer_1" data-name="Layer 1" xmlns="http://www.w3.org/2000/svg" viewBox="0 0 1366 768">
  <defs>
    <style>
      .cls-1 {
        fill: #12100b;
        stroke-width: 0px;
      }
    </style>
  </defs>
  <path class="cls-1" d="M117.43,242.54h49.33v23.02h-77.29v-111.66h27.96v88.63Z"/>
  <path class="cls-1" d="M189.96,140.25c9.04,0,15.13,6.58,15.13,14.8s-6.08,14.96-15.13,14.96-15.29-6.74-15.29-14.96,5.92-14.8,15.29-14.8ZM176.14,180.54h27.13v85.02h-27.13v-85.02Z"/>
  <path class="cls-1" d="M244.06,265.56h-27.13v-118.4h27.13v118.4Z"/>
  <path class="cls-1" d="M284.68,265.56h-27.13v-118.4h27.13v118.4Z"/>
  <path class="cls-1" d="M334.01,296.47h-28.45l17.92-38.48-33.22-77.45h28.78l18.09,50.48,18.75-50.48h27.13l-49,115.93Z"/>
  <path class="cls-1" d="M424.29,153.9h55.09c25.65,0,40.29,14.47,40.29,33.05,0,14.31-7.56,26.31-24.17,31.25l28.45,47.36h-30.59l-25.98-43.91h-15.13v43.91h-27.96v-111.66ZM474.78,200.6c12.66,0,16.94-6.25,16.94-13.32s-4.28-12.33-17.1-12.33h-22.36v25.65h22.53Z"/>
  <path class="cls-1" d="M526.75,223.46c0-26.15,17.1-44.89,43.74-44.89s43.91,19.24,43.25,46.04c0,2.63-.16,5.43-.16,5.43h-60.02c1.48,13.48,8.06,18.09,17.92,18.09,7.24,0,11.35-2.8,13.48-7.4h26.64c-4.11,15.46-18.91,26.8-41.11,26.8-27.96,0-43.74-18.58-43.74-44.07ZM586.27,214.09c-.99-9.21-6.08-15.95-15.62-15.95-8.55,0-14.47,5.26-16.61,15.95h32.23Z"/>
  <path class="cls-1" d="M637.42,140.25c9.04,0,15.13,6.58,15.13,14.8s-6.08,14.96-15.13,14.96-15.29-6.74-15.29-14.96,5.92-14.8,15.29-14.8ZM623.61,180.54h27.13v85.02h-27.13v-85.02Z"/>
  <path class="cls-1" d="M660.28,223.13c0-27.79,18.75-44.56,44.07-44.56s38.64,13.98,41.6,32.4h-27.3c-1.64-7.56-6.25-11.18-14.64-11.18-9.87,0-16.28,8.22-16.28,23.02s6.08,23.52,16.44,23.52c8.72,0,12.5-3.78,14.47-11.35h27.13c-3.12,19.24-17.76,32.56-41.44,32.56-25.32,0-44.07-16.77-44.07-44.4Z"/>
  <path class="cls-1" d="M797.59,200.93c-8.06,0-14.47,5.43-14.47,15.46v49.17h-27.13v-118.4h27.13v44.4c4.77-8.39,12.66-12.99,23.52-12.99,18.09,0,32.4,10.69,32.4,32.56v54.43h-27.13v-48.51c0-11.02-6.41-16.12-14.31-16.12Z"/>
  <path class="cls-1" d="M94.25,343.27h45.88c25.49,0,37.16,11.84,37.16,30.75,0,16.77-9.21,28.12-29.93,30.59l36.01,50.32h-15.62l-35.36-48.84h-24.17v48.84h-13.98v-111.66ZM138.48,394.41c16.28,0,24.83-7.4,24.83-20.39s-8.88-19.08-25.16-19.08h-29.93v39.47h30.26Z"/>
  <path class="cls-1" d="M192.92,412.5c0-26.97,16.12-44.56,36.84-44.56,14.47,0,24.17,6.58,29.6,17.1v-15.13h12.66v85.02h-12.33v-17.1c-5.43,11.35-15.29,19.08-29.44,19.08-20.88,0-37.33-17.1-37.33-44.4ZM232.38,445.39c15.13,0,26.64-12.17,26.64-32.89,0-19.57-11.68-33.22-26.64-33.22-16.44,0-26.31,13.32-26.31,33.22s11.02,32.89,26.31,32.89Z"/>
  <path class="cls-1" d="M312.47,485.84h-14.14l17.43-38.48-31.08-77.45h13.81l24.67,63.64,27.63-63.64h13.81l-52.13,115.93Z"/>
  <path class="cls-1" d="M415.74,343.27h77.12v11.84h-63.31v36.83h59.2v11.68h-59.2v39.47h64.13v11.84h-77.95v-111.66Z"/>
  <path class="cls-1" d="M563.91,443.09c-6.91,9.37-16.12,13.81-28.12,13.81-16.44,0-29.6-10.36-29.6-25.32s9.87-23.68,28.45-25.65l28.61-2.96v-6.08c0-12.5-8.06-17.76-20.06-17.76s-20.06,4.93-21.71,16.94h-13.16c2.3-18.75,15.62-28.12,34.86-28.12s33.05,9.04,33.05,29.44v57.56h-12.33v-11.84ZM538.26,445.72c15.46,0,24.83-9.54,24.83-24.17v-8.88l-26.15,3.29c-12.33,1.48-16.77,7.24-16.77,15.29s6.91,14.47,18.09,14.47Z"/>
  <path class="cls-1" d="M688.89,379.78c-11.51,0-22.04,8.06-22.04,22.86v52.29h-12.99v-50.32c0-16.44-9.21-24.83-21.05-24.83s-21.87,7.89-21.87,22.86v52.29h-13.16v-85.02h12.66v11.18c5.26-8.22,13.98-13.16,25.32-13.16,12,0,21.71,5.43,26.8,15.46,5.59-9.54,15.62-15.46,28.45-15.46,18.91,0,31.9,12.66,31.9,35.19v51.8h-13.16v-50.32c0-16.44-9.04-24.83-20.88-24.83Z"/>
  <path class="cls-1" d="M739.38,413.32c0-28.45,17.27-45.39,39.47-45.39,25.33,0,38.15,17.1,38.15,45.22,0,2.79-.16,4.11-.16,4.11h-64.13c1.32,18.58,12.5,27.96,26.64,27.96,12.66,0,20.06-6.25,22.69-15.13h13.65c-3.29,14.64-14.8,26.8-35.36,26.8-25.82,0-40.95-17.27-40.95-43.58ZM803.35,406.09c-1.15-18.75-10.85-26.8-24.5-26.8s-23.68,8.88-25.82,26.8h50.32Z"/>
  <path class="cls-1" d="M828.35,430.1h12.99c2.14,10.85,9.54,16.12,23.02,16.12s20.56-5.1,20.56-13.16c0-7.07-3.62-11.51-14.8-13.48l-18.09-3.29c-14.96-2.79-22.36-10.2-22.36-23.02,0-13.65,11.51-25.33,31.74-25.33s32.72,10.36,34.86,28.12h-13.32c-1.64-11.84-8.88-17.43-21.87-17.43-12.17,0-18.75,6.08-18.75,13.65,0,6.41,3.29,10.52,13.81,12.33l17.76,3.12c17.1,2.96,23.84,11.68,23.84,23.84,0,14.31-10.2,25.32-33.71,25.32s-33.55-11.18-35.68-26.8Z"/>
  <path class="cls-1" d="M125.98,532.64h2.8l44.4,111.66h-3.12l-13.98-35.19h-56.24l-13.48,35.19h-3.12l42.76-111.66ZM154.76,606.14l-27.46-68.9-26.31,68.9h53.77Z"/>
  <path class="cls-1" d="M190.45,530.83c2.47,0,4.44,1.97,4.44,4.6,0,2.47-1.97,4.6-4.44,4.6-2.63,0-4.6-2.14-4.6-4.6,0-2.63,1.97-4.6,4.6-4.6ZM188.8,559.28h2.96v85.02h-2.96v-85.02Z"/>
  <path class="cls-1" d="M251.79,560.26c-18.91,0-30.26,13.81-30.26,34.7v49.33h-2.96v-85.02h2.8v19.9c4.44-13.48,14.8-21.87,30.42-21.87,19.57,0,31.41,13.16,31.41,36.01v50.98h-2.96v-50.16c0-20.72-9.7-33.88-28.45-33.88Z"/>
  <path class="cls-1" d="M302.6,601.87c0-25.32,13.65-44.56,37-44.56s36.84,19.24,36.84,44.56-13.65,44.4-36.67,44.4-37.16-19.08-37.16-44.4ZM339.77,643.31c20.88,0,33.71-17.76,33.71-41.44s-12.33-41.6-33.88-41.6-34.04,17.92-34.04,41.6,12.66,41.44,34.2,41.44Z"/>
  <path class="cls-1" d="M546.31,644.29h-2.96v-109.03l-48.35,109.03h-3.12l-48.68-108.7v108.7h-2.96v-111.66h4.77l48.35,108.37,48.02-108.37h4.93v111.66Z"/>
  <path class="cls-1" d="M605.02,557.3h.33c16.77,0,28.61,10.2,28.61,25.16v37.66c0,8.71.49,16.44,1.48,24.17h-2.96c-.82-7.24-1.15-13.98-1.15-22.2-4.28,13.48-15.62,24.17-34.37,24.17-16.77,0-28.12-10.52-28.12-24.17s8.88-20.72,27.46-25l20.88-4.77c9.7-2.14,13.48-2.96,13.65-10.36.33-11.51-9.37-21.71-25.49-21.71h-.33c-14.8,0-28.45,6.91-30.26,27.3h-3.12c2.3-23.84,18.58-30.26,33.38-30.26ZM597.29,643.31c21.05,0,33.71-15.95,33.71-34.21v-18.75c-3.12,2.3-5.43,2.8-13.65,4.77l-21.87,5.1c-16.94,3.95-23.68,11.02-23.68,21.87,0,11.84,10.2,21.21,25.49,21.21Z"/>
  <path class="cls-1" d="M661.92,580.16c2.63-11.68,12.33-21.87,25.82-21.87.82,0,1.32,0,2.47.16v2.96c-1.32-.16-2.14-.16-3.12-.16-13.65,0-24.83,12.33-24.83,33.71v49.33h-2.96v-85.02h2.63v20.88Z"/>
  <path class="cls-1" d="M698.1,619.46h3.12c2.63,15.95,13.65,23.84,30.92,23.84s28.28-6.91,28.28-19.73c0-11.02-7.07-16.12-21.87-19.24l-18.25-3.95c-14.47-3.12-20.88-8.55-20.88-20.23,0-13.16,10.69-22.86,29.76-22.86s30.42,8.72,32.4,28.12h-3.12c-1.81-17.1-12-25.16-29.27-25.16s-26.8,8.39-26.8,19.9c0,9.7,4.93,14.47,18.75,17.43l18.75,3.95c16.28,3.45,23.52,9.37,23.52,22.04,0,14.47-12.17,22.69-31.24,22.69s-31.24-8.72-34.04-26.8Z"/>
  <path class="cls-1" d="M785.09,530.83c2.47,0,4.44,1.97,4.44,4.6,0,2.47-1.97,4.6-4.44,4.6-2.63,0-4.6-2.14-4.6-4.6,0-2.63,1.97-4.6,4.6-4.6ZM783.45,559.28h2.96v85.02h-2.96v-85.02Z"/>
  <path class="cls-1" d="M807.45,601.87c0-25.32,13.65-44.56,37-44.56s36.84,19.24,36.84,44.56-13.65,44.4-36.67,44.4-37.17-19.08-37.17-44.4ZM844.62,643.31c20.88,0,33.71-17.76,33.71-41.44s-12.33-41.6-33.88-41.6-34.04,17.92-34.04,41.6,12.66,41.44,34.21,41.44Z"/>
  <path class="cls-1" d="M935.72,603.18h-45.06v-2.96h45.06v2.96Z"/>
  <path class="cls-1" d="M983.25,532.64h2.8l44.4,111.66h-3.12l-13.98-35.19h-56.24l-13.48,35.19h-3.12l42.75-111.66ZM1012.02,606.14l-27.46-68.9-26.31,68.9h53.77Z"/>
  <path class="cls-1" d="M1071.06,592.17c14.96,0,25.65,6.41,30.09,16.61v-21.38c0-17.6-9.04-27.13-26.48-27.13-13.81,0-25,6.25-28.45,20.39h-3.12c3.62-15.46,15.79-23.35,31.57-23.35,19.57,0,29.44,11.68,29.44,29.76v57.23h-2.8v-15.29c-5.59,11.02-14.8,17.27-30.92,17.27-20.06,0-31.41-12.17-31.41-27.3s11.68-26.8,32.07-26.8ZM1101.16,619.46c0-13.81-11.84-24.5-29.6-24.5-18.75,0-29.44,10.03-29.44,24.01s10.69,24.5,29.27,24.5,29.76-12,29.76-24.01Z"/>
  <path class="cls-1" d="M1132.9,644.29h-2.96v-118.4h2.96v118.4Z"/>
  <path class="cls-1" d="M1181.41,642.32c2.8,0,4.28-.16,6.91-.49v2.8c-2.3.49-3.78.66-7.24.66-9.7,0-17.43-4.93-17.43-18.25v-64.79h-15.46v-2.96h15.46v-24.01h2.96v24.01h21.71v2.96h-21.71v64.13c0,12.99,7.24,15.95,14.8,15.95Z"/>
  <path class="cls-1" d="M1198.51,601.87c0-25.32,13.65-44.56,37-44.56s36.83,19.24,36.83,44.56-13.65,44.4-36.67,44.4-37.16-19.08-37.16-44.4ZM1235.67,643.31c20.88,0,33.71-17.76,33.71-41.44s-12.33-41.6-33.88-41.6-34.04,17.92-34.04,41.6,12.66,41.44,34.2,41.44Z"/>
</svg>