<svg xmlns="http://www.w3.org/2000/svg" viewBox="0 0 1366 768"><defs><style>.cls-1{fill:#f7b3ca;}.cls-2{fill:#12100b;}</style></defs><g id="Layer_1" data-name="Layer 1"><rect class="cls-1" x="-61.4" y="-33.11" width="1490" height="827"/><path d="M807.58,184.49H786.24l-42.68-43.26h-9.9v43.26H718.53V68.09h43.65c29.88,0,42.88,12.61,42.88,34.15,0,22.89-16.3,35.5-42.3,36.85Zm-48.89-57.62c19.4,0,30.26-7.76,30.26-22.89,0-14.16-8.34-21-28.71-21H733.66v43.84Z"/><path d="M859,172.27a42.89,42.89,0,0,0,31.81-13.58v14.94c-6.59,8.92-19.2,14-32.78,14-24.45,0-42.3-16.49-42.3-46,0-23.87,10.09-47.53,41.52-47.53,25.8,0,36.28,18.82,36.28,41.32a52.17,52.17,0,0,1-.58,7.37H829.69C830.47,162.18,841.91,172.27,859,172.27Zm21.92-40.35c-.78-14.36-7.18-25.61-24.45-25.61-16.87,0-24.44,9.7-26.38,25.61Z"/><path d="M932.51,187.6c-11.25,0-23.47-4.85-30.07-12.81V159.46c7.57,8.74,19.59,14,29.68,14,10.48,0,17.27-4.07,17.27-12.22,0-6.79-3.49-9.12-11.25-11.83l-17.08-6c-11.25-3.88-18.81-11.06-18.81-23.47,0-18,13.58-25.8,29.87-25.8,11.45,0,22.7,4.85,28.91,11.44v14.94c-6.6-8-16.88-11.83-28.13-11.83-8.93,0-16.49,2.32-16.49,11.06,0,6,3.88,9.89,12.41,13l16.69,6.21c10.47,3.88,18,8.93,18,22.31C963.55,177.51,952.49,187.6,932.51,187.6Z"/><path d="M346.93,303.81v37.63c-8.92,17.66-28.71,26.77-51,26.77-35.69,0-56.84-24.63-56.84-60.72C239.07,271.6,260.22,246,299,246c16.1,0,33.75,6.2,43.65,16.87v17.27c-15.33-14.36-27-17.85-43.85-17.85-29.49,0-44.81,18.43-44.81,43.65,0,28.13,15.32,46,44.81,46,14.94,0,27.55-5,33.18-13.19v-20H296.88V303.81Z"/><path d="M421.82,309.24v55.87H408.24V350.56c-5.24,10.09-14.16,16.49-26.58,16.49-14.16,0-22.89-8.53-22.89-22.89,0-22.31,22.31-28.33,49.47-34.14-.2-14-6.41-21-20.57-21-10.47,0-20,6.21-28.32,16.49v-15.9c7.57-8.54,17.85-14.94,30.65-14.94C413.48,274.71,421.82,287.9,421.82,309.24Zm-13.58,19.21v-7.18c-20.57,4.27-33.95,8.15-33.95,21.14,0,7.76,5,11.84,12.61,11.84C399.9,354.25,408.24,344,408.24,328.45Z"/><path d="M519.2,239v126.1H507l-.58-14.74c-6,10.67-16.69,17.84-31.82,17.84-27.16,0-39.57-20.75-39.57-46.55,0-24.84,13-47,41.13-47,13.38,0,23.66,6.21,29.87,15.13V239ZM506,322v-.77c0-21.73-11.83-32.4-28.71-32.4-19,0-28.52,12.42-28.52,33,0,19.79,10.28,32.2,29.3,32.2C495,354.05,506,341.83,506,322Z"/><path d="M1091.46,187.6c-11.25,0-23.47-4.85-30.07-12.81V159.46c7.57,8.74,19.59,14,29.68,14,10.48,0,17.27-4.07,17.27-12.22,0-6.79-3.49-9.12-11.25-11.83l-17.08-6c-11.25-3.88-18.81-11.06-18.81-23.47,0-18,13.58-25.8,29.87-25.8,11.45,0,22.7,4.85,28.91,11.44v14.94c-6.6-8-16.88-11.83-28.13-11.83-8.93,0-16.49,2.32-16.49,11.06,0,6,3.88,9.89,12.41,13l16.69,6.21c10.47,3.88,18,8.93,18,22.31C1122.5,177.51,1111.44,187.6,1091.46,187.6Z"/><path d="M1194.47,128.62v55.87h-13.58V169.94c-5.23,10.09-14.16,16.49-26.57,16.49-14.17,0-22.9-8.53-22.9-22.89,0-22.31,22.31-28.33,49.47-34.14-.19-14-6.4-21-20.56-21-10.48,0-20,6.21-28.32,16.49V109c7.56-8.54,17.84-14.94,30.65-14.94C1186.13,94.09,1194.47,107.28,1194.47,128.62Zm-13.58,19.21v-7.18c-20.56,4.27-34,8.14-34,21.14,0,7.76,5,11.84,12.61,11.84C1172.55,173.63,1180.89,163.34,1180.89,147.83Z"/><path d="M613.78,481.68v56.65h-2.91l-14.16-10.86c-10.09,9.89-22.89,14-37.05,14-45.79,0-65.77-28.32-65.77-66.15,0-39.58,24.06-66.35,67.9-66.35,16.88,0,30.65,2.52,46.17,6.4l2.72,38-3.88.58c-8.15-23.47-20.18-40.16-46-40.16-32.2,0-47,27.74-47,61.5,0,29.68,11.45,61.11,46.56,61.11,17.27,0,28.52-6.6,34.15-16.3V487.7l-33.76-2.91v-3.11Z"/><path d="M658.4,533.09l18.43.58v4.66h-48.5v-4.66l13.58-.58V470.82A46.52,46.52,0,0,0,630.85,458l.2-2.32,25.22-8.93,2.13,1.36V471.4a62.14,62.14,0,0,1,3.1-5.43c5.44-8.73,12.62-18,31.24-18v19a103.45,103.45,0,0,0-18-1.75c-11.26,0-16.3,8.34-16.3,22.31Z"/><path d="M763.36,454.72c7,5.43,10.08,13.58,10.08,23.08,0,18.24-12.8,29.1-35.11,29.1a48.3,48.3,0,0,1-5.24-.19c-3.49,2.52-9.89,7.56-9.89,10.09,0,3.29,5,3.68,15.91,4.65l23.08,2.14c15.13,1.35,25.22,7.95,25.22,21.53,0,20.18-20,34.92-47.14,34.92-23.47,0-37.64-7-37.64-20.76,0-9.31,7-17.26,19.4-24.44l-5.82-.58c-6.59-.59-10.67-3.88-10.67-8.15,0-4.08,3.88-7.57,7.76-10.48,2.53-1.94,9.9-7,14.17-9.89C712,502.44,704,491.38,704,477.41c0-18.43,13.19-29.48,35.31-29.48A47.14,47.14,0,0,1,757,451h30.46V464.8ZM726.3,535.23c-5.24,4.85-9.5,11.44-9.5,19.2,0,13.58,10.47,21.15,27,21.15,15.72,0,28.52-7.57,28.52-22.31,0-10.09-6.4-14.55-17.27-15.52ZM756,483c0-17.65-5.43-30.26-18.23-30.46-12,.2-15.52,9.31-15.52,19.4,0,18,5.62,30.07,18,30.07C751.52,502.05,756,494.68,756,483Z"/><path d="M943.08,353.66c-4.46,7.37-11.63,12.8-19.39,12.8-8.35,0-13-5.43-14.94-15.13-6.4,10.67-15.91,16.1-26.39,16.1-12.61,0-21.14-7.56-21.14-20.75,0-12.61,8.34-21.15,25.22-25.61,5-1.36,15.52-3.11,23.47-4.27l.39-8.92c.58-14.55-6.21-22.51-20-22.51-13,0-20.37,7.37-25.42,16.88l-3.88-1c5.05-15.71,18.43-27.35,36.28-27.35,19.6,0,30.07,10.28,29.3,31.42l-1.36,36.28c0,9.7,1.55,13.39,8,13.39,2.91,0,5-.78,8-3.49Zm-34.14-14.74.78-17.66c-4.27.58-9.12,1.55-14,2.52-11.64,2.53-18,9.12-18,18.24,0,8.34,4.65,14.16,13,14.16C900,356.18,907.2,349.2,908.94,338.92Z"/><path d="M1032.91,277v3.3c-6,1.36-7.76,3.49-11.65,12.8l-33.75,79.93c-2.52,5-3.49,7.18-6,11.83-4.85,9.12-13.58,18.24-28.33,18.24V383.92c14.16,0,23.48-.19,29.29-11.64l4.08-8.92c-10.87-27.16-19.4-46.75-30.46-73.91-1.75-4.27-4.46-8.54-10.86-9.12V277h37.24v3.3c-8.92.58-9.11,7.37-5.43,16.49l18.24,46,19.59-48.31c3.11-7.57,1.36-12.8-9.31-14.16V277Z"/><path d="M1165.6,336.2c-4.27,10.67-17.46,31.23-30.65,31.23-5.82,0-8.93-4.65-8.93-11.05a47.1,47.1,0,0,1,1.36-10.09l3.49-19h-.77c-8.15,22.31-18.24,40.15-33.18,40.15-12.61,0-18.62-11.25-18.62-25.8,0-30.26,14.55-67.7,46.17-67.7a61.53,61.53,0,0,1,17.46,3.1h13.39l-12.23,69.26c-.58,4.85-1.16,7.76,2.33,7.76,4.66,0,12.61-11.64,16.88-19.4Zm-27.55-49.47c-3.69-4.85-9.12-9.7-15.91-9.7-20.56,0-28.52,46-28.52,61.11,0,12.42,3.3,20.18,9.7,20.18,14,0,28.91-39.39,31.82-55.49Z"/><path d="M1251.34,285.18A110.87,110.87,0,0,1,1249,303c-9.32,46.17-44.82,103.2-77.41,103.2-23.28,0-20.56-22.11-7.95-22.11,10.86,0,10.47,13.58,17.07,13.58,9.89,0,21.73-9.7,32.4-23.48-4.66-22.11-12.42-53.73-18.43-72.36-2.33-6.59-4.47-14.55-8-14.55-4.27,0-8.15,9.31-12.41,18.63l-3.3-.78c3.68-10.48,10.28-30.85,21.53-31.23h.39c10.48,0,12.8,14.16,17.65,27.93,6.21,18.82,11.26,42.49,13.78,55.49,10.86-18.24,18.43-39.19,18.43-53.94,0-8.92-7.57-14.74-7.57-21.72,0-3.88,3.11-7.76,7.18-7.76C1249,273.93,1251.34,279.75,1251.34,285.18Z"/><path d="M1278.7,290.22c0,5.82,2.32,9.7,6.4,14.16l14.74,16.11c4.85,5.23,10.67,12,10.67,22.5,0,14.94-10.86,24.44-27.35,24.44-12.42,0-26.77-3.68-26.77-13,0-3.88,2.71-6.6,6.79-6.6,8.53,0,10.28,14.74,23.08,14.74,6.79,0,11.64-4.26,11.64-11.44,0-7.37-5.82-13.78-10.47-19l-12.81-14.36a30.36,30.36,0,0,1-8.15-20.37c0-9.31,7.38-23.47,28.13-23.47,11.84,0,23.09,3.49,23.09,10.67,0,3.68-2.33,6.4-6.6,6.4-8.34,0-10.08-11.64-21.92-11.64C1282.77,279.36,1278.7,283.63,1278.7,290.22Z"/><path d="M926.66,466.78,909,481.33l42.68,56.84H930.93c0-2.14-1-4.08-2.91-6.6l-30.65-41.13-7.57,6.21v36.28l13.58.58v4.66H859.73v-4.66l13.58-.58V418.66a46.62,46.62,0,0,0-11.06-12.8l.2-2.33,25.22-8.92L889.8,396V491.8l27.35-22.12c3.11-2.52,7.18-6.59,7.18-10.28a9.05,9.05,0,0,0-3.49-6.79v-1.74h31.82v3.68C945.28,454.94,936.17,459.6,926.66,466.78Z"/><path d="M1041.31,538.17l-17.46,3.1c-7.76-11.25-18.62-26.19-28.71-40.35l.39-.2c-2.13.39-4.46.59-6.79.78l-6.6,36.67H967l20.57-113.49,1.74-11.26L974.38,407l.2-2.52,31.43-5.24,1.16,1.36L1003.1,422l-8.93,49.47c7.57-14.55,17.46-23.67,29.88-23.67,10.28,0,16.1,6.41,16.1,16.3,0,14.55-10.67,26.77-28.91,33C1020.94,511.39,1030.64,525.17,1041.31,538.17Zm-52-39.38c18-2.72,34.73-19.6,34.73-33.76,0-5.43-2.52-8.93-8.15-8.93-9.7,0-19.21,14.17-24.64,31.63Z"/><path d="M1197.5,452c0,4.85-3.1,8.73-7.37,8.73-5.63,0-7-5.44-11.06-5.44-2.71,0-4.65,1.36-6.79,3.69A26.51,26.51,0,0,1,1176,472.7c0,22.51-17.27,33.76-40,33.76a39.81,39.81,0,0,1-5-.39c-4.46,3.11-11.25,7.57-11.25,10.67,0,2.91,4.27,3.3,14.55,4.27l22.7,2.13c13.19,1.17,21.53,7.38,21.53,18.63,0,21-23.86,38-54.71,38-19.79,0-30.84-7-30.84-18.23,0-13.2,14.35-20.57,27.16-26-12.42-1-16.11-5.24-16.11-9.7,0-4.27,3.3-7.57,8-10.86l13.77-9.9c-11.64-3.1-18.62-12-18.62-22.7,0-20.75,17.85-34.92,40.16-34.92,9.89,0,17.65,3.11,22.5,8.35,4.27-5.63,10.48-12.23,18.82-12.23C1194.2,443.6,1197.5,447.1,1197.5,452ZM1125,536c-9.9,5.82-18.63,13.58-18.63,23.47,0,10.48,9.51,15.72,25,15.72,15.13,0,30.65-8.93,30.65-25,0-7.76-5.43-12.22-14.94-12.8Zm33-70.62c0-6.21-2.53-14.74-11.45-14.74-14.74,0-21.15,22.11-21.15,37.25,0,6.79,2.72,14.93,12.61,14.93C1151.91,502.77,1157.93,482.4,1157.93,465.33Z"/><path d="M1281.5,458.74a109.81,109.81,0,0,1-2.33,17.84c-6.79,33.37-29.1,64.22-53.73,64.22-9.12,0-15.14-7.37-15.14-18.24,0-8.73,10.09-40.16,12.42-53.93.78-3.49,1.16-7.76-2.13-7.76-4.85,0-12.81,11.64-17.08,19.4l-3.29-1.55c4.26-10.67,17.46-31.24,30.65-31.24,5.82,0,8.92,4.66,8.92,11.06a75.76,75.76,0,0,1-1.16,10.09c-2.33,15.13-11.64,43.26-11.64,49.66,0,7.18,4.46,11.06,9.5,11.06C1255.7,529.35,1273,496,1273,477c0-8.92-7.57-14.74-7.57-21.73,0-3.88,3.1-7.76,7.18-7.76C1279.17,447.48,1281.5,453.3,1281.5,458.74Z"/><path d="M870.92,237.15V242c-9.89,0-14.16,3.1-17.07,11.64l-32.21,93.7,5.82,17.46h-18L777.22,273l-30.46,74.69L753,364.8H734.54l-42.1-111.16C689,244.91,682.93,242.78,674,242v-4.85h51V242c-12,1-15.32,3.88-13,10.86l32.4,88.86,30.27-75.66-4.47-13c-3.29-7.57-8.53-10.28-16.68-11.06v-4.85h49.86V242c-10.87,1.36-15.72,4.27-12.81,13l28.72,85.36,28.32-85c3.3-10.09,2.13-13.2-13.77-13.39v-4.85Z"/><path class="cls-2" d="M921.06,239.83v1.43l-4.86,4.38-4.86-4.38v-1.43l4.37,4v-8.43h1v8.4Z"/><path class="cls-2" d="M926.36,242.54h1.3c.19,1.41,1.22,2.09,2.83,2.09s2.48-.74,2.48-1.71-.58-1.38-1.74-1.64l-2.3-.52a2.49,2.49,0,0,1-2.25-2.5c0-1.61,1.36-2.85,3.55-2.85s3.66.92,3.88,3h-1.3c-.19-1.32-1.15-1.91-2.61-1.91s-2.22.73-2.22,1.66c0,.72.36,1.21,1.5,1.47l2.23.51c1.61.37,2.56,1.24,2.56,2.66,0,1.73-1.36,2.92-3.78,2.92C927.89,245.67,926.57,244.54,926.36,242.54Z"/><path class="cls-2" d="M937.82,236.64v3.26h5v1h-5v3.5h5.62v1.05H936.6v-9.9h6.84v1Z"/><path class="cls-2" d="M949.28,241.16h-2.14v4.33H945.9v-9.9H950c2.26,0,3.3,1,3.3,2.72,0,1.49-.82,2.5-2.66,2.72l3.19,4.46h-1.38Zm-2.14-1h2.68c1.45,0,2.21-.65,2.21-1.81s-.79-1.69-2.24-1.69h-2.65Z"/><path class="cls-2" d="M957.15,245.49h-1.22v-9.9h1.22Z"/><path class="cls-2" d="M961.43,236.64v3.26h4.91v1h-4.91v4.55H960.2v-9.9H967v1Z"/><path class="cls-2" d="M976.63,241.16h-2.14v4.33h-1.24v-9.9h4.07c2.26,0,3.3,1,3.3,2.72,0,1.49-.82,2.5-2.66,2.72l3.2,4.46h-1.39Zm-2.14-1h2.68c1.45,0,2.21-.65,2.21-1.81s-.79-1.69-2.23-1.69h-2.66Z"/><path class="cls-2" d="M984.51,236.64v3.26h5v1h-5v3.5h5.61v1.05h-6.84v-9.9h6.84v1Z"/><path class="cls-2" d="M1001,240.36l0,5.13h-1.09v-1.81a3.27,3.27,0,0,1-3.27,2c-2.79,0-4.65-2.08-4.65-5.12s1.85-5.14,4.62-5.14a3.91,3.91,0,0,1,4.16,2.85h-1.32a2.7,2.7,0,0,0-2.85-1.81c-2,0-3.37,1.56-3.37,4.1s1.35,4.08,3.41,4.08a3,3,0,0,0,3.18-3.24h-3.46v-1Z"/><path class="cls-2" d="M1011.63,241.64c0,2.68-1.59,4-4.09,4s-4.09-1.36-4.09-4v-6h1.22v6a2.67,2.67,0,0,0,2.89,3,2.64,2.64,0,0,0,2.84-2.89v-6.11h1.23Z"/><path class="cls-2" d="M1020.57,244.44v1.05h-6v-9.9h1.26v8.85Z"/><path class="cls-2" d="M1028,242.76h-4.37l-1,2.73h-1.32l3.91-9.9h1.33l3.78,9.9H1029Zm-.38-1-1.77-4.87-1.84,4.87Z"/><path class="cls-2" d="M1035.61,241.16h-2.14v4.33h-1.24v-9.9h4.07c2.26,0,3.29,1,3.29,2.72,0,1.49-.81,2.5-2.65,2.72l3.19,4.46h-1.38Zm-2.14-1h2.68c1.44,0,2.2-.65,2.2-1.81s-.79-1.69-2.23-1.69h-2.65Z"/><path class="cls-2" d="M905.06,54.83v1.43l-4.86,4.38-4.86-4.38V54.83l4.37,4V50.41h1v8.4Z"/><path class="cls-2" d="M910.36,57.54h1.3c.19,1.41,1.22,2.09,2.83,2.09s2.48-.74,2.48-1.71-.58-1.38-1.74-1.64l-2.3-.52a2.49,2.49,0,0,1-2.25-2.5c0-1.61,1.36-2.85,3.55-2.85s3.66.92,3.88,3h-1.3c-.19-1.32-1.15-1.91-2.61-1.91s-2.22.73-2.22,1.66c0,.72.36,1.21,1.5,1.47l2.23.51c1.61.37,2.56,1.24,2.56,2.66,0,1.73-1.36,2.92-3.78,2.92C911.89,60.67,910.57,59.54,910.36,57.54Z"/><path class="cls-2" d="M926.1,57.76h-4.37l-1,2.73h-1.31l3.91-9.9h1.32l3.78,9.9h-1.31Zm-.38-1L924,51.86l-1.84,4.87Z"/><path class="cls-2" d="M938.43,50.59v9.9h-1.87l-5.09-8.91v8.91h-1.16v-9.9h1.86l5.11,8.91V50.59Z"/><path class="cls-2" d="M940.7,57.54H942c.19,1.41,1.23,2.09,2.83,2.09s2.48-.74,2.48-1.71-.58-1.38-1.74-1.64l-2.3-.52a2.49,2.49,0,0,1-2.25-2.5c0-1.61,1.36-2.85,3.55-2.85s3.66.92,3.88,3h-1.3C947,52,946,51.45,944.54,51.45s-2.22.73-2.22,1.66c0,.72.37,1.21,1.5,1.47l2.24.51c1.6.37,2.55,1.24,2.55,2.66,0,1.73-1.36,2.92-3.78,2.92C942.23,60.67,940.91,59.54,940.7,57.54Z"/><path class="cls-2" d="M958.24,56.16H956.1v4.33h-1.24v-9.9h4.07c2.26,0,3.3,1,3.3,2.72,0,1.49-.82,2.5-2.66,2.72l3.19,4.46h-1.38Zm-2.14-1h2.68c1.45,0,2.21-.65,2.21-1.81s-.79-1.69-2.24-1.69H956.1Z"/><path class="cls-2" d="M966.12,51.64V54.9h5v1h-5v3.5h5.61v1.05h-6.84v-9.9h6.84v1Z"/><path class="cls-2" d="M982.59,55.36v5.13h-1.09V58.68a3.28,3.28,0,0,1-3.27,2c-2.79,0-4.66-2.08-4.66-5.12s1.86-5.14,4.63-5.14a3.91,3.91,0,0,1,4.16,2.85H981a2.71,2.71,0,0,0-2.86-1.81c-2,0-3.37,1.56-3.37,4.1s1.36,4.08,3.42,4.08a3,3,0,0,0,3.18-3.24h-3.46v-1Z"/><path class="cls-2" d="M993.24,56.64c0,2.68-1.59,4-4.09,4s-4.1-1.36-4.1-4v-6h1.23v6a2.67,2.67,0,0,0,2.89,3A2.64,2.64,0,0,0,992,56.7V50.59h1.23Z"/><path class="cls-2" d="M1002.17,59.44v1.05h-6v-9.9h1.26v8.85Z"/><path class="cls-2" d="M1009.62,57.76h-4.36l-1,2.73h-1.32l3.91-9.9h1.33l3.78,9.9h-1.31Zm-.38-1-1.76-4.87-1.84,4.87Z"/><path class="cls-2" d="M1017.22,56.16h-2.15v4.33h-1.24v-9.9h4.07c2.27,0,3.3,1,3.3,2.72,0,1.49-.82,2.5-2.65,2.72l3.19,4.46h-1.39Zm-2.15-1h2.69c1.44,0,2.2-.65,2.2-1.81s-.79-1.69-2.23-1.69h-2.66Z"/><path class="cls-2" d="M1224.62,59.67h5.85l-1,1-6.52-.06-.06-6.52,1-1V59l6.42-6.42.72.73Z"/><path class="cls-2" d="M1236.53,57.54h1.3c.19,1.41,1.22,2.09,2.83,2.09s2.48-.74,2.48-1.71-.59-1.38-1.74-1.64l-2.3-.52a2.49,2.49,0,0,1-2.25-2.5c0-1.61,1.36-2.85,3.55-2.85s3.66.92,3.88,3H1243c-.19-1.32-1.15-1.91-2.61-1.91s-2.22.73-2.22,1.66c0,.72.36,1.21,1.5,1.47l2.23.51c1.61.37,2.56,1.24,2.56,2.66,0,1.73-1.36,2.92-3.78,2.92C1238.06,60.67,1236.73,59.54,1236.53,57.54Z"/><path class="cls-2" d="M1252.26,57.76h-4.36l-1,2.73h-1.32l3.91-9.9h1.33l3.78,9.9h-1.31Zm-.38-1-1.76-4.87-1.84,4.87Z"/><path class="cls-2" d="M1264.6,50.59v9.9h-1.87l-5.09-8.91v8.91h-1.16v-9.9h1.86l5.11,8.91V50.59Z"/><path class="cls-2" d="M1266.87,57.54h1.3c.19,1.41,1.22,2.09,2.83,2.09s2.48-.74,2.48-1.71-.58-1.38-1.74-1.64l-2.3-.52a2.49,2.49,0,0,1-2.25-2.5c0-1.61,1.36-2.85,3.55-2.85s3.66.92,3.88,3h-1.3c-.19-1.32-1.15-1.91-2.61-1.91s-2.22.73-2.22,1.66c0,.72.36,1.21,1.5,1.47l2.23.51c1.61.37,2.56,1.24,2.56,2.66,0,1.73-1.36,2.92-3.78,2.92C1268.4,60.67,1267.08,59.54,1266.87,57.54Z"/><path class="cls-2" d="M1288.7,57.68c0,1.73-1,2.81-3.53,2.81H1281v-9.9H1285c2.26,0,3.3,1,3.3,2.61a2.25,2.25,0,0,1-1.78,2.14A2.34,2.34,0,0,1,1288.7,57.68Zm-6.45-6.06v3.3h2.58c1.38,0,2.18-.63,2.18-1.72s-.93-1.58-2.38-1.58Zm5.23,6.06c0-1.32-1-1.73-2.54-1.73h-2.69v3.51h2.67C1286.45,59.46,1287.48,59.06,1287.48,57.68Z"/><path class="cls-2" d="M1290.5,55.55c0-3.07,1.89-5.14,4.61-5.14s4.61,2.07,4.61,5.14-1.88,5.12-4.61,5.12S1290.5,58.59,1290.5,55.55Zm8,0c0-2.54-1.32-4.1-3.37-4.1s-3.36,1.56-3.36,4.1,1.32,4.08,3.36,4.08S1298.48,58.07,1298.48,55.55Z"/><path class="cls-2" d="M1308.15,59.44v1.05h-6v-9.9h1.25v8.85Z"/><path class="cls-2" d="M1318.09,55.55a4.6,4.6,0,0,1-4.81,4.94h-3.18v-9.9h3.18A4.6,4.6,0,0,1,1318.09,55.55Zm-1.24,0c0-2.48-1.38-3.93-3.76-3.93h-1.76v7.84h1.76C1315.44,59.46,1316.85,58,1316.85,55.55Z"/><path class="cls-2" d="M1221.62,244.67h5.85l-1,1-6.52-.06-.06-6.52,1-1V244l6.42-6.42.72.73Z"/><path class="cls-2" d="M1233.53,242.54h1.3c.19,1.41,1.22,2.09,2.83,2.09s2.48-.74,2.48-1.71-.59-1.38-1.74-1.64l-2.3-.52a2.49,2.49,0,0,1-2.25-2.5c0-1.61,1.36-2.85,3.55-2.85s3.66.92,3.88,3H1240c-.19-1.32-1.15-1.91-2.61-1.91s-2.22.73-2.22,1.66c0,.72.36,1.21,1.5,1.47l2.23.51c1.61.37,2.56,1.24,2.56,2.66,0,1.73-1.36,2.92-3.78,2.92C1235.06,245.67,1233.73,244.54,1233.53,242.54Z"/><path class="cls-2" d="M1245,236.64v3.26h5v1h-5v3.5h5.62v1.05h-6.85v-9.9h6.85v1Z"/><path class="cls-2" d="M1256.45,241.16h-2.14v4.33h-1.24v-9.9h4.07c2.26,0,3.29,1,3.29,2.72,0,1.49-.81,2.5-2.65,2.72l3.19,4.46h-1.38Zm-2.14-1H1257c1.45,0,2.2-.65,2.2-1.81s-.78-1.69-2.23-1.69h-2.65Z"/><path class="cls-2" d="M1264.32,245.49h-1.22v-9.9h1.22Z"/><path class="cls-2" d="M1268.6,236.64v3.26h4.91v1h-4.91v4.55h-1.23v-9.9h6.84v1Z"/><path class="cls-2" d="M1281.64,245.49h-1.22v-9.9h1.22Z"/><path class="cls-2" d="M1291.47,236.61h-3.28v8.88H1287v-8.88h-3.3v-1h7.8Z"/><path class="cls-2" d="M1299,242.76h-4.37l-1,2.73h-1.31l3.91-9.9h1.32l3.78,9.9H1300Zm-.38-1-1.77-4.87-1.84,4.87Z"/><path class="cls-2" d="M1309.22,244.44v1.05h-6v-9.9h1.25v8.85Z"/><path class="cls-2" d="M1312.39,245.49h-1.22v-9.9h1.22Z"/><path class="cls-2" d="M1314.81,240.55c0-3,1.81-5.14,4.6-5.14,2.61,0,3.82,1.34,4.21,3.34h-1.29a2.64,2.64,0,0,0-2.92-2.3c-1.87,0-3.36,1.6-3.36,4.1s1.49,4.08,3.36,4.08a2.67,2.67,0,0,0,2.93-2.29h1.3c-.44,2.09-1.67,3.33-4.23,3.33C1316.64,245.67,1314.81,243.54,1314.81,240.55Z"/><path class="cls-2" d="M1185.62,423.67h5.85l-1,1-6.52-.06-.06-6.52,1-1V423l6.42-6.42.72.73Z"/><path class="cls-2" d="M1197.53,421.54h1.3c.19,1.41,1.22,2.09,2.83,2.09s2.48-.74,2.48-1.71-.59-1.38-1.74-1.64l-2.3-.52a2.49,2.49,0,0,1-2.25-2.5c0-1.61,1.36-2.85,3.55-2.85s3.66.92,3.88,2.95H1204c-.19-1.32-1.15-1.91-2.61-1.91s-2.22.73-2.22,1.66c0,.72.36,1.21,1.5,1.47l2.23.51c1.61.37,2.56,1.24,2.56,2.66,0,1.73-1.36,2.92-3.78,2.92C1199.06,424.67,1197.73,423.54,1197.53,421.54Z"/><path class="cls-2" d="M1209,415.64v3.26h5v1h-5v3.5h5.62v1.05h-6.85v-9.9h6.85v1.05Z"/><path class="cls-2" d="M1220.45,420.16h-2.14v4.33h-1.24v-9.9h4.07c2.26,0,3.29,1.05,3.29,2.72,0,1.49-.81,2.5-2.65,2.72l3.19,4.46h-1.38Zm-2.14-1H1221c1.45,0,2.2-.65,2.2-1.81s-.78-1.69-2.23-1.69h-2.65Z"/><path class="cls-2" d="M1228.32,424.49h-1.22v-9.9h1.22Z"/><path class="cls-2" d="M1232.6,415.64v3.26h4.91v1h-4.91v4.55h-1.23v-9.9h6.84v1.05Z"/><path class="cls-2" d="M1245.64,424.49h-1.22v-9.9h1.22Z"/><path class="cls-2" d="M1255.47,415.61h-3.28v8.88H1251v-8.88h-3.3v-1h7.8Z"/><path class="cls-2" d="M1263,421.76h-4.37l-1,2.73h-1.31l3.91-9.9h1.32l3.78,9.9H1264Zm-.38-1-1.77-4.87-1.84,4.87Z"/><path class="cls-2" d="M1273.22,423.44v1.05h-6v-9.9h1.25v8.85Z"/><path class="cls-2" d="M1276.39,424.49h-1.22v-9.9h1.22Z"/><path class="cls-2" d="M1278.81,419.55c0-3,1.81-5.14,4.6-5.14,2.61,0,3.82,1.34,4.21,3.34h-1.29a2.64,2.64,0,0,0-2.92-2.3c-1.87,0-3.36,1.6-3.36,4.1s1.49,4.08,3.36,4.08a2.67,2.67,0,0,0,2.93-2.29h1.3c-.44,2.09-1.67,3.33-4.23,3.33C1280.64,424.67,1278.81,422.54,1278.81,419.55Z"/><path class="cls-2" d="M560.23,309.3h-8.09l4,4.34h-1.43l-4.38-4.86,4.38-4.86h1.43l-4,4.36h8.12Z"/><path class="cls-2" d="M565.59,310.54h1.3c.19,1.41,1.23,2.09,2.83,2.09s2.48-.74,2.48-1.71-.58-1.38-1.73-1.64l-2.31-.52a2.49,2.49,0,0,1-2.24-2.5c0-1.61,1.35-2.85,3.54-2.85s3.66.92,3.88,2.95H572c-.19-1.32-1.15-1.91-2.61-1.91s-2.22.73-2.22,1.66c0,.72.37,1.21,1.51,1.47l2.23.51c1.6.37,2.55,1.24,2.55,2.66,0,1.73-1.36,2.92-3.78,2.92C567.13,313.67,565.8,312.54,565.59,310.54Z"/><path class="cls-2" d="M581.33,310.76H577l-1,2.73h-1.31l3.91-9.9h1.33l3.77,9.9h-1.31Zm-.38-1-1.77-4.87-1.83,4.87Z"/><path class="cls-2" d="M593.67,303.59v9.9H591.8l-5.09-8.91v8.91h-1.17v-9.9h1.87l5.1,8.91v-8.91Z"/><path class="cls-2" d="M595.94,310.54h1.29c.19,1.41,1.23,2.09,2.83,2.09s2.48-.74,2.48-1.71-.58-1.38-1.73-1.64l-2.31-.52a2.49,2.49,0,0,1-2.24-2.5c0-1.61,1.35-2.85,3.54-2.85s3.66.92,3.88,2.95h-1.3c-.19-1.32-1.15-1.91-2.61-1.91s-2.22.73-2.22,1.66c0,.72.37,1.21,1.51,1.47l2.23.51c1.6.37,2.55,1.24,2.55,2.66,0,1.73-1.35,2.92-3.78,2.92C597.47,313.67,596.14,312.54,595.94,310.54Z"/><path class="cls-2" d="M613.48,309.16h-2.15v4.33h-1.24v-9.9h4.07c2.26,0,3.3,1.05,3.3,2.72,0,1.49-.82,2.5-2.66,2.72l3.2,4.46h-1.39Zm-2.15-1H614c1.44,0,2.2-.65,2.2-1.81s-.79-1.69-2.23-1.69h-2.66Z"/><path class="cls-2" d="M621.35,304.64v3.26h5v1h-5v3.5H627v1.05h-6.84v-9.9H627v1.05Z"/><path class="cls-2" d="M637.83,308.36l0,5.13h-1.09v-1.81a3.27,3.27,0,0,1-3.27,2c-2.78,0-4.65-2.08-4.65-5.12s1.85-5.14,4.62-5.14a3.9,3.9,0,0,1,4.16,2.85h-1.31a2.72,2.72,0,0,0-2.86-1.81c-2,0-3.37,1.56-3.37,4.1s1.35,4.08,3.41,4.08a3,3,0,0,0,3.18-3.24h-3.46v-1Z"/><path class="cls-2" d="M648.47,309.64c0,2.68-1.59,4-4.08,4s-4.1-1.36-4.1-4v-6.05h1.22v6.05a2.68,2.68,0,0,0,2.89,2.95,2.65,2.65,0,0,0,2.85-2.89v-6.11h1.22Z"/><path class="cls-2" d="M657.41,312.44v1.05h-6v-9.9h1.25v8.85Z"/><path class="cls-2" d="M664.86,310.76H660.5l-1,2.73h-1.31l3.91-9.9h1.32l3.78,9.9h-1.31Zm-.38-1-1.77-4.87-1.83,4.87Z"/><path class="cls-2" d="M672.45,309.16h-2.14v4.33h-1.24v-9.9h4.07c2.26,0,3.29,1.05,3.29,2.72,0,1.49-.81,2.5-2.65,2.72l3.19,4.46h-1.38Zm-2.14-1H673c1.45,0,2.2-.65,2.2-1.81s-.78-1.69-2.23-1.69h-2.65Z"/><path class="cls-2" d="M676.06,418.83v1.43l-4.86,4.38-4.86-4.38v-1.43l4.37,4v-8.43h1v8.4Z"/><path class="cls-2" d="M681.36,421.54h1.3c.19,1.41,1.22,2.09,2.83,2.09s2.48-.74,2.48-1.71-.58-1.38-1.74-1.64l-2.3-.52a2.49,2.49,0,0,1-2.25-2.5c0-1.61,1.36-2.85,3.55-2.85s3.66.92,3.88,2.95h-1.3c-.19-1.32-1.15-1.91-2.61-1.91s-2.22.73-2.22,1.66c0,.72.36,1.21,1.5,1.47l2.23.51c1.61.37,2.56,1.24,2.56,2.66,0,1.73-1.36,2.92-3.78,2.92C682.89,424.67,681.57,423.54,681.36,421.54Z"/><path class="cls-2" d="M692.82,415.64v3.26h5v1h-5v3.5h5.62v1.05H691.6v-9.9h6.84v1.05Z"/><path class="cls-2" d="M704.28,420.16h-2.14v4.33H700.9v-9.9H705c2.26,0,3.3,1.05,3.3,2.72,0,1.49-.82,2.5-2.66,2.72l3.19,4.46h-1.38Zm-2.14-1h2.68c1.45,0,2.21-.65,2.21-1.81s-.79-1.69-2.24-1.69h-2.65Z"/><path class="cls-2" d="M712.15,424.49h-1.22v-9.9h1.22Z"/><path class="cls-2" d="M716.43,415.64v3.26h4.91v1h-4.91v4.55H715.2v-9.9H722v1.05Z"/><path class="cls-2" d="M731.63,420.16h-2.14v4.33h-1.24v-9.9h4.07c2.26,0,3.3,1.05,3.3,2.72,0,1.49-.82,2.5-2.66,2.72l3.2,4.46h-1.39Zm-2.14-1h2.68c1.45,0,2.21-.65,2.21-1.81s-.79-1.69-2.23-1.69h-2.66Z"/><path class="cls-2" d="M739.51,415.64v3.26h5v1h-5v3.5h5.61v1.05h-6.84v-9.9h6.84v1.05Z"/><path class="cls-2" d="M756,419.36l0,5.13h-1.09v-1.81a3.27,3.27,0,0,1-3.27,2c-2.79,0-4.65-2.08-4.65-5.12s1.85-5.14,4.62-5.14a3.91,3.91,0,0,1,4.16,2.85h-1.32a2.7,2.7,0,0,0-2.85-1.81c-2,0-3.37,1.56-3.37,4.1s1.35,4.08,3.41,4.08a3,3,0,0,0,3.18-3.24h-3.46v-1Z"/><path class="cls-2" d="M766.63,420.64c0,2.68-1.59,4-4.09,4s-4.09-1.36-4.09-4v-6.05h1.22v6.05a2.67,2.67,0,0,0,2.89,2.95,2.64,2.64,0,0,0,2.84-2.89v-6.11h1.23Z"/><path class="cls-2" d="M775.57,423.44v1.05h-6v-9.9h1.26v8.85Z"/><path class="cls-2" d="M783,421.76h-4.37l-1,2.73H776.3l3.91-9.9h1.33l3.78,9.9H784Zm-.38-1-1.77-4.87L779,420.73Z"/><path class="cls-2" d="M790.61,420.16h-2.14v4.33h-1.24v-9.9h4.07c2.26,0,3.29,1.05,3.29,2.72,0,1.49-.81,2.5-2.65,2.72l3.19,4.46h-1.38Zm-2.14-1h2.68c1.44,0,2.2-.65,2.2-1.81s-.79-1.69-2.23-1.69h-2.65Z"/><path d="M1278.35,97l-55.87,123h-10.67l21-45.79L1197.64,97h15.72L1239,154.42,1264,97Z"/></g></svg>