<?xml version="1.0" encoding="UTF-8"?>
<svg id="Layer_1" data-name="Layer 1" xmlns="http://www.w3.org/2000/svg" xmlns:xlink="http://www.w3.org/1999/xlink" viewBox="0 0 1366 768">
  <defs>
    <style>
      .cls-1 {
        clip-path: url(#clippath);
      }

      .cls-2, .cls-3 {
        fill: #12100b;
      }

      .cls-4 {
        fill: #fff;
      }

      .cls-4, .cls-3 {
        stroke-width: 0px;
      }
    </style>
    <clipPath id="clippath">
      <rect class="cls-3" x="-10" y="-10" width="1386" height="788"/>
    </clipPath>
  </defs>
  <g>
    <rect class="cls-2" x="-10" y="-10" width="1386" height="788"/>
    <g class="cls-1">
      <rect class="cls-3" x="-.35" y="-3.25" width="1366.71" height="779.89"/>
    </g>
  </g>
  <g>
    <path class="cls-4" d="M849.23,95.35v11.34h-1.24v-52.35h1.31v25.96c2.04-7.05,7.34-12.07,15.12-12.07,9.89,0,16.14,8.43,16.14,19.7s-6.4,19.63-16.29,19.63c-7.85,0-13.09-5.09-15.05-12.21ZM864.28,106.25c9.09,0,14.98-7.85,14.98-18.32s-5.82-18.4-14.83-18.4c-9.53,0-15.12,8.22-15.12,17.52v1.6c0,9.23,5.53,17.59,14.98,17.59Z"/>
    <path class="cls-4" d="M914.24,97.09c-2.18,6.69-7.93,10.47-14.91,10.47-8,0-12.65-4.94-12.65-10.83s3.78-9.96,11.63-10.83l15.85-1.82v-2.76c0-7.27-4.14-11.78-11.34-11.78s-12.29,3.34-13.38,11.12h-1.38c1.02-8.14,6.4-12.43,14.69-12.43s12.72,5.02,12.72,13.01v25.45h-1.24v-9.6ZM899.33,106.25c8.8,0,14.83-6.62,14.83-15.41v-5.45l-15.78,1.82c-7.12.8-10.4,4.58-10.4,9.6s4.29,9.45,11.34,9.45Z"/>
    <path class="cls-4" d="M924.06,87.93c0-11.27,6.18-19.7,16.14-19.7,7.85,0,13.16,5.16,15.12,12.29v-26.17h1.31v52.35h-1.24v-11.56c-1.89,7.27-7.12,12.43-15.05,12.43-9.96,0-16.29-8.36-16.29-19.63ZM940.34,106.25c9.45,0,14.98-8.36,14.98-17.59v-1.6c0-9.31-5.6-17.52-15.12-17.52-9.02,0-14.83,7.85-14.83,18.4s5.89,18.32,14.98,18.32Z"/>
    <path class="cls-4" d="M1027.6,69.53c-8.51,0-13.52,5.74-13.52,16.14v21.01h-1.31v-23.63c0-8.51-4-13.52-12-13.52s-13.31,5.74-13.31,16.14v21.01h-1.31v-37.59h1.24v9.45c1.96-6.18,6.54-10.33,13.45-10.33s11.78,3.85,12.94,10.98c1.67-6.69,6.18-10.98,13.82-10.98,8.14,0,13.01,5.16,13.01,14.76v23.7h-1.31v-23.63c0-8.73-4.14-13.52-11.71-13.52Z"/>
    <path class="cls-4" d="M1049.2,88c0-11.42,6.18-19.78,16.14-19.78s15.85,7.78,15.85,18.83v1.38h-30.68c.14,9.96,5.6,17.81,15.63,17.81,6.83,0,11.71-4.43,13.01-10.54h1.45c-1.67,6.47-6.25,11.85-14.54,11.85-10.91,0-16.87-8.65-16.87-19.56ZM1079.88,87.13c0-10.83-5.45-17.6-14.54-17.6s-14.54,7.34-14.83,17.6h29.37Z"/>
    <path class="cls-4" d="M1131.36,69.53c-8.51,0-13.52,5.74-13.52,16.14v21.01h-1.31v-23.63c0-8.51-4-13.52-12-13.52s-13.31,5.74-13.31,16.14v21.01h-1.31v-37.59h1.24v9.45c1.96-6.18,6.54-10.33,13.45-10.33s11.78,3.85,12.94,10.98c1.67-6.69,6.18-10.98,13.82-10.98,8.14,0,13.01,5.16,13.01,14.76v23.7h-1.31v-23.63c0-8.73-4.14-13.52-11.71-13.52Z"/>
    <path class="cls-4" d="M1152.96,87.93c0-11.2,6.04-19.7,16.36-19.7s16.29,8.51,16.29,19.7-6.04,19.63-16.21,19.63-16.43-8.43-16.43-19.63ZM1169.39,106.25c9.23,0,14.91-7.85,14.91-18.32s-5.45-18.4-14.98-18.4-15.05,7.93-15.05,18.4,5.6,18.32,15.12,18.32Z"/>
    <path class="cls-4" d="M1195.86,78.33c1.16-5.16,5.45-9.67,11.42-9.67.36,0,.58,0,1.09.07v1.31c-.58-.07-.94-.07-1.38-.07-6.04,0-10.98,5.45-10.98,14.91v21.81h-1.31v-37.59h1.16v9.23Z"/>
    <path class="cls-4" d="M1218.11,120.36h-1.45l8.65-17.09-14.98-34.17h1.38l14.4,32.79,16.14-32.79h1.38l-25.52,51.26Z"/>
  </g>
  <g>
    <path class="cls-4" d="M745.12,159.68c-3.85,0-6.62,2.54-6.62,7.56v21.67h-10.83v-21.38c0-5.45-2.54-7.85-6.33-7.85s-6.62,2.4-6.62,7.56v21.67h-10.76v-37.59h9.67v5.31c2.47-4.14,6.62-6.18,11.56-6.18,5.38,0,9.53,2.47,11.71,6.83,2.54-4.58,6.83-6.83,12-6.83,8.07,0,13.31,5.45,13.31,14.76v23.7h-10.76v-21.38c0-5.45-2.54-7.85-6.33-7.85Z"/>
    <path class="cls-4" d="M792.53,184.18c-2.84,3.78-6.91,5.6-11.85,5.6-8.29,0-13.67-4.8-13.67-11.27s3.71-10.76,13.52-11.71l10.91-1.09v-1.89c0-3.85-2.33-5.82-6.18-5.82s-6.04,1.6-6.76,4.87h-10.83c1.09-8.07,7.12-12.43,17.52-12.43s16.94,4.36,16.94,14.11v24.36h-9.6v-4.73ZM783.59,182.87c5.16,0,7.71-3.56,7.71-8.58v-2.47l-8.14,1.09c-3.56.51-5.38,2.4-5.38,5.09s2.18,4.87,5.82,4.87Z"/>
    <path class="cls-4" d="M824.96,180.84c4.22,0,7.12-2.98,7.12-7.56v-21.96h10.83v37.59h-9.67v-5.67c-2.69,4.29-6.83,6.54-11.63,6.54-8.58,0-13.45-4.94-13.45-13.81v-24.65h10.76v23.12c0,4,2.04,6.4,6.04,6.4Z"/>
    <path class="cls-4" d="M845.98,151.32h11.2l9.09,27.48,8.58-27.48h11.05l-13.38,37.59h-12.72l-13.81-37.59Z"/>
    <path class="cls-4" d="M913.17,184.18c-2.84,3.78-6.91,5.6-11.85,5.6-8.29,0-13.67-4.8-13.67-11.27s3.71-10.76,13.52-11.71l10.91-1.09v-1.89c0-3.85-2.33-5.82-6.18-5.82s-6.04,1.6-6.76,4.87h-10.83c1.09-8.07,7.12-12.43,17.52-12.43s16.94,4.36,16.94,14.11v24.36h-9.6v-4.73ZM904.22,182.87c5.16,0,7.71-3.56,7.71-8.58v-2.47l-8.14,1.09c-3.56.51-5.38,2.4-5.38,5.09s2.18,4.87,5.82,4.87Z"/>
    <path class="cls-4" d="M934.69,134.08c3.63,0,6.18,2.69,6.18,6.04s-2.54,6.18-6.18,6.18-6.25-2.76-6.25-6.18,2.47-6.04,6.25-6.04ZM929.16,151.32h10.83v37.59h-10.83v-37.59Z"/>
    <path class="cls-4" d="M944.73,177.93h10.47c.8,2.91,3.2,4.51,7.34,4.51,4.51,0,6.33-1.6,6.33-3.85,0-1.89-1.16-3.27-4.14-3.78l-8.07-1.53c-8-1.53-11.2-5.24-11.2-10.98,0-6.33,5.45-11.85,16.21-11.85s16.07,5.02,17.38,12.43h-10.54c-.51-3.27-2.98-5.09-6.98-5.09s-5.89,1.75-5.89,3.85c0,1.82.95,3.05,4.58,3.64l8,1.38c8.36,1.45,11.42,5.31,11.42,11.27s-5.16,11.85-16.87,11.85-16.58-4.73-18.03-11.85Z"/>
    <path class="cls-4" d="M982.54,170.36c0-11.78,7.56-19.92,18.98-19.92s18.9,8.29,18.69,20.29c0,1.16-.07,2.25-.07,2.25h-26.9c.65,6.47,3.93,8.87,8.65,8.87,3.63,0,5.74-1.53,6.76-3.93h10.69c-1.75,6.76-8.07,11.85-17.74,11.85-12.14,0-19.05-8.07-19.05-19.41ZM1009.22,166.37c-.44-4.87-3.13-8-7.71-8-4.14,0-7.12,2.62-8.14,8h15.85Z"/>
    <path class="cls-4" d="M1081.42,159.68c-3.85,0-6.62,2.54-6.62,7.56v21.67h-10.83v-21.38c0-5.45-2.54-7.85-6.33-7.85s-6.62,2.4-6.62,7.56v21.67h-10.76v-37.59h9.67v5.31c2.47-4.14,6.62-6.18,11.56-6.18,5.38,0,9.53,2.47,11.71,6.83,2.54-4.58,6.83-6.83,12-6.83,8.07,0,13.31,5.45,13.31,14.76v23.7h-10.76v-21.38c0-5.45-2.54-7.85-6.33-7.85Z"/>
    <path class="cls-4" d="M1103.03,170.36c0-11.78,7.56-19.92,18.98-19.92s18.9,8.29,18.69,20.29c0,1.16-.07,2.25-.07,2.25h-26.9c.65,6.47,3.93,8.87,8.65,8.87,3.63,0,5.74-1.53,6.76-3.93h10.69c-1.75,6.76-8.07,11.85-17.74,11.85-12.14,0-19.05-8.07-19.05-19.41ZM1129.71,166.37c-.44-4.87-3.13-8-7.71-8-4.14,0-7.12,2.62-8.14,8h15.85ZM1124.55,133.87h12.51l-9.6,11.34h-10.62l7.71-11.34Z"/>
    <path class="cls-4" d="M1186.72,159.68c-3.85,0-6.62,2.54-6.62,7.56v21.67h-10.83v-21.38c0-5.45-2.54-7.85-6.33-7.85s-6.62,2.4-6.62,7.56v21.67h-10.76v-37.59h9.67v5.31c2.47-4.14,6.62-6.18,11.56-6.18,5.38,0,9.53,2.47,11.71,6.83,2.54-4.58,6.83-6.83,12-6.83,8.07,0,13.31,5.45,13.31,14.76v23.7h-10.76v-21.38c0-5.45-2.54-7.85-6.33-7.85Z"/>
    <path class="cls-4" d="M1208.32,170.15c0-12.14,8.51-19.7,19.49-19.7s19.49,7.49,19.49,19.7-8.51,19.63-19.49,19.63-19.49-7.42-19.49-19.63ZM1227.8,181.2c4.94,0,8.58-4.14,8.58-11.05s-3.56-11.12-8.65-11.12-8.65,4.14-8.65,11.12,3.64,11.05,8.73,11.05Z"/>
    <path class="cls-4" d="M1257.69,134.08c3.63,0,6.18,2.69,6.18,6.04s-2.54,6.18-6.18,6.18-6.25-2.76-6.25-6.18,2.47-6.04,6.25-6.04ZM1252.16,151.32h10.83v37.59h-10.83v-37.59Z"/>
    <path class="cls-4" d="M1279.43,157.71c2.04-4.51,5.82-6.69,9.96-6.69.87,0,1.67.07,2.4.29v9.38c-.58-.07-1.45-.15-2.4-.15-5.82,0-8.87,2.84-8.87,8.73v19.63h-10.76v-37.59h9.67v6.4Z"/>
    <path class="cls-4" d="M1294.19,170.36c0-11.78,7.56-19.92,18.98-19.92s18.9,8.29,18.69,20.29c0,1.16-.07,2.25-.07,2.25h-26.9c.65,6.47,3.93,8.87,8.65,8.87,3.63,0,5.74-1.53,6.76-3.93h10.69c-1.75,6.76-8.07,11.85-17.74,11.85-12.14,0-19.05-8.07-19.05-19.41ZM1320.88,166.37c-.44-4.87-3.13-8-7.71-8-4.14,0-7.12,2.62-8.14,8h15.85Z"/>
  </g>
  <path class="cls-4" d="M679.94,165.42l-21.88,24.21h-2.62l21.09-23.19h-41.23v-2.04h41.23l-21.09-23.19h2.62l21.88,24.21Z"/>
  <path class="cls-4" d="M1331.81,87.53l-24.21,21.89-24.21-21.89v-2.62l23.19,21.08v-47.55h2.04v47.55l23.19-21.08v2.62Z"/>
  <path class="cls-4" d="M806.77,106.69h-49.37v-49.37h49.37v49.37Z"/>
  <path class="cls-4" d="M348.92,617.69h-57.88l29.08-50.17,28.79,50.17ZM345.35,615.58l-25.23-44.13-25.52,44.13h50.75Z"/>
  <path class="cls-4" d="M879.57,618.69h-49.37v-49.37h49.37v49.37Z"/>
  <path class="cls-4" d="M955.96,594.11c0,14.11-11.49,25.45-25.59,25.45s-25.45-11.34-25.45-25.45,11.34-25.59,25.45-25.59,25.59,11.49,25.59,25.59Z"/>
  <path class="cls-4" d="M1110.81,617.69h-57.88l29.08-50.17,28.79,50.17ZM1107.25,615.58l-25.23-44.13-25.52,44.13h50.75Z"/>
  <path class="cls-4" d="M541.12,617.69h-57.88l29.08-50.17,28.79,50.17ZM537.56,615.58l-25.23-44.13-25.52,44.13h50.75Z"/>
  <path class="cls-4" d="M1330.81,617.69h-57.88l29.08-50.17,28.79,50.17ZM1327.25,615.58l-25.23-44.13-25.52,44.13h50.75Z"/>
  <path class="cls-4" d="M838.26,533.15l35.26-35.41,1.45,1.45-35.34,35.34,31.26.15-1.82,1.89-32.57-.29-.29-32.57,1.89-1.82.14,31.26Z"/>
  <path class="cls-4" d="M371.22,532.15l35.26-35.41,1.45,1.45-35.34,35.34,31.26.15-1.82,1.89-32.57-.29-.29-32.57,1.89-1.82.15,31.26Z"/>
  <path class="cls-4" d="M307.79,532.15l35.26-35.41,1.45,1.45-35.34,35.34,31.26.15-1.82,1.89-32.57-.29-.29-32.57,1.89-1.82.15,31.26Z"/>
  <path class="cls-4" d="M592.13,238.55l.29,32.57-1.89,1.82-.07-31.26-34.97,35.05-1.38-1.45,34.97-34.97-31.34-.15,1.89-1.89,32.5.29Z"/>
  <path class="cls-4" d="M888.02,411.62l-31.26.15,34.97,34.97-1.45,1.45-34.9-35.05-.14,31.26-1.89-1.82.29-32.57,32.57-.29,1.82,1.89Z"/>
  <path class="cls-4" d="M781.29,332.98v2.62l-23.19-21.09v47.55h-2.04v-47.55l-23.19,21.09v-2.62l24.21-21.88,24.21,21.88Z"/>
  <path class="cls-4" d="M1261.91,332.98v2.62l-23.19-21.09v47.55h-2.04v-47.55l-23.19,21.09v-2.62l24.21-21.88,24.21,21.88Z"/>
  <path class="cls-4" d="M1330.14,332.98v2.62l-23.19-21.09v47.55h-2.04v-47.55l-23.19,21.09v-2.62l24.21-21.88,24.21,21.88Z"/>
  <g>
    <path class="cls-4" d="M630.95,265.2h10.47c.8,2.91,3.2,4.51,7.34,4.51,4.51,0,6.33-1.6,6.33-3.85,0-1.89-1.16-3.27-4.14-3.78l-8.07-1.53c-8-1.53-11.2-5.24-11.2-10.98,0-6.33,5.45-11.85,16.21-11.85s16.07,5.02,17.38,12.43h-10.54c-.51-3.27-2.98-5.09-6.98-5.09s-5.89,1.75-5.89,3.85c0,1.82.95,3.05,4.58,3.64l8,1.38c8.36,1.45,11.42,5.31,11.42,11.27s-5.16,11.85-16.87,11.85-16.58-4.73-18.03-11.85Z"/>
    <path class="cls-4" d="M668.76,257.42c0-12.29,8.07-19.7,19.12-19.7s16.72,6.04,17.96,14.18h-10.91c-.8-3.71-3.05-5.6-7.2-5.6-4.94,0-8.07,4-8.07,10.98s3.05,11.2,8.14,11.2c4.22,0,6.18-1.96,7.12-5.67h10.83c-1.31,8.43-7.56,14.25-17.89,14.25-11.05,0-19.12-7.42-19.12-19.63Z"/>
    <path class="cls-4" d="M728.67,246.73c-3.93,0-7.05,2.69-7.05,7.78v21.67h-10.76v-52.35h10.76v19.7c2.18-3.78,5.74-5.82,10.62-5.82,8,0,14.11,4.87,14.11,14.61v23.85h-10.76v-21.59c0-5.31-3.05-7.85-6.91-7.85Z"/>
    <path class="cls-4" d="M763.58,276.18h-10.83v-52.35h10.83v52.35Z"/>
    <path class="cls-4" d="M768.38,257.64c0-11.78,7.56-19.92,18.98-19.92s18.9,8.29,18.69,20.29c0,1.16-.07,2.25-.07,2.25h-26.9c.65,6.47,3.93,8.87,8.65,8.87,3.63,0,5.74-1.53,6.76-3.93h10.69c-1.75,6.76-8.07,11.85-17.74,11.85-12.14,0-19.05-8.07-19.05-19.41ZM795.06,253.64c-.44-4.87-3.13-8-7.71-8-4.14,0-7.12,2.62-8.14,8h15.85Z"/>
    <path class="cls-4" d="M809.03,257.42c0-12.29,8.07-19.7,19.12-19.7s16.72,6.04,17.96,14.18h-10.91c-.8-3.71-3.05-5.6-7.2-5.6-4.94,0-8.07,4-8.07,10.98s3.05,11.2,8.14,11.2c4.22,0,6.18-1.96,7.12-5.67h10.83c-1.31,8.43-7.56,14.25-17.89,14.25-11.05,0-19.12-7.42-19.12-19.63Z"/>
    <path class="cls-4" d="M868.94,246.73c-3.93,0-7.05,2.69-7.05,7.78v21.67h-10.76v-52.35h10.76v19.7c2.18-3.78,5.74-5.82,10.62-5.82,8,0,14.11,4.87,14.11,14.61v23.85h-10.76v-21.59c0-5.31-3.05-7.85-6.91-7.85Z"/>
    <path class="cls-4" d="M911.84,267.6c1.24,0,2.18-.07,2.98-.22v8.65c-2.04.51-3.13.58-5.74.58-9.16,0-12.94-5.09-12.94-13.74v-15.49h-5.74v-8.8h5.74v-10.62h10.83v10.62h7.85v8.8h-7.85v15.12c0,3.42,1.53,5.09,4.87,5.09Z"/>
    <path class="cls-4" d="M917.81,257.64c0-11.78,7.56-19.92,18.98-19.92s18.9,8.29,18.69,20.29c0,1.16-.07,2.25-.07,2.25h-26.9c.65,6.47,3.93,8.87,8.65,8.87,3.63,0,5.74-1.53,6.76-3.93h10.69c-1.75,6.76-8.07,11.85-17.74,11.85-12.14,0-19.05-8.07-19.05-19.41ZM944.49,253.64c-.44-4.87-3.13-8-7.71-8-4.14,0-7.12,2.62-8.14,8h15.85Z"/>
    <path class="cls-4" d="M976.56,226.81h36.43v8.94h-25.23v10.76h23.92v8.94h-23.92v11.78h25.38v8.94h-36.57v-49.37Z"/>
    <path class="cls-4" d="M1028.18,244.99c2.04-4.51,5.82-6.69,9.96-6.69.87,0,1.67.07,2.4.29v9.38c-.58-.07-1.45-.15-2.4-.15-5.82,0-8.87,2.84-8.87,8.73v19.63h-10.76v-37.59h9.67v6.4Z"/>
    <path class="cls-4" d="M1050.44,221.35c3.63,0,6.18,2.69,6.18,6.04s-2.54,6.18-6.18,6.18-6.25-2.76-6.25-6.18,2.47-6.04,6.25-6.04ZM1044.91,238.59h10.83v37.59h-10.83v-37.59Z"/>
    <path class="cls-4" d="M1080.39,246.66c-4,0-7.12,2.76-7.12,8.07v21.45h-10.76v-37.59h9.67v5.31c2.47-4.22,6.69-6.18,12-6.18,7.78,0,13.81,4.36,13.81,14.54v23.92h-10.76v-21.38c0-5.82-2.69-8.14-6.83-8.14Z"/>
    <path class="cls-4" d="M1122.28,246.66c-4,0-7.12,2.76-7.12,8.07v21.45h-10.76v-37.59h9.67v5.31c2.47-4.22,6.69-6.18,12-6.18,7.78,0,13.81,4.36,13.81,14.54v23.92h-10.76v-21.38c0-5.82-2.69-8.14-6.83-8.14Z"/>
    <path class="cls-4" d="M1144.38,257.64c0-11.78,7.56-19.92,18.98-19.92s18.9,8.29,18.69,20.29c0,1.16-.07,2.25-.07,2.25h-26.9c.65,6.47,3.93,8.87,8.65,8.87,3.63,0,5.74-1.53,6.76-3.93h10.69c-1.75,6.76-8.07,11.85-17.74,11.85-12.14,0-19.05-8.07-19.05-19.41ZM1171.07,253.64c-.44-4.87-3.13-8-7.71-8-4.14,0-7.12,2.62-8.14,8h15.85Z"/>
    <path class="cls-4" d="M1196.59,244.99c2.04-4.51,5.82-6.69,9.96-6.69.87,0,1.67.07,2.4.29v9.38c-.58-.07-1.45-.15-2.4-.15-5.82,0-8.87,2.84-8.87,8.73v19.63h-10.76v-37.59h9.67v6.4Z"/>
    <path class="cls-4" d="M1229.75,268.11c4.22,0,7.12-2.98,7.12-7.56v-21.96h10.83v37.59h-9.67v-5.67c-2.69,4.29-6.83,6.54-11.63,6.54-8.58,0-13.45-4.94-13.45-13.81v-24.65h10.76v23.12c0,4,2.04,6.4,6.04,6.4Z"/>
    <path class="cls-4" d="M1272.21,246.66c-4,0-7.12,2.76-7.12,8.07v21.45h-10.76v-37.59h9.67v5.31c2.47-4.22,6.69-6.18,12-6.18,7.78,0,13.81,4.36,13.81,14.54v23.92h-10.76v-21.38c0-5.82-2.69-8.14-6.83-8.14Z"/>
    <path class="cls-4" d="M1314.1,283.08c5.38,0,8.29-2.91,8.29-8.51v-5.45c-2.54,3.85-6.25,5.31-11.2,5.31-9.23,0-16.87-7.05-16.87-18.4s7.63-18.32,17.01-18.32c5.24,0,9.45,2.18,12.07,6.33v-5.45h9.82v35.63c0,9.02-5.38,16.5-19.05,16.5s-18.25-5.74-19.12-13.31h11.34c.29,3.42,2.18,5.67,7.71,5.67ZM1313.88,266c4.8,0,8.51-4.07,8.51-10.03s-3.71-9.82-8.51-9.82-8.58,3.85-8.58,9.89,3.71,9.96,8.58,9.96Z"/>
  </g>
  <g>
    <path class="cls-4" d="M179.26,159.68c-3.85,0-6.62,2.54-6.62,7.56v21.67h-10.83v-21.38c0-5.45-2.54-7.85-6.33-7.85s-6.62,2.4-6.62,7.56v21.67h-10.76v-37.59h9.67v5.31c2.47-4.14,6.62-6.18,11.56-6.18,5.38,0,9.53,2.47,11.71,6.83,2.54-4.58,6.83-6.83,12-6.83,8.07,0,13.31,5.45,13.31,14.76v23.7h-10.76v-21.38c0-5.45-2.54-7.85-6.33-7.85Z"/>
    <path class="cls-4" d="M226.67,184.18c-2.84,3.78-6.91,5.6-11.85,5.6-8.29,0-13.67-4.8-13.67-11.27s3.71-10.76,13.52-11.71l10.91-1.09v-1.89c0-3.85-2.33-5.82-6.18-5.82s-6.04,1.6-6.76,4.87h-10.83c1.09-8.07,7.12-12.43,17.52-12.43s16.94,4.36,16.94,14.11v24.36h-9.6v-4.73ZM217.73,182.87c5.16,0,7.71-3.56,7.71-8.58v-2.47l-8.14,1.09c-3.56.51-5.38,2.4-5.38,5.09s2.18,4.87,5.82,4.87Z"/>
    <path class="cls-4" d="M253.43,188.91h-10.83v-52.35h10.83v52.35Z"/>
    <path class="cls-4" d="M284.04,184.18c-2.84,3.78-6.91,5.6-11.85,5.6-8.29,0-13.67-4.8-13.67-11.27s3.71-10.76,13.52-11.71l10.91-1.09v-1.89c0-3.85-2.33-5.82-6.18-5.82s-6.04,1.6-6.76,4.87h-10.83c1.09-8.07,7.12-12.43,17.52-12.43s16.94,4.36,16.94,14.11v24.36h-9.6v-4.73ZM275.1,182.87c5.16,0,7.71-3.56,7.71-8.58v-2.47l-8.14,1.09c-3.56.51-5.38,2.4-5.38,5.09s2.18,4.87,5.82,4.87Z"/>
    <path class="cls-4" d="M356.32,159.68c-3.85,0-6.62,2.54-6.62,7.56v21.67h-10.83v-21.38c0-5.45-2.54-7.85-6.33-7.85s-6.62,2.4-6.62,7.56v21.67h-10.76v-37.59h9.67v5.31c2.47-4.14,6.62-6.18,11.56-6.18,5.38,0,9.53,2.47,11.71,6.83,2.54-4.58,6.83-6.83,12-6.83,8.07,0,13.31,5.45,13.31,14.76v23.7h-10.76v-21.38c0-5.45-2.54-7.85-6.33-7.85Z"/>
    <path class="cls-4" d="M377.92,170.36c0-11.78,7.56-19.92,18.98-19.92s18.9,8.29,18.69,20.29c0,1.16-.07,2.25-.07,2.25h-26.9c.65,6.47,3.93,8.87,8.65,8.87,3.63,0,5.74-1.53,6.76-3.93h10.69c-1.75,6.76-8.07,11.85-17.74,11.85-12.14,0-19.05-8.07-19.05-19.41ZM404.6,166.37c-.44-4.87-3.13-8-7.71-8-4.14,0-7.12,2.62-8.14,8h15.85Z"/>
    <path class="cls-4" d="M461.61,159.68c-3.85,0-6.62,2.54-6.62,7.56v21.67h-10.83v-21.38c0-5.45-2.54-7.85-6.33-7.85s-6.62,2.4-6.62,7.56v21.67h-10.76v-37.59h9.67v5.31c2.47-4.14,6.62-6.18,11.56-6.18,5.38,0,9.53,2.47,11.71,6.83,2.54-4.58,6.83-6.83,12-6.83,8.07,0,13.31,5.45,13.31,14.76v23.7h-10.76v-21.38c0-5.45-2.54-7.85-6.33-7.85Z"/>
    <path class="cls-4" d="M483.21,170.15c0-12.14,8.51-19.7,19.49-19.7s19.49,7.49,19.49,19.7-8.51,19.63-19.49,19.63-19.49-7.42-19.49-19.63ZM502.7,181.2c4.94,0,8.58-4.14,8.58-11.05s-3.56-11.12-8.65-11.12-8.65,4.14-8.65,11.12,3.64,11.05,8.72,11.05Z"/>
    <path class="cls-4" d="M536.66,157.71c2.04-4.51,5.82-6.69,9.96-6.69.87,0,1.67.07,2.4.29v9.38c-.58-.07-1.45-.15-2.4-.15-5.82,0-8.87,2.84-8.87,8.73v19.63h-10.76v-37.59h9.67v6.4Z"/>
    <path class="cls-4" d="M558.91,134.08c3.63,0,6.18,2.69,6.18,6.04s-2.54,6.18-6.18,6.18-6.25-2.76-6.25-6.18,2.47-6.04,6.25-6.04ZM553.38,151.32h10.83v37.59h-10.83v-37.59Z"/>
    <path class="cls-4" d="M594.9,184.18c-2.84,3.78-6.91,5.6-11.85,5.6-8.29,0-13.67-4.8-13.67-11.27s3.71-10.76,13.52-11.71l10.91-1.09v-1.89c0-3.85-2.33-5.82-6.18-5.82s-6.04,1.6-6.76,4.87h-10.83c1.09-8.07,7.12-12.43,17.52-12.43s16.94,4.36,16.94,14.11v24.36h-9.6v-4.73ZM585.96,182.87c5.16,0,7.71-3.56,7.71-8.58v-2.47l-8.14,1.09c-3.56.51-5.38,2.4-5.38,5.09s2.18,4.87,5.82,4.87Z"/>
  </g>
  <g>
    <path class="cls-4" d="M296.06,350.74h7.09c.87,4.29,3.91,6.4,9.34,6.4s8.25-2.11,8.25-5.31c0-2.76-1.52-4.51-5.86-5.31l-7.96-1.45c-7.02-1.31-10.2-4.73-10.2-10.4,0-6.18,5.14-11.42,14.55-11.42s14.91,4.73,15.92,12.43h-7.17c-.72-4.65-3.69-6.98-8.9-6.98-4.92,0-7.53,2.47-7.53,5.45,0,2.54,1.3,4.14,5.65,4.94l7.82,1.38c7.82,1.31,10.78,5.16,10.78,10.69,0,6.33-4.7,11.42-15.42,11.42s-15.27-4.87-16.36-11.85Z"/>
    <path class="cls-4" d="M341.66,361.72h-7.24v-52.35h7.24v52.35Z"/>
    <path class="cls-4" d="M348.61,351.32c0-6.47,4.12-10.47,12.74-11.42l12.16-1.24v-2.4c0-4.8-2.82-7.34-8.18-7.34-4.99,0-7.96,2.18-8.61,6.76h-7.24c.87-7.63,6.44-12.43,15.71-12.43,6.15,0,10.64,1.75,13.17,5.67,3.33-3.71,7.74-5.67,12.74-5.67,10.86,0,17.44,7.05,17.44,20.07,0,.65,0,1.24-.07,1.96h-27.79c.72,7.63,4.78,11.34,11.07,11.34,4.56,0,7.74-2.33,8.83-5.89h7.31c-1.45,6.54-7.02,11.85-16.07,11.85-6.95,0-11.87-2.76-14.98-7.34-3.04,4.8-7.53,7.34-14.91,7.34-7.74,0-13.32-4.65-13.32-11.27ZM363.37,357.07c6.37,0,9.99-4.07,9.99-10.11v-3.49l-10.49,1.38c-4.92.58-6.8,3.05-6.8,6.33s2.75,5.89,7.31,5.89ZM401.15,339.84c-.51-7.27-4.12-10.69-10.06-10.69-5.07,0-9.34,3.49-10.28,10.69h20.34Z"/>
    <path class="cls-4" d="M455.65,329.66c-4.78,0-8.83,3.27-8.83,9.38v22.68h-7.16v-22.03c0-6.69-3.62-10.03-8.4-10.03s-8.76,3.2-8.76,9.38v22.68h-7.24v-37.59h6.73v5.02c2.39-3.78,6.3-5.89,11.29-5.89,5.28,0,9.48,2.47,11.72,6.83,2.53-4.36,6.88-6.83,12.38-6.83,8.25,0,13.82,5.6,13.82,15.34v23.12h-7.24v-22.03c0-6.69-3.55-10.03-8.32-10.03Z"/>
    <path class="cls-4" d="M494.44,355.83c1.38,0,2.24-.07,3.11-.29v6.11c-1.52.36-2.75.51-4.56.51-7.02,0-10.78-4.14-10.78-11.42v-20.43h-6.08v-6.18h6.08v-10.62h7.24v10.62h8.11v6.18h-8.11v19.85c0,3.93,1.88,5.67,4.99,5.67Z"/>
    <path class="cls-4" d="M560.09,329.66c-4.78,0-8.83,3.27-8.83,9.38v22.68h-7.16v-22.03c0-6.69-3.62-10.03-8.4-10.03s-8.76,3.2-8.76,9.38v22.68h-7.24v-37.59h6.73v5.02c2.39-3.78,6.3-5.89,11.29-5.89,5.28,0,9.48,2.47,11.72,6.83,2.53-4.36,6.88-6.83,12.38-6.83,8.25,0,13.82,5.6,13.82,15.34v23.12h-7.24v-22.03c0-6.69-3.55-10.03-8.32-10.03Z"/>
    <path class="cls-4" d="M587.95,308.57c2.61,0,4.71,2.04,4.71,4.65s-2.1,4.73-4.71,4.73c-2.75,0-4.85-2.11-4.85-4.73s2.1-4.65,4.85-4.65ZM584.33,324.13h7.09v37.59h-7.09v-37.59Z"/>
    <path class="cls-4" d="M616.68,329.51c-5.21,0-8.97,3.56-8.97,10.62v21.59h-7.24v-37.59h6.73v5.16c2.32-4,6.08-6.04,11.36-6.04,8.11,0,13.75,5.16,13.75,15.2v23.27h-7.24v-21.81c0-6.98-3.11-10.4-8.4-10.4Z"/>
    <path class="cls-4" d="M657,329.51c-5.21,0-8.97,3.56-8.97,10.62v21.59h-7.24v-37.59h6.73v5.16c2.32-4,6.08-6.04,11.36-6.04,8.11,0,13.75,5.16,13.75,15.2v23.27h-7.24v-21.81c0-6.98-3.11-10.4-8.4-10.4Z"/>
    <path class="cls-4" d="M684.93,308.57c2.61,0,4.71,2.04,4.71,4.65s-2.1,4.73-4.71,4.73c-2.75,0-4.85-2.11-4.85-4.73s2.1-4.65,4.85-4.65ZM681.31,324.13h7.09v37.59h-7.09v-37.59Z"/>
  </g>
  <g>
    <path class="cls-4" d="M831.14,336.99v24.58h-9.02v-49.37h9.02v20.5l21.3-20.5h10.76l-23.05,22.39,23.12,26.97h-10.76l-21.38-24.58Z"/>
    <path class="cls-4" d="M865.1,342.88c0-12.07,7.78-19.78,18.69-19.78s18.69,7.71,18.69,19.7-7.78,19.63-18.61,19.63-18.76-7.63-18.76-19.56ZM876.8,307.33c2.76,0,5.09,2.25,5.09,5.09s-2.25,5.09-5.09,5.09-5.16-2.25-5.16-5.09,2.33-5.09,5.16-5.09ZM883.78,355.31c6.04,0,9.96-5.02,9.96-12.51s-3.93-12.58-9.96-12.58-10.03,5.02-10.03,12.65,4,12.43,10.03,12.43ZM890.98,307.33c2.76,0,5.09,2.25,5.09,5.09s-2.33,5.09-5.09,5.09-5.09-2.25-5.09-5.09,2.25-5.09,5.09-5.09Z"/>
    <path class="cls-4" d="M924.72,354.59c1.31,0,2.25-.07,3.05-.22v7.13c-1.67.36-2.91.51-5.02.51-7.93,0-11.63-4.51-11.63-12.36v-18.47h-6.03v-7.2h6.03v-10.62h8.65v10.62h8v7.2h-8v17.96c0,3.78,1.75,5.45,4.94,5.45Z"/>
    <path class="cls-4" d="M948.57,355.17c5.16,0,8.43-3.64,8.43-9.23v-21.96h8.65v37.59h-7.85v-5.45c-2.47,4.07-6.47,6.33-11.63,6.33-8.29,0-13.16-4.87-13.16-13.81v-24.65h8.65v23.56c0,4.87,2.4,7.63,6.91,7.63ZM942.61,307.33c2.76,0,5.09,2.25,5.09,5.09s-2.25,5.09-5.09,5.09-5.16-2.25-5.16-5.09,2.33-5.09,5.16-5.09ZM956.79,307.33c2.76,0,5.09,2.25,5.09,5.09s-2.33,5.09-5.09,5.09-5.09-2.25-5.09-5.09,2.25-5.09,5.09-5.09Z"/>
    <path class="cls-4" d="M997.15,355.38v6.18h-8v-52.35h8.65v19.85c2.54-3.78,6.54-5.96,12.07-5.96,9.02,0,16.5,7.27,16.5,19.7s-7.85,19.63-16.87,19.63c-5.6,0-9.82-2.62-12.36-7.05ZM1007.69,355.38c5.82,0,9.89-4.94,9.89-12.58s-3.85-12.65-9.89-12.65-9.89,5.09-9.89,12.65,4.14,12.58,9.89,12.58Z"/>
    <path class="cls-4" d="M1030.16,343.1c0-12.14,7.56-20,18.32-20,11.56,0,18.03,8,17.89,20.14,0,1.24-.07,2.11-.07,2.11h-27.56c.73,7.2,4.65,10.32,10.03,10.32,4.51,0,7.12-2.04,8.14-5.09h8.72c-1.6,6.62-7.42,11.85-16.8,11.85-11.85,0-18.69-7.92-18.69-19.34ZM1057.5,339.46c-.44-6.4-3.78-9.67-9.02-9.67-4.87,0-8.58,3.2-9.52,9.67h18.54Z"/>
    <path class="cls-4" d="M1081.06,361.57h-8.65v-52.35h8.65v52.35Z"/>
    <path class="cls-4" d="M1097.86,361.57h-8.65v-52.35h8.65v52.35Z"/>
    <path class="cls-4" d="M1103.82,343.1c0-12.14,7.56-20,18.32-20,11.56,0,18.03,8,17.89,20.14,0,1.24-.07,2.11-.07,2.11h-27.56c.73,7.2,4.65,10.32,10.03,10.32,4.51,0,7.12-2.04,8.14-5.09h8.72c-1.6,6.62-7.42,11.85-16.8,11.85-11.85,0-18.69-7.92-18.69-19.34ZM1131.16,339.46c-.44-6.4-3.78-9.67-9.02-9.67-4.87,0-8.58,3.2-9.52,9.67h18.54Z"/>
    <path class="cls-4" d="M1154.57,342.95v18.61h-8.65v-52.35h8.65v29.37l15.27-14.61h9.6l-16.87,16.58,17.74,21.01h-9.96l-15.78-18.61Z"/>
  </g>
  <g>
    <path class="cls-4" d="M58.58,265.32h10.47c.8,2.91,3.2,4.51,7.34,4.51,4.51,0,6.33-1.6,6.33-3.85,0-1.89-1.16-3.27-4.14-3.78l-8.07-1.53c-8-1.53-11.2-5.24-11.2-10.98,0-6.33,5.45-11.85,16.21-11.85s16.07,5.02,17.38,12.43h-10.54c-.51-3.27-2.98-5.09-6.98-5.09s-5.89,1.75-5.89,3.85c0,1.82.95,3.05,4.58,3.64l8,1.38c8.36,1.45,11.42,5.31,11.42,11.27s-5.16,11.85-16.87,11.85-16.58-4.73-18.03-11.85ZM71.96,221.26l4.07,6.76,4.14-6.76h8.43l-6.69,11.34h-11.78l-6.62-11.34h8.43Z"/>
    <path class="cls-4" d="M109.05,272.23v17.74h-10.76v-51.26h9.67v5.89c2.54-4.36,6.76-6.76,12.51-6.76,8.87,0,16.65,6.83,16.65,19.7s-8.22,19.63-17.09,19.63c-4.65,0-8.36-1.67-10.98-4.94ZM117.55,268.66c5.09,0,8.65-4.36,8.65-11.12s-3.49-11.2-8.65-11.2-8.51,4.51-8.51,11.2,3.49,11.12,8.51,11.12Z"/>
    <path class="cls-4" d="M165.91,271.57c-2.84,3.78-6.91,5.6-11.85,5.6-8.29,0-13.67-4.8-13.67-11.27s3.71-10.76,13.52-11.71l10.91-1.09v-1.89c0-3.85-2.33-5.82-6.18-5.82s-6.04,1.6-6.76,4.87h-10.83c1.09-8.07,7.12-12.43,17.52-12.43s16.94,4.36,16.94,14.11v24.36h-9.6v-4.73ZM156.96,270.26c5.16,0,7.71-3.56,7.71-8.58v-2.47l-8.14,1.09c-3.56.51-5.38,2.4-5.38,5.09s2.18,4.87,5.82,4.87Z"/>
    <path class="cls-4" d="M200.67,267.72c1.24,0,2.18-.07,2.98-.22v8.65c-2.04.51-3.13.58-5.74.58-9.16,0-12.94-5.09-12.94-13.74v-15.49h-5.74v-8.8h5.74v-10.62h10.83v10.62h7.85v8.8h-7.85v15.12c0,3.42,1.53,5.09,4.87,5.09Z"/>
    <path class="cls-4" d="M226.41,246.78c-4,0-7.12,2.76-7.12,8.07v21.45h-10.76v-37.59h9.67v5.31c2.47-4.22,6.69-6.18,12-6.18,7.78,0,13.81,4.36,13.81,14.54v23.92h-10.76v-21.38c0-5.82-2.69-8.14-6.83-8.14Z"/>
    <path class="cls-4" d="M274.32,271.57c-2.84,3.78-6.91,5.6-11.85,5.6-8.29,0-13.67-4.8-13.67-11.27s3.71-10.76,13.52-11.71l10.91-1.09v-1.89c0-3.85-2.33-5.82-6.18-5.82s-6.04,1.6-6.76,4.87h-10.83c1.09-8.07,7.12-12.43,17.52-12.43s16.94,4.36,16.94,14.11v24.36h-9.6v-4.73ZM265.38,270.26c5.16,0,7.71-3.56,7.71-8.58v-2.47l-8.14,1.09c-3.56.51-5.38,2.4-5.38,5.09s2.18,4.87,5.82,4.87ZM269.53,221.26h12.51l-9.6,11.34h-10.62l7.71-11.34Z"/>
    <path class="cls-4" d="M316.21,272.23v17.74h-10.76v-51.26h9.67v5.89c2.54-4.36,6.76-6.76,12.51-6.76,8.87,0,16.65,6.83,16.65,19.7s-8.22,19.63-17.09,19.63c-4.65,0-8.36-1.67-10.98-4.94ZM324.71,268.66c5.09,0,8.65-4.36,8.65-11.12s-3.49-11.2-8.65-11.2-8.51,4.51-8.51,11.2,3.49,11.12,8.51,11.12Z"/>
    <path class="cls-4" d="M373.07,271.57c-2.84,3.78-6.91,5.6-11.85,5.6-8.29,0-13.67-4.8-13.67-11.27s3.71-10.76,13.52-11.71l10.91-1.09v-1.89c0-3.85-2.33-5.82-6.18-5.82s-6.04,1.6-6.76,4.87h-10.83c1.09-8.07,7.12-12.43,17.52-12.43s16.94,4.36,16.94,14.11v24.36h-9.6v-4.73ZM364.13,270.26c5.16,0,7.71-3.56,7.71-8.58v-2.47l-8.14,1.09c-3.56.51-5.38,2.4-5.38,5.09s2.18,4.87,5.82,4.87Z"/>
    <path class="cls-4" d="M430.15,247.07c-3.85,0-6.62,2.54-6.62,7.56v21.67h-10.83v-21.38c0-5.45-2.54-7.85-6.33-7.85s-6.62,2.4-6.62,7.56v21.67h-10.76v-37.59h9.67v5.31c2.47-4.14,6.62-6.18,11.56-6.18,5.38,0,9.53,2.47,11.71,6.83,2.54-4.58,6.83-6.83,12-6.83,8.07,0,13.31,5.45,13.31,14.76v23.7h-10.76v-21.38c0-5.45-2.54-7.85-6.33-7.85Z"/>
    <path class="cls-4" d="M451.75,257.76c0-11.78,7.56-19.92,18.98-19.92s18.9,8.29,18.69,20.29c0,1.16-.07,2.25-.07,2.25h-26.9c.65,6.47,3.93,8.87,8.65,8.87,3.63,0,5.74-1.53,6.76-3.93h10.69c-1.75,6.76-8.07,11.85-17.74,11.85-12.14,0-19.05-8.07-19.05-19.41ZM466.65,221.26l4.07,6.76,4.14-6.76h8.43l-6.69,11.34h-11.78l-6.62-11.34h8.43ZM478.43,253.76c-.44-4.87-3.13-8-7.71-8-4.14,0-7.12,2.62-8.14,8h15.85Z"/>
    <path class="cls-4" d="M513.12,267.72c1.24,0,2.18-.07,2.98-.22v8.65c-2.04.51-3.13.58-5.74.58-9.16,0-12.94-5.09-12.94-13.74v-15.49h-5.74v-8.8h5.74v-10.62h10.83v10.62h7.85v8.8h-7.85v15.12c0,3.42,1.53,5.09,4.87,5.09ZM517.63,223.22h11.05l-4,15.49h-7.85l.8-15.49Z"/>
  </g>
  <g>
    <path class="cls-4" d="M196.69,430.98c0-12.65,7.63-19.7,16.58-19.7,5.24,0,9.23,1.96,11.78,5.6v-19.49h9.6v52.35h-8.65v-6.33c-2.4,4.73-6.62,7.2-12.36,7.2-8.94,0-16.94-7.2-16.94-19.63ZM215.74,442.9c5.45,0,9.31-4.58,9.31-11.92s-3.93-12-9.31-12c-5.67,0-9.38,4.73-9.38,12s3.93,11.92,9.38,11.92Z"/>
    <path class="cls-4" d="M265.19,444.94c-2.91,3.85-6.91,5.67-12,5.67-8,0-13.52-4.73-13.52-11.27s3.93-10.69,13.31-11.63l11.34-1.16v-2.04c0-4.22-2.62-6.25-6.76-6.25-4.36,0-6.76,1.75-7.49,5.45h-9.6c1.02-8.14,7.05-12.43,16.94-12.43s16.43,4.29,16.43,13.81v24.65h-8.65v-4.8ZM257.41,390.55c4.94,0,9.02,3.93,9.02,8.94s-4.07,8.87-9.02,8.87-9.02-4-9.02-8.87,4.14-8.94,9.02-8.94ZM255.74,444.14c5.53,0,8.51-3.71,8.51-9.09v-2.76l-9.02,1.16c-4,.51-5.82,2.62-5.82,5.45s2.33,5.24,6.33,5.24ZM257.41,402.84c1.89,0,3.42-1.31,3.42-3.34s-1.53-3.42-3.42-3.42-3.34,1.38-3.34,3.42,1.38,3.34,3.34,3.34Z"/>
    <path class="cls-4" d="M289.04,418.47c1.89-4.36,5.45-6.69,9.74-6.69.8,0,1.67.07,2.47.29v8.43c-.58-.07-1.45-.15-2.33-.15-5.96,0-8.94,2.84-8.94,8.87v20.5h-9.6v-37.59h8.65v6.33Z"/>
    <path class="cls-4" d="M315,449.74h-9.6v-52.35h9.6v52.35Z"/>
    <path class="cls-4" d="M327,395.43c3.34,0,5.67,2.54,5.67,5.67s-2.33,5.67-5.67,5.67-5.82-2.62-5.82-5.67,2.33-5.67,5.82-5.67ZM322.05,412.15h9.6v37.59h-9.6v-37.59Z"/>
    <path class="cls-4" d="M356.01,457.3c5.82,0,9.09-3.13,9.09-9.09v-5.96c-2.62,4-6.47,5.74-11.56,5.74-9.23,0-16.8-7.05-16.8-18.4s7.49-18.32,16.8-18.32c5.38,0,9.67,2.25,12.29,6.4v-5.53h8.8v35.7c0,9.02-5.31,16.43-18.61,16.43s-17.89-5.74-18.69-13.31h10.11c.36,3.85,2.62,6.33,8.58,6.33ZM355.72,440.36c5.38,0,9.38-4.44,9.38-10.76s-4.07-10.69-9.38-10.69-9.31,4.22-9.31,10.69,4.07,10.76,9.31,10.76Z"/>
    <path class="cls-4" d="M413.82,419.35c-4.36,0-7.71,3.05-7.71,8.8v21.59h-9.6v-52.35h9.6v19.78c2.18-3.78,5.82-5.89,10.69-5.89,8,0,14.03,5.09,14.03,14.83v23.63h-9.6v-21.74c0-5.82-3.2-8.65-7.42-8.65Z"/>
    <path class="cls-4" d="M453.16,442.61c4.73,0,7.85-3.34,7.85-8.51v-21.96h9.6v37.59h-8.58v-5.67c-2.54,4.29-6.62,6.54-11.71,6.54-8.43,0-13.31-4.87-13.31-13.81v-24.65h9.6v23.34c0,4.51,2.33,7.13,6.54,7.13Z"/>
    <path class="cls-4" d="M487.11,431.2v18.54h-9.6v-52.35h9.6v29.08l14.54-14.32h10.62l-16.36,16.5,17.09,21.08h-10.98l-14.91-18.54Z"/>
    <path class="cls-4" d="M513.66,430.98c0-12.07,8.14-19.7,19.12-19.7s19.05,7.63,19.05,19.7-8.14,19.63-19.05,19.63-19.12-7.56-19.12-19.63ZM532.71,442.83c5.6,0,9.38-4.58,9.38-11.85s-3.78-11.92-9.38-11.92-9.38,4.65-9.38,11.92,3.78,11.85,9.38,11.85Z"/>
    <path class="cls-4" d="M597.64,419.56c-4.14,0-7.42,2.76-7.42,8.14v22.03h-9.6v-21.59c0-5.89-2.91-8.58-6.98-8.58s-7.34,2.69-7.34,8.14v22.03h-9.6v-37.59h8.65v5.23c2.4-4.07,6.47-6.11,11.49-6.11,5.38,0,9.52,2.47,11.71,6.91,2.54-4.58,6.83-6.91,12.14-6.91,8.22,0,13.52,5.53,13.52,14.91v23.56h-9.6v-21.59c0-5.89-2.91-8.58-6.98-8.58Z"/>
    <path class="cls-4" d="M661.7,419.56c-4.14,0-7.42,2.76-7.42,8.14v22.03h-9.6v-21.59c0-5.89-2.91-8.58-6.98-8.58s-7.34,2.69-7.34,8.14v22.03h-9.6v-37.59h8.65v5.23c2.4-4.07,6.47-6.11,11.49-6.11,5.38,0,9.52,2.47,11.71,6.91,2.54-4.58,6.83-6.91,12.14-6.91,8.22,0,13.52,5.53,13.52,14.91v23.56h-9.6v-21.59c0-5.89-2.91-8.58-6.98-8.58Z"/>
    <path class="cls-4" d="M682.79,431.2c0-11.92,7.63-19.92,18.61-19.92,11.78,0,18.47,8.14,18.25,20.21,0,1.16-.07,2.18-.07,2.18h-27.19c.65,6.83,4.29,9.67,9.38,9.67,4.14,0,6.47-1.82,7.56-4.58h9.52c-1.67,6.69-7.63,11.85-17.16,11.85-12,0-18.9-8-18.9-19.41ZM709.91,427.42c-.51-5.67-3.56-8.87-8.43-8.87-4.58,0-8,2.91-8.94,8.87h17.38Z"/>
    <path class="cls-4" d="M734.27,449.74h-9.6v-52.35h9.6v52.35Z"/>
    <path class="cls-4" d="M739.07,438.76h9.38c.8,3.34,3.42,5.09,8,5.09s6.98-1.75,6.98-4.29c0-2.18-1.31-3.71-4.73-4.29l-8.07-1.53c-7.63-1.45-10.83-5.02-10.83-10.76,0-6.25,5.38-11.71,15.63-11.71s15.71,4.87,16.94,12.43h-9.45c-.58-3.78-3.2-5.67-7.56-5.67s-6.54,1.96-6.54,4.36c0,2.04,1.09,3.42,5.02,4.07l7.93,1.38c8.22,1.38,11.2,5.23,11.2,11.05,0,6.25-4.94,11.71-16.43,11.71s-16.07-4.8-17.45-11.85Z"/>
    <path class="cls-4" d="M775.79,431.2c0-11.92,7.63-19.92,18.61-19.92,11.78,0,18.47,8.14,18.25,20.21,0,1.16-.07,2.18-.07,2.18h-27.19c.65,6.83,4.29,9.67,9.38,9.67,4.14,0,6.47-1.82,7.56-4.58h9.52c-1.67,6.69-7.63,11.85-17.16,11.85-12,0-18.9-8-18.9-19.41ZM802.91,427.42c-.51-5.67-3.56-8.87-8.43-8.87-4.58,0-8,2.91-8.94,8.87h17.38Z"/>
  </g>
  <g>
    <path class="cls-4" d="M978.69,448.87h-7.56v-42.9l-15.56,42.9h-5.45l-15.71-42.9v42.9h-7.56v-49.37h12.07l13.89,38.1,13.89-38.1h12v49.37Z"/>
    <path class="cls-4" d="M1012.22,443.78c-2.98,4.07-7.05,5.96-12.29,5.96-7.56,0-13.23-4.65-13.23-11.2s4.14-10.54,12.8-11.49l12.21-1.24v-2.47c0-5.02-3.27-7.27-8.14-7.27s-8.07,2.04-8.8,6.76h-7.2c1.02-8.22,6.91-12.43,16-12.43s15.27,4.07,15.27,13.31v25.16h-6.62v-5.09ZM1001.53,444.22c6.4,0,10.03-4,10.03-10.11v-3.42l-10.54,1.31c-4.94.58-6.83,2.98-6.83,6.25s2.76,5.96,7.34,5.96ZM1007.49,393.83h8.14l-8.72,11.34h-6.98l7.56-11.34Z"/>
    <path class="cls-4" d="M1084.06,416.81c-4.8,0-8.87,3.27-8.87,9.38v22.68h-7.2v-22.03c0-6.69-3.63-10.03-8.43-10.03s-8.8,3.2-8.8,9.38v22.68h-7.27v-37.59h6.76v5.02c2.4-3.78,6.33-5.89,11.34-5.89,5.31,0,9.53,2.47,11.78,6.83,2.54-4.36,6.91-6.83,12.43-6.83,8.29,0,13.89,5.6,13.89,15.34v23.12h-7.27v-22.03c0-6.69-3.56-10.03-8.36-10.03Z"/>
    <path class="cls-4" d="M1106.02,430.4c0-12.29,7.63-20,17.89-20,11.42,0,17.52,7.78,17.45,20.07,0,1.24-.07,1.96-.07,1.96h-27.99c.65,7.78,5.09,11.34,10.91,11.34,5.09,0,8-2.4,9.09-5.89h7.34c-1.53,6.54-6.91,11.85-16.21,11.85-11.63,0-18.4-7.78-18.4-19.34ZM1133.87,426.99c-.51-7.27-4.29-10.69-9.89-10.69s-9.52,3.56-10.54,10.69h20.43Z"/>
    <path class="cls-4" d="M1188.62,416.81c-4.8,0-8.87,3.27-8.87,9.38v22.68h-7.2v-22.03c0-6.69-3.63-10.03-8.43-10.03s-8.8,3.2-8.8,9.38v22.68h-7.27v-37.59h6.76v5.02c2.4-3.78,6.33-5.89,11.34-5.89,5.31,0,9.53,2.47,11.78,6.83,2.54-4.36,6.91-6.83,12.43-6.83,8.29,0,13.89,5.6,13.89,15.34v23.12h-7.27v-22.03c0-6.69-3.56-10.03-8.36-10.03Z"/>
    <path class="cls-4" d="M1210.59,430.18c0-11.92,7.34-19.78,18.18-19.78s18.18,7.78,18.18,19.7-7.27,19.63-18.1,19.63-18.25-7.71-18.25-19.56ZM1228.84,443.63c6.62,0,10.83-5.6,10.83-13.52s-4.14-13.6-10.91-13.6-10.91,5.67-10.91,13.67,4.22,13.45,10.98,13.45ZM1232.04,393.83h8.14l-8.72,11.34h-6.98l7.56-11.34Z"/>
    <path class="cls-4" d="M1260.47,416.88c1.6-3.78,4.8-6.04,9.16-6.04.73,0,1.75.07,2.62.29v6.54c-.58-.07-1.31-.07-2.11-.07-6.18,0-9.16,2.84-9.16,8.87v22.39h-7.27v-37.59h6.76v5.6Z"/>
    <path class="cls-4" d="M1281.41,395.72c2.62,0,4.73,2.04,4.73,4.65s-2.11,4.73-4.73,4.73c-2.76,0-4.87-2.11-4.87-4.73s2.11-4.65,4.87-4.65ZM1277.77,411.28h7.12v37.59h-7.12v-37.59Z"/>
    <path class="cls-4" d="M1317.47,443.78c-2.98,4.07-7.05,5.96-12.29,5.96-7.56,0-13.23-4.65-13.23-11.2s4.14-10.54,12.8-11.49l12.21-1.24v-2.47c0-5.02-3.27-7.27-8.14-7.27s-8.07,2.04-8.8,6.76h-7.2c1.02-8.22,6.91-12.43,16-12.43s15.27,4.07,15.27,13.31v25.16h-6.62v-5.09ZM1306.78,444.22c6.4,0,10.03-4,10.03-10.11v-3.42l-10.54,1.31c-4.94.58-6.83,2.98-6.83,6.25s2.76,5.96,7.34,5.96Z"/>
  </g>
  <g>
    <path class="cls-4" d="M471.48,505.47l-18.76,22.18h18.98v7.92h-31.26v-7.56l18.76-22.1h-18.03v-7.92h30.32v7.49Z"/>
    <path class="cls-4" d="M490.24,503.73l4.58-2.76,2.76,4.29-7.34,4.44v25.88h-9.6v-20.07l-3.49,2.11-2.76-4.29,6.25-3.78v-26.32h9.6v20.5Z"/>
    <path class="cls-4" d="M525.43,530.77c-2.91,3.85-6.91,5.67-12,5.67-8,0-13.52-4.73-13.52-11.27s3.93-10.69,13.31-11.63l11.34-1.16v-2.04c0-4.22-2.62-6.25-6.76-6.25-4.36,0-6.76,1.75-7.49,5.45h-9.6c1.02-8.14,7.05-12.43,16.94-12.43s16.43,4.29,16.43,13.81v24.65h-8.65v-4.8ZM515.98,529.97c5.53,0,8.51-3.71,8.51-9.09v-2.76l-9.02,1.16c-4,.51-5.82,2.62-5.82,5.45s2.33,5.24,6.33,5.24Z"/>
    <path class="cls-4" d="M566.23,530.99v18.25h-9.6v-51.26h8.65v6.11c2.54-4.44,6.76-6.98,12.72-6.98,8.94,0,16.58,7.05,16.58,19.7s-8.07,19.63-17.01,19.63c-4.94,0-8.73-1.96-11.34-5.45ZM575.46,528.74c5.53,0,9.38-4.65,9.38-11.92s-3.71-12-9.38-12c-5.38,0-9.23,4.87-9.23,12s3.85,11.92,9.23,11.92Z"/>
    <path class="cls-4" d="M623.67,530.77c-2.91,3.85-6.91,5.67-12,5.67-8,0-13.52-4.73-13.52-11.27s3.93-10.69,13.31-11.63l11.34-1.16v-2.04c0-4.22-2.62-6.25-6.76-6.25-4.36,0-6.76,1.75-7.49,5.45h-9.6c1.02-8.14,7.05-12.43,16.94-12.43s16.43,4.29,16.43,13.81v24.65h-8.65v-4.8ZM614.22,529.97c5.53,0,8.51-3.71,8.51-9.09v-2.76l-9.02,1.16c-4,.51-5.82,2.62-5.82,5.45s2.33,5.24,6.33,5.24Z"/>
    <path class="cls-4" d="M680.31,505.4c-4.14,0-7.42,2.76-7.42,8.14v22.03h-9.6v-21.59c0-5.89-2.91-8.58-6.98-8.58s-7.34,2.69-7.34,8.14v22.03h-9.6v-37.59h8.65v5.23c2.4-4.07,6.47-6.11,11.49-6.11,5.38,0,9.52,2.47,11.71,6.91,2.54-4.58,6.83-6.91,12.14-6.91,8.22,0,13.52,5.53,13.52,14.91v23.56h-9.6v-21.59c0-5.89-2.91-8.58-6.98-8.58Z"/>
    <path class="cls-4" d="M708.96,481.26c3.34,0,5.67,2.54,5.67,5.67s-2.33,5.67-5.67,5.67-5.82-2.62-5.82-5.67,2.33-5.67,5.82-5.67ZM704.02,497.98h9.6v37.59h-9.6v-37.59Z"/>
    <path class="cls-4" d="M731.29,543.28c0-2.4,1.02-4.65,4.51-6.91-10.62-1.02-16.65-8.65-16.65-19.34,0-11.92,7.63-19.92,18.61-19.92,11.78,0,18.47,8.14,18.25,20.21,0,1.16-.07,2.18-.07,2.18h-27.19c.65,6.83,4.29,9.67,9.38,9.67,4.14,0,6.47-1.82,7.56-4.58h9.52c-1.31,5.23-5.23,9.52-11.42,11.12-4,2.18-5.45,4.14-5.45,5.82s1.09,2.62,3.34,2.62c.95,0,1.75-.07,2.4-.29v4.43c-1.31.51-2.47.8-4.44.8-5.02,0-8.36-2.33-8.36-5.82ZM746.26,513.25c-.51-5.67-3.56-8.87-8.43-8.87-4.58,0-8,2.91-8.94,8.87h17.38Z"/>
    <path class="cls-4" d="M759.43,516.74c0-12.21,7.93-19.63,18.76-19.63s16.36,5.89,17.6,14.11h-9.74c-.87-4.22-3.42-6.33-7.92-6.33-5.45,0-8.94,4.36-8.94,11.78s3.34,12,9.02,12c4.58,0,6.91-2.18,7.85-6.33h9.67c-1.24,8.36-7.27,14.1-17.52,14.1-10.83,0-18.76-7.42-18.76-19.7ZM780.3,480.53h11.05l-9.31,11.34h-9.38l7.63-11.34Z"/>
  </g>
  <g>
    <path class="cls-4" d="M952.52,511.36c0,15.05-9.23,24.65-23.92,24.65h-21.74v-49.37h21.74c14.69,0,23.92,9.6,23.92,24.72ZM927.22,526.05c8.51,0,12.94-4.73,12.94-14.61s-4.43-14.83-12.94-14.83h-8v29.45h8Z"/>
    <path class="cls-4" d="M981.68,531.43c-2.76,3.71-6.83,5.45-11.71,5.45-8.51,0-13.81-4.87-13.81-11.27s3.56-10.83,13.74-11.85l10.54-1.02v-1.67c0-3.42-2.04-5.31-5.53-5.31s-5.38,1.46-6.11,4.22h-12c1.09-8,7.12-12.43,17.96-12.43s17.52,4.44,17.52,14.32v24.14h-10.62v-4.58ZM974.92,475.81c5.31,0,9.74,4.22,9.74,9.67s-4.44,9.52-9.74,9.52-9.82-4.29-9.82-9.52,4.51-9.67,9.82-9.67ZM973.32,529.47c4.8,0,6.98-3.34,6.98-8.07v-2.11l-7.34,1.02c-3.13.44-4.87,2.25-4.87,4.65,0,2.54,1.89,4.51,5.23,4.51ZM974.92,488.75c1.82,0,3.34-1.31,3.34-3.27s-1.53-3.42-3.34-3.42-3.34,1.38-3.34,3.42,1.38,3.27,3.34,3.27Z"/>
    <path class="cls-4" d="M1009.89,536.01h-12v-52.35h12v52.35Z"/>
    <path class="cls-4" d="M1022.04,480.61c4,0,6.69,2.91,6.69,6.54s-2.69,6.62-6.69,6.62-6.76-2.98-6.76-6.62,2.62-6.54,6.76-6.54ZM1015.93,498.42h12v37.59h-12v-37.59Z"/>
    <path class="cls-4" d="M1052.43,542.34c4.94,0,7.56-2.76,7.56-8.07v-4.87c-2.54,3.63-6.04,4.87-10.83,4.87-9.23,0-16.94-7.05-16.94-18.47s7.71-18.25,17.16-18.25c5.02,0,9.16,2.11,11.78,6.04v-5.16h10.83v35.55c0,8.94-5.45,16.58-19.49,16.58s-18.54-5.67-19.56-13.31h12.65c.29,2.98,1.67,5.09,6.83,5.09ZM1052.21,525.03c4.29,0,7.78-3.78,7.78-9.31s-3.42-8.94-7.78-8.94-7.78,3.56-7.78,9.02,3.42,9.23,7.78,9.23Z"/>
    <path class="cls-4" d="M1098.09,526.56c1.24,0,2.18-.07,2.98-.22v9.52c-2.25.51-3.27.58-6.11.58-9.89,0-13.67-5.45-13.67-14.47v-13.89h-5.6v-9.67h5.6v-10.62h12v10.62h7.78v9.67h-7.78v13.52c0,3.27,1.45,4.94,4.8,4.94Z"/>
    <path class="cls-4" d="M1161.94,507.73c-3.56,0-5.89,2.33-5.89,6.98v21.3h-12v-21.16c0-5.02-2.18-7.12-5.6-7.12s-5.89,2.18-5.89,6.98v21.3h-12v-37.59h10.62v5.45c2.54-4.36,6.76-6.33,11.71-6.33,5.45,0,9.52,2.47,11.63,6.83,2.54-4.65,6.83-6.83,11.85-6.83,8.07,0,13.16,5.45,13.16,14.54v23.92h-12v-21.16c0-5.02-2.18-7.12-5.6-7.12Z"/>
    <path class="cls-4" d="M1191.39,480.61c4,0,6.69,2.91,6.69,6.54s-2.69,6.62-6.69,6.62-6.76-2.98-6.76-6.62,2.62-6.54,6.76-6.54ZM1185.28,498.42h12v37.59h-12v-37.59Z"/>
    <path class="cls-4" d="M1221.78,507.36c-3.64,0-6.47,2.47-6.47,7.27v21.38h-12v-37.59h10.62v5.38c2.54-4.29,6.91-6.25,12.21-6.25,7.71,0,13.89,4.14,13.89,14.32v24.14h-12v-21.23c0-5.38-2.54-7.42-6.25-7.42Z"/>
    <path class="cls-4" d="M1264.17,507.36c-3.64,0-6.47,2.47-6.47,7.27v21.38h-12v-37.59h10.62v5.38c2.54-4.29,6.91-6.25,12.21-6.25,7.71,0,13.89,4.14,13.89,14.32v24.14h-12v-21.23c0-5.38-2.54-7.42-6.25-7.42Z"/>
    <path class="cls-4" d="M1286.28,517.4c0-11.56,7.56-19.85,19.34-19.85s19.41,8.51,19.12,20.36c0,1.16-.07,2.4-.07,2.4h-26.54c.65,5.96,3.56,8,7.92,8,3.2,0,5.02-1.24,5.96-3.27h11.78c-1.82,6.83-8.36,11.85-18.18,11.85-12.36,0-19.34-8.22-19.34-19.49ZM1312.6,513.25c-.44-4.07-2.69-7.05-6.91-7.05-3.78,0-6.4,2.33-7.34,7.05h14.25Z"/>
  </g>
  <g>
    <path class="cls-4" d="M797.33,668.29c-3.27,0-5.38,1.89-5.38,6.91v21.16h-14.4v-52.35h14.4v18.32c2.4-2.98,5.89-4.44,9.89-4.44,8,0,14.32,4.22,14.32,13.96v24.5h-14.4v-22.98c0-3.27-1.6-5.09-4.44-5.09Z"/>
    <path class="cls-4" d="M844.95,691.77c-2.83,3.42-6.83,5.45-11.63,5.45-8.51,0-13.45-4.87-13.45-11.2,0-6.83,5.09-11.05,14.32-11.92l9.45-.87v-2.33c0-2.69-1.6-4.29-4.43-4.29-2.98,0-4.58,1.38-5.02,3.71h-13.74c.73-7.34,6.62-12.43,18.69-12.43,13.67,0,18.54,6.11,18.54,14.4v24.07h-12.72v-4.58ZM838.12,689.01c3.27,0,5.24-2.25,5.24-5.16v-4l-4.29.58c-3.64.51-5.53,2.11-5.53,4.65s1.82,3.93,4.58,3.93Z"/>
    <path class="cls-4" d="M877.02,696.35h-14.4v-52.35h14.4v52.35Z"/>
    <path class="cls-4" d="M895.93,689.96v6.4h-13.52v-52.35h14.4v19.19c2.33-3.85,5.96-5.31,10.62-5.31,8.07,0,16.14,6.83,16.14,19.7s-8.07,19.63-16.14,19.63c-5.6,0-9.38-2.33-11.49-7.27ZM902.91,686.9c3.56,0,6.25-2.62,6.25-9.38s-2.62-9.31-6.18-9.31-6.18,2.62-6.18,9.31,2.54,9.38,6.11,9.38Z"/>
    <path class="cls-4" d="M986.09,668.29c-3.27,0-5.38,1.89-5.38,6.91v21.16h-14.4v-22.98c0-3.27-1.6-5.09-4.14-5.09-3.27,0-5.38,1.89-5.38,6.91v21.16h-14.4v-37.59h12.8v5.74c2.33-4.36,6.25-6.62,11.2-6.62,5.53,0,10.18,1.96,12.58,6.4,2.4-4.22,6.4-6.4,11.34-6.4,8,0,14.32,4.22,14.32,13.96v24.5h-14.4v-22.98c0-3.27-1.6-5.09-4.14-5.09Z"/>
    <path class="cls-4" d="M1033.43,691.77c-2.83,3.42-6.83,5.45-11.63,5.45-8.51,0-13.45-4.87-13.45-11.2,0-6.83,5.09-11.05,14.32-11.92l9.45-.87v-2.33c0-2.69-1.6-4.29-4.43-4.29-2.98,0-4.58,1.38-5.02,3.71h-13.74c.73-7.34,6.62-12.43,18.69-12.43,13.67,0,18.54,6.11,18.54,14.4v24.07h-12.72v-4.58ZM1019.54,641.31c4.14,0,6.76,2.69,6.76,6.25,0,3.78-2.69,6.47-6.76,6.47s-6.76-2.76-6.76-6.47,2.54-6.25,6.76-6.25ZM1026.59,689.01c3.27,0,5.24-2.25,5.24-5.16v-4l-4.29.58c-3.64.51-5.53,2.11-5.53,4.65s1.82,3.93,4.58,3.93ZM1035.68,641.31c4.07,0,6.69,2.69,6.69,6.25s-2.62,6.47-6.69,6.47c-4.29,0-6.83-2.76-6.83-6.47s2.54-6.25,6.83-6.25Z"/>
    <path class="cls-4" d="M1065.49,696.35h-14.4v-52.35h14.4v52.35Z"/>
    <path class="cls-4" d="M1088.98,687.41c2.98,0,4.94-2.62,4.94-6.62v-22.03h14.4v37.59h-12.8v-5.53c-2.54,4.36-6.47,6.4-11.56,6.4-8.22,0-13.52-4.22-13.52-13.96v-24.5h14.4v24.28c0,2.62,1.31,4.36,4.14,4.36Z"/>
  </g>
  <g>
    <path class="cls-4" d="M167.25,665.45c2.11-5.09,6.03-7.05,10.32-7.05,1.16,0,1.75.15,2.4.36v11.56c-1.24-.07-2.18-.15-3.49-.15-4.65,0-7.34,2.91-7.34,7.34v18.83h-14.4v-37.59h12.51v6.69Z"/>
    <path class="cls-4" d="M182.3,677.6c0-13.16,8.8-19.7,20.43-19.7s20.58,6.54,20.58,19.7-9.09,19.63-20.58,19.63-20.43-6.54-20.43-19.63ZM202.88,687.12c3.78,0,6.18-2.98,6.18-9.52s-2.4-9.6-6.18-9.6-6.18,2.91-6.18,9.6,2.4,9.52,6.18,9.52Z"/>
    <path class="cls-4" d="M225.5,685.38h13.09c.51,2.25,2.33,3.49,5.82,3.49s4.87-1.24,4.87-3.05c0-1.31-.8-2.62-2.98-2.98l-9.52-1.45c-7.27-1.09-10.83-5.02-10.83-11.05,0-6.83,6.18-12.43,17.3-12.43,10.54,0,17.52,3.49,18.83,12.43h-13.09c-.44-2.54-2.18-3.93-5.45-3.93s-4.73,1.31-4.73,2.98c0,1.45,1.02,2.54,3.34,2.91l10.25,1.45c7.56,1.09,10.47,5.24,10.47,10.69,0,7.71-6.4,12.8-18.69,12.8-11.56,0-17.59-4.22-18.69-11.85Z"/>
    <path class="cls-4" d="M264.83,685.38h13.09c.51,2.25,2.33,3.49,5.82,3.49s4.87-1.24,4.87-3.05c0-1.31-.8-2.62-2.98-2.98l-9.52-1.45c-7.27-1.09-10.83-5.02-10.83-11.05,0-6.83,6.18-12.43,17.3-12.43,10.54,0,17.52,3.49,18.83,12.43h-13.09c-.44-2.54-2.18-3.93-5.45-3.93s-4.73,1.31-4.73,2.98c0,1.45,1.02,2.54,3.34,2.91l10.25,1.45c7.56,1.09,10.47,5.24,10.47,10.69,0,7.71-6.4,12.8-18.69,12.8-11.56,0-17.59-4.22-18.69-11.85Z"/>
    <path class="cls-4" d="M337.76,668.07l-16.36,18.61h16.65v9.67h-33.23v-9.31l16.72-18.61h-16v-9.67h32.21v9.31Z"/>
    <path class="cls-4" d="M400.95,668.29c-3.27,0-5.38,1.89-5.38,6.91v21.16h-14.4v-22.98c0-3.27-1.6-5.09-4.14-5.09-3.27,0-5.38,1.89-5.38,6.91v21.16h-14.4v-37.59h12.8v5.74c2.33-4.36,6.25-6.62,11.2-6.62,5.53,0,10.18,1.96,12.58,6.4,2.4-4.22,6.4-6.4,11.34-6.4,8,0,14.32,4.22,14.32,13.96v24.5h-14.4v-22.98c0-3.27-1.6-5.09-4.14-5.09Z"/>
    <path class="cls-4" d="M423.13,677.45c0-10.91,7.05-19.56,20.14-19.56s19.63,9.09,19.63,19.56c0,1.09,0,1.82-.15,3.2h-25.45c.51,5.74,2.54,7.93,6.18,7.93,2.83,0,4-.87,4.94-3.2h13.16c-1.89,7.2-8.22,11.85-18.32,11.85-12.72,0-20.14-8.07-20.14-19.78ZM448.72,673.89c-.07-4.8-1.89-7.34-5.45-7.34-2.98,0-5.23,1.96-5.89,7.34h11.34Z"/>
    <path class="cls-4" d="M510.6,668.29c-3.27,0-5.38,1.89-5.38,6.91v21.16h-14.4v-22.98c0-3.27-1.6-5.09-4.14-5.09-3.27,0-5.38,1.89-5.38,6.91v21.16h-14.4v-37.59h12.8v5.74c2.33-4.36,6.25-6.62,11.2-6.62,5.53,0,10.18,1.96,12.58,6.4,2.4-4.22,6.4-6.4,11.34-6.4,8,0,14.32,4.22,14.32,13.96v24.5h-14.4v-22.98c0-3.27-1.6-5.09-4.14-5.09Z"/>
    <path class="cls-4" d="M532.79,677.6c0-13.16,8.8-19.7,20.43-19.7s20.58,6.54,20.58,19.7-9.09,19.63-20.58,19.63-20.43-6.54-20.43-19.63ZM553.87,641.32h15.34l-9.89,11.34h-13.23l7.78-11.34ZM553.36,687.12c3.78,0,6.18-2.98,6.18-9.52s-2.4-9.6-6.18-9.6-6.18,2.91-6.18,9.6,2.4,9.52,6.18,9.52Z"/>
    <path class="cls-4" d="M590.23,665.45c2.11-5.09,6.03-7.05,10.32-7.05,1.16,0,1.75.15,2.4.36v11.56c-1.24-.07-2.18-.15-3.49-.15-4.65,0-7.34,2.91-7.34,7.34v18.83h-14.4v-37.59h12.51v6.69Z"/>
    <path class="cls-4" d="M614.01,639.5c4.51,0,7.71,3.56,7.71,7.2s-3.2,7.34-7.71,7.34-7.71-3.71-7.71-7.34,2.98-7.2,7.71-7.2ZM606.74,658.77h14.4v37.59h-14.4v-37.59Z"/>
    <path class="cls-4" d="M650.21,691.77c-2.83,3.42-6.83,5.45-11.63,5.45-8.51,0-13.45-4.87-13.45-11.2,0-6.83,5.09-11.05,14.32-11.92l9.45-.87v-2.33c0-2.69-1.6-4.29-4.43-4.29-2.98,0-4.58,1.38-5.02,3.71h-13.74c.73-7.34,6.62-12.43,18.69-12.43,13.67,0,18.54,6.11,18.54,14.4v24.07h-12.72v-4.58ZM643.38,689.01c3.27,0,5.24-2.25,5.24-5.16v-4l-4.29.58c-3.64.51-5.53,2.11-5.53,4.65s1.82,3.93,4.58,3.93Z"/>
  </g>
  <path class="cls-4" d="M737.72,657.91l.29,32.57-1.89,1.82-.07-31.26-34.97,35.05-1.38-1.45,34.97-34.97-31.34-.15,1.89-1.89,32.5.29Z"/>
  <path class="cls-4" d="M1178.29,675.28l-24.21,21.89-24.21-21.89v-2.62l23.19,21.08v-47.55h2.04v47.55l23.19-21.08v2.62Z"/>
  <path class="cls-4" d="M1249.45,675.28l-24.21,21.89-24.21-21.89v-2.62l23.19,21.08v-47.55h2.04v47.55l23.19-21.08v2.62Z"/>
  <path class="cls-4" d="M1328.04,668.98c0,14.11-11.49,25.45-25.59,25.45s-25.45-11.34-25.45-25.45,11.34-25.59,25.45-25.59,25.59,11.49,25.59,25.59Z"/>
</svg>