<svg xmlns="http://www.w3.org/2000/svg" viewBox="0 0 1366 768"><defs><style>.cls-1{fill:#12100b;}.cls-2{fill:#fff;}.cls-3{fill:#666;}.cls-4{fill:#c1d11a;}</style></defs><g id="Layer_1" data-name="Layer 1"><rect class="cls-1" x="-40.27" y="-79.94" width="1446.07" height="930.38"/><path class="cls-2" d="M160.52,379c0,22.8-17.68,40.6-51.58,40.6-16.22,0-32.86-3.8-46.17-10.8L61.31,372H71.92c3.12,11.2,6,19.8,9.15,26.6,7.49,5.8,17.47,8.2,28.5,8.2,17.68,0,30.36-8.6,30.36-25,0-11-7.48-19.2-20.38-25L86.89,342c-16.22-7.4-25.37-18.2-25.37-36,0-22.4,19.13-37.2,44.72-37.2,13.1,0,23.5,2.6,32.44,7.8a24.32,24.32,0,0,0,1.25-7.8H152l.62,41.2H142a172,172,0,0,0-7.28-20.4c-8.11-6.2-16.43-8.2-26.41-8.2-16.85,0-26.62,6.6-26.62,19.2,0,9.4,6.65,15.6,14.55,19.4l36.4,17.8C149.71,346.2,160.52,359,160.52,379ZM86.89,408.6l-.83-1.2A3.94,3.94,0,0,1,86.89,408.6Z"/><path class="cls-2" d="M313.69,281.8l-15.18,1.8v83.8c-.21,33-19.55,52-54.29,52-35.15,0-59.69-15.2-59.9-52V283.6l-16-1.8v-10h52.63v10l-15.19,1.8v83.2c0,23.4,13.52,38,42.64,38,23.92,0,37.86-11.4,37.86-36.8V283.6l-16-1.8v-10h43.47Z"/><path class="cls-2" d="M460.46,407l-5.83,9.4c-35.36-14.2-57.82-37.8-72.59-64.8H361.45v53l17.47,1.8v10H324v-10l16-1.8v-121l-15.81-1.8v-10h65.1c35.15,0,56.16,14,56.16,39,0,21.2-16.85,34-38.48,38.6C418.86,373,435.08,390.6,460.46,407Zm-77.38-67.2c25,0,38.9-9.6,38.9-29,0-18.4-16.43-27-39.94-27-3.74,0-13.1,0-20.59-.2v56.2Z"/><path class="cls-2" d="M506.43,351.6v53l21.42,1.8v10H469v-10l16-1.8v-121l-15.8-1.8v-10h60.94c31.82,0,56.36,12,56.36,39,0,28.2-24.33,40.8-60.31,40.8Zm0-68v56.2h16.64c27.45,0,41.8-8.2,41.8-29,0-20-18.09-27.2-42-27.2Z"/><path class="cls-2" d="M709.62,382.4l-12.27,34H592.1v-10l15.81-1.8v-121l-16-1.8v-10h52.63v10l-15.19,1.8v121H664.9c17.26,0,28.29-9.4,36.19-25.8Z"/><path class="cls-2" d="M853.14,281.8,838,283.6v83.8c-.2,33-19.55,52-54.28,52-35.15,0-59.7-15.2-59.9-52V283.6l-16-1.8v-10h52.62v10l-15.18,1.8v83.2c0,23.4,13.52,38,42.64,38,23.92,0,37.85-11.4,37.85-36.8V283.6l-16-1.8v-10h43.47Z"/><path class="cls-2" d="M963.29,379c0,22.8-17.67,40.6-51.58,40.6-16.22,0-32.86-3.8-46.17-10.8L864.08,372h10.61c3.12,11.2,6,19.8,9.15,26.6,7.49,5.8,17.47,8.2,28.5,8.2,17.68,0,30.36-8.6,30.36-25,0-11-7.48-19.2-20.38-25L889.67,342c-16.23-7.4-25.38-18.2-25.38-36,0-22.4,19.14-37.2,44.72-37.2,13.1,0,23.5,2.6,32.45,7.8a24.59,24.59,0,0,0,1.24-7.8h12.07l.62,41.2H944.78a170.28,170.28,0,0,0-7.28-20.4c-8.11-6.2-16.43-8.2-26.41-8.2-16.85,0-26.62,6.6-26.62,19.2,0,9.4,6.65,15.6,14.56,19.4l36.39,17.8C952.48,346.2,963.29,359,963.29,379Zm-73.62,29.6-.84-1.2A4.17,4.17,0,0,1,889.67,408.6Z"/><path class="cls-2" d="M203.58,222.4v10H148.67v-10l16-1.8-13.31-32.2H89.81L77.74,220.6l17.68,1.8v10H50.08v-10l15.18-1.8L115.18,87.8h16.64L189,220.6ZM145.76,175l-27-64.2L94.8,175Z"/><path class="cls-2" d="M219.93,222.4a13.28,13.28,0,0,1,13.52-13.2c7.7,0,13.73,5.8,13.73,13.2,0,7.2-6,13-13.73,13A13.24,13.24,0,0,1,219.93,222.4Z"/><path class="cls-2" d="M393.38,191c0,27.4-22.67,41.4-59.28,41.4h-67v-10l15.39-1.8V99.6l-15.39-1.8v-10H323.7c26.83,0,60.73,6,60.73,34,0,21-18.3,28.6-29.32,31.8C376.32,158,393.38,169.6,393.38,191ZM303.73,99.8v50h22c20,0,34.74-8.2,34.74-25.6,0-17.6-15.19-24.4-34.32-24.4Zm65.73,90.6c0-19-14.56-28.8-37.65-28.8H303.73v59H328.9C355.11,220.6,369.46,210.2,369.46,190.4Z"/><path class="cls-2" d="M411.87,222.4a13.28,13.28,0,0,1,13.52-13.2c7.7,0,13.73,5.8,13.73,13.2,0,7.2-6,13-13.73,13A13.24,13.24,0,0,1,411.87,222.4Z"/><path class="cls-2" d="M582.41,205.2c-10.2,16.2-29.54,30.4-56.16,30.4C480.9,235.6,452,202.4,452,160c0-40.4,29.12-75,75.09-75,11.44,0,23.3,2,34.53,8.6l-1.67-8.8L572,83l8.73,39.4-13.31,2.8c-8.11-18-20-29-43-29-34.95,0-48.88,29.6-48.88,64.2,0,33,19.76,60,54.08,60,19.13,0,32.65-8.2,43.88-21.4Z"/><path class="cls-2" d="M603,222.4a13.28,13.28,0,0,1,13.52-13.2c7.69,0,13.73,5.8,13.73,13.2,0,7.2-6,13-13.73,13A13.24,13.24,0,0,1,603,222.4Z"/><path class="cls-2" d="M961,635.6c0-9.8,8.53-13.5,17.16-13.5,6.76,0,9.78.7,16.33,2v15.5h-4.78c-1-6.9-3.85-12.4-11.86-12.4-4.78,0-7.7,2.6-7.7,6.5,0,3.6,2.6,5.7,5.93,7.4l10.71,5.4c6.77,3.4,11,7.7,11,14,0,9.2-6.34,14.8-18.41,14.8a55,55,0,0,1-18.1-3.4V656.6H966c.73,10.2,6,13.1,12.59,13.1,5.82,0,10-2.3,10-7,0-3.8-2.28-5.2-6.86-7.5l-10.4-5.1C965.59,647.3,961,642.8,961,635.6Z"/><path class="cls-2" d="M1062,659.5v5.9l-15.92,10h-2v-9h-1c-4.47,4.4-10.71,8.9-18.1,8.9-10.3,0-15.29-7-15.29-16.1V635.5l-8.11-.4v-2.9l15.91-10h3v33.2c0,7.6,2.91,12,10.81,12,4.06,0,8.22-2.4,11.65-5.6V635.5l-8.11-.4v-2.9l15.91-10h3v42Z"/><path class="cls-2" d="M1109,631l-9.26,7.2c-2.28-3.8-3.43-5.4-5.92-5.4s-4.89,3.2-9.26,9.6v25.4l8.63.9v5h-27.35v-5l8-.9V635.5l-8.22-.4v-2.9l15.91-10h3v13.4h.83c4.58-6.7,8.84-13.5,14.15-13.5C1104,622.1,1106.27,626.1,1109,631Z"/><path class="cls-2" d="M1171.14,647.5c0,17.2-11.23,27.7-23.71,27.7a24.49,24.49,0,0,1-14.66-5.4v20.7l8.63.9v5H1114v-5l8-.9v-55l-8.21-.4v-2.9l15.91-10h3v10.2h.72c4-5.7,9-10.3,16.54-10.3C1163.24,622.1,1171.14,635.3,1171.14,647.5Zm-10.61,2.6c0-11-4.26-20.2-14.14-20.2-6.24,0-10.82,4.4-13.62,8.6v24c3.74,4.1,8,6.3,13.31,6.3C1156.06,668.8,1160.53,660.5,1160.53,650.1Z"/><path class="cls-2" d="M1200.5,668.7v5h-26.31v-5l8-.9V613l-8.32-1v-3l20.59-11,3.43,5.51-5,3v61.3Z"/><path class="cls-2" d="M1262.16,659.5v5.9l-15.91,10h-2v-9h-1c-4.47,4.4-10.71,8.9-18.09,8.9-10.3,0-15.29-7-15.29-16.1V635.5l-8.11-.4v-2.9l15.91-10h3v33.2c0,7.6,2.92,12,10.82,12,4.06,0,8.22-2.4,11.65-5.6V635.5l-8.11-.4v-2.9l15.91-10h3v42Z"/><path class="cls-2" d="M1267.75,635.6c0-9.8,8.53-13.5,17.16-13.5,6.76,0,9.78.7,16.33,2v15.5h-4.78c-1-6.9-3.85-12.4-11.86-12.4-4.78,0-7.69,2.6-7.69,6.5,0,3.6,2.6,5.7,5.92,7.4l10.72,5.4c6.76,3.4,11,7.7,11,14,0,9.2-6.34,14.8-18.41,14.8a54.93,54.93,0,0,1-18.09-3.4V656.6h4.68c.72,10.2,6,13.1,12.58,13.1,5.82,0,10-2.3,10-7,0-3.8-2.28-5.2-6.86-7.5l-10.4-5.1C1272.33,647.3,1267.75,642.8,1267.75,635.6Z"/><path class="cls-2" d="M1117.6,566.9v4.8c-2.18.9-3.95,1.8-6.86,1.8-4.37,0-7.8-2-9.36-6.2h-1.25c-4.27,4-9.78,7-16.23,7-9.67,0-14.45-6.2-14.45-13.3,0-6.8,5.82-11,12.17-13.1,5.4-1.8,11.75-3.7,18.51-5.6v-5.8c0-6.7-3.75-10.1-9.88-10.1-4.27,0-7.59,1.5-7.59,5.4a7.25,7.25,0,0,0,1.66,4.4l-10.82,2.2a9.83,9.83,0,0,1-1.24-5.1c0-7.3,8.84-12.2,19-12.2,12.48,0,19.66,3.9,19.66,14.7v26.9c0,2.6.72,5,3.22,5A8.17,8.17,0,0,0,1117.6,566.9Zm-17.47-5.2V547.3c-4.79,1.3-9.26,2.6-12.79,3.8-5.2,1.7-7.08,5-7.08,8.7,0,5.1,4.27,7.9,9,7.9C1093.68,567.7,1097.42,565,1100.13,561.7Z"/><path class="cls-2" d="M1126.09,567.7a6.82,6.82,0,1,1,6.76,6.5A6.64,6.64,0,0,1,1126.09,567.7Z"/><path class="cls-2" d="M1202,546c0,14.7-10,28.3-26,28.3-7.8,0-14.56-1.1-22.88-2.6V512l-8.32-1v-3l20.6-11,3.43,5.51-5,3v26.7h.83c3.12-5.7,8.84-11.1,16.53-11.1C1195,521.1,1202,534,1202,546Zm-10.82,2.5c0-9.7-4.27-19.7-13.42-19.7-6.24,0-10.81,4.3-13.93,10.8v23a17.5,17.5,0,0,0,13.31,6.1C1186.76,568.7,1191.13,559.2,1191.13,548.5Z"/><path class="cls-2" d="M1208.77,567.7a6.82,6.82,0,1,1,6.76,6.5A6.64,6.64,0,0,1,1208.77,567.7Z"/><path class="cls-2" d="M1255.53,527c-9.56,0-15.7,8.2-15.7,18.5,0,10.5,5.93,20.7,19.14,20.7a18.17,18.17,0,0,0,14.24-6.5l3.33,1.8c-2.6,6.7-9.46,12.8-21.21,12.8-15.19,0-25.38-11.2-25.38-25.2,0-15.3,10.19-27.9,27.35-27.9,5.72,0,11,1.4,14.77,4.3a9.36,9.36,0,0,1,3.74,6.9c0,2.8-1.76,4.7-4.26,4.7a5.59,5.59,0,0,1-5.62-3.7C1264.27,529.7,1261.05,527,1255.53,527Z"/><path class="cls-2" d="M1285.22,567.7a6.82,6.82,0,1,1,6.77,6.5A6.64,6.64,0,0,1,1285.22,567.7Z"/><circle class="cls-3" cx="43" cy="336" r="4"/><circle class="cls-3" cx="166" cy="95" r="4"/><circle class="cls-3" cx="831" cy="253" r="4"/><circle class="cls-3" cx="1234" cy="691" r="4"/><circle class="cls-3" cx="1080" cy="691" r="4"/><path class="cls-4" d="M197.69,732.16a4.92,4.92,0,1,1-4.93-4.93A4.91,4.91,0,0,1,197.69,732.16Zm-.82,0a4.1,4.1,0,1,0-8.19,0,4.1,4.1,0,0,0,8.19,0Zm-1,0a3.08,3.08,0,0,1-6.16,0h.49a2.62,2.62,0,0,0,5.18,0Zm-4.8-1.68c0-.54.18-1,.52-1s.47.42.47,1-.15,1-.47,1S191,731.07,191,730.52Zm2.45,0c0-.54.15-1,.47-1s.52.42.52,1-.18,1-.52,1S193.49,731.07,193.49,730.52Z"/><path class="cls-4" d="M207,732.74h-2.06v4.16h-1.19v-9.52h3.91c2.17,0,3.16,1,3.16,2.62,0,1.43-.78,2.4-2.55,2.61l3.07,4.29H210Zm-2.06-1h2.58c1.39,0,2.11-.63,2.11-1.74s-.75-1.62-2.14-1.62h-2.55Z"/><path class="cls-4" d="M214.36,728.39v3.14h4.8v1h-4.8v3.36h5.39v1h-6.57v-9.52h6.57v1Z"/><path class="cls-4" d="M227.64,734.28h-4.19l-1,2.62h-1.27l3.76-9.52h1.27l3.63,9.52h-1.26Zm-.37-1-1.69-4.68-1.77,4.68Z"/><path class="cls-4" d="M239.29,732.15a4.43,4.43,0,0,1-4.62,4.75h-3v-9.52h3A4.43,4.43,0,0,1,239.29,732.15Zm-1.19,0c0-2.38-1.33-3.77-3.61-3.77h-1.7v7.52h1.7C236.74,735.9,238.1,734.51,238.1,732.15Z"/><path class="cls-4" d="M242.77,728.39v3.14h4.81v1h-4.81v3.36h5.4v1H241.6v-9.52h6.57v1Z"/><path class="cls-4" d="M253.47,732.74h-2.05v4.16h-1.2v-9.52h3.91c2.17,0,3.17,1,3.17,2.62,0,1.43-.79,2.4-2.55,2.61l3.07,4.29h-1.33Zm-2.05-1H254c1.39,0,2.12-.63,2.12-1.74s-.76-1.62-2.15-1.62h-2.54Z"/><path class="cls-4" d="M266.87,732.74h-2.06v4.16h-1.19v-9.52h3.91c2.17,0,3.17,1,3.17,2.62,0,1.43-.79,2.4-2.55,2.61l3.06,4.29h-1.33Zm-2.06-1h2.58c1.39,0,2.12-.63,2.12-1.74s-.76-1.62-2.15-1.62h-2.55Z"/><path class="cls-4" d="M272.44,732.15c0-2.94,1.8-4.93,4.42-4.93s4.43,2,4.43,4.93-1.81,4.91-4.43,4.91S272.44,735.07,272.44,732.15Zm7.66,0c0-2.44-1.27-3.94-3.24-3.94s-3.23,1.5-3.23,3.94,1.27,3.92,3.23,3.92S280.1,734.57,280.1,732.15Z"/><path class="cls-4" d="M293.18,727.38v9.52H292v-8.48l-3.22,8.48H288l-3.26-8.49v8.49h-1.2v-9.52h1.94l2.9,7.64,2.9-7.64Z"/><path class="cls-4" d="M301.36,734.28h-4.19l-1,2.62h-1.26l3.75-9.52H300l3.62,9.52h-1.26Zm-.36-1-1.7-4.68-1.76,4.68Z"/><path class="cls-4" d="M313.14,727.38v9.52h-1.79l-4.89-8.56v8.56h-1.12v-9.52h1.79l4.9,8.56v-8.56Z"/><path class="cls-4" d="M225.2,51.16a4.92,4.92,0,1,1-4.93-4.93A4.91,4.91,0,0,1,225.2,51.16Zm-.82,0a4.09,4.09,0,1,0-8.18,0,4.09,4.09,0,0,0,8.18,0Zm-1,0a3.08,3.08,0,0,1-6.16,0h.49a2.62,2.62,0,0,0,5.18,0Zm-4.8-1.68c0-.54.18-1,.52-1s.47.42.47,1-.15,1-.47,1S218.55,50.07,218.55,49.52Zm2.45,0c0-.54.15-1,.48-1s.51.42.51,1-.18,1-.51,1S221,50.07,221,49.52Z"/><path class="cls-4" d="M231.76,54.92H237v1h-6.47v-.41a3.61,3.61,0,0,1,2.09-3.33l1.89-1.11a2.15,2.15,0,0,0,1.3-2A1.75,1.75,0,0,0,234,47.21a2.06,2.06,0,0,0-2.14,2.21h-1.15a3.07,3.07,0,0,1,3.29-3.2A2.8,2.8,0,0,1,237,49.07c0,1-.32,1.91-1.84,2.82L233,53.18A2.35,2.35,0,0,0,231.76,54.92Z"/><path class="cls-4" d="M238.75,51.16c0-2.87,1.4-4.94,3.79-4.94s3.8,2.07,3.8,4.94-1.4,4.9-3.8,4.9S238.75,54,238.75,51.16Zm6.42,0c0-2.38-.92-3.91-2.63-3.91s-2.63,1.53-2.63,3.91.92,3.87,2.63,3.87S245.17,53.54,245.17,51.16Z"/><path class="cls-4" d="M248.16,51.16c0-2.87,1.4-4.94,3.79-4.94s3.8,2.07,3.8,4.94-1.4,4.9-3.8,4.9S248.16,54,248.16,51.16Zm6.43,0c0-2.38-.93-3.91-2.64-3.91s-2.63,1.53-2.63,3.91S250.24,55,252,55,254.59,53.54,254.59,51.16Z"/><path class="cls-4" d="M269,49c0,1.57-1.08,2.71-3.25,2.71h-2.63V55.9h-1.19V46.38h3.92C268,46.38,269,47.39,269,49Zm-1.19,0c0-1.06-.66-1.65-2.16-1.65h-2.53v3.36h2.53C267.1,50.74,267.76,50.05,267.76,49Z"/><path class="cls-4" d="M277.64,47.37h-3.15V55.9h-1.17V47.37h-3.17v-1h7.49Z"/><path class="cls-4" d="M278.72,53.07H280c.18,1.34,1.18,2,2.72,2s2.38-.72,2.38-1.64-.56-1.33-1.67-1.58l-2.21-.49A2.41,2.41,0,0,1,279,49c0-1.54,1.3-2.73,3.4-2.73s3.52.88,3.73,2.83h-1.25c-.18-1.26-1.1-1.84-2.5-1.84s-2.13.7-2.13,1.6c0,.68.35,1.16,1.44,1.41l2.14.49c1.54.35,2.45,1.19,2.45,2.55,0,1.67-1.3,2.8-3.62,2.8C280.19,56.06,278.92,55,278.72,53.07Z"/><path class="cls-4" d="M1061.69,732.16a4.92,4.92,0,1,1-4.93-4.93A4.91,4.91,0,0,1,1061.69,732.16Zm-.82,0a4.1,4.1,0,1,0-8.19,0,4.1,4.1,0,0,0,8.19,0Zm-1,0a3.08,3.08,0,0,1-6.16,0h.49a2.62,2.62,0,0,0,5.18,0Zm-4.8-1.68c0-.54.18-1,.52-1s.47.42.47,1-.15,1-.47,1S1055,731.07,1055,730.52Zm2.45,0c0-.54.15-1,.47-1s.52.42.52,1-.18,1-.52,1S1057.49,731.07,1057.49,730.52Z"/><path class="cls-4" d="M1071,732.74h-2.06v4.16h-1.19v-9.52h3.91c2.17,0,3.16,1,3.16,2.62,0,1.43-.78,2.4-2.55,2.61l3.07,4.29H1074Zm-2.06-1h2.58c1.39,0,2.11-.63,2.11-1.74s-.75-1.62-2.14-1.62h-2.55Z"/><path class="cls-4" d="M1078.36,728.39v3.14h4.8v1h-4.8v3.36h5.39v1h-6.57v-9.52h6.57v1Z"/><path class="cls-4" d="M1091.64,734.28h-4.19l-1,2.62h-1.27l3.76-9.52h1.27l3.63,9.52h-1.26Zm-.37-1-1.69-4.68-1.77,4.68Z"/><path class="cls-4" d="M1103.29,732.15a4.43,4.43,0,0,1-4.62,4.75h-3.05v-9.52h3.05A4.43,4.43,0,0,1,1103.29,732.15Zm-1.19,0c0-2.38-1.33-3.77-3.61-3.77h-1.7v7.52h1.7C1100.74,735.9,1102.1,734.51,1102.1,732.15Z"/><path class="cls-4" d="M1106.77,728.39v3.14h4.81v1h-4.81v3.36h5.4v1h-6.57v-9.52h6.57v1Z"/><path class="cls-4" d="M1117.47,732.74h-2v4.16h-1.2v-9.52h3.91c2.17,0,3.17,1,3.17,2.62,0,1.43-.79,2.4-2.55,2.61l3.07,4.29h-1.33Zm-2-1H1118c1.39,0,2.12-.63,2.12-1.74s-.76-1.62-2.15-1.62h-2.54Z"/><path class="cls-4" d="M1130.87,732.74h-2.06v4.16h-1.19v-9.52h3.91c2.17,0,3.17,1,3.17,2.62,0,1.43-.79,2.4-2.55,2.61l3.06,4.29h-1.33Zm-2.06-1h2.58c1.39,0,2.12-.63,2.12-1.74s-.76-1.62-2.15-1.62h-2.55Z"/><path class="cls-4" d="M1136.44,732.15c0-2.94,1.8-4.93,4.42-4.93s4.43,2,4.43,4.93-1.81,4.91-4.43,4.91S1136.44,735.07,1136.44,732.15Zm7.66,0c0-2.44-1.27-3.94-3.24-3.94s-3.23,1.5-3.23,3.94,1.27,3.92,3.23,3.92S1144.1,734.57,1144.1,732.15Z"/><path class="cls-4" d="M1157.18,727.38v9.52H1156v-8.48l-3.22,8.48H1152l-3.26-8.49v8.49h-1.2v-9.52h1.94l2.9,7.64,2.9-7.64Z"/><path class="cls-4" d="M1165.36,734.28h-4.19l-1,2.62h-1.26l3.75-9.52H1164l3.62,9.52h-1.26Zm-.36-1-1.7-4.68-1.76,4.68Z"/><path class="cls-4" d="M1177.14,727.38v9.52h-1.79l-4.89-8.56v8.56h-1.12v-9.52h1.79l4.9,8.56v-8.56Z"/><path class="cls-4" d="M1090.61,51.16a4.92,4.92,0,1,1-4.93-4.93A4.91,4.91,0,0,1,1090.61,51.16Zm-.83,0a4.09,4.09,0,1,0-8.18,0,4.09,4.09,0,0,0,8.18,0Zm-1,0a3.09,3.09,0,0,1-6.17,0h.49a2.62,2.62,0,0,0,5.19,0ZM1084,49.52c0-.54.18-1,.52-1s.48.42.48,1-.16,1-.48,1S1084,50.07,1084,49.52Zm2.45,0c0-.54.16-1,.48-1s.52.42.52,1-.18,1-.52,1S1086.4,50.07,1086.4,49.52Z"/><path class="cls-4" d="M1099.06,46.38V55.9h-1.21V48.4a3,3,0,0,1-2.17.6V48c1.63-.05,2.12-.65,2.36-1.64Z"/><path class="cls-4" d="M1101.34,51.16c0-2.87,1.4-4.94,3.8-4.94s3.79,2.07,3.79,4.94-1.4,4.9-3.79,4.9S1101.34,54,1101.34,51.16Zm6.43,0c0-2.38-.92-3.91-2.63-3.91s-2.64,1.53-2.64,3.91.93,3.87,2.64,3.87S1107.77,53.54,1107.77,51.16Z"/><path class="cls-4" d="M1110.75,51.16c0-2.87,1.4-4.94,3.8-4.94s3.79,2.07,3.79,4.94-1.4,4.9-3.79,4.9S1110.75,54,1110.75,51.16Zm6.43,0c0-2.38-.92-3.91-2.63-3.91s-2.63,1.53-2.63,3.91.92,3.87,2.63,3.87S1117.18,53.54,1117.18,51.16Z"/><path class="cls-4" d="M1131.55,49c0,1.57-1.08,2.71-3.25,2.71h-2.64V55.9h-1.19V46.38h3.92C1130.57,46.38,1131.55,47.39,1131.55,49Zm-1.19,0c0-1.06-.66-1.65-2.16-1.65h-2.54v3.36h2.54C1129.7,50.74,1130.36,50.05,1130.36,49Z"/><path class="cls-4" d="M1140.24,47.37h-3.15V55.9h-1.18V47.37h-3.17v-1h7.5Z"/><path class="cls-4" d="M1141.32,53.07h1.24c.19,1.34,1.18,2,2.72,2s2.38-.72,2.38-1.64-.56-1.33-1.66-1.58l-2.22-.49a2.41,2.41,0,0,1-2.16-2.41c0-1.54,1.31-2.73,3.41-2.73s3.51.88,3.73,2.83h-1.25c-.18-1.26-1.11-1.84-2.51-1.84s-2.13.7-2.13,1.6c0,.68.35,1.16,1.44,1.41l2.15.49c1.54.35,2.45,1.19,2.45,2.55,0,1.67-1.3,2.8-3.63,2.8C1142.79,56.06,1141.51,55,1141.32,53.07Z"/></g></svg>