<?xml version="1.0" encoding="UTF-8"?>
<svg id="Layer_1" data-name="Layer 1" xmlns="http://www.w3.org/2000/svg" xmlns:xlink="http://www.w3.org/1999/xlink" viewBox="0 0 1366 768">
  <defs>
    <style>
      .cls-1 {
        clip-path: url(#clippath);
      }

      .cls-2, .cls-3 {
        fill: none;
      }

      .cls-2, .cls-4, .cls-5 {
        stroke-width: 0px;
      }

      .cls-3 {
        stroke: #fff;
      }

      .cls-4 {
        fill: #dde0e4;
      }

      .cls-5, .cls-6 {
        fill: #000;
      }
    </style>
    <clipPath id="clippath">
      <rect class="cls-5" x="-10" y="-10" width="1386" height="788"/>
    </clipPath>
  </defs>
  <g>
    <rect class="cls-6" x="-10" y="-10" width="1386" height="788"/>
    <g class="cls-1">
      <rect class="cls-5" x="-.35" y="-3.25" width="1366.71" height="779.89"/>
    </g>
  </g>
  <path class="cls-4" d="M214.59,482.25c-7.59,0-14.73.37-21.42,1.1-6.69.74-12.58,2.04-17.68,3.91-5.1,1.87-9.1,4.56-11.99,8.08-2.89,3.51-4.33,8.05-4.33,13.6,0,4.99,1.39,9.07,4.17,12.24,2.78,3.17,6.52,5.67,11.22,7.48,4.7,1.81,10.09,3.23,16.15,4.25,6.06,1.02,12.38,1.87,18.96,2.55l77.18,7.82c9.18.91,17.28,2.15,24.31,3.74,7.03,1.59,12.52,4.19,16.49,7.82,3.97,3.63,5.95,8.95,5.95,15.98,0,5.78-1.73,10.65-5.18,14.62-3.46,3.97-8.78,7.11-15.98,9.43-7.2,2.32-16.29,4.02-27.28,5.1-10.99,1.08-24.08,1.61-39.27,1.61-11.9,0-22.64-.4-32.21-1.19-9.58-.79-18.08-1.93-25.5-3.4-7.42-1.47-13.94-3.12-19.55-4.93-5.61-1.81-10.46-3.74-14.53-5.78v-11.05h.68c.79,4.19,3.34,7.76,7.65,10.71,4.31,2.95,9.78,5.38,16.4,7.31,6.63,1.93,13.83,3.43,21.59,4.5,7.76,1.08,15.58,1.84,23.46,2.29,7.88.45,15.22.68,22.01.68,11.45,0,22.24-.4,32.39-1.19,10.14-.79,19.07-2.24,26.77-4.34,7.71-2.1,13.77-5.1,18.19-9.01s6.63-8.98,6.63-15.21c0-4.76-1.19-8.61-3.57-11.56-2.38-2.95-5.67-5.21-9.86-6.8-4.19-1.59-9.04-2.78-14.53-3.57-5.5-.79-11.3-1.53-17.43-2.21l-75.48-7.65c-10.88-1.13-20.32-2.61-28.3-4.42-7.99-1.81-14.2-4.73-18.62-8.76-4.42-4.02-6.63-9.72-6.63-17.08,0-5.21,1.27-9.61,3.82-13.18,2.55-3.57,6.35-6.4,11.39-8.5,5.04-2.1,11.25-3.6,18.61-4.5,7.37-.91,15.81-1.36,25.33-1.36h345.27c5.89,0,10.26-.08,13.09-.26,2.83-.17,4.53-.65,5.1-1.44h.68l.85,14.45h-.68c-1.02-3.63-2.15-6.29-3.4-7.99-1.25-1.7-3.17-2.78-5.78-3.23-2.61-.45-6.4-.68-11.39-.68h-202.81v109.48c0,2.72.31,4.67.93,5.86.62,1.19,2.18,2.07,4.67,2.64v.68h-14.96v-.68c2.49-.57,4.05-1.45,4.68-2.64.62-1.19.93-3.15.93-5.86v-109.48h-137.19ZM387.82,519.31c0-2.04-.26-3.71-.77-5.02-.51-1.3-2.07-2.07-4.67-2.29v-.68h135.83c10.54,0,19.52.91,26.95,2.72,7.42,1.81,13.06,5.02,16.92,9.6,3.85,4.59,5.78,11.08,5.78,19.47,0,6.01-1.08,10.97-3.23,14.88-2.15,3.91-5.01,7.03-8.58,9.35-3.57,2.32-7.57,4.05-11.99,5.18-4.42,1.13-8.9,1.93-13.43,2.38v.68h2.89c3.17,0,5.84.26,7.99.76,2.15.51,4.19,1.39,6.12,2.64,1.93,1.25,4.08,3,6.46,5.27l12.41,11.39c2.38,2.15,4.48,3.6,6.29,4.34,1.81.74,3.63.88,5.44.43v.51c-2.27.57-4.45.65-6.55.26-2.1-.4-4.14-1.19-6.12-2.38-1.98-1.19-4.05-2.75-6.21-4.68l-9.69-8.84c-2.61-2.49-4.82-4.39-6.63-5.7-1.81-1.3-3.85-2.21-6.12-2.72-2.27-.51-5.44-.77-9.52-.77h-135.83v16.83c0,1.36.14,2.55.42,3.57.28,1.02.85,1.84,1.7,2.46.85.62,2.01,1.05,3.48,1.28v.68h-14.79v-.68c2.38-.23,3.88-.99,4.51-2.3.62-1.3.93-2.97.93-5.01v-73.61ZM511.75,575.41c11.9,0,21.65-1.1,29.24-3.32,7.59-2.21,13.23-5.7,16.92-10.46,3.68-4.76,5.53-10.94,5.53-18.53s-1.61-13.66-4.85-18.19c-3.23-4.53-8.3-7.82-15.21-9.86-6.91-2.04-15.87-3.06-26.86-3.06h-124.95v63.41h120.19Z"/>
  <path class="cls-4" d="M829.51,498.57l-.17,85.17c0,3.97.88,7.37,2.64,10.2,1.76,2.83,5.13,4.93,10.11,6.29v.68h-50.49v-.68c4.65-1.36,7.73-3.46,9.27-6.29,1.53-2.83,2.29-6.23,2.29-10.2v-85.17c0-3.97-.77-7.37-2.29-10.2-1.53-2.83-4.62-4.93-9.27-6.29v-.68h50.49v.68c-4.99,1.36-8.33,3.46-10.03,6.29-1.7,2.83-2.55,6.23-2.55,10.2ZM818.29,553.48v-1.53l141.78-59.67c3.51-1.47,5.84-2.66,6.97-3.57,1.13-.91,1.7-1.81,1.7-2.72,0-1.02-.74-1.81-2.21-2.38-1.47-.57-4.53-1.02-9.18-1.36v-.85h35.53v.85c-2.61.11-5.61.74-9.01,1.87-3.4,1.13-7.99,2.95-13.77,5.44l-151.81,63.92ZM916.89,549.06c12.58,8.27,24.71,16.29,36.38,24.06,11.67,7.76,23.18,14.93,34.51,21.51,11.33,6.57,22.89,12.3,34.68,17.17,11.79,4.87,24.06,8.67,36.81,11.39s26.32,4.08,40.71,4.08,26.55-1.28,37.82-3.83c11.28-2.55,21.19-6.43,29.75-11.64,8.56-5.21,15.56-11.84,21-19.89,5.44-8.05,9.24-17.57,11.39-28.56h1.19c-2.15,11.56-6.15,21.48-11.98,29.75-5.84,8.27-13.26,15.07-22.27,20.4-9.01,5.33-19.32,9.24-30.94,11.73-11.62,2.49-24.22,3.74-37.82,3.74-22.89,0-44.6-2.18-65.11-6.54-20.51-4.36-39.92-10.26-58.23-17.68-18.3-7.42-35.7-15.78-52.19-25.07-16.49-9.29-32.16-18.87-47.01-28.73l-20.91-13.77,27.03-11.39,35.19,23.29ZM1087.74,572.69c-19.04,0-35.42-.93-49.13-2.8-13.71-1.87-24.91-4.7-33.58-8.5-8.67-3.8-15.07-8.59-19.21-14.37-4.14-5.78-6.2-12.58-6.2-20.4s2.07-14.62,6.2-20.4c4.14-5.78,10.54-10.57,19.21-14.36,8.67-3.8,19.86-6.63,33.58-8.5,13.71-1.87,30.09-2.8,49.13-2.8s35.36.93,48.96,2.8c13.6,1.87,24.73,4.7,33.41,8.5,8.67,3.8,15.07,8.59,19.21,14.36,4.14,5.78,6.21,12.58,6.21,20.4s-2.07,14.62-6.21,20.4c-4.14,5.78-10.54,10.57-19.21,14.37-8.67,3.8-19.8,6.63-33.41,8.5-13.6,1.87-29.92,2.8-48.96,2.8ZM1087.74,571.5c10.99,0,20.74-.57,29.24-1.7,8.5-1.13,15.81-2.86,21.93-5.18,6.12-2.32,11.11-5.24,14.96-8.76,3.85-3.51,6.71-7.71,8.58-12.58,1.87-4.87,2.81-10.43,2.81-16.66s-.94-11.79-2.81-16.66c-1.87-4.87-4.73-9.07-8.58-12.58-3.85-3.51-8.84-6.43-14.96-8.76-6.12-2.32-13.4-4.05-21.85-5.18-8.44-1.13-18.22-1.7-29.32-1.7s-21.31.57-29.92,1.7c-8.61,1.13-15.95,2.86-22.01,5.18-6.06,2.32-11.02,5.24-14.88,8.76-3.85,3.51-6.66,7.71-8.42,12.58-1.76,4.87-2.63,10.43-2.63,16.66s.88,11.79,2.63,16.66c1.76,4.87,4.56,9.07,8.42,12.58,3.85,3.51,8.81,6.43,14.88,8.76,6.06,2.32,13.4,4.05,22.01,5.18,8.61,1.13,18.59,1.7,29.92,1.7Z"/>
  <g>
    <path class="cls-4" d="M636.76,745.61l-.94-6.06h1.43l.62,4.49h.12l.81-3.78h1.37l.8,3.78h.13l.62-4.49h1.41l-.93,6.06h-1.9l-.78-3.7h-.11l-.75,3.7h-1.89Z"/>
    <path class="cls-4" d="M646.67,745.78c-.85,0-1.5-.29-1.95-.86-.45-.57-.67-1.36-.67-2.36s.23-1.77.68-2.34c.45-.57,1.1-.85,1.94-.85.96,0,1.58.38,1.87,1.15h.12v-3.49h1.71v8.57h-1.38l-.21-1.1h-.11c-.16.4-.39.71-.7.93s-.75.34-1.31.34ZM647.23,744.43c.53,0,.91-.17,1.13-.51s.34-.79.34-1.35-.11-1-.34-1.34c-.22-.34-.6-.51-1.14-.51-.49,0-.85.15-1.08.46s-.34.77-.34,1.39.11,1.09.34,1.4.59.46,1.08.46Z"/>
    <path class="cls-4" d="M655.65,740.85v2.11c0,.47.09.82.27,1.03.18.21.5.32.97.32.5,0,.93-.06,1.29-.18l.17,1.33c-.27.08-.57.15-.89.2-.33.05-.67.07-1.04.07-.63,0-1.12-.09-1.49-.28s-.62-.47-.77-.85-.23-.86-.23-1.44v-2.33h-1.73v-1.3h1.73l.16-1.82h1.55v1.82h2.65v1.3h-2.65Z"/>
    <path class="cls-4" d="M660.69,745.61v-8.57h1.71v3.69h.12c.16-.4.39-.72.69-.97.3-.25.73-.37,1.28-.37.67,0,1.16.2,1.48.61.32.4.47.96.47,1.66v3.97h-1.71v-3.54c0-.37-.08-.67-.23-.88-.15-.21-.4-.32-.76-.32-.41,0-.74.14-.98.41-.24.27-.36.65-.36,1.14v3.19h-1.71Z"/>
    <path class="cls-4" d="M671.47,741.38c-.34,0-.61-.09-.83-.28-.21-.18-.32-.46-.32-.82s.11-.63.32-.83c.21-.2.49-.29.83-.29s.62.1.83.29c.21.2.32.47.32.83s-.11.64-.32.82c-.21.18-.49.28-.83.28ZM671.47,745.6c-.34,0-.61-.09-.83-.27-.21-.18-.32-.46-.32-.82s.11-.64.32-.83c.21-.19.49-.29.83-.29s.62.1.83.29c.21.19.32.47.32.83s-.11.63-.32.82c-.21.18-.49.27-.83.27Z"/>
    <path class="cls-4" d="M684.53,744.18h2.54v-5.1c-.37.11-.73.21-1.08.33-.35.11-.71.22-1.08.33v-1.41c.4-.14.79-.27,1.16-.41.38-.14.76-.27,1.16-.41h1.62v6.68h1.86v1.43h-6.18v-1.43Z"/>
    <path class="cls-4" d="M692.39,745.61v-1.37l2.71-2.18c.48-.4.86-.76,1.14-1.1s.42-.73.42-1.17c0-.36-.1-.63-.29-.83s-.49-.29-.89-.29c-.5,0-.85.15-1.06.44-.21.29-.34.7-.39,1.22l-1.59-.16c.05-.54.18-1.03.39-1.46.21-.43.54-.77.96-1.01.43-.25.99-.37,1.68-.37.95,0,1.67.22,2.15.65s.72,1.02.72,1.77c0,.46-.09.88-.28,1.25-.19.38-.44.72-.75,1.04s-.67.6-1.06.86l-1.65,1.18v.12h3.79v1.43h-6Z"/>
    <path class="cls-4" d="M703.56,745.78c-.93,0-1.66-.18-2.19-.55-.54-.37-.85-.9-.94-1.61l1.59-.17c.09.33.26.59.5.77s.58.27,1.02.27c.47,0,.84-.13,1.12-.38.28-.25.42-.65.42-1.21,0-.52-.12-.9-.37-1.14-.25-.24-.59-.36-1.02-.36-.4,0-.74.1-1.01.29s-.48.4-.65.64h-1.46l.54-4.84h5v1.43h-3.73l-.28,2.23h.14c.17-.23.41-.44.71-.63.31-.19.72-.28,1.24-.28.75,0,1.35.22,1.8.65.45.44.68,1.09.68,1.97,0,.99-.29,1.73-.86,2.2s-1.32.71-2.26.71Z"/>
  </g>
  <g>
    <path class="cls-4" d="M1324.56,421.21l-6.06.94v-1.43l4.49-.62v-.12l-3.78-.81v-1.37l3.78-.8v-.13l-4.49-.62v-1.41l6.06.93v1.9l-3.7.78v.11l3.7.75v1.89Z"/>
    <path class="cls-4" d="M1326.98,410.68c0,.96-.17,1.69-.52,2.18s-.83.79-1.46.87l-.13-1.73c.25-.07.45-.19.61-.38s.23-.5.23-.94c0-.5-.13-.85-.39-1.06-.26-.21-.66-.31-1.22-.31h-.88v.06c.29.16.55.41.77.74.23.33.34.77.34,1.32,0,.8-.27,1.42-.8,1.85-.54.43-1.26.65-2.19.65-.6,0-1.12-.1-1.58-.3-.46-.2-.81-.49-1.06-.88s-.38-.84-.38-1.39.12-.99.37-1.3c.25-.31.55-.54.91-.67v-.13l-1.1-.17v-1.49h5.34c1.03,0,1.81.24,2.34.72.53.48.8,1.27.8,2.37ZM1323.17,410.74c0-.48-.17-.85-.51-1.1-.34-.25-.77-.37-1.29-.37s-.92.12-1.24.36c-.32.24-.48.61-.48,1.11,0,.47.15.83.45,1.06s.72.35,1.27.35c.62,0,1.07-.12,1.37-.35.29-.23.44-.59.44-1.06Z"/>
    <path class="cls-4" d="M1324.56,405.28h-8.57v-1.71h3.69v-.12c-.4-.16-.72-.39-.97-.69-.25-.3-.37-.73-.37-1.28,0-.67.2-1.16.61-1.48.4-.32.96-.47,1.66-.47h3.97v1.71h-3.54c-.37,0-.67.08-.88.23-.21.15-.32.4-.32.76,0,.41.14.74.41.98.27.24.65.36,1.14.36h3.19v1.71Z"/>
    <path class="cls-4" d="M1319.8,394.32h2.11c.47,0,.82-.09,1.03-.27.21-.18.32-.5.32-.97,0-.5-.06-.93-.18-1.29l1.33-.17c.08.27.15.57.2.89.05.33.07.67.07,1.04,0,.63-.09,1.12-.28,1.49s-.47.62-.85.77-.86.23-1.44.23h-2.33v1.73h-1.3v-1.73l-1.82-.16v-1.55h1.82v-2.65h1.3v2.65Z"/>
    <path class="cls-4" d="M1320.33,386.5c0,.34-.09.61-.28.83-.18.21-.46.32-.82.32s-.63-.11-.83-.32c-.2-.21-.29-.49-.29-.83s.1-.62.29-.83c.2-.21.47-.32.83-.32s.64.11.82.32c.18.21.28.49.28.83ZM1324.55,386.5c0,.34-.09.61-.27.83-.18.21-.46.32-.82.32s-.64-.11-.83-.32c-.19-.21-.29-.49-.29-.83s.1-.62.29-.83c.19-.21.47-.32.83-.32s.63.11.82.32c.18.21.27.49.27.83Z"/>
    <path class="cls-4" d="M1324.74,370.5c0,1.09-.21,1.93-.61,2.52-.41.59-.98.88-1.71.88-.43,0-.78-.09-1.06-.27-.28-.18-.5-.41-.65-.69-.15-.28-.25-.58-.3-.89h-.14c-.05.27-.15.52-.29.76s-.33.43-.58.57c-.25.14-.57.22-.96.22-.67,0-1.19-.27-1.58-.81s-.58-1.3-.58-2.3.19-1.77.58-2.31.91-.81,1.58-.81c.39,0,.71.07.97.22.25.15.44.34.58.58.13.24.23.49.28.76h.14c.05-.32.15-.62.31-.9.16-.28.38-.51.66-.69.28-.18.63-.27,1.04-.27.73,0,1.3.29,1.71.88.41.59.61,1.43.61,2.52ZM1319.78,370.5c0-.44-.1-.79-.29-1.05-.19-.26-.47-.39-.82-.39-.4,0-.69.13-.87.4-.17.27-.26.61-.26,1.04s.09.77.26,1.03c.17.27.46.4.87.4.35,0,.62-.13.82-.38.19-.26.29-.61.29-1.05ZM1323.47,370.5c0-.5-.1-.91-.31-1.22s-.52-.47-.95-.47-.72.15-.93.46c-.21.3-.31.72-.31,1.24s.11.94.31,1.24c.21.3.52.45.93.45s.75-.16.95-.47.31-.72.31-1.23Z"/>
    <path class="cls-4" d="M1324.73,362.5c0,1.08-.35,1.9-1.07,2.45-.71.56-1.76.84-3.16.84s-2.46-.28-3.17-.84c-.71-.56-1.07-1.38-1.07-2.45s.36-1.9,1.07-2.45c.71-.56,1.77-.84,3.17-.84s2.45.28,3.16.84c.71.56,1.07,1.38,1.07,2.45ZM1323.34,362.5c0-.59-.24-.99-.71-1.21-.47-.22-1.18-.33-2.12-.33s-1.66.11-2.13.33c-.47.22-.71.62-.71,1.21s.24.99.71,1.21c.47.22,1.18.33,2.13.33s1.65-.11,2.12-.33c.47-.22.71-.62.71-1.21ZM1321.26,362.51c0,.25-.07.43-.2.53-.13.1-.31.15-.53.15s-.39-.05-.53-.15c-.13-.1-.2-.27-.2-.53s.07-.43.2-.53c.13-.1.31-.15.53-.15s.39.05.53.15c.13.1.2.27.2.53Z"/>
    <path class="cls-4" d="M1324.73,354.5c0,1.08-.35,1.9-1.07,2.45-.71.56-1.76.84-3.16.84s-2.46-.28-3.17-.84c-.71-.56-1.07-1.38-1.07-2.45s.36-1.9,1.07-2.45c.71-.56,1.77-.84,3.17-.84s2.45.28,3.16.84c.71.56,1.07,1.38,1.07,2.45ZM1323.34,354.5c0-.59-.24-.99-.71-1.21-.47-.22-1.18-.33-2.12-.33s-1.66.11-2.13.33c-.47.22-.71.62-.71,1.21s.24.99.71,1.21c.47.22,1.18.33,2.13.33s1.65-.11,2.12-.33c.47-.22.71-.62.71-1.21ZM1321.26,354.51c0,.25-.07.43-.2.53-.13.1-.31.15-.53.15s-.39-.05-.53-.15c-.13-.1-.2-.27-.2-.53s.07-.43.2-.53c.13-.1.31-.15.53-.15s.39.05.53.15c.13.1.2.27.2.53Z"/>
  </g>
  <g>
    <path class="cls-4" d="M649.43,53.93l-.94-6.06h1.43l.62,4.49h.12l.81-3.78h1.37l.8,3.78h.13l.62-4.49h1.41l-.93,6.06h-1.9l-.78-3.7h-.11l-.75,3.7h-1.89Z"/>
    <path class="cls-4" d="M659.34,54.11c-.85,0-1.5-.29-1.95-.86-.45-.57-.67-1.36-.67-2.36s.23-1.77.68-2.34c.45-.57,1.1-.85,1.94-.85.96,0,1.58.38,1.87,1.15h.12v-3.49h1.71v8.57h-1.38l-.21-1.1h-.11c-.16.4-.39.71-.7.93-.31.22-.75.34-1.31.34ZM659.89,52.76c.53,0,.91-.17,1.13-.51.22-.34.34-.79.34-1.35s-.11-1-.34-1.34c-.22-.34-.6-.51-1.14-.51-.49,0-.85.15-1.08.46s-.34.77-.34,1.39.11,1.09.34,1.4.59.46,1.08.46Z"/>
    <path class="cls-4" d="M668.31,49.17v2.11c0,.47.09.82.27,1.03.18.22.5.32.97.32.5,0,.93-.06,1.29-.18l.17,1.33c-.27.08-.57.15-.89.2-.33.05-.67.07-1.04.07-.63,0-1.12-.09-1.49-.28s-.62-.47-.77-.85-.23-.86-.23-1.44v-2.33h-1.73v-1.3h1.73l.16-1.82h1.55v1.82h2.65v1.3h-2.65Z"/>
    <path class="cls-4" d="M673.35,53.93v-8.57h1.71v3.69h.12c.16-.4.39-.72.69-.97s.73-.37,1.28-.37c.67,0,1.16.2,1.48.61s.47.96.47,1.66v3.97h-1.71v-3.54c0-.37-.08-.67-.23-.88s-.4-.32-.76-.32c-.41,0-.74.14-.98.41-.24.27-.36.65-.36,1.14v3.19h-1.71Z"/>
    <path class="cls-4" d="M684.13,49.71c-.34,0-.61-.09-.83-.28-.21-.18-.32-.46-.32-.82s.11-.64.32-.83c.21-.2.49-.29.83-.29s.62.1.83.29c.21.2.32.47.32.83s-.11.64-.32.82c-.21.19-.49.28-.83.28ZM684.13,53.92c-.34,0-.61-.09-.83-.27-.21-.18-.32-.46-.32-.82s.11-.64.32-.83c.21-.19.49-.29.83-.29s.62.1.83.29c.21.19.32.47.32.83s-.11.63-.32.82c-.21.18-.49.27-.83.27Z"/>
    <path class="cls-4" d="M697.07,45.82h6.32v1.38l-2.96,6.74h-1.83l2.98-6.58v-.14h-2.99v1.65h-1.52v-3.05Z"/>
    <path class="cls-4" d="M708.28,54.11c-1.05,0-1.86-.32-2.44-.96s-.86-1.62-.86-2.95c0-1.57.28-2.72.84-3.45.56-.73,1.39-1.1,2.51-1.1.89,0,1.57.19,2.05.58.48.38.76.87.86,1.47l-1.58.21c-.07-.25-.21-.47-.4-.66s-.51-.28-.94-.28c-.46,0-.82.12-1.07.36-.25.24-.42.57-.52,1.01-.1.43-.15.95-.17,1.54h.14c.17-.34.43-.61.78-.83.35-.22.8-.32,1.34-.32.75,0,1.37.22,1.85.65.48.43.72,1.07.72,1.91,0,.89-.27,1.58-.81,2.08s-1.3.75-2.29.75ZM708.29,52.82c.46,0,.83-.13,1.1-.39.27-.26.41-.63.41-1.1s-.13-.84-.39-1.11-.62-.39-1.07-.39-.83.14-1.11.42c-.28.28-.42.65-.42,1.09,0,.42.13.77.39,1.05.26.28.63.42,1.1.42Z"/>
  </g>
  <g>
    <path class="cls-4" d="M45.14,421.2l-6.06.94v-1.43l4.49-.62v-.13l-3.78-.81v-1.37l3.78-.8v-.13l-4.49-.62v-1.41l6.06.93v1.9l-3.7.78v.11l3.7.75v1.89Z"/>
    <path class="cls-4" d="M47.56,410.68c0,.96-.17,1.69-.52,2.18s-.83.78-1.46.87l-.13-1.73c.25-.06.45-.19.61-.38s.23-.5.23-.94c0-.5-.13-.85-.39-1.06-.26-.21-.66-.31-1.22-.31h-.88v.06c.29.16.55.41.77.74.23.33.34.77.34,1.32,0,.8-.27,1.42-.8,1.85-.54.43-1.26.65-2.19.65-.6,0-1.12-.1-1.58-.3-.46-.2-.81-.49-1.06-.88s-.38-.84-.38-1.39.12-.99.37-1.3c.25-.31.55-.54.91-.67v-.13l-1.1-.17v-1.49h5.34c1.03,0,1.81.24,2.34.72.53.48.8,1.27.8,2.37ZM43.76,410.74c0-.48-.17-.85-.51-1.1-.34-.25-.77-.37-1.29-.37s-.92.12-1.24.36c-.32.24-.48.61-.48,1.11,0,.47.15.83.45,1.06s.72.35,1.27.35c.62,0,1.07-.12,1.37-.35.29-.23.44-.59.44-1.06Z"/>
    <path class="cls-4" d="M45.14,405.28h-8.57v-1.71h3.69v-.12c-.4-.16-.72-.39-.97-.69-.25-.3-.37-.73-.37-1.28,0-.67.2-1.16.61-1.48.4-.32.96-.47,1.66-.47h3.97v1.71h-3.54c-.37,0-.67.08-.88.23-.21.15-.32.4-.32.76,0,.41.14.74.41.98.27.24.65.36,1.14.36h3.19v1.71Z"/>
    <path class="cls-4" d="M40.38,394.32h2.11c.47,0,.82-.09,1.03-.27.21-.18.32-.5.32-.97,0-.5-.06-.93-.18-1.29l1.33-.17c.08.27.15.57.2.89.05.33.07.67.07,1.04,0,.63-.09,1.12-.28,1.49s-.47.62-.85.77-.86.23-1.44.23h-2.33v1.73h-1.3v-1.73l-1.82-.16v-1.55h1.82v-2.65h1.3v2.65Z"/>
    <path class="cls-4" d="M40.92,386.5c0,.34-.09.61-.28.83s-.46.32-.82.32-.63-.11-.83-.32-.29-.49-.29-.83.1-.62.29-.83.47-.32.83-.32.64.11.82.32.28.49.28.83ZM45.13,386.5c0,.34-.09.61-.27.83s-.46.32-.82.32-.64-.11-.83-.32-.29-.49-.29-.83.1-.62.29-.83.47-.32.83-.32.63.11.82.32.27.49.27.83Z"/>
    <path class="cls-4" d="M43.71,373.44v-2.54h-5.1c.11.37.21.73.33,1.08s.22.71.33,1.08h-1.41c-.14-.4-.27-.79-.41-1.16-.14-.38-.27-.76-.41-1.16v-1.62h6.68v-1.86h1.43v6.18h-1.43Z"/>
    <path class="cls-4" d="M45.31,362.5c0,1.08-.35,1.9-1.07,2.45-.71.56-1.76.84-3.16.84s-2.46-.28-3.17-.84c-.71-.56-1.07-1.38-1.07-2.45s.36-1.9,1.07-2.45c.71-.56,1.77-.84,3.17-.84s2.45.28,3.16.84c.71.56,1.07,1.38,1.07,2.45ZM43.92,362.5c0-.59-.24-.99-.71-1.21s-1.18-.33-2.12-.33-1.66.11-2.13.33c-.47.22-.71.62-.71,1.21s.24.99.71,1.21c.47.22,1.18.33,2.13.33s1.65-.11,2.12-.33c.47-.22.71-.62.71-1.21ZM41.85,362.51c0,.25-.07.43-.2.53-.13.1-.31.15-.53.15s-.39-.05-.53-.15c-.13-.1-.2-.27-.2-.53s.07-.43.2-.53c.13-.1.31-.15.53-.15s.39.05.53.15c.13.1.2.27.2.53Z"/>
    <path class="cls-4" d="M45.31,354.5c0,1.08-.35,1.9-1.07,2.45-.71.56-1.76.84-3.16.84s-2.46-.28-3.17-.84c-.71-.56-1.07-1.38-1.07-2.45s.36-1.9,1.07-2.45c.71-.56,1.77-.84,3.17-.84s2.45.28,3.16.84c.71.56,1.07,1.38,1.07,2.45ZM43.92,354.5c0-.59-.24-.99-.71-1.21s-1.18-.33-2.12-.33-1.66.11-2.13.33c-.47.22-.71.62-.71,1.21s.24.99.71,1.21c.47.22,1.18.33,2.13.33s1.65-.11,2.12-.33c.47-.22.71-.62.71-1.21ZM41.85,354.51c0,.25-.07.43-.2.53-.13.1-.31.15-.53.15s-.39-.05-.53-.15c-.13-.1-.2-.27-.2-.53s.07-.43.2-.53c.13-.1.31-.15.53-.15s.39.05.53.15c.13.1.2.27.2.53Z"/>
  </g>
  <line class="cls-3" x1="675.61" y1="713.48" x2="675.61" y2="97.23"/>
  <line class="cls-3" x1="1270.7" y1="386.51" x2="91.79" y2="386.51"/>
  <path class="cls-4" d="M976.82,240.2v-50.83c0-4.76-.37-8.56-1.1-11.39-.74-2.83-2.69-5.16-5.86-6.97v-.68h38.59v.68c-3.17,1.81-5.13,4.14-5.86,6.97-.74,2.83-1.1,6.63-1.1,11.39v39.78h29.75v1.19h-29.75v5.27c0,8.16-.74,15.55-2.21,22.18-1.47,6.63-3.94,12.38-7.39,17.25-3.46,4.87-8.22,8.61-14.28,11.22-6.06,2.61-13.57,3.91-22.52,3.91-8.05,0-14.9-1.1-20.57-3.32-5.67-2.21-10.31-5.24-13.94-9.09-3.63-3.85-6.49-8.36-8.59-13.52-2.1-5.16-3.54-10.68-4.34-16.58-.79-5.89-1.19-11.96-1.19-18.19s.4-12.3,1.19-18.19c.79-5.89,2.12-11.42,4-16.57,1.87-5.16,4.39-9.66,7.56-13.52,3.17-3.85,7.2-6.89,12.07-9.1,4.87-2.21,10.71-3.32,17.51-3.32,2.04,0,4.11.17,6.21.51,2.1.34,4.08.85,5.95,1.53s3.6,1.47,5.18,2.38v22.1h-.68c-.57-2.27-1.13-4.59-1.7-6.97-.57-2.38-1.19-4.65-1.87-6.8-.68-2.15-1.59-4.11-2.72-5.86-1.13-1.76-2.46-3.14-3.99-4.16-1.53-1.02-3.43-1.53-5.7-1.53-3.63,0-6.52,1.3-8.67,3.91-2.15,2.61-3.8,6.46-4.93,11.56-1.13,5.1-1.84,11.33-2.12,18.7-.28,7.37-.42,15.81-.42,25.33s.23,17.96.68,25.33c.45,7.37,1.42,13.6,2.89,18.7,1.47,5.1,3.65,8.95,6.54,11.56,2.89,2.61,6.77,3.91,11.65,3.91,2.83,0,5.35-.4,7.57-1.19,2.21-.79,4.19-2.21,5.95-4.25,1.76-2.04,3.26-4.87,4.51-8.5,1.25-3.63,2.18-8.3,2.8-14.02.62-5.72.93-12.66.93-20.83ZM1022.72,270.29v-80.92c0-4.76-.4-8.56-1.19-11.39-.79-2.83-2.78-5.16-5.95-6.97v-.68h43.69c1.59,0,2.98-.11,4.16-.34,1.19-.23,2.21-.54,3.06-.93.85-.4,1.56-.82,2.12-1.27h.85l4.59,16.66-.68.17c-2.49-5.33-5.41-8.84-8.76-10.54-3.34-1.7-7.28-2.55-11.82-2.55h-5.44v62.9h7.65c1.47,0,3.15-.17,5.02-.51,1.87-.34,3.63-1.25,5.27-2.72,1.64-1.47,2.86-3.85,3.65-7.14h.68v21.59h-.68c-.79-3.29-2.01-5.64-3.65-7.05-1.64-1.42-3.4-2.27-5.27-2.55-1.87-.28-3.54-.42-5.02-.42h-7.65v52.53h3.4c4.31,0,8.13-.45,11.48-1.36,3.34-.91,6.38-2.58,9.09-5.02,2.72-2.44,5.1-5.81,7.14-10.11l.85.17-7.99,20.06h-.85c-.57-.57-1.28-1.02-2.12-1.36-.85-.34-1.87-.62-3.06-.85-1.19-.23-2.58-.34-4.17-.34h-45.56v-.68c3.17-1.81,5.16-4.14,5.95-6.97.79-2.83,1.19-6.63,1.19-11.39Z"/>
  <path class="cls-4" d="M364.28,252.44c.85,7.37,2.44,13.8,4.76,19.29,2.32,5.5,5.67,9.83,10.03,13,4.36,3.17,9.94,4.76,16.75,4.76,3.06,0,5.89-.42,8.5-1.28,2.61-.85,5.04-1.98,7.31-3.4,2.27-1.42,4.19-3.26,5.78-5.53v-36.04c0-3.85.23-6.57.68-8.16.45-1.59,1.3-2.78,2.55-3.57v-.68h-12.41v.68c1.7.34,2.86.91,3.49,1.7.62.79,1.13,2.01,1.53,3.65.4,1.64.59,3.82.59,6.54v32.13c0,1.13-.14,2.27-.42,3.4-.28,1.13-.71,2.1-1.28,2.89-.57.79-1.25,1.53-2.04,2.21-.79.91-1.73,1.61-2.81,2.12-1.08.51-2.27.99-3.57,1.44-1.3.45-2.64.76-4,.93-1.36.17-2.66.25-3.91.25-4.99,0-9.26-1.13-12.84-3.4-3.57-2.27-6.38-5.38-8.41-9.35-2.04-3.97-3.57-8.47-4.59-13.51-1.02-5.04-1.7-10.43-2.04-16.15-.34-5.72-.51-11.53-.51-17.42s.2-11.93.59-17.77c.4-5.84,1.13-11.28,2.21-16.32,1.08-5.04,2.64-9.52,4.68-13.43,2.04-3.91,4.68-6.94,7.9-9.1,3.23-2.15,7.28-3.23,12.15-3.23,2.83,0,5.33.26,7.48.76,2.15.51,3.97,1.36,5.44,2.55,1.47,1.19,2.78,2.44,3.91,3.74,1.13,1.3,2.1,2.78,2.89,4.42.79,1.64,1.42,3.37,1.87,5.18h.68v-9.18c-1.47-1.59-3.29-2.97-5.44-4.17-2.15-1.19-4.59-2.15-7.31-2.89-2.72-.74-5.72-1.11-9.01-1.11-6.46,0-11.84,1.59-16.15,4.76-4.31,3.17-7.62,7.51-9.94,13-2.32,5.5-3.97,11.93-4.93,19.3-.96,7.37-1.44,15.19-1.44,23.46s.42,16.09,1.28,23.46M352.46,285.17c-3.29-2.44-5.95-5.72-7.99-9.86-2.04-4.14-3.51-8.75-4.42-13.85-.91-5.1-1.5-10.48-1.79-16.15-.28-5.67-.42-11.11-.42-16.32s.14-10.62.42-16.24c.28-5.61.88-11.02,1.79-16.24.91-5.21,2.38-9.86,4.42-13.94,2.04-4.08,4.7-7.34,7.99-9.78,3.29-2.44,7.59-3.65,12.92-3.65s9.29,1.22,12.58,3.65c3.29,2.44,5.92,5.7,7.9,9.78,1.98,4.08,3.43,8.73,4.34,13.94.91,5.21,1.56,10.62,1.96,16.24.4,5.61.6,11.02.6,16.24s-.2,10.65-.6,16.32c-.4,5.67-1.05,11.05-1.96,16.15-.91,5.1-2.35,9.72-4.34,13.85-1.98,4.14-4.59,7.42-7.82,9.86-3.23,2.44-7.45,3.65-12.67,3.65s-9.63-1.22-12.92-3.65M379.32,285.85c3.74-2.44,6.83-5.72,9.26-9.86,2.44-4.14,4.22-8.81,5.35-14.03,1.13-5.21,1.96-10.62,2.47-16.24.51-5.61.76-11.19.76-16.74s-.26-10.99-.76-16.66c-.51-5.67-1.33-11.11-2.47-16.32-1.13-5.21-2.92-9.92-5.35-14.11-2.44-4.19-5.52-7.48-9.26-9.86-3.74-2.38-8.39-3.57-13.94-3.57s-10.54,1.19-14.28,3.57c-3.74,2.38-6.83,5.67-9.26,9.86-2.44,4.19-4.22,8.9-5.35,14.11-1.13,5.21-1.93,10.65-2.38,16.32-.45,5.67-.68,11.22-.68,16.66s.23,11.13.68,16.74c.45,5.61,1.25,11.02,2.38,16.24,1.13,5.21,2.92,9.89,5.35,14.03,2.44,4.14,5.53,7.42,9.26,9.86,3.74,2.44,8.5,3.65,14.28,3.65s10.2-1.22,13.94-3.65M324.33,171.78c1.87.85,3.54,2.46,5.01,4.85l.68-.17-3.23-8.67h-.68c-.45.45-1.02.82-1.7,1.11-.68.28-1.53.51-2.55.68s-2.38.25-4.08.25h-29.07v.68c1.25.79,2.07,1.98,2.47,3.57.4,1.59.6,4.36.6,8.33v93.84c0,3.85-.2,6.6-.6,8.25-.4,1.64-1.22,2.86-2.47,3.65v.68h11.56v-.68c-1.36-.34-2.38-.88-3.06-1.61-.68-.74-1.13-1.93-1.36-3.57-.23-1.64-.34-3.88-.34-6.72v-39.61h20.57c2.49,0,4.36.08,5.61.25,1.25.17,2.15.54,2.72,1.1.57.57,1.02,1.42,1.36,2.55h.68v-8.5h-.68c-.34,1.02-.79,1.81-1.36,2.38s-1.47.96-2.72,1.19c-1.25.23-3.12.34-5.61.34h-20.57v-65.45h18.53c4.99,0,8.42.43,10.28,1.28"/>
  <rect class="cls-2" x="288.71" y="167.78" width="131.92" height="121.72"/>
</svg>