<svg xmlns="http://www.w3.org/2000/svg" viewBox="0 0 1366 768"><defs><style>.cls-1{fill:#fff;}.cls-2{fill:red;}.cls-3{fill:#1d1d1b;}.cls-4{fill:#ed1c24;}.cls-5{fill:none;stroke:#ed1c24;stroke-miterlimit:10;stroke-width:10px;}.cls-6{fill:#12100b;}</style></defs><g id="Layer_1" data-name="Layer 1"><rect class="cls-1" x="-49.82" y="-61.56" width="1466.48" height="940.05"/><path class="cls-2" d="M517.27,612.64A52.37,52.37,0,0,0,569.64,665H729.56a52.37,52.37,0,0,0,0-104.74H569.64a52.37,52.37,0,0,0-52.37,52.37Z"/><path class="cls-1" d="M601,592.84l-3,1.33L587.5,625.11h-1.15l-11.21-30.93-2.95-1.32v-.79h13v.79l-5,1.33,8.08,23.05,7.47-23.06-5.12-1.32v-.79H601Z"/><path class="cls-1" d="M619.33,602.56v7.61h-.79c-.74-2.38-1.75-3.33-3.54-3.32-3.22,0-4.27,3.59-4.26,7.4V623l5.8,1v.53H602.74V624l3.74-1.06V605.74h-3.74v-.47l7.74-2.71v6.83a19.74,19.74,0,0,1,.95-2A8.82,8.82,0,0,1,619.33,602.56Z"/><path class="cls-1" d="M634.27,624v.53H621.4V624l4.38-1.06,0-17.24h-4.37v-.48l8.64-2.38,0,20.09ZM625,596.89a2.93,2.93,0,0,1,5.85,0,2.93,2.93,0,0,1-5.85,0Z"/><path class="cls-1" d="M635.1,605.72v-.48l10-2.39,0,25.34c0,5.6-2.53,10.31-7.75,10.32a13.2,13.2,0,0,1-5.16-1.06v-7l.53-.11c1.53,5.24,2.85,6.56,5,6.56s3.06-1.8,3.05-6.46l0-24.7Zm4.89-8.84a2.93,2.93,0,1,1,2.9,2.91A2.89,2.89,0,0,1,640,596.88Z"/><path class="cls-1" d="M676,624v.53h-8.33v-3.81a7.44,7.44,0,0,1-7.32,4.66c-6.22,0-8.81-5.12-8.81-11.26,0-6.92,3.57-11.58,10.32-11.59a8.54,8.54,0,0,1,5.8,2v-13l-5.64-.84v-.53h13.65v.53l-3.74,1,0,31.26Zm-8.34-8.08v-5.71c-.38-3.39-1.85-6.08-5.86-6.08-4.59,0-6.22,3.76-6.21,8.84s1.69,8.72,6.17,8.72C664.47,621.67,667.63,620.55,667.63,615.9Z"/><path class="cls-1" d="M700.48,616.83h.94v1.95c0,3.39-.58,6.14-4.74,6.14-2.38,0-4.27-1-4.38-3.86a6.7,6.7,0,0,1-6.43,4.29c-4.17,0-6.7-2.37-6.7-6.39,0-4.92,3.53-6.93,8.22-6.94a9.15,9.15,0,0,1,4.9,1.27v-4.07c0-3.28-.74-5.08-4.12-5.08-2.95,0-4.37,1.7-5.74,6.46h-.79v-7.25a37,37,0,0,1,7.17-.85c5.75,0,7.75,2.38,7.76,7.45v10.16c0,1.48.47,2.32,1.74,2.32,1.58,0,2.16-1.27,2.16-4Zm-8.18.42V615a6.83,6.83,0,0,0-4.22-1.47c-3,0-4.79,1.59-4.79,4.55,0,2.59,1.48,4.12,4.27,4.12C691.41,622.23,692.31,619.26,692.3,617.25Z"/><path class="cls-1" d="M726.46,602.42v3h-5.17a8.3,8.3,0,0,1,2.11,5.71c0,5.23-3.1,8.83-8.69,9.15V624h1.53c5.27,0,8.8,2.22,8.8,6.77,0,5.34-5.31,7.83-11.22,7.83-6.33,0-11-2.48-11-7.82,0-4.55,3.95-6.77,8.8-6.77h1.11v-3.65c-5.69-.32-9.07-3.43-9.07-8.93,0-5.08,3.36-8.84,9.8-8.84a11.25,11.25,0,0,1,6.48,1.74l6.12-1.86ZM714.3,625.65h-1.06c-3.85,0-6.17,1.59-6.16,5.45,0,3.65,3.32,5.87,6.91,5.86,4,0,6.64-2.38,6.64-5.87C720.62,627.23,718,625.64,714.3,625.65Zm4.47-13.07c0-5.13-2-8.41-5.7-8.4-3.11,0-4.8,2.33-4.8,6,0,5.6,2,8.35,5.65,8.35C717.24,618.56,718.77,616.12,718.77,612.58Z"/><path class="cls-2" d="M579.58,493.69A52.33,52.33,0,0,0,631.91,546h48.5a52.33,52.33,0,1,0,0-104.65h-48.5a52.33,52.33,0,0,0-52.33,52.33Z"/><path class="cls-1" d="M618.12,506.92v.53H602.35v-.52l5.69-1.7,0-28.08-5.69-1.69v-.53h15.76v.53l-5.69,1.69,0,28.08Z"/><path class="cls-1" d="M638.28,474.91H652v.53l-3.58,1.06v21.58c0,6-1.94,10-9,10a16.56,16.56,0,0,1-5.64-1l-1.48-8.62.79-.16c1.63,4.28,4.06,7.72,7.07,7.72,2.47,0,3.63-1.81,3.63-7.41l0-22.11-5.59-1.05Z"/><path class="cls-1" d="M680,506.87v.53h-8.33v-4.29a6.94,6.94,0,0,1-6.79,5.14c-5.12,0-6.86-3.11-6.86-8.14V487.9l-3-1.1v-.53h10.6v.53l-3.37,1.11V499c0,4.13,1.06,5.93,4.38,5.92,3.16,0,5-2.22,5-6.35V487.89l-3.43-1.1v-.53h11.44v.53l-3.75,1.06,0,18Z"/><path class="cls-1" d="M697.77,503c-.68,2.64-2,5.29-5.95,5.29s-6-1.85-6.07-5.81l0-27.88-3.75-1V473h15.24v.53l-7.22.85,0,26.66c0,2.59.48,4.33,3.48,4.33A3.43,3.43,0,0,0,697,503Z"/><path class="cls-1" d="M712.75,506.85v.53H699.88v-.53l4.38-1.06,0-17.24h-4.37v-.48l8.64-2.38,0,20.09Zm-9.25-27.13a2.93,2.93,0,0,1,5.85,0,2.93,2.93,0,0,1-5.85,0Z"/><path class="cls-3" d="M114.87,233.14l27,5v2.49L74,240.66v-2.5l19.21-5L93.05,94.64l-19.22-5v-2.5l62.89,0v2.49l-22,5ZM206.35,89.56l-17,4.75-49.61,58.44,66.46,90.3-1,1.25c-15-.24-27.71-6-41.7-24.18l-43-56.37,57.1-69.18-22.72-5V87.1l51.41,0Z"/><path class="cls-3" d="M344.23,233.2,360,237.93v2.5l-64.39,0V238l25.7-5-13-39.17-57.4,0L237.92,233l26.2,5v2.49l-54.91.05v-2.5l16.72-4.75,50.3-138.8L256,90.77V87l61.89,0v3.75l-21,3.76ZM253.6,185.11l51.66,0-26-77.85Z"/><path class="cls-3" d="M376.14,182.76c5.27,32.44,17.26,51.9,46.71,51.88,23.46,0,31.94-11,31.92-29.73,0-17.22-11.5-23.45-22.23-27.43L404.83,167c-20.72-7.72-30.47-20.69-30.48-41.66,0-25.95,18.93-42.19,48.13-42.21,15.72,0,27,1.47,38.94,4.71l3.28,47.41H461c-8-31.44-17.51-42.91-40.72-42.9-19,0-29.69,9.51-29.68,27.23,0,12,6.76,20,22.49,25.94L443.5,157C462.73,164.23,473,176,473,197.91c0,27.2-16.44,46.43-55.62,46.47-13.23,0-27.21-2.73-42.43-7.46l-2.54-54.15Z"/><path class="cls-3" d="M531.42,232.8l27,5v2.5l-67.88,0v-2.49l19.21-5-.11-138.51-19.22-5V86.84l62.89,0v2.49l-22,5ZM622.89,89.23l-17,4.75-49.62,58.44,66.46,90.29-1,1.25c-15-.23-27.71-6-41.7-24.17l-43-56.37,57.1-69.18-22.72-5v-2.5l51.41,0Z"/><path class="cls-3" d="M753,128.56h-3.75L730.72,95.38l-49.92,0,.05,63.14,37.44,0,8.22-22h3.74l0,52.66h-3.74l-8.25-21.95-37.44,0,0,65.39,25.46,5v2.49l-64.88,0v-2.49l17.72-5-.11-138.51-17.73-5V86.72l107.07-.09Z"/><path class="cls-3" d="M812.94,232.58l24.46,5v2.5l-70.63,0v-2.49l24.46-5-.11-138.52-24.47-5V86.62l70.63-.06v2.5l-24.45,5Z"/><path class="cls-3" d="M966.65,194.52l3.74,1L963.44,240,854.87,240v-3.74L874.33,230l-.1-133.53-19.48-6.22V86.55l68.14-.06v3.75L895.94,96.5l.11,134.77,50.91,0Z"/><path class="cls-3" d="M1177.07,236v3.75l-63.14.05v-3.75l22-6.25-.11-132-59.53,144.3-6.24-.24-60.26-144,.1,132,25.71,6.22v3.74l-55.16,0v-3.74l19.46-6.25-.11-133.53-19.47-6.22V86.45l49.41,0,50.52,124,49.31-124.07,47.42,0V90l-19.47,6.26.11,133.52Z"/><path class="cls-3" d="M1202,182.1c5.27,32.45,17.26,51.9,46.71,51.88,23.46,0,31.94-11,31.92-29.73,0-17.22-11.5-23.45-22.23-27.43l-27.71-10.46c-20.72-7.72-30.47-20.69-30.48-41.66,0-25.95,18.93-42.19,48.13-42.21,15.72,0,27,1.47,38.94,4.71l3.28,47.42h-3.74c-8-31.44-17.51-42.91-40.72-42.9-19,0-29.69,9.51-29.67,27.23,0,12,6.75,20,22.48,25.94l30.45,11.46c19.23,7.22,29.47,18.94,29.49,40.9,0,27.21-16.44,46.44-55.62,46.47-13.23,0-27.21-2.73-42.43-7.46l-2.54-54.15Z"/><path d="M875.27,595.36l-.94,12.53c-2.9,1.68-9.8,3-15.9,3-14.24,0-23-8.87-23-22.93,0-13.49,8.7-24.21,23.67-24.22a59.4,59.4,0,0,1,14,1.81l2.19,13.92-1.09.15c-3-8.16-7.42-13.26-16.07-13.25-11.62,0-15.9,9-15.89,20,0,12,5.9,21.57,17.16,21.56,6.75,0,11.91-2.2,14.81-12.62Z"/><path d="M880.72,595.21c0-9.33,5.44-15.75,15.61-15.76,9.66,0,14.68,6.91,14.68,15.73,0,9.33-5.43,15.75-15.24,15.76C885.74,610.94,880.73,604,880.72,595.21Zm24.41,1c0-7.36-3.14-14.5-9.75-14.5s-8.78,5.62-8.78,12.47c0,7.43,3.14,14.5,9.75,14.5S905.14,603.57,905.13,596.21Z"/><path d="M952.29,608.92v.73H936.16v-.72l5.16-1.47V592c0-4.81-1.68-7.94-6.69-7.93s-7.34,3.5-7.33,9.77v13.63l5.08,1.45v.73H916.26V609l5.15-1.46,0-23.76h-5.15v-.66l10.67-3.29v7.51c2.1-5.25,6-7.95,10.6-7.95,6.46,0,9.66,4.29,9.67,10.77v17.35Z"/><path d="M970.8,620.85c6.18,1.68,7.48,4.52,7.48,8.75,0,5.9-4,9.25-11.11,9.25-3.85,0-8-1.82-9.45-5.1v5.1h-1.45V626.54h1.45v3.35c.95,4.37,4.58,6.34,9.67,6.34,4.65,0,6.68-2.41,6.68-5.1,0-3.06-1.6-3.79-4.43-4.52l-6-1.6c-3.92-1-6.83-3.43-6.83-8.09,0-6,4.58-9.55,10.46-9.55,4.07,0,7.26,1.46,8.57,4.15v-3.79h1.46v12.32h-1.46v-4.59c-1.38-4.59-4.14-5.83-8.64-5.83-3.63,0-5.89,1.89-5.89,5,0,2.84,1.46,4,4.14,4.73Z"/><path d="M1008.87,621.8H988.24c.51,7.36,4.28,11.8,10.6,11.8,4.72,0,7.27-1.31,8.87-5.1h1.16c-.73,4.81-3.85,10.35-12,10.35-9.22,0-13.51-7.14-13.51-15.67,0-8.81,4.87-15.81,13.73-15.81C1006.18,607.37,1009.74,614.66,1008.87,621.8Zm-5.52-2.19c0-5.46-2.11-10.05-7.49-10.05-4.72,0-7.55,3.49-7.7,10.05Z"/><path d="M1036.91,607.37v10.49h-1.09c-1-3.28-2.4-4.59-4.87-4.59-4.43,0-5.88,5-5.88,10.2v12l8,1.46v.73h-19V637l5.16-1.46V611.74H1014v-.65l10.68-3.72v9.4c.36-.95.87-1.82,1.3-2.7C1028.34,610,1032,607.37,1036.91,607.37Z"/><path d="M1070.66,630.66l-2.54,1-.07.15-12.28,28.35H1055l-12.27-28.43-3.2-1.09v-.73h16.2v.73l-6.32,1.17,7.92,19.24,8.14-19.32-5.82-1.09v-.73h11Z"/><path d="M1102.92,648.52h1.31v2.69c0,4.67-.8,8.46-6.54,8.46-3.27,0-5.88-1.46-6-5.32a9.25,9.25,0,0,1-8.86,5.9c-5.74,0-9.23-3.28-9.23-8.82,0-6.78,4.87-9.55,11.33-9.55a12.64,12.64,0,0,1,6.76,1.75V638c0-4.52-1-7-5.67-7-4.06,0-6,2.34-7.91,8.9H1077v-10a50.69,50.69,0,0,1,9.88-1.16c7.91,0,10.67,3.27,10.67,10.27v14c0,2,.66,3.21,2.4,3.21,2.18,0,3-1.75,3-5.54Zm-11.26.58V646a9.38,9.38,0,0,0-5.81-2c-4.14,0-6.61,2.18-6.61,6.26,0,3.57,2,5.69,5.88,5.69C1090.43,656,1091.66,651.87,1091.66,649.1Z"/><path class="cls-2" d="M1123.54,631.71c-.94,3.64-2.83,7.29-8.21,7.29-5.59,0-8.35-2.63-8.35-8.31V610.87h-6.1v-.73c6.82-1,9.8-4.08,10.89-11.66h1.09v10.2h9.66v2.19h-9.66v18.21c0,3.58.66,6,4.8,6,2.39,0,3.78-1,4.79-3.35Z"/><path class="cls-2" d="M1127.25,623.33c0-9.33,5.45-15.74,15.62-15.74,9.66,0,14.67,6.92,14.67,15.74,0,9.33-5.45,15.74-15.25,15.74C1132.26,639.07,1127.25,632.15,1127.25,623.33Zm24.41,1c0-7.36-3.13-14.5-9.74-14.5s-8.79,5.61-8.79,12.46c0,7.43,3.13,14.5,9.74,14.5S1151.66,631.71,1151.66,624.35Z"/><path d="M1184.11,579.09v10.49H1183c-1-3.28-2.39-4.59-4.86-4.59-4.44,0-5.89,5-5.89,10.21v12l8,1.46v.73h-19v-.73l5.16-1.46V583.46h-5.16v-.65l10.68-3.72v9.4a29.3,29.3,0,0,1,1.31-2.7C1175.54,581.71,1179.17,579.09,1184.11,579.09Z"/><path d="M1204.67,608.68v.73H1187v-.73l6-1.46V583.46h-6v-.65l11.91-3.28v27.69ZM1192,571.29a4,4,0,1,1,4,4A4,4,0,0,1,1192,571.29Z"/><path d="M1241.72,608.68v.73h-11.47V603.5a9.59,9.59,0,0,1-9.38,7.07c-7,0-9.44-4.3-9.44-11.22V582.52l-4.07-1.54v-.72H1222V581l-4.65,1.54v15.23c0,5.68,1.46,8.16,6,8.16,4.36,0,6.91-3.06,6.91-8.75V582.52l-4.73-1.54v-.72h15.77V581l-5.16,1.46v24.78Z"/><path d="M1301.44,608.75v.73h-15.76v-.73l4.79-1.46V592.13c0-5.39-1.52-8.23-6.54-8.23-5.23,0-7,4.3-7,9.62v13.77l5.23,1.46v.73h-16.35v-.73l5.23-1.46V592.13c0-5-1.16-8.23-6.61-8.3-4.94-.08-7,3.79-7.05,9.32v14.07l5.09,1.46v.73H1246.3v-.73l5.16-1.46V583.46h-5.52v-.65l11-3.28V587c2.11-5.24,6-8,10.32-7.94,5.23.07,8.42,3,9.3,7.8,2.1-4.89,5.66-7.73,10.24-7.73,6.25,0,9.52,4.3,9.52,10.79v17.34Z"/><path d="M875.22,656.73l-.94,12.53c-2.91,1.68-9.81,3-15.91,3-14.24,0-23-8.89-23-23,0-13.49,8.72-24.2,23.68-24.2A59.27,59.27,0,0,1,873,626.92l2.18,13.92-1.09.15c-3-8.16-7.41-13.27-16-13.27-11.63,0-15.91,9-15.91,20,0,12,5.88,21.57,17.14,21.57,6.76,0,11.92-2.19,14.82-12.61Z"/><path d="M880.67,656.58c0-9.32,5.45-15.74,15.62-15.74,9.66,0,14.68,6.93,14.68,15.74,0,9.33-5.45,15.74-15.26,15.74C885.69,672.32,880.67,665.4,880.67,656.58Zm24.41,1c0-7.36-3.12-14.5-9.73-14.5s-8.79,5.61-8.79,12.46c0,7.44,3.12,14.51,9.73,14.51S905.08,665,905.08,657.6Z"/><path d="M952.23,670.36v.73H936.1v-.73l5.16-1.46V653.45c0-4.81-1.67-7.94-6.68-7.94s-7.34,3.49-7.34,9.76V668.9l5.09,1.46v.73H916.2v-.73l5.16-1.46V645.14H916.2v-.65l10.68-3.28v7.5c2.1-5.24,6-7.94,10.6-7.94,6.47,0,9.67,4.3,9.67,10.79V668.9Z"/><path d="M970.8,682.25c6.18,1.67,7.48,4.51,7.48,8.74,0,5.9-4,9.26-11.11,9.26-3.85,0-8-1.83-9.45-5.1v5.1h-1.45V687.93h1.45v3.35c.95,4.37,4.58,6.34,9.67,6.34,4.65,0,6.68-2.4,6.68-5.1,0-3.06-1.6-3.79-4.43-4.52l-6-1.6c-3.92-1-6.83-3.43-6.83-8.09,0-6,4.58-9.55,10.46-9.55,4.07,0,7.26,1.46,8.57,4.16v-3.79h1.46v12.31h-1.46v-4.59c-1.38-4.59-4.14-5.83-8.64-5.83-3.63,0-5.89,1.9-5.89,5,0,2.84,1.46,4,4.14,4.74Z"/><path d="M1008.87,683.19H988.24c.51,7.36,4.28,11.81,10.6,11.81,4.72,0,7.27-1.31,8.87-5.1h1.16c-.73,4.81-3.85,10.35-12,10.35-9.22,0-13.51-7.15-13.51-15.67,0-8.82,4.87-15.82,13.73-15.82C1006.18,668.76,1009.74,676.05,1008.87,683.19Zm-5.52-2.18c0-5.47-2.11-10.06-7.49-10.06-4.72,0-7.55,3.5-7.7,10.06Z"/><path d="M1036.91,668.76v10.5h-1.09c-1-3.28-2.4-4.59-4.87-4.59-4.43,0-5.88,5-5.88,10.2v12l8,1.46v.73h-19v-.73l5.16-1.46V673.14H1014v-.66l10.68-3.72v9.4c.36-.94.87-1.82,1.3-2.69C1028.34,671.39,1032,668.76,1036.91,668.76Z"/><path d="M1070.66,692.06l-2.54,1-.07.14-12.28,28.35H1055l-12.27-28.42-3.2-1.09v-.73h16.2v.73l-6.32,1.16,7.92,19.24,8.14-19.31-5.82-1.09v-.73h11Z"/><path d="M1102.92,709.91h1.31v2.7c0,4.66-.8,8.45-6.54,8.45-3.27,0-5.88-1.46-6-5.32a9.23,9.23,0,0,1-8.86,5.9c-5.74,0-9.23-3.28-9.23-8.82,0-6.77,4.87-9.54,11.33-9.54a12.64,12.64,0,0,1,6.76,1.75v-5.61c0-4.52-1-7-5.67-7-4.06,0-6,2.33-7.91,8.89H1077v-10a50.76,50.76,0,0,1,9.88-1.17c7.91,0,10.67,3.28,10.67,10.28v14c0,2,.66,3.2,2.4,3.2,2.18,0,3-1.74,3-5.53Zm-11.26.58v-3.06a9.38,9.38,0,0,0-5.81-2c-4.14,0-6.61,2.19-6.61,6.27,0,3.57,2,5.68,5.88,5.68C1090.43,717.34,1091.66,713.26,1091.66,710.49Z"/><path class="cls-2" d="M1123.54,693.1c-.94,3.65-2.83,7.29-8.21,7.29-5.59,0-8.35-2.62-8.35-8.31V672.26h-6.1v-.73c6.82-1,9.8-4.08,10.89-11.66h1.09v10.2h9.66v2.19h-9.66v18.22c0,3.57.66,6,4.8,6,2.39,0,3.78-1,4.79-3.36Z"/><path class="cls-2" d="M1127.25,684.72c0-9.33,5.45-15.74,15.62-15.74,9.66,0,14.67,6.92,14.67,15.74,0,9.33-5.45,15.74-15.25,15.74C1132.26,700.46,1127.25,693.54,1127.25,684.72Zm24.41,1c0-7.36-3.13-14.5-9.74-14.5s-8.79,5.61-8.79,12.46c0,7.44,3.13,14.5,9.74,14.5S1151.66,693.1,1151.66,685.74Z"/><path d="M1184.11,690.16v10.49H1183c-1-3.27-2.39-4.59-4.86-4.59-4.44,0-5.89,5-5.89,10.21v12l8,1.46v.73h-19v-.73l5.16-1.46V694.53h-5.16v-.65l10.68-3.72v9.4a29.3,29.3,0,0,1,1.31-2.7C1175.54,692.78,1179.17,690.16,1184.11,690.16Z"/><path d="M1204.67,719.75v.73H1187v-.73l6-1.46V694.53h-6v-.65l11.91-3.28v27.69ZM1192,682.36a4,4,0,1,1,4,4A4,4,0,0,1,1192,682.36Z"/><path d="M1241.72,719.75v.73h-11.47v-5.91a9.59,9.59,0,0,1-9.38,7.07c-7,0-9.44-4.3-9.44-11.22V693.59l-4.07-1.53v-.73H1222v.73l-4.65,1.53v15.23c0,5.68,1.46,8.16,6,8.16,4.36,0,6.91-3.06,6.91-8.75V693.59l-4.73-1.53v-.73h15.77v.73l-5.16,1.45v24.78Z"/><path d="M1301.44,719.82v.73h-15.76v-.73l4.79-1.46V703.21c0-5.4-1.52-8.24-6.54-8.24-5.23,0-7,4.3-7,9.62v13.77l5.23,1.46v.73h-16.35v-.73l5.23-1.46V703.21c0-5-1.16-8.24-6.61-8.31-4.94-.08-7,3.79-7.05,9.33v14.06l5.09,1.46v.73H1246.3v-.73l5.16-1.46V694.53h-5.52v-.65l11-3.28v7.5c2.11-5.24,6-8,10.32-7.94,5.23.07,8.42,3,9.3,7.8,2.1-4.88,5.66-7.73,10.24-7.73,6.25,0,9.52,4.3,9.52,10.79v17.34Z"/><path d="M875.22,534.5,874.28,547c-2.91,1.68-9.81,3-15.91,3-14.24,0-23-8.89-23-23,0-13.48,8.72-24.19,23.68-24.19A59.27,59.27,0,0,1,873,504.69l2.18,13.92-1.09.15c-3-8.17-7.41-13.27-16-13.27-11.63,0-15.91,9-15.91,20,0,12,5.88,21.58,17.14,21.58,6.76,0,11.92-2.19,14.82-12.61Z"/><path d="M880.67,534.35c0-9.33,5.45-15.74,15.62-15.74,9.66,0,14.68,6.92,14.68,15.74,0,9.33-5.45,15.74-15.26,15.74C885.69,550.09,880.67,543.17,880.67,534.35Zm24.41,1c0-7.36-3.12-14.5-9.73-14.5s-8.79,5.61-8.79,12.46c0,7.44,3.12,14.5,9.73,14.5S905.08,542.73,905.08,535.37Z"/><path d="M952.23,548.13v.72H936.1v-.72l5.16-1.46V531.22c0-4.81-1.67-8-6.68-8s-7.34,3.5-7.34,9.77v13.63l5.09,1.46v.72H916.2v-.72l5.16-1.46V522.91H916.2v-.66L926.88,519v7.5c2.1-5.25,6-7.94,10.6-7.94,6.47,0,9.67,4.3,9.67,10.78v17.35Z"/><path d="M970.8,560c6.18,1.67,7.48,4.51,7.48,8.74,0,5.9-4,9.26-11.11,9.26-3.85,0-8-1.83-9.45-5.11V578h-1.45V565.7h1.45v3.35c.95,4.37,4.58,6.34,9.67,6.34,4.65,0,6.68-2.4,6.68-5.1,0-3.06-1.6-3.79-4.43-4.52l-6-1.6c-3.92-1-6.83-3.43-6.83-8.09,0-6.05,4.58-9.55,10.46-9.55,4.07,0,7.26,1.46,8.57,4.16V546.9h1.46v12.31h-1.46v-4.59c-1.38-4.59-4.14-5.83-8.64-5.83-3.63,0-5.89,1.9-5.89,5,0,2.84,1.46,4,4.14,4.74Z"/><path d="M1008.87,561H988.24c.51,7.36,4.28,11.81,10.6,11.81,4.72,0,7.27-1.31,8.87-5.1h1.16c-.73,4.81-3.85,10.35-12,10.35-9.22,0-13.51-7.15-13.51-15.67,0-8.82,4.87-15.82,13.73-15.82C1006.18,546.53,1009.74,553.82,1008.87,561Zm-5.52-2.18c0-5.47-2.11-10.06-7.49-10.06-4.72,0-7.55,3.5-7.7,10.06Z"/><path d="M1036.91,546.53V557h-1.09c-1-3.28-2.4-4.59-4.87-4.59-4.43,0-5.88,4.95-5.88,10.2v12l8,1.46v.73h-19v-.73l5.16-1.46V550.91H1014v-.66l10.68-3.72v9.4c.36-.94.87-1.82,1.3-2.69C1028.34,549.16,1032,546.53,1036.91,546.53Z"/><path d="M1070.66,569.82l-2.54,1-.07.15-12.28,28.35H1055l-12.27-28.42-3.2-1.1v-.73h16.2v.73l-6.32,1.17,7.92,19.24,8.14-19.31-5.82-1.1v-.73h11Z"/><path d="M1102.92,587.68h1.31v2.69c0,4.67-.8,8.46-6.54,8.46-3.27,0-5.88-1.46-6-5.32a9.25,9.25,0,0,1-8.86,5.9c-5.74,0-9.23-3.28-9.23-8.82,0-6.77,4.87-9.54,11.33-9.54a12.55,12.55,0,0,1,6.76,1.75v-5.62c0-4.51-1-7-5.67-7-4.06,0-6,2.33-7.91,8.89H1077v-10a51.47,51.47,0,0,1,9.88-1.16c7.91,0,10.67,3.28,10.67,10.27v14c0,2,.66,3.2,2.4,3.2,2.18,0,3-1.75,3-5.54Zm-11.26.58V585.2a9.38,9.38,0,0,0-5.81-2c-4.14,0-6.61,2.19-6.61,6.27,0,3.57,2,5.68,5.88,5.68C1090.43,595.11,1091.66,591,1091.66,588.26Z"/><path class="cls-2" d="M1123.54,570.87c-.94,3.65-2.83,7.29-8.21,7.29-5.59,0-8.35-2.62-8.35-8.31V550h-6.1v-.73c6.82-1,9.8-4.08,10.89-11.66h1.09v10.2h9.66V550h-9.66v18.22c0,3.57.66,6,4.8,6,2.39,0,3.78-1,4.79-3.35Z"/><path class="cls-2" d="M1127.25,562.49c0-9.33,5.45-15.74,15.62-15.74,9.66,0,14.67,6.92,14.67,15.74,0,9.33-5.45,15.74-15.25,15.74C1132.26,578.23,1127.25,571.31,1127.25,562.49Zm24.41,1c0-7.36-3.13-14.5-9.74-14.5s-8.79,5.61-8.79,12.46c0,7.43,3.13,14.5,9.74,14.5S1151.66,570.87,1151.66,563.51Z"/><path d="M1184.08,518.33l0,10.49H1183c-1-3.27-2.4-4.58-4.87-4.58-4.44,0-5.88,5-5.87,10.21l0,12,8,1.44v.73l-19,0V548l5.15-1.46,0-23.76h-5.15v-.66l10.67-3.73v9.4c.37-1,.87-1.82,1.31-2.7C1175.52,521,1179.14,518.34,1184.08,518.33Z"/><path d="M1204.69,547.88v.73l-17.72,0v-.73l6-1.47,0-23.75h-6V522l11.91-3.3.05,27.7Zm-12.77-37.36a4,4,0,1,1,4,4A4,4,0,0,1,1191.92,510.52Z"/><path d="M1241.74,547.82v.73l-11.47,0v-5.9a9.6,9.6,0,0,1-9.36,7.08c-7.05,0-9.46-4.28-9.47-11.21l0-16.83-4.07-1.52v-.73l14.61,0v.73l-4.65,1.54,0,15.23c0,5.69,1.46,8.16,6,8.15,4.36,0,6.89-3.07,6.89-8.75l0-14.65-4.72-1.52v-.73l15.76,0v.73l-5.15,1.47,0,24.78Z"/><path d="M1301.46,547.8v.73l-15.76,0v-.73l4.79-1.47,0-15.16c0-5.39-1.54-8.23-6.55-8.22-5.23,0-7,4.31-7,9.63l0,13.77,5.24,1.45v.73l-16.35,0v-.73l5.23-1.47,0-15.16c0-5-1.17-8.23-6.62-8.29-4.94-.07-7,3.8-7,9.34l0,14.06,5.09,1.45v.73l-16.13,0v-.73l5.16-1.47,0-23.76h-5.52V522l11-3.3,0,7.51c2.09-5.26,5.94-8,10.3-8,5.23.06,8.43,3,9.31,7.78,2.1-4.89,5.65-7.74,10.23-7.74,6.25,0,9.52,4.28,9.53,10.77l0,17.34Z"/><path class="cls-4" d="M156.58,525.79l.49,2-36.72,8.95-.49-2,9.57-5.91-17.61-72.23-11.22-.84-.49-2,34-8.29.49,2-11.05,6.28L141.18,526ZM144.77,480.9l46.76,39.23.33,1.35c-8.14,1.85-15.78.42-25.74-7.59l-29.59-24-.49-2,20.2-42.11-.14,0-13-.41-.49-2,27.94-6.82.5,2-7.31,5.21Z"/><path class="cls-4" d="M253.07,471.81l9.13.49.33,1.35-34.83,8.5-.33-1.36,13.25-6.09-12.19-19.48-31.05,7.57-1.85,22.91,14.83-.76.33,1.35L181,493.53l-.33-1.35,8.42-4.77,9-81.71-11.43.64-.49-2,33.48-8.17.49,2L209.26,403ZM197.71,457.7l27.95-6.81-24.31-38.7Z"/><path class="cls-4" d="M270.69,442.82c7.12,16.86,16.17,25.81,32.1,21.93,12.69-3.09,15.83-10.15,13.36-20.28-2.27-9.31-9.3-11.17-15.63-11.92l-16.37-2c-12.23-1.45-19.21-7.19-22-18.53-3.42-14,4.7-25.31,20.49-29.17a77.75,77.75,0,0,1,21.69-2.56l8,25.22-2,.49c-8.46-16-15.11-20.91-27.66-17.85-10.26,2.5-14.82,9-12.48,18.63,1.58,6.48,6.28,9.91,15.57,11.08l18,2.19c11.35,1.38,18.43,6.38,21.32,18.26,3.59,14.72-2.78,27.28-24,32.45-7.16,1.75-15.08,2.1-23.94,1.55l-8.49-29Z"/><path class="cls-4" d="M365.59,472.69l15.24-.85.33,1.35-36.72,8.95-.33-1.35,9.74-5.23-18.27-74.93-11.05-.17-.33-1.35,34-8.29.33,1.35-11.22,5.59ZM396.22,383l-8.56,4.81L368.5,425.93l47.82,40.12-.37.8c-8.14,1.84-15.78.42-25.74-7.6L359.55,434.4l21.8-44.93-13,.29-.33-1.35,27.82-6.78Z"/><path class="cls-4" d="M368.46,574.51l8.56-4.8,19.16-38.15-47.83-40.11.38-.81c8.13-1.84,15.77-.41,25.74,7.6l30.66,24.85L383.33,568l12.94-.29.33,1.35-27.81,6.78Zm30.62-89.71-15.24.85-.33-1.35,36.73-8.95.33,1.35-9.74,5.24,18.27,74.93,11,.16.33,1.35-34,8.3-.33-1.35,11.22-5.6Z"/><path class="cls-4" d="M287.51,540.32l-9.13-.5-.33-1.35L312.89,530l.33,1.35L300,537.42l12.19,19.49,31-7.57,1.85-22.91-14.83.75-.33-1.35,29.7-7.24.33,1.35-8.42,4.77-9,81.72,11.43-.64.49,2L321,616l-.5-2,10.85-4.79Zm55.36,14.1-27.94,6.82,24.31,38.7Z"/><path class="cls-4" d="M268.84,569.56c-7.12-16.86-16.16-25.81-32.09-21.93-12.7,3.09-15.84,10.15-13.37,20.28,2.27,9.31,9.31,11.18,15.64,11.92l16.37,2c12.22,1.45,19.2,7.19,22,18.53,3.43,14-4.7,25.32-20.49,29.17a78.17,78.17,0,0,1-21.69,2.57l-8-25.23,2-.49c8.47,16,15.11,20.92,27.67,17.85,10.26-2.5,14.81-9,12.47-18.63-1.58-6.48-6.27-9.91-15.57-11.08l-18-2.19c-11.35-1.38-18.44-6.38-21.33-18.26-3.59-14.71,2.79-27.28,24-32.45,7.16-1.74,15.08-2.1,23.94-1.54l8.49,29Z"/><path class="cls-4" d="M144.37,629.14l8.55-4.8,19.17-38.14-47.83-40.12.38-.81c8.13-1.84,15.77-.41,25.74,7.6L181,577.72l-21.8,44.94,12.94-.3.33,1.35-27.81,6.78ZM175,539.43l-15.24.86-.33-1.35,36.73-9,.32,1.36-9.73,5.23L205,611.5l11.06.16.33,1.36-34,8.29L182,620l11.22-5.6Z"/><ellipse class="cls-5" cx="271.59" cy="512.3" rx="215.15" ry="157.38" transform="translate(-113.61 78.91) rotate(-13.7)"/><path class="cls-3" d="M138.51,367.33v1.41l-31.28,0v-1.41l10-2.82,0-47.84-26.51,0,0,47.84,10,2.81v1.41l-31.28,0v-1.4l10-2.83,0-47.84h-10v-4.22h10v-9c0-17.17,7.28-28.43,24.95-28.44a110.67,110.67,0,0,1,19.22,1.67l0,23.36h-2.11c-3.23-12.66-6.75-21-19-20.95-9.26,0-14,5.22-14,14.08,0,6.62,1.14,12,2.12,19.28l38,0,0,52.06Z"/><path class="cls-3" d="M179.33,356.88c-1.81,7-5.45,14.08-15.83,14.09-10.67,0-16-4.91-16.15-15.47l-.06-74.15-10-2.67v-1.41l40.54,0v1.41l-19.22,2.26.06,70.93c0,6.89,1.27,11.53,9.27,11.53,4.63,0,7.29-2,9.25-6.48Z"/><path class="cls-3" d="M290.8,367.35v1.41l-30.44,0v-1.41l9.26-2.82,0-29.27c0-10.41-3-15.9-12.64-15.89-10.1,0-13.6,8.31-13.59,18.59l0,26.59,10.11,2.81v1.41l-31.56,0V367.4l10.1-2.82,0-29.27c0-9.57-2.26-15.9-12.78-16-9.54-.13-13.46,7.33-13.59,18l0,27.16,9.82,2.81v1.41l-31.14,0v-1.41l10-2.82,0-45.87H183.59v-1.27L204.91,311v14.49c4.06-10.13,11.49-15.48,19.9-15.35,10.1.13,16.28,5.76,18,15,4.06-9.43,10.93-14.92,19.77-14.93,12.06,0,18.38,8.29,18.39,20.81l0,33.49Z"/><path class="cls-3" d="M392.48,348.13H395v5.21c0,9-1.53,16.32-12.61,16.33-6.32,0-11.37-2.81-11.65-10.26-2.81,6.19-8,11.4-17.11,11.41-11.08,0-17.82-6.32-17.83-17,0-13.08,9.39-18.44,21.87-18.45a24.43,24.43,0,0,1,13.05,3.37V327.88c0-8.72-2-13.5-11-13.5-7.86,0-11.64,4.52-15.28,17.18h-2.1l0-19.28A99.07,99.07,0,0,1,361.45,310c15.29,0,20.62,6.32,20.63,19.83l0,27c0,3.94,1.26,6.19,4.63,6.19,4.21,0,5.75-3.38,5.74-10.7Zm-21.74,1.14v-5.91a18.12,18.12,0,0,0-11.22-3.93c-8,0-12.76,4.23-12.76,12.11,0,6.9,3.94,11,11.37,11C368.36,362.5,370.74,354.62,370.74,349.27Z"/><path class="cls-3" d="M470.16,367.07v1.4l-31.14,0v-1.41l10-2.82,0-29.83c0-9.29-3.24-15.34-12.91-15.33s-14.17,6.76-14.16,18.87l0,26.31,9.82,2.81v1.4l-31.14,0v-1.41l10-2.82,0-45.88h-9.95v-1.26l20.62-6.35v14.49C425.23,315.18,432.8,310,441.64,310c12.48,0,18.66,8.28,18.67,20.81l0,33.49Z"/><path class="cls-3" d="M538.51,367v1.41l-22.17,0V358.3c-2.94,7.32-9.67,12.39-19.48,12.4-16.56,0-23.44-13.63-23.45-29.95,0-18.44,9.51-30.83,27.47-30.84,6,0,11.92,1.82,15.43,5.19l0-34.47-15-2.24V277l36.33,0v1.41l-10,2.68.07,83.17ZM516.33,345.5V330.3c-1-9-4.92-16.18-15.58-16.17-12.21,0-16.55,10-16.54,23.51s4.51,23.22,16.44,23.21C507.93,360.84,516.34,357.88,516.33,345.5Z"/><path class="cls-3" d="M641.46,347.93H644v5.21c0,9-1.53,16.32-12.62,16.33-6.31,0-11.36-2.81-11.65-10.26-2.8,6.19-8,11.4-17.1,11.41-11.08,0-17.82-6.32-17.83-17,0-13.09,9.38-18.45,21.87-18.46a24.43,24.43,0,0,1,13.05,3.37V327.69c0-8.73-2-13.51-11-13.5-7.86,0-11.64,4.51-15.28,17.18h-2.1l0-19.28a99.07,99.07,0,0,1,19.08-2.27c15.29,0,20.62,6.32,20.63,19.83l0,27c0,3.94,1.27,6.2,4.64,6.19,4.21,0,5.75-3.38,5.74-10.7Zm-21.75,1.14v-5.91a18.14,18.14,0,0,0-11.22-3.93c-8,0-12.77,4.24-12.76,12.12,0,6.89,3.94,11,11.37,11C617.34,362.3,619.72,354.42,619.71,349.07Z"/><path class="cls-3" d="M719.14,366.87v1.4l-31.14,0v-1.41l10-2.82,0-29.83c0-9.29-3.24-15.34-12.92-15.33s-14.16,6.77-14.15,18.87l0,26.31,9.82,2.81v1.4l-31.14,0v-1.41l10-2.82,0-45.87h-10V317l20.62-6.35v14.49c4.06-10.13,11.63-15.34,20.47-15.35,12.48,0,18.66,8.29,18.67,20.81l0,33.49Z"/><path class="cls-3" d="M759.89,366.83v1.41l-34.23,0v-1.41L737.3,364l0-45.88H725.62v-1.26l23-6.35,0,53.47Zm-24.61-72.16A7.79,7.79,0,1,1,743,302.4,7.67,7.67,0,0,1,735.28,294.67Z"/><path class="cls-3" d="M873,366.88v1.41l-30.44,0v-1.41l9.25-2.82,0-29.27c0-10.41-3-15.9-12.64-15.89-10.1,0-13.6,8.31-13.59,18.58l0,26.6,10.1,2.8v1.41l-31.56,0v-1.41l10.1-2.82,0-29.27c0-9.57-2.25-15.9-12.77-16-9.54-.14-13.46,7.32-13.6,18l0,27.16,9.82,2.8v1.41l-31.14,0v-1.41l9.95-2.82,0-45.88H765.84v-1.26l21.31-6.35V325c4.06-10.14,11.49-15.49,19.91-15.35,10.1.13,16.28,5.75,18,15,4.06-9.43,10.93-14.93,19.76-14.93,12.07,0,18.39,8.28,18.4,20.81l0,33.49Z"/><path class="cls-3" d="M935.08,347.7h2.52v5.2c0,9-1.53,16.33-12.61,16.34-6.32,0-11.37-2.81-11.66-10.27-2.8,6.2-8,11.41-17.1,11.41-11.08,0-17.82-6.31-17.83-17,0-13.09,9.38-18.44,21.87-18.45a24.43,24.43,0,0,1,13.05,3.37V327.45c0-8.72-2-13.51-11-13.5-7.86,0-11.64,4.51-15.28,17.18H885l0-19.28a98.22,98.22,0,0,1,19.08-2.26c15.29,0,20.62,6.31,20.63,19.82l0,27c0,3.94,1.27,6.19,4.64,6.19,4.21,0,5.75-3.38,5.74-10.7Zm-21.74,1.14v-5.91A18.14,18.14,0,0,0,902.11,339c-8,0-12.77,4.23-12.76,12.11,0,6.9,3.94,11,11.37,11C911,362.07,913.34,354.19,913.34,348.84Z"/><path class="cls-3" d="M979.83,356.25c-1.82,7-5.46,14.07-15.84,14.08-10.8,0-16.13-5.05-16.14-16l0-38.27H936v-1.41c13.19-2,18.93-7.9,21-22.53h2.1l0,19.7,18.65,0V316l-18.66,0,0,35.18c0,6.89,1.27,11.53,9.27,11.53,4.62,0,7.29-2,9.25-6.48Z"/><path class="cls-3" d="M1019.37,366.63V368l-34.23,0v-1.41l11.64-2.82,0-45.87H985.1V316.7l23-6.35,0,53.47Zm-24.61-72.17a7.79,7.79,0,1,1,7.72,7.73A7.69,7.69,0,0,1,994.76,294.46Z"/><path class="cls-3" d="M1071.1,337.32l-39.84,0c1,14.21,8.3,22.79,20.5,22.78,9.12,0,14-2.55,17.11-9.87h2.24c-1.39,9.29-7.42,20-23.13,20-17.81,0-26.1-13.77-26.11-30.23,0-17,9.37-30.54,26.48-30.56C1065.89,309.46,1072.77,323.53,1071.1,337.32Zm-10.66-4.22c0-10.55-4.09-19.41-14.47-19.4-9.11,0-14.58,6.76-14.85,19.43Z"/><path class="cls-3" d="M1146.86,366.53v1.4l-31.28,0v-1.41l10-2.82,0-47.85-26.52,0,0,47.84,10,2.81V368l-31.28,0v-1.41l10-2.82,0-47.85h-10V311.7h10v-9c0-17.17,7.27-28.43,25-28.45a111.69,111.69,0,0,1,19.22,1.68v23.35h-2.1c-3.24-12.67-6.75-21-19-20.95-9.26,0-14,5.21-14,14.08,0,6.61,1.13,12,2.12,19.27l38,0,.05,52.07Z"/><path class="cls-3" d="M1187.68,356.08c-1.82,7-5.46,14.08-15.84,14.08-10.66,0-16-4.91-16.14-15.46l-.06-74.16-10-2.67v-1.4l40.54,0v1.4L1167,280.11l.06,70.92c0,6.9,1.27,11.54,9.26,11.53,4.63,0,7.3-2,9.26-6.48Z"/><path class="cls-3" d="M1299.15,366.54V368l-30.44,0v-1.41l9.25-2.82,0-29.27c0-10.42-3-15.9-12.64-15.89-10.1,0-13.6,8.31-13.59,18.58l0,26.6,10.1,2.8V368l-31.56,0V366.6l10.1-2.82,0-29.27c0-9.57-2.25-15.9-12.77-16-9.54-.14-13.46,7.32-13.6,18l0,27.16,9.82,2.8v1.41l-31.14,0v-1.41l10-2.82,0-45.88h-10.66v-1.26l21.31-6.35v14.49c4.06-10.14,11.49-15.49,19.91-15.35,10.1.13,16.28,5.75,18,15,4.06-9.43,10.93-14.93,19.76-14.93,12.07,0,18.39,8.28,18.4,20.81l0,33.49Z"/><path d="M875.3,472l-.92,12.53c-2.9,1.69-9.8,3-15.9,3-14.24,0-23-8.86-23-22.92,0-13.48,8.68-24.21,23.65-24.23a58.93,58.93,0,0,1,14,1.8l2.2,13.91-1.09.15c-3-8.16-7.43-13.25-16.08-13.24-11.62,0-15.89,9.06-15.87,20.07,0,12,5.91,21.56,17.17,21.54,6.76,0,11.92-2.2,14.8-12.63Z"/><path d="M880.75,471.8c0-9.32,5.43-15.75,15.6-15.76,9.66,0,14.68,6.9,14.7,15.72,0,9.32-5.43,15.75-15.23,15.76C885.79,487.54,880.77,480.62,880.75,471.8Zm24.42,1c0-7.36-3.15-14.5-9.76-14.49s-8.78,5.62-8.77,12.47c0,7.44,3.14,14.5,9.76,14.49C902.86,485.25,905.18,480.15,905.17,472.79Z"/><path d="M952.33,485.46v.73l-16.13,0v-.73l5.15-1.47,0-15.45c0-4.81-1.69-7.94-6.7-7.93s-7.33,3.51-7.32,9.78l0,13.63,5.09,1.44v.73l-16.13,0v-.73l5.16-1.46,0-23.76h-5.16v-.66l10.67-3.3,0,7.51c2.09-5.25,6-7.95,10.59-8,6.47,0,9.67,4.28,9.68,10.77l0,17.34Z"/><path d="M970.8,445.65c6.18,1.68,7.48,4.52,7.48,8.75,0,5.9-4,9.25-11.11,9.25-3.85,0-8-1.82-9.45-5.1v5.1h-1.45V451.33h1.45v3.36c.95,4.37,4.58,6.34,9.67,6.34,4.65,0,6.68-2.41,6.68-5.1,0-3.07-1.6-3.79-4.43-4.52l-6-1.61c-3.92-1-6.83-3.42-6.83-8.09,0-6,4.58-9.54,10.46-9.54,4.07,0,7.26,1.46,8.57,4.15v-3.79h1.46v12.32h-1.46v-4.59c-1.38-4.59-4.14-5.83-8.64-5.83-3.63,0-5.89,1.89-5.89,5,0,2.84,1.46,4,4.14,4.73Z"/><path d="M1008.87,446.6H988.24c.5,7.36,4.28,11.8,10.6,11.8,4.72,0,7.27-1.31,8.87-5.1h1.16c-.73,4.81-3.85,10.35-12,10.35-9.23,0-13.51-7.14-13.51-15.67,0-8.82,4.87-15.81,13.73-15.81C1006.18,432.17,1009.74,439.46,1008.87,446.6Zm-5.52-2.19c0-5.46-2.11-10.06-7.49-10.06-4.72,0-7.55,3.5-7.7,10.06Z"/><path d="M1036.91,432.17v10.49h-1.09c-1-3.28-2.4-4.59-4.87-4.59-4.43,0-5.88,5-5.88,10.2v12l8,1.46v.72h-19v-.72l5.15-1.46V436.54H1014v-.66l10.68-3.71v9.4c.36-.95.87-1.82,1.3-2.7C1028.34,434.79,1032,432.17,1036.91,432.17Z"/><path class="cls-6" d="M1070.66,457.85l-2.54,1-.07.15-12.28,28.35H1055l-12.27-28.43-3.2-1.09v-.73h16.2v.73l-6.32,1.17,7.92,19.24,8.14-19.32-5.82-1.09v-.73h11Z"/><path class="cls-6" d="M1102.92,475.71h1.31v2.69c0,4.67-.8,8.46-6.54,8.46-3.27,0-5.89-1.46-6-5.32a9.25,9.25,0,0,1-8.86,5.9c-5.74,0-9.23-3.28-9.23-8.82,0-6.78,4.87-9.55,11.33-9.55a12.64,12.64,0,0,1,6.76,1.75v-5.61c0-4.52-1-7-5.67-7-4.07,0-6,2.33-7.92,8.89H1077v-10a50.86,50.86,0,0,1,9.88-1.16c7.92,0,10.68,3.28,10.68,10.27v14c0,2,.66,3.21,2.4,3.21,2.18,0,3-1.75,3-5.54Zm-11.26.58v-3.06a9.38,9.38,0,0,0-5.81-2c-4.14,0-6.61,2.18-6.61,6.27,0,3.57,2,5.68,5.88,5.68C1090.42,483.14,1091.66,479.06,1091.66,476.29Z"/><path d="M1184,456v10.49H1183c-1-3.28-2.4-4.59-4.87-4.59-4.43,0-5.88,5-5.88,10.2v12l8,1.45v.73h-19v-.73l5.16-1.45V460.33h-5.16v-.66l10.68-3.71v9.4c.37-.95.88-1.82,1.31-2.7C1175.47,458.58,1179.1,456,1184,456Z"/><path d="M1204.6,485.54v.73h-17.73v-.73l6-1.45V460.33h-6v-.66l11.92-3.28v27.7Zm-12.72-37.38a4,4,0,1,1,4,4A4,4,0,0,1,1191.88,448.16Z"/><path d="M1241.65,485.54v.73h-11.48v-5.9a9.59,9.59,0,0,1-9.37,7.07c-7,0-9.45-4.3-9.45-11.22V459.38l-4.06-1.53v-.73h14.6v.73l-4.65,1.53v15.23c0,5.69,1.45,8.17,6,8.17,4.36,0,6.9-3.07,6.9-8.75V459.38l-4.72-1.53v-.73h15.76v.73l-5.16,1.46v24.78Z"/><path d="M1301.37,485.62v.73H1285.6v-.73l4.8-1.46V469c0-5.39-1.53-8.23-6.54-8.23-5.23,0-7,4.3-7,9.62v13.77l5.23,1.46v.73H1265.7v-.73l5.23-1.46V469c0-4.95-1.17-8.23-6.62-8.31-4.93-.07-7,3.79-7,9.33v14.07l5.08,1.45v.73h-16.12v-.73l5.15-1.45V460.33h-5.52v-.66l11.05-3.28v7.51c2.1-5.25,5.95-8,10.31-7.94,5.23.07,8.43,3,9.3,7.79,2.11-4.88,5.67-7.72,10.24-7.72,6.25,0,9.52,4.3,9.52,10.79v17.34Z"/><path class="cls-2" d="M1123.54,456.36c-.94,3.65-2.83,7.29-8.21,7.29-5.59,0-8.35-2.62-8.35-8.31V435.52h-6.1v-.73c6.82-1,9.8-4.08,10.89-11.66h1.09v10.2h9.66v2.19h-9.66v18.22c0,3.57.66,6,4.8,6,2.39,0,3.78-1,4.79-3.36Z"/><path class="cls-2" d="M1127.25,448c0-9.33,5.45-15.74,15.62-15.74,9.66,0,14.67,6.92,14.67,15.74,0,9.33-5.45,15.74-15.25,15.74C1132.26,463.72,1127.25,456.8,1127.25,448Zm24.41,1c0-7.36-3.13-14.5-9.74-14.5s-8.79,5.61-8.79,12.46c0,7.44,3.13,14.5,9.74,14.5S1151.66,456.36,1151.66,449Z"/></g></svg>