<?xml version="1.0" encoding="UTF-8"?>
<svg id="Layer_1" data-name="Layer 1" xmlns="http://www.w3.org/2000/svg" viewBox="0 0 1366 768">
  <defs>
    <style>
      .cls-1 {
        fill: #ccbbe4;
      }

      .cls-1, .cls-2 {
        stroke-width: 0px;
      }

      .cls-2 {
        fill: #12100b;
      }
    </style>
  </defs>
  <rect class="cls-1" x="-46.56" y="-71.14" width="1446" height="930.38"/>
  <g>
    <path class="cls-2" d="M170.39,91.35c31.15,0,56.32,25.44,56.32,56.32,0,15.57-6.49,28.29-16.87,36.86,8.05,8.31,13.24,19.73,13.24,33.22,0,30.63-25.44,56.06-56.58,56.06h-69.04V91.35h72.93ZM133.79,167.65h36.6c11.16,0,19.99-9.34,19.99-19.99s-9.08-19.99-19.99-19.99h-36.6v39.97ZM133.79,237.47h32.7c10.9,0,19.99-9.34,19.99-19.99s-9.08-19.99-19.99-19.99h-32.7v39.97Z"/>
    <path class="cls-2" d="M434.35,182.71c0,51.91-42.31,94.22-94.48,94.22s-94.74-42.57-94.74-94.22,42.57-94.48,94.74-94.48,94.48,42.83,94.48,94.48ZM281.48,182.97c0,31.67,26.21,57.62,58.14,57.62s58.4-25.96,58.4-57.88-26.21-58.14-58.4-58.14-58.14,26.47-58.14,58.4Z"/>
    <path class="cls-2" d="M556.6,273.81c-69.3,0-106.16-36.86-106.16-91.1s36.86-91.36,106.16-91.36h157.03c69.3,0,106.16,36.86,106.16,91.1s-36.86,91.36-106.16,91.36h-157.03ZM713.63,237.47c46.46,0,69.82-20.5,69.82-55.03s-23.36-54.77-69.82-54.77h-157.03c-46.46,0-69.82,20.51-69.82,55.03s23.36,54.77,69.82,54.77h157.03Z"/>
    <path class="cls-2" d="M858.72,91.35l77.61,80.46,77.61-80.46h11.42v182.46h-36.34v-103.3l.52-3.11-50.61,53.99h-5.19l-50.87-53.99.78,3.11v103.3h-36.34V91.35h11.42Z"/>
    <path class="cls-2" d="M1100.11,256.68c0,11.16-9.08,20.25-20.5,20.25s-20.5-9.08-20.5-20.25,8.83-20.5,20.25-20.5,20.76,9.34,20.76,20.5ZM1097.77,91.35l-2.34,124.84h-31.15l-2.86-124.84h36.34Z"/>
  </g>
  <g>
    <path class="cls-2" d="M157.41,300.2c32.7,0,55.28,23.62,55.28,52.69,0,19.73-9.34,34.78-27.77,42.31,12.72,6.75,21.28,20.76,21.28,37.63,0,27.51-22.06,49.83-50.35,49.83h-53.21v-182.46h54.77ZM122.37,384.29h36.08c21.02,0,34.52-13.5,34.52-31.41s-13.5-32.96-35.56-32.96h-35.04v64.37ZM122.37,462.94h33.48c16.09,0,30.63-13.24,30.63-30.11s-14.54-29.33-30.63-29.33h-33.48v59.44Z"/>
    <path class="cls-2" d="M331.05,297.6c52.17,0,94.22,42.05,94.22,93.96s-42.05,93.7-94.22,93.7-93.96-41.53-93.96-93.7,41.79-93.96,93.96-93.96ZM331.05,465.79c41.27,0,74.49-32.96,74.49-74.23s-33.22-74.23-74.49-74.23-74.23,33.22-74.23,74.23,32.96,74.23,74.23,74.23Z"/>
    <path class="cls-2" d="M547,482.66c-62.03,0-98.89-37.89-98.89-91.1s36.86-91.36,98.89-91.36h158.33c62.03,0,98.89,38.15,98.89,91.36s-36.86,91.1-98.89,91.1h-158.33ZM705.33,462.94c49.83,0,79.16-29.07,79.16-71.38s-29.33-71.64-79.16-71.64h-158.33c-49.83,0-79.16,29.33-79.16,71.64s29.33,71.38,79.16,71.38h158.33Z"/>
    <path class="cls-2" d="M838.22,300.2l47.76,110.83,48.54-110.83h7.01v182.46h-18.43v-114.98l-35.04,80.46h-4.41l-33.74-80.46v114.98h-18.43v-182.46h6.75Z"/>
    <path class="cls-2" d="M989.02,459.82c7.27,0,12.98,5.71,12.98,12.98s-5.71,12.98-12.98,12.98-12.98-5.71-12.98-12.98,5.71-12.98,12.98-12.98ZM998.88,300.2l-1.56,137.56h-16.61l-1.56-137.56h19.73Z"/>
  </g>
  <g>
    <path class="cls-2" d="M347.66,509.89c38.93,0,64.11,25.18,64.11,56.32,0,17.13-7.79,29.33-19.73,37.38,9.6,8.31,15.83,19.73,15.83,32.96,0,31.15-25.18,55.8-64.11,55.8H97.46v-182.46h250.21ZM133.79,586.2h213.09c18.69,0,27.51-9.08,27.51-19.99s-8.83-19.99-27.51-19.99h-213.09v39.97ZM133.79,656.02h209.2c18.69,0,27.51-8.57,27.51-19.47s-8.83-18.17-27.51-18.17h-209.2v37.64Z"/>
    <path class="cls-2" d="M618.64,601.25c0,51.91-42.31,94.22-94.48,94.22s-94.74-42.57-94.74-94.22,42.57-94.48,94.74-94.48,94.48,42.83,94.48,94.48ZM465.76,601.51c0,31.67,26.21,57.62,58.14,57.62s58.4-25.96,58.4-57.88-26.21-58.14-58.4-58.14-58.14,26.47-58.14,58.4Z"/>
    <path class="cls-2" d="M688.72,695.21c-32.7,0-53.99-30.63-53.99-94.22s21.02-93.7,53.99-93.7,54.25,30.89,54.25,93.7-21.02,94.22-54.25,94.22ZM688.72,659.39c10.12,0,17.91-14.28,17.91-58.4s-7.79-57.88-17.91-57.88-17.65,14.02-17.65,57.88,7.79,58.4,17.65,58.4Z"/>
    <path class="cls-2" d="M777.74,509.89l46.46,76.57,48.02-76.57h12.98v182.46h-33.74v-94.48l-24.4,45.94h-5.71l-22.84-45.94v94.48h-33.74v-182.46h12.98Z"/>
    <path class="cls-2" d="M954.24,675.22c0,11.16-9.08,20.25-20.5,20.25s-20.5-9.08-20.5-20.25,8.83-20.5,20.25-20.5,20.76,9.34,20.76,20.5ZM951.9,509.89l-2.34,124.84h-31.15l-2.86-124.84h36.34Z"/>
  </g>
</svg>