<?xml version="1.0" encoding="UTF-8"?><svg id="Layer_1" xmlns="http://www.w3.org/2000/svg" viewBox="0 0 1366 768"><defs><style>.cls-1{fill:#fff;}.cls-2{fill:#ed1c24;}.cls-3{fill:red;}.cls-4{fill:#1d1d1b;}.cls-5{fill:none;stroke:#ed1c24;stroke-miterlimit:10;stroke-width:10px;}</style></defs><path class="cls-3" d="M515.46,660.92c0,28.92,23.45,52.37,52.37,52.37h159.92c28.92,0,52.37-23.45,52.37-52.37s-23.45-52.37-52.37-52.37h-159.92c-28.92,0-52.37,23.45-52.37,52.37,0,0,0-28.92,0,0Z"/><g><path class="cls-1" d="M599.24,641.1l-3,1.32-10.52,30.95h-1.16l-11.2-30.93-2.95-1.32v-.79h13.02v.78l-5.01,1.33,8.08,23.05,7.47-23.07-5.11-1.32v-.79h10.39v.79Z"/><path class="cls-1" d="M617.54,650.81v7.62h-.78c-.74-2.38-1.74-3.33-3.54-3.33-3.22,0-4.27,3.6-4.26,7.41v8.73l5.81,1.05v.53h-13.81v-.52l3.74-1.06v-17.24h-3.76v-.47l7.75-2.7v6.82c.27-.69,.64-1.32,.95-1.96,1.68-2.96,4.32-4.87,7.9-4.87Z"/><path class="cls-1" d="M632.48,672.27v.53h-12.86v-.52l4.37-1.06v-17.24h-4.39v-.47l8.64-2.39,.02,20.1,4.22,1.05Zm-9.25-27.12c0-1.64,1.37-2.86,2.9-2.86,1.58,0,2.95,1.21,2.95,2.85,0,1.69-1.37,2.91-2.95,2.91-1.53,0-2.9-1.21-2.9-2.91Z"/><path class="cls-1" d="M633.31,653.98v-.48l9.96-2.39,.02,25.33c0,5.61-2.52,10.31-7.74,10.32-1.58,0-3.74-.37-5.17-1.05v-7.03l.52-.11c1.53,5.23,2.85,6.56,4.96,6.55,2.11,0,3.06-1.8,3.05-6.45l-.02-24.7h-5.59Zm4.9-8.83c0-1.64,1.37-2.86,2.9-2.86,1.58,0,2.95,1.21,2.95,2.85,0,1.69-1.37,2.91-2.95,2.91-1.53,0-2.9-1.21-2.9-2.91Z"/><path class="cls-1" d="M674.18,672.24v.53h-8.33v-3.8c-1.11,2.75-3.64,4.66-7.33,4.66-6.22,0-8.81-5.12-8.81-11.26,0-6.93,3.58-11.58,10.32-11.59,2.27,0,4.48,.68,5.8,1.95v-12.96l-5.65-.84v-.53h13.65v.52l-3.74,1.01,.03,31.26,4.06,1.05Zm-8.34-8.08v-5.71c-.38-3.38-1.85-6.08-5.86-6.08-4.59,0-6.22,3.76-6.21,8.84,0,5.08,1.69,8.72,6.18,8.72,2.74,0,5.9-1.11,5.9-5.77Z"/><path class="cls-1" d="M698.69,665.08h.95v1.96c0,3.38-.57,6.14-4.74,6.14-2.37,0-4.27-1.05-4.38-3.86-1.05,2.33-3,4.29-6.43,4.29-4.17,0-6.7-2.37-6.7-6.39,0-4.92,3.53-6.93,8.22-6.94,2.11,0,3.69,.53,4.9,1.27v-4.07c0-3.28-.75-5.08-4.12-5.07-2.95,0-4.37,1.7-5.74,6.46h-.79v-7.24c2.47-.53,5.16-.85,7.16-.85,5.75,0,7.75,2.37,7.76,7.45v10.15c0,1.48,.48,2.33,1.75,2.33,1.58,0,2.16-1.27,2.16-4.02v-1.59Zm-8.17,.43v-2.22c-1.11-.9-2.64-1.48-4.22-1.48-3,0-4.8,1.59-4.79,4.55,0,2.59,1.48,4.12,4.27,4.12,3.85,0,4.74-2.97,4.74-4.98Z"/><path class="cls-1" d="M724.67,650.68v3.01h-5.16c1.37,1.48,2.11,3.49,2.11,5.71,0,5.24-3.1,8.83-8.69,9.16v3.65h1.53c5.27,0,8.81,2.21,8.81,6.76,0,5.34-5.32,7.83-11.22,7.84-6.33,0-10.97-2.48-10.97-7.82,0-4.55,3.95-6.77,8.8-6.78h1.11v-3.65c-5.7-.31-9.07-3.43-9.08-8.93,0-5.08,3.37-8.84,9.8-8.84,2.69,0,4.85,.63,6.49,1.74l6.11-1.86h.37Zm-12.16,23.23h-1.05c-3.85,0-6.17,1.59-6.16,5.45,0,3.65,3.33,5.87,6.91,5.87,4.01,0,6.64-2.39,6.64-5.88,0-3.86-2.64-5.45-6.33-5.44Zm4.47-13.07c0-5.13-1.96-8.41-5.7-8.4-3.11,0-4.8,2.33-4.79,6.03,0,5.61,2.01,8.35,5.65,8.35,3.32,0,4.85-2.44,4.85-5.98Z"/></g><path class="cls-3" d="M577.77,541.97c0,28.9,23.43,52.33,52.33,52.33h48.5c28.9,0,52.33-23.43,52.33-52.33s-23.43-52.33-52.33-52.33h-48.5c-28.9,0-52.33,23.43-52.33,52.33,0,0,0-28.9,0,0Z"/><g><path class="cls-1" d="M616.33,555.18v.53h-15.76v-.52l5.69-1.7-.02-28.08-5.7-1.69v-.53h15.76v.52l-5.69,1.7,.02,28.08,5.7,1.69Z"/><path class="cls-1" d="M636.49,523.17h13.76v.52l-3.58,1.06,.02,21.58c0,5.98-1.94,10-8.95,10-1.95,0-4.22-.42-5.64-1l-1.48-8.62,.79-.16c1.64,4.28,4.07,7.72,7.07,7.72,2.48,0,3.64-1.8,3.63-7.41l-.02-22.11-5.59-1.05v-.53Z"/><path class="cls-1" d="M678.22,555.13v.53h-8.33v-4.28c-.79,2.49-2.9,5.13-6.8,5.14-5.11,0-6.86-3.11-6.86-8.14v-12.22l-2.96-1.11v-.53h10.6v.52l-3.37,1.11v11.05c.01,4.12,1.07,5.92,4.39,5.92,3.16,0,5.01-2.23,5-6.35v-10.63l-3.44-1.11v-.53h11.44v.52l-3.74,1.06v17.98l4.07,1.05Z"/><path class="cls-1" d="M695.98,551.2c-.68,2.65-2.05,5.29-5.95,5.29-4.01,0-6.01-1.85-6.07-5.81l-.02-27.87-3.74-1v-.53h15.24v.52l-7.22,.85,.02,26.65c0,2.59,.48,4.34,3.48,4.33,1.74,0,2.74-.74,3.48-2.44h.79Z"/><path class="cls-1" d="M710.96,555.1v.53h-12.86v-.52l4.37-1.06v-17.24h-4.39v-.47l8.64-2.39,.02,20.1,4.22,1.05Zm-9.25-27.12c0-1.64,1.37-2.86,2.9-2.86,1.58,0,2.95,1.21,2.95,2.85,0,1.69-1.37,2.91-2.95,2.91-1.53,0-2.9-1.21-2.9-2.91Z"/></g><g><path class="cls-4" d="M113.01,319.34l26.96,4.97v2.5l-67.88,.05v-2.5l19.21-5.01-.11-138.51-19.22-4.98v-2.5l62.89-.05v2.5l-21.96,5.01,.11,138.51Zm91.48-143.58l-16.97,4.76-49.62,58.44,66.46,90.29-1,1.25c-14.97-.24-27.71-5.97-41.7-24.17l-42.97-56.37,57.1-69.18-22.71-4.97v-2.5l51.41-.04v2.5Z"/><path class="cls-4" d="M342.37,319.41l15.73,4.73v2.5l-64.39,.05v-2.5l25.7-5.01-13.01-39.17-57.4,.05-12.95,39.19,26.21,4.97v2.5l-54.9,.04v-2.5l16.72-4.75,50.3-138.8-20.22-3.73v-3.74l61.89-.05v3.74l-20.96,3.76,47.28,138.72Zm-90.63-48.09l51.66-.04-26.02-77.85-25.64,77.89Z"/><path class="cls-4" d="M374.28,268.97c5.27,32.44,17.26,51.9,46.71,51.87,23.46-.02,31.94-11.01,31.92-29.72-.01-17.22-11.5-23.45-22.23-27.44l-27.71-10.46c-20.72-7.72-30.46-20.69-30.48-41.65-.02-25.96,18.93-42.19,48.13-42.22,15.72-.01,26.95,1.48,38.94,4.71l3.28,47.42h-3.74c-8.01-31.44-17.5-42.91-40.71-42.89-18.97,.02-29.69,9.51-29.68,27.23,0,11.98,6.75,19.96,22.48,25.94l30.46,11.46c19.22,7.22,29.46,18.94,29.48,40.91,.02,27.2-16.44,46.43-55.62,46.46-13.23,.01-27.21-2.72-42.43-7.45l-2.54-54.15h3.74Z"/><path class="cls-4" d="M529.55,319.01l26.96,4.97v2.5l-67.88,.05v-2.5l19.21-5.01-.11-138.51-19.22-4.98v-2.5l62.89-.05v2.5l-21.96,5.01,.11,138.51Zm91.48-143.58l-16.97,4.76-49.62,58.44,66.46,90.29-1,1.25c-14.97-.24-27.71-5.97-41.7-24.17l-42.97-56.37,57.1-69.18-22.71-4.97v-2.5l51.41-.04v2.5Z"/><path class="cls-4" d="M751.09,214.76h-3.74l-18.49-33.18-49.91,.04,.05,63.14,37.44-.03,8.22-21.97h3.74l.04,52.66h-3.74l-8.25-21.95-37.44,.03,.05,65.39,25.46,4.97v2.5l-64.89,.05v-2.5l17.71-5.01-.11-138.51-17.72-4.98v-2.5l107.06-.09,4.53,41.92Z"/><path class="cls-4" d="M811.08,318.78l24.46,4.97v2.5l-70.63,.06v-2.5l24.45-5.01-.11-138.51-24.46-4.97v-2.5l70.63-.06v2.5l-24.45,5.01,.11,138.51Z"/><path class="cls-4" d="M964.78,280.73l3.74,1-6.95,44.43-108.56,.09v-3.74l19.46-6.25-.11-133.52-19.47-6.22v-3.74l68.13-.05v3.74l-26.95,6.26,.11,134.77,50.91-.04,19.69-36.7Z"/><path class="cls-4" d="M1175.21,322.24v3.74l-63.14,.05v-3.74l21.95-6.26-.11-132.02-59.53,144.3-6.24-.24-60.26-143.95,.11,132.02,25.71,6.22v3.74l-55.15,.04v-3.74l19.46-6.25-.11-133.52-19.47-6.22v-3.74l49.41-.04,50.51,124,49.32-124.08,47.42-.04v3.74l-19.46,6.25,.11,133.52,19.47,6.22Z"/><path class="cls-4" d="M1200.13,268.31c5.27,32.44,17.26,51.9,46.71,51.87,23.46-.02,31.94-11.01,31.92-29.73-.01-17.22-11.5-23.45-22.23-27.43l-27.71-10.46c-20.72-7.72-30.46-20.69-30.48-41.65-.02-25.96,18.93-42.19,48.13-42.22,15.72-.01,26.95,1.48,38.94,4.71l3.28,47.42h-3.74c-8.01-31.44-17.5-42.91-40.71-42.89-18.97,.02-29.69,9.51-29.68,27.23,0,11.98,6.75,19.96,22.48,25.94l30.46,11.46c19.22,7.22,29.46,18.94,29.48,40.91,.02,27.2-16.44,46.43-55.62,46.46-13.23,.01-27.21-2.72-42.43-7.45l-2.54-54.15h3.74Z"/></g><g><path d="M873.41,590.62l-.94,12.53c-2.91,1.68-9.81,2.99-15.91,2.99-14.24,0-22.96-8.89-22.96-22.96s8.72-24.19,23.68-24.19c5.52,0,10.32,.95,13.95,1.82l2.18,13.92-1.09,.15c-2.98-8.16-7.41-13.26-16.06-13.26-11.62,0-15.91,9.04-15.91,20.04,0,12.02,5.88,21.57,17.14,21.57,6.76,0,11.91-2.19,14.82-12.61h1.09Z"/><path d="M878.86,590.47c0-9.33,5.45-15.74,15.62-15.74s14.67,6.92,14.67,15.74c0,9.33-5.45,15.74-15.26,15.74s-15.04-6.92-15.04-15.74Zm24.41,1.02c0-7.36-3.12-14.5-9.73-14.5s-8.79,5.61-8.79,12.46c0,7.43,3.12,14.5,9.73,14.5s8.79-5.1,8.79-12.46Z"/><path d="M950.42,604.24v.73h-16.13v-.73l5.16-1.46v-15.45c0-4.81-1.67-7.94-6.68-7.94s-7.34,3.5-7.34,9.77v13.63l5.08,1.46v.73h-16.13v-.73l5.16-1.46v-23.76h-5.16v-.66l10.68-3.28v7.51c2.11-5.25,6.03-7.94,10.61-7.94,6.47,0,9.66,4.3,9.66,10.79v17.34l5.09,1.46Z"/></g><g><path d="M968.99,616.13c6.17,1.68,7.48,4.52,7.48,8.75,0,5.9-4,9.26-11.12,9.26-3.85,0-7.99-1.82-9.44-5.1v5.1h-1.45v-12.32h1.45v3.35c.94,4.37,4.58,6.34,9.66,6.34,4.65,0,6.68-2.4,6.68-5.1,0-3.06-1.6-3.79-4.43-4.52l-6.03-1.6c-3.92-1.02-6.83-3.43-6.83-8.09,0-6.05,4.58-9.55,10.46-9.55,4.07,0,7.26,1.46,8.57,4.15v-3.79h1.45v12.32h-1.45v-4.59c-1.38-4.59-4.14-5.83-8.65-5.83-3.63,0-5.88,1.89-5.88,5.03,0,2.84,1.45,4.01,4.14,4.74l5.38,1.46Z"/><path d="M1007.06,617.08h-20.63c.51,7.36,4.29,11.81,10.61,11.81,4.72,0,7.26-1.31,8.86-5.1h1.16c-.73,4.81-3.85,10.35-11.99,10.35-9.23,0-13.51-7.14-13.51-15.67s4.87-15.81,13.73-15.81,12.64,7.29,11.77,14.43Zm-5.52-2.19c0-5.47-2.11-10.06-7.48-10.06-4.72,0-7.56,3.5-7.7,10.06h15.18Z"/><path d="M1035.1,602.65v10.49h-1.09c-1.02-3.28-2.4-4.59-4.87-4.59-4.43,0-5.88,4.96-5.88,10.2v12.02l7.99,1.46v.73h-19.03v-.73l5.16-1.46v-23.76h-5.16v-.66l10.68-3.72v9.4c.36-.95,.87-1.82,1.31-2.7,2.32-4.08,5.96-6.7,10.9-6.7Z"/></g><g><path d="M1068.85,625.94l-2.54,1.02-.07,.15-12.28,28.35h-.73l-12.28-28.42-3.2-1.09v-.73h16.2v.73l-6.32,1.17,7.92,19.24,8.14-19.31-5.81-1.09v-.73h10.97v.73Z"/><path d="M1101.11,643.8h1.31v2.7c0,4.66-.8,8.45-6.54,8.45-3.27,0-5.88-1.46-6.03-5.32-1.45,3.21-4.14,5.9-8.86,5.9-5.74,0-9.23-3.28-9.23-8.82,0-6.78,4.87-9.55,11.33-9.55,2.91,0,5.09,.73,6.76,1.75v-5.61c0-4.52-1.02-7-5.67-7-4.07,0-6.03,2.33-7.92,8.89h-1.09v-9.98c3.41-.73,7.12-1.17,9.88-1.17,7.92,0,10.68,3.28,10.68,10.28v13.99c0,2.04,.65,3.21,2.4,3.21,2.18,0,2.98-1.75,2.98-5.54v-2.19Zm-11.26,.58v-3.06c-1.53-1.24-3.63-2.04-5.81-2.04-4.14,0-6.61,2.19-6.61,6.27,0,3.57,2.03,5.68,5.88,5.68,5.3,0,6.54-4.08,6.54-6.85Z"/></g><g><path class="cls-3" d="M1121.73,626.99c-.94,3.64-2.83,7.29-8.21,7.29s-8.35-2.62-8.35-8.31v-19.82h-6.1v-.73c6.83-1.02,9.81-4.08,10.9-11.66h1.09v10.2h9.66v2.19h-9.66v18.22c0,3.57,.65,5.98,4.79,5.98,2.4,0,3.78-1.02,4.79-3.35h1.09Z"/><path class="cls-3" d="M1125.44,618.61c0-9.33,5.45-15.74,15.62-15.74s14.67,6.92,14.67,15.74c0,9.33-5.45,15.74-15.26,15.74s-15.04-6.92-15.04-15.74Zm24.41,1.02c0-7.36-3.12-14.5-9.73-14.5s-8.79,5.61-8.79,12.46c0,7.43,3.12,14.5,9.73,14.5s8.79-5.1,8.79-12.46Z"/></g><g><path d="M1182.3,574.37v10.49h-1.09c-1.02-3.28-2.4-4.59-4.87-4.59-4.43,0-5.88,4.96-5.88,10.2v12.02l7.99,1.46v.73h-19.03v-.73l5.16-1.46v-23.76h-5.16v-.66l10.68-3.72v9.4c.36-.95,.87-1.82,1.31-2.7,2.32-4.08,5.96-6.7,10.9-6.7Z"/><path d="M1202.86,603.96v.73h-17.73v-.73l6.03-1.46v-23.76h-6.03v-.66l11.91-3.28v27.69l5.81,1.46Zm-12.71-37.39c0-2.26,1.89-3.94,4-3.94s4.07,1.68,4.07,3.94-1.89,4.01-4.07,4.01-4-1.68-4-4.01Z"/><path d="M1239.91,603.96v.73h-11.48v-5.9c-1.09,3.42-4,7.07-9.37,7.07-7.05,0-9.44-4.3-9.44-11.22v-16.83l-4.07-1.53v-.73h14.6v.73l-4.65,1.53v15.23c0,5.68,1.45,8.16,6.03,8.16s6.9-3.06,6.9-8.75v-14.65l-4.72-1.53v-.73h15.76v.73l-5.16,1.46v24.78l5.59,1.46Z"/><path d="M1299.63,604.03v.73h-15.76v-.73l4.79-1.46v-15.16c0-5.39-1.53-8.23-6.54-8.23s-7.05,4.3-7.05,9.62v13.77l5.23,1.46v.73h-16.35v-.73l5.23-1.46v-15.16c0-4.96-1.16-8.23-6.61-8.31-4.94-.07-6.97,3.79-7.05,9.33v14.07l5.08,1.46v.73h-16.13v-.73l5.16-1.46v-23.76h-5.52v-.66l11.04-3.28v7.51c2.11-5.25,5.96-8.02,10.32-7.94,5.23,.07,8.43,2.99,9.3,7.8,2.11-4.88,5.67-7.73,10.24-7.73,6.25,0,9.52,4.3,9.52,10.79v17.34l5.09,1.46Z"/></g><g><path d="M873.41,652.01l-.94,12.53c-2.91,1.68-9.81,2.99-15.91,2.99-14.24,0-22.96-8.89-22.96-22.96s8.72-24.19,23.68-24.19c5.52,0,10.32,.95,13.95,1.82l2.18,13.92-1.09,.15c-2.98-8.16-7.41-13.26-16.06-13.26-11.62,0-15.91,9.04-15.91,20.04,0,12.02,5.88,21.57,17.14,21.57,6.76,0,11.91-2.19,14.82-12.61h1.09Z"/><path d="M878.86,651.87c0-9.33,5.45-15.74,15.62-15.74s14.67,6.92,14.67,15.74c0,9.33-5.45,15.74-15.26,15.74s-15.04-6.92-15.04-15.74Zm24.41,1.02c0-7.36-3.12-14.5-9.73-14.5s-8.79,5.61-8.79,12.46c0,7.43,3.12,14.5,9.73,14.5s8.79-5.1,8.79-12.46Z"/><path d="M950.42,665.64v.73h-16.13v-.73l5.16-1.46v-15.45c0-4.81-1.67-7.94-6.68-7.94s-7.34,3.5-7.34,9.77v13.63l5.08,1.46v.73h-16.13v-.73l5.16-1.46v-23.76h-5.16v-.66l10.68-3.28v7.51c2.11-5.25,6.03-7.94,10.61-7.94,6.47,0,9.66,4.3,9.66,10.79v17.34l5.09,1.46Z"/></g><g><path d="M968.99,677.53c6.17,1.68,7.48,4.52,7.48,8.75,0,5.9-4,9.26-11.12,9.26-3.85,0-7.99-1.82-9.44-5.1v5.1h-1.45v-12.32h1.45v3.35c.94,4.37,4.58,6.34,9.66,6.34,4.65,0,6.68-2.4,6.68-5.1,0-3.06-1.6-3.79-4.43-4.52l-6.03-1.6c-3.92-1.02-6.83-3.43-6.83-8.09,0-6.05,4.58-9.55,10.46-9.55,4.07,0,7.26,1.46,8.57,4.15v-3.79h1.45v12.32h-1.45v-4.59c-1.38-4.59-4.14-5.83-8.65-5.83-3.63,0-5.88,1.89-5.88,5.03,0,2.84,1.45,4.01,4.14,4.74l5.38,1.46Z"/><path d="M1007.06,678.47h-20.63c.51,7.36,4.29,11.81,10.61,11.81,4.72,0,7.26-1.31,8.86-5.1h1.16c-.73,4.81-3.85,10.35-11.99,10.35-9.23,0-13.51-7.14-13.51-15.67s4.87-15.81,13.73-15.81,12.64,7.29,11.77,14.43Zm-5.52-2.19c0-5.47-2.11-10.06-7.48-10.06-4.72,0-7.56,3.5-7.7,10.06h15.18Z"/><path d="M1035.1,664.05v10.49h-1.09c-1.02-3.28-2.4-4.59-4.87-4.59-4.43,0-5.88,4.96-5.88,10.2v12.02l7.99,1.46v.73h-19.03v-.73l5.16-1.46v-23.76h-5.16v-.66l10.68-3.72v9.4c.36-.95,.87-1.82,1.31-2.7,2.32-4.08,5.96-6.7,10.9-6.7Z"/></g><g><path d="M1068.85,687.34l-2.54,1.02-.07,.15-12.28,28.35h-.73l-12.28-28.42-3.2-1.09v-.73h16.2v.73l-6.32,1.17,7.92,19.24,8.14-19.31-5.81-1.09v-.73h10.97v.73Z"/><path d="M1101.11,705.19h1.31v2.7c0,4.66-.8,8.45-6.54,8.45-3.27,0-5.88-1.46-6.03-5.32-1.45,3.21-4.14,5.9-8.86,5.9-5.74,0-9.23-3.28-9.23-8.82,0-6.78,4.87-9.55,11.33-9.55,2.91,0,5.09,.73,6.76,1.75v-5.61c0-4.52-1.02-7-5.67-7-4.07,0-6.03,2.33-7.92,8.89h-1.09v-9.98c3.41-.73,7.12-1.17,9.88-1.17,7.92,0,10.68,3.28,10.68,10.28v13.99c0,2.04,.65,3.21,2.4,3.21,2.18,0,2.98-1.75,2.98-5.54v-2.19Zm-11.26,.58v-3.06c-1.53-1.24-3.63-2.04-5.81-2.04-4.14,0-6.61,2.19-6.61,6.27,0,3.57,2.03,5.68,5.88,5.68,5.3,0,6.54-4.08,6.54-6.85Z"/></g><g><path class="cls-3" d="M1121.73,688.38c-.94,3.64-2.83,7.29-8.21,7.29s-8.35-2.62-8.35-8.31v-19.82h-6.1v-.73c6.83-1.02,9.81-4.08,10.9-11.66h1.09v10.2h9.66v2.19h-9.66v18.22c0,3.57,.65,5.98,4.79,5.98,2.4,0,3.78-1.02,4.79-3.35h1.09Z"/><path class="cls-3" d="M1125.44,680c0-9.33,5.45-15.74,15.62-15.74s14.67,6.92,14.67,15.74c0,9.33-5.45,15.74-15.26,15.74s-15.04-6.92-15.04-15.74Zm24.41,1.02c0-7.36-3.12-14.5-9.73-14.5s-8.79,5.61-8.79,12.46c0,7.43,3.12,14.5,9.73,14.5s8.79-5.1,8.79-12.46Z"/></g><g><path d="M1182.3,685.44v10.49h-1.09c-1.02-3.28-2.4-4.59-4.87-4.59-4.43,0-5.88,4.96-5.88,10.2v12.02l7.99,1.46v.73h-19.03v-.73l5.16-1.46v-23.76h-5.16v-.66l10.68-3.72v9.4c.36-.95,.87-1.82,1.31-2.7,2.32-4.08,5.96-6.7,10.9-6.7Z"/><path d="M1202.86,715.03v.73h-17.73v-.73l6.03-1.46v-23.76h-6.03v-.66l11.91-3.28v27.69l5.81,1.46Zm-12.71-37.39c0-2.26,1.89-3.94,4-3.94s4.07,1.68,4.07,3.94-1.89,4.01-4.07,4.01-4-1.68-4-4.01Z"/><path d="M1239.91,715.03v.73h-11.48v-5.9c-1.09,3.42-4,7.07-9.37,7.07-7.05,0-9.44-4.3-9.44-11.22v-16.83l-4.07-1.53v-.73h14.6v.73l-4.65,1.53v15.23c0,5.68,1.45,8.16,6.03,8.16s6.9-3.06,6.9-8.75v-14.65l-4.72-1.53v-.73h15.76v.73l-5.16,1.46v24.78l5.59,1.46Z"/><path d="M1299.63,715.1v.73h-15.76v-.73l4.79-1.46v-15.16c0-5.39-1.53-8.23-6.54-8.23s-7.05,4.3-7.05,9.62v13.77l5.23,1.46v.73h-16.35v-.73l5.23-1.46v-15.16c0-4.96-1.16-8.23-6.61-8.31-4.94-.07-6.97,3.79-7.05,9.33v14.07l5.08,1.46v.73h-16.13v-.73l5.16-1.46v-23.76h-5.52v-.66l11.04-3.28v7.51c2.11-5.25,5.96-8.02,10.32-7.94,5.23,.07,8.43,2.99,9.3,7.8,2.11-4.88,5.67-7.73,10.24-7.73,6.25,0,9.52,4.3,9.52,10.79v17.34l5.09,1.46Z"/></g><g><path d="M873.41,529.78l-.94,12.53c-2.91,1.68-9.81,2.99-15.91,2.99-14.24,0-22.96-8.89-22.96-22.96s8.72-24.19,23.68-24.19c5.52,0,10.32,.95,13.95,1.82l2.18,13.92-1.09,.15c-2.98-8.16-7.41-13.26-16.06-13.26-11.62,0-15.91,9.04-15.91,20.04,0,12.02,5.88,21.57,17.14,21.57,6.76,0,11.91-2.19,14.82-12.61h1.09Z"/><path d="M878.86,529.63c0-9.33,5.45-15.74,15.62-15.74s14.67,6.92,14.67,15.74c0,9.33-5.45,15.74-15.26,15.74s-15.04-6.92-15.04-15.74Zm24.41,1.02c0-7.36-3.12-14.5-9.73-14.5s-8.79,5.61-8.79,12.46c0,7.43,3.12,14.5,9.73,14.5s8.79-5.1,8.79-12.46Z"/><path d="M950.42,543.41v.73h-16.13v-.73l5.16-1.46v-15.45c0-4.81-1.67-7.94-6.68-7.94s-7.34,3.5-7.34,9.77v13.63l5.08,1.46v.73h-16.13v-.73l5.16-1.46v-23.76h-5.16v-.66l10.68-3.28v7.51c2.11-5.25,6.03-7.94,10.61-7.94,6.47,0,9.66,4.3,9.66,10.79v17.34l5.09,1.46Z"/></g><g><path d="M968.99,555.3c6.17,1.68,7.48,4.52,7.48,8.75,0,5.9-4,9.26-11.12,9.26-3.85,0-7.99-1.82-9.44-5.1v5.1h-1.45v-12.32h1.45v3.35c.94,4.37,4.58,6.34,9.66,6.34,4.65,0,6.68-2.4,6.68-5.1,0-3.06-1.6-3.79-4.43-4.52l-6.03-1.6c-3.92-1.02-6.83-3.43-6.83-8.09,0-6.05,4.58-9.55,10.46-9.55,4.07,0,7.26,1.46,8.57,4.15v-3.79h1.45v12.32h-1.45v-4.59c-1.38-4.59-4.14-5.83-8.65-5.83-3.63,0-5.88,1.89-5.88,5.03,0,2.84,1.45,4.01,4.14,4.74l5.38,1.46Z"/><path d="M1007.06,556.24h-20.63c.51,7.36,4.29,11.81,10.61,11.81,4.72,0,7.26-1.31,8.86-5.1h1.16c-.73,4.81-3.85,10.35-11.99,10.35-9.23,0-13.51-7.14-13.51-15.67s4.87-15.81,13.73-15.81,12.64,7.29,11.77,14.43Zm-5.52-2.19c0-5.47-2.11-10.06-7.48-10.06-4.72,0-7.56,3.5-7.7,10.06h15.18Z"/><path d="M1035.1,541.81v10.49h-1.09c-1.02-3.28-2.4-4.59-4.87-4.59-4.43,0-5.88,4.96-5.88,10.2v12.02l7.99,1.46v.73h-19.03v-.73l5.16-1.46v-23.76h-5.16v-.66l10.68-3.72v9.4c.36-.95,.87-1.82,1.31-2.7,2.32-4.08,5.96-6.7,10.9-6.7Z"/></g><g><path d="M1068.85,565.11l-2.54,1.02-.07,.15-12.28,28.35h-.73l-12.28-28.42-3.2-1.09v-.73h16.2v.73l-6.32,1.17,7.92,19.24,8.14-19.31-5.81-1.09v-.73h10.97v.73Z"/><path d="M1101.11,582.96h1.31v2.7c0,4.66-.8,8.45-6.54,8.45-3.27,0-5.88-1.46-6.03-5.32-1.45,3.21-4.14,5.9-8.86,5.9-5.74,0-9.23-3.28-9.23-8.82,0-6.78,4.87-9.55,11.33-9.55,2.91,0,5.09,.73,6.76,1.75v-5.61c0-4.52-1.02-7-5.67-7-4.07,0-6.03,2.33-7.92,8.89h-1.09v-9.98c3.41-.73,7.12-1.17,9.88-1.17,7.92,0,10.68,3.28,10.68,10.28v13.99c0,2.04,.65,3.21,2.4,3.21,2.18,0,2.98-1.75,2.98-5.54v-2.19Zm-11.26,.58v-3.06c-1.53-1.24-3.63-2.04-5.81-2.04-4.14,0-6.61,2.19-6.61,6.27,0,3.57,2.03,5.68,5.88,5.68,5.3,0,6.54-4.08,6.54-6.85Z"/></g><g><path class="cls-3" d="M1121.73,566.15c-.94,3.64-2.83,7.29-8.21,7.29s-8.35-2.62-8.35-8.31v-19.82h-6.1v-.73c6.83-1.02,9.81-4.08,10.9-11.66h1.09v10.2h9.66v2.19h-9.66v18.22c0,3.57,.65,5.98,4.79,5.98,2.4,0,3.78-1.02,4.79-3.35h1.09Z"/><path class="cls-3" d="M1125.44,557.77c0-9.33,5.45-15.74,15.62-15.74s14.67,6.92,14.67,15.74c0,9.33-5.45,15.74-15.26,15.74s-15.04-6.92-15.04-15.74Zm24.41,1.02c0-7.36-3.12-14.5-9.73-14.5s-8.79,5.61-8.79,12.46c0,7.43,3.12,14.5,9.73,14.5s8.79-5.1,8.79-12.46Z"/></g><g><path d="M1182.3,513.54v10.49h-1.09c-1.02-3.28-2.4-4.59-4.87-4.59-4.43,0-5.88,4.96-5.88,10.2v12.02l7.99,1.46v.73h-19.03v-.73l5.16-1.46v-23.76h-5.16v-.66l10.68-3.72v9.4c.36-.95,.87-1.82,1.31-2.7,2.32-4.08,5.96-6.7,10.9-6.7Z"/><path d="M1202.86,543.12v.73h-17.73v-.73l6.03-1.46v-23.76h-6.03v-.66l11.91-3.28v27.69l5.81,1.46Zm-12.71-37.39c0-2.26,1.89-3.94,4-3.94s4.07,1.68,4.07,3.94-1.89,4.01-4.07,4.01-4-1.68-4-4.01Z"/><path d="M1239.91,543.12v.73h-11.48v-5.9c-1.09,3.42-4,7.07-9.37,7.07-7.05,0-9.44-4.3-9.44-11.22v-16.83l-4.07-1.53v-.73h14.6v.73l-4.65,1.53v15.23c0,5.68,1.45,8.16,6.03,8.16s6.9-3.06,6.9-8.75v-14.65l-4.72-1.53v-.73h15.76v.73l-5.16,1.46v24.78l5.59,1.46Z"/><path d="M1299.63,543.2v.73h-15.76v-.73l4.79-1.46v-15.16c0-5.39-1.53-8.23-6.54-8.23s-7.05,4.3-7.05,9.62v13.77l5.23,1.46v.73h-16.35v-.73l5.23-1.46v-15.16c0-4.96-1.16-8.23-6.61-8.31-4.94-.07-6.97,3.79-7.05,9.33v14.07l5.08,1.46v.73h-16.13v-.73l5.16-1.46v-23.76h-5.52v-.66l11.04-3.28v7.51c2.11-5.25,5.96-8.02,10.32-7.94,5.23,.07,8.43,2.99,9.3,7.8,2.11-4.88,5.67-7.73,10.24-7.73,6.25,0,9.52,4.3,9.52,10.79v17.34l5.09,1.46Z"/></g><path class="cls-2" d="M154.8,574.05l.49,2.02-36.72,8.95-.49-2.02,9.57-5.91-17.61-72.23-11.22-.84-.49-2.03,34.02-8.29,.49,2.03-11.06,6.27,17.61,72.23,15.4-.18Zm-11.8-44.9l46.75,39.23,.33,1.35c-8.13,1.84-15.78,.41-25.74-7.6l-29.59-23.97-.49-2.03,20.2-42.11-.14,.03-12.97-.41-.49-2.03,27.95-6.81,.49,2.03-7.31,5.21-18.99,37.1Z"/><path class="cls-2" d="M251.29,520.06l9.13,.49,.33,1.35-34.83,8.49-.33-1.35,13.25-6.09-12.19-19.48-31.05,7.57-1.85,22.91,14.83-.76,.33,1.35-29.7,7.24-.33-1.35,8.42-4.77,8.97-81.71-11.43,.64-.49-2.03,33.48-8.16,.49,2.03-10.85,4.79,43.82,68.84Zm-55.36-14.11l27.95-6.81-24.31-38.7-3.64,45.51Z"/><path class="cls-2" d="M268.92,491.07c7.11,16.86,16.16,25.81,32.09,21.93,12.69-3.09,15.83-10.15,13.36-20.28-2.27-9.32-9.3-11.18-15.64-11.92l-16.37-2.02c-12.23-1.45-19.2-7.19-21.97-18.53-3.42-14.04,4.7-25.32,20.49-29.17,8.5-2.07,14.78-2.74,21.69-2.57l8.01,25.22-2.03,.49c-8.47-15.96-15.11-20.92-27.67-17.86-10.26,2.5-14.82,9.05-12.48,18.63,1.58,6.48,6.28,9.91,15.57,11.08l17.98,2.2c11.35,1.38,18.43,6.38,21.33,18.26,3.59,14.72-2.79,27.28-23.98,32.45-7.16,1.74-15.08,2.1-23.94,1.54l-8.49-28.97,2.02-.49Z"/><path class="cls-2" d="M363.81,520.94l15.24-.85,.33,1.35-36.72,8.95-.33-1.35,9.74-5.23-18.27-74.93-11.05-.17-.33-1.35,34.02-8.29,.33,1.35-11.22,5.6,18.27,74.93Zm30.62-89.71l-8.55,4.8-19.16,38.14,47.83,40.12-.38,.81c-8.13,1.84-15.78,.41-25.74-7.6l-30.66-24.85,21.8-44.94-12.94,.29-.33-1.35,27.81-6.78,.33,1.35Z"/><path class="cls-2" d="M366.68,622.76l8.55-4.8,19.16-38.14-47.83-40.12,.38-.81c8.13-1.84,15.78-.41,25.74,7.6l30.66,24.85-21.8,44.93,12.94-.29,.33,1.35-27.81,6.78-.33-1.35Zm30.62-89.71l-15.24,.85-.33-1.35,36.72-8.95,.33,1.35-9.74,5.23,18.27,74.93,11.05,.17,.33,1.35-34.02,8.29-.33-1.35,11.22-5.6-18.27-74.93Z"/><path class="cls-2" d="M285.74,588.56l-9.13-.49-.33-1.35,34.83-8.49,.33,1.35-13.25,6.09,12.19,19.48,31.05-7.57,1.85-22.91-14.83,.76-.33-1.35,29.7-7.24,.33,1.35-8.42,4.77-8.97,81.71,11.43-.64,.49,2.03-33.48,8.16-.49-2.03,10.85-4.79-43.82-68.84Zm55.36,14.11l-27.95,6.81,24.31,38.7,3.64-45.51Z"/><path class="cls-2" d="M267.06,617.81c-7.11-16.86-16.16-25.81-32.09-21.93-12.69,3.09-15.83,10.15-13.36,20.28,2.27,9.32,9.31,11.18,15.64,11.92l16.37,2.02c12.23,1.45,19.2,7.19,21.97,18.53,3.42,14.04-4.7,25.32-20.49,29.17-8.51,2.07-14.78,2.74-21.69,2.57l-8.01-25.22,2.03-.49c8.47,15.96,15.11,20.92,27.67,17.86,10.26-2.5,14.81-9.05,12.48-18.63-1.58-6.48-6.28-9.91-15.57-11.08l-17.99-2.19c-11.35-1.38-18.43-6.38-21.33-18.26-3.59-14.72,2.79-27.28,23.98-32.45,7.16-1.74,15.08-2.1,23.94-1.54l8.49,28.97-2.03,.49Z"/><path class="cls-2" d="M142.59,677.39l8.56-4.8,19.16-38.14-47.83-40.12,.38-.81c8.13-1.84,15.78-.41,25.74,7.6l30.66,24.85-21.8,44.94,12.94-.29,.33,1.35-27.81,6.78-.33-1.35Zm30.62-89.71l-15.24,.85-.33-1.35,36.72-8.95,.33,1.35-9.74,5.23,18.27,74.93,11.05,.17,.33,1.35-34.02,8.29-.33-1.35,11.22-5.6-18.27-74.93Z"/><ellipse class="cls-5" cx="269.78" cy="560.58" rx="215.15" ry="157.38" transform="translate(-125.1 79.85) rotate(-13.7)"/><g><path class="cls-4" d="M136.65,453.53v1.41l-31.28,.02v-1.41l9.96-2.82-.04-47.84-26.51,.02,.04,47.84,9.96,2.81v1.41l-31.28,.02v-1.41l9.96-2.82-.04-47.84h-9.96v-4.21h9.96v-9.01c-.02-17.17,7.26-28.43,24.94-28.44,7.57,0,13.19,.69,19.22,1.67l.02,23.36h-2.1c-3.24-12.66-6.75-20.96-18.95-20.95-9.26,0-14.02,5.22-14.02,14.08,0,6.61,1.13,11.96,2.12,19.28l38.01-.03,.04,52.06,9.96,2.81Z"/><path class="cls-4" d="M177.48,443.09c-1.82,7.04-5.46,14.08-15.84,14.08-10.66,0-16-4.91-16.14-15.47l-.06-74.16-9.96-2.67v-1.41l40.54-.03v1.41l-19.21,2.27,.06,70.92c0,6.9,1.27,11.54,9.27,11.53,4.63,0,7.29-1.98,9.25-6.48h2.1Z"/><path class="cls-4" d="M288.95,453.55v1.41l-30.44,.02v-1.41l9.25-2.82-.02-29.27c0-10.41-2.96-15.9-12.64-15.89-10.1,0-13.6,8.31-13.59,18.58l.02,26.6,10.1,2.81v1.41l-31.56,.02v-1.41l10.1-2.82-.02-29.27c0-9.57-2.26-15.9-12.78-16.03-9.54-.13-13.46,7.33-13.59,18.02l.02,27.16,9.82,2.81v1.41l-31.14,.02v-1.41l9.96-2.82-.04-45.87h-10.66v-1.26l21.32-6.35v14.49c4.07-10.13,11.5-15.49,19.92-15.35,10.1,.13,16.28,5.76,17.97,15.04,4.06-9.43,10.93-14.92,19.77-14.93,12.06,0,18.38,8.29,18.39,20.81l.03,33.49,9.82,2.81Z"/><path class="cls-4" d="M390.63,434.33h2.52v5.2c.01,9.01-1.53,16.32-12.61,16.33-6.31,0-11.36-2.81-11.65-10.26-2.8,6.19-7.99,11.4-17.1,11.41-11.08,0-17.82-6.32-17.83-17.01-.01-13.09,9.38-18.44,21.87-18.45,5.61,0,9.82,1.4,13.05,3.37v-10.83c-.02-8.72-1.98-13.51-10.96-13.5-7.85,0-11.64,4.51-15.28,17.18h-2.1l-.02-19.28c6.59-1.41,13.75-2.26,19.08-2.27,15.29-.01,20.63,6.32,20.64,19.82l.02,27.02c0,3.94,1.27,6.19,4.63,6.19,4.21,0,5.75-3.38,5.74-10.7v-4.22Zm-21.75,1.14v-5.91c-2.95-2.39-7.02-3.93-11.23-3.93-8,0-12.76,4.23-12.76,12.11,0,6.9,3.94,10.97,11.37,10.97,10.24,0,12.62-7.89,12.61-13.24Z"/><path class="cls-4" d="M468.31,453.27v1.41l-31.14,.02v-1.41l9.96-2.82-.02-29.83c0-9.29-3.24-15.33-12.92-15.33-9.54,0-14.16,6.77-14.15,18.87l.02,26.31,9.82,2.81v1.41l-31.14,.02v-1.41l9.96-2.82-.04-45.87h-9.96v-1.26l20.61-6.35v14.49c4.07-10.13,11.64-15.35,20.48-15.35,12.48,0,18.66,8.29,18.67,20.81l.03,33.49,9.82,2.81Z"/><path class="cls-4" d="M536.68,453.21v1.41l-22.16,.02v-10.13c-2.95,7.32-9.68,12.39-19.5,12.4-16.55,.01-23.44-13.63-23.45-29.95-.02-18.43,9.51-30.82,27.47-30.84,6.03,0,11.92,1.82,15.43,5.19l-.03-34.48-15.01-2.24v-1.41l36.33-.03v1.41l-9.96,2.68,.07,83.16,10.8,2.81Zm-22.18-21.51v-15.2c-1-9.01-4.93-16.18-15.6-16.17-12.2,0-16.54,10-16.53,23.51,.01,13.51,4.51,23.21,16.43,23.21,7.29,0,15.71-2.97,15.7-15.35Z"/><path class="cls-4" d="M639.62,434.13h2.52v5.2c.01,9.01-1.53,16.32-12.61,16.33-6.31,0-11.36-2.81-11.65-10.26-2.8,6.19-7.99,11.4-17.1,11.41-11.08,0-17.82-6.32-17.83-17.01-.01-13.09,9.38-18.44,21.87-18.45,5.61,0,9.82,1.4,13.05,3.37v-10.83c-.02-8.72-1.98-13.51-10.96-13.5-7.85,0-11.64,4.51-15.28,17.18h-2.1l-.02-19.28c6.59-1.41,13.75-2.26,19.08-2.27,15.29-.01,20.62,6.32,20.64,19.82l.02,27.02c0,3.94,1.27,6.19,4.63,6.19,4.21,0,5.75-3.38,5.74-10.7v-4.22Zm-21.75,1.14v-5.91c-2.95-2.39-7.02-3.93-11.23-3.93-8,0-12.76,4.23-12.76,12.11,0,6.9,3.94,10.97,11.37,10.97,10.24,0,12.62-7.89,12.61-13.24Z"/><path class="cls-4" d="M717.31,453.07v1.41l-31.14,.02v-1.41l9.96-2.82-.02-29.83c0-9.29-3.24-15.33-12.92-15.33-9.54,0-14.16,6.77-14.15,18.87l.02,26.31,9.82,2.81v1.41l-31.14,.02v-1.41l9.96-2.82-.04-45.87h-9.96v-1.26l20.61-6.35v14.49c4.07-10.13,11.64-15.35,20.48-15.35,12.48,0,18.66,8.29,18.67,20.81l.03,33.49,9.82,2.81Z"/><path class="cls-4" d="M758.05,453.04v1.41l-34.23,.03v-1.41l11.64-2.82-.04-45.87h-11.64v-1.26l23-6.35,.04,53.47,11.22,2.81Zm-24.61-72.17c0-4.36,3.64-7.6,7.71-7.6,4.21,0,7.86,3.23,7.86,7.59,0,4.5-3.64,7.74-7.85,7.75-4.07,0-7.72-3.23-7.72-7.73Z"/><path class="cls-4" d="M871.21,453.09v1.41l-30.44,.02v-1.41l9.25-2.82-.02-29.27c0-10.41-2.96-15.9-12.64-15.89-10.1,0-13.6,8.31-13.59,18.58l.02,26.6,10.1,2.81v1.41l-31.56,.02v-1.41l10.1-2.82-.02-29.27c0-9.57-2.26-15.9-12.78-16.03-9.54-.13-13.46,7.33-13.59,18.02l.02,27.16,9.82,2.81v1.41l-31.14,.02v-1.41l9.96-2.82-.04-45.87h-10.66v-1.26l21.32-6.35v14.49c4.07-10.13,11.5-15.49,19.92-15.35,10.1,.13,16.28,5.76,17.97,15.04,4.06-9.43,10.93-14.92,19.77-14.93,12.06,0,18.38,8.29,18.39,20.81l.03,33.49,9.82,2.81Z"/><path class="cls-4" d="M933.25,433.9h2.52v5.2c.01,9.01-1.53,16.32-12.61,16.33-6.31,0-11.36-2.81-11.65-10.26-2.8,6.19-7.99,11.4-17.1,11.41-11.08,0-17.82-6.32-17.83-17.01-.01-13.09,9.38-18.44,21.87-18.45,5.61,0,9.82,1.4,13.05,3.37v-10.83c-.02-8.72-1.98-13.51-10.96-13.5-7.85,0-11.64,4.51-15.28,17.18h-2.1l-.02-19.28c6.59-1.41,13.75-2.26,19.08-2.27,15.29-.01,20.62,6.32,20.64,19.82l.02,27.02c0,3.94,1.27,6.19,4.63,6.19,4.21,0,5.75-3.38,5.74-10.7v-4.22Zm-21.75,1.14v-5.91c-2.95-2.39-7.02-3.93-11.23-3.93-8,0-12.76,4.23-12.76,12.11,0,6.9,3.94,10.97,11.37,10.97,10.24,0,12.62-7.89,12.61-13.24Z"/><path class="cls-4" d="M978.02,442.45c-1.82,7.04-5.46,14.08-15.84,14.08-10.8,0-16.14-5.05-16.14-16.03l-.03-38.27h-11.78v-1.4c13.18-1.98,18.93-7.9,21.02-22.53h2.1l.02,19.7h18.66v4.21h-18.65l.03,35.19c0,6.9,1.27,11.54,9.27,11.53,4.63,0,7.29-1.98,9.25-6.48h2.1Z"/><path class="cls-4" d="M1017.55,452.83v1.41l-34.23,.03v-1.41l11.64-2.82-.04-45.87h-11.64v-1.26l23-6.35,.04,53.47,11.22,2.81Zm-24.61-72.17c0-4.36,3.64-7.6,7.71-7.6,4.21,0,7.86,3.23,7.86,7.59,0,4.5-3.64,7.74-7.85,7.75-4.07,0-7.72-3.23-7.72-7.73Z"/><path class="cls-4" d="M1069.3,423.52l-39.84,.03c.99,14.21,8.29,22.79,20.5,22.78,9.12,0,14.03-2.54,17.11-9.86h2.24c-1.4,9.29-7.42,19.99-23.13,20-17.81,.01-26.1-13.77-26.12-30.23-.01-17.03,9.37-30.54,26.49-30.56,17.53-.01,24.42,14.05,22.75,27.84Zm-10.66-4.21c0-10.55-4.08-19.42-14.46-19.41-9.12,0-14.58,6.77-14.85,19.43l29.32-.02Z"/><path class="cls-4" d="M1145.07,452.73v1.41l-31.28,.02v-1.41l9.96-2.82-.04-47.84-26.51,.02,.04,47.84,9.96,2.81v1.41l-31.28,.02v-1.41l9.96-2.82-.04-47.84h-9.96v-4.21h9.96v-9.01c-.02-17.17,7.26-28.43,24.94-28.44,7.57,0,13.19,.69,19.22,1.67l.02,23.36h-2.1c-3.24-12.66-6.75-20.96-18.95-20.95-9.26,0-14.02,5.22-14.02,14.08,0,6.61,1.13,11.96,2.12,19.28l38.01-.03,.04,52.06,9.96,2.81Z"/><path class="cls-4" d="M1185.91,442.28c-1.82,7.04-5.46,14.08-15.84,14.08-10.66,0-15.99-4.91-16.14-15.47l-.06-74.16-9.96-2.67v-1.41l40.54-.03v1.41l-19.21,2.27,.06,70.92c0,6.9,1.27,11.54,9.27,11.53,4.63,0,7.29-1.98,9.25-6.48h2.1Z"/><path class="cls-4" d="M1297.38,452.75v1.41l-30.44,.02v-1.41l9.25-2.82-.02-29.27c0-10.41-2.96-15.9-12.64-15.89-10.1,0-13.6,8.31-13.59,18.58l.02,26.6,10.1,2.81v1.41l-31.56,.03v-1.41l10.1-2.82-.02-29.27c0-9.57-2.26-15.9-12.78-16.03-9.54-.13-13.46,7.33-13.59,18.02l.02,27.16,9.82,2.81v1.41l-31.14,.02v-1.41l9.96-2.82-.04-45.87h-10.66v-1.26l21.32-6.35v14.49c4.07-10.13,11.5-15.49,19.92-15.35,10.1,.13,16.28,5.76,17.97,15.04,4.06-9.43,10.93-14.92,19.77-14.93,12.06,0,18.38,8.29,18.39,20.81l.03,33.49,9.82,2.81Z"/></g><g><path d="M70.59,60.32v-7.75c0-3.95,1.18-6.05,5.33-6.3v2.06c-1.87,.31-2.75,1.39-2.75,3.86v8.5c0,2.48,.88,3.55,2.75,3.86v2.06c-4.16-.25-5.33-2.35-5.33-6.3Z"/><path d="M96.77,48.65l-4.07,14.26h-3.34l-2.73-10.12-2.52,10.12h-3.4l-4.2-14.26h2.94l2.96,10.96,2.83-10.96h2.79l3.07,10.96,2.77-10.96h2.9Z"/><path d="M101.43,61.37c0,.99-.8,1.78-1.78,1.78s-1.78-.8-1.78-1.78,.8-1.76,1.78-1.76,1.78,.8,1.78,1.76Z"/><path d="M106.73,62.9h-2.88v-14.26h2.88v14.26Z"/><path d="M112.73,61.37c0,.99-.8,1.78-1.78,1.78s-1.78-.8-1.78-1.78,.8-1.76,1.78-1.76,1.78,.8,1.78,1.76Z"/><path d="M126.72,52.74c0,2.37-1.66,4.3-5.04,4.3h-3.63v5.86h-2.9v-14.26h6.59c3.38,0,4.98,1.7,4.98,4.09Zm-2.88,.06c0-1.26-.82-1.93-2.58-1.93h-3.21v3.95h3.23c1.74,0,2.56-.82,2.56-2.02Z"/><path d="M131.7,61.37c0,.99-.8,1.78-1.78,1.78s-1.78-.8-1.78-1.78,.8-1.76,1.78-1.76,1.78,.8,1.78,1.76Z"/><path d="M133.06,64.56c1.89-.32,2.75-1.39,2.75-3.86v-8.5c0-2.48-.86-3.55-2.75-3.86v-2.06c4.16,.25,5.35,2.35,5.35,6.3v7.75c0,3.95-1.2,6.05-5.35,6.3v-2.06Z"/><path d="M158.28,55.2l-.02,7.71h-2.52v-2.16c-.88,1.58-2.12,2.42-4.39,2.42-4.2,0-6.91-2.86-6.91-7.37s2.94-7.39,6.99-7.39c3.57,0,5.88,1.64,6.55,4.6h-3.02c-.46-1.41-1.49-2.29-3.51-2.29-2.37,0-4.12,1.74-4.12,5.1s1.6,5.06,4.3,5.06c2.23,0,3.63-1.3,3.78-3.42h-4.05v-2.25h6.91Z"/><path d="M160.19,48.86c0-.9,.67-1.64,1.68-1.64s1.64,.74,1.64,1.64-.67,1.64-1.64,1.64-1.68-.76-1.68-1.64Zm.27,3.19h2.77v10.85h-2.77v-10.85Z"/><path d="M171.74,52.03v2.44c-.17-.02-.36-.04-.63-.04-1.7,0-2.62,.99-2.62,2.71v5.77h-2.77v-10.85h2.5v1.87c.52-1.3,1.6-1.97,2.88-1.97,.23,0,.42,.02,.65,.08Z"/><path d="M182.7,55.79v7.12h-2.5v-1.39c-.84,1.11-1.99,1.64-3.46,1.64-2.31,0-3.91-1.36-3.91-3.25s1.13-3.09,3.84-3.36l3.28-.34v-.59c0-1.22-.76-1.8-1.95-1.8-1.26,0-1.95,.5-2.16,1.57h-2.77c.29-2.35,2.04-3.59,4.89-3.59s4.75,1.24,4.75,3.99Zm-2.77,2.88v-.8l-2.6,.34c-1.15,.15-1.68,.76-1.68,1.58s.67,1.51,1.83,1.51c1.6,0,2.46-1.07,2.46-2.62Z"/><path d="M191.06,52.03v2.44c-.17-.02-.36-.04-.63-.04-1.7,0-2.62,.99-2.62,2.71v5.77h-2.77v-10.85h2.5v1.87c.52-1.3,1.6-1.97,2.88-1.97,.23,0,.42,.02,.65,.08Z"/><path d="M203.07,47.79v15.12h-2.5v-1.83c-.69,1.37-1.91,2.08-3.57,2.08-2.58,0-4.89-2.08-4.89-5.67s2.2-5.69,4.79-5.69c1.51,0,2.67,.57,3.4,1.62v-5.63h2.77Zm-2.77,9.7c0-2.08-1.13-3.46-2.69-3.46-1.64,0-2.71,1.37-2.71,3.46s1.13,3.44,2.71,3.44,2.69-1.32,2.69-3.44Z"/><path d="M215.55,57.63c0,.34-.02,.63-.02,.63h-7.85c.19,1.97,1.24,2.79,2.71,2.79,1.2,0,1.87-.52,2.18-1.32h2.75c-.48,1.93-2.2,3.42-4.96,3.42-3.46,0-5.46-2.31-5.46-5.61s2.2-5.75,5.38-5.75c3.4,0,5.33,2.35,5.27,5.84Zm-2.83-1.18c-.08-1.64-.99-2.56-2.41-2.56-1.32,0-2.31,.84-2.58,2.56h5Z"/><path d="M227.33,56.06v6.84h-2.77v-6.21c0-1.78-.84-2.58-2.12-2.58s-2.25,.88-2.25,2.58v6.21h-2.77v-10.85h2.5v1.53c.71-1.2,1.87-1.78,3.42-1.78,2.27,0,3.99,1.34,3.99,4.26Z"/><path d="M240.03,52.05v10.31c0,2.6-1.53,4.75-5.38,4.75s-5.17-1.66-5.4-3.84h2.92c.1,1.11,.76,1.83,2.48,1.83s2.62-.9,2.62-2.62v-1.72c-.76,1.16-1.87,1.66-3.34,1.66-2.67,0-4.85-2.04-4.85-5.31s2.16-5.29,4.85-5.29c1.55,0,2.79,.65,3.55,1.85v-1.6h2.54Zm-2.75,5.04c0-1.87-1.18-3.09-2.71-3.09s-2.69,1.22-2.69,3.09,1.18,3.11,2.69,3.11,2.71-1.28,2.71-3.11Z"/><path d="M241.88,57.49c0-3.49,2.39-5.69,5.52-5.69s5.5,2.2,5.5,5.69-2.39,5.67-5.5,5.67-5.52-2.18-5.52-5.67Zm8.19,0c0-2.12-1.01-3.44-2.69-3.44s-2.69,1.34-2.69,3.44,1.01,3.42,2.69,3.42,2.69-1.32,2.69-3.42Z"/><path d="M258.89,59.73h2.71c.23,.97,.99,1.47,2.31,1.47s2.02-.5,2.02-1.24c0-.63-.38-1.07-1.36-1.24l-2.33-.44c-2.2-.42-3.13-1.45-3.13-3.11,0-1.81,1.55-3.38,4.51-3.38s4.54,1.41,4.89,3.59h-2.73c-.17-1.09-.92-1.64-2.18-1.64s-1.89,.57-1.89,1.26c0,.59,.31,.99,1.45,1.18l2.29,.4c2.37,.4,3.23,1.51,3.23,3.19,0,1.8-1.43,3.38-4.75,3.38s-4.64-1.39-5.04-3.42Z"/><path d="M274.14,54.34v4.83c0,1.03,.5,1.53,1.43,1.53,.38,0,.63-.02,.88-.08v2.25c-.55,.15-.86,.17-1.53,.17-2.46,0-3.55-1.39-3.55-3.74v-4.96h-1.7v-2.29h1.7v-3.07h2.77v3.07h2.31v2.29h-2.31Z"/><path d="M287.6,55.79v7.12h-2.5v-1.39c-.84,1.11-1.99,1.64-3.46,1.64-2.31,0-3.91-1.36-3.91-3.25s1.13-3.09,3.84-3.36l3.28-.34v-.59c0-1.22-.76-1.8-1.95-1.8-1.26,0-1.95,.5-2.16,1.57h-2.77c.29-2.35,2.04-3.59,4.89-3.59s4.75,1.24,4.75,3.99Zm-2.77,2.88v-.8l-2.6,.34c-1.15,.15-1.68,.76-1.68,1.58s.67,1.51,1.83,1.51c1.6,0,2.46-1.07,2.46-2.62Z"/><path d="M295.96,52.03v2.44c-.17-.02-.36-.04-.63-.04-1.7,0-2.62,.99-2.62,2.71v5.77h-2.77v-10.85h2.5v1.87c.52-1.3,1.6-1.97,2.88-1.97,.23,0,.42,.02,.65,.08Z"/><path d="M301.19,54.34v4.83c0,1.03,.5,1.53,1.43,1.53,.38,0,.63-.02,.88-.08v2.25c-.55,.15-.86,.17-1.53,.17-2.46,0-3.55-1.39-3.55-3.74v-4.96h-1.7v-2.29h1.7v-3.07h2.77v3.07h2.31v2.29h-2.31Z"/><path d="M315.36,57.63c0,.34-.02,.63-.02,.63h-7.85c.19,1.97,1.24,2.79,2.71,2.79,1.2,0,1.87-.52,2.18-1.32h2.75c-.48,1.93-2.2,3.42-4.96,3.42-3.46,0-5.46-2.31-5.46-5.61s2.2-5.75,5.38-5.75c3.4,0,5.33,2.35,5.27,5.84Zm-2.83-1.18c-.08-1.64-.99-2.56-2.41-2.56-1.32,0-2.31,.84-2.58,2.56h5Z"/><path d="M327.62,47.79v15.12h-2.5v-1.83c-.69,1.37-1.91,2.08-3.57,2.08-2.58,0-4.89-2.08-4.89-5.67s2.2-5.69,4.79-5.69c1.51,0,2.67,.57,3.4,1.62v-5.63h2.77Zm-2.77,9.7c0-2.08-1.13-3.46-2.69-3.46-1.64,0-2.71,1.37-2.71,3.46s1.13,3.44,2.71,3.44,2.69-1.32,2.69-3.44Z"/><path d="M344.15,55.79v7.12h-2.5v-1.39c-.84,1.11-1.99,1.64-3.46,1.64-2.31,0-3.91-1.36-3.91-3.25s1.13-3.09,3.84-3.36l3.28-.34v-.59c0-1.22-.76-1.8-1.95-1.8-1.26,0-1.95,.5-2.16,1.57h-2.77c.29-2.35,2.04-3.59,4.89-3.59s4.75,1.24,4.75,3.99Zm-2.77,2.88v-.8l-2.6,.34c-1.15,.15-1.68,.76-1.68,1.58s.67,1.51,1.83,1.51c1.6,0,2.46-1.07,2.46-2.62Z"/><path d="M345.85,59.73h2.71c.23,.97,.99,1.47,2.31,1.47s2.02-.5,2.02-1.24c0-.63-.38-1.07-1.36-1.24l-2.33-.44c-2.2-.42-3.13-1.45-3.13-3.11,0-1.81,1.55-3.38,4.51-3.38s4.54,1.41,4.89,3.59h-2.73c-.17-1.09-.92-1.64-2.18-1.64s-1.89,.57-1.89,1.26c0,.59,.31,.99,1.45,1.18l2.29,.4c2.37,.4,3.23,1.51,3.23,3.19,0,1.8-1.43,3.38-4.75,3.38s-4.64-1.39-5.04-3.42Z"/><path d="M371.6,55.79v7.12h-2.5v-1.39c-.84,1.11-1.99,1.64-3.46,1.64-2.31,0-3.91-1.36-3.91-3.25s1.13-3.09,3.84-3.36l3.28-.34v-.59c0-1.22-.76-1.8-1.95-1.8-1.26,0-1.95,.5-2.16,1.57h-2.77c.29-2.35,2.04-3.59,4.89-3.59s4.75,1.24,4.75,3.99Zm-2.77,2.88v-.8l-2.6,.34c-1.15,.15-1.68,.76-1.68,1.58s.67,1.51,1.83,1.51c1.6,0,2.46-1.07,2.46-2.62Z"/><path d="M384.72,52.03v2.44c-.17-.02-.36-.04-.63-.04-1.7,0-2.62,.99-2.62,2.71v5.77h-2.77v-10.85h2.5v1.87c.52-1.3,1.6-1.97,2.88-1.97,.23,0,.42,.02,.65,.08Z"/><path d="M396.4,57.63c0,.34-.02,.63-.02,.63h-7.85c.19,1.97,1.24,2.79,2.71,2.79,1.2,0,1.87-.52,2.18-1.32h2.75c-.48,1.93-2.2,3.42-4.96,3.42-3.46,0-5.46-2.31-5.46-5.61s2.2-5.75,5.38-5.75c3.4,0,5.33,2.35,5.27,5.84Zm-2.83-1.18c-.08-1.64-.99-2.56-2.41-2.56-1.32,0-2.31,.84-2.58,2.56h5Z"/><path d="M408.35,52.05l-3.93,10.85h-3.21l-4.03-10.85h2.88l2.79,8.12,2.65-8.12h2.86Z"/><path d="M409.48,48.86c0-.9,.67-1.64,1.68-1.64s1.64,.74,1.64,1.64-.67,1.64-1.64,1.64-1.68-.76-1.68-1.64Zm.27,3.19h2.77v10.85h-2.77v-10.85Z"/><path d="M425.08,52.05l-3.93,10.85h-3.21l-4.03-10.85h2.88l2.79,8.12,2.65-8.12h2.86Z"/><path d="M435.81,55.79v7.12h-2.5v-1.39c-.84,1.11-1.99,1.64-3.46,1.64-2.31,0-3.91-1.36-3.91-3.25s1.13-3.09,3.84-3.36l3.28-.34v-.59c0-1.22-.76-1.8-1.95-1.8-1.26,0-1.95,.5-2.16,1.57h-2.77c.29-2.35,2.04-3.59,4.89-3.59s4.75,1.24,4.75,3.99Zm-2.77,2.88v-.8l-2.6,.34c-1.15,.15-1.68,.76-1.68,1.58s.67,1.51,1.83,1.51c1.6,0,2.46-1.07,2.46-2.62Z"/><path d="M440.94,62.9h-2.77v-15.12h2.77v15.12Z"/><path d="M447.91,48.86c0-.9,.67-1.64,1.68-1.64s1.64,.74,1.64,1.64-.67,1.64-1.64,1.64-1.68-.76-1.68-1.64Zm.27,3.19h2.77v10.85h-2.77v-10.85Z"/><path d="M463.35,56.06v6.84h-2.77v-6.21c0-1.78-.84-2.58-2.12-2.58s-2.25,.88-2.25,2.58v6.21h-2.77v-10.85h2.5v1.53c.71-1.2,1.87-1.78,3.42-1.78,2.27,0,3.99,1.34,3.99,4.26Z"/><path d="M479.79,55.79v7.12h-2.5v-1.39c-.84,1.11-1.99,1.64-3.46,1.64-2.31,0-3.91-1.36-3.91-3.25s1.13-3.09,3.84-3.36l3.28-.34v-.59c0-1.22-.76-1.8-1.95-1.8-1.26,0-1.95,.5-2.16,1.57h-2.77c.29-2.35,2.04-3.59,4.89-3.59s4.75,1.24,4.75,3.99Zm-2.77,2.88v-.8l-2.6,.34c-1.15,.15-1.68,.76-1.68,1.58s.67,1.51,1.83,1.51c1.6,0,2.46-1.07,2.46-2.62Z"/><path d="M503.75,52.05l-3.34,10.85h-3.3l-2.29-7.6-2.2,7.6h-3.3l-3.32-10.85h2.88l2.2,8.1,2.29-8.1h3.09l2.31,8.1,2.14-8.1h2.83Z"/><path d="M504.72,57.49c0-3.49,2.39-5.69,5.52-5.69s5.5,2.2,5.5,5.69-2.39,5.67-5.5,5.67-5.52-2.18-5.52-5.67Zm8.19,0c0-2.12-1.01-3.44-2.69-3.44s-2.69,1.34-2.69,3.44,1.01,3.42,2.69,3.42,2.69-1.32,2.69-3.42Z"/><path d="M523.62,52.03v2.44c-.17-.02-.36-.04-.63-.04-1.7,0-2.62,.99-2.62,2.71v5.77h-2.77v-10.85h2.5v1.87c.52-1.3,1.6-1.97,2.88-1.97,.23,0,.42,.02,.65,.08Z"/><path d="M532.31,62.9l-4.3-5.35v5.35h-2.77v-15.12h2.77v8.4l4.2-4.14h3.07l-4.72,4.77,4.93,6.09h-3.17Z"/><path d="M536.07,59.73h2.71c.23,.97,.99,1.47,2.31,1.47s2.02-.5,2.02-1.24c0-.63-.38-1.07-1.36-1.24l-2.33-.44c-2.2-.42-3.13-1.45-3.13-3.11,0-1.81,1.55-3.38,4.51-3.38s4.54,1.41,4.89,3.59h-2.73c-.17-1.09-.92-1.64-2.18-1.64s-1.89,.57-1.89,1.26c0,.59,.31,.99,1.45,1.18l2.29,.4c2.37,.4,3.23,1.51,3.23,3.19,0,1.8-1.43,3.38-4.75,3.38s-4.64-1.39-5.04-3.42Z"/><path d="M557.61,56.08v6.82h-2.77v-6.28c0-1.68-.92-2.5-2.14-2.5s-2.23,.88-2.23,2.54v6.24h-2.77v-15.12h2.77v5.71c.63-1.09,1.68-1.7,3.09-1.7,2.31,0,4.05,1.47,4.05,4.28Z"/><path d="M559.36,57.49c0-3.49,2.39-5.69,5.52-5.69s5.5,2.2,5.5,5.69-2.39,5.67-5.5,5.67-5.52-2.18-5.52-5.67Zm8.19,0c0-2.12-1.01-3.44-2.69-3.44s-2.69,1.34-2.69,3.44,1.01,3.42,2.69,3.42,2.69-1.32,2.69-3.42Z"/><path d="M583.19,57.49c0,3.59-2.33,5.67-4.91,5.67-1.43,0-2.52-.57-3.28-1.58v5.27h-2.77v-14.8h2.5v1.76c.73-1.28,1.95-2.02,3.67-2.02,2.58,0,4.79,2.04,4.79,5.69Zm-2.81,0c0-2.08-1.07-3.46-2.71-3.46s-2.67,1.41-2.67,3.46,1.11,3.44,2.67,3.44,2.71-1.34,2.71-3.44Z"/><path d="M600.77,57.49c0,3.59-2.33,5.67-4.91,5.67-1.43,0-2.52-.57-3.28-1.58v5.27h-2.77v-14.8h2.5v1.76c.73-1.28,1.95-2.02,3.67-2.02,2.58,0,4.79,2.04,4.79,5.69Zm-2.81,0c0-2.08-1.07-3.46-2.71-3.46s-2.67,1.41-2.67,3.46,1.11,3.44,2.67,3.44,2.71-1.34,2.71-3.44Z"/><path d="M608.64,52.03v2.44c-.17-.02-.36-.04-.63-.04-1.7,0-2.62,.99-2.62,2.71v5.77h-2.77v-10.85h2.5v1.87c.52-1.3,1.6-1.97,2.88-1.97,.23,0,.42,.02,.65,.08Z"/><path d="M609.67,57.49c0-3.49,2.39-5.69,5.52-5.69s5.5,2.2,5.5,5.69-2.39,5.67-5.5,5.67-5.52-2.18-5.52-5.67Zm8.19,0c0-2.12-1.01-3.44-2.69-3.44s-2.69,1.34-2.69,3.44,1.01,3.42,2.69,3.42,2.69-1.32,2.69-3.42Z"/><path d="M625.36,64.1c0,1.87-1.01,3-3.02,3-.78,0-1.09-.08-1.45-.19v-2.1c.17,.04,.29,.06,.59,.06,.76,0,1.11-.4,1.11-1.15v-11.67h2.77v12.05Zm-3.04-15.24c0-.9,.67-1.64,1.68-1.64s1.64,.74,1.64,1.64-.67,1.64-1.64,1.64-1.68-.76-1.68-1.64Z"/><path d="M637.88,57.63c0,.34-.02,.63-.02,.63h-7.85c.19,1.97,1.24,2.79,2.71,2.79,1.2,0,1.87-.52,2.18-1.32h2.75c-.48,1.93-2.2,3.42-4.96,3.42-3.46,0-5.46-2.31-5.46-5.61s2.2-5.75,5.38-5.75c3.4,0,5.33,2.35,5.27,5.84Zm-2.83-1.18c-.08-1.64-.99-2.56-2.41-2.56-1.32,0-2.31,.84-2.58,2.56h5Z"/><path d="M639.16,57.47c0-3.53,2.29-5.67,5.42-5.67s4.72,1.7,5.08,4.07h-2.81c-.25-1.22-.99-1.83-2.29-1.83-1.57,0-2.58,1.26-2.58,3.4s.97,3.46,2.6,3.46c1.32,0,1.99-.63,2.27-1.83h2.79c-.36,2.41-2.1,4.07-5.06,4.07-3.13,0-5.42-2.14-5.42-5.69Z"/><path d="M655.18,54.34v4.83c0,1.03,.5,1.53,1.43,1.53,.38,0,.63-.02,.88-.08v2.25c-.55,.15-.86,.17-1.53,.17-2.46,0-3.55-1.39-3.55-3.74v-4.96h-1.7v-2.29h1.7v-3.07h2.77v3.07h2.31v2.29h-2.31Z"/><path d="M673.97,56.08v6.82h-2.77v-6.28c0-1.68-.92-2.5-2.14-2.5s-2.23,.88-2.23,2.54v6.24h-2.77v-15.12h2.77v5.71c.63-1.09,1.68-1.7,3.09-1.7,2.31,0,4.05,1.47,4.05,4.28Z"/><path d="M686.36,57.63c0,.34-.02,.63-.02,.63h-7.85c.19,1.97,1.24,2.79,2.71,2.79,1.2,0,1.87-.52,2.18-1.32h2.75c-.48,1.93-2.2,3.42-4.96,3.42-3.46,0-5.46-2.31-5.46-5.61s2.2-5.75,5.38-5.75c3.4,0,5.33,2.35,5.27,5.84Zm-2.83-1.18c-.08-1.64-.99-2.56-2.41-2.56-1.32,0-2.31,.84-2.58,2.56h5Z"/><path d="M697.58,55.79v7.12h-2.5v-1.39c-.84,1.11-1.99,1.64-3.46,1.64-2.31,0-3.91-1.36-3.91-3.25s1.13-3.09,3.84-3.36l3.28-.34v-.59c0-1.22-.76-1.8-1.95-1.8-1.26,0-1.95,.5-2.16,1.57h-2.77c.29-2.35,2.04-3.59,4.89-3.59s4.75,1.24,4.75,3.99Zm-2.77,2.88v-.8l-2.6,.34c-1.15,.15-1.68,.76-1.68,1.58s.67,1.51,1.83,1.51c1.6,0,2.46-1.07,2.46-2.62Z"/><path d="M710.3,47.79v15.12h-2.5v-1.83c-.69,1.37-1.91,2.08-3.57,2.08-2.58,0-4.89-2.08-4.89-5.67s2.2-5.69,4.79-5.69c1.51,0,2.67,.57,3.4,1.62v-5.63h2.77Zm-2.77,9.7c0-2.08-1.13-3.46-2.69-3.46-1.64,0-2.71,1.37-2.71,3.46s1.13,3.44,2.71,3.44,2.69-1.32,2.69-3.44Z"/><path d="M722.78,57.63c0,.34-.02,.63-.02,.63h-7.85c.19,1.97,1.24,2.79,2.71,2.79,1.2,0,1.87-.52,2.18-1.32h2.75c-.48,1.93-2.2,3.42-4.96,3.42-3.46,0-5.46-2.31-5.46-5.61s2.2-5.75,5.38-5.75c3.4,0,5.33,2.35,5.27,5.84Zm-2.83-1.18c-.08-1.64-.99-2.56-2.41-2.56-1.32,0-2.31,.84-2.58,2.56h5Z"/><path d="M735.04,47.79v15.12h-2.5v-1.83c-.69,1.37-1.91,2.08-3.57,2.08-2.58,0-4.89-2.08-4.89-5.67s2.2-5.69,4.79-5.69c1.51,0,2.67,.57,3.4,1.62v-5.63h2.77Zm-2.77,9.7c0-2.08-1.13-3.46-2.69-3.46-1.64,0-2.71,1.37-2.71,3.46s1.13,3.44,2.71,3.44,2.69-1.32,2.69-3.44Z"/><path d="M753.17,57.49c0,3.59-2.31,5.67-4.89,5.67-1.55,0-2.75-.69-3.51-1.89v1.64h-2.54v-15.12h2.75v5.63c.73-1.05,1.89-1.62,3.4-1.62,2.58,0,4.79,2.04,4.79,5.69Zm-2.79,0c0-2.1-1.07-3.46-2.71-3.46s-2.69,1.39-2.69,3.46,1.11,3.44,2.69,3.44,2.71-1.34,2.71-3.44Z"/><path d="M765.14,52.05l-6.4,14.8h-2.94l2.29-4.91-4.16-9.89h2.94l2.65,7.12,2.81-7.12h2.81Z"/><path d="M776.67,57.05h-2.35v5.86h-2.9v-14.26h6.59c3.25,0,4.98,1.72,4.98,4.12,0,1.93-1.05,3.44-3.36,3.97l4.01,6.17h-3.17l-3.8-5.86Zm-2.35-2.22h3.25c1.78,0,2.54-.84,2.54-2.04s-.78-1.91-2.58-1.91h-3.21v3.95Z"/><path d="M784.92,48.86c0-.9,.67-1.64,1.68-1.64s1.64,.74,1.64,1.64-.67,1.64-1.64,1.64-1.68-.76-1.68-1.64Zm.27,3.19h2.77v10.85h-2.77v-10.85Z"/><path d="M789.85,57.47c0-3.53,2.29-5.67,5.42-5.67s4.72,1.7,5.08,4.07h-2.81c-.25-1.22-.99-1.83-2.29-1.83-1.57,0-2.58,1.26-2.58,3.4s.97,3.46,2.6,3.46c1.32,0,1.99-.63,2.27-1.83h2.79c-.36,2.41-2.1,4.07-5.06,4.07-3.13,0-5.42-2.14-5.42-5.69Z"/><path d="M801.68,57.47c0-3.53,2.29-5.67,5.42-5.67s4.72,1.7,5.08,4.07h-2.81c-.25-1.22-.99-1.83-2.29-1.83-1.57,0-2.58,1.26-2.58,3.4s.97,3.46,2.6,3.46c1.32,0,1.99-.63,2.27-1.83h2.79c-.36,2.41-2.1,4.07-5.06,4.07-3.13,0-5.42-2.14-5.42-5.69Z"/><path d="M823.43,55.79v7.12h-2.5v-1.39c-.84,1.11-1.99,1.64-3.46,1.64-2.31,0-3.91-1.36-3.91-3.25s1.13-3.09,3.84-3.36l3.28-.34v-.59c0-1.22-.76-1.8-1.95-1.8-1.26,0-1.95,.5-2.16,1.57h-2.77c.29-2.35,2.04-3.59,4.89-3.59s4.75,1.24,4.75,3.99Zm-2.77,2.88v-.8l-2.6,.34c-1.15,.15-1.68,.76-1.68,1.58s.67,1.51,1.83,1.51c1.6,0,2.46-1.07,2.46-2.62Z"/><path d="M831.79,52.03v2.44c-.17-.02-.36-.04-.63-.04-1.7,0-2.62,.99-2.62,2.71v5.77h-2.77v-10.85h2.5v1.87c.52-1.3,1.6-1.97,2.88-1.97,.23,0,.42,.02,.65,.08Z"/><path d="M843.8,47.79v15.12h-2.5v-1.83c-.69,1.37-1.91,2.08-3.57,2.08-2.58,0-4.89-2.08-4.89-5.67s2.2-5.69,4.79-5.69c1.51,0,2.67,.57,3.4,1.62v-5.63h2.77Zm-2.77,9.7c0-2.08-1.13-3.46-2.69-3.46-1.64,0-2.71,1.37-2.71,3.46s1.13,3.44,2.71,3.44,2.69-1.32,2.69-3.44Z"/><path d="M845.63,57.49c0-3.49,2.39-5.69,5.52-5.69s5.5,2.2,5.5,5.69-2.39,5.67-5.5,5.67-5.52-2.18-5.52-5.67Zm8.19,0c0-2.12-1.01-3.44-2.69-3.44s-2.69,1.34-2.69,3.44,1.01,3.42,2.69,3.42,2.69-1.32,2.69-3.42Z"/><path d="M862.77,55.81c0-4.39,2.73-7.41,7.05-7.41s7.05,3.02,7.05,7.41-2.75,7.39-7.05,7.39-7.05-3.02-7.05-7.39Zm11.23,0c0-3.09-1.55-5.1-4.18-5.1s-4.18,1.99-4.18,5.1,1.55,5.06,4.18,5.06,4.18-2,4.18-5.06Z"/><path d="M881.6,62.9h-2.77v-15.12h2.77v15.12Z"/><path d="M883.47,57.49c0-3.49,2.39-5.69,5.52-5.69s5.5,2.2,5.5,5.69-2.39,5.67-5.5,5.67-5.52-2.18-5.52-5.67Zm8.19,0c0-2.12-1.01-3.44-2.69-3.44s-2.69,1.34-2.69,3.44,1.01,3.42,2.69,3.42,2.69-1.32,2.69-3.42Z"/><path d="M895.76,57.47c0-3.53,2.29-5.67,5.42-5.67s4.72,1.7,5.08,4.07h-2.81c-.25-1.22-.99-1.83-2.29-1.83-1.57,0-2.58,1.26-2.58,3.4s.97,3.46,2.6,3.46c1.32,0,1.99-.63,2.27-1.83h2.79c-.36,2.41-2.1,4.07-5.06,4.07-3.13,0-5.42-2.14-5.42-5.69Z"/><path d="M907.58,57.47c0-3.53,2.29-5.67,5.42-5.67s4.72,1.7,5.08,4.07h-2.81c-.25-1.22-.99-1.83-2.29-1.83-1.57,0-2.58,1.26-2.58,3.4s.97,3.46,2.6,3.46c1.32,0,1.99-.63,2.27-1.83h2.79c-.36,2.41-2.1,4.07-5.06,4.07-3.13,0-5.42-2.14-5.42-5.69Z"/><path d="M919.4,57.49c0-3.49,2.39-5.69,5.52-5.69s5.5,2.2,5.5,5.69-2.39,5.67-5.5,5.67-5.52-2.18-5.52-5.67Zm8.19,0c0-2.12-1.01-3.44-2.69-3.44s-2.69,1.34-2.69,3.44,1.01,3.42,2.69,3.42,2.69-1.32,2.69-3.42Z"/><path d="M946.39,55.79v7.12h-2.5v-1.39c-.84,1.11-1.99,1.64-3.46,1.64-2.31,0-3.91-1.36-3.91-3.25s1.13-3.09,3.84-3.36l3.28-.34v-.59c0-1.22-.76-1.8-1.95-1.8-1.26,0-1.95,.5-2.16,1.57h-2.77c.29-2.35,2.04-3.59,4.89-3.59s4.75,1.24,4.75,3.99Zm-2.77,2.88v-.8l-2.6,.34c-1.15,.15-1.68,.76-1.68,1.58s.67,1.51,1.83,1.51c1.6,0,2.46-1.07,2.46-2.62Z"/><path d="M958.63,56.06v6.84h-2.77v-6.21c0-1.78-.84-2.58-2.12-2.58s-2.25,.88-2.25,2.58v6.21h-2.77v-10.85h2.5v1.53c.71-1.2,1.87-1.78,3.42-1.78,2.27,0,3.99,1.34,3.99,4.26Z"/><path d="M971.35,47.79v15.12h-2.5v-1.83c-.69,1.37-1.91,2.08-3.57,2.08-2.58,0-4.89-2.08-4.89-5.67s2.2-5.69,4.79-5.69c1.51,0,2.67,.57,3.4,1.62v-5.63h2.77Zm-2.77,9.7c0-2.08-1.13-3.46-2.69-3.46-1.64,0-2.71,1.37-2.71,3.46s1.13,3.44,2.71,3.44,2.69-1.32,2.69-3.44Z"/><path d="M994.73,48.65v14.26h-2.88v-11.65l-3.91,11.65h-2.29l-3.93-11.67v11.67h-2.9v-14.26h4.51l3.46,10.23,3.42-10.23h4.49Z"/><path d="M997.23,48.86c0-.9,.67-1.64,1.68-1.64s1.64,.74,1.64,1.64-.67,1.64-1.64,1.64-1.68-.76-1.68-1.64Zm.27,3.19h2.77v10.85h-2.77v-10.85Z"/><path d="M1002.16,57.47c0-3.53,2.29-5.67,5.42-5.67s4.72,1.7,5.08,4.07h-2.81c-.25-1.22-.99-1.83-2.29-1.83-1.57,0-2.58,1.26-2.58,3.4s.97,3.46,2.6,3.46c1.32,0,1.99-.63,2.27-1.83h2.79c-.36,2.41-2.1,4.07-5.06,4.07-3.13,0-5.42-2.14-5.42-5.69Z"/><path d="M1024.48,56.08v6.82h-2.77v-6.28c0-1.68-.92-2.5-2.14-2.5s-2.23,.88-2.23,2.54v6.24h-2.77v-15.12h2.77v5.71c.63-1.09,1.68-1.7,3.09-1.7,2.31,0,4.05,1.47,4.05,4.28Z"/><path d="M1036.87,57.63c0,.34-.02,.63-.02,.63h-7.85c.19,1.97,1.24,2.79,2.71,2.79,1.2,0,1.87-.52,2.18-1.32h2.75c-.48,1.93-2.2,3.42-4.96,3.42-3.46,0-5.46-2.31-5.46-5.61s2.2-5.75,5.38-5.75c3.4,0,5.33,2.35,5.27,5.84Zm-2.83-1.18c-.08-1.64-.99-2.56-2.41-2.56-1.32,0-2.31,.84-2.58,2.56h5Z"/><path d="M1041.54,62.9h-2.77v-15.12h2.77v15.12Z"/><path d="M1054.05,57.63c0,.34-.02,.63-.02,.63h-7.85c.19,1.97,1.24,2.79,2.71,2.79,1.2,0,1.87-.52,2.18-1.32h2.75c-.48,1.93-2.2,3.42-4.96,3.42-3.46,0-5.46-2.31-5.46-5.61s2.2-5.75,5.38-5.75c3.4,0,5.33,2.35,5.27,5.84Zm-2.83-1.18c-.08-1.64-.99-2.56-2.41-2.56-1.32,0-2.31,.84-2.58,2.56h5Z"/><path d="M1072.55,52.74c0,2.37-1.66,4.3-5.04,4.3h-3.63v5.86h-2.9v-14.26h6.59c3.38,0,4.98,1.7,4.98,4.09Zm-2.88,.06c0-1.26-.82-1.93-2.58-1.93h-3.21v3.95h3.23c1.74,0,2.56-.82,2.56-2.02Z"/><path d="M1083.62,55.79v7.12h-2.5v-1.39c-.84,1.11-1.99,1.64-3.46,1.64-2.31,0-3.91-1.36-3.91-3.25s1.13-3.09,3.84-3.36l3.28-.34v-.59c0-1.22-.76-1.8-1.95-1.8-1.26,0-1.95,.5-2.16,1.57h-2.77c.29-2.35,2.04-3.59,4.89-3.59s4.75,1.24,4.75,3.99Zm-2.77,2.88v-.8l-2.6,.34c-1.15,.15-1.68,.76-1.68,1.58s.67,1.51,1.83,1.51c1.6,0,2.46-1.07,2.46-2.62Z"/><path d="M1089.56,54.34v4.83c0,1.03,.5,1.53,1.43,1.53,.38,0,.63-.02,.88-.08v2.25c-.55,.15-.86,.17-1.53,.17-2.46,0-3.55-1.39-3.55-3.74v-4.96h-1.7v-2.29h1.7v-3.07h2.77v3.07h2.31v2.29h-2.31Z"/><path d="M1103.02,55.79v7.12h-2.5v-1.39c-.84,1.11-1.99,1.64-3.46,1.64-2.31,0-3.91-1.36-3.91-3.25s1.13-3.09,3.84-3.36l3.28-.34v-.59c0-1.22-.76-1.8-1.95-1.8-1.26,0-1.95,.5-2.16,1.57h-2.77c.29-2.35,2.04-3.59,4.89-3.59s4.75,1.24,4.75,3.99Zm-2.77,2.88v-.8l-2.6,.34c-1.15,.15-1.68,.76-1.68,1.58s.67,1.51,1.83,1.51c1.6,0,2.46-1.07,2.46-2.62Z"/><path d="M1115.27,56.06v6.84h-2.77v-6.21c0-1.78-.84-2.58-2.12-2.58s-2.25,.88-2.25,2.58v6.21h-2.77v-10.85h2.5v1.53c.71-1.2,1.87-1.78,3.42-1.78,2.27,0,3.99,1.34,3.99,4.26Z"/><path d="M1127.66,57.63c0,.34-.02,.63-.02,.63h-7.85c.19,1.97,1.24,2.79,2.71,2.79,1.2,0,1.87-.52,2.18-1.32h2.75c-.48,1.93-2.2,3.42-4.96,3.42-3.46,0-5.46-2.31-5.46-5.61s2.2-5.75,5.38-5.75c3.4,0,5.33,2.35,5.27,5.84Zm-6.59-7.35l-2.69-3.28h3.19l2.23,3.28h-2.73Zm3.76,6.17c-.08-1.64-.99-2.56-2.41-2.56-1.32,0-2.31,.84-2.58,2.56h5Z"/><path d="M1144.69,47.79v15.12h-2.5v-1.83c-.69,1.37-1.91,2.08-3.57,2.08-2.58,0-4.89-2.08-4.89-5.67s2.2-5.69,4.79-5.69c1.51,0,2.67,.57,3.4,1.62v-5.63h2.77Zm-2.77,9.7c0-2.08-1.13-3.46-2.69-3.46-1.64,0-2.71,1.37-2.71,3.46s1.13,3.44,2.71,3.44,2.69-1.32,2.69-3.44Z"/><path d="M1156.7,52.05v10.85h-2.48v-1.64c-.73,1.24-1.91,1.89-3.38,1.89-2.44,0-3.84-1.41-3.84-3.99v-7.12h2.77v6.74c0,1.3,.67,2.06,1.89,2.06,1.36,0,2.27-.97,2.27-2.46v-6.34h2.77Z"/><path d="M1165.16,52.03v2.44c-.17-.02-.36-.04-.63-.04-1.7,0-2.62,.99-2.62,2.71v5.77h-2.77v-10.85h2.5v1.87c.52-1.3,1.6-1.97,2.88-1.97,.23,0,.42,.02,.65,.08Z"/><path d="M1166.53,48.86c0-.9,.67-1.64,1.68-1.64s1.64,.74,1.64,1.64-.67,1.64-1.64,1.64-1.68-.76-1.68-1.64Zm.27,3.19h2.77v10.85h-2.77v-10.85Z"/><path d="M1181.96,56.06v6.84h-2.77v-6.21c0-1.78-.84-2.58-2.12-2.58s-2.25,.88-2.25,2.58v6.21h-2.77v-10.85h2.5v1.53c.71-1.2,1.87-1.78,3.42-1.78,2.27,0,3.99,1.34,3.99,4.26Z"/><path d="M1194.67,52.05v10.31c0,2.6-1.53,4.75-5.38,4.75s-5.17-1.66-5.4-3.84h2.92c.1,1.11,.76,1.83,2.48,1.83s2.62-.9,2.62-2.62v-1.72c-.76,1.16-1.87,1.66-3.34,1.66-2.67,0-4.85-2.04-4.85-5.31s2.16-5.29,4.85-5.29c1.55,0,2.79,.65,3.55,1.85v-1.6h2.54Zm-2.75,5.04c0-1.87-1.18-3.09-2.71-3.09s-2.69,1.22-2.69,3.09,1.18,3.11,2.69,3.11,2.71-1.28,2.71-3.11Z"/><path d="M1205.48,54.34v4.83c0,1.03,.5,1.53,1.43,1.53,.38,0,.63-.02,.88-.08v2.25c-.55,.15-.86,.17-1.53,.17-2.46,0-3.55-1.39-3.55-3.74v-4.96h-1.7v-2.29h1.7v-3.07h2.77v3.07h2.31v2.29h-2.31Z"/><path d="M1219.51,56.08v6.82h-2.77v-6.28c0-1.68-.92-2.5-2.14-2.5s-2.23,.88-2.23,2.54v6.24h-2.77v-15.12h2.77v5.71c.63-1.09,1.68-1.7,3.09-1.7,2.31,0,4.05,1.47,4.05,4.28Z"/><path d="M1231.9,57.63c0,.34-.02,.63-.02,.63h-7.85c.19,1.97,1.24,2.79,2.71,2.79,1.2,0,1.87-.52,2.18-1.32h2.75c-.48,1.93-2.2,3.42-4.96,3.42-3.46,0-5.46-2.31-5.46-5.61s2.2-5.75,5.38-5.75c3.4,0,5.33,2.35,5.27,5.84Zm-2.83-1.18c-.08-1.64-.99-2.56-2.41-2.56-1.32,0-2.31,.84-2.58,2.56h5Z"/><path d="M1254.73,48.65v14.26h-2.88v-11.65l-3.91,11.65h-2.29l-3.93-11.67v11.67h-2.9v-14.26h4.51l3.46,10.23,3.42-10.23h4.49Z"/><path d="M1266.15,59.5h-5.65l-1.15,3.4h-3.04l5.4-14.26h3.36l5.25,14.26h-3.04l-1.11-3.4Zm-.76-2.31l-2.04-6.19-2.08,6.19h4.12Z"/><path d="M1282.64,51.04h-4.47v11.86h-2.88v-11.86h-4.47v-2.39h11.82v2.39Z"/><path d="M1297.13,55.79c0,4.37-2.75,7.12-6.93,7.12h-5.63v-14.26h5.63c4.18,0,6.93,2.75,6.93,7.14Zm-2.9,.02c0-3.17-1.55-4.81-4.39-4.81h-2.39v9.55h2.39c2.81,0,4.39-1.64,4.39-4.75Z"/><path d="M70.98,77.86c0-.9,.67-1.64,1.68-1.64s1.64,.74,1.64,1.64-.67,1.64-1.64,1.64-1.68-.76-1.68-1.64Zm.27,3.19h2.77v10.85h-2.77v-10.85Z"/><path d="M86.42,85.06v6.84h-2.77v-6.21c0-1.78-.84-2.58-2.12-2.58s-2.25,.88-2.25,2.58v6.21h-2.77v-10.85h2.5v1.53c.71-1.2,1.87-1.78,3.42-1.78,2.27,0,3.99,1.34,3.99,4.26Z"/><path d="M103.76,89.59v2.31h-10.71v-.78c0-2.35,1.13-3.97,3.23-5.19l2.88-1.68c1.18-.69,1.62-1.43,1.62-2.39,0-1.15-.73-2.16-2.23-2.16s-2.52,1.11-2.48,2.88h-2.83c-.13-2.83,1.87-5.19,5.31-5.19s5.14,2.08,5.14,4.49c0,1.55-.59,2.92-2.5,4.07l-3.38,2.02c-.69,.42-1.18,.88-1.41,1.62h7.35Z"/><path d="M105.42,84.79c0-4.66,2.41-7.39,6.11-7.39s6.09,2.73,6.09,7.39-2.39,7.37-6.09,7.37-6.11-2.62-6.11-7.37Zm9.3,0c0-3.15-.92-5.04-3.19-5.04s-3.21,1.89-3.21,5.04,.99,5.06,3.21,5.06,3.19-1.91,3.19-5.06Z"/><path d="M125.37,77.65v14.26h-2.88v-10.27c-.97,.65-1.93,.9-3.59,.9v-2.29c2.58-.08,3.42-1.03,3.93-2.6h2.54Z"/><path d="M138.71,87.94c0,2.35-2.14,4.22-5.5,4.22s-5.5-1.87-5.5-4.22c0-1.66,1.07-2.9,2.58-3.38-1.41-.53-2.27-1.68-2.27-3.13,0-2.18,1.83-4.03,5.14-4.03s5.23,1.85,5.23,4.03c0,1.47-.86,2.6-2.31,3.11,1.53,.46,2.62,1.66,2.62,3.4Zm-2.96-.17c0-1.2-.97-2.1-2.54-2.1s-2.54,.9-2.54,2.1,.99,2.1,2.54,2.1,2.54-.88,2.54-2.1Zm-4.83-6.13c0,.99,.8,1.93,2.29,1.93s2.27-.95,2.27-1.93c0-1.09-.86-1.97-2.27-1.97s-2.29,.88-2.29,1.97Z"/><path d="M142.28,94.7h-1.87c.59-1.11,.9-1.85,1.15-2.67l-.19-.11c-.65-.29-.99-.82-.99-1.55,0-.97,.78-1.76,1.78-1.76s1.78,.76,1.78,1.8-.31,2.08-1.68,4.28Z"/><path d="M161.77,86.49c0,3.59-2.31,5.67-4.89,5.67-1.55,0-2.75-.69-3.51-1.89v1.64h-2.54v-15.12h2.75v5.63c.73-1.05,1.89-1.62,3.4-1.62,2.58,0,4.79,2.04,4.79,5.69Zm-2.79,0c0-2.1-1.07-3.46-2.71-3.46s-2.69,1.39-2.69,3.46,1.11,3.44,2.69,3.44,2.71-1.34,2.71-3.44Z"/><path d="M173.23,81.05v10.85h-2.48v-1.64c-.73,1.24-1.91,1.89-3.38,1.89-2.44,0-3.84-1.41-3.84-3.99v-7.12h2.77v6.74c0,1.3,.67,2.06,1.89,2.06,1.36,0,2.27-.97,2.27-2.46v-6.34h2.77Z"/><path d="M179.28,83.34v4.83c0,1.03,.5,1.53,1.43,1.53,.38,0,.63-.02,.88-.08v2.25c-.55,.15-.86,.17-1.53,.17-2.46,0-3.55-1.39-3.55-3.74v-4.96h-1.7v-2.29h1.7v-3.07h2.77v3.07h2.31v2.29h-2.31Z"/><path d="M198.54,81.05v14.87h-2.75v-5.56c-.67,1.18-1.76,1.81-3.3,1.81-2.58,0-4.89-2.08-4.89-5.67s2.2-5.69,4.79-5.69c1.68,0,2.88,.69,3.61,1.95v-1.7h2.54Zm-2.75,5.44c0-2.06-1.13-3.46-2.69-3.46-1.64,0-2.71,1.37-2.71,3.46s1.13,3.44,2.71,3.44,2.69-1.32,2.69-3.44Z"/><path d="M210.57,81.05v10.85h-2.48v-1.64c-.73,1.24-1.91,1.89-3.38,1.89-2.44,0-3.84-1.41-3.84-3.99v-7.12h2.77v6.74c0,1.3,.67,2.06,1.89,2.06,1.36,0,2.27-.97,2.27-2.46v-6.34h2.77Z"/><path d="M212.76,77.86c0-.9,.67-1.64,1.68-1.64s1.64,.74,1.64,1.64-.67,1.64-1.64,1.64-1.68-.76-1.68-1.64Zm.27,3.19h2.77v10.85h-2.77v-10.85Z"/><path d="M217.69,86.47c0-3.53,2.29-5.67,5.42-5.67s4.72,1.7,5.08,4.07h-2.81c-.25-1.22-.99-1.83-2.29-1.83-1.57,0-2.58,1.26-2.58,3.4s.97,3.46,2.6,3.46c1.32,0,1.99-.63,2.27-1.83h2.79c-.36,2.41-2.1,4.07-5.06,4.07-3.13,0-5.42-2.14-5.42-5.69Z"/><path d="M237.18,91.9l-4.3-5.35v5.35h-2.77v-15.12h2.77v8.4l4.2-4.14h3.07l-4.72,4.77,4.93,6.09h-3.17Z"/><path d="M244.36,91.9h-2.77v-15.12h2.77v15.12Z"/><path d="M256.92,81.05l-6.4,14.8h-2.94l2.29-4.91-4.16-9.89h2.94l2.65,7.12,2.81-7.12h2.81Z"/><path d="M273.27,81.05v10.31c0,2.6-1.53,4.75-5.38,4.75s-5.17-1.66-5.4-3.84h2.92c.1,1.11,.76,1.83,2.48,1.83s2.62-.9,2.62-2.62v-1.72c-.76,1.16-1.87,1.66-3.34,1.66-2.67,0-4.85-2.04-4.85-5.31s2.16-5.29,4.85-5.29c1.55,0,2.79,.65,3.55,1.85v-1.6h2.54Zm-2.75,5.04c0-1.87-1.18-3.09-2.71-3.09s-2.69,1.22-2.69,3.09,1.18,3.11,2.69,3.11,2.71-1.28,2.71-3.11Z"/><path d="M281.74,81.03v2.44c-.17-.02-.36-.04-.63-.04-1.7,0-2.62,.99-2.62,2.71v5.77h-2.77v-10.85h2.5v1.87c.52-1.3,1.6-1.97,2.88-1.97,.23,0,.42,.02,.65,.08Z"/><path d="M292.7,84.79v7.12h-2.5v-1.39c-.84,1.11-1.99,1.64-3.46,1.64-2.31,0-3.91-1.36-3.91-3.25s1.13-3.09,3.84-3.36l3.28-.34v-.59c0-1.22-.76-1.8-1.95-1.8-1.26,0-1.95,.5-2.16,1.57h-2.77c.29-2.35,2.04-3.59,4.89-3.59s4.75,1.24,4.75,3.99Zm-2.77,2.88v-.8l-2.6,.34c-1.15,.15-1.68,.76-1.68,1.58s.67,1.51,1.83,1.51c1.6,0,2.46-1.07,2.46-2.62Z"/><path d="M305.97,86.49c0,3.59-2.31,5.67-4.89,5.67-1.55,0-2.75-.69-3.51-1.89v1.64h-2.54v-15.12h2.75v5.63c.73-1.05,1.89-1.62,3.4-1.62,2.58,0,4.79,2.04,4.79,5.69Zm-2.79,0c0-2.1-1.07-3.46-2.71-3.46s-2.69,1.39-2.69,3.46,1.11,3.44,2.69,3.44,2.71-1.34,2.71-3.44Z"/><path d="M318.78,86.49c0,3.59-2.31,5.67-4.89,5.67-1.55,0-2.75-.69-3.51-1.89v1.64h-2.54v-15.12h2.75v5.63c.73-1.05,1.89-1.62,3.4-1.62,2.58,0,4.79,2.04,4.79,5.69Zm-2.79,0c0-2.1-1.07-3.46-2.71-3.46s-2.69,1.39-2.69,3.46,1.11,3.44,2.69,3.44,2.71-1.34,2.71-3.44Z"/><path d="M330.71,86.63c0,.34-.02,.63-.02,.63h-7.85c.19,1.97,1.24,2.79,2.71,2.79,1.2,0,1.87-.52,2.18-1.32h2.75c-.48,1.93-2.2,3.42-4.96,3.42-3.46,0-5.46-2.31-5.46-5.61s2.2-5.75,5.38-5.75c3.4,0,5.33,2.35,5.27,5.84Zm-2.83-1.18c-.08-1.64-.99-2.56-2.41-2.56-1.32,0-2.31,.84-2.58,2.56h5Z"/><path d="M342.97,76.79v15.12h-2.5v-1.83c-.69,1.37-1.91,2.08-3.57,2.08-2.58,0-4.89-2.08-4.89-5.67s2.2-5.69,4.79-5.69c1.51,0,2.67,.57,3.4,1.62v-5.63h2.77Zm-2.77,9.7c0-2.08-1.13-3.46-2.69-3.46-1.64,0-2.71,1.37-2.71,3.46s1.13,3.44,2.71,3.44,2.69-1.32,2.69-3.44Z"/><path d="M349.57,86.49c0-3.49,2.39-5.69,5.52-5.69s5.5,2.2,5.5,5.69-2.39,5.67-5.5,5.67-5.52-2.18-5.52-5.67Zm8.19,0c0-2.12-1.01-3.44-2.69-3.44s-2.69,1.34-2.69,3.44,1.01,3.42,2.69,3.42,2.69-1.32,2.69-3.42Z"/><path d="M372.04,81.05v10.85h-2.48v-1.64c-.73,1.24-1.91,1.89-3.38,1.89-2.44,0-3.84-1.41-3.84-3.99v-7.12h2.77v6.74c0,1.3,.67,2.06,1.89,2.06,1.36,0,2.27-.97,2.27-2.46v-6.34h2.77Z"/><path d="M380.5,81.03v2.44c-.17-.02-.36-.04-.63-.04-1.7,0-2.62,.99-2.62,2.71v5.77h-2.77v-10.85h2.5v1.87c.52-1.3,1.6-1.97,2.88-1.97,.23,0,.42,.02,.65,.08Z"/><path d="M396.23,84.79v7.12h-2.5v-1.39c-.84,1.11-1.99,1.64-3.46,1.64-2.31,0-3.91-1.36-3.91-3.25s1.13-3.09,3.84-3.36l3.28-.34v-.59c0-1.22-.76-1.8-1.95-1.8-1.26,0-1.95,.5-2.16,1.57h-2.77c.29-2.35,2.04-3.59,4.89-3.59s4.75,1.24,4.75,3.99Zm-2.77,2.88v-.8l-2.6,.34c-1.15,.15-1.68,.76-1.68,1.58s.67,1.51,1.83,1.51c1.6,0,2.46-1.07,2.46-2.62Z"/><path d="M402.17,83.34v4.83c0,1.03,.5,1.53,1.43,1.53,.38,0,.63-.02,.88-.08v2.25c-.55,.15-.86,.17-1.53,.17-2.46,0-3.55-1.39-3.55-3.74v-4.96h-1.7v-2.29h1.7v-3.07h2.77v3.07h2.31v2.29h-2.31Z"/><path d="M409.9,83.34v4.83c0,1.03,.5,1.53,1.43,1.53,.38,0,.63-.02,.88-.08v2.25c-.55,.15-.86,.17-1.53,.17-2.46,0-3.55-1.39-3.55-3.74v-4.96h-1.7v-2.29h1.7v-3.07h2.77v3.07h2.31v2.29h-2.31Z"/><path d="M424.08,86.63c0,.34-.02,.63-.02,.63h-7.85c.19,1.97,1.24,2.79,2.71,2.79,1.2,0,1.87-.52,2.18-1.32h2.75c-.48,1.93-2.2,3.42-4.96,3.42-3.46,0-5.46-2.31-5.46-5.61s2.2-5.75,5.38-5.75c3.4,0,5.33,2.35,5.27,5.84Zm-2.83-1.18c-.08-1.64-.99-2.56-2.41-2.56-1.32,0-2.31,.84-2.58,2.56h5Z"/><path d="M435.86,85.06v6.84h-2.77v-6.21c0-1.78-.84-2.58-2.12-2.58s-2.25,.88-2.25,2.58v6.21h-2.77v-10.85h2.5v1.53c.71-1.2,1.87-1.78,3.42-1.78,2.27,0,3.99,1.34,3.99,4.26Z"/><path d="M441.8,83.34v4.83c0,1.03,.5,1.53,1.43,1.53,.38,0,.63-.02,.88-.08v2.25c-.55,.15-.86,.17-1.53,.17-2.46,0-3.55-1.39-3.55-3.74v-4.96h-1.7v-2.29h1.7v-3.07h2.77v3.07h2.31v2.29h-2.31Z"/><path d="M445.67,77.86c0-.9,.67-1.64,1.68-1.64s1.64,.74,1.64,1.64-.67,1.64-1.64,1.64-1.68-.76-1.68-1.64Zm.27,3.19h2.77v10.85h-2.77v-10.85Z"/><path d="M450.6,86.49c0-3.49,2.39-5.69,5.52-5.69s5.5,2.2,5.5,5.69-2.39,5.67-5.5,5.67-5.52-2.18-5.52-5.67Zm8.19,0c0-2.12-1.01-3.44-2.69-3.44s-2.69,1.34-2.69,3.44,1.01,3.42,2.69,3.42,2.69-1.32,2.69-3.42Z"/><path d="M473.38,85.06v6.84h-2.77v-6.21c0-1.78-.84-2.58-2.12-2.58s-2.25,.88-2.25,2.58v6.21h-2.77v-10.85h2.5v1.53c.71-1.2,1.87-1.78,3.42-1.78,2.27,0,3.99,1.34,3.99,4.26Z"/><path d="M497.34,81.05l-3.34,10.85h-3.3l-2.29-7.6-2.2,7.6h-3.3l-3.32-10.85h2.88l2.2,8.1,2.29-8.1h3.09l2.31,8.1,2.14-8.1h2.83Z"/><path d="M498.31,86.49c0-3.49,2.39-5.69,5.52-5.69s5.5,2.2,5.5,5.69-2.39,5.67-5.5,5.67-5.52-2.18-5.52-5.67Zm8.19,0c0-2.12-1.01-3.44-2.69-3.44s-2.69,1.34-2.69,3.44,1.01,3.42,2.69,3.42,2.69-1.32,2.69-3.42Z"/><path d="M517.21,81.03v2.44c-.17-.02-.36-.04-.63-.04-1.7,0-2.62,.99-2.62,2.71v5.77h-2.77v-10.85h2.5v1.87c.52-1.3,1.6-1.97,2.88-1.97,.23,0,.42,.02,.65,.08Z"/><path d="M522.44,83.34v4.83c0,1.03,.5,1.53,1.43,1.53,.38,0,.63-.02,.88-.08v2.25c-.55,.15-.86,.17-1.53,.17-2.46,0-3.55-1.39-3.55-3.74v-4.96h-1.7v-2.29h1.7v-3.07h2.77v3.07h2.31v2.29h-2.31Z"/><path d="M536.47,85.08v6.82h-2.77v-6.28c0-1.68-.92-2.5-2.14-2.5s-2.23,.88-2.23,2.54v6.24h-2.77v-15.12h2.77v5.71c.63-1.09,1.68-1.7,3.09-1.7,2.31,0,4.05,1.47,4.05,4.28Z"/><path d="M548.9,81.05l-6.4,14.8h-2.94l2.29-4.91-4.16-9.89h2.94l2.65,7.12,2.81-7.12h2.81Z"/><path d="M558.52,80.4v.65h2.58v2.29h-2.58v8.57h-2.77v-8.57h-1.7v-2.29h1.7v-.63c0-2.52,1.55-3.84,3.84-3.84,.63,0,1.18,.08,1.62,.23v2.12c-.31-.08-.65-.13-.99-.13-1.11,0-1.7,.52-1.7,1.6Z"/><path d="M561.98,86.49c0-3.49,2.39-5.69,5.52-5.69s5.5,2.2,5.5,5.69-2.39,5.67-5.5,5.67-5.52-2.18-5.52-5.67Zm8.19,0c0-2.12-1.01-3.44-2.69-3.44s-2.69,1.34-2.69,3.44,1.01,3.42,2.69,3.42,2.69-1.32,2.69-3.42Z"/><path d="M580.88,81.03v2.44c-.17-.02-.36-.04-.63-.04-1.7,0-2.62,.99-2.62,2.71v5.77h-2.77v-10.85h2.5v1.87c.52-1.3,1.6-1.97,2.88-1.97,.23,0,.42,.02,.65,.08Z"/><path d="M590.9,80.4v.65h2.58v2.29h-2.58v8.57h-2.77v-8.57h-1.7v-2.29h1.7v-.63c0-2.52,1.55-3.84,3.84-3.84,.63,0,1.18,.08,1.62,.23v2.12c-.31-.08-.65-.13-.99-.13-1.11,0-1.7,.52-1.7,1.6Z"/><path d="M604.55,81.05v10.85h-2.48v-1.64c-.73,1.24-1.91,1.89-3.38,1.89-2.44,0-3.84-1.41-3.84-3.99v-7.12h2.77v6.74c0,1.3,.67,2.06,1.89,2.06,1.36,0,2.27-.97,2.27-2.46v-6.34h2.77Z"/><path d="M613.01,81.03v2.44c-.17-.02-.36-.04-.63-.04-1.7,0-2.62,.99-2.62,2.71v5.77h-2.77v-10.85h2.5v1.87c.52-1.3,1.6-1.97,2.88-1.97,.23,0,.42,.02,.65,.08Z"/><path d="M618.24,83.34v4.83c0,1.03,.5,1.53,1.43,1.53,.38,0,.63-.02,.88-.08v2.25c-.55,.15-.86,.17-1.53,.17-2.46,0-3.55-1.39-3.55-3.74v-4.96h-1.7v-2.29h1.7v-3.07h2.77v3.07h2.31v2.29h-2.31Z"/><path d="M632.27,85.08v6.82h-2.77v-6.28c0-1.68-.92-2.5-2.14-2.5s-2.23,.88-2.23,2.54v6.24h-2.77v-15.12h2.77v5.71c.63-1.09,1.68-1.7,3.09-1.7,2.31,0,4.05,1.47,4.05,4.28Z"/><path d="M644.66,86.63c0,.34-.02,.63-.02,.63h-7.85c.19,1.97,1.24,2.79,2.71,2.79,1.2,0,1.87-.52,2.18-1.32h2.75c-.48,1.93-2.2,3.42-4.96,3.42-3.46,0-5.46-2.31-5.46-5.61s2.2-5.75,5.38-5.75c3.4,0,5.33,2.35,5.27,5.84Zm-2.83-1.18c-.08-1.64-.99-2.56-2.41-2.56-1.32,0-2.31,.84-2.58,2.56h5Z"/><path d="M652.56,81.03v2.44c-.17-.02-.36-.04-.63-.04-1.7,0-2.62,.99-2.62,2.71v5.77h-2.77v-10.85h2.5v1.87c.52-1.3,1.6-1.97,2.88-1.97,.23,0,.42,.02,.65,.08Z"/><path d="M669,86.63c0,.34-.02,.63-.02,.63h-7.85c.19,1.97,1.24,2.79,2.71,2.79,1.2,0,1.87-.52,2.18-1.32h2.75c-.48,1.93-2.2,3.42-4.96,3.42-3.46,0-5.46-2.31-5.46-5.61s2.2-5.75,5.38-5.75c3.4,0,5.33,2.35,5.27,5.84Zm-2.83-1.18c-.08-1.64-.99-2.56-2.41-2.56-1.32,0-2.31,.84-2.58,2.56h5Z"/><path d="M678.07,91.9l-2.62-3.99-2.56,3.99h-3.09l3.97-5.67-3.8-5.19h3.09l2.39,3.4,2.39-3.4h3.11l-3.8,5.19,4.01,5.67h-3.09Z"/><path d="M693.38,86.49c0,3.59-2.33,5.67-4.91,5.67-1.43,0-2.52-.57-3.28-1.58v5.27h-2.77v-14.8h2.5v1.76c.73-1.28,1.95-2.02,3.67-2.02,2.58,0,4.79,2.04,4.79,5.69Zm-2.81,0c0-2.08-1.07-3.46-2.71-3.46s-2.67,1.41-2.67,3.46,1.11,3.44,2.67,3.44,2.71-1.34,2.71-3.44Z"/><path d="M698.02,91.9h-2.77v-15.12h2.77v15.12Z"/><path d="M699.89,86.49c0-3.49,2.39-5.69,5.52-5.69s5.5,2.2,5.5,5.69-2.39,5.67-5.5,5.67-5.52-2.18-5.52-5.67Zm8.19,0c0-2.12-1.01-3.44-2.69-3.44s-2.69,1.34-2.69,3.44,1.01,3.42,2.69,3.42,2.69-1.32,2.69-3.42Z"/><path d="M718.79,81.03v2.44c-.17-.02-.36-.04-.63-.04-1.7,0-2.62,.99-2.62,2.71v5.77h-2.77v-10.85h2.5v1.87c.52-1.3,1.6-1.97,2.88-1.97,.23,0,.42,.02,.65,.08Z"/><path d="M729.75,84.79v7.12h-2.5v-1.39c-.84,1.11-1.99,1.64-3.46,1.64-2.31,0-3.91-1.36-3.91-3.25s1.13-3.09,3.84-3.36l3.28-.34v-.59c0-1.22-.76-1.8-1.95-1.8-1.26,0-1.95,.5-2.16,1.57h-2.77c.29-2.35,2.04-3.59,4.89-3.59s4.75,1.24,4.75,3.99Zm-2.77,2.88v-.8l-2.6,.34c-1.15,.15-1.68,.76-1.68,1.58s.67,1.51,1.83,1.51c1.6,0,2.46-1.07,2.46-2.62Z"/><path d="M735.69,83.34v4.83c0,1.03,.5,1.53,1.43,1.53,.38,0,.63-.02,.88-.08v2.25c-.55,.15-.86,.17-1.53,.17-2.46,0-3.55-1.39-3.55-3.74v-4.96h-1.7v-2.29h1.7v-3.07h2.77v3.07h2.31v2.29h-2.31Z"/><path d="M739.56,77.86c0-.9,.67-1.64,1.68-1.64s1.64,.74,1.64,1.64-.67,1.64-1.64,1.64-1.68-.76-1.68-1.64Zm.27,3.19h2.77v10.85h-2.77v-10.85Z"/><path d="M744.49,86.49c0-3.49,2.39-5.69,5.52-5.69s5.5,2.2,5.5,5.69-2.39,5.67-5.5,5.67-5.52-2.18-5.52-5.67Zm8.19,0c0-2.12-1.01-3.44-2.69-3.44s-2.69,1.34-2.69,3.44,1.01,3.42,2.69,3.42,2.69-1.32,2.69-3.42Z"/><path d="M767.28,85.06v6.84h-2.77v-6.21c0-1.78-.84-2.58-2.12-2.58s-2.25,.88-2.25,2.58v6.21h-2.77v-10.85h2.5v1.53c.71-1.2,1.87-1.78,3.42-1.78,2.27,0,3.99,1.34,3.99,4.26Z"/><path d="M772.87,90.37c0,.99-.8,1.78-1.78,1.78s-1.78-.8-1.78-1.78,.8-1.76,1.78-1.76,1.78,.8,1.78,1.76Z"/><path d="M788.42,88.5h-5.65l-1.15,3.4h-3.04l5.4-14.26h3.36l5.25,14.26h-3.04l-1.11-3.4Zm-.76-2.31l-2.04-6.19-2.08,6.19h4.12Z"/><path d="M793.26,88.73h2.71c.23,.97,.99,1.47,2.31,1.47s2.02-.5,2.02-1.24c0-.63-.38-1.07-1.36-1.24l-2.33-.44c-2.2-.42-3.13-1.45-3.13-3.11,0-1.81,1.55-3.38,4.51-3.38s4.54,1.41,4.89,3.59h-2.73c-.17-1.09-.92-1.64-2.18-1.64s-1.89,.57-1.89,1.26c0,.59,.31,.99,1.45,1.18l2.29,.4c2.37,.4,3.23,1.51,3.23,3.19,0,1.8-1.43,3.38-4.75,3.38s-4.64-1.39-5.04-3.42Z"/><path d="M809.03,88.73h2.71c.23,.97,.99,1.47,2.31,1.47s2.02-.5,2.02-1.24c0-.63-.38-1.07-1.36-1.24l-2.33-.44c-2.2-.42-3.13-1.45-3.13-3.11,0-1.81,1.55-3.38,4.51-3.38s4.54,1.41,4.89,3.59h-2.73c-.17-1.09-.92-1.64-2.18-1.64s-1.89,.57-1.89,1.26c0,.59,.31,.99,1.45,1.18l2.29,.4c2.37,.4,3.23,1.51,3.23,3.19,0,1.8-1.43,3.38-4.75,3.38s-4.64-1.39-5.04-3.42Z"/><path d="M830.26,81.05v10.85h-2.48v-1.64c-.73,1.24-1.91,1.89-3.38,1.89-2.44,0-3.84-1.41-3.84-3.99v-7.12h2.77v6.74c0,1.3,.67,2.06,1.89,2.06,1.36,0,2.27-.97,2.27-2.46v-6.34h2.77Z"/><path d="M832.11,86.47c0-3.53,2.29-5.67,5.42-5.67s4.72,1.7,5.08,4.07h-2.81c-.25-1.22-.99-1.83-2.29-1.83-1.57,0-2.58,1.26-2.58,3.4s.97,3.46,2.6,3.46c1.32,0,1.99-.63,2.27-1.83h2.79c-.36,2.41-2.1,4.07-5.06,4.07-3.13,0-5.42-2.14-5.42-5.69Z"/><path d="M854.43,85.08v6.82h-2.77v-6.28c0-1.68-.92-2.5-2.14-2.5s-2.23,.88-2.23,2.54v6.24h-2.77v-15.12h2.77v5.71c.63-1.09,1.68-1.7,3.09-1.7,2.31,0,4.05,1.47,4.05,4.28Z"/><path d="M858.31,94.7h-1.87c.59-1.11,.9-1.85,1.15-2.67l-.19-.11c-.65-.29-.99-.82-.99-1.55,0-.97,.78-1.76,1.78-1.76s1.78,.76,1.78,1.8-.31,2.08-1.68,4.28Z"/><path d="M883.72,81.05l-3.34,10.85h-3.3l-2.29-7.6-2.2,7.6h-3.3l-3.32-10.85h2.88l2.2,8.1,2.29-8.1h3.09l2.31,8.1,2.14-8.1h2.83Z"/><path d="M895.33,86.63c0,.34-.02,.63-.02,.63h-7.85c.19,1.97,1.24,2.79,2.71,2.79,1.2,0,1.87-.52,2.18-1.32h2.75c-.48,1.93-2.2,3.42-4.96,3.42-3.46,0-5.46-2.31-5.46-5.61s2.2-5.75,5.38-5.75c3.4,0,5.33,2.35,5.27,5.84Zm-2.83-1.18c-.08-1.64-.99-2.56-2.41-2.56-1.32,0-2.31,.84-2.58,2.56h5Z"/><path d="M912.37,76.79v15.12h-2.5v-1.83c-.69,1.37-1.91,2.08-3.57,2.08-2.58,0-4.89-2.08-4.89-5.67s2.2-5.69,4.79-5.69c1.51,0,2.67,.57,3.4,1.62v-5.63h2.77Zm-2.77,9.7c0-2.08-1.13-3.46-2.69-3.46-1.64,0-2.71,1.37-2.71,3.46s1.13,3.44,2.71,3.44,2.69-1.32,2.69-3.44Z"/><path d="M924.84,86.63c0,.34-.02,.63-.02,.63h-7.85c.19,1.97,1.24,2.79,2.71,2.79,1.2,0,1.87-.52,2.18-1.32h2.75c-.48,1.93-2.2,3.42-4.96,3.42-3.46,0-5.46-2.31-5.46-5.61s2.2-5.75,5.38-5.75c3.4,0,5.33,2.35,5.27,5.84Zm-2.83-1.18c-.08-1.64-.99-2.56-2.41-2.56-1.32,0-2.31,.84-2.58,2.56h5Z"/><path d="M926.12,86.47c0-3.53,2.29-5.67,5.42-5.67s4.72,1.7,5.08,4.07h-2.81c-.25-1.22-.99-1.83-2.29-1.83-1.57,0-2.58,1.26-2.58,3.4s.97,3.46,2.6,3.46c1.32,0,1.99-.63,2.27-1.83h2.79c-.36,2.41-2.1,4.07-5.06,4.07-3.13,0-5.42-2.14-5.42-5.69Z"/><path d="M938.28,77.86c0-.9,.67-1.64,1.68-1.64s1.64,.74,1.64,1.64-.67,1.64-1.64,1.64-1.68-.76-1.68-1.64Zm.27,3.19h2.77v10.85h-2.77v-10.85Z"/><path d="M954.2,76.79v15.12h-2.5v-1.83c-.69,1.37-1.91,2.08-3.57,2.08-2.58,0-4.89-2.08-4.89-5.67s2.2-5.69,4.79-5.69c1.51,0,2.67,.57,3.4,1.62v-5.63h2.77Zm-2.77,9.7c0-2.08-1.13-3.46-2.69-3.46-1.64,0-2.71,1.37-2.71,3.46s1.13,3.44,2.71,3.44,2.69-1.32,2.69-3.44Z"/><path d="M966.67,86.63c0,.34-.02,.63-.02,.63h-7.85c.19,1.97,1.24,2.79,2.71,2.79,1.2,0,1.87-.52,2.18-1.32h2.75c-.48,1.93-2.2,3.42-4.96,3.42-3.46,0-5.46-2.31-5.46-5.61s2.2-5.75,5.38-5.75c3.4,0,5.33,2.35,5.27,5.84Zm-2.83-1.18c-.08-1.64-.99-2.56-2.41-2.56-1.32,0-2.31,.84-2.58,2.56h5Z"/><path d="M978.94,76.79v15.12h-2.5v-1.83c-.69,1.37-1.91,2.08-3.57,2.08-2.58,0-4.89-2.08-4.89-5.67s2.2-5.69,4.79-5.69c1.51,0,2.67,.57,3.4,1.62v-5.63h2.77Zm-2.77,9.7c0-2.08-1.13-3.46-2.69-3.46-1.64,0-2.71,1.37-2.71,3.46s1.13,3.44,2.71,3.44,2.69-1.32,2.69-3.44Z"/><path d="M989.73,83.34v4.83c0,1.03,.5,1.53,1.43,1.53,.38,0,.63-.02,.88-.08v2.25c-.55,.15-.86,.17-1.53,.17-2.46,0-3.55-1.39-3.55-3.74v-4.96h-1.7v-2.29h1.7v-3.07h2.77v3.07h2.31v2.29h-2.31Z"/><path d="M993.26,86.49c0-3.49,2.39-5.69,5.52-5.69s5.5,2.2,5.5,5.69-2.39,5.67-5.5,5.67-5.52-2.18-5.52-5.67Zm8.19,0c0-2.12-1.01-3.44-2.69-3.44s-2.69,1.34-2.69,3.44,1.01,3.42,2.69,3.42,2.69-1.32,2.69-3.42Z"/><path d="M1021.86,86.49c0,3.59-2.33,5.67-4.91,5.67-1.43,0-2.52-.57-3.28-1.58v5.27h-2.77v-14.8h2.5v1.76c.73-1.28,1.95-2.02,3.67-2.02,2.58,0,4.79,2.04,4.79,5.69Zm-2.81,0c0-2.08-1.07-3.46-2.71-3.46s-2.67,1.41-2.67,3.46,1.11,3.44,2.67,3.44,2.71-1.34,2.71-3.44Z"/><path d="M1033.3,81.05v10.85h-2.48v-1.64c-.73,1.24-1.91,1.89-3.38,1.89-2.44,0-3.84-1.41-3.84-3.99v-7.12h2.77v6.74c0,1.3,.67,2.06,1.89,2.06,1.36,0,2.27-.97,2.27-2.46v-6.34h2.77Z"/><path d="M1035.11,88.73h2.71c.23,.97,.99,1.47,2.31,1.47s2.02-.5,2.02-1.24c0-.63-.38-1.07-1.36-1.24l-2.33-.44c-2.2-.42-3.13-1.45-3.13-3.11,0-1.81,1.55-3.38,4.51-3.38s4.54,1.41,4.89,3.59h-2.73c-.17-1.09-.92-1.64-2.18-1.64s-1.89,.57-1.89,1.26c0,.59,.31,.99,1.45,1.18l2.29,.4c2.37,.4,3.23,1.51,3.23,3.19,0,1.8-1.43,3.38-4.75,3.38s-4.64-1.39-5.04-3.42Z"/><path d="M1056.66,85.08v6.82h-2.77v-6.28c0-1.68-.92-2.5-2.14-2.5s-2.23,.88-2.23,2.54v6.24h-2.77v-15.12h2.77v5.71c.63-1.09,1.68-1.7,3.09-1.7,2.31,0,4.05,1.47,4.05,4.28Z"/><path d="M1063.5,77.86c0-.9,.67-1.64,1.68-1.64s1.64,.74,1.64,1.64-.67,1.64-1.64,1.64-1.68-.76-1.68-1.64Zm.27,3.19h2.77v10.85h-2.77v-10.85Z"/><path d="M1072.64,83.34v4.83c0,1.03,.5,1.53,1.43,1.53,.38,0,.63-.02,.88-.08v2.25c-.55,.15-.86,.17-1.53,.17-2.46,0-3.55-1.39-3.55-3.74v-4.96h-1.7v-2.29h1.7v-3.07h2.77v3.07h2.31v2.29h-2.31Z"/><path d="M1092.46,86.49c0,3.59-2.31,5.67-4.89,5.67-1.55,0-2.75-.69-3.51-1.89v1.64h-2.54v-15.12h2.75v5.63c.73-1.05,1.89-1.62,3.4-1.62,2.58,0,4.79,2.04,4.79,5.69Zm-2.79,0c0-2.1-1.07-3.46-2.71-3.46s-2.69,1.39-2.69,3.46,1.11,3.44,2.69,3.44,2.71-1.34,2.71-3.44Z"/><path d="M1104.39,86.63c0,.34-.02,.63-.02,.63h-7.85c.19,1.97,1.24,2.79,2.71,2.79,1.2,0,1.87-.52,2.18-1.32h2.75c-.48,1.93-2.2,3.42-4.96,3.42-3.46,0-5.46-2.31-5.46-5.61s2.2-5.75,5.38-5.75c3.4,0,5.33,2.35,5.27,5.84Zm-2.83-1.18c-.08-1.64-.99-2.56-2.41-2.56-1.32,0-2.31,.84-2.58,2.56h5Z"/><path d="M1116.36,81.05l-6.4,14.8h-2.94l2.29-4.91-4.16-9.89h2.94l2.65,7.12,2.81-7.12h2.81Z"/><path d="M1116.99,86.49c0-3.49,2.39-5.69,5.52-5.69s5.5,2.2,5.5,5.69-2.39,5.67-5.5,5.67-5.52-2.18-5.52-5.67Zm8.19,0c0-2.12-1.01-3.44-2.69-3.44s-2.69,1.34-2.69,3.44,1.01,3.42,2.69,3.42,2.69-1.32,2.69-3.42Z"/><path d="M1139.77,85.06v6.84h-2.77v-6.21c0-1.78-.84-2.58-2.12-2.58s-2.25,.88-2.25,2.58v6.21h-2.77v-10.85h2.5v1.53c.71-1.2,1.87-1.78,3.42-1.78,2.27,0,3.99,1.34,3.99,4.26Z"/><path d="M1152.5,76.79v15.12h-2.5v-1.83c-.69,1.37-1.91,2.08-3.57,2.08-2.58,0-4.89-2.08-4.89-5.67s2.2-5.69,4.79-5.69c1.51,0,2.67,.57,3.4,1.62v-5.63h2.77Zm-2.77,9.7c0-2.08-1.13-3.46-2.69-3.46-1.64,0-2.71,1.37-2.71,3.46s1.13,3.44,2.71,3.44,2.69-1.32,2.69-3.44Z"/><path d="M1163.29,83.34v4.83c0,1.03,.5,1.53,1.43,1.53,.38,0,.63-.02,.88-.08v2.25c-.55,.15-.86,.17-1.53,.17-2.46,0-3.55-1.39-3.55-3.74v-4.96h-1.7v-2.29h1.7v-3.07h2.77v3.07h2.31v2.29h-2.31Z"/><path d="M1177.32,85.08v6.82h-2.77v-6.28c0-1.68-.92-2.5-2.14-2.5s-2.23,.88-2.23,2.54v6.24h-2.77v-15.12h2.77v5.71c.63-1.09,1.68-1.7,3.09-1.7,2.31,0,4.05,1.47,4.05,4.28Z"/><path d="M1189.71,86.63c0,.34-.02,.63-.02,.63h-7.85c.19,1.97,1.24,2.79,2.71,2.79,1.2,0,1.87-.52,2.18-1.32h2.75c-.48,1.93-2.2,3.42-4.96,3.42-3.46,0-5.46-2.31-5.46-5.61s2.2-5.75,5.38-5.75c3.4,0,5.33,2.35,5.27,5.84Zm-2.83-1.18c-.08-1.64-.99-2.56-2.41-2.56-1.32,0-2.31,.84-2.58,2.56h5Z"/><path d="M1195.72,88.73h2.71c.23,.97,.99,1.47,2.31,1.47s2.02-.5,2.02-1.24c0-.63-.38-1.07-1.36-1.24l-2.33-.44c-2.2-.42-3.13-1.45-3.13-3.11,0-1.81,1.55-3.38,4.51-3.38s4.54,1.41,4.89,3.59h-2.73c-.17-1.09-.92-1.64-2.18-1.64s-1.89,.57-1.89,1.26c0,.59,.31,.99,1.45,1.18l2.29,.4c2.37,.4,3.23,1.51,3.23,3.19,0,1.8-1.43,3.38-4.75,3.38s-4.64-1.39-5.04-3.42Z"/><path d="M1206.77,86.47c0-3.53,2.29-5.67,5.42-5.67s4.72,1.7,5.08,4.07h-2.81c-.25-1.22-.99-1.83-2.29-1.83-1.57,0-2.58,1.26-2.58,3.4s.97,3.46,2.6,3.46c1.32,0,1.99-.63,2.27-1.83h2.79c-.36,2.41-2.1,4.07-5.06,4.07-3.13,0-5.42-2.14-5.42-5.69Z"/><path d="M1218.59,86.49c0-3.49,2.39-5.69,5.52-5.69s5.5,2.2,5.5,5.69-2.39,5.67-5.5,5.67-5.52-2.18-5.52-5.67Zm8.19,0c0-2.12-1.01-3.44-2.69-3.44s-2.69,1.34-2.69,3.44,1.01,3.42,2.69,3.42,2.69-1.32,2.69-3.42Z"/><path d="M1242.42,86.49c0,3.59-2.33,5.67-4.91,5.67-1.43,0-2.52-.57-3.28-1.58v5.27h-2.77v-14.8h2.5v1.76c.73-1.28,1.95-2.02,3.67-2.02,2.58,0,4.79,2.04,4.79,5.69Zm-2.81,0c0-2.08-1.07-3.46-2.71-3.46s-2.67,1.41-2.67,3.46,1.11,3.44,2.67,3.44,2.71-1.34,2.71-3.44Z"/><path d="M1254.33,86.63c0,.34-.02,.63-.02,.63h-7.85c.19,1.97,1.24,2.79,2.71,2.79,1.2,0,1.87-.52,2.18-1.32h2.75c-.48,1.93-2.2,3.42-4.96,3.42-3.46,0-5.46-2.31-5.46-5.61s2.2-5.75,5.38-5.75c3.4,0,5.33,2.35,5.27,5.84Zm-2.83-1.18c-.08-1.64-.99-2.56-2.41-2.56-1.32,0-2.31,.84-2.58,2.56h5Z"/><path d="M1260.38,86.49c0-3.49,2.39-5.69,5.52-5.69s5.5,2.2,5.5,5.69-2.39,5.67-5.5,5.67-5.52-2.18-5.52-5.67Zm8.19,0c0-2.12-1.01-3.44-2.69-3.44s-2.69,1.34-2.69,3.44,1.01,3.42,2.69,3.42,2.69-1.32,2.69-3.42Z"/><path d="M1276.88,80.4v.65h2.58v2.29h-2.58v8.57h-2.77v-8.57h-1.7v-2.29h1.7v-.63c0-2.52,1.55-3.84,3.84-3.84,.63,0,1.18,.08,1.62,.23v2.12c-.31-.08-.65-.13-.99-.13-1.11,0-1.7,.52-1.7,1.6Z"/><path d="M1295.05,84.79v7.12h-2.5v-1.39c-.84,1.11-1.99,1.64-3.46,1.64-2.31,0-3.91-1.36-3.91-3.25s1.13-3.09,3.84-3.36l3.28-.34v-.59c0-1.22-.76-1.8-1.95-1.8-1.26,0-1.95,.5-2.16,1.57h-2.77c.29-2.35,2.04-3.59,4.89-3.59s4.75,1.24,4.75,3.99Zm-2.77,2.88v-.8l-2.6,.34c-1.15,.15-1.68,.76-1.68,1.58s.67,1.51,1.83,1.51c1.6,0,2.46-1.07,2.46-2.62Z"/><path d="M87.84,114.1v6.8h-2.77v-6.24c0-1.7-.84-2.48-2.02-2.48s-2.14,.8-2.14,2.35v6.36h-2.77v-6.24c0-1.7-.84-2.48-2.02-2.48s-2.12,.78-2.12,2.35v6.36h-2.77v-10.85h2.5v1.51c.69-1.18,1.87-1.76,3.32-1.76,1.55,0,2.75,.71,3.38,1.99,.73-1.32,1.97-1.99,3.51-1.99,2.37,0,3.91,1.6,3.91,4.3Z"/><path d="M100.24,115.63c0,.34-.02,.63-.02,.63h-7.85c.19,1.97,1.24,2.79,2.71,2.79,1.2,0,1.87-.52,2.18-1.32h2.75c-.48,1.93-2.2,3.42-4.96,3.42-3.46,0-5.46-2.31-5.46-5.61s2.2-5.75,5.38-5.75c3.4,0,5.33,2.35,5.27,5.84Zm-2.83-1.18c-.08-1.64-.99-2.56-2.41-2.56-1.32,0-2.31,.84-2.58,2.56h5Z"/><path d="M108.13,110.03v2.44c-.17-.02-.36-.04-.63-.04-1.7,0-2.62,.99-2.62,2.71v5.77h-2.77v-10.85h2.5v1.87c.52-1.3,1.6-1.97,2.88-1.97,.23,0,.42,.02,.65,.08Z"/><path d="M119.81,115.63c0,.34-.02,.63-.02,.63h-7.85c.19,1.97,1.24,2.79,2.71,2.79,1.2,0,1.87-.52,2.18-1.32h2.75c-.48,1.93-2.2,3.42-4.96,3.42-3.46,0-5.46-2.31-5.46-5.61s2.2-5.75,5.38-5.75c3.4,0,5.33,2.35,5.27,5.84Zm-2.83-1.18c-.08-1.64-.99-2.56-2.41-2.56-1.32,0-2.31,.84-2.58,2.56h5Z"/><path d="M132.47,110.03v2.44c-.17-.02-.36-.04-.63-.04-1.7,0-2.62,.99-2.62,2.71v5.77h-2.77v-10.85h2.5v1.87c.52-1.3,1.6-1.97,2.88-1.97,.23,0,.42,.02,.65,.08Z"/><path d="M144.15,115.63c0,.34-.02,.63-.02,.63h-7.85c.19,1.97,1.24,2.79,2.71,2.79,1.2,0,1.87-.52,2.18-1.32h2.75c-.48,1.93-2.2,3.42-4.96,3.42-3.46,0-5.46-2.31-5.46-5.61s2.2-5.75,5.38-5.75c3.4,0,5.33,2.35,5.27,5.84Zm-2.83-1.18c-.08-1.64-.99-2.56-2.41-2.56-1.32,0-2.31,.84-2.58,2.56h5Z"/><path d="M156.1,110.05l-3.93,10.85h-3.21l-4.03-10.85h2.88l2.79,8.12,2.65-8.12h2.86Z"/><path d="M157.23,106.86c0-.9,.67-1.64,1.68-1.64s1.64,.74,1.64,1.64-.67,1.64-1.64,1.64-1.68-.76-1.68-1.64Zm.27,3.19h2.77v10.85h-2.77v-10.85Z"/><path d="M172.83,110.05l-3.93,10.85h-3.21l-4.03-10.85h2.88l2.79,8.12,2.65-8.12h2.86Z"/><path d="M183.56,113.79v7.12h-2.5v-1.39c-.84,1.11-1.99,1.64-3.46,1.64-2.31,0-3.91-1.36-3.91-3.25s1.13-3.09,3.84-3.36l3.28-.34v-.59c0-1.22-.76-1.8-1.95-1.8-1.26,0-1.95,.5-2.16,1.57h-2.77c.29-2.35,2.04-3.59,4.89-3.59s4.75,1.24,4.75,3.99Zm-2.77,2.88v-.8l-2.6,.34c-1.15,.15-1.68,.76-1.68,1.58s.67,1.51,1.83,1.51c1.6,0,2.46-1.07,2.46-2.62Z"/><path d="M188.69,120.9h-2.77v-15.12h2.77v15.12Z"/><path d="M194.4,119.37c0,.99-.8,1.78-1.78,1.78s-1.78-.8-1.78-1.78,.8-1.76,1.78-1.76,1.78,.8,1.78,1.76Z"/></g></svg>