<?xml version="1.0" encoding="UTF-8"?><svg id="Layer_1" xmlns="http://www.w3.org/2000/svg" xmlns:xlink="http://www.w3.org/1999/xlink" viewBox="0 0 1366 768"><defs><style>.cls-1{clip-path:url(#clippath);}.cls-2{fill:#e6e6e6;}.cls-3{fill:#12100b;}</style><clipPath id="clippath"><rect class="cls-2" x="-1" width="1366" height="768"/></clipPath></defs><g><rect class="cls-2" x="-1" width="1366" height="768"/><g class="cls-1"><rect class="cls-2" x="8.51" y="6.58" width="1346.99" height="760.1"/></g></g><g><path class="cls-3" d="M444.84,154.16c-7.62,17.3-25.58,31.08-52.8,31.08-20.5,0-40.64-9.07-40.64-36.96s25.04-76.27,83.1-76.27c15.06,0,27.58,3.19,35.56,7.06l-1.81,33.1h-6.35c-.73-24.53-12.16-32.26-31.03-32.26-40.28,0-62.42,40.66-62.42,65.86,0,23.18,14.88,29.4,28.67,29.4,19.05,0,33.75-7.9,41.37-21h6.35Z"/><path class="cls-3" d="M561.89,73.69h43.36v6.05c-15.24,2.02-17.78,8.74-23.77,19.82l-40.46,75.77,13.43,2.18v6.05h-42.46v-6.05c13.06-1.34,15.79-7.56,22.32-19.99l13.61-25.37h-50.62l-23.04,43.18,13.97,2.18v6.05h-43.91v-6.05c13.06-1.34,16.69-7.56,23.22-19.82l39.92-74.93-10.16-3.02v-6.05h41.91l.18,6.05c-15.24,2.02-18.69,8.74-24.68,19.82l-13.25,24.86h50.44l22.32-41.66-12.34-3.02v-6.05Z"/><path class="cls-3" d="M588.39,143.24c0-25.03,23.04-71.23,81.65-71.23,20.32,0,51.35,5.04,51.35,42.17,0,26.21-21.23,71.06-81.83,71.06-20.87,0-51.17-5.88-51.17-42Zm115.03-27.38c0-30.58-19.96-35.62-36.65-35.62-45.18,0-60.96,42.67-60.96,63,0,28.56,19.6,33.77,37.74,33.77,44.45,0,59.88-40.15,59.88-61.15Z"/><path class="cls-3" d="M809.84,73.69v6.05l-19.42,3.02-42.82,80.14c-4.35,8.06-3.99,12.6,12.88,14.62v6.05h-52.98v-6.05c12.7-1.01,18.14-3.7,23.95-14.62l42.82-80.14-15.42-3.02v-6.05h50.99Z"/><path class="cls-3" d="M846.6,135.01l21.59,30.91c5.08,7.22,7.26,10.58,19.96,11.76v5.88h-26.31l-32.12-48.05-7.62-.17-21.05,39.31,19.23,2.86v6.05h-49.53v-6.05c11.25-2.02,14.33-3.36,20.5-14.95l42.64-79.8-10.16-3.02v-6.05h40.64c15.24,0,36.47,3.36,36.47,23.02,0,13.94-10.52,36.62-54.25,38.3Zm36.29-36.62c0-14.78-11.25-17.47-21.23-17.47-3.63,0-7.44,.34-11.07,.67l-24.13,45.36c5.08,.5,9.98,.84,15.06,.84,33.38,0,41.37-17.98,41.37-29.4Z"/><path class="cls-3" d="M951.87,117.37l9.44,10.25c7.26,7.73,12.34,15.12,12.34,26.21,0,12.94-9.8,31.42-42.46,31.42-14.15,0-30.66-4.2-38.1-9.07l14.88-32.76,5.99,1.68c-2.54,6.22-3.81,11.26-3.81,16.46,0,10.92,8.71,16.3,23.22,16.3,16.51,0,24.86-9.58,24.86-21.5,0-9.58-3.81-14.28-9.8-20.83l-9.98-10.75c-5.44-5.88-10.52-13.94-10.52-21.67,0-18.98,15.6-31.08,40.46-31.08,8.71,0,19.96,1.68,29.03,5.38l-1.81,33.1h-6.35c-.73-21.5-7.98-31.08-25.22-31.08-13.06,0-21.77,7.56-21.77,19.15,0,7.56,4.35,13.1,9.62,18.82Z"/></g><g><path class="cls-3" d="M501.84,330.49l13.17,2.22v5.18h-38.92v-5.18c11.1-2.37,12.73-5.48,12.73-17.32v-22.79h-48.54l-.15,37.89,15.84,2.22v5.18h-39.81v-5.18c10.06-2.81,11.1-5.77,10.95-17.32-.15-11.99-.15-53.13-.15-66.6l-10.95-1.92v-5.77h37.59v5.77l-13.32,1.92v37h48.54c.15-14.5,.15-29.75,.15-37l-14.06-1.92v-5.77h37.44v5.77c-8.14,1.48-10.36,3.11-10.36,10.95,0,11.4-.15,59.79-.15,72.67Z"/><path class="cls-3" d="M548.8,284.76c6.66,0,16.13,0,21.16-.15,6.36-.15,7.4-3.55,8.29-10.95h5.03v29.15h-5.03c-.89-6.81-1.92-10.36-8.29-10.66-5.33-.3-14.5-.44-21.16-.44l-.15,37.15c10.95,.89,20.87,1.48,29.3,1.48,7.4,0,9.92-9.92,11.84-17.91l5.18,.15-1.48,25.31h-68.67v-5.18c10.06-2.81,10.8-5.77,10.8-17.32l-.15-67.19-11.1-1.33v-5.77h66.01l1.48,24.86-6.66,.3c-1.04-9.92-4.74-17.02-14.5-17.46-6.07-.3-15.39-.59-22.05-.59l.15,36.55Z"/><path class="cls-3" d="M663.69,305.04h-36.41l-9.32,25.6,16.43,2.07v5.18h-32.71v-5.18c8.73-1.63,10.21-5.48,16.28-21.9l24.72-66.75,12.73-6.07,32.11,92.5,9.92,2.22v5.18h-40.25v-5.18c13.32-1.48,15.24-4.88,10.06-18.35l-3.55-9.32Zm-2.07-5.77l-15.24-46.77-16.72,46.77h31.97Z"/><path class="cls-3" d="M733.68,337.89h-6.36l-35.07-88.8-9.77-2.07v-5.92h40.99v5.92l-15.54,2.07,25.75,67.34,23.53-67.34-12.43-2.07v-5.92h30.19v5.77c-8.14,1.48-10.8,4.29-13.47,11.84l-27.82,79.18Z"/><path class="cls-3" d="M805.27,284.76c6.66,0,16.13,0,21.16-.15,6.36-.15,7.4-3.55,8.29-10.95h5.03v29.15h-5.03c-.89-6.81-1.92-10.36-8.29-10.66-5.33-.3-14.5-.44-21.16-.44l-.15,37.15c10.95,.89,20.87,1.48,29.3,1.48,7.4,0,9.92-9.92,11.84-17.91l5.18,.15-1.48,25.31h-68.67v-5.18c10.06-2.81,10.8-5.77,10.8-17.32l-.15-67.19-11.1-1.33v-5.77h66.01l1.48,24.86-6.66,.3c-1.04-9.92-4.74-17.02-14.5-17.46-6.07-.3-15.39-.59-22.05-.59l.15,36.55Z"/><path class="cls-3" d="M942,336.86l-7.7,1.04c-15.24-19.98-56.24-75.18-56.24-75.18h-1.33v67.78l15.83,2.52v4.88h-34.04v-4.59c10.06-2.81,10.95-5.77,10.95-17.32v-65.56l-11.4-3.7v-5.62c7.1,.3,14.21,.44,21.31,.44l55.2,73.11v-66.45l-14.36-1.48v-5.62h32.71v5.62l-10.95,1.48v88.65Z"/></g><g><path class="cls-3" d="M292.38,497.24c13.61-2.35,15.06-4.54,23.04-19.66l40.1-75.1-10.16-3.02v-6.05h38.83c20.32,0,38.28,4.37,38.28,23.69s-17.96,40.66-63.69,40.66h-16.51l-19.6,36.62,19.23,2.86v6.05h-49.53v-6.05Zm54.8-48.72c4.9,1.68,10.71,2.35,16.69,2.35,32.66,0,40.64-19.99,40.64-32.76,0-14.45-10.52-17.47-21.23-17.47-3.08,0-7.08,.34-11.07,.67l-25.04,47.21Z"/><path class="cls-3" d="M499.94,393.42v6.05l-19.41,3.02-42.82,80.14c-4.35,8.06-3.99,12.6,12.88,14.62v6.05h-52.98v-6.05c12.7-1.01,18.14-3.7,23.95-14.62l42.82-80.14-15.42-3.02v-6.05h50.99Z"/><path class="cls-3" d="M484.57,495.22v1.85l31.39-1.18c14.88-.67,21.77-10.58,30.66-24.86h6.53l-17.06,32.09h-72.94v-7.22l102.15-93.41,.54-1.18-31.93,.84c-16.15,.5-19.6,3.7-31.75,23.02h-6.53l17.06-31.75h80.2l-2.9,5.54-105.42,96.26Z"/><path class="cls-3" d="M662.06,389.89l-17.78,105.5,12.34,1.85v6.05h-44.82v-6.05c15.97-1.85,18.33-6.89,19.78-16.3l2.36-14.95h-38.47l-24.31,29.4,12.52,1.85v6.05h-37.92v-6.05c11.43-1.85,16.33-4.2,30.48-20.66l74.03-86.02,11.79-.67Zm-61.15,69.55h33.93l8.35-51.24-42.28,51.24Z"/><path class="cls-3" d="M738.37,454.73l21.59,30.91c5.08,7.22,7.26,10.58,19.96,11.76v5.88h-26.31l-32.12-48.05-7.62-.17-21.05,39.31,19.23,2.86v6.05h-49.53v-6.05c11.25-2.02,14.33-3.36,20.5-14.95l42.64-79.8-10.16-3.02v-6.05h40.64c15.24,0,36.47,3.36,36.47,23.02,0,13.94-10.52,36.62-54.25,38.3Zm36.29-36.62c0-14.78-11.25-17.47-21.23-17.47-3.63,0-7.44,.34-11.07,.67l-24.13,45.36c5.08,.5,9.98,.84,15.06,.84,33.38,0,41.37-17.98,41.37-29.4Z"/><path class="cls-3" d="M868.93,503.29l-18.51-90.05h-1.45l-40.64,80.98,15.97,3.02v6.05h-41.73v-6.05c13.61-2.18,16.69-3.53,22.5-14.62l40.82-78.12-11.25-5.54v-5.54h27.94l16.87,84.67,40.28-75.6-16.69-3.02v-6.05h40.28v6.05c-11.25,1.34-14.7,4.7-20.68,15.62l-48.63,88.54-5.08-.34Z"/><path class="cls-3" d="M1002.34,393.42v6.05l-19.41,3.02-42.82,80.14c-4.35,8.06-3.99,12.6,12.88,14.62v6.05h-52.98v-6.05c12.7-1.01,18.14-3.7,23.95-14.62l42.82-80.14-15.42-3.02v-6.05h50.99Z"/><path class="cls-3" d="M1041.1,503.29l-8.89-56.78-20.87,14.45-17.78,33.26,21.77,3.02v6.05h-52.07v-6.05c12.88-2.02,15.24-5.21,21.05-15.96l42.09-78.79-10.16-3.02v-6.05h41.01v6.05l-14.7,3.19-23.77,44.69,68.77-46.2-11.98-1.68v-6.05h41.55l.18,6.22c-10.34,1.34-17.42,2.69-31.03,11.42l-40.64,26.21,7.26,46.7c1.45,9.07,4.35,12.1,16.15,13.27v6.05h-27.94Z"/></g><g><path class="cls-3" d="M264.1,644.73l-6.14,22.25c-9.54,4.26-20.96,7.1-36.47,7.1-34.6,0-55.22-19.88-55.22-52.08,0-29.67,19.6-54.29,59.65-54.29,11.59,0,24.2,1.89,33.57,4.89l.68,26.51-6.48,.16c-3.41-18.15-15.34-24.14-31.53-24.14-26.59,0-40.22,18.78-40.22,46.24,0,25.72,14.49,44.97,41.41,44.97,15.68,0,28.29-6.15,34.43-23.2l6.31,1.58Z"/><path class="cls-3" d="M370.96,664.61l15.17,2.37v5.52h-44.82v-5.52c12.27-2.52,14.15-5.84,14.15-18.46v-24.46h-55.22v40.56l17.9,2.37v5.52h-45.84v-5.52c11.59-3,12.61-6.15,12.61-18.46v-71.01l-12.78-2.05v-6.15h43.29v6.15l-15.17,2.05v39.45h55.39v-39.45l-15.68-2.05v-6.15h43.12v6.15c-9.37,1.58-12.1,3.31-12.1,11.68v77.48Z"/><path class="cls-3" d="M468.52,637.47h-41.41l-10.74,27.3,18.41,2.21v5.52h-37.66v-5.52c10.05-1.74,11.76-5.84,18.75-23.36l28.46-71.17,14.66-6.47,36.98,98.63,11.42,2.37v5.52h-46.36v-5.52c15.34-1.58,17.55-5.21,11.59-19.57l-4.09-9.94Zm-2.39-7.1l-17.55-48.92-18.75,48.92h36.3Z"/><path class="cls-3" d="M518.28,666.82c11.59-3,12.44-6.16,12.44-18.46v-71.64l-12.61-2.05v-5.37h41.41c25.05,0,43.12,7.57,43.12,28.88s-15.51,31.56-41.24,31.56c-4.77,0-10.57-.32-15.51-.95v35.03l17.55,2.84v5.84h-45.16v-5.68Zm27.78-45.76c4.43,1.58,10.06,2.21,15,2.21,16.87,0,24.88-9.31,24.88-24.46s-9.03-23.36-26.59-23.36c-4.94,0-8.69,.47-13.29,1.26v44.34Z"/><path class="cls-3" d="M634.14,666.67c15-3,17.72-5.84,17.72-18.15v-72.28h-14.66c-15.34,0-16.7,8.05-19.6,20.51l-6.99-.95,2.56-27.14c17.72,.79,32.04,.79,54.37,.79,16.19,0,28.63-.16,37.32-.79l2.73,26.83-6.82,1.26c-3.92-12.31-5.79-20.36-18.58-20.51h-15v86.32l16.36,4.1v5.84h-49.42v-5.84Z"/><path class="cls-3" d="M744.47,615.85c7.67,0,16.87,0,22.67-.16,7.33-.16,8.52-3.79,9.54-11.68h5.79v31.09h-5.79c-1.02-7.26-2.21-11.05-9.54-11.36-6.13-.32-15-.47-22.67-.47v41.03c9.03,1.1,20.96,1.58,29.14,1.58,11.25,0,14.66-3.95,19.26-21.46l5.96,.16-2.21,27.93h-79.93v-5.84c11.42-2.52,12.44-5.84,12.44-18.15v-71.8l-12.61-2.05v-5.37h76.18l1.7,24.93-7.67,.32c-1.88-9.94-4.26-16.57-18.24-17.04-7.5-.32-16.53-.47-24.03-.63v38.98Z"/><path class="cls-3" d="M883.56,650.73c7.5,9.47,13.46,15.62,24.88,17.36l-.85,5.52c-7.67-.47-19.43-1.1-27.1-1.1-6.65-8.52-21.99-34.09-30.51-45.13h-12.78v36.45l17.38,2.84v5.84h-45.16v-5.84c11.42-2.84,12.44-5.84,12.44-18.15v-71.8l-12.61-2.05v-5.37h41.41c24.88,0,43.12,7.57,43.12,28.72,0,10.1-6.31,23.67-27.27,27.77,5.45,7.73,11.42,17.83,17.04,24.93Zm-46.36-74.01v43.4c4.26,.47,9.03,1.1,14.15,1.1,17.55,0,25.73-9.31,25.73-22.88s-8.35-22.88-26.25-22.88c-4.94,0-8.86,.47-13.63,1.26Z"/><path class="cls-3" d="M1031.49,663.67l12.44,3v5.84h-47.38v-5.37l15.34-3.47-23.52-33.61-23.69,33.77,16.36,2.84v5.84h-38.69v-5.84c9.03-.79,11.93-2.52,16.53-9l24.37-34.72-31.7-45.29-11.42-1.89v-6.63h46.01v6.31l-15.17,2.21,22.16,31.4,21.47-30.93-11.42-2.21v-6.79h34.43v6.79c-10.23,1.26-13.8,3.79-19.26,11.52l-20.28,28.72,33.4,47.5Z"/><path class="cls-3" d="M1140.51,663.67l12.44,3v5.84h-47.38v-5.37l15.34-3.47-23.52-33.61-23.69,33.77,16.36,2.84v5.84h-38.69v-5.84c9.03-.79,11.93-2.52,16.53-9l24.37-34.72-31.7-45.29-11.42-1.89v-6.63h46.01v6.31l-15.17,2.21,22.16,31.4,21.47-30.93-11.42-2.21v-6.79h34.43v6.79c-10.23,1.26-13.8,3.79-19.26,11.52l-20.28,28.72,33.4,47.5Z"/><path class="cls-3" d="M1202.96,569.3v6l-12.61,2.05v86.16l12.61,3.16v5.84h-40.56v-5.84c11.59-1.74,12.61-6.15,12.61-18.46v-70.86l-12.61-2.05v-6h40.56Z"/></g><g><path class="cls-3" d="M361.93,205.83v9.51h-1.19v-8.47l-3.22,8.47h-.77l-3.26-8.49v8.49h-1.19v-9.51h1.93l2.9,7.63,2.9-7.63h1.9Z"/><path class="cls-3" d="M365.89,215.34h-1.18v-9.51h1.18v9.51Z"/><path class="cls-3" d="M374.42,214.33v1.01h-5.77v-9.51h1.2v8.5h4.57Z"/><path class="cls-3" d="M382.06,212.72h-4.19l-.99,2.62h-1.26l3.75-9.51h1.27l3.63,9.51h-1.26l-.95-2.62Zm-.36-1l-1.7-4.68-1.76,4.68h3.46Z"/><path class="cls-3" d="M389.13,212.51h1.25c.18,1.34,1.18,2,2.72,2,1.62,0,2.38-.71,2.38-1.64,0-.84-.56-1.33-1.67-1.58l-2.21-.49c-1.4-.31-2.16-1.16-2.16-2.41,0-1.54,1.3-2.73,3.4-2.73s3.52,.88,3.73,2.83h-1.25c-.18-1.26-1.11-1.83-2.51-1.83s-2.13,.7-2.13,1.6c0,.69,.35,1.16,1.44,1.42l2.14,.49c1.54,.35,2.45,1.19,2.45,2.55,0,1.67-1.3,2.8-3.63,2.8-2.49,0-3.77-1.08-3.96-3Z"/><path class="cls-3" d="M406.62,211.64c0,2.58-1.53,3.87-3.92,3.87s-3.94-1.3-3.94-3.87v-5.81h1.18v5.81c0,1.86,1.11,2.83,2.77,2.83s2.73-.92,2.73-2.77v-5.87h1.18v5.81Z"/><path class="cls-3" d="M416.4,208.47c0,1.57-1.08,2.7-3.25,2.7h-2.63v4.16h-1.19v-9.51h3.92c2.17,0,3.15,1.01,3.15,2.65Zm-1.19,0c0-1.07-.66-1.65-2.16-1.65h-2.54v3.36h2.54c1.5,0,2.16-.69,2.16-1.71Z"/><path class="cls-3" d="M419.45,206.83v3.14h4.8v1h-4.8v3.36h5.39v1.01h-6.57v-9.51h6.57v1.01h-5.39Z"/><path class="cls-3" d="M430.15,211.18h-2.06v4.16h-1.19v-9.51h3.91c2.17,0,3.17,1.01,3.17,2.62,0,1.43-.78,2.4-2.55,2.61l3.07,4.29h-1.33l-3.01-4.16Zm-2.06-.99h2.58c1.39,0,2.12-.63,2.12-1.74s-.76-1.62-2.14-1.62h-2.55v3.36Z"/><path class="cls-3" d="M441.48,215.34h-1.18v-9.51h1.18v9.51Z"/><path class="cls-3" d="M450.77,206.81h-3.15v8.53h-1.18v-8.53h-3.17v-.98h7.49v.98Z"/><path class="cls-3" d="M456.86,212.72h-4.19l-.99,2.62h-1.26l3.75-9.51h1.27l3.63,9.51h-1.26l-.95-2.62Zm-.36-1l-1.7-4.68-1.76,4.68h3.46Z"/><path class="cls-3" d="M466.61,214.33v1.01h-5.77v-9.51h1.2v8.5h4.57Z"/><path class="cls-3" d="M469.57,215.34h-1.18v-9.51h1.18v9.51Z"/><path class="cls-3" d="M471.8,210.59c0-2.87,1.74-4.93,4.41-4.93,2.51,0,3.67,1.29,4.05,3.21h-1.25c-.34-1.54-1.25-2.21-2.8-2.21-1.79,0-3.22,1.54-3.22,3.94s1.43,3.92,3.22,3.92c1.51,0,2.44-.63,2.82-2.2h1.25c-.42,2-1.6,3.19-4.06,3.19-2.66,0-4.41-2.04-4.41-4.92Z"/></g><g><path class="cls-3" d="M497.93,359.83v9.51h-1.19v-8.47l-3.22,8.47h-.77l-3.26-8.49v8.49h-1.19v-9.51h1.93l2.9,7.63,2.9-7.63h1.9Z"/><path class="cls-3" d="M501.89,369.34h-1.18v-9.51h1.18v9.51Z"/><path class="cls-3" d="M510.42,368.33v1.01h-5.77v-9.51h1.2v8.5h4.57Z"/><path class="cls-3" d="M518.06,366.72h-4.19l-.99,2.62h-1.26l3.75-9.51h1.27l3.63,9.51h-1.26l-.95-2.62Zm-.36-1l-1.7-4.68-1.76,4.68h3.46Z"/><path class="cls-3" d="M529.12,365.18h-2.06v4.16h-1.19v-9.51h3.91c2.17,0,3.17,1.01,3.17,2.62,0,1.43-.78,2.4-2.55,2.61l3.07,4.29h-1.33l-3.01-4.16Zm-2.06-.99h2.58c1.39,0,2.12-.63,2.12-1.74s-.76-1.62-2.14-1.62h-2.55v3.36Z"/><path class="cls-3" d="M536.51,360.83v3.14h4.8v1h-4.8v3.36h5.39v1.01h-6.57v-9.51h6.57v1.01h-5.39Z"/><path class="cls-3" d="M552,364.41v4.93h-1.06v-1.74c-.49,1.13-1.48,1.91-3.14,1.91-2.68,0-4.47-1.99-4.47-4.92s1.78-4.93,4.44-4.93c1.98,0,3.43,.84,3.99,2.73h-1.26c-.43-1.12-1.26-1.74-2.75-1.74-1.91,0-3.24,1.5-3.24,3.94s1.3,3.92,3.28,3.92,3.04-1.22,3.05-3.11h-3.32v-.99h4.47Z"/><path class="cls-3" d="M562.16,365.64c0,2.58-1.53,3.87-3.92,3.87s-3.94-1.3-3.94-3.87v-5.81h1.18v5.81c0,1.86,1.11,2.83,2.77,2.83s2.73-.92,2.73-2.77v-5.87h1.18v5.81Z"/><path class="cls-3" d="M570.63,368.33v1.01h-5.77v-9.51h1.2v8.5h4.57Z"/><path class="cls-3" d="M578.27,366.72h-4.19l-.99,2.62h-1.26l3.75-9.51h1.27l3.63,9.51h-1.26l-.95-2.62Zm-.36-1l-1.7-4.68-1.76,4.68h3.46Z"/><path class="cls-3" d="M585.5,365.18h-2.06v4.16h-1.19v-9.51h3.91c2.17,0,3.17,1.01,3.17,2.62,0,1.43-.78,2.4-2.55,2.61l3.07,4.29h-1.33l-3.01-4.16Zm-2.06-.99h2.58c1.39,0,2.12-.63,2.12-1.74s-.76-1.62-2.14-1.62h-2.55v3.36Z"/></g><g><path class="cls-3" d="M766.93,695.83v9.51h-1.19v-8.47l-3.22,8.47h-.77l-3.26-8.49v8.49h-1.19v-9.51h1.93l2.9,7.63,2.9-7.63h1.9Z"/><path class="cls-3" d="M770.89,705.34h-1.18v-9.51h1.18v9.51Z"/><path class="cls-3" d="M779.42,704.33v1.01h-5.77v-9.51h1.2v8.5h4.57Z"/><path class="cls-3" d="M787.06,702.72h-4.19l-.99,2.62h-1.26l3.75-9.51h1.28l3.63,9.51h-1.26l-.95-2.62Zm-.36-1l-1.7-4.68-1.76,4.68h3.46Z"/><path class="cls-3" d="M796.05,705.34h-1.18v-9.51h1.18v9.51Z"/><path class="cls-3" d="M805.34,696.81h-3.15v8.53h-1.18v-8.53h-3.17v-.98h7.49v.98Z"/><path class="cls-3" d="M811.43,702.72h-4.19l-.99,2.62h-1.26l3.75-9.51h1.28l3.63,9.51h-1.26l-.95-2.62Zm-.36-1l-1.7-4.68-1.76,4.68h3.46Z"/><path class="cls-3" d="M821.18,704.33v1.01h-5.77v-9.51h1.2v8.5h4.57Z"/><path class="cls-3" d="M824.14,705.34h-1.18v-9.51h1.18v9.51Z"/><path class="cls-3" d="M826.37,700.59c0-2.87,1.74-4.93,4.41-4.93,2.51,0,3.67,1.29,4.05,3.21h-1.25c-.34-1.54-1.25-2.21-2.8-2.21-1.79,0-3.22,1.54-3.22,3.94s1.43,3.92,3.22,3.92c1.51,0,2.44-.63,2.82-2.2h1.25c-.42,2-1.6,3.19-4.06,3.19-2.66,0-4.41-2.04-4.41-4.92Z"/></g><g><path class="cls-3" d="M626.93,528.83v9.51h-1.19v-8.47l-3.22,8.47h-.77l-3.26-8.49v8.49h-1.19v-9.51h1.93l2.9,7.63,2.9-7.63h1.9Z"/><path class="cls-3" d="M630.89,538.34h-1.18v-9.51h1.18v9.51Z"/><path class="cls-3" d="M639.42,537.33v1.01h-5.77v-9.51h1.2v8.5h4.57Z"/><path class="cls-3" d="M647.06,535.72h-4.19l-.99,2.62h-1.26l3.75-9.51h1.27l3.63,9.51h-1.26l-.95-2.62Zm-.36-1l-1.7-4.68-1.76,4.68h3.46Z"/><path class="cls-3" d="M654.13,535.51h1.25c.18,1.34,1.18,2,2.72,2,1.62,0,2.38-.71,2.38-1.64,0-.84-.56-1.33-1.67-1.58l-2.21-.49c-1.4-.31-2.16-1.16-2.16-2.41,0-1.54,1.3-2.73,3.4-2.73s3.52,.88,3.73,2.83h-1.25c-.18-1.26-1.11-1.83-2.51-1.83s-2.13,.7-2.13,1.6c0,.69,.35,1.16,1.44,1.42l2.14,.49c1.54,.35,2.45,1.19,2.45,2.55,0,1.67-1.3,2.8-3.63,2.8-2.49,0-3.77-1.08-3.96-3Z"/><path class="cls-3" d="M671.62,534.64c0,2.58-1.53,3.87-3.92,3.87s-3.94-1.3-3.94-3.87v-5.81h1.18v5.81c0,1.86,1.11,2.83,2.77,2.83s2.73-.92,2.73-2.77v-5.87h1.18v5.81Z"/><path class="cls-3" d="M681.4,531.47c0,1.57-1.08,2.7-3.25,2.7h-2.63v4.16h-1.19v-9.51h3.92c2.17,0,3.15,1.01,3.15,2.65Zm-1.19,0c0-1.07-.66-1.65-2.16-1.65h-2.54v3.36h2.54c1.5,0,2.16-.69,2.16-1.71Z"/><path class="cls-3" d="M684.45,529.83v3.14h4.8v1h-4.8v3.36h5.39v1.01h-6.57v-9.51h6.57v1.01h-5.39Z"/><path class="cls-3" d="M695.15,534.18h-2.06v4.16h-1.19v-9.51h3.91c2.17,0,3.17,1.01,3.17,2.62,0,1.43-.78,2.4-2.55,2.61l3.07,4.29h-1.33l-3.01-4.16Zm-2.06-.99h2.58c1.39,0,2.12-.63,2.12-1.74s-.76-1.62-2.14-1.62h-2.55v3.36Z"/><path class="cls-3" d="M706.48,538.34h-1.18v-9.51h1.18v9.51Z"/><path class="cls-3" d="M715.77,529.81h-3.15v8.53h-1.18v-8.53h-3.17v-.98h7.49v.98Z"/><path class="cls-3" d="M721.86,535.72h-4.19l-.99,2.62h-1.26l3.75-9.51h1.27l3.63,9.51h-1.26l-.95-2.62Zm-.36-1l-1.7-4.68-1.76,4.68h3.46Z"/><path class="cls-3" d="M731.61,537.33v1.01h-5.77v-9.51h1.2v8.5h4.57Z"/><path class="cls-3" d="M734.57,538.34h-1.18v-9.51h1.18v9.51Z"/><path class="cls-3" d="M736.8,533.59c0-2.87,1.74-4.93,4.41-4.93,2.51,0,3.67,1.29,4.05,3.21h-1.25c-.34-1.54-1.25-2.21-2.8-2.21-1.79,0-3.22,1.54-3.22,3.94s1.43,3.92,3.22,3.92c1.51,0,2.44-.63,2.82-2.2h1.25c-.42,2-1.6,3.19-4.06,3.19-2.66,0-4.41-2.04-4.41-4.92Z"/></g><g><path class="cls-3" d="M84.41,123.16c0,2.72-2.21,4.9-4.93,4.9s-4.9-2.19-4.9-4.9,2.19-4.93,4.9-4.93,4.93,2.21,4.93,4.93Zm-.83,0c0-2.26-1.85-4.1-4.1-4.1s-4.08,1.85-4.08,4.1,1.82,4.08,4.08,4.08,4.1-1.82,4.1-4.08Zm-1.02,.04c0,1.68-1.29,3.04-3.08,3.04s-3.08-1.36-3.08-3.04h.49c.31,1.5,1.33,2.23,2.59,2.23s2.28-.73,2.59-2.23h.49Zm-4.8-1.68c0-.55,.18-.97,.52-.97s.48,.42,.48,.97-.15,.99-.48,.99-.52-.45-.52-.99Zm2.45,0c0-.55,.15-.97,.48-.97s.52,.42,.52,.97-.18,.99-.52,.99-.48-.45-.48-.99Z"/><path class="cls-3" d="M92.86,118.38v9.51h-1.2v-7.49c-.49,.45-1.13,.6-2.17,.6v-.98c1.62-.06,2.12-.66,2.35-1.64h1.02Z"/><path class="cls-3" d="M101.97,124.8c0,1.95-1.32,3.26-3.29,3.26-2.73,0-3.52-2.42-3.52-5,0-3.39,1.75-4.85,3.66-4.85,1.78,0,2.75,.88,3,2.44h-1.19c-.2-.92-.77-1.43-1.81-1.43-1.6,0-2.49,1.5-2.49,3.56v.2c.46-.85,1.3-1.33,2.47-1.33,2,0,3.18,1.37,3.18,3.15Zm-1.16,0c0-1.12-.69-2.14-2.09-2.14s-2.19,1.02-2.19,2.14,.78,2.25,2.19,2.25,2.09-1.13,2.09-2.25Z"/><path class="cls-3" d="M110.57,125.28c0,1.61-1.43,2.79-3.42,2.79s-3.43-1.18-3.43-2.79c0-1.15,.76-2.06,1.83-2.35-.92-.31-1.54-1.13-1.54-2.12,0-1.48,1.3-2.59,3.14-2.59s3.12,1.11,3.12,2.59c0,.98-.62,1.81-1.54,2.12,1.08,.29,1.84,1.19,1.84,2.35Zm-1.3-.04c0-1.09-.85-1.81-2.12-1.81s-2.13,.71-2.13,1.81,.87,1.81,2.13,1.81,2.12-.71,2.12-1.81Zm-4.02-4.38c0,.84,.67,1.61,1.91,1.61s1.89-.77,1.89-1.61c0-.95-.74-1.67-1.89-1.67s-1.91,.71-1.91,1.67Z"/><path class="cls-3" d="M123.75,121.03c0,1.57-1.08,2.7-3.25,2.7h-2.63v4.16h-1.19v-9.51h3.92c2.17,0,3.15,1.01,3.15,2.65Zm-1.19,0c0-1.07-.66-1.65-2.16-1.65h-2.54v3.36h2.54c1.5,0,2.16-.69,2.16-1.71Z"/><path class="cls-3" d="M132.44,119.37h-3.15v8.53h-1.18v-8.53h-3.17v-.98h7.49v.98Z"/><path class="cls-3" d="M133.52,125.07h1.25c.18,1.34,1.18,2,2.72,2,1.62,0,2.38-.71,2.38-1.64,0-.84-.56-1.33-1.67-1.58l-2.21-.49c-1.4-.31-2.16-1.16-2.16-2.41,0-1.54,1.3-2.73,3.4-2.73s3.52,.88,3.73,2.83h-1.25c-.18-1.26-1.11-1.83-2.51-1.83s-2.13,.7-2.13,1.6c0,.69,.35,1.16,1.44,1.42l2.14,.49c1.54,.35,2.45,1.19,2.45,2.55,0,1.67-1.3,2.8-3.63,2.8-2.49,0-3.77-1.08-3.96-3Z"/></g><g><path class="cls-3" d="M1242.51,284.16c0,2.72-2.21,4.9-4.93,4.9s-4.9-2.19-4.9-4.9,2.19-4.93,4.9-4.93,4.93,2.21,4.93,4.93Zm-.83,0c0-2.26-1.85-4.1-4.1-4.1s-4.08,1.85-4.08,4.1,1.82,4.08,4.08,4.08,4.1-1.82,4.1-4.08Zm-1.02,.04c0,1.68-1.29,3.04-3.08,3.04s-3.08-1.36-3.08-3.04h.49c.31,1.5,1.33,2.23,2.59,2.23s2.28-.73,2.59-2.23h.49Zm-4.8-1.68c0-.55,.18-.97,.52-.97s.48,.42,.48,.97-.15,.99-.48,.99-.52-.45-.52-.99Zm2.45,0c0-.55,.15-.97,.48-.97s.52,.42,.52,.97-.18,.99-.52,.99-.48-.45-.48-.99Z"/><path class="cls-3" d="M1250.96,279.38v9.51h-1.2v-7.49c-.49,.45-1.13,.6-2.17,.6v-.98c1.62-.06,2.12-.66,2.35-1.64h1.02Z"/><path class="cls-3" d="M1259.99,286.58h-1.23v2.31h-1.2v-2.31h-4.78v-.98l4.22-6.22h1.76v6.22h1.23v.98Zm-2.44-.98v-5.32l-3.61,5.32h3.61Z"/><path class="cls-3" d="M1268.47,286.28c0,1.61-1.43,2.79-3.42,2.79s-3.43-1.18-3.43-2.79c0-1.15,.76-2.06,1.83-2.35-.92-.31-1.54-1.13-1.54-2.12,0-1.48,1.3-2.59,3.14-2.59s3.12,1.11,3.12,2.59c0,.98-.62,1.81-1.54,2.12,1.08,.29,1.83,1.19,1.83,2.35Zm-1.3-.04c0-1.09-.85-1.81-2.12-1.81s-2.13,.71-2.13,1.81,.87,1.81,2.13,1.81,2.12-.71,2.12-1.81Zm-4.02-4.38c0,.84,.67,1.61,1.9,1.61s1.89-.77,1.89-1.61c0-.95-.74-1.67-1.89-1.67s-1.9,.71-1.9,1.67Z"/><path class="cls-3" d="M1281.64,282.03c0,1.57-1.08,2.7-3.25,2.7h-2.63v4.16h-1.19v-9.51h3.92c2.17,0,3.15,1.01,3.15,2.65Zm-1.19,0c0-1.07-.66-1.65-2.16-1.65h-2.54v3.36h2.54c1.5,0,2.16-.69,2.16-1.71Z"/><path class="cls-3" d="M1290.33,280.37h-3.15v8.53h-1.18v-8.53h-3.17v-.98h7.49v.98Z"/><path class="cls-3" d="M1291.41,286.07h1.25c.18,1.34,1.18,2,2.72,2,1.62,0,2.38-.71,2.38-1.64,0-.84-.56-1.33-1.67-1.58l-2.21-.49c-1.4-.31-2.16-1.16-2.16-2.41,0-1.54,1.3-2.73,3.4-2.73s3.52,.88,3.73,2.83h-1.25c-.18-1.26-1.11-1.83-2.51-1.83s-2.13,.7-2.13,1.6c0,.69,.35,1.16,1.44,1.42l2.14,.49c1.54,.35,2.45,1.19,2.45,2.55,0,1.67-1.3,2.8-3.63,2.8-2.49,0-3.77-1.08-3.96-3Z"/></g><g><path class="cls-3" d="M84.41,439.16c0,2.72-2.21,4.9-4.93,4.9s-4.9-2.19-4.9-4.9,2.19-4.93,4.9-4.93,4.93,2.21,4.93,4.93Zm-.83,0c0-2.26-1.85-4.1-4.1-4.1s-4.08,1.85-4.08,4.1,1.82,4.08,4.08,4.08,4.1-1.82,4.1-4.08Zm-1.02,.04c0,1.68-1.29,3.04-3.08,3.04s-3.08-1.36-3.08-3.04h.49c.31,1.5,1.33,2.23,2.59,2.23s2.28-.73,2.59-2.23h.49Zm-4.8-1.68c0-.55,.18-.97,.52-.97s.48,.42,.48,.97-.15,.99-.48,.99-.52-.45-.52-.99Zm2.45,0c0-.55,.15-.97,.48-.97s.52,.42,.52,.97-.18,.99-.52,.99-.48-.45-.48-.99Z"/><path class="cls-3" d="M92.86,434.38v9.51h-1.2v-7.49c-.49,.45-1.13,.6-2.17,.6v-.98c1.62-.06,2.12-.66,2.35-1.64h1.02Z"/><path class="cls-3" d="M101.97,440.8c0,1.95-1.32,3.26-3.29,3.26-2.73,0-3.52-2.42-3.52-5,0-3.39,1.75-4.85,3.66-4.85,1.78,0,2.75,.88,3,2.44h-1.19c-.2-.92-.77-1.43-1.81-1.43-1.6,0-2.49,1.5-2.49,3.56v.2c.46-.85,1.3-1.33,2.47-1.33,2,0,3.18,1.37,3.18,3.15Zm-1.16,0c0-1.12-.69-2.14-2.09-2.14s-2.19,1.02-2.19,2.14,.78,2.25,2.19,2.25,2.09-1.13,2.09-2.25Z"/><path class="cls-3" d="M110.57,441.28c0,1.61-1.43,2.79-3.42,2.79s-3.43-1.18-3.43-2.79c0-1.15,.76-2.06,1.83-2.35-.92-.31-1.54-1.13-1.54-2.12,0-1.48,1.3-2.59,3.14-2.59s3.12,1.11,3.12,2.59c0,.98-.62,1.81-1.54,2.12,1.08,.29,1.84,1.19,1.84,2.35Zm-1.3-.04c0-1.09-.85-1.81-2.12-1.81s-2.13,.71-2.13,1.81,.87,1.81,2.13,1.81,2.12-.71,2.12-1.81Zm-4.02-4.38c0,.84,.67,1.61,1.91,1.61s1.89-.77,1.89-1.61c0-.95-.74-1.67-1.89-1.67s-1.91,.71-1.91,1.67Z"/><path class="cls-3" d="M123.75,437.03c0,1.57-1.08,2.7-3.25,2.7h-2.63v4.16h-1.19v-9.51h3.92c2.17,0,3.15,1.01,3.15,2.65Zm-1.19,0c0-1.07-.66-1.65-2.16-1.65h-2.54v3.36h2.54c1.5,0,2.16-.69,2.16-1.71Z"/><path class="cls-3" d="M132.44,435.37h-3.15v8.53h-1.18v-8.53h-3.17v-.98h7.49v.98Z"/><path class="cls-3" d="M133.52,441.07h1.25c.18,1.34,1.18,2,2.72,2,1.62,0,2.38-.71,2.38-1.64,0-.84-.56-1.33-1.67-1.58l-2.21-.49c-1.4-.31-2.16-1.16-2.16-2.41,0-1.54,1.3-2.73,3.4-2.73s3.52,.88,3.73,2.83h-1.25c-.18-1.26-1.11-1.83-2.51-1.83s-2.13,.7-2.13,1.6c0,.69,.35,1.16,1.44,1.42l2.14,.49c1.54,.35,2.45,1.19,2.45,2.55,0,1.67-1.3,2.8-3.63,2.8-2.49,0-3.77-1.08-3.96-3Z"/></g><g><path class="cls-3" d="M1242.67,623.16c0,2.72-2.21,4.9-4.93,4.9s-4.9-2.19-4.9-4.9,2.19-4.93,4.9-4.93,4.93,2.21,4.93,4.93Zm-.83,0c0-2.26-1.85-4.1-4.1-4.1s-4.08,1.85-4.08,4.1,1.82,4.08,4.08,4.08,4.1-1.82,4.1-4.08Zm-1.02,.04c0,1.68-1.29,3.04-3.08,3.04s-3.08-1.36-3.08-3.04h.49c.31,1.5,1.33,2.23,2.59,2.23s2.28-.73,2.59-2.23h.49Zm-4.8-1.68c0-.55,.18-.97,.52-.97s.48,.42,.48,.97-.15,.99-.48,.99-.52-.45-.52-.99Zm2.45,0c0-.55,.15-.97,.48-.97s.52,.42,.52,.97-.18,.99-.52,.99-.48-.45-.48-.99Z"/><path class="cls-3" d="M1251.12,618.38v9.51h-1.2v-7.49c-.49,.45-1.13,.6-2.17,.6v-.98c1.62-.06,2.12-.66,2.35-1.64h1.02Z"/><path class="cls-3" d="M1260.08,624.86c0,1.68-1.12,3.21-3.31,3.21-1.98,0-3.36-1.18-3.36-2.91h1.19c.06,1.16,.88,1.92,2.19,1.92s2.12-.98,2.12-2.24-.74-2.17-2.13-2.17c-.84,0-1.43,.35-1.77,.94h-1.37l.37-5.21h5.6v.98h-4.64l-.21,3.21c.48-.59,1.26-.95,2.23-.95,1.93,0,3.1,1.42,3.1,3.24Z"/><path class="cls-3" d="M1268.41,624.86c0,1.68-1.12,3.21-3.31,3.21-1.97,0-3.36-1.18-3.36-2.91h1.19c.06,1.16,.88,1.92,2.18,1.92s2.12-.98,2.12-2.24-.74-2.17-2.13-2.17c-.84,0-1.43,.35-1.76,.94h-1.37l.36-5.21h5.6v.98h-4.64l-.21,3.21c.48-.59,1.26-.95,2.23-.95,1.93,0,3.1,1.42,3.1,3.24Z"/><path class="cls-3" d="M1281.49,621.03c0,1.57-1.08,2.7-3.25,2.7h-2.63v4.16h-1.19v-9.51h3.92c2.17,0,3.15,1.01,3.15,2.65Zm-1.19,0c0-1.07-.66-1.65-2.16-1.65h-2.54v3.36h2.54c1.5,0,2.16-.69,2.16-1.71Z"/><path class="cls-3" d="M1290.18,619.37h-3.15v8.53h-1.18v-8.53h-3.17v-.98h7.49v.98Z"/><path class="cls-3" d="M1291.26,625.07h1.25c.18,1.34,1.18,2,2.72,2,1.62,0,2.38-.71,2.38-1.64,0-.84-.56-1.33-1.67-1.58l-2.21-.49c-1.4-.31-2.16-1.16-2.16-2.41,0-1.54,1.3-2.73,3.4-2.73s3.52,.88,3.73,2.83h-1.25c-.18-1.26-1.11-1.83-2.51-1.83s-2.13,.7-2.13,1.6c0,.69,.35,1.16,1.44,1.42l2.14,.49c1.54,.35,2.45,1.19,2.45,2.55,0,1.67-1.3,2.8-3.63,2.8-2.49,0-3.77-1.08-3.96-3Z"/></g></svg>