<?xml version='1.0' encoding='UTF-8'?>
<svg xmlns="http://www.w3.org/2000/svg" xmlns:xlink="http://www.w3.org/1999/xlink" width="1366px" height="768px" viewBox="0 0 1366 768" x="0px" y="0px" enable-background="new 0 0 1366 768"><defs><symbol overflow="visible" id="0c8e8858a"><path d="M7.4-9.9L4.38-1.54 1.4-9.91H.17L3.84 0h1.04l3.76-9.9zm0 0"/></symbol><symbol overflow="visible" id="0c8e8858b"><path d="M7.67-8.84v-1.07h-6.4V0h6.4v-1.05H2.41v-3.5h4.68v-1.03H2.41v-3.26zm0 0"/></symbol><symbol overflow="visible" id="0c8e8858c"><path d="M7.38 0h1.3l-3-4.45c1.71-.22 2.48-1.24 2.48-2.72 0-1.67-.97-2.74-3.08-2.74H1.27V0h1.15v-4.33h2.02zM2.42-8.86h2.49C6.27-8.86 7-8.3 7-7.17c0 1.15-.7 1.81-2.06 1.81H2.42zm0 0"/></symbol><symbol overflow="visible" id="0c8e8858d"><path d="M4.4.17C6.68.17 7.95-1 7.95-2.73c0-1.43-.88-2.3-2.4-2.66l-2.09-.52c-1.06-.26-1.4-.75-1.4-1.46 0-.94.75-1.66 2.08-1.66 1.37 0 2.28.6 2.45 1.9H7.8c-.2-2.03-1.63-2.95-3.64-2.95C2.1-10.08.83-8.83.83-7.23c0 1.3.75 2.18 2.1 2.51l2.16.5c1.1.27 1.64.78 1.64 1.66 0 .95-.75 1.7-2.32 1.7-1.5 0-2.49-.69-2.66-2.08H.53C.72-.95 1.97.17 4.41.17zm0 0"/></symbol><symbol overflow="visible" id="0c8e8858e"><path d="M2.4-9.9H1.28V0H2.4zm0 0"/></symbol><symbol overflow="visible" id="0c8e8858f"><path d="M4.98.17c2.57 0 4.33-2.06 4.33-5.1 0-3.07-1.76-5.15-4.33-5.15-2.54 0-4.3 2.08-4.3 5.14C.67-1.89 2.43.17 4.97.17zm0-1.03c-1.9 0-3.15-1.56-3.15-4.08 0-2.54 1.25-4.1 3.15-4.1 1.93 0 3.18 1.56 3.18 4.1 0 2.52-1.25 4.08-3.18 4.08zm0 0"/></symbol><symbol overflow="visible" id="0c8e8858g"><path d="M7.8-9.9v8.92L3.02-9.91H1.27V0h1.09v-8.9L7.13 0h1.75v-9.9zm0 0"/></symbol><symbol overflow="visible" id="0c8e8858i"><path d="M4.77-5.13v1.04h3.25C8-2.13 6.88-.86 5.03-.86c-1.92 0-3.2-1.5-3.2-4.08 0-2.54 1.3-4.1 3.15-4.1 1.46 0 2.27.65 2.7 1.8H8.9C8.36-9.2 6.94-10.07 5-10.07 2.4-10.08.67-7.97.67-4.94.67-1.89 2.42.17 5.03.17c1.61 0 2.58-.8 3.06-1.98V0h1.04l.01-5.13zm0 0"/></symbol><symbol overflow="visible" id="0c8e8858j"><path d="M8.81-9.9H7.67v6.1C7.67-1.86 6.55-.9 5-.9c-1.63 0-2.7-1-2.7-2.94v-6.07H1.16v6.07C1.16-1.2 2.66.17 4.98.17c2.35 0 3.83-1.34 3.83-4.01zm0 0"/></symbol><symbol overflow="visible" id="0c8e8858k"><path d="M2.44-1.05V-9.9H1.27V0h5.62v-1.05zm0 0"/></symbol><symbol overflow="visible" id="0c8e8858l"><path d="M7.34 0h1.24L5.03-9.9H3.78L.13 0h1.23l.97-2.72H6.4zM2.7-3.77L4.4-8.63l1.65 4.86zm0 0"/></symbol><symbol overflow="visible" id="0c8e8858m"><path d="M2.3-.58c0-.6-.36-.9-.78-.9a.8.8 0 00-.8.82c0 .33.19.6.44.75l.18.1c-.12.53-.28.92-.62 1.72h.72c.6-1.2.86-1.99.86-2.49zm0 0"/></symbol><symbol overflow="visible" id="0c8e8858n"><path d="M11.6-9.9L9.37-1.78 6.98-9.9H5.9L3.67-1.78 1.34-9.91H.17L3.11 0h1.14l2.17-8.23L8.8 0h1.12l2.81-9.9zm0 0"/></symbol><symbol overflow="visible" id="0c8e8858o"><path d="M4.23-9.9H1.27V0h2.96c2.64 0 4.52-1.9 4.52-4.94C8.75-8 6.87-9.9 4.23-9.9zm-.17 8.87H2.41v-7.83h1.65c2.24 0 3.53 1.44 3.53 3.92 0 2.46-1.32 3.9-3.53 3.9zm0 0"/></symbol><symbol overflow="visible" id="0c8e8858p"><path d="M5.45-10.44H4.5L.37 1.7h.96zm0 0"/></symbol><symbol overflow="visible" id="0c8e8858q"><path d="M7.6-9.9H.3v1.03h3.1V0h1.15v-8.88H7.6zm0 0"/></symbol><symbol overflow="visible" id="0c8e8858r"><path d="M4.98.17c2.41 0 3.55-1.23 3.96-3.33H7.72c-.36 1.64-1.27 2.3-2.74 2.3-1.75 0-3.15-1.6-3.15-4.08 0-2.5 1.4-4.1 3.15-4.1 1.52 0 2.41.7 2.74 2.3h1.2c-.36-2-1.5-3.34-3.94-3.34-2.62 0-4.3 2.14-4.3 5.14 0 2.99 1.7 5.11 4.3 5.11zm0 0"/></symbol><symbol overflow="visible" id="0c8e8858s"><path d="M6.36-5.14a2.23 2.23 0 001.67-2.14c0-1.64-.97-2.63-3.1-2.63H1.28V0h3.87C7.5 0 8.45-1.08 8.45-2.81c0-1.27-.82-2.14-2.1-2.33zM4.64-8.86c1.34 0 2.22.4 2.22 1.58 0 1.08-.75 1.72-2.03 1.72H2.4v-3.3zm.27 7.83H2.4v-3.5h2.51c1.42 0 2.38.4 2.38 1.72 0 1.39-.96 1.78-2.4 1.78zm0 0"/></symbol><symbol overflow="visible" id="0c8e8858t"><path d="M11.83-4.3H.28v1.05h11.55zm0 0"/></symbol><symbol overflow="visible" id="0c8e8858u"><path d="M5.67-5.14c.9-.4 1.31-1.22 1.31-2.25 0-1.58-1.28-2.69-3-2.69A3.03 3.03 0 00.83-7.23h1.12c.14-1.24.97-1.8 2.02-1.8 1.1 0 1.86.67 1.86 1.7 0 .96-.56 1.74-2.16 1.74h-.76v1.07h.76c1.74 0 2.4.66 2.4 1.75 0 1.07-.76 1.91-2.13 1.91-1.4 0-2.16-.75-2.24-2H.6C.6-1.08 1.71.17 3.91.17c2.16 0 3.33-1.37 3.33-2.94 0-1.21-.6-2.04-1.58-2.37zm0 0"/></symbol><symbol overflow="visible" id="0c8e8858v"><path d="M7.36-3.42h-1.2v-6.49H4.44L.3-3.42v1.01h4.67V0h1.18v-2.4h1.2zm-5.9 0l3.52-5.55v5.55zm0 0"/></symbol><symbol overflow="visible" id="0c8e8858w"><path d="M4.42.17c2.33 0 3.7-2.1 3.7-5.1 0-3-1.37-5.15-3.7-5.15-2.34 0-3.7 2.16-3.7 5.16 0 2.98 1.36 5.1 3.7 5.1zm0-1.08c-1.67 0-2.58-1.54-2.58-4.01C1.84-7.41 2.75-9 4.42-9c1.66 0 2.56 1.6 2.56 4.08 0 2.47-.9 4.01-2.56 4.01zm0 0"/></symbol><symbol overflow="visible" id="0c8e8858x"><path d="M5.1-9.9H1.26V0h1.15v-4.33h2.56c2.13 0 3.18-1.19 3.18-2.81 0-1.7-.96-2.77-3.07-2.77zm-.2 4.54H2.41v-3.5H4.9C6.36-8.86 7-8.25 7-7.14c0 1.06-.64 1.78-2.1 1.78zm0 0"/></symbol><symbol overflow="visible" id="0c8e8858y"><path d="M150.73-206.23h-1.17c-1.75 7.89-5.54 15.18-10.22 24.25l-47.9 93.76c-7.31 14.61-12.56 22.5-18.7 27.17v1.17h25.12v-1.17c-7.31-6.43-10.22-13.43-6.42-21.33l3.5-7.3h91.42l1.47 2.93c7.01 13.72 9.34 19.86 9.34 25.7v1.17h30.1v-1.17c-4.68-6.43-10.52-16.36-14.61-24.25zm-1.17 174.39c-16.65 17.53-28.34 29.5-48.2 29.5h-51.7v-173.5c0-10.82 6.14-17.83 15.78-28.35v-1.17H5.84v1.17c10.22 10.52 16.94 17.53 16.94 28.35V-29.5c0 10.81-6.72 17.81-16.94 28.33V0h137.58l7.9-31.84zM96.11-92.02l44.39-86.75 44.7 86.75zm0 0"/></symbol><symbol overflow="visible" id="0c8e8858A"><path d="M78.28-203.02c7.9 0 27.75 15.2 43.53 26.58h1.75l-6.42-28.92H5.84v1.17c10.22 10.52 16.94 17.53 16.94 28.35V-29.5c0 10.81-6.72 17.81-16.94 28.33V0h59.6v-1.17C55.8-11.7 49.66-18.7 49.66-29.5v-68.36h41.48c6.13 0 11.97 0 27.45 16.94h1.75v-36.5h-1.75c-15.48 17.23-21.32 17.23-27.45 17.23H49.66v-102.83zm0 0"/></symbol><symbol overflow="visible" id="0c8e8858B"><path d="M66.6-203.02c7.88 0 26.59 15.2 43.53 26.58h1.75l-6.43-28.92H5.85v1.17c10.21 10.52 16.93 17.53 16.93 28.35V-29.5c0 10.81-6.72 17.81-16.94 28.33V0h103.7l10.8-37.69h-1.75C101.95-20.16 84.72-2.34 67.5-2.34H49.65v-95.52H74.2c6.13 0 11.97 0 27.46 16.94h1.75v-36.5h-1.75C86.17-100.2 80.33-100.2 74.2-100.2H49.66v-102.83zm0 0"/></symbol><symbol overflow="visible" id="0c8e8858C"><path d="M247.7-205.36h-42.64l-73.9 135.84L44.1-205.36H2.34v1.17c12.85 7.31 19.86 13.14 19.86 28.35v141.07c0 12.27-7.6 23.96-19.86 33.6V0h42.07v-1.17C31.55-11.4 24.53-22.5 24.53-34.77v-149.56L116.84-40.3h1.46l86.76-160.36V-29.5c0 10.81-6.72 17.81-16.94 28.33V0h59.58v-1.17c-9.64-10.52-15.76-17.52-15.76-28.33v-149.27c0-10.8 6.12-17.82 15.76-25.42zm0 0"/></symbol><symbol overflow="visible" id="0c8e8858D"><path d="M137-29.8c-12.56-21.6-24.83-28.62-51.13-28.62H81.5c40.31-7.3 65.14-37.1 65.14-75.08 0-42.94-28.62-71.86-82.67-71.86H10.52v1.17c9.34 6.42 13.14 13.14 13.14 21.03V-22.2c0 7.89-3.8 14.6-13.14 21.03V0h41.76v-1.17C43.23-7.6 39.44-14.31 39.44-22.2v-37.4c6.72 1.48 17.81 2.63 26 2.63 28.33 0 35.04 0 49.95 23.67l9.92 16.07C134.37-2.93 145.77 3.22 163 0v-1.17c-8.19-.58-12.27-4.1-16.94-12.27zM63.97-203.6c45.58 0 66.01 34.76 66.01 70.7 0 41.46-19.56 74.18-65.14 74.18-8.76 0-17.8-.87-25.4-2.62V-203.6zm0 0"/></symbol><symbol overflow="visible" id="0c8e8858E"><path d="M165.92-148.4c-7.89-9.33-14.03-18.4-14.03-31.24 0-16.08 10.24-27.17 28.34-27.17 13.44 0 20.74 6.14 29.5 25.7h1.75v-24.53c-8.46-2.05-19.85-3.22-29.8-3.22-23.07 0-41.76 13.14-41.76 36.52 0 14.3 5.25 24.82 15.19 35.34l14.6 15.19c9.65 10.51 15.5 19.58 15.5 33.6 0 17.23-9.37 28.91-27.76 28.91-14.3 0-23.95-6.72-34.76-33.3h-1.75v21.91c10.51 8.17 22.2 13.14 36.51 13.14 24.24 0 40.6-15.48 40.6-37.68 0-14.02-6.43-24.54-14.61-33.88zm8.47 123l-1.17-.3c-11.97 15.76-22.2 23.95-37.1 23.95H39.44v-96.4h46.44c5.84 0 10.51.88 20.75 14.6h1.45v-30.95h-1.45c-10.24 13.72-14.91 14.6-20.75 14.6H39.44v-103.7H73.3c9.94 0 21.33 9.93 31.85 21.04l1.47-.3-6.15-22.5H10.52v1.17c9.34 6.42 13.14 13.14 13.14 21.03V-22.2c0 7.89-3.8 14.6-13.14 21.03V0h156.57zm0 0"/></symbol><symbol overflow="visible" id="0c8e8858F"><path d="M60.17-119.47c-10.22-15.78-22.2-32.72-22.2-51.42 0-21.61 10.23-36.22 32.72-36.22 14.9 0 26 11.99 34.19 23.95h1.45l-1.75-20.15c-5.55-2.05-18.7-5.55-31.27-5.55-29.5 0-48.48 18.4-48.48 47.33 0 20.16 9.34 33.6 19.86 49.36l21.9 33.01C74.2-67.76 81.5-55.2 81.5-37.09c0 22.2-13.44 38.84-35.34 38.84C26 1.75 13.73-14.89 5.55-29.22l-1.46.3L5.55-9.34C14.3-2.04 30.37 3.5 45.56 3.5c33.6 0 50.83-17.81 50.83-47.03 0-20.16-8.47-34.17-18.69-49.36zm0 0"/></symbol><symbol overflow="visible" id="0c8e8858G"><path d="M117.72 2.92c66.01 0 106.03-47.33 106.03-105.45 0-60.47-40.31-106.33-108.95-106.33-65.14 0-105.16 47.9-105.16 106.63C9.64-44.7 50.83 2.92 117.72 2.92zM26.88-105.45c0-53.75 26.28-101.66 87.62-101.66 63.4 0 92.31 50.83 92.31 108.38 0 49.37-25.4 99.9-89.1 99.9-62.5 0-90.83-53.45-90.83-106.62zm0 0"/></symbol><symbol overflow="visible" id="0c8e8858H"><path d="M89.1-68.36c21.6-11.97 34.46-35.05 34.46-62.5 0-40.6-25.12-74.5-74.78-74.5H13.14v1.17c4.67 4.97 8.47 8.77 8.47 21.03V-21.9c0 11.7-3.8 15.77-8.47 20.74V0h33.31v-1.17C41.48-6.14 37.7-9.94 37.7-25.7v-32.14h9.64a91.03 91.03 0 0027.75-4.08l20.44 25.1C128.82 4.39 189.88 9.95 241.86-.3v-1.15c-48.19 7.3-98.44 4.37-131.74-39.16zm137.3-135.23c22.47 0 32.12 4.07 36.5 12.84l1.16-.3v-14.3H139.05v14.3l1.17.3c4.08-8.77 13.72-12.84 36.8-12.84h17.23v116.54c0 20.16-1.17 25.7-3.2 32.13v1.17h21.03v-1.17c-2.05-6.42-3.22-11.97-3.22-32.13v-116.54zm-177.04 0c38.28 0 57.27 37.39 57.27 73.01 0 36.24-20.46 70.99-58.43 70.99H37.7v-144zm0 0"/></symbol></defs><path d="M0 0h1366v768H0z"/><g fill="#f2f2f2"><use xlink:href="#0c8e8858a" x="922.2935" y="727.9854"/><use xlink:href="#0c8e8858b" x="931.403381" y="727.9854"/><use xlink:href="#0c8e8858c" x="940.130264" y="727.9854"/><use xlink:href="#0c8e8858d" x="949.541072" y="727.9854"/><use xlink:href="#0c8e8858e" x="958.418419" y="727.9854"/><use xlink:href="#0c8e8858f" x="962.426219" y="727.9854"/><use xlink:href="#0c8e8858g" x="972.753487" y="727.9854"/><use xlink:href="#0c8e8858d" x="983.231218" y="727.9854"/><use xlink:href="#0c8e8858h" x="992.108564" y="727.9854"/><use xlink:href="#0c8e8858c" x="995.788081" y="727.9854"/><use xlink:href="#0c8e8858b" x="1005.198889" y="727.9854"/><use xlink:href="#0c8e8858i" x="1013.925772" y="727.9854"/><use xlink:href="#0c8e8858j" x="1024.225682" y="727.9854"/><use xlink:href="#0c8e8858k" x="1034.539271" y="727.9854"/><use xlink:href="#0c8e8858l" x="1042.007732" y="727.9854"/><use xlink:href="#0c8e8858c" x="1051.117613" y="727.9854"/><use xlink:href="#0c8e8858m" x="1060.528421" y="727.9854"/><use xlink:href="#0c8e8858h" x="1063.893332" y="727.9854"/><use xlink:href="#0c8e8858n" x="1067.572849" y="727.9854"/><use xlink:href="#0c8e8858e" x="1080.895708" y="727.9854"/><use xlink:href="#0c8e8858o" x="1084.903508" y="727.9854"/><use xlink:href="#0c8e8858b" x="1094.820421" y="727.9854"/><use xlink:href="#0c8e8858h" x="1103.547304" y="727.9854"/><use xlink:href="#0c8e8858p" x="1107.22682" y="727.9854"/><use xlink:href="#0c8e8858h" x="1113.395824" y="727.9854"/><use xlink:href="#0c8e8858g" x="1117.07534" y="727.9854"/><use xlink:href="#0c8e8858b" x="1127.553071" y="727.9854"/><use xlink:href="#0c8e8858d" x="1136.279954" y="727.9854"/><use xlink:href="#0c8e8858q" x="1145.157301" y="727.9854"/><use xlink:href="#0c8e8858e" x="1153.419115" y="727.9854"/><use xlink:href="#0c8e8858g" x="1157.426915" y="727.9854"/><use xlink:href="#0c8e8858i" x="1167.904646" y="727.9854"/><use xlink:href="#0c8e8858h" x="1178.204557" y="727.9854"/><use xlink:href="#0c8e8858l" x="1181.884073" y="727.9854"/><use xlink:href="#0c8e8858g" x="1190.993954" y="727.9854"/><use xlink:href="#0c8e8858o" x="1201.471685" y="727.9854"/><use xlink:href="#0c8e8858h" x="1211.388598" y="727.9854"/><use xlink:href="#0c8e8858r" x="1215.068114" y="727.9854"/><use xlink:href="#0c8e8858f" x="1225.026062" y="727.9854"/><use xlink:href="#0c8e8858g" x="1235.35333" y="727.9854"/><use xlink:href="#0c8e8858q" x="1245.831061" y="727.9854"/><use xlink:href="#0c8e8858c" x="1254.092875" y="727.9854"/><use xlink:href="#0c8e8858l" x="1263.503683" y="727.9854"/><use xlink:href="#0c8e8858r" x="1272.613564" y="727.9854"/><use xlink:href="#0c8e8858q" x="1282.571512" y="727.9854"/><use xlink:href="#0c8e8858e" x="1290.833326" y="727.9854"/><use xlink:href="#0c8e8858f" x="1294.841126" y="727.9854"/><use xlink:href="#0c8e8858g" x="1305.168394" y="727.9854"/><use xlink:href="#0c8e8858d" x="1315.646125" y="727.9854"/></g><g fill="#f2f2f2"><use xlink:href="#0c8e8858e" x="77.003236" y="727.9854"/><use xlink:href="#0c8e8858q" x="81.011036" y="727.9854"/><use xlink:href="#0c8e8858l" x="89.27285" y="727.9854"/><use xlink:href="#0c8e8858k" x="98.382731" y="727.9854"/><use xlink:href="#0c8e8858e" x="105.851192" y="727.9854"/><use xlink:href="#0c8e8858l" x="109.858993" y="727.9854"/><use xlink:href="#0c8e8858g" x="118.968874" y="727.9854"/><use xlink:href="#0c8e8858h" x="129.446605" y="727.9854"/><use xlink:href="#0c8e8858s" x="133.126121" y="727.9854"/><use xlink:href="#0c8e8858f" x="142.605322" y="727.9854"/><use xlink:href="#0c8e8858k" x="152.932589" y="727.9854"/><use xlink:href="#0c8e8858o" x="160.40105" y="727.9854"/><use xlink:href="#0c8e8858h" x="170.317963" y="727.9854"/><use xlink:href="#0c8e8858h" x="173.997479" y="727.9854"/></g><use xlink:href="#0c8e8858t" x="177.676996" y="727.9854" fill="#f2f2f2"/><g fill="#f2f2f2"><use xlink:href="#0c8e8858h" x="190.124431" y="727.9854"/><use xlink:href="#0c8e8858h" x="193.803947" y="727.9854"/><use xlink:href="#0c8e8858u" x="197.483464" y="727.9854"/><use xlink:href="#0c8e8858v" x="205.758956" y="727.9854"/><use xlink:href="#0c8e8858w" x="213.979735" y="727.9854"/><use xlink:href="#0c8e8858h" x="223.158008" y="727.9854"/><use xlink:href="#0c8e8858x" x="226.837525" y="727.9854"/><use xlink:href="#0c8e8858q" x="235.755907" y="727.9854"/><use xlink:href="#0c8e8858d" x="244.017721" y="727.9854"/></g><use xlink:href="#0c8e8858y" x="98.0654" y="362.7539" fill="#fdfaf5"/><g fill="#fdfaf5"><use xlink:href="#0c8e8858z" x="325.322001" y="362.7539"/><use xlink:href="#0c8e8858A" x="398.347901" y="362.7539"/><use xlink:href="#0c8e8858B" x="522.491931" y="362.7539"/></g><use xlink:href="#0c8e8858C" x="642.692562" y="362.7539" fill="#fdfaf5"/><use xlink:href="#0c8e8858C" x="895.332966" y="362.7539" fill="#fdfaf5"/><use xlink:href="#0c8e8858B" x="1146.045486" y="362.7539" fill="#fdfaf5"/><use xlink:href="#0c8e8858D" x="196.21221" y="591.178915" fill="#fdfaf5"/><g fill="#fdfaf5"><use xlink:href="#0c8e8858E" x="359.176808" y="591.178915"/><use xlink:href="#0c8e8858F" x="563.649328" y="591.178915"/></g><use xlink:href="#0c8e8858G" x="662.409555" y="591.178915" fill="#fdfaf5"/><use xlink:href="#0c8e8858H" x="889.95826" y="591.178915" fill="#fdfaf5"/></svg>