<svg xmlns="http://www.w3.org/2000/svg" viewBox="0 0 1366 768"><defs><style>.cls-1{fill:#fdfaf5;}.cls-2{fill:#1a26cd;}</style></defs><g id="Layer_1" data-name="Layer 1"><rect class="cls-1" x="-39.27" y="-79.94" width="1446.07" height="930.38"/><path class="cls-2" d="M79.41,728H78.26v-9.91h1.15Z"/><path class="cls-2" d="M88.62,719.1H85.55V728H84.4V719.1H81.31v-1h7.31Z"/><path class="cls-2" d="M95.68,725.26H91.59l-1,2.73H89.39l3.67-9.91H94.3L97.84,728H96.61Zm-.35-1-1.66-4.87L92,724.22Z"/><path class="cls-2" d="M105.27,726.94v1H99.64v-9.91h1.17v8.86Z"/><path class="cls-2" d="M108.25,728h-1.14v-9.91h1.14Z"/><path class="cls-2" d="M116.27,725.26h-4.09l-1,2.73H110l3.66-9.91h1.25l3.54,9.91H117.2Zm-.36-1-1.65-4.87-1.72,4.87Z"/><path class="cls-2" d="M127.84,718.08V728h-1.75l-4.77-8.92V728h-1.1v-9.91H122l4.79,8.91v-8.91Z"/><path class="cls-2" d="M141.57,725.17c0,1.74-1,2.82-3.31,2.82h-3.88v-9.91h3.68c2.12,0,3.09,1,3.09,2.61a2.24,2.24,0,0,1-1.67,2.15A2.27,2.27,0,0,1,141.57,725.17Zm-6-6v3.29H138c1.28,0,2-.62,2-1.72s-.88-1.57-2.23-1.57Zm4.89,6c0-1.31-.95-1.72-2.38-1.72h-2.51V727H138C139.47,727,140.42,726.56,140.42,725.17Z"/><path class="cls-2" d="M143.27,723c0-3.06,1.77-5.13,4.32-5.13s4.32,2.07,4.32,5.13-1.76,5.12-4.32,5.12S143.27,726.09,143.27,723Zm7.48,0c0-2.54-1.24-4.1-3.16-4.1s-3.16,1.56-3.16,4.1,1.25,4.08,3.16,4.08S150.75,725.56,150.75,723Z"/><path class="cls-2" d="M159.82,726.94v1h-5.63v-9.91h1.17v8.86Z"/><path class="cls-2" d="M169.15,723c0,3.05-1.88,5-4.52,5h-3v-9.91h3C167.27,718.08,169.15,720,169.15,723ZM168,723c0-2.48-1.29-3.92-3.52-3.92H162.8V727h1.66C166.66,727,168,725.51,168,723Z"/><path class="cls-2" d="M189.5,724.73H178v-1.05H189.5Z"/><path class="cls-2" d="M201.1,718.08V728h-1.17v-7.81a2.78,2.78,0,0,1-2.12.63v-1c1.58-.06,2.06-.69,2.29-1.71Z"/><path class="cls-2" d="M210.06,724.76a3.13,3.13,0,0,1-3.21,3.4c-2.67,0-3.44-2.52-3.44-5.21,0-3.53,1.71-5,3.57-5a2.68,2.68,0,0,1,2.93,2.53h-1.16A1.65,1.65,0,0,0,207,719c-1.56,0-2.43,1.56-2.43,3.7v.21a2.52,2.52,0,0,1,2.41-1.39A3,3,0,0,1,210.06,724.76Zm-1.14,0a2,2,0,0,0-2-2.23,2.12,2.12,0,0,0-2.14,2.23,2.21,2.21,0,0,0,2.14,2.35A2.13,2.13,0,0,0,208.92,724.76Z"/><path class="cls-2" d="M211.8,723.05c0-3,1.37-5.14,3.7-5.14s3.71,2.15,3.71,5.14-1.37,5.11-3.71,5.11S211.8,726,211.8,723.05Zm6.27,0c0-2.47-.9-4.06-2.57-4.06s-2.57,1.59-2.57,4.06.91,4,2.57,4S218.07,725.54,218.07,723.05Z"/><path class="cls-2" d="M232.11,720.84c0,1.63-1.06,2.81-3.17,2.81h-2.57V728H225.2v-9.91H229C231.15,718.08,232.11,719.13,232.11,720.84Zm-1.16,0c0-1.11-.65-1.72-2.11-1.72h-2.47v3.5h2.47C230.3,722.62,231,721.9,231,720.84Z"/><path class="cls-2" d="M240.48,719.1H237.4V728h-1.15V719.1h-3.08v-1h7.31Z"/><path class="cls-2" d="M241.66,725h1.22c.17,1.4,1.14,2.08,2.65,2.08s2.32-.74,2.32-1.7-.54-1.39-1.62-1.65l-2.16-.51a2.45,2.45,0,0,1-2.11-2.51c0-1.6,1.27-2.84,3.32-2.84s3.43.91,3.64,2.94H247.7a2.15,2.15,0,0,0-2.45-1.91c-1.33,0-2.07.73-2.07,1.66,0,.72.34,1.21,1.4,1.48l2.1.51a2.67,2.67,0,0,1,2.39,2.65c0,1.74-1.27,2.92-3.54,2.92C243.09,728.16,241.85,727,241.66,725Z"/><path class="cls-2" d="M1008.45,718.08l-3.78,9.91h-1l-3.68-9.91h1.23l3,8.37,3-8.37Z"/><path class="cls-2" d="M1011.32,719.13v3.27H1016v1h-4.69v3.51h5.27v1h-6.42v-9.91h6.42v1Z"/><path class="cls-2" d="M1022.07,723.65h-2V728h-1.16v-9.91h3.81c2.12,0,3.09,1,3.09,2.73a2.51,2.51,0,0,1-2.48,2.71l3,4.47H1025Zm-2-1h2.52c1.35,0,2.06-.66,2.06-1.81s-.74-1.69-2.09-1.69h-2.49Z"/><path class="cls-2" d="M1027.59,725h1.21c.18,1.4,1.15,2.08,2.66,2.08s2.32-.74,2.32-1.7-.55-1.39-1.63-1.65l-2.16-.51a2.45,2.45,0,0,1-2.1-2.51c0-1.6,1.27-2.84,3.32-2.84s3.43.91,3.64,2.94h-1.22a2.15,2.15,0,0,0-2.45-1.91c-1.34,0-2.08.73-2.08,1.66,0,.72.35,1.21,1.41,1.48l2.09.51a2.67,2.67,0,0,1,2.4,2.65c0,1.74-1.27,2.92-3.54,2.92C1029,728.16,1027.78,727,1027.59,725Z"/><path class="cls-2" d="M1038.34,728h-1.15v-9.91h1.15Z"/><path class="cls-2" d="M1040.61,723c0-3.06,1.76-5.13,4.32-5.13s4.32,2.07,4.32,5.13-1.76,5.12-4.32,5.12S1040.61,726.09,1040.61,723Zm7.48,0c0-2.54-1.25-4.1-3.16-4.1s-3.16,1.56-3.16,4.1,1.25,4.08,3.16,4.08S1048.09,725.56,1048.09,723Z"/><path class="cls-2" d="M1059.14,718.08V728h-1.75l-4.77-8.92V728h-1.1v-9.91h1.75l4.79,8.91v-8.91Z"/><path class="cls-2" d="M1061.28,725h1.21c.18,1.4,1.15,2.08,2.66,2.08s2.32-.74,2.32-1.7-.55-1.39-1.63-1.65l-2.16-.51a2.45,2.45,0,0,1-2.1-2.51c0-1.6,1.27-2.84,3.32-2.84s3.43.91,3.64,2.94h-1.22a2.15,2.15,0,0,0-2.45-1.91c-1.34,0-2.08.73-2.08,1.66,0,.72.35,1.21,1.41,1.48l2.09.51a2.67,2.67,0,0,1,2.4,2.65c0,1.74-1.27,2.92-3.54,2.92C1062.71,728.16,1061.47,727,1061.28,725Z"/><path class="cls-2" d="M1077.73,723.65h-2V728h-1.16v-9.91h3.81c2.12,0,3.09,1,3.09,2.73a2.51,2.51,0,0,1-2.49,2.71l3,4.47h-1.3Zm-2-1h2.52c1.35,0,2.06-.66,2.06-1.81s-.74-1.69-2.09-1.69h-2.49Z"/><path class="cls-2" d="M1085.12,719.13v3.27h4.69v1h-4.69v3.51h5.26v1H1084v-9.91h6.41v1Z"/><path class="cls-2" d="M1100.57,722.85V728h-1v-1.81a3.05,3.05,0,0,1-3.06,2c-2.61,0-4.36-2.07-4.36-5.12s1.73-5.13,4.33-5.13a3.68,3.68,0,0,1,3.9,2.84h-1.23a2.55,2.55,0,0,0-2.68-1.81c-1.86,0-3.16,1.56-3.16,4.1s1.27,4.08,3.2,4.08,3-1.26,3-3.23h-3.24v-1Z"/><path class="cls-2" d="M1110.56,724.13c0,2.69-1.49,4-3.83,4s-3.84-1.36-3.84-4v-6H1104v6c0,1.94,1.08,3,2.7,3a2.56,2.56,0,0,0,2.67-2.89v-6.11h1.15Z"/><path class="cls-2" d="M1118.94,726.94v1h-5.63v-9.91h1.17v8.86Z"/><path class="cls-2" d="M1125.93,725.26h-4.09l-1,2.73h-1.23l3.67-9.91h1.24l3.54,9.91h-1.23Zm-.35-1-1.66-4.87-1.72,4.87Z"/><path class="cls-2" d="M1133.06,723.65h-2V728h-1.16v-9.91h3.81c2.12,0,3.09,1,3.09,2.73a2.51,2.51,0,0,1-2.49,2.71l3,4.47H1136Zm-2-1h2.51c1.36,0,2.07-.66,2.07-1.81s-.74-1.69-2.09-1.69h-2.49Z"/><path class="cls-2" d="M1139.48,729.9h-.72a9.07,9.07,0,0,0,.62-1.73l-.18-.1a.83.83,0,0,1-.44-.74.79.79,0,1,1,1.58.07A6.35,6.35,0,0,1,1139.48,729.9Z"/><path class="cls-2" d="M1157.81,718.08,1155,728h-1.13l-2.37-8.25-2.17,8.25h-1.15l-2.93-9.91h1.16l2.33,8.13,2.23-8.13h1.09l2.38,8.14,2.24-8.14Z"/><path class="cls-2" d="M1160.81,728h-1.15v-9.91h1.15Z"/><path class="cls-2" d="M1171.16,723c0,3.05-1.87,5-4.51,5h-3v-9.91h3C1169.29,718.08,1171.16,720,1171.16,723Zm-1.16,0c0-2.48-1.3-3.92-3.53-3.92h-1.65V727h1.65C1168.68,727,1170,725.51,1170,723Z"/><path class="cls-2" d="M1174.74,719.13v3.27h4.69v1h-4.69v3.51H1180v1h-6.41v-9.91H1180v1Z"/><path class="cls-2" d="M1191.15,725.26h-4.09l-1,2.73h-1.23l3.66-9.91h1.25l3.54,9.91h-1.23Zm-.36-1-1.65-4.87-1.72,4.87Z"/><path class="cls-2" d="M1202.72,718.08V728H1201l-4.77-8.92V728h-1.09v-9.91h1.75l4.78,8.91v-8.91Z"/><path class="cls-2" d="M1213.08,723c0,3.05-1.88,5-4.52,5h-3v-9.91h3C1211.2,718.08,1213.08,720,1213.08,723Zm-1.17,0c0-2.48-1.3-3.92-3.52-3.92h-1.66V727h1.66C1210.59,727,1211.91,725.51,1211.91,723Z"/><path class="cls-2" d="M1220.33,719.13v3.27H1225v1h-4.69v3.51h5.26v1h-6.41v-9.91h6.41v1Z"/><path class="cls-2" d="M1233.58,728l-2.8-4.34-2.71,4.34h-1.34l3.35-5.15-3.09-4.76h1.34l2.52,3.94,2.47-3.94h1.34l-3.1,4.68,3.36,5.23Z"/><path class="cls-2" d="M1243,719.1h-3.07V728h-1.15V719.1h-3.09v-1H1243Z"/><path class="cls-2" d="M1246,719.13v3.27h4.69v1H1246v3.51h5.26v1h-6.41v-9.91h6.41v1Z"/><path class="cls-2" d="M1261.21,718.08V728h-1.75l-4.77-8.92V728h-1.1v-9.91h1.75l4.79,8.91v-8.91Z"/><path class="cls-2" d="M1271.56,723c0,3.05-1.87,5-4.51,5h-3v-9.91h3C1269.69,718.08,1271.56,720,1271.56,723Zm-1.16,0c0-2.48-1.3-3.92-3.53-3.92h-1.65V727h1.65C1269.08,727,1270.4,725.51,1270.4,723Z"/><path class="cls-2" d="M1275.14,719.13v3.27h4.69v1h-4.69v3.51h5.26v1H1274v-9.91h6.41v1Z"/><path class="cls-2" d="M1290.21,723c0,3.05-1.88,5-4.51,5h-3v-9.91h3C1288.33,718.08,1290.21,720,1290.21,723Zm-1.17,0c0-2.48-1.29-3.92-3.52-3.92h-1.66V727h1.66C1287.72,727,1289,725.51,1289,723Z"/><path d="M379.6,306.81H320.24v-.64c5.6-5.76,9.28-9.6,9.28-15.52V210.49c0-5.92-3.68-9.76-9.28-15.53v-.63H374.8l3.52,15.84h-1c-8.64-6.56-19.52-14.56-23.84-14.56h-9.28v56.32h18.88c3.36,0,6.56,0,15-9.44h1v20h-1c-8.48-9.28-11.68-9.28-15-9.28H344.24v52.32h12.32c10.72,0,17.28-6.56,26.4-16.16h1Z"/><path d="M408.72,285.85c-2.88,4-5,7.36-5,11.36,0,4.64,2.72,6.88,6.72,9v.64h-24v-.64c7.52-2.88,13.76-10.72,18.56-17.6l23.2-32.64L402,212.25c-6.24-10.4-9-13.44-15.52-17.29v-.63H417.2V195c-2.72,3.21-3.68,7.53.8,15l19.36,32.16,19.36-26.88c2.88-4,5-8,5-11.84,0-3.68-2.72-6.41-6.72-8.49v-.63h24V195c-7.52,2.89-13.76,10.73-18.72,17.61l-22.08,30.72,27.52,45.6c6.24,10.4,9,13.44,15.52,17.28v.64H450.48v-.64c2.72-3.2,3.68-7.68-.8-15L429,257.37Z"/><path d="M488.54,194.33h50.24c39.36,0,69.28,10.24,69.28,40.64s-29.92,40.64-69.28,40.64H504.22v5.76c0,11.2,0,17.12,2.56,24.8v.64H488.54v-.64c2.56-7.68,2.56-13.6,2.56-24.8v-61.6c0-11.2,0-17.12-2.56-24.81Zm15.68,1v79.36h34.56c35,0,56.16-11.84,56.16-39.68,0-27.2-21.12-39.68-56.16-39.68Z"/><path d="M674.08,289.37l-4.32,17.44H610.39v-.64c5.6-5.76,9.28-9.6,9.28-15.52V210.49c0-5.92-3.68-9.76-9.28-15.53v-.63H643V195c-5.29,5.77-8.65,9.61-8.65,15.53v95h12.32c10.89,0,17.29-6.56,26.41-16.16Z"/><path d="M674.09,250.33c0-34.72,27.68-58.4,71.84-58.4,40.8,0,71.84,21,71.84,58.88,0,34.08-27.52,58.4-71.68,58.4C703.37,309.21,674.09,288.73,674.09,250.33Zm72,57.12c40,0,55.84-25.12,55.84-54.56,0-35.2-20-59.2-56.16-59.2-39,0-55.84,24.64-55.84,54.56C689.93,284.09,708.49,307.45,746.09,307.45Z"/><path d="M905.66,298.49c2.55,4.48,4.63,6.88,9.92,7.68v.64c-12.65,3.68-21.45-.64-28.33-10.56l-5-7.2c-9.44-13.6-13.6-13.44-23.2-13.44-3.52,0-8.32-.48-10.56-1.6v16.64c0,5.92,3.36,9.76,8.64,15.52v.64H824.53v-.64c5.6-5.76,9.28-9.6,9.28-15.52V210.49c0-5.92-3.68-9.76-9.28-15.53v-.63h31c36,0,49.93,16.32,49.93,39.36,0,21.44-14.41,37.12-37.61,41h2.56c15.36,0,23.68,3.68,30.72,16ZM848.53,195.61v77.12a25,25,0,0,0,9.76,1.6c25.92,0,31.52-18.4,31.52-40,0-17.6-7.36-38.72-34.24-38.72Z"/><path d="M944.18,195.61v56.32h13.44c3.36,0,6.56,0,15-9.44h1v20h-1c-8.48-9.28-11.68-9.28-15-9.28H944.18v52.32h9.76c9.44,0,18.88-9.76,28-19.36h1L977,306.81h-56.8v-.64c5.6-5.76,9.28-9.6,9.28-15.52V210.49c0-5.92-3.68-9.76-9.28-15.53v-.63h54.56l3.52,15.84h-1c-9.28-6.24-19.52-14.56-23.84-14.56Z"/><path d="M1029.92,255.61c5.44,8.8,10.08,16.32,10.08,26.88,0,16.32-9.44,26.24-29.6,26.24-7.36,0-17.12-2.08-22.72-5.12v-16l1-.16c7,10.4,13.6,20,22.4,20,10.24,0,15.2-8.8,15.2-18.72,0-9.28-3.2-14.56-7.2-21l-11.84-19.36c-5.44-9-11-16.48-11-28,0-16.32,10.4-28,28.64-28a85.57,85.57,0,0,1,19.52,2.55v17.93h-1c-6.88-10.08-13.12-19.2-21.76-19.2-9.12,0-13.44,6.72-13.44,16.64,0,11.2,7.84,22.24,13.6,31.84Z"/><path d="M383.27,363.93l23.84,48.64,35.52-76.32c1.76-3.84,3-7.68,3-10.72,0-4.32-2.08-7.36-5.12-10.57v-.63H458V315c-5.76,5.61-9.28,11.53-14.56,22.89L401,428.73h-.64L376.23,379,353,428.73h-.65L305.5,332.25c-5.44-11-6.56-13.28-9.92-17.29v-.63H317v1.12a13.19,13.19,0,0,0-1,5.12c0,3.36,1.12,6.4,3.2,10.72l39.85,81.28,16.32-35.2L353.5,332.25c-5.44-11-6.55-13.28-9.92-17.29v-.63h18.57v1.28c0,3.68,1.12,7.36,5.12,15.68l15.2,31,12-25.44c2.4-5.12,3.2-8.16,3.2-11.36,0-4.32-2.08-7.36-5.12-10.57v-.63H410V315c-5.76,5.61-9.28,11.53-14.56,22.89Z"/><path d="M485.69,410.65c0,5.92,3.36,9.76,8.64,15.52v.64H461.69v-.64c5.6-5.76,9.28-9.6,9.28-15.52V330.49c0-5.92-3.68-9.76-9.28-15.53v-.63h32.64V315c-5.28,5.77-8.64,9.61-8.64,15.53Z"/><path d="M500.11,314.33h144.8c41.6,0,63,24.16,63,55.36,0,32.8-21.44,57.12-63,57.12H500.11v-.64c5.6-5.76,9.28-9.6,9.28-15.52V330.49c0-5.92-3.68-9.76-9.28-15.53Zm24,111.2H642.35c36,0,49.92-26.72,49.92-55.2s-13.92-54.72-49.92-54.72H524.11Z"/><path d="M886.78,314.33v18.24l-.64.16C877,323,870,315.61,857.66,315.61h-53v95c0,5.92,3.36,9.76,8.64,15.52v.64H780.7v-.64c5.6-5.76,9.28-9.6,9.28-15.52v-95h-52.8c-12.32,0-19.36,7.36-28.48,17.12l-.65-.16V314.33Z"/><path d="M987.88,410.65c0,5.92,3.36,9.76,8.64,15.52v.64H963.88v-.64c5.6-5.76,9.28-9.6,9.28-15.52V373.37h-56.8v37.28c0,5.92,3.36,9.76,8.64,15.52v.64H892.36v-.64c5.6-5.76,9.28-9.6,9.28-15.52V330.49c0-5.92-3.68-9.76-9.28-15.53v-.63H925V315c-5.28,5.77-8.64,9.61-8.64,15.53v41.6h56.8v-41.6c0-5.92-3.68-9.76-9.28-15.53v-.63h32.64V315c-5.28,5.77-8.64,9.61-8.64,15.53Z"/><path d="M1029.3,356.09l17.92,13.44c11,8.16,19.52,14.56,19.52,29.44,0,18.08-13.44,29.76-33.44,29.76-8.32,0-20.8-1.6-28.8-5.12l-2.4-17.6,1-.16a178.37,178.37,0,0,0,13.28,12.48c7,5.76,13,9.12,18.72,9.12,11.52,0,19-10.24,19-22.24,0-9.44-4.48-14.88-13.28-21.12l-18.72-13.44c-9.92-7-17-16-17-28.64,0-18.88,12.8-29.6,32.8-29.6,9,0,16.32.63,23.84,2.88l3,17.6h-1c-4.48-4.16-10.56-9.76-13.6-12.48-4.16-3.84-7.68-6.72-14.24-6.72-11.52,0-19.36,9.28-19.36,21C1016.66,345.05,1021.78,350.49,1029.3,356.09Z"/><path d="M155.88,493.37l-11,31.2c-1.76,4.8-4,10.08-4,13.76,0,3.84,1.76,6.24,8.49,7.84v.64h-20v-.64c6.56-3,10.08-10.4,12-15.84l29-81.92c3.83-3.36,8.48-7.84,9.76-14.08h.64l36.8,98.56c1.92,5,5.6,10.88,9.44,13.28v.64H197.49v-.64c3.52-2.72,6.56-5.92,3.52-14.08l-14.24-38.72Zm.49-1.28h29.92l-15.36-41.76Z"/><path d="M414.77,548.41l-1.44.32L241.64,441.37v86.4c0,11.68,1.6,16.64,10.72,18.4v.64H229.48v-.64c8.8-1.6,10.4-6.72,10.4-18.4V439.61c-2.08-2.4-6.72-3.84-10.56-4.65v-.63h29.92L413,529.85V453.37c0-11.68-1.6-16.8-10.4-18.41v-.63h22.88V435c-9.12,1.77-10.72,6.73-10.72,18.41Z"/><path d="M429.64,434.33H486c51.21,0,72.65,22.56,72.65,55.36,0,34.4-21.44,57.12-72.65,57.12H429.64v-.64c5.6-5.76,9.28-9.6,9.28-15.52V450.49c0-5.92-3.68-9.76-9.28-15.53Zm53.76,111.2c45.6,0,59.52-26.72,59.52-55.2S529,435.61,483.4,435.61H453.64V545.53Z"/><path d="M685.33,483.93l23.84,48.64,35.52-76.32c1.76-3.84,3-7.68,3-10.72,0-4.32-2.08-7.36-5.12-10.57v-.63h17.44V435c-5.76,5.61-9.28,11.53-14.56,22.89l-42.4,90.88h-.64L678.29,499l-23.2,49.76h-.64l-46.89-96.48c-5.44-11-6.56-13.28-9.92-17.29v-.63h21.44v1.12a13.19,13.19,0,0,0-1,5.12c0,3.36,1.13,6.4,3.21,10.72l39.84,81.28,16.32-35.2-21.92-45.12c-5.45-11-6.56-13.28-9.92-17.29v-.63h18.56v1.28c0,3.68,1.12,7.36,5.12,15.68l15.2,31,12-25.44c2.4-5.12,3.2-8.16,3.2-11.36,0-4.32-2.08-7.36-5.12-10.57v-.63h17.44V435c-5.76,5.61-9.28,11.53-14.56,22.89Z"/><path d="M820,546.81H760.68v-.64c5.6-5.76,9.28-9.6,9.28-15.52V450.49c0-5.92-3.68-9.76-9.28-15.53v-.63h54.56l3.52,15.84h-1c-8.64-6.56-19.52-14.56-23.84-14.56h-9.28v56.32h18.88c3.36,0,6.56,0,15-9.44h1v20h-1c-8.48-9.28-11.68-9.28-15-9.28H784.68v52.32H797c10.72,0,17.28-6.56,26.4-16.16h1Z"/><path d="M854.92,530.65c0,5.92,3.36,9.76,8.64,15.52v.64H830.92v-.64c5.6-5.76,9.28-9.6,9.28-15.52V450.49c0-5.92-3.68-9.76-9.28-15.53v-.63h32.64V435c-5.28,5.77-8.64,9.61-8.64,15.53Z"/><path d="M967.72,542.65c-9.44,4.32-27.2,5.76-34.72,5.76-40.32,0-61-25.92-61-58.08,0-33,21.92-57.92,60.64-57.92a108.9,108.9,0,0,1,31.84,4.16l6.4,19.68h-1c-14.88-14.72-25.92-22.56-39-22.56-31.84,0-43.2,29.44-43.2,56.64s10.56,56.8,45.44,56.8c15.2,0,20-4.16,20-13.28V509.37c0-7.52-1.28-13.6-7.36-17v-.64h21.92Z"/><path d="M1070.12,530.65c0,5.92,3.36,9.76,8.64,15.52v.64h-32.64v-.64c5.6-5.76,9.28-9.6,9.28-15.52V493.37H998.6v37.28c0,5.92,3.36,9.76,8.64,15.52v.64H974.6v-.64c5.6-5.76,9.28-9.6,9.28-15.52V450.49c0-5.92-3.68-9.76-9.28-15.53v-.63h32.64V435c-5.28,5.77-8.64,9.61-8.64,15.53v41.6h56.8v-41.6c0-5.92-3.68-9.76-9.28-15.53v-.63h32.64V435c-5.28,5.77-8.64,9.61-8.64,15.53Z"/><path d="M1163.88,434.33v18.24l-.64.16c-9.12-9.76-16.16-17.12-28.48-17.12h-3.68v95c0,5.92,3.36,9.76,8.64,15.52v.64h-32.64v-.64c5.6-5.76,9.28-9.6,9.28-15.52v-95h-3.68c-12.32,0-19.36,7.36-28.48,17.12l-.64-.16V434.33Z"/><path d="M1196,476.09,1214,489.53c11,8.16,19.52,14.56,19.52,29.44,0,18.08-13.44,29.76-33.44,29.76-8.33,0-20.8-1.6-28.81-5.12l-2.4-17.6,1-.16a178.33,178.33,0,0,0,13.29,12.48c7,5.76,13,9.12,18.72,9.12,11.52,0,19-10.24,19-22.24,0-9.44-4.48-14.88-13.28-21.12l-18.73-13.44c-9.91-7-16.95-16-16.95-28.64,0-18.88,12.79-29.6,32.8-29.6,9,0,16.32.63,23.84,2.88l3,17.6h-1c-4.48-4.16-10.56-9.76-13.6-12.48-4.16-3.84-7.68-6.72-14.24-6.72-11.52,0-19.36,9.28-19.36,21C1183.4,465.05,1188.51,470.49,1196,476.09Z"/></g></svg>