<?xml version='1.0' encoding='UTF-8'?>
<svg xmlns="http://www.w3.org/2000/svg" xmlns:xlink="http://www.w3.org/1999/xlink" width="1366px" height="768px" viewBox="0 0 1366 768" x="0px" y="0px" enable-background="new 0 0 1366 768"><defs><symbol overflow="visible" id="31365deca"><path d="M5.53-9.66a4.9 4.9 0 100 9.82 4.9 4.9 0 000-9.82zm0 9a4.08 4.08 0 110-8.16 4.08 4.08 0 010 8.16zm-1.2-4.71c.31 0 .47-.46.47-1 0-.55-.16-.97-.47-.97-.35 0-.52.42-.52.96 0 .55.17 1 .52 1zm2.4 0c.33 0 .52-.46.52-1 0-.55-.19-.97-.52-.97-.32 0-.46.42-.46.96 0 .55.14 1 .46 1zm1.4.68c-.32 1.5-1.33 2.22-2.6 2.22-1.26 0-2.28-.72-2.6-2.22h-.48a3 3 0 003.08 3.03 3 3 0 003.08-3.03zm0 0"/></symbol><symbol overflow="visible" id="31365decc"><path d="M2.48-1.02V-9.5h-1.2V0h5.78v-1.02zm0 0"/></symbol><symbol overflow="visible" id="31365decd"><path d="M2.47-9.5H1.28V0h1.19zm0 0"/></symbol><symbol overflow="visible" id="31365dece"><path d="M4.9-4.92v.98h3.3C8.2-2.04 7.05-.83 5.16-.83c-1.99 0-3.29-1.44-3.29-3.92 0-2.44 1.33-3.94 3.24-3.94 1.48 0 2.31.63 2.75 1.75H9.1c-.56-1.89-2.02-2.73-3.98-2.73C2.46-9.67.68-7.66.68-4.75.69-1.81 2.49.17 5.16.17 6.8.17 7.8-.6 8.28-1.73V0h1.06l.02-4.92zm0 0"/></symbol><symbol overflow="visible" id="31365decf"><path d="M7.9-9.5v4.05H2.48V-9.5H1.28V0h1.19v-4.45H7.9V0h1.18v-9.5zm0 0"/></symbol><symbol overflow="visible" id="31365decg"><path d="M7.8-9.5H.3v.97h3.16V0h1.17v-8.53H7.8zm0 0"/></symbol><symbol overflow="visible" id="31365dech"><path d="M7.55 0h1.33L5.8-4.28C7.58-4.5 8.36-5.45 8.36-6.9c0-1.61-1-2.61-3.17-2.61h-3.9V0h1.2v-4.16h2.04zM2.48-8.52h2.55c1.38 0 2.14.54 2.14 1.63 0 1.1-.73 1.73-2.12 1.73H2.48zm0 0"/></symbol><symbol overflow="visible" id="31365deci"><path d="M7.86-8.5v-1H1.28V0h6.58v-1.02h-5.4v-3.35h4.8v-.99h-4.8V-8.5zm0 0"/></symbol><symbol overflow="visible" id="31365decj"><path d="M9.03-9.5H7.86v5.86C7.86-1.8 6.7-.87 5.12-.87c-1.67 0-2.76-.96-2.76-2.83v-5.8H1.17v5.8C1.17-1.14 2.72.17 5.11.17c2.39 0 3.92-1.3 3.92-3.87zm0 0"/></symbol><symbol overflow="visible" id="31365deck"><path d="M7.52 0h1.26L5.16-9.5H3.87L.13 0H1.4l.99-2.63h4.18zM2.75-3.6l1.77-4.68L6.2-3.61zm0 0"/></symbol><symbol overflow="visible" id="31365decl"><path d="M6.52-4.94A2.17 2.17 0 008.22-7c0-1.56-1-2.5-3.17-2.5H1.28V0h3.99c2.4 0 3.39-1.03 3.39-2.7 0-1.22-.85-2.07-2.14-2.24zM4.75-8.52c1.38 0 2.28.38 2.28 1.52 0 1.05-.76 1.66-2.1 1.66H2.48v-3.18zM5.03-1H2.47v-3.36h2.58c1.45 0 2.42.4 2.42 1.66C7.47-1.37 6.5-1 5.03-1zm0 0"/></symbol><symbol overflow="visible" id="31365decm"><path d="M5.1.17c2.63 0 4.43-1.98 4.43-4.92s-1.8-4.92-4.42-4.92C2.48-9.67.69-7.7.69-4.75S2.49.17 5.1.17zm0-1c-1.94 0-3.22-1.5-3.22-3.92 0-2.44 1.28-3.94 3.23-3.94s3.23 1.5 3.23 3.94c0 2.42-1.28 3.92-3.23 3.92zm0 0"/></symbol><symbol overflow="visible" id="31365decn"><path d="M4.34-9.5H1.28V0h3.06c2.7 0 4.61-1.81 4.61-4.75S7.05-9.5 4.35-9.5zM4.16-1h-1.7v-7.52h1.7c2.28 0 3.6 1.4 3.6 3.77C7.77-2.37 6.42-1 4.17-1zm0 0"/></symbol><symbol overflow="visible" id="31365deco"><path d="M5.1.17c2.46 0 3.63-1.19 4.06-3.2H7.9c-.38 1.58-1.3 2.2-2.82 2.2-1.8 0-3.21-1.53-3.21-3.92 0-2.4 1.42-3.94 3.21-3.94 1.57 0 2.47.67 2.8 2.22h1.25c-.37-1.92-1.53-3.2-4.05-3.2C2.42-9.67.7-7.61.7-4.75.69-1.87 2.44.17 5.09.17zm0 0"/></symbol><symbol overflow="visible" id="31365decp"><path d="M6.81-9.5L4.13-4.95 1.42-9.5H.17l3.36 5.64V0H4.7v-3.86L8.1-9.5zm0 0"/></symbol><symbol overflow="visible" id="31365decq"><path d="M5.2-9.5H1.28V0h1.2v-4.16h2.63c2.17 0 3.25-1.14 3.25-2.7 0-1.64-.98-2.64-3.16-2.64zm-.18 4.34H2.48v-3.36h2.54c1.5 0 2.15.6 2.15 1.66 0 1.02-.65 1.7-2.15 1.7zm0 0"/></symbol></defs><path fill="#00d800" d="M0 0h1366v768H0z"/><use xlink:href="#31365deca" x="206" y="177.3379" fill="#fdfaf5"/><g fill="#fdfaf5"><use xlink:href="#31365decb" x="217.438" y="177.3379"/><use xlink:href="#31365decc" x="221.204" y="177.3379"/><use xlink:href="#31365decd" x="228.75" y="177.3379"/><use xlink:href="#31365dece" x="232.754" y="177.3379"/></g><use xlink:href="#31365decf" x="243.3114" y="177.3379" fill="#fdfaf5"/><use xlink:href="#31365decg" x="253.9136" y="177.3379" fill="#fdfaf5"/><use xlink:href="#31365deca" x="206.994" y="378.3359" fill="#fdfaf5"/><g fill="#fdfaf5"><use xlink:href="#31365decb" x="218.432" y="378.3359"/><use xlink:href="#31365dech" x="222.198" y="378.3359"/></g><g fill="#fdfaf5"><use xlink:href="#31365deci" x="231.6592" y="378.3359"/><use xlink:href="#31365dece" x="240.2552" y="378.3359"/></g><use xlink:href="#31365decj" x="250.7342" y="378.3359" fill="#fdfaf5"/><use xlink:href="#31365decc" x="261.1824" y="378.3359" fill="#fdfaf5"/><use xlink:href="#31365deck" x="269.315" y="378.3359" fill="#fdfaf5"/><use xlink:href="#31365dech" x="278.5732" y="378.3359" fill="#fdfaf5"/><use xlink:href="#31365deca" x="206.994" y="601.3419" fill="#fdfaf5"/><g fill="#fdfaf5"><use xlink:href="#31365decb" x="218.432" y="601.3419"/><use xlink:href="#31365decl" x="222.198" y="601.3419"/><use xlink:href="#31365decm" x="231.802" y="601.3419"/></g><g fill="#fdfaf5"><use xlink:href="#31365decc" x="242.3062" y="601.3419"/><use xlink:href="#31365decn" x="249.8522" y="601.3419"/></g><g fill="#fdfaf5"><use xlink:href="#31365deca" x="479" y="378.3359"/><use xlink:href="#31365decb" x="490.438" y="378.3359"/><use xlink:href="#31365dech" x="494.204" y="378.3359"/></g><use xlink:href="#31365deci" x="503.6652" y="378.3359" fill="#fdfaf5"/><use xlink:href="#31365dece" x="512.264" y="378.3359" fill="#fdfaf5"/><use xlink:href="#31365decj" x="522.7444" y="378.3359" fill="#fdfaf5"/><use xlink:href="#31365decc" x="533.1926" y="378.3359" fill="#fdfaf5"/><use xlink:href="#31365deck" x="541.3252" y="378.3359" fill="#fdfaf5"/><g fill="#fdfaf5"><use xlink:href="#31365dech" x="550.5834" y="378.3359"/><use xlink:href="#31365decb" x="560.2154" y="378.3359"/><use xlink:href="#31365decd" x="563.9814" y="378.3359"/></g><use xlink:href="#31365decg" x="567.9406" y="378.3359" fill="#fdfaf5"/><use xlink:href="#31365deck" x="575.2626" y="378.3359" fill="#fdfaf5"/><use xlink:href="#31365decc" x="584.5208" y="378.3359" fill="#fdfaf5"/><use xlink:href="#31365decd" x="592.071" y="378.3359" fill="#fdfaf5"/><g fill="#fdfaf5"><use xlink:href="#31365deco" x="596.0806" y="378.3359"/><use xlink:href="#31365decb" x="606.2726" y="378.3359"/></g><g fill="#fdfaf5"><use xlink:href="#31365deca" x="856.006" y="378.3359"/><use xlink:href="#31365decb" x="867.444" y="378.3359"/><use xlink:href="#31365decf" x="871.21" y="378.3359"/></g><use xlink:href="#31365decp" x="881.8892" y="378.3359" fill="#fdfaf5"/><use xlink:href="#31365decq" x="890.4404" y="378.3359" fill="#fdfaf5"/><use xlink:href="#31365deci" x="899.3906" y="378.3359" fill="#fdfaf5"/><g fill="#fdfaf5"><use xlink:href="#31365dech" x="908.0188" y="378.3359"/><use xlink:href="#31365decb" x="917.6508" y="378.3359"/><use xlink:href="#31365decd" x="921.4168" y="378.3359"/></g><use xlink:href="#31365decg" x="925.376" y="378.3359" fill="#fdfaf5"/><use xlink:href="#31365deck" x="932.698" y="378.3359" fill="#fdfaf5"/><use xlink:href="#31365decc" x="941.9562" y="378.3359" fill="#fdfaf5"/><use xlink:href="#31365decd" x="949.5064" y="378.3359" fill="#fdfaf5"/><g fill="#fdfaf5"><use xlink:href="#31365deco" x="953.516" y="378.3359"/><use xlink:href="#31365decb" x="963.708" y="378.3359"/></g><path d="M403.75 168.23a720.12 720.12 0 00-31.83 7.38c-15.13 3.87-23.67 13.58-23.67 27.16 0 14.36 10.09 23.68 25.23 23.68 13.58 0 24.06-6.22 30.27-13.59zm-58.22-24.06h-6.6c-5.82-11.26-8.53-20.57-8.92-33.38 12.03-10.48 38.81-25.61 56.66-25.61 27.56 0 41.92 19.8 41.92 45.8 0 17.07-1.56 53.55-1.56 70.24 0 18.63 4.66 26.39 25.62 26.39l.77 7.76-46.18 8.93-3.5-22.9c-10.47 12.42-24.83 24.84-43.07 24.84-24.84 0-39.59-16.3-39.59-37.65 0-19.79 12.42-34.93 35.32-40.75 15.14-3.88 29.1-5.82 47.35-8.54v-26.77c0-19.02-14.36-27.56-29.5-27.56-6.2 0-12.8 1.55-18.24 3.5zm0 0M401.03 378.2a372.85 372.85 0 00-31.44 6.98c-13.97 3.49-23.67 12.8-23.67 25.22 0 14.75 8.93 22.9 23.67 22.9 11.65 0 26.4-6.6 31.05-17.08zm-44.63 78c-24.06 0-41.53-16.3-41.53-39.59 0-21.73 11.26-36.48 43.47-43.47 10.87-2.32 24.84-4.65 43.08-7.37v-29.88c0-19.02-14.36-26.39-29.5-26.39-10.09 0-15.13 1.55-20.56 3.5l-10.1 34.53h-10.09c-5.82-11.25-8.53-20.57-8.92-33.37 17.85-10.87 36.87-25.62 62.48-25.62 26 0 47.73 20.96 47.73 45.8 0 17.07-.77 51.61-.77 68.3 0 18.24 2.33 27.56 18.63 27.56 2.33 0 5.04-.4 8.15-.78l1.16 12.8-51.61 10.1-6.6-22.9c-8.15 15.91-24.06 26.78-45.02 26.78M389.77 599.8c-14.75 1.16-35.31 6.98-35.31 25.22 0 12.8 7.76 19.02 17.85 19.02 8.54 0 14.36-3.5 17.46-6.99zm-41.52 76.06c-22.51 0-40.75-15.91-40.75-41.53 0-39.2 52-48.12 82.27-52.39v-22.51c0-15.13-8.15-24.45-21.34-24.45a34.06 34.06 0 00-14.36 3.5l-10.87 36.47h-14.36c-6.2-6.6-13.2-28.33-11.64-38.03 20.57-14.74 43.85-28.72 67.92-28.72 34.92 0 60.15 20.57 60.15 50.07 0 22.9-1.55 47.34-1.55 64.03 0 18.24 2.33 27.56 15.9 27.56 2.34 0 4.28-.4 7-.78l1.16 16.69-69.86 10.09-6.2-23.29c-9.32 12.81-23.3 23.29-43.47 23.29" fill="#fff"/><path d="M713.98 305.41c-34.55 0-46.96 60.94-47.74 89.27-.39 14.75 3.5 32.98 14.36 32.98 21.35 0 62.1-83.82 63.26-109.05-4.66-6.6-19.02-13.2-29.88-13.2m47.34 120.32c8.54 0 16.3-8.54 21.73-16.3l5.83 3.1c-3.88 14.75-29.5 38.81-46.18 38.81-13.98 0-17.86-10.09-17.86-24.06 0-12.03 5.82-29.1 12.03-49.68h-1.94c-13.58 23.67-34.93 72.96-66.36 72.96-22.51 0-29.5-19.01-29.89-44.24-.77-51.62 30.28-116.43 83.83-116.43 14.75 0 28.72 3.88 37.26 8.15 0 0 10.1-8.15 15.14-8.15 3.1 0 6.98 2.72 6.98 5.82-15.52 32.6-26 93.15-26 120.7 0 4.66.77 9.32 5.43 9.32M1108.23 305.7c-38.57 0-86.77 73.35-86.77 107.1 0 8.16 4.61 11.26 10.48 11.26s14.67-4.65 23.06-12.42c23.89-22.12 59.1-64.8 81.73-97.8-6.71-5.04-17.6-8.14-28.5-8.14m.41 119.92c7.97 0 19.7-13.2 30.6-28.72l5.87 1.94c-15.93 28.33-39.4 52.78-61.61 52.78-10.9 0-17.19-5.82-17.19-15.53 0-10.09 5.45-19.01 13.41-30.66L1101.1 374h-2.93c-17.19 23.68-55.33 76.84-87.19 76.84-15.08 0-23.05-8.92-23.05-22.5 0-53.56 75.45-138.17 133.29-138.17 15.5 0 29.76 3.88 37.3 8.15 7.55-4.27 14.67-8.15 19.28-8.15 2.94 0 6.7 2.72 5.45 5.82-27.66 30.28-80.47 104.01-80.47 124.2 0 3.49 2.1 5.43 5.86 5.43" fill="#f2f2f2"/></svg>