<?xml version="1.0" encoding="UTF-8"?><svg id="Layer_1" xmlns="http://www.w3.org/2000/svg" viewBox="0 0 1366 768"><defs><style>.cls-1{fill:#fff;}.cls-2{fill:#e50000;}</style></defs><rect class="cls-2" x="-27" y="-50.94" width="1446" height="930.38"/><g><path class="cls-1" d="M133.54,133.55c32.7,0,55.28,23.62,55.28,52.69,0,19.73-9.34,34.78-27.77,42.31,12.72,6.75,21.28,20.76,21.28,37.64,0,27.51-22.06,49.83-50.35,49.83h-53.21V133.55h54.77Zm-35.04,84.09h36.08c21.02,0,34.52-13.5,34.52-31.41s-13.5-32.96-35.56-32.96h-35.04v64.37Zm0,78.64h33.48c16.09,0,30.63-13.24,30.63-30.11s-14.54-29.33-30.63-29.33h-33.48v59.44Z"/><path class="cls-1" d="M307.18,130.95c52.17,0,94.22,42.05,94.22,93.96s-42.05,93.7-94.22,93.7-93.96-41.53-93.96-93.7,41.79-93.96,93.96-93.96Zm0,168.19c41.27,0,74.49-32.96,74.49-74.23s-33.22-74.23-74.49-74.23-74.23,33.22-74.23,74.23,32.96,74.23,74.23,74.23Z"/><path class="cls-1" d="M523.13,316.01c-62.03,0-98.89-37.89-98.89-91.1s36.86-91.36,98.89-91.36h158.33c62.03,0,98.89,38.15,98.89,91.36s-36.86,91.1-98.89,91.1h-158.33Zm158.33-19.73c49.83,0,79.16-29.07,79.16-71.38s-29.33-71.64-79.16-71.64h-158.33c-49.83,0-79.16,29.33-79.16,71.64s29.33,71.38,79.16,71.38h158.33Z"/><path class="cls-1" d="M824.21,133.55l78.64,103.04,77.61-103.04h9.08v182.46h-19.73V184.94l.26-3.37-65.41,85.91h-3.63l-65.41-85.91,.26,3.37v131.07h-19.73V133.55h8.05Z"/><path class="cls-1" d="M1045.6,293.17c7.27,0,12.98,5.71,12.98,12.98s-5.71,12.98-12.98,12.98-12.98-5.71-12.98-12.98,5.71-12.98,12.98-12.98Zm9.86-159.62l-1.56,137.56h-16.61l-1.56-137.56h19.73Z"/></g><g><path class="cls-1" d="M133.54,342.4c32.7,0,55.28,23.62,55.28,52.69,0,19.73-9.34,34.78-27.77,42.31,12.72,6.75,21.28,20.76,21.28,37.63,0,27.51-22.06,49.83-50.35,49.83h-53.21v-182.46h54.77Zm-35.04,84.09h36.08c21.02,0,34.52-13.5,34.52-31.41s-13.5-32.96-35.56-32.96h-35.04v64.37Zm0,78.64h33.48c16.09,0,30.63-13.24,30.63-30.11s-14.54-29.33-30.63-29.33h-33.48v59.44Z"/><path class="cls-1" d="M307.18,339.8c52.17,0,94.22,42.05,94.22,93.96s-42.05,93.7-94.22,93.7-93.96-41.53-93.96-93.7,41.79-93.96,93.96-93.96Zm0,168.19c41.27,0,74.49-32.96,74.49-74.23s-33.22-74.23-74.49-74.23-74.23,33.22-74.23,74.23,32.96,74.23,74.23,74.23Z"/><path class="cls-1" d="M523.13,524.86c-62.03,0-98.89-37.89-98.89-91.1s36.86-91.36,98.89-91.36h158.33c62.03,0,98.89,38.15,98.89,91.36s-36.86,91.1-98.89,91.1h-158.33Zm158.33-19.73c49.83,0,79.16-29.07,79.16-71.38s-29.33-71.64-79.16-71.64h-158.33c-49.83,0-79.16,29.33-79.16,71.64s29.33,71.38,79.16,71.38h158.33Z"/><path class="cls-1" d="M814.34,342.4l47.76,110.83,48.54-110.83h7.01v182.46h-18.43v-114.98l-35.04,80.46h-4.41l-33.74-80.46v114.98h-18.43v-182.46h6.75Z"/><path class="cls-1" d="M965.14,502.02c7.27,0,12.98,5.71,12.98,12.98s-5.71,12.98-12.98,12.98-12.98-5.71-12.98-12.98,5.71-12.98,12.98-12.98Zm9.86-159.62l-1.56,137.56h-16.61l-1.56-137.56h19.73Z"/></g><g><path class="cls-1" d="M325.87,552.09c36.86,0,61.25,22.06,61.25,51.39,0,20.76-10.12,35.82-31.92,42.57,17.39,6.49,25.7,19.73,25.7,37.38,0,29.59-23.1,51.13-61.25,51.13H78.77v-182.46h247.09Zm-227.37,83.06h226.85c26.99,0,41.53-13.24,41.53-31.67s-15.57-31.67-41.53-31.67H98.5v63.33Zm0,79.68h220.88c26.99,0,41.27-12.46,41.27-30.89s-15.31-29.59-41.27-29.59H98.5v60.48Z"/><path class="cls-1" d="M504.7,549.49c52.17,0,94.22,42.05,94.22,93.96s-42.05,93.7-94.22,93.7-93.96-41.53-93.96-93.7,41.79-93.96,93.96-93.96Zm0,168.19c41.27,0,74.49-32.96,74.49-74.23s-33.22-74.23-74.49-74.23-74.23,33.22-74.23,74.23,32.96,74.23,74.23,74.23Z"/><path class="cls-1" d="M718.31,643.45c0,57.1-17.13,93.96-49.31,93.96s-48.8-36.86-48.8-93.96,16.87-93.96,48.8-93.96,49.31,36.6,49.31,93.96Zm-78.38,0c0,48.28,9.86,74.49,29.07,74.49,20.25,0,29.59-26.21,29.59-74.49s-9.6-74.49-29.59-74.49-29.07,26.21-29.07,74.49Z"/><path class="cls-1" d="M750.76,552.09l47.76,110.83,48.54-110.83h7.01v182.46h-18.43v-114.98l-35.04,80.46h-4.41l-33.74-80.46v114.98h-18.43v-182.46h6.75Z"/><path class="cls-1" d="M901.55,711.71c7.27,0,12.98,5.71,12.98,12.98s-5.71,12.98-12.98,12.98-12.98-5.71-12.98-12.98,5.71-12.98,12.98-12.98Zm9.86-159.62l-1.56,137.56h-16.61l-1.56-137.56h19.73Z"/></g><g><path class="cls-1" d="M82.12,54.99h-2.7v-14.26h2.7v14.26Z"/><path class="cls-1" d="M88.09,46.42v4.83c0,1.03,.47,1.53,1.34,1.53,.35,0,.59-.02,.83-.08v2.25c-.51,.15-.81,.17-1.44,.17-2.3,0-3.33-1.39-3.33-3.74v-4.96h-1.6v-2.29h1.6v-3.07h2.6v3.07h2.17v2.29h-2.17Z"/><path class="cls-1" d="M100.71,47.87v7.12h-2.34v-1.39c-.79,1.11-1.87,1.64-3.25,1.64-2.17,0-3.66-1.36-3.66-3.25s1.06-3.09,3.6-3.36l3.07-.34v-.59c0-1.22-.71-1.8-1.83-1.8-1.18,0-1.83,.5-2.03,1.57h-2.6c.28-2.35,1.91-3.59,4.59-3.59s4.45,1.24,4.45,3.99Zm-2.6,2.88v-.8l-2.44,.34c-1.08,.15-1.58,.76-1.58,1.58s.63,1.51,1.71,1.51c1.5,0,2.31-1.07,2.31-2.62Z"/><path class="cls-1" d="M105.52,54.99h-2.6v-15.12h2.6v15.12Z"/><path class="cls-1" d="M107.59,40.94c0-.9,.63-1.64,1.58-1.64s1.54,.74,1.54,1.64-.63,1.64-1.54,1.64-1.58-.76-1.58-1.64Zm.26,3.19h2.6v10.85h-2.6v-10.85Z"/><path class="cls-1" d="M121.53,47.87v7.12h-2.34v-1.39c-.79,1.11-1.87,1.64-3.25,1.64-2.17,0-3.66-1.36-3.66-3.25s1.06-3.09,3.6-3.36l3.07-.34v-.59c0-1.22-.71-1.8-1.83-1.8-1.18,0-1.83,.5-2.03,1.57h-2.6c.28-2.35,1.91-3.59,4.59-3.59s4.45,1.24,4.45,3.99Zm-2.6,2.88v-.8l-2.44,.34c-1.08,.15-1.58,.76-1.58,1.58s.63,1.51,1.71,1.51c1.5,0,2.31-1.07,2.31-2.62Z"/><path class="cls-1" d="M133.02,48.14v6.84h-2.6v-6.21c0-1.78-.79-2.58-1.99-2.58s-2.11,.88-2.11,2.58v6.21h-2.6v-10.85h2.34v1.53c.67-1.2,1.75-1.78,3.21-1.78,2.13,0,3.74,1.34,3.74,4.26Z"/><path class="cls-1" d="M139.11,50.74h2.8c.24,1.49,1.24,2.25,3.09,2.25s2.72-.8,2.72-1.85c0-.92-.57-1.53-1.85-1.8l-3.11-.65c-2.25-.46-3.39-1.95-3.39-3.84,0-2.37,1.85-4.37,5.26-4.37s5.34,1.51,5.59,4.24h-2.82c-.22-1.37-1.12-2-2.8-2s-2.44,.82-2.44,1.83c0,.82,.47,1.38,1.71,1.64l3.13,.63c2.44,.46,3.51,1.99,3.51,3.9,0,2.52-1.81,4.51-5.5,4.51s-5.61-1.66-5.91-4.49Z"/><path class="cls-1" d="M161.01,47.87v7.12h-2.34v-1.39c-.79,1.11-1.87,1.64-3.25,1.64-2.17,0-3.66-1.36-3.66-3.25s1.06-3.09,3.6-3.36l3.07-.34v-.59c0-1.22-.71-1.8-1.83-1.8-1.18,0-1.83,.5-2.03,1.57h-2.6c.28-2.35,1.91-3.59,4.59-3.59s4.45,1.24,4.45,3.99Zm-2.6,2.88v-.8l-2.44,.34c-1.08,.15-1.58,.76-1.58,1.58s.63,1.51,1.71,1.51c1.5,0,2.31-1.07,2.31-2.62Z"/><path class="cls-1" d="M172.5,48.14v6.84h-2.6v-6.21c0-1.78-.79-2.58-1.99-2.58s-2.11,.88-2.11,2.58v6.21h-2.6v-10.85h2.34v1.53c.67-1.2,1.75-1.78,3.21-1.78,2.13,0,3.74,1.34,3.74,4.26Z"/><path class="cls-1" d="M174.09,51.81h2.54c.22,.97,.93,1.47,2.17,1.47s1.89-.5,1.89-1.24c0-.63-.35-1.07-1.28-1.24l-2.19-.44c-2.07-.42-2.94-1.45-2.94-3.11,0-1.81,1.46-3.38,4.24-3.38s4.25,1.41,4.59,3.59h-2.56c-.16-1.09-.87-1.64-2.05-1.64s-1.77,.57-1.77,1.26c0,.59,.3,.99,1.36,1.18l2.15,.4c2.23,.4,3.03,1.51,3.03,3.19,0,1.8-1.34,3.38-4.45,3.38s-4.35-1.39-4.73-3.42Z"/><path class="cls-1" d="M205.29,44.13l-3.13,10.85h-3.09l-2.15-7.6-2.07,7.6h-3.09l-3.11-10.85h2.7l2.07,8.1,2.15-8.1h2.9l2.17,8.1,2.01-8.1h2.66Z"/><path class="cls-1" d="M215.52,47.87v7.12h-2.34v-1.39c-.79,1.11-1.87,1.64-3.25,1.64-2.17,0-3.66-1.36-3.66-3.25s1.06-3.09,3.6-3.36l3.07-.34v-.59c0-1.22-.71-1.8-1.83-1.8-1.18,0-1.83,.5-2.03,1.57h-2.6c.28-2.35,1.91-3.59,4.59-3.59s4.45,1.24,4.45,3.99Zm-2.6,2.88v-.8l-2.44,.34c-1.08,.15-1.58,.76-1.58,1.58s.63,1.51,1.71,1.51c1.5,0,2.31-1.07,2.31-2.62Z"/><path class="cls-1" d="M217.11,51.81h2.54c.22,.97,.93,1.47,2.17,1.47s1.89-.5,1.89-1.24c0-.63-.35-1.07-1.28-1.24l-2.19-.44c-2.07-.42-2.94-1.45-2.94-3.11,0-1.81,1.46-3.38,4.24-3.38s4.25,1.41,4.59,3.59h-2.56c-.16-1.09-.87-1.64-2.05-1.64s-1.77,.57-1.77,1.26c0,.59,.3,.99,1.36,1.18l2.15,.4c2.23,.4,3.03,1.51,3.03,3.19,0,1.8-1.34,3.38-4.45,3.38s-4.35-1.39-4.73-3.42Z"/><path class="cls-1" d="M238.15,44.11v2.44c-.16-.02-.33-.04-.59-.04-1.6,0-2.46,.99-2.46,2.71v5.77h-2.6v-10.85h2.34v1.87c.49-1.3,1.5-1.97,2.7-1.97,.22,0,.39,.02,.61,.08Z"/><path class="cls-1" d="M249.11,49.71c0,.34-.02,.63-.02,.63h-7.37c.18,1.97,1.16,2.79,2.54,2.79,1.12,0,1.75-.52,2.05-1.32h2.58c-.45,1.93-2.07,3.42-4.65,3.42-3.25,0-5.12-2.31-5.12-5.61s2.07-5.75,5.04-5.75c3.19,0,5,2.35,4.94,5.84Zm-2.66-1.18c-.08-1.64-.93-2.56-2.27-2.56-1.24,0-2.17,.84-2.42,2.56h4.69Z"/><path class="cls-1" d="M253.48,54.99h-2.6v-15.12h2.6v15.12Z"/><path class="cls-1" d="M265.22,49.71c0,.34-.02,.63-.02,.63h-7.37c.18,1.97,1.16,2.79,2.54,2.79,1.12,0,1.75-.52,2.05-1.32h2.58c-.45,1.93-2.07,3.42-4.65,3.42-3.25,0-5.12-2.31-5.12-5.61s2.07-5.75,5.04-5.75c3.19,0,5,2.35,4.94,5.84Zm-2.66-1.18c-.08-1.64-.93-2.56-2.27-2.56-1.24,0-2.17,.84-2.42,2.56h4.69Z"/><path class="cls-1" d="M275.74,47.87v7.12h-2.34v-1.39c-.79,1.11-1.87,1.64-3.25,1.64-2.17,0-3.66-1.36-3.66-3.25s1.06-3.09,3.6-3.36l3.07-.34v-.59c0-1.22-.71-1.8-1.83-1.8-1.18,0-1.83,.5-2.03,1.57h-2.6c.28-2.35,1.91-3.59,4.59-3.59s4.45,1.24,4.45,3.99Zm-2.6,2.88v-.8l-2.44,.34c-1.08,.15-1.58,.76-1.58,1.58s.63,1.51,1.71,1.51c1.5,0,2.31-1.07,2.31-2.62Z"/><path class="cls-1" d="M277.33,51.81h2.54c.22,.97,.93,1.47,2.17,1.47s1.89-.5,1.89-1.24c0-.63-.35-1.07-1.28-1.24l-2.19-.44c-2.07-.42-2.94-1.45-2.94-3.11,0-1.81,1.46-3.38,4.24-3.38s4.25,1.41,4.59,3.59h-2.56c-.16-1.09-.87-1.64-2.05-1.64s-1.77,.57-1.77,1.26c0,.59,.3,.99,1.36,1.18l2.15,.4c2.23,.4,3.03,1.51,3.03,3.19,0,1.8-1.34,3.38-4.45,3.38s-4.35-1.39-4.73-3.42Z"/><path class="cls-1" d="M297.68,49.71c0,.34-.02,.63-.02,.63h-7.37c.18,1.97,1.16,2.79,2.54,2.79,1.12,0,1.75-.52,2.05-1.32h2.58c-.45,1.93-2.07,3.42-4.65,3.42-3.25,0-5.12-2.31-5.12-5.61s2.07-5.75,5.04-5.75c3.19,0,5,2.35,4.94,5.84Zm-2.66-1.18c-.08-1.64-.93-2.56-2.27-2.56-1.24,0-2.17,.84-2.42,2.56h4.69Z"/><path class="cls-1" d="M309.19,39.87v15.12h-2.34v-1.83c-.65,1.37-1.79,2.08-3.35,2.08-2.42,0-4.59-2.08-4.59-5.67s2.07-5.69,4.49-5.69c1.42,0,2.5,.57,3.19,1.62v-5.63h2.6Zm-2.6,9.7c0-2.08-1.06-3.46-2.52-3.46-1.54,0-2.54,1.37-2.54,3.46s1.06,3.44,2.54,3.44,2.52-1.32,2.52-3.44Z"/><path class="cls-1" d="M315.69,40.94c0-.9,.63-1.64,1.58-1.64s1.54,.74,1.54,1.64-.63,1.64-1.54,1.64-1.58-.76-1.58-1.64Zm.26,3.19h2.6v10.85h-2.6v-10.85Z"/><path class="cls-1" d="M330.17,48.14v6.84h-2.6v-6.21c0-1.78-.79-2.58-1.99-2.58s-2.11,.88-2.11,2.58v6.21h-2.6v-10.85h2.34v1.53c.67-1.2,1.75-1.78,3.21-1.78,2.13,0,3.74,1.34,3.74,4.26Z"/><path class="cls-1" d="M346.44,52.68v2.31h-10.05v-.78c0-2.35,1.06-3.97,3.03-5.19l2.7-1.68c1.1-.69,1.52-1.43,1.52-2.39,0-1.15-.69-2.16-2.09-2.16s-2.36,1.11-2.32,2.88h-2.66c-.12-2.83,1.75-5.19,4.98-5.19s4.83,2.08,4.83,4.49c0,1.55-.55,2.92-2.34,4.07l-3.17,2.02c-.65,.42-1.1,.88-1.32,1.62h6.9Z"/><path class="cls-1" d="M347.99,47.87c0-4.66,2.27-7.39,5.73-7.39s5.71,2.73,5.71,7.39-2.25,7.37-5.71,7.37-5.73-2.62-5.73-7.37Zm8.73,0c0-3.15-.87-5.04-2.99-5.04s-3.01,1.89-3.01,5.04,.93,5.06,3.01,5.06,2.99-1.91,2.99-5.06Z"/><path class="cls-1" d="M366.71,40.73v14.26h-2.7v-10.27c-.91,.65-1.81,.9-3.37,.9v-2.29c2.42-.08,3.21-1.03,3.68-2.6h2.38Z"/><path class="cls-1" d="M379.39,51.5h-1.75v3.49h-2.72v-3.49h-6.46v-2.33l5.26-8.44h3.92v8.46h1.75v2.31Zm-4.47-2.31v-6.36l-4.02,6.36h4.02Z"/><path class="cls-1" d="M384.16,53.45c0,.99-.75,1.78-1.67,1.78s-1.67-.8-1.67-1.78,.75-1.76,1.67-1.76,1.67,.8,1.67,1.76Z"/><path class="cls-1" d="M401.99,50.87c0,2.33-1.48,4.12-4.75,4.12h-6.34v-14.26h5.97c3.11,0,4.53,1.51,4.53,3.78,0,1.37-.69,2.52-2.15,2.98,1.95,.48,2.74,1.64,2.74,3.38Zm-8.39-7.92v3.65h3.03c1.34,0,2.07-.76,2.07-1.85,0-1.2-.81-1.8-2.19-1.8h-2.92Zm5.67,7.79c0-1.39-.95-1.93-2.36-1.93h-3.31v3.95h3.29c1.5,0,2.38-.61,2.38-2.02Z"/><path class="cls-1" d="M412.65,47.87v7.12h-2.34v-1.39c-.79,1.11-1.87,1.64-3.25,1.64-2.17,0-3.66-1.36-3.66-3.25s1.06-3.09,3.6-3.36l3.07-.34v-.59c0-1.22-.71-1.8-1.83-1.8-1.18,0-1.83,.5-2.03,1.57h-2.6c.28-2.35,1.91-3.59,4.59-3.59s4.45,1.24,4.45,3.99Zm-2.6,2.88v-.8l-2.44,.34c-1.08,.15-1.58,.76-1.58,1.58s.63,1.51,1.71,1.51c1.5,0,2.31-1.07,2.31-2.62Z"/><path class="cls-1" d="M414.24,51.81h2.54c.22,.97,.93,1.47,2.17,1.47s1.89-.5,1.89-1.24c0-.63-.35-1.07-1.28-1.24l-2.19-.44c-2.07-.42-2.94-1.45-2.94-3.11,0-1.81,1.46-3.38,4.24-3.38s4.25,1.41,4.59,3.59h-2.56c-.16-1.09-.87-1.64-2.05-1.64s-1.77,.57-1.77,1.26c0,.59,.3,.99,1.36,1.18l2.15,.4c2.23,.4,3.03,1.51,3.03,3.19,0,1.8-1.34,3.38-4.45,3.38s-4.35-1.39-4.73-3.42Z"/><path class="cls-1" d="M434.59,49.71c0,.34-.02,.63-.02,.63h-7.37c.18,1.97,1.16,2.79,2.54,2.79,1.12,0,1.75-.52,2.05-1.32h2.58c-.45,1.93-2.07,3.42-4.65,3.42-3.25,0-5.12-2.31-5.12-5.61s2.07-5.75,5.04-5.75c3.19,0,5,2.35,4.94,5.84Zm-2.66-1.18c-.08-1.64-.93-2.56-2.27-2.56-1.24,0-2.17,.84-2.42,2.56h4.69Z"/><path class="cls-1" d="M446.09,39.87v15.12h-2.34v-1.83c-.65,1.37-1.79,2.08-3.35,2.08-2.42,0-4.59-2.08-4.59-5.67s2.07-5.69,4.49-5.69c1.42,0,2.5,.57,3.19,1.62v-5.63h2.6Zm-2.6,9.7c0-2.08-1.06-3.46-2.52-3.46-1.54,0-2.54,1.37-2.54,3.46s1.06,3.44,2.54,3.44,2.52-1.32,2.52-3.44Z"/><path class="cls-1" d="M452.28,49.57c0-3.49,2.25-5.69,5.18-5.69s5.16,2.2,5.16,5.69-2.25,5.67-5.16,5.67-5.18-2.18-5.18-5.67Zm7.68,0c0-2.12-.95-3.44-2.52-3.44s-2.52,1.34-2.52,3.44,.95,3.42,2.52,3.42,2.52-1.32,2.52-3.42Z"/><path class="cls-1" d="M473.65,48.14v6.84h-2.6v-6.21c0-1.78-.79-2.58-1.99-2.58s-2.11,.88-2.11,2.58v6.21h-2.6v-10.85h2.34v1.53c.67-1.2,1.75-1.78,3.21-1.78,2.13,0,3.74,1.34,3.74,4.26Z"/><path class="cls-1" d="M483.29,54.99h-2.7v-14.26h2.7v14.26Z"/><path class="cls-1" d="M489.25,46.42v4.83c0,1.03,.47,1.53,1.34,1.53,.35,0,.59-.02,.83-.08v2.25c-.51,.15-.81,.17-1.44,.17-2.3,0-3.33-1.39-3.33-3.74v-4.96h-1.6v-2.29h1.6v-3.07h2.6v3.07h2.17v2.29h-2.17Z"/><path class="cls-1" d="M501.88,47.87v7.12h-2.34v-1.39c-.79,1.11-1.87,1.64-3.25,1.64-2.17,0-3.66-1.36-3.66-3.25s1.06-3.09,3.6-3.36l3.07-.34v-.59c0-1.22-.71-1.8-1.83-1.8-1.18,0-1.83,.5-2.03,1.57h-2.6c.28-2.35,1.91-3.59,4.59-3.59s4.45,1.24,4.45,3.99Zm-2.6,2.88v-.8l-2.44,.34c-1.08,.15-1.58,.76-1.58,1.58s.63,1.51,1.71,1.51c1.5,0,2.31-1.07,2.31-2.62Z"/><path class="cls-1" d="M506.69,54.99h-2.6v-15.12h2.6v15.12Z"/><path class="cls-1" d="M508.76,40.94c0-.9,.63-1.64,1.58-1.64s1.54,.74,1.54,1.64-.63,1.64-1.54,1.64-1.58-.76-1.58-1.64Zm.26,3.19h2.6v10.85h-2.6v-10.85Z"/><path class="cls-1" d="M522.7,47.87v7.12h-2.34v-1.39c-.79,1.11-1.87,1.64-3.25,1.64-2.17,0-3.66-1.36-3.66-3.25s1.06-3.09,3.6-3.36l3.07-.34v-.59c0-1.22-.71-1.8-1.83-1.8-1.18,0-1.83,.5-2.03,1.57h-2.6c.28-2.35,1.91-3.59,4.59-3.59s4.45,1.24,4.45,3.99Zm-2.6,2.88v-.8l-2.44,.34c-1.08,.15-1.58,.76-1.58,1.58s.63,1.51,1.71,1.51c1.5,0,2.31-1.07,2.31-2.62Z"/><path class="cls-1" d="M534.19,48.14v6.84h-2.6v-6.21c0-1.78-.79-2.58-1.99-2.58s-2.11,.88-2.11,2.58v6.21h-2.6v-10.85h2.34v1.53c.67-1.2,1.75-1.78,3.21-1.78,2.13,0,3.74,1.34,3.74,4.26Z"/><path class="cls-1" d="M549.61,47.87v7.12h-2.34v-1.39c-.79,1.11-1.87,1.64-3.25,1.64-2.17,0-3.66-1.36-3.66-3.25s1.06-3.09,3.6-3.36l3.07-.34v-.59c0-1.22-.71-1.8-1.83-1.8-1.18,0-1.83,.5-2.03,1.57h-2.6c.28-2.35,1.91-3.59,4.59-3.59s4.45,1.24,4.45,3.99Zm-2.6,2.88v-.8l-2.44,.34c-1.08,.15-1.58,.76-1.58,1.58s.63,1.51,1.71,1.51c1.5,0,2.31-1.07,2.31-2.62Z"/><path class="cls-1" d="M557.45,44.11v2.44c-.16-.02-.33-.04-.59-.04-1.6,0-2.46,.99-2.46,2.71v5.77h-2.6v-10.85h2.34v1.87c.49-1.3,1.5-1.97,2.7-1.97,.22,0,.39,.02,.61,.08Z"/><path class="cls-1" d="M562.36,46.42v4.83c0,1.03,.47,1.53,1.34,1.53,.35,0,.59-.02,.83-.08v2.25c-.51,.15-.81,.17-1.44,.17-2.3,0-3.33-1.39-3.33-3.74v-4.96h-1.6v-2.29h1.6v-3.07h2.6v3.07h2.17v2.29h-2.17Z"/><path class="cls-1" d="M580.44,39.87v15.12h-2.34v-1.83c-.65,1.37-1.79,2.08-3.35,2.08-2.42,0-4.59-2.08-4.59-5.67s2.07-5.69,4.49-5.69c1.42,0,2.5,.57,3.19,1.62v-5.63h2.6Zm-2.6,9.7c0-2.08-1.06-3.46-2.52-3.46-1.54,0-2.54,1.37-2.54,3.46s1.06,3.44,2.54,3.44,2.52-1.32,2.52-3.44Z"/><path class="cls-1" d="M592.14,49.71c0,.34-.02,.63-.02,.63h-7.37c.18,1.97,1.16,2.79,2.54,2.79,1.12,0,1.75-.52,2.05-1.32h2.58c-.45,1.93-2.07,3.42-4.65,3.42-3.25,0-5.12-2.31-5.12-5.61s2.07-5.75,5.04-5.75c3.19,0,5,2.35,4.94,5.84Zm-2.66-1.18c-.08-1.64-.93-2.56-2.27-2.56-1.24,0-2.17,.84-2.42,2.56h4.69Z"/><path class="cls-1" d="M593.34,49.55c0-3.53,2.15-5.67,5.08-5.67s4.43,1.7,4.77,4.07h-2.64c-.24-1.22-.93-1.83-2.15-1.83-1.48,0-2.42,1.26-2.42,3.4s.91,3.46,2.44,3.46c1.24,0,1.87-.63,2.13-1.83h2.62c-.33,2.41-1.97,4.07-4.75,4.07-2.94,0-5.08-2.14-5.08-5.69Z"/><path class="cls-1" d="M604.43,49.57c0-3.49,2.25-5.69,5.18-5.69s5.16,2.2,5.16,5.69-2.25,5.67-5.16,5.67-5.18-2.18-5.18-5.67Zm7.68,0c0-2.12-.95-3.44-2.52-3.44s-2.52,1.34-2.52,3.44,.95,3.42,2.52,3.42,2.52-1.32,2.52-3.42Z"/><path class="cls-1" d="M623.6,54.99h-2.6v-15.12h2.6v15.12Z"/><path class="cls-1" d="M635.34,49.71c0,.34-.02,.63-.02,.63h-7.37c.18,1.97,1.16,2.79,2.54,2.79,1.12,0,1.75-.52,2.05-1.32h2.58c-.45,1.93-2.07,3.42-4.65,3.42-3.25,0-5.12-2.31-5.12-5.61s2.07-5.75,5.04-5.75c3.19,0,5,2.35,4.94,5.84Zm-2.66-1.18c-.08-1.64-.93-2.56-2.27-2.56-1.24,0-2.17,.84-2.42,2.56h4.69Z"/><path class="cls-1" d="M640.48,46.42v4.83c0,1.03,.47,1.53,1.34,1.53,.35,0,.59-.02,.83-.08v2.25c-.51,.15-.81,.17-1.44,.17-2.3,0-3.33-1.39-3.33-3.74v-4.96h-1.6v-2.29h1.6v-3.07h2.6v3.07h2.17v2.29h-2.17Z"/><path class="cls-1" d="M647.73,46.42v4.83c0,1.03,.47,1.53,1.34,1.53,.35,0,.59-.02,.83-.08v2.25c-.51,.15-.81,.17-1.44,.17-2.3,0-3.33-1.39-3.33-3.74v-4.96h-1.6v-2.29h1.6v-3.07h2.6v3.07h2.17v2.29h-2.17Z"/><path class="cls-1" d="M661.03,49.71c0,.34-.02,.63-.02,.63h-7.37c.18,1.97,1.16,2.79,2.54,2.79,1.12,0,1.75-.52,2.05-1.32h2.58c-.45,1.93-2.07,3.42-4.65,3.42-3.25,0-5.12-2.31-5.12-5.61s2.07-5.75,5.04-5.75c3.19,0,5,2.35,4.94,5.84Zm-2.66-1.18c-.08-1.64-.93-2.56-2.27-2.56-1.24,0-2.17,.84-2.42,2.56h4.69Z"/><path class="cls-1" d="M668.44,44.11v2.44c-.16-.02-.33-.04-.59-.04-1.6,0-2.46,.99-2.46,2.71v5.77h-2.6v-10.85h2.34v1.87c.49-1.3,1.5-1.97,2.7-1.97,.22,0,.39,.02,.61,.08Z"/><path class="cls-1" d="M669.72,40.94c0-.9,.63-1.64,1.58-1.64s1.54,.74,1.54,1.64-.63,1.64-1.54,1.64-1.58-.76-1.58-1.64Zm.26,3.19h2.6v10.85h-2.6v-10.85Z"/><path class="cls-1" d="M684.19,48.14v6.84h-2.6v-6.21c0-1.78-.79-2.58-1.99-2.58s-2.11,.88-2.11,2.58v6.21h-2.6v-10.85h2.34v1.53c.67-1.2,1.75-1.78,3.21-1.78,2.13,0,3.74,1.34,3.74,4.26Z"/><path class="cls-1" d="M696.11,44.13v10.31c0,2.6-1.44,4.75-5.04,4.75s-4.85-1.66-5.06-3.84h2.74c.1,1.11,.71,1.83,2.32,1.83s2.46-.9,2.46-2.62v-1.72c-.71,1.16-1.75,1.66-3.13,1.66-2.5,0-4.55-2.04-4.55-5.31s2.03-5.29,4.55-5.29c1.46,0,2.62,.65,3.33,1.85v-1.6h2.38Zm-2.58,5.04c0-1.87-1.1-3.09-2.54-3.09s-2.52,1.22-2.52,3.09,1.1,3.11,2.52,3.11,2.54-1.28,2.54-3.11Z"/><path class="cls-1" d="M701.45,53.45c0,.99-.75,1.78-1.67,1.78s-1.67-.8-1.67-1.78,.75-1.76,1.67-1.76,1.67,.8,1.67,1.76Z"/><path class="cls-1" d="M710.89,54.99h-2.7v-14.26h2.7v14.26Z"/><path class="cls-1" d="M716.85,46.42v4.83c0,1.03,.47,1.53,1.34,1.53,.35,0,.59-.02,.83-.08v2.25c-.51,.15-.81,.17-1.44,.17-2.3,0-3.33-1.39-3.33-3.74v-4.96h-1.6v-2.29h1.6v-3.07h2.6v3.07h2.17v2.29h-2.17Z"/><path class="cls-1" d="M724.64,49.55c0-3.53,2.15-5.67,5.08-5.67s4.43,1.7,4.77,4.07h-2.64c-.24-1.22-.93-1.83-2.15-1.83-1.48,0-2.42,1.26-2.42,3.4s.91,3.46,2.44,3.46c1.24,0,1.87-.63,2.13-1.83h2.62c-.33,2.41-1.97,4.07-4.75,4.07-2.94,0-5.08-2.14-5.08-5.69Z"/><path class="cls-1" d="M735.73,49.57c0-3.49,2.25-5.69,5.18-5.69s5.16,2.2,5.16,5.69-2.25,5.67-5.16,5.67-5.18-2.18-5.18-5.67Zm7.68,0c0-2.12-.95-3.44-2.52-3.44s-2.52,1.34-2.52,3.44,.95,3.42,2.52,3.42,2.52-1.32,2.52-3.42Z"/><path class="cls-1" d="M757.1,48.14v6.84h-2.6v-6.21c0-1.78-.79-2.58-1.99-2.58s-2.11,.88-2.11,2.58v6.21h-2.6v-10.85h2.34v1.53c.67-1.2,1.75-1.78,3.21-1.78,2.13,0,3.74,1.34,3.74,4.26Z"/><path class="cls-1" d="M762.67,46.42v4.83c0,1.03,.47,1.53,1.34,1.53,.35,0,.59-.02,.83-.08v2.25c-.51,.15-.81,.17-1.44,.17-2.3,0-3.33-1.39-3.33-3.74v-4.96h-1.6v-2.29h1.6v-3.07h2.6v3.07h2.17v2.29h-2.17Z"/><path class="cls-1" d="M775.97,49.71c0,.34-.02,.63-.02,.63h-7.37c.18,1.97,1.16,2.79,2.54,2.79,1.12,0,1.75-.52,2.05-1.32h2.58c-.45,1.93-2.07,3.42-4.65,3.42-3.25,0-5.12-2.31-5.12-5.61s2.07-5.75,5.04-5.75c3.19,0,5,2.35,4.94,5.84Zm-2.66-1.18c-.08-1.64-.93-2.56-2.27-2.56-1.24,0-2.17,.84-2.42,2.56h4.69Z"/><path class="cls-1" d="M793.31,48.18v6.8h-2.6v-6.24c0-1.7-.79-2.48-1.89-2.48s-2.01,.8-2.01,2.35v6.36h-2.6v-6.24c0-1.7-.79-2.48-1.89-2.48s-1.99,.78-1.99,2.35v6.36h-2.6v-10.85h2.34v1.51c.65-1.18,1.75-1.76,3.11-1.76,1.46,0,2.58,.71,3.17,1.99,.69-1.32,1.85-1.99,3.29-1.99,2.23,0,3.66,1.6,3.66,4.3Z"/><path class="cls-1" d="M805.78,49.57c0,3.59-2.19,5.67-4.61,5.67-1.34,0-2.36-.57-3.07-1.58v5.27h-2.6v-14.8h2.34v1.76c.69-1.28,1.83-2.02,3.45-2.02,2.42,0,4.49,2.04,4.49,5.69Zm-2.64,0c0-2.08-1-3.46-2.54-3.46-1.46,0-2.5,1.41-2.5,3.46s1.04,3.44,2.5,3.44,2.54-1.34,2.54-3.44Z"/><path class="cls-1" d="M810.13,54.99h-2.6v-15.12h2.6v15.12Z"/><path class="cls-1" d="M821.2,47.87v7.12h-2.34v-1.39c-.79,1.11-1.87,1.64-3.25,1.64-2.17,0-3.66-1.36-3.66-3.25s1.06-3.09,3.6-3.36l3.07-.34v-.59c0-1.22-.71-1.8-1.83-1.8-1.18,0-1.83,.5-2.03,1.57h-2.6c.28-2.35,1.91-3.59,4.59-3.59s4.45,1.24,4.45,3.99Zm-2.6,2.88v-.8l-2.44,.34c-1.08,.15-1.58,.76-1.58,1.58s.63,1.51,1.71,1.51c1.5,0,2.31-1.07,2.31-2.62Z"/><path class="cls-1" d="M826.77,46.42v4.83c0,1.03,.47,1.53,1.34,1.53,.35,0,.59-.02,.83-.08v2.25c-.51,.15-.81,.17-1.44,.17-2.3,0-3.33-1.39-3.33-3.74v-4.96h-1.6v-2.29h1.6v-3.07h2.6v3.07h2.17v2.29h-2.17Z"/><path class="cls-1" d="M840.07,49.71c0,.34-.02,.63-.02,.63h-7.37c.18,1.97,1.16,2.79,2.54,2.79,1.12,0,1.75-.52,2.05-1.32h2.58c-.45,1.93-2.07,3.42-4.65,3.42-3.25,0-5.12-2.31-5.12-5.61s2.07-5.75,5.04-5.75c3.19,0,5,2.35,4.94,5.84Zm-2.66-1.18c-.08-1.64-.93-2.56-2.27-2.56-1.24,0-2.17,.84-2.42,2.56h4.69Z"/><path class="cls-1" d="M841.23,51.81h2.54c.22,.97,.93,1.47,2.17,1.47s1.89-.5,1.89-1.24c0-.63-.35-1.07-1.28-1.24l-2.19-.44c-2.07-.42-2.94-1.45-2.94-3.11,0-1.81,1.46-3.38,4.24-3.38s4.25,1.41,4.59,3.59h-2.56c-.16-1.09-.87-1.64-2.05-1.64s-1.77,.57-1.77,1.26c0,.59,.3,.99,1.36,1.18l2.15,.4c2.23,.4,3.03,1.51,3.03,3.19,0,1.8-1.34,3.38-4.45,3.38s-4.35-1.39-4.73-3.42Z"/><path class="cls-1" d="M866.37,39.87v15.12h-2.34v-1.83c-.65,1.37-1.79,2.08-3.35,2.08-2.42,0-4.59-2.08-4.59-5.67s2.07-5.69,4.49-5.69c1.42,0,2.5,.57,3.19,1.62v-5.63h2.6Zm-2.6,9.7c0-2.08-1.06-3.46-2.52-3.46-1.54,0-2.54,1.37-2.54,3.46s1.06,3.44,2.54,3.44,2.52-1.32,2.52-3.44Z"/><path class="cls-1" d="M868.4,40.94c0-.9,.63-1.64,1.58-1.64s1.54,.74,1.54,1.64-.63,1.64-1.54,1.64-1.58-.76-1.58-1.64Zm.26,3.19h2.6v10.85h-2.6v-10.85Z"/><path class="cls-1" d="M874.39,46.42h-1.6v-2.29h1.6v-.63c0-2.52,1.46-3.84,3.6-3.84,.59,0,1.1,.08,1.52,.23v2.12c-.3-.08-.57-.13-.89-.13-1.04,0-1.64,.48-1.64,1.6v.65h3.45v-.63c0-2.52,1.46-3.84,3.6-3.84,.59,0,1.1,.08,1.52,.23v2.12c-.3-.08-.57-.13-.89-.13-1.04,0-1.63,.48-1.63,1.6v.65h2.42v2.29h-2.42v8.57h-2.6v-8.57h-3.45v8.57h-2.6v-8.57Z"/><path class="cls-1" d="M896.27,49.71c0,.34-.02,.63-.02,.63h-7.37c.18,1.97,1.16,2.79,2.54,2.79,1.12,0,1.75-.52,2.05-1.32h2.58c-.45,1.93-2.07,3.42-4.65,3.42-3.25,0-5.12-2.31-5.12-5.61s2.07-5.75,5.04-5.75c3.19,0,5,2.35,4.94,5.84Zm-2.66-1.18c-.08-1.64-.93-2.56-2.27-2.56-1.24,0-2.17,.84-2.42,2.56h4.69Z"/><path class="cls-1" d="M903.68,44.11v2.44c-.16-.02-.33-.04-.59-.04-1.6,0-2.46,.99-2.46,2.71v5.77h-2.6v-10.85h2.34v1.87c.49-1.3,1.5-1.97,2.7-1.97,.22,0,.39,.02,.61,.08Z"/><path class="cls-1" d="M914.63,49.71c0,.34-.02,.63-.02,.63h-7.37c.18,1.97,1.16,2.79,2.54,2.79,1.12,0,1.75-.52,2.05-1.32h2.58c-.45,1.93-2.07,3.42-4.65,3.42-3.25,0-5.12-2.31-5.12-5.61s2.07-5.75,5.04-5.75c3.19,0,5,2.35,4.94,5.84Zm-2.66-1.18c-.08-1.64-.93-2.56-2.27-2.56-1.24,0-2.17,.84-2.42,2.56h4.69Z"/><path class="cls-1" d="M925.68,48.14v6.84h-2.6v-6.21c0-1.78-.79-2.58-1.99-2.58s-2.11,.88-2.11,2.58v6.21h-2.6v-10.85h2.34v1.53c.67-1.2,1.75-1.78,3.21-1.78,2.13,0,3.74,1.34,3.74,4.26Z"/><path class="cls-1" d="M931.26,46.42v4.83c0,1.03,.47,1.53,1.34,1.53,.35,0,.59-.02,.83-.08v2.25c-.51,.15-.81,.17-1.44,.17-2.3,0-3.33-1.39-3.33-3.74v-4.96h-1.6v-2.29h1.6v-3.07h2.6v3.07h2.17v2.29h-2.17Z"/><path class="cls-1" d="M955.41,44.13l-3.13,10.85h-3.09l-2.15-7.6-2.07,7.6h-3.09l-3.11-10.85h2.7l2.07,8.1,2.15-8.1h2.9l2.17,8.1,2.01-8.1h2.66Z"/><path class="cls-1" d="M956.63,40.94c0-.9,.63-1.64,1.58-1.64s1.54,.74,1.54,1.64-.63,1.64-1.54,1.64-1.58-.76-1.58-1.64Zm.26,3.19h2.6v10.85h-2.6v-10.85Z"/><path class="cls-1" d="M971.56,39.87v15.12h-2.34v-1.83c-.65,1.37-1.79,2.08-3.35,2.08-2.42,0-4.59-2.08-4.59-5.67s2.07-5.69,4.49-5.69c1.42,0,2.5,.57,3.19,1.62v-5.63h2.6Zm-2.6,9.7c0-2.08-1.06-3.46-2.52-3.46-1.54,0-2.54,1.37-2.54,3.46s1.06,3.44,2.54,3.44,2.52-1.32,2.52-3.44Z"/><path class="cls-1" d="M977.21,46.42v4.83c0,1.03,.47,1.53,1.34,1.53,.35,0,.59-.02,.83-.08v2.25c-.51,.15-.81,.17-1.44,.17-2.3,0-3.33-1.39-3.33-3.74v-4.96h-1.6v-2.29h1.6v-3.07h2.6v3.07h2.17v2.29h-2.17Z"/><path class="cls-1" d="M990.37,48.16v6.82h-2.6v-6.28c0-1.68-.87-2.5-2.01-2.5s-2.09,.88-2.09,2.54v6.24h-2.6v-15.12h2.6v5.71c.59-1.09,1.58-1.7,2.9-1.7,2.17,0,3.8,1.47,3.8,4.28Z"/><path class="cls-1" d="M991.97,51.81h2.54c.22,.97,.93,1.47,2.17,1.47s1.89-.5,1.89-1.24c0-.63-.35-1.07-1.28-1.24l-2.19-.44c-2.07-.42-2.94-1.45-2.94-3.11,0-1.81,1.46-3.38,4.24-3.38s4.25,1.41,4.59,3.59h-2.56c-.16-1.09-.87-1.64-2.05-1.64s-1.77,.57-1.77,1.26c0,.59,.3,.99,1.36,1.18l2.15,.4c2.23,.4,3.03,1.51,3.03,3.19,0,1.8-1.34,3.38-4.45,3.38s-4.35-1.39-4.73-3.42Z"/><path class="cls-1" d="M1016.12,47.87v7.12h-2.34v-1.39c-.79,1.11-1.87,1.64-3.25,1.64-2.17,0-3.66-1.36-3.66-3.25s1.06-3.09,3.6-3.36l3.07-.34v-.59c0-1.22-.71-1.8-1.83-1.8-1.18,0-1.83,.5-2.03,1.57h-2.6c.28-2.35,1.91-3.59,4.59-3.59s4.45,1.24,4.45,3.99Zm-2.6,2.88v-.8l-2.44,.34c-1.08,.15-1.58,.76-1.58,1.58s.63,1.51,1.71,1.51c1.5,0,2.31-1.07,2.31-2.62Z"/><path class="cls-1" d="M1027.6,48.14v6.84h-2.6v-6.21c0-1.78-.79-2.58-1.99-2.58s-2.11,.88-2.11,2.58v6.21h-2.6v-10.85h2.34v1.53c.67-1.2,1.75-1.78,3.21-1.78,2.13,0,3.74,1.34,3.74,4.26Z"/><path class="cls-1" d="M1039.54,39.87v15.12h-2.34v-1.83c-.65,1.37-1.79,2.08-3.35,2.08-2.42,0-4.59-2.08-4.59-5.67s2.07-5.69,4.49-5.69c1.42,0,2.5,.57,3.19,1.62v-5.63h2.6Zm-2.6,9.7c0-2.08-1.06-3.46-2.52-3.46-1.54,0-2.54,1.37-2.54,3.46s1.06,3.44,2.54,3.44,2.52-1.32,2.52-3.44Z"/><path class="cls-1" d="M1062.1,44.13l-3.13,10.85h-3.09l-2.15-7.6-2.07,7.6h-3.09l-3.11-10.85h2.7l2.07,8.1,2.15-8.1h2.9l2.17,8.1,2.01-8.1h2.66Z"/><path class="cls-1" d="M1072.99,49.71c0,.34-.02,.63-.02,.63h-7.37c.18,1.97,1.16,2.79,2.54,2.79,1.12,0,1.75-.52,2.05-1.32h2.58c-.45,1.93-2.07,3.42-4.65,3.42-3.25,0-5.12-2.31-5.12-5.61s2.07-5.75,5.04-5.75c3.19,0,5,2.35,4.94,5.84Zm-2.66-1.18c-.08-1.64-.93-2.56-2.27-2.56-1.24,0-2.17,.84-2.42,2.56h4.69Z"/><path class="cls-1" d="M1074.51,40.94c0-.9,.63-1.64,1.58-1.64s1.54,.74,1.54,1.64-.63,1.64-1.54,1.64-1.58-.76-1.58-1.64Zm.26,3.19h2.6v10.85h-2.6v-10.85Z"/><path class="cls-1" d="M1089.42,44.13v10.31c0,2.6-1.44,4.75-5.04,4.75s-4.85-1.66-5.06-3.84h2.74c.1,1.11,.71,1.83,2.32,1.83s2.46-.9,2.46-2.62v-1.72c-.71,1.16-1.75,1.66-3.13,1.66-2.5,0-4.55-2.04-4.55-5.31s2.03-5.29,4.55-5.29c1.46,0,2.62,.65,3.33,1.85v-1.6h2.38Zm-2.58,5.04c0-1.87-1.1-3.09-2.54-3.09s-2.52,1.22-2.52,3.09,1.1,3.11,2.52,3.11,2.54-1.28,2.54-3.11Z"/><path class="cls-1" d="M1101,48.16v6.82h-2.6v-6.28c0-1.68-.87-2.5-2.01-2.5s-2.09,.88-2.09,2.54v6.24h-2.6v-15.12h2.6v5.71c.59-1.09,1.58-1.7,2.9-1.7,2.17,0,3.8,1.47,3.8,4.28Z"/><path class="cls-1" d="M1106.58,46.42v4.83c0,1.03,.47,1.53,1.34,1.53,.35,0,.59-.02,.83-.08v2.25c-.51,.15-.81,.17-1.44,.17-2.3,0-3.33-1.39-3.33-3.74v-4.96h-1.6v-2.29h1.6v-3.07h2.6v3.07h2.17v2.29h-2.17Z"/><path class="cls-1" d="M1109.85,51.81h2.54c.22,.97,.93,1.47,2.17,1.47s1.89-.5,1.89-1.24c0-.63-.35-1.07-1.28-1.24l-2.19-.44c-2.07-.42-2.94-1.45-2.94-3.11,0-1.81,1.46-3.38,4.24-3.38s4.25,1.41,4.59,3.59h-2.56c-.16-1.09-.87-1.64-2.05-1.64s-1.77,.57-1.77,1.26c0,.59,.3,.99,1.36,1.18l2.15,.4c2.23,.4,3.03,1.51,3.03,3.19,0,1.8-1.34,3.38-4.45,3.38s-4.35-1.39-4.73-3.42Z"/><path class="cls-1" d="M1128.64,43.48v.65h2.42v2.29h-2.42v8.57h-2.6v-8.57h-1.6v-2.29h1.6v-.63c0-2.52,1.46-3.84,3.6-3.84,.59,0,1.1,.08,1.52,.23v2.12c-.3-.08-.61-.13-.93-.13-1.04,0-1.6,.52-1.6,1.6Z"/><path class="cls-1" d="M1138.1,44.11v2.44c-.16-.02-.33-.04-.59-.04-1.6,0-2.46,.99-2.46,2.71v5.77h-2.6v-10.85h2.34v1.87c.49-1.3,1.5-1.97,2.7-1.97,.22,0,.39,.02,.61,.08Z"/><path class="cls-1" d="M1139.06,49.57c0-3.49,2.25-5.69,5.18-5.69s5.16,2.2,5.16,5.69-2.25,5.67-5.16,5.67-5.18-2.18-5.18-5.67Zm7.68,0c0-2.12-.95-3.44-2.52-3.44s-2.52,1.34-2.52,3.44,.95,3.42,2.52,3.42,2.52-1.32,2.52-3.42Z"/><path class="cls-1" d="M1166.72,48.18v6.8h-2.6v-6.24c0-1.7-.79-2.48-1.89-2.48s-2.01,.8-2.01,2.35v6.36h-2.6v-6.24c0-1.7-.79-2.48-1.89-2.48s-1.99,.78-1.99,2.35v6.36h-2.6v-10.85h2.34v1.51c.65-1.18,1.75-1.76,3.11-1.76,1.46,0,2.58,.71,3.17,1.99,.69-1.32,1.85-1.99,3.29-1.99,2.23,0,3.66,1.6,3.66,4.3Z"/><path class="cls-1" d="M1172.82,49.55c0-3.53,2.15-5.67,5.08-5.67s4.43,1.7,4.77,4.07h-2.64c-.24-1.22-.93-1.83-2.15-1.83-1.48,0-2.42,1.26-2.42,3.4s.91,3.46,2.44,3.46c1.24,0,1.87-.63,2.13-1.83h2.62c-.33,2.41-1.97,4.07-4.75,4.07-2.94,0-5.08-2.14-5.08-5.69Z"/><path class="cls-1" d="M1183.91,49.57c0-3.49,2.25-5.69,5.18-5.69s5.16,2.2,5.16,5.69-2.25,5.67-5.16,5.67-5.18-2.18-5.18-5.67Zm7.68,0c0-2.12-.95-3.44-2.52-3.44s-2.52,1.34-2.52,3.44,.95,3.42,2.52,3.42,2.52-1.32,2.52-3.42Z"/><path class="cls-1" d="M1205.29,48.14v6.84h-2.6v-6.21c0-1.78-.79-2.58-1.99-2.58s-2.11,.88-2.11,2.58v6.21h-2.6v-10.85h2.34v1.53c.67-1.2,1.75-1.78,3.21-1.78,2.13,0,3.74,1.34,3.74,4.26Z"/><path class="cls-1" d="M1217.23,39.87v15.12h-2.34v-1.83c-.65,1.37-1.79,2.08-3.35,2.08-2.42,0-4.59-2.08-4.59-5.67s2.07-5.69,4.49-5.69c1.42,0,2.5,.57,3.19,1.62v-5.63h2.6Zm-2.6,9.7c0-2.08-1.06-3.46-2.52-3.46-1.54,0-2.54,1.37-2.54,3.46s1.06,3.44,2.54,3.44,2.52-1.32,2.52-3.44Z"/><path class="cls-1" d="M1228.93,49.71c0,.34-.02,.63-.02,.63h-7.37c.18,1.97,1.16,2.79,2.54,2.79,1.12,0,1.75-.52,2.05-1.32h2.58c-.45,1.93-2.07,3.42-4.65,3.42-3.25,0-5.12-2.31-5.12-5.61s2.07-5.75,5.04-5.75c3.19,0,5,2.35,4.94,5.84Zm-2.66-1.18c-.08-1.64-.93-2.56-2.27-2.56-1.24,0-2.17,.84-2.42,2.56h4.69Z"/><path class="cls-1" d="M1239.98,48.14v6.84h-2.6v-6.21c0-1.78-.79-2.58-1.99-2.58s-2.11,.88-2.11,2.58v6.21h-2.6v-10.85h2.34v1.53c.67-1.2,1.75-1.78,3.21-1.78,2.13,0,3.74,1.34,3.74,4.26Z"/><path class="cls-1" d="M1241.57,51.81h2.54c.22,.97,.93,1.47,2.17,1.47s1.89-.5,1.89-1.24c0-.63-.35-1.07-1.28-1.24l-2.19-.44c-2.07-.42-2.94-1.45-2.94-3.11,0-1.81,1.46-3.38,4.24-3.38s4.25,1.41,4.59,3.59h-2.56c-.16-1.09-.87-1.64-2.05-1.64s-1.77,.57-1.77,1.26c0,.59,.3,.99,1.36,1.18l2.15,.4c2.23,.4,3.03,1.51,3.03,3.19,0,1.8-1.34,3.38-4.45,3.38s-4.35-1.39-4.73-3.42Z"/><path class="cls-1" d="M1261.92,49.71c0,.34-.02,.63-.02,.63h-7.37c.18,1.97,1.16,2.79,2.54,2.79,1.12,0,1.75-.52,2.05-1.32h2.58c-.45,1.93-2.07,3.42-4.65,3.42-3.25,0-5.12-2.31-5.12-5.61s2.07-5.75,5.04-5.75c3.19,0,5,2.35,4.94,5.84Zm-2.66-1.18c-.08-1.64-.93-2.56-2.27-2.56-1.24,0-2.17,.84-2.42,2.56h4.69Z"/><path class="cls-1" d="M1273.43,39.87v15.12h-2.34v-1.83c-.65,1.37-1.79,2.08-3.35,2.08-2.42,0-4.59-2.08-4.59-5.67s2.07-5.69,4.49-5.69c1.42,0,2.5,.57,3.19,1.62v-5.63h2.6Zm-2.6,9.7c0-2.08-1.06-3.46-2.52-3.46-1.54,0-2.54,1.37-2.54,3.46s1.06,3.44,2.54,3.44,2.52-1.32,2.52-3.44Z"/><path class="cls-1" d="M82.53,72.42v4.83c0,1.03,.47,1.53,1.34,1.53,.35,0,.59-.02,.83-.08v2.25c-.51,.15-.81,.17-1.44,.17-2.3,0-3.33-1.39-3.33-3.74v-4.96h-1.6v-2.29h1.6v-3.07h2.6v3.07h2.17v2.29h-2.17Z"/><path class="cls-1" d="M85.84,75.57c0-3.49,2.25-5.69,5.18-5.69s5.16,2.2,5.16,5.69-2.25,5.67-5.16,5.67-5.18-2.18-5.18-5.67Zm7.68,0c0-2.12-.95-3.44-2.52-3.44s-2.52,1.34-2.52,3.44,.95,3.42,2.52,3.42,2.52-1.32,2.52-3.42Z"/><path class="cls-1" d="M118.21,70.13l-3.13,10.85h-3.09l-2.15-7.6-2.07,7.6h-3.09l-3.11-10.85h2.7l2.07,8.1,2.15-8.1h2.9l2.17,8.1,2.01-8.1h2.66Z"/><path class="cls-1" d="M119.43,66.94c0-.9,.63-1.64,1.58-1.64s1.54,.74,1.54,1.64-.63,1.64-1.54,1.64-1.58-.76-1.58-1.64Zm.26,3.19h2.6v10.85h-2.6v-10.85Z"/><path class="cls-1" d="M134.36,65.87v15.12h-2.34v-1.83c-.65,1.37-1.79,2.08-3.35,2.08-2.42,0-4.59-2.08-4.59-5.67s2.07-5.69,4.49-5.69c1.42,0,2.5,.57,3.19,1.62v-5.63h2.6Zm-2.6,9.7c0-2.08-1.06-3.46-2.52-3.46-1.54,0-2.54,1.37-2.54,3.46s1.06,3.44,2.54,3.44,2.52-1.32,2.52-3.44Z"/><path class="cls-1" d="M146.06,75.71c0,.34-.02,.63-.02,.63h-7.37c.18,1.97,1.16,2.79,2.54,2.79,1.12,0,1.75-.52,2.05-1.32h2.58c-.45,1.93-2.07,3.42-4.65,3.42-3.25,0-5.12-2.31-5.12-5.61s2.07-5.75,5.04-5.75c3.19,0,5,2.35,4.94,5.84Zm-2.66-1.18c-.08-1.64-.93-2.56-2.27-2.56-1.24,0-2.17,.84-2.42,2.56h4.69Z"/><path class="cls-1" d="M149.27,83.78h-1.75c.55-1.11,.85-1.85,1.08-2.67l-.18-.11c-.61-.29-.93-.82-.93-1.55,0-.97,.73-1.76,1.67-1.76s1.67,.76,1.67,1.8-.3,2.08-1.58,4.28Z"/><path class="cls-1" d="M157.05,66.94c0-.9,.63-1.64,1.58-1.64s1.54,.74,1.54,1.64-.63,1.64-1.54,1.64-1.58-.76-1.58-1.64Zm.26,3.19h2.6v10.85h-2.6v-10.85Z"/><path class="cls-1" d="M165.62,72.42v4.83c0,1.03,.47,1.53,1.34,1.53,.35,0,.59-.02,.83-.08v2.25c-.51,.15-.81,.17-1.44,.17-2.3,0-3.33-1.39-3.33-3.74v-4.96h-1.6v-2.29h1.6v-3.07h2.6v3.07h2.17v2.29h-2.17Z"/><path class="cls-1" d="M182.72,73.87v7.12h-2.34v-1.39c-.79,1.11-1.87,1.64-3.25,1.64-2.17,0-3.66-1.36-3.66-3.25s1.06-3.09,3.6-3.36l3.07-.34v-.59c0-1.22-.71-1.8-1.83-1.8-1.18,0-1.83,.5-2.03,1.57h-2.6c.28-2.35,1.91-3.59,4.59-3.59s4.45,1.24,4.45,3.99Zm-2.6,2.88v-.8l-2.44,.34c-1.08,.15-1.58,.76-1.58,1.58s.63,1.51,1.71,1.51c1.5,0,2.31-1.07,2.31-2.62Z"/><path class="cls-1" d="M187.53,80.99h-2.6v-15.12h2.6v15.12Z"/><path class="cls-1" d="M189.24,77.81h2.54c.22,.97,.93,1.47,2.17,1.47s1.89-.5,1.89-1.24c0-.63-.35-1.07-1.28-1.24l-2.19-.44c-2.07-.42-2.94-1.45-2.94-3.11,0-1.81,1.46-3.38,4.24-3.38s4.25,1.41,4.59,3.59h-2.56c-.16-1.09-.87-1.64-2.05-1.64s-1.77,.57-1.77,1.26c0,.59,.3,.99,1.36,1.18l2.15,.4c2.23,.4,3.03,1.51,3.03,3.19,0,1.8-1.34,3.38-4.45,3.38s-4.35-1.39-4.73-3.42Z"/><path class="cls-1" d="M199.6,75.57c0-3.49,2.25-5.69,5.18-5.69s5.16,2.2,5.16,5.69-2.25,5.67-5.16,5.67-5.18-2.18-5.18-5.67Zm7.68,0c0-2.12-.95-3.44-2.52-3.44s-2.52,1.34-2.52,3.44,.95,3.42,2.52,3.42,2.52-1.32,2.52-3.42Z"/><path class="cls-1" d="M225.45,74.16v6.82h-2.6v-6.28c0-1.68-.87-2.5-2.01-2.5s-2.09,.88-2.09,2.54v6.24h-2.6v-15.12h2.6v5.71c.59-1.09,1.58-1.7,2.9-1.7,2.17,0,3.8,1.47,3.8,4.28Z"/><path class="cls-1" d="M236.4,73.87v7.12h-2.34v-1.39c-.79,1.11-1.87,1.64-3.25,1.64-2.17,0-3.66-1.36-3.66-3.25s1.06-3.09,3.6-3.36l3.07-.34v-.59c0-1.22-.71-1.8-1.83-1.8-1.18,0-1.83,.5-2.03,1.57h-2.6c.28-2.35,1.91-3.59,4.59-3.59s4.45,1.24,4.45,3.99Zm-2.6,2.88v-.8l-2.44,.34c-1.08,.15-1.58,.76-1.58,1.58s.63,1.51,1.71,1.51c1.5,0,2.31-1.07,2.31-2.62Z"/><path class="cls-1" d="M237.99,77.81h2.54c.22,.97,.93,1.47,2.17,1.47s1.89-.5,1.89-1.24c0-.63-.35-1.07-1.28-1.24l-2.19-.44c-2.07-.42-2.94-1.45-2.94-3.11,0-1.81,1.46-3.38,4.24-3.38s4.25,1.41,4.59,3.59h-2.56c-.16-1.09-.87-1.64-2.05-1.64s-1.77,.57-1.77,1.26c0,.59,.3,.99,1.36,1.18l2.15,.4c2.23,.4,3.03,1.51,3.03,3.19,0,1.8-1.34,3.38-4.45,3.38s-4.35-1.39-4.73-3.42Z"/><path class="cls-1" d="M252.83,75.57c0-3.49,2.25-5.69,5.18-5.69s5.16,2.2,5.16,5.69-2.25,5.67-5.16,5.67-5.18-2.18-5.18-5.67Zm7.68,0c0-2.12-.95-3.44-2.52-3.44s-2.52,1.34-2.52,3.44,.95,3.42,2.52,3.42,2.52-1.32,2.52-3.42Z"/><path class="cls-1" d="M275.17,75.57c0,3.59-2.17,5.67-4.59,5.67-1.46,0-2.58-.69-3.29-1.89v1.64h-2.38v-15.12h2.58v5.63c.69-1.05,1.77-1.62,3.19-1.62,2.42,0,4.49,2.04,4.49,5.69Zm-2.62,0c0-2.1-1-3.46-2.54-3.46-1.46,0-2.52,1.39-2.52,3.46s1.04,3.44,2.52,3.44,2.54-1.34,2.54-3.44Z"/><path class="cls-1" d="M279.54,80.99h-2.6v-15.12h2.6v15.12Z"/><path class="cls-1" d="M281.61,66.94c0-.9,.63-1.64,1.58-1.64s1.54,.74,1.54,1.64-.63,1.64-1.54,1.64-1.58-.76-1.58-1.64Zm.26,3.19h2.6v10.85h-2.6v-10.85Z"/><path class="cls-1" d="M296.52,70.13v14.87h-2.58v-5.56c-.63,1.18-1.65,1.81-3.09,1.81-2.42,0-4.59-2.08-4.59-5.67s2.07-5.69,4.49-5.69c1.58,0,2.7,.69,3.39,1.95v-1.7h2.38Zm-2.58,5.44c0-2.06-1.06-3.46-2.52-3.46-1.54,0-2.54,1.37-2.54,3.46s1.06,3.44,2.54,3.44,2.52-1.32,2.52-3.44Z"/><path class="cls-1" d="M307.81,70.13v10.85h-2.32v-1.64c-.69,1.24-1.79,1.89-3.17,1.89-2.29,0-3.6-1.41-3.6-3.99v-7.12h2.6v6.74c0,1.3,.63,2.06,1.77,2.06,1.28,0,2.13-.97,2.13-2.46v-6.34h2.6Z"/><path class="cls-1" d="M319.53,75.71c0,.34-.02,.63-.02,.63h-7.37c.18,1.97,1.16,2.79,2.54,2.79,1.12,0,1.75-.52,2.05-1.32h2.58c-.45,1.93-2.07,3.42-4.65,3.42-3.25,0-5.12-2.31-5.12-5.61s2.07-5.75,5.04-5.75c3.19,0,5,2.35,4.94,5.84Zm-2.66-1.18c-.08-1.64-.93-2.56-2.27-2.56-1.24,0-2.17,.84-2.42,2.56h4.69Z"/><path class="cls-1" d="M320.69,77.81h2.54c.22,.97,.93,1.47,2.17,1.47s1.89-.5,1.89-1.24c0-.63-.35-1.07-1.28-1.24l-2.19-.44c-2.07-.42-2.94-1.45-2.94-3.11,0-1.81,1.46-3.38,4.24-3.38s4.25,1.41,4.59,3.59h-2.56c-.16-1.09-.87-1.64-2.05-1.64s-1.77,.57-1.77,1.26c0,.59,.3,.99,1.36,1.18l2.15,.4c2.23,.4,3.03,1.51,3.03,3.19,0,1.8-1.34,3.38-4.45,3.38s-4.35-1.39-4.73-3.42Z"/><path class="cls-1" d="M344.84,73.87v7.12h-2.34v-1.39c-.79,1.11-1.87,1.64-3.25,1.64-2.17,0-3.66-1.36-3.66-3.25s1.06-3.09,3.6-3.36l3.07-.34v-.59c0-1.22-.71-1.8-1.83-1.8-1.18,0-1.83,.5-2.03,1.57h-2.6c.28-2.35,1.91-3.59,4.59-3.59s4.45,1.24,4.45,3.99Zm-2.6,2.88v-.8l-2.44,.34c-1.08,.15-1.58,.76-1.58,1.58s.63,1.51,1.71,1.51c1.5,0,2.31-1.07,2.31-2.62Z"/><path class="cls-1" d="M356.33,74.14v6.84h-2.6v-6.21c0-1.78-.79-2.58-1.99-2.58s-2.11,.88-2.11,2.58v6.21h-2.6v-10.85h2.34v1.53c.67-1.2,1.75-1.78,3.21-1.78,2.13,0,3.74,1.34,3.74,4.26Z"/><path class="cls-1" d="M368.26,65.87v15.12h-2.34v-1.83c-.65,1.37-1.79,2.08-3.35,2.08-2.42,0-4.59-2.08-4.59-5.67s2.07-5.69,4.49-5.69c1.42,0,2.5,.57,3.19,1.62v-5.63h2.6Zm-2.6,9.7c0-2.08-1.06-3.46-2.52-3.46-1.54,0-2.54,1.37-2.54,3.46s1.06,3.44,2.54,3.44,2.52-1.32,2.52-3.44Z"/><path class="cls-1" d="M374.45,75.57c0-3.49,2.25-5.69,5.18-5.69s5.16,2.2,5.16,5.69-2.25,5.67-5.16,5.67-5.18-2.18-5.18-5.67Zm7.68,0c0-2.12-.95-3.44-2.52-3.44s-2.52,1.34-2.52,3.44,.95,3.42,2.52,3.42,2.52-1.32,2.52-3.42Z"/><path class="cls-1" d="M392.18,70.11v2.44c-.16-.02-.33-.04-.59-.04-1.6,0-2.46,.99-2.46,2.71v5.77h-2.6v-10.85h2.34v1.87c.49-1.3,1.5-1.97,2.7-1.97,.22,0,.39,.02,.61,.08Z"/><path class="cls-1" d="M402.99,74.14v6.84h-2.6v-6.21c0-1.78-.79-2.58-1.99-2.58s-2.11,.88-2.11,2.58v6.21h-2.6v-10.85h2.34v1.53c.67-1.2,1.75-1.78,3.21-1.78,2.13,0,3.74,1.34,3.74,4.26Z"/><path class="cls-1" d="M413.94,73.87v7.12h-2.34v-1.39c-.79,1.11-1.87,1.64-3.25,1.64-2.17,0-3.66-1.36-3.66-3.25s1.06-3.09,3.6-3.36l3.07-.34v-.59c0-1.22-.71-1.8-1.83-1.8-1.18,0-1.83,.5-2.03,1.57h-2.6c.28-2.35,1.91-3.59,4.59-3.59s4.45,1.24,4.45,3.99Zm-2.6,2.88v-.8l-2.44,.34c-1.08,.15-1.58,.76-1.58,1.58s.63,1.51,1.71,1.51c1.5,0,2.31-1.07,2.31-2.62Z"/><path class="cls-1" d="M431.71,74.18v6.8h-2.6v-6.24c0-1.7-.79-2.48-1.89-2.48s-2.01,.8-2.01,2.35v6.36h-2.6v-6.24c0-1.7-.79-2.48-1.89-2.48s-1.99,.78-1.99,2.35v6.36h-2.6v-10.85h2.34v1.51c.65-1.18,1.75-1.76,3.11-1.76,1.46,0,2.58,.71,3.17,1.99,.69-1.32,1.85-1.99,3.29-1.99,2.23,0,3.66,1.6,3.66,4.3Z"/><path class="cls-1" d="M443.34,75.71c0,.34-.02,.63-.02,.63h-7.37c.18,1.97,1.16,2.79,2.54,2.79,1.12,0,1.75-.52,2.05-1.32h2.58c-.45,1.93-2.07,3.42-4.65,3.42-3.25,0-5.12-2.31-5.12-5.61s2.07-5.75,5.04-5.75c3.19,0,5,2.35,4.94,5.84Zm-2.66-1.18c-.08-1.64-.93-2.56-2.27-2.56-1.24,0-2.17,.84-2.42,2.56h4.69Z"/><path class="cls-1" d="M454.39,74.14v6.84h-2.6v-6.21c0-1.78-.79-2.58-1.99-2.58s-2.11,.88-2.11,2.58v6.21h-2.6v-10.85h2.34v1.53c.67-1.2,1.75-1.78,3.21-1.78,2.13,0,3.74,1.34,3.74,4.26Z"/><path class="cls-1" d="M459.96,72.42v4.83c0,1.03,.47,1.53,1.34,1.53,.35,0,.59-.02,.83-.08v2.25c-.51,.15-.81,.17-1.44,.17-2.3,0-3.33-1.39-3.33-3.74v-4.96h-1.6v-2.29h1.6v-3.07h2.6v3.07h2.17v2.29h-2.17Z"/><path class="cls-1" d="M463.23,77.81h2.54c.22,.97,.93,1.47,2.17,1.47s1.89-.5,1.89-1.24c0-.63-.35-1.07-1.28-1.24l-2.19-.44c-2.07-.42-2.94-1.45-2.94-3.11,0-1.81,1.46-3.38,4.24-3.38s4.25,1.41,4.59,3.59h-2.56c-.16-1.09-.87-1.64-2.05-1.64s-1.77,.57-1.77,1.26c0,.59,.3,.99,1.36,1.18l2.15,.4c2.23,.4,3.03,1.51,3.03,3.19,0,1.8-1.34,3.38-4.45,3.38s-4.35-1.39-4.73-3.42Z"/><path class="cls-1" d="M477.2,79.45c0,.99-.75,1.78-1.67,1.78s-1.67-.8-1.67-1.78,.75-1.76,1.67-1.76,1.67,.8,1.67,1.76Z"/><path class="cls-1" d="M495.89,66.73v14.26h-3.88l-5.5-11.3v11.3h-2.58v-14.26h3.72l5.65,11.59v-11.59h2.58Z"/><path class="cls-1" d="M497.9,75.57c0-3.49,2.25-5.69,5.18-5.69s5.16,2.2,5.16,5.69-2.25,5.67-5.16,5.67-5.18-2.18-5.18-5.67Zm7.68,0c0-2.12-.95-3.44-2.52-3.44s-2.52,1.34-2.52,3.44,.95,3.42,2.52,3.42,2.52-1.32,2.52-3.42Z"/><path class="cls-1" d="M513.37,72.42v4.83c0,1.03,.47,1.53,1.34,1.53,.35,0,.59-.02,.83-.08v2.25c-.51,.15-.81,.17-1.44,.17-2.3,0-3.33-1.39-3.33-3.74v-4.96h-1.6v-2.29h1.6v-3.07h2.6v3.07h2.17v2.29h-2.17Z"/><path class="cls-1" d="M525.99,73.87v7.12h-2.34v-1.39c-.79,1.11-1.87,1.64-3.25,1.64-2.17,0-3.66-1.36-3.66-3.25s1.06-3.09,3.6-3.36l3.07-.34v-.59c0-1.22-.71-1.8-1.83-1.8-1.18,0-1.83,.5-2.03,1.57h-2.6c.28-2.35,1.91-3.59,4.59-3.59s4.45,1.24,4.45,3.99Zm-2.6,2.88v-.8l-2.44,.34c-1.08,.15-1.58,.76-1.58,1.58s.63,1.51,1.71,1.51c1.5,0,2.31-1.07,2.31-2.62Z"/><path class="cls-1" d="M538.44,75.57c0,3.59-2.17,5.67-4.59,5.67-1.46,0-2.58-.69-3.29-1.89v1.64h-2.38v-15.12h2.58v5.63c.69-1.05,1.77-1.62,3.19-1.62,2.42,0,4.49,2.04,4.49,5.69Zm-2.62,0c0-2.1-1-3.46-2.54-3.46-1.46,0-2.52,1.39-2.52,3.46s1.04,3.44,2.52,3.44,2.54-1.34,2.54-3.44Z"/><path class="cls-1" d="M542.81,80.99h-2.6v-15.12h2.6v15.12Z"/><path class="cls-1" d="M554.56,75.71c0,.34-.02,.63-.02,.63h-7.37c.18,1.97,1.16,2.79,2.54,2.79,1.12,0,1.75-.52,2.05-1.32h2.58c-.45,1.93-2.07,3.42-4.65,3.42-3.25,0-5.12-2.31-5.12-5.61s2.07-5.75,5.04-5.75c3.19,0,5,2.35,4.94,5.84Zm-2.66-1.18c-.08-1.64-.93-2.56-2.27-2.56-1.24,0-2.17,.84-2.42,2.56h4.69Z"/><path class="cls-1" d="M563.75,69.06v3.49h6.26v2.31h-6.26v6.13h-2.7v-14.26h9.71v2.33h-7.01Z"/><path class="cls-1" d="M572.09,75.57c0-3.49,2.25-5.69,5.18-5.69s5.16,2.2,5.16,5.69-2.25,5.67-5.16,5.67-5.18-2.18-5.18-5.67Zm7.68,0c0-2.12-.95-3.44-2.52-3.44s-2.52,1.34-2.52,3.44,.95,3.42,2.52,3.42,2.52-1.32,2.52-3.42Z"/><path class="cls-1" d="M593.46,74.14v6.84h-2.6v-6.21c0-1.78-.79-2.58-1.99-2.58s-2.11,.88-2.11,2.58v6.21h-2.6v-10.85h2.34v1.53c.67-1.2,1.75-1.78,3.21-1.78,2.13,0,3.74,1.34,3.74,4.26Z"/><path class="cls-1" d="M599.04,72.42v4.83c0,1.03,.47,1.53,1.34,1.53,.35,0,.59-.02,.83-.08v2.25c-.51,.15-.81,.17-1.44,.17-2.3,0-3.33-1.39-3.33-3.74v-4.96h-1.6v-2.29h1.6v-3.07h2.6v3.07h2.17v2.29h-2.17Z"/><path class="cls-1" d="M612.57,75.13h-2.21v5.86h-2.72v-14.26h6.19c3.05,0,4.67,1.72,4.67,4.12,0,1.93-.98,3.44-3.15,3.97l3.76,6.17h-2.97l-3.57-5.86Zm-2.21-2.22h3.05c1.67,0,2.38-.84,2.38-2.04s-.73-1.91-2.42-1.91h-3.01v3.95Z"/><path class="cls-1" d="M629.98,75.71c0,.34-.02,.63-.02,.63h-7.37c.18,1.97,1.16,2.79,2.54,2.79,1.12,0,1.75-.52,2.05-1.32h2.58c-.45,1.93-2.07,3.42-4.65,3.42-3.25,0-5.12-2.31-5.12-5.61s2.07-5.75,5.04-5.75c3.19,0,5,2.35,4.94,5.84Zm-2.66-1.18c-.08-1.64-.93-2.56-2.27-2.56-1.24,0-2.17,.84-2.42,2.56h4.69Z"/><path class="cls-1" d="M634.36,80.99h-2.6v-15.12h2.6v15.12Z"/><path class="cls-1" d="M646.1,75.71c0,.34-.02,.63-.02,.63h-7.37c.18,1.97,1.16,2.79,2.54,2.79,1.12,0,1.75-.52,2.05-1.32h2.58c-.45,1.93-2.07,3.42-4.65,3.42-3.25,0-5.12-2.31-5.12-5.61s2.07-5.75,5.04-5.75c3.19,0,5,2.35,4.94,5.84Zm-2.66-1.18c-.08-1.64-.93-2.56-2.27-2.56-1.24,0-2.17,.84-2.42,2.56h4.69Z"/><path class="cls-1" d="M656.62,73.87v7.12h-2.34v-1.39c-.79,1.11-1.87,1.64-3.25,1.64-2.17,0-3.66-1.36-3.66-3.25s1.06-3.09,3.6-3.36l3.07-.34v-.59c0-1.22-.71-1.8-1.83-1.8-1.18,0-1.83,.5-2.03,1.57h-2.6c.28-2.35,1.91-3.59,4.59-3.59s4.45,1.24,4.45,3.99Zm-2.6,2.88v-.8l-2.44,.34c-1.08,.15-1.58,.76-1.58,1.58s.63,1.51,1.71,1.51c1.5,0,2.31-1.07,2.31-2.62Z"/><path class="cls-1" d="M658.21,77.81h2.54c.22,.97,.93,1.47,2.17,1.47s1.89-.5,1.89-1.24c0-.63-.35-1.07-1.28-1.24l-2.19-.44c-2.07-.42-2.94-1.45-2.94-3.11,0-1.81,1.46-3.38,4.24-3.38s4.25,1.41,4.59,3.59h-2.56c-.16-1.09-.87-1.64-2.05-1.64s-1.77,.57-1.77,1.26c0,.59,.3,.99,1.36,1.18l2.15,.4c2.23,.4,3.03,1.51,3.03,3.19,0,1.8-1.34,3.38-4.45,3.38s-4.35-1.39-4.73-3.42Z"/><path class="cls-1" d="M678.56,75.71c0,.34-.02,.63-.02,.63h-7.37c.18,1.97,1.16,2.79,2.54,2.79,1.12,0,1.75-.52,2.05-1.32h2.58c-.45,1.93-2.07,3.42-4.65,3.42-3.25,0-5.12-2.31-5.12-5.61s2.07-5.75,5.04-5.75c3.19,0,5,2.35,4.94,5.84Zm-2.66-1.18c-.08-1.64-.93-2.56-2.27-2.56-1.24,0-2.17,.84-2.42,2.56h4.69Z"/><path class="cls-1" d="M679.72,77.81h2.54c.22,.97,.93,1.47,2.17,1.47s1.89-.5,1.89-1.24c0-.63-.35-1.07-1.28-1.24l-2.19-.44c-2.07-.42-2.94-1.45-2.94-3.11,0-1.81,1.46-3.38,4.24-3.38s4.25,1.41,4.59,3.59h-2.56c-.16-1.09-.87-1.64-2.05-1.64s-1.77,.57-1.77,1.26c0,.59,.3,.99,1.36,1.18l2.15,.4c2.23,.4,3.03,1.51,3.03,3.19,0,1.8-1.34,3.38-4.45,3.38s-4.35-1.39-4.73-3.42Z"/><path class="cls-1" d="M694.56,75.57c0-3.49,2.25-5.69,5.18-5.69s5.16,2.2,5.16,5.69-2.25,5.67-5.16,5.67-5.18-2.18-5.18-5.67Zm7.68,0c0-2.12-.95-3.44-2.52-3.44s-2.52,1.34-2.52,3.44,.95,3.42,2.52,3.42,2.52-1.32,2.52-3.42Z"/><path class="cls-1" d="M710.04,69.48v.65h2.42v2.29h-2.42v8.57h-2.6v-8.57h-1.6v-2.29h1.6v-.63c0-2.52,1.46-3.84,3.6-3.84,.59,0,1.1,.08,1.52,.23v2.12c-.3-.08-.61-.13-.93-.13-1.04,0-1.6,.52-1.6,1.6Z"/><path class="cls-1" d="M727.93,78.68v2.31h-10.05v-.78c0-2.35,1.06-3.97,3.03-5.19l2.7-1.68c1.1-.69,1.52-1.43,1.52-2.39,0-1.15-.69-2.16-2.09-2.16s-2.36,1.11-2.32,2.88h-2.66c-.12-2.83,1.75-5.19,4.98-5.19s4.83,2.08,4.83,4.49c0,1.55-.55,2.92-2.34,4.07l-3.17,2.02c-.65,.42-1.1,.88-1.32,1.62h6.9Z"/><path class="cls-1" d="M729.48,73.87c0-4.66,2.27-7.39,5.73-7.39s5.71,2.73,5.71,7.39-2.25,7.37-5.71,7.37-5.73-2.62-5.73-7.37Zm8.73,0c0-3.15-.87-5.04-2.99-5.04s-3.01,1.89-3.01,5.04,.93,5.06,3.01,5.06,2.99-1.91,2.99-5.06Z"/><path class="cls-1" d="M748.2,66.73v14.26h-2.7v-10.27c-.91,.65-1.81,.9-3.37,.9v-2.29c2.42-.08,3.21-1.03,3.68-2.6h2.38Z"/><path class="cls-1" d="M760.88,77.5h-1.75v3.49h-2.72v-3.49h-6.46v-2.33l5.26-8.44h3.92v8.46h1.75v2.31Zm-4.47-2.31v-6.36l-4.02,6.36h4.02Z"/><path class="cls-1" d="M764.05,83.78h-1.75c.55-1.11,.85-1.85,1.08-2.67l-.18-.11c-.61-.29-.93-.82-.93-1.55,0-.97,.73-1.76,1.67-1.76s1.67,.76,1.67,1.8-.3,2.08-1.58,4.28Z"/><path class="cls-1" d="M782.33,75.57c0,3.59-2.17,5.67-4.59,5.67-1.46,0-2.58-.69-3.29-1.89v1.64h-2.38v-15.12h2.58v5.63c.69-1.05,1.77-1.62,3.19-1.62,2.42,0,4.49,2.04,4.49,5.69Zm-2.62,0c0-2.1-1-3.46-2.54-3.46-1.46,0-2.52,1.39-2.52,3.46s1.04,3.44,2.52,3.44,2.54-1.34,2.54-3.44Z"/><path class="cls-1" d="M793.56,70.13l-6.01,14.8h-2.76l2.15-4.91-3.9-9.89h2.76l2.48,7.12,2.64-7.12h2.64Z"/><path class="cls-1" d="M802.57,72.42v4.83c0,1.03,.47,1.53,1.34,1.53,.35,0,.59-.02,.83-.08v2.25c-.51,.15-.81,.17-1.44,.17-2.3,0-3.33-1.39-3.33-3.74v-4.96h-1.6v-2.29h1.6v-3.07h2.6v3.07h2.17v2.29h-2.17Z"/><path class="cls-1" d="M815.9,70.13l-6.01,14.8h-2.76l2.15-4.91-3.9-9.89h2.76l2.48,7.12,2.64-7.12h2.64Z"/><path class="cls-1" d="M827.33,75.57c0,3.59-2.19,5.67-4.61,5.67-1.34,0-2.36-.57-3.07-1.58v5.27h-2.6v-14.8h2.34v1.76c.69-1.28,1.83-2.02,3.45-2.02,2.42,0,4.49,2.04,4.49,5.69Zm-2.64,0c0-2.08-1-3.46-2.54-3.46-1.46,0-2.5,1.41-2.5,3.46s1.04,3.44,2.5,3.44,2.54-1.34,2.54-3.44Z"/><path class="cls-1" d="M828.51,75.57c0-3.49,2.25-5.69,5.18-5.69s5.16,2.2,5.16,5.69-2.25,5.67-5.16,5.67-5.18-2.18-5.18-5.67Zm7.68,0c0-2.12-.95-3.44-2.52-3.44s-2.52,1.34-2.52,3.44,.95,3.42,2.52,3.42,2.52-1.32,2.52-3.42Z"/><path class="cls-1" d="M850.32,70.13v10.31c0,2.6-1.44,4.75-5.04,4.75s-4.85-1.66-5.06-3.84h2.74c.1,1.11,.71,1.83,2.32,1.83s2.46-.9,2.46-2.62v-1.72c-.71,1.16-1.75,1.66-3.13,1.66-2.5,0-4.55-2.04-4.55-5.31s2.03-5.29,4.55-5.29c1.46,0,2.62,.65,3.33,1.85v-1.6h2.38Zm-2.58,5.04c0-1.87-1.1-3.09-2.54-3.09s-2.52,1.22-2.52,3.09,1.1,3.11,2.52,3.11,2.54-1.28,2.54-3.11Z"/><path class="cls-1" d="M858.25,70.11v2.44c-.16-.02-.33-.04-.59-.04-1.6,0-2.46,.99-2.46,2.71v5.77h-2.6v-10.85h2.34v1.87c.49-1.3,1.5-1.97,2.7-1.97,.22,0,.39,.02,.61,.08Z"/><path class="cls-1" d="M868.54,73.87v7.12h-2.34v-1.39c-.79,1.11-1.87,1.64-3.25,1.64-2.17,0-3.66-1.36-3.66-3.25s1.06-3.09,3.6-3.36l3.07-.34v-.59c0-1.22-.71-1.8-1.83-1.8-1.18,0-1.83,.5-2.03,1.57h-2.6c.28-2.35,1.91-3.59,4.59-3.59s4.45,1.24,4.45,3.99Zm-2.6,2.88v-.8l-2.44,.34c-1.08,.15-1.58,.76-1.58,1.58s.63,1.51,1.71,1.51c1.5,0,2.31-1.07,2.31-2.62Z"/><path class="cls-1" d="M881.01,75.57c0,3.59-2.19,5.67-4.61,5.67-1.34,0-2.36-.57-3.07-1.58v5.27h-2.6v-14.8h2.34v1.76c.69-1.28,1.83-2.02,3.45-2.02,2.42,0,4.49,2.04,4.49,5.69Zm-2.64,0c0-2.08-1-3.46-2.54-3.46-1.46,0-2.5,1.41-2.5,3.46s1.04,3.44,2.5,3.44,2.54-1.34,2.54-3.44Z"/><path class="cls-1" d="M892.04,74.16v6.82h-2.6v-6.28c0-1.68-.87-2.5-2.01-2.5s-2.09,.88-2.09,2.54v6.24h-2.6v-15.12h2.6v5.71c.59-1.09,1.58-1.7,2.9-1.7,2.17,0,3.8,1.47,3.8,4.28Z"/><path class="cls-1" d="M893.99,66.94c0-.9,.63-1.64,1.58-1.64s1.54,.74,1.54,1.64-.63,1.64-1.54,1.64-1.58-.76-1.58-1.64Zm.26,3.19h2.6v10.85h-2.6v-10.85Z"/><path class="cls-1" d="M898.62,75.55c0-3.53,2.15-5.67,5.08-5.67s4.43,1.7,4.77,4.07h-2.64c-.24-1.22-.93-1.83-2.15-1.83-1.48,0-2.42,1.26-2.42,3.4s.91,3.46,2.44,3.46c1.24,0,1.87-.63,2.13-1.83h2.62c-.33,2.41-1.97,4.07-4.75,4.07-2.94,0-5.08-2.14-5.08-5.69Z"/><path class="cls-1" d="M919.02,73.87v7.12h-2.34v-1.39c-.79,1.11-1.87,1.64-3.25,1.64-2.17,0-3.66-1.36-3.66-3.25s1.06-3.09,3.6-3.36l3.07-.34v-.59c0-1.22-.71-1.8-1.83-1.8-1.18,0-1.83,.5-2.03,1.57h-2.6c.28-2.35,1.91-3.59,4.59-3.59s4.45,1.24,4.45,3.99Zm-2.6,2.88v-.8l-2.44,.34c-1.08,.15-1.58,.76-1.58,1.58s.63,1.51,1.71,1.51c1.5,0,2.31-1.07,2.31-2.62Z"/><path class="cls-1" d="M924.26,79.45c0,.99-.75,1.78-1.67,1.78s-1.67-.8-1.67-1.78,.75-1.76,1.67-1.76,1.67,.8,1.67,1.76Z"/><path class="cls-1" d="M925.7,75.57c0-3.49,2.25-5.69,5.18-5.69s5.16,2.2,5.16,5.69-2.25,5.67-5.16,5.67-5.18-2.18-5.18-5.67Zm7.68,0c0-2.12-.95-3.44-2.52-3.44s-2.52,1.34-2.52,3.44,.95,3.42,2.52,3.42,2.52-1.32,2.52-3.42Z"/><path class="cls-1" d="M943.43,70.11v2.44c-.16-.02-.33-.04-.59-.04-1.6,0-2.46,.99-2.46,2.71v5.77h-2.6v-10.85h2.34v1.87c.49-1.3,1.5-1.97,2.7-1.97,.22,0,.39,.02,.61,.08Z"/><path class="cls-1" d="M954.68,70.13v10.31c0,2.6-1.44,4.75-5.04,4.75s-4.85-1.66-5.06-3.84h2.74c.1,1.11,.71,1.83,2.32,1.83s2.46-.9,2.46-2.62v-1.72c-.71,1.16-1.75,1.66-3.13,1.66-2.5,0-4.55-2.04-4.55-5.31s2.03-5.29,4.55-5.29c1.46,0,2.62,.65,3.33,1.85v-1.6h2.38Zm-2.58,5.04c0-1.87-1.1-3.09-2.54-3.09s-2.52,1.22-2.52,3.09,1.1,3.11,2.52,3.11,2.54-1.28,2.54-3.11Z"/></g></svg>