<?xml version="1.0" encoding="UTF-8"?><svg id="Layer_1" xmlns="http://www.w3.org/2000/svg" xmlns:xlink="http://www.w3.org/1999/xlink" viewBox="0 0 1366 768"><defs><style>.cls-1{clip-path:url(#clippath);}.cls-2{fill:#e6e6e6;}.cls-3{fill:#fff;}</style><clipPath id="clippath"><rect x="-51.48" y="-88" width="1466.48" height="940.05"/></clipPath></defs><g><rect x="-51.48" y="-88" width="1466.48" height="940.05"/><g class="cls-1"><rect x="-41.27" y="-79.94" width="1446.07" height="930.38"/></g></g><g><path class="cls-2" d="M143.11,360.83c0,18.26-13.53,30.61-33.82,30.61h-14.54v32.3h-16.74v-92.5h31.45c20.29,0,33.65,12.01,33.65,29.6Zm-18.43-.17c0-10.15-7.27-15.05-17.76-15.05h-12.18v31.29h12.18c11.33,0,17.76-5.41,17.76-16.23Z"/><path class="cls-2" d="M238.93,389.91c0,20.13-15.56,36.36-35.68,36.36s-35.51-16.23-35.51-36.36,15.39-36.36,35.51-36.36,35.68,16.23,35.68,36.36Zm-54.12,0c0,11.84,7.44,20.63,18.43,20.63s18.6-8.62,18.6-20.63-7.27-20.46-18.6-20.46-18.43,8.46-18.43,20.46Z"/><path class="cls-2" d="M292.62,426.28c-14.88,0-19.45-8.46-19.45-21.65v-90.3h17.08v87.26c0,7.95,1.18,9.81,9.47,9.81l-1.02,14.38c-1.18,.17-4.23,.51-6.09,.51Z"/><path class="cls-2" d="M392.95,372.67l-16.23,6.42s-3.72-9.64-15.39-9.64c-9.47,0-18.43,6.76-18.43,20.46s8.96,20.46,18.43,20.46c11.67,0,15.39-9.64,15.39-9.64l16.23,6.43s-7.1,19.11-31.12,19.11c-20.97,0-36.02-16.23-36.02-36.36s15.05-36.36,36.02-36.36c24.01,0,31.12,19.11,31.12,19.11Z"/><path class="cls-2" d="M465.67,423.74c-.84-2.71-1.69-5.75-2.37-8.79-4.57,7.1-10.99,11.5-22.32,11.5s-20.97-8.29-20.97-20.8c0-13.87,10.82-21.65,27.9-23.17,3.89-.34,9.81-.68,14.21-.85v-10.48h-35.68l.17-15.05h52.59v51.07c0,8.79,1.02,12.85,2.37,16.57h-15.9Zm-3.55-31.46c-3.55,0-7.61,.17-13.7,1.19-6.76,1.18-10.65,5.24-10.65,10.15,0,5.58,4.23,8.79,9.47,8.79,9.64,0,14.88-6.43,14.88-15.05v-5.07Z"/><path class="cls-2" d="M605.23,409.2v15.73h-67.65v-14.71l47.86-62.23h-46.51v-15.56h66.29v15.56l-48.2,61.22h48.2Z"/><path class="cls-2" d="M674.83,424.92c-.84-2.71-1.69-5.75-2.37-8.79-4.57,7.1-10.99,11.5-22.32,11.5s-20.97-8.29-20.97-20.8c0-13.87,10.82-21.65,27.9-23.17,3.89-.34,9.81-.68,14.21-.85v-10.48h-35.68l.17-15.05h52.59v51.07c0,8.79,1.02,12.85,2.37,16.57h-15.9Zm-3.55-31.46c-3.55,0-7.61,.17-13.7,1.19-6.77,1.18-10.65,5.24-10.65,10.15,0,5.58,4.23,8.79,9.47,8.79,9.64,0,14.88-6.43,14.88-15.05v-5.07Z"/><path class="cls-2" d="M795.23,390.93c0,19.96-12.68,36.53-31.96,36.53-8.96,0-15.73-3.38-20.8-8.46v34.67h-17.08v-96.4h16.23l.51,7.61c4.9-6.09,11.84-9.98,22.15-9.98,18.26,0,30.95,16.4,30.95,36.02Zm-17.08,.17c0-12.17-7.44-20.46-18.26-20.46s-17.08,7.95-17.42,20.46c.34,12.52,7.78,20.63,17.76,20.63,10.82,0,17.93-8.29,17.93-20.63Z"/><path class="cls-2" d="M866.62,424.92c-.84-2.71-1.69-5.75-2.37-8.79-4.57,7.1-10.99,11.5-22.32,11.5s-20.97-8.29-20.97-20.8c0-13.87,10.82-21.65,27.9-23.17,3.89-.34,9.81-.68,14.21-.85v-10.48h-35.68l.17-15.05h52.59v51.07c0,8.79,1.02,12.85,2.37,16.57h-15.9Zm-3.55-31.46c-3.55,0-7.61,.17-13.7,1.19-6.77,1.18-10.65,5.24-10.65,10.15,0,5.58,4.23,8.79,9.47,8.79,9.64,0,14.88-6.43,14.88-15.05v-5.07Z"/><path class="cls-2" d="M944.84,427.46c-13.7,0-19.11-8.46-19.11-20.97v-34.67h-14.2v-14.54h14.2v-16.91h16.74v16.91h16.23v14.54h-16.23v31.63c0,7.27,3.21,9.47,9.13,9.47,2.37,0,4.9-.17,7.1-.51l.51,13.53c-4.23,.85-9.81,1.52-14.38,1.52Z"/><path class="cls-2" d="M1052.28,394.65h-48.88c1.18,9.81,6.77,17.42,16.91,17.42,8.12,0,12.85-4.23,15.39-11.16l15.73,5.92c-5.75,13.19-16.74,20.63-31.79,20.63-22.15,0-33.15-17.93-33.15-37.21,0-18.09,12.18-35.34,33.48-35.34,19.62,0,32.81,15.56,32.81,33.82,0,1.69-.17,4.39-.51,5.92Zm-32.81-25.2c-8.12,.17-13.87,5.41-15.39,13.19h30.61c-.68-7.78-6.6-13.36-15.22-13.19Z"/><path class="cls-2" d="M1127.27,356.27l-1.35,17.59c-2.54-1.18-5.41-1.69-8.63-1.69-5.75,0-11.84,3.04-14.71,8.46v44.31h-16.74v-67.65h16.23l.34,6.42c4.06-5.07,9.13-8.79,15.39-8.79,3.89,0,6.43,.51,9.47,1.35Z"/><path class="cls-2" d="M1155.04,424.92v-67.65h17.08v67.65h-17.08Zm17.42-85.57h-17.25l11.16-25.03h20.29l-14.21,25.03Z"/><path class="cls-2" d="M1249.5,424.92c-.84-2.71-1.69-5.75-2.37-8.79-4.57,7.1-10.99,11.5-22.32,11.5s-20.97-8.29-20.97-20.8c0-13.87,10.82-21.65,27.9-23.17,3.89-.34,9.81-.68,14.21-.85v-10.48h-35.68l.17-15.05h52.59v51.07c0,8.79,1.02,12.85,2.37,16.57h-15.9Zm-3.55-31.46c-3.55,0-7.61,.17-13.7,1.19-6.77,1.18-10.65,5.24-10.65,10.15,0,5.58,4.23,8.79,9.47,8.79,9.64,0,14.88-6.43,14.88-15.05v-5.07Z"/></g><g><path class="cls-3" d="M90.27,33.8c0,2.37-1.56,4.3-4.73,4.3h-3.41v5.86h-2.72v-14.26h6.19c3.17,0,4.67,1.7,4.67,4.09Zm-2.7,.06c0-1.26-.77-1.93-2.42-1.93h-3.01v3.95h3.03c1.64,0,2.4-.82,2.4-2.02Z"/><path class="cls-3" d="M90.99,38.55c0-3.49,2.25-5.69,5.18-5.69s5.16,2.21,5.16,5.69-2.25,5.67-5.16,5.67-5.18-2.18-5.18-5.67Zm7.68,0c0-2.12-.95-3.44-2.52-3.44s-2.52,1.34-2.52,3.44,.95,3.42,2.52,3.42,2.52-1.32,2.52-3.42Z"/><path class="cls-3" d="M105.64,43.97h-2.6v-15.12h2.6v15.12Z"/><path class="cls-3" d="M107.34,38.53c0-3.53,2.15-5.67,5.08-5.67s4.43,1.7,4.77,4.07h-2.64c-.24-1.22-.93-1.83-2.15-1.83-1.48,0-2.42,1.26-2.42,3.4s.91,3.46,2.44,3.46c1.24,0,1.87-.63,2.13-1.83h2.62c-.34,2.42-1.97,4.07-4.75,4.07-2.94,0-5.08-2.14-5.08-5.69Z"/><path class="cls-3" d="M127.63,36.85v7.12h-2.34v-1.39c-.79,1.11-1.87,1.64-3.25,1.64-2.17,0-3.66-1.37-3.66-3.25s1.06-3.09,3.6-3.36l3.07-.34v-.59c0-1.22-.71-1.81-1.83-1.81-1.18,0-1.83,.5-2.03,1.58h-2.6c.28-2.35,1.91-3.59,4.59-3.59s4.45,1.24,4.45,3.99Zm-2.6,2.88v-.8l-2.44,.34c-1.08,.15-1.58,.76-1.58,1.57s.63,1.51,1.71,1.51c1.5,0,2.3-1.07,2.3-2.62Z"/><path class="cls-3" d="M134.05,29.92c0-.9,.63-1.64,1.58-1.64s1.54,.73,1.54,1.64-.63,1.64-1.54,1.64-1.58-.76-1.58-1.64Zm.26,3.19h2.6v10.86h-2.6v-10.86Z"/><path class="cls-3" d="M138.52,40.8h2.54c.22,.96,.93,1.47,2.17,1.47,1.3,0,1.89-.5,1.89-1.24,0-.63-.35-1.07-1.28-1.24l-2.19-.44c-2.07-.42-2.93-1.45-2.93-3.11,0-1.81,1.46-3.38,4.24-3.38s4.25,1.41,4.59,3.59h-2.56c-.16-1.09-.87-1.64-2.05-1.64s-1.77,.57-1.77,1.26c0,.59,.3,.99,1.36,1.18l2.15,.4c2.23,.4,3.03,1.51,3.03,3.19,0,1.81-1.34,3.38-4.45,3.38s-4.35-1.39-4.73-3.42Z"/><path class="cls-3" d="M162.67,36.85v7.12h-2.34v-1.39c-.79,1.11-1.87,1.64-3.25,1.64-2.17,0-3.66-1.37-3.66-3.25s1.06-3.09,3.6-3.36l3.07-.34v-.59c0-1.22-.71-1.81-1.83-1.81-1.18,0-1.83,.5-2.03,1.58h-2.6c.28-2.35,1.91-3.59,4.59-3.59s4.45,1.24,4.45,3.99Zm-2.6,2.88v-.8l-2.44,.34c-1.08,.15-1.58,.76-1.58,1.57s.63,1.51,1.71,1.51c1.5,0,2.31-1.07,2.31-2.62Z"/><path class="cls-3" d="M168.74,40.8h2.54c.22,.96,.93,1.47,2.17,1.47s1.89-.5,1.89-1.24c0-.63-.35-1.07-1.28-1.24l-2.19-.44c-2.07-.42-2.94-1.45-2.94-3.11,0-1.81,1.46-3.38,4.24-3.38s4.25,1.41,4.59,3.59h-2.56c-.16-1.09-.87-1.64-2.05-1.64s-1.77,.57-1.77,1.26c0,.59,.29,.99,1.36,1.18l2.15,.4c2.23,.4,3.03,1.51,3.03,3.19,0,1.81-1.34,3.38-4.45,3.38s-4.35-1.39-4.73-3.42Z"/><path class="cls-3" d="M188.93,37.14v6.82h-2.6v-6.28c0-1.68-.87-2.5-2.01-2.5s-2.09,.88-2.09,2.54v6.24h-2.6v-15.12h2.6v5.71c.59-1.09,1.58-1.7,2.9-1.7,2.17,0,3.8,1.47,3.8,4.28Z"/><path class="cls-3" d="M190.5,38.55c0-3.49,2.25-5.69,5.18-5.69s5.16,2.21,5.16,5.69-2.25,5.67-5.16,5.67-5.18-2.18-5.18-5.67Zm7.68,0c0-2.12-.95-3.44-2.52-3.44s-2.52,1.34-2.52,3.44,.95,3.42,2.52,3.42,2.52-1.32,2.52-3.42Z"/><path class="cls-3" d="M211.96,38.7c0,.34-.02,.63-.02,.63h-7.37c.18,1.97,1.16,2.79,2.54,2.79,1.12,0,1.75-.53,2.05-1.32h2.58c-.45,1.93-2.07,3.42-4.65,3.42-3.25,0-5.12-2.31-5.12-5.61s2.07-5.75,5.04-5.75c3.19,0,5,2.35,4.95,5.84Zm-2.66-1.18c-.08-1.64-.93-2.56-2.26-2.56-1.24,0-2.17,.84-2.42,2.56h4.69Z"/><path class="cls-3" d="M226.96,36.85v7.12h-2.34v-1.39c-.79,1.11-1.87,1.64-3.25,1.64-2.17,0-3.66-1.37-3.66-3.25s1.06-3.09,3.6-3.36l3.07-.34v-.59c0-1.22-.71-1.81-1.83-1.81-1.18,0-1.83,.5-2.03,1.58h-2.6c.28-2.35,1.91-3.59,4.59-3.59s4.45,1.24,4.45,3.99Zm-2.6,2.88v-.8l-2.44,.34c-1.08,.15-1.58,.76-1.58,1.57s.63,1.51,1.71,1.51c1.5,0,2.3-1.07,2.3-2.62Z"/><path class="cls-3" d="M238.4,37.12v6.84h-2.6v-6.21c0-1.79-.79-2.58-1.99-2.58s-2.11,.88-2.11,2.58v6.21h-2.6v-10.86h2.34v1.53c.67-1.2,1.75-1.79,3.21-1.79,2.13,0,3.74,1.34,3.74,4.26Z"/><path class="cls-3" d="M250.3,28.85v15.12h-2.34v-1.83c-.65,1.36-1.79,2.08-3.35,2.08-2.42,0-4.59-2.08-4.59-5.67s2.07-5.69,4.49-5.69c1.42,0,2.5,.57,3.19,1.62v-5.63h2.6Zm-2.6,9.7c0-2.08-1.06-3.46-2.52-3.46-1.54,0-2.54,1.36-2.54,3.46s1.06,3.44,2.54,3.44,2.52-1.32,2.52-3.44Z"/><path class="cls-3" d="M265.8,36.85v7.12h-2.34v-1.39c-.79,1.11-1.87,1.64-3.25,1.64-2.17,0-3.66-1.37-3.66-3.25s1.06-3.09,3.6-3.36l3.07-.34v-.59c0-1.22-.71-1.81-1.83-1.81-1.18,0-1.83,.5-2.03,1.58h-2.6c.28-2.35,1.91-3.59,4.59-3.59s4.45,1.24,4.45,3.99Zm-2.6,2.88v-.8l-2.44,.34c-1.08,.15-1.58,.76-1.58,1.57s.63,1.51,1.71,1.51c1.5,0,2.3-1.07,2.3-2.62Z"/><path class="cls-3" d="M267.4,38.53c0-3.53,2.15-5.67,5.08-5.67s4.43,1.7,4.77,4.07h-2.64c-.24-1.22-.93-1.83-2.15-1.83-1.48,0-2.42,1.26-2.42,3.4s.91,3.46,2.44,3.46c1.24,0,1.87-.63,2.13-1.83h2.62c-.33,2.42-1.97,4.07-4.75,4.07-2.93,0-5.08-2.14-5.08-5.69Z"/><path class="cls-3" d="M278.37,38.53c0-3.53,2.15-5.67,5.08-5.67s4.43,1.7,4.77,4.07h-2.64c-.24-1.22-.93-1.83-2.15-1.83-1.48,0-2.42,1.26-2.42,3.4s.91,3.46,2.44,3.46c1.24,0,1.87-.63,2.13-1.83h2.62c-.33,2.42-1.97,4.07-4.75,4.07-2.93,0-5.08-2.14-5.08-5.69Z"/><path class="cls-3" d="M299.33,38.7c0,.34-.02,.63-.02,.63h-7.37c.18,1.97,1.16,2.79,2.54,2.79,1.12,0,1.75-.53,2.05-1.32h2.58c-.45,1.93-2.07,3.42-4.65,3.42-3.25,0-5.12-2.31-5.12-5.61s2.07-5.75,5.04-5.75c3.19,0,5,2.35,4.94,5.84Zm-2.66-1.18c-.08-1.64-.93-2.56-2.27-2.56-1.24,0-2.17,.84-2.42,2.56h4.69Z"/><path class="cls-3" d="M300.39,40.8h2.54c.22,.96,.93,1.47,2.17,1.47s1.89-.5,1.89-1.24c0-.63-.36-1.07-1.28-1.24l-2.19-.44c-2.07-.42-2.93-1.45-2.93-3.11,0-1.81,1.46-3.38,4.23-3.38s4.26,1.41,4.59,3.59h-2.56c-.16-1.09-.87-1.64-2.05-1.64s-1.77,.57-1.77,1.26c0,.59,.3,.99,1.36,1.18l2.15,.4c2.23,.4,3.03,1.51,3.03,3.19,0,1.81-1.34,3.38-4.45,3.38s-4.35-1.39-4.73-3.42Z"/><path class="cls-3" d="M310.66,38.55c0-3.49,2.25-5.69,5.18-5.69s5.16,2.21,5.16,5.69-2.25,5.67-5.16,5.67-5.18-2.18-5.18-5.67Zm7.68,0c0-2.12-.95-3.44-2.52-3.44s-2.52,1.34-2.52,3.44,.95,3.42,2.52,3.42,2.52-1.32,2.52-3.42Z"/><path class="cls-3" d="M328.34,33.09v2.44c-.16-.02-.34-.04-.59-.04-1.6,0-2.46,.99-2.46,2.71v5.77h-2.6v-10.86h2.34v1.87c.49-1.3,1.5-1.97,2.7-1.97,.22,0,.39,.02,.61,.08Z"/><path class="cls-3" d="M329.39,29.92c0-.9,.63-1.64,1.58-1.64s1.54,.73,1.54,1.64-.63,1.64-1.54,1.64-1.58-.76-1.58-1.64Zm.26,3.19h2.6v10.86h-2.6v-10.86Z"/><path class="cls-3" d="M343.86,38.7c0,.34-.02,.63-.02,.63h-7.37c.18,1.97,1.16,2.79,2.54,2.79,1.12,0,1.75-.53,2.05-1.32h2.58c-.45,1.93-2.07,3.42-4.65,3.42-3.25,0-5.12-2.31-5.12-5.61s2.07-5.75,5.04-5.75c3.19,0,5,2.35,4.94,5.84Zm-2.66-1.18c-.08-1.64-.93-2.56-2.27-2.56-1.24,0-2.17,.84-2.42,2.56h4.69Z"/><path class="cls-3" d="M344.92,40.8h2.54c.22,.96,.93,1.47,2.17,1.47s1.89-.5,1.89-1.24c0-.63-.36-1.07-1.28-1.24l-2.19-.44c-2.07-.42-2.93-1.45-2.93-3.11,0-1.81,1.46-3.38,4.23-3.38s4.26,1.41,4.59,3.59h-2.56c-.16-1.09-.87-1.64-2.05-1.64s-1.77,.57-1.77,1.26c0,.59,.3,.99,1.36,1.18l2.15,.4c2.23,.4,3.03,1.51,3.03,3.19,0,1.81-1.34,3.38-4.45,3.38s-4.35-1.39-4.73-3.42Z"/><path class="cls-3" d="M370.57,38.55c0,3.59-2.17,5.67-4.59,5.67-1.46,0-2.58-.69-3.29-1.89v1.64h-2.38v-15.12h2.58v5.63c.69-1.05,1.77-1.62,3.19-1.62,2.42,0,4.49,2.04,4.49,5.69Zm-2.62,0c0-2.1-1-3.46-2.54-3.46-1.46,0-2.52,1.38-2.52,3.46s1.04,3.44,2.52,3.44,2.54-1.34,2.54-3.44Z"/><path class="cls-3" d="M377.93,33.09v2.44c-.16-.02-.34-.04-.59-.04-1.6,0-2.46,.99-2.46,2.71v5.77h-2.6v-10.86h2.34v1.87c.49-1.3,1.5-1.97,2.7-1.97,.22,0,.39,.02,.61,.08Z"/><path class="cls-3" d="M388.07,36.85v7.12h-2.34v-1.39c-.79,1.11-1.87,1.64-3.25,1.64-2.17,0-3.66-1.37-3.66-3.25s1.06-3.09,3.6-3.36l3.07-.34v-.59c0-1.22-.71-1.81-1.83-1.81-1.18,0-1.83,.5-2.03,1.58h-2.6c.28-2.35,1.91-3.59,4.59-3.59s4.45,1.24,4.45,3.99Zm-2.6,2.88v-.8l-2.44,.34c-1.08,.15-1.58,.76-1.58,1.57s.63,1.51,1.71,1.51c1.5,0,2.31-1.07,2.31-2.62Z"/><path class="cls-3" d="M399.52,37.12v6.84h-2.6v-6.21c0-1.79-.79-2.58-1.99-2.58s-2.11,.88-2.11,2.58v6.21h-2.6v-10.86h2.34v1.53c.67-1.2,1.75-1.79,3.21-1.79,2.13,0,3.74,1.34,3.74,4.26Z"/><path class="cls-3" d="M411.42,28.85v15.12h-2.34v-1.83c-.65,1.36-1.79,2.08-3.35,2.08-2.42,0-4.59-2.08-4.59-5.67s2.07-5.69,4.49-5.69c1.42,0,2.5,.57,3.19,1.62v-5.63h2.6Zm-2.6,9.7c0-2.08-1.06-3.46-2.52-3.46-1.54,0-2.54,1.36-2.54,3.46s1.06,3.44,2.54,3.44,2.52-1.32,2.52-3.44Z"/><path class="cls-3" d="M416.78,42.43c0,.99-.75,1.79-1.67,1.79s-1.67-.8-1.67-1.79,.75-1.76,1.67-1.76,1.67,.8,1.67,1.76Z"/><path class="cls-3" d="M426.21,43.97h-2.7v-14.26h2.7v14.26Z"/><path class="cls-3" d="M438.44,28.85v15.12h-2.34v-1.83c-.65,1.36-1.79,2.08-3.35,2.08-2.42,0-4.59-2.08-4.59-5.67s2.07-5.69,4.49-5.69c1.42,0,2.5,.57,3.19,1.62v-5.63h2.6Zm-2.6,9.7c0-2.08-1.06-3.46-2.52-3.46-1.54,0-2.54,1.36-2.54,3.46s1.06,3.44,2.54,3.44,2.52-1.32,2.52-3.44Z"/><path class="cls-3" d="M450.1,38.7c0,.34-.02,.63-.02,.63h-7.37c.18,1.97,1.16,2.79,2.54,2.79,1.12,0,1.75-.53,2.05-1.32h2.58c-.45,1.93-2.07,3.42-4.65,3.42-3.25,0-5.12-2.31-5.12-5.61s2.07-5.75,5.04-5.75c3.19,0,5,2.35,4.94,5.84Zm-2.66-1.18c-.08-1.64-.93-2.56-2.26-2.56-1.24,0-2.17,.84-2.42,2.56h4.69Z"/><path class="cls-3" d="M461.09,37.12v6.84h-2.6v-6.21c0-1.79-.79-2.58-1.99-2.58s-2.11,.88-2.11,2.58v6.21h-2.6v-10.86h2.34v1.53c.67-1.2,1.75-1.79,3.21-1.79,2.13,0,3.74,1.34,3.74,4.26Z"/><path class="cls-3" d="M466.44,35.4v4.83c0,1.03,.47,1.53,1.34,1.53,.36,0,.59-.02,.83-.08v2.25c-.51,.15-.81,.17-1.44,.17-2.3,0-3.33-1.39-3.33-3.74v-4.96h-1.6v-2.29h1.6v-3.06h2.6v3.06h2.17v2.29h-2.17Z"/><path class="cls-3" d="M469.92,29.92c0-.9,.63-1.64,1.58-1.64s1.54,.73,1.54,1.64-.63,1.64-1.54,1.64-1.58-.76-1.58-1.64Zm.26,3.19h2.6v10.86h-2.6v-10.86Z"/><path class="cls-3" d="M478.25,35.4v4.83c0,1.03,.47,1.53,1.34,1.53,.36,0,.59-.02,.83-.08v2.25c-.51,.15-.81,.17-1.44,.17-2.3,0-3.33-1.39-3.33-3.74v-4.96h-1.6v-2.29h1.6v-3.06h2.6v3.06h2.17v2.29h-2.17Z"/><path class="cls-3" d="M491.81,33.11l-6.01,14.8h-2.76l2.15-4.91-3.9-9.89h2.76l2.48,7.12,2.64-7.12h2.64Z"/><path class="cls-3" d="M493.08,46.76h-1.75c.55-1.11,.85-1.85,1.08-2.67l-.18-.1c-.61-.29-.93-.82-.93-1.55,0-.96,.73-1.76,1.68-1.76s1.67,.76,1.67,1.81-.29,2.08-1.58,4.28Z"/><path class="cls-3" d="M509.87,36.85v7.12h-2.34v-1.39c-.79,1.11-1.87,1.64-3.25,1.64-2.17,0-3.66-1.37-3.66-3.25s1.06-3.09,3.6-3.36l3.07-.34v-.59c0-1.22-.71-1.81-1.83-1.81-1.18,0-1.83,.5-2.03,1.58h-2.6c.28-2.35,1.91-3.59,4.59-3.59s4.45,1.24,4.45,3.99Zm-2.6,2.88v-.8l-2.44,.34c-1.08,.15-1.58,.76-1.58,1.57s.63,1.51,1.71,1.51c1.5,0,2.3-1.07,2.3-2.62Z"/><path class="cls-3" d="M521.31,37.12v6.84h-2.6v-6.21c0-1.79-.79-2.58-1.99-2.58s-2.11,.88-2.11,2.58v6.21h-2.6v-10.86h2.34v1.53c.67-1.2,1.75-1.79,3.21-1.79,2.13,0,3.74,1.34,3.74,4.26Z"/><path class="cls-3" d="M533.21,28.85v15.12h-2.34v-1.83c-.65,1.36-1.79,2.08-3.35,2.08-2.42,0-4.59-2.08-4.59-5.67s2.07-5.69,4.49-5.69c1.42,0,2.5,.57,3.19,1.62v-5.63h2.6Zm-2.6,9.7c0-2.08-1.06-3.46-2.52-3.46-1.54,0-2.54,1.36-2.54,3.46s1.06,3.44,2.54,3.44,2.52-1.32,2.52-3.44Z"/><path class="cls-3" d="M543.34,35.4v4.83c0,1.03,.47,1.53,1.34,1.53,.35,0,.59-.02,.83-.08v2.25c-.51,.15-.81,.17-1.44,.17-2.3,0-3.33-1.39-3.33-3.74v-4.96h-1.6v-2.29h1.6v-3.06h2.6v3.06h2.17v2.29h-2.17Z"/><path class="cls-3" d="M556.89,33.11l-6.01,14.8h-2.76l2.15-4.91-3.9-9.89h2.76l2.48,7.12,2.64-7.12h2.64Z"/><path class="cls-3" d="M568.29,38.55c0,3.59-2.19,5.67-4.61,5.67-1.34,0-2.36-.57-3.07-1.57v5.27h-2.6v-14.8h2.34v1.76c.69-1.28,1.83-2.02,3.45-2.02,2.42,0,4.49,2.04,4.49,5.69Zm-2.64,0c0-2.08-1-3.46-2.54-3.46-1.46,0-2.5,1.41-2.5,3.46s1.04,3.44,2.5,3.44,2.54-1.34,2.54-3.44Z"/><path class="cls-3" d="M579.43,38.7c0,.34-.02,.63-.02,.63h-7.37c.18,1.97,1.16,2.79,2.54,2.79,1.12,0,1.75-.53,2.05-1.32h2.58c-.45,1.93-2.07,3.42-4.65,3.42-3.25,0-5.12-2.31-5.12-5.61s2.07-5.75,5.04-5.75c3.19,0,5,2.35,4.95,5.84Zm-2.66-1.18c-.08-1.64-.93-2.56-2.26-2.56-1.24,0-2.17,.84-2.42,2.56h4.69Z"/><path class="cls-3" d="M584.37,32.46v.65h2.42v2.29h-2.42v8.57h-2.6v-8.57h-1.6v-2.29h1.6v-.63c0-2.52,1.46-3.84,3.61-3.84,.59,0,1.1,.08,1.52,.23v2.12c-.29-.08-.61-.13-.93-.13-1.04,0-1.6,.53-1.6,1.6Z"/><path class="cls-3" d="M596.85,36.85v7.12h-2.34v-1.39c-.79,1.11-1.87,1.64-3.25,1.64-2.17,0-3.66-1.37-3.66-3.25s1.06-3.09,3.6-3.36l3.07-.34v-.59c0-1.22-.71-1.81-1.83-1.81-1.18,0-1.83,.5-2.03,1.58h-2.6c.28-2.35,1.91-3.59,4.59-3.59s4.45,1.24,4.45,3.99Zm-2.6,2.88v-.8l-2.44,.34c-1.08,.15-1.58,.76-1.58,1.57s.63,1.51,1.71,1.51c1.5,0,2.31-1.07,2.31-2.62Z"/><path class="cls-3" d="M598.45,38.53c0-3.53,2.15-5.67,5.08-5.67s4.43,1.7,4.77,4.07h-2.64c-.24-1.22-.93-1.83-2.15-1.83-1.48,0-2.42,1.26-2.42,3.4s.91,3.46,2.44,3.46c1.24,0,1.87-.63,2.13-1.83h2.62c-.34,2.42-1.97,4.07-4.75,4.07-2.94,0-5.08-2.14-5.08-5.69Z"/><path class="cls-3" d="M619.41,38.7c0,.34-.02,.63-.02,.63h-7.37c.18,1.97,1.16,2.79,2.54,2.79,1.12,0,1.75-.53,2.05-1.32h2.58c-.45,1.93-2.07,3.42-4.65,3.42-3.25,0-5.12-2.31-5.12-5.61s2.07-5.75,5.04-5.75c3.19,0,5,2.35,4.94,5.84Zm-2.66-1.18c-.08-1.64-.93-2.56-2.26-2.56-1.24,0-2.17,.84-2.42,2.56h4.69Z"/><path class="cls-3" d="M635.38,28.85v15.12h-2.34v-1.83c-.65,1.36-1.79,2.08-3.35,2.08-2.42,0-4.59-2.08-4.59-5.67s2.07-5.69,4.49-5.69c1.42,0,2.5,.57,3.19,1.62v-5.63h2.6Zm-2.6,9.7c0-2.08-1.06-3.46-2.52-3.46-1.54,0-2.54,1.36-2.54,3.46s1.06,3.44,2.54,3.44,2.52-1.32,2.52-3.44Z"/><path class="cls-3" d="M647.04,38.7c0,.34-.02,.63-.02,.63h-7.37c.18,1.97,1.16,2.79,2.54,2.79,1.12,0,1.75-.53,2.05-1.32h2.58c-.45,1.93-2.07,3.42-4.65,3.42-3.25,0-5.12-2.31-5.12-5.61s2.07-5.75,5.04-5.75c3.19,0,5,2.35,4.94,5.84Zm-2.66-1.18c-.08-1.64-.93-2.56-2.27-2.56-1.24,0-2.17,.84-2.42,2.56h4.69Z"/><path class="cls-3" d="M657.81,33.11l-3.68,10.86h-3.01l-3.78-10.86h2.7l2.62,8.13,2.48-8.13h2.68Z"/><path class="cls-3" d="M668.06,38.7c0,.34-.02,.63-.02,.63h-7.37c.18,1.97,1.16,2.79,2.54,2.79,1.12,0,1.75-.53,2.05-1.32h2.58c-.45,1.93-2.07,3.42-4.65,3.42-3.25,0-5.12-2.31-5.12-5.61s2.07-5.75,5.04-5.75c3.19,0,5,2.35,4.95,5.84Zm-2.66-1.18c-.08-1.64-.93-2.56-2.26-2.56-1.24,0-2.17,.84-2.42,2.56h4.69Z"/><path class="cls-3" d="M672.35,43.97h-2.6v-15.12h2.6v15.12Z"/><path class="cls-3" d="M674.04,38.55c0-3.49,2.25-5.69,5.18-5.69s5.16,2.21,5.16,5.69-2.25,5.67-5.16,5.67-5.18-2.18-5.18-5.67Zm7.68,0c0-2.12-.95-3.44-2.52-3.44s-2.52,1.34-2.52,3.44,.95,3.42,2.52,3.42,2.52-1.32,2.52-3.42Z"/><path class="cls-3" d="M696.35,38.55c0,3.59-2.19,5.67-4.61,5.67-1.34,0-2.36-.57-3.07-1.57v5.27h-2.6v-14.8h2.34v1.76c.69-1.28,1.83-2.02,3.45-2.02,2.42,0,4.49,2.04,4.49,5.69Zm-2.64,0c0-2.08-1-3.46-2.54-3.46s-2.5,1.41-2.5,3.46,1.04,3.44,2.5,3.44,2.54-1.34,2.54-3.44Z"/><path class="cls-3" d="M707.49,38.7c0,.34-.02,.63-.02,.63h-7.37c.18,1.97,1.16,2.79,2.54,2.79,1.12,0,1.75-.53,2.05-1.32h2.58c-.45,1.93-2.07,3.42-4.65,3.42-3.25,0-5.12-2.31-5.12-5.61s2.07-5.75,5.04-5.75c3.19,0,5,2.35,4.95,5.84Zm-2.66-1.18c-.08-1.64-.93-2.56-2.27-2.56-1.24,0-2.17,.84-2.42,2.56h4.69Z"/><path class="cls-3" d="M718.93,28.85v15.12h-2.34v-1.83c-.65,1.36-1.79,2.08-3.35,2.08-2.42,0-4.59-2.08-4.59-5.67s2.07-5.69,4.49-5.69c1.42,0,2.5,.57,3.19,1.62v-5.63h2.6Zm-2.6,9.7c0-2.08-1.06-3.46-2.52-3.46-1.54,0-2.54,1.36-2.54,3.46s1.06,3.44,2.54,3.44,2.52-1.32,2.52-3.44Z"/><path class="cls-3" d="M729.07,32.46v.65h2.42v2.29h-2.42v8.57h-2.6v-8.57h-1.6v-2.29h1.6v-.63c0-2.52,1.46-3.84,3.61-3.84,.59,0,1.1,.08,1.52,.23v2.12c-.3-.08-.61-.13-.93-.13-1.04,0-1.6,.53-1.6,1.6Z"/><path class="cls-3" d="M732.13,38.55c0-3.49,2.25-5.69,5.18-5.69s5.16,2.21,5.16,5.69-2.25,5.67-5.16,5.67-5.18-2.18-5.18-5.67Zm7.68,0c0-2.12-.95-3.44-2.52-3.44s-2.52,1.34-2.52,3.44,.95,3.42,2.52,3.42,2.52-1.32,2.52-3.42Z"/><path class="cls-3" d="M749.81,33.09v2.44c-.16-.02-.33-.04-.59-.04-1.6,0-2.46,.99-2.46,2.71v5.77h-2.6v-10.86h2.34v1.87c.49-1.3,1.5-1.97,2.7-1.97,.22,0,.39,.02,.61,.08Z"/><path class="cls-3" d="M759.19,35.4v4.83c0,1.03,.47,1.53,1.34,1.53,.35,0,.59-.02,.83-.08v2.25c-.51,.15-.81,.17-1.44,.17-2.3,0-3.33-1.39-3.33-3.74v-4.96h-1.6v-2.29h1.6v-3.06h2.6v3.06h2.17v2.29h-2.17Z"/><path class="cls-3" d="M772.3,37.14v6.82h-2.6v-6.28c0-1.68-.87-2.5-2.01-2.5s-2.09,.88-2.09,2.54v6.24h-2.6v-15.12h2.6v5.71c.59-1.09,1.58-1.7,2.9-1.7,2.17,0,3.8,1.47,3.8,4.28Z"/><path class="cls-3" d="M783.89,38.7c0,.34-.02,.63-.02,.63h-7.37c.18,1.97,1.16,2.79,2.54,2.79,1.12,0,1.75-.53,2.05-1.32h2.58c-.45,1.93-2.07,3.42-4.65,3.42-3.25,0-5.12-2.31-5.12-5.61s2.07-5.75,5.04-5.75c3.19,0,5,2.35,4.95,5.84Zm-2.66-1.18c-.08-1.64-.93-2.56-2.27-2.56-1.24,0-2.17,.84-2.42,2.56h4.69Z"/><path class="cls-3" d="M800.38,38.55c0,3.59-2.17,5.67-4.59,5.67-1.46,0-2.58-.69-3.29-1.89v1.64h-2.38v-15.12h2.58v5.63c.69-1.05,1.77-1.62,3.19-1.62,2.42,0,4.49,2.04,4.49,5.69Zm-2.62,0c0-2.1-1-3.46-2.54-3.46-1.46,0-2.52,1.38-2.52,3.46s1.04,3.44,2.52,3.44,2.54-1.34,2.54-3.44Z"/><path class="cls-3" d="M807.74,33.09v2.44c-.16-.02-.33-.04-.59-.04-1.6,0-2.46,.99-2.46,2.71v5.77h-2.6v-10.86h2.34v1.87c.49-1.3,1.5-1.97,2.7-1.97,.22,0,.39,.02,.61,.08Z"/><path class="cls-3" d="M817.89,36.85v7.12h-2.34v-1.39c-.79,1.11-1.87,1.64-3.25,1.64-2.17,0-3.66-1.37-3.66-3.25s1.06-3.09,3.61-3.36l3.07-.34v-.59c0-1.22-.71-1.81-1.83-1.81-1.18,0-1.83,.5-2.03,1.58h-2.6c.28-2.35,1.91-3.59,4.59-3.59s4.45,1.24,4.45,3.99Zm-2.6,2.88v-.8l-2.44,.34c-1.08,.15-1.58,.76-1.58,1.57s.63,1.51,1.71,1.51c1.5,0,2.3-1.07,2.3-2.62Z"/><path class="cls-3" d="M829.33,37.12v6.84h-2.6v-6.21c0-1.79-.79-2.58-1.99-2.58s-2.11,.88-2.11,2.58v6.21h-2.6v-10.86h2.34v1.53c.67-1.2,1.75-1.79,3.21-1.79,2.13,0,3.74,1.34,3.74,4.26Z"/><path class="cls-3" d="M841.23,28.85v15.12h-2.34v-1.83c-.65,1.36-1.79,2.08-3.35,2.08-2.42,0-4.59-2.08-4.59-5.67s2.07-5.69,4.49-5.69c1.42,0,2.5,.57,3.19,1.62v-5.63h2.6Zm-2.6,9.7c0-2.08-1.06-3.46-2.52-3.46-1.54,0-2.54,1.36-2.54,3.46s1.06,3.44,2.54,3.44,2.52-1.32,2.52-3.44Z"/><path class="cls-3" d="M846.59,42.43c0,.99-.75,1.79-1.67,1.79s-1.67-.8-1.67-1.79,.75-1.76,1.67-1.76,1.67,.8,1.67,1.76Z"/></g></svg>