<?xml version="1.0" encoding="UTF-8"?>
<svg id="Layer_1" data-name="Layer 1" xmlns="http://www.w3.org/2000/svg" xmlns:xlink="http://www.w3.org/1999/xlink" viewBox="0 0 1366 768">
  <defs>
    <style>
      .cls-1 {
        clip-path: url(#clippath);
      }

      .cls-2 {
        fill: #c572ff;
      }

      .cls-2, .cls-3 {
        stroke-width: 0px;
      }

      .cls-4, .cls-3 {
        fill: #12100b;
      }
    </style>
    <clipPath id="clippath">
      <rect class="cls-3" x="-10" y="-10" width="1386" height="788"/>
    </clipPath>
  </defs>
  <g>
    <rect class="cls-4" x="-10" y="-10" width="1386" height="788"/>
    <g class="cls-1">
      <rect class="cls-3" x="-.35" y="-3.25" width="1366.71" height="779.89"/>
    </g>
  </g>
  <g>
    <path class="cls-2" d="M60.27,146.4v22h18.4l.8-4.64h3.92v15.2h-3.92l-.88-5.84h-18.32v21.68l8.88.72v4h-23.2v-4l6.08-.72v-48.4l-6-.72v-4h38.96l4.72,13.6-3.28,1.44c-3.04-6.56-7.28-10.32-13.92-10.32h-12.24Z"/>
    <path class="cls-2" d="M115.23,158.32c12.56,0,20.8,9.52,20.8,21.36s-7.68,21.12-20,21.12c-13.2,0-20.72-10.88-20.72-21.36,0-11.84,7.84-21.12,19.92-21.12ZM103.47,177.68c0,9.04,4.88,18,13.44,18,6.96,0,10.88-6,10.88-14.24,0-9.92-5.2-18.48-13.44-18.48-6.96,0-10.88,6.16-10.88,14.72Z"/>
    <path class="cls-2" d="M174.59,165.36l-7.12,5.76c-1.76-3.04-2.64-4.32-4.56-4.32s-3.76,2.56-7.12,7.68v20.32l6.64.72v4h-21.04v-4l6.16-.72v-25.84l-6.32-.32v-2.32l12.24-8h2.32v10.72h.64c3.52-5.36,6.8-10.8,10.88-10.8,3.44,0,5.2,3.2,7.28,7.12Z"/>
    <path class="cls-2" d="M241.15,163.52l-5.84.72-13.04,31.6.08.08h-.08l-8.96,21.76h-9.52l11.6-18-14.24-35.52-5.2-.64v-4h20.32v4l-5.84.72h-.08l9.84,26,10.4-26-6.08-.72v-4h16.64v4Z"/>
    <path class="cls-2" d="M263.3,158.32c12.56,0,20.8,9.52,20.8,21.36s-7.68,21.12-20,21.12c-13.2,0-20.72-10.88-20.72-21.36,0-11.84,7.84-21.12,19.92-21.12ZM251.54,177.68c0,9.04,4.88,18,13.44,18,6.96,0,10.88-6,10.88-14.24,0-9.92-5.2-18.48-13.44-18.48-6.96,0-10.88,6.16-10.88,14.72Z"/>
    <path class="cls-2" d="M335.78,188.16v4.72l-12.24,8h-1.52v-7.2h-.8c-3.44,3.52-8.24,7.12-13.92,7.12-7.92,0-11.76-5.6-11.76-12.88v-18.96l-6.24-.32v-2.32l12.24-8h2.32v26.56c0,6.08,2.24,9.6,8.32,9.6,3.12,0,6.32-1.92,8.96-4.48v-21.04l-6.24-.32v-2.32l12.24-8h2.32v33.6l6.32-3.76Z"/>
    <path class="cls-2" d="M372.34,165.36l-7.12,5.76c-1.76-3.04-2.64-4.32-4.56-4.32s-3.76,2.56-7.12,7.68v20.32l6.64.72v4h-21.04v-4l6.16-.72v-25.84l-6.32-.32v-2.32l12.24-8h2.32v10.72h.64c3.52-5.36,6.8-10.8,10.88-10.8,3.44,0,5.2,3.2,7.28,7.12Z"/>
    <path class="cls-2" d="M439.38,178.56c0,13.76-8.64,22.16-18.24,22.16-4.48,0-8.32-2-11.28-4.32v16.56l6.64.72v4h-21.04v-4l6.16-.72v-44l-6.32-.32v-2.32l12.24-8h2.32v8.16h.56c3.04-4.56,6.96-8.24,12.72-8.24,10.16,0,16.24,10.56,16.24,20.32ZM431.22,180.64c0-8.8-3.28-16.16-10.88-16.16-4.8,0-8.32,3.52-10.48,6.88v19.2c2.88,3.28,6.16,5.04,10.24,5.04,7.68,0,11.12-6.64,11.12-14.96Z"/>
    <path class="cls-2" d="M480.58,191.2c-2.8,5.28-8,9.6-16.16,9.6-12.32,0-19.44-9.6-19.44-20.64,0-11.6,6.56-21.92,19.12-21.92,9.52,0,16.16,7.36,16.4,18.4h-27.6c0,8.56,4.48,17.76,14,17.76,4.48,0,8.16-1.44,11.12-5.04l2.56,1.84ZM453.14,172.32h18.16c-.8-5.44-3.44-9.36-9.04-9.36-5.2,0-8.32,4.64-9.12,9.36Z"/>
    <path class="cls-2" d="M519.46,165.36l-7.12,5.76c-1.76-3.04-2.64-4.32-4.56-4.32s-3.76,2.56-7.12,7.68v20.32l6.64.72v4h-21.04v-4l6.16-.72v-25.84l-6.32-.32v-2.32l12.24-8h2.32v10.72h.64c3.52-5.36,6.8-10.8,10.88-10.8,3.44,0,5.2,3.2,7.28,7.12Z"/>
    <path class="cls-2" d="M535.06,148.4c-.16,4.96,4.32,11.12,12.8,11.12v4.8h-10.16v30.48l7.36.72v4h-21.84v-4l6.16-.72v-30.48h-6.64v-4.8h6.64c-.8-3.2-2.56-5.68-2.56-9.36,0-6.56,5.2-11.12,13.28-11.12,4.56,0,6.88.48,10.72,1.6v11.68h-3.92c-.4-4.88-2-9.28-6.72-9.28-3.04,0-5.04,2.24-5.12,5.36Z"/>
    <path class="cls-2" d="M590.02,191.2c-2.8,5.28-8,9.6-16.16,9.6-12.32,0-19.44-9.6-19.44-20.64,0-11.6,6.56-21.92,19.12-21.92,9.52,0,16.16,7.36,16.4,18.4h-27.6c0,8.56,4.48,17.76,14,17.76,4.48,0,8.16-1.44,11.12-5.04l2.56,1.84ZM562.58,172.32h18.16c-.8-5.44-3.44-9.36-9.04-9.36-5.2,0-8.32,4.64-9.12,9.36Z"/>
    <path class="cls-2" d="M615.62,162.96c-7.36,0-12.08,6.56-12.08,14.8s4.56,16.56,14.72,16.56c4.64,0,8.16-1.92,10.96-5.2l2.56,1.44c-2,5.36-7.28,10.24-16.32,10.24-11.68,0-19.52-8.96-19.52-20.16,0-12.24,7.84-22.32,21.04-22.32,4.4,0,8.48,1.12,11.36,3.44,1.68,1.36,2.88,3.52,2.88,5.52,0,2.24-1.36,3.76-3.28,3.76-2.16,0-3.44-.96-4.32-2.96-1.28-2.96-3.76-5.12-8-5.12Z"/>
    <path class="cls-2" d="M663.94,193.84c-2.48,3.2-7.84,6.96-12.32,6.96-5.44,0-8.56-2.4-8.72-7.92v-28.16h-7.2v-3.04l14.96-11.68h2.08l-1.68,9.52h12.24v5.2h-12.24v24.32c0,3.52,1.44,5.04,4.32,5.04,2.56,0,4.96-1.68,6.56-2.96l2,2.72Z"/>
    <path class="cls-2" d="M730.42,178.56c0,13.76-8.64,22.16-18.24,22.16-4.48,0-8.32-2-11.28-4.32v16.56l6.64.72v4h-21.04v-4l6.16-.72v-44l-6.32-.32v-2.32l12.24-8h2.32v8.16h.56c3.04-4.56,6.96-8.24,12.72-8.24,10.16,0,16.24,10.56,16.24,20.32ZM722.26,180.64c0-8.8-3.28-16.16-10.88-16.16-4.8,0-8.32,3.52-10.48,6.88v19.2c2.88,3.28,6.16,5.04,10.24,5.04,7.68,0,11.12-6.64,11.12-14.96Z"/>
    <path class="cls-2" d="M768.98,165.36l-7.12,5.76c-1.76-3.04-2.64-4.32-4.56-4.32s-3.76,2.56-7.12,7.68v20.32l6.64.72v4h-21.04v-4l6.16-.72v-25.84l-6.32-.32v-2.32l12.24-8h2.32v10.72h.64c3.52-5.36,6.8-10.8,10.88-10.8,3.44,0,5.2,3.2,7.28,7.12Z"/>
    <path class="cls-2" d="M808.74,191.2c-2.8,5.28-8,9.6-16.16,9.6-12.32,0-19.44-9.6-19.44-20.64,0-11.6,6.56-21.92,19.12-21.92,9.52,0,16.16,7.36,16.4,18.4h-27.6c0,8.56,4.48,17.76,14,17.76,4.48,0,8.16-1.44,11.12-5.04l2.56,1.84ZM781.3,172.32h18.16c-.8-5.44-3.44-9.36-9.04-9.36-5.2,0-8.32,4.64-9.12,9.36Z"/>
    <path class="cls-2" d="M816.26,169.04c0-7.84,6.56-10.8,13.2-10.8,5.2,0,7.52.56,12.56,1.6v12.4h-3.68c-.8-5.52-2.96-9.92-9.12-9.92-3.68,0-5.92,2.08-5.92,5.2,0,2.88,2,4.56,4.56,5.92l8.24,4.32c5.2,2.72,8.48,6.16,8.48,11.2,0,7.36-4.88,11.84-14.16,11.84-4.56,0-8.96-.96-13.92-2.72v-12.24h3.6c.56,8.16,4.64,10.48,9.68,10.48,4.48,0,7.68-1.84,7.68-5.6,0-3.04-1.76-4.16-5.28-6l-8-4.08c-4.4-2.24-7.92-5.84-7.92-11.6Z"/>
    <path class="cls-2" d="M885.62,191.2c-2.8,5.28-8,9.6-16.16,9.6-12.32,0-19.44-9.6-19.44-20.64,0-11.6,6.56-21.92,19.12-21.92,9.52,0,16.16,7.36,16.4,18.4h-27.6c0,8.56,4.48,17.76,14,17.76,4.48,0,8.16-1.44,11.12-5.04l2.56,1.84ZM858.18,172.32h18.16c-.8-5.44-3.44-9.36-9.04-9.36-5.2,0-8.32,4.64-9.12,9.36Z"/>
    <path class="cls-2" d="M937.7,195.52v4h-20.24v-4l6.16-.72v-19.76c0-5.84-1.68-10.48-7.04-10.48-4.8,0-8.24,3.52-10.88,7.28v22.96l5.84.72v4h-20.24v-4l6.16-.72v-25.84l-6.32-.32v-2.32l12.24-8h2.32v8h.8c3.28-4,7.84-8.08,13.68-8.08,7.2,0,11.68,5.92,11.68,13.68v22.88l5.84.72Z"/>
    <path class="cls-2" d="M968.34,193.84c-2.48,3.2-7.84,6.96-12.32,6.96-5.44,0-8.56-2.4-8.72-7.92v-28.16h-7.2v-3.04l14.96-11.68h2.08l-1.68,9.52h12.24v5.2h-12.24v24.32c0,3.52,1.44,5.04,4.32,5.04,2.56,0,4.96-1.68,6.56-2.96l2,2.72Z"/>
    <path class="cls-2" d="M975.7,195.52c0-2.96,2.32-5.28,5.2-5.28s5.28,2.32,5.28,5.28-2.32,5.2-5.28,5.2-5.2-2.32-5.2-5.2Z"/>
    <path class="cls-2" d="M1060.01,185.92l-4.72,13.6h-40.48v-4l6.08-.72v-48.4l-6.16-.72v-4h20.24v4l-5.84.72v48.4h13.68c6.64,0,10.88-3.76,13.92-10.32l3.28,1.44Z"/>
    <path class="cls-2" d="M1082.49,158.32c12.56,0,20.8,9.52,20.8,21.36s-7.68,21.12-20,21.12c-13.2,0-20.72-10.88-20.72-21.36,0-11.84,7.84-21.12,19.92-21.12ZM1070.73,177.68c0,9.04,4.88,18,13.44,18,6.96,0,10.88-6,10.88-14.24,0-9.92-5.2-18.48-13.44-18.48-6.96,0-10.88,6.16-10.88,14.72Z"/>
    <path class="cls-2" d="M1128.81,158.32c12.56,0,20.8,9.52,20.8,21.36s-7.68,21.12-20,21.12c-13.2,0-20.72-10.88-20.72-21.36,0-11.84,7.84-21.12,19.92-21.12ZM1117.05,177.68c0,9.04,4.88,18,13.44,18,6.96,0,10.88-6,10.88-14.24,0-9.92-5.2-18.48-13.44-18.48-6.96,0-10.88,6.16-10.88,14.72Z"/>
    <path class="cls-2" d="M1200.01,195.52v4h-19.6v-4l5.12-.64-12.08-15.76-4.48,3.68v12l5.84.72v4h-20.24v-4l6.16-.72v-43.84l-6.32-.8v-2.4l15.84-8.8,2.64,4.4-3.92,2.48v31.84l16.16-13.44-6.16-.72v-4h18.24v4l-5.76.72-12,9.92,15.6,20.72,4.96.64Z"/>
    <path class="cls-2" d="M1222.97,195.52v4h-20.24v-4l6.16-.72v-25.84l-6.32-.32v-2.32l12.24-8h2.32v36.48l5.84.72ZM1208.25,144.32c0-2.96,2.32-5.28,5.2-5.28s5.28,2.32,5.28,5.28-2.32,5.2-5.28,5.2-5.2-2.32-5.2-5.2Z"/>
    <path class="cls-2" d="M1274.33,195.52v4h-20.24v-4l6.16-.72v-19.76c0-5.84-1.68-10.48-7.04-10.48-4.8,0-8.24,3.52-10.88,7.28v22.96l5.84.72v4h-20.24v-4l6.16-.72v-25.84l-6.32-.32v-2.32l12.24-8h2.32v8h.8c3.28-4,7.84-8.08,13.68-8.08,7.2,0,11.68,5.92,11.68,13.68v22.88l5.84.72Z"/>
    <path class="cls-2" d="M1318.41,165.68c-2.4,0-5.04,0-7.84-.24,1.52,2.32,2.4,5.2,2.4,8.4,0,9.04-7.2,15.36-16.96,15.36-2.16,0-4.16-.32-6.08-.8-1.36,1.2-2.88,2.64-2.88,4.08,0,1.52,1.36,2.32,3.12,2.32,5.68,0,9.76-.08,14.88-.08,8.32,0,12.56,4.24,12.56,9.92,0,9.28-12.56,14.24-25.76,14.24-7.44,0-13.2-3.44-13.2-8.72,0-3.76,2.48-6.4,5.44-8.24-2.8-.64-5.12-1.92-5.12-4.56,0-3.68,4.88-7.52,8.24-10-5.36-2.48-8.8-7.36-8.8-13.76,0-9.04,7.44-15.36,17.2-15.36,2.4,0,4.72.4,6.72,1.04,3.44.88,7.68,1.12,10.64,1.12,1.6,0,3.92-.08,5.44-.24v5.52ZM1288.09,202.4c-1.6,1.68-2.64,3.36-2.64,5.6,0,4.88,5.84,6.16,11.28,6.16,7.84,0,14.96-2.16,14.96-7.12,0-3.68-3.84-4.88-9.52-4.88-4.64,0-7.28.32-11.52.32-.8,0-1.68,0-2.56-.08ZM1304.57,175.12c0-7.28-2.56-13.52-9.44-13.52-5.84,0-8.32,5.04-8.32,10.72,0,7.2,2.88,13.12,9.36,13.12s8.4-4.8,8.4-10.32Z"/>
    <path class="cls-2" d="M224.23,238.4c-.16,4.96,4.32,11.12,12.8,11.12v4.8h-10.16v30.48l7.36.72v4h-21.84v-4l6.16-.72v-30.48h-6.64v-4.8h6.64c-.8-3.2-2.56-5.68-2.56-9.36,0-6.56,5.2-11.12,13.28-11.12,4.56,0,6.88.48,10.72,1.6v11.68h-3.92c-.4-4.88-2-9.28-6.72-9.28-3.04,0-5.04,2.24-5.12,5.36Z"/>
    <path class="cls-2" d="M263.51,248.32c12.56,0,20.8,9.52,20.8,21.36s-7.68,21.12-20,21.12c-13.2,0-20.72-10.88-20.72-21.36,0-11.84,7.84-21.12,19.92-21.12ZM251.75,267.68c0,9.04,4.88,18,13.44,18,6.96,0,10.88-6,10.88-14.24,0-9.92-5.2-18.48-13.44-18.48-6.96,0-10.88,6.16-10.88,14.72Z"/>
    <path class="cls-2" d="M322.87,255.36l-7.12,5.76c-1.76-3.04-2.64-4.32-4.56-4.32s-3.76,2.56-7.12,7.68v20.32l6.64.72v4h-21.04v-4l6.16-.72v-25.84l-6.32-.32v-2.32l12.24-8h2.32v10.72h.64c3.52-5.36,6.8-10.8,10.88-10.8,3.44,0,5.2,3.2,7.28,7.12Z"/>
    <path class="cls-2" d="M382.47,284.88v3.84c-1.68.72-3.04,1.44-5.28,1.44-3.36,0-6-1.6-7.2-4.96h-.96c-3.28,3.2-7.52,5.6-12.48,5.6-7.44,0-11.12-4.96-11.12-10.64s4.48-8.8,9.36-10.48c4.16-1.44,9.04-2.96,14.24-4.48v-4.64c0-5.36-2.88-8.08-7.6-8.08-3.28,0-5.84,1.2-5.84,4.32,0,1.12.48,2.56,1.28,3.52l-8.32,1.76c-.72-1.28-.96-2.64-.96-4.08,0-5.84,6.8-9.76,14.64-9.76,9.6,0,15.12,3.12,15.12,11.76v21.52c0,2.08.56,4,2.48,4,.96,0,1.76-.24,2.64-.64ZM369.03,280.72v-11.52c-3.68,1.04-7.12,2.08-9.84,3.04-4,1.36-5.44,4-5.44,6.96,0,4.08,3.28,6.32,6.88,6.32s6.32-2.16,8.4-4.8Z"/>
    <path class="cls-2" d="M439.02,255.36l-7.12,5.76c-1.76-3.04-2.64-4.32-4.56-4.32s-3.76,2.56-7.12,7.68v20.32l6.64.72v4h-21.04v-4l6.16-.72v-25.84l-6.32-.32v-2.32l12.24-8h2.32v10.72h.64c3.52-5.36,6.8-10.8,10.88-10.8,3.44,0,5.2,3.2,7.28,7.12Z"/>
    <path class="cls-2" d="M463.1,248.32c12.56,0,20.8,9.52,20.8,21.36s-7.68,21.12-20,21.12c-13.2,0-20.72-10.88-20.72-21.36,0-11.84,7.84-21.12,19.92-21.12ZM451.34,267.68c0,9.04,4.88,18,13.44,18,6.96,0,10.88-6,10.88-14.24,0-9.92-5.2-18.48-13.44-18.48-6.96,0-10.88,6.16-10.88,14.72Z"/>
    <path class="cls-2" d="M509.42,248.32c12.56,0,20.8,9.52,20.8,21.36s-7.68,21.12-20,21.12c-13.2,0-20.72-10.88-20.72-21.36,0-11.84,7.84-21.12,19.92-21.12ZM497.66,267.68c0,9.04,4.88,18,13.44,18,6.96,0,10.88-6,10.88-14.24,0-9.92-5.2-18.48-13.44-18.48-6.96,0-10.88,6.16-10.88,14.72Z"/>
    <path class="cls-2" d="M608.3,285.52v4h-20.24v-4l6.16-.72v-19.76c0-5.84-1.68-10.48-7.68-10.48-4.4,0-7.76,3.44-10.4,7.12v23.12l5.84.72v4h-20.24v-4l6.16-.72v-19.76c0-5.84-1.68-10.48-7.04-10.48-4.8,0-8.24,3.52-10.88,7.28v22.96l5.84.72v4h-20.24v-4l6.16-.72v-25.84l-6.32-.32v-2.32l12.24-8h2.32v8h.8c3.28-4,7.84-8.08,13.68-8.08s9.84,3.84,11.2,9.36c3.36-4.32,8.72-9.36,15.12-9.36,7.2,0,11.68,5.92,11.68,13.68v22.88l5.84.72Z"/>
    <path class="cls-2" d="M616.46,285.52c0-2.96,2.32-5.28,5.2-5.28s5.28,2.32,5.28,5.28-2.32,5.2-5.28,5.2-5.2-2.32-5.2-5.2Z"/>
    <path class="cls-2" d="M669.82,236.4v22h18.4l.8-4.64h3.92v15.2h-3.92l-.88-5.84h-18.32v21.68l8.88.72v4h-23.2v-4l6.08-.72v-48.4l-6-.72v-4h38.96l4.72,13.6-3.28,1.44c-3.04-6.56-7.28-10.32-13.92-10.32h-12.24Z"/>
    <path class="cls-2" d="M720.78,248.32c12.56,0,20.8,9.52,20.8,21.36s-7.68,21.12-20,21.12c-13.2,0-20.72-10.88-20.72-21.36,0-11.84,7.84-21.12,19.92-21.12ZM709.02,267.68c0,9.04,4.88,18,13.44,18,6.96,0,10.88-6,10.88-14.24,0-9.92-5.2-18.48-13.44-18.48-6.96,0-10.88,6.16-10.88,14.72Z"/>
    <path class="cls-2" d="M780.14,255.36l-7.12,5.76c-1.76-3.04-2.64-4.32-4.56-4.32s-3.76,2.56-7.12,7.68v20.32l6.64.72v4h-21.04v-4l6.16-.72v-25.84l-6.32-.32v-2.32l12.24-8h2.32v10.72h.64c3.52-5.36,6.8-10.8,10.88-10.8,3.44,0,5.2,3.2,7.28,7.12Z"/>
    <path class="cls-2" d="M829.98,235.68l-5.84.72v49.68c-.08,12.88-3.44,17.68-17.04,21.6l-1.04-3.52c9.6-2.56,9.84-8.88,9.84-16.72v-51.04l-6.16-.72v-4h20.24v4Z"/>
    <path class="cls-2" d="M882.46,278.16v4.72l-12.24,8h-1.52v-7.2h-.8c-3.44,3.52-8.24,7.12-13.92,7.12-7.92,0-11.76-5.6-11.76-12.88v-18.96l-6.24-.32v-2.32l12.24-8h2.32v26.56c0,6.08,2.24,9.6,8.32,9.6,3.12,0,6.32-1.92,8.96-4.48v-21.04l-6.24-.32v-2.32l12.24-8h2.32v33.6l6.32-3.76Z"/>
    <path class="cls-2" d="M905.82,285.52v4h-20.24v-4l6.16-.72v-43.84l-6.4-.8v-2.4l15.84-8.8,2.64,4.4-3.84,2.4v49.04l5.84.72Z"/>
    <path class="cls-2" d="M953.98,253.52l-5.84.72-13.04,31.6.08.08h-.08l-8.96,21.76h-9.52l11.6-18-14.24-35.52-5.2-.64v-4h20.32v4l-5.84.72h-.08l9.84,26,10.4-26-6.08-.72v-4h16.64v4Z"/>
    <path class="cls-2" d="M1021.49,278.16v4.72l-12.24,8h-1.52v-7.2h-.8c-3.44,3.52-8.24,7.12-13.92,7.12-7.92,0-11.76-5.6-11.76-12.88v-18.96l-6.24-.32v-2.32l12.24-8h2.32v26.56c0,6.08,2.24,9.6,8.32,9.6,3.12,0,6.32-1.92,8.96-4.48v-21.04l-6.24-.32v-2.32l12.24-8h2.32v33.6l6.32-3.76Z"/>
    <path class="cls-2" d="M1071.25,285.52v4h-20.24v-4l6.16-.72v-19.76c0-5.84-1.68-10.48-7.04-10.48-4.8,0-8.24,3.52-10.88,7.28v22.96l5.84.72v4h-20.24v-4l6.16-.72v-25.84l-6.32-.32v-2.32l12.24-8h2.32v8h.8c3.28-4,7.84-8.08,13.68-8.08,7.2,0,11.68,5.92,11.68,13.68v22.88l5.84.72Z"/>
    <path class="cls-2" d="M1101.89,283.84c-2.48,3.2-7.84,6.96-12.32,6.96-5.44,0-8.56-2.4-8.72-7.92v-28.16h-7.2v-3.04l14.96-11.68h2.08l-1.68,9.52h12.24v5.2h-12.24v24.32c0,3.52,1.44,5.04,4.32,5.04,2.56,0,4.96-1.68,6.56-2.96l2,2.72Z"/>
    <path class="cls-2" d="M1125.49,285.52v4h-20.24v-4l6.16-.72v-25.84l-6.32-.32v-2.32l12.24-8h2.32v36.48l5.84.72ZM1110.77,234.32c0-2.96,2.32-5.28,5.2-5.28s5.28,2.32,5.28,5.28-2.32,5.2-5.28,5.2-5.2-2.32-5.2-5.2Z"/>
    <path class="cls-2" d="M1150.45,285.52v4h-20.24v-4l6.16-.72v-43.84l-6.4-.8v-2.4l15.84-8.8,2.64,4.4-3.84,2.4v49.04l5.84.72Z"/>
    <path class="cls-2" d="M91.71,364.56c0,9.12-6.8,16.24-19.84,16.24-6.24,0-12.64-1.52-17.76-4.32l-.56-14.72h4.08c1.2,4.48,2.32,7.92,3.52,10.64,2.88,2.32,6.72,3.28,10.96,3.28,6.8,0,11.68-3.44,11.68-10,0-4.4-2.88-7.68-7.84-10l-12.56-5.92c-6.24-2.96-9.76-7.28-9.76-14.4,0-8.96,7.36-14.88,17.2-14.88,5.04,0,9.04,1.04,12.48,3.12.32-1.04.48-2,.48-3.12h4.64l.24,16.48h-4.08c-.64-2.24-1.68-5.6-2.8-8.16-3.12-2.48-6.32-3.28-10.16-3.28-6.48,0-10.24,2.64-10.24,7.68,0,3.76,2.56,6.24,5.6,7.76l14,7.12c6.56,3.36,10.72,8.48,10.72,16.48ZM63.39,376.4l-.32-.48c.16.16.24.32.32.48Z"/>
    <path class="cls-2" d="M134.11,371.2c-2.8,5.28-8,9.6-16.16,9.6-12.32,0-19.44-9.6-19.44-20.64,0-11.6,6.56-21.92,19.12-21.92,9.52,0,16.16,7.36,16.4,18.4h-27.6c0,8.56,4.48,17.76,14,17.76,4.48,0,8.16-1.44,11.12-5.04l2.56,1.84ZM106.67,352.32h18.16c-.8-5.44-3.44-9.36-9.04-9.36-5.2,0-8.32,4.64-9.12,9.36Z"/>
    <path class="cls-2" d="M183.71,358.56c0,13.76-8.64,22.16-18.24,22.16-4.48,0-8.32-2-11.28-4.32v16.56l6.64.72v4h-21.04v-4l6.16-.72v-44l-6.32-.32v-2.32l12.24-8h2.32v8.16h.56c3.04-4.56,6.96-8.24,12.72-8.24,10.16,0,16.24,10.56,16.24,20.32ZM175.55,360.64c0-8.8-3.28-16.16-10.88-16.16-4.8,0-8.32,3.52-10.48,6.88v19.2c2.88,3.28,6.16,5.04,10.24,5.04,7.68,0,11.12-6.64,11.12-14.96Z"/>
    <path class="cls-2" d="M215.95,373.84c-2.48,3.2-7.84,6.96-12.32,6.96-5.44,0-8.56-2.4-8.72-7.92v-28.16h-7.2v-3.04l14.96-11.68h2.08l-1.68,9.52h12.24v5.2h-12.24v24.32c0,3.52,1.44,5.04,4.32,5.04,2.56,0,4.96-1.68,6.56-2.96l2,2.72Z"/>
    <path class="cls-2" d="M255.15,371.2c-2.8,5.28-8,9.6-16.16,9.6-12.32,0-19.44-9.6-19.44-20.64,0-11.6,6.56-21.92,19.12-21.92,9.52,0,16.16,7.36,16.4,18.4h-27.6c0,8.56,4.48,17.76,14,17.76,4.48,0,8.16-1.44,11.12-5.04l2.56,1.84ZM227.7,352.32h18.16c-.8-5.44-3.44-9.36-9.04-9.36-5.2,0-8.32,4.64-9.12,9.36Z"/>
    <path class="cls-2" d="M333.54,375.52v4h-20.24v-4l6.16-.72v-19.76c0-5.84-1.68-10.48-7.68-10.48-4.4,0-7.76,3.44-10.4,7.12v23.12l5.84.72v4h-20.24v-4l6.16-.72v-19.76c0-5.84-1.68-10.48-7.04-10.48-4.8,0-8.24,3.52-10.88,7.28v22.96l5.84.72v4h-20.24v-4l6.16-.72v-25.84l-6.32-.32v-2.32l12.24-8h2.32v8h.8c3.28-4,7.84-8.08,13.68-8.08s9.84,3.84,11.2,9.36c3.36-4.32,8.72-9.36,15.12-9.36,7.2,0,11.68,5.92,11.68,13.68v22.88l5.84.72Z"/>
    <path class="cls-2" d="M380.42,358.16c0,11.76-7.68,22.64-20,22.64-6,0-11.2-.88-17.6-2.08v-47.76l-6.4-.8v-2.4l15.84-8.8,2.64,4.4-3.84,2.4v21.36h.64c2.4-4.56,6.8-8.88,12.72-8.88,10.64,0,16,10.32,16,19.92ZM372.1,360.16c0-7.76-3.28-15.76-10.32-15.76-4.8,0-8.32,3.44-10.72,8.64v18.4c2.32,2.96,6.24,4.88,10.24,4.88,7.44,0,10.8-7.6,10.8-16.16Z"/>
    <path class="cls-2" d="M421.62,371.2c-2.8,5.28-8,9.6-16.16,9.6-12.32,0-19.44-9.6-19.44-20.64,0-11.6,6.56-21.92,19.12-21.92,9.52,0,16.16,7.36,16.4,18.4h-27.6c0,8.56,4.48,17.76,14,17.76,4.48,0,8.16-1.44,11.12-5.04l2.56,1.84ZM394.18,352.32h18.16c-.8-5.44-3.44-9.36-9.04-9.36-5.2,0-8.32,4.64-9.12,9.36Z"/>
    <path class="cls-2" d="M460.5,345.36l-7.12,5.76c-1.76-3.04-2.64-4.32-4.56-4.32s-3.76,2.56-7.12,7.68v20.32l6.64.72v4h-21.04v-4l6.16-.72v-25.84l-6.32-.32v-2.32l12.24-8h2.32v10.72h.64c3.52-5.36,6.8-10.8,10.88-10.8,3.44,0,5.2,3.2,7.28,7.12Z"/>
    <path class="cls-2" d="M468.42,375.52c0-2.96,2.32-5.28,5.2-5.28s5.28,2.32,5.28,5.28-2.32,5.2-5.28,5.2-5.2-2.32-5.2-5.2Z"/>
    <path class="cls-2" d="M566.82,355.52l-6.08.48v19.2c-6,4.08-14.16,5.6-21.76,5.6-19.12,0-30.8-13.28-30.8-30.24,0-15.84,12-29.36,30.48-29.36,6.24,0,11.12.8,16.16,2.8.24-1.2.4-2.32.4-3.52h4.64l.08,18.64h-3.92c-1.04-2.64-2.16-6.48-3.36-9.68-3.84-2.32-8.32-3.36-13.52-3.36-15.04,0-21.92,10.96-21.92,23.84,0,14.24,7.12,25.44,21.68,25.44,4.72,0,9.76-1.12,13.68-3.44v-15.84l-7.6-.56v-4.32h21.84v4.32Z"/>
    <path class="cls-2" d="M590.98,338.32c12.56,0,20.8,9.52,20.8,21.36s-7.68,21.12-20,21.12c-13.2,0-20.72-10.88-20.72-21.36,0-11.84,7.84-21.12,19.92-21.12ZM579.22,357.68c0,9.04,4.88,18,13.44,18,6.96,0,10.88-6,10.88-14.24,0-9.92-5.2-18.48-13.44-18.48-6.96,0-10.88,6.16-10.88,14.72Z"/>
    <path class="cls-2" d="M650.34,345.36l-7.12,5.76c-1.76-3.04-2.64-4.32-4.56-4.32s-3.76,2.56-7.12,7.68v20.32l6.64.72v4h-21.04v-4l6.16-.72v-25.84l-6.32-.32v-2.32l12.24-8h2.32v10.72h.64c3.52-5.36,6.8-10.8,10.88-10.8,3.44,0,5.2,3.2,7.28,7.12Z"/>
    <path class="cls-2" d="M698.9,368.96v4.72l-12.24,7.2h-1.52v-6.16h-.88c-3.04,3.28-7.28,6.08-12.32,6.08-11.28,0-17.44-10.08-17.44-20.48,0-12.16,7.92-22.08,19.04-22.08,3.92,0,7.68,1.36,10.72,3.28v-10.56l-6.4-.8v-2.4l15.84-8.8,2.64,4.4-3.84,2.4v46.72l6.4-3.52ZM684.26,370.96v-21.52c-2.32-3.44-6-6-10.24-6-7.6,0-11.36,6.72-11.36,14.64,0,8.8,4.16,16.56,12.4,16.56,3.6,0,6.8-1.44,9.2-3.68Z"/>
    <path class="cls-2" d="M723.22,338.32c12.56,0,20.8,9.52,20.8,21.36s-7.68,21.12-20,21.12c-13.2,0-20.72-10.88-20.72-21.36,0-11.84,7.84-21.12,19.92-21.12ZM711.46,357.68c0,9.04,4.88,18,13.44,18,6.96,0,10.88-6,10.88-14.24,0-9.92-5.2-18.48-13.44-18.48-6.96,0-10.88,6.16-10.88,14.72Z"/>
    <path class="cls-2" d="M795.78,375.52v4h-20.24v-4l6.16-.72v-19.76c0-5.84-1.68-10.48-7.04-10.48-4.8,0-8.24,3.52-10.88,7.28v22.96l5.84.72v4h-20.24v-4l6.16-.72v-25.84l-6.32-.32v-2.32l12.24-8h2.32v8h.8c3.28-4,7.84-8.08,13.68-8.08,7.2,0,11.68,5.92,11.68,13.68v22.88l5.84.72Z"/>
    <path class="cls-2" d="M883.54,326.4v48.4l5.84.72v4h-20.24v-4l6.16-.72v-48.4l-20.56,53.04h-3.52l-20.72-52.64v48l5.84.72v4h-16.72v-4l6.16-.72v-48.4l-6.16-.72v-4h18.72l16.96,44.64,17.04-44.64h17.04v4l-5.84.72Z"/>
    <path class="cls-2" d="M930.9,374.88v3.84c-1.68.72-3.04,1.44-5.28,1.44-3.36,0-6-1.6-7.2-4.96h-.96c-3.28,3.2-7.52,5.6-12.48,5.6-7.44,0-11.12-4.96-11.12-10.64s4.48-8.8,9.36-10.48c4.16-1.44,9.04-2.96,14.24-4.48v-4.64c0-5.36-2.88-8.08-7.6-8.08-3.28,0-5.84,1.2-5.84,4.32,0,1.12.48,2.56,1.28,3.52l-8.32,1.76c-.72-1.28-.96-2.64-.96-4.08,0-5.84,6.8-9.76,14.64-9.76,9.6,0,15.12,3.12,15.12,11.76v21.52c0,2.08.56,4,2.48,4,.96,0,1.76-.24,2.64-.64ZM917.46,370.72v-11.52c-3.68,1.04-7.12,2.08-9.84,3.04-4,1.36-5.44,4-5.44,6.96,0,4.08,3.28,6.32,6.88,6.32s6.32-2.16,8.4-4.8Z"/>
    <path class="cls-2" d="M961.94,373.84c-2.48,3.2-7.84,6.96-12.32,6.96-5.44,0-8.56-2.4-8.72-7.92v-28.16h-7.2v-3.04l14.96-11.68h2.08l-1.68,9.52h12.24v5.2h-12.24v24.32c0,3.52,1.44,5.04,4.32,5.04,2.56,0,4.96-1.68,6.56-2.96l2,2.72Z"/>
    <path class="cls-2" d="M992.18,373.84c-2.48,3.2-7.84,6.96-12.32,6.96-5.44,0-8.56-2.4-8.72-7.92v-28.16h-7.2v-3.04l14.96-11.68h2.08l-1.68,9.52h12.24v5.2h-12.24v24.32c0,3.52,1.44,5.04,4.32,5.04,2.56,0,4.96-1.68,6.56-2.96l2,2.72Z"/>
    <path class="cls-2" d="M1032.02,374.88v3.84c-1.68.72-3.04,1.44-5.28,1.44-3.36,0-6-1.6-7.2-4.96h-.96c-3.28,3.2-7.52,5.6-12.48,5.6-7.44,0-11.12-4.96-11.12-10.64s4.48-8.8,9.36-10.48c4.16-1.44,9.04-2.96,14.24-4.48v-4.64c0-5.36-2.88-8.08-7.6-8.08-3.28,0-5.84,1.2-5.84,4.32,0,1.12.48,2.56,1.28,3.52l-8.32,1.76c-.72-1.28-.96-2.64-.96-4.08,0-5.84,6.8-9.76,14.64-9.76,9.6,0,15.12,3.12,15.12,11.76v21.52c0,2.08.56,4,2.48,4,.96,0,1.76-.24,2.64-.64ZM1018.57,370.72v-11.52c-3.68,1.04-7.12,2.08-9.84,3.04-4,1.36-5.44,4-5.44,6.96,0,4.08,3.28,6.32,6.88,6.32s6.32-2.16,8.4-4.8Z"/>
    <path class="cls-2" d="M1069.94,354.4v5.68h-24.96v-5.68h24.96Z"/>
    <path class="cls-2" d="M1135.37,368.64c-3.92,6.48-11.36,12.16-21.6,12.16-17.44,0-28.56-13.28-28.56-30.24s11.2-30,28.88-30c4.4,0,8.96.8,13.28,3.44l-.64-3.52,4.64-.72,3.36,15.76-5.12,1.12c-3.12-7.2-7.68-11.6-16.56-11.6-13.44,0-18.8,11.84-18.8,25.68s7.6,24,20.8,24c7.36,0,12.56-3.28,16.88-8.56l3.44,2.48Z"/>
    <path class="cls-2" d="M1162.41,375.52v4h-20.24v-4l6.16-.72v-43.84l-6.4-.8v-2.4l15.84-8.8,2.64,4.4-3.84,2.4v49.04l5.84.72Z"/>
    <path class="cls-2" d="M1203.61,374.88v3.84c-1.68.72-3.04,1.44-5.28,1.44-3.36,0-6-1.6-7.2-4.96h-.96c-3.28,3.2-7.52,5.6-12.48,5.6-7.44,0-11.12-4.96-11.12-10.64s4.48-8.8,9.36-10.48c4.16-1.44,9.04-2.96,14.24-4.48v-4.64c0-5.36-2.88-8.08-7.6-8.08-3.28,0-5.84,1.2-5.84,4.32,0,1.12.48,2.56,1.28,3.52l-8.32,1.76c-.72-1.28-.96-2.64-.96-4.08,0-5.84,6.8-9.76,14.64-9.76,9.6,0,15.12,3.12,15.12,11.76v21.52c0,2.08.56,4,2.48,4,.96,0,1.76-.24,2.64-.64ZM1190.17,370.72v-11.52c-3.68,1.04-7.12,2.08-9.84,3.04-4,1.36-5.44,4-5.44,6.96,0,4.08,3.28,6.32,6.88,6.32s6.32-2.16,8.4-4.8Z"/>
    <path class="cls-2" d="M1240.97,345.36l-7.12,5.76c-1.76-3.04-2.64-4.32-4.56-4.32s-3.76,2.56-7.12,7.68v20.32l6.64.72v4h-21.04v-4l6.16-.72v-25.84l-6.32-.32v-2.32l12.24-8h2.32v10.72h.64c3.52-5.36,6.8-10.8,10.88-10.8,3.44,0,5.2,3.2,7.28,7.12Z"/>
    <path class="cls-2" d="M1289.93,375.52v4h-19.6v-4l5.12-.64-12.08-15.76-4.48,3.68v12l5.84.72v4h-20.24v-4l6.16-.72v-43.84l-6.32-.8v-2.4l15.84-8.8,2.64,4.4-3.92,2.48v31.84l16.16-13.44-6.16-.72v-4h18.24v4l-5.76.72-12,9.92,15.6,20.72,4.96.64Z"/>
    <path class="cls-2" d="M1296.65,375.52c0-2.96,2.32-5.28,5.2-5.28s5.28,2.32,5.28,5.28-2.32,5.2-5.28,5.2-5.2-2.32-5.2-5.2Z"/>
    <path class="cls-2" d="M498.98,465.52v4h-21.12v-4l6.16-.72-5.12-12.88h-23.68l-4.64,12.88,6.8.72v4h-17.44v-4l5.84-.72,19.2-53.12h6.4l22,53.12,5.6.72ZM476.74,446.56l-10.4-25.68-9.2,25.68h19.6Z"/>
    <path class="cls-2" d="M521.86,465.52v4h-20.24v-4l6.16-.72v-43.84l-6.4-.8v-2.4l15.84-8.8,2.64,4.4-3.84,2.4v49.04l5.84.72Z"/>
    <path class="cls-2" d="M553.46,463.84c-2.48,3.2-7.84,6.96-12.32,6.96-5.44,0-8.56-2.4-8.72-7.92v-28.16h-7.2v-3.04l14.96-11.68h2.08l-1.68,9.52h12.24v5.2h-12.24v24.32c0,3.52,1.44,5.04,4.32,5.04,2.56,0,4.96-1.68,6.56-2.96l2,2.72Z"/>
    <path class="cls-2" d="M592.66,461.2c-2.8,5.28-8,9.6-16.16,9.6-12.32,0-19.44-9.6-19.44-20.64,0-11.6,6.56-21.92,19.12-21.92,9.52,0,16.16,7.36,16.4,18.4h-27.6c0,8.56,4.48,17.76,14,17.76,4.48,0,8.16-1.44,11.12-5.04l2.56,1.84ZM565.22,442.32h18.16c-.8-5.44-3.44-9.36-9.04-9.36-5.2,0-8.32,4.64-9.12,9.36Z"/>
    <path class="cls-2" d="M631.54,435.36l-7.12,5.76c-1.76-3.04-2.64-4.32-4.56-4.32s-3.76,2.56-7.12,7.68v20.32l6.64.72v4h-21.04v-4l6.16-.72v-25.84l-6.32-.32v-2.32l12.24-8h2.32v10.72h.64c3.52-5.36,6.8-10.8,10.88-10.8,3.44,0,5.2,3.2,7.28,7.12Z"/>
    <path class="cls-2" d="M681.86,465.52v4h-20.24v-4l6.16-.72v-19.76c0-5.84-1.68-10.48-7.04-10.48-4.8,0-8.24,3.52-10.88,7.28v22.96l5.84.72v4h-20.24v-4l6.16-.72v-25.84l-6.32-.32v-2.32l12.24-8h2.32v8h.8c3.28-4,7.84-8.08,13.68-8.08,7.2,0,11.68,5.92,11.68,13.68v22.88l5.84.72Z"/>
    <path class="cls-2" d="M722.1,464.88v3.84c-1.68.72-3.04,1.44-5.28,1.44-3.36,0-6-1.6-7.2-4.96h-.96c-3.28,3.2-7.52,5.6-12.48,5.6-7.44,0-11.12-4.96-11.12-10.64s4.48-8.8,9.36-10.48c4.16-1.44,9.04-2.96,14.24-4.48v-4.64c0-5.36-2.88-8.08-7.6-8.08-3.28,0-5.84,1.2-5.84,4.32,0,1.12.48,2.56,1.28,3.52l-8.32,1.76c-.72-1.28-.96-2.64-.96-4.08,0-5.84,6.8-9.76,14.64-9.76,9.6,0,15.12,3.12,15.12,11.76v21.52c0,2.08.56,4,2.48,4,.96,0,1.76-.24,2.64-.64ZM708.66,460.72v-11.52c-3.68,1.04-7.12,2.08-9.84,3.04-4,1.36-5.44,4-5.44,6.96,0,4.08,3.28,6.32,6.88,6.32s6.32-2.16,8.4-4.8Z"/>
    <path class="cls-2" d="M753.14,463.84c-2.48,3.2-7.84,6.96-12.32,6.96-5.44,0-8.56-2.4-8.72-7.92v-28.16h-7.2v-3.04l14.96-11.68h2.08l-1.68,9.52h12.24v5.2h-12.24v24.32c0,3.52,1.44,5.04,4.32,5.04,2.56,0,4.96-1.68,6.56-2.96l2,2.72Z"/>
    <path class="cls-2" d="M776.74,465.52v4h-20.24v-4l6.16-.72v-25.84l-6.32-.32v-2.32l12.24-8h2.32v36.48l5.84.72ZM762.02,414.32c0-2.96,2.32-5.28,5.2-5.28s5.28,2.32,5.28,5.28-2.32,5.2-5.28,5.2-5.2-2.32-5.2-5.2Z"/>
    <path class="cls-2" d="M822.42,433.52l-5.76.72-12.88,35.28h-6.08l-13.84-35.36-5.52-.64v-4h19.76v4l-5.28.64,10,26.64,9.28-26.64-5.76-.64v-4h16.08v4Z"/>
    <path class="cls-2" d="M860.9,461.2c-2.8,5.28-8,9.6-16.16,9.6-12.32,0-19.44-9.6-19.44-20.64,0-11.6,6.56-21.92,19.12-21.92,9.52,0,16.16,7.36,16.4,18.4h-27.6c0,8.56,4.48,17.76,14,17.76,4.48,0,8.16-1.44,11.12-5.04l2.56,1.84ZM833.46,442.32h18.16c-.8-5.44-3.44-9.36-9.04-9.36-5.2,0-8.32,4.64-9.12,9.36Z"/>
    <path class="cls-2" d="M868.42,439.04c0-7.84,6.56-10.8,13.2-10.8,5.2,0,7.52.56,12.56,1.6v12.4h-3.68c-.8-5.52-2.96-9.92-9.12-9.92-3.68,0-5.92,2.08-5.92,5.2,0,2.88,2,4.56,4.56,5.92l8.24,4.32c5.2,2.72,8.48,6.16,8.48,11.2,0,7.36-4.88,11.84-14.16,11.84-4.56,0-8.96-.96-13.92-2.72v-12.24h3.6c.56,8.16,4.64,10.48,9.68,10.48,4.48,0,7.68-1.84,7.68-5.6,0-3.04-1.76-4.16-5.28-6l-8-4.08c-4.4-2.24-7.92-5.84-7.92-11.6Z"/>
    <path class="cls-2" d="M905.94,465.52c0-2.96,2.32-5.28,5.2-5.28s5.28,2.32,5.28,5.28-2.32,5.2-5.28,5.2-5.2-2.32-5.2-5.2Z"/>
    <path class="cls-2" d="M139.39,555.52v4h-21.12v-4l6.16-.72-5.12-12.88h-23.68l-4.64,12.88,6.8.72v4h-17.44v-4l5.84-.72,19.2-53.12h6.4l22,53.12,5.6.72ZM117.15,536.56l-10.4-25.68-9.2,25.68h19.6Z"/>
    <path class="cls-2" d="M162.27,555.52v4h-20.24v-4l6.16-.72v-43.84l-6.4-.8v-2.4l15.84-8.8,2.64,4.4-3.84,2.4v49.04l5.84.72Z"/>
    <path class="cls-2" d="M186.99,555.52v4h-20.24v-4l6.16-.72v-43.84l-6.4-.8v-2.4l15.84-8.8,2.64,4.4-3.84,2.4v49.04l5.84.72Z"/>
    <path class="cls-2" d="M255.55,548.96v4.72l-12.24,7.2h-1.52v-6.16h-.88c-3.04,3.28-7.28,6.08-12.32,6.08-11.28,0-17.44-10.08-17.44-20.48,0-12.16,7.92-22.08,19.04-22.08,3.92,0,7.68,1.36,10.72,3.28v-10.56l-6.4-.8v-2.4l15.84-8.8,2.64,4.4-3.84,2.4v46.72l6.4-3.52ZM240.91,550.96v-21.52c-2.32-3.44-6-6-10.24-6-7.6,0-11.36,6.72-11.36,14.64,0,8.8,4.16,16.56,12.4,16.56,3.6,0,6.8-1.44,9.2-3.68Z"/>
    <path class="cls-2" d="M296.18,554.88v3.84c-1.68.72-3.04,1.44-5.28,1.44-3.36,0-6-1.6-7.2-4.96h-.96c-3.28,3.2-7.52,5.6-12.48,5.6-7.44,0-11.12-4.96-11.12-10.64s4.48-8.8,9.36-10.48c4.16-1.44,9.04-2.96,14.24-4.48v-4.64c0-5.36-2.88-8.08-7.6-8.08-3.28,0-5.84,1.2-5.84,4.32,0,1.12.48,2.56,1.28,3.52l-8.32,1.76c-.72-1.28-.96-2.64-.96-4.08,0-5.84,6.8-9.76,14.64-9.76,9.6,0,15.12,3.12,15.12,11.76v21.52c0,2.08.56,4,2.48,4,.96,0,1.76-.24,2.64-.64ZM282.74,550.72v-11.52c-3.68,1.04-7.12,2.08-9.84,3.04-4,1.36-5.44,4-5.44,6.96,0,4.08,3.28,6.32,6.88,6.32s6.32-2.16,8.4-4.8Z"/>
    <path class="cls-2" d="M343.78,523.52l-5.84.72-13.04,31.6.08.08h-.08l-8.96,21.76h-9.52l11.6-18-14.24-35.52-5.2-.64v-4h20.32v4l-5.84.72h-.08l9.84,26,10.4-26-6.08-.72v-4h16.64v4Z"/>
    <path class="cls-2" d="M377.06,518.32h2.32v34.8c0,13.84-5.92,19.36-12.24,24.48l-2.32-2.08c4.64-5.12,6.32-8.96,6.32-18.72v-27.84l-6.32-.32v-2.32l12.24-8ZM380.98,504.32c0,2.88-2.32,5.2-5.28,5.2s-5.2-2.32-5.2-5.2,2.32-5.28,5.2-5.28,5.28,2.32,5.28,5.28Z"/>
    <path class="cls-2" d="M435.94,548.16v4.72l-12.24,8h-1.52v-7.2h-.8c-3.44,3.52-8.24,7.12-13.92,7.12-7.92,0-11.76-5.6-11.76-12.88v-18.96l-6.24-.32v-2.32l12.24-8h2.32v26.56c0,6.08,2.24,9.6,8.32,9.6,3.12,0,6.32-1.92,8.96-4.48v-21.04l-6.24-.32v-2.32l12.24-8h2.32v33.6l6.32-3.76Z"/>
    <path class="cls-2" d="M485.7,555.52v4h-20.24v-4l6.16-.72v-19.76c0-5.84-1.68-10.48-7.04-10.48-4.8,0-8.24,3.52-10.88,7.28v22.96l5.84.72v4h-20.24v-4l6.16-.72v-25.84l-6.32-.32v-2.32l12.24-8h2.32v8h.8c3.28-4,7.84-8.08,13.68-8.08,7.2,0,11.68,5.92,11.68,13.68v22.88l5.84.72Z"/>
    <path class="cls-2" d="M525.3,551.2c-2.8,5.28-8,9.6-16.16,9.6-12.32,0-19.44-9.6-19.44-20.64,0-11.6,6.56-21.92,19.12-21.92,9.52,0,16.16,7.36,16.4,18.4h-27.6c0,8.56,4.48,17.76,14,17.76,4.48,0,8.16-1.44,11.12-5.04l2.56,1.84ZM497.86,532.32h18.16c-.8-5.44-3.44-9.36-9.04-9.36-5.2,0-8.32,4.64-9.12,9.36Z"/>
    <path class="cls-2" d="M534.98,555.52c0-2.96,2.32-5.28,5.2-5.28s5.28,2.32,5.28,5.28-2.32,5.2-5.28,5.2-5.2-2.32-5.2-5.2Z"/>
    <path class="cls-2" d="M603.54,560.8c-17.12,0-28.8-13.68-28.8-30.24s10.64-29.84,28.32-30c17.2-.16,28.8,13.76,28.8,29.84s-10.08,30.4-28.32,30.4ZM605.14,556c12.56,0,17.68-11.6,17.68-22.96,0-15.2-6.56-27.68-20.56-27.68s-18.48,10.88-18.48,24.16,6.4,26.48,21.36,26.48Z"/>
    <path class="cls-2" d="M683.86,555.52v4h-20.24v-4l6.16-.72v-19.76c0-5.84-1.68-10.48-7.04-10.48-4.8,0-8.24,3.52-10.88,7.28v22.96l5.84.72v4h-20.24v-4l6.16-.72v-25.84l-6.32-.32v-2.32l12.24-8h2.32v8h.8c3.28-4,7.84-8.08,13.68-8.08,7.2,0,11.68,5.92,11.68,13.68v22.88l5.84.72Z"/>
    <path class="cls-2" d="M771.62,506.4v48.4l5.84.72v4h-20.24v-4l6.16-.72v-48.4l-20.56,53.04h-3.52l-20.72-52.64v48l5.84.72v4h-16.72v-4l6.16-.72v-48.4l-6.16-.72v-4h18.72l16.96,44.64,17.04-44.64h17.04v4l-5.84.72Z"/>
    <path class="cls-2" d="M818.34,551.2c-2.8,5.28-8,9.6-16.16,9.6-12.32,0-19.44-9.6-19.44-20.64,0-11.6,6.56-21.92,19.12-21.92,9.52,0,16.16,7.36,16.4,18.4h-27.6c0,8.56,4.48,17.76,14,17.76,4.48,0,8.16-1.44,11.12-5.04l2.56,1.84ZM790.9,532.32h18.16c-.8-5.44-3.44-9.36-9.04-9.36-5.2,0-8.32,4.64-9.12,9.36Z"/>
    <path class="cls-2" d="M857.22,525.36l-7.12,5.76c-1.76-3.04-2.64-4.32-4.56-4.32s-3.76,2.56-7.12,7.68v20.32l6.64.72v4h-21.04v-4l6.16-.72v-25.84l-6.32-.32v-2.32l12.24-8h2.32v10.72h.64c3.52-5.36,6.8-10.8,10.88-10.8,3.44,0,5.2,3.2,7.28,7.12Z"/>
    <path class="cls-2" d="M881.06,522.96c-7.36,0-12.08,6.56-12.08,14.8s4.56,16.56,14.72,16.56c4.64,0,8.16-1.92,10.96-5.2l2.56,1.44c-2,5.36-7.28,10.24-16.32,10.24-11.68,0-19.52-8.96-19.52-20.16,0-12.24,7.84-22.32,21.04-22.32,4.4,0,8.48,1.12,11.36,3.44,1.68,1.36,2.88,3.52,2.88,5.52,0,2.24-1.36,3.76-3.28,3.76-2.16,0-3.44-.96-4.32-2.96-1.28-2.96-3.76-5.12-8-5.12Z"/>
    <path class="cls-2" d="M938.33,551.2c-2.8,5.28-8,9.6-16.16,9.6-12.32,0-19.44-9.6-19.44-20.64,0-11.6,6.56-21.92,19.12-21.92,9.52,0,16.16,7.36,16.4,18.4h-27.6c0,8.56,4.48,17.76,14,17.76,4.48,0,8.16-1.44,11.12-5.04l2.56,1.84ZM910.89,532.32h18.16c-.8-5.44-3.44-9.36-9.04-9.36-5.2,0-8.32,4.64-9.12,9.36Z"/>
    <path class="cls-2" d="M977.21,525.36l-7.12,5.76c-1.76-3.04-2.64-4.32-4.56-4.32s-3.76,2.56-7.12,7.68v20.32l6.64.72v4h-21.04v-4l6.16-.72v-25.84l-6.32-.32v-2.32l12.24-8h2.32v10.72h.64c3.52-5.36,6.8-10.8,10.88-10.8,3.44,0,5.2,3.2,7.28,7.12Z"/>
    <path class="cls-2" d="M1041.05,544.56c0,9.12-6.8,16.24-19.84,16.24-6.24,0-12.64-1.52-17.76-4.32l-.56-14.72h4.08c1.2,4.48,2.32,7.92,3.52,10.64,2.88,2.32,6.72,3.28,10.96,3.28,6.8,0,11.68-3.44,11.68-10,0-4.4-2.88-7.68-7.84-10l-12.56-5.92c-6.24-2.96-9.76-7.28-9.76-14.4,0-8.96,7.36-14.88,17.2-14.88,5.04,0,9.04,1.04,12.48,3.12.32-1.04.48-2,.48-3.12h4.64l.24,16.48h-4.08c-.64-2.24-1.68-5.6-2.8-8.16-3.12-2.48-6.32-3.28-10.16-3.28-6.48,0-10.24,2.64-10.24,7.68,0,3.76,2.56,6.24,5.6,7.76l14,7.12c6.56,3.36,10.72,8.48,10.72,16.48ZM1012.73,556.4l-.32-.48c.16.16.24.32.32.48Z"/>
    <path class="cls-2" d="M1094.81,515.6c-.8-3.04-1.76-6.16-2.88-9.2h-15.2v48.4l7.44.72v4h-22.64v-4l6.96-.72v-48.4h-15.76c-1.12,3.04-2.08,6.16-2.88,9.2l-4-.48,1.36-13.44h50.24l1.36,13.44-4,.48Z"/>
    <path class="cls-2" d="M1106.73,555.52c0-2.96,2.32-5.28,5.2-5.28s5.28,2.32,5.28,5.28-2.32,5.2-5.28,5.2-5.2-2.32-5.2-5.2Z"/>
    <path class="cls-2" d="M1182.49,554.88v3.84c-1.68.72-3.04,1.44-5.28,1.44-3.36,0-6-1.6-7.2-4.96h-.96c-3.28,3.2-7.52,5.6-12.48,5.6-7.44,0-11.12-4.96-11.12-10.64s4.48-8.8,9.36-10.48c4.16-1.44,9.04-2.96,14.24-4.48v-4.64c0-5.36-2.88-8.08-7.6-8.08-3.28,0-5.84,1.2-5.84,4.32,0,1.12.48,2.56,1.28,3.52l-8.32,1.76c-.72-1.28-.96-2.64-.96-4.08,0-5.84,6.8-9.76,14.64-9.76,9.6,0,15.12,3.12,15.12,11.76v21.52c0,2.08.56,4,2.48,4,.96,0,1.76-.24,2.64-.64ZM1169.05,550.72v-11.52c-3.68,1.04-7.12,2.08-9.84,3.04-4,1.36-5.44,4-5.44,6.96,0,4.08,3.28,6.32,6.88,6.32s6.32-2.16,8.4-4.8Z"/>
    <path class="cls-2" d="M1233.05,555.52v4h-20.24v-4l6.16-.72v-19.76c0-5.84-1.68-10.48-7.04-10.48-4.8,0-8.24,3.52-10.88,7.28v22.96l5.84.72v4h-20.24v-4l6.16-.72v-25.84l-6.32-.32v-2.32l12.24-8h2.32v8h.8c3.28-4,7.84-8.08,13.68-8.08,7.2,0,11.68,5.92,11.68,13.68v22.88l5.84.72Z"/>
    <path class="cls-2" d="M1281.45,548.96v4.72l-12.24,7.2h-1.52v-6.16h-.88c-3.04,3.28-7.28,6.08-12.32,6.08-11.28,0-17.44-10.08-17.44-20.48,0-12.16,7.92-22.08,19.04-22.08,3.92,0,7.68,1.36,10.72,3.28v-10.56l-6.4-.8v-2.4l15.84-8.8,2.64,4.4-3.84,2.4v46.72l6.4-3.52ZM1266.81,550.96v-21.52c-2.32-3.44-6-6-10.24-6-7.6,0-11.36,6.72-11.36,14.64,0,8.8,4.16,16.56,12.4,16.56,3.6,0,6.8-1.44,9.2-3.68Z"/>
    <path class="cls-2" d="M588.34,632.96c0,10.96-8.72,16.56-22.8,16.56h-25.76v-4l5.92-.72v-48.4l-5.92-.72v-4h21.76c10.32,0,23.36,2.4,23.36,13.6,0,8.4-7.04,11.44-11.28,12.72,8.16,1.76,14.72,6.4,14.72,14.96ZM553.86,596.48v20h8.48c7.68,0,13.36-3.28,13.36-10.24s-5.84-9.76-13.2-9.76h-8.64ZM579.14,632.72c0-7.6-5.6-11.52-14.48-11.52h-10.8v23.6h9.68c10.08,0,15.6-4.16,15.6-12.08Z"/>
    <path class="cls-2" d="M613.62,645.52v4h-20.24v-4l6.16-.72v-43.84l-6.4-.8v-2.4l15.84-8.8,2.64,4.4-3.84,2.4v49.04l5.84.72Z"/>
    <path class="cls-2" d="M654.18,641.2c-2.8,5.28-8,9.6-16.16,9.6-12.32,0-19.44-9.6-19.44-20.64,0-11.6,6.56-21.92,19.12-21.92,9.52,0,16.16,7.36,16.4,18.4h-27.6c0,8.56,4.48,17.76,14,17.76,4.48,0,8.16-1.44,11.12-5.04l2.56,1.84ZM626.74,622.32h18.16c-.8-5.44-3.44-9.36-9.04-9.36-5.2,0-8.32,4.64-9.12,9.36Z"/>
    <path class="cls-2" d="M695.7,641.2c-2.8,5.28-8,9.6-16.16,9.6-12.32,0-19.44-9.6-19.44-20.64,0-11.6,6.56-21.92,19.12-21.92,9.52,0,16.16,7.36,16.4,18.4h-27.6c0,8.56,4.48,17.76,14,17.76,4.48,0,8.16-1.44,11.12-5.04l2.56,1.84ZM668.26,622.32h18.16c-.8-5.44-3.44-9.36-9.04-9.36-5.2,0-8.32,4.64-9.12,9.36Z"/>
    <path class="cls-2" d="M746.42,645.52v4h-19.6v-4l5.12-.64-12.08-15.76-4.48,3.68v12l5.84.72v4h-20.24v-4l6.16-.72v-43.84l-6.32-.8v-2.4l15.84-8.8,2.64,4.4-3.92,2.48v31.84l16.16-13.44-6.16-.72v-4h18.24v4l-5.76.72-12,9.92,15.6,20.72,4.96.64Z"/>
    <path class="cls-2" d="M784.98,641.2c-2.8,5.28-8,9.6-16.16,9.6-12.32,0-19.44-9.6-19.44-20.64,0-11.6,6.56-21.92,19.12-21.92,9.52,0,16.16,7.36,16.4,18.4h-27.6c0,8.56,4.48,17.76,14,17.76,4.48,0,8.16-1.44,11.12-5.04l2.56,1.84ZM757.54,622.32h18.16c-.8-5.44-3.44-9.36-9.04-9.36-5.2,0-8.32,4.64-9.12,9.36Z"/>
    <path class="cls-2" d="M823.86,615.36l-7.12,5.76c-1.76-3.04-2.64-4.32-4.56-4.32s-3.76,2.56-7.12,7.68v20.32l6.64.72v4h-21.04v-4l6.16-.72v-25.84l-6.32-.32v-2.32l12.24-8h2.32v10.72h.64c3.52-5.36,6.8-10.8,10.88-10.8,3.44,0,5.2,3.2,7.28,7.12Z"/>
  </g>
</svg>