<?xml version="1.0" encoding="UTF-8"?>
<svg id="Layer_1" data-name="Layer 1" xmlns="http://www.w3.org/2000/svg" viewBox="0 0 1366 768">
  <defs>
    <style>
      .cls-1 {
        fill: #ccbbe4;
      }

      .cls-1, .cls-2 {
        stroke-width: 0px;
      }

      .cls-2 {
        fill: #12100b;
      }
    </style>
  </defs>
  <rect class="cls-1" x="-37.31" y="-66.31" width="1446.07" height="930.38"/>
  <g>
    <path class="cls-2" d="M101.82,219.49h-22.8l-2.3,3.12h-7.63l25.2-33.75h.96l15.65,33.75h-7.63l-1.44-3.12ZM83.63,213.25h15.31l-5.81-12.82-9.5,12.82Z"/>
    <path class="cls-2" d="M145.12,188.86c5.23,0,9.02,4.13,9.02,9.22,0,3.41-1.78,6.67-5.23,8.5.82,1.15,1.34,2.64,1.34,4.46,0,6.24-5.81,11.57-12.05,11.57h-22.8l4.75-33.75h24.96ZM123.09,215.89h16.08c2.16,0,4.22-1.97,4.22-4.08,0-1.78-1.34-3.31-3.22-3.31h-16.08l-1.01,7.39ZM124.86,202.97h18.24c2.26,0,4.27-1.97,4.27-4.08,0-1.78-1.34-3.31-3.22-3.31h-18.24l-1.06,7.39Z"/>
    <path class="cls-2" d="M192.59,195.34h-15.84c-7.3,0-12.24,5.33-12.24,11.71,0,5.14,3.36,9.07,9.36,9.07h15.84l-.91,6.48h-15.84c-9.46,0-15.27-6.29-15.27-14.79,0-10.46,8.54-18.96,19.73-18.96h16.08l-.91,6.48Z"/>
    <path class="cls-2" d="M218.75,188.86c8.88,0,15.27,6.38,15.27,14.93,0,10.56-9.46,18.82-20.02,18.82h-18.58l4.75-33.75h18.58ZM203.05,216.13h11.86c6.48,0,12.34-5.14,12.34-11.57,0-5.28-4.03-9.22-9.41-9.22h-11.86l-2.93,20.79Z"/>
    <path class="cls-2" d="M273.66,188.86l-.91,6.48h-24.1l-1.06,7.34h23.14l-.86,6.24h-23.14l-1.01,7.2h24.1l-.91,6.48h-30.82l4.75-33.75h30.82Z"/>
    <path class="cls-2" d="M311.54,188.86l-.91,6.48h-24.1l-1.06,7.49h23.14l-.86,6.24h-23.14l-1.92,13.54h-6.72l4.75-33.75h30.82Z"/>
    <path class="cls-2" d="M348.59,195.34h-15.84c-7.3,0-12.24,5.33-12.24,11.71,0,5.14,3.36,9.07,9.36,9.07h10.71l1.49-10.37h6.1l-2.4,16.85h-16.8c-9.46,0-15.27-6.29-15.27-14.79,0-10.46,8.54-18.96,19.73-18.96h16.08l-.91,6.48Z"/>
    <path class="cls-2" d="M364.62,188.86l-1.97,13.97h23.23l1.97-13.97h6.72l-4.75,33.75h-6.72l1.92-13.54h-23.23l-1.92,13.54h-6.72l4.75-33.75h6.72Z"/>
    <path class="cls-2" d="M408.78,188.86l-4.75,33.75h-6.72l4.75-33.75h6.72Z"/>
    <path class="cls-2" d="M409.31,222.61l.91-6.53h12.82c2.59,0,4.8-2.3,5.18-4.9l3.12-22.32h6.77l-3.12,22.32c-.86,6.29-6.48,11.42-12.87,11.42h-12.82Z"/>
    <path class="cls-2" d="M451.64,202.59l20.35-13.73h10.18l-21.94,15.75,17.62,18h-10.56l-13.06-13.78-3.89,2.83-1.54,10.94h-6.72l4.75-33.75h6.72l-1.92,13.73Z"/>
    <path class="cls-2" d="M493.02,188.86l-3.84,27.27h21.31l-.91,6.48h-28.03l4.75-33.75h6.72Z"/>
    <path class="cls-2" d="M528.54,188.86l11.28,22.32,17.57-22.32h1.97l5.33,33.75h-6.77l-3.46-20.45-15.75,20.45h-.96l-10.08-20.5-9.12,20.5h-6.77l14.79-33.75h1.97Z"/>
    <path class="cls-2" d="M576.01,188.86l26.02,21.03,2.98-21.03h6.72l-4.75,33.75h-.96l-26.02-21.03-2.98,21.03h-6.72l4.75-33.75h.96Z"/>
    <path class="cls-2" d="M657.23,203.55c0,10.56-7.97,19.63-23.09,19.63-12.58,0-18.38-6.77-18.38-15.22,0-10.46,8.06-19.68,23.28-19.68,12.38,0,18.19,6.82,18.19,15.27ZM622.52,207.2c0,5.18,3.46,9.26,12.58,9.26,11.04,0,15.36-5.71,15.36-12.14,0-5.18-3.46-9.31-12.43-9.31-11.23,0-15.5,5.76-15.5,12.19Z"/>
    <path class="cls-2" d="M688.23,188.86c7.39,0,12.1,5.42,12.1,11.81,0,7.73-6.96,14.64-15.6,14.83h-15.7l-1.01,7.1h-6.72l4.75-33.75h22.18ZM669.94,208.78h15.65c4.13,0,7.92-3.17,7.92-7.35,0-3.41-2.59-5.86-6.05-5.86h-15.65l-1.87,13.2Z"/>
    <path class="cls-2" d="M744.97,203.55c0,7.97-4.61,14.98-13.44,18.1l2.02,4.18h-7.34l-1.3-2.78c-.96.1-1.97.14-3.02.14-12.58,0-18.39-6.77-18.39-15.22,0-10.46,8.06-19.68,23.28-19.68,12.38,0,18.19,6.82,18.19,15.27ZM728.79,215.74c6.62-1.78,9.41-6.34,9.41-11.42s-3.46-9.31-12.43-9.31c-11.23,0-15.5,5.76-15.5,12.19,0,4.99,3.22,9.02,11.57,9.26l-1.78-3.84h7.3l1.44,3.12Z"/>
    <path class="cls-2" d="M773.58,188.86c7.39,0,12.1,5.42,12.1,11.81,0,5.14-3.12,9.79-7.73,12.58l4.46,9.36h-7.34l-3.41-7.2c-.53.05-1.06.1-1.58.1h-13.3l-1.01,7.1h-6.72l4.75-33.75h19.78ZM757.69,208.78h13.25c4.13,0,7.92-3.17,7.92-7.35,0-3.41-2.59-5.86-6.05-5.86h-13.25l-1.87,13.2Z"/>
    <path class="cls-2" d="M822.2,198.27s-4.13-3.55-12.53-3.55-10.27,1.87-10.27,3.84,2.16,2.88,10.42,3.79c11.33.91,15.41,3.17,15.41,8.69,0,7.54-5.95,12.14-18.48,12.14s-17.19-4.94-17.19-4.94l4.22-5.33s4.51,3.84,14.07,3.84,10.46-1.92,10.46-4.13c0-1.78-1.54-3.07-10.03-3.84-10.94-1.01-15.7-3.55-15.7-9.27,0-6.86,6.1-11.23,18.24-11.23s16.18,4.37,16.18,4.37l-4.8,5.62Z"/>
    <path class="cls-2" d="M867.37,188.86l-.91,6.48h-13.87l-3.84,27.27h-6.72l3.84-27.27h-13.87l.91-6.48h34.47Z"/>
    <path class="cls-2" d="M879.46,188.86l-2.54,18.24c-.77,5.47,2.59,9.36,9.99,9.36s11.81-3.89,12.58-9.36l2.54-18.24h6.77l-2.69,18.72c-1.1,7.78-8.5,15.51-20.16,15.51s-16.9-7.73-15.79-15.51l2.64-18.72h6.67Z"/>
    <path class="cls-2" d="M930.77,211.04l16.42-22.18h7.63l-25.2,33.75h-.96l-15.65-33.75h7.63l10.13,22.18Z"/>
    <path class="cls-2" d="M992.31,222.61l-11.28-22.32-17.57,22.32h-1.97l-5.33-33.75h6.77l3.46,20.45,15.75-20.45h.96l10.08,20.5,9.12-20.5h6.77l-14.79,33.75h-1.97Z"/>
    <path class="cls-2" d="M1020.2,188.86l9.5,11.86,12.91-11.86h8.59l-17.95,16.56,14.16,17.19h-8.5l-10.56-12.38-13.73,12.38h-8.5l18.63-17.19-13.11-16.56h8.54Z"/>
    <path class="cls-2" d="M1061.38,188.86l9.7,12.72,13.2-12.72h8.26l-18.82,17.86-2.26,15.89h-6.72l2.26-15.89-13.87-17.86h8.26Z"/>
    <path class="cls-2" d="M1132.47,203.55c0,10.56-7.97,19.63-23.09,19.63-12.58,0-18.39-6.77-18.39-15.22,0-10.46,8.06-19.68,23.28-19.68,12.38,0,18.19,6.82,18.19,15.27ZM1097.76,207.2c0,5.18,3.46,9.26,12.58,9.26,11.04,0,15.36-5.71,15.36-12.14,0-5.18-3.5-9.31-12.43-9.31-11.28,0-15.51,5.76-15.51,12.19Z"/>
    <path class="cls-2" d="M1150.52,188.86l-4.75,33.75h-6.72l3.89-27.51h-7.06l.86-6.24h13.78Z"/>
    <path class="cls-2" d="M1152.77,217.14l23.95-15.22c1.54-.96,2.16-1.73,2.16-3.31,0-1.87-2.26-3.55-7.34-3.55s-8.98,1.2-13.06,3.46l-3.22-5.66c4.51-2.69,10.13-4.56,17.57-4.56,9.74,0,14.11,3.6,14.11,8.59s-2.26,7.01-7.25,10.27l-13.39,8.74h18.58l-.96,6.72h-31.92l.77-5.47Z"/>
    <path class="cls-2" d="M1188.39,217.57l5.42-4.61s3.5,3.65,11.62,3.65c6.19,0,8.26-2.02,8.26-4.37,0-1.73-1.15-3.12-5.38-3.12h-9.07l.82-5.81h8.69c5.95,0,6.82-2.3,6.82-4.27,0-2.06-2.21-3.98-7.63-3.98-5.04,0-9.84,1.2-12.96,3.17l-3.02-5.38c4.56-2.98,9.94-4.56,17.38-4.56,8.83,0,14.4,4.08,14.4,9.6,0,3.17-1.54,5.91-4.42,8.02,1.73,1.34,2.54,3.26,2.54,5.47,0,6.53-6.19,11.81-17.43,11.81-12.72,0-16.03-5.62-16.03-5.62Z"/>
    <path class="cls-2" d="M1256.12,188.86l-3.02,21.27h7.3l-.86,6.24h-7.3l-.86,6.24h-6.72l.86-6.24h-20.5l.58-3.98,26.07-23.52h4.46ZM1235.19,210.51h11.14l1.58-11.14-12.72,11.14Z"/>
    <path class="cls-2" d="M1297.54,188.86l-.86,6.24h-21.51l-1.63,6.96h10.61c8.4,0,12.34,2.64,12.34,7.97,0,7.25-6.34,13.15-18.53,13.15s-15.17-5.62-15.17-5.62l5.42-4.61s2.98,3.65,11.09,3.65,9.99-2.5,9.99-4.94c0-1.97-1.68-3.41-6.29-3.41h-16.95l.53-3.55,3.74-15.84h27.22Z"/>
    <path class="cls-2" d="M66.26,262.2c0-2.88,1.58-5.71,3.26-8.16l11.28-16.18h7.68l-8.78,12.48s1.78-.53,5.09-.53c10.08,0,15.41,4.03,15.41,9.98,0,7.25-6.77,12.34-18.53,12.34-10.08,0-15.41-4.03-15.41-9.94ZM73.98,261.43c0,2.59,2.64,4.51,8.54,4.51,6.86,0,9.94-2.35,9.94-5.47,0-2.69-2.59-4.56-8.54-4.56-6.82,0-9.94,2.3-9.94,5.52Z"/>
    <path class="cls-2" d="M134.42,237.86l-22.9,33.75h-7.1l19.44-27.51h-21.07l.86-6.24h30.77Z"/>
    <path class="cls-2" d="M168.93,247.61c-.82,5.76-6.29,7.54-6.29,7.54,0,0,3.98,1.92,3.22,7.2-.72,5.18-5.38,9.79-16.27,9.79s-14.31-4.61-13.59-9.79c.77-5.28,5.23-7.2,5.23-7.2,0,0-4.99-1.78-4.18-7.54.82-5.86,6.19-10.32,17.43-10.32s15.26,4.46,14.45,10.32ZM158.9,261.72c0-1.78-1.68-3.5-7.39-3.5-6.67,0-8.45,2.16-8.45,4.22,0,1.82,1.63,3.65,7.34,3.65,6.72,0,8.5-2.35,8.5-4.37ZM162.64,247.27c0-2.02-1.97-3.89-9.02-3.89-8.16,0-10.18,2.4-10.18,4.61,0,1.97,1.92,4.13,8.93,4.13,8.16,0,10.27-2.69,10.27-4.85Z"/>
    <path class="cls-2" d="M207.95,247.27c0,2.88-1.58,5.71-3.26,8.16l-11.28,16.18h-7.68l8.79-12.48s-1.78.53-5.09.53c-10.08,0-15.41-4.03-15.41-9.98,0-7.25,6.77-12.34,18.58-12.34,10.03,0,15.36,4.03,15.36,9.94ZM200.22,248.04c0-2.59-2.59-4.51-8.5-4.51-6.87,0-9.99,2.35-9.99,5.47,0,2.69,2.64,4.56,8.54,4.56,6.86,0,9.94-2.3,9.94-5.52Z"/>
    <path class="cls-2" d="M217.98,268.01c0,2.26-2.11,4.18-4.42,4.18-1.92,0-3.26-1.49-3.26-3.31,0-2.3,2.02-4.22,4.32-4.22,1.92,0,3.36,1.54,3.36,3.36ZM213.76,237.86c6.38,0,10.51,3.22,10.51,8.74,0,6.72-5.18,8.5-5.95,12.38l-.58,2.93h-5.57l.24-2.93c.82-5.95,4.94-6.1,4.94-10.51,0-2.5-1.87-4.03-4.51-4.03l.91-6.58Z"/>
    <path class="cls-2" d="M255.66,268.49h-22.8l-2.3,3.12h-7.63l25.2-33.75h.96l15.65,33.75h-7.63l-1.44-3.12ZM237.47,262.25h15.31l-5.81-12.82-9.5,12.82Z"/>
    <path class="cls-2" d="M298.96,237.86c5.23,0,9.03,4.13,9.03,9.22,0,3.41-1.78,6.67-5.23,8.5.82,1.15,1.34,2.64,1.34,4.46,0,6.24-5.81,11.57-12.05,11.57h-22.8l4.75-33.75h24.96ZM276.92,264.89h16.08c2.16,0,4.22-1.97,4.22-4.08,0-1.78-1.34-3.31-3.22-3.31h-16.08l-1.01,7.39ZM278.7,251.97h18.24c2.26,0,4.27-1.97,4.27-4.08,0-1.78-1.34-3.31-3.22-3.31h-18.24l-1.06,7.39Z"/>
    <path class="cls-2" d="M346.43,244.34h-15.84c-7.3,0-12.24,5.33-12.24,11.71,0,5.14,3.36,9.07,9.36,9.07h15.84l-.91,6.48h-15.84c-9.46,0-15.27-6.29-15.27-14.79,0-10.46,8.54-18.96,19.73-18.96h16.08l-.91,6.48Z"/>
    <path class="cls-2" d="M372.59,237.86c8.88,0,15.27,6.38,15.27,14.93,0,10.56-9.46,18.82-20.02,18.82h-18.58l4.75-33.75h18.58ZM356.89,265.13h11.86c6.48,0,12.34-5.14,12.34-11.57,0-5.28-4.03-9.22-9.41-9.22h-11.86l-2.93,20.79Z"/>
    <path class="cls-2" d="M427.5,237.86l-.91,6.48h-24.1l-1.06,7.34h23.14l-.86,6.24h-23.14l-1.01,7.2h24.1l-.91,6.48h-30.82l4.75-33.75h30.82Z"/>
    <path class="cls-2" d="M465.37,237.86l-.91,6.48h-24.1l-1.06,7.49h23.14l-.86,6.24h-23.14l-1.92,13.54h-6.72l4.75-33.75h30.82Z"/>
    <path class="cls-2" d="M502.43,244.34h-15.84c-7.3,0-12.24,5.33-12.24,11.71,0,5.14,3.36,9.07,9.36,9.07h10.71l1.49-10.37h6.1l-2.4,16.85h-16.8c-9.46,0-15.27-6.29-15.27-14.79,0-10.46,8.54-18.96,19.73-18.96h16.08l-.91,6.48Z"/>
    <path class="cls-2" d="M518.46,237.86l-1.97,13.97h23.23l1.97-13.97h6.72l-4.75,33.75h-6.72l1.92-13.54h-23.23l-1.92,13.54h-6.72l4.75-33.75h6.72Z"/>
    <path class="cls-2" d="M562.62,237.86l-4.75,33.75h-6.72l4.75-33.75h6.72Z"/>
    <path class="cls-2" d="M563.14,271.61l.91-6.53h12.82c2.59,0,4.8-2.3,5.18-4.9l3.12-22.32h6.77l-3.12,22.32c-.86,6.29-6.48,11.42-12.87,11.42h-12.82Z"/>
    <path class="cls-2" d="M605.48,251.59l20.35-13.73h10.18l-21.94,15.75,17.62,18h-10.56l-13.06-13.78-3.89,2.83-1.54,10.94h-6.72l4.75-33.75h6.72l-1.92,13.73Z"/>
    <path class="cls-2" d="M646.85,237.86l-3.84,27.27h21.31l-.91,6.48h-28.03l4.75-33.75h6.72Z"/>
    <path class="cls-2" d="M682.37,237.86l11.28,22.32,17.57-22.32h1.97l5.33,33.75h-6.77l-3.46-20.45-15.75,20.45h-.96l-10.08-20.5-9.12,20.5h-6.77l14.79-33.75h1.97Z"/>
    <path class="cls-2" d="M729.84,237.86l26.02,21.03,2.98-21.03h6.72l-4.75,33.75h-.96l-26.02-21.03-2.98,21.03h-6.72l4.75-33.75h.96Z"/>
    <path class="cls-2" d="M811.06,252.55c0,10.56-7.97,19.63-23.09,19.63-12.58,0-18.39-6.77-18.39-15.22,0-10.46,8.06-19.68,23.28-19.68,12.38,0,18.19,6.82,18.19,15.27ZM776.36,256.2c0,5.18,3.46,9.26,12.58,9.26,11.04,0,15.36-5.71,15.36-12.14,0-5.18-3.46-9.31-12.43-9.31-11.23,0-15.5,5.76-15.5,12.19Z"/>
    <path class="cls-2" d="M842.07,237.86c7.39,0,12.1,5.42,12.1,11.81,0,7.73-6.96,14.64-15.6,14.83h-15.7l-1.01,7.1h-6.72l4.75-33.75h22.18ZM823.78,257.78h15.65c4.13,0,7.92-3.17,7.92-7.35,0-3.41-2.59-5.86-6.05-5.86h-15.65l-1.87,13.2Z"/>
    <path class="cls-2" d="M898.81,252.55c0,7.97-4.61,14.98-13.44,18.1l2.02,4.18h-7.34l-1.3-2.78c-.96.1-1.97.14-3.02.14-12.58,0-18.39-6.77-18.39-15.22,0-10.46,8.06-19.68,23.28-19.68,12.38,0,18.19,6.82,18.19,15.27ZM882.63,264.74c6.62-1.78,9.41-6.34,9.41-11.42s-3.46-9.31-12.43-9.31c-11.23,0-15.5,5.76-15.5,12.19,0,4.99,3.22,9.02,11.57,9.26l-1.78-3.84h7.3l1.44,3.12Z"/>
    <path class="cls-2" d="M927.41,237.86c7.39,0,12.1,5.42,12.1,11.81,0,5.14-3.12,9.79-7.73,12.58l4.46,9.36h-7.34l-3.41-7.2c-.53.05-1.06.1-1.58.1h-13.3l-1.01,7.1h-6.72l4.75-33.75h19.78ZM911.52,257.78h13.25c4.13,0,7.92-3.17,7.92-7.35,0-3.41-2.59-5.86-6.05-5.86h-13.25l-1.87,13.2Z"/>
    <path class="cls-2" d="M976.04,247.27s-4.13-3.55-12.53-3.55-10.27,1.87-10.27,3.84,2.16,2.88,10.42,3.79c11.33.91,15.41,3.17,15.41,8.69,0,7.54-5.95,12.14-18.48,12.14s-17.19-4.94-17.19-4.94l4.22-5.33s4.51,3.84,14.07,3.84,10.46-1.92,10.46-4.13c0-1.78-1.54-3.07-10.03-3.84-10.94-1.01-15.7-3.55-15.7-9.27,0-6.86,6.1-11.23,18.24-11.23s16.18,4.37,16.18,4.37l-4.8,5.62Z"/>
    <path class="cls-2" d="M1021.21,237.86l-.91,6.48h-13.87l-3.84,27.27h-6.72l3.84-27.27h-13.87l.91-6.48h34.47Z"/>
    <path class="cls-2" d="M1033.3,237.86l-2.54,18.24c-.77,5.47,2.59,9.36,9.99,9.36s11.81-3.89,12.58-9.36l2.54-18.24h6.77l-2.69,18.72c-1.1,7.78-8.5,15.51-20.16,15.51s-16.9-7.73-15.79-15.51l2.64-18.72h6.67Z"/>
    <path class="cls-2" d="M1084.61,260.04l16.42-22.18h7.63l-25.2,33.75h-.96l-15.65-33.75h7.63l10.13,22.18Z"/>
    <path class="cls-2" d="M1146.15,271.61l-11.28-22.32-17.57,22.32h-1.97l-5.33-33.75h6.77l3.46,20.45,15.75-20.45h.96l10.08,20.5,9.12-20.5h6.77l-14.79,33.75h-1.97Z"/>
    <path class="cls-2" d="M1174.03,237.86l9.5,11.86,12.91-11.86h8.59l-17.95,16.56,14.16,17.19h-8.5l-10.56-12.38-13.73,12.38h-8.5l18.63-17.19-13.11-16.56h8.54Z"/>
    <path class="cls-2" d="M1215.22,237.86l9.7,12.72,13.2-12.72h8.26l-18.82,17.86-2.26,15.89h-6.72l2.26-15.89-13.87-17.86h8.26Z"/>
    <path class="cls-2" d="M1286.31,252.55c0,10.56-7.97,19.63-23.09,19.63-12.58,0-18.39-6.77-18.39-15.22,0-10.46,8.06-19.68,23.28-19.68,12.38,0,18.19,6.82,18.19,15.27ZM1251.6,256.2c0,5.18,3.46,9.26,12.58,9.26,11.04,0,15.36-5.71,15.36-12.14,0-5.18-3.5-9.31-12.43-9.31-11.28,0-15.51,5.76-15.51,12.19Z"/>
    <path class="cls-2" d="M1304.35,237.86l-4.75,33.75h-6.72l3.89-27.51h-7.06l.86-6.24h13.78Z"/>
    <path class="cls-2" d="M73.48,315.14l23.95-15.22c1.54-.96,2.16-1.73,2.16-3.31,0-1.87-2.26-3.55-7.34-3.55s-8.98,1.2-13.06,3.46l-3.22-5.66c4.51-2.69,10.13-4.56,17.57-4.56,9.75,0,14.11,3.6,14.11,8.59s-2.26,7.01-7.25,10.27l-13.39,8.74h18.58l-.96,6.72h-31.92l.77-5.47Z"/>
    <path class="cls-2" d="M109.1,315.57l5.42-4.61s3.5,3.65,11.62,3.65c6.19,0,8.26-2.02,8.26-4.37,0-1.73-1.15-3.12-5.38-3.12h-9.07l.82-5.81h8.69c5.95,0,6.82-2.3,6.82-4.27,0-2.06-2.21-3.98-7.63-3.98-5.04,0-9.84,1.2-12.96,3.17l-3.02-5.38c4.56-2.98,9.94-4.56,17.38-4.56,8.83,0,14.4,4.08,14.4,9.6,0,3.17-1.54,5.91-4.42,8.02,1.73,1.34,2.54,3.26,2.54,5.47,0,6.53-6.19,11.81-17.43,11.81-12.72,0-16.03-5.62-16.03-5.62Z"/>
    <path class="cls-2" d="M176.83,286.86l-3.02,21.27h7.3l-.86,6.24h-7.3l-.86,6.24h-6.72l.86-6.24h-20.5l.58-3.98,26.07-23.52h4.46ZM155.9,308.51h11.14l1.58-11.14-12.72,11.14Z"/>
    <path class="cls-2" d="M218.25,286.86l-.86,6.24h-21.51l-1.63,6.96h10.61c8.4,0,12.34,2.64,12.34,7.97,0,7.25-6.34,13.15-18.53,13.15s-15.17-5.62-15.17-5.62l5.42-4.61s2.98,3.65,11.09,3.65,9.98-2.5,9.98-4.94c0-1.97-1.68-3.41-6.29-3.41h-16.95l.53-3.55,3.74-15.84h27.22Z"/>
    <path class="cls-2" d="M221.37,311.2c0-2.88,1.58-5.71,3.26-8.16l11.28-16.18h7.68l-8.79,12.48s1.78-.53,5.09-.53c10.08,0,15.41,4.03,15.41,9.98,0,7.25-6.77,12.34-18.53,12.34-10.08,0-15.41-4.03-15.41-9.94ZM229.1,310.43c0,2.59,2.64,4.51,8.54,4.51,6.87,0,9.94-2.35,9.94-5.47,0-2.69-2.59-4.56-8.54-4.56-6.82,0-9.94,2.3-9.94,5.52Z"/>
    <path class="cls-2" d="M289.53,286.86l-22.9,33.75h-7.1l19.44-27.51h-21.07l.86-6.24h30.77Z"/>
    <path class="cls-2" d="M324.04,296.61c-.82,5.76-6.29,7.54-6.29,7.54,0,0,3.98,1.92,3.22,7.2-.72,5.18-5.38,9.79-16.27,9.79s-14.31-4.61-13.59-9.79c.77-5.28,5.23-7.2,5.23-7.2,0,0-4.99-1.78-4.18-7.54.82-5.86,6.19-10.32,17.43-10.32s15.26,4.46,14.45,10.32ZM314.01,310.72c0-1.78-1.68-3.5-7.39-3.5-6.67,0-8.45,2.16-8.45,4.22,0,1.82,1.63,3.65,7.34,3.65,6.72,0,8.5-2.35,8.5-4.37ZM317.75,296.27c0-2.02-1.97-3.89-9.02-3.89-8.16,0-10.18,2.4-10.18,4.61,0,1.97,1.92,4.13,8.93,4.13,8.16,0,10.27-2.69,10.27-4.85Z"/>
    <path class="cls-2" d="M363.06,296.27c0,2.88-1.58,5.71-3.26,8.16l-11.28,16.18h-7.68l8.79-12.48s-1.78.53-5.09.53c-10.08,0-15.41-4.03-15.41-9.98,0-7.25,6.77-12.34,18.58-12.34,10.03,0,15.36,4.03,15.36,9.94ZM355.34,297.04c0-2.59-2.59-4.51-8.5-4.51-6.87,0-9.99,2.35-9.99,5.47,0,2.69,2.64,4.56,8.54,4.56,6.86,0,9.94-2.3,9.94-5.52Z"/>
    <path class="cls-2" d="M373.09,317.01c0,2.26-2.11,4.18-4.42,4.18-1.92,0-3.26-1.49-3.26-3.31,0-2.3,2.02-4.22,4.32-4.22,1.92,0,3.36,1.54,3.36,3.36ZM368.87,286.86c6.38,0,10.51,3.22,10.51,8.74,0,6.72-5.18,8.5-5.95,12.38l-.58,2.93h-5.57l.24-2.93c.82-5.95,4.94-6.1,4.94-10.51,0-2.5-1.87-4.03-4.51-4.03l.91-6.58Z"/>
    <path class="cls-2" d="M401.65,320.61v-8.45h-13.39v8.45h-6.72v-20.74c0-8.07,5.62-13.58,13.39-13.58s13.44,5.52,13.44,13.58v20.74h-6.72ZM388.26,305.92h13.39v-6.05c0-4.22-2.64-6.86-6.72-6.86s-6.67,2.64-6.67,6.86v6.05Z"/>
    <path class="cls-2" d="M428.97,286.86c5.76,0,10.42,4.7,10.42,10.42,0,2.88-1.2,5.23-3.12,6.82,1.49,1.54,2.45,3.65,2.45,6.14,0,5.67-4.7,10.37-10.46,10.37h-12.77v-33.75h13.49ZM422.2,300.97h6.77c2.06,0,3.7-1.73,3.7-3.7s-1.68-3.7-3.7-3.7h-6.77v7.39ZM422.2,313.89h6.05c2.02,0,3.7-1.73,3.7-3.7s-1.68-3.7-3.7-3.7h-6.05v7.39Z"/>
    <path class="cls-2" d="M464.1,293.34h-3.89c-6.62,0-10.66,4.56-10.66,10.32s4.03,10.46,10.71,10.46h3.89v6.48h-3.89c-10.46,0-17.47-7.3-17.47-16.95s6.96-16.8,17.19-16.8h4.13v6.48Z"/>
    <path class="cls-2" d="M478.6,286.86c9.7,0,17.47,7.3,17.47,16.9s-7.78,16.85-17.47,16.85h-9.02v-33.75h9.02ZM476.29,314.13h2.3c5.95,0,10.75-4.51,10.75-10.37s-4.85-10.42-10.75-10.42h-2.3v20.79Z"/>
    <path class="cls-2" d="M519.35,286.86v6.48h-11.57v7.49h10.94v6.24h-10.94v7.06h11.57v6.48h-18.29v-33.75h18.29Z"/>
    <path class="cls-2" d="M543.59,286.86v6.48h-11.57v7.49h10.94v6.24h-10.94v13.54h-6.72v-33.75h18.29Z"/>
    <path class="cls-2" d="M569.36,293.34h-4.94c-6.62,0-10.66,4.56-10.66,10.32s4.03,10.46,10.71,10.46h.1v-10.37h6.1v16.85h-6.19c-10.46,0-17.47-7.3-17.47-16.95s6.96-16.8,17.19-16.8h5.18v6.48Z"/>
    <path class="cls-2" d="M583.19,286.86v13.97h14.64v-13.97h6.72v33.75h-6.72v-13.54h-14.64v13.54h-6.72v-33.75h6.72Z"/>
    <path class="cls-2" d="M618.37,286.86v33.75h-6.72v-33.75h6.72Z"/>
    <path class="cls-2" d="M634.55,286.86l.05,22.32c0,6.29-4.9,11.42-11.28,11.42v-6.72c2.59,0,4.51-2.11,4.51-4.7v-22.32h6.72Z"/>
    <path class="cls-2" d="M648.13,286.86v13.54l11.57-13.54h8.16l-13.68,16.22,13.58,17.52h-8.59l-9.5-12.58-1.54,1.78v10.8h-6.72v-33.75h6.72Z"/>
    <path class="cls-2" d="M677.41,286.86v27.27h11.09v6.48h-17.81v-33.75h6.72Z"/>
    <path class="cls-2" d="M694.93,286.86l14.35,14.88,14.35-14.88h2.11v33.75h-6.72v-19.11l.1-.58-9.36,9.99h-.96l-9.41-9.99.14.58v19.11h-6.72v-33.75h2.11Z"/>
    <path class="cls-2" d="M733.81,286.86l20.4,19.11v-19.11h6.72v33.75h-.96l-20.4-19.11v19.11h-6.72v-33.75h.96Z"/>
    <path class="cls-2" d="M800.91,303.76c0,9.6-7.83,17.43-17.47,17.43s-17.52-7.87-17.52-17.43,7.87-17.47,17.52-17.47,17.47,7.92,17.47,17.47ZM772.64,303.81c0,5.86,4.85,10.66,10.75,10.66s10.8-4.8,10.8-10.71-4.85-10.75-10.8-10.75-10.75,4.9-10.75,10.8Z"/>
    <path class="cls-2" d="M816.03,286.86c8.11,0,13.83,6.19,13.83,13.3s-5.67,13.15-13.59,13.35h-3.65v7.1h-6.72v-33.75h10.13ZM812.62,306.78h3.6c3.79,0,6.91-2.79,6.91-6.58s-3.12-6.62-6.91-6.62h-3.6v13.2Z"/>
    <path class="cls-2" d="M867.59,303.71c0,8.45-6.1,15.6-14.11,17.14l-.05,5.57h-6.72l.05-5.57c-8.11-1.54-14.16-8.69-14.16-17.09,0-9.6,7.87-17.47,17.52-17.47s17.47,7.92,17.47,17.43ZM839.31,303.81c0,4.66,3.12,8.69,7.39,10.13v-6.58h6.72v6.58c4.32-1.44,7.44-5.47,7.44-10.18,0-5.9-4.85-10.75-10.8-10.75s-10.75,4.9-10.75,10.8Z"/>
    <path class="cls-2" d="M882.7,286.86c8.11,0,13.83,6.19,13.83,13.3,0,4.42-2.21,8.5-5.81,10.95l.72,1.1c1.06,1.58,2.4,1.92,4.56,1.92v6.48c-5.42,0-7.44-.96-9.75-4.56l-1.68-2.64c-.53.05-1.1.1-1.63.1h-3.65v7.1h-6.72v-33.75h10.13ZM879.29,306.78h3.6c3.79,0,6.91-2.79,6.91-6.58s-3.12-6.62-6.91-6.62h-3.6v13.2Z"/>
    <path class="cls-2" d="M917.12,293.53h-3.55c-2.64,0-3.65,1.49-3.65,3.22,0,3.41,5.47,8.83,5.47,14.45s-3.74,9.41-10.8,9.41h-4.66v-6.72h3.02c2.83,0,4.71-1.25,4.71-3.74,0-3.5-5.42-9.12-5.42-14.79,0-5.09,3.74-8.5,10.03-8.5h4.85v6.67Z"/>
    <path class="cls-2" d="M942.89,286.86v6.48h-8.11v27.27h-6.72v-27.27h-8.11v-6.48h22.95Z"/>
    <path class="cls-2" d="M954.03,286.86v20.3c0,4.03,3.26,7.3,7.3,7.3s7.34-3.26,7.34-7.3v-20.3h6.72v20.3c0,7.78-6.24,14.02-14.07,14.02s-14.02-6.24-14.02-14.02v-20.3h6.72Z"/>
    <path class="cls-2" d="M985.09,286.86l8.64,20.02,8.64-20.02h7.01l-15.17,33.75h-.96l-15.17-33.75h7.01Z"/>
    <path class="cls-2" d="M1040.58,320.61l-9.46-19.39-9.46,19.39h-2.83l-9.41-33.75h6.77l5.23,19.01,9.22-19.01h.96l9.22,19.01,5.23-19.01h6.77l-9.41,33.75h-2.83Z"/>
    <path class="cls-2" d="M1061.02,286.86l7.87,11.86,7.82-11.86h7.63l-11.23,16.9,11.23,16.85h-7.54l-7.92-11.9-7.92,11.9h-7.54l11.19-16.85-11.19-16.9h7.58Z"/>
    <path class="cls-2" d="M1112.81,286.86v9.79c0,6.86-4.08,11.86-10.03,13.25v10.71h-6.72v-10.71c-6.05-1.34-10.08-6.38-10.08-13.25v-9.79h6.72v9.79c0,4.22,2.64,6.86,6.72,6.86s6.67-2.64,6.67-6.86v-9.79h6.72Z"/>
    <path class="cls-2" d="M1151.12,303.76c0,9.6-7.83,17.43-17.47,17.43s-17.52-7.87-17.52-17.43,7.87-17.47,17.52-17.47,17.47,7.92,17.47,17.47ZM1122.84,303.81c0,5.86,4.85,10.66,10.75,10.66s10.8-4.8,10.8-10.71-4.85-10.75-10.8-10.75-10.75,4.9-10.75,10.8Z"/>
    <path class="cls-2" d="M1166.19,286.86v33.75h-6.72v-27.51h-5.28v-6.24h12Z"/>
    <path class="cls-2" d="M1170.31,292.38s3.26-6.1,10.8-6.1c6.87,0,11.19,5.42,11.19,11.33,0,2.06-.58,4.66-2.5,7.25l-6.62,9.02h9.03v6.72h-20.45l-.05-2.54,12.05-16.42c.96-1.3,1.58-2.11,1.58-3.84,0-2.88-2.26-4.8-4.51-4.8s-3.79.91-5.28,3.26l-5.23-3.89Z"/>
    <path class="cls-2" d="M1196.18,291.47s2.4-5.18,9.31-5.18c6.24,0,10.66,5.14,10.66,10.85,0,2.88-1.1,5.47-3.22,7.2,1.97,1.63,3.26,3.94,3.26,6.82,0,5.43-4.46,10.03-10.18,10.03-6.77,0-9.46-5.09-9.46-5.09l4.75-4.22s1.58,2.54,4.46,2.54c2.54,0,3.74-1.63,3.74-3.46,0-1.92-1.39-3.46-3.74-3.46h-2.16l.05-6.29h1.63c2.59,0,4.08-1.78,4.08-4.03s-1.58-4.13-4.13-4.13c-3.02,0-4.22,2.69-4.22,2.69l-4.85-4.27Z"/>
    <path class="cls-2" d="M1239.82,286.86v21.27h4.51v6.24h-4.51v6.24h-6.72v-6.24h-13.78v-3.98l16.03-23.52h4.46ZM1227.72,308.51h5.38v-8.88l-5.38,8.88Z"/>
    <path class="cls-2" d="M1265.45,286.86v6.24h-9.22l-.67,6.91h1.2c7.1,0,10.9,4.32,10.9,10.13s-4.42,11.04-10.66,11.04c-6.67,0-9.41-5.09-9.41-5.09l4.75-4.22s1.73,2.54,4.51,2.54c2.4,0,4.08-1.87,4.08-4.03,0-2.35-1.78-4.13-4.66-4.13h-6.91v-3.02l1.58-16.37h14.5Z"/>
    <path class="cls-2" d="M1289.64,286.86l-6.24,11.09c6.14.38,10.99,5.43,10.99,11.57s-5.23,11.66-11.71,11.66-11.67-5.28-11.67-11.52c0-2.35.77-4.42,1.82-6.29l9.07-16.51h7.73ZM1282.73,314.46c2.69,0,4.9-2.21,4.9-4.94s-2.21-4.9-4.9-4.9-4.99,2.21-4.99,4.9,2.26,4.94,4.99,4.94Z"/>
    <path class="cls-2" d="M97.65,335.86l-11.95,33.75h-7.1l9.74-27.51h-10.08v-6.24h19.39Z"/>
    <path class="cls-2" d="M99.71,346.13c0-5.95,4.85-10.85,10.85-10.85s10.85,4.9,10.85,10.85c0,3.12-1.39,5.76-3.65,7.39,1.82,1.63,2.88,3.98,2.88,6.62,0,5.47-4.51,10.03-10.08,10.03s-10.13-4.51-10.13-10.08c0-2.64,1.06-4.95,2.83-6.58-2.16-1.68-3.55-4.22-3.55-7.39ZM106.43,346.13c0,2.26,1.87,4.08,4.13,4.08s4.13-1.82,4.13-4.08-1.92-4.13-4.13-4.13-4.13,1.87-4.13,4.13ZM107.1,360.01c0,1.92,1.49,3.46,3.41,3.46s3.55-1.54,3.55-3.46-1.63-3.5-3.5-3.5c-1.97,0-3.46,1.63-3.46,3.5Z"/>
    <path class="cls-2" d="M136,358.14s-.29.05-.62.05c-5.95,0-10.56-5.09-10.56-11.19s5.23-11.71,11.67-11.71,11.71,5.33,11.71,11.52c0,2.35-.82,4.42-1.87,6.29l-9.07,16.51h-7.68l6.43-11.47ZM131.58,346.95c0,2.69,2.21,4.9,4.9,4.9s4.99-2.21,4.99-4.9-2.26-4.94-4.99-4.94-4.9,2.21-4.9,4.94Z"/>
    <path class="cls-2" d="M152.7,335.86c6.96,0,11.81,3.7,11.81,10.08,0,5.67-4.13,7.49-4.32,11.04l-.14,2.93h-5.57l-.14-2.93c-.05-5.52,3.46-6.05,3.46-9.89,0-2.88-2.21-4.66-5.09-4.66v-6.58ZM161.15,366.44c0,2.06-1.73,3.74-3.84,3.74s-3.75-1.68-3.75-3.74,1.63-3.79,3.75-3.79,3.84,1.73,3.84,3.79Z"/>
    <path class="cls-2" d="M169.89,369.61v-23.47c0-6.43,2.98-10.75,9.26-10.75s9.31,4.32,9.31,10.75v23.47h-6.72v-8.16h-5.14v8.16h-6.72ZM176.61,355.21h5.14v-9.12c0-2.88-1.01-4.08-2.59-4.08s-2.54,1.2-2.54,4.08v9.12Z"/>
    <path class="cls-2" d="M201.66,335.86c5.76,0,10.42,4.66,10.42,10.42,0,3.07-1.3,5.28-3.36,6.67,1.54,1.54,2.5,3.65,2.5,6.24,0,5.76-4.66,10.42-10.42,10.42h-7.1v-33.75h7.97ZM200.41,349.97h1.25c2.02,0,3.7-1.68,3.7-3.7s-1.68-3.7-3.7-3.7h-1.25v7.39ZM200.41,362.89h.38c2.02,0,3.7-1.68,3.7-3.7s-1.68-3.7-3.7-3.7h-.38v7.39Z"/>
    <path class="cls-2" d="M228.83,342.49c-4.95,0-7.34,3.41-7.34,10.27s2.4,10.23,7.34,10.23v6.62c-9.79,0-14.07-7.2-14.07-16.85s4.42-16.9,14.07-16.9v6.62Z"/>
    <path class="cls-2" d="M237.76,335.86c8.06,0,13.87,5.71,13.87,16.9s-5.81,16.85-13.87,16.85h-4.85v-33.75h4.85ZM239.63,362.46h.58c2.45,0,4.7-2.88,4.7-9.74s-2.26-9.7-4.7-9.7h-.58v19.44Z"/>
    <path class="cls-2" d="M268.24,335.86v6.48h-6v7.25h6v6.24h-6v7.3h6v6.48h-12.72v-33.75h12.72Z"/>
    <path class="cls-2" d="M285.47,335.86v6.48h-6v7.25h6v6.24h-6v13.78h-6.72v-33.75h12.72Z"/>
    <path class="cls-2" d="M295.6,352.76c0,4.99,1.25,8.11,3.84,9.46v-9.46h6.24v16.85h-2.74c-9.79,0-14.07-7.2-14.07-16.85s4.42-16.9,14.07-16.9h2.3v6.62h-2.3c-4.95,0-7.34,3.41-7.34,10.27Z"/>
    <path class="cls-2" d="M316.81,335.86v13.78h6.1v-13.78h6.72v33.75h-6.72v-13.73h-6.1v13.73h-6.72v-33.75h6.72Z"/>
    <path class="cls-2" d="M341.34,335.86v33.75h-6.72v-33.75h6.72Z"/>
    <path class="cls-2" d="M356.17,335.86v22.32c0,6.29-4.9,11.42-11.28,11.42v-6.72c2.59,0,4.56-2.11,4.56-4.7v-22.32h6.72Z"/>
    <path class="cls-2" d="M367.69,335.86v13.34l5.09-13.34h7.73l-6.67,15.75,6.62,18h-7.82l-4.22-12.05-.72,1.78v10.27h-6.72v-33.75h6.72Z"/>
    <path class="cls-2" d="M390.11,335.86v27.27h6v6.48h-12.72v-33.75h6.72Z"/>
    <path class="cls-2" d="M401.96,335.86l8.59,14.16,8.88-14.16h2.4v33.75h-6.24v-17.47l-4.51,8.5h-1.06l-4.22-8.5v17.47h-6.24v-33.75h2.4Z"/>
    <path class="cls-2" d="M427.78,335.86l11.57,16.22v-16.22h6.24v33.75h-.96l-11.57-16.22v16.22h-6.24v-33.75h.96Z"/>
    <path class="cls-2" d="M459.61,370.14c-6.05,0-9.99-5.66-9.99-17.42s3.89-17.33,9.99-17.33,10.03,5.71,10.03,17.33-3.89,17.42-10.03,17.42ZM459.61,363.51c1.87,0,3.31-2.64,3.31-10.8s-1.44-10.71-3.31-10.71-3.26,2.59-3.26,10.71,1.44,10.8,3.26,10.8Z"/>
    <path class="cls-2" d="M480.39,335.86c7.54,0,11.9,6.43,11.9,13.34s-4.37,12.87-11.9,13.3v7.1h-6.72v-33.75h6.72ZM480.39,355.78c3.12,0,5.18-2.69,5.18-6.58s-2.06-6.62-5.18-6.62v13.2Z"/>
    <path class="cls-2" d="M508.38,369.46l.14,5.18h-6.72l.1-5.04c-4.27-1.68-6.91-7.25-6.91-16.9,0-11.62,3.89-17.33,9.98-17.33s10.03,5.71,10.03,17.33c0,9.41-2.5,14.88-6.62,16.75ZM504.97,363.51c1.87,0,3.31-2.64,3.31-10.8s-1.44-10.71-3.31-10.71-3.26,2.59-3.26,10.71,1.44,10.8,3.26,10.8Z"/>
    <path class="cls-2" d="M525.75,335.86c7.54,0,11.91,6.43,11.91,13.34,0,4.13-1.58,7.87-4.46,10.27l1.39,2.21c.62,1.06,1.2,1.39,2.4,1.44v6.48c-4.37,0-6.34-.91-7.68-3.46l-2.16-3.98c-.43.1-.91.14-1.39.14v7.3h-6.72v-33.75h6.72ZM525.75,355.78c3.12,0,5.18-2.69,5.18-6.58s-2.06-6.62-5.18-6.62v13.2Z"/>
    <path class="cls-2" d="M555.42,335.86v6.48h-1.97c-2.59,0-3.55,1.63-3.55,3.5,0,3.31,3.46,8.74,3.46,13.83,0,6.1-3.74,9.94-10.71,9.94h-2.69v-6.48h1.73c2.78,0,4.46-1.34,4.46-4.08,0-3.31-3.41-8.98-3.41-14.59,0-5.23,3.74-8.59,9.99-8.59h2.69Z"/>
    <path class="cls-2" d="M574.62,335.86v6.48h-5.23v27.27h-6.72v-27.27h-5.23v-6.48h17.18Z"/>
    <path class="cls-2" d="M584.65,335.86v21.22c0,4.8.91,6.43,2.54,6.43s2.59-1.63,2.59-6.43v-21.22h6.72v21.07c0,8.35-3.02,13.2-9.31,13.2s-9.26-4.85-9.26-13.2v-21.07h6.72Z"/>
    <path class="cls-2" d="M605.81,335.86l3.31,14.4.62,5.76.62-5.76,3.31-14.4h7.34l-10.32,33.75h-1.92l-10.23-33.75h7.25Z"/>
    <path class="cls-2" d="M627.8,335.86l2.59,11.95.38,3.36,4.27-15.31h1.87l4.22,15.31.38-3.36,2.59-11.95h7.34l-9.84,33.75h-1.44l-4.32-16.71-4.13,16.71h-1.44l-9.74-33.75h7.25Z"/>
    <path class="cls-2" d="M659.28,335.86l2.5,11.23,2.54-11.23h7.34l-5.47,16.9,5.47,16.85h-7.34l-2.54-11.18-2.5,11.18h-7.34l5.47-16.85-5.47-16.9h7.34Z"/>
    <path class="cls-2" d="M680.31,335.86v8.5c0,3.7.91,4.99,2.54,4.99s2.59-1.29,2.59-4.99v-8.5h6.72v7.73c0,6.72-1.97,10.61-5.95,11.9v14.11h-6.72v-14.11c-3.98-1.29-5.9-5.18-5.9-11.9v-7.73h6.72Z"/>
    <path class="cls-2" d="M705.08,370.14c-6.05,0-9.98-5.66-9.98-17.42s3.89-17.33,9.98-17.33,10.03,5.71,10.03,17.33-3.89,17.42-10.03,17.42ZM705.08,363.51c1.87,0,3.31-2.64,3.31-10.8s-1.44-10.71-3.31-10.71-3.26,2.59-3.26,10.71,1.44,10.8,3.26,10.8Z"/>
    <path class="cls-2" d="M727.78,335.86v33.75h-6.72v-27.51h-2.88v-6.24h9.6Z"/>
    <path class="cls-2" d="M730.95,341.72c1.68-3.65,4.42-6.34,9.36-6.34,5.52,0,9.46,4.27,9.46,9.07,0,3.12-.58,5.33-3.02,9.65l-4.7,8.78h7.58v6.72h-17.38v-2.06l9.17-16.9c1.06-1.97,1.3-3.02,1.3-4.51,0-2.3-1.15-3.94-2.93-3.94s-2.78,1.2-3.65,3.36l-5.18-3.84Z"/>
    <path class="cls-2" d="M769.35,352.9s2.4,1.92,2.4,7.34c0,5.76-3.94,9.94-9.46,9.94-4.94,0-7.68-2.69-9.36-6.34l5.18-3.84c1.1,2.35,1.78,3.36,3.65,3.36s2.93-1.34,2.93-3.65-.62-3.22-2.21-3.22h-1.92v-6.29h1.92c1.58,0,2.21-1.39,2.21-4.08,0-2.3-1.15-3.94-2.93-3.94-1.68,0-2.69,1.01-3.65,3.36l-5.18-3.84c1.68-3.65,4.42-6.34,9.36-6.34,5.52,0,9.46,4.03,9.46,9.94,0,5.23-2.4,7.58-2.4,7.58Z"/>
    <path class="cls-2" d="M792.92,335.86v21.75h3.07v6.24h-3.07v5.76h-6.72v-5.76h-11.86v-3.98l13.63-24h4.94ZM781.78,357.99h4.42v-8.88l-4.42,8.88Z"/>
    <path class="cls-2" d="M799.54,355.06v-2.83l1.01-16.37h14.4v6.24h-8.79l-.34,6.67h1.87c6.53,0,9.26,3.84,9.26,10.61,0,6.29-3.94,10.8-9.46,10.8-4.94,0-7.3-2.69-8.98-6.34l5.18-3.84c.82,2.16,1.58,3.36,3.46,3.36s2.74-1.44,2.74-4.03c0-2.93-1.15-4.27-3.12-4.27h-7.25Z"/>
    <path class="cls-2" d="M829.49,370.18c-5.47,0-9.99-4.8-9.99-11.66,0-2.26.67-4.51,1.44-6.43l6.43-16.22h7.06l-4.51,11.47s.24-.05.53-.05c5.04,0,8.98,4.56,8.98,11.23s-4.42,11.66-9.94,11.66ZM829.49,363.46c1.82,0,3.22-1.73,3.22-4.94s-1.39-4.9-3.22-4.9-3.26,1.73-3.26,4.9,1.39,4.94,3.26,4.94Z"/>
    <path class="cls-2" d="M858.77,335.86l-9.6,33.75h-7.11l7.83-27.51h-8.16v-6.24h17.04Z"/>
    <path class="cls-2" d="M860.5,345.89c0-6,3.5-10.61,9.5-10.61s9.55,4.61,9.55,10.61c0,3.22-.82,5.52-2.88,7.63,1.39,2.06,2.11,3.89,2.11,6.58,0,5.57-3.22,10.08-8.79,10.08s-8.78-4.51-8.78-10.08c0-2.69.53-4.51,2.11-6.58-2.02-2.11-2.83-4.42-2.83-7.63ZM867.22,346.13c0,2.26,1.01,4.08,2.78,4.08s2.83-1.82,2.83-4.08-1.06-4.13-2.83-4.13-2.78,1.87-2.78,4.13ZM867.84,360.01c0,1.92.72,3.46,2.16,3.46s2.21-1.54,2.21-3.46-.77-3.5-2.21-3.5-2.16,1.58-2.16,3.5Z"/>
    <path class="cls-2" d="M892.08,335.38c5.47,0,9.99,4.71,9.99,11.57,0,2.26-.67,4.51-1.44,6.43l-6.43,16.22h-7.06l4.51-11.47s-.24.05-.53.05c-5.04,0-8.98-4.56-8.98-11.23s4.42-11.57,9.94-11.57ZM892.08,342.01c-1.82,0-3.22,1.73-3.22,4.94s1.39,4.9,3.22,4.9,3.26-1.73,3.26-4.9-1.39-4.94-3.26-4.94Z"/>
    <path class="cls-2" d="M904.99,335.86c6.96,0,11.76,3.65,11.76,10.13,0,5.62-4.13,7.44-4.32,10.99l-.14,2.93h-5.52l-.19-2.93c0-5.47,3.46-6.05,3.46-10.08,0-2.74-2.16-4.46-5.04-4.46v-6.58ZM913.39,366.44c0,2.11-1.68,3.74-3.79,3.74s-3.74-1.63-3.74-3.74,1.63-3.79,3.74-3.79,3.79,1.68,3.79,3.79Z"/>
    <path class="cls-2" d="M974.31,369.61v-9.74h-48.48v9.74h-3.65v-16.71c0-9.6,7.39-17.04,18.67-17.04h18.43c11.28,0,18.67,7.44,18.67,17.04v16.71h-3.65ZM925.82,356.31h48.48v-3.41c0-7.58-6-13.39-15.03-13.39h-18.43c-9.03,0-15.03,5.81-15.03,13.39v3.41Z"/>
    <path class="cls-2" d="M1032.43,335.86c6.82,0,11.33,4.08,11.33,9.5,0,3.84-1.87,6.62-5.9,7.87,3.22,1.2,4.75,3.65,4.75,6.91,0,5.47-4.27,9.46-11.33,9.46h-44.55v-33.75h45.7ZM990.38,351.22h41.96c4.99,0,7.68-2.45,7.68-5.86s-2.88-5.86-7.68-5.86h-41.96v11.71ZM990.38,365.96h40.85c4.99,0,7.63-2.3,7.63-5.71s-2.83-5.47-7.63-5.47h-40.85v11.18Z"/>
    <path class="cls-2" d="M1104.29,335.86v3.65h-37.64c-9.22,0-14.83,5.42-14.83,13.25s5.62,13.2,14.83,13.2h37.64v3.65h-37.64c-11.47,0-18.48-7.01-18.48-16.85s7.01-16.9,18.48-16.9h37.64Z"/>
    <path class="cls-2" d="M1155.41,335.86c9.6,0,17.33,7.39,17.33,16.9s-7.73,16.85-17.33,16.85h-44.84v-33.75h44.84ZM1114.22,366.1h41.19c7.58,0,13.68-5.86,13.68-13.35s-6.1-13.34-13.68-13.34h-41.19v26.69Z"/>
    <path class="cls-2" d="M1229.19,335.86v3.65h-46.18v11.71h46.18v3.55h-46.18v11.18h46.18v3.65h-49.83v-33.75h49.83Z"/>
    <path class="cls-2" d="M1286.55,335.86v3.65h-46.18v11.71h46.18v3.55h-46.18v14.83h-3.65v-33.75h49.83Z"/>
    <path class="cls-2" d="M123.52,384.86v3.65h-37.64c-9.22,0-14.83,5.42-14.83,13.25s5.62,13.2,14.83,13.2h33.99v-13.2h3.65v16.85h-37.64c-11.47,0-18.48-7.01-18.48-16.85s7.01-16.9,18.48-16.9h37.64Z"/>
    <path class="cls-2" d="M191.73,418.61h-3.65v-14.79h-53.28v14.79h-3.65v-33.75h3.65v15.36h53.28v-15.36h3.65v33.75Z"/>
    <path class="cls-2" d="M249.86,384.86v3.55h-24.05v26.69h24.05v3.5h-51.8v-3.5h24.1v-26.69h-24.1v-3.55h51.8Z"/>
    <path class="cls-2" d="M252.68,414.96h29.43c9.07,0,15.03-6,15.03-13.87v-16.22h3.65v16.22c0,9.89-7.34,17.52-18.67,17.52h-29.43v-3.65Z"/>
    <path class="cls-2" d="M312.73,418.61h-3.65v-33.75h3.65v15.07l45.56-15.07h9.26l-48.48,16.27,48.48,17.47h-9.26l-44.26-15.79-1.3.43v15.36Z"/>
    <path class="cls-2" d="M376.14,384.86v30.1h45.36v3.65h-49.01v-33.75h3.65Z"/>
    <path class="cls-2" d="M428.27,384.86l35.71,18.62,35.19-18.62h1.34v33.75h-3.6v-28.08l-32.36,16.9h-1.15l-32.88-16.9v28.08h-3.55v-33.75h1.3Z"/>
    <path class="cls-2" d="M510.06,384.86l55.49,28.37v-28.37h3.65v33.75h-.53l-55.49-28.37v28.37h-3.65v-33.75h.53Z"/>
    <path class="cls-2" d="M594.11,418.61c-11.47,0-18.29-7.01-18.29-16.85s6.82-16.9,18.29-16.9h29.28c11.47,0,18.29,7.06,18.29,16.9s-6.82,16.85-18.29,16.85h-29.28ZM623.39,414.96c9.22,0,14.64-5.38,14.64-13.2s-5.42-13.25-14.64-13.25h-29.28c-9.22,0-14.64,5.42-14.64,13.25s5.42,13.2,14.64,13.2h29.28Z"/>
    <path class="cls-2" d="M690.06,384.86c8.5,0,14.3,5.81,14.3,13.01s-5.81,12.91-14.3,12.91h-38.12v7.82h-3.65v-33.75h41.76ZM651.95,407.23h38.12c6.58,0,10.56-4.18,10.56-9.36s-3.98-9.36-10.56-9.36h-38.12v18.72Z"/>
    <path class="cls-2" d="M743,418.61v5.81h-3.65v-5.81h-12.82c-11.47,0-18.29-7.01-18.29-16.85s6.82-16.9,18.29-16.9h29.28c11.47,0,18.29,7.06,18.29,16.9s-6.82,16.85-18.29,16.85h-12.82ZM743,414.96h12.82c9.22,0,14.64-5.38,14.64-13.2s-5.42-13.25-14.64-13.25h-29.28c-9.22,0-14.64,5.42-14.64,13.25s5.42,13.2,14.64,13.2h12.82v-5.04h3.65v5.04Z"/>
    <path class="cls-2" d="M822.49,384.86c8.5,0,14.3,5.81,14.3,13.01,0,4.18-1.97,7.87-5.23,10.23l3.41,5.52c.62,1.01,1.2,1.34,2.16,1.34h.29v3.65h-.58c-2.21,0-3.5-.77-4.51-2.4l-3.98-6.43c-1.78.62-3.74,1.01-5.86,1.01h-38.12v7.82h-3.65v-33.75h41.76ZM784.38,407.23h38.12c6.58,0,10.56-4.18,10.56-9.36s-3.98-9.36-10.56-9.36h-38.12v18.72Z"/>
    <path class="cls-2" d="M897.18,384.86v3.55h-39.17c-9.17,0-11.67,1.82-11.67,5.09s2.21,4.94,10.18,5.38l28.03,1.54c10.22.58,14.07,3.79,14.07,9.03,0,5.52-4.46,9.17-16.23,9.17h-40.28v-3.55h39.51c9.31,0,12.62-1.92,12.62-5.42,0-3.26-2.3-5.09-11.04-5.57l-27.65-1.49c-9.12-.48-13.39-3.41-13.39-9.02,0-5.18,3.98-8.69,15.6-8.69h39.41Z"/>
    <path class="cls-2" d="M953.77,384.86v3.55h-24.1v30.19h-3.65v-30.19h-24.1v-3.55h51.84Z"/>
    <path class="cls-2" d="M962.65,384.86v16.71c0,7.58,6,13.39,15.02,13.39h18.43c9.03,0,15.03-5.81,15.03-13.39v-16.71h3.65v16.71c0,9.6-7.39,17.04-18.67,17.04h-18.43c-11.28,0-18.67-7.44-18.67-17.04v-16.71h3.65Z"/>
    <path class="cls-2" d="M1023.51,384.86l28.9,26.98,2.5,2.5,2.54-2.5,28.85-26.98h5.28l-36.34,33.75h-.67l-36.29-33.75h5.23Z"/>
    <path class="cls-2" d="M1157.05,418.61l-27.07-29.19-27.03,29.19h-1.3l-9.36-33.75h3.7l7.68,27.79,25.73-27.79h1.15l25.73,27.79,7.68-27.79h3.7l-9.31,33.75h-1.3Z"/>
    <path class="cls-2" d="M1175.81,384.86l29.38,14.93,29.43-14.93h6.87l-32.6,16.85,32.6,16.9h-6.87l-29.43-14.93-29.38,14.93h-6.91l32.59-16.9-32.59-16.85h6.91Z"/>
    <path class="cls-2" d="M1246.9,384.86v5.81c0,7.58,6,12.91,15.03,12.91h18.43c9.03,0,15.03-5.33,15.03-12.91v-5.81h3.65v5.81c0,9.6-7.39,16.56-18.67,16.56h-7.39v11.38h-3.65v-11.38h-7.39c-11.28,0-18.67-6.96-18.67-16.56v-5.81h3.65Z"/>
    <path class="cls-2" d="M99.52,467.61c-11.47,0-18.29-7.01-18.29-16.85s6.82-16.9,18.29-16.9h21.55c11.47,0,18.29,7.06,18.29,16.9s-6.82,16.85-18.29,16.85h-21.55ZM121.07,463.96c9.22,0,14.64-5.38,14.64-13.2s-5.42-13.25-14.64-13.25h-21.55c-9.22,0-14.64,5.42-14.64,13.25s5.42,13.2,14.64,13.2h21.55Z"/>
    <path class="cls-2" d="M182.37,433.86v30.24h12.14v3.5h-50.79v-3.5h35v-26.69h-33.79v-3.55h37.44Z"/>
    <path class="cls-2" d="M198.35,438.33s2.88-4.46,10.95-4.46h30.1c7.73,0,11.18,3.31,11.18,8.16s-2.59,7.58-10.9,10.51l-19.87,6.96c-5.04,1.78-8.83,3.12-11.71,4.46h43.25v3.65h-53.09v-3.6c6.05-2.93,14.07-6.14,21.79-8.79l19.73-6.72c4.42-1.49,6.24-3.12,6.24-6.14s-2.5-4.94-7.15-4.94h-28.8c-4.22,0-7.06,1.3-8.69,3.12l-3.02-2.21Z"/>
    <path class="cls-2" d="M265.65,437.41c-3.98,0-5.95,3.17-5.95,3.17l-2.98-2.26s2.21-4.46,8.54-4.46h33.07c5.47,0,9.55,3.74,9.55,9.26,0,3.6-1.58,6.24-4.46,7.68,2.88,1.3,4.7,3.94,4.7,7.34,0,5.43-4.03,9.46-9.55,9.46h-33.31c-6.34,0-8.54-4.46-8.54-4.46l2.98-2.26s1.97,3.07,5.95,3.07h32.83c3.26,0,6-2.26,6-5.81,0-3.31-2.83-5.38-6.29-5.38h-28.75v-3.55h28.75c3.46,0,6.24-2.5,6.24-5.9s-2.78-5.91-6.24-5.91h-32.55Z"/>
    <path class="cls-2" d="M353.2,433.86h2.5v23.19h11.33v3.41h-11.33v7.15h-3.65v-7.15h-39.36v-2.21l40.52-24.39ZM323.53,457.05h28.51v-19.06l-32.07,19.3,3.55-.24Z"/>
    <path class="cls-2" d="M379.98,467.61c-6.34,0-8.54-4.46-8.54-4.46l2.98-2.26s1.97,3.17,5.95,3.17h31.11c4.46,0,7.3-2.59,7.3-6.29s-2.83-5.9-7.44-5.9h-39.12l1.87-18h45.41v3.55h-42.34l-1.1,10.9h35.43c7.01,0,11.04,3.84,11.04,9.46s-4.03,9.84-10.8,9.84h-31.73Z"/>
    <path class="cls-2" d="M437.97,467.61c-5.81,0-10.61-4.8-10.61-10.61,0-2.02.58-3.79,1.49-5.42l9.84-17.71h4.18l-7.44,13.2c1.06-.43,2.35-.67,4.71-.67h31.15c5.81,0,10.56,4.8,10.56,10.61s-4.75,10.61-10.56,10.61h-33.31ZM437.97,450.09c-3.84,0-6.96,3.12-6.96,6.91s3.12,6.96,6.96,6.96h33.31c3.79,0,6.91-3.12,6.91-6.96s-3.12-6.91-6.91-6.91h-33.31Z"/>
    <path class="cls-2" d="M529.89,433.86l-11.95,33.75h-3.89l10.66-30.19h-44.88v-3.55h50.07Z"/>
    <path class="cls-2" d="M543.28,467.61c-5.23,0-9.31-4.13-9.31-9.07,0-3.12,1.49-5.81,3.98-7.34-2.5-1.25-4.37-4.18-4.37-7.73,0-5.67,4.03-9.6,9.89-9.6h33.08c5.86,0,9.89,3.94,9.89,9.6,0,3.55-1.87,6.48-4.37,7.73,2.5,1.54,3.98,4.22,3.98,7.34,0,4.94-4.08,9.07-9.31,9.07h-33.46ZM576.83,449.37c3.26,0,5.95-2.69,5.95-5.95s-2.5-5.9-5.95-5.9h-33.65c-3.46,0-5.95,2.64-5.95,5.9s2.69,5.95,5.95,5.95h33.65ZM576.88,463.96c3.17,0,5.57-2.69,5.57-5.57s-2.4-5.62-5.57-5.62h-33.75c-3.17,0-5.57,2.74-5.57,5.62s2.4,5.57,5.57,5.57h33.75Z"/>
    <path class="cls-2" d="M635.25,433.86c5.81,0,10.61,4.8,10.61,10.61,0,2.02-.58,3.79-1.49,5.42l-9.84,17.71h-4.18l7.44-13.2c-1.06.43-2.35.67-4.7.67h-31.49c-5.81,0-10.56-4.8-10.56-10.61s4.75-10.61,10.56-10.61h33.65ZM635.25,451.38c3.84,0,6.96-3.12,6.96-6.91s-3.12-6.96-6.96-6.96h-33.65c-3.79,0-6.91,3.12-6.91,6.96s3.12,6.91,6.91,6.91h33.65Z"/>
    <path class="cls-2" d="M668.7,457.91s-.14-2.88-.14-3.12c0-2.64,1.49-4.46,4.99-5.23l11.28-2.45c3.84-.82,5.47-2.54,5.47-5.38s-2.3-4.9-6.34-4.9h-22.37c-4.22,0-7.06,1.29-8.69,3.12l-3.02-2.21s2.88-4.46,10.95-4.46h23.33c6.96,0,10.71,3.26,10.71,8.3s-2.64,7.78-8.35,8.98l-11.14,2.35c-2.5.53-2.93,1.2-2.98,2.79l-.1,2.21h-3.6ZM667.07,465.78c0-1.54.62-2.4,3.31-2.4s3.31.87,3.31,2.4-.62,2.4-3.31,2.4-3.31-.82-3.31-2.4Z"/>
    <path class="cls-2" d="M729.71,464.49h-22.8l-2.3,3.12h-7.63l25.2-33.75h.96l15.65,33.75h-7.63l-1.44-3.12ZM711.52,458.25h15.31l-5.81-12.82-9.5,12.82Z"/>
    <path class="cls-2" d="M773,433.86c5.23,0,9.03,4.13,9.03,9.22,0,3.41-1.78,6.67-5.23,8.5.82,1.15,1.34,2.64,1.34,4.46,0,6.24-5.81,11.57-12.05,11.57h-22.8l4.75-33.75h24.96ZM750.97,460.89h16.08c2.16,0,4.22-1.97,4.22-4.08,0-1.78-1.34-3.31-3.22-3.31h-16.08l-1.01,7.39ZM752.75,447.97h18.24c2.26,0,4.27-1.97,4.27-4.08,0-1.78-1.34-3.31-3.22-3.31h-18.24l-1.06,7.39Z"/>
    <path class="cls-2" d="M820.48,440.34h-15.84c-7.3,0-12.24,5.33-12.24,11.71,0,5.14,3.36,9.07,9.36,9.07h15.84l-.91,6.48h-15.84c-9.46,0-15.27-6.29-15.27-14.79,0-10.46,8.54-18.96,19.73-18.96h16.08l-.91,6.48Z"/>
    <path class="cls-2" d="M846.64,433.86c8.88,0,15.26,6.38,15.26,14.93,0,10.56-9.46,18.82-20.02,18.82h-18.58l4.75-33.75h18.58ZM830.94,461.13h11.86c6.48,0,12.34-5.14,12.34-11.57,0-5.28-4.03-9.22-9.41-9.22h-11.86l-2.93,20.79Z"/>
    <path class="cls-2" d="M901.55,433.86l-.91,6.48h-24.1l-1.06,7.34h23.14l-.86,6.24h-23.14l-1.01,7.2h24.1l-.91,6.48h-30.82l4.75-33.75h30.82Z"/>
    <path class="cls-2" d="M939.42,433.86l-.91,6.48h-24.1l-1.06,7.49h23.14l-.86,6.24h-23.14l-1.92,13.54h-6.72l4.75-33.75h30.82Z"/>
    <path class="cls-2" d="M951.66,433.86l-4.75,33.75h-6.72l4.75-33.75h6.72Z"/>
    <path class="cls-2" d="M952.18,467.61l.91-6.53h12.82c2.59,0,4.8-2.3,5.18-4.9l3.12-22.32h6.77l-3.12,22.32c-.86,6.29-6.48,11.42-12.87,11.42h-12.82Z"/>
    <path class="cls-2" d="M994.52,447.59l20.35-13.73h10.18l-21.94,15.75,17.62,18h-10.56l-13.06-13.78-3.89,2.83-1.54,10.94h-6.72l4.75-33.75h6.72l-1.92,13.73Z"/>
    <path class="cls-2" d="M1035.9,433.86l-3.84,27.27h21.31l-.91,6.48h-28.03l4.75-33.75h6.72Z"/>
    <path class="cls-2" d="M1071.42,433.86l11.28,22.32,17.57-22.32h1.97l5.33,33.75h-6.77l-3.46-20.45-15.75,20.45h-.96l-10.08-20.5-9.12,20.5h-6.77l14.79-33.75h1.97Z"/>
    <path class="cls-2" d="M1118.89,433.86l26.02,21.03,2.98-21.03h6.72l-4.75,33.75h-.96l-26.02-21.03-2.98,21.03h-6.72l4.75-33.75h.96Z"/>
    <path class="cls-2" d="M1200.11,448.55c0,10.56-7.97,19.63-23.09,19.63-12.58,0-18.39-6.77-18.39-15.22,0-10.46,8.06-19.68,23.28-19.68,12.38,0,18.19,6.82,18.19,15.27ZM1165.4,452.2c0,5.18,3.46,9.26,12.58,9.26,11.04,0,15.36-5.71,15.36-12.14,0-5.18-3.46-9.31-12.43-9.31-11.23,0-15.5,5.76-15.5,12.19Z"/>
    <path class="cls-2" d="M1231.11,433.86c7.39,0,12.1,5.42,12.1,11.81,0,7.73-6.96,14.64-15.6,14.83h-15.7l-1.01,7.1h-6.72l4.75-33.75h22.18ZM1212.82,453.78h15.65c4.13,0,7.92-3.17,7.92-7.35,0-3.41-2.59-5.86-6.05-5.86h-15.65l-1.87,13.2Z"/>
    <path class="cls-2" d="M1287.85,448.55c0,7.97-4.61,14.98-13.44,18.1l2.02,4.18h-7.34l-1.3-2.78c-.96.1-1.97.14-3.02.14-12.58,0-18.39-6.77-18.39-15.22,0-10.46,8.06-19.68,23.28-19.68,12.38,0,18.19,6.82,18.19,15.27ZM1271.67,460.74c6.62-1.78,9.41-6.34,9.41-11.42s-3.46-9.31-12.43-9.31c-11.23,0-15.5,5.76-15.5,12.19,0,4.99,3.22,9.02,11.57,9.26l-1.78-3.84h7.3l1.44,3.12Z"/>
    <path class="cls-2" d="M93.33,482.86c7.39,0,12.1,5.42,12.1,11.81,0,5.14-3.12,9.79-7.73,12.58l4.46,9.36h-7.34l-3.41-7.2c-.53.05-1.06.1-1.58.1h-13.3l-1.01,7.1h-6.72l4.75-33.75h19.78ZM77.44,502.78h13.25c4.13,0,7.92-3.17,7.92-7.35,0-3.41-2.59-5.86-6.05-5.86h-13.25l-1.87,13.2Z"/>
    <path class="cls-2" d="M141.95,492.27s-4.13-3.55-12.53-3.55-10.27,1.87-10.27,3.84,2.16,2.88,10.42,3.79c11.33.91,15.41,3.17,15.41,8.69,0,7.54-5.95,12.14-18.48,12.14s-17.19-4.94-17.19-4.94l4.22-5.33s4.51,3.84,14.07,3.84,10.46-1.92,10.46-4.13c0-1.78-1.54-3.07-10.03-3.84-10.95-1.01-15.7-3.55-15.7-9.27,0-6.86,6.1-11.23,18.24-11.23s16.18,4.37,16.18,4.37l-4.8,5.62Z"/>
    <path class="cls-2" d="M187.12,482.86l-.91,6.48h-13.87l-3.84,27.27h-6.72l3.84-27.27h-13.87l.91-6.48h34.47Z"/>
    <path class="cls-2" d="M199.22,482.86l-2.54,18.24c-.77,5.47,2.59,9.36,9.99,9.36s11.81-3.89,12.58-9.36l2.54-18.24h6.77l-2.69,18.72c-1.1,7.78-8.5,15.51-20.16,15.51s-16.9-7.73-15.79-15.51l2.64-18.72h6.67Z"/>
    <path class="cls-2" d="M250.53,505.04l16.42-22.18h7.63l-25.2,33.75h-.96l-15.65-33.75h7.63l10.13,22.18Z"/>
    <path class="cls-2" d="M312.06,516.61l-11.28-22.32-17.57,22.32h-1.97l-5.33-33.75h6.77l3.46,20.45,15.75-20.45h.96l10.08,20.5,9.12-20.5h6.77l-14.79,33.75h-1.97Z"/>
    <path class="cls-2" d="M339.95,482.86l9.5,11.86,12.91-11.86h8.59l-17.95,16.56,14.16,17.19h-8.5l-10.56-12.38-13.73,12.38h-8.5l18.63-17.19-13.11-16.56h8.54Z"/>
    <path class="cls-2" d="M381.13,482.86l9.7,12.72,13.2-12.72h8.26l-18.82,17.86-2.26,15.89h-6.72l2.26-15.89-13.87-17.86h8.26Z"/>
    <path class="cls-2" d="M449.3,482.86l-25.35,27.03h21.07l-.96,6.72h-34.85l25.01-27.03h-20.21l.96-6.72h34.32Z"/>
    <path class="cls-2" d="M491.49,497.55c0,10.56-7.97,19.63-23.09,19.63-12.58,0-18.39-6.77-18.39-15.22,0-10.46,8.06-19.68,23.28-19.68,12.38,0,18.19,6.82,18.19,15.27ZM456.78,501.2c0,5.18,3.46,9.26,12.58,9.26,11.04,0,15.36-5.71,15.36-12.14,0-5.18-3.5-9.31-12.43-9.31-11.28,0-15.5,5.76-15.5,12.19Z"/>
    <path class="cls-2" d="M509.53,482.86l-4.75,33.75h-6.72l3.89-27.51h-7.06l.86-6.24h13.78Z"/>
    <path class="cls-2" d="M511.79,511.14l23.95-15.22c1.54-.96,2.16-1.73,2.16-3.31,0-1.87-2.26-3.55-7.34-3.55s-8.98,1.2-13.06,3.46l-3.22-5.66c4.51-2.69,10.13-4.56,17.57-4.56,9.75,0,14.11,3.6,14.11,8.59s-2.26,7.01-7.25,10.27l-13.39,8.74h18.58l-.96,6.72h-31.92l.77-5.47Z"/>
    <path class="cls-2" d="M547.4,511.57l5.42-4.61s3.5,3.65,11.62,3.65c6.19,0,8.26-2.02,8.26-4.37,0-1.73-1.15-3.12-5.38-3.12h-9.07l.82-5.81h8.69c5.95,0,6.82-2.3,6.82-4.27,0-2.06-2.21-3.98-7.63-3.98-5.04,0-9.84,1.2-12.96,3.17l-3.02-5.38c4.56-2.98,9.94-4.56,17.38-4.56,8.83,0,14.4,4.08,14.4,9.6,0,3.17-1.54,5.91-4.42,8.02,1.73,1.34,2.54,3.26,2.54,5.47,0,6.53-6.19,11.81-17.43,11.81-12.72,0-16.03-5.62-16.03-5.62Z"/>
    <path class="cls-2" d="M615.13,482.86l-3.02,21.27h7.3l-.86,6.24h-7.3l-.86,6.24h-6.72l.86-6.24h-20.5l.58-3.98,26.07-23.52h4.46ZM594.2,504.51h11.14l1.58-11.14-12.72,11.14Z"/>
    <path class="cls-2" d="M656.56,482.86l-.86,6.24h-21.51l-1.63,6.96h10.61c8.4,0,12.34,2.64,12.34,7.97,0,7.25-6.34,13.15-18.53,13.15s-15.17-5.62-15.17-5.62l5.42-4.61s2.98,3.65,11.09,3.65,9.99-2.5,9.99-4.94c0-1.97-1.68-3.41-6.29-3.41h-16.95l.53-3.55,3.74-15.84h27.22Z"/>
    <path class="cls-2" d="M659.67,507.2c0-2.88,1.58-5.71,3.26-8.16l11.28-16.18h7.68l-8.78,12.48s1.78-.53,5.09-.53c10.08,0,15.41,4.03,15.41,9.98,0,7.25-6.77,12.34-18.53,12.34-10.08,0-15.41-4.03-15.41-9.94ZM667.4,506.43c0,2.59,2.64,4.51,8.54,4.51,6.86,0,9.94-2.35,9.94-5.47,0-2.69-2.59-4.56-8.54-4.56-6.82,0-9.94,2.3-9.94,5.52Z"/>
    <path class="cls-2" d="M727.84,482.86l-22.9,33.75h-7.1l19.44-27.51h-21.07l.86-6.24h30.77Z"/>
    <path class="cls-2" d="M762.35,492.61c-.82,5.76-6.29,7.54-6.29,7.54,0,0,3.98,1.92,3.22,7.2-.72,5.18-5.38,9.79-16.27,9.79s-14.3-4.61-13.58-9.79c.77-5.28,5.23-7.2,5.23-7.2,0,0-4.99-1.78-4.18-7.54.82-5.86,6.19-10.32,17.42-10.32s15.27,4.46,14.45,10.32ZM752.32,506.72c0-1.78-1.68-3.5-7.39-3.5-6.67,0-8.45,2.16-8.45,4.22,0,1.82,1.63,3.65,7.34,3.65,6.72,0,8.5-2.35,8.5-4.37ZM756.06,492.27c0-2.02-1.97-3.89-9.02-3.89-8.16,0-10.18,2.4-10.18,4.61,0,1.97,1.92,4.13,8.93,4.13,8.16,0,10.27-2.69,10.27-4.85Z"/>
    <path class="cls-2" d="M801.37,492.27c0,2.88-1.58,5.71-3.26,8.16l-11.28,16.18h-7.68l8.78-12.48s-1.78.53-5.09.53c-10.08,0-15.41-4.03-15.41-9.98,0-7.25,6.77-12.34,18.58-12.34,10.03,0,15.36,4.03,15.36,9.94ZM793.64,493.04c0-2.59-2.59-4.51-8.5-4.51-6.86,0-9.98,2.35-9.98,5.47,0,2.69,2.64,4.56,8.54,4.56,6.86,0,9.94-2.3,9.94-5.52Z"/>
    <path class="cls-2" d="M811.4,513.01c0,2.26-2.11,4.18-4.42,4.18-1.92,0-3.26-1.49-3.26-3.31,0-2.3,2.02-4.22,4.32-4.22,1.92,0,3.36,1.54,3.36,3.36ZM807.18,482.86c6.38,0,10.51,3.22,10.51,8.74,0,6.72-5.18,8.5-5.95,12.38l-.58,2.93h-5.57l.24-2.93c.82-5.95,4.94-6.1,4.94-10.51,0-2.5-1.87-4.03-4.51-4.03l.91-6.58Z"/>
    <path class="cls-2" d="M820.81,516.61v-21.03c0-7.78,5.28-13.2,12.58-13.2s12.62,5.42,12.62,13.2v21.03h-3.65v-11.14h-17.91v11.14h-3.65ZM824.46,501.92h17.91v-6.34c0-5.76-3.65-9.55-8.98-9.55s-8.93,3.79-8.93,9.55v6.34Z"/>
    <path class="cls-2" d="M865.16,482.86c6.05,0,10.22,4.37,10.22,9.74,0,3.65-1.73,6.43-5.14,7.83,2.35,1.25,3.94,3.84,3.94,6.96,0,5.09-4.08,9.22-9.31,9.22h-9.84v-33.75h10.13ZM858.68,498.41h6.67c3.89,0,6.38-2.5,6.38-5.81s-2.5-6.1-6.58-6.1h-6.48v11.9ZM858.68,512.96h6.19c2.98,0,5.66-2.45,5.66-5.57s-2.69-5.42-5.66-5.42h-6.19v10.99Z"/>
    <path class="cls-2" d="M896.89,516.61c-9.94,0-16.9-7.2-16.9-16.85s6.96-16.9,16.9-16.9h2.45v3.65h-2.45c-8.02,0-13.25,5.66-13.25,13.25s5.23,13.25,13.25,13.25h2.45v3.6h-2.45Z"/>
    <path class="cls-2" d="M914.89,482.86c9.6,0,17.33,7.39,17.33,16.9s-7.73,16.85-17.33,16.85h-8.93v-33.75h8.93ZM909.61,513.1h5.28c7.58,0,13.68-5.86,13.68-13.35s-6.1-13.34-13.68-13.34h-5.28v26.69Z"/>
    <path class="cls-2" d="M954.54,482.86v3.55h-12.05v11.52h11.09v3.55h-11.09v11.62h12.05v3.5h-15.7v-33.75h15.7Z"/>
    <path class="cls-2" d="M977.43,482.86v3.55h-12.05v11.52h11.09v3.55h-11.09v15.12h-3.65v-33.75h15.7Z"/>
    <path class="cls-2" d="M1004.65,499.76v16.85h-6.1c-9.94,0-16.9-7.2-16.9-16.85s6.96-16.9,16.9-16.9h5.09v3.65h-5.09c-8.02,0-13.25,5.66-13.25,13.25s5.23,13.25,13.25,13.25h2.45v-13.25h3.65Z"/>
    <path class="cls-2" d="M1015.69,482.86v15.12h19.2v-15.12h3.65v33.75h-3.65v-15.07h-19.2v15.07h-3.65v-33.75h3.65Z"/>
    <path class="cls-2" d="M1051.21,482.86v33.75h-3.65v-33.75h3.65Z"/>
    <path class="cls-2" d="M1066.37,482.86v23.76c0,5.52-4.27,9.89-9.75,9.98v-3.65c3.55-.19,6.1-2.88,6.1-6.34v-23.76h3.65Z"/>
    <path class="cls-2" d="M1078.71,482.86v16.46l16.66-16.46h4.51l-16.08,16.32,15.46,17.42h-4.75l-13.2-14.74-2.59,2.5v12.24h-3.65v-33.75h3.65Z"/>
    <path class="cls-2" d="M1107.22,482.86v30.19h12.24v3.55h-15.89v-33.75h3.65Z"/>
    <path class="cls-2" d="M1126.56,482.86l14.54,19.06,14.35-19.06h1.68v33.75h-3.65v-24.24l.05-.62-12.1,15.89h-.67l-12.1-15.89.05.62v24.24h-3.65v-33.75h1.49Z"/>
    <path class="cls-2" d="M1166.69,482.86l22.56,25.2v-25.2h3.65v33.75h-.53l-22.56-25.2v25.2h-3.65v-33.75h.53Z"/>
    <path class="cls-2" d="M1216.85,482.33c9.65,0,17.43,7.83,17.43,17.42s-7.78,17.38-17.43,17.38-17.38-7.73-17.38-17.38,7.73-17.42,17.38-17.42ZM1216.85,513.54c7.63,0,13.78-6.14,13.78-13.78s-6.14-13.78-13.78-13.78-13.73,6.19-13.73,13.78,6.1,13.78,13.73,13.78Z"/>
    <path class="cls-2" d="M1247.76,482.86c7.2,0,13.01,5.81,13.01,13.01s-5.81,13.01-13.01,13.01h-3.22v7.73h-3.65v-33.75h6.86ZM1244.55,505.23h3.22c5.18,0,9.36-4.18,9.36-9.36s-4.18-9.36-9.36-9.36h-3.22v18.72Z"/>
    <path class="cls-2" d="M1282.18,482.33c9.65,0,17.43,7.83,17.43,17.42,0,9.03-6.82,16.37-15.6,17.28v4.61h-3.65v-4.61c-8.79-.91-15.55-8.26-15.55-17.28,0-9.6,7.73-17.42,17.38-17.42ZM1280.36,513.44v-5.04h3.65v5.04c6.77-.91,11.95-6.67,11.95-13.68,0-7.58-6.14-13.78-13.78-13.78s-13.73,6.19-13.73,13.78c0,7.01,5.14,12.77,11.91,13.68Z"/>
    <path class="cls-2" d="M103.94,531.86c7.2,0,13.01,5.81,13.01,13.01,0,4.03-1.82,7.63-4.71,10.03l3.46,5.67c.67,1.1,1.34,1.44,2.69,1.54v3.5c-3.12,0-4.32-.86-5.62-2.93l-3.74-5.86c-1.54.67-3.26,1.06-5.09,1.06h-3.22v7.73h-3.65v-33.75h6.86ZM100.72,554.23h3.22c5.18,0,9.36-4.18,9.36-9.36s-4.18-9.36-9.36-9.36h-3.22v18.72Z"/>
    <path class="cls-2" d="M136.82,531.86v3.55h-3.79c-2.88,0-4.71,1.54-4.71,4.32,0,5.28,7.1,10.8,7.1,17.47,0,4.95-3.22,8.4-8.54,8.4h-5.42v-3.55h4.32c3.22,0,5.52-1.78,5.52-5.18,0-5.04-7.1-10.61-7.1-17.57,0-4.42,3.02-7.44,7.49-7.44h5.14Z"/>
    <path class="cls-2" d="M160.1,531.86v3.55h-8.21v30.19h-3.65v-30.19h-8.21v-3.55h20.07Z"/>
    <path class="cls-2" d="M169.17,531.86v21.03c0,5.76,3.65,9.55,8.93,9.55s8.98-3.79,8.98-9.55v-21.03h3.65v21.03c0,7.78-5.28,13.2-12.63,13.2s-12.58-5.42-12.58-13.2v-21.03h3.65Z"/>
    <path class="cls-2" d="M198.78,531.86l11.23,26.59,11.33-26.59h3.79l-14.74,33.75h-.77l-14.69-33.75h3.84Z"/>
    <path class="cls-2" d="M257.59,565.61l-10.32-25.3-10.37,25.3h-1.15l-9.31-33.75h3.7l6.82,24.77,9.75-24.77h1.1l9.79,24.77,6.82-24.77h3.7l-9.36,33.75h-1.15Z"/>
    <path class="cls-2" d="M274,531.86l9.84,14.16,9.79-14.16h4.18l-11.71,16.9,11.71,16.85h-4.13l-9.84-14.16-9.89,14.16h-4.13l11.67-16.85-11.67-16.9h4.18Z"/>
    <path class="cls-2" d="M303.9,531.86v7.1c0,5.76,3.65,9.55,8.93,9.55s8.98-3.79,8.98-9.55v-7.1h3.65v7.1c0,7.1-4.42,12.29-10.8,13.1v13.54h-3.65v-13.54c-6.34-.82-10.75-6-10.75-13.1v-7.1h3.65Z"/>
    <path class="cls-2" d="M347.15,531.33c9.65,0,17.43,7.83,17.43,17.42s-7.78,17.38-17.43,17.38-17.38-7.73-17.38-17.38,7.73-17.42,17.38-17.42ZM347.15,562.54c7.63,0,13.78-6.14,13.78-13.78s-6.14-13.78-13.78-13.78-13.73,6.19-13.73,13.78,6.1,13.78,13.73,13.78Z"/>
    <path class="cls-2" d="M376.96,531.86v33.75h-3.65v-30.34h-5.23v-3.41h8.88Z"/>
    <path class="cls-2" d="M382.48,536.37c.96-2.02,3.74-5.09,9.22-5.09,6.05,0,10.27,4.8,10.27,10.27,0,3.02-.96,5.81-3.02,8.45l-9.26,11.95h12.87v3.65h-18.96v-1.78l12.1-15.6c1.87-2.45,2.5-3.89,2.5-6.67,0-3.6-3.07-6.62-6.62-6.62-2.64,0-4.7,1.2-6.24,3.5l-2.83-2.06Z"/>
    <path class="cls-2" d="M406.86,535.37s2.35-4.08,8.21-4.08,10.08,4.75,10.08,10.22c0,3.98-2.06,6.82-4.66,8.11,2.88,1.25,4.46,4.22,4.46,7.39,0,5.18-4.03,9.17-9.22,9.17-5.66,0-8.21-4.08-8.21-4.08l2.59-2.3s1.92,2.74,5.52,2.74c3.41,0,5.71-2.45,5.71-5.52s-2.4-5.52-5.62-5.62h-1.73v-3.41h1.44c2.79-.05,6.05-2.59,6.05-6.48,0-3.55-2.83-6.53-6.58-6.53s-5.47,2.74-5.47,2.74l-2.59-2.35Z"/>
    <path class="cls-2" d="M447.71,531.86v23.19h4.46v3.41h-4.46v7.15h-3.65v-7.15h-15.07v-2.21l16.23-24.39h2.5ZM433.69,555.05h10.37v-15.7l-10.37,15.7Z"/>
    <path class="cls-2" d="M472.77,531.86v3.41h-10.23l-.96,10.8h2.02c6.96,0,10.9,3.74,10.9,9.94,0,5.57-4.37,10.18-9.84,10.18-5.95,0-8.45-4.08-8.45-4.08l2.59-2.3s1.87,2.74,5.76,2.74c3.41,0,6.29-2.83,6.29-6.53,0-4.18-2.83-6.58-7.54-6.58h-5.18v-1.73l1.54-15.84h13.11Z"/>
    <path class="cls-2" d="M494.75,531.86l-7.68,13.68s.91-.34,2.5-.34c5.66,0,10.51,4.61,10.51,10.37s-4.8,10.61-10.56,10.61-10.46-4.94-10.46-10.8c0-1.87.67-3.94,2.21-6.72l9.31-16.8h4.18ZM489.52,562.54c3.79,0,6.91-3.12,6.91-6.96s-3.12-6.91-6.91-6.91-6.96,3.12-6.96,6.91,3.12,6.96,6.96,6.96Z"/>
    <path class="cls-2" d="M521.2,531.86l-11.95,33.75h-3.89l10.71-30.34h-12.82v-3.41h17.95Z"/>
    <path class="cls-2" d="M524.31,541.51c0-5.62,4.56-10.22,10.13-10.22s10.22,4.61,10.22,10.22c0,3.84-2.3,6.96-5.47,8.3,2.59,1.3,4.42,4.03,4.42,7.25,0,4.9-4.18,9.12-9.17,9.12s-9.12-4.08-9.12-9.12c0-3.21,1.78-5.95,4.42-7.25-3.17-1.34-5.42-4.46-5.42-8.3ZM527.96,541.51c0,3.55,2.93,6.48,6.48,6.48s6.58-2.93,6.58-6.48-2.98-6.58-6.58-6.58-6.48,2.98-6.48,6.58ZM534.44,562.54c3.07,0,5.57-2.45,5.57-5.52s-2.45-5.57-5.57-5.57-5.52,2.5-5.52,5.57,2.45,5.52,5.52,5.52Z"/>
    <path class="cls-2" d="M554.31,565.61l7.68-13.68s-.91.34-2.5.34c-5.67,0-10.51-4.61-10.51-10.37s4.8-10.61,10.56-10.61,10.46,4.94,10.46,10.8c0,2.06-.67,3.94-2.21,6.72l-9.31,16.8h-4.18ZM559.55,534.93c-3.79,0-6.91,3.12-6.91,6.96s3.12,6.91,6.91,6.91,6.96-3.12,6.96-6.91-3.12-6.96-6.96-6.96Z"/>
    <path class="cls-2" d="M575.63,531.86c3.79.29,9.5,2.5,9.5,9.7,0,6.19-4.46,8.02-4.61,12.82l-.1,3.41h-2.93l-.14-3.41c-.24-6.1,4.22-7.01,4.22-12.34,0-4.61-3.46-6.38-5.95-6.62v-3.55ZM581.24,563.69c0,1.25-1.01,2.21-2.26,2.21s-2.26-.96-2.26-2.21.96-2.26,2.26-2.26,2.26.96,2.26,2.26Z"/>
    <path class="cls-2" d="M604.28,565.61v-10.85h-9.17v10.85h-3.65v-23.14c0-7.2,3.07-11.09,8.21-11.09s8.26,3.89,8.26,11.09v23.14h-3.65ZM595.11,542.61v8.59h9.17v-8.59c0-5.71-1.97-7.63-4.61-7.63s-4.56,1.92-4.56,7.63Z"/>
    <path class="cls-2" d="M619.4,531.86c6.14,0,10.32,4.08,10.32,9.5,0,3.46-1.82,6.53-5.28,7.78,2.93,1.3,4.42,3.98,4.42,6.96,0,5.47-4.13,9.5-10.46,9.5h-4.37v-33.75h5.38ZM617.67,547.22h1.73c4.22,0,6.67-2.69,6.67-5.86,0-3.36-2.59-5.86-6.67-5.86h-1.73v11.71ZM617.67,561.96h.72c4.27,0,6.82-2.16,6.82-5.57s-2.54-5.62-6.82-5.62h-.72v11.18Z"/>
    <path class="cls-2" d="M645.85,535.46c-6.62,0-9.12,5.47-9.12,13.3s2.5,13.25,9.12,13.25v3.6c-8.54,0-12.77-6.72-12.77-16.85s4.22-16.9,12.77-16.9v3.6Z"/>
    <path class="cls-2" d="M650.65,565.61v-33.75h4.66c6.34,0,11.57,6.43,11.57,16.9s-5.18,16.85-11.57,16.85h-4.66ZM655.79,561.96c3.55,0,7.44-4.42,7.44-13.2s-3.89-13.25-7.44-13.25h-1.49v26.45h1.49Z"/>
    <path class="cls-2" d="M683.1,531.86v3.65h-7.92v11.71h7.92v3.55h-7.92v11.18h7.92v3.65h-11.57v-33.75h11.57Z"/>
    <path class="cls-2" d="M699.75,531.86v3.65h-7.92v11.71h7.92v3.55h-7.92v14.83h-3.65v-33.75h11.57Z"/>
    <path class="cls-2" d="M707.1,548.76c0,7.01,1.97,12.1,7.15,13.06v-13.06h3.31v16.85h-1.34c-8.54,0-12.77-6.72-12.77-16.85s4.22-16.9,12.77-16.9h1.34v3.6h-1.34c-6.62,0-9.12,5.47-9.12,13.3Z"/>
    <path class="cls-2" d="M726.39,531.86v15.36h9.75v-15.36h3.65v33.75h-3.65v-14.83h-9.75v14.83h-3.65v-33.75h3.65Z"/>
    <path class="cls-2" d="M749.29,531.86v33.75h-3.65v-33.75h3.65Z"/>
    <path class="cls-2" d="M761.43,531.86v25.2c0,4.85-3.31,8.54-8.26,8.54v-3.6c2.83,0,4.56-2.11,4.56-4.71v-25.44h3.7Z"/>
    <path class="cls-2" d="M770.79,531.86v13.39l9.5-13.39h4.22v.62l-10.8,15.31,10.9,17.23v.58h-4.32l-9.26-14.64-.24.34v14.3h-3.65v-33.75h3.65Z"/>
    <path class="cls-2" d="M791.33,531.86v30.24h7.3v3.5h-10.9v-33.75h3.6Z"/>
    <path class="cls-2" d="M803.72,531.86l8.83,20.5,8.98-20.5h1.3v33.75h-3.41v-21.27l-6.48,14.88h-.82l-6.24-14.88v21.27h-3.41v-33.75h1.25Z"/>
    <path class="cls-2" d="M829.4,531.86l12.34,22.27v-22.27h3.36v33.75h-.72l-12.34-22.27v22.27h-3.36v-33.75h.72Z"/>
    <path class="cls-2" d="M867.99,548.76c0,10.56-3.17,17.38-9.12,17.38s-9.02-6.82-9.02-17.38,3.12-17.38,9.02-17.38,9.12,6.77,9.12,17.38ZM853.49,548.76c0,8.93,1.82,13.78,5.38,13.78,3.74,0,5.47-4.85,5.47-13.78s-1.78-13.78-5.47-13.78-5.38,4.85-5.38,13.78Z"/>
    <path class="cls-2" d="M876.15,531.86c7.06,0,12,6.05,12,12.82s-4.46,12.34-11.76,12.58v8.35h-3.65v-33.75h3.41ZM876.39,553.61c4.8,0,8.11-3.98,8.11-8.93s-3.31-9.17-8.11-9.17v18.1Z"/>
    <path class="cls-2" d="M909.41,548.76c0,9.36-2.5,15.79-7.2,17.09l.1,4.8h-3.65l.05-4.71c-4.9-1.1-7.44-7.58-7.44-17.19,0-10.61,3.12-17.38,9.02-17.38s9.12,6.77,9.12,17.38ZM894.92,548.76c0,8.74,1.78,13.78,5.38,13.78s5.47-4.85,5.47-13.78-1.78-13.78-5.47-13.78-5.38,4.85-5.38,13.78Z"/>
    <path class="cls-2" d="M920.89,556.82c-.96.24-2.02.43-3.07.43v8.35h-3.65v-33.75h3.41c7.06,0,12,6.05,12,12.82,0,4.27-1.87,8.16-5.14,10.46l3.55,5.62c.53.86,1.1,1.2,2.06,1.2h.34v3.65h-.77c-2.4,0-3.74-.91-5.23-3.26l-3.5-5.52ZM917.81,553.61c4.8,0,8.11-3.98,8.11-8.93s-3.31-9.17-8.11-9.17v18.1Z"/>
    <path class="cls-2" d="M946.76,531.86v3.55h-1.06c-3.17,0-5.33,1.82-5.33,6.24,0,4.13,3.36,9.17,3.36,14.3,0,5.66-2.64,9.65-9.22,9.65h-2.26v-3.65h1.68c4.27,0,5.95-1.92,5.95-6.05s-3.36-9.26-3.36-14.69,3.6-9.36,8.78-9.36h1.44Z"/>
    <path class="cls-2" d="M963.65,531.86v3.55h-5.81v30.19h-3.65v-30.19h-5.81v-3.55h15.27Z"/>
    <path class="cls-2" d="M980.12,554.9v-23.04h3.65v23.19c0,7.2-3.07,11.09-8.26,11.09s-8.21-3.89-8.21-11.09v-23.19h3.65v23.04c0,5.71,1.97,7.63,4.56,7.63s4.61-1.92,4.61-7.63Z"/>
    <path class="cls-2" d="M994.8,548.23l1.97,8.35,1.97-8.35,4.42-16.37h3.94l-9.94,33.75h-.72l-9.89-33.75h3.89l4.37,16.37Z"/>
    <path class="cls-2" d="M1011.36,531.86l3.36,16.46.91,4.71,4.99-21.17h1.58l5.14,21.17.82-4.71,3.36-16.46h3.94l-7.78,33.75h-.72l-5.57-23.43-5.47,23.43h-.67l-7.78-33.75h3.89Z"/>
    <path class="cls-2" d="M1040.83,531.86l4.27,13.78,4.32-13.78h3.94l-5.9,16.85,6.05,16.9h-3.94l-4.51-13.78-4.42,13.78h-3.98l6.05-16.9-5.81-16.85h3.94Z"/>
    <path class="cls-2" d="M1068.68,540.17v-8.3h3.65v8.45c0,6.29-2.35,10.03-6.38,10.9v14.4h-3.65v-14.4c-4.08-.82-6.43-4.56-6.43-10.9v-8.45h3.65v8.3c0,5.71,1.97,7.63,4.56,7.63s4.61-1.92,4.61-7.63Z"/>
    <path class="cls-2" d="M1094.02,548.76c0,10.42-3.31,17.38-9.12,17.38s-9.02-6.96-9.02-17.38,3.26-17.38,9.02-17.38,9.12,6.91,9.12,17.38ZM1079.52,548.76c0,8.79,1.92,13.78,5.38,13.78s5.47-4.99,5.47-13.78-1.92-13.78-5.47-13.78-5.38,4.99-5.38,13.78Z"/>
    <path class="cls-2" d="M1104.63,531.86v33.75h-3.65v-30.34h-4.03v-3.41h7.68Z"/>
    <path class="cls-2" d="M1108.66,536.76c1.25-2.88,3.46-5.09,7.63-5.09,4.66,0,7.68,3.5,7.68,8.93,0,2.64-.72,5.14-2.35,8.3l-6.82,13.06h9.36v3.65h-15.22v-1.25l9.12-16.9c1.78-3.12,2.06-5.19,2.06-6.62,0-3.65-1.73-5.52-4.03-5.52s-3.55,1.15-4.61,3.5l-2.83-2.06Z"/>
    <path class="cls-2" d="M1135.01,547.08c2.21,0,3.74-1.44,3.74-5.47,0-4.42-1.73-6.58-4.03-6.58s-3.36,1.15-4.42,3.5l-2.83-2.06c1.25-2.88,3.46-5.09,7.1-5.09,4.61,0,8.02,3.46,8.02,10.32,0,5.57-3.07,7.2-3.07,7.2,0,0,3.26,2.3,3.26,7.73,0,6-3.41,9.51-8.02,9.51-3.65,0-6.05-2.21-7.3-5.09l2.83-2.06c1.06,2.35,2.3,3.51,4.61,3.51,2.54,0,4.03-2.11,4.03-5.95s-1.73-6-3.94-6h-2.64v-3.46h2.64Z"/>
    <path class="cls-2" d="M1161.07,531.86v23.19h2.93v3.41h-2.93v7.15h-3.65v-7.15h-11.71v-2.06l12.72-24.53h2.64ZM1149.98,555.05h7.44v-15.07l-7.44,15.07Z"/>
    <path class="cls-2" d="M1173.79,546.36c5.76,0,8.3,4.85,8.3,10.27,0,6-3.41,9.51-8.02,9.51-3.65,0-6.05-2.21-7.3-5.09l2.83-2.06c1.06,2.35,2.3,3.51,4.61,3.51s4.03-2.11,4.03-5.76c0-4.22-1.73-6.91-5.28-6.91h-4.8v-1.82l1.01-16.13h11.42v3.41h-8.3l-.62,11.09h2.11Z"/>
    <path class="cls-2" d="M1197.17,531.86l-5.23,12.87s.67-.29,2.02-.29c5.18,0,8.59,4.8,8.59,10.56s-3.22,11.14-8.64,11.14-8.54-5.04-8.54-11.19c0-2.4.53-4.61,1.54-7.15l6.38-15.94h3.89ZM1193.9,562.54c3.46,0,4.99-3.5,4.99-7.39s-1.68-7.3-4.99-7.3-5.04,3.5-5.04,7.3,1.54,7.39,5.04,7.39Z"/>
    <path class="cls-2" d="M1219.2,531.86l-9.6,33.75h-3.79l8.64-30.34h-10.13v-3.41h14.88Z"/>
    <path class="cls-2" d="M1225.54,550.01c-2.69-1.73-4.13-5.04-4.13-8.5,0-5.62,3.12-10.22,8.69-10.22s8.79,4.61,8.79,10.22c0,3.46-1.49,6.77-4.27,8.5,1.97,1.58,3.17,4.13,3.17,7.35,0,4.9-3.26,8.83-7.68,8.83s-7.68-3.94-7.68-8.83c0-3.22,1.2-5.81,3.12-7.35ZM1230.1,534.93c-3.07,0-5.04,2.98-5.04,6.58,0,3.41,1.97,6.48,5.04,6.48s5.14-3.07,5.14-6.48c0-3.6-2.02-6.58-5.14-6.58ZM1230.1,552.02c-2.5,0-4.08,2.35-4.08,5.33s1.58,5.18,4.08,5.18,4.08-2.35,4.08-5.18c0-2.98-1.58-5.33-4.08-5.33Z"/>
    <path class="cls-2" d="M1247.33,565.61l5.23-12.87s-.67.29-2.02.29c-5.18,0-8.59-4.8-8.59-10.56s3.36-11.09,8.64-11.09,8.54,5.28,8.54,11.28c0,2.4-.53,4.46-1.54,7.01l-6.38,15.94h-3.89ZM1250.59,534.98c-3.31,0-4.99,3.65-4.99,7.49s1.68,7.15,4.99,7.15,5.04-3.36,5.04-7.15-1.68-7.49-5.04-7.49Z"/>
    <path class="cls-2" d="M1262.4,531.86c3.79.29,9.5,2.5,9.5,9.7,0,6.19-4.46,8.02-4.61,12.82l-.1,3.41h-2.93l-.14-3.41c-.24-6.1,4.22-7.01,4.22-12.34,0-4.61-3.46-6.38-5.95-6.62v-3.55ZM1268.01,563.69c0,1.25-1.01,2.21-2.26,2.21s-2.26-.96-2.26-2.21.96-2.26,2.26-2.26,2.26.96,2.26,2.26Z"/>
  </g>
</svg>