<?xml version="1.0" encoding="UTF-8"?>
<svg id="Layer_1" data-name="Layer 1" xmlns="http://www.w3.org/2000/svg" xmlns:xlink="http://www.w3.org/1999/xlink" viewBox="0 0 1366 768">
  <defs>
    <style>
      .cls-1, .cls-2 {
        fill: #f9df4b;
      }

      .cls-3 {
        clip-path: url(#clippath);
      }

      .cls-4 {
        fill: #000;
      }

      .cls-4, .cls-2 {
        stroke-width: 0px;
      }
    </style>
    <clipPath id="clippath">
      <rect class="cls-2" x="-10" y="-10" width="1386" height="788"/>
    </clipPath>
  </defs>
  <g>
    <rect class="cls-1" x="-10" y="-10" width="1386" height="788"/>
    <g class="cls-3">
      <rect class="cls-2" x="-.35" y="-3.25" width="1366.71" height="779.89"/>
    </g>
  </g>
  <g>
    <path class="cls-4" d="M483.26,507.95v10.46h-129.63v-10.46c35.93-1.36,45.48-5,45.48-31.38v-246.07h-45.03c-45.49,0-49.12,25.47-65.5,71.41l-10.01-2.73c6.82-22.29,9.55-39.12,9.55-54.13,0-12.28-2.73-20.92-7.28-26.38l1.37-2.73c10.01,1.82,22.29,2.73,43.21,2.73h186.03c20.92,0,33.2-.91,43.21-2.73l1.36,2.73c-4.55,5.46-7.28,14.1-7.28,26.38,0,15.01,2.73,31.84,10.01,54.13l-10.01,2.73c-16.37-45.94-20.01-71.41-65.95-71.41h-45.03v246.07c0,26.38,10.01,30.02,45.49,31.38Z"/>
    <path class="cls-4" d="M707.04,402.43h-103.71l-25.47,66.41c-3.18,8.19-5,14.55-5,20.01,0,14.1,13.19,17.74,42.76,19.1v10.46h-92.33v-10.46c22.29-1.82,31.38-14.55,40.94-38.66l99.16-250.17h12.28l100.52,249.26c13.19,32.29,21.83,38.21,43.21,39.57v10.46h-116.9v-10.46c23.65-.91,35.02-7.73,35.02-21.83,0-4.55-1.82-10.46-4.09-17.28l-26.38-66.41ZM702.49,391.05l-47.76-121.9-46.85,121.9h94.61Z"/>
    <path class="cls-4" d="M811.66,507.95c35.48-2.73,41.85-9.55,41.85-40.94v-196.49c0-31.38-6.37-38.21-41.85-40.94v-10.46h121.9v10.46c-35.48,2.73-41.85,9.55-41.85,40.94v196.49c0,31.38,6.37,38.21,41.85,40.94v10.46h-121.9v-10.46ZM1050,526.14l-144.19-147.37v.46l-9.1-9.55,102.34-100.52c10.46-10.46,15.46-17.28,15.46-23.2,0-8.64-8.19-13.65-22.74-16.37v-10.46h94.61v10.46c-31.38,5-46.85,15.92-71.41,40.03l-82.33,79.6,160.11,162.38v6.82c-15.01,0-30.02,2.73-42.76,7.73Z"/>
  </g>
</svg>