<?xml version="1.0" encoding="UTF-8"?><svg id="Layer_1" xmlns="http://www.w3.org/2000/svg" viewBox="0 0 1366 768"><defs><style>.cls-1{fill:#fff;}</style></defs><rect width="1366" height="768"/><g><path class="cls-1" d="M190.36,213.81l-48.16-74.4-48,74.4h-6.56L54.03,101.33h22.56l21.12,68.16,42.88-68.16h3.2l43.2,68.32,20.8-68.32h22.56l-33.44,112.48h-6.56Z"/><path class="cls-1" d="M268.59,101.33v112.48h-22.4V101.33h22.4Z"/><path class="cls-1" d="M447.31,101.33c32.16,0,58.08,24.16,58.08,56.32s-25.92,56.16-58.08,56.16h-155.04V101.33h155.04Zm-132.64,90.88h132.64c19.68,0,35.68-14.88,35.68-34.56s-16-34.72-35.68-34.72h-132.64v69.28Z"/><path class="cls-1" d="M591.15,101.33v21.6h-27.04v90.88h-22.4V122.93h-27.04v-21.6h76.48Z"/><path class="cls-1" d="M629.55,101.33v46.56h48.8v-46.56h22.4v112.48h-22.4v-45.12h-48.8v45.12h-22.4V101.33h22.4Z"/><path class="cls-1" d="M919.76,101.33v21.92h-152.07c-16.97,0-21.98,3.68-21.98,9.44,0,6.72,4.36,10.72,28.44,12l93.25,5.28c42.18,2.4,54.95,9.76,54.95,31.04,0,19.36-14.38,32.8-57.05,32.8h-145.45v-21.76h152.72c17.45,0,22.46-3.68,22.46-10.4,0-7.2-6.14-9.92-35.39-11.52l-90.82-4.96c-30.22-1.6-49.29-10.4-49.29-32.64,0-17.12,15.19-31.2,57.21-31.2h143.02Z"/><path class="cls-1" d="M59.15,361.81v-78.24c0-21.44,9.92-35.84,30.88-35.84s31.04,14.4,31.04,35.84v78.24h-22.4v-27.2h-17.12v27.2h-22.4Zm22.4-48h17.12v-30.4c0-9.6-3.36-13.6-8.64-13.6s-8.48,4-8.48,13.6v30.4Z"/><path class="cls-1" d="M145.23,249.33l68,63.68v-63.68h22.4v112.48h-3.2l-68-63.68v63.68h-22.4v-112.48h3.2Z"/><path class="cls-1" d="M414.35,249.33c32.16,0,58.08,24.16,58.08,56.32s-25.92,56.16-58.08,56.16h-155.04v-112.48h155.04Zm-132.64,90.88h132.64c19.68,0,35.68-14.88,35.68-34.56s-16-34.72-35.68-34.72h-132.64v69.28Z"/><path class="cls-1" d="M672.91,361.81l-48.16-74.4-48,74.4h-6.56l-33.6-112.48h22.56l21.12,68.16,42.88-68.16h3.2l43.2,68.32,20.8-68.32h22.56l-33.44,112.48h-6.56Z"/><path class="cls-1" d="M907.95,249.33v21.6h-156.8v24.96h156.8v20.8h-156.8v23.52h156.8v21.6h-179.2v-112.48h179.2Z"/><path class="cls-1" d="M950.82,249.33v112.48h-22.4v-112.48h22.4Z"/><path class="cls-1" d="M1042.02,270.93h-16.48c-22.08,0-35.52,15.2-35.52,34.4s13.44,34.88,35.68,34.88h.32v-34.56h20.32v56.16h-20.64c-34.88,0-58.24-24.32-58.24-56.48s23.2-56,57.28-56h17.28v21.6Z"/><path class="cls-1" d="M1088.1,249.33v46.56h48.8v-46.56h22.4v112.48h-22.4v-45.12h-48.8v45.12h-22.4v-112.48h22.4Z"/><path class="cls-1" d="M1251.78,249.33v21.6h-27.04v90.88h-22.4v-90.88h-27.04v-21.6h76.48Z"/><path class="cls-1" d="M1310.5,249.33v21.6h-6.56c-8.64,0-11.84,5.44-11.84,11.68,0,11.04,11.52,29.12,11.52,46.08,0,20.32-12.48,33.12-35.68,33.12h-8.96v-21.6h5.76c9.28,0,14.88-4.48,14.88-13.6,0-11.04-11.36-29.92-11.36-48.64,0-17.44,12.48-28.64,33.28-28.64h8.96Z"/></g><g><path class="cls-1" d="M552.18,424.93h-52.8c-22.08,0-35.52,15.2-35.52,34.4s13.44,34.88,35.68,34.88h52.64v21.6h-52.64c-34.88,0-58.24-24.32-58.24-56.48s23.2-56,57.28-56h53.6v21.6Z"/><path class="cls-1" d="M699.7,459.65c0,32.16-22.56,58.08-68.16,58.08s-68.8-26.24-68.8-58.08,22.72-58.24,68.8-58.24,68.16,26.4,68.16,58.24Zm-114.56,0c0,19.68,12.64,35.68,46.4,35.68s45.76-16,45.76-35.68-12.8-35.84-45.92-35.84-46.24,16.16-46.24,35.84Z"/><path class="cls-1" d="M721.78,403.33l68,63.68v-63.68h22.4v112.48h-3.2l-68-63.68v63.68h-22.4v-112.48h3.2Z"/><path class="cls-1" d="M848.49,403.33c26.88,0,46.24,19.04,46.24,56.32s-19.36,56.16-46.24,56.16h-16.16v-112.48h16.16Zm6.24,88.64h1.92c8.16,0,15.68-9.6,15.68-32.48s-7.52-32.32-15.68-32.32h-1.92v64.8Z"/><path class="cls-1" d="M950.09,403.33v21.6h-20v24.16h20v20.8h-20v24.32h20v21.6h-42.4v-112.48h42.4Z"/><path class="cls-1" d="M968.33,403.33l38.56,54.08v-54.08h20.8v112.48h-3.2l-38.56-54.08v54.08h-20.8v-112.48h3.2Z"/><path class="cls-1" d="M1090.57,403.33v21.6h-6.56c-8.64,0-11.84,5.44-11.84,11.68,0,11.04,11.52,29.12,11.52,46.08,0,20.32-12.48,33.12-35.68,33.12h-8.96v-21.6h5.76c9.28,0,14.88-4.48,14.88-13.6,0-11.04-11.36-29.92-11.36-48.64,0-17.44,12.48-28.64,33.28-28.64h8.96Z"/><path class="cls-1" d="M1166.73,403.33v21.6h-38.56v24.96h36.48v20.8h-36.48v23.52h38.56v21.6h-60.96v-112.48h60.96Z"/><path class="cls-1" d="M1251.69,403.33c32.32,0,58.24,24.32,58.24,56.32s-25.92,56.16-58.24,56.16h-61.92v-112.48h61.92Zm-39.52,90.88h39.52c19.84,0,35.84-15.04,35.84-34.56s-16.16-34.72-35.84-34.72h-39.52v69.28Z"/><path class="cls-1" d="M52.83,663.81v-78.24c0-21.44,9.92-35.84,30.88-35.84s31.04,14.4,31.04,35.84v78.24h-22.4v-27.2h-17.12v27.2h-22.4Zm22.4-48h17.12v-30.4c0-9.6-3.36-13.6-8.64-13.6s-8.48,4-8.48,13.6v30.4Z"/><path class="cls-1" d="M138.9,551.33l68,63.68v-63.68h22.4v112.48h-3.2l-68-63.68v63.68h-22.4v-112.48h3.2Z"/><path class="cls-1" d="M265.62,551.33c26.88,0,46.24,19.04,46.24,56.32s-19.36,56.16-46.24,56.16h-16.16v-112.48h16.16Zm6.24,88.64h1.92c8.16,0,15.68-9.6,15.68-32.48s-7.52-32.32-15.68-32.32h-1.92v64.8Z"/><path class="cls-1" d="M422.26,551.33v21.6h-20v24.16h20v20.8h-20v24.32h20v21.6h-42.4v-112.48h42.4Z"/><path class="cls-1" d="M462.1,551.33l37.28,39.52,37.44-39.52h28.64l-52,55.2,55.2,57.28h-28.32l-40.96-41.28-40,41.28h-28.32l54.08-57.28-51.52-55.2h28.48Z"/><path class="cls-1" d="M690.1,551.33v21.6h-46.24v90.88h-22.4v-90.88h-46.24v-21.6h114.88Z"/><path class="cls-1" d="M812.34,551.33v21.6h-80.32v24.48h77.12v20.8h-77.12v24h80.32v21.6h-102.72v-112.48h102.72Z"/><path class="cls-1" d="M839.05,551.33l96.64,70.08v-70.08h22.4v112.48h-3.2l-96.64-70.08v70.08h-22.4v-112.48h3.2Z"/><path class="cls-1" d="M1050.09,551.33c32.32,0,58.24,24.32,58.24,56.32s-25.92,56.16-58.24,56.16h-61.92v-112.48h61.92Zm-39.52,90.88h39.52c19.84,0,35.84-15.04,35.84-34.56s-16.16-34.72-35.84-34.72h-39.52v69.28Z"/><path class="cls-1" d="M1233.13,551.33v21.6h-80.32v24.48h77.12v20.8h-77.12v24h80.32v21.6h-102.72v-112.48h102.72Z"/><path class="cls-1" d="M1266.09,551.33c26.88,0,46.24,19.04,46.24,56.32s-19.36,56.16-46.24,56.16h-16.16v-112.48h16.16Zm6.24,88.64h1.92c8.16,0,15.68-9.6,15.68-32.48s-7.52-32.32-15.68-32.32h-1.92v64.8Z"/></g></svg>