<svg xmlns="http://www.w3.org/2000/svg" viewBox="0 0 1366 768"><defs><style>.cls-1{fill:#f7b3ca;}.cls-2{fill:#12100b;}</style></defs><g id="Layer_1" data-name="Layer 1"><rect class="cls-1" x="-64" y="-37" width="1490" height="827"/><path d="M388.12,279.51c0,23.44-13,40.72-40.25,40.72H308.81v-3c6.63-.11,8.28-1.77,8.28-7.1V252.4c0-5.32-2.84-6.63-8.28-7.1v-3h19.06c7.69,0,12.19.12,20,.12C378.18,242.46,388.12,259.86,388.12,279.51Zm-12.19,1.54c0-18.7-9-35.63-29.48-35.63a122.24,122.24,0,0,0-18.58,1.42v68.07a85.64,85.64,0,0,0,20,2.25C367.88,317.16,375.93,298,375.93,281.05Z"/><path d="M455.45,299.52l-4.62,20.71H390.58v-3c6.63-.11,8.28-1.77,8.28-7.1V252.4c0-5.32-2.84-6.63-8.28-7.1v-3h56.23l3.43,20.84-2.25.47c-6.39-13.73-9.35-17-18.94-17.76-7.34-.35-12.55-.59-19.41-.71v34.57h18c6.63,0,8.52-3,9.71-10.66h2.36v24.63h-2.36c-1.19-7.7-3.08-10.89-9.71-10.89h-18v34.56c10.77-.12,17-.23,24-.59,10.89-.83,15-8.05,19.53-17.76Z"/><path d="M544.46,299.16c0,14.21-9.94,21.07-25.33,21.07H484.68v-3c6.63-.11,8.29-1.77,8.29-7.1V252.4c0-5.32-2.84-6.63-8.29-7.1v-3H519.6c12.08,0,21.67,6.28,21.67,18.47,0,14-12,17-15.27,18.35l-3.2.94C533.81,280.81,544.46,287.44,544.46,299.16Zm-40.72-54v34.45c4.62-.12,10.65-.36,12.78-.71,8.77-1.42,12.32-9.23,12.32-17.17,0-10.41-6.51-17-16.81-17A61,61,0,0,0,503.74,245.18ZM532.39,300c0-10.89-7.82-17.52-18.94-17.52h-9.71V317c4,.23,9.12.35,12.55.35C526.59,317.39,532.39,310.05,532.39,300Z"/><path d="M612.57,299.52,608,320.23H547.7v-3c6.63-.11,8.29-1.77,8.29-7.1V252.4c0-5.32-2.84-6.63-8.29-7.1v-3h56.23l3.43,20.84-2.24.47c-6.4-13.73-9.36-17-19-17.76-7.33-.35-12.54-.59-19.41-.71v34.57h18c6.63,0,8.53-3,9.71-10.66h2.37v24.63h-2.37c-1.18-7.7-3.08-10.89-9.71-10.89h-18v34.56c10.77-.12,17-.23,24-.59,10.89-.83,15-8.05,19.53-17.76Z"/><path d="M692,320.23l-13-.71-18.35.71v-2.72c9,0,10.18-3.31,8.65-8.17l-7.34-19.29H634.31l-7.57,20.48-.24.71c-1.3,4.38,4.26,6.27,10.77,6.27v2.72l-13.37-.71-11.37.71v-2.72c5.21,0,8.41-1.89,10.3-6.39l21.67-55.88c1.53-5.32-1-10.65-10.07-10.65v-2.37H655l-.12.12,26.16,67.83c2.49,5.33,4.15,7.34,10.89,7.34ZM660.83,287l-12.9-34-12.55,34Z"/><path d="M686.17,245.3v-3h29.24v3c-7.1.83-10.18,1.78-10.18,7.1v43.92c0,15,6.87,20.95,19.53,20.95,14,0,22.61-4.73,22.61-22.84v-41c-.12-6.39-2-8.05-11.83-8.17v-3h23.79v3c-6.63.12-8.29,1.78-8.29,7.1V293c0,24.26-15.27,29.12-29.24,29.12-17.87,0-27.34-9.12-27.34-25.81V252.4C694.46,247.08,691.62,245.77,686.17,245.3Z"/><path d="M838.33,242.34v3c-6,0-8.64,1.89-10.42,7.1l-19.65,57.89,3.79,9.94H800l-26.52-67.59c-2-5.09-4.85-6.87-10.3-7.34v-3h30.42v3c-6.62.83-9.11,3.2-7.33,7.81l20.47,53.15,17.41-52.79c2-6.16,1.3-8.05-8.41-8.17v-3Z"/><path d="M873,322.13c-25.33,0-39.3-17.29-39.3-40.72,0-22.73,14.68-40.13,38-40.13,25.57,0,38.71,16.1,38.71,40.72C910.37,304.73,895.46,322.13,873,322.13Zm.95-3.08c20.48,0,24.74-19.06,24.74-36.7,0-17.28-7.57-38.11-27.58-38.11s-25.69,16.92-25.69,34.8C845.38,299.87,853,319.05,873.91,319.05Z"/><path d="M932.48,252.4v56.71c0,6.39,2,8.05,8.4,8.16v3H913.42v-3c6.63-.11,8.29-1.77,8.29-7.1V252.4c0-5.32-2.84-6.63-8.29-7.1v-3h27.46v3C934.49,245.77,932.48,247.08,932.48,252.4Z"/><path d="M1016,318.46v1.77h-12.43l-29.47-36.34c-3.08-.12-6.4-.35-9.24-.59v25.81c0,6.39,2.84,8.05,12.79,8.16v3H945.79v-3c6.63-.11,8.29-1.77,8.29-7.1V252.4c0-5.32-2.84-6.63-8.29-7.1v-3h9.83c7.58,0,14.92-.24,23.79-.24,17.64,0,29,6,29,20.25,0,10.89-8.64,18.23-21.67,20.59Zm-51.14-38.24a34.82,34.82,0,0,0,9,1.07c19.06,0,23.2-11,23.2-18.47,0-7.22-3.67-18.35-21.66-18.35-2.72,0-7.7.59-10.54.83Z"/><path d="M345.12,409.47l1.3,20.48h-2.49c-4.38-14.44-12.07-20.6-20.6-20.6-9.7,0-14.32,5.92-14.32,13.85,0,7.22,4.62,11.6,10.77,15.27l17.64,9.47c6.63,4.15,11.72,9.36,11.72,18,0,13.73-11.48,21.19-25.92,21.19a66.54,66.54,0,0,1-22.38-4.62l-2.36-20.6,3-.47c5.44,14.92,12.31,22.73,23.79,22.73,6,0,13.85-3.43,13.85-13,0-7.46-4.14-12.2-9.94-15.39l-17.05-9.24c-8.29-4.49-13-10.41-13-19.77,0-13,9.94-20.47,25.45-20.47A65.84,65.84,0,0,1,345.12,409.47Z"/><path d="M378.26,417.4v56.71c0,6.39,2,8.05,8.4,8.16v3H359.2v-3c6.63-.11,8.29-1.77,8.29-7.1V417.4c0-5.32-2.85-6.63-8.29-7.1v-3h27.46v3C380.27,410.77,378.26,412.08,378.26,417.4Z"/><path d="M464,483.46v1.77H451.53l-29.48-36.34c-3.07-.12-6.39-.35-9.23-.59v25.81c0,6.39,2.84,8.05,12.79,8.16v3H393.76v-3c6.63-.11,8.29-1.77,8.29-7.1V417.4c0-5.32-2.84-6.63-8.29-7.1v-3h9.83c7.57,0,14.91-.24,23.79-.24,17.64,0,29,6,29,20.25,0,10.89-8.64,18.23-21.66,20.59Zm-51.14-38.24a34.77,34.77,0,0,0,9,1.07c19.06,0,23.2-11,23.2-18.47,0-7.22-3.67-18.35-21.66-18.35-2.73,0-7.7.59-10.54.83Z"/><path d="M489.41,417.4v56.71c0,6.39,2,8.05,8.4,8.16v3H470.35v-3c6.63-.11,8.29-1.77,8.29-7.1V417.4c0-5.32-2.85-6.63-8.29-7.1v-3h27.46v3C491.42,410.77,489.41,412.08,489.41,417.4Z"/><path d="M596.77,417.4v56.71c0,6.39,2,8.05,8.41,8.16v3H577.71v-3c6.63-.11,8.29-1.77,8.29-7.1V447.94H547.41v26.17c0,6.39,2,8.05,8.4,8.16v3H528.35v-3c6.63-.11,8.29-1.77,8.29-7.1V417.4c0-5.32-2.85-6.63-8.29-7.1v-3h27.46v3c-6.39.47-8.4,1.78-8.4,7.1v27.47H586V417.4c0-5.32-2.84-6.63-8.29-7.1v-3h27.47v3C598.78,410.77,596.77,412.08,596.77,417.4Z"/><path d="M610.5,410.3v-3h29.24v3c-7.1.83-10.18,1.78-10.18,7.1v43.92c0,15,6.86,20.95,19.53,20.95,14,0,22.61-4.73,22.61-22.84v-41c-.12-6.39-2-8.05-11.84-8.17v-3h23.8v3c-6.63.12-8.29,1.78-8.29,7.1V458c0,24.26-15.27,29.12-29.24,29.12-17.87,0-27.34-9.12-27.34-25.81V417.4C618.79,412.08,615.94,410.77,610.5,410.3Z"/><path d="M740.24,409.47l1.3,20.48h-2.49c-4.38-14.44-12.07-20.6-20.59-20.6-9.71,0-14.33,5.92-14.33,13.85,0,7.22,4.62,11.6,10.77,15.27l17.64,9.47c6.63,4.15,11.72,9.36,11.72,18,0,13.73-11.48,21.19-25.92,21.19A66.54,66.54,0,0,1,696,482.51l-2.36-20.6,3-.47c5.44,14.92,12.31,22.73,23.79,22.73,6,0,13.85-3.43,13.85-13,0-7.46-4.14-12.2-9.94-15.39l-17-9.24c-8.29-4.49-13-10.41-13-19.77,0-13,9.94-20.47,25.45-20.47A65.84,65.84,0,0,1,740.24,409.47Z"/><path d="M827.12,407.34v3c-6,0-8.64,1.89-10.41,7.1l-19.66,57.89,3.79,9.94H788.77l-26.52-67.59c-2-5.09-4.85-6.87-10.3-7.34v-3h30.43v3c-6.63.83-9.12,3.2-7.34,7.81l20.48,53.15,17.4-52.79c2-6.16,1.3-8.05-8.41-8.17v-3Z"/><path d="M895.66,464.52,891,485.23H830.79v-3c6.63-.11,8.28-1.77,8.28-7.1V417.4c0-5.32-2.84-6.63-8.28-7.1v-3H887l3.43,20.84-2.25.47c-6.39-13.73-9.35-17-18.94-17.76-7.34-.35-12.55-.59-19.41-.71v34.57h18c6.63,0,8.52-3,9.71-10.66h2.36v24.63h-2.36c-1.19-7.7-3.08-10.89-9.71-10.89h-18v34.56c10.77-.12,17-.23,24-.59,10.89-.83,15-8.05,19.53-17.76Z"/><path d="M981,444.51c0,23.44-13,40.72-40.24,40.72H901.69v-3c6.63-.11,8.29-1.77,8.29-7.1V417.4c0-5.32-2.84-6.63-8.29-7.1v-3h19.06c7.69,0,12.19.12,20,.12C971.06,407.46,981,424.86,981,444.51Zm-12.19,1.54c0-18.7-9-35.63-29.48-35.63a122.34,122.34,0,0,0-18.58,1.42v68.07a85.73,85.73,0,0,0,20,2.25C960.76,482.16,968.81,463,968.81,446.05Z"/><path d="M1057.71,428.18l-2.25.71c-4.74-9.71-7.7-19.06-18-19.18h-10.18v64.4c0,6.39,2.6,8.05,9,8.16v3h-28.76v-3c6.39-.11,9-1.77,9-8.16v-64.4h-10.89c-10.3.12-13.61,9.47-18.35,19.18l-2.25-.71,3.79-18.47v-2.84l7.58.35h49.95l7.23-.35v2.84Z"/><path d="M260.88,576.34v3c-6.63.12-8.29,1.78-8.29,7.1L252,654.23h-1.9L198,585.46l.35,57.65c0,6.39,2,8,12.2,8.16v3h-23.8v-3c6.63-.11,8.29-1.77,8.29-7.1l.47-57.77c0-5.32-1.54-7-8.52-7.1v-3h17.64l45.22,61-.6-49.84c-.11-6.39-2-8.05-12.19-8.17v-3Z"/><path d="M302.37,656.13c-25.33,0-39.3-17.29-39.3-40.72,0-22.73,14.68-40.13,38-40.13,25.57,0,38.71,16.1,38.71,40.72C339.78,638.73,324.87,656.13,302.37,656.13Zm.95-3.08c20.48,0,24.74-19.06,24.74-36.7,0-17.28-7.57-38.11-27.58-38.11s-25.69,16.92-25.69,34.8C274.79,633.87,282.37,653.05,303.32,653.05Z"/><path d="M415.87,576.34v3c-6.63.12-8.29,1.78-8.29,7.1L407,654.23H405.1L353,585.46l.36,57.65c0,6.39,2,8,12.19,8.16v3H341.77v-3c6.62-.11,8.28-1.77,8.28-7.1l.48-57.77c0-5.32-1.54-7-8.53-7.1v-3h17.64l45.22,61-.59-49.84c-.12-6.39-2-8.05-12.19-8.17v-3Z"/><path d="M492.5,654.23l-13-.71-18.35.71v-2.72c9,0,10.18-3.31,8.64-8.17l-7.34-19.29H434.85l-7.57,20.48-.24.71c-1.3,4.38,4.26,6.27,10.77,6.27v2.72l-13.37-.71-11.37.71v-2.72c5.21,0,8.41-1.89,10.3-6.39L445,589.24c1.54-5.32-.94-10.65-10.06-10.65v-2.37h20.6l-.12.12,26.16,67.83c2.49,5.33,4.14,7.34,10.89,7.34ZM461.37,621l-12.9-34-12.55,34Z"/><path d="M577.61,597.18l-2.25.47c-4.5-9.83-7.46-16.93-18.35-17.76-10.06-.47-11.24-.59-21.19-.71v34.57H555c6.63,0,8.52-3,9.71-10.66h2.37v24.63h-2.37c-1.19-7.7-3.08-10.89-9.71-10.89H535.82v26.28c0,6.39,2.85,8,12.79,8.16v3H516.76v-3c6.63-.11,8.29-1.77,8.29-7.1V586.4c0-5.32-2.84-6.63-8.29-7.1v-3h57.42Z"/><path d="M645.62,633.52,641,654.23H580.75v-3c6.62-.11,8.28-1.77,8.28-7.1V586.4c0-5.32-2.84-6.63-8.28-7.1v-3H637l3.44,20.84-2.25.47c-6.39-13.73-9.35-17-18.94-17.76-7.34-.35-12.55-.59-19.42-.71v34.57h18c6.63,0,8.52-3,9.7-10.66h2.37v24.63H627.5c-1.18-7.7-3.07-10.89-9.7-10.89h-18v34.56c10.78-.12,17.05-.23,24-.59,10.9-.83,15-8,19.54-17.76Z"/><path d="M718.43,652.46v1.77H706l-29.48-36.34c-3.08-.12-6.39-.35-9.23-.59v25.81c0,6.39,2.84,8,12.78,8.16v3H648.23v-3c6.63-.11,8.28-1.77,8.28-7.1V586.4c0-5.32-2.84-6.63-8.28-7.1v-3h9.82c7.58,0,14.92-.24,23.8-.24,17.64,0,29,6,29,20.25,0,10.89-8.64,18.23-21.66,20.59Zm-51.14-38.24a34.69,34.69,0,0,0,9,1.07c19.06,0,23.21-11,23.21-18.47,0-7.22-3.67-18.35-21.67-18.35-2.72,0-7.69.59-10.53.83Z"/><path d="M796.68,576.34v3c-6.63.12-8.28,1.78-8.28,7.1l-.6,67.83h-1.89l-52.09-68.77.36,57.65c0,6.39,2,8,12.19,8.16v3H722.58v-3c6.63-.11,8.28-1.77,8.28-7.1l.48-57.77c0-5.32-1.54-7-8.53-7.1v-3h17.64l45.22,61-.59-49.84c-.12-6.39-2-8.05-12.19-8.17v-3Z"/><path d="M873.31,654.23l-13-.71-18.35.71v-2.72c9,0,10.18-3.31,8.65-8.17l-7.34-19.29H815.66l-7.57,20.48-.24.71c-1.3,4.38,4.26,6.27,10.77,6.27v2.72l-13.37-.71-11.37.71v-2.72c5.21,0,8.41-1.89,10.3-6.39l21.66-55.88c1.54-5.32-.94-10.65-10.06-10.65v-2.37h20.6l-.12.12,26.16,67.83c2.49,5.33,4.15,7.34,10.89,7.34ZM842.18,621l-12.9-34-12.55,34Zm-21.31-49.72-1.65-1.78,17.4-22.13,7.57,7.81Z"/><path d="M948,576.34v3c-6.63.12-8.29,1.78-8.29,7.1l-.59,67.83h-1.9l-52.08-68.77.35,57.65c0,6.39,2,8,12.19,8.16v3H873.89v-3c6.63-.11,8.29-1.77,8.29-7.1l.47-57.77c0-5.32-1.54-7-8.52-7.1v-3h17.64l45.22,61-.6-49.84c-.11-6.39-2-8.05-12.19-8.17v-3Z"/><path d="M1032,613.51c0,23.44-13,40.72-40.25,40.72H952.72v-3c6.63-.11,8.29-1.77,8.29-7.1V586.4c0-5.32-2.84-6.63-8.29-7.1v-3h19.06c7.7,0,12.2.12,20,.12C1022.09,576.46,1032,593.86,1032,613.51Zm-12.2,1.54c0-18.7-9-35.63-29.47-35.63a122.38,122.38,0,0,0-18.59,1.42v68.07a85.8,85.8,0,0,0,20,2.25C1011.79,651.16,1019.84,632,1019.84,615.05Z"/><path d="M1099.37,633.52l-4.62,20.71H1034.5v-3c6.62-.11,8.28-1.77,8.28-7.1V586.4c0-5.32-2.84-6.63-8.28-7.1v-3h56.22l3.44,20.84-2.25.47c-6.39-13.73-9.35-17-18.94-17.76-7.34-.35-12.55-.59-19.42-.71v34.57h18c6.63,0,8.52-3,9.7-10.66h2.37v24.63h-2.37c-1.18-7.7-3.07-10.89-9.7-10.89h-18v34.56c10.78-.12,17-.23,24-.59,10.9-.83,15-8,19.54-17.76Z"/><path d="M1162,629.26l-5.56,25h-54.93v-1.65l45.93-73.28c-7.34.12-15.62.36-24.15.59-10.42,1.19-14.56,10.54-18.94,20.13l-2.25-.48,4.62-23.2h54.1v1.78l-46.52,73.27c7.81-.12,16.81-.35,25.56-.59,10.54-1.3,15.51-12.43,19.89-22Z"/><path class="cls-2" d="M519.37,211.19l5.06,5.45H523l-4.86-5.13v5.13h-1.24v-9.9h1.24v4.17l4.81-4.17h1.61Z"/><path class="cls-2" d="M534.36,212.79c0,2.69-1.59,4-4.08,4s-4.1-1.36-4.1-4v-6h1.22v6a2.68,2.68,0,0,0,2.89,3,2.64,2.64,0,0,0,2.85-2.89v-6.11h1.22Z"/><path class="cls-2" d="M544.66,209.5c0,1.63-1.13,2.81-3.39,2.81h-2.74v4.33h-1.24v-9.9h4.08C543.63,206.74,544.66,207.79,544.66,209.5Zm-1.24,0c0-1.11-.69-1.73-2.25-1.73h-2.64v3.5h2.64C542.73,211.27,543.42,210.56,543.42,209.5Z"/><path class="cls-2" d="M554.16,209.5c0,1.63-1.12,2.81-3.38,2.81H548v4.33H546.8v-9.9h4.08C553.14,206.74,554.16,207.79,554.16,209.5Zm-1.24,0c0-1.11-.68-1.73-2.24-1.73H548v3.5h2.64C552.24,211.27,552.92,210.56,552.92,209.5Z"/><path class="cls-2" d="M561.8,213.92h-4.36l-1,2.72h-1.31l3.91-9.9h1.33l3.78,9.9h-1.32Zm-.38-1L559.66,208l-1.84,4.87Z"/><path class="cls-2" d="M575.43,213.92h-4.36l-1,2.72h-1.32l3.91-9.9H574l3.78,9.9h-1.32Zm-.38-1L573.29,208l-1.84,4.87Z"/><path class="cls-2" d="M583,212.31h-2.15v4.33h-1.24v-9.9h4.07c2.26,0,3.3,1,3.3,2.73,0,1.48-.82,2.49-2.65,2.71l3.19,4.46h-1.39Zm-2.15-1h2.69c1.44,0,2.2-.65,2.2-1.8s-.79-1.7-2.23-1.7h-2.66Z"/><path class="cls-2" d="M595.17,213.92h-4.36l-1,2.72h-1.32l3.91-9.9h1.33l3.78,9.9h-1.31Zm-.38-1L593,208l-1.84,4.87Z"/><path class="cls-2" d="M607.06,213.83c0,1.73-1,2.81-3.53,2.81h-4.15v-9.9h3.93c2.26,0,3.3,1,3.3,2.61a2.25,2.25,0,0,1-1.78,2.14A2.34,2.34,0,0,1,607.06,213.83Zm-6.45-6.06v3.3h2.58c1.37,0,2.18-.63,2.18-1.72s-.94-1.58-2.38-1.58Zm5.22,6.06c0-1.32-1-1.72-2.54-1.72h-2.68v3.5h2.67C604.81,215.61,605.83,215.21,605.83,213.83Z"/><path class="cls-2" d="M610.71,216.64h-1.22v-9.9h1.22Z"/><path class="cls-2" d="M613.13,211.7c0-3,1.81-5.14,4.6-5.14,2.61,0,3.82,1.34,4.21,3.34h-1.29a2.64,2.64,0,0,0-2.92-2.3c-1.87,0-3.36,1.6-3.36,4.1s1.49,4.08,3.36,4.08a2.67,2.67,0,0,0,2.93-2.29H622c-.44,2.09-1.66,3.33-4.23,3.33C615,216.82,613.13,214.69,613.13,211.7Z"/><path class="cls-2" d="M631.68,212.31h-2.14v4.33H628.3v-9.9h4.07c2.26,0,3.29,1,3.29,2.73,0,1.48-.81,2.49-2.65,2.71l3.19,4.46h-1.38Zm-2.14-1h2.68c1.45,0,2.2-.65,2.2-1.8s-.78-1.7-2.23-1.7h-2.65Z"/><path class="cls-2" d="M639.55,207.79v3.27h5v1h-5v3.5h5.62v1h-6.84v-9.9h6.84v1Z"/><path class="cls-2" d="M656,211.51v5.13h-1.1v-1.81a3.25,3.25,0,0,1-3.26,2c-2.79,0-4.66-2.07-4.66-5.12s1.86-5.14,4.63-5.14a3.9,3.9,0,0,1,4.15,2.85h-1.31a2.71,2.71,0,0,0-2.86-1.81c-2,0-3.37,1.56-3.37,4.1s1.36,4.08,3.42,4.08a3,3,0,0,0,3.18-3.24h-3.46v-1Z"/><path class="cls-2" d="M666.68,212.79c0,2.69-1.59,4-4.09,4s-4.1-1.36-4.1-4v-6h1.23v6a2.67,2.67,0,0,0,2.89,3,2.64,2.64,0,0,0,2.84-2.89v-6.11h1.23Z"/><path class="cls-2" d="M675.61,215.59v1h-6v-9.9h1.26v8.85Z"/><path class="cls-2" d="M683.06,213.92H678.7l-1,2.72h-1.31l3.91-9.9h1.33l3.78,9.9h-1.32Zm-.38-1L680.92,208l-1.84,4.87Z"/><path class="cls-2" d="M690.66,212.31h-2.15v4.33h-1.24v-9.9h4.07c2.26,0,3.3,1,3.3,2.73,0,1.48-.82,2.49-2.66,2.71l3.2,4.46h-1.39Zm-2.15-1h2.69c1.44,0,2.2-.65,2.2-1.8s-.79-1.7-2.23-1.7h-2.66Z"/><path class="cls-2" d="M706.72,213.92h-4.36l-1,2.72H700l3.91-9.9h1.33l3.78,9.9h-1.31Zm-.38-1L704.58,208l-1.84,4.87Z"/><path class="cls-2" d="M719.06,206.74v9.9h-1.87l-5.09-8.91v8.91h-1.16v-9.9h1.86l5.11,8.91v-8.91Z"/><path class="cls-2" d="M730.1,211.7a4.6,4.6,0,0,1-4.82,4.94H722.1v-9.9h3.18A4.61,4.61,0,0,1,730.1,211.7Zm-1.24,0c0-2.48-1.39-3.93-3.77-3.93h-1.76v7.84h1.76C727.44,215.61,728.86,214.16,728.86,211.7Z"/><path class="cls-2" d="M744.27,213.83c0,1.73-1,2.81-3.53,2.81H736.6v-9.9h3.92c2.26,0,3.3,1,3.3,2.61a2.25,2.25,0,0,1-1.78,2.14A2.34,2.34,0,0,1,744.27,213.83Zm-6.45-6.06v3.3h2.58c1.37,0,2.18-.63,2.18-1.72s-.94-1.58-2.38-1.58Zm5.22,6.06c0-1.32-1-1.72-2.53-1.72h-2.69v3.5h2.67C742,215.61,743,215.21,743,213.83Z"/><path class="cls-2" d="M746.07,211.7c0-3.07,1.88-5.14,4.61-5.14s4.61,2.07,4.61,5.14-1.88,5.12-4.61,5.12S746.07,214.75,746.07,211.7Zm8,0c0-2.54-1.33-4.1-3.37-4.1s-3.37,1.56-3.37,4.1,1.33,4.08,3.37,4.08S754.05,214.22,754.05,211.7Z"/><path class="cls-2" d="M763.72,215.59v1h-6v-9.9H759v8.85Z"/><path class="cls-2" d="M773.66,211.7a4.6,4.6,0,0,1-4.81,4.94h-3.18v-9.9h3.18A4.61,4.61,0,0,1,773.66,211.7Zm-1.24,0c0-2.48-1.38-3.93-3.76-3.93h-1.77v7.84h1.77C771,215.61,772.42,214.16,772.42,211.7Z"/><path class="cls-2" d="M791.44,212.06H779.11V211h12.33Z"/><path class="cls-2" d="M797.9,215.62h5.5v1h-6.74v-.42a3.77,3.77,0,0,1,2.18-3.47l2-1.15a2.25,2.25,0,0,0,1.35-2.06,1.82,1.82,0,0,0-2-1.94,2.14,2.14,0,0,0-2.23,2.3h-1.19a3.2,3.2,0,0,1,3.42-3.34,2.92,2.92,0,0,1,3.21,3c0,1.08-.33,2-1.92,2.93l-2.26,1.34A2.49,2.49,0,0,0,797.9,215.62Z"/><path class="cls-2" d="M808.43,206.74v9.9h-1.25v-7.8a3.14,3.14,0,0,1-2.26.63v-1c1.69-.05,2.2-.68,2.45-1.7Z"/><path class="cls-2" d="M817.81,213.48a3.23,3.23,0,0,1-3.44,3.34c-2.06,0-3.5-1.23-3.5-3h1.24a2.05,2.05,0,0,0,2.27,2,2.16,2.16,0,0,0,2.2-2.33,2.07,2.07,0,0,0-2.21-2.26,2,2,0,0,0-1.84,1H811.1l.38-5.42h5.83v1h-4.83l-.21,3.34a2.9,2.9,0,0,1,2.31-1A3.14,3.14,0,0,1,817.81,213.48Z"/><path class="cls-2" d="M831.43,209.5c0,1.63-1.13,2.81-3.39,2.81H825.3v4.33h-1.24v-9.9h4.08C830.41,206.74,831.43,207.79,831.43,209.5Zm-1.24,0c0-1.11-.69-1.73-2.25-1.73H825.3v3.5h2.64C829.5,211.27,830.19,210.56,830.19,209.5Z"/><path class="cls-2" d="M840.35,207.76h-3.28v8.88h-1.23v-8.88h-3.29v-1h7.8Z"/><path class="cls-2" d="M841.6,213.7h1.3c.19,1.4,1.22,2.08,2.83,2.08s2.48-.74,2.48-1.7-.59-1.39-1.74-1.65l-2.3-.51a2.5,2.5,0,0,1-2.25-2.51c0-1.61,1.36-2.85,3.54-2.85s3.67.92,3.88,2.95h-1.29c-.19-1.31-1.16-1.91-2.61-1.91s-2.22.73-2.22,1.66c0,.72.36,1.21,1.5,1.47l2.23.52c1.61.36,2.56,1.24,2.56,2.65,0,1.74-1.36,2.92-3.78,2.92C843.13,216.82,841.8,215.69,841.6,213.7Z"/><path class="cls-2" d="M548.55,358.19l5.07,5.45h-1.49l-4.86-5.13v5.13H546v-9.9h1.24v4.17l4.81-4.17h1.61Z"/><path class="cls-2" d="M563.54,359.79c0,2.69-1.58,4-4.08,4s-4.1-1.36-4.1-4v-6.05h1.23v6.05a2.67,2.67,0,0,0,2.88,2.95,2.64,2.64,0,0,0,2.85-2.89v-6.11h1.22Z"/><path class="cls-2" d="M573.84,356.5c0,1.63-1.13,2.81-3.39,2.81h-2.74v4.33h-1.24v-9.9h4.09C572.82,353.74,573.84,354.79,573.84,356.5Zm-1.24,0c0-1.11-.69-1.73-2.25-1.73h-2.64v3.5h2.64C571.91,358.27,572.6,357.56,572.6,356.5Z"/><path class="cls-2" d="M583.34,356.5c0,1.63-1.12,2.81-3.38,2.81h-2.74v4.33H576v-9.9h4.08C582.32,353.74,583.34,354.79,583.34,356.5Zm-1.24,0c0-1.11-.68-1.73-2.24-1.73h-2.64v3.5h2.64C581.42,358.27,582.1,357.56,582.1,356.5Z"/><path class="cls-2" d="M591,360.92h-4.36l-1,2.72h-1.32l3.91-9.9h1.33l3.78,9.9H592Zm-.38-1L588.84,355,587,359.88Z"/><path class="cls-2" d="M602.5,359.31h-2.14v4.33h-1.24v-9.9h4.07c2.26,0,3.29,1.05,3.29,2.73,0,1.48-.81,2.49-2.65,2.71l3.19,4.46h-1.38Zm-2.14-1H603c1.44,0,2.2-.65,2.2-1.8s-.79-1.7-2.23-1.7h-2.65Z"/><path class="cls-2" d="M610.37,354.79v3.27h5v1h-5v3.5H616v1.05h-6.84v-9.9H616v1.05Z"/><path class="cls-2" d="M626.85,358.51v5.13h-1.1v-1.81a3.25,3.25,0,0,1-3.27,2c-2.78,0-4.65-2.07-4.65-5.12s1.85-5.14,4.63-5.14a3.9,3.9,0,0,1,4.15,2.85h-1.31a2.71,2.71,0,0,0-2.86-1.81c-2,0-3.37,1.56-3.37,4.1s1.36,4.08,3.41,4.08a3,3,0,0,0,3.18-3.24H622.2v-1Z"/><path class="cls-2" d="M637.49,359.79c0,2.69-1.59,4-4.08,4s-4.1-1.36-4.1-4v-6.05h1.23v6.05a2.67,2.67,0,0,0,2.88,2.95,2.64,2.64,0,0,0,2.85-2.89v-6.11h1.22Z"/><path class="cls-2" d="M646.43,362.59v1.05h-6v-9.9h1.25v8.85Z"/><path class="cls-2" d="M653.88,360.92h-4.36l-1,2.72h-1.31l3.91-9.9h1.33l3.78,9.9h-1.32Zm-.38-1L651.74,355l-1.84,4.87Z"/><path class="cls-2" d="M661.48,359.31h-2.15v4.33h-1.24v-9.9h4.07c2.26,0,3.3,1.05,3.3,2.73,0,1.48-.82,2.49-2.66,2.71l3.2,4.46h-1.39Zm-2.15-1H662c1.45,0,2.21-.65,2.21-1.8s-.79-1.7-2.23-1.7h-2.66Z"/><path class="cls-2" d="M677.54,360.92h-4.36l-1,2.72h-1.32l3.91-9.9h1.33l3.78,9.9h-1.31Zm-.38-1L675.4,355l-1.84,4.87Z"/><path class="cls-2" d="M689.88,353.74v9.9H688l-5.09-8.91v8.91h-1.17v-9.9h1.87l5.11,8.91v-8.91Z"/><path class="cls-2" d="M700.92,358.7a4.6,4.6,0,0,1-4.82,4.94h-3.18v-9.9h3.18A4.61,4.61,0,0,1,700.92,358.7Zm-1.24,0c0-2.48-1.39-3.93-3.77-3.93h-1.76v7.84h1.76C698.26,362.61,699.68,361.16,699.68,358.7Z"/><path class="cls-2" d="M715.09,360.83c0,1.73-1,2.81-3.53,2.81h-4.15v-9.9h3.93c2.26,0,3.29,1,3.29,2.61a2.24,2.24,0,0,1-1.77,2.14A2.34,2.34,0,0,1,715.09,360.83Zm-6.45-6.06v3.3h2.58c1.37,0,2.18-.63,2.18-1.72s-.94-1.58-2.38-1.58Zm5.22,6.06c0-1.32-1-1.72-2.54-1.72h-2.68v3.5h2.67C712.84,362.61,713.86,362.21,713.86,360.83Z"/><path class="cls-2" d="M716.89,358.7c0-3.07,1.88-5.14,4.61-5.14s4.61,2.07,4.61,5.14-1.88,5.12-4.61,5.12S716.89,361.75,716.89,358.7Zm8,0c0-2.54-1.33-4.1-3.37-4.1s-3.37,1.56-3.37,4.1,1.33,4.08,3.37,4.08S724.87,361.22,724.87,358.7Z"/><path class="cls-2" d="M734.54,362.59v1.05h-6v-9.9h1.25v8.85Z"/><path class="cls-2" d="M744.48,358.7a4.6,4.6,0,0,1-4.81,4.94h-3.18v-9.9h3.18A4.61,4.61,0,0,1,744.48,358.7Zm-1.24,0c0-2.48-1.39-3.93-3.76-3.93h-1.77v7.84h1.77C741.83,362.61,743.24,361.16,743.24,358.7Z"/><path class="cls-2" d="M762.26,359.06H749.93V358h12.33Z"/><path class="cls-2" d="M768.72,362.62h5.5v1h-6.74v-.42a3.77,3.77,0,0,1,2.18-3.47l2-1.15a2.25,2.25,0,0,0,1.35-2.06,1.82,1.82,0,0,0-2-1.94,2.14,2.14,0,0,0-2.23,2.3h-1.19a3.2,3.2,0,0,1,3.42-3.34,2.92,2.92,0,0,1,3.21,3c0,1.08-.33,2-1.92,2.93L770,360.81A2.46,2.46,0,0,0,768.72,362.62Z"/><path class="cls-2" d="M779.25,353.74v9.9H778v-7.8a3.16,3.16,0,0,1-2.27.63v-1c1.7-.05,2.21-.68,2.46-1.7Z"/><path class="cls-2" d="M788.63,360.48a3.23,3.23,0,0,1-3.44,3.34c-2.06,0-3.51-1.23-3.51-3h1.24a2.06,2.06,0,0,0,2.28,2,2.16,2.16,0,0,0,2.2-2.33,2.07,2.07,0,0,0-2.21-2.26,2,2,0,0,0-1.84,1h-1.43l.38-5.42h5.83v1H783.3l-.22,3.34a2.93,2.93,0,0,1,2.32-1A3.14,3.14,0,0,1,788.63,360.48Z"/><path class="cls-2" d="M802.25,356.5c0,1.63-1.13,2.81-3.39,2.81h-2.74v4.33h-1.24v-9.9H799C801.22,353.74,802.25,354.79,802.25,356.5Zm-1.24,0c0-1.11-.69-1.73-2.25-1.73h-2.64v3.5h2.64C800.32,358.27,801,357.56,801,356.5Z"/><path class="cls-2" d="M811.17,354.76h-3.28v8.88h-1.23v-8.88h-3.3v-1h7.81Z"/><path class="cls-2" d="M812.42,360.7h1.3c.19,1.4,1.22,2.08,2.83,2.08s2.48-.74,2.48-1.7-.59-1.39-1.74-1.65l-2.3-.51a2.5,2.5,0,0,1-2.25-2.51c0-1.61,1.36-2.85,3.54-2.85s3.67.92,3.88,2.95h-1.29c-.19-1.31-1.16-1.91-2.62-1.91s-2.21.73-2.21,1.66c0,.72.36,1.21,1.5,1.47l2.23.52c1.61.36,2.56,1.24,2.56,2.65,0,1.74-1.36,2.92-3.78,2.92C814,363.82,812.62,362.69,812.42,360.7Z"/><path class="cls-2" d="M548.55,522.19l5.07,5.45h-1.49l-4.86-5.13v5.13H546v-9.9h1.24v4.17l4.81-4.17h1.61Z"/><path class="cls-2" d="M563.54,523.79c0,2.69-1.58,4-4.08,4s-4.1-1.36-4.1-4v-6h1.23v6a2.67,2.67,0,0,0,2.88,3,2.64,2.64,0,0,0,2.85-2.89v-6.11h1.22Z"/><path class="cls-2" d="M573.84,520.5c0,1.63-1.13,2.81-3.39,2.81h-2.74v4.33h-1.24v-9.9h4.09C572.82,517.74,573.84,518.79,573.84,520.5Zm-1.24,0c0-1.11-.69-1.73-2.25-1.73h-2.64v3.5h2.64C571.91,522.27,572.6,521.56,572.6,520.5Z"/><path class="cls-2" d="M583.34,520.5c0,1.63-1.12,2.81-3.38,2.81h-2.74v4.33H576v-9.9h4.08C582.32,517.74,583.34,518.79,583.34,520.5Zm-1.24,0c0-1.11-.68-1.73-2.24-1.73h-2.64v3.5h2.64C581.42,522.27,582.1,521.56,582.1,520.5Z"/><path class="cls-2" d="M591,524.92h-4.36l-1,2.72h-1.32l3.91-9.9h1.33l3.78,9.9H592Zm-.38-1L588.84,519,587,523.88Z"/><path class="cls-2" d="M606.79,524.83c0,1.73-1,2.81-3.53,2.81h-4.14v-9.9H603c2.26,0,3.3,1,3.3,2.61a2.25,2.25,0,0,1-1.78,2.14A2.34,2.34,0,0,1,606.79,524.83Zm-6.45-6.06v3.3h2.58c1.37,0,2.18-.63,2.18-1.72s-.94-1.58-2.38-1.58Zm5.22,6.06c0-1.32-1-1.72-2.53-1.72h-2.69v3.5H603C604.54,526.61,605.56,526.21,605.56,524.83Z"/><path class="cls-2" d="M608.59,522.7c0-3.07,1.88-5.14,4.61-5.14s4.61,2.07,4.61,5.14-1.88,5.12-4.61,5.12S608.59,525.75,608.59,522.7Zm8,0c0-2.54-1.33-4.1-3.37-4.1s-3.37,1.56-3.37,4.1,1.33,4.08,3.37,4.08S616.57,525.22,616.57,522.7Z"/><path class="cls-2" d="M626.24,526.59v1h-6v-9.9h1.25v8.85Z"/><path class="cls-2" d="M636.18,522.7a4.6,4.6,0,0,1-4.81,4.94h-3.18v-9.9h3.18A4.61,4.61,0,0,1,636.18,522.7Zm-1.24,0c0-2.48-1.38-3.93-3.76-3.93h-1.77v7.84h1.77C633.53,526.61,634.94,525.16,634.94,522.7Z"/><path class="cls-2" d="M648.18,524.92h-4.36l-1,2.72h-1.31l3.91-9.9h1.33l3.77,9.9h-1.31Zm-.38-1L646,519l-1.84,4.87Z"/><path class="cls-2" d="M660.52,517.74v9.9h-1.87l-5.09-8.91v8.91h-1.17v-9.9h1.87l5.1,8.91v-8.91Z"/><path class="cls-2" d="M671.55,522.7a4.6,4.6,0,0,1-4.81,4.94h-3.18v-9.9h3.18A4.61,4.61,0,0,1,671.55,522.7Zm-1.24,0c0-2.48-1.38-3.93-3.76-3.93h-1.77v7.84h1.77C668.9,526.61,670.31,525.16,670.31,522.7Z"/><path class="cls-2" d="M681.44,523.31h-2.15v4.33h-1.24v-9.9h4.07c2.26,0,3.3,1,3.3,2.73,0,1.48-.82,2.49-2.66,2.71l3.2,4.46h-1.39Zm-2.15-1H682c1.45,0,2.21-.65,2.21-1.8s-.79-1.7-2.23-1.7h-2.66Z"/><path class="cls-2" d="M689.31,518.79v3.27h5v1h-5v3.5h5.61v1h-6.84v-9.9h6.84v1Z"/><path class="cls-2" d="M705.79,522.51l0,5.13h-1.09v-1.81a3.26,3.26,0,0,1-3.27,2c-2.79,0-4.65-2.07-4.65-5.12s1.85-5.14,4.62-5.14a3.9,3.9,0,0,1,4.16,2.85h-1.31a2.72,2.72,0,0,0-2.86-1.81c-2,0-3.37,1.56-3.37,4.1s1.35,4.08,3.41,4.08a3,3,0,0,0,3.18-3.24h-3.46v-1Z"/><path class="cls-2" d="M716.43,523.79c0,2.69-1.59,4-4.09,4s-4.09-1.36-4.09-4v-6h1.22v6a2.67,2.67,0,0,0,2.89,3,2.64,2.64,0,0,0,2.84-2.89v-6.11h1.23Z"/><path class="cls-2" d="M725.37,526.59v1h-6v-9.9h1.25v8.85Z"/><path class="cls-2" d="M732.82,524.92h-4.37l-1,2.72h-1.31l3.91-9.9h1.32l3.78,9.9h-1.31Zm-.38-1L730.67,519l-1.84,4.87Z"/><path class="cls-2" d="M740.41,523.31h-2.14v4.33H737v-9.9h4.07c2.26,0,3.29,1,3.29,2.73,0,1.48-.81,2.49-2.65,2.71l3.19,4.46h-1.38Zm-2.14-1H741c1.44,0,2.2-.65,2.2-1.8s-.78-1.7-2.23-1.7h-2.65Z"/><path class="cls-2" d="M762.26,523.06H749.93v-1h12.33Z"/><path class="cls-2" d="M768.72,526.62h5.5v1h-6.74v-.42a3.77,3.77,0,0,1,2.18-3.47l2-1.15a2.25,2.25,0,0,0,1.35-2.06,1.82,1.82,0,0,0-2-1.94,2.14,2.14,0,0,0-2.23,2.3h-1.19a3.2,3.2,0,0,1,3.42-3.34,2.92,2.92,0,0,1,3.21,3c0,1.08-.33,2-1.92,2.93L770,524.81A2.46,2.46,0,0,0,768.72,526.62Z"/><path class="cls-2" d="M779.25,517.74v9.9H778v-7.8a3.16,3.16,0,0,1-2.27.63v-1c1.7-.05,2.21-.68,2.46-1.7Z"/><path class="cls-2" d="M788.63,524.48a3.23,3.23,0,0,1-3.44,3.34c-2.06,0-3.51-1.23-3.51-3h1.24a2.06,2.06,0,0,0,2.28,2,2.16,2.16,0,0,0,2.2-2.33,2.07,2.07,0,0,0-2.21-2.26,2,2,0,0,0-1.84,1h-1.43l.38-5.42h5.83v1H783.3l-.22,3.34a2.93,2.93,0,0,1,2.32-1A3.14,3.14,0,0,1,788.63,524.48Z"/><path class="cls-2" d="M802.25,520.5c0,1.63-1.13,2.81-3.39,2.81h-2.74v4.33h-1.24v-9.9H799C801.22,517.74,802.25,518.79,802.25,520.5Zm-1.24,0c0-1.11-.69-1.73-2.25-1.73h-2.64v3.5h2.64C800.32,522.27,801,521.56,801,520.5Z"/><path class="cls-2" d="M811.17,518.76h-3.28v8.88h-1.23v-8.88h-3.3v-1h7.81Z"/><path class="cls-2" d="M812.42,524.7h1.3c.19,1.4,1.22,2.08,2.83,2.08s2.48-.74,2.48-1.7-.59-1.39-1.74-1.65l-2.3-.51a2.5,2.5,0,0,1-2.25-2.51c0-1.61,1.36-2.85,3.54-2.85s3.67.92,3.88,3h-1.29c-.19-1.31-1.16-1.91-2.62-1.91s-2.21.73-2.21,1.66c0,.72.36,1.21,1.5,1.47l2.23.52c1.61.36,2.56,1.24,2.56,2.65,0,1.74-1.36,2.92-3.78,2.92C814,527.82,812.62,526.69,812.42,524.7Z"/><path class="cls-2" d="M548.55,689.19l5.07,5.45h-1.49l-4.86-5.13v5.13H546v-9.9h1.24v4.17l4.81-4.17h1.61Z"/><path class="cls-2" d="M563.54,690.79c0,2.69-1.58,4-4.08,4s-4.1-1.36-4.1-4v-6h1.23v6a2.67,2.67,0,0,0,2.88,3,2.64,2.64,0,0,0,2.85-2.89v-6.11h1.22Z"/><path class="cls-2" d="M573.84,687.5c0,1.63-1.13,2.81-3.39,2.81h-2.74v4.33h-1.24v-9.9h4.09C572.82,684.74,573.84,685.79,573.84,687.5Zm-1.24,0c0-1.11-.69-1.73-2.25-1.73h-2.64v3.5h2.64C571.91,689.27,572.6,688.56,572.6,687.5Z"/><path class="cls-2" d="M583.34,687.5c0,1.63-1.12,2.81-3.38,2.81h-2.74v4.33H576v-9.9h4.08C582.32,684.74,583.34,685.79,583.34,687.5Zm-1.24,0c0-1.11-.68-1.73-2.24-1.73h-2.64v3.5h2.64C581.42,689.27,582.1,688.56,582.1,687.5Z"/><path class="cls-2" d="M591,691.92h-4.36l-1,2.72h-1.32l3.91-9.9h1.33l3.78,9.9H592Zm-.38-1L588.84,686,587,690.88Z"/><path class="cls-2" d="M602.5,690.31h-2.14v4.33h-1.24v-9.9h4.07c2.26,0,3.29,1,3.29,2.73,0,1.48-.81,2.49-2.65,2.71l3.19,4.46h-1.38Zm-2.14-1H603c1.44,0,2.2-.65,2.2-1.8s-.79-1.7-2.23-1.7h-2.65Z"/><path class="cls-2" d="M610.37,685.79v3.27h5v1h-5v3.5H616v1h-6.84v-9.9H616v1Z"/><path class="cls-2" d="M626.85,689.51v5.13h-1.1v-1.81a3.25,3.25,0,0,1-3.27,2c-2.78,0-4.65-2.07-4.65-5.12s1.85-5.14,4.63-5.14a3.9,3.9,0,0,1,4.15,2.85h-1.31a2.71,2.71,0,0,0-2.86-1.81c-2,0-3.37,1.56-3.37,4.1s1.36,4.08,3.41,4.08a3,3,0,0,0,3.18-3.24H622.2v-1Z"/><path class="cls-2" d="M637.49,690.79c0,2.69-1.59,4-4.08,4s-4.1-1.36-4.1-4v-6h1.23v6a2.67,2.67,0,0,0,2.88,3,2.64,2.64,0,0,0,2.85-2.89v-6.11h1.22Z"/><path class="cls-2" d="M646.43,693.59v1h-6v-9.9h1.25v8.85Z"/><path class="cls-2" d="M653.88,691.92h-4.36l-1,2.72h-1.31l3.91-9.9h1.33l3.78,9.9h-1.32Zm-.38-1L651.74,686l-1.84,4.87Z"/><path class="cls-2" d="M661.48,690.31h-2.15v4.33h-1.24v-9.9h4.07c2.26,0,3.3,1,3.3,2.73,0,1.48-.82,2.49-2.66,2.71l3.2,4.46h-1.39Zm-2.15-1H662c1.45,0,2.21-.65,2.21-1.8s-.79-1.7-2.23-1.7h-2.66Z"/><path class="cls-2" d="M677.54,691.92h-4.36l-1,2.72h-1.32l3.91-9.9h1.33l3.78,9.9h-1.31Zm-.38-1L675.4,686l-1.84,4.87Z"/><path class="cls-2" d="M689.88,684.74v9.9H688l-5.09-8.91v8.91h-1.17v-9.9h1.87l5.11,8.91v-8.91Z"/><path class="cls-2" d="M700.92,689.7a4.6,4.6,0,0,1-4.82,4.94h-3.18v-9.9h3.18A4.61,4.61,0,0,1,700.92,689.7Zm-1.24,0c0-2.48-1.39-3.93-3.77-3.93h-1.76v7.84h1.76C698.26,693.61,699.68,692.16,699.68,689.7Z"/><path class="cls-2" d="M715.09,691.83c0,1.73-1,2.81-3.53,2.81h-4.15v-9.9h3.93c2.26,0,3.29,1,3.29,2.61a2.24,2.24,0,0,1-1.77,2.14A2.34,2.34,0,0,1,715.09,691.83Zm-6.45-6.06v3.3h2.58c1.37,0,2.18-.63,2.18-1.72s-.94-1.58-2.38-1.58Zm5.22,6.06c0-1.32-1-1.72-2.54-1.72h-2.68v3.5h2.67C712.84,693.61,713.86,693.21,713.86,691.83Z"/><path class="cls-2" d="M716.89,689.7c0-3.07,1.88-5.14,4.61-5.14s4.61,2.07,4.61,5.14-1.88,5.12-4.61,5.12S716.89,692.75,716.89,689.7Zm8,0c0-2.54-1.33-4.1-3.37-4.1s-3.37,1.56-3.37,4.1,1.33,4.08,3.37,4.08S724.87,692.22,724.87,689.7Z"/><path class="cls-2" d="M734.54,693.59v1h-6v-9.9h1.25v8.85Z"/><path class="cls-2" d="M744.48,689.7a4.6,4.6,0,0,1-4.81,4.94h-3.18v-9.9h3.18A4.61,4.61,0,0,1,744.48,689.7Zm-1.24,0c0-2.48-1.39-3.93-3.76-3.93h-1.77v7.84h1.77C741.83,693.61,743.24,692.16,743.24,689.7Z"/><path class="cls-2" d="M762.26,690.06H749.93v-1h12.33Z"/><path class="cls-2" d="M768.72,693.62h5.5v1h-6.74v-.42a3.77,3.77,0,0,1,2.18-3.47l2-1.15a2.25,2.25,0,0,0,1.35-2.06,1.82,1.82,0,0,0-2-1.94,2.14,2.14,0,0,0-2.23,2.3h-1.19a3.2,3.2,0,0,1,3.42-3.34,2.92,2.92,0,0,1,3.21,3c0,1.08-.33,2-1.92,2.93L770,691.81A2.46,2.46,0,0,0,768.72,693.62Z"/><path class="cls-2" d="M779.25,684.74v9.9H778v-7.8a3.16,3.16,0,0,1-2.27.63v-1c1.7-.05,2.21-.68,2.46-1.7Z"/><path class="cls-2" d="M788.63,691.48a3.23,3.23,0,0,1-3.44,3.34c-2.06,0-3.51-1.23-3.51-3h1.24a2.06,2.06,0,0,0,2.28,2,2.16,2.16,0,0,0,2.2-2.33,2.07,2.07,0,0,0-2.21-2.26,2,2,0,0,0-1.84,1h-1.43l.38-5.42h5.83v1H783.3l-.22,3.34a2.93,2.93,0,0,1,2.32-1A3.14,3.14,0,0,1,788.63,691.48Z"/><path class="cls-2" d="M802.25,687.5c0,1.63-1.13,2.81-3.39,2.81h-2.74v4.33h-1.24v-9.9H799C801.22,684.74,802.25,685.79,802.25,687.5Zm-1.24,0c0-1.11-.69-1.73-2.25-1.73h-2.64v3.5h2.64C800.32,689.27,801,688.56,801,687.5Z"/><path class="cls-2" d="M811.17,685.76h-3.28v8.88h-1.23v-8.88h-3.3v-1h7.81Z"/><path class="cls-2" d="M812.42,691.7h1.3c.19,1.4,1.22,2.08,2.83,2.08s2.48-.74,2.48-1.7-.59-1.39-1.74-1.65l-2.3-.51a2.5,2.5,0,0,1-2.25-2.51c0-1.61,1.36-2.85,3.54-2.85s3.67.92,3.88,3h-1.29c-.19-1.31-1.16-1.91-2.62-1.91s-2.21.73-2.21,1.66c0,.72.36,1.21,1.5,1.47l2.23.52c1.61.36,2.56,1.24,2.56,2.65,0,1.74-1.36,2.92-3.78,2.92C814,694.82,812.62,693.69,812.42,691.7Z"/><path d="M414,138c0,12.78-5.26,22.55-26.94,22.55-10.4,0-21.05-4.26-21.05-18.79,0-11,8.14-24.19,14.91-31.33a68.32,68.32,0,0,0,2.38-11.9l.88-.51C401.09,113,414,124.93,414,138Zm-4.26,2.38c0-5.52-8-12.28-23.05-23.43-6.9,3.75-16.67,14-16.67,21.05s7.52,10.52,18.42,10.52C401.71,148.48,409.73,146,409.73,140.34ZM371.14,84.08a51.51,51.51,0,0,1,7.39-7.52,59.82,59.82,0,0,1,8.27,7.89A46.38,46.38,0,0,1,379.41,92,61.74,61.74,0,0,0,371.14,84.08Zm18.92.25a52,52,0,0,1,7.39-7.52,60.41,60.41,0,0,1,8.27,7.89,46.38,46.38,0,0,1-7.39,7.52A61.74,61.74,0,0,0,390.06,84.33Zm97,64.4v11.78c-8.27,0-12.65-3.76-17.54-9.27-.38,18.92-18.17,40.72-32.58,40.72a22.87,22.87,0,0,1-5.14-.5L419,179.18l.75-1.75a65,65,0,0,0,14.66,1.75c16.17,0,28.82-9.9,30.83-20.92.63-3.26-9.4-22.68-14.66-29.7l8.77-9.65h1.5a102.3,102.3,0,0,1,6,15.54C471.13,147.23,476.89,148.73,487,148.73Zm77.56-27.19,7.9-7.64h.88c5.26,7.52,9,17.92,9,21.8,0,9.78-9.4,24.81-24.19,24.81-8.64,0-13.78-3.63-15.91-11.78-4.64,8.15-9.65,11.78-17.67,11.78-7.77,0-11.9-4.76-13.66-11.9-3.13,7.89-10,11.9-21.67,11.9H487c-3.38,0-5.26-2.88-5.26-5.89s1.88-5.89,5.26-5.89h6.89c5.89,0,8.77-.87,10.78-2.25,5.64-3.64,7.77-9.9,12.15-22.43l4-.88.38.88c-1.88,7-3.26,11.78-3.26,15,0,5.89,2.76,9.65,9.77,9.65a15.57,15.57,0,0,0,8.78-2.38c5.26-3.63,7.39-9.77,11.9-22.3l3.88-.88.38.88c-1.75,7-3.26,12.15-3.26,15,0,5.89,4.76,9.65,14.16,9.65,8,0,12.53-3.51,14-6.51C578.76,140,570.37,127.56,564.6,121.54Zm81.95,23.18c0,3.64-4.76,10.53-8.89,12.16-7.27,2.88-22.31,3.63-31.08,3.63H594.8l-2.26-12.65h3.76c8.27-4.64,23.69-16.29,28-20.18a288.11,288.11,0,0,0-35.59-20.05l3.88-12.28a224.61,224.61,0,0,1,36.84,26.44c2.76-4.13,3.26-8.39,3.26-14.53,0-9-1.63-19.05-4.13-33l11-3.26c.88,8.4,2.26,19.18,2.26,24.56,0,11.41-5.14,21.43-10.15,28.2C640.54,132.07,646.55,139.84,646.55,144.72Zm-55.63-60A4.31,4.31,0,0,1,592,80.44a14.33,14.33,0,0,1,3.39-2.63c-1.63-1.5-2.76-3.26-2.76-4.89,0-5.26,5.76-10.9,11.9-10.9,5.89,0,8.15,4.39,6.14,6.39L609,70.17c-.75-1.13-3.63-2.89-6.77-2.89-2.75,0-5.26,1.13-5.26,2.89,0,2.13,4.64,3.76,10.15,3.76H615l-3,5.89h-3.51C602.57,79.82,595.18,81.19,590.92,84.7Zm52.37,58.65c-3.25-4.14-9.27-8.9-16.41-13.79-4.76,5.14-11.28,11.4-18.3,18.05,5.39,0,10.78-.13,14.92-.25C633.77,147,643.29,146.23,643.29,143.35Zm22.31,18.29h2l4.76-14.54c.88-9.52,1.26-24.81,1.26-34.2,0-13-1.26-27.95-2.76-41.86l-10.53,7C663.84,98.49,666.35,137.83,665.6,161.64Z"/><path d="M850.42,160.51c-11.78,0-21.93-2-28.82-6.76-8,4.26-19.42,6.76-34.46,6.76-7.52,0-15.66-.87-21.68-3C763.84,176.55,755.69,192,733,192c-31,0-36.59-27.81-20.68-53l3.14,1.25c-9.53,23.69,3.26,29.57,18,29.57,14.29,0,24.94-4.38,24.94-13.78,0-5-8.77-18.17-15.16-28.07l10.52-8.52h3.13a79.39,79.39,0,0,0,6.9,11.78c2.5,3.63,4.63,5.51,10.65,6.52C782,122.42,792.41,107,810.32,107c16.42,0,25.82,11.78,25.82,24.43a23.36,23.36,0,0,1-.75,6,97.62,97.62,0,0,0,15,.75ZM828.74,135.7c2.13-3.51-7-9.77-20.42-9.77-11.53,0-20.55,3.88-27.94,12.28,2.38.12,5,.12,8.14.12C816.21,138.33,827,138.46,828.74,135.7Zm64.41,24.81c-8.15,0-16.92-1.5-20.43-9.77-4.38,5.14-12.65,9.77-22.3,9.77-3.39,0-5.27-3.51-5.27-11.28,0-8.52,1.88-11.15,5.27-11.15,8.14,0,14.66-2.13,17.16-4,3.26-2.5,4.89-3.76,11.53-18.42l5.39-1.13.38.88c-2.26,7-2.51,8.4-2.64,11.78-.25,6.52,4.52,10.9,10.91,10.9Zm-10.4-62.65a73.68,73.68,0,0,1-10.28,10.52,96.14,96.14,0,0,0-11.53-11A89.42,89.42,0,0,1,871.22,87,79,79,0,0,1,882.75,97.86ZM900.41,138c9.78-.38,13.66-3.89,12.78-12.91l-4.51-44.61,16-9.4c0,23.31-.12,50-.88,68-.62,14.67-13.15,21.43-27.31,21.43h-3.39c-4.13,0-5.26-4.76-5.26-11.53s1.13-10.9,5.26-10.9C893.77,138.08,896.53,138.08,900.41,138ZM946,161.64h2l7.27-14.54a214.84,214.84,0,0,0,3.25-36.71c0-10.53-.75-25.44-2.25-39.35l-15.54,7C944.27,98.49,946.77,137.83,946,161.64ZM974,175.55l-1.5,2.63,18.8,18.92a63.12,63.12,0,0,0,17.41-2.76c22.06-6.51,31.33-23.55,31.33-49.62,0-19.29-6.77-35.71-23.06-35.71-12.4,0-21.17,14-21.17,26.69,0,13.28,6,23.94,22.8,23.94,3.14,0,7.77-.88,12.53-1.51-1.38,6.14-9.52,10.4-16.41,12.91C1004.54,174.67,987,177.18,974,175.55Zm30.7-39.1c0-4.51,3.64-8.64,10.28-8.64h1.63c5.14,0,11.4,4.76,12.65,11.9-4.63.38-8.64.5-12.65.5C1007.55,140.21,1004.66,139.21,1004.66,136.45Z"/></g></svg>