<?xml version='1.0' encoding='UTF-8'?>
<svg xmlns="http://www.w3.org/2000/svg" xmlns:xlink="http://www.w3.org/1999/xlink" width="1366px" height="768px" viewBox="0 0 1366 768" x="0px" y="0px" enable-background="new 0 0 1366 768"><defs><symbol overflow="visible" id="51aa2adfg"><path d="M22.83-38.47c-7.78 0-13.08 5.02-15.13 12.08v-25.97H6.4V0h1.24v-11.34C9.6-4.22 14.83.87 22.7.87c9.89 0 16.3-8.35 16.3-19.64 0-11.26-6.27-19.7-16.16-19.7zM22.69-.44C13.23-.44 7.7-8.8 7.7-18.04v-1.6c0-9.3 5.61-17.52 15.13-17.52 9.01 0 14.84 7.85 14.84 18.4C37.67-8.3 31.78-.45 22.7-.45zm0 0"/></symbol><symbol overflow="visible" id="51aa2adfh"><path d="M19.56-38.47c-8.3 0-13.67 4.3-14.68 12.44h1.37c1.1-7.78 6.1-11.13 13.4-11.13 7.18 0 11.33 4.5 11.33 11.78v2.77L15.12-20.8c-7.85.88-11.64 5.02-11.64 10.83C3.48-4.07 8.14.88 16.14.88c6.98 0 12.73-3.79 14.9-10.47V0h1.24v-25.45c0-8-4.58-13.02-12.72-13.02zM16.14-.44C9.1-.44 4.8-4.74 4.8-9.89c0-5.02 3.28-8.8 10.4-9.6l15.78-1.82v5.45c0 8.81-6.04 15.42-14.84 15.42zm0 0"/></symbol><symbol overflow="visible" id="51aa2adfi"><path d="M35.05-52.36v26.19c-1.96-7.14-7.27-12.3-15.13-12.3-9.95 0-16.14 8.44-16.14 19.7C3.78-7.48 10.11.87 20.08.87 28 .88 33.23-4.3 35.13-11.55V0h1.23v-52.36zM20.08-.44c-9.1 0-14.99-7.86-14.99-18.33 0-10.54 5.82-18.39 14.83-18.39 9.53 0 15.13 8.22 15.13 17.52v1.6c0 9.24-5.52 17.6-14.97 17.6zm0 0"/></symbol><symbol overflow="visible" id="51aa2adfj"><path d="M47.84-38.47c-7.62 0-12.14 4.3-13.8 10.99-1.16-7.13-5.98-10.99-12.95-10.99-6.9 0-11.5 4.14-13.45 10.33v-9.45H6.41V0h1.3v-21.02c0-10.4 5.52-16.14 13.3-16.14 8 0 12 5.02 12 13.52V0h1.32v-21.02c0-10.4 5.01-16.14 13.51-16.14 7.57 0 11.72 4.8 11.72 13.52V0h1.3v-23.7c0-9.61-4.86-14.77-13.02-14.77zm0 0"/></symbol><symbol overflow="visible" id="51aa2adfk"><path d="M35.84-19.64c0-11.05-5.59-18.83-15.84-18.83-9.97 0-16.14 8.36-16.14 19.78C3.86-7.79 9.8.88 20.72.88c8.3 0 12.87-5.4 14.55-11.86H33.8C32.5-4.88 27.64-.44 20.8-.44 10.77-.44 5.3-8.3 5.16-18.25h30.68zm-30.68.08c.3-10.25 5.96-17.6 14.84-17.6 9.1 0 14.55 6.77 14.55 17.6zm0 0"/></symbol><symbol overflow="visible" id="51aa2adfl"><path d="M20.28.88C30.47.88 36.5-7.56 36.5-18.77c0-11.18-6.03-19.7-16.28-19.7-10.33 0-16.36 8.52-16.36 19.7C3.86-7.57 9.96.87 20.28.87zm0-1.32C10.77-.44 5.16-8.3 5.16-18.77c0-10.46 5.45-18.39 15.06-18.39 9.51 0 14.98 7.93 14.98 18.4C35.2-8.3 29.53-.45 20.28-.45zm0 0"/></symbol><symbol overflow="visible" id="51aa2adfm"><path d="M18.98-38.03c-5.96 0-10.26 4.51-11.42 9.67v-9.23H6.41V0h1.3v-21.81c0-9.46 4.95-14.9 10.98-14.9.43 0 .8 0 1.39.05v-1.3c-.52-.07-.74-.07-1.1-.07zm0 0"/></symbol><symbol overflow="visible" id="51aa2adfn"><path d="M33.9-37.6L17.74-4.8 3.35-37.6H1.96L16.94-3.41 8.3 13.68h1.45L35.27-37.6zm0 0"/></symbol><symbol overflow="visible" id="51aa2adfW"><path d="M47.4-38.47c-6.6 0-11.12 3.34-13.23 8.74-1.89-5.7-6.39-8.74-12.58-8.74-6.03 0-10.32 3.13-12.5 8.14v-7.26H6.03V0h3.2v-21.9c0-8.79 5.16-13.58 11.79-13.58 6.82 0 10.82 4.43 10.82 12.43V0h3.2v-21.9c0-8.79 4.88-13.58 11.93-13.58 6.62 0 10.7 4.28 10.7 12.43V0h3.19v-23.34c0-9.75-5.23-15.13-13.45-15.13zm0 0"/></symbol><symbol overflow="visible" id="51aa2adfX"><path d="M19.56-38.47c-8.36 0-13.97 4.22-14.98 12.44h3.28c.94-6.77 5.23-9.6 11.78-9.6 6.4 0 10.31 3.57 10.31 10.1v2.76l-14.53 1.61c-8 .88-12 4.88-12 11.05C3.42-3.92 8.52.87 16.22.87c6.17 0 11.05-2.84 13.89-8.21V0h2.98v-25.45c0-8.44-5.17-13.02-13.53-13.02zm-2.84 36.5c-6.17 0-9.95-3.7-9.95-8.14s2.68-7.7 9.15-8.44l13.97-1.67v4.8c0 7.86-5.23 13.45-13.17 13.45zm0 0"/></symbol><symbol overflow="visible" id="51aa2adfY"><path d="M9.45-52.36h-3.2V0h3.2zm0 0"/></symbol><symbol overflow="visible" id="51aa2adfZ"><path d="M36.58-19.13c0-11.64-5.6-19.34-16.3-19.34-9.87 0-16.64 8-16.64 19.92C3.64-7.35 9.9.88 21.02.88c8.57 0 13.37-5.4 14.98-11.86h-3.34c-1.32 5.17-5.46 8.95-11.78 8.95C12.44-2.03 7.2-8.3 6.82-17.6h29.75zM6.9-20.43c.57-9.38 5.89-15.13 13.37-15.13 7.86 0 12.81 5.39 13.03 15.12zm0 0"/></symbol><symbol overflow="visible" id="51aa2adfaa"><path d="M20.58.88c10.4 0 16.8-8.22 16.8-19.65 0-11.4-6.4-19.7-16.88-19.7-10.53 0-16.86 8.3-16.86 19.7C3.64-7.34 10.04.87 20.58.87zm0-2.91c-8.66 0-13.75-7.13-13.75-16.74 0-9.59 4.95-16.8 13.67-16.8 8.66 0 13.67 7.21 13.67 16.8 0 9.61-5.15 16.74-13.6 16.74zm0 0"/></symbol><symbol overflow="visible" id="51aa2adfab"><path d="M19.64-38.03c-5.39 0-9.1 3.42-10.55 7.92v-7.48H6.03V0h3.2v-21.97c0-7.98 4.14-12.94 10.25-12.94.66 0 1.1 0 1.68.08v-3.06c-.66-.14-1.02-.14-1.52-.14zm0 0"/></symbol><symbol overflow="visible" id="51aa2adfac"><path d="M7.86-45.3c1.6 0 2.9-1.39 2.9-2.92a2.92 2.92 0 00-2.9-2.97 2.89 2.89 0 00-2.92 2.97 2.94 2.94 0 002.92 2.92zM6.25 0h3.2v-37.6h-3.2zm0 0"/></symbol><symbol overflow="visible" id="51aa2adfaE"><path d="M30.6-52.36v19.48c-2.54-3.62-6.54-5.59-11.77-5.59-8.94 0-16.58 7.05-16.58 19.7C2.25-6.33 10.25.87 19.2.87c5.74 0 9.96-2.46 12.36-7.2V0h8.66v-52.36zM21.32-6.83c-5.45 0-9.39-4.65-9.39-11.94 0-7.26 3.72-12 9.4-12 5.37 0 9.29 4.82 9.29 12 0 7.35-3.84 11.94-9.3 11.94zm0 0"/></symbol><symbol overflow="visible" id="51aa2adfaF"><path d="M19.78-41.38c4.94 0 9.02-4 9.02-8.87a8.95 8.95 0 00-9.02-8.94 9 9 0 00-9.01 8.94 9.03 9.03 0 009.01 8.88zm0-12.3c1.9 0 3.42 1.4 3.42 3.43 0 2.03-1.53 3.34-3.42 3.34-1.97 0-3.34-1.3-3.34-3.34a3.32 3.32 0 013.34-3.42zm.36 15.21c-9.89 0-15.92 4.3-16.94 12.44h9.6c.73-3.7 3.12-5.45 7.48-5.45 4.16 0 6.77 2.03 6.77 6.25v2.03L15.7-22.03c-9.37.94-13.3 5.37-13.3 11.62C2.4-3.86 7.93.88 15.93.88c5.1 0 9.1-1.83 12-5.68V0h8.66v-24.66c0-9.51-6.25-13.8-16.44-13.8zM18.47-5.59c-4 0-6.33-2.33-6.33-5.24 0-2.84 1.83-4.95 5.83-5.45l9.01-1.17v2.76c0 5.38-2.98 9.1-8.51 9.1zm0 0"/></symbol><symbol overflow="visible" id="51aa2adfaG"><path d="M22.83-37.95c-4.44 0-8.14 2.33-9.95 6.83v-6.47H4.21V0h9.6v-20c0-5.95 3.2-9.38 9.09-9.38.95 0 1.59.07 2.18.15v-8.44a8.04 8.04 0 00-2.26-.28zm0 0"/></symbol><symbol overflow="visible" id="51aa2adfaH"><path d="M13.9-52.36H4.3V0h9.6zm0 0"/></symbol><symbol overflow="visible" id="51aa2adfaI"><path d="M9.16-42.98c3.34 0 5.67-2.61 5.67-5.68a5.55 5.55 0 00-5.67-5.67 5.58 5.58 0 00-5.82 5.67 5.62 5.62 0 005.82 5.68zM4.3 0h9.6v-37.6H4.3zm0 0"/></symbol><symbol overflow="visible" id="51aa2adfaJ"><path d="M31.34-37.6v5.54c-2.62-4.16-6.9-6.4-12.3-6.4-9.29 0-16.79 6.98-16.79 18.32S9.81-1.75 19.05-1.75c5.1 0 8.95-1.73 11.56-5.73v5.95c0 5.97-3.27 9.1-9.08 9.1-5.97 0-8.22-2.48-8.6-6.34H2.85c.8 7.57 5.02 13.32 18.7 13.32 13.29 0 18.6-7.43 18.6-16.44v-35.7zM21.24-9.36c-5.24 0-9.32-4.22-9.32-10.77 0-6.47 3.86-10.69 9.31-10.69 5.32 0 9.38 4.22 9.38 10.69 0 6.33-4 10.77-9.38 10.77zm0 0"/></symbol><symbol overflow="visible" id="51aa2adfaK"><path d="M24.5-38.47c-4.86 0-8.5 2.11-10.69 5.9v-19.79h-9.6V0h9.6v-21.6c0-5.74 3.35-8.8 7.72-8.8 4.22 0 7.4 2.84 7.4 8.65V0h9.62v-23.64c0-9.73-6.05-14.83-14.05-14.83zm0 0"/></symbol><symbol overflow="visible" id="51aa2adfaL"><path d="M27.84-37.6v21.96c0 5.17-3.12 8.52-7.84 8.52-4.22 0-6.55-2.63-6.55-7.13v-23.34h-9.6v24.65C3.86-4 8.73.87 17.16.87c5.1 0 9.18-2.25 11.73-6.54V0h8.57v-37.6zm0 0"/></symbol><symbol overflow="visible" id="51aa2adfaM"><path d="M39.7 0L22.6-21.1l16.38-16.5H28.36L13.8-23.26v-29.09h-9.6V0h9.6v-18.55L28.71 0zm0 0"/></symbol><symbol overflow="visible" id="51aa2adfaN"><path d="M21.31.88c10.75 0 19.05-7.65 19.05-19.65 0-12.06-8.3-19.7-19.05-19.7-10.84 0-19.12 7.64-19.12 19.7C2.19-6.69 10.47.87 21.3.87zm-.08-7.79c-5.8 0-9.3-4.57-9.3-11.86 0-7.26 3.41-11.92 9.3-11.92 5.82 0 9.32 4.58 9.32 11.92 0 7.29-3.5 11.86-9.32 11.86zm0 0"/></symbol><symbol overflow="visible" id="51aa2adfaO"><path d="M48.22-38.47c-5.31 0-9.61 2.33-12.16 6.9-2.17-4.43-6.33-6.9-11.7-6.9-5.02 0-9.1 2.03-11.48 6.11v-5.23H4.21V0h9.6v-22.03c0-5.45 3.2-8.14 7.34-8.14 4.07 0 6.98 2.69 6.98 8.58V0h9.6v-22.03c0-5.4 3.28-8.14 7.42-8.14 4.07 0 6.98 2.69 6.98 8.58V0h9.6v-23.56c0-9.38-5.3-14.9-13.52-14.9zm0 0"/></symbol><symbol overflow="visible" id="51aa2adfaP"><path d="M20.8-38.47c-10.99 0-18.61 8-18.61 19.92C2.19-7.12 9.09.88 21.09.88c9.52 0 15.49-5.18 17.16-11.86h-9.53c-1.08 2.76-3.4 4.57-7.56 4.57-5.08 0-8.72-2.82-9.38-9.67h27.2s.07-1.01.07-2.17c.22-12.08-6.47-20.22-18.25-20.22zm-8.88 16.14c.96-5.95 4.36-8.87 8.96-8.87 4.93 0 8.06 3.2 8.35 8.87zm0 0"/></symbol><symbol overflow="visible" id="51aa2adfaQ"><path d="M19.48.88c11.5 0 16.44-5.46 16.44-11.7 0-5.84-2.98-9.68-11.2-11.07l-7.92-1.38c-3.93-.65-5.02-2.04-5.02-4.07 0-2.4 2.19-4.36 6.55-4.36 4.36 0 6.98 1.89 7.56 5.67h9.45C34.11-33.6 28.5-38.47 18.4-38.47c-10.25 0-15.62 5.45-15.62 11.7 0 5.75 3.2 9.32 10.82 10.77l8.08 1.53c3.42.58 4.72 2.11 4.72 4.28 0 2.55-2.17 4.3-6.97 4.3-4.6 0-7.2-1.75-8-5.1H2.03C3.43-3.91 8.3.89 19.48.89zm0 0"/></symbol><symbol overflow="visible" id="51aa2adfaR"><path d="M44.06-49.38l-10.9 33.82-10.99-33.81H4.8V0H16v-39.05L28.58 0h9.1l12.57-39.2V0h11.2v-49.38zm0 0"/></symbol><symbol overflow="visible" id="51aa2adfaS"><path d="M35.2-55.05H22.7l-7.7 11.35h10.6zM20.36-38.47c-10.4 0-16.44 4.36-17.52 12.44h10.83c.72-3.28 2.83-4.88 6.77-4.88 3.84 0 6.17 1.97 6.17 5.82v1.89l-10.9 1.1c-9.82.94-13.52 5.52-13.52 11.7C2.19-3.93 7.56.87 15.86.87c4.94 0 9.02-1.83 11.84-5.61V0h9.61v-24.36c0-9.75-6.33-14.1-16.95-14.1zm-1.6 32.44c-3.64 0-5.82-2.19-5.82-4.88 0-2.68 1.83-4.57 5.39-5.09l8.14-1.1v2.5c0 5-2.55 8.57-7.7 8.57zm0 0"/></symbol><symbol overflow="visible" id="51aa2adfaT"><path d="M48.72-38.47c-5.16 0-9.45 2.25-12 6.84-2.17-4.37-6.33-6.84-11.7-6.84-4.94 0-9.1 2.03-11.57 6.19v-5.31H3.78V0h10.77v-21.67c0-5.16 2.76-7.56 6.6-7.56 3.79 0 6.33 2.4 6.33 7.86V0h10.85v-21.67c0-5.02 2.76-7.56 6.6-7.56 3.79 0 6.34 2.4 6.34 7.86V0h10.76v-23.7c0-9.32-5.23-14.77-13.31-14.77zm0 0"/></symbol><symbol overflow="visible" id="51aa2adfaU"><path d="M20.88-38.47c-11.43 0-18.99 8.14-18.99 19.92C1.9-7.2 8.8.88 20.94.88c9.67 0 16-5.1 17.75-11.86H28c-1.02 2.4-3.13 3.93-6.77 3.93-4.73 0-8-2.4-8.65-8.87h26.9s.08-1.1.08-2.27c.22-11.98-6.84-20.28-18.69-20.28zM12.8-22.55c.95-5.37 4-8 8.14-8 4.6 0 7.34 3.13 7.56 8zm0 0"/></symbol><symbol overflow="visible" id="51aa2adfaV"><path d="M36-55.05H23.48l-7.7 11.35H26.4zM21.37.87c10.77 0 19.5-7.5 19.5-19.64 0-12.21-8.73-19.7-19.5-19.7-10.82 0-19.48 7.56-19.48 19.7C1.9-6.55 10.55.87 21.37.87zm0-8.57c-5.37 0-8.57-4.16-8.57-11.07 0-6.98 3.2-11.12 8.51-11.12 5.38 0 8.5 4.14 8.5 11.12 0 6.91-3.2 11.07-8.43 11.07zm0 0"/></symbol><symbol overflow="visible" id="51aa2adfaW"><path d="M23.56-37.9c-4.22 0-8.14 2.27-10.1 6.92v-6.61H3.77V0h10.77v-19.34c0-5.97 3.26-9.02 9.1-9.02.93 0 1.58.08 2.16.14v-9.37a7.27 7.27 0 00-2.25-.3zm0 0"/></symbol><symbol overflow="visible" id="51aa2adfaX"><path d="M9.31-42.6a6.04 6.04 0 006.17-6.2 5.96 5.96 0 00-6.17-6.03c-3.78 0-6.26 2.69-6.26 6.03a6.03 6.03 0 006.26 6.2zM3.86 0h10.83v-37.6H3.86zm0 0"/></symbol><symbol overflow="visible" id="51aa2adfaY"><path d="M20.36-38.47c-10.4 0-16.44 4.36-17.52 12.44h10.83c.72-3.28 2.83-4.88 6.77-4.88 3.84 0 6.17 1.97 6.17 5.82v1.89l-10.9 1.1c-9.82.94-13.52 5.52-13.52 11.7C2.19-3.93 7.56.87 15.86.87c4.94 0 9.02-1.83 11.84-5.61V0h9.61v-24.36c0-9.75-6.33-14.1-16.95-14.1zm-1.6 32.44c-3.64 0-5.82-2.19-5.82-4.88 0-2.68 1.83-4.57 5.39-5.09l8.14-1.1v2.5c0 5-2.55 8.57-7.7 8.57zm0 0"/></symbol><symbol overflow="visible" id="51aa2adfo"><path d="M47.63-38.47c-7.13 0-11.63 3.78-13.52 9.81-1.53-6.39-6.27-9.8-12.8-9.8-6.48 0-10.98 3.63-13.01 9.23v-8.36H6.25V0h2.1v-21.38c0-9.75 5.4-15.06 12.67-15.06 7.48 0 11.48 4.81 11.48 13.1V0h2.19v-21.38c0-9.75 4.94-15.06 12.8-15.06 7.12 0 11.2 4.6 11.2 13.1V0h2.17v-23.56c0-9.67-5.02-14.9-13.23-14.9zm0 0"/></symbol><symbol overflow="visible" id="51aa2adfp"><path d="M19.56-38.47c-8.3 0-13.81 4.3-14.83 12.44h2.25C8-33.37 12.72-36.5 19.64-36.5c6.83 0 10.9 4.14 10.9 11.05v2.76l-15.27 1.75C7.34-20.08 3.42-16 3.42-10.04 3.42-4 8.3.88 16.22.88c6.55 0 11.84-3.28 14.39-9.23V0h2.05v-25.45c0-8.22-4.82-13.02-13.1-13.02zm-3.2 37.38c-6.61 0-10.69-4.07-10.69-8.94 0-4.74 3.05-8.3 9.81-9.02l14.99-1.75v5.16c0 8.37-5.67 14.55-14.11 14.55zm0 0"/></symbol><symbol overflow="visible" id="51aa2adfq"><path d="M31.92-37.6V-16c0 8.73-4.87 14.84-12.65 14.84-8.14 0-11.35-5.03-11.35-12v-24.43H5.75v24.5C5.75-4.94 9.53.87 18.91.87 25.53.88 30.03-2.69 32-8.57V0h2.03v-37.6zm0 0"/></symbol><symbol overflow="visible" id="51aa2adfr"><path d="M32-37.6L18.1-3.04 3.87-37.59H1.59L17.1 0h2.04l15.12-37.6zm0 0"/></symbol><symbol overflow="visible" id="51aa2adfs"><path d="M7.64-45.73c1.3 0 2.33-1.18 2.33-2.49 0-1.37-1.03-2.39-2.33-2.39a2.4 2.4 0 00-2.48 2.4c0 1.3 1.09 2.48 2.48 2.48zM6.47 0h2.1v-37.6h-2.1zm0 0"/></symbol><symbol overflow="visible" id="51aa2adft"><path d="M18.6.88c8.82 0 13.98-3.86 13.98-10.26 0-5.53-3.13-8.43-10.4-9.89l-8.21-1.67c-5.83-1.23-7.86-3.28-7.86-7.28 0-4.8 3.86-8.28 11.2-8.28 7.27 0 11.49 3.34 12.28 10.47h2.25c-.86-8.44-6.03-12.44-14.53-12.44C8.8-38.47 4-34.03 4-28.14c0 5.23 2.9 7.78 9.31 9.16l8.06 1.67c6.27 1.31 9.1 3.5 9.1 8.08C30.47-4 25.8-1.1 18.6-1.1 11.27-1.1 6.69-4.36 5.59-11H3.42C4.58-3.2 9.82.89 18.61.89zm0 0"/></symbol><symbol overflow="visible" id="51aa2adfu"><path d="M36.22-19.42c0-11.35-5.67-19.05-16.08-19.05-9.95 0-16.36 8.22-16.36 19.86C3.78-7.56 9.81.87 20.88.87c8.43 0 13.07-5.39 14.75-11.85H33.3C32-5.31 27.42-1.16 20.8-1.16c-9.32 0-14.7-7.14-14.9-16.8h30.24zm-30.33-.5c.44-9.9 5.97-16.52 14.25-16.52 8.52 0 13.75 6.11 13.81 16.52zm0 0"/></symbol><symbol overflow="visible" id="51aa2adfw"><path d="M29.1-55.05h-2.55l-7.5 11.35h2.32zm7.12 35.63c0-11.35-5.67-19.05-16.08-19.05-9.95 0-16.36 8.22-16.36 19.86C3.78-7.56 9.81.87 20.88.87c8.43 0 13.07-5.39 14.75-11.85H33.3C32-5.31 27.42-1.16 20.8-1.16c-9.32 0-14.7-7.14-14.9-16.8h30.24zm-30.33-.5c.44-9.9 5.97-16.52 14.25-16.52 8.52 0 13.75 6.11 13.81 16.52zm0 0"/></symbol><symbol overflow="visible" id="51aa2adfx"><path d="M20.44.88c10.25 0 16.43-8.36 16.43-19.65 0-11.34-6.18-19.7-16.51-19.7-10.4 0-16.58 8.44-16.58 19.7C3.78-7.48 9.97.87 20.44.87zm0-2.04c-9.17 0-14.55-7.5-14.55-17.6 0-10.11 5.24-17.68 14.47-17.68 9.1 0 14.4 7.56 14.4 17.67 0 10.11-5.45 17.61-14.32 17.61zm0 0"/></symbol><symbol overflow="visible" id="51aa2adfy"><path d="M19.27-38.03c-5.74 0-9.74 4-11.05 8.87v-8.43H6.25V0h2.1v-21.9c0-8.79 4.67-14.02 10.7-14.02.51 0 .95 0 1.53.08v-2.05c-.58-.14-.88-.14-1.31-.14zm0 0"/></symbol><symbol overflow="visible" id="51aa2adfz"><path d="M25.23-47.7h-2.62l21.1 23.2H2.46v2.03H43.7L22.6.73h2.63l21.9-24.21zm0 0"/></symbol><symbol overflow="visible" id="51aa2adfA"><path d="M27.48-2.69v-47.56h-2.03v47.56l-23.2-21.1v2.63L26.47.74l24.22-21.9v-2.62zm0 0"/></symbol><symbol overflow="visible" id="51aa2adfB"><path d="M56.94-49.38H7.56V0h49.38zm0 0"/></symbol><symbol overflow="visible" id="51aa2adfC"><path d="M29.38-50.17L.3 0h57.87zm0 3.92L54.6-2.11H3.86zm0 0"/></symbol><symbol overflow="visible" id="51aa2adfD"><path d="M28.72-50.17a25.5 25.5 0 00-25.45 25.6A25.39 25.39 0 0028.72.87c14.1 0 25.6-11.35 25.6-25.46 0-14.1-11.5-25.6-25.6-25.6zm0 49.15A23.47 23.47 0 015.16-24.58a23.55 23.55 0 0123.56-23.7 23.62 23.62 0 0123.72 23.7A23.54 23.54 0 0128.72-1.02zm-6.17-26.9c1.23 0 1.95-1.75 1.95-5.02 0-3.5-.72-5.17-1.95-5.17-1.32 0-2.27 1.67-2.27 5.17 0 3.27.95 5.02 2.27 5.02zm12.36 0c1.37 0 2.25-1.75 2.25-5.02 0-3.5-.88-5.17-2.25-5.17-1.24 0-1.97 1.67-1.97 5.17 0 3.27.73 5.02 1.97 5.02zm-6.2 17.45c-8.27 0-13.59-5.31-14.46-13.89h-1.53c.65 9.31 6.55 15.78 16 15.78s15.34-6.47 16-15.78h-1.53c-.86 8.58-6.17 13.9-14.47 13.9zm0 0"/></symbol><symbol overflow="visible" id="51aa2adfE"><path d="M28.72-50.17a25.5 25.5 0 00-25.45 25.6A25.39 25.39 0 0028.72.87c14.1 0 25.6-11.35 25.6-25.46 0-14.1-11.5-25.6-25.6-25.6zm0 0"/></symbol><symbol overflow="visible" id="51aa2adfF"><path d="M44.44-36.58l-1.46-1.45L7.7-2.63l-.14-31.26-1.89 1.83.3 32.58L38.55.8l1.8-1.9L9.1-1.22zm0 0"/></symbol><symbol overflow="visible" id="51aa2adfG"><path d="M41.9-5.97l-.3-32.58-32.5-.28-1.9 1.9 31.35.13L3.56-1.8 4.94-.36l34.98-35.06L40-4.14zm0 0"/></symbol><symbol overflow="visible" id="51aa2adfH"><path d="M44.06-1.81L9.1-36.8l31.27-.14-1.81-1.89-32.58.28-.3 32.58 1.9 1.83.13-31.28L42.6-.36zm0 0"/></symbol><symbol overflow="visible" id="51aa2adfI"><path d="M50.69-28.36L26.47-50.25 2.25-28.35v2.6l23.2-21.08V.73h2.03v-47.56l23.2 21.08zm0 0"/></symbol><symbol overflow="visible" id="51aa2adfJ"><path d="M18.77.88c10.39 0 14.9-4.88 14.9-11.2 0-5.38-2.98-9.24-10.55-10.55l-7.85-1.38c-4.66-.8-6.11-2.63-6.11-5.45 0-3.35 2.92-6.03 8.3-6.03 5.74 0 8.93 2.46 9.66 7.7h5.9c-.96-7.86-6.25-12.44-15.43-12.44-8.93 0-14.03 5.16-14.03 11.2 0 5.68 3.27 8.94 9.9 10.18l8 1.45c4.93.87 6.54 2.84 6.54 5.97 0 3.56-3.28 5.81-9.1 5.81-5.96 0-9.23-2.33-10.18-7.12H2.98C3.92-4.08 8.58.88 18.77.88zm0 0"/></symbol><symbol overflow="visible" id="51aa2adfK"><path d="M20.88.88C30.68.88 36-4.58 37.09-12.8h-6.04c-1.02 5.46-4.44 8.5-10.18 8.5C13.6-4.3 9.1-9.97 9.1-18.9c0-8.8 4.5-14.41 11.79-14.41 5.8 0 9.15 3.06 10.17 8.6h6.04c-1.03-8.3-6.32-13.76-16.22-13.76-10.26 0-17.6 7.42-17.6 19.56C3.27-6.62 10.6.88 20.87.88zm0 0"/></symbol><symbol overflow="visible" id="51aa2adfL"><path d="M22.55-38.47c-4.96 0-8.8 2.19-11.2 6.11v-20H5.52V0h5.81v-21.31c0-7.92 4.14-11.92 9.75-11.92 5.46 0 9.24 3.7 9.24 10.98V0h5.73v-22.9c0-9.98-5.45-15.57-13.51-15.57zm0 0"/></symbol><symbol overflow="visible" id="51aa2adfM"><path d="M11.56-52.36H5.75V0h5.81zm0 0"/></symbol><symbol overflow="visible" id="51aa2adfN"><path d="M37.6-18.47c0-12.44-5.68-20-16.88-20-9.81 0-17.45 7.49-17.45 20.08C3.27-6.77 9.97.88 21.37.88c9.1 0 14.2-5.4 15.65-11.86h-6.04C29.81-7.05 26.55-4.3 20.94-4.3c-6.25 0-11.19-4.14-11.78-12.36h28.36s.07-.57.07-1.8zM9.3-21.59c.94-7.94 5.52-11.86 11.4-11.86 6.06 0 10.34 3.56 10.85 11.86zm0 0"/></symbol><symbol overflow="visible" id="51aa2adfO"><path d="M21.9-32.5v-5.1h-8.23v-10.62H7.86v10.63H1.53v5.09h6.33v22.4C7.86-3.28 11.56.43 17.8.43c1.53 0 2.85-.14 4.08-.52v-5.01c-.87.21-1.75.3-3.12.3-3.07 0-5.1-1.76-5.1-5.9V-32.5zm0 0"/></symbol><symbol overflow="visible" id="51aa2adfQ"><path d="M40.8-44.14v-5.23H6.69V0h34.1v-5.23h-28V-22.7h24.94v-5.15H12.8v-16.3zm0 0"/></symbol><symbol overflow="visible" id="51aa2adfR"><path d="M20.58-38.03c-4.88 0-8 2.4-9.45 6.19v-5.75h-5.6V0h5.81v-22.1c0-6.12 3.05-10.34 9.32-10.34.8 0 1.37 0 1.95.08v-5.37c-.8-.22-1.38-.3-2.03-.3zm0 0"/></symbol><symbol overflow="visible" id="51aa2adfS"><path d="M8.66-44.22a4.14 4.14 0 100-8.28 4.16 4.16 0 00-4.22 4.14 4.2 4.2 0 004.22 4.14zM5.75 0h5.73v-37.6H5.75zm0 0"/></symbol><symbol overflow="visible" id="51aa2adfT"><path d="M22.33-38.47c-5.31 0-8.95 2.11-11.2 6.03v-5.15h-5.6V0h5.81v-21.67c0-7.7 4.08-11.64 9.82-11.64 5.75 0 9.09 3.86 9.09 11.34V0h5.81v-22.98c0-10.04-5.51-15.49-13.73-15.49zm0 0"/></symbol><symbol overflow="visible" id="51aa2adfU"><path d="M29.23-37.6v21.96c0 6.98-3.64 11.42-10.03 11.42-5.23 0-8.22-3.2-8.22-9.16v-24.21H5.16v24.65C5.16-3.92 9.96.87 17.89.87c5.6 0 9.45-2.18 11.7-5.96V0h5.46v-37.6zm0 0"/></symbol><symbol overflow="visible" id="51aa2adfV"><path d="M32.66-37.6v6.26c-2.63-4.5-7.07-7.13-13.1-7.13-9.15 0-16.3 7.27-16.3 18.47S10.56-1.75 19.79-1.75c5.53 0 10.03-2.6 12.72-7.05v7.64c0 6.97-4.28 10.7-11.48 10.7-7.13 0-10.91-3.07-11.35-8.3H3.7c.44 7.42 5.17 13.3 17.32 13.3 12.14 0 17.23-7.06 17.23-16.21V-37.6zM20.72-6.9C13.97-6.9 8.88-11.79 8.88-20c0-8.22 4.65-13.31 11.84-13.31 6.76 0 11.78 5.1 11.78 13.31 0 7.78-4.8 13.1-11.78 13.1zm0 0"/></symbol><symbol overflow="visible" id="51aa2adfad"><path d="M18.97.88c10.7 0 15.4-5.1 15.4-11.43 0-5.53-2.96-9.37-10.78-10.68l-7.8-1.38c-4.35-.81-5.66-2.4-5.66-4.95 0-2.99 2.6-5.46 7.53-5.46 5.21 0 8.18 2.33 8.9 6.99h7.17c-1.01-7.7-6.45-12.44-15.93-12.44-9.4 0-14.55 5.24-14.55 11.42 0 5.68 3.19 9.08 10.22 10.4l7.95 1.45c4.35.8 5.86 2.54 5.86 5.3 0 3.21-2.89 5.32-8.25 5.32-5.42 0-8.47-2.1-9.33-6.4H2.6C3.7-4 8.48.88 18.98.88zm0 0"/></symbol><symbol overflow="visible" id="51aa2adfae"><path d="M12.38-52.36H5.13V0h7.24zm0 0"/></symbol><symbol overflow="visible" id="51aa2adfaf"><path d="M16.28.88c7.4 0 11.88-2.55 14.9-7.35 3.13 4.58 8.05 7.34 15 7.34 9.04 0 14.62-5.3 16.07-11.85h-7.31c-1.1 3.56-4.28 5.89-8.83 5.89-6.3 0-10.36-3.7-11.08-11.35h27.8c.06-.72.06-1.31.06-1.95 0-13.03-6.58-20.08-17.44-20.08-5 0-9.4 1.97-12.73 5.67-2.53-3.92-7.03-5.67-13.17-5.67-9.27 0-14.85 4.8-15.72 12.44h7.25c.64-4.58 3.6-6.77 8.6-6.77 5.37 0 8.18 2.55 8.18 7.35v2.4L15.7-21.8c-8.6.93-12.73 4.93-12.73 11.4C2.97-3.78 8.55.88 16.28.88zm18.9-22.77c.93-7.2 5.21-10.69 10.27-10.69 5.94 0 9.55 3.42 10.07 10.69zM17.72-4.66c-4.56 0-7.3-2.54-7.3-5.89 0-3.26 1.87-5.73 6.79-6.32l10.5-1.38v3.48c0 6.05-3.63 10.11-9.99 10.11zm0 0"/></symbol><symbol overflow="visible" id="51aa2adfag"><path d="M47.1-38.47c-5.5 0-9.83 2.47-12.37 6.84-2.23-4.37-6.43-6.84-11.71-6.84-5 0-8.91 2.11-11.3 5.9v-5.02H5V0h7.23v-22.69c0-6.18 4.05-9.37 8.75-9.37 4.79 0 8.41 3.34 8.41 10.03V0h7.16v-22.69c0-6.1 4.06-9.37 8.83-9.37 4.78 0 8.32 3.34 8.32 10.03V0h7.24v-23.13c0-9.75-5.58-15.34-13.83-15.34zm0 0"/></symbol><symbol overflow="visible" id="51aa2adfah"><path d="M22.88-31.42v-6.17h-8.11v-10.63H7.53v10.63H1.45v6.17h6.08v20.44C7.53-3.7 11.3.44 18.31.44c1.82 0 3.03-.14 4.57-.52v-6.1c-.88.21-1.74.29-3.11.29-3.13 0-5-1.75-5-5.67v-19.86zm0 0"/></symbol><symbol overflow="visible" id="51aa2adfaj"><path d="M8.83-43.78c2.6 0 4.7-2.11 4.7-4.72 0-2.63-2.1-4.66-4.7-4.66a4.67 4.67 0 00-4.85 4.66c0 2.6 2.1 4.72 4.85 4.72zM5.22 0h7.08v-37.6H5.22zm0 0"/></symbol><symbol overflow="visible" id="51aa2adfak"><path d="M23.1-38.47c-5.3 0-9.05 2.03-11.38 6.03v-5.15H5V0h7.23v-21.6c0-7.06 3.77-10.62 8.97-10.62 5.28 0 8.4 3.42 8.4 10.4V0h7.24v-23.27c0-10.04-5.65-15.2-13.75-15.2zm0 0"/></symbol><symbol overflow="visible" id="51aa2adfal"><path d="M46.77 0L23.64-26.98l23.05-22.4H35.92l-21.31 20.5v-20.5H5.59V0h9.02v-24.58L36 0zm0 0"/></symbol><symbol overflow="visible" id="51aa2adfam"><path d="M14.1-44.06a5.1 5.1 0 000-10.19 5.12 5.12 0 00-5.16 5.1c0 2.82 2.33 5.09 5.17 5.09zm14.18 0a5.1 5.1 0 000-10.19 5.05 5.05 0 00-5.08 5.1c0 2.82 2.25 5.09 5.08 5.09zM21.23.88c10.77 0 18.61-7.7 18.61-19.65 0-12-7.84-19.7-18.68-19.7-10.75 0-18.7 7.7-18.7 19.78C2.47-6.77 10.42.88 21.24.88zm-.07-7.13c-6.25 0-9.96-5.02-9.96-12.44 0-7.64 3.7-12.65 9.96-12.65 6.26 0 9.89 5.01 9.89 12.57 0 7.5-3.7 12.52-9.9 12.52zm0 0"/></symbol><symbol overflow="visible" id="51aa2adfan"><path d="M24-30.4v-7.2h-8v-10.62H7.34v10.63H1.31v7.2h6.03v18.47C7.34-4.08 11.04.44 18.98.44 21.1.44 22.33.3 24-.08V-7.2c-.8.15-1.75.22-3.06.22-3.19 0-4.94-1.68-4.94-5.46v-17.95zm0 0"/></symbol><symbol overflow="visible" id="51aa2adfao"><path d="M13.38-44.06a5.1 5.1 0 000-10.19 5.12 5.12 0 00-5.16 5.1c0 2.82 2.33 5.09 5.15 5.09zm14.18 0a5.1 5.1 0 10-5.1-5.1c0 2.83 2.26 5.1 5.1 5.1zm.66 6.47v21.95c0 5.6-3.28 9.23-8.44 9.23-4.51 0-6.9-2.75-6.9-7.62V-37.6H4.21v24.65C4.22-4 9.09.87 17.38.87c5.17 0 9.17-2.25 11.64-6.32V0h7.86v-37.6zm0 0"/></symbol><symbol overflow="visible" id="51aa2adfaq"><path d="M25.23-38.47c-5.53 0-9.53 2.19-12.07 5.97v-19.86H4.52V0h7.98v-6.19C15.05-1.75 19.27.88 24.88.88c9.01 0 16.85-7.29 16.85-19.65 0-12.43-7.48-19.7-16.5-19.7zM23.05-6.19c-5.74 0-9.9-4.72-9.9-12.58 0-7.56 4.16-12.65 9.9-12.65 6.04 0 9.89 5.03 9.89 12.65 0 7.64-4.06 12.58-9.9 12.58zm0 0"/></symbol><symbol overflow="visible" id="51aa2adfar"><path d="M20.8-38.47c-10.77 0-18.33 7.86-18.33 20C2.47-7.05 9.3.87 21.16.87c9.39 0 15.2-5.23 16.8-11.85h-8.73C28.22-7.92 25.6-5.9 21.1-5.9c-5.39 0-9.3-3.13-10.04-10.33H38.6s.08-.87.08-2.1c.14-12.15-6.33-20.15-17.9-20.15zM11.27-22.1c.95-6.47 4.73-9.67 9.6-9.67 5.16 0 8.58 3.28 8.94 9.67zm0 0"/></symbol><symbol overflow="visible" id="51aa2adfas"><path d="M13.31-52.36H4.66V0h8.65zm0 0"/></symbol><symbol overflow="visible" id="51aa2adfat"><path d="M38.9 0L21.17-21.02l16.87-16.57h-9.6L13.17-23v-29.37H4.52V0h8.64v-18.6L28.94 0zm0 0"/></symbol><symbol overflow="visible" id="51aa2adfau"><path d="M15.13-43.84h5.01l8.36-11.2h-4.86l-6.05 7.77-5.73-7.78H7.13zM18.68.88c10.03 0 14.76-4.66 14.76-10.99 0-5.45-3.06-9.02-10.54-10.39l-7.93-1.47c-4.95-.86-6.54-2.75-6.54-5.87 0-3.64 3.12-6.55 8.94-6.55 6.1 0 9.6 2.69 10.32 8.36h5.02c-.94-8-6.17-12.44-15.19-12.44-8.87 0-13.89 5.02-13.89 10.99 0 5.59 3.19 8.71 9.81 9.95l8 1.53c5.24.95 7.13 2.98 7.13 6.4 0 4-3.56 6.4-9.75 6.4-6.25 0-9.81-2.55-10.83-7.78H3.05C4.08-3.86 8.88.88 18.69.88zm0 0"/></symbol><symbol overflow="visible" id="51aa2adfav"><path d="M24-38.47c-6.77 0-11.13 3.27-13.53 8.52v-7.64h-4.8v51.26h5.02V-7.48c2.47 5.01 6.9 8.36 13.1 8.36 9.37 0 16.5-7.7 16.5-19.65 0-11.78-6.98-19.7-16.29-19.7zm-.95 34.99c-7.2 0-12.36-5.97-12.36-15.13v-.3c0-8.8 5.23-15.26 12.36-15.26 7.64 0 12.3 6.25 12.3 15.4 0 9.18-5.1 15.29-12.3 15.29zm0 0"/></symbol><symbol overflow="visible" id="51aa2adfaw"><path d="M19.64-38.47c-8.52 0-14.27 4.14-15.28 12.44H9.3c.8-5.75 4.5-8.14 10.33-8.14 5.67 0 9.3 2.69 9.3 8.58v2.6L15.7-21.52c-8.14.87-12.36 4.81-12.36 11.28S8.94.88 16.28.88c5.61 0 9.9-2.2 12.95-6.77V0h4.66v-25.45c0-8.8-5.67-13.02-14.25-13.02zm-2.4 35.05c-5.38 0-8.66-3.05-8.66-6.99 0-3.78 2.19-6.53 8-7.26l12.36-1.45v4.14c0 6.9-4.5 11.56-11.7 11.56zm0 0"/></symbol><symbol overflow="visible" id="51aa2adfax"><path d="M21.38-33.23v-4.36h-8.5v-10.63H7.92v10.63H1.45v4.36h6.47v23.56c0 6.69 3.64 10.1 9.53 10.1 1.53 0 2.7-.13 3.93-.43v-4.36c-.94.22-1.74.28-3.13.28-3.13 0-5.38-1.67-5.38-6.1v-23.05zm0 0"/></symbol><symbol overflow="visible" id="51aa2adfay"><path d="M22.1-38.47c-5.6 0-9.38 2.33-11.63 6.63v-5.75h-4.8V0h5.02v-21.67c0-8 4.22-12.36 10.47-12.36 6.18 0 9.75 4.22 9.75 12V0h4.93v-22.9c0-10.04-5.45-15.57-13.73-15.57zm0 0"/></symbol><symbol overflow="visible" id="51aa2adfaz"><path d="M29.95-55.05h-5.51l-7.5 11.35h4.87zm-10.3 16.58c-8.52 0-14.27 4.14-15.3 12.44h4.96c.8-5.75 4.5-8.14 10.33-8.14 5.67 0 9.3 2.69 9.3 8.58v2.6L15.7-21.52c-8.14.87-12.36 4.81-12.36 11.28S8.94.88 16.28.88c5.61 0 9.9-2.2 12.95-6.77V0h4.66v-25.45c0-8.8-5.67-13.02-14.25-13.02zM17.22-3.42c-5.37 0-8.65-3.05-8.65-6.99 0-3.78 2.19-6.53 8-7.26l12.36-1.45v4.14c0 6.9-4.5 11.56-11.7 11.56zm0 0"/></symbol><symbol overflow="visible" id="51aa2adfaB"><path d="M46.97-38.47c-5.95 0-10.4 2.77-12.8 7.27-2.17-4.72-6.53-7.27-12.06-7.27-5.31 0-9.4 2.4-11.64 6.47v-5.6h-4.8V0h5.02v-22.77c0-7.26 4.73-11.18 10.33-11.18 5.75 0 9.8 3.92 9.8 11.4V0h4.96v-22.77c0-7.26 4.66-11.18 10.4-11.18 5.66 0 9.74 3.92 9.74 11.4V0h4.94v-23.05c0-9.89-5.6-15.42-13.9-15.42zm0 0"/></symbol><symbol overflow="visible" id="51aa2adfaC"><path d="M23.05-43.84l8.37-11.2h-4.87l-6.05 7.77-5.73-7.78h-4.74l8 11.2zM37.3-18.7c0-12.14-5.69-19.78-16.73-19.78-9.81 0-17.16 7.64-17.16 20C3.42-6.98 9.97.87 21.23.87c8.94 0 13.97-5.39 15.49-11.85h-5.24c-1.15 4.36-4.71 7.42-10.54 7.42-6.9 0-12-4.8-12.5-13.38h28.8s.07-.65.07-1.75zm-28.8-2.54c.87-8.36 5.68-12.94 12.07-12.94 6.62 0 11.12 4.22 11.56 12.94zm0 0"/></symbol><symbol overflow="visible" id="51aa2adfaD"><path d="M23.05-53.08l-.94 15.49h3.78l3.13-15.49zm-10.18 4.86H7.92v10.63H1.45v4.36h6.47v23.56c0 6.69 3.64 10.1 9.53 10.1 1.53 0 2.7-.13 3.93-.43v-4.36c-.94.22-1.74.28-3.13.28-3.13 0-5.38-1.67-5.38-6.1v-23.05h8.5v-4.36h-8.5zm0 0"/></symbol><symbol overflow="visible" id="51aa2adfaZ"><path d="M17.16-9.67l16.57-18.61v-9.31H2.7v9.67h15.7L1.97-9.32V0h32.06v-9.67zm0 0"/></symbol><symbol overflow="visible" id="51aa2adfba"><path d="M26.55-30.77l-3.2-4.93-4.37 2.68v-19.34h-12v26.83L1.1-21.9l3.2 4.95L7-18.6V0h12v-26.03zm0 0"/></symbol><symbol overflow="visible" id="51aa2adfbb"><path d="M20.5-38.47c-10.83 0-16.86 4.44-17.95 12.44h12c.72-2.77 2.54-4.22 6.1-4.22 3.5 0 5.52 1.9 5.52 5.31v1.67l-10.53 1.02C5.45-21.23 1.9-16.5 1.9-10.41 1.9-4 7.2.88 15.7.88c4.88 0 8.96-1.75 11.72-5.46V0h10.61v-24.14c0-9.9-6.4-14.33-17.53-14.33zM19.05-6.55c-3.35 0-5.24-1.97-5.24-4.5 0-2.4 1.75-4.22 4.88-4.65l7.34-1.02v2.11c0 4.72-2.17 8.06-6.98 8.06zm0 0"/></symbol><symbol overflow="visible" id="51aa2adfbd"><path d="M26.4-38.47c-5.6 0-9.82 2.25-12.43 6.55v-5.67H3.34v51.26h12v-17.1C17.97-.57 21.54.88 25.9.88c8.72 0 17.23-6.98 17.23-19.64 0-13.07-7.92-19.7-16.73-19.7zM23.04-8.44c-4.66 0-7.7-4.06-7.7-10.33 0-6.17 3.04-10.32 7.7-10.32 4.65 0 7.93 4.15 7.93 10.32 0 6.27-3.28 10.33-7.93 10.33zm0 0"/></symbol><symbol overflow="visible" id="51aa2adfbe"><path d="M49.16-38.47c-5.02 0-9.32 2.19-11.85 6.84-2.1-4.37-6.19-6.84-11.64-6.84-4.95 0-9.17 1.97-11.7 6.33v-5.45H3.34V0h12v-21.31c0-4.8 2.33-6.97 5.9-6.97 3.42 0 5.59 2.1 5.59 7.12V0h12v-21.31c0-4.64 2.33-6.97 5.89-6.97 3.42 0 5.6 2.1 5.6 7.12V0h12v-23.92c0-9.1-5.09-14.55-13.16-14.55zm0 0"/></symbol><symbol overflow="visible" id="51aa2adfbf"><path d="M9.45-42.25c4 0 6.7-2.98 6.7-6.6a6.42 6.42 0 00-6.7-6.56c-4.14 0-6.76 2.91-6.76 6.55 0 3.63 2.62 6.61 6.76 6.61zM3.42 0h12v-37.6h-12zm0 0"/></symbol><symbol overflow="visible" id="51aa2adfbg"><path d="M20.88-38.47c-11.79 0-19.35 8.3-19.35 19.86C1.53-8.14 7.56-.3 18.33.73c-3.2 2.18-4.14 4.36-4.14 6.7 0 3.77 3.84 5.95 9.08 5.95 2.18 0 3.56-.29 5.09-.94V7.56c-.66.22-1.53.36-2.61.36-2.27 0-3.36-1.01-3.36-2.54 0-1.74 1.67-3.41 5.97-5.52l-.08-.08c5.67-1.81 9.45-5.81 10.77-10.76H27.27C26.33-8.94 24.5-7.7 21.3-7.7c-4.37 0-7.28-2.05-7.93-8h26.54s.08-1.24.08-2.4c.28-11.85-7.06-20.37-19.13-20.37zm-7.29 15.7c.96-4.71 3.64-7.04 7.43-7.04 4.21 0 6.62 2.98 6.76 7.04zm0 0"/></symbol><symbol overflow="visible" id="51aa2adfbh"><path d="M37.02-55.05h-13.9L15.34-43.7h11.79zM21.02.87c10.46 0 16.93-5.89 18.32-14.4h-12c-.87 3.34-2.54 5.01-6.4 5.01-4.58 0-7.27-3.92-7.27-10.39 0-6.54 2.83-10.18 7.2-10.18 3.7 0 5.74 1.6 6.47 4.95h12.07c-1.3-8.14-7.2-14.33-18.4-14.33S1.54-31.05 1.54-18.77C1.53-6.55 9.81.87 21.02.87zm0 0"/></symbol><symbol overflow="visible" id="51aa2adfbi"><path d="M25.75-49.38H4V0h21.75c14.69 0 23.92-9.6 23.92-24.66 0-15.12-9.23-24.71-23.92-24.71zm-1.4 39.41h-8V-39.4h8c8.52 0 12.96 4.8 12.96 14.83 0 9.9-4.44 14.61-12.95 14.61zm0 0"/></symbol><symbol overflow="visible" id="51aa2adfbj"><path d="M20.28-41.02c5.31 0 9.75-4.28 9.75-9.53a9.69 9.69 0 00-9.75-9.67 9.75 9.75 0 00-9.81 9.67c0 5.25 4.51 9.53 9.81 9.53zm0-12.93a3.3 3.3 0 013.36 3.4 3.24 3.24 0 01-3.36 3.28c-1.95 0-3.34-1.3-3.34-3.28a3.3 3.3 0 013.34-3.4zm-.14 15.48c-10.83 0-16.87 4.44-17.95 12.44h12c.72-2.77 2.53-4.22 6.1-4.22 3.5 0 5.52 1.9 5.52 5.31v1.67l-10.54 1.02C5.09-21.23 1.53-16.5 1.53-10.41 1.53-4 6.83.88 15.34.88c4.88 0 8.94-1.75 11.7-5.46V0h10.63v-24.14c0-9.9-6.4-14.33-17.53-14.33zM18.7-6.55c-3.35 0-5.24-1.97-5.24-4.5 0-2.4 1.75-4.22 4.88-4.65l7.34-1.02v2.11c0 4.72-2.19 8.06-6.98 8.06zm0 0"/></symbol><symbol overflow="visible" id="51aa2adfbk"><path d="M14.98-52.36h-12V0h12zm0 0"/></symbol><symbol overflow="visible" id="51aa2adfbl"><path d="M9.1-42.25c4 0 6.68-2.98 6.68-6.6a6.42 6.42 0 00-6.69-6.56c-4.15 0-6.76 2.91-6.76 6.55 0 3.63 2.6 6.61 6.76 6.61zM3.04 0h12v-37.6h-12zm0 0"/></symbol><symbol overflow="visible" id="51aa2adfbm"><path d="M30.17-37.6v5.16c-2.6-3.92-6.75-6.03-11.78-6.03-9.45 0-17.16 6.84-17.16 18.25C1.23-8.8 8.93-1.75 18.2-1.75c4.8 0 8.28-1.23 10.83-4.88v4.88c0 5.31-2.63 8.08-7.57 8.08-5.17 0-6.54-2.11-6.84-5.1H1.97C2.98 8.87 6.9 14.55 21.53 14.55c14.03 0 19.49-7.64 19.49-16.58V-37.6zm-8.94 26.62c-4.36 0-7.78-3.79-7.78-9.24s3.43-9.01 7.78-9.01c4.36 0 7.79 3.56 7.79 8.95 0 5.51-3.49 9.3-7.79 9.3zm0 0"/></symbol><symbol overflow="visible" id="51aa2adfbn"><path d="M26.1-27.92v-9.67h-7.77v-10.63h-12v10.63H.73v9.67h5.6v13.89C6.33-5.02 10.1.44 20 .44c2.83 0 3.86-.08 6.1-.58v-9.53c-.79.14-1.74.22-2.98.22-3.34 0-4.8-1.68-4.8-4.94v-13.53zm0 0"/></symbol><symbol overflow="visible" id="51aa2adfbp"><path d="M48.8-38.47c-5.02 0-9.32 2.19-11.86 6.84-2.11-4.37-6.17-6.84-11.63-6.84-4.95 0-9.17 1.97-11.72 6.33v-5.45H3V0h12v-21.31c0-4.8 2.32-6.97 5.88-6.97 3.41 0 5.6 2.1 5.6 7.12V0h12v-21.31c0-4.64 2.33-6.97 5.89-6.97 3.42 0 5.6 2.1 5.6 7.12V0h12v-23.92c0-9.1-5.1-14.55-13.16-14.55zm0 0"/></symbol><symbol overflow="visible" id="51aa2adfbq"><path d="M25.81-38.47c-5.31 0-9.67 1.97-12.22 6.25v-5.37H3V0h12v-21.38c0-4.8 2.82-7.28 6.46-7.28 3.7 0 6.25 2.05 6.25 7.43V0h12v-24.14c0-10.19-6.18-14.33-13.89-14.33zm0 0"/></symbol><symbol overflow="visible" id="51aa2adfbr"><path d="M20.5-38.47c-11.78 0-19.34 8.3-19.34 19.86C1.16-7.34 8.14.87 20.5.87c9.83 0 16.38-5.01 18.19-11.85H26.9c-.96 2.04-2.77 3.28-5.97 3.28-4.36 0-7.27-2.05-7.92-8h26.54s.06-1.24.06-2.4c.3-11.85-7.04-20.37-19.12-20.37zm-7.27 15.7c.96-4.71 3.57-7.04 7.35-7.04 4.22 0 6.47 2.98 6.9 7.04zm0 0"/></symbol><symbol overflow="visible" id="51aa2adfbs"><path d="M27.05-38.47c-4 0-7.49 1.45-9.9 4.44v-18.33H2.78V0h14.39v-21.16c0-5.01 2.1-6.9 5.39-6.9 2.82 0 4.43 1.81 4.43 5.08V0h14.4v-24.5c0-9.75-6.33-13.97-14.33-13.97zm0 0"/></symbol><symbol overflow="visible" id="51aa2adfbt"><path d="M20.66-38.47c-12.08 0-17.97 5.1-18.7 12.44H15.7c.44-2.33 2.05-3.7 5.02-3.7 2.84 0 4.44 1.59 4.44 4.28v2.32l-9.46.88c-9.23.88-14.32 5.1-14.32 11.92C1.38-4 6.33.87 14.82.87c4.81 0 8.81-2.03 11.64-5.45V0H39.2v-24.06c0-8.3-4.87-14.4-18.54-14.4zM19.64-7.34c-2.77 0-4.6-1.46-4.6-3.93 0-2.54 1.9-4.15 5.54-4.65l4.3-.58v4c0 2.9-1.97 5.16-5.24 5.16zm0 0"/></symbol><symbol overflow="visible" id="51aa2adfbu"><path d="M17.16-52.36H2.76V0h14.4zm0 0"/></symbol><symbol overflow="visible" id="51aa2adfbv"><path d="M27.78-38.47c-4.66 0-8.3 1.45-10.62 5.31v-19.2H2.76V0h13.52v-6.4C18.4-1.46 22.18.87 27.78.87c8.06 0 16.14-6.63 16.14-19.65 0-12.86-8.08-19.7-16.14-19.7zM23.27-9.45c-3.57 0-6.11-2.63-6.11-9.38 0-6.7 2.62-9.31 6.18-9.31 3.57 0 6.2 2.6 6.2 9.31 0 6.75-2.71 9.38-6.27 9.38zm0 0"/></symbol><symbol overflow="visible" id="51aa2adfbx"><path d="M50.69-38.47c-4.96 0-8.96 2.19-11.35 6.4-2.4-4.43-7.06-6.4-12.57-6.4-4.96 0-8.88 2.25-11.2 6.63v-5.75H2.76V0h14.39v-21.16c0-5.01 2.1-6.9 5.39-6.9 2.54 0 4.14 1.81 4.14 5.08V0h14.4v-21.16c0-5.01 2.1-6.9 5.38-6.9 2.55 0 4.14 1.81 4.14 5.08V0H65v-24.5c0-9.75-6.32-13.97-14.32-13.97zm0 0"/></symbol><symbol overflow="visible" id="51aa2adfby"><path d="M13.23-42.33c4.08 0 6.77-2.69 6.77-6.47 0-3.56-2.63-6.25-6.77-6.25-4.21 0-6.76 2.7-6.76 6.25 0 3.72 2.55 6.47 6.76 6.47zm16.14 0c4.08 0 6.7-2.75 6.7-6.47 0-3.56-2.62-6.25-6.7-6.25-4.28 0-6.82 2.7-6.82 6.25 0 3.72 2.54 6.47 6.82 6.47zm-8.71 3.86c-12.08 0-17.97 5.1-18.7 12.44H15.7c.44-2.33 2.05-3.7 5.02-3.7 2.84 0 4.44 1.59 4.44 4.28v2.32l-9.46.88c-9.23.88-14.32 5.1-14.32 11.92C1.38-4 6.33.87 14.82.87c4.81 0 8.81-2.03 11.64-5.45V0H39.2v-24.06c0-8.3-4.87-14.4-18.54-14.4zM19.64-7.34c-2.77 0-4.6-1.46-4.6-3.93 0-2.54 1.9-4.15 5.54-4.65l4.3-.58v4c0 2.9-1.97 5.16-5.24 5.16zm0 0"/></symbol><symbol overflow="visible" id="51aa2adfbz"><path d="M25.81-37.6v22.04c0 4-1.95 6.62-4.93 6.62-2.85 0-4.16-1.75-4.16-4.37V-37.6H2.32v24.5C2.33-3.34 7.65.87 15.87.87c5.08 0 9.02-2.03 11.56-6.4V0h12.8v-37.6zm0 0"/></symbol><symbol overflow="visible" id="51aa2adfbA"><path d="M25.6-37.95c-4.29 0-8.23 1.95-10.33 7.04v-6.68H2.77V0h14.39v-18.1c0-5.38 3.28-8.07 7.93-8.07 1.3 0 2.11.06 2.91.14V-37.6a5.88 5.88 0 00-2.4-.36zm0 0"/></symbol><symbol overflow="visible" id="51aa2adfbB"><path d="M21.75.88c10.75 0 20.58-6.55 20.58-19.65 0-13.15-9.67-19.7-20.58-19.7-10.84 0-20.44 6.55-20.44 19.7C1.31-5.67 11.05.87 21.75.87zm.14-10.11c-3.42 0-6.19-1.97-6.19-9.38 0-7.56 2.77-9.75 6.2-9.75 3.41 0 6.02 2.19 6.02 9.75 0 7.4-2.6 9.38-6.03 9.38zm0 0"/></symbol><symbol overflow="visible" id="51aa2adfbC"><path d="M19.7.88c12.3 0 18.7-5.1 18.7-12.8 0-5.46-2.92-9.61-10.48-10.69l-10.25-1.45c-2.33-.38-3.34-1.47-3.34-2.92 0-1.68 1.45-2.97 4.72-2.97 3.28 0 5.01 1.37 5.45 3.92h13.1c-1.32-8.95-8.29-12.44-18.83-12.44-11.13 0-17.32 5.6-17.32 12.44 0 6.03 3.57 9.95 10.85 11.05l9.51 1.45c2.19.37 2.99 1.67 2.99 2.98 0 1.83-1.46 3.07-4.88 3.07-3.48 0-5.31-1.24-5.81-3.5H1C2.12-3.34 8.15.88 19.72.88zm0 0"/></symbol><symbol overflow="visible" id="51aa2adfbD"><path d="M18.25-9.67l16.36-18.61v-9.31H2.4v9.67h15.98L1.67-9.32V0h33.24v-9.67zm0 0"/></symbol><symbol overflow="visible" id="51aa2adfbE"><path d="M41.1-18.9c0-10.48-6.27-19.57-19.65-19.57-13.1 0-20.14 8.66-20.14 19.56C1.31-7.2 8.71.88 21.45.88c10.11 0 16.44-4.66 18.33-11.86H26.61c-.94 2.32-2.11 3.2-4.94 3.2-3.64 0-5.67-2.19-6.19-7.92h25.46c.15-1.4.15-2.11.15-3.2zm-25.54-3.57c.66-5.37 2.9-7.34 5.9-7.34 3.56 0 5.37 2.54 5.45 7.34zm0 0"/></symbol><symbol overflow="visible" id="51aa2adfbF"><path d="M37.67-55.05H22.33L14.55-43.7h13.23zM21.75.87c10.75 0 20.58-6.54 20.58-19.64 0-13.15-9.67-19.7-20.58-19.7-10.84 0-20.44 6.55-20.44 19.7C1.31-5.67 11.05.87 21.75.87zm.14-10.1c-3.42 0-6.19-1.97-6.19-9.38 0-7.56 2.77-9.75 6.2-9.75 3.41 0 6.02 2.19 6.02 9.75 0 7.4-2.6 9.38-6.03 9.38zm0 0"/></symbol><symbol overflow="visible" id="51aa2adfbG"><path d="M9.97-42.33c4.5 0 7.7-3.7 7.7-7.34 0-3.63-3.2-7.19-7.7-7.19-4.74 0-7.72 3.56-7.72 7.19a7.5 7.5 0 007.72 7.34zM2.77 0h14.39v-37.6H2.76zm0 0"/></symbol><clipPath id="a"><path d="M0 17h1248.19v654.44H0zm0 0"/></clipPath></defs><path d="M0 0h1366v768H0z"/><g clip-path="url(#a)"><path d="M-71.14 680.07H1255.9V7.46H-71.14zm0 0" fill="none" stroke="#9b9a99" stroke-miterlimit="10"/></g><use xlink:href="#51aa2adfb" x="620.4541" y="250.1426" fill="#fff"/><use xlink:href="#51aa2adfc" x="382.96593" y="337.037384" fill="#fff"/><use xlink:href="#51aa2adfd" x="723.564395" y="337.037384" fill="#fff"/><use xlink:href="#51aa2adfd" x="248.442625" y="423.932167" fill="#fff"/><use xlink:href="#51aa2adfe" x="476.041514" y="481.013678" fill="#fff"/><use xlink:href="#51aa2adfe" x="840.854174" y="481.013678" fill="#fff"/><use xlink:href="#51aa2adff" x="1251.041182" y="481.958976" fill="#fff"/><use xlink:href="#51aa2adff" x="650.485519" y="517.880335" fill="#fff"/><g fill="#fff"><use xlink:href="#51aa2adfg" x="173.473151" y="107.838758"/><use xlink:href="#51aa2adfh" x="216.229747" y="107.838758"/><use xlink:href="#51aa2adfi" x="254.477995" y="107.838758"/><use xlink:href="#51aa2adfb" x="297.234591" y="107.838758"/><use xlink:href="#51aa2adfj" x="316.286" y="107.838758"/><use xlink:href="#51aa2adfk" x="383.038645" y="107.838758"/><use xlink:href="#51aa2adfj" x="422.377623" y="107.838758"/><use xlink:href="#51aa2adfl" x="489.130268" y="107.838758"/><use xlink:href="#51aa2adfm" x="529.48726" y="107.838758"/><use xlink:href="#51aa2adfn" x="550.720127" y="107.838758"/></g><g fill="#fff"><use xlink:href="#51aa2adfo" x="663.574273" y="190.079762"/><use xlink:href="#51aa2adfp" x="730.181488" y="190.079762"/><use xlink:href="#51aa2adfq" x="768.647881" y="190.079762"/><use xlink:href="#51aa2adfr" x="808.932158" y="190.079762"/><use xlink:href="#51aa2adfp" x="844.998946" y="190.079762"/><use xlink:href="#51aa2adfs" x="883.46534" y="190.079762"/><use xlink:href="#51aa2adft" x="898.517407" y="190.079762"/><use xlink:href="#51aa2adfu" x="934.438765" y="190.079762"/><use xlink:href="#51aa2adfv" x="974.068604" y="190.079762"/><use xlink:href="#51aa2adfo" x="992.901867" y="190.079762"/><use xlink:href="#51aa2adfw" x="1059.509081" y="190.079762"/><use xlink:href="#51aa2adfo" x="1099.13892" y="190.079762"/><use xlink:href="#51aa2adfx" x="1165.746135" y="190.079762"/><use xlink:href="#51aa2adfs" x="1206.393987" y="190.079762"/><use xlink:href="#51aa2adfy" x="1221.446054" y="190.079762"/><use xlink:href="#51aa2adfu" x="1243.260644" y="190.079762"/></g><use xlink:href="#51aa2adfz" x="582.933005" y="190.079762" fill="#fff"/><use xlink:href="#51aa2adfA" x="613.037139" y="109.874786" fill="#fff"/><use xlink:href="#51aa2adfB" x="81.706442" y="107.838758" fill="#fff"/><use xlink:href="#51aa2adfC" x="305.742282" y="618.809171" fill="#fff"/><use xlink:href="#51aa2adfD" x="383.765798" y="618.809171" fill="#fff"/><use xlink:href="#51aa2adfB" x="777.737294" y="619.827185" fill="#fff"/><use xlink:href="#51aa2adfE" x="856.70611" y="619.827185" fill="#fff"/><use xlink:href="#51aa2adfC" x="998.719091" y="618.809171" fill="#fff"/><use xlink:href="#51aa2adfC" x="555.737483" y="618.809171" fill="#fff"/><use xlink:href="#51aa2adfC" x="636.742327" y="618.809171" fill="#fff"/><use xlink:href="#51aa2adfC" x="1218.755588" y="618.809171" fill="#fff"/><use xlink:href="#51aa2adfF" x="786.681276" y="536.859028" fill="#fff"/><use xlink:href="#51aa2adfF" x="319.630904" y="535.841014" fill="#fff"/><use xlink:href="#51aa2adfF" x="256.223162" y="535.841014" fill="#fff"/><use xlink:href="#51aa2adfF" x="123.590455" y="535.841014" fill="#fff"/><use xlink:href="#51aa2adfF" x="188.96151" y="535.841014" fill="#fff"/><use xlink:href="#51aa2adfG" x="540.685416" y="278.137991" fill="#fff"/><use xlink:href="#51aa2adfH" x="765.012116" y="449.600668" fill="#fff"/><use xlink:href="#51aa2adfI" x="665.610301" y="362.415023" fill="#fff"/><use xlink:href="#51aa2adfI" x="1143.204392" y="362.415023" fill="#fff"/><use xlink:href="#51aa2adfI" x="1211.411343" y="362.415023" fill="#fff"/><g fill="#fff"><use xlink:href="#51aa2adfJ" x="622.126552" y="277.265407"/><use xlink:href="#51aa2adfK" x="658.775063" y="277.265407"/><use xlink:href="#51aa2adfL" x="699.20477" y="277.265407"/><use xlink:href="#51aa2adfM" x="740.434345" y="277.265407"/><use xlink:href="#51aa2adfN" x="757.740586" y="277.265407"/><use xlink:href="#51aa2adfK" x="798.53387" y="277.265407"/><use xlink:href="#51aa2adfL" x="838.963576" y="277.265407"/><use xlink:href="#51aa2adfO" x="880.193152" y="277.265407"/><use xlink:href="#51aa2adfN" x="904.480062" y="277.265407"/><use xlink:href="#51aa2adfP" x="945.273345" y="277.265407"/><use xlink:href="#51aa2adfQ" x="963.015878" y="277.265407"/><use xlink:href="#51aa2adfR" x="1007.590357" y="277.265407"/><use xlink:href="#51aa2adfS" x="1031.731837" y="277.265407"/><use xlink:href="#51aa2adfT" x="1048.965363" y="277.265407"/><use xlink:href="#51aa2adfT" x="1090.194938" y="277.265407"/><use xlink:href="#51aa2adfN" x="1131.424513" y="277.265407"/><use xlink:href="#51aa2adfR" x="1172.217796" y="277.265407"/><use xlink:href="#51aa2adfU" x="1196.359276" y="277.265407"/><use xlink:href="#51aa2adfT" x="1236.934413" y="277.265407"/><use xlink:href="#51aa2adfV" x="1278.163988" y="277.265407"/></g><g fill="#fff"><use xlink:href="#51aa2adfW" x="84.251478" y="190.007047"/><use xlink:href="#51aa2adfX" x="150.713262" y="190.007047"/><use xlink:href="#51aa2adfY" x="189.470517" y="190.007047"/><use xlink:href="#51aa2adfX" x="205.177022" y="190.007047"/><use xlink:href="#51aa2adfc" x="243.934277" y="190.007047"/><use xlink:href="#51aa2adfW" x="262.403963" y="190.007047"/><use xlink:href="#51aa2adfZ" x="328.865747" y="190.007047"/><use xlink:href="#51aa2adfW" x="368.786447" y="190.007047"/><use xlink:href="#51aa2adfaa" x="435.248231" y="190.007047"/><use xlink:href="#51aa2adfab" x="476.186945" y="190.007047"/><use xlink:href="#51aa2adfac" x="498.655972" y="190.007047"/><use xlink:href="#51aa2adfX" x="514.362477" y="190.007047"/></g><g fill="#fff"><use xlink:href="#51aa2adfad" x="218.29" y="362.8242"/><use xlink:href="#51aa2adfae" x="255.274034" y="362.8242"/><use xlink:href="#51aa2adfaf" x="272.788977" y="362.8242"/><use xlink:href="#51aa2adfag" x="338.57858" y="362.8242"/><use xlink:href="#51aa2adfah" x="404.151054" y="362.8242"/><use xlink:href="#51aa2adfai" x="429.265457" y="362.8242"/><use xlink:href="#51aa2adfag" x="446.490897" y="362.8242"/><use xlink:href="#51aa2adfaj" x="512.063372" y="362.8242"/><use xlink:href="#51aa2adfak" x="529.578316" y="362.8242"/><use xlink:href="#51aa2adfak" x="571.049649" y="362.8242"/><use xlink:href="#51aa2adfaj" x="612.520983" y="362.8242"/></g><g fill="#fff"><use xlink:href="#51aa2adfal" x="748.3613" y="362.6699"/><use xlink:href="#51aa2adfam" x="795.626245" y="362.6699"/><use xlink:href="#51aa2adfan" x="837.94655" y="362.6699"/><use xlink:href="#51aa2adfao" x="864.124058" y="362.6699"/><use xlink:href="#51aa2adfap" x="905.499063" y="362.6699"/><use xlink:href="#51aa2adfaq" x="922.296298" y="362.6699"/><use xlink:href="#51aa2adfar" x="966.5072" y="362.6699"/><use xlink:href="#51aa2adfas" x="1007.736775" y="362.6699"/><use xlink:href="#51aa2adfas" x="1025.697454" y="362.6699"/><use xlink:href="#51aa2adfar" x="1043.658133" y="362.6699"/><use xlink:href="#51aa2adfat" x="1084.887708" y="362.6699"/></g><g fill="#fff"><use xlink:href="#51aa2adfau" x="49.639982" y="277.374853"/><use xlink:href="#51aa2adfav" x="86.143063" y="277.374853"/><use xlink:href="#51aa2adfaw" x="129.772243" y="277.374853"/><use xlink:href="#51aa2adfax" x="168.96579" y="277.374853"/><use xlink:href="#51aa2adfay" x="192.598262" y="277.374853"/><use xlink:href="#51aa2adfaz" x="233.755122" y="277.374853"/><use xlink:href="#51aa2adfaA" x="272.948669" y="277.374853"/><use xlink:href="#51aa2adfav" x="290.909348" y="277.374853"/><use xlink:href="#51aa2adfaw" x="334.538528" y="277.374853"/><use xlink:href="#51aa2adfaB" x="373.732074" y="277.374853"/><use xlink:href="#51aa2adfaC" x="439.902997" y="277.374853"/><use xlink:href="#51aa2adfaD" x="480.405419" y="277.374853"/></g><g fill="#fff"><use xlink:href="#51aa2adfaE" x="97.48665" y="450.800844"/><use xlink:href="#51aa2adfaF" x="141.333976" y="450.800844"/><use xlink:href="#51aa2adfaG" x="181.254675" y="450.800844"/><use xlink:href="#51aa2adfaH" x="207.214037" y="450.800844"/><use xlink:href="#51aa2adfaI" x="224.883855" y="450.800844"/><use xlink:href="#51aa2adfaJ" x="242.626388" y="450.800844"/><use xlink:href="#51aa2adfe" x="286.473714" y="450.800844"/><use xlink:href="#51aa2adfaK" x="302.47108" y="450.800844"/><use xlink:href="#51aa2adfaL" x="344.355093" y="450.800844"/><use xlink:href="#51aa2adfaM" x="385.511953" y="450.800844"/><use xlink:href="#51aa2adfaN" x="424.7055" y="450.800844"/><use xlink:href="#51aa2adfaO" x="466.734943" y="450.800844"/><use xlink:href="#51aa2adfaO" x="531.815137" y="450.800844"/><use xlink:href="#51aa2adfaP" x="596.89533" y="450.800844"/><use xlink:href="#51aa2adfaH" x="637.688613" y="450.800844"/><use xlink:href="#51aa2adfaQ" x="655.358431" y="450.800844"/><use xlink:href="#51aa2adfaP" x="692.952241" y="450.800844"/></g><g fill="#fff"><use xlink:href="#51aa2adfaR" x="837.801119" y="449.92826"/><use xlink:href="#51aa2adfaS" x="904.044757" y="449.92826"/><use xlink:href="#51aa2adff" x="944.765325" y="449.92826"/><use xlink:href="#51aa2adfaT" x="960.835407" y="449.92826"/><use xlink:href="#51aa2adfaU" x="1026.351892" y="449.92826"/><use xlink:href="#51aa2adfaT" x="1067.872328" y="449.92826"/><use xlink:href="#51aa2adfaV" x="1133.388813" y="449.92826"/><use xlink:href="#51aa2adfaW" x="1176.14541" y="449.92826"/><use xlink:href="#51aa2adfaX" x="1203.340932" y="449.92826"/><use xlink:href="#51aa2adfaY" x="1221.883334" y="449.92826"/></g><g fill="#fff"><use xlink:href="#51aa2adfaZ" x="387.329835" y="536.09589"/><use xlink:href="#51aa2adfba" x="423.46934" y="536.09589"/><use xlink:href="#51aa2adfbb" x="450.810292" y="536.09589"/><use xlink:href="#51aa2adfbc" x="491.821722" y="536.09589"/><use xlink:href="#51aa2adfbd" x="507.528226" y="536.09589"/><use xlink:href="#51aa2adfbb" x="552.248136" y="536.09589"/><use xlink:href="#51aa2adfbe" x="593.259565" y="536.09589"/><use xlink:href="#51aa2adfbf" x="658.63062" y="536.09589"/><use xlink:href="#51aa2adfbg" x="677.463882" y="536.09589"/><use xlink:href="#51aa2adfbh" x="719.129749" y="536.09589"/></g><g fill="#fff"><use xlink:href="#51aa2adfbi" x="858.234118" y="537.113905"/><use xlink:href="#51aa2adfbj" x="910.007412" y="537.113905"/><use xlink:href="#51aa2adfbk" x="950.291688" y="537.113905"/><use xlink:href="#51aa2adfbl" x="968.252367" y="537.113905"/><use xlink:href="#51aa2adfbm" x="986.358477" y="537.113905"/><use xlink:href="#51aa2adfbn" x="1030.351233" y="537.113905"/><use xlink:href="#51aa2adfbo" x="1057.983047" y="537.113905"/><use xlink:href="#51aa2adfbp" x="1072.962399" y="537.113905"/><use xlink:href="#51aa2adfbl" x="1137.606301" y="537.113905"/><use xlink:href="#51aa2adfbq" x="1155.712411" y="537.113905"/><use xlink:href="#51aa2adfbq" x="1198.10543" y="537.113905"/><use xlink:href="#51aa2adfbr" x="1240.49845" y="537.113905"/></g><g fill="#fff"><use xlink:href="#51aa2adfbs" x="720.220479" y="697.451141"/><use xlink:href="#51aa2adfbt" x="764.067805" y="697.451141"/><use xlink:href="#51aa2adfbu" x="805.588241" y="697.451141"/><use xlink:href="#51aa2adfbv" x="825.512233" y="697.451141"/><use xlink:href="#51aa2adfbw" x="870.74115" y="697.451141"/><use xlink:href="#51aa2adfbx" x="885.793217" y="697.451141"/><use xlink:href="#51aa2adfby" x="953.273015" y="697.451141"/><use xlink:href="#51aa2adfbu" x="994.793452" y="697.451141"/><use xlink:href="#51aa2adfbz" x="1014.717444" y="697.451141"/></g><g fill="#fff"><use xlink:href="#51aa2adfbA" x="99.449963" y="697.451141"/><use xlink:href="#51aa2adfbB" x="128.608798" y="697.451141"/><use xlink:href="#51aa2adfbC" x="172.237978" y="697.451141"/><use xlink:href="#51aa2adfbC" x="211.722386" y="697.451141"/><use xlink:href="#51aa2adfbD" x="251.206794" y="697.451141"/><use xlink:href="#51aa2adfbw" x="287.78259" y="697.451141"/><use xlink:href="#51aa2adfbx" x="302.834657" y="697.451141"/><use xlink:href="#51aa2adfbE" x="370.314455" y="697.451141"/><use xlink:href="#51aa2adfbx" x="412.78019" y="697.451141"/><use xlink:href="#51aa2adfbF" x="480.259989" y="697.451141"/><use xlink:href="#51aa2adfbA" x="523.889169" y="697.451141"/><use xlink:href="#51aa2adfbG" x="553.048004" y="697.451141"/><use xlink:href="#51aa2adfbt" x="572.971996" y="697.451141"/></g><use xlink:href="#51aa2adfG" x="642.124247" y="697.523856" fill="#fff"/><use xlink:href="#51aa2adfA" x="1073.616837" y="697.523856" fill="#fff"/><use xlink:href="#51aa2adfA" x="1143.787101" y="697.523856" fill="#fff"/><use xlink:href="#51aa2adfE" x="1218.756576" y="694.615245" fill="#fff"/></svg>