<?xml version="1.0" encoding="UTF-8"?>
<svg id="Layer_1" data-name="Layer 1" xmlns="http://www.w3.org/2000/svg" xmlns:xlink="http://www.w3.org/1999/xlink" viewBox="0 0 1366 768">
  <defs>
    <style>
      .cls-1 {
        clip-path: url(#clippath);
      }

      .cls-2 {
        fill: #c572ff;
      }

      .cls-2, .cls-3 {
        stroke-width: 0px;
      }

      .cls-4, .cls-3 {
        fill: #12100b;
      }
    </style>
    <clipPath id="clippath">
      <rect class="cls-3" x="-10" y="-10" width="1386" height="788"/>
    </clipPath>
  </defs>
  <g>
    <rect class="cls-4" x="-10" y="-10" width="1386" height="788"/>
    <g class="cls-1">
      <rect class="cls-3" x="-.35" y="-3.25" width="1366.71" height="779.89"/>
    </g>
  </g>
  <g>
    <path class="cls-2" d="M166.49,159.19c0,23.31-17.38,41.52-50.72,41.52-15.95,0-32.31-3.89-45.4-11.04l-1.43-37.63h10.43c3.07,11.45,5.93,20.25,9,27.2,7.36,5.93,17.18,8.39,28.02,8.39,17.38,0,29.86-8.79,29.86-25.56,0-11.25-7.36-19.63-20.04-25.56l-32.11-15.13c-15.95-7.57-24.95-18.61-24.95-36.81,0-22.91,18.82-38.04,43.97-38.04,12.88,0,23.11,2.66,31.9,7.98.82-2.66,1.23-5.11,1.23-7.98h11.86l.61,42.13h-10.43c-1.64-5.73-4.29-14.32-7.16-20.86-7.98-6.34-16.16-8.39-25.97-8.39-16.57,0-26.18,6.75-26.18,19.63,0,9.61,6.54,15.95,14.32,19.84l35.79,18.2c16.77,8.59,27.4,21.68,27.4,42.13ZM94.1,189.46l-.82-1.23c.41.41.61.82.82,1.23Z"/>
    <path class="cls-2" d="M323.96,59.8l-14.93,1.84v85.69c-.2,33.74-19.22,53.17-53.38,53.17s-58.7-15.54-58.9-53.17V61.64l-15.75-1.84v-10.23h51.74v10.23l-14.93,1.84v85.08c0,23.93,13.29,38.86,41.92,38.86,23.52,0,37.22-11.66,37.22-37.63V61.64l-15.75-1.84v-10.23h42.74v10.23Z"/>
    <path class="cls-2" d="M467.93,187.83l-5.73,9.61c-34.77-14.52-56.85-38.65-71.38-66.26h-20.25v54.2l17.18,1.84v10.23h-53.99v-10.23l15.75-1.84V61.64l-15.54-1.84v-10.23h64.01c34.56,0,55.22,14.32,55.22,39.88,0,21.68-16.57,34.77-37.83,39.47,11.66,24.13,27.61,42.13,52.56,58.9ZM391.85,119.11c24.54,0,38.24-9.82,38.24-29.65,0-18.82-16.16-27.61-39.27-27.61-3.68,0-12.88,0-20.25-.2v57.47h21.27Z"/>
    <path class="cls-2" d="M586.75,143.85c0,35.18-22.09,56.65-46.63,56.65-11.45,0-21.27-5.11-28.84-11.04v42.33l16.97,1.84v10.23h-53.79v-10.23l15.75-1.84v-112.48l-16.16-.82v-5.93l31.29-20.45h5.93v20.86h1.43c7.77-11.66,17.79-21.07,32.52-21.07,25.97,0,41.52,27,41.52,51.95ZM565.89,149.17c0-22.5-8.38-41.31-27.81-41.31-12.27,0-21.27,9-26.79,17.59v49.08c7.36,8.38,15.75,12.88,26.18,12.88,19.63,0,28.43-16.97,28.43-38.24Z"/>
    <path class="cls-2" d="M651.58,187.21v10.23h-51.74v-10.23l15.75-1.84v-112.07l-16.36-2.04v-6.14l40.49-22.5,6.75,11.25-9.82,6.14v125.37l14.93,1.84Z"/>
    <path class="cls-2" d="M782.05,168.4v12.07l-31.29,20.45h-3.89v-18.41h-2.04c-8.79,9-21.06,18.2-35.58,18.2-20.25,0-30.06-14.32-30.06-32.93v-48.47l-15.95-.82v-5.93l31.29-20.45h5.93v67.9c0,15.54,5.73,24.54,21.27,24.54,7.98,0,16.16-4.91,22.91-11.45v-53.79l-15.95-.82v-5.93l31.29-20.45h5.93v85.9l16.16-9.61Z"/>
    <path class="cls-2" d="M795.34,119.52c0-20.04,16.77-27.61,33.75-27.61,13.29,0,19.22,1.43,32.11,4.09v31.7h-9.41c-2.05-14.11-7.57-25.36-23.31-25.36-9.41,0-15.13,5.32-15.13,13.29,0,7.36,5.11,11.66,11.66,15.13l21.07,11.04c13.29,6.95,21.68,15.75,21.68,28.63,0,18.82-12.48,30.27-36.2,30.27-11.66,0-22.91-2.45-35.59-6.95v-31.29h9.2c1.43,20.86,11.86,26.79,24.75,26.79,11.45,0,19.63-4.7,19.63-14.32,0-7.77-4.5-10.63-13.5-15.34l-20.45-10.43c-11.25-5.73-20.25-14.93-20.25-29.65Z"/>
  </g>
  <g>
    <path class="cls-2" d="M664.89,638.43c0-16.03,13.42-22.09,27-22.09,10.63,0,15.38,1.15,25.69,3.27v25.36h-7.53c-1.64-11.29-6.05-20.29-18.65-20.29-7.53,0-12.11,4.25-12.11,10.63,0,5.89,4.09,9.33,9.33,12.11l16.85,8.83c10.63,5.56,17.34,12.6,17.34,22.9,0,15.05-9.98,24.21-28.96,24.21-9.33,0-18.32-1.96-28.47-5.56v-25.03h7.36c1.14,16.69,9.49,21.43,19.8,21.43,9.16,0,15.71-3.76,15.71-11.45,0-6.22-3.6-8.51-10.8-12.27l-16.36-8.34c-9-4.58-16.2-11.94-16.2-23.72Z"/>
    <path class="cls-2" d="M828.17,677.54v9.65l-25.03,16.36h-3.11v-14.72h-1.64c-7.04,7.2-16.85,14.56-28.47,14.56-16.2,0-24.05-11.45-24.05-26.34v-38.77l-12.76-.65v-4.74l25.03-16.36h4.75v54.32c0,12.43,4.58,19.63,17.01,19.63,6.38,0,12.92-3.93,18.32-9.16v-43.03l-12.76-.65v-4.74l25.03-16.36h4.75v68.71l12.92-7.69Z"/>
    <path class="cls-2" d="M902.93,630.91l-14.56,11.78c-3.6-6.22-5.4-8.83-9.33-8.83s-7.69,5.24-14.56,15.71v41.56l13.58,1.47v8.18h-43.03v-8.18l12.6-1.47v-52.84l-12.92-.65v-4.74l25.03-16.36h4.75v21.92h1.31c7.2-10.96,13.91-22.09,22.25-22.09,7.04,0,10.63,6.54,14.89,14.56Z"/>
    <path class="cls-2" d="M939.91,647.76v43.36l16.85,1.47v8.18h-46.3v-8.18l12.6-1.47v-98.98l-12.43-1.47v-8.18h47.94c25.03,0,44.34,9.82,44.34,31.9s-19.14,33.38-47.45,33.38h-15.54ZM939.91,592.13v45.97h13.09c21.6,0,32.88-6.71,32.88-23.72s-14.23-22.25-33.05-22.25h-12.92Z"/>
    <path class="cls-2" d="M1105.15,672.96l-9.65,27.81h-82.78v-8.18l12.43-1.47v-98.98l-12.6-1.47v-8.18h41.39v8.18l-11.94,1.47v98.98h27.98c13.58,0,22.25-7.69,28.47-21.11l6.71,2.95Z"/>
    <path class="cls-2" d="M1222.45,590.66l-11.94,1.47v68.55c-.16,27-15.38,42.54-42.7,42.54s-46.95-12.43-47.12-42.54v-68.55l-12.6-1.47v-8.18h41.39v8.18l-11.94,1.47v68.06c0,19.14,10.63,31.08,33.54,31.08,18.81,0,29.78-9.33,29.78-30.1v-69.04l-12.6-1.47v-8.18h34.19v8.18Z"/>
    <path class="cls-2" d="M1314.07,670.17c0,18.65-13.91,33.21-40.57,33.21-12.76,0-25.85-3.11-36.32-8.83l-1.15-30.1h8.34c2.45,9.16,4.74,16.2,7.2,21.76,5.89,4.74,13.74,6.71,22.41,6.71,13.91,0,23.89-7.03,23.89-20.45,0-9-5.89-15.71-16.03-20.45l-25.69-12.11c-12.76-6.05-19.96-14.89-19.96-29.45,0-18.32,15.05-30.43,35.17-30.43,10.31,0,18.49,2.13,25.52,6.38.65-2.13.98-4.09.98-6.38h9.49l.49,33.7h-8.34c-1.31-4.58-3.44-11.45-5.73-16.69-6.38-5.07-12.92-6.71-20.78-6.71-13.25,0-20.94,5.4-20.94,15.71,0,7.69,5.24,12.76,11.45,15.87l28.63,14.56c13.42,6.87,21.92,17.34,21.92,33.7ZM1256.16,694.39l-.65-.98c.33.33.49.65.65.98Z"/>
  </g>
</svg>