<?xml version='1.0' encoding='UTF-8'?>
<svg xmlns="http://www.w3.org/2000/svg" xmlns:xlink="http://www.w3.org/1999/xlink" width="1366px" height="768px" viewBox="0 0 1366 768" x="0px" y="0px" enable-background="new 0 0 1366 768"><defs><symbol overflow="visible" id="87d7e7f1a"><path d="M38.84-38.14c11.18-1.42 20.32-5.81 20.32-17.22 0-13.19-11.64-17.7-27.44-17.7H4.16v1.78l8.07 2.97v63.56L4.16-1.78V0H35.4v-1.78L22.58-4.75v-64.16h5.34c12.35 0 19.83 3.57 19.83 14.14 0 10.46-8.08 15.57-21.02 16.63v.72L45.14-10.1c4.64 6.89 10.1 11.28 18.3 11.28l.23-.83c-2.6-2.5-5.7-6.3-8.44-10.94zm0 0"/></symbol><symbol overflow="visible" id="87d7e7f1b"><path d="M29.34 2.02c16.04 0 24.96-10.46 24.96-25.66 0-14.38-8.2-25.66-24-25.66-16.64 0-25.55 10.46-25.55 25.66 0 14.37 8.2 25.66 24.6 25.66zm.96-3.68c-10.82 0-15.93-11.53-15.93-23.64 0-11.17 3.8-20.32 14.38-20.32 10.81 0 15.92 11.65 15.92 23.64 0 12-3.81 20.32-14.37 20.32zm0 0"/></symbol><symbol overflow="visible" id="87d7e7f1c"><path d="M86.25-3.44v-28.28c0-10.58-5.34-17.58-15.56-17.58-7.49 0-13.31 4.63-16.75 12.6-1.42-7.85-6.66-12.6-15.2-12.72-7.15-.11-13.44 4.39-16.88 12.95V-48.7L3.8-43.36v1.06h9.03v38.74L4.39-1.2V0h26.38v-1.19l-8.32-2.37v-22.92c.13-9.04 3.44-15.33 11.52-15.22 8.92.12 10.81 5.47 10.81 13.54v24.72l-8.55 2.38V.13h26.74v-1.2L54.4-3.43v-22.45c0-8.67 2.97-15.69 11.53-15.69 8.19 0 10.69 4.63 10.69 13.42v24.72l-7.85 2.38V.13h25.78v-1.2zm0 0"/></symbol><symbol overflow="visible" id="87d7e7f1d"><path d="M27.2-49.42c-14.48 0-22.45 11.4-22.45 25.78 0 13.9 7.02 25.55 22.1 25.55 13.3 0 18.42-9.04 19.6-16.88h-1.9c-2.61 6.17-6.77 8.31-14.49 8.31-10.34 0-16.51-7.25-17.34-19.23h33.73c1.42-11.66-4.4-23.53-19.25-23.53zM12.6-29.47c.23-10.69 4.87-16.39 12.59-16.39 8.78 0 12.23 7.48 12.23 16.4zm0 0"/></symbol><symbol overflow="visible" id="87d7e7f1f"><path d="M72.7-73.06H45.5v1.78l13.19 2.97v47.64L24.1-73.07H4.16v1.79l9.26 2.97v63.56L4.16-1.78V0h27.56v-1.78L18.17-4.75v-58.33l43.49 64.4h1.78v-69.63l9.26-2.97zm0 0"/></symbol><symbol overflow="visible" id="87d7e7f1g"><path d="M52.75-13.66c0 6.18-1.31 9.02-4.88 9.02-2.84 0-3.92-1.9-3.92-5.22v-22.81c0-11.4-4.51-16.75-17.47-16.75-4.5 0-10.56.72-16.15 1.9v16.27h1.8c3.07-10.69 6.28-14.48 12.93-14.48 7.61 0 9.27 4.03 9.27 11.4v9.14c-2.74-1.65-6.3-2.84-11.05-2.84-10.56 0-18.53 4.51-18.53 15.56 0 9.03 5.7 14.38 15.1 14.38 7.71 0 12.1-4.41 14.48-9.63.23 6.3 4.51 8.67 9.86 8.67 9.39 0 10.7-6.18 10.7-13.78v-4.39h-2.14zM23.65-5.1c-6.3 0-9.63-3.44-9.63-9.27 0-6.65 4.04-10.21 10.8-10.21 3.57 0 7.02 1.3 9.5 3.32v4.99c0 4.51-2 11.17-10.68 11.17zm0 0"/></symbol><symbol overflow="visible" id="87d7e7f1h"><path d="M21.03.36A42.93 42.93 0 0032.55 1.9c17.1 0 25.06-11.18 25.06-27.93 0-14.25-5.58-23.4-18.77-23.4-9.26 0-15.07 4.98-17.8 12.12l-.24-.12v-12L2.37-42.77v1.2h9.04V26.6l-8.44 2.6v1.2H32.9v-1.2l-11.88-2.6zM34.7-42.77c8.54 0 13.78 6.18 13.78 18.9 0 7.84-1.42 22.09-15.44 22.09-5.36 0-10.1-2.74-12-7.02v-17.57c0-8.79 3.56-16.4 13.66-16.4zm0 0"/></symbol><symbol overflow="visible" id="87d7e7f1i"><path d="M35.16-9.98c-1.66 3.8-3.91 5.46-7.83 5.46-6.78 0-7.85-3.92-7.85-9.73v-59.88l16.29-1.9v-1.19H1.42v1.19l8.44 2.26v62.6C9.98-2.25 14.5 1.9 23.52 1.9c8.8 0 11.89-5.96 13.43-11.9zm0 0"/></symbol><symbol overflow="visible" id="87d7e7f1j"><path d="M20.8-29.81c-4.4-1.19-6.78-3.1-6.78-7.74 0-5.1 3.68-8.18 9.62-8.18 7.36 0 11.88 2.01 14.14 9.5v7.48h2.38v-20.08h-2.38v6.19c-2.14-4.4-7.37-6.78-14.01-6.78-9.63 0-17.11 5.7-17.11 15.56 0 7.61 4.75 11.53 11.15 13.19l9.86 2.6c4.64 1.2 7.25 2.38 7.25 7.38 0 4.4-3.33 8.31-10.92 8.31-8.31 0-14.27-3.2-15.8-10.34v-5.45H5.83V1.9H8.2v-8.33c2.38 5.36 9.14 8.33 15.44 8.33 11.64 0 18.17-5.47 18.17-15.1 0-6.89-2.14-11.51-12.23-14.25zm0 0"/></symbol><symbol overflow="visible" id="87d7e7f1k"><path d="M87.9-4.75v-63.56l9.27-2.97v-1.78H74.61L51.08-14.02l-24-59.04H3.56v1.78l9.27 2.97v63.56L3.56-1.78V0h26.25v-1.78L17.58-4.75v-62.84L46.22.95l2.97.11 28.39-68.65v62.84L67.13-1.78V0h30.04v-1.78zm0 0"/></symbol><symbol overflow="visible" id="87d7e7f1l"><path d="M18.3-55.6a6.54 6.54 0 006.65-6.52c0-3.7-3.1-6.43-6.65-6.43a6.48 6.48 0 00-6.53 6.42 6.5 6.5 0 006.53 6.54zm4.75 52.04V-48.7L3.56-43.36v1.06h9.86v38.74L3.56-1.2V0h28.99v-1.19zm0 0"/></symbol><symbol overflow="visible" id="87d7e7f1m"><path d="M54.4-3.56v-28.28c0-10.57-5.21-17.58-15.8-17.58-7.48 0-13.9 4.39-17.33 12.95V-48.7L3.8-43.36v1.06h8.43v38.74L3.8-1.2V0h26.37v-1.19l-8.31-2.37v-22.22c0-10.22 3.92-15.92 12-15.92 8.19 0 10.92 5.1 10.92 12.95v25.19L36.36-1.2V0h26.36v-1.19zm0 0"/></symbol><symbol overflow="visible" id="87d7e7f1n"><path d="M5.94-27.44L7.12-1.66C14.38.6 21.04 1.91 27.32 1.91c18.65 0 26.5-9.16 26.5-22.11 0-10.46-4.88-16.03-14.02-19.47l-14.5-5.47C17.8-48 14.6-51.8 14.6-57.5c0-8.44 5.12-12.95 14.15-12.95 11.05 0 15.56 5.47 19.36 20.43h1.78l-1.55-22.56c-5.7-1.55-11.04-2.26-18.53-2.26-13.89 0-22.92 7.72-22.92 20.07 0 9.99 4.63 16.16 14.5 19.85l13.17 4.98c5.11 1.9 10.58 4.88 10.58 13.07 0 8.92-4.03 14.14-15.2 14.14-14.02 0-19.72-9.27-22.22-24.7zm0 0"/></symbol><symbol overflow="visible" id="87d7e7f1o"><path d="M43.84-14.97c-1.8 5.7-6.3 8.55-12.84 8.55-13.42 0-18.4-10.8-18.4-20.9 0-10.34 3.8-18.54 15.32-18.54 9.03 0 13.19 7.72 16.03 16.98l1.78-.23-1.65-18.17c-4.4-1.19-8.8-2.14-14.27-2.14C12-49.42 4.75-37.06 4.75-22.45 4.75-9.73 11.52 1.9 26.97 1.9c11.4 0 17.34-6.79 18.76-16.88zm0 0"/></symbol><symbol overflow="visible" id="87d7e7f1p"><path d="M58.45-73.06H7.48v1.19l8.44 2.37v65.94L7.48-1.2V0h30.9v-1.19L26.24-3.56V-34.7h17.83L48-24.23h1.78V-49.3H48l-3.92 10.46H26.25v-30.07h23.77l8.78 15.8h1.8zm0 0"/></symbol><symbol overflow="visible" id="87d7e7f1q"><path d="M23.4-38.48c-.71 1.42-1.54 2.84-2.13 4.39v-15.33L3.8-43.36v1.06h8.43v38.74L3.8-1.2V0h31.12v-1.19L21.86-3.56v-19.61c0-8.55 2.37-16.63 9.62-16.63 4.04 0 6.3 2.14 7.96 7.49h1.78v-17.11c-8.08 0-14.02 4.28-17.81 10.94zm0 0"/></symbol><symbol overflow="visible" id="87d7e7f1r"><path d="M40.03-39.44C50.72-40.98 58.2-47.28 58.2-56.3c0-11.17-8.3-16.75-25.06-16.75H3.8v1.19l8.43 2.37v65.94L3.8-1.2V0H31.36c17.23 0 29.47-4.75 29.47-20.8 0-12.1-8.9-17.57-20.8-18.64zm6.78-16.75c0 9.97-5.7 15.67-19.14 15.67h-5.1V-68.9h7.13c11.4 0 17.11 4.64 17.11 12.72zM31.71-4.16h-9.13v-32.3h7.95c11.17 0 18.9 4.15 18.9 15.66C49.42-9.03 43-4.16 31.71-4.16zm0 0"/></symbol><symbol overflow="visible" id="87d7e7f1s"><path d="M54.17-49.53L40.4-45.37c-3.69-2.5-8.55-3.93-14.6-3.93-14.5 0-22.1 8.44-22.1 19.83 0 12.36 7.6 19.38 20.42 20.08v8.2h-2.48c-10.94 0-19.85 4.99-19.85 15.2 0 12 10.45 17.58 24.7 17.58 13.32 0 25.32-5.57 25.32-17.57 0-10.22-7.96-15.2-19.85-15.2h-3.43V-9.4c12.59-.7 19.59-8.78 19.59-20.55 0-4.98-1.66-9.5-4.75-12.83H55v-6.76zM26.73-13.31c-8.2 0-12.71-6.17-12.71-18.77 0-8.31 3.8-13.55 10.8-13.55 8.45 0 12.84 7.38 12.84 18.9 0 7.96-3.44 13.42-10.93 13.42zm15.08 28.15c0 7.85-5.94 13.2-14.97 13.2-8.07 0-15.56-5-15.56-13.2 0-8.67 5.24-12.23 13.9-12.23h2.38c8.32 0 14.25 3.56 14.25 12.23zm0 0"/></symbol><symbol overflow="visible" id="87d7e7f1t"><path d="M10.81-73.06l-8.44-1.55v23.05h1.79l6.65-17.22h14.85v64.03L12.83-1.78V0h36v-1.78L36-4.75v-64.03h14.72l6.66 17.22h1.78v-23.05l-8.44 1.55zm0 0"/></symbol><symbol overflow="visible" id="87d7e7f1u"><path d="M50.25-3.56v-40.4l8.44-2.37v-1.19H32.9v1.2l7.72 2.48v23.89c0 9.26-4.16 14.25-11.29 14.25-7.48 0-9.86-4.03-9.86-13.3v-24.84l7.6-2.49v-1.19H3.2v1.2l6.66 2.48v27.45c0 11.28 3.92 18.3 15.44 18.3 8.8 0 13.54-5.96 15.32-11.54V0H59.4v-1.19zm0 0"/></symbol><symbol overflow="visible" id="87d7e7f1v"><path d="M26.84-33.5h3.1c20.31 0 31.36-5.1 31.36-20.31 0-12.6-7.49-19.25-28.75-19.25H4.15v1.78l9.27 2.97v63.56L4.16-1.78V0h32.43v-1.78L23.77-4.75v-64.03h7.82c11.9 0 18.3 4.98 18.3 15.44 0 11.64-9.14 16.98-23.05 17.57zm0 0"/></symbol><symbol overflow="visible" id="87d7e7f1w"><path d="M50.72-3.56v-70.2l8.44-2.27v-1.19H28.39v1.19l12.72 1.9v29.1c-2.97-2.84-7.97-4.4-13.08-4.4-15.2 0-23.28 10.46-23.28 26.02 0 13.79 5.83 25.32 19.84 25.32 8.32 0 14.02-4.29 16.52-10.46V0h18.77v-1.19zM27.8-6.42c-10.1 0-13.9-8.19-13.9-19.6 0-11.4 3.68-19.84 14.02-19.84 9.03 0 12.35 6.06 13.19 13.67v12.83C41.1-8.9 33.97-6.42 27.8-6.42zm0 0"/></symbol><symbol overflow="visible" id="87d7e7f1x"><path d="M50.84-47.52H32.91v1.2l9.5 1.77-13.3 31.49-12.95-31.38 10.32-1.89v-1.19H0v1.2l5.23 1.77L25.3 1.78h1.18l20.08-46.22.13-.23 4.15-1.66zm0 0"/></symbol><symbol overflow="visible" id="87d7e7f1y"><path d="M48-4.16H23.77V-68.3l12.82-2.97v-1.78H4.16v1.78l9.26 2.97v63.56L4.16-1.78V0h51.67l3.33-21.14-1.78-.48zm0 0"/></symbol><symbol overflow="visible" id="87d7e7f1z"><path d="M41.81-69.5l9.99-1.78v-1.78H22.33v1.78l9.62 1.78-24 66.06L0-1.19V0h26.14v-1.19L13.66-3.56l6.18-18.66h27.32l6.18 18.66L41.11-1.2V0h30.64v-1.19l-7.48-2.25zm-8.44 6.06l12.36 37.06H21.14zm0 0"/></symbol><symbol overflow="visible" id="87d7e7f1A"><path d="M54.9-3.56v-43.96H22.68C21.86-53.7 20.9-58.2 20.9-63.8c0-7.48 4.04-11.87 11.87-11.87 10.34 0 13.31 7 16.05 17.7h1.78v-19.72a93.04 93.04 0 00-16.28-1.44c-14.97 0-21.14 9.52-21.14 24v7.61H4.75v3.57h8.44v40.39L4.75-1.2V0h26.5v-1.19l-8.44-2.37v-40.4h22.46v40.4L36.83-1.2V0H63.3v-1.19zm0 0"/></symbol><symbol overflow="visible" id="87d7e7f1B"><path d="M47.88-71.28l12.71 2.97v42.76c0 12.72-4.76 21.63-19.01 21.63-12.95 0-19.36-6.53-19.36-20.44V-68.3l13.55-2.97v-1.78H3.57v1.78l8.3 2.97v45.03C11.88-6.18 22.1 1.9 39.34 1.9c16.86 0 26.12-10.11 26.25-26.97v-43.25l7.48-2.97v-1.78H47.87zm0 0"/></symbol><symbol overflow="visible" id="87d7e7f1e"><path d="M14.6-26.38c3.7 0 6.8-3.09 6.8-6.76a6.77 6.77 0 10-6.78 6.77zm0 0"/></symbol><symbol overflow="visible" id="87d7e7f1C"><path d="M4.77-5.13v1.04h3.25C8-2.13 6.88-.86 5.03-.86c-1.92 0-3.2-1.5-3.2-4.08 0-2.54 1.3-4.1 3.15-4.1 1.46 0 2.27.65 2.7 1.8H8.9C8.36-9.2 6.94-10.07 5-10.07 2.4-10.08.67-7.97.67-4.94.67-1.89 2.42.17 5.03.17c1.61 0 2.58-.8 3.06-1.98V0h1.04l.01-5.13zm0 0"/></symbol><symbol overflow="visible" id="87d7e7f1D"><path d="M2.4-9.9H1.28V0H2.4zm0 0"/></symbol><symbol overflow="visible" id="87d7e7f1E"><path d="M7.38 0h1.3l-3-4.45c1.71-.22 2.48-1.24 2.48-2.72 0-1.67-.97-2.74-3.08-2.74H1.27V0h1.15v-4.33h2.02zM2.42-8.86h2.49C6.27-8.86 7-8.3 7-7.17c0 1.15-.7 1.81-2.06 1.81H2.42zm0 0"/></symbol><symbol overflow="visible" id="87d7e7f1F"><path d="M7.34 0h1.24L5.03-9.9H3.78L.13 0h1.23l.97-2.72H6.4zM2.7-3.77L4.4-8.63l1.65 4.86zm0 0"/></symbol><symbol overflow="visible" id="87d7e7f1G"><path d="M7.8-9.9v8.92L3.02-9.91H1.27V0h1.09v-8.9L7.13 0h1.75v-9.9zm0 0"/></symbol><symbol overflow="visible" id="87d7e7f1H"><path d="M4.23-9.9H1.27V0h2.96c2.64 0 4.52-1.9 4.52-4.94C8.75-8 6.87-9.9 4.23-9.9zm-.17 8.87H2.41v-7.83h1.65c2.24 0 3.53 1.44 3.53 3.92 0 2.46-1.32 3.9-3.53 3.9zm0 0"/></symbol><symbol overflow="visible" id="87d7e7f1I"><path d="M7.67-8.84v-1.07h-6.4V0h6.4v-1.05H2.41v-3.5h4.68v-1.03H2.41v-3.26zm0 0"/></symbol><symbol overflow="visible" id="87d7e7f1J"><path d="M4.98.17c2.57 0 4.33-2.06 4.33-5.1 0-3.07-1.76-5.15-4.33-5.15-2.54 0-4.3 2.08-4.3 5.14C.67-1.89 2.43.17 4.97.17zm0-1.03c-1.9 0-3.15-1.56-3.15-4.08 0-2.54 1.25-4.1 3.15-4.1 1.93 0 3.18 1.56 3.18 4.1 0 2.52-1.25 4.08-3.18 4.08zm0 0"/></symbol><symbol overflow="visible" id="87d7e7f1L"><path d="M4.4.17C6.68.17 7.95-1 7.95-2.73c0-1.43-.88-2.3-2.4-2.66l-2.09-.52c-1.06-.26-1.4-.75-1.4-1.46 0-.94.75-1.66 2.08-1.66 1.37 0 2.28.6 2.45 1.9H7.8c-.2-2.03-1.63-2.95-3.64-2.95C2.1-10.08.83-8.83.83-7.23c0 1.3.75 2.18 2.1 2.51l2.16.5c1.1.27 1.64.78 1.64 1.66 0 .95-.75 1.7-2.32 1.7-1.5 0-2.49-.69-2.66-2.08H.53C.72-.95 1.97.17 4.41.17zm0 0"/></symbol><symbol overflow="visible" id="87d7e7f1M"><path d="M5.1-9.9H1.26V0h1.15v-4.33h2.56c2.13 0 3.18-1.19 3.18-2.81 0-1.7-.96-2.77-3.07-2.77zm-.2 4.54H2.41v-3.5H4.9C6.36-8.86 7-8.25 7-7.14c0 1.06-.64 1.78-2.1 1.78zm0 0"/></symbol><symbol overflow="visible" id="87d7e7f1N"><path d="M2.44-1.05V-9.9H1.27V0h5.62v-1.05zm0 0"/></symbol><symbol overflow="visible" id="87d7e7f1O"><path d="M6.66-9.9L4.03-5.17 1.41-9.9H.16l3.28 5.88V0h1.15v-4.03l3.33-5.88zm0 0"/></symbol><symbol overflow="visible" id="87d7e7f1P"><path d="M11.83-4.3H.28v1.05h11.55zm0 0"/></symbol><symbol overflow="visible" id="87d7e7f1Q"><path d="M2.63-9.9c-.24 1.03-.7 1.65-2.3 1.71v1.02c1.01 0 1.64-.16 2.12-.63V0h1.17v-9.9zm0 0"/></symbol><symbol overflow="visible" id="87d7e7f1R"><path d="M4.17-6.53c-.94 0-1.7.37-2.17.98l.2-3.33h4.53V-9.9H1.27L.9-4.47h1.34c.33-.62.9-.98 1.72-.98 1.34 0 2.08.95 2.08 2.26 0 1.31-.78 2.33-2.07 2.33-1.28 0-2.07-.78-2.14-2H.7C.69-1.05 2.03.17 3.97.17c2.12 0 3.22-1.6 3.22-3.33 0-1.9-1.13-3.37-3.02-3.37zm0 0"/></symbol><symbol overflow="visible" id="87d7e7f1S"><path d="M4.42.17c2.33 0 3.7-2.1 3.7-5.1 0-3-1.37-5.15-3.7-5.15-2.34 0-3.7 2.16-3.7 5.16 0 2.98 1.36 5.1 3.7 5.1zm0-1.08c-1.67 0-2.58-1.54-2.58-4.01C1.84-7.41 2.75-9 4.42-9c1.66 0 2.56 1.6 2.56 4.08 0 2.47-.9 4.01-2.56 4.01zm0 0"/></symbol><symbol overflow="visible" id="87d7e7f1T"><path d="M7.6-9.9H.3v1.03h3.1V0h1.15v-8.88H7.6zm0 0"/></symbol><symbol overflow="visible" id="87d7e7f1U"><path d="M7.4-9.9L4.38-1.54 1.4-9.91H.17L3.84 0h1.04l3.76-9.9zm0 0"/></symbol><symbol overflow="visible" id="87d7e7f1V"><path d="M8.81-9.9H7.67v6.1C7.67-1.86 6.55-.9 5-.9c-1.63 0-2.7-1-2.7-2.94v-6.07H1.16v6.07C1.16-1.2 2.66.17 4.98.17c2.35 0 3.83-1.34 3.83-4.01zm0 0"/></symbol></defs><path fill="#fdfaf5" d="M0 0h1366v768H0z"/><use xlink:href="#87d7e7f1a" x="216.4731" y="185.9844"/><use xlink:href="#87d7e7f1b" x="280.150543" y="185.9844"/><use xlink:href="#87d7e7f1c" x="338.006728" y="185.9844"/><use xlink:href="#87d7e7f1d" x="432.810085" y="185.9844"/><use xlink:href="#87d7e7f1e" x="482.706589" y="185.9844" fill="red"/><use xlink:href="#87d7e7f1f" x="510.743672" y="185.9844"/><use xlink:href="#87d7e7f1g" x="585.232025" y="185.9844"/><use xlink:href="#87d7e7f1h" x="640.355782" y="185.9844"/><use xlink:href="#87d7e7f1i" x="701.5384" y="185.9844"/><use xlink:href="#87d7e7f1d" x="738.485573" y="185.9844"/><use xlink:href="#87d7e7f1j" x="788.382077" y="185.9844"/><use xlink:href="#87d7e7f1e" x="832.576123" y="185.9844" fill="red"/><use xlink:href="#87d7e7f1k" x="860.613206" y="185.9844"/><use xlink:href="#87d7e7f1l" x="960.762618" y="185.9844"/><use xlink:href="#87d7e7f1i" x="993.314147" y="185.9844"/><use xlink:href="#87d7e7f1g" x="1030.26132" y="185.9844"/><use xlink:href="#87d7e7f1m" x="1085.385077" y="185.9844"/><use xlink:href="#87d7e7f1n" x="206.6126" y="293.024281"/><use xlink:href="#87d7e7f1l" x="263.399574" y="293.024281"/><use xlink:href="#87d7e7f1o" x="295.951103" y="293.024281"/><use xlink:href="#87d7e7f1l" x="343.709185" y="293.024281"/><use xlink:href="#87d7e7f1i" x="376.260714" y="293.024281"/><use xlink:href="#87d7e7f1l" x="413.207887" y="293.024281"/><use xlink:href="#87d7e7f1g" x="445.759416" y="293.024281"/><use xlink:href="#87d7e7f1e" x="500.883173" y="293.024281" fill="red"/><use xlink:href="#87d7e7f1p" x="529.514262" y="293.024281"/><use xlink:href="#87d7e7f1i" x="591.290886" y="293.024281"/><use xlink:href="#87d7e7f1b" x="628.238059" y="293.024281"/><use xlink:href="#87d7e7f1q" x="686.094244" y="293.024281"/><use xlink:href="#87d7e7f1d" x="727.199459" y="293.024281"/><use xlink:href="#87d7e7f1m" x="777.095963" y="293.024281"/><use xlink:href="#87d7e7f1o" x="840.060599" y="293.024281"/><use xlink:href="#87d7e7f1d" x="887.818681" y="293.024281"/><use xlink:href="#87d7e7f1e" x="937.715185" y="293.024281" fill="red"/><g><use xlink:href="#87d7e7f1r" x="966.346274" y="293.024281"/><use xlink:href="#87d7e7f1g" x="1029.548513" y="293.024281"/><use xlink:href="#87d7e7f1q" x="1084.67227" y="293.024281"/><use xlink:href="#87d7e7f1l" x="1125.777485" y="293.024281"/></g><g><use xlink:href="#87d7e7f1r" x="189.267625" y="400.064162"/><use xlink:href="#87d7e7f1b" x="252.469864" y="400.064162"/><use xlink:href="#87d7e7f1i" x="310.326048" y="400.064162"/><use xlink:href="#87d7e7f1b" x="347.273221" y="400.064162"/><use xlink:href="#87d7e7f1s" x="405.129406" y="400.064162"/><use xlink:href="#87d7e7f1m" x="460.134361" y="400.064162"/><use xlink:href="#87d7e7f1g" x="523.098997" y="400.064162"/></g><g fill="red"><use xlink:href="#87d7e7f1e" x="578.222754" y="400.064162"/></g><g><use xlink:href="#87d7e7f1t" x="605.309428" y="400.064162"/></g><g><use xlink:href="#87d7e7f1u" x="657.344353" y="400.064162"/><use xlink:href="#87d7e7f1q" x="718.645772" y="400.064162"/><use xlink:href="#87d7e7f1l" x="759.750988" y="400.064162"/><use xlink:href="#87d7e7f1m" x="792.302516" y="400.064162"/></g><g fill="red"><use xlink:href="#87d7e7f1e" x="855.267152" y="400.064162"/></g><g><use xlink:href="#87d7e7f1v" x="882.353826" y="400.064162"/></g><g><use xlink:href="#87d7e7f1g" x="943.061239" y="400.064162"/><use xlink:href="#87d7e7f1w" x="998.184996" y="400.064162"/><use xlink:href="#87d7e7f1u" x="1059.367614" y="400.064162"/><use xlink:href="#87d7e7f1g" x="1120.669033" y="400.064162"/></g><g><use xlink:href="#87d7e7f1a" x="200.910143" y="507.104044"/><use xlink:href="#87d7e7f1g" x="264.587586" y="507.104044"/></g><g><use xlink:href="#87d7e7f1x" x="314.959295" y="507.104044"/><use xlink:href="#87d7e7f1d" x="364.618196" y="507.104044"/><use xlink:href="#87d7e7f1m" x="414.5147" y="507.104044"/><use xlink:href="#87d7e7f1g" x="477.479336" y="507.104044"/></g><g fill="red"><use xlink:href="#87d7e7f1e" x="532.603093" y="507.104044"/></g><g><use xlink:href="#87d7e7f1v" x="559.452164" y="507.104044"/></g><g><use xlink:href="#87d7e7f1g" x="620.159578" y="507.104044"/><use xlink:href="#87d7e7f1q" x="675.283334" y="507.104044"/><use xlink:href="#87d7e7f1c" x="716.38855" y="507.104044"/><use xlink:href="#87d7e7f1g" x="811.191907" y="507.104044"/></g><g fill="red"><use xlink:href="#87d7e7f1e" x="866.315664" y="507.104044"/></g><g><use xlink:href="#87d7e7f1y" x="893.164735" y="507.104044"/><use xlink:href="#87d7e7f1u" x="952.327733" y="507.104044"/><use xlink:href="#87d7e7f1o" x="1013.629152" y="507.104044"/><use xlink:href="#87d7e7f1o" x="1061.387234" y="507.104044"/><use xlink:href="#87d7e7f1g" x="1109.145317" y="507.104044"/></g><g><use xlink:href="#87d7e7f1p" x="197.70251" y="614.143925"/><use xlink:href="#87d7e7f1b" x="259.479134" y="614.143925"/><use xlink:href="#87d7e7f1s" x="317.335319" y="614.143925"/><use xlink:href="#87d7e7f1s" x="372.340274" y="614.143925"/><use xlink:href="#87d7e7f1l" x="427.34523" y="614.143925"/><use xlink:href="#87d7e7f1g" x="459.896759" y="614.143925"/></g><g fill="red"><use xlink:href="#87d7e7f1e" x="515.020516" y="614.143925"/></g><g><use xlink:href="#87d7e7f1z" x="541.631984" y="614.143925"/><use xlink:href="#87d7e7f1c" x="612.199897" y="614.143925"/><use xlink:href="#87d7e7f1g" x="707.003255" y="614.143925"/><use xlink:href="#87d7e7f1i" x="762.127012" y="614.143925"/><use xlink:href="#87d7e7f1A" x="799.074185" y="614.143925"/></g><g fill="red"><use xlink:href="#87d7e7f1e" x="862.395224" y="614.143925"/></g><g><use xlink:href="#87d7e7f1B" x="889.006693" y="614.143925"/></g><g><use xlink:href="#87d7e7f1w" x="960.881419" y="614.143925"/><use xlink:href="#87d7e7f1l" x="1022.064037" y="614.143925"/><use xlink:href="#87d7e7f1m" x="1054.615566" y="614.143925"/><use xlink:href="#87d7e7f1d" x="1117.580202" y="614.143925"/></g><g fill="#1a26cd"><use xlink:href="#87d7e7f1C" x="77" y="727.9854"/><use xlink:href="#87d7e7f1D" x="87.29991" y="727.9854"/><use xlink:href="#87d7e7f1E" x="91.307711" y="727.9854"/><use xlink:href="#87d7e7f1F" x="100.718519" y="727.9854"/><use xlink:href="#87d7e7f1G" x="109.8284" y="727.9854"/><use xlink:href="#87d7e7f1H" x="120.306131" y="727.9854"/><use xlink:href="#87d7e7f1I" x="130.223044" y="727.9854"/><use xlink:href="#87d7e7f1G" x="138.949927" y="727.9854"/><use xlink:href="#87d7e7f1C" x="149.427658" y="727.9854"/><use xlink:href="#87d7e7f1J" x="159.727568" y="727.9854"/><use xlink:href="#87d7e7f1K" x="170.054836" y="727.9854"/><use xlink:href="#87d7e7f1H" x="173.734352" y="727.9854"/><use xlink:href="#87d7e7f1D" x="183.651265" y="727.9854"/><use xlink:href="#87d7e7f1L" x="187.659065" y="727.9854"/><use xlink:href="#87d7e7f1M" x="196.536412" y="727.9854"/><use xlink:href="#87d7e7f1N" x="205.454794" y="727.9854"/><use xlink:href="#87d7e7f1F" x="212.923255" y="727.9854"/><use xlink:href="#87d7e7f1O" x="222.033136" y="727.9854"/><use xlink:href="#87d7e7f1K" x="230.418056" y="727.9854"/><use xlink:href="#87d7e7f1K" x="234.097573" y="727.9854"/></g><g fill="#1a26cd"><use xlink:href="#87d7e7f1P" x="237.777089" y="727.9854"/></g><g fill="#1a26cd"><use xlink:href="#87d7e7f1K" x="250.224524" y="727.9854"/><use xlink:href="#87d7e7f1K" x="253.904041" y="727.9854"/><use xlink:href="#87d7e7f1Q" x="257.583557" y="727.9854"/><use xlink:href="#87d7e7f1R" x="262.808744" y="727.9854"/><use xlink:href="#87d7e7f1S" x="270.933773" y="727.9854"/><use xlink:href="#87d7e7f1K" x="280.112046" y="727.9854"/><use xlink:href="#87d7e7f1M" x="283.791563" y="727.9854"/><use xlink:href="#87d7e7f1T" x="292.709945" y="727.9854"/><use xlink:href="#87d7e7f1L" x="300.971759" y="727.9854"/></g><g fill="#1a26cd"><use xlink:href="#87d7e7f1U" x="1151.911244" y="727.9854"/><use xlink:href="#87d7e7f1I" x="1161.021125" y="727.9854"/><use xlink:href="#87d7e7f1E" x="1169.748008" y="727.9854"/><use xlink:href="#87d7e7f1L" x="1179.158816" y="727.9854"/><use xlink:href="#87d7e7f1D" x="1188.036163" y="727.9854"/><use xlink:href="#87d7e7f1J" x="1192.043963" y="727.9854"/><use xlink:href="#87d7e7f1G" x="1202.371231" y="727.9854"/><use xlink:href="#87d7e7f1L" x="1212.848962" y="727.9854"/><use xlink:href="#87d7e7f1K" x="1221.726308" y="727.9854"/><use xlink:href="#87d7e7f1E" x="1225.405825" y="727.9854"/><use xlink:href="#87d7e7f1I" x="1234.816633" y="727.9854"/><use xlink:href="#87d7e7f1C" x="1243.543516" y="727.9854"/><use xlink:href="#87d7e7f1V" x="1253.843426" y="727.9854"/><use xlink:href="#87d7e7f1N" x="1264.157015" y="727.9854"/><use xlink:href="#87d7e7f1F" x="1271.625476" y="727.9854"/><use xlink:href="#87d7e7f1E" x="1280.735357" y="727.9854"/></g></svg>