<svg xmlns="http://www.w3.org/2000/svg" viewBox="0 0 1366 768"><defs><style>.cls-1{fill:#f7b3ca;}.cls-2{fill:#12100b;}</style></defs><g id="Layer_1" data-name="Layer 1"><rect class="cls-1" width="1366" height="790"/><path class="cls-2" d="M624.58,68l5.06,5.45h-1.49l-4.86-5.13V73.4h-1.24V63.5h1.24v4.17l4.82-4.17h1.6Z"/><path class="cls-2" d="M639.57,69.55c0,2.69-1.59,4-4.09,4s-4.1-1.36-4.1-4v-6h1.23v6a2.67,2.67,0,0,0,2.89,3,2.64,2.64,0,0,0,2.84-2.89V63.5h1.23Z"/><path class="cls-2" d="M649.86,66.25c0,1.64-1.12,2.82-3.39,2.82h-2.74V73.4h-1.24V63.5h4.09C648.84,63.5,649.86,64.55,649.86,66.25Zm-1.24,0c0-1.1-.69-1.72-2.25-1.72h-2.64V68h2.64C647.93,68,648.62,67.32,648.62,66.25Z"/><path class="cls-2" d="M659.37,66.25c0,1.64-1.13,2.82-3.39,2.82h-2.74V73.4H652V63.5h4.08C658.34,63.5,659.37,64.55,659.37,66.25Zm-1.24,0c0-1.1-.69-1.72-2.25-1.72h-2.64V68h2.64C657.44,68,658.13,67.32,658.13,66.25Z"/><path class="cls-2" d="M667,70.67h-4.36l-1,2.73h-1.32l3.91-9.9h1.33l3.78,9.9H668Zm-.38-1-1.76-4.87L663,69.64Z"/><path class="cls-2" d="M682.81,70.59c0,1.73-1,2.81-3.53,2.81h-4.14V63.5h3.92c2.26,0,3.3,1,3.3,2.61a2.25,2.25,0,0,1-1.78,2.14A2.34,2.34,0,0,1,682.81,70.59Zm-6.45-6.06v3.3h2.58c1.38,0,2.18-.63,2.18-1.72s-.94-1.58-2.38-1.58Zm5.22,6.06c0-1.32-1-1.72-2.53-1.72h-2.69v3.5H679C680.56,72.37,681.58,72,681.58,70.59Z"/><path class="cls-2" d="M684.61,68.46c0-3.07,1.89-5.14,4.61-5.14s4.61,2.07,4.61,5.14-1.88,5.12-4.61,5.12S684.61,71.51,684.61,68.46Zm8,0c0-2.54-1.32-4.1-3.37-4.1s-3.37,1.56-3.37,4.1,1.33,4.08,3.37,4.08S692.59,71,692.59,68.46Z"/><path class="cls-2" d="M702.26,72.35V73.4h-6V63.5h1.25v8.85Z"/><path class="cls-2" d="M712.2,68.46a4.6,4.6,0,0,1-4.81,4.94h-3.18V63.5h3.18A4.6,4.6,0,0,1,712.2,68.46Zm-1.24,0c0-2.48-1.38-3.93-3.76-3.93h-1.77v7.84h1.77C709.55,72.37,711,70.92,711,68.46Z"/><path d="M239.42,271.86c-.34-1.71-.68-3.38-1-4.86a15.44,15.44,0,0,1-.57-3.08,2,2,0,0,1,2.09-2,1.89,1.89,0,0,1,2,2,14.44,14.44,0,0,1-.68,3.08c-.42,1.52-.8,3.15-1.22,4.86Zm5.78,0c-.34-1.71-.69-3.38-1-4.86a16.2,16.2,0,0,1-.57-3.08,2,2,0,0,1,2.09-2,1.9,1.9,0,0,1,2,2A14.57,14.57,0,0,1,247,267c-.42,1.52-.8,3.15-1.21,4.86Z"/><path d="M279.89,266.73v18.54c0,1.71.53,2.24,2.66,2.28v.95h-9.16v-.95c2.43,0,3-.57,3-2.62V266.05L266.32,288.5h-.61l-11.39-22.57.15,19c0,2.05.64,2.58,3.91,2.62v.95h-7.64v-.95c2.13,0,2.66-.57,2.66-2.28l.16-18.54c0-1.71-.5-2.24-2.74-2.28v-.95H257l10.41,21.05,9.05-21.05h6.08v.95C280.42,264.49,279.89,265,279.89,266.73Z"/><path d="M300.67,271.4v.65c-1.18.27-1.52.68-2.28,2.51l-6.61,15.65c-.5,1-.69,1.41-1.18,2.32a6.13,6.13,0,0,1-5.55,3.57v-3.76c2.78,0,4.6,0,5.74-2.28l.8-1.75c-2.13-5.32-3.8-9.15-6-14.47a2.45,2.45,0,0,0-2.13-1.79v-.65h7.3v.65c-1.75.11-1.79,1.44-1.06,3.23l3.57,9,3.83-9.46c.61-1.48.27-2.5-1.82-2.77v-.65Z"/><path d="M328.71,288l-5.89.72-.34-.57v-1.52a7.79,7.79,0,0,1-5.44,2.47c-4.9,0-7.44-3.91-7.44-8.59,0-5.62,3.42-9.72,8.77-9.72a9.52,9.52,0,0,1,4.11.91v-6.57a9,9,0,0,0-2.17-2.51l0-.46,4.94-1.75.42.27V285c0,2.16.53,2.31,2.88,2Zm-6.23-2.62v-9.81a4.29,4.29,0,0,0-4.11-3.76c-4.14,0-5.58,3.42-5.58,6.88,0,4.29,2.2,7.79,6,7.79A5.74,5.74,0,0,0,322.48,285.39Z"/><path d="M345.73,283.83a7.34,7.34,0,0,1-7.07,5.28c-5.28,0-8.28-3.95-8.28-9.19s3.34-9.09,8.2-9.09c3.69,0,6.69,2,6.84,7.19H333.57v.22c0,4.72,2.32,8.32,6.53,8.32a5.39,5.39,0,0,0,5-3Zm-12.12-6.57,7.86-.31a3,3,0,0,0,.12-.83c0-1.71-.69-4.49-3.46-4.49S333.84,274,333.61,277.26Z"/><path d="M364.84,286.41a4.71,4.71,0,0,1-3.8,2.51c-1.63,0-2.55-1.06-2.93-3a5.94,5.94,0,0,1-5.16,3.15A3.82,3.82,0,0,1,348.8,285c0-2.46,1.64-4.14,4.94-5,1-.27,3-.61,4.6-.84l.08-1.74c.11-2.85-1.22-4.41-3.92-4.41a5.37,5.37,0,0,0-5,3.3l-.76-.19a7.39,7.39,0,0,1,7.1-5.35c3.84,0,5.89,2,5.74,6.15l-.27,7.11c0,1.9.31,2.62,1.56,2.62a2,2,0,0,0,1.56-.69Zm-6.69-2.89.15-3.45c-.83.11-1.78.3-2.73.49-2.28.49-3.54,1.79-3.54,3.57a2.49,2.49,0,0,0,2.55,2.78A3.71,3.71,0,0,0,358.15,283.52Z"/><path d="M371.75,287.48l3.61.11v.91h-9.5v-.91l2.66-.11v-12.2a9.28,9.28,0,0,0-2.16-2.51l0-.45,4.94-1.75.42.26v4.56c.23-.41.42-.79.61-1.06a6.41,6.41,0,0,1,6.12-3.53v3.72a20.35,20.35,0,0,0-3.54-.34c-2.2,0-3.19,1.63-3.19,4.37Z"/><path d="M379.73,294c2.17-1.48,3.57-3.64,3.57-4.78,0-.54-.53-.73-1.21-1.14a2.09,2.09,0,0,1-1.1-1.87A2,2,0,0,1,383,284c1.55,0,2.28,1.37,2.28,2.73,0,2.44-1.9,5.55-5.25,7.68Z"/><path d="M412.14,271.4v.65c-1.18.27-1.52.68-2.28,2.51l-6.61,15.65c-.5,1-.69,1.41-1.18,2.32a6.13,6.13,0,0,1-5.55,3.57v-3.76c2.78,0,4.6,0,5.74-2.28l.8-1.75c-2.13-5.32-3.8-9.15-6-14.47a2.45,2.45,0,0,0-2.12-1.79v-.65h7.29v.65c-1.75.11-1.79,1.44-1.06,3.23l3.57,9,3.84-9.46c.6-1.48.26-2.5-1.83-2.77v-.65Z"/><path d="M413.47,279.92c0-5.44,3.34-9.09,8.43-9.09,5.93,0,8.89,3.39,8.89,9.2,0,5.43-3.34,9.08-8.43,9.08C416.62,289.11,413.47,285.5,413.47,279.92Zm13.75,1.78c0-6.31-1.71-10.11-5.47-10.18s-4.71,2.77-4.71,6.72c0,6.39,1.75,10.15,5.55,10.15C426.23,288.39,427.22,285.46,427.22,281.7Z"/><path d="M453.1,288l-5.89.72-.35-.57V286c-2,1.94-3.83,3-6.34,3-3,0-4.94-2-4.94-5.62v-8.13a9.15,9.15,0,0,0-2.17-2.51l0-.46,4.94-1.74.42.26v10.64c0,3.5,1,5.32,3.72,5.32a6.91,6.91,0,0,0,4.33-1.67v-9.84a9.11,9.11,0,0,0-2.16-2.51l0-.46,4.94-1.74.41.26v14.29c0,2.13.54,2.28,2.89,2Z"/><path d="M478.85,286.41a4.68,4.68,0,0,1-3.79,2.51c-1.64,0-2.55-1.06-2.93-3a6,6,0,0,1-5.17,3.15,3.81,3.81,0,0,1-4.14-4.07c0-2.46,1.64-4.14,4.94-5,1-.27,3-.61,4.6-.84l.07-1.74c.12-2.85-1.21-4.41-3.91-4.41-2.55,0-4,1.44-5,3.3l-.76-.19a7.4,7.4,0,0,1,7.11-5.35c3.84,0,5.89,2,5.73,6.15l-.26,7.11c0,1.9.3,2.62,1.56,2.62a2,2,0,0,0,1.55-.69Zm-6.68-2.89.15-3.45c-.84.11-1.79.3-2.74.49-2.28.49-3.53,1.79-3.53,3.57a2.48,2.48,0,0,0,2.55,2.78A3.71,3.71,0,0,0,472.17,283.52Z"/><path d="M485.77,287.48l3.61.11v.91h-9.5v-.91l2.66-.11v-12.2a9.15,9.15,0,0,0-2.17-2.51l0-.45,4.94-1.75.42.26v4.56c.23-.41.42-.79.61-1.06a6.4,6.4,0,0,1,6.11-3.53v3.72a20.14,20.14,0,0,0-3.53-.34c-2.2,0-3.19,1.63-3.19,4.37Z"/><path d="M509.67,283.83a7.34,7.34,0,0,1-7.07,5.28c-5.28,0-8.28-3.95-8.28-9.19s3.34-9.09,8.2-9.09c3.69,0,6.69,2,6.84,7.19H497.51v.22c0,4.72,2.32,8.32,6.53,8.32a5.39,5.39,0,0,0,5-3Zm-12.12-6.57,7.86-.31a3,3,0,0,0,.12-.83c0-1.71-.69-4.49-3.46-4.49S497.78,274,497.55,277.26Z"/><path d="M536.38,286.41a4.71,4.71,0,0,1-3.8,2.51c-1.64,0-2.55-1.06-2.93-3a5.94,5.94,0,0,1-5.17,3.15,3.81,3.81,0,0,1-4.14-4.07c0-2.46,1.64-4.14,4.94-5,1-.27,3-.61,4.6-.84l.08-1.74c.11-2.85-1.22-4.41-3.92-4.41a5.39,5.39,0,0,0-5,3.3l-.76-.19a7.4,7.4,0,0,1,7.11-5.35c3.84,0,5.89,2,5.74,6.15l-.27,7.11c0,1.9.3,2.62,1.56,2.62A2,2,0,0,0,536,286Zm-6.69-2.89.15-3.45c-.83.11-1.78.3-2.73.49-2.28.49-3.54,1.79-3.54,3.57a2.48,2.48,0,0,0,2.55,2.78A3.71,3.71,0,0,0,529.69,283.52Z"/><path d="M561.57,271.4v.65c-1.18.27-1.53.68-2.28,2.51l-6.62,15.65c-.49,1-.68,1.41-1.17,2.32A6.13,6.13,0,0,1,546,296.1v-3.76c2.77,0,4.6,0,5.74-2.28l.79-1.75c-2.12-5.32-3.8-9.15-6-14.47a2.45,2.45,0,0,0-2.13-1.79v-.65h7.3v.65c-1.75.11-1.79,1.44-1.07,3.23l3.57,9,3.84-9.46c.61-1.48.27-2.5-1.82-2.77v-.65Z"/><path d="M562.89,279.92c0-5.44,3.35-9.09,8.44-9.09,5.93,0,8.89,3.39,8.89,9.2,0,5.43-3.34,9.08-8.44,9.08C566.05,289.11,562.89,285.5,562.89,279.92Zm13.76,1.78c0-6.31-1.71-10.11-5.47-10.18s-4.72,2.77-4.72,6.72c0,6.39,1.75,10.15,5.55,10.15S576.65,285.46,576.65,281.7Z"/><path d="M602.52,288l-5.89.72-.34-.57V286c-2,1.94-3.84,3-6.34,3-3,0-4.94-2-4.94-5.62v-8.13a9.32,9.32,0,0,0-2.17-2.51l0-.46,4.94-1.74.42.26v10.64c0,3.5,1,5.32,3.72,5.32a7,7,0,0,0,4.33-1.67v-9.84a9.15,9.15,0,0,0-2.17-2.51l0-.46,4.94-1.74.42.26v14.29c0,2.13.53,2.28,2.89,2Z"/><path d="M624.06,287.59v.91h-8.55v-.91l2.66-.11v-9.77c0-2.89-.95-4.75-3.64-4.75a6.19,6.19,0,0,0-4.56,2.51v12l2.66.11v.91h-8.55v-.91l2.66-.11v-12.2a9.32,9.32,0,0,0-2.17-2.51l0-.45,4.94-1.75.42.26v3.5c1.56-1.9,3.76-3.53,6.38-3.53,3.53,0,5,2.28,5,5.73v11Z"/><path d="M637.51,272.13a5.44,5.44,0,0,1,2,4.52c0,3.57-2.51,5.7-6.88,5.7a8.7,8.7,0,0,1-1,0c-.69.49-1.94,1.48-1.94,2,0,.65,1,.73,3.11.92l4.53.41c3,.27,4.93,1.56,4.93,4.22,0,3.95-3.91,6.84-9.23,6.84-4.6,0-7.37-1.37-7.37-4.06,0-1.83,1.37-3.39,3.8-4.79l-1.14-.12c-1.29-.11-2.09-.76-2.09-1.59s.76-1.48,1.52-2.05c.5-.38,1.94-1.37,2.77-1.94a5.39,5.39,0,0,1-4.59-5.55c0-3.61,2.58-5.77,6.91-5.77a9.25,9.25,0,0,1,3.46.6h6v2.7Zm-7.25,15.76a5.24,5.24,0,0,0-1.87,3.77c0,2.66,2.06,4.14,5.29,4.14,3.07,0,5.58-1.48,5.58-4.37,0-2-1.25-2.85-3.38-3Zm5.81-10.22c0-3.45-1.06-5.92-3.57-6s-3,1.82-3,3.8c0,3.53,1.1,5.89,3.53,5.89C635.2,281.4,636.07,280,636.07,277.67Z"/><path d="M678.09,271.4v.65c-1.18.15-1.71.68-2.32,2.32l-5.2,14.13h-1.14l-4.68-11.89-4.86,11.89h-1.14l-5.66-14.25c-.72-1.78-1.1-2.05-2.2-2.2v-.65h6.91v.65c-1.18.15-1.79,1.1-1.22,2.55l4,10.18,3.65-9.46-.42-1.07c-.72-1.78-1.1-2.05-2.2-2.2v-.65h7v.65a1.5,1.5,0,0,0-1.37,2.2l3.84,10.64,3.5-10c.6-1.71.41-2.62-1.83-2.85v-.65Z"/><path d="M679.84,279.92c0-5.44,3.34-9.09,8.43-9.09,5.93,0,8.89,3.39,8.89,9.2,0,5.43-3.34,9.08-8.43,9.08C683,289.11,679.84,285.5,679.84,279.92Zm13.75,1.78c0-6.31-1.71-10.11-5.47-10.18s-4.71,2.77-4.71,6.72c0,6.39,1.75,10.15,5.55,10.15C692.6,288.39,693.59,285.46,693.59,281.7Z"/><path d="M731.13,287.59v.91h-8.55v-.91l2.66-.11v-9.77c0-3-1-4.75-3.76-4.75a5.27,5.27,0,0,0-4.56,2.81,4.65,4.65,0,0,1,0,.76v11l2.66.11v.91h-8.55v-.91l2.66-.11v-9.77c0-3-1-4.75-3.76-4.75a5.46,5.46,0,0,0-4.41,2.47v12.05l2.66.11v.91h-8.55v-.91l2.66-.11v-12.2a9.15,9.15,0,0,0-2.17-2.51l0-.45,4.94-1.75.42.26v3.5c1.63-1.9,4-3.53,6.34-3.53a4.63,4.63,0,0,1,4.87,3.91c1.63-2,4.14-3.91,6.65-3.91,3.53,0,5.05,2.58,5.05,5.73v11Z"/><path d="M749.06,286.41a4.7,4.7,0,0,1-3.8,2.51c-1.63,0-2.54-1.06-2.92-3a6,6,0,0,1-5.17,3.15A3.81,3.81,0,0,1,733,285c0-2.46,1.63-4.14,4.94-5,1-.27,3-.61,4.59-.84l.08-1.74c.11-2.85-1.22-4.41-3.91-4.41s-4,1.44-5,3.3l-.76-.19a7.4,7.4,0,0,1,7.1-5.35c3.84,0,5.89,2,5.74,6.15l-.26,7.11c0,1.9.3,2.62,1.55,2.62a2,2,0,0,0,1.56-.69Zm-6.69-2.89.16-3.45c-.84.11-1.79.3-2.74.49-2.28.49-3.53,1.79-3.53,3.57a2.48,2.48,0,0,0,2.54,2.78A3.71,3.71,0,0,0,742.37,283.52Z"/><path d="M770.07,287.59v.91h-8.55v-.91l2.66-.11v-9.77c0-2.89-.95-4.75-3.65-4.75a6.21,6.21,0,0,0-4.56,2.51v12l2.66.11v.91h-8.55v-.91l2.67-.11v-12.2a9.32,9.32,0,0,0-2.17-2.51l0-.45,4.94-1.75.41.26v3.5c1.56-1.9,3.77-3.53,6.39-3.53,3.53,0,5,2.28,5,5.73v11Z"/><path d="M771.89,286.79a2.29,2.29,0,0,1,2.32-2.24,2.28,2.28,0,0,1,0,4.56A2.31,2.31,0,0,1,771.89,286.79Z"/><path d="M808,264.45c-2,0-2.51.57-3.2,1.94l-5.58,12.23v6.31c0,2.05.83,2.58,2.89,2.62v.95H792.9v-.95c2.06,0,2.89-.57,2.89-2.62v-6.08l-6.5-12.35a3.8,3.8,0,0,0-3.53-2.05v-.95h9.77v.95c-2.13.27-2.85.88-2.4,2.05l5.7,11.14,5-10.95c.69-1.86-.91-2.2-3.49-2.24v-.95H808Z"/><path d="M809.16,279.92c0-5.44,3.35-9.09,8.44-9.09,5.93,0,8.89,3.39,8.89,9.2,0,5.43-3.34,9.08-8.44,9.08C812.32,289.11,809.16,285.5,809.16,279.92Zm13.76,1.78c0-6.31-1.71-10.11-5.47-10.18s-4.71,2.77-4.71,6.72c0,6.39,1.74,10.15,5.54,10.15S822.92,285.46,822.92,281.7Z"/><path d="M848.79,288l-5.89.72-.34-.57V286c-2,1.94-3.84,3-6.34,3-3,0-4.94-2-4.94-5.62v-8.13a9.32,9.32,0,0,0-2.17-2.51l0-.46,4.94-1.74.42.26v10.64c0,3.5,1,5.32,3.72,5.32a7,7,0,0,0,4.33-1.67v-9.84a9.15,9.15,0,0,0-2.17-2.51l0-.46,4.94-1.74.42.26v14.29c0,2.13.53,2.28,2.89,2Z"/><path d="M874.55,286.41a4.7,4.7,0,0,1-3.8,2.51c-1.63,0-2.54-1.06-2.92-3a6,6,0,0,1-5.17,3.15,3.81,3.81,0,0,1-4.14-4.07c0-2.46,1.63-4.14,4.94-5,1-.27,3-.61,4.59-.84l.08-1.74c.11-2.85-1.22-4.41-3.91-4.41s-4,1.44-5,3.3l-.76-.19a7.4,7.4,0,0,1,7.1-5.35c3.84,0,5.89,2,5.74,6.15l-.26,7.11c0,1.9.3,2.62,1.55,2.62a2,2,0,0,0,1.56-.69Zm-6.69-2.89.16-3.45c-.84.11-1.79.3-2.74.49-2.28.49-3.53,1.79-3.53,3.57a2.48,2.48,0,0,0,2.54,2.78A3.71,3.71,0,0,0,867.86,283.52Z"/><path d="M881.47,287.48l3.61.11v.91h-9.5v-.91l2.66-.11v-12.2a9.32,9.32,0,0,0-2.17-2.51l0-.45,4.94-1.75.42.26v4.56a11.47,11.47,0,0,1,.6-1.06,6.42,6.42,0,0,1,6.12-3.53v3.72a20.33,20.33,0,0,0-3.53-.34c-2.21,0-3.19,1.63-3.19,4.37Z"/><path d="M905.36,283.83a7.34,7.34,0,0,1-7.06,5.28c-5.28,0-8.29-3.95-8.29-9.19s3.35-9.09,8.21-9.09c3.69,0,6.69,2,6.84,7.19H893.21v.22c0,4.72,2.31,8.32,6.53,8.32a5.4,5.4,0,0,0,5-3Zm-12.12-6.57,7.87-.31a3.38,3.38,0,0,0,.11-.83c0-1.71-.68-4.49-3.46-4.49S893.47,274,893.24,277.26Z"/><path d="M942,271.4v.65c-1.18.15-1.71.68-2.32,2.32L934.5,288.5h-1.14l-4.67-11.89-4.86,11.89h-1.14L917,274.25c-.73-1.78-1.11-2.05-2.21-2.2v-.65h6.92v.65c-1.18.15-1.79,1.1-1.22,2.55l4,10.18,3.65-9.46-.42-1.07c-.72-1.78-1.1-2.05-2.2-2.2v-.65h6.95v.65a1.5,1.5,0,0,0-1.37,2.2L935,284.89l3.49-10c.61-1.71.42-2.62-1.82-2.85v-.65Z"/><path d="M949.55,287.48l3.61.11v.91h-9.5v-.91l2.66-.11v-12.2a9.15,9.15,0,0,0-2.17-2.51l0-.45,4.94-1.75.42.26v4.56c.23-.41.42-.79.61-1.06a6.4,6.4,0,0,1,6.11-3.53v3.72a20.14,20.14,0,0,0-3.53-.34c-2.2,0-3.19,1.63-3.19,4.37Z"/><path d="M958,287.59l2.66-.11v-12.2a9.11,9.11,0,0,0-2.16-2.51l0-.45,4.94-1.75.41.26v16.65l2.66.11v.91H958Zm1.9-22.91a2.17,2.17,0,0,1,4.33,0,2.06,2.06,0,0,1-2.16,2.32A2.09,2.09,0,0,1,959.88,264.68Z"/><path d="M980.36,284.7c-1.14,2.13-2.77,4.41-5.74,4.41-2.5,0-3.57-1.71-3.57-4.71v-12h-3.26V272l3.26-1.82,3-4.1.53.07-.34,5.28h5.55v1h-5.55v11.48c0,1.82.57,2.89,2.13,2.89,1.18,0,2.36-.88,3.38-2.36Z"/><path d="M981.8,287.59l2.66-.11v-12.2a9.11,9.11,0,0,0-2.16-2.51l0-.45,4.94-1.75.41.26v16.65l2.66.11v.91H981.8Zm1.91-22.91a2.17,2.17,0,0,1,4.33,0,2.17,2.17,0,1,1-4.33,0Z"/><path d="M1012.24,287.59v.91h-8.55v-.91l2.66-.11v-9.77c0-2.89-1-4.75-3.65-4.75a6.19,6.19,0,0,0-4.56,2.51v12l2.66.11v.91h-8.55v-.91l2.66-.11v-12.2a9.28,9.28,0,0,0-2.16-2.51l0-.45,4.94-1.75.42.26v3.5c1.56-1.9,3.76-3.53,6.38-3.53,3.54,0,5.06,2.28,5.06,5.73v11Z"/><path d="M1025.69,272.13a5.46,5.46,0,0,1,2,4.52c0,3.57-2.5,5.7-6.87,5.7a8.78,8.78,0,0,1-1,0c-.68.49-1.94,1.48-1.94,2,0,.65,1,.73,3.12.92l4.52.41c3,.27,4.94,1.56,4.94,4.22,0,3.95-3.91,6.84-9.23,6.84-4.6,0-7.38-1.37-7.38-4.06,0-1.83,1.37-3.39,3.8-4.79l-1.14-.12c-1.29-.11-2.09-.76-2.09-1.59s.76-1.48,1.52-2.05c.5-.38,1.94-1.37,2.78-1.94a5.4,5.4,0,0,1-4.6-5.55c0-3.61,2.58-5.77,6.92-5.77a9.23,9.23,0,0,1,3.45.6h6v2.7Zm-7.26,15.76a5.23,5.23,0,0,0-1.86,3.77c0,2.66,2,4.14,5.28,4.14s5.58-1.48,5.58-4.37c0-2-1.25-2.85-3.38-3Zm5.81-10.22c0-3.45-1.06-5.92-3.57-6-2.35,0-3,1.82-3,3.8,0,3.53,1.1,5.89,3.54,5.89C1023.37,281.4,1024.24,280,1024.24,277.67Z"/><path d="M1056.31,286.41a4.7,4.7,0,0,1-3.8,2.51c-1.63,0-2.55-1.06-2.93-3a5.94,5.94,0,0,1-5.16,3.15,3.81,3.81,0,0,1-4.14-4.07c0-2.46,1.63-4.14,4.93-5,1-.27,3-.61,4.6-.84l.08-1.74c.11-2.85-1.22-4.41-3.92-4.41-2.54,0-4,1.44-5,3.3l-.76-.19a7.4,7.4,0,0,1,7.1-5.35c3.84,0,5.89,2,5.74,6.15l-.27,7.11c0,1.9.31,2.62,1.56,2.62a2,2,0,0,0,1.56-.69Zm-6.69-2.89.15-3.45c-.83.11-1.78.3-2.73.49-2.28.49-3.54,1.79-3.54,3.57a2.49,2.49,0,0,0,2.55,2.78A3.71,3.71,0,0,0,1049.62,283.52Z"/><path d="M1076,279.27c0,5.77-3.42,9.84-8.93,9.84a31.84,31.84,0,0,1-7.33-1.29V265.17a9.13,9.13,0,0,0-2.17-2.5l0-.46,4.94-1.75.42.27v12.95a8.47,8.47,0,0,1,6.08-2.88C1073.71,270.8,1076,274.48,1076,279.27Zm-3.12,1.33c0-3.8-1.9-7.68-6-7.68a5.27,5.27,0,0,0-4,1.64v9.31c0,3,1.63,4.44,4.14,4.44C1071.16,288.31,1072.87,284.93,1072.87,280.6Z"/><path d="M1078.27,279.92c0-5.44,3.34-9.09,8.43-9.09,5.93,0,8.89,3.39,8.89,9.2,0,5.43-3.34,9.08-8.43,9.08C1081.42,289.11,1078.27,285.5,1078.27,279.92ZM1092,281.7c0-6.31-1.71-10.11-5.47-10.18s-4.71,2.77-4.71,6.72c0,6.39,1.75,10.15,5.55,10.15C1091,288.39,1092,285.46,1092,281.7Z"/><path d="M1117.9,288l-5.89.72-.34-.57V286c-2,1.94-3.84,3-6.35,3-3,0-4.94-2-4.94-5.62v-8.13a9.15,9.15,0,0,0-2.17-2.51l0-.46,4.94-1.74.42.26v10.64c0,3.5,1,5.32,3.72,5.32a7,7,0,0,0,4.34-1.67v-9.84a9.32,9.32,0,0,0-2.17-2.51l0-.46,4.94-1.74.41.26v14.29c0,2.13.54,2.28,2.89,2Z"/><path d="M1131.38,284.7c-1.14,2.13-2.77,4.41-5.73,4.41-2.51,0-3.57-1.71-3.57-4.71v-12h-3.27V272l3.27-1.82,3-4.1.54.07-.35,5.28h5.55v1h-5.55v11.48c0,1.82.58,2.89,2.13,2.89,1.18,0,2.36-.88,3.38-2.36Z"/><path d="M1157,286.41a4.7,4.7,0,0,1-3.8,2.51c-1.63,0-2.55-1.06-2.93-3a5.94,5.94,0,0,1-5.16,3.15A3.81,3.81,0,0,1,1141,285c0-2.46,1.63-4.14,4.93-5,1-.27,3-.61,4.6-.84l.08-1.74c.11-2.85-1.22-4.41-3.92-4.41-2.54,0-4,1.44-5,3.3l-.76-.19a7.4,7.4,0,0,1,7.1-5.35c3.84,0,5.89,2,5.74,6.15l-.27,7.11c0,1.9.31,2.62,1.56,2.62a2,2,0,0,0,1.56-.69Zm-6.69-2.89.15-3.45c-.83.11-1.78.3-2.73.49-2.28.49-3.54,1.79-3.54,3.57a2.49,2.49,0,0,0,2.55,2.78A3.71,3.71,0,0,0,1150.34,283.52Z"/><path d="M268.34,329.27c0,5.77-3.42,9.84-8.93,9.84a31.84,31.84,0,0,1-7.33-1.29V315.17a9.13,9.13,0,0,0-2.17-2.5l0-.46,4.94-1.75.41.27v12.95a8.5,8.5,0,0,1,6.08-2.88C266.06,320.8,268.34,324.48,268.34,329.27Zm-3.12,1.33c0-3.8-1.9-7.68-6-7.68a5.29,5.29,0,0,0-4,1.64v9.31c0,3,1.64,4.44,4.15,4.44C263.51,338.31,265.22,334.93,265.22,330.6Z"/><path d="M270.62,329.92c0-5.44,3.34-9.09,8.43-9.09,5.93,0,8.89,3.39,8.89,9.2,0,5.43-3.34,9.08-8.43,9.08C273.77,339.11,270.62,335.5,270.62,329.92Zm13.75,1.78c0-6.31-1.71-10.11-5.47-10.18s-4.71,2.77-4.71,6.72c0,6.39,1.74,10.15,5.54,10.15C283.38,338.39,284.37,335.46,284.37,331.7Z"/><path d="M290.56,329.92c0-5.44,3.35-9.09,8.44-9.09,5.92,0,8.89,3.39,8.89,9.2,0,5.43-3.35,9.08-8.44,9.08C293.71,339.11,290.56,335.5,290.56,329.92Zm13.76,1.78c0-6.31-1.71-10.11-5.48-10.18s-4.71,2.77-4.71,6.72c0,6.39,1.75,10.15,5.55,10.15C303.33,338.39,304.32,335.46,304.32,331.7Z"/><path d="M323.5,324.52,320,327.37l8.36,11.13h-4.06a2.11,2.11,0,0,0-.57-1.29l-6-8-1.48,1.21v7.11l2.66.11v.91h-8.55v-.91l2.66-.11V315.1a9.11,9.11,0,0,0-2.16-2.51l0-.46,4.94-1.74.41.26v18.77l5.36-4.33c.61-.49,1.41-1.29,1.41-2a1.75,1.75,0,0,0-.69-1.33v-.35h6.23v.73A10.23,10.23,0,0,0,323.5,324.52Z"/><path d="M350.21,334.7c-1.14,2.13-2.77,4.41-5.74,4.41-2.5,0-3.57-1.71-3.57-4.71v-12h-3.27V322l3.27-1.82,3-4.1.53.07-.34,5.28h5.55v1h-5.55v11.48c0,1.82.57,2.89,2.13,2.89,1.18,0,2.36-.88,3.38-2.36Z"/><path d="M371.6,337.59v.91h-8.55v-.91l2.66-.11v-9.77c0-2.89-.95-4.75-3.64-4.75a5.83,5.83,0,0,0-4.53,2.43v12.09l2.66.11v.91h-8.55v-.91l2.66-.11V315.33a8.83,8.83,0,0,0-2.16-2.51l0-.46,4.94-1.75.41.27v13.45c1.64-1.9,4-3.53,6.35-3.53,3.53,0,5.05,2.28,5.05,5.73v11Z"/><path d="M389.53,336.41a4.7,4.7,0,0,1-3.8,2.51c-1.63,0-2.54-1.06-2.92-3a6,6,0,0,1-5.17,3.15A3.81,3.81,0,0,1,373.5,335c0-2.46,1.63-4.14,4.94-5,1-.27,3-.61,4.6-.84l.07-1.74c.12-2.85-1.21-4.41-3.91-4.41s-4,1.44-5,3.3l-.76-.19a7.4,7.4,0,0,1,7.11-5.35c3.83,0,5.89,2,5.73,6.15l-.26,7.11c0,1.9.3,2.62,1.56,2.62a2,2,0,0,0,1.55-.69Zm-6.68-2.89.15-3.45c-.84.11-1.79.3-2.74.49-2.28.49-3.53,1.79-3.53,3.57a2.48,2.48,0,0,0,2.55,2.78A3.72,3.72,0,0,0,382.85,333.52Z"/><path d="M402.49,334.7c-1.14,2.13-2.77,4.41-5.74,4.41-2.51,0-3.57-1.71-3.57-4.71v-12h-3.27V322l3.27-1.82,3-4.1.53.07-.34,5.28H402v1h-5.55v11.48c0,1.82.57,2.89,2.13,2.89,1.18,0,2.35-.88,3.38-2.36Z"/><path d="M431.48,337.59v.91h-8.55v-.91l2.66-.11v-9.77c0-2.89-.95-4.75-3.65-4.75a5.8,5.8,0,0,0-4.52,2.43v12.09l2.66.11v.91h-8.55v-.91l2.66-.11V315.33a8.87,8.87,0,0,0-2.17-2.51l0-.46,4.94-1.75.42.27v13.45c1.63-1.9,4-3.53,6.34-3.53,3.54,0,5.06,2.28,5.06,5.73v11Z"/><path d="M449.41,336.41a4.7,4.7,0,0,1-3.8,2.51c-1.63,0-2.54-1.06-2.92-3a6,6,0,0,1-5.17,3.15,3.81,3.81,0,0,1-4.14-4.07c0-2.46,1.63-4.14,4.94-5,1-.27,3-.61,4.59-.84l.08-1.74c.11-2.85-1.22-4.41-3.91-4.41s-4,1.44-5,3.3l-.76-.19a7.4,7.4,0,0,1,7.1-5.35c3.84,0,5.89,2,5.74,6.15l-.26,7.11c0,1.9.3,2.62,1.55,2.62A2,2,0,0,0,449,336Zm-6.69-2.89.16-3.45c-.84.11-1.79.3-2.74.49-2.28.49-3.53,1.79-3.53,3.57a2.48,2.48,0,0,0,2.54,2.78A3.71,3.71,0,0,0,442.72,333.52Z"/><path d="M462.59,321.52l.31,4.63h-.57c-1.1-3.19-2.47-4.48-5.25-4.48-1.86,0-3.11,1-3.11,2.77,0,1.56.95,2.21,2.7,3.12l3.08,1.63c2.43,1.3,4.06,2.17,4.06,4.68,0,3.07-2.62,5.24-6.73,5.24a14.47,14.47,0,0,1-5.31-1.06l-.54-4.64.69-.11c1.21,3,2.54,4.86,5.54,4.86,1.79,0,3.42-.87,3.42-2.89,0-1.18-.64-1.94-1.93-2.58l-4.14-2c-1.75-.83-3.58-2.2-3.58-4.82,0-2.89,2.13-5.05,6.23-5.05A19.43,19.43,0,0,1,462.59,321.52Z"/><path d="M492.87,329.27c0,5.77-3.41,9.84-8.92,9.84a31.92,31.92,0,0,1-7.34-1.29V315.17a9.09,9.09,0,0,0-2.16-2.5l0-.46,4.93-1.75.42.27v12.95a8.49,8.49,0,0,1,6.08-2.88C490.59,320.8,492.87,324.48,492.87,329.27Zm-3.11,1.33c0-3.8-1.9-7.68-6-7.68a5.28,5.28,0,0,0-4,1.64v9.31c0,3,1.64,4.44,4.14,4.44C488.05,338.31,489.76,334.93,489.76,330.6Z"/><path d="M510.5,333.83a7.34,7.34,0,0,1-7.06,5.28c-5.28,0-8.29-3.95-8.29-9.19s3.35-9.09,8.21-9.09c3.69,0,6.69,2,6.84,7.19H498.34v.22c0,4.72,2.32,8.32,6.54,8.32a5.4,5.4,0,0,0,5-3Zm-12.12-6.57,7.87-.31a3.38,3.38,0,0,0,.11-.83c0-1.71-.68-4.49-3.46-4.49S498.61,324,498.38,327.26Z"/><path d="M528.47,333.83a7.34,7.34,0,0,1-7.06,5.28c-5.28,0-8.29-3.95-8.29-9.19s3.35-9.09,8.21-9.09c3.69,0,6.69,2,6.84,7.19H516.32v.22c0,4.72,2.31,8.32,6.53,8.32a5.4,5.4,0,0,0,5-3Zm-12.12-6.57,7.87-.31a3.38,3.38,0,0,0,.11-.83c0-1.71-.68-4.49-3.45-4.49S516.58,324,516.35,327.26Z"/><path d="M551,337.59v.91h-8.55v-.91l2.66-.11v-9.77c0-2.89-1-4.75-3.65-4.75a6.19,6.19,0,0,0-4.56,2.51v12l2.66.11v.91H531v-.91l2.66-.11v-12.2a9.15,9.15,0,0,0-2.17-2.51l0-.45,4.94-1.75.42.26v3.5c1.56-1.9,3.76-3.53,6.38-3.53,3.54,0,5.06,2.28,5.06,5.73v11Z"/><path d="M586.45,321.4v.65c-1.18.15-1.71.68-2.32,2.32l-5.2,14.13h-1.14l-4.67-11.89-4.87,11.89h-1.14l-5.66-14.25c-.72-1.78-1.1-2.05-2.2-2.2v-.65h6.91v.65c-1.18.15-1.78,1.1-1.21,2.55l4,10.18,3.65-9.46-.42-1.07c-.72-1.78-1.1-2.05-2.2-2.2v-.65h7v.65a1.5,1.5,0,0,0-1.37,2.2l3.84,10.64,3.5-10c.61-1.71.42-2.62-1.83-2.85v-.65Z"/><path d="M594,337.48l3.61.11v.91h-9.5v-.91l2.66-.11v-12.2a9.11,9.11,0,0,0-2.16-2.51l0-.45,4.94-1.75.41.26v4.56c.23-.41.42-.79.61-1.06a6.42,6.42,0,0,1,6.12-3.53v3.72a20.33,20.33,0,0,0-3.53-.34c-2.21,0-3.2,1.63-3.2,4.37Z"/><path d="M602.41,337.59l2.66-.11v-12.2a9.32,9.32,0,0,0-2.17-2.51l0-.45,4.94-1.75.42.26v16.65l2.66.11v.91h-8.55Zm1.9-22.91a2.17,2.17,0,0,1,4.33,0,2.17,2.17,0,1,1-4.33,0Z"/><path d="M624.79,334.7c-1.14,2.13-2.78,4.41-5.74,4.41-2.51,0-3.57-1.71-3.57-4.71v-12h-3.27V322l3.27-1.82,3-4.1.53.07-.34,5.28h5.54v1h-5.54v11.48c0,1.82.57,2.89,2.12,2.89,1.18,0,2.36-.88,3.39-2.36Z"/><path d="M638.16,334.7c-1.14,2.13-2.77,4.41-5.74,4.41-2.51,0-3.57-1.71-3.57-4.71v-12h-3.27V322l3.27-1.82,3-4.1.53.07-.34,5.28h5.55v1h-5.55v11.48c0,1.82.57,2.89,2.13,2.89,1.18,0,2.35-.88,3.38-2.36Z"/><path d="M655.07,333.83a7.34,7.34,0,0,1-7.07,5.28c-5.28,0-8.28-3.95-8.28-9.19s3.34-9.09,8.2-9.09c3.69,0,6.69,2,6.84,7.19H642.91v.22c0,4.72,2.32,8.32,6.53,8.32a5.39,5.39,0,0,0,5-3ZM643,327.26l7.86-.31a3,3,0,0,0,.12-.83c0-1.71-.69-4.49-3.46-4.49S643.17,324,643,327.26Z"/><path d="M677.56,337.59v.91H669v-.91l2.66-.11v-9.77c0-2.89-.95-4.75-3.65-4.75a6.19,6.19,0,0,0-4.56,2.51v12l2.66.11v.91h-8.55v-.91l2.66-.11v-12.2a9.28,9.28,0,0,0-2.16-2.51l0-.45,4.94-1.75.42.26v3.5c1.56-1.9,3.76-3.53,6.38-3.53,3.54,0,5.06,2.28,5.06,5.73v11Z"/><path d="M705.14,329.27c0,5.77-3.42,9.84-8.93,9.84a31.84,31.84,0,0,1-7.33-1.29V315.17a9,9,0,0,0-2.17-2.5l0-.46,4.94-1.75.42.27v12.95a8.49,8.49,0,0,1,6.08-2.88C702.86,320.8,705.14,324.48,705.14,329.27ZM702,330.6c0-3.8-1.9-7.68-6-7.68a5.27,5.27,0,0,0-3.95,1.64v9.31c0,3,1.63,4.44,4.14,4.44C700.32,338.31,702,334.93,702,330.6Z"/><path d="M723.87,321.4v.65c-1.18.27-1.52.68-2.28,2.51L715,340.21c-.49,1-.68,1.41-1.18,2.32a6.13,6.13,0,0,1-5.54,3.57v-3.76c2.77,0,4.59,0,5.73-2.28l.8-1.75c-2.13-5.32-3.8-9.15-6-14.47a2.47,2.47,0,0,0-2.13-1.79v-.65H714v.65c-1.74.11-1.78,1.44-1.06,3.23l3.57,9,3.84-9.46c.61-1.48.26-2.5-1.83-2.77v-.65Z"/><path d="M749.29,336.41a4.7,4.7,0,0,1-3.8,2.51c-1.63,0-2.55-1.06-2.93-3a5.94,5.94,0,0,1-5.16,3.15,3.82,3.82,0,0,1-4.15-4.07c0-2.46,1.64-4.14,4.94-5,1-.27,3-.61,4.6-.84l.08-1.74C743,324.6,741.65,323,739,323a5.37,5.37,0,0,0-5,3.3l-.76-.19a7.4,7.4,0,0,1,7.1-5.35c3.84,0,5.89,2,5.74,6.15l-.27,7.11c0,1.9.31,2.62,1.56,2.62a2,2,0,0,0,1.56-.69Zm-6.69-2.89.15-3.45c-.83.11-1.78.3-2.73.49-2.28.49-3.54,1.79-3.54,3.57a2.49,2.49,0,0,0,2.55,2.78A3.71,3.71,0,0,0,742.6,333.52Z"/><path d="M789.37,337.59v.91h-8.55v-.91l2.66-.11v-9.77c0-3-1-4.75-3.76-4.75a5.27,5.27,0,0,0-4.56,2.81,4.65,4.65,0,0,1,0,.76v11l2.66.11v.91h-8.55v-.91l2.66-.11v-9.77c0-3-1-4.75-3.76-4.75a5.48,5.48,0,0,0-4.41,2.47v12.05l2.66.11v.91h-8.55v-.91l2.66-.11v-12.2a9.28,9.28,0,0,0-2.16-2.51l0-.45,4.94-1.75.42.26v3.5c1.63-1.9,4-3.53,6.35-3.53a4.62,4.62,0,0,1,4.86,3.91c1.63-2,4.14-3.91,6.65-3.91,3.53,0,5.05,2.58,5.05,5.73v11Z"/><path d="M807.3,336.41a4.7,4.7,0,0,1-3.8,2.51c-1.63,0-2.54-1.06-2.92-3a6,6,0,0,1-5.17,3.15,3.81,3.81,0,0,1-4.14-4.07c0-2.46,1.63-4.14,4.94-5,1-.27,3-.61,4.6-.84l.07-1.74C801,324.6,799.67,323,797,323s-4,1.44-5,3.3l-.76-.19a7.4,7.4,0,0,1,7.11-5.35c3.83,0,5.89,2,5.73,6.15l-.26,7.11c0,1.9.3,2.62,1.56,2.62a2,2,0,0,0,1.55-.69Zm-6.68-2.89.15-3.45c-.84.11-1.79.3-2.74.49-2.28.49-3.53,1.79-3.53,3.57a2.48,2.48,0,0,0,2.54,2.78A3.72,3.72,0,0,0,800.62,333.52Z"/><path d="M828.31,337.59v.91h-8.55v-.91l2.66-.11v-9.77c0-2.89-.95-4.75-3.64-4.75a6.19,6.19,0,0,0-4.56,2.51v12l2.66.11v.91h-8.55v-.91l2.66-.11v-12.2a9.32,9.32,0,0,0-2.17-2.51l0-.45,4.94-1.75.42.26v3.5c1.56-1.9,3.76-3.53,6.38-3.53,3.53,0,5,2.28,5,5.73v11Z"/><path d="M830.14,336.79a2.28,2.28,0,1,1,2.32,2.32A2.29,2.29,0,0,1,830.14,336.79Z"/><path d="M864,331.74c0,4.56-3.19,6.76-8.13,6.76H844.84v-.95c2.13,0,2.66-.57,2.66-2.28V316.73c0-1.71-.91-2.13-2.66-2.28v-.95h11.21c3.87,0,7,2,7,5.93,0,4.48-3.84,5.47-4.9,5.89l-1,.3C860.61,325.85,864,328,864,331.74ZM851,314.41v11.06c1.48,0,3.42-.11,4.1-.23,2.81-.45,4-3,4-5.51,0-3.34-2.09-5.47-5.39-5.47A19.9,19.9,0,0,0,851,314.41ZM860.15,332c0-3.49-2.51-5.62-6.08-5.62H851v11.1c1.29.07,2.92.11,4,.11C858.29,337.59,860.15,335.23,860.15,332Z"/><path d="M881.66,333.83a7.35,7.35,0,0,1-7.07,5.28c-5.28,0-8.28-3.95-8.28-9.19s3.34-9.09,8.2-9.09c3.69,0,6.69,2,6.84,7.19H869.5v.22c0,4.72,2.32,8.32,6.53,8.32a5.39,5.39,0,0,0,5-3Zm-12.12-6.57,7.86-.31a3,3,0,0,0,.11-.83c0-1.71-.68-4.49-3.45-4.49S869.76,324,869.54,327.26Z"/><path d="M903.92,321.52l.3,4.63h-.57c-1.1-3.19-2.47-4.48-5.24-4.48-1.86,0-3.12,1-3.12,2.77,0,1.56,1,2.21,2.7,3.12l3.08,1.63c2.43,1.3,4.06,2.17,4.06,4.68,0,3.07-2.62,5.24-6.72,5.24a14.53,14.53,0,0,1-5.32-1.06l-.53-4.64.68-.11c1.22,3,2.55,4.86,5.55,4.86,1.79,0,3.42-.87,3.42-2.89,0-1.18-.65-1.94-1.94-2.58l-4.14-2c-1.75-.83-3.57-2.2-3.57-4.82,0-2.89,2.13-5.05,6.23-5.05A19.49,19.49,0,0,1,903.92,321.52Z"/><path d="M924.51,321.4v.65c-1.18.27-1.52.68-2.28,2.51l-6.61,15.65c-.49,1-.68,1.41-1.18,2.32a6.13,6.13,0,0,1-5.54,3.57v-3.76c2.77,0,4.59,0,5.73-2.28l.8-1.75c-2.13-5.32-3.8-9.15-6-14.47a2.47,2.47,0,0,0-2.13-1.79v-.65h7.29v.65c-1.74.11-1.78,1.44-1.06,3.23l3.57,9,3.84-9.46c.61-1.48.27-2.5-1.82-2.77v-.65Z"/><path d="M957.19,337.59v.91h-8.55v-.91l2.66-.11v-9.77c0-3-.95-4.75-3.76-4.75a5.27,5.27,0,0,0-4.56,2.81,6.19,6.19,0,0,1,0,.76v11l2.66.11v.91h-8.55v-.91l2.67-.11v-9.77c0-3-1-4.75-3.77-4.75a5.46,5.46,0,0,0-4.4,2.47v12.05l2.66.11v.91h-8.55v-.91l2.66-.11v-12.2a9.32,9.32,0,0,0-2.17-2.51l0-.45,4.94-1.75.42.26v3.5c1.63-1.9,4-3.53,6.34-3.53a4.61,4.61,0,0,1,4.86,3.91c1.64-2,4.15-3.91,6.65-3.91,3.54,0,5.06,2.58,5.06,5.73v11Z"/><path d="M977.25,329.46c0,5.74-3.2,9.65-8.48,9.65a13.51,13.51,0,0,1-4.4-.84v6.84l3.61,0v1h-9.5v-.91l2.66-.11v-19.8a9.32,9.32,0,0,0-2.17-2.51l0-.45,4.94-1.75.42.26v4.3c1.21-2.21,3.42-4.33,6.27-4.33C975.16,320.8,977.25,324.71,977.25,329.46Zm-3.35,1c0-3.61-1.36-7-5.24-7a4.62,4.62,0,0,0-4.29,3.15v7.64a4.59,4.59,0,0,0,4.4,4.22C972.5,338.39,973.9,334.55,973.9,330.41Z"/><path d="M996.2,336.41a4.69,4.69,0,0,1-3.79,2.51c-1.64,0-2.55-1.06-2.93-3a6,6,0,0,1-5.17,3.15,3.81,3.81,0,0,1-4.14-4.07c0-2.46,1.63-4.14,4.94-5,1-.27,3-.61,4.6-.84l.07-1.74c.12-2.85-1.21-4.41-3.91-4.41-2.55,0-4,1.44-5,3.3l-.76-.19a7.4,7.4,0,0,1,7.11-5.35c3.84,0,5.89,2,5.73,6.15l-.26,7.11c0,1.9.3,2.62,1.56,2.62a2,2,0,0,0,1.55-.69Zm-6.68-2.89.15-3.45c-.84.11-1.79.3-2.74.49-2.28.49-3.53,1.79-3.53,3.57a2.48,2.48,0,0,0,2.55,2.78A3.71,3.71,0,0,0,989.52,333.52Z"/><path d="M1009.16,334.7c-1.14,2.13-2.77,4.41-5.74,4.41-2.5,0-3.57-1.71-3.57-4.71v-12h-3.27V322l3.27-1.82,3-4.1.53.07-.34,5.28h5.55v1h-5.55v11.48c0,1.82.57,2.89,2.13,2.89,1.18,0,2.35-.88,3.38-2.36Z"/><path d="M1030.55,337.59v.91H1022v-.91l2.66-.11v-9.77c0-2.89-1-4.75-3.65-4.75a5.82,5.82,0,0,0-4.52,2.43v12.09l2.66.11v.91h-8.55v-.91l2.66-.11V315.33a9,9,0,0,0-2.16-2.51l0-.46,4.94-1.75.42.27v13.45c1.64-1.9,4-3.53,6.35-3.53,3.53,0,5.05,2.28,5.05,5.73v11Z"/><path d="M1047.34,333.83a7.34,7.34,0,0,1-7.06,5.28c-5.28,0-8.29-3.95-8.29-9.19s3.35-9.09,8.21-9.09c3.69,0,6.69,2,6.84,7.19h-11.86v.22c0,4.72,2.32,8.32,6.54,8.32a5.4,5.4,0,0,0,5-3Zm-12.12-6.57,7.87-.31a3.38,3.38,0,0,0,.11-.83c0-1.71-.68-4.49-3.46-4.49S1035.45,324,1035.22,327.26Z"/><path d="M1061.78,334.7c-1.14,2.13-2.77,4.41-5.74,4.41-2.5,0-3.57-1.71-3.57-4.71v-12h-3.27V322l3.27-1.82,3-4.1.53.07-.34,5.28h5.55v1h-5.55v11.48c0,1.82.57,2.89,2.13,2.89,1.18,0,2.35-.88,3.38-2.36Z"/><path d="M1063.22,337.59l2.66-.11v-12.2a9.11,9.11,0,0,0-2.16-2.51l0-.45,4.94-1.75.42.26v16.65l2.66.11v.91h-8.55Zm1.9-22.91a2.17,2.17,0,0,1,4.33,0,2.06,2.06,0,0,1-2.16,2.32A2.09,2.09,0,0,1,1065.12,314.68Z"/><path d="M1082.75,320.8c2.89,0,5.85.83,5.85,3a1.35,1.35,0,0,1-1.44,1.48c-2.2,0-2.81-3.65-5.36-3.65-3.15,0-4.75,3.61-4.75,7.22,0,4.07,2.24,7.68,6.35,7.68a5.76,5.76,0,0,0,5.17-3l.6.26a7.51,7.51,0,0,1-7.18,5.36c-5.7,0-8.2-4.22-8.2-9C1073.79,325.74,1076.37,320.8,1082.75,320.8Z"/><path d="M1090.43,344c2.16-1.48,3.57-3.64,3.57-4.78,0-.54-.53-.73-1.22-1.14a2.11,2.11,0,0,1-1.1-1.87,2,2,0,0,1,2-2.16c1.56,0,2.28,1.37,2.28,2.73,0,2.44-1.9,5.55-5.24,7.68Zm1.33-19a2.28,2.28,0,1,1,2.31,2.32A2.28,2.28,0,0,1,1091.76,324.94Z"/><path d="M1124.73,329.27c0,5.77-3.41,9.84-8.92,9.84a31.92,31.92,0,0,1-7.34-1.29V315.17a9.09,9.09,0,0,0-2.16-2.5l0-.46,4.94-1.75.41.27v12.95a8.49,8.49,0,0,1,6.08-2.88C1122.46,320.8,1124.73,324.48,1124.73,329.27Zm-3.11,1.33c0-3.8-1.9-7.68-6-7.68a5.28,5.28,0,0,0-4,1.64v9.31c0,3,1.64,4.44,4.14,4.44C1119.91,338.31,1121.62,334.93,1121.62,330.6Z"/><path d="M1142.36,333.83a7.34,7.34,0,0,1-7.06,5.28c-5.29,0-8.29-3.95-8.29-9.19s3.35-9.09,8.21-9.09c3.69,0,6.69,2,6.84,7.19H1130.2v.22c0,4.72,2.32,8.32,6.54,8.32a5.39,5.39,0,0,0,5-3Zm-12.12-6.57,7.87-.31a3.38,3.38,0,0,0,.11-.83c0-1.71-.68-4.49-3.46-4.49S1130.47,324,1130.24,327.26Z"/><path d="M243.64,384.7c-1.14,2.13-2.77,4.41-5.74,4.41-2.5,0-3.57-1.71-3.57-4.71v-12h-3.27V372l3.27-1.82,3-4.1.53.07-.34,5.28h5.55v1h-5.55v11.48c0,1.82.57,2.89,2.13,2.89,1.18,0,2.35-.88,3.38-2.36Z"/><path d="M260.55,383.83a7.34,7.34,0,0,1-7.07,5.28c-5.28,0-8.28-3.95-8.28-9.19s3.34-9.09,8.2-9.09c3.69,0,6.69,2,6.84,7.19H248.39v.22c0,4.72,2.32,8.32,6.53,8.32a5.39,5.39,0,0,0,5-3Zm-12.12-6.57,7.86-.31a3,3,0,0,0,.12-.83c0-1.71-.69-4.49-3.46-4.49S248.66,374,248.43,377.26Z"/><path d="M283,387.59v.91h-8.55v-.91l2.66-.11v-9.77c0-2.89-.95-4.75-3.65-4.75a6.19,6.19,0,0,0-4.56,2.51v12l2.66.11v.91h-8.55v-.91l2.66-.11v-12.2a9.11,9.11,0,0,0-2.16-2.51l0-.45,4.94-1.75.41.26v3.5c1.56-1.9,3.77-3.53,6.39-3.53,3.53,0,5.05,2.28,5.05,5.73v11Z"/><path d="M303.59,388l-5.88.72-.35-.57v-1.52a7.75,7.75,0,0,1-5.43,2.47c-4.9,0-7.45-3.91-7.45-8.59,0-5.62,3.42-9.72,8.78-9.72a9.51,9.51,0,0,1,4.1.91v-6.57a9,9,0,0,0-2.16-2.51l0-.46,4.93-1.75.42.27V385c0,2.16.53,2.31,2.89,2Zm-6.23-2.62v-9.81a4.28,4.28,0,0,0-4.1-3.76c-4.14,0-5.59,3.42-5.59,6.88,0,4.29,2.21,7.79,6,7.79A5.69,5.69,0,0,0,297.36,385.39Z"/><path d="M320.61,383.83a7.33,7.33,0,0,1-7.06,5.28c-5.28,0-8.29-3.95-8.29-9.19s3.35-9.09,8.21-9.09c3.69,0,6.69,2,6.84,7.19H308.46v.22c0,4.72,2.31,8.32,6.53,8.32a5.39,5.39,0,0,0,5-3Zm-12.12-6.57,7.87-.31a3,3,0,0,0,.11-.83c0-1.71-.68-4.49-3.45-4.49S308.72,374,308.49,377.26Z"/><path d="M329,387.48l3.61.11v.91h-9.5v-.91l2.66-.11v-12.2a9.28,9.28,0,0,0-2.16-2.51l0-.45,4.94-1.75.42.26v4.56c.23-.41.42-.79.61-1.06a6.41,6.41,0,0,1,6.12-3.53v3.72a20.35,20.35,0,0,0-3.54-.34c-2.2,0-3.19,1.63-3.19,4.37Z"/><path d="M337,394c2.16-1.48,3.57-3.64,3.57-4.78,0-.54-.53-.73-1.22-1.14a2.11,2.11,0,0,1-1.1-1.87,2,2,0,0,1,2.05-2.16c1.56,0,2.28,1.37,2.28,2.73,0,2.44-1.9,5.55-5.24,7.68Zm1.33-19a2.28,2.28,0,1,1,2.32,2.32A2.28,2.28,0,0,1,338.32,374.94Z"/><path d="M373.65,387.59v.91H365.1v-.91l2.66-.11V365.82c-.91-.84-2.31-2-3.15-2.66a4,4,0,0,0-2.62-1c-2,0-3.23,1.37-3.23,3.54a23.24,23.24,0,0,0,.83,5.73h4.68v1h-4.68v15.09l3.8.11v.91h-9.68v-.91l2.66-.11V372.35h-3.23v-1h3.23v-1.52c0-5,1.63-8.54,7-8.58a8,8,0,0,1,4.37,1.18l2.85-1.14.38.26v25.88Z"/><path d="M392.23,386.41a4.7,4.7,0,0,1-3.8,2.51c-1.63,0-2.54-1.06-2.92-3a6,6,0,0,1-5.17,3.15A3.81,3.81,0,0,1,376.2,385c0-2.46,1.63-4.14,4.94-5,1-.27,3-.61,4.6-.84l.07-1.74c.11-2.85-1.22-4.41-3.91-4.41s-4,1.44-5,3.3l-.76-.19a7.4,7.4,0,0,1,7.11-5.35c3.83,0,5.88,2,5.73,6.15l-.26,7.11c0,1.9.3,2.62,1.55,2.62a2,2,0,0,0,1.56-.69Zm-6.69-2.89.16-3.45c-.84.11-1.79.3-2.74.49-2.28.49-3.53,1.79-3.53,3.57a2.48,2.48,0,0,0,2.54,2.78A3.71,3.71,0,0,0,385.54,383.52Z"/><path d="M405.19,384.7c-1.14,2.13-2.78,4.41-5.74,4.41-2.51,0-3.57-1.71-3.57-4.71v-12h-3.27V372l3.27-1.82,3-4.1.53.07-.34,5.28h5.54v1h-5.54v11.48c0,1.82.57,2.89,2.13,2.89,1.17,0,2.35-.88,3.38-2.36Z"/><path d="M418.56,384.7c-1.14,2.13-2.77,4.41-5.74,4.41-2.5,0-3.57-1.71-3.57-4.71v-12H406V372l3.27-1.82,3-4.1.53.07-.34,5.28H418v1h-5.55v11.48c0,1.82.57,2.89,2.13,2.89,1.18,0,2.35-.88,3.38-2.36Z"/><path d="M435.47,383.83a7.34,7.34,0,0,1-7.07,5.28c-5.28,0-8.28-3.95-8.28-9.19s3.34-9.09,8.2-9.09c3.69,0,6.69,2,6.84,7.19H423.31v.22c0,4.72,2.32,8.32,6.53,8.32a5.39,5.39,0,0,0,5-3Zm-12.12-6.57,7.86-.31a3,3,0,0,0,.12-.83c0-1.71-.69-4.49-3.46-4.49S423.58,374,423.35,377.26Z"/><path d="M443.86,387.48l3.61.11v.91H438v-.91l2.66-.11v-12.2a9.11,9.11,0,0,0-2.16-2.51l0-.45,4.94-1.75.41.26v4.56c.23-.41.42-.79.61-1.06a6.42,6.42,0,0,1,6.12-3.53v3.72a20.35,20.35,0,0,0-3.54-.34c-2.2,0-3.19,1.63-3.19,4.37Z"/><path d="M451.84,394c2.17-1.48,3.57-3.64,3.57-4.78,0-.54-.53-.73-1.21-1.14a2.1,2.1,0,0,1-1.11-1.87,2,2,0,0,1,2.06-2.16c1.56,0,2.28,1.37,2.28,2.73,0,2.44-1.9,5.55-5.25,7.68Zm1.33-19a2.29,2.29,0,0,1,2.32-2.24,2.26,2.26,0,0,1,2.24,2.24,2.28,2.28,0,1,1-4.56,0Z"/><path d="M486.72,388l-5.89.72-.34-.57v-1.52a7.77,7.77,0,0,1-5.43,2.47c-4.91,0-7.45-3.91-7.45-8.59,0-5.62,3.42-9.72,8.78-9.72a9.51,9.51,0,0,1,4.1.91v-6.57a9,9,0,0,0-2.17-2.51l0-.46,4.94-1.75.42.27V385c0,2.16.53,2.31,2.89,2Zm-6.23-2.62v-9.81a4.29,4.29,0,0,0-4.1-3.76c-4.15,0-5.59,3.42-5.59,6.88,0,4.29,2.2,7.79,6,7.79A5.72,5.72,0,0,0,480.49,385.39Z"/><path d="M503.74,383.83a7.34,7.34,0,0,1-7.07,5.28c-5.28,0-8.28-3.95-8.28-9.19s3.34-9.09,8.21-9.09c3.68,0,6.68,2,6.84,7.19H491.58v.22c0,4.72,2.32,8.32,6.54,8.32a5.39,5.39,0,0,0,5-3Zm-12.12-6.57,7.87-.31a3.38,3.38,0,0,0,.11-.83c0-1.71-.68-4.49-3.46-4.49S491.85,374,491.62,377.26Z"/><path d="M515.33,370.8c2.89,0,5.85.83,5.85,3a1.35,1.35,0,0,1-1.44,1.48c-2.21,0-2.82-3.65-5.36-3.65-3.16,0-4.75,3.61-4.75,7.22,0,4.07,2.24,7.68,6.34,7.68a5.75,5.75,0,0,0,5.17-3l.61.26a7.51,7.51,0,0,1-7.18,5.36c-5.7,0-8.21-4.22-8.21-9C506.36,375.74,509,370.8,515.33,370.8Z"/><path d="M538.92,383.83a7.34,7.34,0,0,1-7.06,5.28c-5.29,0-8.29-3.95-8.29-9.19s3.35-9.09,8.21-9.09c3.68,0,6.69,2,6.84,7.19H526.76v.22c0,4.72,2.32,8.32,6.54,8.32a5.39,5.39,0,0,0,5-3Zm-12.12-6.57,7.87-.31a3.38,3.38,0,0,0,.11-.83c0-1.71-.68-4.49-3.46-4.49S527,374,526.8,377.26Z"/><path d="M541.43,387.59l2.66-.11v-12.2a9.15,9.15,0,0,0-2.17-2.51l0-.45,4.94-1.75.42.26v16.65l2.66.11v.91h-8.55Zm1.9-22.91a2.17,2.17,0,0,1,4.33,0,2.17,2.17,0,1,1-4.33,0Z"/><path d="M564.53,374.9c.61-1.71.26-2.62-1.79-2.85v-.65h5.51v.65c-1.18.15-1.67.68-2.32,2.32l-5.58,14.13h-1.14l-6-14.25c-.76-1.78-1.21-2.05-2.31-2.2v-.65H558v.65a1.5,1.5,0,0,0-1.36,2.2L560.88,385Z"/><path d="M585,383.83a7.34,7.34,0,0,1-7.07,5.28c-5.28,0-8.28-3.95-8.28-9.19s3.34-9.09,8.21-9.09c3.68,0,6.68,2,6.84,7.19H572.81v.22c0,4.72,2.32,8.32,6.54,8.32a5.39,5.39,0,0,0,5-3Zm-12.12-6.57,7.86-.31a3,3,0,0,0,.12-.83c0-1.71-.69-4.49-3.46-4.49S573.08,374,572.85,377.26Z"/><path d="M587,394c2.17-1.48,3.57-3.64,3.57-4.78,0-.54-.53-.73-1.21-1.14a2.1,2.1,0,0,1-1.11-1.87,2,2,0,0,1,2.06-2.16c1.55,0,2.28,1.37,2.28,2.73,0,2.44-1.9,5.55-5.25,7.68Zm1.33-19a2.28,2.28,0,1,1,2.32,2.32A2.29,2.29,0,0,1,588.35,374.94Z"/><path d="M622.47,388l-5.89.72-.34-.57V386c-2,1.94-3.84,3-6.35,3-3,0-4.94-2-4.94-5.62v-8.13a9.11,9.11,0,0,0-2.16-2.51l0-.46,4.93-1.74.42.26v10.64c0,3.5,1,5.32,3.73,5.32a7,7,0,0,0,4.33-1.67v-9.84a9.32,9.32,0,0,0-2.17-2.51l0-.46,4.94-1.74.42.26v14.29c0,2.13.53,2.28,2.88,2Z"/><path d="M636.18,371.52l.31,4.63h-.57c-1.1-3.19-2.47-4.48-5.25-4.48-1.86,0-3.11,1-3.11,2.77,0,1.56,1,2.21,2.7,3.12l3.07,1.63c2.44,1.3,4.07,2.17,4.07,4.68,0,3.07-2.62,5.24-6.73,5.24a14.47,14.47,0,0,1-5.31-1.06l-.54-4.64.69-.11c1.21,3,2.54,4.86,5.54,4.86,1.79,0,3.42-.87,3.42-2.89,0-1.18-.64-1.94-1.93-2.58l-4.14-2c-1.75-.83-3.58-2.2-3.58-4.82,0-2.89,2.13-5.05,6.23-5.05A19.43,19.43,0,0,1,636.18,371.52Z"/><path d="M655.67,383.83a7.34,7.34,0,0,1-7.06,5.28c-5.28,0-8.29-3.95-8.29-9.19s3.35-9.09,8.21-9.09c3.69,0,6.69,2,6.84,7.19H643.52v.22c0,4.72,2.31,8.32,6.53,8.32a5.4,5.4,0,0,0,5-3Zm-12.12-6.57,7.87-.31a3,3,0,0,0,.11-.83c0-1.71-.68-4.49-3.45-4.49S643.78,374,643.55,377.26Z"/><path d="M682.38,386.41a4.7,4.7,0,0,1-3.8,2.51c-1.63,0-2.54-1.06-2.92-3a6,6,0,0,1-5.17,3.15,3.81,3.81,0,0,1-4.14-4.07c0-2.46,1.63-4.14,4.94-5,1-.27,3-.61,4.6-.84l.07-1.74c.12-2.85-1.21-4.41-3.91-4.41-2.55,0-4,1.44-5,3.3l-.76-.19a7.4,7.4,0,0,1,7.11-5.35c3.83,0,5.89,2,5.73,6.15l-.26,7.11c0,1.9.3,2.62,1.56,2.62A2,2,0,0,0,682,386Zm-6.68-2.89.15-3.45c-.84.11-1.79.3-2.74.49-2.28.49-3.53,1.79-3.53,3.57a2.48,2.48,0,0,0,2.54,2.78A3.72,3.72,0,0,0,675.7,383.52Z"/><path d="M683.9,362.82l0-.46,4.94-1.75.42.27v26.6l2.66.11v.91h-8.55v-.91l2.66-.11V365.33A9,9,0,0,0,683.9,362.82Z"/><path d="M694.43,362.82l0-.46,4.94-1.75.42.27v26.6l2.66.11v.91h-8.55v-.91l2.66-.11V365.33A9,9,0,0,0,694.43,362.82Z"/><path d="M724,384.7c-1.14,2.13-2.78,4.41-5.74,4.41-2.51,0-3.57-1.71-3.57-4.71v-12h-3.27V372l3.27-1.82,3-4.1.53.07-.34,5.28h5.54v1h-5.54v11.48c0,1.82.57,2.89,2.12,2.89,1.18,0,2.36-.88,3.39-2.36Z"/><path d="M745.38,387.59v.91h-8.55v-.91l2.66-.11v-9.77c0-2.89-1-4.75-3.65-4.75a5.8,5.8,0,0,0-4.52,2.43v12.09l2.66.11v.91h-8.55v-.91l2.66-.11V365.33a9,9,0,0,0-2.17-2.51l0-.46,4.94-1.75.42.27v13.45c1.63-1.9,4-3.53,6.34-3.53,3.54,0,5.06,2.28,5.06,5.73v11Z"/><path d="M762.17,383.83a7.34,7.34,0,0,1-7.07,5.28c-5.28,0-8.28-3.95-8.28-9.19s3.34-9.09,8.21-9.09c3.68,0,6.68,2,6.83,7.19H750v.22c0,4.72,2.32,8.32,6.53,8.32a5.39,5.39,0,0,0,5-3Zm-12.12-6.57,7.86-.31a3,3,0,0,0,.12-.83c0-1.71-.69-4.49-3.46-4.49S750.28,374,750.05,377.26Z"/><path d="M788.88,386.41a4.71,4.71,0,0,1-3.8,2.51c-1.64,0-2.55-1.06-2.93-3a5.94,5.94,0,0,1-5.16,3.15,3.82,3.82,0,0,1-4.15-4.07c0-2.46,1.64-4.14,4.94-5,1-.27,3-.61,4.6-.84l.08-1.74c.11-2.85-1.22-4.41-3.92-4.41a5.37,5.37,0,0,0-5,3.3l-.76-.19a7.39,7.39,0,0,1,7.1-5.35c3.84,0,5.89,2,5.74,6.15l-.27,7.11c0,1.9.31,2.62,1.56,2.62a2,2,0,0,0,1.56-.69Zm-6.69-2.89.15-3.45c-.83.11-1.78.3-2.73.49-2.28.49-3.54,1.79-3.54,3.57a2.49,2.49,0,0,0,2.55,2.78A3.71,3.71,0,0,0,782.19,383.52Z"/><path d="M795.79,387.48l3.61.11v.91h-9.5v-.91l2.66-.11v-12.2a9.28,9.28,0,0,0-2.16-2.51l0-.45,4.94-1.75.42.26v4.56c.23-.41.42-.79.61-1.06a6.41,6.41,0,0,1,6.12-3.53v3.72a20.35,20.35,0,0,0-3.54-.34c-2.2,0-3.19,1.63-3.19,4.37Z"/><path d="M816.16,384.7c-1.14,2.13-2.78,4.41-5.74,4.41-2.51,0-3.57-1.71-3.57-4.71v-12h-3.27V372l3.27-1.82,3-4.1.53.07-.34,5.28h5.54v1h-5.54v11.48c0,1.82.57,2.89,2.13,2.89,1.17,0,2.35-.88,3.38-2.36Z"/><path d="M829.76,371.52l.3,4.63h-.57c-1.1-3.19-2.47-4.48-5.24-4.48-1.86,0-3.12,1-3.12,2.77,0,1.56,1,2.21,2.7,3.12l3.08,1.63c2.43,1.3,4.06,2.17,4.06,4.68,0,3.07-2.62,5.24-6.72,5.24a14.53,14.53,0,0,1-5.32-1.06l-.53-4.64.68-.11c1.22,3,2.55,4.86,5.55,4.86,1.78,0,3.42-.87,3.42-2.89,0-1.18-.65-1.94-1.94-2.58l-4.14-2c-1.75-.83-3.57-2.2-3.57-4.82,0-2.89,2.12-5.05,6.23-5.05A19.54,19.54,0,0,1,829.76,371.52Z"/><path d="M858,386.41a4.71,4.71,0,0,1-3.8,2.51c-1.64,0-2.55-1.06-2.93-3a5.94,5.94,0,0,1-5.17,3.15A3.81,3.81,0,0,1,842,385c0-2.46,1.64-4.14,4.94-5,1-.27,3-.61,4.6-.84l.08-1.74c.11-2.85-1.22-4.41-3.92-4.41a5.39,5.39,0,0,0-5,3.3l-.75-.19a7.38,7.38,0,0,1,7.1-5.35c3.84,0,5.89,2,5.74,6.15l-.27,7.11c0,1.9.3,2.62,1.56,2.62a2,2,0,0,0,1.56-.69Zm-6.69-2.89.15-3.45c-.83.11-1.78.3-2.73.49-2.28.49-3.54,1.79-3.54,3.57a2.48,2.48,0,0,0,2.55,2.78A3.71,3.71,0,0,0,851.3,383.52Z"/><path d="M879,387.59v.91h-8.55v-.91l2.66-.11v-9.77c0-2.89-1-4.75-3.65-4.75a6.19,6.19,0,0,0-4.56,2.51v12l2.66.11v.91H859v-.91l2.66-.11v-12.2a9.15,9.15,0,0,0-2.17-2.51l0-.45,4.94-1.75.42.26v3.5c1.56-1.9,3.76-3.53,6.38-3.53,3.54,0,5.06,2.28,5.06,5.73v11Z"/><path d="M899.55,388l-5.89.72-.34-.57v-1.52a7.77,7.77,0,0,1-5.43,2.47c-4.9,0-7.45-3.91-7.45-8.59,0-5.62,3.42-9.72,8.78-9.72a9.51,9.51,0,0,1,4.1.91v-6.57a8.87,8.87,0,0,0-2.17-2.51l0-.46,4.94-1.75.42.27V385c0,2.16.53,2.31,2.89,2Zm-6.23-2.62v-9.81a4.28,4.28,0,0,0-4.1-3.76c-4.14,0-5.59,3.42-5.59,6.88,0,4.29,2.2,7.79,6,7.79A5.72,5.72,0,0,0,893.32,385.39Z"/><path d="M935.26,371.4v.65c-1.17.15-1.71.68-2.31,2.32l-5.21,14.13H926.6l-4.67-11.89-4.86,11.89h-1.14l-5.67-14.25c-.72-1.78-1.1-2.05-2.2-2.2v-.65H915v.65c-1.18.15-1.79,1.1-1.22,2.55l4,10.18,3.64-9.46-.41-1.07c-.73-1.78-1.1-2.05-2.21-2.2v-.65h7v.65a1.49,1.49,0,0,0-1.37,2.2l3.84,10.64,3.49-10c.61-1.71.42-2.62-1.82-2.85v-.65Z"/><path d="M936.9,387.59l2.66-.11v-12.2a9.32,9.32,0,0,0-2.17-2.51l0-.45,4.94-1.75.42.26v16.65l2.66.11v.91H936.9Zm1.9-22.91a2.17,2.17,0,0,1,4.33,0,2.17,2.17,0,1,1-4.33,0Z"/><path d="M947.84,362.82l0-.46,4.94-1.75.41.27v26.6l2.66.11v.91h-8.55v-.91l2.66-.11V365.33A8.83,8.83,0,0,0,947.84,362.82Z"/><path d="M973.33,383.83a7.34,7.34,0,0,1-7.06,5.28c-5.28,0-8.29-3.95-8.29-9.19s3.35-9.09,8.21-9.09c3.69,0,6.69,2,6.84,7.19H961.17v.22c0,4.72,2.32,8.32,6.54,8.32a5.4,5.4,0,0,0,5-3Zm-12.12-6.57,7.87-.31a3.38,3.38,0,0,0,.11-.83c0-1.71-.68-4.49-3.46-4.49S961.44,374,961.21,377.26Z"/><path d="M988,371.52l.3,4.63h-.57c-1.1-3.19-2.47-4.48-5.24-4.48-1.86,0-3.12,1-3.12,2.77,0,1.56,1,2.21,2.7,3.12l3.08,1.63c2.43,1.3,4.06,2.17,4.06,4.68,0,3.07-2.62,5.24-6.72,5.24a14.53,14.53,0,0,1-5.32-1.06l-.53-4.64.68-.11c1.22,3,2.55,4.86,5.55,4.86,1.78,0,3.42-.87,3.42-2.89,0-1.18-.65-1.94-1.94-2.58l-4.14-2c-1.75-.83-3.57-2.2-3.57-4.82,0-2.89,2.12-5.05,6.23-5.05A19.54,19.54,0,0,1,988,371.52Z"/><path d="M999.74,379.92c0-5.44,3.34-9.09,8.43-9.09,5.93,0,8.89,3.39,8.89,9.2,0,5.43-3.34,9.08-8.43,9.08C1002.89,389.11,999.74,385.5,999.74,379.92Zm13.75,1.78c0-6.31-1.71-10.11-5.47-10.18s-4.71,2.77-4.71,6.72c0,6.39,1.75,10.15,5.55,10.15C1012.5,388.39,1013.49,385.46,1013.49,381.7Z"/><path d="M1034.12,363.46a1.27,1.27,0,0,1-1.37,1.22c-1.33,0-1.82-1-3.26-2.09a2.11,2.11,0,0,0-1.14-.46c-1.6,0-2.66,1.37-2.66,3.54a31.05,31.05,0,0,0,.83,5.73h4.68v1h-4.68v15.09l3.8.11v.91h-9.69v-.91l2.66-.11V372.35h-3.23v-1h3.23v-1.52c0-5,1.75-8.54,6.31-8.58h.08C1031.5,361.3,1034.12,361.87,1034.12,363.46Z"/><path d="M1039.74,379.92c0-5.44,3.35-9.09,8.44-9.09,5.93,0,8.89,3.39,8.89,9.2,0,5.43-3.34,9.08-8.44,9.08C1042.9,389.11,1039.74,385.5,1039.74,379.92Zm13.76,1.78c0-6.31-1.71-10.11-5.47-10.18s-4.72,2.77-4.72,6.72c0,6.39,1.75,10.15,5.55,10.15S1053.5,385.46,1053.5,381.7Z"/><path d="M1079.37,388l-5.89.72-.34-.57V386c-2,1.94-3.84,3-6.35,3-3,0-4.93-2-4.93-5.62v-8.13a9.32,9.32,0,0,0-2.17-2.51l0-.46,4.94-1.74.41.26v10.64c0,3.5,1,5.32,3.73,5.32a7,7,0,0,0,4.33-1.67v-9.84a9.15,9.15,0,0,0-2.17-2.51l0-.46,4.94-1.74.42.26v14.29c0,2.13.53,2.28,2.89,2Z"/><path d="M1086.82,387.48l3.61.11v.91h-9.5v-.91l2.66-.11v-12.2a9.32,9.32,0,0,0-2.17-2.51l0-.45,4.94-1.75.42.26v4.56c.22-.41.42-.79.6-1.06a6.42,6.42,0,0,1,6.12-3.53v3.72a20.23,20.23,0,0,0-3.53-.34c-2.2,0-3.19,1.63-3.19,4.37Z"/><path d="M1115,371.52l.3,4.63h-.57c-1.1-3.19-2.47-4.48-5.24-4.48-1.86,0-3.12,1-3.12,2.77,0,1.56.95,2.21,2.7,3.12l3.08,1.63c2.43,1.3,4.06,2.17,4.06,4.68,0,3.07-2.62,5.24-6.72,5.24a14.53,14.53,0,0,1-5.32-1.06l-.53-4.64.68-.11c1.22,3,2.55,4.86,5.55,4.86,1.79,0,3.42-.87,3.42-2.89,0-1.18-.65-1.94-1.94-2.58l-4.14-2c-1.75-.83-3.57-2.2-3.57-4.82,0-2.89,2.13-5.05,6.23-5.05A19.49,19.49,0,0,1,1115,371.52Z"/><path d="M1134.5,383.83a7.34,7.34,0,0,1-7.07,5.28c-5.28,0-8.28-3.95-8.28-9.19s3.34-9.09,8.21-9.09c3.68,0,6.68,2,6.84,7.19h-11.86v.22c0,4.72,2.32,8.32,6.54,8.32a5.39,5.39,0,0,0,5-3Zm-12.12-6.57,7.86-.31a3,3,0,0,0,.12-.83c0-1.71-.69-4.49-3.46-4.49S1122.61,374,1122.38,377.26Z"/><path d="M1153.65,387.86v.64h-7.49v-.64c1.26-.16,2.09-1.07,1.26-2.21l-3-4-2.58,3.39c-1.41,1.82-.87,2.62,1.33,2.85v.64h-6.38v-.64c1.25-.23,1.93-.57,3.57-2.51l3.49-4.52-4.82-6.58c-.91-1.21-1.45-2-2.32-2.2v-.65h7.07v.65c-1.26.15-2,1.06-1.18,2.2l3.19,4.37,2.7-3.38c1.37-1.71.64-3-1.37-3.19v-.65h6.23v.65a6,6,0,0,0-3,2.32l-3.91,5.09,4.56,6.19C1152,386.94,1152.77,387.67,1153.65,387.86Z"/><path d="M1155.74,386.79a2.28,2.28,0,1,1,2.31,2.32A2.28,2.28,0,0,1,1155.74,386.79Z"/><path d="M255.72,413.5v.95c-2.12,0-2.66.57-2.66,2.28l-.19,21.77h-.6l-16.72-22.07.11,18.5c0,2.05.65,2.58,3.92,2.62v.95h-7.64v-.95c2.13,0,2.66-.57,2.66-2.28l.15-18.54c0-1.71-.49-2.24-2.74-2.28v-.95h5.67l14.51,19.57-.19-16c0-2.05-.65-2.58-3.91-2.62v-.95Z"/><path d="M273.05,433.83a7.34,7.34,0,0,1-7.07,5.28c-5.28,0-8.28-3.95-8.28-9.19s3.34-9.09,8.2-9.09c3.69,0,6.69,2,6.84,7.19H260.89v.22c0,4.72,2.32,8.32,6.53,8.32a5.39,5.39,0,0,0,5-3Zm-12.12-6.57,7.86-.31a3,3,0,0,0,.12-.83c0-1.71-.69-4.49-3.46-4.49S261.16,424,260.93,427.26Z"/><path d="M288.21,424.9c.6-1.71.26-2.62-1.79-2.85v-.65h5.51v.65c-1.18.15-1.67.68-2.32,2.32L284,438.5h-1.14l-6-14.25c-.76-1.78-1.21-2.05-2.32-2.2v-.65h7.07v.65a1.51,1.51,0,0,0-1.37,2.2L284.56,435Z"/><path d="M308.65,433.83a7.34,7.34,0,0,1-7.07,5.28c-5.28,0-8.28-3.95-8.28-9.19s3.34-9.09,8.2-9.09c3.69,0,6.69,2,6.84,7.19H296.49v.22c0,4.72,2.32,8.32,6.53,8.32a5.39,5.39,0,0,0,5-3Zm-12.12-6.57,7.86-.31a3,3,0,0,0,.12-.83c0-1.71-.69-4.49-3.46-4.49S296.75,424,296.53,427.26Z"/><path d="M317,437.48l3.61.11v.91h-9.5v-.91l2.66-.11v-12.2a9.11,9.11,0,0,0-2.16-2.51l0-.45,4.93-1.75.42.26v4.56c.23-.41.42-.79.61-1.06a6.41,6.41,0,0,1,6.12-3.53v3.72a20.35,20.35,0,0,0-3.54-.34c-2.2,0-3.19,1.63-3.19,4.37Z"/><path d="M333.57,412.82l0-.46,4.94-1.75.41.27v26.6l2.66.11v.91h-8.54v-.91l2.66-.11V415.33A9,9,0,0,0,333.57,412.82Z"/><path d="M359.06,433.83a7.34,7.34,0,0,1-7.06,5.28c-5.28,0-8.29-3.95-8.29-9.19s3.35-9.09,8.21-9.09c3.69,0,6.69,2,6.84,7.19H346.91v.22c0,4.72,2.31,8.32,6.53,8.32a5.4,5.4,0,0,0,5-3Zm-12.12-6.57,7.87-.31a3.38,3.38,0,0,0,.11-.83c0-1.71-.68-4.49-3.46-4.49S347.17,424,346.94,427.26Z"/><path d="M373.5,434.7c-1.14,2.13-2.77,4.41-5.74,4.41-2.5,0-3.57-1.71-3.57-4.71v-12h-3.27V422l3.27-1.82,3-4.1.53.07-.34,5.28H373v1h-5.55v11.48c0,1.82.57,2.89,2.13,2.89,1.18,0,2.36-.88,3.38-2.36Z"/><path d="M399.15,436.41a4.71,4.71,0,0,1-3.8,2.51c-1.64,0-2.55-1.06-2.93-3a5.94,5.94,0,0,1-5.17,3.15,3.81,3.81,0,0,1-4.14-4.07c0-2.46,1.64-4.14,4.94-5,1-.27,3-.61,4.6-.84l.07-1.74c.12-2.85-1.21-4.41-3.91-4.41a5.39,5.39,0,0,0-5,3.3l-.76-.19a7.4,7.4,0,0,1,7.11-5.35c3.84,0,5.89,2,5.74,6.15l-.27,7.11c0,1.9.3,2.62,1.56,2.62a2,2,0,0,0,1.56-.69Zm-6.69-2.89.15-3.45c-.83.11-1.78.3-2.73.49-2.28.49-3.54,1.79-3.54,3.57a2.48,2.48,0,0,0,2.55,2.78A3.71,3.71,0,0,0,392.46,433.52Z"/><path d="M420.16,437.59v.91h-8.55v-.91l2.66-.11v-9.77c0-2.89-.95-4.75-3.65-4.75a6.19,6.19,0,0,0-4.56,2.51v12l2.66.11v.91h-8.55v-.91l2.66-.11v-12.2a9.28,9.28,0,0,0-2.16-2.51l0-.45,4.94-1.75.42.26v3.5c1.56-1.9,3.76-3.53,6.38-3.53,3.54,0,5.06,2.28,5.06,5.73v11Z"/><path d="M438.05,421.4v.65c-1.18.27-1.52.68-2.28,2.51l-6.61,15.65c-.49,1-.68,1.41-1.18,2.32a6.13,6.13,0,0,1-5.55,3.57v-3.76c2.78,0,4.6,0,5.74-2.28l.8-1.75c-2.13-5.32-3.8-9.15-6-14.47a2.45,2.45,0,0,0-2.12-1.79v-.65h7.29v.65c-1.75.11-1.78,1.44-1.06,3.23l3.57,9,3.84-9.46c.6-1.48.26-2.5-1.83-2.77v-.65Z"/><path d="M457.92,429.27c0,5.77-3.42,9.84-8.93,9.84a31.84,31.84,0,0,1-7.33-1.29V415.17a9.13,9.13,0,0,0-2.17-2.5l0-.46,4.94-1.75.42.27v12.95A8.47,8.47,0,0,1,451,420.8C455.64,420.8,457.92,424.48,457.92,429.27Zm-3.12,1.33c0-3.8-1.89-7.68-6-7.68a5.27,5.27,0,0,0-3.95,1.64v9.31c0,3,1.63,4.44,4.14,4.44C453.09,438.31,454.8,434.93,454.8,430.6Z"/><path d="M460.2,429.92c0-5.44,3.34-9.09,8.43-9.09,5.93,0,8.89,3.39,8.89,9.2,0,5.43-3.34,9.08-8.43,9.08C463.35,439.11,460.2,435.5,460.2,429.92ZM474,431.7c0-6.31-1.71-10.11-5.47-10.18s-4.71,2.77-4.71,6.72c0,6.39,1.75,10.15,5.55,10.15S474,435.46,474,431.7Z"/><path d="M499.26,438l-5.89.72-.34-.57v-1.52a7.79,7.79,0,0,1-5.44,2.47c-4.9,0-7.44-3.91-7.44-8.59,0-5.62,3.42-9.72,8.77-9.72a9.52,9.52,0,0,1,4.11.91v-6.57a9,9,0,0,0-2.17-2.51l0-.46,4.94-1.75.41.27V435c0,2.16.54,2.31,2.89,2ZM493,435.39v-9.81a4.29,4.29,0,0,0-4.11-3.76c-4.14,0-5.58,3.42-5.58,6.88,0,4.29,2.2,7.79,6,7.79A5.74,5.74,0,0,0,493,435.39Z"/><path d="M517.38,421.4v.65c-1.18.27-1.52.68-2.28,2.51l-6.61,15.65c-.49,1-.69,1.41-1.18,2.32a6.13,6.13,0,0,1-5.55,3.57v-3.76c2.78,0,4.6,0,5.74-2.28l.8-1.75c-2.13-5.32-3.8-9.15-6-14.47a2.45,2.45,0,0,0-2.12-1.79v-.65h7.29v.65c-1.75.11-1.79,1.44-1.06,3.23l3.57,9,3.84-9.46c.6-1.48.26-2.5-1.83-2.77v-.65Z"/><path d="M538.31,422.13a5.44,5.44,0,0,1,2,4.52c0,3.57-2.51,5.7-6.88,5.7a8.7,8.7,0,0,1-1,0c-.69.49-1.94,1.48-1.94,2,0,.65,1,.73,3.11.92l4.52.41c3,.27,4.94,1.56,4.94,4.22,0,3.95-3.91,6.84-9.23,6.84-4.6,0-7.37-1.37-7.37-4.06,0-1.83,1.37-3.39,3.8-4.79l-1.14-.12c-1.29-.11-2.09-.76-2.09-1.59s.76-1.48,1.52-2.05c.49-.38,1.94-1.37,2.77-1.94a5.39,5.39,0,0,1-4.59-5.55c0-3.61,2.58-5.77,6.91-5.77a9.25,9.25,0,0,1,3.46.6h6v2.7Zm-7.25,15.76a5.24,5.24,0,0,0-1.87,3.77c0,2.66,2.06,4.14,5.29,4.14,3.07,0,5.58-1.48,5.58-4.37,0-2-1.25-2.85-3.38-3Zm5.81-10.22c0-3.45-1.06-5.92-3.57-6-2.36,0-3,1.82-3,3.8,0,3.53,1.1,5.89,3.53,5.89C536,431.4,536.87,430,536.87,427.67Z"/><path d="M564.53,438l-5.89.72-.34-.57V436c-2,1.94-3.84,3-6.35,3-3,0-4.94-2-4.94-5.62v-8.13a9.11,9.11,0,0,0-2.16-2.51l0-.46,4.94-1.74.41.26v10.64c0,3.5,1,5.32,3.73,5.32a7,7,0,0,0,4.33-1.67v-9.84a9.32,9.32,0,0,0-2.17-2.51l0-.46,4.94-1.74.42.26v14.29c0,2.13.53,2.28,2.89,2Z"/><path d="M581.55,433.83a7.34,7.34,0,0,1-7.07,5.28c-5.28,0-8.28-3.95-8.28-9.19s3.34-9.09,8.21-9.09c3.68,0,6.68,2,6.84,7.19H569.39v.22c0,4.72,2.32,8.32,6.54,8.32a5.39,5.39,0,0,0,5-3Zm-12.12-6.57,7.86-.31a3,3,0,0,0,.12-.83c0-1.71-.69-4.49-3.46-4.49S569.66,424,569.43,427.26Z"/><path d="M596.21,421.52l.31,4.63H596c-1.1-3.19-2.47-4.48-5.24-4.48-1.87,0-3.12,1-3.12,2.77,0,1.56.95,2.21,2.7,3.12l3.08,1.63c2.43,1.3,4.06,2.17,4.06,4.68,0,3.07-2.62,5.24-6.72,5.24a14.48,14.48,0,0,1-5.32-1.06l-.54-4.64.69-.11c1.21,3,2.54,4.86,5.55,4.86,1.78,0,3.42-.87,3.42-2.89,0-1.18-.65-1.94-1.94-2.58l-4.14-2c-1.75-.83-3.58-2.2-3.58-4.82,0-2.89,2.13-5.05,6.24-5.05A19.41,19.41,0,0,1,596.21,421.52Z"/><path d="M612.4,421.52l.3,4.63h-.57c-1.1-3.19-2.47-4.48-5.24-4.48-1.86,0-3.11,1-3.11,2.77,0,1.56.94,2.21,2.69,3.12l3.08,1.63c2.43,1.3,4.07,2.17,4.07,4.68,0,3.07-2.63,5.24-6.73,5.24a14.57,14.57,0,0,1-5.32-1.06l-.53-4.64.68-.11c1.22,3,2.55,4.86,5.55,4.86,1.79,0,3.42-.87,3.42-2.89,0-1.18-.65-1.94-1.94-2.58l-4.14-2c-1.75-.83-3.57-2.2-3.57-4.82,0-2.89,2.13-5.05,6.23-5.05A19.49,19.49,0,0,1,612.4,421.52Z"/><path d="M636,434.7c-1.14,2.13-2.78,4.41-5.74,4.41-2.51,0-3.57-1.71-3.57-4.71v-12h-3.27V422l3.27-1.82,3-4.1.53.07-.34,5.28h5.54v1h-5.54v11.48c0,1.82.57,2.89,2.12,2.89,1.18,0,2.36-.88,3.38-2.36Z"/><path d="M657.35,437.59v.91H648.8v-.91l2.66-.11v-9.77c0-2.89-1-4.75-3.65-4.75a5.8,5.8,0,0,0-4.52,2.43v12.09l2.66.11v.91H637.4v-.91l2.66-.11V415.33a8.87,8.87,0,0,0-2.17-2.51l0-.46,4.94-1.75.42.27v13.45c1.63-1.9,4-3.53,6.34-3.53,3.54,0,5.06,2.28,5.06,5.73v11Z"/><path d="M675.28,436.41a4.7,4.7,0,0,1-3.8,2.51c-1.63,0-2.55-1.06-2.93-3a5.94,5.94,0,0,1-5.16,3.15,3.81,3.81,0,0,1-4.14-4.07c0-2.46,1.63-4.14,4.93-5,1-.27,3-.61,4.6-.84l.08-1.74c.11-2.85-1.22-4.41-3.92-4.41-2.54,0-4,1.44-5,3.3l-.76-.19a7.4,7.4,0,0,1,7.1-5.35c3.84,0,5.89,2,5.74,6.15l-.27,7.11c0,1.9.31,2.62,1.56,2.62a2,2,0,0,0,1.56-.69Zm-6.69-2.89.15-3.45c-.83.11-1.78.3-2.73.49-2.28.49-3.54,1.79-3.54,3.57a2.49,2.49,0,0,0,2.55,2.78A3.71,3.71,0,0,0,668.59,433.52Z"/><path d="M688.23,434.7c-1.14,2.13-2.77,4.41-5.73,4.41-2.51,0-3.58-1.71-3.58-4.71v-12h-3.26V422l3.26-1.82,3-4.1.54.07-.35,5.28h5.55v1h-5.55v11.48c0,1.82.57,2.89,2.13,2.89,1.18,0,2.36-.88,3.38-2.36Z"/><path d="M713.84,421.4v.65c-1.18.27-1.52.68-2.28,2.51L705,440.21c-.49,1-.68,1.41-1.18,2.32a6.13,6.13,0,0,1-5.54,3.57v-3.76c2.77,0,4.59,0,5.73-2.28l.8-1.75c-2.13-5.32-3.8-9.15-6-14.47a2.47,2.47,0,0,0-2.13-1.79v-.65H704v.65c-1.75.11-1.78,1.44-1.06,3.23l3.57,9,3.84-9.46c.61-1.48.26-2.5-1.83-2.77v-.65Z"/><path d="M715.17,429.92c0-5.44,3.34-9.09,8.43-9.09,5.93,0,8.9,3.39,8.9,9.2,0,5.43-3.35,9.08-8.44,9.08C718.32,439.11,715.17,435.5,715.17,429.92Zm13.75,1.78c0-6.31-1.71-10.11-5.47-10.18s-4.71,2.77-4.71,6.72c0,6.39,1.75,10.15,5.55,10.15S728.92,435.46,728.92,431.7Z"/><path d="M754.8,438l-5.89.72-.34-.57V436c-2,1.94-3.84,3-6.35,3-3,0-4.94-2-4.94-5.62v-8.13a9.28,9.28,0,0,0-2.16-2.51l0-.46,4.94-1.74.42.26v10.64c0,3.5,1,5.32,3.73,5.32a7,7,0,0,0,4.33-1.67v-9.84a9.32,9.32,0,0,0-2.17-2.51l0-.46,4.94-1.74.42.26v14.29c0,2.13.53,2.28,2.88,2Z"/><path d="M783.9,437.59v.91h-8.55v-.91l2.66-.11v-9.77c0-2.89-1-4.75-3.65-4.75a5.82,5.82,0,0,0-4.52,2.43v12.09l2.66.11v.91H764v-.91l2.66-.11V415.33a8.83,8.83,0,0,0-2.16-2.51l0-.46,4.93-1.75.42.27v13.45c1.64-1.9,4-3.53,6.35-3.53,3.53,0,5,2.28,5,5.73v11Z"/><path d="M801.83,436.41a4.7,4.7,0,0,1-3.8,2.51c-1.63,0-2.54-1.06-2.92-3a6,6,0,0,1-5.17,3.15A3.81,3.81,0,0,1,785.8,435c0-2.46,1.63-4.14,4.94-5,1-.27,3-.61,4.6-.84l.07-1.74c.12-2.85-1.21-4.41-3.91-4.41-2.55,0-4,1.44-5,3.3l-.76-.19a7.4,7.4,0,0,1,7.11-5.35c3.83,0,5.89,2,5.73,6.15l-.26,7.11c0,1.9.3,2.62,1.56,2.62a2,2,0,0,0,1.55-.69Zm-6.68-2.89.15-3.45c-.84.11-1.79.3-2.74.49-2.28.49-3.53,1.79-3.53,3.57a2.48,2.48,0,0,0,2.55,2.78A3.72,3.72,0,0,0,795.15,433.52Z"/><path d="M815.51,424.9c.61-1.71.27-2.62-1.79-2.85v-.65h5.51v.65c-1.17.15-1.67.68-2.31,2.32l-5.59,14.13h-1.14l-6-14.25c-.76-1.78-1.22-2.05-2.32-2.2v-.65H809v.65a1.5,1.5,0,0,0-1.36,2.2L811.86,435Z"/><path d="M836,433.83a7.34,7.34,0,0,1-7.07,5.28c-5.28,0-8.28-3.95-8.28-9.19s3.34-9.09,8.21-9.09c3.68,0,6.68,2,6.84,7.19H823.79v.22c0,4.72,2.32,8.32,6.54,8.32a5.39,5.39,0,0,0,5-3Zm-12.12-6.57,7.87-.31a3.38,3.38,0,0,0,.11-.83c0-1.71-.69-4.49-3.46-4.49S824.06,424,823.83,427.26Z"/><path d="M862.66,436.41a4.7,4.7,0,0,1-3.8,2.51c-1.63,0-2.55-1.06-2.93-3a5.94,5.94,0,0,1-5.16,3.15,3.81,3.81,0,0,1-4.14-4.07c0-2.46,1.63-4.14,4.94-5,1-.27,3-.61,4.59-.84l.08-1.74c.11-2.85-1.22-4.41-3.91-4.41s-4,1.44-5,3.3l-.76-.19a7.4,7.4,0,0,1,7.1-5.35c3.84,0,5.89,2,5.74,6.15l-.27,7.11c0,1.9.31,2.62,1.56,2.62a2,2,0,0,0,1.56-.69ZM856,433.52l.15-3.45c-.83.11-1.78.3-2.73.49-2.28.49-3.53,1.79-3.53,3.57a2.48,2.48,0,0,0,2.54,2.78A3.71,3.71,0,0,0,856,433.52Z"/><path d="M902.74,437.59v.91h-8.55v-.91l2.66-.11v-9.77c0-3-1-4.75-3.76-4.75a5.28,5.28,0,0,0-4.56,2.81,4.65,4.65,0,0,1,0,.76v11l2.66.11v.91h-8.55v-.91l2.66-.11v-9.77c0-3-1-4.75-3.76-4.75a5.49,5.49,0,0,0-4.41,2.47v12.05l2.66.11v.91h-8.55v-.91l2.66-.11v-12.2a9.11,9.11,0,0,0-2.16-2.51l0-.45,4.93-1.75.42.26v3.5c1.64-1.9,4-3.53,6.35-3.53a4.61,4.61,0,0,1,4.86,3.91c1.63-2,4.14-3.91,6.65-3.91,3.53,0,5.05,2.58,5.05,5.73v11Z"/><path d="M904.07,437.59l2.66-.11v-12.2a9.28,9.28,0,0,0-2.16-2.51l0-.45,4.94-1.75.42.26v16.65l2.66.11v.91h-8.55Zm1.9-22.91a2.17,2.17,0,0,1,4.33,0,2.06,2.06,0,0,1-2.16,2.32A2.09,2.09,0,0,1,906,414.68Z"/><path d="M934.5,437.59v.91H926v-.91l2.66-.11v-9.77c0-2.89-1-4.75-3.65-4.75a6.19,6.19,0,0,0-4.56,2.51v12l2.66.11v.91h-8.55v-.91l2.66-.11v-12.2a9.15,9.15,0,0,0-2.17-2.51l0-.45,4.94-1.75.42.26v3.5c1.56-1.9,3.76-3.53,6.38-3.53,3.53,0,5.05,2.28,5.05,5.73v11Z"/><path d="M955.06,438l-5.89.72-.34-.57v-1.52a7.77,7.77,0,0,1-5.44,2.47c-4.9,0-7.44-3.91-7.44-8.59,0-5.62,3.42-9.72,8.77-9.72a9.52,9.52,0,0,1,4.11.91v-6.57a9,9,0,0,0-2.17-2.51l0-.46,4.94-1.75.42.27V435c0,2.16.53,2.31,2.88,2Zm-6.23-2.62v-9.81a4.29,4.29,0,0,0-4.11-3.76c-4.14,0-5.58,3.42-5.58,6.88,0,4.29,2.2,7.79,6,7.79A5.74,5.74,0,0,0,948.83,435.39Z"/><path d="M964.33,429.92c0-5.44,3.34-9.09,8.43-9.09,5.93,0,8.89,3.39,8.89,9.2,0,5.43-3.34,9.08-8.43,9.08C967.48,439.11,964.33,435.5,964.33,429.92Zm13.75,1.78c0-6.31-1.71-10.11-5.47-10.18s-4.71,2.77-4.71,6.72c0,6.39,1.75,10.15,5.55,10.15C977.09,438.39,978.08,435.46,978.08,431.7Z"/><path d="M998.71,413.46a1.27,1.27,0,0,1-1.37,1.22c-1.33,0-1.82-1-3.26-2.09a2.08,2.08,0,0,0-1.14-.46c-1.6,0-2.66,1.37-2.66,3.54a31.05,31.05,0,0,0,.83,5.73h4.68v1h-4.68v15.09l3.8.11v.91h-9.69v-.91l2.66-.11V422.35h-3.23v-1h3.23v-1.52c0-5,1.75-8.54,6.31-8.58h.08C996.09,411.3,998.71,411.87,998.71,413.46Z"/><path d="M1020.79,421.4v.65c-1.18.27-1.52.68-2.28,2.51l-6.61,15.65c-.5,1-.69,1.41-1.18,2.32a6.13,6.13,0,0,1-5.55,3.57v-3.76c2.77,0,4.6,0,5.74-2.28l.8-1.75c-2.13-5.32-3.8-9.15-6-14.47a2.45,2.45,0,0,0-2.13-1.79v-.65h7.3v.65c-1.75.11-1.79,1.44-1.07,3.23l3.58,9,3.83-9.46c.61-1.48.27-2.5-1.82-2.77v-.65Z"/><path d="M1022.12,429.92c0-5.44,3.34-9.09,8.43-9.09,5.93,0,8.89,3.39,8.89,9.2,0,5.43-3.34,9.08-8.43,9.08C1025.27,439.11,1022.12,435.5,1022.12,429.92Zm13.75,1.78c0-6.31-1.71-10.11-5.47-10.18s-4.71,2.77-4.71,6.72c0,6.39,1.74,10.15,5.54,10.15S1035.87,435.46,1035.87,431.7Z"/><path d="M1061.74,438l-5.89.72-.34-.57V436c-2,1.94-3.84,3-6.34,3-3,0-4.94-2-4.94-5.62v-8.13a9.32,9.32,0,0,0-2.17-2.51l0-.46,4.94-1.74.42.26v10.64c0,3.5,1,5.32,3.72,5.32a7,7,0,0,0,4.33-1.67v-9.84a9.28,9.28,0,0,0-2.16-2.51l0-.46,4.94-1.74.42.26v14.29c0,2.13.53,2.28,2.89,2Z"/><path d="M1069.19,437.48l3.61.11v.91h-9.5v-.91l2.66-.11v-12.2a9.15,9.15,0,0,0-2.17-2.51l0-.45,4.94-1.75.42.26v4.56c.23-.41.42-.79.61-1.06a6.4,6.4,0,0,1,6.11-3.53v3.72a20.14,20.14,0,0,0-3.53-.34c-2.2,0-3.19,1.63-3.19,4.37Z"/><path d="M1085.34,429.92c0-5.44,3.34-9.09,8.43-9.09,5.93,0,8.89,3.39,8.89,9.2,0,5.43-3.34,9.08-8.43,9.08C1088.49,439.11,1085.34,435.5,1085.34,429.92Zm13.75,1.78c0-6.31-1.71-10.11-5.47-10.18s-4.71,2.77-4.71,6.72c0,6.39,1.75,10.15,5.55,10.15C1098.1,438.39,1099.09,435.46,1099.09,431.7Z"/><path d="M1131.73,421.4v.65c-1.18.15-1.71.68-2.32,2.32l-5.21,14.13h-1.14l-4.67-11.89-4.86,11.89h-1.14l-5.66-14.25c-.73-1.78-1.11-2.05-2.21-2.2v-.65h6.92v.65c-1.18.15-1.79,1.1-1.22,2.55l4,10.18,3.65-9.46-.42-1.07c-.72-1.78-1.1-2.05-2.2-2.2v-.65h7v.65a1.5,1.5,0,0,0-1.37,2.2l3.84,10.64,3.49-10c.61-1.71.42-2.62-1.82-2.85v-.65Z"/><path d="M1153.34,437.59v.91h-8.55v-.91l2.67-.11v-9.77c0-2.89-1-4.75-3.65-4.75a6.19,6.19,0,0,0-4.56,2.51v12l2.66.11v.91h-8.55v-.91l2.66-.11v-12.2a9.32,9.32,0,0,0-2.17-2.51l0-.45,4.94-1.75.42.26v3.5c1.56-1.9,3.76-3.53,6.38-3.53,3.53,0,5,2.28,5,5.73v11Z"/><path d="M1155.17,436.79a2.28,2.28,0,1,1,2.32,2.32A2.29,2.29,0,0,1,1155.17,436.79Z"/><path d="M568.1,488.5l-4.18-.23-5.89.23v-.87c2.89,0,3.27-1.07,2.78-2.62l-2.36-6.2H549.6l-2.43,6.58-.08.22c-.42,1.41,1.37,2,3.46,2v.87l-4.3-.23-3.64.23v-.87a3.15,3.15,0,0,0,3.3-2.05l7-17.94c.49-1.71-.31-3.42-3.23-3.42v-.76h6.61l0,0,8.4,21.77c.79,1.71,1.33,2.36,3.49,2.36Zm-10-10.67L554,466.92l-4,10.91Z"/><path d="M587.33,479.27c0,5.77-3.42,9.84-8.93,9.84a31.92,31.92,0,0,1-7.34-1.29V465.17a8.93,8.93,0,0,0-2.16-2.5l0-.46,4.94-1.75.41.27v12.95a8.49,8.49,0,0,1,6.08-2.88C585.05,470.8,587.33,474.48,587.33,479.27Zm-3.12,1.33c0-3.8-1.9-7.68-6-7.68a5.29,5.29,0,0,0-4,1.64v9.31c0,3,1.64,4.44,4.14,4.44C582.5,488.31,584.21,484.93,584.21,480.6Z"/><path d="M589.6,479.92c0-5.44,3.35-9.09,8.44-9.09,5.93,0,8.89,3.39,8.89,9.2,0,5.43-3.34,9.08-8.44,9.08C592.76,489.11,589.6,485.5,589.6,479.92Zm13.76,1.78c0-6.31-1.71-10.11-5.47-10.18s-4.72,2.77-4.72,6.72c0,6.39,1.75,10.15,5.55,10.15C602.37,488.39,603.36,485.46,603.36,481.7Z"/><path d="M622.09,474.9c.61-1.71.27-2.62-1.79-2.85v-.65h5.51v.65c-1.18.15-1.67.68-2.31,2.32l-5.59,14.13h-1.14l-6-14.25c-.76-1.78-1.21-2.05-2.31-2.2v-.65h7.06v.65a1.5,1.5,0,0,0-1.36,2.2L618.44,485Z"/><path d="M642.53,483.83a7.34,7.34,0,0,1-7.07,5.28c-5.28,0-8.28-3.95-8.28-9.19s3.34-9.09,8.21-9.09c3.68,0,6.68,2,6.83,7.19H630.37v.22c0,4.72,2.32,8.32,6.54,8.32a5.39,5.39,0,0,0,5-3Zm-12.12-6.57,7.86-.31a3,3,0,0,0,.12-.83c0-1.71-.69-4.49-3.46-4.49S630.64,474,630.41,477.26Z"/><path d="M669.24,486.41a4.71,4.71,0,0,1-3.8,2.51c-1.64,0-2.55-1.06-2.93-3a5.94,5.94,0,0,1-5.16,3.15A3.82,3.82,0,0,1,653.2,485c0-2.46,1.64-4.14,4.94-5,1-.27,3-.61,4.6-.84l.08-1.74c.11-2.85-1.22-4.41-3.92-4.41a5.37,5.37,0,0,0-5,3.3l-.76-.19a7.39,7.39,0,0,1,7.1-5.35c3.84,0,5.89,2,5.74,6.15l-.27,7.11c0,1.9.31,2.62,1.56,2.62a2,2,0,0,0,1.56-.69Zm-6.69-2.89.15-3.45c-.83.11-1.78.3-2.73.49-2.28.49-3.54,1.79-3.54,3.57a2.49,2.49,0,0,0,2.55,2.78A3.71,3.71,0,0,0,662.55,483.52Z"/><path d="M670.76,462.82l0-.46,4.94-1.75.42.27v26.6l2.66.11v.91h-8.55v-.91l2.66-.11V465.33A8.83,8.83,0,0,0,670.76,462.82Z"/><path d="M681.28,462.82l0-.46,4.94-1.75.42.27v26.6l2.65.11v.91h-8.54v-.91l2.66-.11V465.33A9,9,0,0,0,681.28,462.82Z"/><path d="M690.86,494c2.16-1.48,3.57-3.64,3.57-4.78,0-.54-.54-.73-1.22-1.14a2.11,2.11,0,0,1-1.1-1.87,2,2,0,0,1,2-2.16c1.56,0,2.28,1.37,2.28,2.73,0,2.44-1.9,5.55-5.24,7.68Z"/><path d="M725.35,479.27c0,5.77-3.42,9.84-8.93,9.84a31.93,31.93,0,0,1-7.33-1.29V465.17a9.09,9.09,0,0,0-2.16-2.5l0-.46,4.94-1.75.42.27v12.95a8.49,8.49,0,0,1,6.08-2.88C723.07,470.8,725.35,474.48,725.35,479.27Zm-3.11,1.33c0-3.8-1.9-7.68-6-7.68a5.27,5.27,0,0,0-3.95,1.64v9.31c0,3,1.64,4.44,4.14,4.44C720.53,488.31,722.24,484.93,722.24,480.6Z"/><path d="M743,483.83a7.34,7.34,0,0,1-7.06,5.28c-5.29,0-8.29-3.95-8.29-9.19s3.35-9.09,8.21-9.09c3.68,0,6.69,2,6.84,7.19H730.82v.22c0,4.72,2.32,8.32,6.54,8.32a5.39,5.39,0,0,0,5-3Zm-12.12-6.57,7.87-.31a3.38,3.38,0,0,0,.11-.83c0-1.71-.68-4.49-3.46-4.49S731.09,474,730.86,477.26Z"/><path d="M771.82,479.46c0,5.74-3.19,9.65-8.48,9.65a13.51,13.51,0,0,1-4.4-.84v6.84l3.61,0v1h-9.5v-.91l2.66-.11v-19.8a9.32,9.32,0,0,0-2.17-2.51l0-.45,4.94-1.75.42.26v4.3c1.21-2.21,3.42-4.33,6.27-4.33C769.73,470.8,771.82,474.71,771.82,479.46Zm-3.35,1c0-3.61-1.36-7-5.24-7a4.64,4.64,0,0,0-4.29,3.15v7.64a4.6,4.6,0,0,0,4.4,4.22C767.07,488.39,768.47,484.55,768.47,480.41Z"/><path d="M794,488l-5.89.72-.34-.57V486c-2,1.94-3.84,3-6.35,3-3,0-4.94-2-4.94-5.62v-8.13a9.11,9.11,0,0,0-2.16-2.51l0-.46,4.93-1.74.42.26v10.64c0,3.5,1,5.32,3.73,5.32a7,7,0,0,0,4.33-1.67v-9.84a9.32,9.32,0,0,0-2.17-2.51l0-.46,4.94-1.74.42.26v14.29c0,2.13.53,2.28,2.88,2Z"/><path d="M801.41,487.48l3.61.11v.91h-9.5v-.91l2.66-.11v-12.2a9.11,9.11,0,0,0-2.16-2.51l0-.45,4.94-1.75.41.26v4.56c.23-.41.42-.79.61-1.06a6.42,6.42,0,0,1,6.12-3.53v3.72a20.33,20.33,0,0,0-3.53-.34c-2.21,0-3.2,1.63-3.2,4.37Z"/><path d="M825.31,483.83a7.34,7.34,0,0,1-7.06,5.28c-5.29,0-8.29-3.95-8.29-9.19s3.35-9.09,8.21-9.09c3.69,0,6.69,2,6.84,7.19H813.15v.22c0,4.72,2.32,8.32,6.54,8.32a5.4,5.4,0,0,0,5-3Zm-12.12-6.57,7.87-.31a3.38,3.38,0,0,0,.11-.83c0-1.71-.68-4.49-3.46-4.49S813.42,474,813.19,477.26Z"/><path d="M828.31,486.79a2.29,2.29,0,0,1,2.32-2.24,2.28,2.28,0,0,1,0,4.56A2.31,2.31,0,0,1,828.31,486.79Z"/><path d="M838.34,471.86c-.34-1.71-.68-3.38-1-4.86a15.44,15.44,0,0,1-.57-3.08,2,2,0,0,1,2.09-2,1.89,1.89,0,0,1,2,2,14.44,14.44,0,0,1-.68,3.08c-.42,1.52-.8,3.15-1.22,4.86Zm5.78,0c-.34-1.71-.68-3.38-1-4.86a16.2,16.2,0,0,1-.57-3.08,2,2,0,0,1,2.09-2,1.9,1.9,0,0,1,2,2,14,14,0,0,1-.69,3.08c-.41,1.52-.8,3.15-1.21,4.86Z"/><path class="cls-2" d="M643.75,712.38h5.5v1h-6.74V713a3.75,3.75,0,0,1,2.18-3.47l2-1.15A2.25,2.25,0,0,0,648,706.3a1.83,1.83,0,0,0-2-1.94,2.14,2.14,0,0,0-2.23,2.3h-1.2a3.21,3.21,0,0,1,3.43-3.34,2.92,2.92,0,0,1,3.21,3c0,1.08-.33,2-1.92,2.93l-2.27,1.34A2.48,2.48,0,0,0,643.75,712.38Z"/><path class="cls-2" d="M654.28,703.5v9.9H653v-7.8a3.18,3.18,0,0,1-2.27.63v-1c1.7-.05,2.21-.68,2.45-1.7Z"/><path class="cls-2" d="M663.66,710.24a3.23,3.23,0,0,1-3.45,3.34c-2.05,0-3.5-1.23-3.5-3H658a2.06,2.06,0,0,0,2.28,2,2.16,2.16,0,0,0,2.2-2.33,2.07,2.07,0,0,0-2.22-2.26,2,2,0,0,0-1.83,1H657l.37-5.42h5.84v1h-4.83l-.22,3.34a2.93,2.93,0,0,1,2.32-1A3.14,3.14,0,0,1,663.66,710.24Z"/><path class="cls-2" d="M677.27,706.25c0,1.64-1.12,2.82-3.38,2.82h-2.74v4.33h-1.24v-9.9H674C676.25,703.5,677.27,704.55,677.27,706.25Zm-1.24,0c0-1.1-.68-1.72-2.24-1.72h-2.64V708h2.64C675.35,708,676,707.32,676,706.25Z"/><path class="cls-2" d="M686.2,704.52h-3.29v8.88h-1.22v-8.88h-3.3v-1h7.81Z"/><path class="cls-2" d="M687.45,710.46h1.29c.19,1.4,1.23,2.08,2.83,2.08s2.48-.74,2.48-1.71-.58-1.38-1.73-1.64l-2.31-.51a2.49,2.49,0,0,1-2.24-2.51c0-1.61,1.35-2.85,3.54-2.85s3.66.92,3.88,2.95h-1.3c-.18-1.31-1.15-1.91-2.61-1.91s-2.21.73-2.21,1.66c0,.72.36,1.21,1.5,1.47l2.23.51c1.6.37,2.55,1.25,2.55,2.66,0,1.74-1.35,2.92-3.78,2.92C689,713.58,687.65,712.45,687.45,710.46Z"/></g></svg>