<?xml version="1.0" encoding="UTF-8"?><svg id="Layer_1" xmlns="http://www.w3.org/2000/svg" xmlns:xlink="http://www.w3.org/1999/xlink" viewBox="0 0 1366 768"><defs><style>.cls-1{clip-path:url(#clippath);}.cls-2{fill:#e6e6e6;}.cls-3{fill:#12100b;}</style><clipPath id="clippath"><rect class="cls-2" width="1366" height="768"/></clipPath></defs><g><rect class="cls-2" width="1366" height="768"/><g class="cls-1"><rect class="cls-2" x="9.51" y="6.58" width="1346.99" height="760.1"/></g></g><g><path class="cls-3" d="M327.19,134.92H153.55l.36-10.08,173.82-.34-.54,10.42Z"/><path class="cls-3" d="M353.73,163.31c4.17,0,7.98-3.86,13.06-10.58l2.54,.84c-4.9,8.9-14.33,21-25.76,21-5.62,0-8.71-3.36-8.71-8.4,0-3.02,1.27-6.72,3.63-10.75l15.6-26.04c3.63-6.05,4.9-9.24,4.9-11.09,0-1.68-.91-2.35-2.54-2.35-4.17,0-11.98,11.09-15.24,14.45l-2.36-1.51c13.43-16.46,20.32-24.19,29.58-24.19,3.63,0,6.17,2.35,6.17,5.88,0,4.2-2.54,9.91-5.99,15.79l-14.15,23.86c-2.18,3.53-3.81,7.06-3.81,9.58,0,2.02,.91,3.53,3.08,3.53Zm35.74-97.44c3.81,0,5.26,2.35,5.26,5.04,0,6.05-6.53,13.1-12.88,13.1-3.81,0-5.62-2.35-5.62-5.38,0-5.71,5.62-12.77,13.25-12.77Z"/><path class="cls-3" d="M433.73,163.31c3.99,0,9.43-5.21,15.06-14.62l2.18,1.51c-5.08,9.24-14.88,24.36-25.95,24.36-5.44,0-9.25-3.19-9.25-8.74,0-12.6,24.13-34.27,24.13-44.52,0-3.02-1.81-4.7-5.44-4.7-13.61,0-31.75,27.89-38.47,40.15-1.81,3.19-5.44,9.74-7.98,16.8h-15.6c7.98-13.61,19.78-32.76,26.67-44.52,3.45-5.88,4.72-8.9,4.72-10.58,0-1.51-.73-2.52-2.54-2.52-3.45,0-9.07,7.06-15.24,14.45l-2.18-1.68c9.62-11.42,18.51-24.02,29.21-24.02,4.35,0,6.35,2.86,6.35,5.88,0,6.22-7.98,17.64-15.24,27.72h1.27c13.25-18.14,24.86-33.6,38.28-33.6,7.26,0,11.43,3.53,11.43,9.58,0,16.13-24.5,34.27-24.5,45.53,0,2.35,1.09,3.53,3.08,3.53Z"/><path class="cls-3" d="M474.6,163.31c6.35,0,12.52-5.21,17.42-12.43l2.54,.84c-5.08,9.07-14.88,22.85-30.12,22.85-5.81,0-9.44-2.35-9.44-7.9,0-3.53,2.18-7.9,3.63-10.42l25.04-43.68h-12.16c-.36-2.35,.91-4.54,4.17-5.88l15.97-.84,6.35-20.33c5.44-1.85,11.79-1.68,14.15,0l-11.43,19.99h19.78c0,2.86-1.63,5.21-5.26,6.89l-18.14,.34-23.22,40.32c-1.27,2.35-3.27,5.54-3.27,7.56,0,1.51,1.27,2.69,3.99,2.69Z"/><path class="cls-3" d="M517.78,141.47c-1.09,3.36-1.27,6.55-1.27,8.74,0,8.9,3.81,14.28,12.34,14.28,7.98,0,15.42-5.54,21.23-13.61l2.54,.84c-8.35,15.46-19.78,22.68-31.57,22.68-12.7,0-18.87-8.4-18.87-19.32,0-21,23.04-50.4,48.45-50.4,7.26,0,15.42,2.69,15.42,10.42,0,14.62-19.6,23.02-48.26,26.38Zm1.45-4.37c25.4-2.52,33.75-12.26,33.75-19.49,0-3.7-2.54-5.54-7.26-5.54-10.89,0-22.14,12.1-26.49,25.03Z"/><path class="cls-3" d="M590.4,138.45c13.79-19.66,23.95-33.77,37.38-33.77,4.35,0,6.17,2.18,6.17,4.87,0,3.19-2.36,7.22-5.81,9.74-21.41,0-39.92,23.02-49.72,42.5-1.45,3.02-3.99,8.06-5.26,11.76h-15.6c8.71-14.62,21.05-34.94,27.76-46.37,2.54-4.37,3.63-7.22,3.63-8.74,0-1.34-.91-2.52-2.54-2.52-3.27,0-8.16,5.88-15.24,14.45l-2.18-1.68c10.71-12.94,19.05-24.02,29.03-24.02,3.08,0,6.53,1.34,6.53,6.22,0,5.38-8.35,17.3-15.42,27.55h1.27Z"/><path class="cls-3" d="M676.92,163.31c3.99,0,9.43-5.21,15.06-14.62l2.18,1.51c-5.08,9.24-14.88,24.36-25.95,24.36-5.44,0-9.25-3.19-9.25-8.74,0-12.6,24.13-34.27,24.13-44.52,0-3.02-1.81-4.7-5.44-4.7-13.61,0-31.75,27.89-38.47,40.15-1.81,3.19-5.44,9.74-7.98,16.8h-15.6c7.98-13.61,19.78-32.76,26.67-44.52,3.45-5.88,4.72-8.9,4.72-10.58,0-1.51-.73-2.52-2.54-2.52-3.45,0-9.07,7.06-15.24,14.45l-2.18-1.68c9.62-11.42,18.51-24.02,29.21-24.02,4.35,0,6.35,2.86,6.35,5.88,0,6.22-7.98,17.64-15.24,27.72h1.27c13.25-18.14,24.86-33.6,38.28-33.6,7.26,0,11.43,3.53,11.43,9.58,0,16.13-24.5,34.27-24.5,45.53,0,2.35,1.09,3.53,3.08,3.53Z"/><path class="cls-3" d="M747.52,163.31c3.45,0,8.53-5.71,13.25-12.43l2.54,.84c-6.9,12.26-17.06,22.85-26.67,22.85-4.72,0-7.44-2.52-7.44-6.72s2.36-8.23,5.81-13.27l9.25-13.61h-1.27c-7.44,10.25-23.95,33.26-37.74,33.26-6.53,0-9.98-3.86-9.98-9.74,0-23.18,32.66-59.81,57.7-59.81,6.71,0,12.88,1.68,16.15,3.53,3.27-1.85,6.35-3.53,8.35-3.53,1.27,0,2.9,1.18,2.36,2.52-11.98,13.1-34.84,45.02-34.84,53.76,0,1.51,.91,2.35,2.54,2.35Zm-.18-51.91c-16.69,0-37.56,31.75-37.56,46.37,0,3.53,2,4.87,4.54,4.87s6.35-2.02,9.98-5.38c10.34-9.58,25.58-28.06,35.38-42.34-2.9-2.18-7.62-3.53-12.34-3.53Z"/><path class="cls-3" d="M787.76,163.31c6.35,0,12.52-5.21,17.42-12.43l2.54,.84c-5.08,9.07-14.88,22.85-30.12,22.85-5.81,0-9.44-2.35-9.44-7.9,0-3.53,2.18-7.9,3.63-10.42l25.04-43.68h-12.16c-.36-2.35,.91-4.54,4.17-5.88l15.97-.84,6.35-20.33c5.44-1.85,11.79-1.68,14.15,0l-11.43,19.99h19.78c0,2.86-1.63,5.21-5.26,6.89l-18.14,.34-23.22,40.32c-1.27,2.35-3.27,5.54-3.27,7.56,0,1.51,1.27,2.69,3.99,2.69Z"/><path class="cls-3" d="M838.34,163.31c4.17,0,7.98-3.86,13.06-10.58l2.54,.84c-4.9,8.9-14.33,21-25.76,21-5.62,0-8.71-3.36-8.71-8.4,0-3.02,1.27-6.72,3.63-10.75l15.6-26.04c3.63-6.05,4.9-9.24,4.9-11.09,0-1.68-.91-2.35-2.54-2.35-4.17,0-11.98,11.09-15.24,14.45l-2.36-1.51c13.43-16.46,20.32-24.19,29.58-24.19,3.63,0,6.17,2.35,6.17,5.88,0,4.2-2.54,9.91-5.99,15.79l-14.15,23.86c-2.18,3.53-3.81,7.06-3.81,9.58,0,2.02,.91,3.53,3.08,3.53Zm35.74-97.44c3.81,0,5.26,2.35,5.26,5.04,0,6.05-6.53,13.1-12.88,13.1-3.81,0-5.62-2.35-5.62-5.38,0-5.71,5.62-12.77,13.25-12.77Z"/><path class="cls-3" d="M910.43,107.37c17.06,0,24.13,8.9,24.13,22.01,0,17.47-17.78,44.69-46.99,44.69-17.42,0-27.04-6.05-27.04-21.34,0-18.31,19.78-45.36,49.9-45.36Zm-3.45,7.39c-19.78,0-32.12,25.03-32.12,37.97,0,10.08,6.35,13.61,14.15,13.61,19.6,0,31.03-23.52,31.03-38.14,0-9.58-5.26-13.44-13.06-13.44Z"/><path class="cls-3" d="M993.06,163.31c3.99,0,9.43-5.21,15.06-14.62l2.18,1.51c-5.08,9.24-14.88,24.36-25.95,24.36-5.44,0-9.25-3.19-9.25-8.74,0-12.6,24.13-34.27,24.13-44.52,0-3.02-1.81-4.7-5.44-4.7-13.61,0-31.75,27.89-38.47,40.15-1.81,3.19-5.44,9.74-7.98,16.8h-15.6c7.98-13.61,19.78-32.76,26.67-44.52,3.45-5.88,4.72-8.9,4.72-10.58,0-1.51-.73-2.52-2.54-2.52-3.45,0-9.07,7.06-15.24,14.45l-2.18-1.68c9.62-11.42,18.51-24.02,29.21-24.02,4.35,0,6.35,2.86,6.35,5.88,0,6.22-7.98,17.64-15.24,27.72h1.27c13.25-18.14,24.86-33.6,38.28-33.6,7.26,0,11.43,3.53,11.43,9.58,0,16.13-24.5,34.27-24.5,45.53,0,2.35,1.09,3.53,3.08,3.53Z"/><path class="cls-3" d="M1063.65,163.31c3.45,0,8.53-5.71,13.25-12.43l2.54,.84c-6.9,12.26-17.06,22.85-26.67,22.85-4.72,0-7.44-2.52-7.44-6.72s2.36-8.23,5.81-13.27l9.25-13.61h-1.27c-7.44,10.25-23.95,33.26-37.74,33.26-6.53,0-9.98-3.86-9.98-9.74,0-23.18,32.66-59.81,57.7-59.81,6.71,0,12.88,1.68,16.15,3.53,3.27-1.85,6.35-3.53,8.35-3.53,1.27,0,2.9,1.18,2.36,2.52-11.98,13.1-34.84,45.02-34.84,53.76,0,1.51,.91,2.35,2.54,2.35Zm-.18-51.91c-16.69,0-37.56,31.75-37.56,46.37,0,3.53,2,4.87,4.54,4.87s6.35-2.02,9.98-5.38c10.34-9.58,25.58-28.06,35.38-42.34-2.9-2.18-7.62-3.53-12.34-3.53Z"/><path class="cls-3" d="M1131.05,78.81c1.63-2.86,4.17-7.39,4.17-9.41,0-2.18-.36-3.53-6.89-7.22l.73-2.02,27.4-6.89,1.81,1.18-53.89,93.74c-3.81,6.55-5.81,9.74-5.81,11.93,0,2.02,1.63,3.19,4.17,3.19,6.17,0,12.34-5.54,17.06-12.43l2.54,.84c-7.44,13.1-16.87,22.85-29.94,22.85-6.35,0-9.62-2.86-9.62-7.56s2.54-9.07,6.17-15.29l42.09-72.91Z"/><path class="cls-3" d="M1143.05,141.47c-1.09,3.36-1.27,6.55-1.27,8.74,0,8.9,3.81,14.28,12.34,14.28,7.98,0,15.42-5.54,21.23-13.61l2.54,.84c-8.35,15.46-19.78,22.68-31.57,22.68-12.7,0-18.87-8.4-18.87-19.32,0-21,23.04-50.4,48.45-50.4,7.26,0,15.42,2.69,15.42,10.42,0,14.62-19.6,23.02-48.26,26.38Zm1.45-4.37c25.4-2.52,33.75-12.26,33.75-19.49,0-3.7-2.54-5.54-7.26-5.54-10.89,0-22.14,12.1-26.49,25.03Z"/></g><g><path class="cls-3" d="M327.63,301.84l-5.33,20.87c-8.29,4-18.2,6.66-28.86,6.66-33.59,0-50.76-21.01-50.76-48.84s17.02-50.91,51.8-50.91c10.06,0,21.02,1.78,29.15,4.59l.59,24.86-5.62,.15c-4.29-15.54-14.5-22.64-29.75-22.64-20.72,0-32.56,17.61-32.56,41.88s11.84,43.21,36.26,43.21c11.84,0,22.79-5.33,29.6-21.31l5.48,1.48Z"/><path class="cls-3" d="M333.85,298.59c0-19.68,13.62-33.15,30.78-33.15s28.71,11.99,28.71,29.75c0,20.28-13.76,34.19-30.63,34.19s-28.86-12.28-28.86-30.78Zm30.49-26.79c-11.69,0-18.2,11.99-18.2,26.2,0,12.88,5.48,24.27,17.17,24.27s17.02-13.17,17.02-26.93c0-13.02-5.33-23.53-15.98-23.53Z"/><path class="cls-3" d="M422.35,224.29c-.3,1.63-.89,8.14-.89,14.06v83.62l11.99,.89v5.03c-5.77-.15-9.62-.3-13.62-.3-7.25,0-13.32,.3-19.39,.3v-4.74l3.4-.89c5.92-1.48,5.62-6.96,5.62-18.35v-67.49l-9.03-5.03v-4.14c3.55-2.07,15.1-5.18,19.68-5.18l2.22,2.22Z"/><path class="cls-3" d="M439.37,298.59c0-19.68,13.62-33.15,30.78-33.15s28.71,11.99,28.71,29.75c0,20.28-13.76,34.19-30.64,34.19s-28.86-12.28-28.86-30.78Zm30.49-26.79c-11.69,0-18.2,11.99-18.2,26.2,0,12.88,5.48,24.27,17.17,24.27s17.02-13.17,17.02-26.93c0-13.02-5.33-23.53-15.98-23.53Z"/><path class="cls-3" d="M529.95,277.57c5.33-6.07,11.25-12.14,19.68-12.14,.59,1.48,.89,4.29,.89,7.1,0,2.52-.59,6.07-1.78,8.44-2.37-1.63-4.88-2.37-7.99-2.37-4.14,0-8.29,1.48-11.1,2.96-.3,14.21-.44,27.23,0,40.4l12.58,1.04v5.03c-4.14-.15-13.02-.44-17.17-.44-7.4,0-10.06,.15-17.32,.3v-4.74l4-1.04c5.33-1.33,5.77-6.07,5.77-15.69s.15-19.39-.15-27.38l-9.62-4.14v-4.29c3.7-2.37,18.06-5.18,22.64-5.18l1.63,1.78-2.07,10.36Z"/><path class="cls-3" d="M603.5,329.37c-9.18,0-15.84-6.21-15.84-15.09,0-8.29,4.29-13.91,16.58-16.58,4.14-.89,9.47-1.78,16.43-2.81v-11.4c0-7.25-5.48-10.06-11.25-10.06-3.85,0-5.77,.59-7.84,1.33l-3.85,13.17h-3.85c-2.22-4.29-3.26-7.84-3.4-12.73,6.81-4.14,14.06-9.77,23.83-9.77s18.2,7.99,18.2,17.46c0,6.51-.3,19.68-.3,26.05,0,6.96,.89,10.51,7.1,10.51,.89,0,1.92-.15,3.11-.3l.44,4.88-19.68,3.85-2.52-8.73c-3.11,6.07-9.18,10.21-17.17,10.21Zm17.02-29.75c-4.29,.74-7.99,1.63-11.99,2.66-5.33,1.33-9.03,4.88-9.03,9.62,0,5.62,3.4,8.73,9.03,8.73,4.44,0,10.06-2.52,11.84-6.51l.15-14.5Z"/><path class="cls-3" d="M668.48,321.97l9.77,.89v5.03c-4.59,0-7.55-.3-12.14-.3-6.36,0-12.88,.3-19.24,.3v-4.74l3.7-.89c6.07-1.48,5.92-7.99,5.92-19.83,0,0-.15-10.95-.15-23.38l-9.47-4.14v-3.26c3.7-2.37,15.54-6.22,20.13-6.22l1.63,1.78,.15,7.99c4.59-4.14,12.28-9.77,21.16-9.77,13.91,0,18.94,7.55,18.94,20.42v36.11l9.47,.89v5.03c-4.59,0-7.25-.3-11.84-.3-6.36,0-12.88,.3-19.24,.3v-4.74l3.7-.89c6.07-1.48,6.07-7.99,6.07-19.83v-10.95c0-11.1-2.81-17.02-13.17-17.02-5.62,0-10.66,2.07-15.39,4.88v42.62Z"/><path class="cls-3" d="M759.05,231.55v-4.29c3.55-2.07,14.95-5.18,19.54-5.18l2.22,2.22c-.3,19.39-.59,47.06-.59,84.65,0,6.96,1.33,10.51,8.58,10.51,1.04,0,2.22-.15,3.55-.3l.44,4.88-21.61,3.85-2.66-8.88c-3.85,6.66-11.84,10.36-18.5,10.36-17.17,0-26.34-13.91-26.34-32.41,0-17.02,11.84-31.52,30.63-31.52,6.07,0,9.47,.59,14.06,1.78,.3-13.02,.44-18.06,.3-30.49l-9.62-5.18Zm9.47,49.73c-2.81-5.18-8.73-9.62-15.84-9.62-11.69,0-17.17,9.92-17.17,23.38s7.4,24.27,20.13,24.27c4.44,0,9.77-1.78,12.58-4.59l.3-33.45Z"/><path class="cls-3" d="M918.59,301.84l-5.33,20.87c-8.29,4-18.2,6.66-28.86,6.66-33.59,0-50.76-21.01-50.76-48.84s17.02-50.91,51.8-50.91c10.06,0,21.02,1.78,29.15,4.59l.59,24.86-5.62,.15c-4.29-15.54-14.5-22.64-29.75-22.64-20.72,0-32.56,17.61-32.56,41.88s11.84,43.21,36.26,43.21c11.84,0,22.79-5.33,29.6-21.31l5.48,1.48Z"/><path class="cls-3" d="M944.94,224.29c-.3,1.63-.89,8.14-.89,14.06v83.62l11.99,.89v5.03c-5.77-.15-9.62-.3-13.62-.3-7.25,0-13.32,.3-19.39,.3v-4.74l3.4-.89c5.92-1.48,5.62-6.96,5.62-18.35v-67.49l-9.03-5.03v-4.14c3.55-2.07,15.1-5.18,19.68-5.18l2.22,2.22Z"/><path class="cls-3" d="M977.06,329.37c-9.18,0-15.84-6.21-15.84-15.09,0-8.29,4.29-13.91,16.58-16.58,4.14-.89,9.47-1.78,16.43-2.81v-11.4c0-7.25-5.48-10.06-11.25-10.06-3.85,0-5.77,.59-7.84,1.33l-3.85,13.17h-3.85c-2.22-4.29-3.26-7.84-3.4-12.73,6.81-4.14,14.06-9.77,23.83-9.77s18.2,7.99,18.2,17.46c0,6.51-.3,19.68-.3,26.05,0,6.96,.89,10.51,7.1,10.51,.89,0,1.92-.15,3.11-.3l.44,4.88-19.68,3.85-2.52-8.73c-3.11,6.07-9.18,10.21-17.17,10.21Zm17.02-29.75c-4.29,.74-7.99,1.63-11.99,2.66-5.33,1.33-9.03,4.88-9.03,9.62,0,5.62,3.4,8.73,9.03,8.73,4.44,0,10.06-2.52,11.84-6.51l.15-14.5Z"/><path class="cls-3" d="M1055.5,284.53c-1.04-8.44-6.22-13.02-12.88-13.02-5.92,0-10.36,3.26-10.36,9.03,0,4.74,3.85,7.25,8.73,9.77l10.21,5.18c6.36,3.26,10.95,8.14,10.95,15.54,0,10.06-8.88,18.35-19.98,18.35-6.81,0-13.32-1.18-19.24-3.85-.74-4.88-1.18-12.73-.89-17.91h4c2.07,9.62,7.55,15.84,15.69,15.84,5.62,0,9.47-3.55,9.47-8.58s-3.11-7.1-7.99-9.62l-10.21-5.33c-6.81-3.55-10.51-8.29-10.51-15.1,0-12.43,10.21-19.39,21.61-19.39,6.96,0,13.02,1.33,17.32,3.55,.15,4.29-.74,11.1-1.92,15.54h-4Z"/><path class="cls-3" d="M1106.11,284.53c-1.04-8.44-6.22-13.02-12.88-13.02-5.92,0-10.36,3.26-10.36,9.03,0,4.74,3.85,7.25,8.73,9.77l10.21,5.18c6.36,3.26,10.95,8.14,10.95,15.54,0,10.06-8.88,18.35-19.98,18.35-6.81,0-13.32-1.18-19.24-3.85-.74-4.88-1.18-12.73-.89-17.91h4c2.07,9.62,7.55,15.84,15.69,15.84,5.62,0,9.47-3.55,9.47-8.58s-3.11-7.1-7.99-9.62l-10.21-5.33c-6.81-3.55-10.51-8.29-10.51-15.1,0-12.43,10.21-19.39,21.61-19.39,6.96,0,13.02,1.33,17.32,3.55,.15,4.29-.74,11.1-1.92,15.54h-4Z"/></g><g><path class="cls-3" d="M266.97,352.73c-56.97,26.71-85.82,66.86-85.82,109.37,0,22.01,7.62,41.33,22.14,58.13l-3.45,2.86c-15.24-16.13-23.77-39.65-23.77-60.65,0-43.68,29.39-86.35,89.09-113.06l1.81,3.36Z"/><path class="cls-3" d="M205.91,511.83l45.72-77.45c.91-1.85,1.27-3.36,1.27-4.54,0-1.34-.91-2.18-2.36-2.18-4.54,0-11.61,10.08-15.42,14.45l-2.18-1.68c9.25-11.09,18.51-24.02,29.21-24.02,4.72,0,6.35,3.19,6.35,5.88,0,4.03-4.9,12.43-15.24,27.72h1.27c13.97-18.98,24.49-33.6,39.19-33.6,7.26,0,12.16,3.86,12.16,13.27,0,16.3-19.41,56.45-56.25,56.45-7.08,0-11.25-1.34-14.7-2.52l-14.33,28.22,17.96,1.01-1.09,4.87h-44.09v-4.54l12.52-1.34Zm47.17-30.91c22.14,0,37.38-31.92,37.38-45.53,0-4.87-1.81-6.89-5.62-6.89-10.89,0-30.3,21.84-43.18,45.02,1.81,4.7,5.44,7.39,11.43,7.39Z"/><path class="cls-3" d="M354.85,419.09c17.06,0,24.13,8.9,24.13,22.01,0,17.47-17.78,44.69-46.99,44.69-17.42,0-27.04-6.05-27.04-21.34,0-18.31,19.78-45.36,49.9-45.36Zm-3.45,7.39c-19.78,0-32.12,25.03-32.12,37.97,0,10.08,6.35,13.61,14.15,13.61,19.6,0,31.03-23.52,31.03-38.14,0-9.58-5.26-13.44-13.06-13.44Z"/><path class="cls-3" d="M417.28,422.62c-5.99,0-9.98,3.7-9.98,9.24,0,3.86,2,7.39,4.54,10.75l6.17,7.9c2.9,3.86,5.26,8.06,5.26,13.27,0,11.09-14.15,22.51-30.85,22.51-9.8,0-18.14-2.52-18.14-9.41,0-4.03,3.45-7.22,7.8-9.24,3.27,7.22,10.34,10.92,17.24,10.92,5.81,0,10.71-3.36,10.71-9.24,0-4.03-2-7.73-4.72-11.09l-8.16-10.25c-2-2.86-3.45-5.88-3.45-9.41,0-13.78,15.06-22.18,30.85-22.18,9.07,0,14.52,2.86,14.52,8.4,0,6.22-5.44,10.42-13.43,10.42,2.36-6.55,.54-12.6-8.35-12.6Z"/><path class="cls-3" d="M451.46,475.04c6.35,0,12.52-5.21,17.42-12.43l2.54,.84c-5.08,9.07-14.88,22.85-30.12,22.85-5.81,0-9.44-2.35-9.44-7.9,0-3.53,2.18-7.9,3.63-10.42l25.04-43.68h-12.16c-.36-2.35,.91-4.54,4.17-5.88l15.97-.84,6.35-20.33c5.44-1.85,11.79-1.68,14.15,0l-11.43,19.99h19.78c0,2.86-1.63,5.21-5.26,6.89l-18.14,.34-23.22,40.32c-1.27,2.35-3.27,5.54-3.27,7.56,0,1.51,1.27,2.69,3.99,2.69Z"/><path class="cls-3" d="M645.17,502.09h-173.64l.36-10.08h173.82l-.54,10.08Z"/><path class="cls-3" d="M749.57,475.04c5.62,0,11.79-9.41,15.06-14.62l2.18,1.51c-5.08,9.41-14.7,24.36-26.31,24.36-5.26,0-8.89-3.53-8.89-8.4,0-13.44,24.13-33.94,24.13-45.02,0-2.86-2.18-4.54-5.44-4.54-12.16,0-31.75,28.22-38.47,40.15-2.9,5.04-6.53,12.26-7.98,16.8h-15.6l21.59-35.78c5.26-8.74,7.44-13.1,7.44-16.97,0-2.02-1.45-4.2-5.08-4.2-14.52,0-31.93,28.06-38.83,40.15-2.9,5.04-6.71,12.6-7.8,16.8h-15.79c13.06-22.01,31.39-50.57,31.39-55.1,0-1.34-.54-2.52-2.54-2.52-3.45,0-9.98,8.06-15.24,14.45l-2.18-1.68c11.98-14.78,19.6-24.02,29.21-24.02,3.99,0,6.35,2.52,6.35,5.71,0,7.56-10.16,20.83-15.42,28.06h1.27c10.16-13.94,23.95-33.77,38.83-33.77,6.53,0,11.07,3.7,11.07,9.07,0,7.56-5.81,15.46-12.7,24.7h1.27c9.07-11.93,21.95-33.77,39.19-33.77,5.44,0,10.71,2.86,10.71,9.24,0,16.63-24.49,34.27-24.49,46.2,0,2.52,1.63,3.19,3.08,3.19Z"/><path class="cls-3" d="M788.99,453.2c-1.09,3.36-1.27,6.55-1.27,8.74,0,8.9,3.81,14.28,12.34,14.28,7.98,0,15.42-5.54,21.23-13.61l2.54,.84c-8.35,15.46-19.78,22.68-31.57,22.68-12.7,0-18.87-8.4-18.87-19.32,0-21,23.04-50.4,48.45-50.4,7.26,0,15.42,2.69,15.42,10.42,0,14.62-19.6,23.02-48.26,26.38Zm1.45-4.37c25.4-2.52,33.75-12.26,33.75-19.49,0-3.7-2.54-5.54-7.26-5.54-10.89,0-22.14,12.1-26.49,25.03Z"/><path class="cls-3" d="M887.55,459.41c-2,3.36-6.17,9.41-6.17,12.6,0,2.02,1.81,3.02,3.99,3.02,6.35,0,12.7-5.71,17.24-12.43l2.54,.84c-8.35,14.95-18.51,22.85-29.39,22.85-6.71,0-10.16-2.35-10.16-7.9s5.81-15.62,12.34-25.7h-1.27c-7.98,11.09-24.13,33.26-37.74,33.26-6.71,0-9.98-3.86-9.98-9.74,0-23.18,32.3-59.81,58.06-59.81,3.99,0,7.8,.67,10.89,1.68,5.81-9.91,12.52-21.5,16.15-27.55,1.63-2.86,4.17-7.39,4.17-9.41,0-2.35-.73-3.86-7.08-7.22l.91-2.02,27.4-6.89,1.81,1.18-53.71,93.24Zm-7.08-36.29c-15.42,0-37.01,31.08-37.01,47.21,0,2.86,1.45,4.03,4.17,4.03,9.25,0,34.11-30.58,45.72-47.71-3.27-2.18-8.53-3.53-12.88-3.53Z"/><path class="cls-3" d="M932.11,475.04c4.17,0,7.98-3.86,13.06-10.58l2.54,.84c-4.9,8.9-14.33,21-25.76,21-5.62,0-8.71-3.36-8.71-8.4,0-3.02,1.27-6.72,3.63-10.75l15.6-26.04c3.63-6.05,4.9-9.24,4.9-11.09,0-1.68-.91-2.35-2.54-2.35-4.17,0-11.98,11.09-15.24,14.45l-2.36-1.51c13.43-16.46,20.32-24.19,29.58-24.19,3.63,0,6.17,2.35,6.17,5.88,0,4.2-2.54,9.91-5.99,15.79l-14.15,23.86c-2.18,3.53-3.81,7.06-3.81,9.58,0,2.02,.91,3.53,3.08,3.53Zm35.74-97.44c3.81,0,5.26,2.35,5.26,5.04,0,6.05-6.53,13.1-12.88,13.1-3.81,0-5.62-2.35-5.62-5.38,0-5.71,5.62-12.77,13.25-12.77Z"/><path class="cls-3" d="M1009.79,475.04c3.08,0,8.17-5.04,13.25-12.43l2.54,.84c-6.17,11.26-16.87,22.85-26.49,22.85-5.99,0-7.62-3.36-7.62-7.22,0-6.05,8.35-14.62,15.06-26.38h-1.27c-15.79,24.19-25.76,33.6-36.11,33.6-8.17,0-11.43-4.87-11.43-10.08,0-4.03,2.72-9.58,6.35-15.46,7.8-12.77,16.87-26.54,16.87-30.24,0-1.68-.73-2.86-2.54-2.86-3.27,0-8.35,6.22-15.24,14.45l-2.18-1.68c9.62-11.93,19.41-24.02,28.49-24.02,4.35,0,7.08,1.85,7.08,6.05,0,2.52-1.09,5.71-5.44,13.1l-12.34,20.66c-3.27,5.54-6.35,10.42-6.35,13.44,0,2.86,1.45,4.7,5.08,4.7,7.44,0,17.96-11.09,30.66-29.57,4.35-6.38,11.07-17.14,14.52-27.38h15.6l-28.85,49.39c-1.81,3.02-2.18,4.7-2.18,5.88,0,1.34,.73,2.35,2.54,2.35Z"/><path class="cls-3" d="M1127.3,475.04c5.62,0,11.79-9.41,15.06-14.62l2.18,1.51c-5.08,9.41-14.7,24.36-26.31,24.36-5.26,0-8.89-3.53-8.89-8.4,0-13.44,24.13-33.94,24.13-45.02,0-2.86-2.18-4.54-5.44-4.54-12.16,0-31.75,28.22-38.47,40.15-2.9,5.04-6.53,12.26-7.98,16.8h-15.6l21.59-35.78c5.26-8.74,7.44-13.1,7.44-16.97,0-2.02-1.45-4.2-5.08-4.2-14.52,0-31.93,28.06-38.83,40.15-2.9,5.04-6.71,12.6-7.8,16.8h-15.79c13.06-22.01,31.39-50.57,31.39-55.1,0-1.34-.54-2.52-2.54-2.52-3.45,0-9.98,8.06-15.24,14.45l-2.18-1.68c11.98-14.78,19.6-24.02,29.21-24.02,3.99,0,6.35,2.52,6.35,5.71,0,7.56-10.16,20.83-15.42,28.06h1.27c10.16-13.94,23.95-33.77,38.83-33.77,6.53,0,11.07,3.7,11.07,9.07,0,7.56-5.81,15.46-12.7,24.7h1.27c9.07-11.93,21.95-33.77,39.19-33.77,5.44,0,10.71,2.86,10.71,9.24,0,16.63-24.49,34.27-24.49,46.2,0,2.52,1.63,3.19,3.08,3.19Z"/><path class="cls-3" d="M1104.04,533.17c53.89-19.99,84.01-63.5,84.01-109.37,0-25.37-7.62-41.33-22.14-61.49l3.45-2.86c15.24,19.49,23.77,39.65,23.77,64.01,0,47.04-30.66,93.07-87.27,113.06l-1.81-3.36Z"/></g><g><path class="cls-3" d="M230.43,573.34c2.79-4.57,9.91-7.62,14.22-7.62,9.14,0,14.48,7.11,14.48,17.27,0,29.21-28.7,86.87-58.67,86.87-26.67,0-14.73-68.07-14.73-81.53,0-3.05-1.52-5.59-4.57-5.59-4.06,0-10.41,6.86-13.72,10.92l-2.54-2.79c8.13-12.95,20.83-25.15,31.24-25.15,5.59,0,9.14,4.57,9.14,9.91,0,19.05-10.92,78.23,5.84,78.23s30.99-36.83,30.99-63.5c0-8.64-4.32-15.24-11.68-17.02Z"/><path class="cls-3" d="M299.77,654.62c5.59,0,10.67-5.59,14.22-10.67l3.81,2.03c-3.3,9.65-19.3,25.4-30.23,25.4-9.91,0-11.68-9.4-11.68-18.03,0-9.14,12.19-53.34,12.19-65.02,0-3.05-1.52-5.59-4.57-5.59-4.06,0-10.41,6.86-13.72,10.92l-2.54-2.79c8.13-12.95,20.83-25.15,31.24-25.15,5.59,0,9.14,4.57,9.14,9.91,0,13.46-11.43,58.17-11.43,73.15,0,3.05,.51,5.84,3.56,5.84Zm-.76-120.39c-5.84-1.02-9.65-9.14-8.64-14.73,1.78-9.14,7.87-13.72,14.99-12.19,5.84,1.02,9.4,8.89,8.38,14.73-1.52,7.87-7.37,13.46-14.73,12.19Z"/><path class="cls-3" d="M409.5,681.54c0,24.13-26.42,38.1-54.86,38.35-15.49,.25-33.78-6.1-33.02-21.84,.25-10.16,11.94-21.59,20.83-28.19l.25-1.52c-4.32-2.03-5.84-7.62-5.84-12.7l18.54-17.78,5.59,1.27c-1.78,2.29-4.32,7.62-4.32,10.92,0,10.67,52.83,2.54,52.83,31.5Zm-77.98-70.1c0-24.38,20.57-44.45,42.67-44.45,19.3,0,30.73,15.49,30.73,32,0,22.35-20.07,42.42-42.67,42.42-18.8,0-30.73-12.7-30.73-29.97Zm6.35,80.01c-.25,12.45,11.94,17.53,24.13,17.78,13.72,.25,31.5-6.6,31.5-20.57s-35.81-16-45.97-17.02c-4.57,5.59-9.65,12.95-9.65,19.81Zm31.75-115.57c-14.48,0-19.3,17.53-19.3,33.27,0,11.18,5.08,23.37,14.99,23.37,17.02,0,20.83-18.54,20.83-34.29,0-11.94-6.35-22.35-16.51-22.35Zm42.67,6.6c-5.84,0-17.02-6.35-24.13-6.35v-4.57c8.64,0,20.83-.51,27.18-4.57,2.79,1.52,4.57,4.57,4.57,7.87,0,4.57-3.05,7.62-7.62,7.62Z"/><path class="cls-3" d="M419.41,628.97c0-29.21,22.61-63.25,52.07-63.25,24.89,0,35.31,21.84,35.31,45.46,0,27.18-21.08,60.2-52.07,60.2-25.65,0-35.31-19.05-35.31-42.42Zm45.72-50.04c-20.83,0-26.92,24.64-26.92,46.74,0,14.99,6.35,33.53,20.83,33.53,22.86,0,29.46-24.38,29.46-46.48,0-16.26-8.13-33.78-23.37-33.78Z"/><path class="cls-3" d="M552.25,609.41h1.78c4.57-13.46,24.89-43.69,36.32-43.69,3.3,0,4.57,4.32,4.57,9.4,0,5.33-1.02,10.92-2.79,14.99-26.42,0-43.94,33.53-46.23,61.97-.51,5.33-1.02,10.41-1.52,16l-20.57,2.79c4.06-19.05,14.22-65.53,14.22-82.55,0-3.05-1.52-5.59-4.57-5.59-4.06,0-10.41,6.86-13.72,10.92l-2.54-2.79c8.13-12.95,22.86-25.15,33.27-25.15,5.59,0,9.14,4.57,9.14,9.91,0,7.87-3.81,21.84-7.37,33.78Z"/><path class="cls-3" d="M599.49,628.97c0-29.21,22.61-63.25,52.07-63.25,24.89,0,35.31,21.84,35.31,45.46,0,27.18-21.08,60.2-52.07,60.2-25.65,0-35.31-19.05-35.31-42.42Zm45.72-50.04c-20.83,0-26.92,24.64-26.92,46.74,0,14.99,6.35,33.53,20.83,33.53,22.86,0,29.46-24.38,29.46-46.48,0-16.26-8.13-33.78-23.37-33.78Z"/><path class="cls-3" d="M731.57,575.37c-8.13,0-12.19,4.83-12.19,12.19,0,8.89,15.75,22.35,22.86,29.21,6.6,6.6,12.45,14.22,12.45,21.84,0,18.54-15.75,32.77-34.29,32.77-12.7,0-26.92-4.06-26.92-15.24,0-5.33,1.78-9.65,5.84-12.19,6.35,8.13,14.22,13.97,26.42,13.97,7.11,0,12.19-5.08,12.19-10.92,0-8.64-6.1-14.99-13.72-22.1-9.4-8.64-20.07-15.49-20.07-29.46,0-18.54,19.3-29.72,35.56-29.72,12.95,0,23.62,6.1,23.62,16.76,0,6.1-6.86,11.94-13.72,11.68-.25-9.65-7.11-18.8-18.03-18.8Z"/><path class="cls-3" d="M847.4,654.62c5.59,0,10.67-5.59,14.22-10.67l3.81,2.03c-2.54,9.65-19.3,25.4-30.23,25.4-9.14,0-11.68-6.6-11.68-15.75,0-7.87,3.81-19.05,7.87-32.51h-1.27c-8.89,15.49-22.86,47.75-43.43,47.75-14.73,0-19.3-12.45-19.56-28.96-.51-33.78,19.81-76.2,54.86-76.2,9.65,0,18.8,2.54,24.38,5.33,0,0,6.6-5.33,9.91-5.33,2.03,0,4.57,1.78,4.57,3.81-10.16,21.34-17.02,60.96-17.02,78.99,0,3.05,.51,6.1,3.56,6.1Zm-30.99-78.74c-22.61,0-30.73,39.88-31.24,58.42-.25,9.65,2.29,21.59,9.4,21.59,13.97,0,40.64-54.86,41.4-71.37-3.05-4.32-12.45-8.64-19.56-8.64Z"/><path class="cls-3" d="M981.51,573.34c2.79-4.57,9.91-7.62,14.22-7.62,9.14,0,14.48,7.11,14.48,17.27,0,29.21-28.7,86.87-58.67,86.87-26.67,0-14.73-68.07-14.73-81.53,0-3.05-1.52-5.59-4.57-5.59-4.06,0-10.41,6.86-13.72,10.92l-2.54-2.79c8.13-12.95,20.83-25.15,31.24-25.15,5.59,0,9.14,4.57,9.14,9.91,0,19.05-10.92,78.23,5.84,78.23s30.99-36.83,30.99-63.5c0-8.64-4.32-15.24-11.68-17.02Z"/><path class="cls-3" d="M1018.85,628.97c0-29.21,22.61-63.25,52.07-63.25,24.89,0,35.31,21.84,35.31,45.46,0,27.18-21.08,60.2-52.07,60.2-25.65,0-35.31-19.05-35.31-42.42Zm45.72-50.04c-20.83,0-26.92,24.64-26.92,46.74,0,14.99,6.35,33.53,20.83,33.53,22.86,0,29.46-24.38,29.46-46.48,0-16.26-8.13-33.78-23.37-33.78Z"/><path class="cls-3" d="M1176.83,682.56c-21.08,0-36.58-12.7-57.66-12.7-3.81,0-5.84,2.79-8.38,2.79-4.32,0-5.08-2.29-5.08-5.33,23.88-19.81,59.44-60.45,69.34-82.04-10.16,3.05-21.59,3.05-31.5,2.79-7.87-.25-15.49-1.27-22.1-3.05-1.27-2.79-2.03-5.59-2.03-9.14,0-3.81,2.03-8.38,4.32-10.16,16,4.06,38.86,4.83,56.9,4.83,6.35,0,6.6-3.56,10.41-3.56,2.29,0,4.57,2.29,5.08,4.57-16,29.97-44.2,64.26-64.52,84.83,16,2.03,31.5,6.35,44.45,6.35,5.84,0,10.67-1.78,14.48-5.08,4.32,5.33,1.78,24.89-13.72,24.89Z"/></g><g><path class="cls-3" d="M346.46,205.6c0,2.72-2.21,4.9-4.93,4.9s-4.9-2.19-4.9-4.9,2.19-4.93,4.9-4.93,4.93,2.21,4.93,4.93Zm-.83,0c0-2.26-1.85-4.1-4.1-4.1s-4.08,1.85-4.08,4.1,1.82,4.08,4.08,4.08,4.1-1.82,4.1-4.08Zm-1.02,.04c0,1.68-1.29,3.04-3.08,3.04s-3.08-1.36-3.08-3.04h.49c.31,1.5,1.33,2.23,2.59,2.23s2.28-.73,2.59-2.23h.49Zm-4.8-1.68c0-.55,.18-.97,.52-.97s.48,.42,.48,.97-.15,.99-.48,.99-.52-.45-.52-.99Zm2.45,0c0-.55,.15-.97,.48-.97s.52,.42,.52,.97-.18,.99-.52,.99-.48-.45-.48-.99Z"/><path class="cls-3" d="M362.13,200.83v9.51h-1.19v-8.47l-3.22,8.47h-.77l-3.26-8.49v8.49h-1.19v-9.51h1.93l2.9,7.63,2.9-7.63h1.9Z"/><path class="cls-3" d="M366.09,210.34h-1.18v-9.51h1.18v9.51Z"/><path class="cls-3" d="M374.62,209.33v1.01h-5.77v-9.51h1.2v8.5h4.57Z"/><path class="cls-3" d="M382.26,207.72h-4.19l-.99,2.62h-1.26l3.75-9.51h1.27l3.63,9.51h-1.26l-.95-2.62Zm-.36-1l-1.7-4.68-1.76,4.68h3.46Z"/><path class="cls-3" d="M389.33,207.51h1.25c.18,1.34,1.18,2,2.72,2,1.62,0,2.38-.71,2.38-1.64,0-.84-.56-1.33-1.67-1.58l-2.21-.49c-1.4-.31-2.16-1.16-2.16-2.41,0-1.54,1.3-2.73,3.4-2.73s3.52,.88,3.73,2.83h-1.25c-.18-1.26-1.11-1.83-2.51-1.83s-2.13,.7-2.13,1.6c0,.69,.35,1.16,1.44,1.42l2.14,.49c1.54,.35,2.45,1.19,2.45,2.55,0,1.67-1.3,2.8-3.63,2.8-2.49,0-3.77-1.08-3.96-3Z"/><path class="cls-3" d="M406.83,206.64c0,2.58-1.53,3.87-3.92,3.87s-3.94-1.3-3.94-3.87v-5.81h1.18v5.81c0,1.86,1.11,2.83,2.77,2.83s2.73-.92,2.73-2.77v-5.87h1.18v5.81Z"/><path class="cls-3" d="M416.6,203.47c0,1.57-1.08,2.7-3.25,2.7h-2.63v4.16h-1.19v-9.51h3.92c2.17,0,3.15,1.01,3.15,2.65Zm-1.19,0c0-1.07-.66-1.65-2.16-1.65h-2.54v3.36h2.54c1.5,0,2.16-.69,2.16-1.71Z"/><path class="cls-3" d="M419.66,201.83v3.14h4.8v1h-4.8v3.36h5.39v1.01h-6.57v-9.51h6.57v1.01h-5.39Z"/><path class="cls-3" d="M430.36,206.18h-2.06v4.16h-1.19v-9.51h3.91c2.17,0,3.17,1.01,3.17,2.62,0,1.43-.78,2.4-2.55,2.61l3.07,4.29h-1.33l-3.01-4.16Zm-2.06-.99h2.58c1.39,0,2.12-.63,2.12-1.74s-.76-1.62-2.14-1.62h-2.55v3.36Z"/><path class="cls-3" d="M441.68,210.34h-1.18v-9.51h1.18v9.51Z"/><path class="cls-3" d="M450.98,201.81h-3.15v8.53h-1.18v-8.53h-3.17v-.98h7.49v.98Z"/><path class="cls-3" d="M457.07,207.72h-4.19l-.99,2.62h-1.26l3.75-9.51h1.27l3.63,9.51h-1.26l-.95-2.62Zm-.36-1l-1.7-4.68-1.76,4.68h3.46Z"/><path class="cls-3" d="M466.82,209.33v1.01h-5.77v-9.51h1.2v8.5h4.57Z"/><path class="cls-3" d="M469.77,210.34h-1.18v-9.51h1.18v9.51Z"/><path class="cls-3" d="M472,205.59c0-2.87,1.74-4.93,4.41-4.93,2.51,0,3.67,1.29,4.05,3.21h-1.25c-.34-1.54-1.25-2.21-2.8-2.21-1.79,0-3.22,1.54-3.22,3.94s1.43,3.92,3.22,3.92c1.51,0,2.44-.63,2.82-2.2h1.25c-.42,2-1.6,3.19-4.06,3.19-2.66,0-4.41-2.04-4.41-4.92Z"/></g><g><path class="cls-3" d="M769.46,357.6c0,2.72-2.21,4.9-4.93,4.9s-4.9-2.19-4.9-4.9,2.19-4.93,4.9-4.93,4.93,2.21,4.93,4.93Zm-.83,0c0-2.26-1.85-4.1-4.1-4.1s-4.08,1.85-4.08,4.1,1.82,4.08,4.08,4.08,4.1-1.82,4.1-4.08Zm-1.02,.04c0,1.68-1.29,3.04-3.08,3.04s-3.08-1.36-3.08-3.04h.49c.31,1.5,1.33,2.23,2.59,2.23s2.28-.73,2.59-2.23h.49Zm-4.8-1.68c0-.55,.18-.97,.52-.97s.48,.42,.48,.97-.15,.99-.48,.99-.52-.45-.52-.99Zm2.45,0c0-.55,.15-.97,.48-.97s.52,.42,.52,.97-.18,.99-.52,.99-.48-.45-.48-.99Z"/><path class="cls-3" d="M785.13,352.83v9.51h-1.19v-8.47l-3.22,8.47h-.77l-3.26-8.49v8.49h-1.19v-9.51h1.93l2.9,7.63,2.9-7.63h1.9Z"/><path class="cls-3" d="M789.09,362.34h-1.18v-9.51h1.18v9.51Z"/><path class="cls-3" d="M797.62,361.33v1.01h-5.77v-9.51h1.2v8.5h4.57Z"/><path class="cls-3" d="M805.26,359.72h-4.19l-.99,2.62h-1.26l3.75-9.51h1.27l3.63,9.51h-1.26l-.95-2.62Zm-.36-1l-1.7-4.68-1.76,4.68h3.46Z"/><path class="cls-3" d="M816.32,358.18h-2.06v4.16h-1.19v-9.51h3.91c2.17,0,3.17,1.01,3.17,2.62,0,1.43-.78,2.4-2.55,2.61l3.07,4.29h-1.33l-3.01-4.16Zm-2.06-.99h2.58c1.39,0,2.12-.63,2.12-1.74s-.76-1.62-2.14-1.62h-2.55v3.36Z"/><path class="cls-3" d="M823.71,353.83v3.14h4.8v1h-4.8v3.36h5.39v1.01h-6.57v-9.51h6.57v1.01h-5.39Z"/><path class="cls-3" d="M839.2,357.41v4.93h-1.06v-1.74c-.49,1.13-1.48,1.91-3.14,1.91-2.68,0-4.47-1.99-4.47-4.92s1.78-4.93,4.44-4.93c1.98,0,3.43,.84,3.99,2.73h-1.26c-.43-1.12-1.26-1.74-2.75-1.74-1.91,0-3.24,1.5-3.24,3.94s1.3,3.92,3.28,3.92,3.04-1.22,3.05-3.11h-3.32v-.99h4.47Z"/><path class="cls-3" d="M849.36,358.64c0,2.58-1.53,3.87-3.92,3.87s-3.94-1.3-3.94-3.87v-5.81h1.18v5.81c0,1.86,1.11,2.83,2.77,2.83s2.73-.92,2.73-2.77v-5.87h1.18v5.81Z"/><path class="cls-3" d="M857.83,361.33v1.01h-5.77v-9.51h1.2v8.5h4.57Z"/><path class="cls-3" d="M865.48,359.72h-4.19l-.99,2.62h-1.26l3.75-9.51h1.27l3.63,9.51h-1.26l-.95-2.62Zm-.36-1l-1.7-4.68-1.76,4.68h3.46Z"/><path class="cls-3" d="M872.7,358.18h-2.06v4.16h-1.19v-9.51h3.91c2.17,0,3.17,1.01,3.17,2.62,0,1.43-.78,2.4-2.55,2.61l3.07,4.29h-1.33l-3.01-4.16Zm-2.06-.99h2.58c1.39,0,2.12-.63,2.12-1.74s-.76-1.62-2.14-1.62h-2.55v3.36Z"/></g><g><path class="cls-3" d="M584.46,703.6c0,2.72-2.21,4.9-4.93,4.9s-4.9-2.19-4.9-4.9,2.19-4.93,4.9-4.93,4.93,2.21,4.93,4.93Zm-.83,0c0-2.26-1.85-4.1-4.1-4.1s-4.08,1.85-4.08,4.1,1.82,4.08,4.08,4.08,4.1-1.82,4.1-4.08Zm-1.02,.04c0,1.68-1.29,3.04-3.08,3.04s-3.08-1.36-3.08-3.04h.49c.31,1.5,1.33,2.23,2.59,2.23s2.28-.73,2.59-2.23h.49Zm-4.8-1.68c0-.55,.18-.97,.52-.97s.48,.42,.48,.97-.15,.99-.48,.99-.52-.45-.52-.99Zm2.45,0c0-.55,.15-.97,.48-.97s.52,.42,.52,.97-.18,.99-.52,.99-.48-.45-.48-.99Z"/><path class="cls-3" d="M600.13,698.83v9.51h-1.19v-8.47l-3.22,8.47h-.77l-3.26-8.49v8.49h-1.19v-9.51h1.93l2.9,7.63,2.9-7.63h1.9Z"/><path class="cls-3" d="M604.09,708.34h-1.18v-9.51h1.18v9.51Z"/><path class="cls-3" d="M612.62,707.33v1.01h-5.77v-9.51h1.2v8.5h4.57Z"/><path class="cls-3" d="M620.26,705.72h-4.19l-.99,2.62h-1.26l3.75-9.51h1.27l3.63,9.51h-1.26l-.95-2.62Zm-.36-1l-1.7-4.68-1.76,4.68h3.46Z"/><path class="cls-3" d="M629.25,708.34h-1.18v-9.51h1.18v9.51Z"/><path class="cls-3" d="M638.55,699.81h-3.15v8.53h-1.18v-8.53h-3.17v-.98h7.49v.98Z"/><path class="cls-3" d="M644.64,705.72h-4.19l-.99,2.62h-1.26l3.75-9.51h1.27l3.63,9.51h-1.26l-.95-2.62Zm-.36-1l-1.7-4.68-1.76,4.68h3.46Z"/><path class="cls-3" d="M654.38,707.33v1.01h-5.77v-9.51h1.2v8.5h4.57Z"/><path class="cls-3" d="M657.34,708.34h-1.18v-9.51h1.18v9.51Z"/><path class="cls-3" d="M659.57,703.59c0-2.87,1.74-4.93,4.41-4.93,2.51,0,3.67,1.29,4.05,3.21h-1.25c-.34-1.54-1.25-2.21-2.8-2.21-1.79,0-3.22,1.54-3.22,3.94s1.43,3.92,3.22,3.92c1.51,0,2.44-.63,2.82-2.2h1.25c-.42,2-1.6,3.19-4.06,3.19-2.66,0-4.41-2.04-4.41-4.92Z"/></g><g><path class="cls-3" d="M935.46,517.6c0,2.72-2.21,4.9-4.93,4.9s-4.9-2.19-4.9-4.9,2.19-4.93,4.9-4.93,4.93,2.21,4.93,4.93Zm-.83,0c0-2.26-1.85-4.1-4.1-4.1s-4.08,1.85-4.08,4.1,1.82,4.08,4.08,4.08,4.1-1.82,4.1-4.08Zm-1.02,.04c0,1.68-1.29,3.04-3.08,3.04s-3.08-1.36-3.08-3.04h.49c.31,1.5,1.33,2.23,2.59,2.23s2.28-.73,2.59-2.23h.49Zm-4.8-1.68c0-.55,.18-.97,.52-.97s.48,.42,.48,.97-.15,.99-.48,.99-.52-.45-.52-.99Zm2.45,0c0-.55,.15-.97,.48-.97s.52,.42,.52,.97-.18,.99-.52,.99-.48-.45-.48-.99Z"/><path class="cls-3" d="M951.13,512.83v9.51h-1.19v-8.47l-3.22,8.47h-.77l-3.26-8.49v8.49h-1.19v-9.51h1.93l2.9,7.63,2.9-7.63h1.9Z"/><path class="cls-3" d="M955.09,522.34h-1.18v-9.51h1.18v9.51Z"/><path class="cls-3" d="M963.62,521.33v1.01h-5.77v-9.51h1.2v8.5h4.57Z"/><path class="cls-3" d="M971.26,519.72h-4.19l-.99,2.62h-1.26l3.75-9.51h1.27l3.63,9.51h-1.26l-.95-2.62Zm-.36-1l-1.7-4.68-1.76,4.68h3.46Z"/><path class="cls-3" d="M978.33,519.51h1.25c.18,1.34,1.18,2,2.72,2,1.62,0,2.38-.71,2.38-1.64,0-.84-.56-1.33-1.67-1.58l-2.21-.49c-1.4-.31-2.16-1.16-2.16-2.41,0-1.54,1.3-2.73,3.4-2.73s3.52,.88,3.73,2.83h-1.25c-.18-1.26-1.11-1.83-2.51-1.83s-2.13,.7-2.13,1.6c0,.69,.35,1.16,1.44,1.42l2.14,.49c1.54,.35,2.45,1.19,2.45,2.55,0,1.67-1.3,2.8-3.63,2.8-2.49,0-3.77-1.08-3.96-3Z"/><path class="cls-3" d="M995.83,518.64c0,2.58-1.53,3.87-3.92,3.87s-3.94-1.3-3.94-3.87v-5.81h1.18v5.81c0,1.86,1.11,2.83,2.77,2.83s2.73-.92,2.73-2.77v-5.87h1.18v5.81Z"/><path class="cls-3" d="M1005.6,515.47c0,1.57-1.08,2.7-3.25,2.7h-2.63v4.16h-1.19v-9.51h3.92c2.17,0,3.15,1.01,3.15,2.65Zm-1.19,0c0-1.07-.66-1.65-2.16-1.65h-2.54v3.36h2.54c1.5,0,2.16-.69,2.16-1.71Z"/><path class="cls-3" d="M1008.66,513.83v3.14h4.8v1h-4.8v3.36h5.39v1.01h-6.57v-9.51h6.57v1.01h-5.39Z"/><path class="cls-3" d="M1019.36,518.18h-2.06v4.16h-1.19v-9.51h3.91c2.17,0,3.17,1.01,3.17,2.62,0,1.43-.78,2.4-2.55,2.61l3.07,4.29h-1.33l-3.01-4.16Zm-2.06-.99h2.58c1.39,0,2.12-.63,2.12-1.74s-.76-1.62-2.14-1.62h-2.55v3.36Z"/><path class="cls-3" d="M1030.68,522.34h-1.18v-9.51h1.18v9.51Z"/><path class="cls-3" d="M1039.98,513.81h-3.15v8.53h-1.18v-8.53h-3.17v-.98h7.49v.98Z"/><path class="cls-3" d="M1046.07,519.72h-4.19l-.99,2.62h-1.26l3.75-9.51h1.27l3.63,9.51h-1.26l-.95-2.62Zm-.36-1l-1.7-4.68-1.76,4.68h3.46Z"/><path class="cls-3" d="M1055.82,521.33v1.01h-5.77v-9.51h1.2v8.5h4.57Z"/><path class="cls-3" d="M1058.77,522.34h-1.18v-9.51h1.18v9.51Z"/><path class="cls-3" d="M1061,517.59c0-2.87,1.74-4.93,4.41-4.93,2.51,0,3.67,1.29,4.05,3.21h-1.25c-.34-1.54-1.25-2.21-2.8-2.21-1.79,0-3.22,1.54-3.22,3.94s1.43,3.92,3.22,3.92c1.51,0,2.44-.63,2.82-2.2h1.25c-.42,2-1.6,3.19-4.06,3.19-2.66,0-4.41-2.04-4.41-4.92Z"/></g><g><path class="cls-3" d="M84.41,123.16c0,2.72-2.21,4.9-4.93,4.9s-4.9-2.19-4.9-4.9,2.19-4.93,4.9-4.93,4.93,2.21,4.93,4.93Zm-.83,0c0-2.26-1.85-4.1-4.1-4.1s-4.08,1.85-4.08,4.1,1.82,4.08,4.08,4.08,4.1-1.82,4.1-4.08Zm-1.02,.04c0,1.68-1.29,3.04-3.08,3.04s-3.08-1.36-3.08-3.04h.49c.31,1.5,1.33,2.23,2.59,2.23s2.28-.73,2.59-2.23h.49Zm-4.8-1.68c0-.55,.18-.97,.52-.97s.48,.42,.48,.97-.15,.99-.48,.99-.52-.45-.52-.99Zm2.45,0c0-.55,.15-.97,.48-.97s.52,.42,.52,.97-.18,.99-.52,.99-.48-.45-.48-.99Z"/><path class="cls-3" d="M92.86,118.38v9.51h-1.2v-7.49c-.49,.45-1.13,.6-2.17,.6v-.98c1.62-.06,2.12-.66,2.35-1.64h1.02Z"/><path class="cls-3" d="M101.97,124.8c0,1.95-1.32,3.26-3.29,3.26-2.73,0-3.52-2.42-3.52-5,0-3.39,1.75-4.85,3.66-4.85,1.78,0,2.75,.88,3,2.44h-1.19c-.2-.92-.77-1.43-1.81-1.43-1.6,0-2.49,1.5-2.49,3.56v.2c.46-.85,1.3-1.33,2.47-1.33,2,0,3.18,1.37,3.18,3.15Zm-1.16,0c0-1.12-.69-2.14-2.09-2.14s-2.19,1.02-2.19,2.14,.78,2.25,2.19,2.25,2.09-1.13,2.09-2.25Z"/><path class="cls-3" d="M110.57,125.28c0,1.61-1.43,2.79-3.42,2.79s-3.43-1.18-3.43-2.79c0-1.15,.76-2.06,1.83-2.35-.92-.31-1.54-1.13-1.54-2.12,0-1.48,1.3-2.59,3.14-2.59s3.12,1.11,3.12,2.59c0,.98-.62,1.81-1.54,2.12,1.08,.29,1.84,1.19,1.84,2.35Zm-1.3-.04c0-1.09-.85-1.81-2.12-1.81s-2.13,.71-2.13,1.81,.87,1.81,2.13,1.81,2.12-.71,2.12-1.81Zm-4.02-4.38c0,.84,.67,1.61,1.91,1.61s1.89-.77,1.89-1.61c0-.95-.74-1.67-1.89-1.67s-1.91,.71-1.91,1.67Z"/><path class="cls-3" d="M123.75,121.03c0,1.57-1.08,2.7-3.25,2.7h-2.63v4.16h-1.19v-9.51h3.92c2.17,0,3.15,1.01,3.15,2.65Zm-1.19,0c0-1.07-.66-1.65-2.16-1.65h-2.54v3.36h2.54c1.5,0,2.16-.69,2.16-1.71Z"/><path class="cls-3" d="M132.44,119.37h-3.15v8.53h-1.18v-8.53h-3.17v-.98h7.49v.98Z"/><path class="cls-3" d="M133.52,125.07h1.25c.18,1.34,1.18,2,2.72,2,1.62,0,2.38-.71,2.38-1.64,0-.84-.56-1.33-1.67-1.58l-2.21-.49c-1.4-.31-2.16-1.16-2.16-2.41,0-1.54,1.3-2.73,3.4-2.73s3.52,.88,3.73,2.83h-1.25c-.18-1.26-1.11-1.83-2.51-1.83s-2.13,.7-2.13,1.6c0,.69,.35,1.16,1.44,1.42l2.14,.49c1.54,.35,2.45,1.19,2.45,2.55,0,1.67-1.3,2.8-3.63,2.8-2.49,0-3.77-1.08-3.96-3Z"/></g><g><path class="cls-3" d="M1242.51,284.16c0,2.72-2.21,4.9-4.93,4.9s-4.9-2.19-4.9-4.9,2.19-4.93,4.9-4.93,4.93,2.21,4.93,4.93Zm-.83,0c0-2.26-1.85-4.1-4.1-4.1s-4.08,1.85-4.08,4.1,1.82,4.08,4.08,4.08,4.1-1.82,4.1-4.08Zm-1.02,.04c0,1.68-1.29,3.04-3.08,3.04s-3.08-1.36-3.08-3.04h.49c.31,1.5,1.33,2.23,2.59,2.23s2.28-.73,2.59-2.23h.49Zm-4.8-1.68c0-.55,.18-.97,.52-.97s.48,.42,.48,.97-.15,.99-.48,.99-.52-.45-.52-.99Zm2.45,0c0-.55,.15-.97,.48-.97s.52,.42,.52,.97-.18,.99-.52,.99-.48-.45-.48-.99Z"/><path class="cls-3" d="M1250.96,279.38v9.51h-1.2v-7.49c-.49,.45-1.13,.6-2.17,.6v-.98c1.62-.06,2.12-.66,2.35-1.64h1.02Z"/><path class="cls-3" d="M1259.99,286.58h-1.23v2.31h-1.2v-2.31h-4.78v-.98l4.22-6.22h1.76v6.22h1.23v.98Zm-2.44-.98v-5.32l-3.61,5.32h3.61Z"/><path class="cls-3" d="M1268.47,286.28c0,1.61-1.43,2.79-3.42,2.79s-3.43-1.18-3.43-2.79c0-1.15,.76-2.06,1.83-2.35-.92-.31-1.54-1.13-1.54-2.12,0-1.48,1.3-2.59,3.14-2.59s3.12,1.11,3.12,2.59c0,.98-.62,1.81-1.54,2.12,1.08,.29,1.83,1.19,1.83,2.35Zm-1.3-.04c0-1.09-.85-1.81-2.12-1.81s-2.13,.71-2.13,1.81,.87,1.81,2.13,1.81,2.12-.71,2.12-1.81Zm-4.02-4.38c0,.84,.67,1.61,1.91,1.61s1.89-.77,1.89-1.61c0-.95-.74-1.67-1.89-1.67s-1.91,.71-1.91,1.67Z"/><path class="cls-3" d="M1281.64,282.03c0,1.57-1.08,2.7-3.25,2.7h-2.63v4.16h-1.19v-9.51h3.92c2.17,0,3.15,1.01,3.15,2.65Zm-1.19,0c0-1.07-.66-1.65-2.16-1.65h-2.54v3.36h2.54c1.5,0,2.16-.69,2.16-1.71Z"/><path class="cls-3" d="M1290.33,280.37h-3.15v8.53h-1.18v-8.53h-3.17v-.98h7.49v.98Z"/><path class="cls-3" d="M1291.41,286.07h1.25c.18,1.34,1.18,2,2.72,2,1.62,0,2.38-.71,2.38-1.64,0-.84-.56-1.33-1.67-1.58l-2.21-.49c-1.4-.31-2.16-1.16-2.16-2.41,0-1.54,1.3-2.73,3.4-2.73s3.52,.88,3.73,2.83h-1.25c-.18-1.26-1.11-1.83-2.51-1.83s-2.13,.7-2.13,1.6c0,.69,.35,1.16,1.44,1.42l2.14,.49c1.54,.35,2.45,1.19,2.45,2.55,0,1.67-1.3,2.8-3.63,2.8-2.49,0-3.77-1.08-3.96-3Z"/></g><g><path class="cls-3" d="M84.41,439.16c0,2.72-2.21,4.9-4.93,4.9s-4.9-2.19-4.9-4.9,2.19-4.93,4.9-4.93,4.93,2.21,4.93,4.93Zm-.83,0c0-2.26-1.85-4.1-4.1-4.1s-4.08,1.85-4.08,4.1,1.82,4.08,4.08,4.08,4.1-1.82,4.1-4.08Zm-1.02,.04c0,1.68-1.29,3.04-3.08,3.04s-3.08-1.36-3.08-3.04h.49c.31,1.5,1.33,2.23,2.59,2.23s2.28-.73,2.59-2.23h.49Zm-4.8-1.68c0-.55,.18-.97,.52-.97s.48,.42,.48,.97-.15,.99-.48,.99-.52-.45-.52-.99Zm2.45,0c0-.55,.15-.97,.48-.97s.52,.42,.52,.97-.18,.99-.52,.99-.48-.45-.48-.99Z"/><path class="cls-3" d="M92.86,434.38v9.51h-1.2v-7.49c-.49,.45-1.13,.6-2.17,.6v-.98c1.62-.06,2.12-.66,2.35-1.64h1.02Z"/><path class="cls-3" d="M101.97,440.8c0,1.95-1.32,3.26-3.29,3.26-2.73,0-3.52-2.42-3.52-5,0-3.39,1.75-4.85,3.66-4.85,1.78,0,2.75,.88,3,2.44h-1.19c-.2-.92-.77-1.43-1.81-1.43-1.6,0-2.49,1.5-2.49,3.56v.2c.46-.85,1.3-1.33,2.47-1.33,2,0,3.18,1.37,3.18,3.15Zm-1.16,0c0-1.12-.69-2.14-2.09-2.14s-2.19,1.02-2.19,2.14,.78,2.25,2.19,2.25,2.09-1.13,2.09-2.25Z"/><path class="cls-3" d="M110.57,441.28c0,1.61-1.43,2.79-3.42,2.79s-3.43-1.18-3.43-2.79c0-1.15,.76-2.06,1.83-2.35-.92-.31-1.54-1.13-1.54-2.12,0-1.48,1.3-2.59,3.14-2.59s3.12,1.11,3.12,2.59c0,.98-.62,1.81-1.54,2.12,1.08,.29,1.84,1.19,1.84,2.35Zm-1.3-.04c0-1.09-.85-1.81-2.12-1.81s-2.13,.71-2.13,1.81,.87,1.81,2.13,1.81,2.12-.71,2.12-1.81Zm-4.02-4.38c0,.84,.67,1.61,1.91,1.61s1.89-.77,1.89-1.61c0-.95-.74-1.67-1.89-1.67s-1.91,.71-1.91,1.67Z"/><path class="cls-3" d="M123.75,437.03c0,1.57-1.08,2.7-3.25,2.7h-2.63v4.16h-1.19v-9.51h3.92c2.17,0,3.15,1.01,3.15,2.65Zm-1.19,0c0-1.07-.66-1.65-2.16-1.65h-2.54v3.36h2.54c1.5,0,2.16-.69,2.16-1.71Z"/><path class="cls-3" d="M132.44,435.37h-3.15v8.53h-1.18v-8.53h-3.17v-.98h7.49v.98Z"/><path class="cls-3" d="M133.52,441.07h1.25c.18,1.34,1.18,2,2.72,2,1.62,0,2.38-.71,2.38-1.64,0-.84-.56-1.33-1.67-1.58l-2.21-.49c-1.4-.31-2.16-1.16-2.16-2.41,0-1.54,1.3-2.73,3.4-2.73s3.52,.88,3.73,2.83h-1.25c-.18-1.26-1.11-1.83-2.51-1.83s-2.13,.7-2.13,1.6c0,.69,.35,1.16,1.44,1.42l2.14,.49c1.54,.35,2.45,1.19,2.45,2.55,0,1.67-1.3,2.8-3.63,2.8-2.49,0-3.77-1.08-3.96-3Z"/></g><g><path class="cls-3" d="M1241.3,623.16c0,2.72-2.21,4.9-4.93,4.9s-4.9-2.19-4.9-4.9,2.19-4.93,4.9-4.93,4.93,2.21,4.93,4.93Zm-.83,0c0-2.26-1.85-4.1-4.1-4.1s-4.08,1.85-4.08,4.1,1.82,4.08,4.08,4.08,4.1-1.82,4.1-4.08Zm-1.02,.04c0,1.68-1.29,3.04-3.08,3.04s-3.08-1.36-3.08-3.04h.49c.31,1.5,1.33,2.23,2.59,2.23s2.28-.73,2.59-2.23h.49Zm-4.8-1.68c0-.55,.18-.97,.52-.97s.48,.42,.48,.97-.15,.99-.48,.99-.52-.45-.52-.99Zm2.45,0c0-.55,.15-.97,.48-.97s.52,.42,.52,.97-.18,.99-.52,.99-.48-.45-.48-.99Z"/><path class="cls-3" d="M1247.86,626.92h5.28v.98h-6.47v-.41c0-1.4,.59-2.45,2.09-3.33l1.89-1.11c.94-.55,1.3-1.15,1.3-1.97,0-1-.6-1.86-1.89-1.86s-2.06,.85-2.14,2.21h-1.15c.07-1.88,1.2-3.21,3.29-3.21,1.96,0,3.08,1.23,3.08,2.86,0,1.04-.32,1.9-1.85,2.82l-2.17,1.29c-.69,.41-1.13,.92-1.26,1.74Z"/><path class="cls-3" d="M1261.44,624.86c0,1.68-1.12,3.21-3.31,3.21-1.98,0-3.36-1.18-3.36-2.91h1.19c.06,1.16,.88,1.92,2.19,1.92s2.12-.98,2.12-2.24-.74-2.17-2.13-2.17c-.84,0-1.43,.35-1.76,.94h-1.37l.36-5.21h5.6v.98h-4.64l-.21,3.21c.48-.59,1.26-.95,2.23-.95,1.93,0,3.1,1.42,3.1,3.24Z"/><path class="cls-3" d="M1269.78,624.86c0,1.68-1.12,3.21-3.31,3.21-1.98,0-3.36-1.18-3.36-2.91h1.19c.06,1.16,.88,1.92,2.19,1.92s2.12-.98,2.12-2.24-.74-2.17-2.13-2.17c-.84,0-1.43,.35-1.76,.94h-1.37l.36-5.21h5.6v.98h-4.64l-.21,3.21c.48-.59,1.26-.95,2.23-.95,1.93,0,3.1,1.42,3.1,3.24Z"/><path class="cls-3" d="M1282.85,621.03c0,1.57-1.08,2.7-3.25,2.7h-2.63v4.16h-1.19v-9.51h3.92c2.17,0,3.15,1.01,3.15,2.65Zm-1.19,0c0-1.07-.66-1.65-2.16-1.65h-2.54v3.36h2.54c1.5,0,2.16-.69,2.16-1.71Z"/><path class="cls-3" d="M1291.55,619.37h-3.15v8.53h-1.18v-8.53h-3.17v-.98h7.49v.98Z"/><path class="cls-3" d="M1292.62,625.07h1.25c.18,1.34,1.18,2,2.72,2,1.62,0,2.38-.71,2.38-1.64,0-.84-.56-1.33-1.67-1.58l-2.21-.49c-1.4-.31-2.16-1.16-2.16-2.41,0-1.54,1.3-2.73,3.4-2.73s3.52,.88,3.73,2.83h-1.25c-.18-1.26-1.11-1.83-2.51-1.83s-2.13,.7-2.13,1.6c0,.69,.35,1.16,1.44,1.42l2.14,.49c1.54,.35,2.45,1.19,2.45,2.55,0,1.67-1.3,2.8-3.63,2.8-2.49,0-3.77-1.08-3.96-3Z"/></g></svg>