<?xml version="1.0" encoding="UTF-8"?><svg id="Layer_1" xmlns="http://www.w3.org/2000/svg" viewBox="0 0 1366 768"><defs><style>.cls-1{fill:#1a26cd;}</style></defs><g><path d="M349.06,216.85c0,32.75-14.5,57-47.75,57-16.75,0-28.75-6.5-37-18l-8.5,16.75h-3.5V114.6l-17.75-4.75v-2.5h72.25v2.5l-34.25,4v74.25c7-13.25,18.5-22.25,35-22.25,28.75,0,41.5,21.5,41.5,51Zm-19.25,3c0-25-9.75-39.75-29.25-39.75s-28,13.25-28,34.25v23.25c0,19.5,13.75,28.5,28.5,28.5,23.75,0,28.75-22.75,28.75-46.25Z"/><path d="M427.34,248.85c-3.25,12.5-9.75,25-28.25,25s-28.5-8.75-28.75-27.5V114.6l-17.75-4.75v-2.5h72.25v2.5l-34.25,4v126c0,12.25,2.25,20.5,16.5,20.5,8.25,0,13-3.5,16.5-11.5h3.75Z"/><path d="M547.04,267.35v2.5h-39.5v-20.25c-3.75,11.75-13.75,24.25-32.25,24.25-24.25,0-32.5-14.75-32.5-38.5v-57.75l-14-5.25v-2.5h50.25v2.5l-16,5.25v52.25c0,19.5,5,28,20.75,28s23.75-10.5,23.75-30v-50.25l-16.25-5.25v-2.5h54.25v2.5l-17.75,5v85l19.25,5Z"/><path d="M640.71,215.35h-71c1.75,25.25,14.75,40.5,36.5,40.5,16.25,0,25-4.5,30.5-17.5h4c-2.5,16.5-13.25,35.5-41.25,35.5-31.75,0-46.5-24.5-46.5-53.75s16.75-54.25,47.25-54.25,43.5,25,40.5,49.5Zm-19-7.5c0-18.75-7.25-34.5-25.75-34.5-16.25,0-26,12-26.5,34.5h52.25Z"/><path d="M758.71,216.85c0,32.75-14.5,57-47.75,57-16.75,0-28.75-6.5-37-18l-8.5,16.75h-3.5V114.6l-17.75-4.75v-2.5h72.25v2.5l-34.25,4v74.25c7-13.25,18.5-22.25,35-22.25,28.75,0,41.5,21.5,41.5,51Zm-19.25,3c0-25-9.75-39.75-29.25-39.75s-28,13.25-28,34.25v23.25c0,19.5,13.75,28.5,28.5,28.5,23.75,0,28.75-22.75,28.75-46.25Z"/><path d="M861.91,215.35h-71c1.75,25.25,14.75,40.5,36.5,40.5,16.25,0,25-4.5,30.5-17.5h4c-2.5,16.5-13.25,35.5-41.25,35.5-31.75,0-46.5-24.5-46.5-53.75s16.75-54.25,47.25-54.25,43.5,25,40.5,49.5Zm-19-7.5c0-18.75-7.25-34.5-25.75-34.5-16.25,0-26,12-26.5,34.5h52.25Z"/><path d="M951.16,165.85v36h-3.75c-3.5-11.25-8.25-15.75-16.75-15.75-15.25,0-20.25,17-20.25,35v41.25l27.5,5v2.5h-65.5v-2.5l17.75-5v-81.5h-17.75v-2.25l36.75-12.75v32.25c1.25-3.25,3-6.25,4.5-9.25,8-14,20.5-23,37.5-23Z"/><path d="M1039.79,165.85v36h-3.75c-3.5-11.25-8.25-15.75-16.75-15.75-15.25,0-20.25,17-20.25,35v41.25l27.5,5v2.5h-65.5v-2.5l17.75-5v-81.5h-17.75v-2.25l36.75-12.75v32.25c1.25-3.25,3-6.25,4.5-9.25,8-14,20.5-23,37.5-23Z"/><path d="M1155.56,172.35l-9,3.75-43.5,109c-14,38.75-20.25,50.25-34.5,50.25-3.75,0-8-.25-13-3v-34.25h3.75c5,21,9,24.25,14,24.25,6.75,0,12.25-13,21.25-37.25l4.25-11-41.75-98-11-3.75v-2.5h55.75v2.5l-22,4,.75,1.75,29,70.5,29-72.5-23.25-3.75v-2.5h40.25v2.5Z"/></g><g><path d="M280.36,432.59c-1.95,7.5-5.85,15-16.95,15s-17.25-5.4-17.25-17.1v-40.8h-12.6v-1.5c14.1-2.1,20.25-8.4,22.5-24h2.25v21h19.95v4.5h-19.95v37.5c0,7.35,1.35,12.3,9.9,12.3,4.95,0,7.8-2.1,9.9-6.9h2.25Z"/><path d="M342.16,412.49h-42.6c1.05,15.15,8.85,24.3,21.9,24.3,9.75,0,15-2.7,18.3-10.5h2.4c-1.5,9.9-7.95,21.3-24.75,21.3-19.05,0-27.9-14.7-27.9-32.25s10.05-32.55,28.35-32.55,26.1,15,24.3,29.7Zm-11.4-4.5c0-11.25-4.35-20.7-15.45-20.7-9.75,0-15.6,7.2-15.9,20.7h31.35Z"/><path d="M397.06,432.59c-1.95,7.5-5.85,15-16.95,15s-17.25-5.4-17.25-17.1v-40.8h-12.6v-1.5c14.1-2.1,20.25-8.4,22.5-24h2.25v21h19.95v4.5h-19.95v37.5c0,7.35,1.35,12.3,9.9,12.3,4.95,0,7.8-2.1,9.9-6.9h2.25Z"/><path d="M452.26,382.79v21.6h-2.25c-2.1-6.75-4.95-9.45-10.05-9.45-9.15,0-12.15,10.2-12.15,21v24.75l16.5,3v1.5h-39.3v-1.5l10.65-3v-48.9h-10.65v-1.35l22.05-7.65v19.35c.75-1.95,1.8-3.75,2.7-5.55,4.8-8.4,12.3-13.8,22.5-13.8Z"/><path d="M521.71,423.44h2.7v5.55c0,9.6-1.65,17.4-13.5,17.4-6.75,0-12.15-3-12.45-10.95-3,6.6-8.55,12.15-18.3,12.15-11.85,0-19.05-6.75-19.05-18.15,0-13.95,10.05-19.65,23.4-19.65,6,0,10.5,1.5,13.95,3.6v-11.55c0-9.3-2.1-14.4-11.7-14.4-8.4,0-12.45,4.8-16.35,18.3h-2.25v-20.55c7.05-1.5,14.7-2.4,20.4-2.4,16.35,0,22.05,6.75,22.05,21.15v28.8c0,4.2,1.35,6.6,4.95,6.6,4.5,0,6.15-3.6,6.15-11.4v-4.5Zm-23.25,1.2v-6.3c-3.15-2.55-7.5-4.2-12-4.2-8.55,0-13.65,4.5-13.65,12.9,0,7.35,4.2,11.7,12.15,11.7,10.95,0,13.5-8.4,13.5-14.1Z"/><path d="M585.46,426.29c-1.8,12.75-9.3,21.3-23.7,21.3-19.5,0-28.05-14.7-28.05-30.75,0-18.45,9.15-34.05,31.65-34.05,6.9,0,12.45,1.2,18,2.7l2.1,22.95-2.25,.3c-3.6-11.7-8.85-21.45-20.25-21.45-14.55,0-19.35,10.35-19.35,23.4s6.3,26.4,23.25,26.4c8.25,0,13.95-3.6,16.2-10.8h2.4Z"/><path d="M670.21,443.69v1.5h-33.3v-1.5l10.65-3v-30.3c0-9.45-1.8-17.85-13.95-17.85-8.1,0-15,4.8-15,20.4v27.75l10.5,3v1.5h-33.3v-1.5l10.65-3v-88.65l-10.65-2.85v-1.5h43.35v1.5l-20.55,2.4v45.75c4.65-9.75,12.45-14.55,21.15-14.55,13.35,0,19.95,8.85,19.95,22.2v35.7l10.5,3Z"/><path d="M725.56,382.79v21.6h-2.25c-2.1-6.75-4.95-9.45-10.05-9.45-9.15,0-12.15,10.2-12.15,21v24.75l16.5,3v1.5h-39.3v-1.5l10.65-3v-48.9h-10.65v-1.35l22.05-7.65v19.35c.75-1.95,1.8-3.75,2.7-5.55,4.8-8.4,12.3-13.8,22.5-13.8Z"/><path d="M734.41,415.34c0-19.2,11.25-32.4,32.25-32.4s30.3,14.25,30.3,32.4c0,19.2-11.25,32.4-31.5,32.4s-31.05-14.25-31.05-32.4Zm50.4,2.1c0-15.15-6.45-29.85-20.1-29.85s-18.15,11.55-18.15,25.65c0,15.3,6.45,29.85,20.1,29.85s18.15-10.5,18.15-25.65Z"/><path d="M923.86,443.84v1.5h-32.55v-1.5l9.9-3v-31.2c0-11.1-3.15-16.95-13.5-16.95s-14.55,8.85-14.55,19.8v28.35l10.8,3v1.5h-33.75v-1.5l10.8-3v-31.2c0-10.2-2.4-16.95-13.65-17.1-10.2-.15-14.4,7.8-14.55,19.2v28.95l10.5,3v1.5h-33.3v-1.5l10.65-3v-48.9h-11.4v-1.35l22.8-6.75v15.45c4.35-10.8,12.3-16.5,21.3-16.35,10.8,.15,17.4,6.15,19.2,16.05,4.35-10.05,11.7-15.9,21.15-15.9,12.9,0,19.65,8.85,19.65,22.2v35.7l10.5,3Z"/><path d="M993.76,423.44h2.7v5.55c0,9.6-1.65,17.4-13.5,17.4-6.75,0-12.15-3-12.45-10.95-3,6.6-8.55,12.15-18.3,12.15-11.85,0-19.05-6.75-19.05-18.15,0-13.95,10.05-19.65,23.4-19.65,6,0,10.5,1.5,13.95,3.6v-11.55c0-9.3-2.1-14.4-11.7-14.4-8.4,0-12.45,4.8-16.35,18.3h-2.25v-20.55c7.05-1.5,14.7-2.4,20.4-2.4,16.35,0,22.05,6.75,22.05,21.15v28.8c0,4.2,1.35,6.6,4.95,6.6,4.5,0,6.15-3.6,6.15-11.4v-4.5Zm-23.25,1.2v-6.3c-3.15-2.55-7.5-4.2-12-4.2-8.55,0-13.65,4.5-13.65,12.9,0,7.35,4.2,11.7,12.15,11.7,10.95,0,13.5-8.4,13.5-14.1Z"/><path d="M1047.31,432.59c-1.95,7.5-5.85,15-16.95,15s-17.25-5.4-17.25-17.1v-40.8h-12.6v-1.5c14.1-2.1,20.25-8.4,22.5-24h2.25v21h19.95v4.5h-19.95v37.5c0,7.35,1.35,12.3,9.9,12.3,4.95,0,7.8-2.1,9.9-6.9h2.25Z"/><path d="M1091.56,443.69v1.5h-36.6v-1.5l12.45-3v-48.9h-12.45v-1.35l24.6-6.75v57l12,3Zm-26.25-76.95c0-4.65,3.9-8.1,8.25-8.1s8.4,3.45,8.4,8.1-3.9,8.25-8.4,8.25-8.25-3.45-8.25-8.25Z"/><path d="M1152.31,426.29c-1.8,12.75-9.3,21.3-23.7,21.3-19.5,0-28.05-14.7-28.05-30.75,0-18.45,9.15-34.05,31.65-34.05,6.9,0,12.45,1.2,18,2.7l2.1,22.95-2.25,.3c-3.6-11.7-8.85-21.45-20.25-21.45-14.55,0-19.35,10.35-19.35,23.4s6.3,26.4,23.25,26.4c8.25,0,13.95-3.6,16.2-10.8h2.4Z"/></g><g><path d="M281.37,597.11c16.58,4.49,20.09,12.09,20.09,23.4,0,15.8-10.73,24.77-29.84,24.77-10.34,0-21.45-4.88-25.35-13.65v13.65h-3.9v-32.96h3.9v8.97c2.54,11.7,12.29,16.97,25.94,16.97,12.48,0,17.94-6.44,17.94-13.65,0-8.19-4.29-10.14-11.9-12.09l-16.19-4.29c-10.53-2.73-18.33-9.17-18.33-21.65,0-16.19,12.29-25.55,28.08-25.55,10.92,0,19.5,3.9,23.01,11.12v-10.14h3.9v32.96h-3.9v-12.29c-3.71-12.29-11.12-15.6-23.21-15.6-9.75,0-15.8,5.07-15.8,13.46,0,7.6,3.9,10.73,11.12,12.68l14.43,3.9Z"/><path d="M369.12,625.77c-2.54,9.75-7.61,19.5-22.04,19.5s-22.43-7.02-22.43-22.23v-53.04h-16.38v-1.95c18.33-2.73,26.33-10.92,29.25-31.2h2.92v27.3h25.94v5.85h-25.94v48.75c0,9.56,1.76,15.99,12.87,15.99,6.44,0,10.14-2.73,12.87-8.97h2.92Z"/><path d="M438.93,561.03v28.08h-2.93c-2.73-8.78-6.43-12.29-13.06-12.29-11.9,0-15.79,13.26-15.79,27.3v32.18l21.45,3.9v1.95h-51.09v-1.95l13.85-3.9v-63.57h-13.85v-1.75l28.67-9.95v25.16c.98-2.54,2.34-4.88,3.51-7.22,6.24-10.92,15.99-17.94,29.25-17.94Z"/><path d="M527.26,613.88h3.51v7.22c0,12.48-2.14,22.62-17.55,22.62-8.78,0-15.79-3.9-16.19-14.24-3.9,8.58-11.12,15.8-23.79,15.8-15.4,0-24.77-8.78-24.77-23.6,0-18.14,13.07-25.55,30.42-25.55,7.8,0,13.65,1.95,18.13,4.68v-15.02c0-12.09-2.73-18.72-15.21-18.72-10.92,0-16.19,6.24-21.26,23.79h-2.92v-26.72c9.16-1.95,19.11-3.12,26.52-3.12,21.26,0,28.67,8.78,28.67,27.5v37.44c0,5.46,1.76,8.58,6.44,8.58,5.85,0,8-4.68,8-14.82v-5.85Zm-30.23,1.56v-8.19c-4.1-3.32-9.75-5.46-15.6-5.46-11.12,0-17.75,5.85-17.75,16.77,0,9.56,5.46,15.21,15.79,15.21,14.24,0,17.55-10.92,17.55-18.33Z"/><path d="M646.41,566.1l-9.75,4.29-.2,.19-23.4,74.69h-1.95l-22.04-54.8-21.45,54.8h-2.15l-23.01-74.88-9.36-4.29v-1.95h41.73v1.95l-16.58,3.9,14.24,47.39,20.87-53.24h1.95l20.48,53.43,14.82-47.58-19.5-3.9v-1.95h35.29v1.95Z"/><path d="M739.03,600.81c0,25.55-11.31,44.46-37.25,44.46-13.07,0-22.43-5.07-28.86-14.04l-6.63,13.07h-2.73v-123.24l-13.85-3.71v-1.95h56.36v1.95l-26.72,3.12v57.92c5.46-10.34,14.43-17.36,27.3-17.36,22.43,0,32.37,16.77,32.37,39.78Zm-15.02,2.34c0-19.5-7.61-31.01-22.82-31.01s-21.84,10.34-21.84,26.72v18.14c0,15.21,10.72,22.23,22.23,22.23,18.53,0,22.43-17.75,22.43-36.08Z"/><path d="M823.08,599.64h-55.38c1.37,19.7,11.51,31.59,28.47,31.59,12.68,0,19.5-3.51,23.79-13.65h3.12c-1.95,12.87-10.34,27.69-32.18,27.69-24.77,0-36.27-19.11-36.27-41.93s13.06-42.32,36.86-42.32,33.93,19.5,31.59,38.61Zm-14.82-5.85c0-14.62-5.66-26.91-20.09-26.91-12.68,0-20.28,9.36-20.67,26.91h40.76Z"/><path d="M898.35,561.03v28.08h-2.93c-2.73-8.78-6.43-12.29-13.06-12.29-11.9,0-15.79,13.26-15.79,27.3v32.18l21.45,3.9v1.95h-51.09v-1.95l13.85-3.9v-63.57h-13.85v-1.75l28.67-9.95v25.16c.98-2.54,2.34-4.88,3.51-7.22,6.24-10.92,15.99-17.94,29.25-17.94Z"/><path d="M967.77,561.03v28.08h-2.93c-2.73-8.78-6.43-12.29-13.06-12.29-11.9,0-15.79,13.26-15.79,27.3v32.18l21.45,3.9v1.95h-51.09v-1.95l13.85-3.9v-63.57h-13.85v-1.75l28.67-9.95v25.16c.98-2.54,2.34-4.88,3.51-7.22,6.24-10.92,15.99-17.94,29.25-17.94Z"/><path d="M1022.95,640.2v1.95h-47.58v-1.95l16.19-3.9v-63.57h-16.19v-1.75l31.98-8.78v74.1l15.6,3.9Zm-34.12-100.04c0-6.04,5.07-10.53,10.72-10.53s10.92,4.49,10.92,10.53-5.07,10.73-10.92,10.73-10.72-4.49-10.72-10.73Z"/><path d="M1101.15,599.64h-55.38c1.37,19.7,11.51,31.59,28.47,31.59,12.68,0,19.5-3.51,23.79-13.65h3.12c-1.95,12.87-10.34,27.69-32.18,27.69-24.77,0-36.27-19.11-36.27-41.93s13.06-42.32,36.86-42.32,33.93,19.5,31.59,38.61Zm-14.82-5.85c0-14.62-5.66-26.91-20.09-26.91-12.68,0-20.28,9.36-20.67,26.91h40.76Z"/><path d="M1157.31,597.11c16.58,4.49,20.09,12.09,20.09,23.4,0,15.8-10.72,24.77-29.84,24.77-10.34,0-21.45-4.88-25.35-13.65v13.65h-3.9v-32.96h3.9v8.97c2.54,11.7,12.29,16.97,25.94,16.97,12.48,0,17.94-6.44,17.94-13.65,0-8.19-4.29-10.14-11.89-12.09l-16.19-4.29c-10.53-2.73-18.33-9.17-18.33-21.65,0-16.19,12.29-25.55,28.08-25.55,10.92,0,19.5,3.9,23.01,11.12v-10.14h3.9v32.96h-3.9v-12.29c-3.71-12.29-11.12-15.6-23.21-15.6-9.75,0-15.79,5.07-15.79,13.46,0,7.6,3.9,10.73,11.12,12.68l14.43,3.9Z"/></g><g><path class="cls-1" d="M86.13,722.85v5.13h-1.04v-1.81c-.48,1.18-1.45,1.98-3.06,1.98-2.61,0-4.36-2.07-4.36-5.12s1.74-5.13,4.33-5.13c1.93,0,3.35,.88,3.9,2.84h-1.23c-.42-1.17-1.23-1.81-2.68-1.81-1.86,0-3.16,1.56-3.16,4.1s1.27,4.08,3.2,4.08,2.97-1.27,2.98-3.24h-3.24v-1.04h4.36Z"/><path class="cls-1" d="M89.71,727.99h-1.15v-9.91h1.15v9.91Z"/><path class="cls-1" d="M95.74,723.65h-2.01v4.33h-1.16v-9.91h3.81c2.12,0,3.09,1.05,3.09,2.73,0,1.49-.77,2.49-2.49,2.71l2.99,4.46h-1.3l-2.94-4.33Zm-2.01-1.04h2.52c1.35,0,2.06-.66,2.06-1.81s-.74-1.69-2.09-1.69h-2.49v3.5Z"/><path class="cls-1" d="M107.13,725.26h-4.09l-.97,2.73h-1.23l3.66-9.91h1.24l3.54,9.91h-1.23l-.93-2.73Zm-.36-1.04l-1.65-4.87-1.72,4.87h3.38Z"/><path class="cls-1" d="M118.7,718.08v9.91h-1.75l-4.77-8.91v8.91h-1.09v-9.91h1.75l4.79,8.91v-8.91h1.08Z"/><path class="cls-1" d="M129.06,723.04c0,3.05-1.87,4.95-4.51,4.95h-2.98v-9.91h2.98c2.64,0,4.51,1.9,4.51,4.96Zm-1.16,0c0-2.48-1.3-3.92-3.53-3.92h-1.65v7.83h1.65c2.2,0,3.53-1.44,3.53-3.91Z"/><path class="cls-1" d="M132.63,719.13v3.27h4.69v1.04h-4.69v3.5h5.26v1.05h-6.41v-9.91h6.41v1.05h-5.26Z"/><path class="cls-1" d="M147.82,718.08v9.91h-1.75l-4.77-8.91v8.91h-1.09v-9.91h1.75l4.79,8.91v-8.91h1.08Z"/><path class="cls-1" d="M158.56,722.85v5.13h-1.04v-1.81c-.48,1.18-1.45,1.98-3.06,1.98-2.61,0-4.36-2.07-4.36-5.12s1.74-5.13,4.33-5.13c1.93,0,3.35,.88,3.9,2.84h-1.23c-.42-1.17-1.23-1.81-2.68-1.81-1.86,0-3.16,1.56-3.16,4.1s1.27,4.08,3.2,4.08,2.97-1.27,2.98-3.24h-3.24v-1.04h4.36Z"/><path class="cls-1" d="M160.4,723.04c0-3.06,1.76-5.13,4.32-5.13s4.32,2.07,4.32,5.13-1.76,5.12-4.32,5.12-4.32-2.07-4.32-5.12Zm7.48,0c0-2.54-1.24-4.1-3.16-4.1s-3.16,1.56-3.16,4.1,1.24,4.08,3.16,4.08,3.16-1.56,3.16-4.08Z"/><path class="cls-1" d="M182.48,723.04c0,3.05-1.87,4.95-4.51,4.95h-2.98v-9.91h2.98c2.64,0,4.51,1.9,4.51,4.96Zm-1.16,0c0-2.48-1.3-3.92-3.53-3.92h-1.65v7.83h1.65c2.2,0,3.53-1.44,3.53-3.91Z"/><path class="cls-1" d="M186.06,727.99h-1.15v-9.91h1.15v9.91Z"/><path class="cls-1" d="M188.19,725.04h1.22c.18,1.4,1.15,2.09,2.65,2.09,1.59,0,2.32-.74,2.32-1.71,0-.88-.55-1.39-1.63-1.65l-2.16-.51c-1.37-.32-2.11-1.21-2.11-2.51,0-1.6,1.27-2.84,3.32-2.84s3.43,.92,3.64,2.95h-1.22c-.18-1.31-1.08-1.91-2.45-1.91s-2.08,.73-2.08,1.66c0,.71,.34,1.21,1.41,1.47l2.09,.51c1.5,.37,2.39,1.24,2.39,2.66,0,1.74-1.27,2.92-3.54,2.92-2.43,0-3.68-1.12-3.87-3.12Z"/><path class="cls-1" d="M204.7,720.84c0,1.63-1.05,2.82-3.17,2.82h-2.57v4.33h-1.16v-9.91h3.83c2.12,0,3.08,1.05,3.08,2.76Zm-1.16,0c0-1.11-.64-1.72-2.11-1.72h-2.47v3.5h2.47c1.46,0,2.11-.71,2.11-1.78Z"/><path class="cls-1" d="M212.34,726.94v1.05h-5.63v-9.91h1.18v8.86h4.46Z"/><path class="cls-1" d="M219.33,725.26h-4.09l-.97,2.73h-1.23l3.66-9.91h1.24l3.54,9.91h-1.23l-.93-2.73Zm-.36-1.04l-1.65-4.87-1.72,4.87h3.38Z"/><path class="cls-1" d="M229.95,718.08l-3.32,5.88v4.03h-1.16v-4.03l-3.28-5.88h1.26l2.62,4.74,2.62-4.74h1.26Z"/></g><g><path class="cls-1" d="M1160.56,718.08l-3.77,9.91h-1.03l-3.68-9.91h1.23l2.98,8.37,3.04-8.37h1.23Z"/><path class="cls-1" d="M1163.43,719.13v3.27h4.69v1.04h-4.69v3.5h5.26v1.05h-6.41v-9.91h6.41v1.05h-5.26Z"/><path class="cls-1" d="M1174.18,723.65h-2.01v4.33h-1.16v-9.91h3.81c2.12,0,3.09,1.05,3.09,2.73,0,1.49-.77,2.49-2.49,2.71l2.99,4.46h-1.3l-2.94-4.33Zm-2.01-1.04h2.52c1.35,0,2.06-.66,2.06-1.81s-.74-1.69-2.09-1.69h-2.49v3.5Z"/><path class="cls-1" d="M1179.7,725.04h1.22c.18,1.4,1.15,2.09,2.65,2.09,1.59,0,2.32-.74,2.32-1.71,0-.88-.55-1.39-1.63-1.65l-2.16-.51c-1.37-.32-2.11-1.21-2.11-2.51,0-1.6,1.27-2.84,3.32-2.84s3.43,.92,3.64,2.95h-1.22c-.18-1.31-1.08-1.91-2.45-1.91s-2.08,.73-2.08,1.66c0,.71,.34,1.21,1.41,1.47l2.09,.51c1.5,.37,2.39,1.24,2.39,2.66,0,1.74-1.27,2.92-3.54,2.92-2.43,0-3.68-1.12-3.87-3.12Z"/><path class="cls-1" d="M1190.45,727.99h-1.15v-9.91h1.15v9.91Z"/><path class="cls-1" d="M1192.72,723.04c0-3.06,1.76-5.13,4.32-5.13s4.32,2.07,4.32,5.13-1.76,5.12-4.32,5.12-4.32-2.07-4.32-5.12Zm7.48,0c0-2.54-1.24-4.1-3.16-4.1s-3.16,1.56-3.16,4.1,1.24,4.08,3.16,4.08,3.16-1.56,3.16-4.08Z"/><path class="cls-1" d="M1211.25,718.08v9.91h-1.75l-4.77-8.91v8.91h-1.09v-9.91h1.75l4.79,8.91v-8.91h1.08Z"/><path class="cls-1" d="M1213.38,725.04h1.22c.18,1.4,1.15,2.09,2.65,2.09,1.59,0,2.32-.74,2.32-1.71,0-.88-.55-1.39-1.63-1.65l-2.16-.51c-1.37-.32-2.11-1.21-2.11-2.51,0-1.6,1.27-2.84,3.32-2.84s3.43,.92,3.64,2.95h-1.22c-.18-1.31-1.08-1.91-2.45-1.91s-2.08,.73-2.08,1.66c0,.71,.34,1.21,1.41,1.47l2.09,.51c1.5,.37,2.39,1.24,2.39,2.66,0,1.74-1.27,2.92-3.54,2.92-2.43,0-3.68-1.12-3.87-3.12Z"/><path class="cls-1" d="M1229.84,723.65h-2.01v4.33h-1.16v-9.91h3.81c2.12,0,3.09,1.05,3.09,2.73,0,1.49-.77,2.49-2.49,2.71l2.99,4.46h-1.3l-2.94-4.33Zm-2.01-1.04h2.52c1.35,0,2.06-.66,2.06-1.81s-.74-1.69-2.09-1.69h-2.49v3.5Z"/><path class="cls-1" d="M1237.23,719.13v3.27h4.69v1.04h-4.69v3.5h5.26v1.05h-6.41v-9.91h6.41v1.05h-5.26Z"/><path class="cls-1" d="M1252.68,722.85v5.13h-1.04v-1.81c-.48,1.18-1.45,1.98-3.06,1.98-2.61,0-4.36-2.07-4.36-5.12s1.74-5.13,4.33-5.13c1.93,0,3.35,.88,3.9,2.84h-1.23c-.42-1.17-1.23-1.81-2.68-1.81-1.86,0-3.16,1.56-3.16,4.1s1.27,4.08,3.2,4.08,2.97-1.27,2.98-3.24h-3.24v-1.04h4.36Z"/><path class="cls-1" d="M1262.66,724.13c0,2.68-1.49,4.03-3.83,4.03s-3.84-1.36-3.84-4.03v-6.05h1.15v6.05c0,1.94,1.08,2.95,2.71,2.95s2.67-.96,2.67-2.89v-6.11h1.15v6.05Z"/><path class="cls-1" d="M1271.05,726.94v1.05h-5.63v-9.91h1.18v8.86h4.46Z"/><path class="cls-1" d="M1278.04,725.26h-4.09l-.97,2.73h-1.23l3.66-9.91h1.24l3.54,9.91h-1.23l-.93-2.73Zm-.36-1.04l-1.65-4.87-1.72,4.87h3.38Z"/><path class="cls-1" d="M1285.17,723.65h-2.01v4.33h-1.16v-9.91h3.81c2.12,0,3.09,1.05,3.09,2.73,0,1.49-.77,2.49-2.49,2.71l2.99,4.46h-1.3l-2.94-4.33Zm-2.01-1.04h2.52c1.35,0,2.06-.66,2.06-1.81s-.74-1.69-2.09-1.69h-2.49v3.5Z"/></g><g><path class="cls-1" d="M88.96,175.33c0,3.11-2.53,5.6-5.63,5.6s-5.6-2.5-5.6-5.6,2.5-5.63,5.6-5.63,5.63,2.53,5.63,5.63Zm-10.08,0c0,2.46,1.98,4.45,4.45,4.45s4.48-1.99,4.48-4.45-2.02-4.48-4.48-4.48-4.45,2.02-4.45,4.48Z"/><path class="cls-1" d="M95.66,179.62h6.03v1.12h-7.39v-.46c0-1.6,.67-2.8,2.38-3.81l2.16-1.26c1.07-.62,1.49-1.31,1.49-2.26,0-1.14-.69-2.13-2.16-2.13s-2.35,.98-2.45,2.53h-1.31c.08-2.15,1.38-3.67,3.76-3.67,2.24,0,3.52,1.41,3.52,3.27,0,1.18-.37,2.18-2.11,3.22l-2.48,1.47c-.78,.46-1.3,1.06-1.44,1.99Z"/><path class="cls-1" d="M110.99,177.27c0,1.92-1.28,3.67-3.78,3.67-2.26,0-3.84-1.34-3.84-3.33h1.36c.06,1.33,1.01,2.19,2.5,2.19s2.42-1.12,2.42-2.56-.85-2.48-2.43-2.48c-.96,0-1.63,.4-2.02,1.07h-1.57l.42-5.95h6.4v1.12h-5.3l-.24,3.67c.54-.67,1.44-1.09,2.54-1.09,2.21,0,3.54,1.62,3.54,3.7Z"/><path class="cls-1" d="M112.5,175.33c0-3.28,1.6-5.65,4.34-5.65s4.34,2.37,4.34,5.65-1.6,5.6-4.34,5.6-4.34-2.32-4.34-5.6Zm7.35,0c0-2.72-1.06-4.47-3.01-4.47s-3.01,1.75-3.01,4.47,1.06,4.42,3.01,4.42,3.01-1.7,3.01-4.42Z"/><path class="cls-1" d="M135.47,172.9c0,1.79-1.23,3.09-3.71,3.09h-3.01v4.75h-1.36v-10.87h4.48c2.48,0,3.6,1.15,3.6,3.03Zm-1.36,0c0-1.22-.75-1.89-2.46-1.89h-2.9v3.84h2.9c1.71,0,2.46-.78,2.46-1.95Z"/><path class="cls-1" d="M144.86,171h-3.6v9.75h-1.34v-9.75h-3.62v-1.12h8.56v1.12Z"/></g><g><path class="cls-1" d="M88.96,386.33c0,3.11-2.53,5.6-5.63,5.6s-5.6-2.5-5.6-5.6,2.5-5.63,5.6-5.63,5.63,2.53,5.63,5.63Zm-10.08,0c0,2.46,1.98,4.45,4.45,4.45s4.48-1.99,4.48-4.45-2.02-4.48-4.48-4.48-4.45,2.02-4.45,4.48Z"/><path class="cls-1" d="M97.82,380.88v10.87h-1.38v-8.56c-.56,.51-1.3,.69-2.48,.69v-1.12c1.86-.06,2.42-.75,2.69-1.87h1.17Z"/><path class="cls-1" d="M107.71,388.27c0,1.92-1.28,3.67-3.78,3.67-2.26,0-3.84-1.34-3.84-3.33h1.36c.06,1.33,1.01,2.19,2.5,2.19s2.42-1.12,2.42-2.56-.85-2.48-2.43-2.48c-.96,0-1.63,.4-2.02,1.07h-1.57l.42-5.95h6.4v1.12h-5.3l-.24,3.67c.54-.67,1.44-1.09,2.54-1.09,2.21,0,3.54,1.62,3.54,3.7Z"/><path class="cls-1" d="M109.22,386.33c0-3.28,1.6-5.65,4.34-5.65s4.34,2.37,4.34,5.65-1.6,5.6-4.34,5.6-4.34-2.32-4.34-5.6Zm7.35,0c0-2.72-1.06-4.47-3.01-4.47s-3.01,1.75-3.01,4.47,1.06,4.42,3.01,4.42,3.01-1.7,3.01-4.42Z"/><path class="cls-1" d="M132.19,383.9c0,1.79-1.23,3.09-3.71,3.09h-3.01v4.75h-1.36v-10.87h4.48c2.48,0,3.6,1.15,3.6,3.03Zm-1.36,0c0-1.22-.75-1.89-2.46-1.89h-2.9v3.84h2.9c1.71,0,2.46-.78,2.46-1.95Z"/><path class="cls-1" d="M141.58,382h-3.6v9.75h-1.34v-9.75h-3.62v-1.12h8.56v1.12Z"/></g><g><path class="cls-1" d="M88.96,553.33c0,3.11-2.53,5.6-5.63,5.6s-5.6-2.5-5.6-5.6,2.5-5.63,5.6-5.63,5.63,2.53,5.63,5.63Zm-10.08,0c0,2.46,1.98,4.45,4.45,4.45s4.48-1.99,4.48-4.45-2.02-4.48-4.48-4.48-4.45,2.02-4.45,4.48Z"/><path class="cls-1" d="M95.66,557.62h6.03v1.12h-7.39v-.46c0-1.6,.67-2.8,2.38-3.81l2.16-1.26c1.07-.62,1.49-1.31,1.49-2.26,0-1.14-.69-2.13-2.16-2.13s-2.35,.98-2.45,2.53h-1.31c.08-2.15,1.38-3.67,3.76-3.67,2.24,0,3.52,1.41,3.52,3.27,0,1.18-.37,2.18-2.11,3.22l-2.48,1.47c-.78,.46-1.3,1.06-1.44,1.99Z"/><path class="cls-1" d="M111.18,555.21c0,2.22-1.5,3.73-3.76,3.73-3.12,0-4.02-2.77-4.02-5.71,0-3.87,2-5.54,4.18-5.54,2.03,0,3.14,1.01,3.43,2.79h-1.36c-.22-1.06-.88-1.63-2.07-1.63-1.82,0-2.85,1.71-2.85,4.07v.22c.53-.98,1.49-1.52,2.82-1.52,2.29,0,3.63,1.57,3.63,3.6Zm-1.33,0c0-1.28-.78-2.45-2.38-2.45s-2.5,1.17-2.5,2.45,.9,2.58,2.5,2.58,2.38-1.3,2.38-2.58Z"/><path class="cls-1" d="M112.81,553.33c0-3.28,1.6-5.65,4.34-5.65s4.34,2.37,4.34,5.65-1.6,5.6-4.34,5.6-4.34-2.32-4.34-5.6Zm7.35,0c0-2.72-1.06-4.47-3.01-4.47s-3.01,1.75-3.01,4.47,1.06,4.42,3.01,4.42,3.01-1.7,3.01-4.42Z"/><path class="cls-1" d="M135.77,550.9c0,1.79-1.23,3.09-3.71,3.09h-3.01v4.75h-1.36v-10.87h4.48c2.48,0,3.6,1.15,3.6,3.03Zm-1.36,0c0-1.22-.75-1.89-2.46-1.89h-2.9v3.84h2.9c1.71,0,2.46-.78,2.46-1.95Z"/><path class="cls-1" d="M145.16,549h-3.6v9.75h-1.34v-9.75h-3.62v-1.12h8.56v1.12Z"/></g></svg>