<?xml version="1.0" encoding="UTF-8"?>
<svg id="Layer_1" data-name="Layer 1" xmlns="http://www.w3.org/2000/svg" xmlns:xlink="http://www.w3.org/1999/xlink" viewBox="0 0 1366 768">
  <defs>
    <style>
      .cls-1 {
        clip-path: url(#clippath);
      }

      .cls-2 {
        fill: none;
      }

      .cls-2, .cls-3, .cls-4 {
        stroke-width: 0px;
      }

      .cls-3 {
        fill: #dde0e4;
      }

      .cls-4, .cls-5 {
        fill: #000;
      }
    </style>
    <clipPath id="clippath">
      <rect class="cls-4" x="-10" y="-10" width="1386" height="788"/>
    </clipPath>
  </defs>
  <g>
    <rect class="cls-5" x="-10" y="-10" width="1386" height="788"/>
    <g class="cls-1">
      <rect class="cls-4" x="-.35" y="-3.25" width="1366.71" height="779.89"/>
    </g>
  </g>
  <path class="cls-3" d="M1212.94,249.47c4.26,5.92,7.92,11.66,11,17.21,3.07,5.56,5.56,11.36,7.45,17.39,1.89,6.03,2.84,12.72,2.84,20.05,0,5.68-.65,11.06-1.95,16.15-1.3,5.09-3.32,9.46-6.03,13.13-2.72,3.67-6.09,6.56-10.11,8.69-4.03,2.13-8.87,3.19-14.55,3.19-4.26,0-8.22-.65-11.89-1.95-3.67-1.3-6.87-3.19-9.58-5.68-2.72-2.48-5.09-5.44-7.1-8.87-2.01-3.43-3.55-7.15-4.61-11.18-1.06-4.02-1.84-8.16-2.31-12.42h-1.42v28.39c2.6,2.13,5.68,4.26,9.23,6.39,3.55,2.13,7.63,3.85,12.24,5.15,4.61,1.3,9.99,1.95,16.15,1.95,7.57,0,14.43-1.19,20.58-3.55,6.15-2.36,11.47-5.85,15.97-10.47,4.49-4.61,7.86-10.23,10.11-16.86,2.24-6.62,3.37-14.19,3.37-22.71,0-8.04-.89-15.31-2.66-21.82-1.77-6.5-4.26-12.78-7.45-18.81-3.19-6.03-6.8-12-10.82-17.92l-29.81-46.49c-3.55-4.97-6.92-10.17-10.11-15.61-3.19-5.44-5.74-11.23-7.63-17.39-1.9-6.15-2.84-13.01-2.84-20.58,0-5.44.53-10.58,1.6-15.44,1.06-4.85,2.95-8.99,5.68-12.42,2.72-3.43,6.15-6.09,10.29-7.99,4.14-1.89,9.05-2.84,14.73-2.84,4.49,0,8.57.71,12.24,2.13,3.66,1.42,6.8,3.49,9.4,6.21,2.6,2.72,4.91,5.74,6.92,9.05,2.01,3.32,3.66,6.92,4.97,10.82,1.3,3.9,2.42,7.87,3.37,11.89h1.42v-27.68c-3.08-2.84-6.56-5.32-10.47-7.45-3.9-2.13-8.22-3.78-12.95-4.97-4.73-1.18-9.94-1.77-15.61-1.77-7.81,0-14.85,1.19-21.11,3.55-6.27,2.37-11.6,5.74-15.97,10.11-4.38,4.38-7.63,9.64-9.76,15.79-2.13,6.15-3.19,12.9-3.19,20.23,0,8.05.94,15.44,2.84,22.18,1.89,6.74,4.49,13.19,7.81,19.34,3.31,6.16,6.86,12.19,10.65,18.1l29.1,45.78ZM902.32,335.35c-1.3,4.26-3.73,7.22-7.28,8.87v1.42h28.74v-1.42c-5.68-.71-9.76-2.13-12.24-4.26-2.48-2.13-4.03-5.08-4.61-8.87-.59-3.78-.89-7.81-.89-12.07V103.97h-1.42l65.65,248.05h1.42l68.49-252.67v-2.13h-1.42l-63.52,233.15,5.68-20.58-56.07-212.57h-29.45v1.42c3.78,2.37,6.21,5.56,7.28,9.58,1.06,4.03,1.6,9.94,1.6,17.74v193.05c0,6.63-.65,12.07-1.95,16.33M1120.92,342.62c6.97-2.96,12.6-7.15,16.86-12.6,4.26-5.44,7.28-12.12,9.05-20.05,1.77-7.92,2.66-16.86,2.66-26.79V127.39c0-8.52.59-14.9,1.77-19.16,1.18-4.26,3.78-7.45,7.81-9.58v-1.42h-28.03v1.42c5.2.71,8.99,2.19,11.36,4.44,2.36,2.25,3.84,5.32,4.44,9.23.59,3.9.89,8.93.89,15.08v152.6c0,8.99-.71,17.03-2.13,24.13-1.42,7.1-3.85,13.31-7.27,18.63-3.43,5.32-7.87,9.46-13.31,12.42-5.44,2.96-12.3,4.44-20.58,4.44-6.39,0-12.07-.89-17.03-2.66-4.97-1.77-9.23-4.38-12.78-7.81-3.55-3.43-6.33-7.57-8.34-12.42-2.01-4.85-3.55-10.29-4.61-16.32-1.06-6.03-1.6-12.83-1.6-20.4v-149.4c0-6.15.18-11.29.53-15.44.35-4.14,1.24-7.51,2.66-10.11,1.42-2.6,3.55-4.73,6.39-6.39v-1.42h-30.52v185.6c0,8.28.71,15.74,2.13,22.36,1.42,6.63,3.49,12.54,6.21,17.74,2.72,5.21,6.39,9.64,11,13.31,4.61,3.67,9.99,6.39,16.15,8.16,6.15,1.77,13.13,2.66,20.94,2.66,9.94,0,18.39-1.47,25.37-4.44M870.98,92.61c-1.19.95-2.48,1.77-3.9,2.48-1.42.71-3.25,1.24-5.5,1.6-2.25.35-5.03.53-8.34.53h-72.75v1.42c3.78,2.37,6.21,5.62,7.28,9.76,1.06,4.14,1.6,10.59,1.6,19.34v187.37c0,8.76-.53,15.2-1.6,19.34-1.06,4.14-3.49,7.4-7.28,9.76v1.42h77.72c3.31,0,6.09.18,8.34.53,2.25.35,4.14.89,5.68,1.6,1.54.71,2.78,1.54,3.73,2.48h1.77l13.84-31.94-1.42-.36c-3.79,6.87-7.81,12.19-12.07,15.97-4.26,3.79-9.35,6.39-15.26,7.81-5.92,1.42-13.37,2.13-22.36,2.13h-30.16v-110.72h34.78c4.73,0,8.57.24,11.53.71,2.96.48,5.38,1.6,7.27,3.37,1.89,1.77,3.31,4.44,4.26,7.98h1.42v-25.9h-1.42c-.95,3.55-2.37,6.21-4.26,7.98-1.9,1.77-4.32,2.9-7.27,3.37-2.96.48-6.8.71-11.53.71h-34.78V99h33c10.17,0,17.68,1.19,22.53,3.55,4.85,2.37,9.05,6.98,12.6,13.84l1.42-.35-7.45-23.42h-1.42ZM735.31,342.62c6.97-2.96,12.54-7.15,16.68-12.6,4.14-5.44,7.1-12.12,8.87-20.05,1.77-7.92,2.66-16.86,2.66-26.79V127.39c0-8.52.59-14.9,1.77-19.16,1.18-4.26,3.9-7.45,8.16-9.58v-1.42h-28.39v1.42c5.2.71,8.99,2.19,11.36,4.44,2.36,2.25,3.84,5.32,4.44,9.23.59,3.9.89,8.93.89,15.08v152.6c0,8.99-.65,17.03-1.95,24.13-1.3,7.1-3.67,13.31-7.1,18.63-3.43,5.32-7.93,9.46-13.49,12.42-5.56,2.96-12.48,4.44-20.76,4.44-6.63,0-12.42-.89-17.39-2.66-4.97-1.77-9.11-4.38-12.42-7.81-3.32-3.43-6.03-7.57-8.16-12.42-2.13-4.85-3.67-10.29-4.61-16.32-.95-6.03-1.42-12.83-1.42-20.4v-149.4c0-6.15.18-11.29.53-15.44.35-4.14,1.18-7.51,2.48-10.11,1.3-2.6,3.25-4.73,5.85-6.39v-1.42h-39.04v1.42c2.6,1.66,4.55,3.79,5.86,6.39,1.3,2.61,2.13,5.98,2.48,10.11.35,4.14.53,9.29.53,15.44v152.24c0,8.28.71,15.74,2.13,22.36,1.42,6.63,3.55,12.54,6.39,17.74,2.84,5.21,6.5,9.64,11,13.31,4.49,3.67,9.76,6.39,15.79,8.16,6.03,1.77,13.07,2.66,21.11,2.66,10.17,0,18.75-1.47,25.73-4.44M496.84,338.54c-9.11-4.49-16.56-10.88-22.36-19.16-5.8-8.28-10.24-17.57-13.31-27.86-3.08-10.29-5.27-21.59-6.56-33.89-1.3-12.3-1.95-24.6-1.95-36.91s.65-24.6,1.95-36.91c1.3-12.3,3.49-23.65,6.56-34.07,3.07-10.41,7.51-19.69,13.31-27.86,5.79-8.16,13.25-14.49,22.36-18.99,9.1-4.49,20.28-6.74,33.53-6.74s24.13,2.25,33.36,6.74c9.23,4.5,16.73,10.82,22.53,18.99,5.79,8.16,10.29,17.45,13.49,27.86,3.19,10.41,5.38,21.77,6.56,34.07,1.18,12.3,1.77,24.61,1.77,36.91s-.59,24.61-1.77,36.91c-1.19,12.3-3.37,23.66-6.56,34.07-3.19,10.41-7.69,19.7-13.49,27.86-5.8,8.16-13.31,14.49-22.53,18.98-9.23,4.5-20.35,6.74-33.36,6.74s-24.43-2.24-33.53-6.74M572.07,340.14c11.71-4.61,21.41-11,29.1-19.16,7.68-8.16,13.78-17.62,18.28-28.39,4.49-10.76,7.69-22.3,9.58-34.6,1.89-12.3,2.84-24.72,2.84-37.26s-.95-25.25-2.84-37.44c-1.9-12.18-5.09-23.65-9.58-34.42-4.5-10.76-10.59-20.23-18.28-28.39-7.69-8.16-17.39-14.55-29.1-19.16-11.71-4.61-25.61-6.92-41.7-6.92s-29.99,2.31-41.7,6.92c-11.71,4.61-21.47,11-29.28,19.16-7.81,8.16-13.84,17.63-18.1,28.39-4.26,10.77-7.4,22.24-9.4,34.42-2.01,12.19-3.02,24.66-3.02,37.44s1,24.96,3.02,37.26c2.01,12.3,5.15,23.84,9.4,34.6,4.26,10.77,10.35,20.23,18.28,28.39,7.92,8.16,17.68,14.55,29.28,19.16,11.59,4.61,25.43,6.92,41.52,6.92s29.99-2.31,41.7-6.92M651.74,403.66c-11.36-1.77-22.12-4.38-32.29-7.81-10.17-3.43-19.52-7.75-28.03-12.95-8.52-5.21-15.85-11.18-22-17.92-6.15-6.74-11.12-14.26-14.9-22.53l-12.78,3.19-10.29-.36c4.97,9.7,11.41,18.1,19.34,25.2,7.92,7.1,16.97,13.13,27.15,18.1,10.17,4.97,20.99,8.99,32.47,12.07,11.47,3.07,23.3,5.32,35.49,6.74,12.18,1.42,24.31,2.13,36.37,2.13,10.17,0,20.41-.48,30.7-1.42,10.29-.95,20.46-2.43,30.52-4.44,10.05-2.01,19.81-4.38,29.28-7.1,9.46-2.72,18.33-5.92,26.62-9.58,8.28-3.67,15.97-7.87,23.07-12.6v-1.42c-8.76,5.44-18.34,10.23-28.74,14.37-10.41,4.14-21.41,7.69-33,10.65-11.59,2.96-23.6,5.08-36.02,6.39-12.42,1.3-25.02,1.95-37.79,1.95-12.07,0-23.78-.89-35.13-2.66M317.16,262.42c1.42,12.9,3.84,24.55,7.28,34.95,3.43,10.41,8.04,19.34,13.84,26.79,5.79,7.45,12.89,13.13,21.29,17.03,8.39,3.9,18.39,5.85,29.99,5.85,5.2,0,10.17-.41,14.9-1.24,4.73-.83,9.05-1.95,12.95-3.37,3.9-1.42,7.04-3.07,9.4-4.97v-26.97h-1.42c-.71,4.74-1.66,8.87-2.84,12.42-1.19,3.55-2.78,6.74-4.79,9.58-2.01,2.84-4.32,5.21-6.92,7.1-2.61,1.9-5.62,3.32-9.05,4.26-3.43.95-7.28,1.42-11.53,1.42-10.88,0-19.69-2.95-26.44-8.87-6.74-5.91-11.89-14.37-15.44-25.37-3.55-11-6.09-24.19-7.63-39.57-1.54-15.38-2.31-32.29-2.31-50.75s.65-35.66,1.95-50.92c1.3-15.26,3.78-28.39,7.45-39.39,3.66-11,8.81-19.46,15.44-25.37,6.62-5.91,15.26-8.87,25.91-8.87,4.73,0,8.93.71,12.6,2.13,3.66,1.42,6.92,3.49,9.76,6.21,2.84,2.72,5.32,5.74,7.45,9.05,2.13,3.32,3.84,6.92,5.15,10.82,1.3,3.9,2.54,7.87,3.73,11.89h1.42v-27.68c-3.08-2.84-6.74-5.32-11-7.45-4.26-2.13-8.87-3.78-13.84-4.97-4.97-1.18-9.94-1.77-14.9-1.77-11.59,0-21.65,1.95-30.16,5.86-8.52,3.9-15.61,9.58-21.29,17.03-5.68,7.45-10.24,16.39-13.66,26.79-3.43,10.41-5.86,22.06-7.28,34.96-1.42,12.9-2.13,26.79-2.13,41.7s.71,28.81,2.13,41.7M242.35,113.91l-50.04,206.89c-1.9,7.57-3.79,13.01-5.68,16.33-1.9,3.32-4.38,5.68-7.45,7.1v1.42h28.03v-1.42c-5.68-.71-9.53-2.13-11.53-4.26-2.01-2.13-3.02-4.97-3.02-8.52,0-1.65.18-3.55.53-5.68.35-2.13.89-4.61,1.6-7.45l49.33-204.76-1.77.35ZM211.48,247.34h65.3v-1.77h-65.3v1.77ZM288.13,323.28c.47,2.37.89,4.5,1.24,6.39.35,1.9.53,3.67.53,5.32,0,1.9-.48,3.73-1.42,5.5-.95,1.77-2.96,3.02-6.03,3.73v1.42h38.68v-1.42c-1.9-.71-3.55-1.89-4.97-3.55-1.42-1.65-2.61-3.96-3.55-6.92-.95-2.96-1.9-6.57-2.84-10.82l-51.1-228.18h-23.78v1.78c1.42,1.9,2.54,3.73,3.37,5.5.83,1.77,1.71,4.56,2.66,8.34l47.2,212.92ZM177.91,108.41c1.18-4.14,3.55-7.39,7.1-9.76v-1.42h-44v1.42c4.49,1.66,7.69,3.67,9.58,6.03,1.89,2.37,3.07,5.45,3.55,9.23.47,3.79.71,8.4.71,13.84v168.92c0,8.76-.42,16.86-1.24,24.31-.83,7.45-2.49,13.37-4.97,17.74-2.48,4.38-6.56,6.56-12.24,6.56-1.9,0-3.79-.35-5.68-1.06-1.9-.71-3.61-1.95-5.15-3.73-1.54-1.77-3.02-4.02-4.44-6.74-1.42-2.72-2.61-6.15-3.55-10.29-.95-4.14-1.77-9.05-2.48-14.73h-1.42v33c1.89.95,4.14,1.9,6.74,2.84,2.6.95,5.32,1.6,8.16,1.95,2.84.35,5.91.53,9.23.53,10.41,0,18.39-2.84,23.95-8.52,5.56-5.68,9.34-13.36,11.36-23.07,2.01-9.7,3.02-20.94,3.02-33.71V127.75c0-8.75.59-15.2,1.77-19.34"/>
  <path class="cls-3" d="M1015.84,687.59c7.11-3.01,12.78-7.29,17-12.84,4.22-5.54,7.24-12.36,9.04-20.44,1.81-8.08,2.71-17.18,2.71-27.31v-158.8c0-8.68.6-15.19,1.81-19.53,1.2-4.34,3.98-7.6,8.32-9.77v-1.45h-28.94v1.45c5.3.72,9.16,2.23,11.58,4.52,2.41,2.29,3.92,5.43,4.52,9.4.6,3.98.9,9.11.9,15.37v155.55c0,9.17-.67,17.36-1.99,24.6-1.33,7.23-3.74,13.57-7.24,18.99-3.5,5.43-8.08,9.65-13.75,12.66-5.67,3.02-12.72,4.52-21.16,4.52-6.75,0-12.66-.9-17.73-2.71-5.06-1.81-9.29-4.46-12.66-7.96-3.38-3.49-6.15-7.72-8.32-12.66-2.17-4.94-3.74-10.49-4.7-16.64-.97-6.15-1.45-13.08-1.45-20.8v-152.29c0-6.27.18-11.51.54-15.74.36-4.22,1.2-7.65,2.53-10.31,1.32-2.65,3.31-4.82,5.97-6.51v-1.45h-39.79v1.45c2.65,1.69,4.64,3.86,5.97,6.51,1.32,2.66,2.17,6.09,2.53,10.31.36,4.22.54,9.47.54,15.74v155.19c0,8.44.72,16.04,2.17,22.79,1.45,6.75,3.62,12.79,6.51,18.09,2.89,5.31,6.63,9.83,11.21,13.57,4.58,3.74,9.95,6.51,16.1,8.32,6.15,1.81,13.32,2.71,21.52,2.71,10.37,0,19.11-1.5,26.23-4.52M876.75,395.48c3.85,2.41,6.33,5.67,7.42,9.77,1.08,4.1,1.63,10.62,1.63,19.53v234.77c0,8.92-.54,15.5-1.63,19.72-1.09,4.22-3.56,7.54-7.42,9.95v1.45h39.43v-1.45c-3.62-2.41-6.03-5.73-7.24-9.95-1.21-4.22-1.81-10.79-1.81-19.72v-234.77c0-8.92.6-15.43,1.81-19.53,1.2-4.1,3.74-7.35,7.6-9.77v-1.45h-39.79v1.45ZM746.34,680.18c-1.33,4.34-3.8,7.36-7.42,9.04v1.45h29.3v-1.45c-5.79-.72-9.95-2.17-12.48-4.34-2.53-2.17-4.1-5.18-4.7-9.04-.6-3.86-.9-7.96-.9-12.3v-219.22h-1.45l66.92,252.86h1.45l69.82-257.56v-2.17h-1.45l-64.75,237.67,5.79-20.98-57.16-216.68h-30.02v1.45c3.86,2.41,6.33,5.67,7.42,9.77,1.09,4.1,1.63,10.13,1.63,18.09v196.79c0,6.75-.67,12.3-1.99,16.64M644.97,687.59c7.11-3.01,12.78-7.29,17-12.84,4.22-5.54,7.24-12.36,9.04-20.44,1.81-8.08,2.71-17.18,2.71-27.31v-158.8c0-8.68.6-15.19,1.81-19.53,1.2-4.34,3.98-7.6,8.32-9.77v-1.45h-28.94v1.45c5.3.72,9.16,2.23,11.58,4.52,2.41,2.29,3.92,5.43,4.52,9.4.6,3.98.9,9.11.9,15.37v155.55c0,9.17-.67,17.36-1.99,24.6-1.33,7.23-3.74,13.57-7.24,18.99-3.5,5.43-8.08,9.65-13.75,12.66-5.67,3.02-12.72,4.52-21.16,4.52-6.75,0-12.66-.9-17.73-2.71-5.06-1.81-9.29-4.46-12.66-7.96-3.38-3.49-6.15-7.72-8.32-12.66-2.17-4.94-3.74-10.49-4.7-16.64-.97-6.15-1.45-13.08-1.45-20.8v-152.29c0-6.27.18-11.51.54-15.74.36-4.22,1.2-7.65,2.53-10.31,1.32-2.65,3.31-4.82,5.97-6.51v-1.45h-39.79v1.45c2.65,1.69,4.64,3.86,5.97,6.51,1.32,2.66,2.17,6.09,2.53,10.31.36,4.22.54,9.47.54,15.74v155.19c0,8.44.72,16.04,2.17,22.79,1.45,6.75,3.62,12.79,6.51,18.09,2.89,5.31,6.63,9.83,11.21,13.57,4.58,3.74,9.95,6.51,16.1,8.32,6.15,1.81,13.32,2.71,21.52,2.71,10.37,0,19.11-1.5,26.23-4.52M501.55,438.89c3.85,2.41,6.33,5.73,7.42,9.95,1.08,4.22,1.63,10.8,1.63,19.72v191c0,8.92-.54,15.5-1.63,19.72-1.09,4.22-3.56,7.54-7.42,9.95v1.45h39.43v-1.45c-3.62-2.41-6.03-5.73-7.24-9.95-1.21-4.22-1.81-10.79-1.81-19.72v-191c0-8.92.6-15.49,1.81-19.72,1.2-4.22,3.74-7.53,7.6-9.95v-1.45h-39.79v1.45ZM311.63,437.45v1.45c3.86,2.41,6.33,5.67,7.42,9.77,1.09,4.1,1.63,10.13,1.63,18.09v196.79c0,6.75-.67,12.3-1.99,16.64-1.33,4.34-3.8,7.36-7.42,9.04v1.45h29.3v-1.45c-5.79-.72-9.95-2.17-12.48-4.34-2.53-2.17-4.1-5.18-4.7-9.04-.6-3.86-.9-7.96-.9-12.3v-219.22h-1.45l69.09,252.86h1.45l67.29-256.11h-1.09v218.49c0,8.92-.6,15.5-1.81,19.72-1.21,4.22-3.74,7.54-7.6,9.95v1.45h40.52v-1.45c-3.86-2.41-6.39-5.73-7.6-9.95-1.21-4.22-1.81-10.79-1.81-19.72v-191c0-8.92.6-15.49,1.81-19.72,1.2-4.22,3.74-7.53,7.6-9.95v-1.45h-31.11l-62.22,236.22,5.43-18.45-59.33-217.77h-30.02Z"/>
  <rect class="cls-2" x="124.35" y="92.61" width="1138.65" height="604.56"/>
</svg>