<?xml version="1.0" encoding="UTF-8"?><svg id="Layer_1" xmlns="http://www.w3.org/2000/svg" viewBox="0 0 1366 768"><defs><style>.cls-1{fill:#fdfaf5;}.cls-2{fill:#12100b;}</style></defs><rect class="cls-2" x="-40.27" y="-79.94" width="1446.07" height="930.38"/><g><path class="cls-1" d="M160.52,379c0,22.8-17.68,40.6-51.58,40.6-16.22,0-32.86-3.8-46.17-10.8l-1.46-36.8h10.61c3.12,11.2,6.03,19.8,9.15,26.6,7.49,5.8,17.47,8.2,28.5,8.2,17.68,0,30.37-8.6,30.37-25,0-11-7.49-19.2-20.38-25l-32.65-14.8c-16.22-7.4-25.38-18.2-25.38-36,0-22.4,19.13-37.2,44.72-37.2,13.1,0,23.5,2.6,32.45,7.8,.83-2.6,1.25-5,1.25-7.8h12.06l.62,41.2h-10.61c-1.66-5.6-4.37-14-7.28-20.4-8.11-6.2-16.43-8.2-26.41-8.2-16.85,0-26.62,6.6-26.62,19.2,0,9.4,6.66,15.6,14.56,19.4l36.4,17.8c17.06,8.4,27.87,21.2,27.87,41.2Zm-73.63,29.6l-.83-1.2c.42,.4,.62,.8,.83,1.2Z"/><path class="cls-1" d="M313.69,281.8l-15.18,1.8v83.8c-.21,33-19.55,52-54.29,52s-59.69-15.2-59.9-52v-83.8l-16.02-1.8v-10h52.62v10l-15.18,1.8v83.2c0,23.4,13.52,38,42.64,38,23.92,0,37.85-11.4,37.85-36.8v-84.4l-16.02-1.8v-10h43.47v10Z"/><path class="cls-1" d="M460.46,407l-5.82,9.4c-35.36-14.2-57.82-37.8-72.59-64.8h-20.59v53l17.47,1.8v10h-54.91v-10l16.02-1.8v-121l-15.81-1.8v-10h65.1c35.15,0,56.16,14,56.16,39,0,21.2-16.85,34-38.48,38.6,11.86,23.6,28.08,41.2,53.46,57.6Zm-77.37-67.2c24.96,0,38.89-9.6,38.89-29,0-18.4-16.43-27-39.93-27-3.74,0-13.1,0-20.59-.2v56.2h21.63Z"/><path class="cls-1" d="M506.43,351.6v53l21.42,1.8v10h-58.86v-10l16.02-1.8v-121l-15.81-1.8v-10h60.94c31.82,0,56.37,12,56.37,39s-24.33,40.8-60.32,40.8h-19.76Zm0-68v56.2h16.64c27.46,0,41.81-8.2,41.81-29s-18.1-27.2-42.01-27.2h-16.43Z"/><path class="cls-1" d="M709.62,382.4l-12.27,34h-105.24v-10l15.81-1.8v-121l-16.02-1.8v-10h52.62v10l-15.18,1.8v121h35.57c17.26,0,28.29-9.4,36.19-25.8l8.53,3.6Z"/><path class="cls-1" d="M853.14,281.8l-15.18,1.8v83.8c-.21,33-19.55,52-54.29,52s-59.69-15.2-59.9-52v-83.8l-16.02-1.8v-10h52.62v10l-15.18,1.8v83.2c0,23.4,13.52,38,42.64,38,23.92,0,37.85-11.4,37.85-36.8v-84.4l-16.02-1.8v-10h43.47v10Z"/><path class="cls-1" d="M963.29,379c0,22.8-17.68,40.6-51.58,40.6-16.22,0-32.86-3.8-46.17-10.8l-1.46-36.8h10.61c3.12,11.2,6.03,19.8,9.15,26.6,7.49,5.8,17.47,8.2,28.5,8.2,17.68,0,30.37-8.6,30.37-25,0-11-7.49-19.2-20.38-25l-32.65-14.8c-16.22-7.4-25.38-18.2-25.38-36,0-22.4,19.13-37.2,44.72-37.2,13.1,0,23.5,2.6,32.45,7.8,.83-2.6,1.25-5,1.25-7.8h12.06l.62,41.2h-10.61c-1.66-5.6-4.37-14-7.28-20.4-8.11-6.2-16.43-8.2-26.42-8.2-16.85,0-26.62,6.6-26.62,19.2,0,9.4,6.66,15.6,14.56,19.4l36.4,17.8c17.06,8.4,27.87,21.2,27.87,41.2Zm-73.63,29.6l-.83-1.2c.42,.4,.62,.8,.83,1.2Z"/></g><g><path class="cls-1" d="M203.58,222.4v10h-54.91v-10l16.02-1.8-13.31-32.2h-61.57l-12.06,32.2,17.68,1.8v10H50.08v-10l15.18-1.8L115.18,87.8h16.64l57.2,132.8,14.56,1.8Zm-57.82-47.4l-27.04-64.2-23.92,64.2h50.96Z"/><path class="cls-1" d="M219.93,222.4c0-7.4,6.03-13.2,13.52-13.2s13.73,5.8,13.73,13.2-6.03,13-13.73,13-13.52-5.8-13.52-13Z"/><path class="cls-1" d="M393.38,191c0,27.4-22.67,41.4-59.28,41.4h-66.97v-10l15.39-1.8V99.6l-15.39-1.8v-10h56.57c26.83,0,60.73,6,60.73,34,0,21-18.3,28.6-29.33,31.8,21.21,4.4,38.27,16,38.27,37.4Zm-89.64-91.2v50h22.05c19.97,0,34.74-8.2,34.74-25.6s-15.18-24.4-34.32-24.4h-22.46Zm65.73,90.6c0-19-14.56-28.8-37.65-28.8h-28.08v59h25.17c26.21,0,40.56-10.4,40.56-30.2Z"/><path class="cls-1" d="M411.87,222.4c0-7.4,6.03-13.2,13.52-13.2s13.73,5.8,13.73,13.2-6.03,13-13.73,13-13.52-5.8-13.52-13Z"/><path class="cls-1" d="M582.41,205.2c-10.19,16.2-29.54,30.4-56.16,30.4-45.34,0-74.25-33.2-74.25-75.6s29.12-75,75.08-75c11.44,0,23.3,2,34.53,8.6l-1.66-8.8,12.06-1.8,8.74,39.4-13.31,2.8c-8.11-18-19.97-29-43.05-29-34.94,0-48.88,29.6-48.88,64.2s19.76,60,54.08,60c19.14,0,32.66-8.2,43.89-21.4l8.94,6.2Z"/><path class="cls-1" d="M602.96,222.4c0-7.4,6.03-13.2,13.52-13.2s13.73,5.8,13.73,13.2-6.03,13-13.73,13-13.52-5.8-13.52-13Z"/></g><g><path class="cls-1" d="M961.01,635.6c0-9.8,8.53-13.5,17.16-13.5,6.76,0,9.78,.7,16.33,2v15.5h-4.79c-1.04-6.9-3.85-12.4-11.86-12.4-4.79,0-7.7,2.6-7.7,6.5,0,3.6,2.6,5.7,5.93,7.4l10.71,5.4c6.76,3.4,11.03,7.7,11.03,14,0,9.2-6.34,14.8-18.41,14.8-5.93,0-11.65-1.2-18.1-3.4v-15.3h4.68c.73,10.2,6.03,13.1,12.58,13.1,5.82,0,9.98-2.3,9.98-7,0-3.8-2.29-5.2-6.86-7.5l-10.4-5.1c-5.72-2.8-10.3-7.3-10.3-14.5Z"/><path class="cls-1" d="M1061.98,659.5v5.9l-15.91,10h-1.98v-9h-1.04c-4.47,4.4-10.71,8.9-18.1,8.9-10.3,0-15.29-7-15.29-16.1v-23.7l-8.11-.4v-2.9l15.91-10h3.02v33.2c0,7.6,2.91,12,10.82,12,4.06,0,8.22-2.4,11.65-5.6v-26.3l-8.11-.4v-2.9l15.91-10h3.02v42l8.22-4.7Z"/><path class="cls-1" d="M1108.97,631l-9.26,7.2c-2.29-3.8-3.43-5.4-5.93-5.4s-4.89,3.2-9.26,9.6v25.4l8.63,.9v5h-27.35v-5l8.01-.9v-32.3l-8.22-.4v-2.9l15.91-10h3.02v13.4h.83c4.58-6.7,8.84-13.5,14.14-13.5,4.47,0,6.76,4,9.46,8.9Z"/><path class="cls-1" d="M1171.14,647.5c0,17.2-11.23,27.7-23.71,27.7-5.82,0-10.82-2.5-14.66-5.4v20.7l8.63,.9v5h-27.35v-5l8.01-.9v-55l-8.22-.4v-2.9l15.91-10h3.02v10.2h.73c3.95-5.7,9.05-10.3,16.54-10.3,13.21,0,21.11,13.2,21.11,25.4Zm-10.61,2.6c0-11-4.26-20.2-14.14-20.2-6.24,0-10.82,4.4-13.62,8.6v24c3.74,4.1,8.01,6.3,13.31,6.3,9.98,0,14.46-8.3,14.46-18.7Z"/><path class="cls-1" d="M1200.5,668.7v5h-26.31v-5l8.01-.9v-54.8l-8.32-1v-3l20.59-11,3.43,5.5-4.99,3v61.3l7.59,.9Z"/><path class="cls-1" d="M1262.16,659.5v5.9l-15.91,10h-1.98v-9h-1.04c-4.47,4.4-10.71,8.9-18.1,8.9-10.3,0-15.29-7-15.29-16.1v-23.7l-8.11-.4v-2.9l15.91-10h3.02v33.2c0,7.6,2.91,12,10.82,12,4.06,0,8.22-2.4,11.65-5.6v-26.3l-8.11-.4v-2.9l15.91-10h3.02v42l8.22-4.7Z"/><path class="cls-1" d="M1267.75,635.6c0-9.8,8.53-13.5,17.16-13.5,6.76,0,9.78,.7,16.33,2v15.5h-4.78c-1.04-6.9-3.85-12.4-11.86-12.4-4.78,0-7.7,2.6-7.7,6.5,0,3.6,2.6,5.7,5.93,7.4l10.71,5.4c6.76,3.4,11.02,7.7,11.02,14,0,9.2-6.34,14.8-18.41,14.8-5.93,0-11.65-1.2-18.1-3.4v-15.3h4.68c.73,10.2,6.03,13.1,12.58,13.1,5.82,0,9.98-2.3,9.98-7,0-3.8-2.29-5.2-6.86-7.5l-10.4-5.1c-5.72-2.8-10.3-7.3-10.3-14.5Z"/></g><g><path class="cls-1" d="M1117.6,566.9v4.8c-2.18,.9-3.95,1.8-6.87,1.8-4.37,0-7.8-2-9.36-6.2h-1.25c-4.26,4-9.78,7-16.22,7-9.67,0-14.46-6.2-14.46-13.3s5.82-11,12.17-13.1c5.41-1.8,11.75-3.7,18.51-5.6v-5.8c0-6.7-3.74-10.1-9.88-10.1-4.26,0-7.59,1.5-7.59,5.4,0,1.4,.62,3.2,1.66,4.4l-10.82,2.2c-.94-1.6-1.25-3.3-1.25-5.1,0-7.3,8.84-12.2,19.03-12.2,12.48,0,19.66,3.9,19.66,14.7v26.9c0,2.6,.73,5,3.22,5,1.25,0,2.29-.3,3.43-.8Zm-17.47-5.2v-14.4c-4.79,1.3-9.26,2.6-12.79,3.8-5.2,1.7-7.07,5-7.07,8.7,0,5.1,4.26,7.9,8.94,7.9s8.22-2.7,10.92-6Z"/><path class="cls-1" d="M1126.09,567.7c0-3.7,3.02-6.6,6.76-6.6s6.86,2.9,6.86,6.6-3.02,6.5-6.86,6.5-6.76-2.9-6.76-6.5Z"/><path class="cls-1" d="M1201.95,546c0,14.7-9.98,28.3-26,28.3-7.8,0-14.56-1.1-22.88-2.6v-59.7l-8.32-1v-3l20.59-11,3.43,5.5-4.99,3v26.7h.83c3.12-5.7,8.84-11.1,16.54-11.1,13.83,0,20.8,12.9,20.8,24.9Zm-10.82,2.5c0-9.7-4.26-19.7-13.42-19.7-6.24,0-10.82,4.3-13.94,10.8v23c3.02,3.7,8.11,6.1,13.31,6.1,9.67,0,14.04-9.5,14.04-20.2Z"/><path class="cls-1" d="M1208.77,567.7c0-3.7,3.02-6.6,6.76-6.6s6.86,2.9,6.86,6.6-3.02,6.5-6.86,6.5-6.76-2.9-6.76-6.5Z"/><path class="cls-1" d="M1255.53,527c-9.57,0-15.7,8.2-15.7,18.5s5.93,20.7,19.14,20.7c6.03,0,10.61-2.4,14.25-6.5l3.33,1.8c-2.6,6.7-9.46,12.8-21.22,12.8-15.18,0-25.38-11.2-25.38-25.2,0-15.3,10.19-27.9,27.35-27.9,5.72,0,11.02,1.4,14.77,4.3,2.18,1.7,3.74,4.4,3.74,6.9,0,2.8-1.77,4.7-4.26,4.7-2.81,0-4.47-1.2-5.62-3.7-1.66-3.7-4.89-6.4-10.4-6.4Z"/><path class="cls-1" d="M1285.22,567.7c0-3.7,3.02-6.6,6.76-6.6s6.86,2.9,6.86,6.6-3.02,6.5-6.86,6.5-6.76-2.9-6.76-6.5Z"/></g><g><path class="cls-1" d="M197.69,732.16c0,2.72-2.21,4.9-4.93,4.9s-4.9-2.19-4.9-4.9,2.19-4.93,4.9-4.93,4.93,2.21,4.93,4.93Zm-.83,0c0-2.26-1.85-4.1-4.1-4.1s-4.08,1.85-4.08,4.1,1.82,4.08,4.08,4.08,4.1-1.82,4.1-4.08Zm-1.02,.04c0,1.68-1.29,3.04-3.08,3.04s-3.08-1.36-3.08-3.04h.49c.31,1.5,1.33,2.23,2.59,2.23s2.28-.73,2.59-2.23h.49Zm-4.8-1.68c0-.55,.18-.97,.52-.97s.48,.42,.48,.97-.15,.99-.48,.99-.52-.45-.52-.99Zm2.45,0c0-.55,.15-.97,.48-.97s.52,.42,.52,.97-.18,.99-.52,.99-.48-.45-.48-.99Z"/><path class="cls-1" d="M206.97,732.74h-2.06v4.16h-1.19v-9.51h3.91c2.17,0,3.17,1.01,3.17,2.62,0,1.43-.78,2.4-2.55,2.61l3.07,4.29h-1.33l-3.01-4.16Zm-2.06-.99h2.58c1.39,0,2.12-.63,2.12-1.74s-.76-1.62-2.14-1.62h-2.55v3.36Z"/><path class="cls-1" d="M214.36,728.39v3.14h4.8v1h-4.8v3.36h5.39v1.01h-6.57v-9.51h6.57v1.01h-5.39Z"/><path class="cls-1" d="M227.64,734.28h-4.19l-.99,2.62h-1.26l3.75-9.51h1.27l3.63,9.51h-1.26l-.95-2.62Zm-.36-1l-1.7-4.68-1.76,4.68h3.46Z"/><path class="cls-1" d="M239.29,732.15c0,2.93-1.92,4.75-4.62,4.75h-3.05v-9.51h3.05c2.7,0,4.62,1.82,4.62,4.76Zm-1.19,0c0-2.38-1.33-3.77-3.61-3.77h-1.7v7.52h1.7c2.26,0,3.61-1.39,3.61-3.75Z"/><path class="cls-1" d="M242.77,728.39v3.14h4.8v1h-4.8v3.36h5.39v1.01h-6.57v-9.51h6.57v1.01h-5.39Z"/><path class="cls-1" d="M253.47,732.74h-2.06v4.16h-1.19v-9.51h3.91c2.17,0,3.17,1.01,3.17,2.62,0,1.43-.78,2.4-2.55,2.61l3.07,4.29h-1.33l-3.01-4.16Zm-2.06-.99h2.58c1.39,0,2.12-.63,2.12-1.74s-.76-1.62-2.14-1.62h-2.55v3.36Z"/><path class="cls-1" d="M266.87,732.74h-2.06v4.16h-1.19v-9.51h3.91c2.17,0,3.17,1.01,3.17,2.62,0,1.43-.79,2.4-2.55,2.61l3.07,4.29h-1.33l-3.01-4.16Zm-2.06-.99h2.58c1.39,0,2.12-.63,2.12-1.74s-.76-1.62-2.14-1.62h-2.55v3.36Z"/><path class="cls-1" d="M272.44,732.15c0-2.94,1.81-4.93,4.43-4.93s4.43,1.99,4.43,4.93-1.81,4.92-4.43,4.92-4.43-1.99-4.43-4.92Zm7.66,0c0-2.44-1.28-3.94-3.24-3.94s-3.24,1.5-3.24,3.94,1.28,3.92,3.24,3.92,3.24-1.5,3.24-3.92Z"/><path class="cls-1" d="M293.18,727.38v9.51h-1.19v-8.47l-3.22,8.47h-.77l-3.26-8.49v8.49h-1.19v-9.51h1.93l2.9,7.63,2.9-7.63h1.9Z"/><path class="cls-1" d="M301.36,734.28h-4.19l-1,2.62h-1.26l3.75-9.51h1.28l3.63,9.51h-1.26l-.95-2.62Zm-.36-1l-1.7-4.68-1.77,4.68h3.46Z"/><path class="cls-1" d="M313.14,727.38v9.51h-1.79l-4.89-8.56v8.56h-1.12v-9.51h1.79l4.9,8.56v-8.56h1.11Z"/></g><g><path class="cls-1" d="M225.2,51.16c0,2.72-2.21,4.9-4.93,4.9s-4.9-2.19-4.9-4.9,2.18-4.93,4.9-4.93,4.93,2.21,4.93,4.93Zm-.83,0c0-2.26-1.85-4.1-4.1-4.1s-4.08,1.85-4.08,4.1,1.82,4.08,4.08,4.08,4.1-1.82,4.1-4.08Zm-1.02,.04c0,1.68-1.29,3.04-3.08,3.04s-3.08-1.36-3.08-3.04h.49c.31,1.5,1.33,2.23,2.59,2.23s2.28-.73,2.59-2.23h.49Zm-4.8-1.68c0-.55,.18-.97,.52-.97s.48,.42,.48,.97-.15,.99-.48,.99-.52-.45-.52-.99Zm2.45,0c0-.55,.15-.97,.48-.97s.52,.42,.52,.97-.18,.99-.52,.99-.48-.45-.48-.99Z"/><path class="cls-1" d="M231.76,54.92h5.28v.98h-6.47v-.41c0-1.4,.59-2.45,2.09-3.33l1.89-1.11c.94-.55,1.3-1.15,1.3-1.97,0-1-.6-1.86-1.89-1.86s-2.06,.85-2.14,2.21h-1.15c.07-1.88,1.21-3.21,3.29-3.21,1.96,0,3.08,1.23,3.08,2.86,0,1.04-.32,1.9-1.85,2.82l-2.17,1.29c-.69,.41-1.13,.92-1.26,1.74Z"/><path class="cls-1" d="M238.75,51.16c0-2.87,1.4-4.95,3.8-4.95s3.8,2.07,3.8,4.95-1.4,4.9-3.8,4.9-3.8-2.03-3.8-4.9Zm6.43,0c0-2.38-.92-3.91-2.63-3.91s-2.63,1.53-2.63,3.91,.92,3.87,2.63,3.87,2.63-1.49,2.63-3.87Z"/><path class="cls-1" d="M248.16,51.16c0-2.87,1.4-4.95,3.79-4.95s3.8,2.07,3.8,4.95-1.4,4.9-3.8,4.9-3.79-2.03-3.79-4.9Zm6.43,0c0-2.38-.92-3.91-2.63-3.91s-2.63,1.53-2.63,3.91,.92,3.87,2.63,3.87,2.63-1.49,2.63-3.87Z"/><path class="cls-1" d="M268.95,49.03c0,1.57-1.08,2.7-3.25,2.7h-2.63v4.16h-1.19v-9.51h3.92c2.17,0,3.15,1.01,3.15,2.65Zm-1.19,0c0-1.07-.66-1.65-2.16-1.65h-2.54v3.36h2.54c1.5,0,2.16-.69,2.16-1.71Z"/><path class="cls-1" d="M277.64,47.37h-3.15v8.53h-1.18v-8.53h-3.17v-.98h7.49v.98Z"/><path class="cls-1" d="M278.72,53.07h1.25c.18,1.34,1.18,2,2.72,2,1.62,0,2.38-.71,2.38-1.64,0-.84-.56-1.33-1.67-1.58l-2.21-.49c-1.4-.31-2.16-1.16-2.16-2.41,0-1.54,1.3-2.73,3.4-2.73s3.52,.88,3.73,2.83h-1.25c-.18-1.26-1.11-1.83-2.51-1.83s-2.13,.7-2.13,1.6c0,.69,.35,1.16,1.44,1.42l2.14,.49c1.54,.35,2.45,1.19,2.45,2.55,0,1.67-1.3,2.8-3.63,2.8-2.49,0-3.77-1.08-3.96-3Z"/></g><g><path class="cls-1" d="M1061.69,732.16c0,2.72-2.21,4.9-4.93,4.9s-4.9-2.19-4.9-4.9,2.19-4.93,4.9-4.93,4.93,2.21,4.93,4.93Zm-.83,0c0-2.26-1.85-4.1-4.1-4.1s-4.08,1.85-4.08,4.1,1.82,4.08,4.08,4.08,4.1-1.82,4.1-4.08Zm-1.02,.04c0,1.68-1.29,3.04-3.08,3.04s-3.08-1.36-3.08-3.04h.49c.31,1.5,1.33,2.23,2.59,2.23s2.28-.73,2.59-2.23h.49Zm-4.8-1.68c0-.55,.18-.97,.52-.97s.48,.42,.48,.97-.15,.99-.48,.99-.52-.45-.52-.99Zm2.45,0c0-.55,.15-.97,.48-.97s.52,.42,.52,.97-.18,.99-.52,.99-.48-.45-.48-.99Z"/><path class="cls-1" d="M1070.97,732.74h-2.06v4.16h-1.19v-9.51h3.91c2.17,0,3.17,1.01,3.17,2.62,0,1.43-.78,2.4-2.55,2.61l3.07,4.29h-1.33l-3.01-4.16Zm-2.06-.99h2.58c1.39,0,2.12-.63,2.12-1.74s-.76-1.62-2.14-1.62h-2.55v3.36Z"/><path class="cls-1" d="M1078.36,728.39v3.14h4.8v1h-4.8v3.36h5.39v1.01h-6.57v-9.51h6.57v1.01h-5.39Z"/><path class="cls-1" d="M1091.64,734.28h-4.19l-.99,2.62h-1.26l3.75-9.51h1.27l3.63,9.51h-1.26l-.95-2.62Zm-.36-1l-1.7-4.68-1.76,4.68h3.46Z"/><path class="cls-1" d="M1103.29,732.15c0,2.93-1.92,4.75-4.62,4.75h-3.05v-9.51h3.05c2.7,0,4.62,1.82,4.62,4.76Zm-1.19,0c0-2.38-1.33-3.77-3.61-3.77h-1.7v7.52h1.7c2.26,0,3.61-1.39,3.61-3.75Z"/><path class="cls-1" d="M1106.77,728.39v3.14h4.8v1h-4.8v3.36h5.39v1.01h-6.57v-9.51h6.57v1.01h-5.39Z"/><path class="cls-1" d="M1117.47,732.74h-2.06v4.16h-1.19v-9.51h3.91c2.17,0,3.17,1.01,3.17,2.62,0,1.43-.78,2.4-2.55,2.61l3.07,4.29h-1.33l-3.01-4.16Zm-2.06-.99h2.58c1.39,0,2.12-.63,2.12-1.74s-.76-1.62-2.14-1.62h-2.55v3.36Z"/><path class="cls-1" d="M1130.87,732.74h-2.06v4.16h-1.19v-9.51h3.91c2.17,0,3.17,1.01,3.17,2.62,0,1.43-.79,2.4-2.55,2.61l3.07,4.29h-1.33l-3.01-4.16Zm-2.06-.99h2.58c1.39,0,2.12-.63,2.12-1.74s-.76-1.62-2.14-1.62h-2.55v3.36Z"/><path class="cls-1" d="M1136.44,732.15c0-2.94,1.81-4.93,4.43-4.93s4.43,1.99,4.43,4.93-1.81,4.92-4.43,4.92-4.43-1.99-4.43-4.92Zm7.66,0c0-2.44-1.28-3.94-3.24-3.94s-3.24,1.5-3.24,3.94,1.28,3.92,3.24,3.92,3.24-1.5,3.24-3.92Z"/><path class="cls-1" d="M1157.18,727.38v9.51h-1.19v-8.47l-3.22,8.47h-.77l-3.26-8.49v8.49h-1.19v-9.51h1.93l2.9,7.63,2.9-7.63h1.9Z"/><path class="cls-1" d="M1165.36,734.28h-4.19l-1,2.62h-1.26l3.75-9.51h1.28l3.63,9.51h-1.26l-.95-2.62Zm-.36-1l-1.7-4.68-1.77,4.68h3.46Z"/><path class="cls-1" d="M1177.14,727.38v9.51h-1.79l-4.89-8.56v8.56h-1.12v-9.51h1.79l4.9,8.56v-8.56h1.11Z"/></g><g><path class="cls-1" d="M1090.61,51.16c0,2.72-2.21,4.9-4.93,4.9s-4.9-2.19-4.9-4.9,2.19-4.93,4.9-4.93,4.93,2.21,4.93,4.93Zm-.83,0c0-2.26-1.85-4.1-4.1-4.1s-4.08,1.85-4.08,4.1,1.82,4.08,4.08,4.08,4.1-1.82,4.1-4.08Zm-1.02,.04c0,1.68-1.29,3.04-3.08,3.04s-3.08-1.36-3.08-3.04h.49c.31,1.5,1.33,2.23,2.59,2.23s2.28-.73,2.59-2.23h.49Zm-4.8-1.68c0-.55,.18-.97,.52-.97s.48,.42,.48,.97-.15,.99-.48,.99-.52-.45-.52-.99Zm2.45,0c0-.55,.15-.97,.48-.97s.52,.42,.52,.97-.18,.99-.52,.99-.48-.45-.48-.99Z"/><path class="cls-1" d="M1099.06,46.38v9.51h-1.21v-7.49c-.49,.45-1.13,.6-2.17,.6v-.98c1.62-.06,2.11-.66,2.35-1.64h1.02Z"/><path class="cls-1" d="M1101.34,51.16c0-2.87,1.4-4.95,3.8-4.95s3.8,2.07,3.8,4.95-1.4,4.9-3.8,4.9-3.8-2.03-3.8-4.9Zm6.43,0c0-2.38-.92-3.91-2.63-3.91s-2.63,1.53-2.63,3.91,.92,3.87,2.63,3.87,2.63-1.49,2.63-3.87Z"/><path class="cls-1" d="M1110.75,51.16c0-2.87,1.4-4.95,3.8-4.95s3.8,2.07,3.8,4.95-1.4,4.9-3.8,4.9-3.8-2.03-3.8-4.9Zm6.43,0c0-2.38-.92-3.91-2.63-3.91s-2.63,1.53-2.63,3.91,.92,3.87,2.63,3.87,2.63-1.49,2.63-3.87Z"/><path class="cls-1" d="M1131.55,49.03c0,1.57-1.08,2.7-3.25,2.7h-2.63v4.16h-1.19v-9.51h3.92c2.17,0,3.15,1.01,3.15,2.65Zm-1.19,0c0-1.07-.66-1.65-2.16-1.65h-2.54v3.36h2.54c1.5,0,2.16-.69,2.16-1.71Z"/><path class="cls-1" d="M1140.24,47.37h-3.15v8.53h-1.18v-8.53h-3.17v-.98h7.49v.98Z"/><path class="cls-1" d="M1141.32,53.07h1.25c.18,1.34,1.18,2,2.72,2,1.62,0,2.38-.71,2.38-1.64,0-.84-.56-1.33-1.67-1.58l-2.21-.49c-1.4-.31-2.16-1.16-2.16-2.41,0-1.54,1.3-2.73,3.4-2.73s3.52,.88,3.73,2.83h-1.25c-.18-1.26-1.11-1.83-2.51-1.83s-2.13,.7-2.13,1.6c0,.69,.35,1.16,1.44,1.42l2.14,.49c1.54,.35,2.45,1.19,2.45,2.55,0,1.67-1.3,2.8-3.63,2.8-2.49,0-3.77-1.08-3.96-3Z"/></g></svg>