<?xml version='1.0' encoding='UTF-8'?>
<svg xmlns="http://www.w3.org/2000/svg" xmlns:xlink="http://www.w3.org/1999/xlink" width="1366px" height="768px" viewBox="0 0 1366 768" x="0px" y="0px" enable-background="new 0 0 1366 768"><defs><symbol overflow="visible" id="bffbf16ba"><path d="M57.25-104C26.75-104 10-80 10-49.75 10-20.5 24.75 4 56.5 4c28 0 38.75-19 41.25-35.5h-4C88.25-18.5 79.5-14 63.25-14 41.5-14 28.5-29.25 26.75-54.5h71c3-24.5-9.25-49.5-40.5-49.5zM26.5-62C27-84.5 36.75-96.5 53-96.5c18.5 0 25.75 15.75 25.75 34.5zm0 0"/></symbol><symbol overflow="visible" id="bffbf16bb"><path d="M114-104.25L85-95.5c-7.75-5.25-18-8.25-30.75-8.25-30.5 0-46.5 17.75-46.5 41.75 0 26 16 40.75 43 42.25V-2.5H45.5c-23 0-41.75 10.5-41.75 32 0 25.25 22 37 52 37 28 0 53.25-11.75 53.25-37 0-21.5-16.75-32-41.75-32H60v-17.25c26.5-1.5 41.25-18.5 41.25-43.25 0-10.5-3.5-20-10-27h24.5v-14.25zM56.25-28C39-28 29.5-41 29.5-67.5c0-17.5 8-28.5 22.75-28.5 17.75 0 27 15.5 27 39.75C79.25-39.5 72-28 56.25-28zM88 31.25C88 47.75 75.5 59 56.5 59c-17 0-32.75-10.5-32.75-27.75C23.75 13 34.75 5.5 53 5.5h5c17.5 0 30 7.5 30 25.75zm0 0"/></symbol><symbol overflow="visible" id="bffbf16bc"><path d="M44.25.75C52.25 3 60.5 4 68.5 4c36 0 52.75-23.5 52.75-58.75 0-30-11.75-49.25-39.5-49.25-19.5 0-31.75 10.5-37.5 25.5l-.5-.25V-104L5-90v2.5h19V56L6.25 61.5V64h63v-2.5l-25-5.5zM73-90c18 0 29 13 29 39.75 0 16.5-3 46.5-32.5 46.5-11.25 0-21.25-5.75-25.25-14.75v-37C44.25-74 51.75-90 73-90zm0 0"/></symbol><symbol overflow="visible" id="bffbf16bd"><path d="M74-21c-3.5 8-8.25 11.5-16.5 11.5C43.25-9.5 41-17.75 41-30v-126l34.25-4v-2.5H3v2.5l17.75 4.75V-23.5C21-4.75 30.5 4 49.5 4 68 4 74.5-8.5 77.75-21zm0 0"/></symbol><symbol overflow="visible" id="bffbf16be"><path d="M111-28.75c0 13-2.75 19-10.25 19-6 0-8.25-4-8.25-11v-48c0-24-9.5-35.25-36.75-35.25-9.5 0-22.25 1.5-34 4v34.25h3.75c6.5-22.5 13.25-30.5 27.25-30.5 16 0 19.5 8.5 19.5 24V-53C66.5-56.5 59-59 49-59c-22.25 0-39 9.5-39 32.75C10-7.25 22 4 41.75 4 58 4 67.25-5.25 72.25-16.25 72.75-3 81.75 2 93 2c19.75 0 22.5-13 22.5-29v-9.25H111zm-61.25 18C36.5-10.75 29.5-18 29.5-30.25c0-14 8.5-21.5 22.75-21.5 7.5 0 14.75 2.75 20 7v10.5c0 9.5-4.25 23.5-22.5 23.5zm0 0"/></symbol><symbol overflow="visible" id="bffbf16bf"><path d="M114.5-7.5V-67c0-22.25-11-37-33.25-37-15.75 0-29.25 9.25-36.5 27.25v-25.75L8-91.25V-89h17.75v81.5L8-2.5V0h55.5v-2.5L46-7.5v-46.75c0-21.5 8.25-33.5 25.25-33.5 17.25 0 23 10.75 23 27.25v53l-17.75 5V0H132v-2.5zm0 0"/></symbol><symbol overflow="visible" id="bffbf16bg"><path d="M75.5-21C72-13 67.25-9.5 59-9.5c-14.25 0-16.5-8.25-16.5-20.5v-62.5h33.25v-7.5H42.5v-35h-3.75c-3.75 26-14 36.5-37.5 40v2.5h21v68C22.25-5 31.75 4 51 4 69.5 4 76-8.5 79.25-21zm0 0"/></symbol><symbol overflow="visible" id="bffbf16bh"><path d="M45.3-12.6c-2.1 4.8-4.96 6.9-9.9 6.9-8.56 0-9.9-4.96-9.9-12.3v-37.5h19.95V-60H25.5v-21h-2.25C21-65.4 14.85-59.1.75-57v1.5h12.6v40.8c0 11.7 5.7 17.1 17.24 17.1 11.11 0 15-7.5 16.96-15zm0 0"/></symbol><symbol overflow="visible" id="bffbf16bi"><path d="M34.34-62.4C16.04-62.4 6-48 6-29.85 6-12.3 14.84 2.4 33.9 2.4 50.7 2.4 57.17-9 58.67-18.91h-2.41c-3.3 7.82-8.55 10.5-18.3 10.5-13.04 0-20.86-9.14-21.9-24.3h42.6c1.8-14.7-5.56-29.7-24.3-29.7zM15.91-37.2c.3-13.5 6.14-20.7 15.89-20.7 11.1 0 15.45 9.45 15.45 20.7zm0 0"/></symbol><symbol overflow="visible" id="bffbf16bj"><path d="M29.55-48.6c-.9 1.8-1.96 3.6-2.7 5.55V-62.4L4.8-54.75v1.34h10.65V-4.5L4.8-1.5V0h39.3v-1.5l-16.5-3v-24.75c0-10.8 3-21 12.15-21 5.1 0 7.95 2.7 10.05 9.45h2.25v-21.6c-10.2 0-17.7 5.4-22.5 13.8zm0 0"/></symbol><symbol overflow="visible" id="bffbf16bk"><path d="M66.6-17.25c0 7.8-1.65 11.4-6.15 11.4-3.6 0-4.95-2.4-4.95-6.6v-28.8c0-14.4-5.7-21.16-22.05-21.16-5.7 0-13.36.91-20.4 2.41v20.55h2.25c3.9-13.5 7.95-18.3 16.36-18.3 9.59 0 11.68 5.1 11.68 14.4v11.55c-3.43-2.1-7.93-3.6-13.93-3.6C16.05-35.4 6-29.7 6-15.76 6-4.35 13.2 2.41 25.05 2.41c9.75 0 15.3-5.57 18.3-12.16.3 7.95 5.7 10.95 12.45 10.95 11.86 0 13.5-7.8 13.5-17.4v-5.55h-2.7zM29.83-6.45c-7.93 0-12.14-4.35-12.14-11.7 0-8.4 5.1-12.9 13.64-12.9 4.5 0 8.86 1.64 12 4.2v6.3c0 5.7-2.54 14.1-13.5 14.1zm0 0"/></symbol><symbol overflow="visible" id="bffbf16bl"><path d="M55.34-18.9C53.1-11.7 47.41-8.1 39.16-8.1 22.2-8.1 15.9-21.74 15.9-34.5c0-13.05 4.8-23.4 19.34-23.4 11.4 0 16.66 9.74 20.25 21.45l2.25-.3-2.1-22.95c-5.56-1.5-11.1-2.7-18-2.7C15.16-62.4 6-46.8 6-28.35 6-12.3 14.55 2.4 34.05 2.4c14.4 0 21.9-8.57 23.7-21.32zm0 0"/></symbol><symbol overflow="visible" id="bffbf16bm"><path d="M68.7-4.5v-35.7c0-13.35-6.6-22.2-19.95-22.2-8.7 0-16.5 4.8-21.16 14.56V-93.6L48.16-96v-1.5H4.8v1.5l10.65 2.84V-4.5L4.8-1.5V0h33.3v-1.5l-10.5-3v-27.75c0-15.6 6.9-20.4 15-20.4 12.15 0 13.95 8.4 13.95 17.85v30.3l-10.64 3V0h33.3v-1.5zm0 0"/></symbol><symbol overflow="visible" id="bffbf16bn"><path d="M37.05 2.55c20.25 0 31.5-13.2 31.5-32.4 0-18.15-10.35-32.4-30.3-32.4-21 0-32.25 13.2-32.25 32.4C6-11.7 16.34 2.56 37.05 2.56zm1.2-4.64c-13.66 0-20.1-14.57-20.1-29.86 0-14.1 4.8-25.64 18.15-25.64 13.65 0 20.1 14.68 20.1 29.84S51.6-2.09 38.26-2.09zm0 0"/></symbol><symbol overflow="visible" id="bffbf16bo"><path d="M108.9-4.34v-35.7c0-13.37-6.74-22.21-19.65-22.21-9.45 0-16.8 5.84-21.16 15.9-1.8-9.9-8.39-15.9-19.18-16.06-9-.14-16.96 5.57-21.32 16.36V-61.5L4.8-54.75v1.34H16.2V-4.5l-10.65 3V0h33.3v-1.5l-10.5-3v-28.95c.15-11.4 4.35-19.35 14.56-19.2 11.25.15 13.64 6.9 13.64 17.1v31.2l-10.8 3v1.5H79.5v-1.5l-10.8-3V-32.7c0-10.96 3.75-19.8 14.55-19.8 10.34 0 13.5 5.84 13.5 16.95v31.2l-9.9 3v1.5h32.56v-1.5zm0 0"/></symbol><symbol overflow="visible" id="bffbf16bp"><path d="M23.1-70.2c4.5 0 8.4-3.46 8.4-8.25 0-4.64-3.9-8.1-8.4-8.1a8.2 8.2 0 00-8.26 8.1c0 4.8 3.91 8.25 8.25 8.25zm6 65.7v-57L4.5-54.75v1.34h12.45V-4.5L4.5-1.5V0h36.6v-1.5zm0 0"/></symbol><symbol overflow="visible" id="bffbf16bq"><path d="M45.5-65.27c-9.63-2.59-14.81-6.75-14.81-16.89 0-11.18 8.04-17.93 21.04-17.93 16.13 0 26 4.4 30.96 20.8v16.37h5.19v-43.94h-5.2v13.52C78-102.95 66.57-108.16 52-108.16c-21.06 0-37.44 12.47-37.44 34.07 0 16.64 10.4 25.22 24.44 28.86l21.58 5.71c10.14 2.6 15.86 5.2 15.86 16.11 0 9.63-7.28 18.2-23.92 18.2-18.2 0-31.2-7-34.58-22.6v-11.97h-5.2V4.16h5.2v-18.2c5.2 11.7 20.01 18.2 33.8 18.2 25.48 0 39.78-11.96 39.78-33.02 0-15.08-4.68-25.22-26.79-31.2zm0 0"/></symbol><symbol overflow="visible" id="bffbf16br"><path d="M64.22 4.42c35.1 0 54.6-22.87 54.6-56.15 0-31.47-17.94-56.18-52.52-56.18-36.4 0-55.9 22.9-55.9 56.18 0 31.45 17.94 56.15 53.82 56.15zm2.08-8.06c-23.66 0-34.85-25.22-34.85-51.73 0-24.44 8.33-44.47 31.47-44.47 23.66 0 34.85 25.48 34.85 51.75 0 26.25-8.33 44.45-31.47 44.45zm0 0"/></symbol><symbol overflow="visible" id="bffbf16bs"><path d="M40.05-121.69c7.8 0 14.54-5.97 14.54-14.3 0-8.06-6.75-14.03-14.54-14.03-7.55 0-14.32 5.97-14.32 14.04 0 8.32 6.77 14.3 14.32 14.3zM50.44-7.79v-98.8L7.8-94.91v2.35h21.57V-7.8L7.8-2.6V0h63.43v-2.6zm0 0"/></symbol><symbol overflow="visible" id="bffbf16bt"><path d="M118.56-108.42l-30.15 9.1c-8.07-5.46-18.72-8.59-31.99-8.59-31.72 0-48.36 18.47-48.36 43.43 0 27.04 16.64 42.39 44.72 43.93v17.96h-5.47c-23.9 0-43.4 10.9-43.4 33.28 0 26.25 22.87 38.47 54.07 38.47 29.11 0 55.38-12.22 55.38-38.47C113.36 8.3 95.94-2.6 69.94-2.6H62.4v-17.96c27.54-1.54 42.89-19.23 42.89-44.97 0-10.92-3.64-20.8-10.4-28.07h25.47v-14.83zM58.5-29.12c-17.94 0-27.81-13.52-27.81-41.08 0-18.2 8.31-29.64 23.65-29.64 18.46 0 28.08 16.12 28.08 41.34 0 17.42-7.55 29.38-23.92 29.38zM91.52 32.5c0 17.16-13 28.86-32.75 28.86-17.7 0-34.07-10.92-34.07-28.86 0-18.98 11.44-26.78 30.43-26.78h5.18c18.2 0 31.2 7.8 31.2 26.78zm0 0"/></symbol><symbol overflow="visible" id="bffbf16bu"><path d="M119.08-7.8v-61.89c0-23.12-11.44-38.47-34.58-38.47-16.38 0-30.42 9.61-37.95 28.35v-26.78L8.3-94.91v2.35h18.47V-7.8L8.31-2.6V0h57.74v-2.6l-18.2-5.2v-48.62c0-22.36 8.57-34.85 26.24-34.85 17.96 0 23.93 11.2 23.93 28.35V-7.8L79.56-2.6V0h57.72v-2.6zm0 0"/></symbol><symbol overflow="visible" id="bffbf16bv"><path d="M59.55-108.16c-31.74 0-49.14 24.96-49.14 56.43 0 30.42 15.32 55.89 48.36 55.89 29.1 0 40.3-19.75 42.89-36.93H97.5c-5.72 13.54-14.81 18.2-31.72 18.2-22.62 0-36.14-15.85-37.97-42.12h73.85c3.12-25.47-9.61-51.47-42.11-51.47zM27.56-64.48c.52-23.4 10.66-35.88 27.57-35.88 19.23 0 26.78 16.38 26.78 35.88zm0 0"/></symbol><symbol overflow="visible" id="bffbf16bw"><path d="M109.98-7.8v-88.4l18.46-5.2v-2.6H72.02v2.6l16.9 5.46v52.25c0 20.28-9.1 31.2-24.7 31.2-16.38 0-21.58-8.82-21.58-29.1v-54.35l16.64-5.47V-104H7.02v2.6l14.56 5.46v60.06c0 24.7 8.58 40.04 33.8 40.04 19.24 0 29.64-13 33.54-25.22V0H130v-2.6zm0 0"/></symbol><symbol overflow="visible" id="bffbf16bx"><path d="M51.22-84.23c-1.56 3.1-3.38 6.23-4.67 9.6v-33.53L8.3-94.9v2.35h18.47V-7.8L8.31-2.6V0h68.13v-2.6l-28.6-5.2v-42.9c0-18.72 5.2-36.4 21.07-36.4 8.82 0 13.78 4.68 17.4 16.38h3.9v-37.44c-17.66 0-30.66 9.36-39 23.93zm0 0"/></symbol><symbol overflow="visible" id="bffbf16by"><path d="M4.77-5.13v1.04h3.25C8-2.13 6.88-.86 5.03-.86c-1.92 0-3.2-1.5-3.2-4.08 0-2.54 1.3-4.1 3.15-4.1 1.46 0 2.27.65 2.7 1.8H8.9C8.36-9.2 6.94-10.07 5-10.07 2.4-10.08.67-7.97.67-4.94.67-1.89 2.42.17 5.03.17c1.61 0 2.58-.8 3.06-1.98V0h1.04l.01-5.13zm0 0"/></symbol><symbol overflow="visible" id="bffbf16bz"><path d="M2.4-9.9H1.28V0H2.4zm0 0"/></symbol><symbol overflow="visible" id="bffbf16bA"><path d="M7.38 0h1.3l-3-4.45c1.71-.22 2.48-1.24 2.48-2.72 0-1.67-.97-2.74-3.08-2.74H1.27V0h1.15v-4.33h2.02zM2.42-8.86h2.49C6.27-8.86 7-8.3 7-7.17c0 1.15-.7 1.81-2.06 1.81H2.42zm0 0"/></symbol><symbol overflow="visible" id="bffbf16bB"><path d="M7.34 0h1.24L5.03-9.9H3.78L.13 0h1.23l.97-2.72H6.4zM2.7-3.77L4.4-8.63l1.65 4.86zm0 0"/></symbol><symbol overflow="visible" id="bffbf16bC"><path d="M7.8-9.9v8.92L3.02-9.91H1.27V0h1.09v-8.9L7.13 0h1.75v-9.9zm0 0"/></symbol><symbol overflow="visible" id="bffbf16bD"><path d="M4.23-9.9H1.27V0h2.96c2.64 0 4.52-1.9 4.52-4.94C8.75-8 6.87-9.9 4.23-9.9zm-.17 8.87H2.41v-7.83h1.65c2.24 0 3.53 1.44 3.53 3.92 0 2.46-1.32 3.9-3.53 3.9zm0 0"/></symbol><symbol overflow="visible" id="bffbf16bE"><path d="M7.67-8.84v-1.07h-6.4V0h6.4v-1.05H2.41v-3.5h4.68v-1.03H2.41v-3.26zm0 0"/></symbol><symbol overflow="visible" id="bffbf16bF"><path d="M4.98.17c2.57 0 4.33-2.06 4.33-5.1 0-3.07-1.76-5.15-4.33-5.15-2.54 0-4.3 2.08-4.3 5.14C.67-1.89 2.43.17 4.97.17zm0-1.03c-1.9 0-3.15-1.56-3.15-4.08 0-2.54 1.25-4.1 3.15-4.1 1.93 0 3.18 1.56 3.18 4.1 0 2.52-1.25 4.08-3.18 4.08zm0 0"/></symbol><symbol overflow="visible" id="bffbf16bH"><path d="M4.4.17C6.68.17 7.95-1 7.95-2.73c0-1.43-.88-2.3-2.4-2.66l-2.09-.52c-1.06-.26-1.4-.75-1.4-1.46 0-.94.75-1.66 2.08-1.66 1.37 0 2.28.6 2.45 1.9H7.8c-.2-2.03-1.63-2.95-3.64-2.95C2.1-10.08.83-8.83.83-7.23c0 1.3.75 2.18 2.1 2.51l2.16.5c1.1.27 1.64.78 1.64 1.66 0 .95-.75 1.7-2.32 1.7-1.5 0-2.49-.69-2.66-2.08H.53C.72-.95 1.97.17 4.41.17zm0 0"/></symbol><symbol overflow="visible" id="bffbf16bI"><path d="M5.1-9.9H1.26V0h1.15v-4.33h2.56c2.13 0 3.18-1.19 3.18-2.81 0-1.7-.96-2.77-3.07-2.77zm-.2 4.54H2.41v-3.5H4.9C6.36-8.86 7-8.25 7-7.14c0 1.06-.64 1.78-2.1 1.78zm0 0"/></symbol><symbol overflow="visible" id="bffbf16bJ"><path d="M2.44-1.05V-9.9H1.27V0h5.62v-1.05zm0 0"/></symbol><symbol overflow="visible" id="bffbf16bK"><path d="M6.66-9.9L4.03-5.17 1.41-9.9H.16l3.28 5.88V0h1.15v-4.03l3.33-5.88zm0 0"/></symbol><symbol overflow="visible" id="bffbf16bL"><path d="M7.4-9.9L4.38-1.54 1.4-9.91H.17L3.84 0h1.04l3.76-9.9zm0 0"/></symbol><symbol overflow="visible" id="bffbf16bM"><path d="M8.81-9.9H7.67v6.1C7.67-1.86 6.55-.9 5-.9c-1.63 0-2.7-1-2.7-2.94v-6.07H1.16v6.07C1.16-1.2 2.66.17 4.98.17c2.35 0 3.83-1.34 3.83-4.01zm0 0"/></symbol><symbol overflow="visible" id="bffbf16bN"><path d="M6.31-11.05A5.62 5.62 0 106.36.2a5.62 5.62 0 00-.05-11.24zm0 1.16a4.47 4.47 0 11.03 8.94 4.47 4.47 0 01-.03-8.94zm0 0"/></symbol><symbol overflow="visible" id="bffbf16bP"><path d="M3.52-3.1L6-4.59C7.75-5.6 8.1-6.6 8.1-7.8c0-1.84-1.27-3.26-3.5-3.26C2.2-11.06.9-9.53.82-7.4h1.31c.1-1.55.92-2.53 2.45-2.53 1.47 0 2.16 1 2.16 2.12 0 .96-.4 1.64-1.48 2.27L3.1-4.27C1.39-3.27.7-2.07.7-.47V0h7.4v-1.13H2.08c.14-.92.65-1.51 1.44-1.98zm0 0"/></symbol><symbol overflow="visible" id="bffbf16bQ"><path d="M4.88-7.17c-1.1 0-2 .42-2.54 1.1l.24-3.68h5.3v-1.1H1.46l-.4 5.94h1.55c.4-.67 1.07-1.07 2.02-1.07 1.58 0 2.44 1.04 2.44 2.48S6.16-.94 4.66-.94c-1.49 0-2.44-.87-2.5-2.2H.8C.8-1.16 2.4.19 4.64.19c2.5 0 3.78-1.74 3.78-3.66 0-2.08-1.33-3.7-3.54-3.7zm0 0"/></symbol><symbol overflow="visible" id="bffbf16bR"><path d="M5.17.19c2.74 0 4.33-2.31 4.33-5.6 0-3.28-1.6-5.65-4.33-5.65S.83-8.7.83-5.41C.83-2.12 2.43.2 5.17.2zm0-1.17c-1.95 0-3.01-1.7-3.01-4.43 0-2.71 1.06-4.46 3.01-4.46 1.96 0 3 1.74 3 4.46 0 2.72-1.04 4.43-3 4.43zm0 0"/></symbol><symbol overflow="visible" id="bffbf16bS"><path d="M5.95-10.86H1.47V0h1.36v-4.75h3.01c2.47 0 3.7-1.3 3.7-3.1 0-1.87-1.1-3-3.59-3zm-.22 4.97h-2.9v-3.84h2.9c1.7 0 2.46.67 2.46 1.89 0 1.17-.75 1.95-2.46 1.95zm0 0"/></symbol><symbol overflow="visible" id="bffbf16bT"><path d="M8.9-10.86H.37v1.11h3.6V0h1.35v-9.75h3.6zm0 0"/></symbol><symbol overflow="visible" id="bffbf16bU"><path d="M3.08-10.86C2.8-9.75 2.23-9.06.39-8.98v1.1c1.17 0 1.9-.17 2.47-.68V0h1.37v-10.86zm0 0"/></symbol><symbol overflow="visible" id="bffbf16bV"><path d="M4.97-7.14c-1.33 0-2.28.55-2.81 1.53v-.23c0-2.35 1.03-4.07 2.86-4.07 1.17 0 1.82.58 2.06 1.64h1.36c-.3-1.78-1.4-2.8-3.42-2.8-2.2 0-4.2 1.68-4.2 5.55 0 2.94.91 5.7 4.02 5.7 2.27 0 3.77-1.5 3.77-3.71 0-2.03-1.34-3.61-3.64-3.61zM4.89-.95c-1.6 0-2.48-1.3-2.48-2.58a2.4 2.4 0 012.48-2.45c1.61 0 2.4 1.17 2.4 2.45 0 1.28-.79 2.58-2.4 2.58zm0 0"/></symbol></defs><path fill="#fdfaf5" d="M0 0h1366v768H0z"/><use xlink:href="#bffbf16ba" x="243.2559" y="234.8513"/><use xlink:href="#bffbf16bb" x="348.2559" y="234.8513"/><use xlink:href="#bffbf16bb" x="464.0059" y="234.8513"/><use xlink:href="#bffbf16bc" x="579.7559" y="234.8513"/><use xlink:href="#bffbf16bd" x="708.5059" y="234.8513"/><use xlink:href="#bffbf16be" x="786.2559" y="234.8513"/><use xlink:href="#bffbf16bf" x="902.2559" y="234.8513"/><use xlink:href="#bffbf16bg" x="1034.7559" y="234.8513"/><use xlink:href="#bffbf16bh" x="239.9829" y="408.1921"/><use xlink:href="#bffbf16bi" x="287.6829" y="408.1921"/><use xlink:href="#bffbf16bh" x="350.6829" y="408.1921"/><use xlink:href="#bffbf16bj" x="398.3829" y="408.1921"/><use xlink:href="#bffbf16bk" x="450.2829" y="408.1921"/><use xlink:href="#bffbf16bl" x="519.8829" y="408.1921"/><use xlink:href="#bffbf16bm" x="580.1829" y="408.1921"/><use xlink:href="#bffbf16bj" x="659.6829" y="408.1921"/><use xlink:href="#bffbf16bn" x="711.5829" y="408.1921"/><use xlink:href="#bffbf16bo" x="784.6329" y="408.1921"/><use xlink:href="#bffbf16bk" x="904.3329" y="408.1921"/><use xlink:href="#bffbf16bh" x="973.9329" y="408.1921"/><use xlink:href="#bffbf16bp" x="1021.6329" y="408.1921"/><use xlink:href="#bffbf16bl" x="1062.7329" y="408.1921"/><g><use xlink:href="#bffbf16bq" x="237.3687" y="617.1531"/><use xlink:href="#bffbf16br" x="334.0887" y="617.1531"/><use xlink:href="#bffbf16bs" x="460.7087" y="617.1531"/><use xlink:href="#bffbf16bt" x="531.9487" y="617.1531"/><use xlink:href="#bffbf16bu" x="652.3287" y="617.1531"/><use xlink:href="#bffbf16bv" x="790.1287" y="617.1531"/><use xlink:href="#bffbf16bw" x="899.3287" y="617.1531"/><use xlink:href="#bffbf16bx" x="1033.4887" y="617.1531"/></g><g fill="#1a26cd"><use xlink:href="#bffbf16by" x="77" y="727.9854"/><use xlink:href="#bffbf16bz" x="87.29991" y="727.9854"/><use xlink:href="#bffbf16bA" x="91.307711" y="727.9854"/><use xlink:href="#bffbf16bB" x="100.718519" y="727.9854"/><use xlink:href="#bffbf16bC" x="109.8284" y="727.9854"/><use xlink:href="#bffbf16bD" x="120.306131" y="727.9854"/><use xlink:href="#bffbf16bE" x="130.223044" y="727.9854"/><use xlink:href="#bffbf16bC" x="138.949927" y="727.9854"/><use xlink:href="#bffbf16by" x="149.427658" y="727.9854"/><use xlink:href="#bffbf16bF" x="159.727568" y="727.9854"/><use xlink:href="#bffbf16bG" x="170.054836" y="727.9854"/><use xlink:href="#bffbf16bD" x="173.734352" y="727.9854"/><use xlink:href="#bffbf16bz" x="183.651265" y="727.9854"/><use xlink:href="#bffbf16bH" x="187.659065" y="727.9854"/><use xlink:href="#bffbf16bI" x="196.536412" y="727.9854"/><use xlink:href="#bffbf16bJ" x="205.454794" y="727.9854"/><use xlink:href="#bffbf16bB" x="212.923255" y="727.9854"/><use xlink:href="#bffbf16bK" x="222.033136" y="727.9854"/><use xlink:href="#bffbf16bG" x="230.418056" y="727.9854"/></g><g fill="#1a26cd"><use xlink:href="#bffbf16bL" x="1151.911244" y="727.9854"/><use xlink:href="#bffbf16bE" x="1161.021125" y="727.9854"/><use xlink:href="#bffbf16bA" x="1169.748008" y="727.9854"/><use xlink:href="#bffbf16bH" x="1179.158816" y="727.9854"/><use xlink:href="#bffbf16bz" x="1188.036163" y="727.9854"/><use xlink:href="#bffbf16bF" x="1192.043963" y="727.9854"/><use xlink:href="#bffbf16bC" x="1202.371231" y="727.9854"/><use xlink:href="#bffbf16bH" x="1212.848962" y="727.9854"/><use xlink:href="#bffbf16bG" x="1221.726308" y="727.9854"/><use xlink:href="#bffbf16bA" x="1225.405825" y="727.9854"/><use xlink:href="#bffbf16bE" x="1234.816633" y="727.9854"/><use xlink:href="#bffbf16by" x="1243.543516" y="727.9854"/><use xlink:href="#bffbf16bM" x="1253.843426" y="727.9854"/><use xlink:href="#bffbf16bJ" x="1264.157015" y="727.9854"/><use xlink:href="#bffbf16bB" x="1271.625476" y="727.9854"/><use xlink:href="#bffbf16bA" x="1280.735357" y="727.9854"/></g><g fill="#1a26cd"><use xlink:href="#bffbf16bN" x="77" y="145.7451"/><use xlink:href="#bffbf16bO" x="89.672" y="145.7451"/></g><g fill="#1a26cd"><use xlink:href="#bffbf16bP" x="93.576" y="145.7451"/><use xlink:href="#bffbf16bQ" x="102.568" y="145.7451"/><use xlink:href="#bffbf16bR" x="111.672" y="145.7451"/><use xlink:href="#bffbf16bO" x="122.008" y="145.7451"/><use xlink:href="#bffbf16bS" x="125.912" y="145.7451"/><use xlink:href="#bffbf16bT" x="135.944" y="145.7451"/></g><g fill="#1a26cd"><use xlink:href="#bffbf16bN" x="77" y="356.7531"/><use xlink:href="#bffbf16bO" x="89.672" y="356.7531"/></g><g fill="#1a26cd"><use xlink:href="#bffbf16bU" x="93.576" y="356.7531"/><use xlink:href="#bffbf16bQ" x="99.288" y="356.7531"/><use xlink:href="#bffbf16bR" x="108.392" y="356.7531"/><use xlink:href="#bffbf16bO" x="118.728" y="356.7531"/><use xlink:href="#bffbf16bS" x="122.632" y="356.7531"/><use xlink:href="#bffbf16bT" x="132.664" y="356.7531"/></g><g fill="#1a26cd"><use xlink:href="#bffbf16bN" x="77" y="523.7611"/><use xlink:href="#bffbf16bO" x="89.672" y="523.7611"/></g><g fill="#1a26cd"><use xlink:href="#bffbf16bP" x="93.576" y="523.7611"/><use xlink:href="#bffbf16bV" x="102.568" y="523.7611"/><use xlink:href="#bffbf16bR" x="111.976" y="523.7611"/><use xlink:href="#bffbf16bO" x="122.312" y="523.7611"/><use xlink:href="#bffbf16bS" x="126.216" y="523.7611"/><use xlink:href="#bffbf16bT" x="136.248" y="523.7611"/></g></svg>