<?xml version='1.0' encoding='UTF-8'?>
<svg xmlns="http://www.w3.org/2000/svg" xmlns:xlink="http://www.w3.org/1999/xlink" width="1366px" height="768px" viewBox="0 0 1366 768" x="0px" y="0px" enable-background="new 0 0 1366 768"><defs><symbol overflow="visible" id="238c67a7a"><path d="M133.8-126c8.4-12 22.2-36.6 48-82.2 27-48 50.4-88.8 87-156.6l32.4-60.6-6-4.2-90.6 24.6-2.4 7.2c22.2 13.8 22.8 18 22.8 25.8 0 7.2-9.6 25.8-15 36L30 0h51c4.2-15 15-38.4 39-82.2 11.4-21 71.4-121.2 113.4-121.2 16.8 0 22.8 6 22.8 16.2 0 38.4-79.8 113.4-79.8 160.2 0 19.8 13.2 30.6 29.4 30.6 39 0 70.2-54 87-87l-7.8-4.2c-16.8 30.6-34.8 51-48.6 51-7.2 0-10.8-4.2-10.8-12.6 0-39.6 81-105 81-163.8 0-21-15.6-33-40.8-33-45.6 0-84 55.8-127.8 120zm0 0"/></symbol><symbol overflow="visible" id="238c67a7b"><path d="M155.4-188.4c5.4 38.4 5.4 121.8-4.2 193.8C126 29.4 67.8 81 10.2 81-14.4 81-24 67.8-18.6 44.4c-24.6 0-45 14.4-45 37.8 0 21.6 18 33.6 42.6 33.6 138.6 0 342-252 342-327.6 0-18.6-10.8-30.6-27.6-30.6-14.4 0-25.2 7.2-36 18 12.6 4.2 19.8 12.6 19.8 31.8 0 58.2-54 120.6-87.6 164.4 11.4-55.2 14.4-143.4 12-174-1.8-26.4-6.6-43.8-29.4-43.8-31.2 0-58.2 34.2-96.6 85.8l7.2 6c27.6-36 46.8-51.6 60-51.6 9 0 10.8 6.6 12.6 17.4zm0 0"/></symbol><symbol overflow="visible" id="238c67a7c"><path d="M183.55-201.6c-1.8 39-64.58 168.6-97.46 168.6-16.73 0-22.72-28.2-22.12-51 1.2-43.8 20.33-138 73.53-138 16.75 0 38.88 10.2 46.05 20.4zm18.53 151.2c0-42.6 16.14-136.2 40.06-186.6 0-4.8-5.98-9-10.76-9-7.79 0-23.32 12.6-23.32 12.6-13.15-6.6-34.69-12.6-57.4-12.6-82.5 0-130.33 100.2-129.14 180 .6 39 11.36 68.4 46.04 68.4 48.42 0 81.3-76.2 102.24-112.8h2.98c-9.56 31.8-18.53 58.2-18.53 76.8 0 21.6 5.97 37.2 27.5 37.2 25.7 0 65.17-37.2 71.14-60l-8.97-4.8c-8.36 12-20.33 25.2-33.47 25.2-7.18 0-8.37-7.2-8.37-14.4zm0 0"/></symbol><symbol overflow="visible" id="238c67a7d"><path d="M200.88-28.8c-8.97 7.8-20.33 12-34.08 12-30.49 0-66.96-10.2-104.63-15C110-80.4 176.37-161.4 214.03-232.2c-1.19-5.4-6.58-10.8-11.95-10.8-8.97 0-9.56 8.4-24.52 8.4-42.45 0-96.25-1.8-133.92-11.4-5.37 4.2-10.16 15-10.16 24 0 8.4 1.8 15 4.79 21.6 15.54 4.2 33.48 6.6 52.01 7.2 23.31.6 50.22.6 74.13-6.6C141.09-148.8 57.39-52.8 1.2-6c0 7.2 1.77 12.6 11.95 12.6C19.12 6.6 23.92 0 32.87 0c49.63 0 86.1 30 135.72 30 36.47 0 42.46-46.2 32.28-58.8zm0 0"/></symbol><symbol overflow="visible" id="238c67a7e"><path d="M9.03-9.5l-2.9 7.63-2.9-7.63H1.3V0h1.18v-8.48L5.75 0h.78l3.22-8.47V0h1.19v-9.5zm0 0"/></symbol><symbol overflow="visible" id="238c67a7f"><path d="M2.47-9.5H1.3V0h1.17zm0 0"/></symbol><symbol overflow="visible" id="238c67a7g"><path d="M2.5-1.02V-9.5H1.3V0h5.78v-1.02zm0 0"/></symbol><symbol overflow="visible" id="238c67a7h"><path d="M7.53 0H8.8L5.16-9.5H3.89L.12 0H1.4l1-2.63h4.19zM2.75-3.6l1.77-4.68 1.7 4.67zm0 0"/></symbol><symbol overflow="visible" id="238c67a7j"><path d="M7.81-9.5H.31v.97h3.17V0h1.18v-8.53H7.8zm0 0"/></symbol><symbol overflow="visible" id="238c67a7k"><path d="M5.1.17c2.48 0 3.65-1.19 4.07-3.2H7.92c-.37 1.58-1.3 2.2-2.81 2.2-1.8 0-3.24-1.53-3.24-3.92 0-2.4 1.44-3.94 3.24-3.94 1.56 0 2.47.67 2.8 2.22h1.25c-.38-1.92-1.54-3.2-4.05-3.2C2.42-9.67.69-7.61.69-4.75.69-1.87 2.44.17 5.1.17zm0 0"/></symbol><symbol overflow="visible" id="238c67a7l"><path d="M4.52.17c2.32 0 3.64-1.14 3.64-2.8 0-1.35-.93-2.2-2.46-2.56l-2.15-.48c-1.1-.25-1.44-.72-1.44-1.4 0-.91.75-1.62 2.12-1.62 1.41 0 2.33.58 2.52 1.85H8C7.78-8.8 6.33-9.67 4.27-9.67 2.16-9.67.86-8.48.86-6.94c0 1.24.75 2.1 2.16 2.4l2.21.5c1.11.24 1.68.74 1.68 1.57 0 .92-.77 1.64-2.4 1.64-1.54 0-2.53-.65-2.71-2H.55c.2 1.92 1.47 3 3.97 3zm0 0"/></symbol><symbol overflow="visible" id="238c67a7m"><path d="M9.05-9.5H7.87v5.86c0 1.84-1.15 2.77-2.73 2.77-1.67 0-2.78-.96-2.78-2.83v-5.8H1.17v5.8C1.17-1.14 2.72.17 5.13.17c2.39 0 3.92-1.3 3.92-3.87zm0 0"/></symbol><symbol overflow="visible" id="238c67a7n"><path d="M5.22-9.5H1.3V0h1.18v-4.16h2.65c2.17 0 3.25-1.14 3.25-2.7 0-1.64-.99-2.64-3.16-2.64zm-.2 4.34H2.48v-3.36h2.54c1.51 0 2.17.6 2.17 1.66 0 1.02-.66 1.7-2.17 1.7zm0 0"/></symbol><symbol overflow="visible" id="238c67a7o"><path d="M7.88-8.5v-1H1.3V0h6.58v-1.02H2.46v-3.35h4.81v-.99H2.47V-8.5zm0 0"/></symbol><symbol overflow="visible" id="238c67a7p"><path d="M7.56 0H8.9L5.83-4.28C7.59-4.5 8.37-5.45 8.37-6.9c0-1.61-1-2.61-3.17-2.61H1.3V0h1.18v-4.16h2.07zM2.48-8.52h2.55c1.4 0 2.16.54 2.16 1.63 0 1.1-.74 1.73-2.13 1.73H2.48zm0 0"/></symbol><symbol overflow="visible" id="238c67a7q"><path d="M2.75-1.55c.16-.48.48-.8.94-1.07l2.26-1.35c1.27-.76 1.67-1.67 1.67-2.7 0-1.61-1.14-3-3.43-3C1.87-9.67.55-8.11.62-6.22h1.91c-.03-1.17.61-1.92 1.66-1.92.98 0 1.48.67 1.48 1.45 0 .64-.3 1.13-1.08 1.6L2.67-3.97C1.27-3.16.5-2.09.5-.52V0h7.16v-1.55zm0 0"/></symbol><symbol overflow="visible" id="238c67a7r"><path d="M4.67-6.22c-1.04 0-1.76.36-2.23.97v-.25c0-1.66.7-2.69 1.95-2.69.78 0 1.27.35 1.42 1.06H7.7c-.24-1.56-1.38-2.54-3.3-2.54C2.2-9.67.52-8.07.52-4.78.52-1.72 1.66.17 4.27.17c2.17 0 3.64-1.42 3.64-3.3 0-1.78-1.16-3.09-3.24-3.09zm-.39 4.83c-1.1 0-1.73-.83-1.73-1.72s.64-1.7 1.73-1.7c1.11 0 1.7.76 1.7 1.68 0 .94-.59 1.74-1.7 1.74zm0 0"/></symbol><symbol overflow="visible" id="238c67a7s"><path d="M2.81-9.73c-1.3 0-2.33.92-2.33 2.32a2.24 2.24 0 002.33 2.33c1.25 0 2.3-.9 2.3-2.33 0-1.4-1.05-2.32-2.3-2.32zM2.8-8.7c.67 0 1.03.53 1.03 1.28 0 .77-.36 1.25-1.03 1.25S1.75-6.64 1.75-7.4c0-.75.38-1.28 1.05-1.28zm0 0"/></symbol><symbol overflow="visible" id="238c67a7u"><path d="M6.13-4.9c.96-.35 1.54-1.1 1.54-2.08 0-1.46-1.28-2.7-3.48-2.7-2.22 0-3.44 1.24-3.44 2.7 0 .96.56 1.73 1.52 2.07A2.36 2.36 0 00.53-2.64C.53-1.08 1.93.17 4.2.17c2.25 0 3.7-1.25 3.7-2.81 0-1.17-.74-1.97-1.78-2.27zM4.2-8.17c.96 0 1.52.58 1.52 1.32 0 .65-.52 1.28-1.52 1.28-.98 0-1.51-.63-1.51-1.28 0-.74.54-1.32 1.51-1.32zm0 6.8c-1.03 0-1.68-.6-1.68-1.4 0-.8.64-1.4 1.68-1.4 1.07 0 1.7.6 1.7 1.4 0 .8-.67 1.4-1.7 1.4zm0 0"/></symbol></defs><path d="M.26 0L0 384.2v383.34l682.74.46h683l.26-384.87V.46L683.26 0zm0 0" fill="#00d800"/><g fill="#fff"><use xlink:href="#238c67a7a" x="713.3994" y="561.5391"/><use xlink:href="#238c67a7b" x="976.1994" y="561.5391"/></g><g fill="#fff"><use xlink:href="#238c67a7c" x="249.3994" y="561.2783"/><use xlink:href="#238c67a7d" x="504.084352" y="561.2783"/></g><g fill="#f2f2f2"><use xlink:href="#238c67a7e" x="480" y="217.0332"/><use xlink:href="#238c67a7f" x="492.444433" y="217.0332"/></g><use xlink:href="#238c67a7g" x="496.391015" y="217.0332" fill="#f2f2f2"/><use xlink:href="#238c67a7h" x="504.53812" y="217.0332" fill="#f2f2f2"/><g fill="#f2f2f2"><use xlink:href="#238c67a7i" x="513.881967" y="217.0332"/><use xlink:href="#238c67a7f" x="517.655983" y="217.0332"/><use xlink:href="#238c67a7j" x="521.626417" y="217.0332"/></g><use xlink:href="#238c67a7h" x="528.965405" y="217.0332" fill="#f2f2f2"/><use xlink:href="#238c67a7g" x="538.243312" y="217.0332" fill="#f2f2f2"/><use xlink:href="#238c67a7f" x="545.809583" y="217.0332" fill="#f2f2f2"/><use xlink:href="#238c67a7k" x="549.827718" y="217.0332" fill="#f2f2f2"/><g fill="#f2f2f2"><use xlink:href="#238c67a7e" x="1017.004625" y="217.0332"/><use xlink:href="#238c67a7f" x="1029.449057" y="217.0332"/></g><use xlink:href="#238c67a7g" x="1033.39564" y="217.0332" fill="#f2f2f2"/><use xlink:href="#238c67a7h" x="1041.544148" y="217.0332" fill="#f2f2f2"/><g fill="#f2f2f2"><use xlink:href="#238c67a7i" x="1050.886592" y="217.0332"/><use xlink:href="#238c67a7l" x="1054.660608" y="217.0332"/></g><use xlink:href="#238c67a7m" x="1063.685978" y="217.0332" fill="#f2f2f2"/><use xlink:href="#238c67a7n" x="1074.155015" y="217.0332" fill="#f2f2f2"/><use xlink:href="#238c67a7o" x="1083.125669" y="217.0332" fill="#f2f2f2"/><use xlink:href="#238c67a7p" x="1091.772235" y="217.0332" fill="#f2f2f2"/><g fill="#f2f2f2"><use xlink:href="#238c67a7i" x="1101.424737" y="217.0332"/><use xlink:href="#238c67a7f" x="1105.198754" y="217.0332"/><use xlink:href="#238c67a7j" x="1109.169187" y="217.0332"/></g><use xlink:href="#238c67a7h" x="1116.508175" y="217.0332" fill="#f2f2f2"/><use xlink:href="#238c67a7g" x="1125.786082" y="217.0332" fill="#f2f2f2"/><use xlink:href="#238c67a7f" x="1133.352353" y="217.0332" fill="#f2f2f2"/><use xlink:href="#238c67a7k" x="1137.370488" y="217.0332" fill="#f2f2f2"/><use xlink:href="#238c67a7q" x="1017.004625" y="239.0272" fill="#f2f2f2"/><g fill="#f2f2f2"><use xlink:href="#238c67a7r" x="1025.18961" y="239.0272"/><use xlink:href="#238c67a7s" x="1033.523311" y="239.0272"/></g><use xlink:href="#238c67a7t" x="1039.119799" y="239.0272" fill="#f2f2f2"/><use xlink:href="#238c67a7q" x="219.999746" y="344.0272" fill="#f2f2f2"/><g fill="#f2f2f2"><use xlink:href="#238c67a7r" x="228.184732" y="344.0272"/><use xlink:href="#238c67a7s" x="236.518433" y="344.0272"/></g><use xlink:href="#238c67a7t" x="242.11492" y="344.0272" fill="#f2f2f2"/><path d="M211.5 332.5l-.23.44" fill="none" stroke-width="5" stroke-linecap="round" stroke-linejoin="round" stroke="#fff"/><path d="M204.18 346.36L94.28 554.35" fill="none" stroke-width="5" stroke-linecap="round" stroke-linejoin="round" stroke="#fff" stroke-dasharray="1.012,15.177"/><path d="M90.73 561.06l-.23.44" fill="none" stroke-width="5" stroke-linecap="round" stroke-linejoin="round" stroke="#fff"/><use xlink:href="#238c67a7u" x="480.8008" y="239.0332" fill="#f2f2f2"/><g fill="#f2f2f2"><use xlink:href="#238c67a7s" x="489.236919" y="239.0332"/><use xlink:href="#238c67a7t" x="494.834809" y="239.0332"/></g><use xlink:href="#238c67a7u" x="133.801757" y="317.9092" fill="#f2f2f2"/><g fill="#f2f2f2"><use xlink:href="#238c67a7s" x="142.237875" y="317.9092"/><use xlink:href="#238c67a7t" x="147.835766" y="317.9092"/></g><path d="M125.5 308.5l-36 253" fill="#1a26cd"/><path d="M125.5 308.5l-.07.5" fill="none" stroke-width="5" stroke-linecap="round" stroke-linejoin="round" stroke="#fff"/><path d="M123.32 323.82l-32.7 229.77" fill="none" stroke-width="5" stroke-linecap="round" stroke-linejoin="round" stroke="#fff" stroke-dasharray=".998,14.973"/><path d="M89.57 561l-.07.5" fill="none" stroke-width="5" stroke-linecap="round" stroke-linejoin="round" stroke="#fff"/><path d="M89.5 306.5v255M89.5 561.5h121" fill="none" stroke-width="5" stroke-linecap="round" stroke-linejoin="round" stroke="#fff" stroke-miterlimit="10"/></svg>