<svg xmlns="http://www.w3.org/2000/svg" viewBox="0 0 1366 768"><defs><style>.cls-1{fill:#fff;}.cls-2{fill:red;}.cls-3{fill:#1a26cd;}</style></defs><g id="Layer_1" data-name="Layer 1"><rect class="cls-1" x="-58.82" y="-61.56" width="1466.48" height="940.05"/><path d="M271.72,175.41a52.15,52.15,0,0,0,8.43,10.93l-.24.83c-8.19,0-13.66-4.39-18.29-11.28L243.2,148.56v-.71c12.95-1.07,21-6.18,21-16.63s-7.48-14.14-19.84-14.14h-5.34v64.15l12.83,3V186H220.63V184.2l8.08-3V117.67l-8.08-3v-1.78h27.56c15.81,0,27.45,4.51,27.45,17.7,0,11.41-9.15,15.8-20.32,17.23Z"/><path d="M284.9,162.34c0-15.2,8.91-25.66,25.54-25.66,15.81,0,24,11.29,24,25.66,0,15.21-8.91,25.66-24.95,25.66C293.1,188,284.9,176.72,284.9,162.34ZM324.82,164c0-12-5.11-23.65-15.92-23.65-10.57,0-14.38,9.15-14.38,20.32,0,12.12,5.11,23.64,15.92,23.64C321,184.32,324.82,176,324.82,164Z"/><path d="M432.57,184.92v1.18H406.79v-1.18l7.84-2.38V157.83c0-8.79-2.49-13.43-10.69-13.43-8.55,0-11.52,7-11.52,15.68v22.46l8.55,2.38v1.18H374.24v-1.18l8.55-2.38V157.83c0-8.08-1.9-13.43-10.81-13.55-8.08-.11-11.4,6.18-11.52,15.21v22.93l8.31,2.38V186H342.4V184.8l8.43-2.38V143.69h-9v-1.07l18.05-5.35v12.24c3.45-8.55,9.75-13.07,16.87-12.95,8.56.12,13.79,4.87,15.21,12.71,3.45-8,9.27-12.59,16.75-12.59,10.22,0,15.57,7,15.57,17.58v28.28Z"/><path d="M479.26,160.08H445.52c.83,12,7,19.25,17.35,19.25,7.72,0,11.88-2.14,14.49-8.31h1.9c-1.19,7.84-6.3,16.87-19.6,16.87-15.09,0-22.1-11.65-22.1-25.55,0-14.37,8-25.78,22.45-25.78C474.86,136.56,480.69,148.44,479.26,160.08Zm-9-3.56c0-8.91-3.44-16.39-12.24-16.39-7.72,0-12.35,5.7-12.59,16.39Z"/><path class="cls-2" d="M490.54,152.84a6.77,6.77,0,0,1,6.78-6.77,6.77,6.77,0,1,1-6.78,6.77Z"/><path d="M583.45,114.7l-9.27,3v69.62H572.4L528.92,122.9v58.33l13.54,3V186H514.9V184.2l9.26-3V117.67l-9.26-3v-1.78h20l34.57,52.39V117.67l-13.19-3v-1.78h27.21Z"/><path d="M638,168.76h2.14v4.39c0,7.61-1.31,13.78-10.7,13.78-5.34,0-9.62-2.37-9.86-8.67-2.37,5.23-6.77,9.63-14.49,9.63-9.39,0-15.09-5.35-15.09-14.38,0-11,8-15.56,18.53-15.56a20.63,20.63,0,0,1,11,2.85v-9.15c0-7.37-1.66-11.41-9.27-11.41-6.65,0-9.86,3.81-12.94,14.5h-1.79V138.46a83.53,83.53,0,0,1,16.16-1.9c12.95,0,17.47,5.35,17.47,16.75v22.81c0,3.33,1.06,5.23,3.92,5.23,3.56,0,4.87-2.85,4.87-9Zm-18.42,1v-5a15.36,15.36,0,0,0-9.5-3.33c-6.77,0-10.81,3.57-10.81,10.22,0,5.82,3.32,9.27,9.62,9.27C617.54,180.88,619.56,174.22,619.56,169.71Z"/><path d="M661.38,212.6l11.88,2.61v1.19H643.32v-1.19l8.44-2.61V144.4h-9v-1.19l18.41-6.65v12l.24.12c2.73-7.13,8.55-12.12,17.82-12.12,13.19,0,18.77,9.15,18.77,23.41,0,16.75-8,27.92-25.07,27.92a42.67,42.67,0,0,1-11.52-1.55Zm0-53v17.58c1.9,4.28,6.65,7,12,7,14,0,15.44-14.25,15.44-22.1,0-12.71-5.22-18.89-13.78-18.89C664.94,143.21,661.38,150.82,661.38,159.61Z"/><path d="M738.48,176c-1.54,5.94-4.63,11.89-13.42,11.89-9,0-13.55-4.16-13.67-13.07V112.21L703,110v-1.19h34.33V110L721,111.85v59.88c0,5.82,1.07,9.74,7.84,9.74,3.92,0,6.18-1.66,7.84-5.47Z"/><path d="M784.93,160.08H751.19c.83,12,7,19.25,17.35,19.25,7.72,0,11.88-2.14,14.49-8.31h1.9c-1.19,7.84-6.29,16.87-19.6,16.87-15.09,0-22.1-11.65-22.1-25.55,0-14.37,8-25.78,22.46-25.78C780.54,136.56,786.36,148.44,784.93,160.08Zm-9-3.56c0-8.91-3.44-16.39-12.23-16.39-7.73,0-12.36,5.7-12.6,16.39Z"/><path d="M818,158.54c10.1,2.73,12.24,7.37,12.24,14.26,0,9.62-6.54,15.09-18.18,15.09-6.3,0-13.07-3-15.45-8.32v8.32H794.2V167.81h2.37v5.46c1.55,7.13,7.49,10.34,15.81,10.34,7.6,0,10.92-3.92,10.92-8.32,0-5-2.61-6.18-7.24-7.36l-9.86-2.62c-6.42-1.66-11.17-5.58-11.17-13.19,0-9.86,7.48-15.56,17.11-15.56,6.65,0,11.88,2.38,14,6.77v-6.17h2.37v20.07h-2.37v-7.48c-2.26-7.49-6.78-9.51-14.14-9.51-5.94,0-9.63,3.09-9.63,8.2,0,4.64,2.38,6.54,6.78,7.72Z"/><path class="cls-2" d="M840.41,152.84a6.76,6.76,0,0,1,6.77-6.77,6.77,6.77,0,1,1,0,13.54A6.77,6.77,0,0,1,840.41,152.84Z"/><path d="M957.79,184.2V186H927.73V184.2l10.45-3V118.38l-28.39,68.67-3-.12-28.63-68.55v62.85l12.23,3V186H864.17V184.2l9.26-3V117.67l-9.26-3v-1.78h23.52l24,59.05,23.52-59h22.58v1.78l-9.27,3v63.56Z"/><path d="M993.3,184.8V186h-29V184.8l9.86-2.38V143.69h-9.86v-1.07l19.48-5.35v45.15Zm-20.79-61a6.6,6.6,0,1,1,6.54,6.53A6.5,6.5,0,0,1,972.51,123.85Z"/><path d="M1030.25,176c-1.54,5.94-4.63,11.89-13.42,11.89-9,0-13.55-4.16-13.67-13.07V112.21L994.73,110v-1.19h34.33V110l-16.27,1.9v59.88c0,5.82,1.07,9.74,7.84,9.74,3.92,0,6.18-1.66,7.84-5.47Z"/><path d="M1083,168.76h2.14v4.39c0,7.61-1.31,13.78-10.69,13.78-5.35,0-9.63-2.37-9.87-8.67-2.37,5.23-6.77,9.63-14.49,9.63-9.38,0-15.09-5.35-15.09-14.38,0-11,8-15.56,18.54-15.56a20.62,20.62,0,0,1,11,2.85v-9.15c0-7.37-1.66-11.41-9.26-11.41-6.65,0-9.86,3.81-13,14.5h-1.78V138.46a83.35,83.35,0,0,1,16.15-1.9c13,0,17.47,5.35,17.47,16.75v22.81c0,3.33,1.07,5.23,3.92,5.23,3.56,0,4.87-2.85,4.87-9Zm-18.42,1v-5a15.36,15.36,0,0,0-9.5-3.33c-6.77,0-10.81,3.57-10.81,10.22,0,5.82,3.33,9.27,9.62,9.27C1062.57,180.88,1064.58,174.22,1064.58,169.71Z"/><path d="M1148.1,184.8V186h-26.37V184.8l8.43-2.38V157.23c0-7.84-2.73-12.95-10.93-12.95s-12,5.71-12,15.92v22.22l8.32,2.38V186h-26.37V184.8l8.43-2.38V143.69h-8.43v-1.07l17.46-5.35v12.24c3.44-8.55,9.86-12.95,17.35-12.95,10.57,0,15.8,7,15.8,17.58v28.28Z"/><path d="M214.28,265.54c2.49,15.44,8.2,24.71,22.21,24.71,11.17,0,15.21-5.23,15.21-14.14,0-8.19-5.46-11.16-10.57-13.06l-13.19-5c-9.86-3.69-14.49-9.87-14.49-19.84,0-12.36,9-20.08,22.93-20.08a66.68,66.68,0,0,1,18.53,2.25L256.45,243h-1.78c-3.8-15-8.31-20.44-19.36-20.44-9,0-14.14,4.52-14.14,12.95,0,5.71,3.21,9.51,10.69,12.36l14.5,5.46c9.14,3.45,14,9,14,19.49,0,12.95-7.84,22.1-26.49,22.1a68.31,68.31,0,0,1-20.2-3.57l-1.18-25.78Z"/><path d="M295.89,291.8V293h-29V291.8l9.86-2.38V250.69h-9.86v-1.07l19.48-5.35v45.15Zm-20.79-61a6.6,6.6,0,1,1,6.54,6.53A6.5,6.5,0,0,1,275.1,230.85Z"/><path d="M341.63,278c-1.42,10.09-7.36,16.87-18.77,16.87-15.44,0-22.22-11.65-22.22-24.36,0-14.61,7.25-27,25.07-27A52,52,0,0,1,340,245.7l1.66,18.18-1.78.23c-2.85-9.26-7-17-16-17-11.52,0-15.32,8.19-15.32,18.53,0,10.1,5,20.91,18.41,20.91,6.53,0,11.05-2.85,12.83-8.55Z"/><path d="M376.2,291.8V293h-29V291.8l9.86-2.38V250.69h-9.86v-1.07l19.49-5.35v45.15Zm-20.79-61a6.6,6.6,0,1,1,6.54,6.53A6.5,6.5,0,0,1,355.41,230.85Z"/><path d="M413.15,283c-1.55,5.94-4.64,11.89-13.43,11.89-9,0-13.54-4.16-13.66-13.07V219.21L377.63,217v-1.19H412V217l-16.28,1.9v59.88c0,5.82,1.07,9.74,7.85,9.74,3.92,0,6.17-1.66,7.84-5.47Z"/><path d="M445.7,291.8V293h-29V291.8l9.86-2.38V250.69h-9.86v-1.07l19.49-5.35v45.15Zm-20.79-61a6.6,6.6,0,1,1,6.53,6.53A6.49,6.49,0,0,1,424.91,230.85Z"/><path d="M498.45,275.76h2.14v4.39c0,7.61-1.31,13.78-10.7,13.78-5.34,0-9.62-2.37-9.86-8.67-2.37,5.23-6.77,9.63-14.49,9.63-9.39,0-15.09-5.35-15.09-14.38,0-11.05,8-15.56,18.53-15.56a20.63,20.63,0,0,1,11,2.85v-9.15c0-7.37-1.66-11.41-9.26-11.41-6.66,0-9.86,3.81-12.95,14.5H456V245.46a83.53,83.53,0,0,1,16.16-1.9c12.95,0,17.47,5.35,17.47,16.75v22.81c0,3.33,1.07,5.23,3.92,5.23,3.56,0,4.87-2.85,4.87-9Zm-18.42.95v-5a15.36,15.36,0,0,0-9.5-3.33c-6.77,0-10.81,3.57-10.81,10.22,0,5.82,3.32,9.27,9.62,9.27C478,287.88,480,281.22,480,276.71Z"/><path class="cls-2" d="M508.66,259.84a6.76,6.76,0,0,1,6.78-6.77,6.77,6.77,0,0,1,0,13.54A6.77,6.77,0,0,1,508.66,259.84Z"/><path d="M590,239.88h-1.78l-8.79-15.8H555.71v30.06h17.82l3.92-10.46h1.78v25.07h-1.78l-3.92-10.46H555.71v31.13l12.12,2.38V293H536.94V291.8l8.43-2.38V223.48l-8.43-2.37v-1.19h51Z"/><path d="M628.18,283c-1.55,5.94-4.64,11.89-13.43,11.89-9,0-13.54-4.16-13.66-13.07V219.21L592.65,217v-1.19H627V217l-16.28,1.9v59.88c0,5.82,1.07,9.74,7.84,9.74,3.92,0,6.18-1.66,7.84-5.47Z"/><path d="M632.93,269.34c0-15.2,8.91-25.66,25.54-25.66,15.8,0,24,11.29,24,25.66,0,15.21-8.91,25.66-25,25.66C641.13,295,632.93,283.72,632.93,269.34ZM672.85,271c0-12-5.11-23.65-15.92-23.65-10.58,0-14.38,9.15-14.38,20.32,0,12.12,5.11,23.64,15.92,23.64C669,291.32,672.85,283,672.85,271Z"/><path d="M727.26,243.56v17.11h-1.79c-1.66-5.35-3.92-7.49-8-7.49-7.24,0-9.62,8.08-9.62,16.64v19.6L721,291.8V293H689.83V291.8l8.44-2.38V250.69h-8.44v-1.07l17.47-6.06v15.33a47.14,47.14,0,0,1,2.14-4.4C713.24,247.84,719.18,243.56,727.26,243.56Z"/><path d="M773.59,267.08H739.85c.83,12,7,19.25,17.34,19.25,7.73,0,11.88-2.14,14.5-8.31h1.9c-1.19,7.84-6.3,16.87-19.61,16.87-15.08,0-22.09-11.65-22.09-25.55,0-14.37,8-25.78,22.45-25.78C769.19,243.56,775,255.44,773.59,267.08Zm-9-3.56c0-8.91-3.45-16.39-12.24-16.39-7.72,0-12.35,5.7-12.59,16.39Z"/><path d="M839.76,291.8V293H813.38V291.8l8.44-2.38V264.23c0-7.84-2.73-13-10.93-13s-12,5.71-12,15.92v22.22l8.32,2.38V293H780.83V291.8l8.44-2.38V250.69h-8.44v-1.07l17.47-5.35v12.24c3.44-8.55,9.86-12.95,17.34-12.95,10.58,0,15.8,7,15.8,17.58v28.28Z"/><path d="M885.73,278c-1.42,10.09-7.36,16.87-18.77,16.87-15.44,0-22.21-11.65-22.21-24.36,0-14.61,7.24-27,25.06-27a52,52,0,0,1,14.26,2.14l1.66,18.18-1.78.23c-2.85-9.26-7-17-16-17-11.52,0-15.32,8.19-15.32,18.53,0,10.1,5,20.91,18.41,20.91,6.54,0,11-2.85,12.83-8.55Z"/><path d="M934.2,267.08H900.46c.83,12,7,19.25,17.35,19.25,7.72,0,11.88-2.14,14.49-8.31h1.9c-1.18,7.84-6.29,16.87-19.6,16.87-15.09,0-22.1-11.65-22.1-25.55,0-14.37,8-25.78,22.46-25.78C929.81,243.56,935.63,255.44,934.2,267.08Zm-9-3.56c0-8.91-3.44-16.39-12.23-16.39-7.73,0-12.36,5.7-12.6,16.39Z"/><path class="cls-2" d="M945.49,259.84a6.76,6.76,0,0,1,6.77-6.77,6.77,6.77,0,0,1,0,13.54A6.77,6.77,0,0,1,945.49,259.84Z"/><path d="M1027.1,272.19c0,16-12.23,20.79-29.46,20.79H970.08V291.8l8.43-2.38V223.48l-8.43-2.37v-1.19h29.34c16.75,0,25.07,5.58,25.07,16.75,0,9-7.49,15.33-18.18,16.87C1018.19,254.61,1027.1,260.08,1027.1,272.19ZM996,224.08h-7.13v28.39H994c13.42,0,19.12-5.7,19.12-15.68C1013.08,228.71,1007.38,224.08,996,224.08Zm19.72,48.11c0-11.52-7.72-15.68-18.89-15.68h-8v32.32H998C1009.28,288.83,1015.7,284,1015.7,272.19Z"/><path d="M1082.23,275.76h2.14v4.39c0,7.61-1.31,13.78-10.7,13.78-5.34,0-9.62-2.37-9.86-8.67-2.37,5.23-6.77,9.63-14.49,9.63-9.39,0-15.09-5.35-15.09-14.38,0-11.05,8-15.56,18.53-15.56a20.63,20.63,0,0,1,11,2.85v-9.15c0-7.37-1.66-11.41-9.27-11.41-6.65,0-9.86,3.81-12.94,14.5h-1.79V245.46a83.53,83.53,0,0,1,16.16-1.9c13,0,17.47,5.35,17.47,16.75v22.81c0,3.33,1.06,5.23,3.92,5.23,3.56,0,4.87-2.85,4.87-9Zm-18.42.95v-5a15.36,15.36,0,0,0-9.5-3.33c-6.77,0-10.81,3.57-10.81,10.22,0,5.82,3.32,9.27,9.62,9.27C1061.79,287.88,1063.81,281.22,1063.81,276.71Z"/><path d="M1125.83,243.56v17.11H1124c-1.66-5.35-3.92-7.49-8-7.49-7.24,0-9.62,8.08-9.62,16.64v19.6l13.07,2.38V293H1088.4V291.8l8.44-2.38V250.69h-8.44v-1.07l17.47-6.06v15.33c.59-1.55,1.42-3,2.13-4.4C1111.81,247.84,1117.75,243.56,1125.83,243.56Z"/><path d="M1158.26,291.8V293h-29V291.8l9.86-2.38V250.69h-9.86v-1.07l19.48-5.35v45.15Zm-20.79-61a6.59,6.59,0,1,1,6.53,6.53A6.49,6.49,0,0,1,1137.47,230.85Z"/><path d="M250,379.19c0,16-12.24,20.79-29.47,20.79H193V398.8l8.44-2.38V330.48L193,328.11v-1.19H222.3c16.75,0,25.07,5.58,25.07,16.75,0,9-7.49,15.33-18.18,16.87C241.07,361.61,250,367.08,250,379.19Zm-31.13-48.11h-7.13v28.39h5.11c13.43,0,19.13-5.7,19.13-15.68C236,335.71,230.26,331.08,218.85,331.08Zm19.72,48.11c0-11.52-7.72-15.68-18.89-15.68h-8v32.32h9.15C232.16,395.83,238.57,391,238.57,379.19Z"/><path d="M257.1,376.34c0-15.2,8.91-25.66,25.55-25.66,15.8,0,24,11.29,24,25.66,0,15.21-8.91,25.66-24.95,25.66C265.3,402,257.1,390.72,257.1,376.34ZM297,378c0-12-5.11-23.65-15.92-23.65-10.57,0-14.37,9.15-14.37,20.32,0,12.12,5.11,23.64,15.92,23.64C293.22,398.32,297,390,297,378Z"/><path d="M347.16,390c-1.55,5.94-4.64,11.89-13.43,11.89-9,0-13.54-4.16-13.66-13.07V326.21L311.63,324v-1.19H346V324l-16.28,1.9v59.88c0,5.82,1.07,9.74,7.84,9.74,3.92,0,6.18-1.66,7.84-5.47Z"/><path d="M351.91,376.34c0-15.2,8.91-25.66,25.54-25.66,15.8,0,24,11.29,24,25.66,0,15.21-8.91,25.66-24.95,25.66C360.1,402,351.91,390.72,351.91,376.34ZM391.83,378c0-12-5.11-23.65-15.92-23.65-10.58,0-14.38,9.15-14.38,20.32,0,12.12,5.11,23.64,15.92,23.64C388,398.32,391.83,390,391.83,378Z"/><path d="M460,350.44v6.77H448.37a18.63,18.63,0,0,1,4.76,12.84c0,11.76-7,19.84-19.61,20.55v8.2H437c11.88,0,19.84,5,19.84,15.2,0,12-12,17.59-25.31,17.59-14.25,0-24.71-5.59-24.71-17.59,0-10.21,8.91-15.2,19.84-15.2h2.5v-8.2c-12.83-.71-20.44-7.72-20.44-20.08,0-11.4,7.61-19.84,22.1-19.84,6.06,0,10.93,1.43,14.61,3.92l13.78-4.16ZM432.57,402.6H430.2c-8.68,0-13.9,3.56-13.9,12.23,0,8.2,7.48,13.19,15.56,13.19,9,0,15-5.34,15-13.19C446.83,406.16,440.89,402.6,432.57,402.6Zm10.1-29.35c0-11.52-4.39-18.89-12.83-18.89-7,0-10.81,5.23-10.81,13.55,0,12.59,4.51,18.77,12.71,18.77C439.23,386.68,442.67,381.21,442.67,373.25Z"/><path d="M522.74,398.8V400H496.37V398.8l8.43-2.38V371.23c0-7.84-2.73-13-10.93-13s-12,5.71-12,15.92v22.22l8.32,2.38V400H463.82V398.8l8.43-2.38V357.69h-8.43v-1.07l17.46-5.35v12.24c3.45-8.55,9.86-12.95,17.34-12.95,10.58,0,15.81,7,15.81,17.58v28.28Z"/><path d="M575.73,382.76h2.14v4.39c0,7.61-1.31,13.78-10.7,13.78-5.34,0-9.62-2.37-9.86-8.67-2.37,5.23-6.77,9.63-14.49,9.63-9.39,0-15.09-5.35-15.09-14.38,0-11.05,8-15.56,18.53-15.56a20.63,20.63,0,0,1,11,2.85v-9.15c0-7.37-1.66-11.41-9.27-11.41-6.65,0-9.86,3.81-12.94,14.5h-1.79V352.46a83.53,83.53,0,0,1,16.16-1.9c12.95,0,17.47,5.35,17.47,16.75v22.81c0,3.33,1.06,5.23,3.92,5.23,3.56,0,4.87-2.85,4.87-9Zm-18.42.95v-5a15.36,15.36,0,0,0-9.5-3.33C541,375.39,537,379,537,385.61c0,5.82,3.32,9.27,9.62,9.27C555.29,394.88,557.31,388.22,557.31,383.71Z"/><path class="cls-2" d="M585.94,366.84a6.76,6.76,0,0,1,6.77-6.77,6.77,6.77,0,1,1,0,13.54A6.77,6.77,0,0,1,585.94,366.84Z"/><path d="M655.92,326.92l8.43-1.54v23h-1.78l-6.65-17.22H641.18v64l12.84,3V400H618V398.2l12.83-3v-64H616l-6.66,17.22h-1.78v-23l8.44,1.54Z"/><path d="M716.62,398.8V400H697.85v-9.62c-1.78,5.58-6.53,11.53-15.32,11.53-11.53,0-15.45-7-15.45-18.3V356.15l-6.65-2.5v-1.19h23.88v1.19l-7.6,2.5V381c0,9.26,2.37,13.3,9.86,13.3,7.12,0,11.28-5,11.28-14.25V356.15l-7.72-2.5v-1.19h25.78v1.19L707.48,356v40.39Z"/><path d="M759.75,350.56v17.11H758c-1.66-5.35-3.92-7.49-8-7.49-7.24,0-9.62,8.08-9.62,16.64v19.6l13.07,2.38V400H722.32V398.8l8.44-2.38V357.69h-8.44v-1.07l17.47-6.06v15.33c.59-1.55,1.42-3,2.13-4.4C745.73,354.84,751.67,350.56,759.75,350.56Z"/><path d="M792.18,398.8V400h-29V398.8l9.86-2.38V357.69h-9.86v-1.07l19.48-5.35v45.15Zm-20.79-60.95a6.59,6.59,0,1,1,6.53,6.53A6.49,6.49,0,0,1,771.39,337.85Z"/><path d="M854.91,398.8V400H828.53V398.8l8.43-2.38V371.23c0-7.84-2.73-13-10.92-13S814,364,814,374.2v22.22l8.31,2.38V400H796V398.8l8.43-2.38V357.69H796v-1.07l17.46-5.35v12.24c3.45-8.55,9.86-12.95,17.35-12.95,10.57,0,15.8,7,15.8,17.58v28.28Z"/><path class="cls-2" d="M863,366.84a6.76,6.76,0,0,1,6.77-6.77,6.77,6.77,0,1,1-6.77,6.77Z"/><path d="M909.07,364.22c13.9-.59,23-5.94,23-17.58,0-10.45-6.41-15.44-18.29-15.44H906v64l12.83,3V400H886.38V398.2l9.27-3V331.67l-9.27-3v-1.78h28.4c21.26,0,28.75,6.65,28.75,19.25,0,15.2-11,20.31-31.37,20.31h-3.09Z"/><path d="M995.68,382.76h2.14v4.39c0,7.61-1.31,13.78-10.69,13.78-5.35,0-9.63-2.37-9.86-8.67-2.38,5.23-6.78,9.63-14.5,9.63-9.38,0-15.09-5.35-15.09-14.38,0-11.05,8-15.56,18.54-15.56a20.68,20.68,0,0,1,11,2.85v-9.15c0-7.37-1.67-11.41-9.27-11.41-6.65,0-9.86,3.81-13,14.5h-1.78V352.46a83.35,83.35,0,0,1,16.15-1.9c13,0,17.47,5.35,17.47,16.75v22.81c0,3.33,1.07,5.23,3.92,5.23,3.56,0,4.87-2.85,4.87-9Zm-18.41.95v-5a15.39,15.39,0,0,0-9.51-3.33C961,375.39,957,379,957,385.61c0,5.82,3.33,9.27,9.62,9.27C975.25,394.88,977.27,388.22,977.27,383.71Z"/><path d="M1057.93,398.8V400h-18.77v-8.55c-2.49,6.18-8.2,10.46-16.51,10.46-14,0-19.84-11.53-19.84-25.31,0-15.56,8.08-26,23.28-26,5.11,0,10.1,1.55,13.07,4.4V325.85l-12.71-1.9v-1.19h30.77V324l-8.43,2.26v70.21Zm-18.77-18.18V367.79c-.83-7.61-4.16-13.66-13.19-13.66-10.33,0-14,8.43-14,19.84s3.8,19.6,13.9,19.6C1032,393.57,1039.16,391.07,1039.16,380.62Z"/><path d="M1118.64,398.8V400h-18.77v-9.62c-1.78,5.58-6.54,11.53-15.33,11.53-11.52,0-15.44-7-15.44-18.3V356.15l-6.65-2.5v-1.19h23.88v1.19l-7.61,2.5V381c0,9.26,2.38,13.3,9.86,13.3,7.13,0,11.29-5,11.29-14.25V356.15l-7.72-2.5v-1.19h25.78v1.19l-8.44,2.38v40.39Z"/><path d="M1173.29,382.76h2.13v4.39c0,7.61-1.3,13.78-10.69,13.78-5.34,0-9.62-2.37-9.86-8.67-2.37,5.23-6.77,9.63-14.49,9.63-9.39,0-15.09-5.35-15.09-14.38,0-11.05,8-15.56,18.53-15.56a20.63,20.63,0,0,1,11,2.85v-9.15c0-7.37-1.66-11.41-9.27-11.41-6.65,0-9.86,3.81-12.94,14.5h-1.79V352.46a83.53,83.53,0,0,1,16.16-1.9c13,0,17.47,5.35,17.47,16.75v22.81c0,3.33,1.06,5.23,3.92,5.23,3.56,0,4.87-2.85,4.87-9Zm-18.42.95v-5a15.36,15.36,0,0,0-9.5-3.33c-6.77,0-10.81,3.57-10.81,10.22,0,5.82,3.32,9.27,9.62,9.27C1152.85,394.88,1154.87,388.22,1154.87,383.71Z"/><path d="M256,496.41a52.15,52.15,0,0,0,8.43,10.93l-.24.83c-8.19,0-13.66-4.39-18.29-11.28l-18.42-27.33v-.71c12.95-1.07,21-6.18,21-16.63s-7.48-14.14-19.84-14.14h-5.34v64.15l12.83,3V507H204.89V505.2l8.08-3V438.67l-8.08-3v-1.78h27.56c15.8,0,27.45,4.51,27.45,17.7,0,11.41-9.15,15.8-20.32,17.23Z"/><path d="M317.16,489.76h2.14v4.39c0,7.61-1.31,13.78-10.7,13.78-5.34,0-9.62-2.37-9.86-8.67-2.37,5.23-6.77,9.63-14.49,9.63-9.39,0-15.09-5.35-15.09-14.38,0-11.05,8-15.56,18.54-15.56a20.62,20.62,0,0,1,11,2.85v-9.15c0-7.37-1.66-11.41-9.26-11.41-6.66,0-9.86,3.81-13,14.5h-1.78V459.46a83.35,83.35,0,0,1,16.15-1.9c13,0,17.47,5.35,17.47,16.75v22.81c0,3.33,1.07,5.23,3.92,5.23,3.56,0,4.87-2.85,4.87-9Zm-18.42.95v-5a15.36,15.36,0,0,0-9.5-3.33c-6.77,0-10.81,3.57-10.81,10.22,0,5.82,3.32,9.27,9.62,9.27C296.72,501.88,298.74,495.22,298.74,490.71Z"/><path d="M365.63,460.65l-4.16,1.66-.12.24-20.07,46.22h-1.19L320,462.43l-5.23-1.78v-1.19h26.5v1.19l-10.34,1.9,12.95,31.37,13.31-31.49-9.51-1.78v-1.19h17.94Z"/><path d="M410.89,481.08H377.15c.83,12,7,19.25,17.35,19.25,7.72,0,11.88-2.14,14.49-8.31h1.9c-1.18,7.84-6.29,16.87-19.6,16.87-15.09,0-22.1-11.65-22.1-25.55,0-14.37,8-25.78,22.46-25.78C406.5,457.56,412.32,469.44,410.89,481.08Zm-9-3.56c0-8.91-3.44-16.39-12.23-16.39-7.73,0-12.36,5.7-12.6,16.39Z"/><path d="M477.07,505.8V507H450.69V505.8l8.43-2.38V478.23c0-7.84-2.73-13-10.92-13s-12,5.71-12,15.92v22.22l8.31,2.38V507H418.14V505.8l8.43-2.38V464.69h-8.43v-1.07l17.46-5.35v12.24c3.45-8.55,9.86-12.95,17.35-12.95,10.57,0,15.8,7,15.8,17.58v28.28Z"/><path d="M530.05,489.76h2.14v4.39c0,7.61-1.31,13.78-10.69,13.78-5.35,0-9.63-2.37-9.87-8.67-2.37,5.23-6.77,9.63-14.49,9.63-9.39,0-15.09-5.35-15.09-14.38,0-11.05,8-15.56,18.54-15.56a20.62,20.62,0,0,1,11,2.85v-9.15c0-7.37-1.66-11.41-9.26-11.41-6.66,0-9.86,3.81-12.95,14.5h-1.78V459.46a83.35,83.35,0,0,1,16.15-1.9c12.95,0,17.47,5.35,17.47,16.75v22.81c0,3.33,1.07,5.23,3.92,5.23,3.56,0,4.87-2.85,4.87-9Zm-18.42.95v-5a15.36,15.36,0,0,0-9.5-3.33c-6.77,0-10.81,3.57-10.81,10.22,0,5.82,3.33,9.27,9.62,9.27C509.61,501.88,511.63,495.22,511.63,490.71Z"/><path class="cls-2" d="M540.26,473.84a6.76,6.76,0,0,1,6.78-6.77,6.77,6.77,0,1,1,0,13.54A6.77,6.77,0,0,1,540.26,473.84Z"/><path d="M586.12,471.22c13.9-.59,23-5.94,23-17.58,0-10.45-6.42-15.44-18.3-15.44H583v64l12.83,3V507H563.43V505.2l9.27-3V438.67l-9.27-3v-1.78h28.39c21.27,0,28.75,6.65,28.75,19.25,0,15.2-11,20.31-31.36,20.31h-3.09Z"/><path d="M672.73,489.76h2.14v4.39c0,7.61-1.31,13.78-10.7,13.78-5.34,0-9.62-2.37-9.86-8.67-2.37,5.23-6.77,9.63-14.49,9.63-9.39,0-15.09-5.35-15.09-14.38,0-11.05,8-15.56,18.53-15.56a20.63,20.63,0,0,1,11,2.85v-9.15c0-7.37-1.66-11.41-9.27-11.41-6.65,0-9.86,3.81-12.94,14.5h-1.79V459.46a83.53,83.53,0,0,1,16.16-1.9c12.95,0,17.47,5.35,17.47,16.75v22.81c0,3.33,1.06,5.23,3.92,5.23,3.56,0,4.87-2.85,4.87-9Zm-18.42.95v-5a15.36,15.36,0,0,0-9.5-3.33C638,482.39,634,486,634,492.61c0,5.82,3.32,9.27,9.62,9.27C652.29,501.88,654.31,495.22,654.31,490.71Z"/><path d="M716.33,457.56v17.11h-1.79c-1.66-5.35-3.92-7.49-8-7.49-7.24,0-9.62,8.08-9.62,16.64v19.6L710,505.8V507H678.9V505.8l8.44-2.38V464.69H678.9v-1.07l17.47-6.06v15.33a47.14,47.14,0,0,1,2.14-4.4C702.31,461.84,708.25,457.56,716.33,457.56Z"/><path d="M810.77,505.92v1.18H785v-1.18l7.84-2.38V478.83c0-8.79-2.49-13.43-10.69-13.43-8.55,0-11.52,7-11.52,15.68v22.46l8.55,2.38v1.18H752.44v-1.18l8.55-2.38V478.83c0-8.08-1.9-13.43-10.81-13.55-8.08-.11-11.4,6.18-11.52,15.21v22.93L747,505.8V507H720.6V505.8l8.44-2.38V464.69h-9v-1.07l18.06-5.35v12.24c3.44-8.55,9.74-13.07,16.87-12.95,8.55.12,13.78,4.87,15.2,12.71,3.45-8,9.27-12.59,16.75-12.59,10.22,0,15.57,7,15.57,17.58v28.28Z"/><path d="M863.76,489.76h2.14v4.39c0,7.61-1.31,13.78-10.7,13.78-5.34,0-9.62-2.37-9.86-8.67-2.37,5.23-6.77,9.63-14.49,9.63-9.39,0-15.09-5.35-15.09-14.38,0-11.05,8-15.56,18.53-15.56a20.63,20.63,0,0,1,11.05,2.85v-9.15c0-7.37-1.66-11.41-9.26-11.41-6.66,0-9.86,3.81-13,14.5h-1.79V459.46a83.53,83.53,0,0,1,16.16-1.9c13,0,17.47,5.35,17.47,16.75v22.81c0,3.33,1.07,5.23,3.92,5.23,3.56,0,4.87-2.85,4.87-9Zm-18.42.95v-5a15.36,15.36,0,0,0-9.5-3.33c-6.77,0-10.81,3.57-10.81,10.22,0,5.82,3.32,9.27,9.62,9.27C843.32,501.88,845.34,495.22,845.34,490.71Z"/><path class="cls-2" d="M874,473.84a6.76,6.76,0,0,1,6.78-6.77,6.77,6.77,0,0,1,0,13.54A6.77,6.77,0,0,1,874,473.84Z"/><path d="M950.36,485.36l1.78.48L948.82,507H897.14V505.2l9.26-3V438.67l-9.26-3v-1.78h32.43v1.78l-12.83,3v64.16H941Z"/><path d="M1011.54,505.8V507H992.77v-9.62c-1.78,5.58-6.53,11.53-15.32,11.53-11.53,0-15.45-7-15.45-18.3V463.15l-6.65-2.5v-1.19h23.88v1.19l-7.6,2.5V488c0,9.26,2.37,13.3,9.86,13.3,7.12,0,11.28-5,11.28-14.25V463.15l-7.72-2.5v-1.19h25.78v1.19L1002.4,463v40.39Z"/><path d="M1059.18,492c-1.42,10.09-7.36,16.87-18.77,16.87-15.44,0-22.22-11.65-22.22-24.36,0-14.61,7.25-27,25.07-27a52,52,0,0,1,14.26,2.14l1.66,18.18-1.78.23c-2.85-9.26-7-17-16-17-11.52,0-15.32,8.19-15.32,18.53,0,10.1,5,20.91,18.41,20.91,6.53,0,11-2.85,12.83-8.55Z"/><path d="M1106.94,492c-1.43,10.09-7.37,16.87-18.77,16.87-15.45,0-22.22-11.65-22.22-24.36,0-14.61,7.25-27,25.07-27a52,52,0,0,1,14.25,2.14l1.67,18.18-1.78.23c-2.86-9.26-7-17-16-17-11.53,0-15.33,8.19-15.33,18.53,0,10.1,5,20.91,18.42,20.91,6.53,0,11-2.85,12.83-8.55Z"/><path d="M1161.7,489.76h2.14v4.39c0,7.61-1.3,13.78-10.69,13.78-5.35,0-9.62-2.37-9.86-8.67-2.38,5.23-6.77,9.63-14.49,9.63-9.39,0-15.09-5.35-15.09-14.38,0-11.05,8-15.56,18.53-15.56a20.66,20.66,0,0,1,11,2.85v-9.15c0-7.37-1.66-11.41-9.27-11.41-6.65,0-9.86,3.81-13,14.5h-1.78V459.46a83.44,83.44,0,0,1,16.16-1.9c13,0,17.46,5.35,17.46,16.75v22.81c0,3.33,1.07,5.23,3.92,5.23,3.57,0,4.87-2.85,4.87-9Zm-18.41.95v-5a15.38,15.38,0,0,0-9.5-3.33c-6.78,0-10.82,3.57-10.82,10.22,0,5.82,3.33,9.27,9.63,9.27C1141.27,501.88,1143.29,495.22,1143.29,490.71Z"/><path d="M258.12,560.88h-1.79l-8.79-15.8H223.78v30.06H241.6l3.92-10.46h1.78v25.07h-1.78l-3.92-10.46H223.78v31.13l12.12,2.38V614H205V612.8l8.43-2.38V544.48L205,542.11v-1.19h51Z"/><path d="M264.05,590.34c0-15.2,8.91-25.66,25.55-25.66,15.8,0,24,11.29,24,25.66,0,15.21-8.91,25.66-24.94,25.66C272.25,616,264.05,604.72,264.05,590.34ZM304,592c0-12-5.11-23.65-15.92-23.65-10.57,0-14.37,9.15-14.37,20.32,0,12.12,5.11,23.64,15.92,23.64C300.17,612.32,304,604,304,592Z"/><path d="M372.16,564.44v6.77H360.52a18.62,18.62,0,0,1,4.75,12.84c0,11.76-7,19.84-19.6,20.55v8.2h3.45c11.88,0,19.84,5,19.84,15.2,0,12-12,17.59-25.31,17.59-14.26,0-24.71-5.59-24.71-17.59,0-10.21,8.91-15.2,19.84-15.2h2.49v-8.2c-12.83-.71-20.43-7.72-20.43-20.08,0-11.4,7.6-19.84,22.1-19.84,6.06,0,10.93,1.43,14.61,3.92l13.78-4.16ZM344.72,616.6h-2.38c-8.67,0-13.9,3.56-13.9,12.23,0,8.2,7.49,13.19,15.57,13.19,9,0,15-5.34,15-13.19C359,620.16,353,616.6,344.72,616.6Zm10.1-29.35c0-11.52-4.4-18.89-12.83-18.89-7,0-10.82,5.23-10.82,13.55,0,12.59,4.52,18.77,12.72,18.77C351.37,600.68,354.82,595.21,354.82,587.25Z"/><path d="M427.17,564.44v6.77H415.52a18.63,18.63,0,0,1,4.76,12.84c0,11.76-7,19.84-19.61,20.55v8.2h3.45c11.88,0,19.84,5,19.84,15.2,0,12-12,17.59-25.31,17.59-14.25,0-24.71-5.59-24.71-17.59,0-10.21,8.91-15.2,19.84-15.2h2.5v-8.2c-12.83-.71-20.44-7.72-20.44-20.08,0-11.4,7.61-19.84,22.1-19.84,6.06,0,10.93,1.43,14.61,3.92l13.78-4.16ZM399.72,616.6h-2.37c-8.68,0-13.9,3.56-13.9,12.23,0,8.2,7.48,13.19,15.56,13.19,9,0,15-5.34,15-13.19C414,620.16,408,616.6,399.72,616.6Zm10.1-29.35c0-11.52-4.39-18.89-12.83-18.89-7,0-10.81,5.23-10.81,13.55,0,12.59,4.51,18.77,12.71,18.77C406.38,600.68,409.82,595.21,409.82,587.25Z"/><path d="M459.72,612.8V614h-29V612.8l9.86-2.38V571.69h-9.86v-1.07l19.48-5.35v45.15Zm-20.79-60.95a6.59,6.59,0,1,1,6.53,6.53A6.49,6.49,0,0,1,438.93,551.85Z"/><path d="M512.46,596.76h2.14v4.39c0,7.61-1.3,13.78-10.69,13.78-5.34,0-9.62-2.37-9.86-8.67-2.38,5.23-6.77,9.63-14.49,9.63-9.39,0-15.09-5.35-15.09-14.38,0-11,8-15.56,18.53-15.56a20.66,20.66,0,0,1,11.05,2.85v-9.15c0-7.37-1.66-11.41-9.27-11.41-6.65,0-9.86,3.81-12.95,14.5h-1.78V566.46a83.44,83.44,0,0,1,16.16-1.9c13,0,17.46,5.35,17.46,16.75v22.81c0,3.33,1.07,5.23,3.92,5.23,3.57,0,4.87-2.85,4.87-9Zm-18.41,1v-5a15.36,15.36,0,0,0-9.5-3.33c-6.78,0-10.82,3.57-10.82,10.22,0,5.82,3.33,9.27,9.63,9.27C492,608.88,494.05,602.22,494.05,597.71Z"/><path class="cls-2" d="M522.68,580.84a6.76,6.76,0,0,1,6.77-6.77,6.77,6.77,0,0,1,0,13.54A6.77,6.77,0,0,1,522.68,580.84Z"/><path d="M605.72,610.54l7.49,2.26V614H582.56V612.8l12.23-2.38-6.17-18.65H561.29l-6.18,18.65,12.48,2.38V614H541.45V612.8l8-2.26,24-66.06-9.63-1.78v-1.78h29.47v1.78l-10,1.78ZM562.6,587.61h24.59l-12.36-37.07Z"/><path d="M706.58,612.92v1.18H680.8v-1.18l7.84-2.38V585.83c0-8.79-2.49-13.43-10.69-13.43-8.55,0-11.52,7-11.52,15.68v22.46l8.55,2.38v1.18H648.25v-1.18l8.55-2.38V585.83c0-8.08-1.9-13.43-10.81-13.55-8.07-.11-11.4,6.18-11.52,15.21v22.93l8.32,2.38V614H616.41V612.8l8.44-2.38V571.69h-9v-1.07l18.06-5.35v12.24c3.44-8.55,9.74-13.07,16.87-13,8.55.12,13.78,4.87,15.2,12.71,3.45-8,9.27-12.59,16.75-12.59,10.22,0,15.57,7,15.57,17.58v28.28Z"/><path d="M759.57,596.76h2.14v4.39c0,7.61-1.31,13.78-10.7,13.78-5.34,0-9.62-2.37-9.86-8.67-2.37,5.23-6.77,9.63-14.49,9.63-9.39,0-15.09-5.35-15.09-14.38,0-11,8-15.56,18.53-15.56a20.63,20.63,0,0,1,11,2.85v-9.15c0-7.37-1.66-11.41-9.26-11.41-6.66,0-9.86,3.81-12.95,14.5h-1.79V566.46a83.53,83.53,0,0,1,16.16-1.9c13,0,17.47,5.35,17.47,16.75v22.81c0,3.33,1.07,5.23,3.92,5.23,3.56,0,4.87-2.85,4.87-9Zm-18.42,1v-5a15.36,15.36,0,0,0-9.5-3.33c-6.77,0-10.81,3.57-10.81,10.22,0,5.82,3.32,9.27,9.62,9.27C739.13,608.88,741.15,602.22,741.15,597.71Z"/><path d="M798.89,604c-1.54,5.94-4.63,11.89-13.42,11.89-9,0-13.55-4.16-13.67-13.07V540.21L763.37,538v-1.19H797.7V538l-16.27,1.9v59.88c0,5.82,1.07,9.74,7.84,9.74,3.92,0,6.18-1.66,7.84-5.47Z"/><path d="M862.21,612.8V614H835.72V612.8l8.43-2.38V570H821.7v40.39l8.44,2.38V614h-26.5V612.8l8.44-2.38V570h-8.44v-3.57h8.44v-7.6c0-14.5,6.17-24,21.14-24a93.46,93.46,0,0,1,16.28,1.43V556h-1.78c-2.73-10.7-5.7-17.7-16-17.7-7.84,0-11.88,4.39-11.88,11.88,0,5.58,1,10.09,1.78,16.27h32.2v44Z"/><path class="cls-2" d="M870.05,580.84a6.76,6.76,0,0,1,6.77-6.77,6.77,6.77,0,1,1-6.77,6.77Z"/><path d="M936.7,540.92h25.19v1.78l-7.49,3v43.25c-.12,16.87-9.39,27-26.26,27-17.22,0-27.44-8.08-27.44-25.19v-45l-8.32-3v-1.78h32.2v1.78l-13.54,3v44c0,13.9,6.41,20.43,19.36,20.43,14.26,0,19-8.91,19-21.62V545.67l-12.71-3Z"/><path d="M1020.57,612.8V614H1001.8v-8.55c-2.49,6.18-8.2,10.46-16.51,10.46-14,0-19.84-11.53-19.84-25.31,0-15.56,8.08-26,23.28-26,5.11,0,10.1,1.55,13.07,4.4V539.85L989.09,538v-1.19h30.77V538l-8.44,2.26v70.21Zm-18.77-18.18V581.79c-.83-7.61-4.16-13.66-13.19-13.66-10.33,0-14,8.43-14,19.84s3.81,19.6,13.91,19.6C994.67,607.57,1001.8,605.07,1001.8,594.62Z"/><path d="M1054.43,612.8V614h-29V612.8l9.86-2.38V571.69h-9.86v-1.07l19.48-5.35v45.15Zm-20.79-60.95a6.6,6.6,0,1,1,6.53,6.53A6.49,6.49,0,0,1,1033.64,551.85Z"/><path d="M1117.16,612.8V614h-26.38V612.8l8.44-2.38V585.23c0-7.84-2.74-13-10.93-13s-12,5.71-12,15.92v22.22l8.31,2.38V614h-26.37V612.8l8.43-2.38V571.69h-8.43v-1.07l17.46-5.35v12.24c3.45-8.55,9.86-13,17.35-13,10.57,0,15.8,7,15.8,17.58v28.28Z"/><path d="M1163.84,588.08H1130.1c.83,12,7,19.25,17.35,19.25,7.72,0,11.88-2.14,14.49-8.31h1.9c-1.18,7.84-6.29,16.87-19.6,16.87-15.09,0-22.1-11.65-22.1-25.55,0-14.37,8-25.78,22.46-25.78C1159.45,564.56,1165.27,576.44,1163.84,588.08Zm-9-3.56c0-8.91-3.44-16.39-12.23-16.39-7.73,0-12.36,5.7-12.6,16.39Z"/><path class="cls-3" d="M86.13,722.85V728h-1v-1.81a3,3,0,0,1-3.06,2c-2.61,0-4.36-2.07-4.36-5.12s1.74-5.13,4.33-5.13a3.68,3.68,0,0,1,3.9,2.84H84.67A2.54,2.54,0,0,0,82,718.94c-1.86,0-3.16,1.56-3.16,4.1s1.27,4.08,3.2,4.08,3-1.26,3-3.23H81.77v-1Z"/><path class="cls-3" d="M89.71,728H88.56v-9.91h1.15Z"/><path class="cls-3" d="M95.74,723.65h-2V728H92.57v-9.91h3.81c2.12,0,3.09,1,3.09,2.73A2.52,2.52,0,0,1,97,723.52l3,4.47h-1.3Zm-2-1h2.51c1.36,0,2.07-.66,2.07-1.81s-.74-1.69-2.09-1.69H93.73Z"/><path class="cls-3" d="M107.13,725.26H103l-1,2.73h-1.23l3.67-9.91h1.24l3.54,9.91h-1.23Zm-.35-1-1.66-4.87-1.72,4.87Z"/><path class="cls-3" d="M118.7,718.08V728H117l-4.77-8.92V728h-1.09v-9.91h1.75l4.78,8.91v-8.91Z"/><path class="cls-3" d="M129.06,723c0,3.05-1.88,5-4.52,5h-3v-9.91h3C127.18,718.08,129.06,720,129.06,723Zm-1.17,0c0-2.48-1.3-3.92-3.52-3.92h-1.66V727h1.66C126.57,727,127.89,725.51,127.89,723Z"/><path class="cls-3" d="M132.63,719.13v3.27h4.69v1h-4.69v3.51h5.26v1h-6.41v-9.91h6.41v1Z"/><path class="cls-3" d="M147.82,718.08V728h-1.75l-4.77-8.92V728h-1.09v-9.91H142l4.78,8.91v-8.91Z"/><path class="cls-3" d="M158.56,722.85V728h-1v-1.81a3.05,3.05,0,0,1-3.06,2c-2.61,0-4.36-2.07-4.36-5.12s1.73-5.13,4.33-5.13a3.68,3.68,0,0,1,3.9,2.84H157.1a2.55,2.55,0,0,0-2.68-1.81c-1.86,0-3.16,1.56-3.16,4.1s1.27,4.08,3.2,4.08,3-1.26,3-3.23H154.2v-1Z"/><path class="cls-3" d="M160.4,723c0-3.06,1.76-5.13,4.32-5.13S169,720,169,723s-1.77,5.12-4.32,5.12S160.4,726.09,160.4,723Zm7.48,0c0-2.54-1.25-4.1-3.16-4.1s-3.16,1.56-3.16,4.1,1.24,4.08,3.16,4.08S167.88,725.56,167.88,723Z"/><path class="cls-3" d="M182.48,723c0,3.05-1.87,5-4.51,5h-3v-9.91h3C180.61,718.08,182.48,720,182.48,723Zm-1.16,0c0-2.48-1.3-3.92-3.53-3.92h-1.65V727h1.65C180,727,181.32,725.51,181.32,723Z"/><path class="cls-3" d="M186.06,728h-1.15v-9.91h1.15Z"/><path class="cls-3" d="M188.19,725h1.22a2.33,2.33,0,0,0,2.65,2.08c1.59,0,2.32-.74,2.32-1.7s-.54-1.39-1.62-1.65l-2.16-.51a2.45,2.45,0,0,1-2.11-2.51c0-1.6,1.27-2.84,3.32-2.84s3.44.91,3.64,2.94h-1.22a2.14,2.14,0,0,0-2.44-1.91c-1.34,0-2.08.73-2.08,1.66,0,.72.34,1.21,1.41,1.48l2.09.51a2.67,2.67,0,0,1,2.39,2.65c0,1.74-1.27,2.92-3.54,2.92C189.63,728.16,188.38,727,188.19,725Z"/><path class="cls-3" d="M204.7,720.84c0,1.63-1.06,2.81-3.17,2.81H199V728h-1.17v-9.91h3.83C203.74,718.08,204.7,719.13,204.7,720.84Zm-1.16,0c0-1.11-.65-1.72-2.11-1.72H199v3.5h2.47C202.89,722.62,203.54,721.9,203.54,720.84Z"/><path class="cls-3" d="M212.34,726.94v1h-5.63v-9.91h1.18v8.86Z"/><path class="cls-3" d="M219.33,725.26h-4.08l-1,2.73H213l3.67-9.91H218l3.54,9.91h-1.23Zm-.35-1-1.66-4.87-1.72,4.87Z"/><path class="cls-3" d="M230,718.08,226.62,724v4h-1.16v-4l-3.28-5.88h1.26l2.62,4.74,2.63-4.74Z"/><path class="cls-3" d="M249.6,724.73H238.05v-1.05H249.6Z"/><path class="cls-3" d="M261.21,718.08V728H260v-7.81a2.78,2.78,0,0,1-2.12.63v-1c1.59-.06,2.06-.69,2.3-1.71Z"/><path class="cls-3" d="M270,724.82a3.13,3.13,0,0,1-3.23,3.34,3,3,0,0,1-3.28-3h1.16a2,2,0,0,0,2.14,2,2.11,2.11,0,0,0,2.06-2.33,2,2,0,0,0-2.08-2.26,1.82,1.82,0,0,0-1.72,1h-1.34l.35-5.43h5.47v1H265l-.21,3.34a2.67,2.67,0,0,1,2.18-1C268.86,721.45,270,722.92,270,724.82Z"/><path class="cls-3" d="M271.64,723.05c0-3,1.37-5.14,3.71-5.14s3.7,2.15,3.7,5.14-1.36,5.11-3.7,5.11S271.64,726,271.64,723.05Zm6.28,0c0-2.47-.9-4.06-2.57-4.06s-2.57,1.59-2.57,4.06.9,4,2.57,4S277.92,725.54,277.92,723.05Z"/><path class="cls-3" d="M292,720.84c0,1.63-1.05,2.81-3.17,2.81h-2.57V728h-1.16v-9.91h3.83C291,718.08,292,719.13,292,720.84Zm-1.16,0c0-1.11-.64-1.72-2.11-1.72h-2.47v3.5h2.47C290.15,722.62,290.79,721.9,290.79,720.84Z"/><path class="cls-3" d="M300.32,719.1h-3.07V728H296.1V719.1H293v-1h7.31Z"/><path class="cls-3" d="M301.5,725h1.22a2.33,2.33,0,0,0,2.65,2.08c1.59,0,2.33-.74,2.33-1.7s-.55-1.39-1.63-1.65l-2.16-.51a2.45,2.45,0,0,1-2.11-2.51c0-1.6,1.27-2.84,3.32-2.84s3.44.91,3.64,2.94h-1.22a2.14,2.14,0,0,0-2.44-1.91c-1.34,0-2.08.73-2.08,1.66,0,.72.34,1.21,1.41,1.48l2.09.51a2.67,2.67,0,0,1,2.39,2.65c0,1.74-1.27,2.92-3.54,2.92C302.94,728.16,301.69,727,301.5,725Z"/><path class="cls-3" d="M1160.56,718.08l-3.78,9.91h-1l-3.68-9.91h1.23l3,8.37,3-8.37Z"/><path class="cls-3" d="M1163.43,719.13v3.27h4.69v1h-4.69v3.51h5.27v1h-6.42v-9.91h6.42v1Z"/><path class="cls-3" d="M1174.18,723.65h-2V728H1171v-9.91h3.81c2.12,0,3.09,1,3.09,2.73a2.51,2.51,0,0,1-2.48,2.71l3,4.47h-1.3Zm-2-1h2.52c1.35,0,2.06-.66,2.06-1.81s-.74-1.69-2.09-1.69h-2.49Z"/><path class="cls-3" d="M1179.7,725h1.21a2.33,2.33,0,0,0,2.65,2.08c1.59,0,2.33-.74,2.33-1.7s-.55-1.39-1.63-1.65l-2.16-.51a2.44,2.44,0,0,1-2.1-2.51c0-1.6,1.27-2.84,3.32-2.84s3.43.91,3.64,2.94h-1.22a2.15,2.15,0,0,0-2.45-1.91c-1.34,0-2.08.73-2.08,1.66,0,.72.34,1.21,1.41,1.48l2.09.51a2.67,2.67,0,0,1,2.4,2.65c0,1.74-1.28,2.92-3.55,2.92C1181.13,728.16,1179.89,727,1179.7,725Z"/><path class="cls-3" d="M1190.45,728h-1.15v-9.91h1.15Z"/><path class="cls-3" d="M1192.72,723c0-3.06,1.76-5.13,4.32-5.13s4.32,2.07,4.32,5.13-1.77,5.12-4.32,5.12S1192.72,726.09,1192.72,723Zm7.48,0c0-2.54-1.25-4.1-3.16-4.1s-3.16,1.56-3.16,4.1,1.24,4.08,3.16,4.08S1200.2,725.56,1200.2,723Z"/><path class="cls-3" d="M1211.25,718.08V728h-1.75l-4.77-8.92V728h-1.1v-9.91h1.75l4.79,8.91v-8.91Z"/><path class="cls-3" d="M1213.38,725h1.22a2.33,2.33,0,0,0,2.65,2.08c1.59,0,2.33-.74,2.33-1.7s-.55-1.39-1.63-1.65l-2.16-.51a2.44,2.44,0,0,1-2.1-2.51c0-1.6,1.27-2.84,3.32-2.84s3.43.91,3.63,2.94h-1.21a2.15,2.15,0,0,0-2.45-1.91c-1.34,0-2.08.73-2.08,1.66,0,.72.34,1.21,1.41,1.48l2.09.51a2.66,2.66,0,0,1,2.39,2.65c0,1.74-1.27,2.92-3.54,2.92C1214.82,728.16,1213.58,727,1213.38,725Z"/><path class="cls-3" d="M1229.84,723.65h-2V728h-1.16v-9.91h3.81c2.12,0,3.09,1,3.09,2.73a2.52,2.52,0,0,1-2.49,2.71l3,4.47h-1.3Zm-2-1h2.51c1.36,0,2.07-.66,2.07-1.81s-.74-1.69-2.09-1.69h-2.49Z"/><path class="cls-3" d="M1237.23,719.13v3.27h4.69v1h-4.69v3.51h5.26v1h-6.41v-9.91h6.41v1Z"/><path class="cls-3" d="M1252.68,722.85V728h-1v-1.81a3.05,3.05,0,0,1-3.06,2c-2.61,0-4.36-2.07-4.36-5.12s1.73-5.13,4.33-5.13a3.68,3.68,0,0,1,3.9,2.84h-1.23a2.55,2.55,0,0,0-2.68-1.81c-1.86,0-3.16,1.56-3.16,4.1s1.27,4.08,3.2,4.08,3-1.26,3-3.23h-3.24v-1Z"/><path class="cls-3" d="M1262.66,724.13c0,2.69-1.49,4-3.82,4s-3.85-1.36-3.85-4v-6h1.15v6c0,1.94,1.08,3,2.71,3a2.56,2.56,0,0,0,2.67-2.89v-6.11h1.14Z"/><path class="cls-3" d="M1271.05,726.94v1h-5.63v-9.91h1.17v8.86Z"/><path class="cls-3" d="M1278,725.26H1274l-1,2.73h-1.23l3.67-9.91h1.24l3.54,9.91H1279Zm-.36-1-1.65-4.87-1.72,4.87Z"/><path class="cls-3" d="M1285.17,723.65h-2V728H1282v-9.91h3.81c2.12,0,3.09,1,3.09,2.73a2.52,2.52,0,0,1-2.49,2.71l3,4.47h-1.3Zm-2-1h2.51c1.36,0,2.07-.66,2.07-1.81s-.74-1.69-2.09-1.69h-2.49Z"/></g></svg>