<?xml version="1.0" encoding="UTF-8"?><svg id="Layer_1" xmlns="http://www.w3.org/2000/svg" viewBox="0 0 1366 768"><defs><style>.cls-1{fill:#f2f2f2;}.cls-2{fill:#8152db;}</style></defs><rect class="cls-2" x="-99" y="-37" width="1570" height="827"/><path class="cls-1" d="M416.45,610.01l-57.06,10.14c-25.36-36.77-60.86-85.59-93.83-131.87l1.27-.63c-6.97,1.27-14.58,1.9-22.19,2.54l-21.56,119.83h-49.45L240.84,239.12l5.71-36.77-48.82-20.92,.63-8.24,102.71-17.12,3.8,4.44-13.31,69.74-29.16,161.67c24.73-47.55,57.06-77.35,97.64-77.35,33.6,0,52.62,20.92,52.62,53.26,0,47.55-34.87,87.49-94.47,107.78,31.7,46.92,63.4,91.93,98.27,134.41Zm-169.91-128.7c58.96-8.88,113.49-64.03,113.49-110.32,0-17.75-8.24-29.16-26.63-29.16-31.7,0-62.77,46.28-80.52,103.34l-6.34,36.14Z"/><path class="cls-1" d="M706.18,376.7l-57.69,47.55,139.48,185.76h-67.84c0-6.97-3.17-13.31-9.51-21.56l-100.17-134.41-24.73,20.29v118.56l44.38,1.9v15.22h-142.65v-15.22l44.38-1.9V219.47c-11.41-18.38-19.65-27.9-36.14-41.84l.63-7.61,82.42-29.16,6.97,4.44V458.48l89.39-72.28c10.14-8.24,23.46-21.56,23.46-33.6,0-8.88-5.07-17.12-11.41-22.19v-5.71h103.98v12.05c-24.09,1.27-53.89,16.48-84.96,39.94Z"/><path class="cls-1" d="M1197.77,610.01h-110.95c0-6.97-3.17-13.31-9.51-21.56l-87.49-123-12.68,9.51v118.56l35.5,1.9v14.58h-157.87v-14.58l35.5-1.9V213.52c0-10.14-11.41-35.5-26.63-47.55l1.27-6.34,99.54-26.63,12.68,11.41V458.48l93.2-71.01c8.88-8.24,13.31-15.85,13.31-28.53,0-10.14-5.07-24.09-11.41-30.43v-3.8h116.66v12.05c-21.56,1.27-48.82,13.31-76.71,33.6l-54.52,43.11,140.11,196.54Z"/><g><path class="cls-1" d="M257.87,708.72c0,2.72-2.21,4.9-4.93,4.9s-4.9-2.19-4.9-4.9,2.19-4.93,4.9-4.93,4.93,2.21,4.93,4.93Zm-.83,0c0-2.26-1.85-4.1-4.1-4.1s-4.08,1.85-4.08,4.1,1.82,4.08,4.08,4.08,4.1-1.82,4.1-4.08Zm-1.02,.04c0,1.68-1.29,3.04-3.08,3.04s-3.08-1.36-3.08-3.04h.49c.31,1.5,1.33,2.23,2.59,2.23s2.28-.73,2.59-2.23h.49Zm-4.8-1.68c0-.55,.18-.97,.52-.97s.48,.42,.48,.97-.15,.99-.48,.99-.52-.45-.52-.99Zm2.45,0c0-.55,.15-.97,.48-.97s.52,.42,.52,.97-.18,.99-.52,.99-.48-.45-.48-.99Z"/><path class="cls-1" d="M265.07,713.46h-1.18v-9.51h1.18v9.51Z"/><path class="cls-1" d="M274.37,704.93h-3.15v8.53h-1.18v-8.53h-3.17v-.98h7.49v.98Z"/><path class="cls-1" d="M280.46,710.84h-4.19l-.99,2.62h-1.26l3.75-9.51h1.27l3.63,9.51h-1.26l-.95-2.62Zm-.36-1l-1.7-4.68-1.76,4.68h3.46Z"/><path class="cls-1" d="M290.21,712.45v1.01h-5.77v-9.51h1.2v8.5h4.57Z"/><path class="cls-1" d="M293.16,713.46h-1.18v-9.51h1.18v9.51Z"/><path class="cls-1" d="M295.39,708.71c0-2.87,1.74-4.93,4.41-4.93,2.51,0,3.67,1.29,4.05,3.21h-1.25c-.34-1.54-1.25-2.21-2.8-2.21-1.79,0-3.22,1.54-3.22,3.94s1.43,3.92,3.22,3.92c1.51,0,2.44-.63,2.82-2.2h1.25c-.42,2-1.6,3.19-4.06,3.19-2.66,0-4.41-2.04-4.41-4.92Z"/></g><g><path class="cls-1" d="M597.87,708.72c0,2.72-2.21,4.9-4.93,4.9s-4.9-2.19-4.9-4.9,2.19-4.93,4.9-4.93,4.93,2.21,4.93,4.93Zm-.83,0c0-2.26-1.85-4.1-4.1-4.1s-4.08,1.85-4.08,4.1,1.82,4.08,4.08,4.08,4.1-1.82,4.1-4.08Zm-1.02,.04c0,1.68-1.29,3.04-3.08,3.04s-3.08-1.36-3.08-3.04h.49c.31,1.5,1.33,2.23,2.59,2.23s2.28-.73,2.59-2.23h.49Zm-4.8-1.68c0-.55,.18-.97,.52-.97s.48,.42,.48,.97-.15,.99-.48,.99-.52-.45-.52-.99Zm2.45,0c0-.55,.15-.97,.48-.97s.52,.42,.52,.97-.18,.99-.52,.99-.48-.45-.48-.99Z"/><path class="cls-1" d="M607.15,709.3h-2.06v4.16h-1.19v-9.51h3.91c2.17,0,3.17,1.01,3.17,2.62,0,1.43-.78,2.4-2.55,2.61l3.07,4.29h-1.33l-3.01-4.16Zm-2.06-.99h2.58c1.39,0,2.12-.63,2.12-1.74s-.76-1.62-2.14-1.62h-2.55v3.36Z"/><path class="cls-1" d="M614.53,704.95v3.14h4.8v1h-4.8v3.36h5.39v1.01h-6.57v-9.51h6.57v1.01h-5.39Z"/><path class="cls-1" d="M630.02,708.53v4.93h-1.06v-1.74c-.49,1.13-1.48,1.91-3.14,1.91-2.68,0-4.47-1.99-4.47-4.92s1.78-4.93,4.44-4.93c1.98,0,3.43,.84,3.99,2.73h-1.26c-.43-1.12-1.26-1.74-2.75-1.74-1.91,0-3.24,1.5-3.24,3.94s1.3,3.92,3.28,3.92,3.04-1.22,3.05-3.11h-3.32v-.99h4.47Z"/><path class="cls-1" d="M640.18,709.76c0,2.58-1.53,3.87-3.92,3.87s-3.94-1.3-3.94-3.87v-5.81h1.18v5.81c0,1.86,1.11,2.83,2.77,2.83s2.73-.92,2.73-2.77v-5.87h1.18v5.81Z"/><path class="cls-1" d="M648.65,712.45v1.01h-5.77v-9.51h1.2v8.5h4.57Z"/><path class="cls-1" d="M656.3,710.84h-4.19l-.99,2.62h-1.26l3.75-9.51h1.27l3.63,9.51h-1.26l-.95-2.62Zm-.36-1l-1.7-4.68-1.76,4.68h3.46Z"/><path class="cls-1" d="M663.52,709.3h-2.06v4.16h-1.19v-9.51h3.91c2.17,0,3.17,1.01,3.17,2.62,0,1.43-.78,2.4-2.55,2.61l3.07,4.29h-1.33l-3.01-4.16Zm-2.06-.99h2.58c1.39,0,2.12-.63,2.12-1.74s-.76-1.62-2.14-1.62h-2.55v3.36Z"/></g><g><path class="cls-1" d="M1013.87,708.72c0,2.72-2.21,4.9-4.93,4.9s-4.9-2.19-4.9-4.9,2.19-4.93,4.9-4.93,4.93,2.21,4.93,4.93Zm-.83,0c0-2.26-1.85-4.1-4.1-4.1s-4.08,1.85-4.08,4.1,1.82,4.08,4.08,4.08,4.1-1.82,4.1-4.08Zm-1.02,.04c0,1.68-1.29,3.04-3.08,3.04s-3.08-1.36-3.08-3.04h.49c.31,1.5,1.33,2.23,2.59,2.23s2.28-.73,2.59-2.23h.49Zm-4.8-1.68c0-.55,.18-.97,.52-.97s.48,.42,.48,.97-.15,.99-.48,.99-.52-.45-.52-.99Zm2.45,0c0-.55,.15-.97,.48-.97s.52,.42,.52,.97-.18,.99-.52,.99-.48-.45-.48-.99Z"/><path class="cls-1" d="M1027.26,710.75c0,1.67-.98,2.7-3.39,2.7h-3.98v-9.51h3.77c2.17,0,3.17,.94,3.17,2.51,0,1.01-.76,1.83-1.71,2.06,1.3,.18,2.14,1.02,2.14,2.24Zm-6.19-5.81v3.17h2.48c1.32,0,2.09-.6,2.09-1.65,0-1.13-.9-1.51-2.28-1.51h-2.28Zm5.01,5.81c0-1.26-.98-1.65-2.44-1.65h-2.58v3.36h2.56c1.47,0,2.45-.38,2.45-1.71Z"/><path class="cls-1" d="M1028.9,708.71c0-2.94,1.81-4.93,4.43-4.93s4.43,1.99,4.43,4.93-1.81,4.92-4.43,4.92-4.43-1.99-4.43-4.92Zm7.66,0c0-2.44-1.27-3.94-3.24-3.94s-3.24,1.5-3.24,3.94,1.27,3.92,3.24,3.92,3.24-1.5,3.24-3.92Z"/><path class="cls-1" d="M1045.78,712.45v1.01h-5.77v-9.51h1.2v8.5h4.57Z"/><path class="cls-1" d="M1055.24,708.71c0,2.93-1.92,4.75-4.62,4.75h-3.05v-9.51h3.05c2.7,0,4.62,1.82,4.62,4.76Zm-1.19,0c0-2.38-1.33-3.77-3.61-3.77h-1.69v7.52h1.69c2.26,0,3.61-1.39,3.61-3.75Z"/></g></svg>