<?xml version="1.0" encoding="UTF-8"?>
<svg id="Layer_1" data-name="Layer 1" xmlns="http://www.w3.org/2000/svg" xmlns:xlink="http://www.w3.org/1999/xlink" viewBox="0 0 1366 768">
  <defs>
    <style>
      .cls-1 {
        clip-path: url(#clippath);
      }

      .cls-2, .cls-3 {
        fill: #000;
      }

      .cls-2, .cls-4 {
        stroke-width: 0px;
      }

      .cls-4 {
        fill: #f9df4b;
      }
    </style>
    <clipPath id="clippath">
      <rect class="cls-2" x="-10" y="-10" width="1386" height="788"/>
    </clipPath>
  </defs>
  <g>
    <rect class="cls-3" x="-10" y="-10" width="1386" height="788"/>
    <g class="cls-1">
      <rect class="cls-2" x="-.35" y="-3.25" width="1366.71" height="779.89"/>
    </g>
  </g>
  <g>
    <path class="cls-4" d="M152.87,130.83h-48.4l-11.6,30.4c-1.2,3.4-2,6-2,8.4,0,5.6,4.6,8,16.4,8.6v3.6h-37.6v-3.6c10.2-.8,13.8-6,17.6-15.8l43.8-112.2h3.6l45.4,110c6,14.2,10.2,17.4,19.8,18v3.6h-47.4v-3.6c9.6-.4,14.6-3,14.6-9,0-2.4-.8-5.2-2.2-8.8l-12-29.6ZM151.07,126.43l-23.2-56.8-21.8,56.8h45Z"/>
    <path class="cls-4" d="M273.87,92.23c-.2,8.2.2,17.6,1.6,26.4l-3.4.8c-4.6-17.8-12-26-25.8-26-12.2,0-20.2,6-20.2,16.4,0,8,4,12.8,12.2,16.6l17.4,8c10.8,5,19.4,10.8,19.4,24.6,0,17.2-13.8,26-35,26-9.8,0-21-2.6-26.4-5.4l-2.6-24,3.2-.6c5.2,15,12.4,24.8,29.2,24.8,9.4,0,18.8-4.6,18.8-16.4,0-5.8-2.8-10.6-11-14.4l-19-8.6c-11.6-5.4-18.2-13-18.2-25.2,0-15,10.8-26.6,32.6-26.6,8.6,0,18,1,27.2,3.6Z"/>
    <path class="cls-4" d="M291.66,218.43c10.6-.8,15.2-2.8,15.2-11.8v-95.6l-15.2-5.8v-3.4c11.2-1,23-4.4,28.8-13l2.6,1.2c-2.2,6.4-2.4,13-2.4,20.2,5.8-10.8,17-21.6,32.4-21.6,24,0,35.4,20.6,35.4,45.6,0,30.2-17.4,50.8-43.2,50.8-8.6,0-16.8-2.4-24.6-6v27.6c0,9,4.4,11,20.6,11.8v3.4h-49.6v-3.4ZM375.86,139.43c0-22-9.2-39.8-29.4-39.8-12.2,0-21.2,8-25.8,17.8v39.4c1.8,14.6,11,24.6,25.6,24.6,20.8,0,29.6-21.2,29.6-42Z"/>
    <path class="cls-4" d="M447.06,185.03c-27.6,0-43-20.8-43-48.8s17.4-47.6,41.6-47.6c18.4,0,34.6,9.4,35.4,39h-63.8c0,28.6,13.6,46.6,34.2,46.6,12.4,0,21.2-4.8,27.6-16.2l3.4,1.8c-5.6,12.4-15.4,25.2-35.4,25.2ZM464.46,122.83c.6-18.8-7.4-29.6-20.6-29.6-16.6,0-25,12-26.4,29.6h47Z"/>
    <path class="cls-4" d="M550.06,98.43c-10.2,0-19,6-25.6,14.2v54c0,9,4.6,11,15.2,11.8v3.4h-44v-3.4c10.6-.8,15.2-2.8,15.2-11.8v-55.6l-15.2-5.8v-3.4c14.4-1.4,23.8-5.8,28.6-13l2.8,1.2c-1.8,5.6-2.6,10.6-2.6,17,8.4-10.4,19.8-18.4,32.8-18.4,18.4,0,26.8,11.2,26.8,29v49c0,9,4.6,11,15.2,11.8v3.4h-44v-3.4c10.6-.8,15.2-2.8,15.2-11.8v-41.8c0-16-5-26.4-20.4-26.4Z"/>
  </g>
  <g>
    <path class="cls-4" d="M365.21,300.19l.6,2c-2.4,10.4-2.4,20.2-.6,32.6l-4.8,1c-6.2-25.2-16.2-37.4-35.2-37.4-16.8,0-26.8,8-26.8,22.4,0,12.2,7.8,18.8,19,25.6l26.2,15.4c13.2,7.8,21.4,17.2,21.4,32.8,0,22.8-18.2,35.4-44.2,35.4-11.4,0-24.6-2.6-35.4-5.6l-1-1.4c.2-11-.8-22.2-3-34.6l4.8-.8c6.2,25.2,18,37,37.2,37,13.4,0,23.4-7.6,23.4-22,0-12.4-7.4-19.6-17.4-25.6l-26.8-15.6c-12.8-7.6-20.8-17.2-20.8-32.6,0-22.6,18-35.8,44.2-35.8,15,0,28,3,39.2,7.2Z"/>
    <path class="cls-4" d="M428.79,345.79c-8.6,0-16.6,5.4-22.4,12.2v53.2c0,9,4.6,11,14.6,11.8v3.8h-48.4v-3.8c10.4-.8,15-2.8,15-11.8v-54l-15-6.2v-3.8c16.4-.6,27.2-6.2,33.4-14l2.4,1.4c-1.8,6-2,11.2-2,17.2,8-9.8,19-18.6,33-18.6,18.8,0,26.6,12.4,26.6,30.8v47.2c0,9,4.6,11,14.8,11.8v3.8h-48.4v-3.8c10-.8,14.6-2.8,14.6-11.8v-41.8c0-14.4-4.8-23.6-18.2-23.6Z"/>
    <path class="cls-4" d="M482.33,381.58c0-28.6,17.6-47.8,45.2-47.8,31.4,0,47.2,18.2,47.2,48.4,0,28.6-17.6,47.8-45.4,47.8-30.2,0-47-19.2-47-48.4ZM530.93,425.38c17.8,0,22.8-14.6,22.8-33,0-34.2-8.4-54.2-27.2-54.2s-23.2,15.6-23.2,33.4c0,34.4,8.4,53.8,27.6,53.8Z"/>
    <path class="cls-4" d="M691.65,336.39h28.4v3.8c-6.2.8-9,3.6-12.4,12.6l-27.2,74h-6.6l-24.8-62.4-25.6,62.4h-6.6l-30.2-75c-3.8-9.4-5.8-10.8-11.8-11.6v-3.8h39.2v3.8c-6.4,1-9.4,5.8-6.4,13.4l20.4,51.4,18.4-47.8-2-5.4c-3.8-9-5.8-10.8-12-11.6v-3.8h39.6v3.8c-7.2.6-9.6,5.6-7.4,11.6l19,53.2,17.6-50c3.2-8.8,2-13.6-9.6-14.8v-3.8Z"/>
    <path class="cls-4" d="M718.59,297.59v-3.8c13.8-.4,24.6-5.8,31.2-14l2.6.4v68c8.2-8.8,19.4-15,31.6-15,24.2,0,35.8,19.2,35.8,44.6,0,30.8-17.4,52.2-46.8,52.2-12.8,0-26.4-3.8-39.4-7.8v-118.4l-15-6.2ZM772.99,425.38c20,0,28-17.8,28-40.4,0-20.4-9-40-29.2-40-8.4,0-14.4,3-19.4,8v50.8c.4,14.4,8.4,21.6,20.6,21.6Z"/>
    <path class="cls-4" d="M826.53,422.98c10.4-.8,15-2.8,15-11.8v-54l-15-6.2v-3.8c13.8-.4,24.6-5.6,31.2-14l2.6.8v77.2c0,9,4.6,11,14.8,11.8v3.8h-48.6v-3.8ZM837.53,302.19c0-6.6,5.2-12.2,12.4-12.2s12.2,5.6,12.2,12.2c0,8-5,12.8-12.2,12.8s-12.4-4.8-12.4-12.8Z"/>
    <path class="cls-4" d="M916.07,379.99v31.2c0,8.8,5.4,11.2,20.6,11.8v3.8h-54.4v-3.8c10.4-.8,15-2.8,15-11.8v-54l-15-6.2v-3.8c14.6-.6,26-4.8,33.4-14l2.4,1.4c-2,9.6-2,19.4-2,28,1-4,2.4-8.2,5.4-13.4,3.6-6.4,11.2-16,30.2-16v21.4c-5-1-10.2-1.8-16.2-1.8-14.2,0-19.4,9.4-19.4,27.2Z"/>
    <path class="cls-4" d="M1057.32,418.78l.4,5.4-33,4-1.6-11.6c-7.4,8.2-17.2,13.4-28,13.4-25.8,0-38.6-21.2-38.6-45.4,0-29.8,17.4-51,46.4-51,7.8,0,14.4,1.8,20.2,4.2v-34l-15-6.2v-3.8c13.8-.4,24.6-5.8,31.2-14l2.6.4v127.8c0,11.2,2.8,12.4,15.4,10.8ZM1004.92,415.58c7.4,0,13.2-1.6,18.2-5.8v-49.8c-1.4-11.2-9.2-20.8-21.4-20.8-19.2,0-26.2,15.4-26.2,35.4,0,22.4,10.6,41,29.4,41Z"/>
  </g>
  <g>
    <path class="cls-4" d="M611.17,545.47v-5.8h71.2c34.6,0,54.2,8.4,54.2,33.2,0,31.2-31.4,35-59.4,35h-17.8v43.8c0,8.4,3.4,13.6,24.6,13.8v5.8h-72.8v-6c15.2-.8,18-5.2,18-13.6v-92.2c0-11-6-12.8-18-14ZM676.97,601.47c19.4-1.2,26.4-11.2,26.4-27.8s-7-26.6-26.4-27.6l-17.6-.8v57.2l17.6-1Z"/>
    <path class="cls-4" d="M807.47,673.46c-11.8,0-18.8-7-20.6-15-4.2,7.8-12.8,16-28.2,16-13.6,0-23.2-8.2-23.2-22.8,0-19.8,19.8-27.4,51.2-34.8v-3c0-12.6-5.8-19.8-18.2-19.8-10.8,0-20,5.2-26.8,15.6l-5.8-3c11.6-20,25.8-30.6,46.2-30.6,23,0,34,11.8,34,31.8v38.2c0,9.6,2.2,13.2,7.6,13.2,2.8,0,5.4-1.2,7.8-2.8l3,4.8c-7,6.8-15.2,12.2-27,12.2ZM776.87,655.26c7.2,0,9.8-7.6,9.8-15.2v-14.6c-7.8,1.6-17.8,8-17.8,19.8,0,5.6,2.8,10,8,10Z"/>
    <path class="cls-4" d="M881.27,633.66v19.8c0,8.8,5.4,11.2,19,11.8v6h-61.6v-6c8.6-.8,13.2-2.8,13.2-11.8v-51.4l-13.2-6.2v-6c21.4-1.6,32-7,41.2-13.8l3.4,3c-2,12.8-2,26-2,32.8,1.6-4.2,3-8.2,5.4-14,5.2-12.4,12.8-21.8,31-21.8v30.6c-3.6-.8-8.4-1.6-13.8-1.6-16.8,0-22.6,13.2-22.6,28.6Z"/>
    <path class="cls-4" d="M994.44,673.46c-11.8,0-18.8-7-20.6-15-4.2,7.8-12.8,16-28.2,16-13.6,0-23.2-8.2-23.2-22.8,0-19.8,19.8-27.4,51.2-34.8v-3c0-12.6-5.8-19.8-18.2-19.8-10.8,0-20,5.2-26.8,15.6l-5.8-3c11.6-20,25.8-30.6,46.2-30.6,23,0,34,11.8,34,31.8v38.2c0,9.6,2.2,13.2,7.6,13.2,2.8,0,5.4-1.2,7.8-2.8l3,4.8c-7,6.8-15.2,12.2-27,12.2ZM963.84,655.26c7.2,0,9.8-7.6,9.8-15.2v-14.6c-7.8,1.6-17.8,8-17.8,19.8,0,5.6,2.8,10,8,10Z"/>
    <path class="cls-4" d="M1025.2,547.67v-6c20-.8,31.8-6.6,37.6-13.8l5,1v124.6c0,9,4.6,11,13.2,11.8v6h-55.8v-6c8.6-.8,13.2-2.8,13.2-11.8v-99.6l-13.2-6.2Z"/>
    <path class="cls-4" d="M1084.2,547.67v-6c20-.8,31.8-6.6,37.6-13.8l5,1v124.6c0,9,4.6,11,13.2,11.8v6h-55.8v-6c8.6-.8,13.2-2.8,13.2-11.8v-99.6l-13.2-6.2Z"/>
    <path class="cls-4" d="M1185.36,674.46c-29.6,0-45.6-20.8-45.6-48.6s16.4-49.8,47.6-49.8c26.6,0,36.4,15.4,36.4,36h-52.2c.4,25.6,10,42.8,28.4,42.8,11,0,17.4-6.2,21.4-16l5.6,2c-5.8,18.6-19.4,33.6-41.6,33.6ZM1193.96,605.47c0-15.2-2.8-23.4-11-23.4-7.4,0-11.4,8.2-11.4,23.4h22.4Z"/>
    <path class="cls-4" d="M1225.66,547.67v-6c20-.8,31.8-6.6,37.6-13.8l5,1v124.6c0,9,4.6,11,13.2,11.8v6h-55.8v-6c8.6-.8,13.2-2.8,13.2-11.8v-99.6l-13.2-6.2Z"/>
  </g>
</svg>