<?xml version="1.0" encoding="UTF-8"?><svg id="Layer_1" xmlns="http://www.w3.org/2000/svg" viewBox="0 0 1366 768"><defs><style>.cls-1{fill:#f2f2f2;}.cls-2{fill:#1a26cd;}</style></defs><rect class="cls-1" width="1366" height="768"/><g><path d="M124.18,131.27c0-27.4,16.36-46.81,41.49-46.81,22.61,0,34.18,11.7,37.9,30.46h-10.11c-3.46-15.56-12.9-22.34-27.8-22.34-18.09,0-31.92,15.16-31.92,38.7s13.83,38.57,31.92,38.57c14.63,0,24.07-6.38,27.93-22.21h10.11c-4.12,19.42-15.83,30.32-38.04,30.32-25,0-41.49-19.28-41.49-46.68Z"/><path d="M317.56,107.59l-24.74,68.76h-10.37l-17.29-54.53-17.42,54.53h-10.37l-24.74-68.76h9.44l20.35,58.38,18.62-58.38h8.11l18.49,58.12,20.35-58.12h9.58Z"/><path d="M431.14,134.19v42.16h-9.04v-41.23c0-13.7-7.45-20.88-17.82-20.88s-19.02,7.18-19.02,20.48v41.63h-9.04v-41.23c0-13.7-7.45-20.88-17.95-20.88s-18.88,7.18-18.88,20.48v41.63h-9.18V107.59h8.78v10.24c4.12-7.45,11.57-11.84,21.28-11.84s18.09,4.65,22.08,13.3c4.39-8.25,12.5-13.3,23.41-13.3,15.16,0,25.4,10.11,25.4,28.2Z"/><path d="M514.4,142.04c0,21.81-13.03,35.91-30.06,35.91-11.7,0-19.95-6.52-24.34-15.96v14.36h-8.78V80.59h9.04v40.17c4.39-9.04,12.5-14.76,24.34-14.76,17.02,0,29.79,14.5,29.79,36.04Zm-9.04,0c0-16.76-8.51-28.2-22.48-28.2-13.03,0-22.61,11.84-22.61,27.93v.53c0,16.76,9.44,27.66,22.61,27.66s22.48-11.17,22.48-27.93Z"/><path d="M560.95,107.19v8.51c-1.06-.13-2-.13-3.33-.13-11.3,0-17.55,8.11-17.55,20.48v40.3h-9.18V107.59h8.78v11.57c2.66-7.45,8.78-12.37,17.95-12.37,1.06,0,2,.13,3.33,.4Z"/><path d="M625.72,129.8v46.55h-8.51v-10.77c-5.59,8.38-13.43,12.37-23.67,12.37-13.43,0-23.67-8.51-23.67-20.35s7.71-19.02,22.61-20.62l24.21-2.66v-4.79c0-10.77-6.65-15.69-17.02-15.69s-17.42,4.39-18.89,14.9h-9.04c1.86-15.16,12.37-22.74,27.93-22.74s26.07,7.71,26.07,23.81Zm-9.04,19.15v-7.58l-22.61,2.66c-10.64,1.33-14.63,6.38-14.63,13.3s5.99,12.77,15.83,12.77c13.17,0,21.41-8.51,21.41-21.15Z"/><path d="M701,134.46v41.89h-9.04v-40.3c0-14.23-6.52-21.94-17.82-21.94s-19.15,7.98-19.15,22.61v39.63h-9.18V107.59h8.78v10.51c4.12-7.85,11.04-12.1,21.28-12.1,15.16,0,25.14,10.11,25.14,28.46Z"/><path d="M723.47,193.64h-5.98c3.32-7.45,4.79-10.91,5.98-15.43l-1.6-.8c-2.39-1.2-3.99-3.46-3.99-6.38,0-3.86,3.06-6.78,6.92-6.78s6.92,2.66,6.92,7.58c0,4.26-2.26,11.04-8.25,21.81Z"/><path d="M850.09,110.79c0,14.5-9.97,25.4-29.92,25.4h-26.33v40.17h-9.71V86.05h36.84c19.95,0,29.13,9.71,29.13,24.74Zm-9.58,0c0-10.37-6.52-16.62-21.01-16.62h-25.67v33.91h25.67c14.5,0,21.01-7.18,21.01-17.29Z"/><path d="M922.3,145.36h-52.67c.93,15.69,10.24,24.47,22.88,24.47,10.64,0,17.16-5.59,19.28-13.57h9.58c-2.79,11.84-11.97,21.68-28.33,21.68-20.61,0-32.58-14.36-32.58-35.38,0-22.61,13.43-36.57,31.39-36.57,20.22,0,30.59,13.96,30.59,36.17,0,2-.13,3.19-.13,3.19Zm-9.31-7.85c-.8-15.96-9.04-23.67-21.15-23.67s-20.48,8.38-22.08,23.67h43.22Z"/><path d="M951.83,115.57v42.16c0,8.11,4.12,11.17,9.84,11.17,2.53,0,3.99-.13,5.72-.53v7.98c-2.26,.53-4.39,.8-7.18,.8-10.77,0-17.42-6.25-17.42-18.49v-43.09h-11.84v-7.98h11.84v-19.42h9.04v19.42h15.56v7.98h-15.56Z"/><path d="M1039.61,145.36h-52.67c.93,15.69,10.24,24.47,22.88,24.47,10.64,0,17.16-5.59,19.28-13.57h9.58c-2.79,11.84-11.97,21.68-28.33,21.68-20.61,0-32.58-14.36-32.58-35.38,0-22.61,13.43-36.57,31.39-36.57,20.22,0,30.59,13.96,30.59,36.17,0,2-.13,3.19-.13,3.19Zm-9.31-7.85c-.8-15.96-9.04-23.67-21.15-23.67s-20.48,8.38-22.08,23.67h43.22Z"/><path d="M1086.03,107.19v8.51c-1.06-.13-2-.13-3.33-.13-11.3,0-17.55,8.11-17.55,20.48v40.3h-9.18V107.59h8.78v11.57c2.66-7.45,8.78-12.37,17.95-12.37,1.06,0,2,.13,3.33,.4Z"/><path d="M1108.77,176.35h-9.18V80.59h9.18v95.76Z"/><path d="M1187.64,145.36h-52.67c.93,15.69,10.24,24.47,22.88,24.47,10.64,0,17.16-5.59,19.28-13.57h9.58c-2.79,11.84-11.97,21.68-28.33,21.68-20.61,0-32.58-14.36-32.58-35.38,0-22.61,13.43-36.57,31.39-36.57,20.22,0,30.59,13.96,30.59,36.17,0,2-.13,3.19-.13,3.19Zm-9.31-7.85c-.8-15.96-9.04-23.67-21.15-23.67s-20.48,8.38-22.08,23.67h43.22Z"/><path d="M1261.71,145.36h-52.67c.93,15.69,10.24,24.47,22.88,24.47,10.64,0,17.16-5.59,19.28-13.57h9.58c-2.79,11.84-11.97,21.68-28.33,21.68-20.61,0-32.58-14.36-32.58-35.38,0-22.61,13.43-36.57,31.39-36.57,20.22,0,30.59,13.96,30.59,36.17,0,2-.13,3.19-.13,3.19Zm-9.31-7.85c-.8-15.96-9.04-23.67-21.15-23.67s-20.48,8.38-22.08,23.67h43.22Z"/></g><g><path d="M216.5,552.08h-42.26v116.08h-5.53v-116.08h-42.44v-4.99h90.23v4.99Z"/><path d="M307.26,613.78v54.39h-5.35v-54.21c0-21.75-10.16-35.13-29.42-35.13-17.83,0-31.03,14.98-31.03,36.91v52.42h-5.17v-128.39h5.17v56.7c5.35-13.91,16.94-22.65,31.74-22.65,22.11,0,34.06,15.51,34.06,39.94Z"/><path d="M411.21,624.12h-74.18c.54,23.72,13.73,41.19,36.55,41.19,16.23,0,27.46-10.16,30.67-24.07h5.71c-4.1,15.87-15.51,29.07-36.2,29.07-27.1,0-41.9-20.68-41.9-47.79,0-28.53,15.69-48.68,40.12-48.68s39.41,18.9,39.41,46.72l-.18,3.57Zm-5.35-4.81c-.18-25.5-13.02-40.48-33.88-40.48s-33.88,16.23-34.95,40.48h68.83Z"/><path d="M603.25,547.09v121.08h-5.53v-116.44l-50.28,116.44h-4.64l-50.64-116.08v116.08h-5.35v-121.08h8.74l49.39,113.94,49.39-113.94h8.92Z"/><path d="M631.95,622.16c0-27.64,15.16-48.32,40.66-48.32s40.48,20.51,40.48,48.32-15.16,48.14-40.3,48.14-40.83-20.51-40.83-48.14Zm75.96,0c0-24.79-13.02-43.33-35.31-43.33s-35.48,18.54-35.48,43.33,13.2,43.15,35.66,43.15,35.13-18.37,35.13-43.15Z"/><path d="M813.65,539.78v128.39h-4.99v-26.03c-5.17,16.58-17.47,28.17-36.02,28.17-24.07,0-39.94-20.15-39.94-48.14s15.51-48.32,39.59-48.32c18.37,0,30.67,11.06,36.02,26.93v-60.98h5.35Zm-5.35,83.81v-3.21c0-22.47-13.37-41.55-35.48-41.55s-34.95,18.19-34.95,43.33,14.09,43.15,35.31,43.15,35.13-19.08,35.13-41.72Z"/><path d="M918.85,624.12h-74.18c.54,23.72,13.73,41.19,36.55,41.19,16.23,0,27.46-10.16,30.67-24.07h5.71c-4.1,15.87-15.51,29.07-36.2,29.07-27.1,0-41.9-20.68-41.9-47.79,0-28.53,15.69-48.68,40.12-48.68s39.41,18.9,39.41,46.72l-.18,3.57Zm-5.35-4.81c-.18-25.5-13.02-40.48-33.88-40.48s-33.88,16.23-34.95,40.48h68.83Z"/><path d="M979.11,575.26v4.99c-1.43-.18-2.5-.18-3.74-.18-14.8,0-26.21,12.84-26.21,34.41v53.67h-5.17v-92.19h4.81v20.68c3.21-11.95,13.02-21.75,27.1-21.75,1.07,0,1.78,0,3.21,.36Z"/><path d="M1069.69,612.71v55.46h-5.35v-54.21c0-21.75-9.99-35.13-29.24-35.13s-31.21,13.91-31.21,35.84v53.49h-5.17v-92.19h4.99v19.44c5.17-13.55,15.87-21.58,31.92-21.58,21.04,0,34.06,14.09,34.06,38.87Z"/><path d="M1097.68,549.94c0-3.39,2.67-5.88,6.06-5.88,3.21,0,5.71,2.5,5.71,5.88,0,3.21-2.5,6.06-5.71,6.06-3.39,0-6.06-2.85-6.06-6.06Zm3.21,26.03h5.17v92.19h-5.17v-92.19Z"/><path d="M1131.56,641.24h5.35c2.67,16.23,13.91,24.25,31.92,24.25s29.07-7.13,29.07-19.97c0-11.23-6.95-16.58-22.29-19.79l-19.79-4.1c-15.69-3.39-22.82-9.63-22.82-22.47,0-14.44,11.77-25.32,32.63-25.32s33.52,9.81,35.66,30.49h-5.53c-1.96-17.47-12.3-25.68-30.14-25.68s-27.46,8.56-27.46,20.33c0,9.81,4.99,14.8,19.26,17.83l20.15,4.1c17.83,3.57,25.5,10.7,25.5,24.25,0,15.69-12.66,25.14-34.24,25.14s-34.42-9.99-37.27-29.07Z"/><path d="M1237.65,580.97v66.51c0,13.37,7.31,16.76,15.33,16.76,3.21,0,4.81-.18,7.49-.54v4.64c-2.5,.71-4.46,.89-8.2,.89-11.41,0-19.97-6.06-19.97-20.86v-67.4h-16.41v-4.99h16.41v-26.03h5.35v26.03h22.82v4.99h-22.82Z"/></g><g><path d="M204.69,410.46v84.88h-17.12v-37h-41.88v37h-17.12v-84.88h17.12v33.75h41.88v-33.75h17.12Z"/><path d="M281.06,430.71l-38.12,88.12h-17.5l13.62-29.25-24.75-58.88h17.5l15.75,42.38,16.75-42.38h16.75Z"/><path d="M350.18,405.33v90h-14.88v-10.88c-4.12,8.12-11.38,12.38-21.25,12.38-15.38,0-29.12-12.38-29.12-33.75s13.12-33.88,28.5-33.88c9,0,15.88,3.38,20.25,9.62v-33.5h16.5Zm-16.5,57.75c0-12.38-6.75-20.62-16-20.62-9.75,0-16.12,8.12-16.12,20.62s6.75,20.5,16.12,20.5,16-7.88,16-20.5Z"/><path d="M424.43,463.96c0,2-.12,3.75-.12,3.75h-46.75c1.12,11.75,7.38,16.62,16.12,16.62,7.12,0,11.12-3.12,13-7.88h16.38c-2.88,11.5-13.12,20.38-29.5,20.38-20.62,0-32.5-13.75-32.5-33.38s13.12-34.25,32-34.25c20.25,0,31.75,14,31.38,34.75Zm-16.88-7c-.5-9.75-5.88-15.25-14.38-15.25-7.88,0-13.75,5-15.38,15.25h29.75Z"/><path d="M534.55,434.83c0,14.12-9.88,25.62-30,25.62h-21.62v34.88h-17.25v-84.88h39.25c20.12,0,29.62,10.12,29.62,24.38Zm-17.12,.38c0-7.5-4.88-11.5-15.38-11.5h-19.12v23.5h19.25c10.38,0,15.25-4.88,15.25-12Z"/><path d="M600.43,452.96v42.38h-14.88v-8.25c-5,6.62-11.88,9.75-20.62,9.75-13.75,0-23.25-8.12-23.25-19.38s6.75-18.38,22.88-20l19.5-2v-3.5c0-7.25-4.5-10.75-11.62-10.75-7.5,0-11.62,3-12.88,9.38h-16.5c1.75-14,12.12-21.38,29.12-21.38s28.25,7.38,28.25,23.75Zm-16.5,17.12v-4.75l-15.5,2c-6.88,.88-10,4.5-10,9.38s4,9,10.88,9c9.5,0,14.62-6.38,14.62-15.62Z"/><path d="M650.18,430.58v14.5c-1-.12-2.12-.25-3.75-.25-10.12,0-15.62,5.88-15.62,16.12v34.38h-16.5v-64.62h14.88v11.12c3.12-7.75,9.5-11.75,17.12-11.75,1.38,0,2.5,.12,3.88,.5Z"/><path d="M701.93,495.33l-25.62-31.88v31.88h-16.5v-90h16.5v50l25-24.62h18.25l-28.12,28.38,29.38,36.25h-18.88Z"/><path d="M752.8,470.08h17.75c1.5,8.88,7.88,13.38,19.62,13.38s17.25-4.75,17.25-11c0-5.5-3.62-9.12-11.75-10.75l-19.75-3.88c-14.25-2.75-21.5-11.62-21.5-22.88,0-14.12,11.75-26,33.38-26s33.88,9,35.5,25.25h-17.88c-1.38-8.12-7.12-11.88-17.75-11.88s-15.5,4.88-15.5,10.88c0,4.88,3,8.25,10.88,9.75l19.88,3.75c15.5,2.75,22.25,11.88,22.25,23.25,0,15-11.5,26.88-34.88,26.88s-35.62-9.88-37.5-26.75Z"/><path d="M895.17,454.71v40.62h-16.5v-37.38c0-10-5.5-14.88-12.75-14.88s-13.25,5.25-13.25,15.12v37.12h-16.5v-90h16.5v34c3.75-6.5,10-10.12,18.38-10.12,13.75,0,24.12,8.75,24.12,25.5Z"/><path d="M968.92,463.96c0,2-.12,3.75-.12,3.75h-46.75c1.12,11.75,7.38,16.62,16.12,16.62,7.12,0,11.12-3.12,13-7.88h16.38c-2.88,11.5-13.12,20.38-29.5,20.38-20.62,0-32.5-13.75-32.5-33.38s13.12-34.25,32-34.25c20.25,0,31.75,14,31.38,34.75Zm-16.88-7c-.5-9.75-5.88-15.25-14.38-15.25-7.88,0-13.75,5-15.38,15.25h29.75Z"/><path d="M986.05,444.33h-11v-13.62h11v-3c0-15.12,9-23.5,24-23.5,3.38,0,5.75,.38,8.38,1.12v13c-1.88-.5-3.12-.62-5.62-.62-6.62,0-10.25,2.75-10.25,9.25v3.75h21.88v-3c0-15.12,9-23.5,24.12-23.5,2.38,0,4.12,.12,6,.75v13.12c-1-.25-2-.38-3.25-.38-6.62,0-10.25,2.75-10.25,9.25v3.75h38.38v64.62h-16.5v-51h-21.88v51h-16.62v-51h-21.88v51h-16.5v-51Zm75.5-32.62c0-5.38,4-9.75,9.88-9.75s9.88,4.38,9.88,9.75-4.25,9.75-9.88,9.75-9.88-4.62-9.88-9.75Z"/><path d="M1154.17,463.96c0,2-.12,3.75-.12,3.75h-46.75c1.12,11.75,7.38,16.62,16.12,16.62,7.12,0,11.12-3.12,13-7.88h16.38c-2.88,11.5-13.12,20.38-29.5,20.38-20.62,0-32.5-13.75-32.5-33.38s13.12-34.25,32-34.25c20.25,0,31.75,14,31.38,34.75Zm-16.88-7c-.5-9.75-5.88-15.25-14.38-15.25-7.88,0-13.75,5-15.38,15.25h29.75Z"/><path d="M1181.92,495.33h-16.5v-90h16.5v90Z"/><path d="M1258.42,405.33v90h-14.88v-10.88c-4.12,8.12-11.38,12.38-21.25,12.38-15.38,0-29.12-12.38-29.12-33.75s13.12-33.88,28.5-33.88c9,0,15.88,3.38,20.25,9.62v-33.5h16.5Zm-16.5,57.75c0-12.38-6.75-20.62-16-20.62-9.75,0-16.12,8.12-16.12,20.62s6.75,20.5,16.12,20.5,16-7.88,16-20.5Z"/></g><g><path d="M126.54,310.02h33.29c.82,7.58,6.1,12.2,17.96,12.2,12.86,0,16.98-4.61,16.98-9.89,0-4.78-2.47-7.91-9.39-9.06l-26.86-4.45c-20.77-3.46-30.82-15-30.82-33.29s15.99-36.09,47.47-36.09,47.63,12.69,49.94,33.29h-32.96c-1.32-6.76-6.76-10.38-17.14-10.38s-15.33,4.29-15.33,9.89c0,4.62,2.64,7.25,9.06,8.24l27.19,4.12c21.75,3.3,30.82,15.82,30.82,33.79,0,20.44-15,36.92-49.11,36.92s-49.28-13.18-51.09-35.27Z"/><path d="M296.62,343.32l-22.08-35.27v35.27h-32.63v-118.66h32.63v61.14l22.41-27.69h35.27l-31.48,37.74,32.14,47.46h-36.26Z"/><path d="M429.12,307.72h-57.68c1.15,13.02,5.77,17.96,14.01,17.96,6.43,0,9.06-1.98,11.21-7.25h29.83c-4.29,16.32-18.62,26.86-41.53,26.86-28.84,0-45.65-18.29-45.65-44.83,0-24.72,15.99-44.33,45.65-44.33s44.5,20.6,44.5,44.33c0,2.47,0,4.12-.33,7.25Zm-31.81-15.33c-.16-10.88-4.29-16.65-12.36-16.65-6.76,0-11.87,4.45-13.35,16.65h25.71Z"/><path d="M476.09,343.32h-32.63v-118.66h32.63v118.66Z"/><path d="M634.3,287.78v55.54h-32.63v-52.08c0-7.42-3.63-11.54-9.39-11.54-7.42,0-12.2,4.29-12.2,15.66v47.96h-32.63v-52.08c0-7.42-3.63-11.54-9.39-11.54-7.42,0-12.2,4.29-12.2,15.66v47.96h-32.63v-85.21h29.01v13.02c5.27-9.89,14.17-15,25.38-15,12.53,0,23.07,4.45,28.51,14.5,5.44-9.56,14.5-14.5,25.71-14.5,18.13,0,32.47,9.56,32.47,31.64Z"/><path d="M737.3,307.72h-57.68c1.15,13.02,5.77,17.96,14.01,17.96,6.43,0,9.06-1.98,11.21-7.25h29.83c-4.29,16.32-18.62,26.86-41.53,26.86-28.84,0-45.65-18.29-45.65-44.83,0-24.72,15.99-44.33,45.65-44.33s44.5,20.6,44.5,44.33c0,2.47,0,4.12-.33,7.25Zm-31.81-15.33c-.16-10.88-4.29-16.65-12.36-16.65-6.76,0-11.87,4.45-13.35,16.65h25.71Z"/><path d="M808.82,258.11v26.21c-1.81-.17-3.63-.33-6.59-.33-10.55,0-17.96,6.1-17.96,18.29v41.04h-32.63v-85.21h28.35v15.16c4.78-11.54,13.68-15.99,23.4-15.99,1.98,0,4.12,.17,5.44,.82Z"/><path d="M818.38,318.43h29.67c1.15,5.11,5.27,7.91,13.18,7.91s11.04-2.8,11.04-6.92c0-2.97-1.81-5.93-6.76-6.76l-21.59-3.3c-16.48-2.47-24.56-11.37-24.56-25.05,0-15.49,14.01-28.18,39.23-28.18,23.9,0,39.72,7.91,42.69,28.18h-29.67c-.99-5.77-4.94-8.9-12.36-8.9s-10.71,2.97-10.71,6.76c0,3.3,2.31,5.77,7.58,6.59l23.24,3.3c17.14,2.47,23.73,11.87,23.73,24.23,0,17.47-14.5,29.01-42.36,29.01-26.2,0-39.88-9.56-42.36-26.86Z"/><path d="M1006.59,224.65v118.66h-30.66v-14.67c-4.78,11.21-13.35,16.65-26.04,16.65-18.29,0-36.75-15-36.75-44.5s18.46-44.66,36.75-44.66c10.55,0,18.79,3.13,24.06,11.87v-43.34h32.63Zm-32.63,75.81c0-15.33-6.43-20.93-14.01-20.93-8.08,0-14.17,5.77-14.17,21.1s6.26,21.26,14.34,21.26c7.42,0,13.84-4.94,13.84-21.42Z"/><path d="M1106.29,288.76v54.55h-28.84v-10.38c-6.43,7.75-15.49,12.36-26.37,12.36-19.28,0-30.49-11.04-30.49-25.38,0-15.49,11.54-25.05,32.47-27.03l21.43-1.98v-5.27c0-6.1-3.63-9.72-10.05-9.72-6.76,0-10.38,3.13-11.37,8.41h-31.15c1.65-16.65,15-28.18,42.36-28.18,30.98,0,42.03,13.84,42.03,32.63Zm-32.47,26.2v-9.06l-9.72,1.32c-8.24,1.15-12.53,4.78-12.53,10.55s4.12,8.9,10.38,8.9c7.42,0,11.87-5.11,11.87-11.7Z"/><path d="M1155.07,343.32h-32.63v-118.66h32.63v118.66Z"/><path d="M1258.73,307.72h-57.68c1.15,13.02,5.77,17.96,14.01,17.96,6.43,0,9.06-1.98,11.21-7.25h29.83c-4.29,16.32-18.62,26.86-41.53,26.86-28.84,0-45.65-18.29-45.65-44.83,0-24.72,15.99-44.33,45.65-44.33s44.5,20.6,44.5,44.33c0,2.47,0,4.12-.33,7.25Zm-31.81-15.33c-.16-10.88-4.29-16.65-12.36-16.65-6.76,0-11.87,4.45-13.35,16.65h25.71Z"/></g><g><path class="cls-2" d="M279.15,73.71c0,3.11-2.53,5.6-5.63,5.6s-5.6-2.5-5.6-5.6,2.5-5.63,5.6-5.63,5.63,2.53,5.63,5.63Zm-10.08,0c0,2.46,1.98,4.45,4.45,4.45s4.48-1.99,4.48-4.45-2.02-4.48-4.48-4.48-4.45,2.02-4.45,4.48Z"/><path class="cls-2" d="M293.66,76.03c0,1.9-1.12,3.09-3.87,3.09h-4.55v-10.87h4.31c2.48,0,3.62,1.07,3.62,2.87,0,1.15-.86,2.1-1.95,2.35,1.49,.21,2.45,1.17,2.45,2.56Zm-7.07-6.64v3.62h2.83c1.5,0,2.38-.69,2.38-1.89,0-1.3-1.02-1.73-2.61-1.73h-2.61Zm5.73,6.64c0-1.44-1.12-1.89-2.79-1.89h-2.95v3.84h2.93c1.68,0,2.8-.43,2.8-1.95Z"/><path class="cls-2" d="M295.24,73.69c0-3.36,2.07-5.63,5.06-5.63s5.06,2.27,5.06,5.63-2.06,5.62-5.06,5.62-5.06-2.27-5.06-5.62Zm8.76,0c0-2.79-1.46-4.5-3.7-4.5s-3.7,1.71-3.7,4.5,1.46,4.48,3.7,4.48,3.7-1.71,3.7-4.48Z"/><path class="cls-2" d="M306.92,73.69c0-3.36,2.07-5.63,5.06-5.63s5.06,2.27,5.06,5.63-2.06,5.62-5.06,5.62-5.06-2.27-5.06-5.62Zm8.76,0c0-2.79-1.46-4.5-3.7-4.5s-3.7,1.71-3.7,4.5,1.46,4.48,3.7,4.48,3.7-1.71,3.7-4.48Z"/><path class="cls-2" d="M322.06,73.13l5.55,5.99h-1.63l-5.33-5.63v5.63h-1.36v-10.87h1.36v4.58l5.28-4.58h1.76l-5.63,4.88Z"/><path class="cls-2" d="M345.54,75.55h-13.53v-1.15h13.53v1.15Z"/><path class="cls-2" d="M354,68.25v10.87h-1.38v-8.56c-.56,.51-1.3,.69-2.48,.69v-1.12c1.86-.06,2.42-.75,2.69-1.87h1.17Z"/><path class="cls-2" d="M363.95,76.08c0,1.73-1.38,3.23-3.89,3.23s-3.89-1.38-3.91-3.33h1.31c.08,1.38,.96,2.19,2.61,2.19s2.5-.93,2.5-2.1-.78-1.92-2.8-1.92h-.91v-1.18h.91c1.86,0,2.51-.85,2.51-1.9,0-1.12-.88-1.87-2.18-1.87-1.22,0-2.19,.62-2.35,1.98h-1.33c.22-2,1.78-3.12,3.7-3.12,2.02,0,3.52,1.22,3.52,2.95,0,1.14-.5,2.05-1.54,2.46,1.15,.37,1.84,1.28,1.84,2.61Z"/><path class="cls-2" d="M373.23,76.08c0,1.73-1.38,3.23-3.89,3.23s-3.89-1.38-3.91-3.33h1.31c.08,1.38,.96,2.19,2.61,2.19s2.5-.93,2.5-2.1-.78-1.92-2.8-1.92h-.91v-1.18h.91c1.86,0,2.51-.85,2.51-1.9,0-1.12-.88-1.87-2.18-1.87-1.22,0-2.19,.62-2.35,1.98h-1.33c.22-2,1.78-3.12,3.7-3.12,2.02,0,3.52,1.22,3.52,2.95,0,1.14-.5,2.05-1.54,2.46,1.15,.37,1.84,1.28,1.84,2.61Z"/><path class="cls-2" d="M387.49,71.28c0,1.79-1.23,3.09-3.71,3.09h-3.01v4.75h-1.36v-10.87h4.48c2.48,0,3.6,1.15,3.6,3.03Zm-1.36,0c0-1.22-.75-1.89-2.46-1.89h-2.9v3.84h2.9c1.71,0,2.46-.78,2.46-1.95Z"/><path class="cls-2" d="M396.88,69.37h-3.6v9.75h-1.34v-9.75h-3.62v-1.12h8.56v1.12Z"/><path class="cls-2" d="M399.96,78.4c0,.5-.42,.91-.91,.91s-.93-.42-.93-.91,.42-.91,.93-.91,.91,.4,.91,.91Z"/></g><g><path class="cls-2" d="M771.15,214.71c0,3.11-2.53,5.6-5.63,5.6s-5.6-2.5-5.6-5.6,2.5-5.63,5.6-5.63,5.63,2.53,5.63,5.63Zm-10.08,0c0,2.46,1.98,4.45,4.45,4.45s4.48-1.99,4.48-4.45-2.02-4.48-4.48-4.48-4.45,2.02-4.45,4.48Z"/><path class="cls-2" d="M776.4,216.89h1.42c.21,1.54,1.34,2.29,3.11,2.29,1.86,0,2.72-.82,2.72-1.87,0-.96-.64-1.52-1.9-1.81l-2.53-.56c-1.6-.35-2.46-1.33-2.46-2.75,0-1.76,1.49-3.12,3.89-3.12s4.02,1.01,4.26,3.23h-1.42c-.21-1.44-1.26-2.1-2.87-2.1s-2.43,.8-2.43,1.82c0,.78,.4,1.33,1.65,1.62l2.45,.56c1.76,.4,2.8,1.36,2.8,2.91,0,1.9-1.49,3.2-4.15,3.2-2.85,0-4.31-1.23-4.53-3.43Z"/><path class="cls-2" d="M796.08,215.89c0,2.95-1.75,4.42-4.48,4.42s-4.5-1.49-4.5-4.42v-6.64h1.34v6.64c0,2.13,1.26,3.23,3.17,3.23s3.12-1.06,3.12-3.17v-6.71h1.34v6.64Z"/><path class="cls-2" d="M806.98,212.28c0,1.79-1.23,3.09-3.71,3.09h-3.01v4.75h-1.36v-10.87h4.48c2.48,0,3.6,1.15,3.6,3.03Zm-1.36,0c0-1.22-.75-1.89-2.46-1.89h-2.9v3.84h2.9c1.71,0,2.46-.78,2.46-1.95Z"/><path class="cls-2" d="M810.27,210.4v3.58h5.49v1.14h-5.49v3.84h6.16v1.15h-7.51v-10.87h7.51v1.15h-6.16Z"/><path class="cls-2" d="M822.45,215.37h-2.35v4.75h-1.36v-10.87h4.47c2.48,0,3.62,1.15,3.62,2.99,0,1.63-.9,2.74-2.91,2.98l3.51,4.9h-1.52l-3.44-4.75Zm-2.35-1.14h2.95c1.58,0,2.42-.72,2.42-1.98s-.86-1.86-2.45-1.86h-2.91v3.84Z"/><path class="cls-2" d="M845.62,216.55h-13.53v-1.15h13.53v1.15Z"/><path class="cls-2" d="M854.08,209.25v10.87h-1.38v-8.56c-.56,.51-1.3,.69-2.48,.69v-1.12c1.86-.06,2.42-.75,2.69-1.87h1.17Z"/><path class="cls-2" d="M864.16,216.58c0,2.22-1.5,3.73-3.76,3.73-3.12,0-4.02-2.77-4.02-5.71,0-3.87,2-5.54,4.18-5.54,2.03,0,3.14,1.01,3.43,2.79h-1.36c-.22-1.06-.88-1.63-2.07-1.63-1.82,0-2.85,1.71-2.85,4.07v.22c.53-.98,1.49-1.52,2.82-1.52,2.29,0,3.63,1.57,3.63,3.6Zm-1.33,0c0-1.28-.78-2.45-2.38-2.45s-2.5,1.17-2.5,2.45,.9,2.58,2.5,2.58,2.38-1.3,2.38-2.58Z"/><path class="cls-2" d="M873.57,217.48h-1.41v2.64h-1.38v-2.64h-5.46v-1.12l4.82-7.11h2.02v7.11h1.41v1.12Zm-2.79-1.12v-6.08l-4.13,6.08h4.13Z"/><path class="cls-2" d="M887.63,212.28c0,1.79-1.23,3.09-3.71,3.09h-3.01v4.75h-1.36v-10.87h4.48c2.48,0,3.6,1.15,3.6,3.03Zm-1.36,0c0-1.22-.75-1.89-2.46-1.89h-2.9v3.84h2.9c1.71,0,2.46-.78,2.46-1.95Z"/><path class="cls-2" d="M897.02,210.37h-3.6v9.75h-1.34v-9.75h-3.62v-1.12h8.56v1.12Z"/></g><g><path class="cls-2" d="M514.15,392.71c0,3.11-2.53,5.6-5.63,5.6s-5.6-2.5-5.6-5.6,2.5-5.63,5.6-5.63,5.63,2.53,5.63,5.63Zm-10.08,0c0,2.46,1.98,4.45,4.45,4.45s4.48-1.99,4.48-4.45-2.02-4.48-4.48-4.48-4.45,2.02-4.45,4.48Z"/><path class="cls-2" d="M531.26,387.25v10.87h-1.36v-9.68l-3.68,9.68h-.88l-3.73-9.7v9.7h-1.36v-10.87h2.21l3.31,8.72,3.31-8.72h2.18Z"/><path class="cls-2" d="M535.54,388.4v3.58h5.49v1.14h-5.49v3.84h6.16v1.15h-7.51v-10.87h7.51v1.15h-6.16Z"/><path class="cls-2" d="M552.78,392.69c0,3.34-2.19,5.43-5.28,5.43h-3.49v-10.87h3.49c3.09,0,5.28,2.08,5.28,5.44Zm-1.36,0c0-2.72-1.52-4.31-4.13-4.31h-1.94v8.6h1.94c2.58,0,4.13-1.58,4.13-4.29Z"/><path class="cls-2" d="M556.55,398.12h-1.34v-10.87h1.34v10.87Z"/><path class="cls-2" d="M568.34,393.89c0,2.95-1.75,4.42-4.48,4.42s-4.5-1.49-4.5-4.42v-6.64h1.34v6.64c0,2.13,1.26,3.23,3.17,3.23s3.12-1.06,3.12-3.17v-6.71h1.34v6.64Z"/><path class="cls-2" d="M582.17,387.25v10.87h-1.36v-9.68l-3.68,9.68h-.88l-3.73-9.7v9.7h-1.36v-10.87h2.21l3.31,8.72,3.31-8.72h2.18Z"/><path class="cls-2" d="M601.38,394.55h-13.53v-1.15h13.53v1.15Z"/><path class="cls-2" d="M609.84,387.25v10.87h-1.38v-8.56c-.56,.51-1.3,.69-2.48,.69v-1.12c1.86-.06,2.42-.75,2.69-1.87h1.17Z"/><path class="cls-2" d="M613.39,397h6.03v1.12h-7.39v-.46c0-1.6,.67-2.8,2.38-3.81l2.16-1.26c1.07-.62,1.49-1.31,1.49-2.26,0-1.14-.69-2.13-2.16-2.13s-2.35,.98-2.45,2.53h-1.31c.08-2.15,1.38-3.67,3.76-3.67,2.24,0,3.52,1.41,3.52,3.27,0,1.18-.37,2.18-2.11,3.22l-2.48,1.47c-.78,.46-1.3,1.06-1.44,1.99Z"/><path class="cls-2" d="M628.72,394.65c0,1.92-1.28,3.67-3.78,3.67-2.26,0-3.84-1.34-3.84-3.33h1.36c.06,1.33,1.01,2.19,2.5,2.19s2.42-1.12,2.42-2.56-.85-2.48-2.43-2.48c-.96,0-1.63,.4-2.02,1.07h-1.57l.42-5.95h6.4v1.12h-5.3l-.24,3.67c.54-.67,1.44-1.09,2.54-1.09,2.21,0,3.54,1.62,3.54,3.7Z"/><path class="cls-2" d="M642.87,390.28c0,1.79-1.23,3.09-3.71,3.09h-3.01v4.75h-1.36v-10.87h4.48c2.48,0,3.6,1.15,3.6,3.03Zm-1.36,0c0-1.22-.75-1.89-2.46-1.89h-2.9v3.84h2.9c1.71,0,2.46-.78,2.46-1.95Z"/><path class="cls-2" d="M652.26,388.37h-3.6v9.75h-1.34v-9.75h-3.62v-1.12h8.56v1.12Z"/></g><g><path class="cls-2" d="M948.15,537.71c0,3.11-2.53,5.6-5.63,5.6s-5.6-2.5-5.6-5.6,2.5-5.63,5.6-5.63,5.63,2.53,5.63,5.63Zm-10.08,0c0,2.46,1.98,4.45,4.45,4.45s4.48-1.99,4.48-4.45-2.02-4.48-4.48-4.48-4.45,2.02-4.45,4.48Z"/><path class="cls-2" d="M961.69,533.37h-3.6v9.75h-1.34v-9.75h-3.62v-1.12h8.56v1.12Z"/><path class="cls-2" d="M972.42,532.25v10.87h-1.34v-5.09h-6.23v5.09h-1.34v-10.87h1.34v4.64h6.23v-4.64h1.34Z"/><path class="cls-2" d="M976.71,543.12h-1.34v-10.87h1.34v10.87Z"/><path class="cls-2" d="M988.57,532.25v10.87h-2.05l-5.59-9.78v9.78h-1.28v-10.87h2.05l5.6,9.78v-9.78h1.26Z"/><path class="cls-2" d="M1007.78,539.55h-13.53v-1.15h13.53v1.15Z"/><path class="cls-2" d="M1016.24,532.25v10.87h-1.38v-8.56c-.56,.51-1.3,.69-2.48,.69v-1.12c1.86-.06,2.42-.75,2.69-1.87h1.17Z"/><path class="cls-2" d="M1025.08,532.25v1.1l-4.48,9.76h-1.41l4.58-9.75h-5.75v-1.12h7.06Z"/><path class="cls-2" d="M1034.01,540.13c0,1.84-1.63,3.19-3.91,3.19s-3.92-1.34-3.92-3.19c0-1.31,.86-2.35,2.1-2.69-1.06-.35-1.76-1.3-1.76-2.42,0-1.7,1.49-2.96,3.58-2.96s3.57,1.26,3.57,2.96c0,1.12-.7,2.07-1.76,2.42,1.23,.34,2.1,1.36,2.1,2.69Zm-1.49-.05c0-1.25-.98-2.07-2.42-2.07s-2.43,.82-2.43,2.07,.99,2.06,2.43,2.06,2.42-.82,2.42-2.06Zm-4.59-5.01c0,.96,.77,1.84,2.18,1.84s2.16-.88,2.16-1.84c0-1.09-.85-1.91-2.16-1.91s-2.18,.82-2.18,1.91Z"/><path class="cls-2" d="M1048.26,535.28c0,1.79-1.23,3.09-3.71,3.09h-3.01v4.75h-1.36v-10.87h4.48c2.48,0,3.6,1.15,3.6,3.03Zm-1.36,0c0-1.22-.75-1.89-2.46-1.89h-2.9v3.84h2.9c1.71,0,2.46-.78,2.46-1.95Z"/><path class="cls-2" d="M1057.65,533.37h-3.6v9.75h-1.34v-9.75h-3.62v-1.12h8.56v1.12Z"/></g></svg>