<svg xmlns="http://www.w3.org/2000/svg" viewBox="0 0 1366 768"><defs><style>.cls-1{fill:#f2f2f2;}.cls-2{fill:#1a26cd;}</style></defs><g id="Layer_1" data-name="Layer 1"><rect class="cls-1" width="1366" height="768"/><path d="M124.18,131.27c0-27.4,16.36-46.82,41.5-46.82,22.61,0,34.18,11.71,37.9,30.46H193.47c-3.45-15.56-12.9-22.35-27.79-22.35-18.09,0-31.92,15.17-31.92,38.71s13.83,38.56,31.92,38.56c14.63,0,24.07-6.38,27.93-22.21h10.1C199.59,167,187.89,178,165.68,178,140.67,178,124.18,158.66,124.18,131.27Z"/><path d="M317.56,107.59l-24.74,68.76H282.45l-17.29-54.53-17.42,54.53H237.36l-24.73-68.76h9.44L242.42,166,261,107.59h8.11l18.49,58.12L308,107.59Z"/><path d="M431.14,134.19v42.16h-9V135.12c0-13.7-7.45-20.88-17.82-20.88s-19,7.18-19,20.48v41.63h-9.05V135.12c0-13.7-7.44-20.88-17.95-20.88-10.24,0-18.88,7.18-18.88,20.48v41.63H330.2V107.59H339v10.24c4.12-7.44,11.57-11.83,21.28-11.83,10.1,0,18.08,4.65,22.07,13.3,4.39-8.25,12.5-13.3,23.41-13.3C420.9,106,431.14,116.1,431.14,134.19Z"/><path d="M514.4,142c0,21.81-13,35.91-30.06,35.91-11.7,0-19.95-6.52-24.34-16v14.36h-8.77V80.59h9v40.17c4.39-9,12.5-14.76,24.34-14.76C501.63,106,514.4,120.49,514.4,142Zm-9,0c0-16.76-8.52-28.2-22.48-28.2-13,0-22.61,11.84-22.61,27.93v.53c0,16.76,9.44,27.67,22.61,27.67S505.36,158.8,505.36,142Z"/><path d="M561,107.19v8.52a24.28,24.28,0,0,0-3.32-.14c-11.31,0-17.56,8.12-17.56,20.48v40.3h-9.18V107.59h8.78v11.57c2.66-7.44,8.78-12.37,18-12.37A16.47,16.47,0,0,1,561,107.19Z"/><path d="M625.72,129.8v46.55h-8.51V165.58C611.62,174,603.78,178,593.54,178c-13.44,0-23.68-8.51-23.68-20.35s7.72-19,22.61-20.62l24.21-2.65v-4.79c0-10.78-6.65-15.7-17-15.7-10.64,0-17.42,4.39-18.88,14.9h-9c1.87-15.16,12.37-22.74,27.93-22.74S625.72,113.71,625.72,129.8Zm-9,19.15v-7.58L594.07,144c-10.64,1.33-14.63,6.39-14.63,13.3,0,7.18,6,12.77,15.82,12.77C608.43,170.1,616.68,161.59,616.68,149Z"/><path d="M701,134.46v41.89h-9v-40.3c0-14.23-6.51-21.94-17.82-21.94s-19.15,8-19.15,22.61v39.63H645.8V107.59h8.78V118.1c4.12-7.85,11-12.1,21.28-12.1C691,106,701,116.1,701,134.46Z"/><path d="M723.47,193.64h-6c3.32-7.45,4.79-10.9,6-15.43l-1.59-.79a7,7,0,0,1-4-6.39,6.75,6.75,0,0,1,6.91-6.78c3.73,0,6.92,2.66,6.92,7.58C731.72,176.09,729.46,182.87,723.47,193.64Z"/><path d="M850.09,110.79c0,14.49-10,25.4-29.93,25.4H793.83v40.16h-9.71V86.05H821C840.91,86.05,850.09,95.76,850.09,110.79Zm-9.58,0c0-10.38-6.51-16.63-21-16.63H793.83v33.91H819.5C834,128.07,840.51,120.89,840.51,110.79Z"/><path d="M922.3,145.36H869.64c.93,15.7,10.24,24.47,22.87,24.47,10.64,0,17.16-5.58,19.29-13.56h9.57c-2.79,11.84-12,21.68-28.32,21.68-20.62,0-32.59-14.37-32.59-35.38,0-22.61,13.43-36.57,31.39-36.57,20.21,0,30.59,14,30.59,36.17A30.25,30.25,0,0,1,922.3,145.36Zm-9.3-7.84c-.8-16-9-23.68-21.15-23.68-11.7,0-20.48,8.38-22.08,23.68Z"/><path d="M951.83,115.57v42.16c0,8.11,4.12,11.17,9.84,11.17a23.16,23.16,0,0,0,5.72-.53v8a29.76,29.76,0,0,1-7.18.8c-10.77,0-17.42-6.25-17.42-18.49V115.57H931v-8h11.84V88.18h9v19.41h15.56v8Z"/><path d="M1039.61,145.36H986.94c.93,15.7,10.24,24.47,22.88,24.47,10.64,0,17.15-5.58,19.28-13.56h9.58c-2.79,11.84-12,21.68-28.33,21.68-20.61,0-32.58-14.37-32.58-35.38,0-22.61,13.43-36.57,31.38-36.57,20.22,0,30.59,14,30.59,36.17C1039.74,144.17,1039.61,145.36,1039.61,145.36Zm-9.31-7.84c-.8-16-9-23.68-21.15-23.68-11.7,0-20.48,8.38-22.07,23.68Z"/><path d="M1086,107.19v8.52a24.5,24.5,0,0,0-3.33-.14c-11.3,0-17.55,8.12-17.55,20.48v40.3H1056V107.59h8.78v11.57c2.66-7.44,8.77-12.37,18-12.37A16.48,16.48,0,0,1,1086,107.19Z"/><path d="M1108.77,176.35h-9.18V80.59h9.18Z"/><path d="M1187.64,145.36H1135c.93,15.7,10.24,24.47,22.87,24.47,10.64,0,17.16-5.58,19.29-13.56h9.58c-2.8,11.84-12,21.68-28.33,21.68-20.62,0-32.59-14.37-32.59-35.38,0-22.61,13.44-36.57,31.39-36.57,20.22,0,30.59,14,30.59,36.17C1187.77,144.17,1187.64,145.36,1187.64,145.36Zm-9.31-7.84c-.8-16-9-23.68-21.15-23.68-11.7,0-20.48,8.38-22.08,23.68Z"/><path d="M1261.71,145.36h-52.66c.93,15.7,10.24,24.47,22.87,24.47,10.64,0,17.16-5.58,19.29-13.56h9.57c-2.79,11.84-12,21.68-28.32,21.68-20.62,0-32.59-14.37-32.59-35.38,0-22.61,13.43-36.57,31.39-36.57,20.21,0,30.59,14,30.59,36.17A30.25,30.25,0,0,1,1261.71,145.36Zm-9.3-7.84c-.8-16-9.05-23.68-21.15-23.68-11.7,0-20.48,8.38-22.08,23.68Z"/><path d="M216.5,552.08H174.24V668.16h-5.52V552.08H126.28v-5H216.5Z"/><path d="M307.26,613.78v54.38h-5.35V614c0-21.76-10.16-35.13-29.42-35.13-17.83,0-31,15-31,36.91v52.42h-5.17V539.78h5.17v56.7c5.35-13.91,16.94-22.64,31.74-22.64C295.32,573.84,307.26,589.35,307.26,613.78Z"/><path d="M411.21,624.12H337c.54,23.72,13.73,41.19,36.56,41.19,16.23,0,27.46-10.16,30.67-24.07H410c-4.1,15.87-15.51,29.06-36.19,29.06-27.11,0-41.91-20.68-41.91-47.78,0-28.53,15.69-48.68,40.12-48.68,25.5,0,39.41,18.9,39.41,46.71Zm-5.35-4.81c-.17-25.5-13-40.48-33.88-40.48-20.32,0-33.88,16.23-35,40.48Z"/><path d="M603.25,547.09V668.16h-5.53V551.72L547.44,668.16H542.8L492.16,552.08V668.16h-5.35V547.09h8.74L544.94,661l49.39-113.94Z"/><path d="M632,622.16c0-27.64,15.16-48.32,40.66-48.32,25.32,0,40.47,20.5,40.47,48.32,0,27.64-15.15,48.14-40.29,48.14C647.11,670.3,632,649.8,632,622.16Zm76,0c0-24.79-13-43.33-35.3-43.33-22.65,0-35.49,18.54-35.49,43.33s13.2,43.15,35.67,43.15C694.54,665.31,707.91,646.94,707.91,622.16Z"/><path d="M813.65,539.78V668.16h-5v-26c-5.17,16.58-17.47,28.17-36,28.17-24.07,0-39.94-20.15-39.94-48.14s15.52-48.32,39.59-48.32c18.36,0,30.67,11,36,26.92v-61Zm-5.35,83.81v-3.21c0-22.47-13.38-41.55-35.49-41.55-21.22,0-34.95,18.19-34.95,43.33,0,25,14.09,43.15,35.31,43.15C795.1,665.31,808.3,646.23,808.3,623.59Z"/><path d="M918.85,624.12H844.67c.53,23.72,13.73,41.19,36.55,41.19,16.23,0,27.46-10.16,30.67-24.07h5.71c-4.1,15.87-15.52,29.06-36.2,29.06-27.1,0-41.9-20.68-41.9-47.78,0-28.53,15.69-48.68,40.12-48.68,25.5,0,39.41,18.9,39.41,46.71Zm-5.35-4.81c-.18-25.5-13-40.48-33.88-40.48-20.33,0-33.88,16.23-35,40.48Z"/><path d="M979.11,575.26v5a28.82,28.82,0,0,0-3.74-.17c-14.8,0-26.21,12.84-26.21,34.41v53.67H944V576h4.81v20.68c3.21-11.95,13-21.75,27.1-21.75A11.18,11.18,0,0,1,979.11,575.26Z"/><path d="M1069.69,612.71v55.45h-5.35V614c0-21.76-10-35.13-29.24-35.13s-31.21,13.91-31.21,35.84v53.49h-5.17V576h5v19.43c5.17-13.55,15.87-21.57,31.91-21.57C1056.68,573.84,1069.69,587.92,1069.69,612.71Z"/><path d="M1097.68,549.94a5.86,5.86,0,0,1,6.06-5.88,5.67,5.67,0,0,1,5.71,5.88,5.94,5.94,0,0,1-5.71,6.06A6.13,6.13,0,0,1,1097.68,549.94Zm3.21,26h5.17v92.18h-5.17Z"/><path d="M1131.56,641.24h5.35c2.67,16.22,13.91,24.25,31.92,24.25,17.65,0,29.06-7.13,29.06-20,0-11.24-7-16.59-22.29-19.79l-19.79-4.11c-15.69-3.38-22.83-9.62-22.83-22.46,0-14.45,11.77-25.32,32.64-25.32s33.52,9.8,35.66,30.49h-5.53c-2-17.48-12.3-25.68-30.13-25.68-18,0-27.46,8.56-27.46,20.33,0,9.81,5,14.8,19.25,17.83l20.15,4.1c17.83,3.57,25.5,10.7,25.5,24.25,0,15.69-12.66,25.14-34.23,25.14S1134.41,660.32,1131.56,641.24Z"/><path d="M1237.65,581v66.51c0,13.37,7.31,16.76,15.33,16.76a48.48,48.48,0,0,0,7.49-.53v4.63a26.48,26.48,0,0,1-8.2.89c-11.41,0-20-6.06-20-20.86V581h-16.41v-5h16.41v-26h5.35v26h22.82v5Z"/><path d="M204.69,410.46v84.87H187.56v-37H145.69v37H128.56V410.46h17.13v33.75h41.87V410.46Z"/><path d="M281.06,430.71l-38.12,88.12h-17.5l13.62-29.25-24.75-58.87h17.5l15.75,42.37,16.75-42.37Z"/><path d="M350.18,405.33v90H335.31V484.46c-4.13,8.12-11.38,12.37-21.25,12.37-15.38,0-29.13-12.37-29.13-33.75,0-21.75,13.13-33.87,28.5-33.87,9,0,15.88,3.37,20.25,9.62v-33.5Zm-16.5,57.75c0-12.37-6.75-20.62-16-20.62-9.75,0-16.12,8.12-16.12,20.62s6.75,20.5,16.12,20.5S333.68,475.71,333.68,463.08Z"/><path d="M424.43,464c0,2-.12,3.75-.12,3.75H377.56c1.12,11.75,7.37,16.62,16.12,16.62,7.13,0,11.13-3.12,13-7.87h16.38c-2.88,11.5-13.13,20.37-29.5,20.37-20.63,0-32.5-13.75-32.5-33.37,0-20.5,13.12-34.25,32-34.25C413.31,429.21,424.81,443.21,424.43,464Zm-16.87-7c-.5-9.75-5.88-15.25-14.38-15.25-7.87,0-13.75,5-15.37,15.25Z"/><path d="M534.55,434.83c0,14.13-9.87,25.63-30,25.63H482.93v34.87H465.68V410.46h39.25C525.05,410.46,534.55,420.58,534.55,434.83Zm-17.12.38c0-7.5-4.88-11.5-15.38-11.5H482.93v23.5h19.25C512.55,447.21,517.43,442.33,517.43,435.21Z"/><path d="M600.43,453v42.37H585.55v-8.25c-5,6.63-11.87,9.75-20.62,9.75-13.75,0-23.25-8.12-23.25-19.37,0-10.75,6.75-18.38,22.87-20l19.5-2V452c0-7.25-4.5-10.75-11.62-10.75-7.5,0-11.63,3-12.88,9.37h-16.5c1.75-14,12.13-21.37,29.13-21.37C589.68,429.21,600.43,436.58,600.43,453Zm-16.5,17.12v-4.75l-15.5,2c-6.88.88-10,4.5-10,9.38s4,9,10.87,9C578.8,485.71,583.93,479.33,583.93,470.08Z"/><path d="M650.18,430.58v14.5a28.85,28.85,0,0,0-3.75-.25c-10.13,0-15.63,5.88-15.63,16.13v34.37H614.3V430.71h14.88v11.12c3.12-7.75,9.5-11.75,17.12-11.75A14,14,0,0,1,650.18,430.58Z"/><path d="M701.93,495.33,676.3,463.46v31.87H659.8v-90h16.5v50l25-24.62h18.25l-28.12,28.37,29.37,36.25Z"/><path d="M752.8,470.08h17.75c1.5,8.88,7.88,13.38,19.63,13.38,12,0,17.25-4.75,17.25-11,0-5.5-3.63-9.13-11.75-10.75l-19.75-3.88c-14.25-2.75-21.5-11.62-21.5-22.87,0-14.13,11.75-26,33.37-26,20.88,0,33.88,9,35.5,25.25H805.43c-1.38-8.13-7.13-11.88-17.75-11.88-10.38,0-15.5,4.88-15.5,10.88,0,4.87,3,8.25,10.87,9.75l19.88,3.75c15.5,2.75,22.25,11.87,22.25,23.25,0,15-11.5,26.87-34.88,26.87C766.05,496.83,754.68,487,752.8,470.08Z"/><path d="M895.17,454.71v40.62h-16.5V458c0-10-5.5-14.88-12.75-14.88-7.5,0-13.25,5.25-13.25,15.13v37.12h-16.5v-90h16.5v34c3.75-6.5,10-10.12,18.38-10.12C884.8,429.21,895.17,438,895.17,454.71Z"/><path d="M968.92,464c0,2-.12,3.75-.12,3.75H922.05c1.12,11.75,7.37,16.62,16.12,16.62,7.13,0,11.13-3.12,13-7.87h16.38c-2.88,11.5-13.13,20.37-29.5,20.37-20.63,0-32.5-13.75-32.5-33.37,0-20.5,13.12-34.25,32-34.25C957.8,429.21,969.3,443.21,968.92,464Zm-16.87-7c-.5-9.75-5.88-15.25-14.38-15.25-7.87,0-13.75,5-15.37,15.25Z"/><path d="M986.05,444.33h-11V430.71h11v-3c0-15.13,9-23.5,24-23.5a28.27,28.27,0,0,1,8.37,1.12v13a18.82,18.82,0,0,0-5.62-.62c-6.63,0-10.25,2.75-10.25,9.25v3.75h21.87v-3c0-15.13,9-23.5,24.13-23.5a17.85,17.85,0,0,1,6,.75v13.12a12.91,12.91,0,0,0-3.25-.37c-6.63,0-10.25,2.75-10.25,9.25v3.75h38.37v64.62h-16.5v-51h-21.87v51h-16.63v-51h-21.87v51h-16.5Zm75.5-32.62a9.56,9.56,0,0,1,9.87-9.75,9.75,9.75,0,1,1,0,19.5A9.87,9.87,0,0,1,1061.55,411.71Z"/><path d="M1154.17,464c0,2-.13,3.75-.13,3.75h-46.75c1.13,11.75,7.38,16.62,16.13,16.62,7.12,0,11.12-3.12,13-7.87h16.37c-2.87,11.5-13.12,20.37-29.5,20.37-20.62,0-32.5-13.75-32.5-33.37,0-20.5,13.13-34.25,32-34.25C1143,429.21,1154.54,443.21,1154.17,464Zm-16.88-7c-.5-9.75-5.87-15.25-14.37-15.25-7.88,0-13.75,5-15.38,15.25Z"/><path d="M1181.92,495.33h-16.5v-90h16.5Z"/><path d="M1258.42,405.33v90h-14.88V484.46c-4.12,8.12-11.37,12.37-21.25,12.37-15.37,0-29.12-12.37-29.12-33.75,0-21.75,13.12-33.87,28.5-33.87,9,0,15.87,3.37,20.25,9.62v-33.5Zm-16.5,57.75c0-12.37-6.75-20.62-16-20.62-9.75,0-16.13,8.12-16.13,20.62s6.75,20.5,16.13,20.5S1241.92,475.71,1241.92,463.08Z"/><path d="M126.54,310h33.29c.82,7.59,6.1,12.2,18,12.2,12.86,0,17-4.61,17-9.89,0-4.78-2.47-7.91-9.39-9.06l-26.87-4.45c-20.76-3.46-30.82-15-30.82-33.29,0-19,16-36.1,47.47-36.1,31.31,0,47.63,12.69,49.94,33.29h-33c-1.32-6.75-6.75-10.38-17.14-10.38-10.54,0-15.32,4.29-15.32,9.89,0,4.61,2.63,7.25,9.06,8.24l27.19,4.12c21.76,3.3,30.82,15.82,30.82,33.79,0,20.43-15,36.91-49.11,36.91C142.53,345.29,128.35,332.11,126.54,310Z"/><path d="M296.62,343.32l-22.09-35.27v35.27H241.9V224.65h32.63V285.8L297,258.11h35.27l-31.48,37.74,32.14,47.47Z"/><path d="M429.12,307.72H371.44c1.15,13,5.76,18,14,18,6.43,0,9.07-2,11.21-7.25h29.83c-4.28,16.32-18.62,26.86-41.53,26.86-28.84,0-45.65-18.29-45.65-44.82,0-24.73,16-44.34,45.65-44.34,30.33,0,44.5,20.6,44.5,44.34A58.36,58.36,0,0,1,429.12,307.72Zm-31.81-15.33c-.16-10.88-4.28-16.65-12.36-16.65-6.76,0-11.87,4.45-13.35,16.65Z"/><path d="M476.09,343.32H443.45V224.65h32.64Z"/><path d="M634.3,287.78v55.54H601.67V291.24c0-7.42-3.63-11.54-9.4-11.54-7.41,0-12.19,4.28-12.19,15.66v48H547.44V291.24c0-7.42-3.62-11.54-9.39-11.54-7.42,0-12.2,4.28-12.2,15.66v48H493.22V258.11h29v13c5.27-9.89,14.17-15,25.38-15,12.52,0,23.07,4.45,28.51,14.5,5.44-9.55,14.5-14.5,25.71-14.5C620,256.13,634.3,265.69,634.3,287.78Z"/><path d="M737.3,307.72H679.62c1.15,13,5.76,18,14,18,6.43,0,9.07-2,11.21-7.25h29.83c-4.28,16.32-18.62,26.86-41.53,26.86-28.84,0-45.65-18.29-45.65-44.82,0-24.73,16-44.34,45.65-44.34,30.33,0,44.5,20.6,44.5,44.34A58.36,58.36,0,0,1,737.3,307.72Zm-31.81-15.33c-.16-10.88-4.28-16.65-12.36-16.65-6.76,0-11.87,4.45-13.35,16.65Z"/><path d="M808.82,258.11v26.2a65.53,65.53,0,0,0-6.59-.33c-10.55,0-18,6.1-18,18.3v41H751.63V258.11H780v15.16c4.78-11.53,13.68-16,23.4-16A13.5,13.5,0,0,1,808.82,258.11Z"/><path d="M818.38,318.43H848c1.16,5.11,5.28,7.91,13.19,7.91,7.74,0,11-2.8,11-6.92,0-3-1.81-5.93-6.76-6.76l-21.59-3.29c-16.48-2.48-24.55-11.38-24.55-25.06,0-15.49,14-28.18,39.22-28.18,23.9,0,39.72,7.91,42.69,28.18H871.61c-1-5.76-4.94-8.89-12.36-8.89s-10.71,3-10.71,6.75c0,3.3,2.3,5.77,7.58,6.59l23.24,3.3c17.14,2.47,23.73,11.87,23.73,24.23,0,17.47-14.5,29-42.36,29C834.53,345.29,820.85,335.74,818.38,318.43Z"/><path d="M1006.59,224.65V343.32H975.93V328.65c-4.78,11.21-13.35,16.64-26,16.64-18.29,0-36.75-15-36.75-44.5,0-29.17,18.46-44.66,36.75-44.66,10.55,0,18.79,3.13,24.06,11.87V224.65ZM974,300.47c0-15.33-6.42-20.93-14-20.93-8.07,0-14.17,5.76-14.17,21.09,0,15.82,6.26,21.26,14.34,21.26C967.53,321.89,974,317,974,300.47Z"/><path d="M1106.29,288.76v54.56h-28.84V332.93a33.4,33.4,0,0,1-26.37,12.36c-19.28,0-30.49-11-30.49-25.38,0-15.49,11.53-25.05,32.47-27l21.42-2v-5.28c0-6.09-3.62-9.72-10-9.72-6.76,0-10.39,3.13-11.37,8.4h-31.15c1.64-16.64,15-28.18,42.35-28.18C1095.25,256.13,1106.29,270,1106.29,288.76ZM1073.82,315V305.9l-9.72,1.32c-8.24,1.16-12.53,4.78-12.53,10.55,0,5.6,4.12,8.9,10.39,8.9C1069.37,326.67,1073.82,321.56,1073.82,315Z"/><path d="M1155.07,343.32h-32.63V224.65h32.63Z"/><path d="M1258.73,307.72h-57.68c1.15,13,5.77,18,14,18,6.42,0,9.06-2,11.2-7.25h29.83c-4.28,16.32-18.62,26.86-41.53,26.86-28.84,0-45.65-18.29-45.65-44.82,0-24.73,16-44.34,45.65-44.34,30.33,0,44.5,20.6,44.5,44.34A58.36,58.36,0,0,1,1258.73,307.72Zm-31.81-15.33c-.16-10.88-4.28-16.65-12.36-16.65-6.76,0-11.86,4.45-13.35,16.65Z"/><path class="cls-2" d="M279.15,73.71a5.62,5.62,0,1,1-5.63-5.64A5.62,5.62,0,0,1,279.15,73.71Zm-10.08,0a4.47,4.47,0,0,0,8.93,0,4.47,4.47,0,1,0-8.93,0Z"/><path class="cls-2" d="M293.66,76c0,1.9-1.12,3.09-3.87,3.09h-4.55V68.25h4.31c2.48,0,3.62,1.07,3.62,2.87a2.48,2.48,0,0,1-2,2.35A2.56,2.56,0,0,1,293.66,76Zm-7.07-6.64V73h2.83c1.51,0,2.39-.68,2.39-1.88s-1-1.73-2.61-1.73ZM292.32,76c0-1.44-1.12-1.89-2.79-1.89h-2.94V78h2.93C291.2,78,292.32,77.55,292.32,76Z"/><path class="cls-2" d="M295.24,73.69c0-3.36,2.07-5.63,5.06-5.63s5.06,2.27,5.06,5.63-2.07,5.62-5.06,5.62S295.24,77,295.24,73.69Zm8.76,0c0-2.78-1.46-4.49-3.7-4.49s-3.7,1.71-3.7,4.49,1.46,4.48,3.7,4.48S304,76.46,304,73.69Z"/><path class="cls-2" d="M306.92,73.69c0-3.36,2.07-5.63,5.06-5.63S317,70.33,317,73.69,315,79.31,312,79.31,306.92,77,306.92,73.69Zm8.76,0c0-2.78-1.46-4.49-3.7-4.49s-3.7,1.71-3.7,4.49,1.46,4.48,3.7,4.48S315.68,76.46,315.68,73.69Z"/><path class="cls-2" d="M322.06,73.13l5.55,6H326l-5.33-5.64v5.64h-1.36V68.25h1.36v4.58l5.28-4.58h1.76Z"/><path class="cls-2" d="M345.54,75.55H332V74.4h13.53Z"/><path class="cls-2" d="M354,68.25V79.12h-1.38V70.56a3.43,3.43,0,0,1-2.48.68V70.12c1.86-.06,2.41-.75,2.69-1.87Z"/><path class="cls-2" d="M364,76.08c0,1.73-1.38,3.23-3.89,3.23s-3.89-1.38-3.91-3.33h1.32c.08,1.38,1,2.19,2.61,2.19s2.49-.92,2.49-2.09-.78-1.92-2.8-1.92h-.91V73h.91c1.86,0,2.51-.85,2.51-1.9a1.93,1.93,0,0,0-2.17-1.87,2.16,2.16,0,0,0-2.36,2h-1.32a3.46,3.46,0,0,1,3.69-3.12c2,0,3.53,1.22,3.53,2.94a2.47,2.47,0,0,1-1.54,2.47A2.56,2.56,0,0,1,364,76.08Z"/><path class="cls-2" d="M373.23,76.08c0,1.73-1.38,3.23-3.89,3.23s-3.89-1.38-3.91-3.33h1.32c.08,1.38,1,2.19,2.61,2.19s2.49-.92,2.49-2.09-.78-1.92-2.8-1.92h-.91V73h.91c1.86,0,2.51-.85,2.51-1.9a1.93,1.93,0,0,0-2.17-1.87,2.15,2.15,0,0,0-2.35,2h-1.33a3.46,3.46,0,0,1,3.69-3.12c2,0,3.53,1.22,3.53,2.94a2.47,2.47,0,0,1-1.54,2.47A2.56,2.56,0,0,1,373.23,76.08Z"/><path class="cls-2" d="M387.49,71.28c0,1.79-1.24,3.09-3.72,3.09h-3v4.75H379.4V68.25h4.48C386.37,68.25,387.49,69.4,387.49,71.28Zm-1.37,0c0-1.22-.75-1.89-2.46-1.89h-2.9v3.84h2.9C385.37,73.23,386.12,72.44,386.12,71.28Z"/><path class="cls-2" d="M396.88,69.37h-3.6v9.75h-1.35V69.37h-3.62V68.25h8.57Z"/><path class="cls-2" d="M400,78.4a.91.91,0,0,1-.91.91.91.91,0,1,1,0-1.82A.91.91,0,0,1,400,78.4Z"/><path class="cls-2" d="M771.15,214.71a5.62,5.62,0,1,1-5.63-5.64A5.62,5.62,0,0,1,771.15,214.71Zm-10.08,0a4.47,4.47,0,0,0,8.93,0,4.47,4.47,0,1,0-8.93,0Z"/><path class="cls-2" d="M776.4,216.89h1.42c.21,1.53,1.35,2.28,3.11,2.28s2.72-.81,2.72-1.87-.64-1.52-1.91-1.81l-2.53-.56a2.73,2.73,0,0,1-2.46-2.75c0-1.76,1.49-3.12,3.89-3.12s4,1,4.26,3.23h-1.43c-.21-1.44-1.26-2.09-2.86-2.09s-2.44.8-2.44,1.82c0,.78.4,1.33,1.65,1.62l2.45.56c1.76.4,2.8,1.36,2.8,2.91,0,1.9-1.49,3.2-4.14,3.2C778.08,220.31,776.62,219.08,776.4,216.89Z"/><path class="cls-2" d="M796.08,215.89c0,3-1.75,4.42-4.48,4.42s-4.5-1.49-4.5-4.42v-6.64h1.35v6.64a3.15,3.15,0,1,0,6.29.07v-6.71h1.34Z"/><path class="cls-2" d="M807,212.28c0,1.79-1.24,3.09-3.72,3.09h-3v4.75h-1.36V209.25h4.48C805.86,209.25,807,210.4,807,212.28Zm-1.36,0c0-1.22-.76-1.89-2.47-1.89h-2.9v3.84h2.9C804.86,214.23,805.62,213.44,805.62,212.28Z"/><path class="cls-2" d="M810.27,210.4V214h5.49v1.13h-5.49V219h6.16v1.15h-7.51V209.25h7.51v1.15Z"/><path class="cls-2" d="M822.45,215.37h-2.36v4.75h-1.36V209.25h4.47c2.48,0,3.62,1.15,3.62,3,0,1.64-.9,2.74-2.92,3l3.51,4.9h-1.52Zm-2.36-1.14H823c1.58,0,2.42-.72,2.42-2s-.87-1.85-2.45-1.85h-2.92Z"/><path class="cls-2" d="M845.62,216.55H832.09V215.4h13.53Z"/><path class="cls-2" d="M854.08,209.25v10.87H852.7v-8.56a3.43,3.43,0,0,1-2.48.68v-1.12c1.86-.06,2.42-.75,2.69-1.87Z"/><path class="cls-2" d="M864.16,216.58a3.55,3.55,0,0,1-3.76,3.73c-3.12,0-4-2.77-4-5.71,0-3.88,2-5.54,4.18-5.54a3.08,3.08,0,0,1,3.42,2.78h-1.36a1.89,1.89,0,0,0-2.06-1.63c-1.83,0-2.85,1.71-2.85,4.07v.22a3,3,0,0,1,2.82-1.52A3.43,3.43,0,0,1,864.16,216.58Zm-1.33,0a2.29,2.29,0,0,0-2.38-2.45,2.4,2.4,0,0,0-2.5,2.45,2.48,2.48,0,0,0,2.5,2.58A2.39,2.39,0,0,0,862.83,216.58Z"/><path class="cls-2" d="M873.57,217.48h-1.41v2.64h-1.38v-2.64h-5.46v-1.12l4.82-7.11h2v7.11h1.41Zm-2.79-1.12v-6.08l-4.13,6.08Z"/><path class="cls-2" d="M887.63,212.28c0,1.79-1.23,3.09-3.71,3.09h-3v4.75h-1.36V209.25H884C886.51,209.25,887.63,210.4,887.63,212.28Zm-1.36,0c0-1.22-.75-1.89-2.46-1.89h-2.9v3.84h2.9C885.52,214.23,886.27,213.44,886.27,212.28Z"/><path class="cls-2" d="M897,210.37h-3.6v9.75h-1.34v-9.75h-3.62v-1.12H897Z"/><path class="cls-2" d="M514.15,392.71a5.62,5.62,0,1,1-5.63-5.64A5.62,5.62,0,0,1,514.15,392.71Zm-10.08,0a4.47,4.47,0,0,0,8.93,0,4.47,4.47,0,1,0-8.93,0Z"/><path class="cls-2" d="M531.26,387.25v10.87H529.9v-9.68l-3.69,9.68h-.88l-3.73-9.7v9.7h-1.36V387.25h2.21l3.32,8.72,3.31-8.72Z"/><path class="cls-2" d="M535.54,388.4V392H541v1.13h-5.49V397h6.16v1.15h-7.5V387.25h7.5v1.15Z"/><path class="cls-2" d="M552.78,392.69a5.06,5.06,0,0,1-5.29,5.43H544V387.25h3.49A5.06,5.06,0,0,1,552.78,392.69Zm-1.36,0c0-2.72-1.53-4.3-4.13-4.3h-1.94V397h1.94C549.86,397,551.42,395.4,551.42,392.69Z"/><path class="cls-2" d="M556.55,398.12H555.2V387.25h1.35Z"/><path class="cls-2" d="M568.34,393.89c0,2.95-1.74,4.42-4.48,4.42s-4.5-1.49-4.5-4.42v-6.64h1.35v6.64a2.93,2.93,0,0,0,3.17,3.24A2.9,2.9,0,0,0,567,394v-6.71h1.34Z"/><path class="cls-2" d="M582.17,387.25v10.87h-1.36v-9.68l-3.68,9.68h-.88l-3.73-9.7v9.7h-1.36V387.25h2.2l3.32,8.72,3.31-8.72Z"/><path class="cls-2" d="M601.38,394.55H587.86V393.4h13.52Z"/><path class="cls-2" d="M609.84,387.25v10.87h-1.37v-8.56a3.43,3.43,0,0,1-2.48.68v-1.12c1.85-.06,2.41-.75,2.68-1.87Z"/><path class="cls-2" d="M613.39,397h6v1.12H612v-.46a4.12,4.12,0,0,1,2.39-3.81l2.16-1.27a2.46,2.46,0,0,0,1.49-2.26,2,2,0,0,0-2.16-2.12,2.34,2.34,0,0,0-2.45,2.52h-1.31a3.51,3.51,0,0,1,3.76-3.66,3.2,3.2,0,0,1,3.52,3.26c0,1.19-.37,2.18-2.11,3.22L614.83,395A2.72,2.72,0,0,0,613.39,397Z"/><path class="cls-2" d="M628.72,394.65a3.53,3.53,0,0,1-3.77,3.66c-2.26,0-3.84-1.34-3.84-3.33h1.36a2.25,2.25,0,0,0,2.49,2.19,2.37,2.37,0,0,0,2.42-2.56,2.28,2.28,0,0,0-2.43-2.48,2.16,2.16,0,0,0-2,1.08h-1.57l.42-6h6.4v1.12h-5.3l-.24,3.67a3.18,3.18,0,0,1,2.55-1.09A3.44,3.44,0,0,1,628.72,394.65Z"/><path class="cls-2" d="M642.87,390.28c0,1.79-1.23,3.09-3.71,3.09h-3v4.75h-1.36V387.25h4.48C641.75,387.25,642.87,388.4,642.87,390.28Zm-1.36,0c0-1.22-.75-1.89-2.47-1.89h-2.89v3.84H639C640.76,392.23,641.51,391.44,641.51,390.28Z"/><path class="cls-2" d="M652.26,388.37h-3.6v9.75h-1.34v-9.75H643.7v-1.12h8.56Z"/><path class="cls-2" d="M948.15,537.71a5.62,5.62,0,1,1-5.63-5.64A5.62,5.62,0,0,1,948.15,537.71Zm-10.08,0a4.47,4.47,0,0,0,8.93,0,4.47,4.47,0,1,0-8.93,0Z"/><path class="cls-2" d="M961.69,533.37h-3.6v9.75h-1.35v-9.75h-3.62v-1.12h8.57Z"/><path class="cls-2" d="M972.42,532.25v10.87h-1.34V538h-6.23v5.09h-1.34V532.25h1.34v4.64h6.23v-4.64Z"/><path class="cls-2" d="M976.71,543.12h-1.35V532.25h1.35Z"/><path class="cls-2" d="M988.57,532.25v10.87h-2.05l-5.59-9.78v9.78h-1.28V532.25h2.05l5.6,9.78v-9.78Z"/><path class="cls-2" d="M1007.78,539.55H994.26V538.4h13.52Z"/><path class="cls-2" d="M1016.24,532.25v10.87h-1.37v-8.56a3.43,3.43,0,0,1-2.48.68v-1.12c1.85-.06,2.41-.75,2.69-1.87Z"/><path class="cls-2" d="M1025.08,532.25v1.11l-4.49,9.76h-1.4l4.57-9.75H1018v-1.12Z"/><path class="cls-2" d="M1034,540.13c0,1.84-1.64,3.18-3.91,3.18s-3.92-1.34-3.92-3.18a2.74,2.74,0,0,1,2.1-2.69,2.54,2.54,0,0,1-1.77-2.42c0-1.7,1.49-3,3.59-3s3.57,1.26,3.57,3a2.55,2.55,0,0,1-1.76,2.42A2.75,2.75,0,0,1,1034,540.13Zm-1.49,0a2.46,2.46,0,0,0-4.85,0c0,1.25,1,2.06,2.43,2.06A2.13,2.13,0,0,0,1032.52,540.08Zm-4.6-5a2.19,2.19,0,1,0,2.18-1.91A2,2,0,0,0,1027.92,535.07Z"/><path class="cls-2" d="M1048.26,535.28c0,1.79-1.23,3.09-3.71,3.09h-3v4.75h-1.36V532.25h4.48C1047.14,532.25,1048.26,533.4,1048.26,535.28Zm-1.36,0c0-1.22-.75-1.89-2.46-1.89h-2.9v3.84h2.9C1046.15,537.23,1046.9,536.44,1046.9,535.28Z"/><path class="cls-2" d="M1057.65,533.37h-3.6v9.75h-1.34v-9.75h-3.62v-1.12h8.56Z"/></g></svg>