<?xml version="1.0" encoding="UTF-8"?><svg id="Layer_1" xmlns="http://www.w3.org/2000/svg" xmlns:xlink="http://www.w3.org/1999/xlink" viewBox="0 0 1366 768"><defs><style>.cls-1,.cls-2{fill:none;}.cls-3{clip-path:url(#clippath);}.cls-4{fill:#fff;}.cls-2{stroke:#9b9a99;stroke-miterlimit:10;}</style><clipPath id="clippath"><rect class="cls-1" x="-60.69" y="17" width="1308.88" height="654.44"/></clipPath></defs><rect width="1366" height="768"/><g class="cls-3"><rect class="cls-2" x="-71.14" y="7.46" width="1327.06" height="672.62"/></g><g><path class="cls-4" d="M212.36,89.03c0,11.27-6.4,19.63-16.29,19.63-7.85,0-13.09-5.09-15.05-12.21v11.34h-1.24V55.44h1.31v25.96c2.04-7.05,7.34-12.07,15.12-12.07,9.89,0,16.14,8.43,16.14,19.7Zm-1.31,0c0-10.54-5.82-18.4-14.83-18.4-9.52,0-15.12,8.22-15.12,17.52v1.6c0,9.23,5.53,17.59,14.98,17.59s14.98-7.85,14.98-18.32Z"/><path class="cls-4" d="M248.42,82.34v25.45h-1.24v-9.6c-2.18,6.69-7.92,10.47-14.9,10.47-8,0-12.65-4.94-12.65-10.83s3.78-9.96,11.63-10.83l15.85-1.82v-2.76c0-7.27-4.14-11.78-11.34-11.78s-12.29,3.34-13.38,11.12h-1.38c1.02-8.14,6.4-12.43,14.69-12.43s12.72,5.02,12.72,13.01Zm-1.31,9.6v-5.45l-15.78,1.82c-7.13,.8-10.4,4.58-10.4,9.6s4.29,9.45,11.34,9.45c8.8,0,14.83-6.62,14.83-15.41Z"/><path class="cls-4" d="M290.74,55.44v52.35h-1.24v-11.56c-1.89,7.27-7.13,12.43-15.05,12.43-9.96,0-16.29-8.36-16.29-19.63s6.18-19.7,16.14-19.7c7.85,0,13.16,5.16,15.12,12.29v-26.17h1.31Zm-1.31,34.32v-1.6c0-9.31-5.6-17.52-15.12-17.52-9.02,0-14.83,7.85-14.83,18.4s5.89,18.32,14.98,18.32,14.98-8.36,14.98-17.59Z"/><path class="cls-4" d="M377.05,84.09v23.7h-1.31v-23.63c0-8.73-4.14-13.52-11.71-13.52-8.51,0-13.52,5.74-13.52,16.14v21.01h-1.31v-23.63c0-8.51-4-13.52-12-13.52s-13.31,5.74-13.31,16.14v21.01h-1.31v-37.59h1.24v9.45c1.96-6.18,6.54-10.33,13.45-10.33s11.78,3.85,12.94,10.98c1.67-6.69,6.18-10.98,13.81-10.98,8.14,0,13.01,5.16,13.01,14.76Z"/><path class="cls-4" d="M418.79,89.54h-30.68c.15,9.96,5.6,17.81,15.63,17.81,6.83,0,11.71-4.43,13.01-10.54h1.45c-1.67,6.47-6.25,11.85-14.54,11.85-10.91,0-16.87-8.65-16.87-19.56s6.18-19.78,16.14-19.78,15.85,7.78,15.85,18.83v1.38Zm-1.31-1.31c0-10.83-5.45-17.6-14.54-17.6s-14.54,7.34-14.83,17.6h29.37Z"/><path class="cls-4" d="M483.14,84.09v23.7h-1.31v-23.63c0-8.73-4.14-13.52-11.71-13.52-8.51,0-13.52,5.74-13.52,16.14v21.01h-1.31v-23.63c0-8.51-4-13.52-12-13.52s-13.31,5.74-13.31,16.14v21.01h-1.31v-37.59h1.24v9.45c1.96-6.18,6.54-10.33,13.45-10.33s11.78,3.85,12.94,10.98c1.67-6.69,6.18-10.98,13.81-10.98,8.14,0,13.01,5.16,13.01,14.76Z"/><path class="cls-4" d="M492.89,89.03c0-11.2,6.04-19.7,16.36-19.7s16.29,8.51,16.29,19.7-6.03,19.63-16.21,19.63-16.43-8.43-16.43-19.63Zm31.34,0c0-10.47-5.45-18.4-14.98-18.4s-15.05,7.93-15.05,18.4,5.6,18.32,15.12,18.32,14.91-7.85,14.91-18.32Z"/><path class="cls-4" d="M549.46,69.84v1.31c-.58-.07-.95-.07-1.38-.07-6.03,0-10.98,5.45-10.98,14.91v21.81h-1.31v-37.59h1.16v9.23c1.16-5.16,5.45-9.67,11.42-9.67,.36,0,.58,0,1.09,.07Z"/><path class="cls-4" d="M585.89,70.2l-25.52,51.26h-1.45l8.65-17.09-14.98-34.17h1.38l14.4,32.79,16.14-32.79h1.38Z"/></g><g><path class="cls-4" d="M724.33,166.45v23.56h-2.18v-23.34c0-8.51-4.07-13.09-11.2-13.09-7.85,0-12.8,5.31-12.8,15.05v21.38h-2.18v-23.34c0-8.29-4-13.09-11.49-13.09s-12.65,5.31-12.65,15.05v21.38h-2.11v-37.59h2.04v8.36c2.04-5.6,6.54-9.23,13.01-9.23s11.27,3.42,12.8,9.82c1.89-6.03,6.4-9.82,13.52-9.82,8.22,0,13.23,5.24,13.23,14.91Z"/><path class="cls-4" d="M762.73,164.56v25.45h-2.04v-8.36c-2.54,5.96-7.85,9.23-14.4,9.23-7.92,0-12.8-4.87-12.8-10.91s3.93-10.03,11.85-10.91l15.27-1.75v-2.76c0-6.91-4.07-11.05-10.91-11.05s-11.63,3.13-12.65,10.47h-2.25c1.02-8.14,6.54-12.43,14.83-12.43s13.09,4.8,13.09,13.01Zm-2.18,9.82v-5.16l-14.98,1.75c-6.76,.73-9.82,4.29-9.82,9.02s4.07,8.94,10.69,8.94c8.43,0,14.11-6.18,14.11-14.54Z"/><path class="cls-4" d="M802.58,152.42v37.59h-2.04v-8.58c-1.96,5.89-6.47,9.45-13.09,9.45-9.38,0-13.16-5.82-13.16-13.96v-24.5h2.18v24.43c0,6.98,3.2,12,11.34,12s12.65-6.11,12.65-14.83v-21.59h2.11Z"/><path class="cls-4" d="M843.08,152.42l-15.12,37.59h-2.04l-15.49-37.59h2.25l14.25,34.54,13.89-34.54h2.25Z"/><path class="cls-4" d="M877.54,164.56v25.45h-2.04v-8.36c-2.54,5.96-7.85,9.23-14.4,9.23-7.92,0-12.8-4.87-12.8-10.91s3.93-10.03,11.85-10.91l15.27-1.75v-2.76c0-6.91-4.07-11.05-10.91-11.05s-11.63,3.13-12.65,10.47h-2.25c1.02-8.14,6.54-12.43,14.83-12.43s13.09,4.8,13.09,13.01Zm-2.18,9.82v-5.16l-14.98,1.75c-6.76,.73-9.82,4.29-9.82,9.02s4.07,8.94,10.69,8.94c8.43,0,14.11-6.18,14.11-14.54Z"/><path class="cls-4" d="M888.53,141.8c0-1.38,1.09-2.4,2.47-2.4,1.31,0,2.33,1.02,2.33,2.4,0,1.31-1.02,2.47-2.33,2.47-1.38,0-2.47-1.16-2.47-2.47Zm1.31,10.62h2.11v37.59h-2.11v-37.59Z"/><path class="cls-4" d="M901.83,179.03h2.18c1.09,6.62,5.67,9.89,13.01,9.89s11.85-2.91,11.85-8.14c0-4.58-2.84-6.76-9.09-8.07l-8.07-1.67c-6.4-1.38-9.31-3.93-9.31-9.16,0-5.89,4.8-10.33,13.31-10.33s13.67,4,14.54,12.43h-2.25c-.8-7.13-5.02-10.47-12.29-10.47s-11.2,3.49-11.2,8.29c0,4,2.04,6.04,7.85,7.27l8.22,1.67c7.27,1.45,10.4,4.36,10.4,9.89,0,6.4-5.16,10.25-13.96,10.25s-14.03-4.07-15.2-11.85Z"/><path class="cls-4" d="M970.47,172.05h-30.25c.22,9.67,5.6,16.8,14.91,16.8,6.62,0,11.2-4.14,12.51-9.82h2.33c-1.67,6.47-6.33,11.85-14.76,11.85-11.05,0-17.09-8.43-17.09-19.49,0-11.63,6.4-19.85,16.36-19.85s16.07,7.71,16.07,19.05l-.07,1.45Zm-2.18-1.96c-.07-10.4-5.31-16.5-13.81-16.5s-13.82,6.62-14.25,16.5h28.07Z"/><path class="cls-4" d="M1053.66,166.45v23.56h-2.18v-23.34c0-8.51-4.07-13.09-11.2-13.09-7.85,0-12.8,5.31-12.8,15.05v21.38h-2.18v-23.34c0-8.29-4-13.09-11.49-13.09s-12.65,5.31-12.65,15.05v21.38h-2.11v-37.59h2.04v8.36c2.04-5.6,6.54-9.23,13.01-9.23s11.27,3.42,12.8,9.82c1.89-6.03,6.4-9.82,13.52-9.82,8.22,0,13.23,5.24,13.23,14.91Z"/><path class="cls-4" d="M1095.54,172.05h-30.25c.22,9.67,5.6,16.8,14.91,16.8,6.62,0,11.2-4.14,12.51-9.82h2.33c-1.67,6.47-6.33,11.85-14.76,11.85-11.05,0-17.09-8.43-17.09-19.49,0-11.63,6.4-19.85,16.36-19.85s16.07,7.71,16.07,19.05l-.07,1.45Zm-2.18-1.96c-.07-10.4-5.31-16.5-13.81-16.5s-13.82,6.62-14.25,16.5h28.07Zm-12.58-23.78h-2.33l7.49-11.34h2.54l-7.71,11.34Z"/><path class="cls-4" d="M1159.89,166.45v23.56h-2.18v-23.34c0-8.51-4.07-13.09-11.2-13.09-7.85,0-12.8,5.31-12.8,15.05v21.38h-2.18v-23.34c0-8.29-4-13.09-11.49-13.09s-12.65,5.31-12.65,15.05v21.38h-2.11v-37.59h2.04v8.36c2.04-5.6,6.54-9.23,13.01-9.23s11.27,3.42,12.8,9.82c1.89-6.03,6.4-9.82,13.52-9.82,8.22,0,13.23,5.24,13.23,14.91Z"/><path class="cls-4" d="M1169.42,171.25c0-11.27,6.18-19.7,16.58-19.7s16.5,8.36,16.5,19.7-6.18,19.63-16.43,19.63-16.65-8.36-16.65-19.63Zm30.97,0c0-10.11-5.31-17.67-14.4-17.67s-14.47,7.56-14.47,17.67,5.38,17.6,14.54,17.6,14.32-7.49,14.32-17.6Z"/><path class="cls-4" d="M1211.45,141.8c0-1.38,1.09-2.4,2.47-2.4,1.31,0,2.33,1.02,2.33,2.4,0,1.31-1.02,2.47-2.33,2.47-1.38,0-2.47-1.16-2.47-2.47Zm1.31,10.62h2.11v37.59h-2.11v-37.59Z"/><path class="cls-4" d="M1241.92,152.13v2.04c-.58-.07-1.02-.07-1.53-.07-6.04,0-10.69,5.24-10.69,14.03v21.88h-2.11v-37.59h1.96v8.43c1.31-4.87,5.31-8.87,11.05-8.87,.44,0,.73,0,1.31,.15Z"/><path class="cls-4" d="M1279.29,172.05h-30.25c.22,9.67,5.6,16.8,14.91,16.8,6.62,0,11.2-4.14,12.51-9.82h2.33c-1.67,6.47-6.33,11.85-14.76,11.85-11.05,0-17.09-8.43-17.09-19.49,0-11.63,6.4-19.85,16.36-19.85s16.07,7.71,16.07,19.05l-.07,1.45Zm-2.18-1.96c-.07-10.4-5.31-16.5-13.81-16.5s-13.82,6.62-14.25,16.5h28.07Z"/></g><path class="cls-4" d="M629.92,166.53l-21.89,24.21h-2.62l21.08-23.19h-41.23v-2.04h41.23l-21.08-23.19h2.62l21.89,24.21Z"/><path class="cls-4" d="M663.6,86.02v2.62l-24.21,21.89-24.21-21.89v-2.62l23.19,21.08V59.55h2.04v47.55l23.19-21.08Z"/><path class="cls-4" d="M138.56,107.79h-49.37V58.42h49.37v49.37Z"/><path class="cls-4" d="M363.79,618.79h-57.88l29.08-50.17,28.79,50.17Zm-54.31-2.11h50.75l-25.23-44.13-25.52,44.13Z"/><path class="cls-4" d="M437.94,594.22c0,14.11-11.49,25.45-25.59,25.45s-25.45-11.34-25.45-25.45,11.34-25.59,25.45-25.59,25.59,11.49,25.59,25.59Zm-1.89,0c0-13.16-10.54-23.7-23.7-23.7s-23.56,10.54-23.56,23.7,10.47,23.56,23.56,23.56,23.7-10.47,23.7-23.56Zm-9.23,.22h1.53c-.65,9.31-6.54,15.78-16,15.78s-15.34-6.47-16-15.78h1.53c.87,8.58,6.18,13.89,14.47,13.89s13.6-5.31,14.47-13.89Zm-22.9-8.58c0-3.49,.95-5.16,2.25-5.16,1.24,0,1.96,1.67,1.96,5.16,0,3.27-.73,5.02-1.96,5.02-1.31,0-2.25-1.75-2.25-5.02Zm12.65,0c0-3.49,.73-5.16,1.96-5.16,1.38,0,2.25,1.67,2.25,5.16,0,3.27-.87,5.02-2.25,5.02-1.24,0-1.96-1.75-1.96-5.02Z"/><path class="cls-4" d="M834.56,619.79h-49.37v-49.37h49.37v49.37Z"/><path class="cls-4" d="M910.94,595.22c0,14.11-11.49,25.45-25.59,25.45s-25.45-11.34-25.45-25.45,11.34-25.59,25.45-25.59,25.59,11.49,25.59,25.59Z"/><path class="cls-4" d="M1056.79,618.79h-57.88l29.08-50.17,28.79,50.17Zm-54.31-2.11h50.75l-25.23-44.13-25.52,44.13Z"/><path class="cls-4" d="M613.79,618.79h-57.88l29.08-50.17,28.79,50.17Zm-54.31-2.11h50.75l-25.23-44.13-25.52,44.13Z"/><path class="cls-4" d="M694.79,618.79h-57.88l29.08-50.17,28.79,50.17Zm-54.31-2.11h50.75l-25.23-44.13-25.52,44.13Z"/><path class="cls-4" d="M1276.79,618.79h-57.88l29.08-50.17,28.79,50.17Zm-54.31-2.11h50.75l-25.23-44.13-25.52,44.13Z"/><path class="cls-4" d="M795.63,535.64l31.26,.15-1.82,1.89-32.57-.29-.29-32.57,1.89-1.82,.15,31.26,35.26-35.41,1.45,1.45-35.34,35.34Z"/><path class="cls-4" d="M328.58,534.64l31.26,.15-1.82,1.89-32.57-.29-.29-32.57,1.89-1.82,.15,31.26,35.26-35.41,1.45,1.45-35.34,35.34Z"/><path class="cls-4" d="M265.16,534.64l31.26,.15-1.82,1.89-32.57-.29-.29-32.57,1.89-1.82,.15,31.26,35.26-35.41,1.45,1.45-35.34,35.34Z"/><path class="cls-4" d="M132.54,534.64l31.26,.15-1.82,1.89-32.57-.29-.29-32.57,1.89-1.82,.15,31.26,35.26-35.41,1.45,1.45-35.34,35.34Z"/><path class="cls-4" d="M197.89,534.64l31.26,.15-1.82,1.89-32.57-.29-.29-32.57,1.89-1.82,.15,31.26,35.26-35.41,1.45,1.45-35.34,35.34Z"/><path class="cls-4" d="M580.51,274.04l-.07-31.26-34.97,35.05-1.38-1.45,34.97-34.97-31.34-.15,1.89-1.89,32.5,.29,.29,32.57-1.89,1.82Z"/><path class="cls-4" d="M807.43,449.3l-34.9-35.05-.15,31.26-1.89-1.82,.29-32.57,32.57-.29,1.82,1.89-31.26,.15,34.97,34.97-1.45,1.45Z"/><path class="cls-4" d="M716.13,336.71l-23.19-21.09v47.55h-2.04v-47.55l-23.19,21.09v-2.62l24.21-21.88,24.21,21.88v2.62Z"/><path class="cls-4" d="M1193.74,336.71l-23.19-21.09v47.55h-2.04v-47.55l-23.19,21.09v-2.62l24.21-21.88,24.21,21.88v2.62Z"/><path class="cls-4" d="M1261.98,336.71l-23.19-21.09v47.55h-2.04v-47.55l-23.19,21.09v-2.62l24.21-21.88,24.21,21.88v2.62Z"/><g><path class="cls-4" d="M625.02,266.3h5.74c.95,4.8,4.22,7.12,10.18,7.12s9.09-2.25,9.09-5.82c0-3.13-1.6-5.09-6.54-5.96l-8-1.45c-6.62-1.24-9.89-4.51-9.89-10.18,0-6.04,5.09-11.2,14.03-11.2s14.47,4.58,15.41,12.43h-5.89c-.73-5.24-3.93-7.71-9.67-7.71-5.38,0-8.29,2.69-8.29,6.03,0,2.84,1.45,4.65,6.11,5.45l7.85,1.38c7.56,1.31,10.54,5.16,10.54,10.54,0,6.33-4.51,11.2-14.91,11.2s-14.83-4.94-15.78-11.85Z"/><path class="cls-4" d="M661.96,258.38c0-12.14,7.34-19.56,17.6-19.56s15.2,5.45,16.21,13.74h-6.04c-1.02-5.53-4.36-8.58-10.18-8.58-7.27,0-11.78,5.6-11.78,14.4s4.51,14.61,11.78,14.61c5.74,0,9.16-3.05,10.18-8.51h6.04c-1.09,8.22-6.4,13.67-16.21,13.67s-17.6-7.49-17.6-19.78Z"/><path class="cls-4" d="M735.18,254.38v22.9h-5.74v-22.25c0-7.27-3.78-10.98-9.23-10.98s-9.74,4-9.74,11.92v21.3h-5.82v-52.35h5.82v19.99c2.4-3.93,6.25-6.11,11.2-6.11,8.07,0,13.52,5.6,13.52,15.56Z"/><path class="cls-4" d="M751.91,277.28h-5.82v-52.35h5.82v52.35Z"/><path class="cls-4" d="M795.17,260.63h-28.36c.58,8.22,5.53,12.36,11.78,12.36,5.6,0,8.87-2.76,10.03-6.69h6.04c-1.45,6.47-6.54,11.85-15.63,11.85-11.42,0-18.1-7.63-18.1-19.27,0-12.58,7.63-20.07,17.45-20.07,11.2,0,16.87,7.56,16.87,20,0,1.24-.07,1.82-.07,1.82Zm-5.96-4.94c-.51-8.29-4.8-11.85-10.83-11.85s-10.47,3.93-11.42,11.85h22.25Z"/><path class="cls-4" d="M801.72,258.38c0-12.14,7.34-19.56,17.6-19.56s15.2,5.45,16.21,13.74h-6.04c-1.02-5.53-4.36-8.58-10.18-8.58-7.27,0-11.78,5.6-11.78,14.4s4.51,14.61,11.78,14.61c5.74,0,9.16-3.05,10.18-8.51h6.04c-1.09,8.22-6.4,13.67-16.21,13.67s-17.6-7.49-17.6-19.78Z"/><path class="cls-4" d="M874.94,254.38v22.9h-5.74v-22.25c0-7.27-3.78-10.98-9.23-10.98s-9.74,4-9.74,11.92v21.3h-5.82v-52.35h5.82v19.99c2.4-3.93,6.25-6.11,11.2-6.11,8.07,0,13.52,5.6,13.52,15.56Z"/><path class="cls-4" d="M893.77,244.78v21.81c0,4.14,2.04,5.89,5.09,5.89,1.38,0,2.25-.07,3.13-.29v5.02c-1.24,.36-2.54,.51-4.07,.51-6.25,0-9.96-3.71-9.96-10.54v-22.39h-6.33v-5.09h6.33v-10.62h5.82v10.62h8.22v5.09h-8.22Z"/><path class="cls-4" d="M941.91,260.63h-28.36c.58,8.22,5.53,12.36,11.78,12.36,5.6,0,8.87-2.76,10.03-6.69h6.04c-1.45,6.47-6.54,11.85-15.63,11.85-11.42,0-18.1-7.63-18.1-19.27,0-12.58,7.63-20.07,17.45-20.07,11.2,0,16.87,7.56,16.87,20,0,1.24-.07,1.82-.07,1.82Zm-5.96-4.94c-.51-8.29-4.8-11.85-10.83-11.85s-10.47,3.93-11.42,11.85h22.25Z"/><path class="cls-4" d="M975.72,233.15v16.29h24.94v5.16h-24.94v17.45h27.99v5.24h-34.1v-49.37h34.1v5.24h-27.99Z"/><path class="cls-4" d="M1030.11,239.55v5.38c-.58-.07-1.16-.07-1.96-.07-6.25,0-9.31,4.22-9.31,10.32v22.1h-5.82v-37.59h5.6v5.74c1.45-3.78,4.58-6.18,9.45-6.18,.65,0,1.24,.07,2.04,.29Z"/><path class="cls-4" d="M1036.08,228.93c0-2.33,1.89-4.14,4.22-4.14s4.14,1.82,4.14,4.14-1.89,4.14-4.14,4.14-4.22-1.89-4.22-4.14Zm1.31,10.76h5.74v37.59h-5.74v-37.59Z"/><path class="cls-4" d="M1084.94,254.31v22.98h-5.82v-21.96c0-7.49-3.34-11.34-9.09-11.34s-9.82,3.93-9.82,11.63v21.67h-5.82v-37.59h5.6v5.16c2.25-3.93,5.89-6.04,11.2-6.04,8.22,0,13.74,5.45,13.74,15.49Z"/><path class="cls-4" d="M1126.17,254.31v22.98h-5.82v-21.96c0-7.49-3.34-11.34-9.09-11.34s-9.82,3.93-9.82,11.63v21.67h-5.82v-37.59h5.6v5.16c2.25-3.93,5.89-6.04,11.2-6.04,8.22,0,13.74,5.45,13.74,15.49Z"/><path class="cls-4" d="M1168.85,260.63h-28.36c.58,8.22,5.53,12.36,11.78,12.36,5.6,0,8.87-2.76,10.03-6.69h6.04c-1.45,6.47-6.54,11.85-15.63,11.85-11.42,0-18.1-7.63-18.1-19.27,0-12.58,7.63-20.07,17.45-20.07,11.2,0,16.87,7.56,16.87,20,0,1.24-.07,1.82-.07,1.82Zm-5.96-4.94c-.51-8.29-4.8-11.85-10.83-11.85s-10.47,3.93-11.42,11.85h22.25Z"/><path class="cls-4" d="M1194.74,239.55v5.38c-.58-.07-1.16-.07-1.96-.07-6.25,0-9.31,4.22-9.31,10.32v22.1h-5.82v-37.59h5.6v5.74c1.45-3.78,4.58-6.18,9.45-6.18,.65,0,1.24,.07,2.04,.29Z"/><path class="cls-4" d="M1231.31,239.69v37.59h-5.45v-5.09c-2.25,3.78-6.11,5.96-11.71,5.96-7.92,0-12.72-4.8-12.72-13.81v-24.65h5.82v24.21c0,5.96,2.98,9.16,8.22,9.16,6.4,0,10.03-4.44,10.03-11.42v-21.96h5.82Z"/><path class="cls-4" d="M1272.9,254.31v22.98h-5.82v-21.96c0-7.49-3.34-11.34-9.09-11.34s-9.82,3.93-9.82,11.63v21.67h-5.82v-37.59h5.6v5.16c2.25-3.93,5.89-6.04,11.2-6.04,8.22,0,13.74,5.45,13.74,15.49Z"/><path class="cls-4" d="M1316.31,239.69v35.92c0,9.16-5.09,16.21-17.23,16.21s-16.87-5.89-17.3-13.31h5.96c.44,5.23,4.22,8.29,11.34,8.29s11.49-3.71,11.49-10.69v-7.63c-2.69,4.44-7.2,7.05-12.72,7.05-9.23,0-16.5-7.05-16.5-18.25s7.13-18.47,16.29-18.47c6.03,0,10.47,2.62,13.09,7.13v-6.25h5.6Zm-5.74,17.59c0-8.22-5.02-13.31-11.78-13.31-7.2,0-11.85,5.09-11.85,13.31s5.09,13.09,11.85,13.09,11.78-5.31,11.78-13.09Z"/></g><g><path class="cls-4" d="M145.02,166.67v23.34h-3.2v-23.05c0-8.14-4.07-12.43-10.69-12.43-7.05,0-11.92,4.8-11.92,13.6v21.88h-3.2v-23.05c0-8-4-12.43-10.83-12.43s-11.78,4.8-11.78,13.6v21.88h-3.2v-37.59h3.05v7.27c2.18-5.02,6.47-8.14,12.51-8.14s10.69,3.05,12.58,8.73c2.11-5.38,6.62-8.73,13.23-8.73,8.22,0,13.45,5.38,13.45,15.12Z"/><path class="cls-4" d="M183.71,164.56v25.45h-2.98v-7.34c-2.84,5.38-7.71,8.22-13.89,8.22-7.71,0-12.8-4.8-12.8-10.98s4-10.18,12-11.05l14.54-1.6v-2.76c0-6.54-3.93-10.11-10.33-10.11s-10.83,2.84-11.78,9.6h-3.27c1.02-8.22,6.62-12.43,14.98-12.43s13.52,4.58,13.52,13.01Zm-3.2,10.03v-4.8l-13.96,1.67c-6.47,.73-9.16,4-9.16,8.43s3.78,8.14,9.96,8.14c7.93,0,13.16-5.6,13.16-13.45Z"/><path class="cls-4" d="M198.83,190.01h-3.2v-52.35h3.2v52.35Z"/><path class="cls-4" d="M238.17,164.56v25.45h-2.98v-7.34c-2.84,5.38-7.71,8.22-13.89,8.22-7.71,0-12.8-4.8-12.8-10.98s4-10.18,12-11.05l14.54-1.6v-2.76c0-6.54-3.93-10.11-10.33-10.11s-10.83,2.84-11.78,9.6h-3.27c1.02-8.22,6.62-12.43,14.98-12.43s13.52,4.58,13.52,13.01Zm-3.2,10.03v-4.8l-13.96,1.67c-6.47,.73-9.16,4-9.16,8.43s3.78,8.14,9.96,8.14c7.93,0,13.16-5.6,13.16-13.45Z"/><path class="cls-4" d="M323.17,166.67v23.34h-3.2v-23.05c0-8.14-4.07-12.43-10.69-12.43-7.05,0-11.92,4.8-11.92,13.6v21.88h-3.2v-23.05c0-8-4-12.43-10.83-12.43s-11.78,4.8-11.78,13.6v21.88h-3.2v-37.59h3.05v7.27c2.18-5.02,6.47-8.14,12.51-8.14s10.69,3.05,12.58,8.73c2.11-5.38,6.62-8.73,13.23-8.73,8.22,0,13.45,5.38,13.45,15.12Z"/><path class="cls-4" d="M365.35,172.41h-29.74c.36,9.31,5.6,15.56,14.03,15.56,6.33,0,10.47-3.78,11.78-8.94h3.34c-1.6,6.47-6.4,11.85-14.98,11.85-11.12,0-17.38-8.22-17.38-19.41,0-11.92,6.76-19.92,16.65-19.92,10.69,0,16.29,7.71,16.29,19.34v1.53Zm-3.27-2.83c-.22-9.74-5.16-15.12-13.02-15.12s-12.8,5.74-13.38,15.12h26.39Z"/><path class="cls-4" d="M429.55,166.67v23.34h-3.2v-23.05c0-8.14-4.07-12.43-10.69-12.43-7.05,0-11.92,4.8-11.92,13.6v21.88h-3.2v-23.05c0-8-4-12.43-10.83-12.43s-11.78,4.8-11.78,13.6v21.88h-3.2v-37.59h3.05v7.27c2.18-5.02,6.47-8.14,12.51-8.14s10.69,3.05,12.58,8.73c2.11-5.38,6.62-8.73,13.23-8.73,8.22,0,13.45,5.38,13.45,15.12Z"/><path class="cls-4" d="M438.79,171.25c0-11.42,6.33-19.7,16.87-19.7s16.87,8.29,16.87,19.7-6.4,19.63-16.8,19.63-16.94-8.22-16.94-19.63Zm30.54,0c0-9.6-5.02-16.8-13.67-16.8s-13.67,7.2-13.67,16.8,5.09,16.72,13.74,16.72,13.6-7.12,13.6-16.72Z"/><path class="cls-4" d="M497.25,152.13v3.05c-.58-.07-1.02-.07-1.67-.07-6.11,0-10.25,4.94-10.25,12.94v21.96h-3.2v-37.59h3.05v7.49c1.45-4.51,5.16-7.92,10.54-7.92,.51,0,.87,0,1.53,.15Z"/><path class="cls-4" d="M503.51,141.8c0-1.67,1.24-2.98,2.91-2.98s2.91,1.31,2.91,2.98c0,1.53-1.31,2.91-2.91,2.91s-2.91-1.38-2.91-2.91Zm1.31,10.62h3.2v37.59h-3.2v-37.59Z"/><path class="cls-4" d="M547.35,164.56v25.45h-2.98v-7.34c-2.84,5.38-7.71,8.22-13.89,8.22-7.71,0-12.8-4.8-12.8-10.98s4-10.18,12-11.05l14.54-1.6v-2.76c0-6.54-3.93-10.11-10.33-10.11s-10.83,2.84-11.78,9.6h-3.27c1.02-8.22,6.62-12.43,14.98-12.43s13.52,4.58,13.52,13.01Zm-3.2,10.03v-4.8l-13.96,1.67c-6.47,.73-9.16,4-9.16,8.43s3.78,8.14,9.96,8.14c7.93,0,13.16-5.6,13.16-13.45Z"/></g><g><path class="cls-4" d="M220.9,351.85h7.09c.87,4.29,3.91,6.4,9.34,6.4s8.25-2.11,8.25-5.31c0-2.76-1.52-4.51-5.86-5.31l-7.96-1.45c-7.02-1.31-10.2-4.73-10.2-10.4,0-6.18,5.14-11.42,14.55-11.42s14.91,4.73,15.92,12.43h-7.17c-.72-4.65-3.69-6.98-8.9-6.98-4.92,0-7.53,2.47-7.53,5.45,0,2.54,1.3,4.14,5.65,4.94l7.82,1.38c7.82,1.31,10.78,5.16,10.78,10.69,0,6.33-4.7,11.42-15.42,11.42s-15.27-4.87-16.36-11.85Z"/><path class="cls-4" d="M267.65,362.82h-7.24v-52.35h7.24v52.35Z"/><path class="cls-4" d="M275.75,352.43c0-6.47,4.13-10.47,12.74-11.42l12.16-1.24v-2.4c0-4.8-2.82-7.34-8.18-7.34-4.99,0-7.96,2.18-8.61,6.76h-7.24c.87-7.63,6.44-12.43,15.71-12.43,6.15,0,10.64,1.75,13.17,5.67,3.33-3.71,7.74-5.67,12.74-5.67,10.86,0,17.44,7.05,17.44,20.07,0,.65,0,1.24-.07,1.96h-27.79c.72,7.63,4.78,11.34,11.07,11.34,4.56,0,7.74-2.33,8.83-5.89h7.31c-1.45,6.54-7.02,11.85-16.07,11.85-6.95,0-11.87-2.76-14.98-7.34-3.04,4.8-7.53,7.34-14.91,7.34-7.74,0-13.32-4.65-13.32-11.27Zm24.75-4.36v-3.49l-10.49,1.38c-4.92,.58-6.8,3.05-6.8,6.33s2.75,5.89,7.31,5.89c6.37,0,9.99-4.07,9.99-10.11Zm27.79-7.12c-.51-7.27-4.12-10.69-10.06-10.69-5.07,0-9.34,3.49-10.28,10.69h20.34Z"/><path class="cls-4" d="M399.51,339.7v23.12h-7.24v-22.03c0-6.69-3.55-10.03-8.32-10.03s-8.83,3.27-8.83,9.38v22.68h-7.17v-22.03c0-6.69-3.62-10.03-8.39-10.03s-8.76,3.2-8.76,9.38v22.68h-7.24v-37.59h6.73v5.02c2.39-3.78,6.3-5.89,11.29-5.89,5.28,0,9.48,2.47,11.72,6.83,2.53-4.36,6.88-6.83,12.38-6.83,8.25,0,13.82,5.6,13.82,15.34Z"/><path class="cls-4" d="M418.91,331.41v19.85c0,3.93,1.88,5.67,4.99,5.67,1.38,0,2.24-.07,3.11-.29v6.11c-1.52,.36-2.75,.51-4.56,.51-7.02,0-10.78-4.14-10.78-11.42v-20.43h-6.08v-6.18h6.08v-10.62h7.24v10.62h8.11v6.18h-8.11Z"/><path class="cls-4" d="M507.42,339.7v23.12h-7.24v-22.03c0-6.69-3.55-10.03-8.32-10.03s-8.83,3.27-8.83,9.38v22.68h-7.17v-22.03c0-6.69-3.62-10.03-8.39-10.03s-8.76,3.2-8.76,9.38v22.68h-7.24v-37.59h6.73v5.02c2.39-3.78,6.3-5.89,11.29-5.89,5.28,0,9.48,2.47,11.72,6.83,2.53-4.36,6.88-6.83,12.38-6.83,8.25,0,13.82,5.6,13.82,15.34Z"/><path class="cls-4" d="M516.04,314.33c0-2.62,2.1-4.65,4.85-4.65,2.61,0,4.7,2.04,4.7,4.65s-2.1,4.73-4.7,4.73c-2.75,0-4.85-2.11-4.85-4.73Zm1.23,10.91h7.09v37.59h-7.09v-37.59Z"/><path class="cls-4" d="M566.41,339.56v23.27h-7.24v-21.81c0-6.98-3.11-10.4-8.4-10.4s-8.97,3.56-8.97,10.62v21.59h-7.24v-37.59h6.73v5.16c2.32-4,6.08-6.04,11.36-6.04,8.11,0,13.75,5.16,13.75,15.2Z"/><path class="cls-4" d="M607.88,339.56v23.27h-7.24v-21.81c0-6.98-3.11-10.4-8.4-10.4s-8.97,3.56-8.97,10.62v21.59h-7.24v-37.59h6.73v5.16c2.32-4,6.08-6.04,11.36-6.04,8.11,0,13.75,5.16,13.75,15.2Z"/><path class="cls-4" d="M616.5,314.33c0-2.62,2.1-4.65,4.85-4.65,2.61,0,4.7,2.04,4.7,4.65s-2.1,4.73-4.7,4.73c-2.75,0-4.85-2.11-4.85-4.73Zm1.23,10.91h7.09v37.59h-7.09v-37.59Z"/></g><g><path class="cls-4" d="M784.35,362.67l-21.38-24.58v24.58h-9.02v-49.37h9.02v20.5l21.3-20.5h10.76l-23.05,22.39,23.12,26.97h-10.76Z"/><path class="cls-4" d="M798.1,343.98c0-12.07,7.93-19.78,18.69-19.78s18.69,7.71,18.69,19.7-7.85,19.63-18.61,19.63-18.76-7.63-18.76-19.56Zm6.47-30.46c0-2.84,2.33-5.09,5.16-5.09s5.09,2.25,5.09,5.09-2.25,5.09-5.09,5.09-5.16-2.25-5.16-5.09Zm22.1,30.39c0-7.56-3.63-12.58-9.89-12.58s-9.96,5.02-9.96,12.65,3.71,12.43,9.96,12.43,9.89-5.02,9.89-12.51Zm-7.85-30.39c0-2.84,2.25-5.09,5.09-5.09s5.09,2.25,5.09,5.09-2.33,5.09-5.09,5.09-5.09-2.25-5.09-5.09Z"/><path class="cls-4" d="M853.94,332.28v17.96c0,3.78,1.75,5.45,4.94,5.45,1.31,0,2.25-.07,3.05-.22v7.13c-1.67,.36-2.91,.51-5.02,.51-7.92,0-11.63-4.51-11.63-12.36v-18.47h-6.04v-7.2h6.04v-10.62h8.65v10.62h8v7.2h-8Z"/><path class="cls-4" d="M900.98,325.08v37.59h-7.85v-5.45c-2.47,4.07-6.47,6.33-11.63,6.33-8.29,0-13.16-4.87-13.16-13.81v-24.65h8.65v23.56c0,4.87,2.4,7.63,6.91,7.63,5.16,0,8.43-3.64,8.43-9.23v-21.96h8.65Zm-28.65-11.56c0-2.84,2.33-5.09,5.16-5.09s5.09,2.25,5.09,5.09-2.25,5.09-5.09,5.09-5.16-2.25-5.16-5.09Zm14.25,0c0-2.84,2.25-5.09,5.09-5.09s5.09,2.25,5.09,5.09-2.33,5.09-5.09,5.09-5.09-2.25-5.09-5.09Z"/><path class="cls-4" d="M964.03,343.91c0,12.36-7.85,19.63-16.87,19.63-5.6,0-9.82-2.62-12.36-7.05v6.18h-8v-52.35h8.65v19.85c2.54-3.78,6.54-5.96,12.07-5.96,9.02,0,16.5,7.27,16.5,19.7Zm-8.8,0c0-7.63-3.85-12.65-9.89-12.65s-9.89,5.09-9.89,12.65,4.14,12.58,9.89,12.58,9.89-4.94,9.89-12.58Z"/><path class="cls-4" d="M1005.18,344.35c0,1.24-.07,2.11-.07,2.11h-27.56c.73,7.2,4.65,10.32,10.03,10.32,4.51,0,7.13-2.04,8.14-5.09h8.73c-1.6,6.62-7.42,11.85-16.8,11.85-11.85,0-18.69-7.92-18.69-19.34,0-12.14,7.56-20,18.32-20,11.56,0,18.03,8,17.89,20.14Zm-8.87-3.78c-.36-6.4-3.78-9.67-8.94-9.67-4.87,0-8.65,3.2-9.6,9.67h18.54Z"/><path class="cls-4" d="M1021.04,362.67h-8.65v-52.35h8.65v52.35Z"/><path class="cls-4" d="M1039,362.67h-8.65v-52.35h8.65v52.35Z"/><path class="cls-4" d="M1082.33,344.35c0,1.24-.07,2.11-.07,2.11h-27.56c.73,7.2,4.65,10.32,10.03,10.32,4.51,0,7.13-2.04,8.14-5.09h8.73c-1.6,6.62-7.42,11.85-16.8,11.85-11.85,0-18.69-7.92-18.69-19.34,0-12.14,7.56-20,18.32-20,11.56,0,18.03,8,17.89,20.14Zm-8.87-3.78c-.36-6.4-3.78-9.67-8.94-9.67-4.87,0-8.65,3.2-9.6,9.67h18.54Z"/><path class="cls-4" d="M1113.82,362.67l-15.78-18.61v18.61h-8.65v-52.35h8.65v29.37l15.27-14.61h9.6l-16.87,16.58,17.74,21.01h-9.96Z"/></g><g><path class="cls-4" d="M52.73,266.42h4.94c1.02,5.23,4.58,7.78,10.83,7.78s9.74-2.4,9.74-6.4c0-3.42-1.89-5.45-7.12-6.4l-8-1.53c-6.62-1.24-9.82-4.36-9.82-9.96,0-5.96,5.02-10.98,13.89-10.98s14.25,4.44,15.2,12.43h-5.02c-.73-5.67-4.22-8.36-10.33-8.36s-8.94,2.91-8.94,6.54c0,3.13,1.6,5.02,6.54,5.89l7.93,1.45c7.49,1.38,10.54,4.94,10.54,10.4,0,6.33-4.73,10.98-14.76,10.98s-14.61-4.73-15.63-11.85Zm4.07-44.06h4.73l5.74,7.78,6.03-7.78h4.87l-8.36,11.2h-5.02l-8-11.2Z"/><path class="cls-4" d="M126.46,258.64c0,11.92-7.12,19.63-16.5,19.63-6.18,0-10.62-3.34-13.09-8.36v21.16h-5.02v-51.26h4.8v7.63c2.4-5.23,6.76-8.51,13.52-8.51,9.31,0,16.29,7.93,16.29,19.7Zm-4.94,0c0-9.16-4.65-15.41-12.29-15.41-7.13,0-12.36,6.47-12.36,15.27v.29c0,9.16,5.16,15.12,12.36,15.12s12.29-6.11,12.29-15.27Z"/><path class="cls-4" d="M163.69,251.95v25.45h-4.65v-5.89c-3.05,4.58-7.34,6.76-12.94,6.76-7.34,0-12.94-4.65-12.94-11.12s4.22-10.4,12.36-11.27l13.23-1.45v-2.62c0-5.89-3.63-8.58-9.31-8.58s-9.52,2.4-10.32,8.14h-4.94c1.02-8.29,6.76-12.43,15.27-12.43s14.25,4.22,14.25,13.01Zm-4.94,10.47v-4.14l-12.36,1.45c-5.82,.73-8,3.49-8,7.27s3.27,6.98,8.65,6.98c7.2,0,11.71-4.65,11.71-11.56Z"/><path class="cls-4" d="M181.87,244.17v23.05c0,4.43,2.25,6.11,5.38,6.11,1.38,0,2.18-.07,3.13-.29v4.36c-1.24,.29-2.4,.44-3.93,.44-5.89,0-9.53-3.42-9.53-10.11v-23.56h-6.47v-4.36h6.47v-10.62h4.94v10.62h8.51v4.36h-8.51Z"/><path class="cls-4" d="M228.48,254.5v22.9h-4.94v-22.03c0-7.78-3.56-12-9.74-12s-10.47,4.36-10.47,12.36v21.67h-5.02v-37.59h4.8v5.74c2.25-4.29,6.04-6.62,11.63-6.62,8.29,0,13.74,5.53,13.74,15.56Z"/><path class="cls-4" d="M267.67,251.95v25.45h-4.65v-5.89c-3.05,4.58-7.34,6.76-12.94,6.76-7.34,0-12.94-4.65-12.94-11.12s4.22-10.4,12.36-11.27l13.23-1.45v-2.62c0-5.89-3.63-8.58-9.31-8.58s-9.52,2.4-10.32,8.14h-4.94c1.02-8.29,6.76-12.43,15.27-12.43s14.25,4.22,14.25,13.01Zm-4.94,10.47v-4.14l-12.36,1.45c-5.82,.73-8,3.49-8,7.27s3.27,6.98,8.65,6.98c7.2,0,11.71-4.65,11.71-11.56Zm-7.12-28.72h-4.87l7.49-11.34h5.53l-8.14,11.34Z"/><path class="cls-4" d="M331.22,258.64c0,11.92-7.12,19.63-16.5,19.63-6.18,0-10.62-3.34-13.09-8.36v21.16h-5.02v-51.26h4.8v7.63c2.4-5.23,6.76-8.51,13.52-8.51,9.31,0,16.29,7.93,16.29,19.7Zm-4.94,0c0-9.16-4.65-15.41-12.29-15.41-7.13,0-12.36,6.47-12.36,15.27v.29c0,9.16,5.16,15.12,12.36,15.12s12.29-6.11,12.29-15.27Z"/><path class="cls-4" d="M368.45,251.95v25.45h-4.65v-5.89c-3.05,4.58-7.34,6.76-12.94,6.76-7.34,0-12.94-4.65-12.94-11.12s4.22-10.4,12.36-11.27l13.23-1.45v-2.62c0-5.89-3.63-8.58-9.31-8.58s-9.52,2.4-10.32,8.14h-4.94c1.02-8.29,6.76-12.43,15.27-12.43s14.25,4.22,14.25,13.01Zm-4.94,10.47v-4.14l-12.36,1.45c-5.82,.73-8,3.49-8,7.27s3.27,6.98,8.65,6.98c7.2,0,11.71-4.65,11.71-11.56Z"/><path class="cls-4" d="M434.62,254.35v23.05h-4.94v-22.54c0-7.49-4.07-11.42-9.74-11.42s-10.4,3.93-10.4,11.2v22.76h-4.94v-22.54c0-7.49-4.07-11.42-9.82-11.42s-10.32,3.93-10.32,11.2v22.76h-5.02v-37.59h4.8v5.6c2.25-4.07,6.33-6.47,11.63-6.47s9.89,2.54,12.07,7.27c2.4-4.51,6.83-7.27,12.8-7.27,8.29,0,13.89,5.53,13.89,15.41Z"/><path class="cls-4" d="M477.16,260.46h-28.79c.51,8.58,5.6,13.38,12.5,13.38,5.82,0,9.38-3.05,10.54-7.42h5.24c-1.53,6.47-6.54,11.85-15.49,11.85-11.27,0-17.81-7.85-17.81-19.34,0-12.36,7.34-20,17.16-20,11.05,0,16.72,7.63,16.72,19.78,0,1.09-.07,1.74-.07,1.74Zm-5.09-4.29c-.44-8.73-4.94-12.94-11.56-12.94s-11.2,4.58-12.07,12.94h23.63Zm-14.11-22.61l-8-11.2h4.73l5.74,7.78,6.03-7.78h4.87l-8.36,11.2h-5.02Z"/><path class="cls-4" d="M493.3,239.81h8.51v4.36h-8.51v23.05c0,4.43,2.25,6.11,5.38,6.11,1.38,0,2.18-.07,3.13-.29v4.36c-1.24,.29-2.4,.44-3.93,.44-5.89,0-9.53-3.42-9.53-10.11v-23.56h-6.47v-4.36h6.47v-10.62h4.94v10.62Zm16.14-15.49l-3.13,15.49h-3.78l.95-15.49h5.96Z"/></g><g><path class="cls-4" d="M137.73,398.49v52.35h-8.65v-6.33c-2.4,4.73-6.62,7.2-12.36,7.2-8.94,0-16.94-7.2-16.94-19.63s7.63-19.7,16.58-19.7c5.24,0,9.23,1.96,11.78,5.6v-19.49h9.6Zm-9.6,33.59c0-7.2-3.93-12-9.31-12-5.67,0-9.38,4.73-9.38,12s3.93,11.92,9.38,11.92,9.31-4.58,9.31-11.92Z"/><path class="cls-4" d="M177.94,426.19v24.65h-8.65v-4.8c-2.91,3.85-6.91,5.67-12,5.67-8,0-13.52-4.73-13.52-11.27s3.93-10.69,13.31-11.63l11.34-1.16v-2.04c0-4.22-2.62-6.25-6.76-6.25-4.36,0-6.76,1.75-7.49,5.45h-9.6c1.02-8.14,7.05-12.43,16.94-12.43s16.43,4.29,16.43,13.81Zm-25.81-25.59c0-5.02,4.14-8.94,9.02-8.94s9.02,3.93,9.02,8.94-4.07,8.87-9.02,8.87-9.02-4-9.02-8.87Zm16.21,35.55v-2.76l-9.02,1.16c-4,.51-5.82,2.62-5.82,5.45s2.33,5.24,6.33,5.24c5.53,0,8.51-3.71,8.51-9.09Zm-10.54-35.55c0,2.04,1.38,3.34,3.34,3.34s3.42-1.31,3.42-3.34-1.53-3.42-3.42-3.42-3.34,1.38-3.34,3.42Z"/><path class="cls-4" d="M206.37,413.18v8.43c-.58-.07-1.24-.15-2.18-.15-5.89,0-9.09,3.42-9.09,9.38v20h-9.6v-37.59h8.65v6.47c1.82-4.51,5.53-6.83,9.96-6.83,.8,0,1.45,.07,2.25,.29Z"/><path class="cls-4" d="M221.14,450.84h-9.6v-52.35h9.6v52.35Z"/><path class="cls-4" d="M228.26,402.2c0-3.13,2.33-5.67,5.82-5.67s5.67,2.54,5.67,5.67-2.33,5.67-5.67,5.67-5.82-2.62-5.82-5.67Zm.95,11.05h9.6v37.59h-9.6v-37.59Z"/><path class="cls-4" d="M282.8,413.25v35.7c0,9.02-5.31,16.43-18.61,16.43s-17.89-5.74-18.69-13.31h10.11c.36,3.85,2.62,6.33,8.58,6.33s9.09-3.13,9.09-9.09v-5.96c-2.62,4-6.47,5.74-11.56,5.74-9.23,0-16.8-7.05-16.8-18.4s7.49-18.32,16.8-18.32c5.38,0,9.67,2.25,12.29,6.4v-5.53h8.8Zm-9.52,17.45c0-6.47-4.07-10.69-9.38-10.69s-9.31,4.22-9.31,10.69,4.07,10.76,9.31,10.76,9.38-4.44,9.38-10.76Z"/><path class="cls-4" d="M341.04,427.21v23.63h-9.6v-21.74c0-5.82-3.2-8.65-7.42-8.65s-7.71,3.05-7.71,8.8v21.59h-9.6v-52.35h9.6v19.78c2.18-3.78,5.82-5.89,10.69-5.89,8,0,14.03,5.09,14.03,14.83Z"/><path class="cls-4" d="M381.83,413.25v37.59h-8.58v-5.67c-2.54,4.29-6.62,6.54-11.71,6.54-8.43,0-13.31-4.87-13.31-13.81v-24.65h9.6v23.34c0,4.51,2.33,7.13,6.54,7.13,4.73,0,7.85-3.34,7.85-8.51v-21.96h9.6Z"/><path class="cls-4" d="M414.26,450.84l-14.91-18.54v18.54h-9.6v-52.35h9.6v29.08l14.54-14.32h10.62l-16.36,16.5,17.09,21.08h-10.98Z"/><path class="cls-4" d="M426.92,432.08c0-12.07,8.29-19.7,19.12-19.7s19.05,7.63,19.05,19.7-8.29,19.63-19.05,19.63-19.12-7.56-19.12-19.63Zm28.36,0c0-7.34-3.49-11.92-9.31-11.92s-9.31,4.65-9.31,11.92,3.49,11.85,9.31,11.85,9.31-4.58,9.31-11.85Z"/><path class="cls-4" d="M528.5,427.29v23.56h-9.6v-21.59c0-5.89-2.91-8.58-6.98-8.58s-7.42,2.76-7.42,8.14v22.03h-9.6v-21.59c0-5.89-2.91-8.58-6.98-8.58s-7.34,2.69-7.34,8.14v22.03h-9.6v-37.59h8.65v5.23c2.4-4.07,6.47-6.11,11.49-6.11,5.38,0,9.52,2.47,11.71,6.91,2.54-4.58,6.83-6.91,12.14-6.91,8.22,0,13.52,5.53,13.52,14.91Z"/><path class="cls-4" d="M593.58,427.29v23.56h-9.6v-21.59c0-5.89-2.91-8.58-6.98-8.58s-7.42,2.76-7.42,8.14v22.03h-9.6v-21.59c0-5.89-2.91-8.58-6.98-8.58s-7.34,2.69-7.34,8.14v22.03h-9.6v-37.59h8.65v5.23c2.4-4.07,6.47-6.11,11.49-6.11,5.38,0,9.52,2.47,11.71,6.91,2.54-4.58,6.83-6.91,12.14-6.91,8.22,0,13.52,5.53,13.52,14.91Z"/><path class="cls-4" d="M635.97,432.59c0,1.16-.07,2.18-.07,2.18h-27.19c.65,6.83,4.29,9.67,9.38,9.67,4.14,0,6.47-1.82,7.56-4.58h9.52c-1.67,6.69-7.63,11.85-17.16,11.85-12,0-18.9-8-18.9-19.41s7.63-19.92,18.61-19.92c11.78,0,18.47,8.14,18.25,20.21Zm-9.82-4.07c-.29-5.67-3.42-8.87-8.36-8.87-4.58,0-8,2.91-8.94,8.87h17.3Z"/><path class="cls-4" d="M651.61,450.84h-9.6v-52.35h9.6v52.35Z"/><path class="cls-4" d="M657.42,439.86h9.38c.8,3.34,3.42,5.09,8,5.09s6.98-1.75,6.98-4.29c0-2.18-1.31-3.71-4.73-4.29l-8.07-1.53c-7.63-1.45-10.83-5.02-10.83-10.76,0-6.25,5.38-11.71,15.63-11.71s15.71,4.87,16.94,12.43h-9.45c-.58-3.78-3.2-5.67-7.56-5.67s-6.54,1.96-6.54,4.36c0,2.04,1.09,3.42,5.02,4.07l7.92,1.38c8.22,1.38,11.2,5.23,11.2,11.05,0,6.25-4.94,11.71-16.43,11.71s-16.07-4.8-17.45-11.85Z"/><path class="cls-4" d="M732.03,432.59c0,1.16-.07,2.18-.07,2.18h-27.19c.65,6.83,4.29,9.67,9.38,9.67,4.14,0,6.47-1.82,7.56-4.58h9.52c-1.67,6.69-7.63,11.85-17.16,11.85-12,0-18.9-8-18.9-19.41s7.63-19.92,18.61-19.92c11.78,0,18.47,8.14,18.25,20.21Zm-9.82-4.07c-.29-5.67-3.42-8.87-8.36-8.87-4.58,0-8,2.91-8.94,8.87h17.3Z"/></g><g><path class="cls-4" d="M899.27,400.61v49.37h-11.2v-39.19l-12.58,39.19h-9.09l-12.58-39.04v39.04h-11.2v-49.37h17.38l10.98,33.81,10.91-33.81h17.38Z"/><path class="cls-4" d="M941.37,425.62v24.36h-9.6v-4.73c-2.84,3.78-6.91,5.6-11.85,5.6-8.29,0-13.67-4.8-13.67-11.27s3.71-10.76,13.52-11.71l10.91-1.09v-1.89c0-3.85-2.33-5.82-6.18-5.82s-6.03,1.6-6.76,4.87h-10.83c1.09-8.07,7.12-12.43,17.52-12.43s16.94,4.36,16.94,14.11Zm-10.83,9.74v-2.47l-8.14,1.09c-3.56,.51-5.38,2.4-5.38,5.09s2.18,4.87,5.82,4.87c5.16,0,7.71-3.56,7.71-8.58Zm-.87-29.08h-10.62l7.71-11.34h12.51l-9.6,11.34Z"/><path class="cls-4" d="M1022.88,426.27v23.7h-10.76v-21.38c0-5.45-2.54-7.85-6.33-7.85s-6.62,2.54-6.62,7.56v21.67h-10.83v-21.38c0-5.45-2.54-7.85-6.33-7.85s-6.62,2.4-6.62,7.56v21.67h-10.76v-37.59h9.67v5.31c2.47-4.14,6.62-6.18,11.56-6.18,5.38,0,9.52,2.47,11.71,6.83,2.54-4.58,6.83-6.83,12-6.83,8.07,0,13.31,5.45,13.31,14.76Z"/><path class="cls-4" d="M1065.93,431.8c0,1.16-.07,2.25-.07,2.25h-26.9c.65,6.47,3.93,8.87,8.65,8.87,3.64,0,5.74-1.53,6.76-3.93h10.69c-1.75,6.76-8.07,11.85-17.74,11.85-12.14,0-19.05-8.07-19.05-19.41s7.56-19.92,18.98-19.92,18.9,8.29,18.69,20.29Zm-11.05-4.36c-.22-4.87-2.98-8-7.56-8-4.14,0-7.2,2.62-8.14,8h15.71Z"/><path class="cls-4" d="M1129.92,426.27v23.7h-10.76v-21.38c0-5.45-2.54-7.85-6.33-7.85s-6.62,2.54-6.62,7.56v21.67h-10.83v-21.38c0-5.45-2.54-7.85-6.33-7.85s-6.62,2.4-6.62,7.56v21.67h-10.76v-37.59h9.67v5.31c2.47-4.14,6.62-6.18,11.56-6.18,5.38,0,9.52,2.47,11.71,6.83,2.54-4.58,6.83-6.83,12-6.83,8.07,0,13.31,5.45,13.31,14.76Z"/><path class="cls-4" d="M1135.3,431.22c0-12.14,8.65-19.7,19.49-19.7s19.49,7.49,19.49,19.7-8.73,19.63-19.49,19.63-19.49-7.42-19.49-19.63Zm27.92,0c0-6.98-3.13-11.12-8.51-11.12s-8.51,4.14-8.51,11.12,3.2,11.05,8.58,11.05,8.43-4.14,8.43-11.05Zm-3.42-24.94h-10.62l7.71-11.34h12.51l-9.6,11.34Z"/><path class="cls-4" d="M1201.98,412.38v9.38c-.58-.07-1.24-.15-2.18-.15-5.82,0-9.09,3.05-9.09,9.02v19.34h-10.76v-37.59h9.67v6.62c1.96-4.65,5.89-6.91,10.11-6.91,.87,0,1.53,.07,2.25,.29Z"/><path class="cls-4" d="M1206.42,401.19c0-3.34,2.47-6.04,6.25-6.04s6.18,2.69,6.18,6.04-2.54,6.18-6.18,6.18-6.25-2.76-6.25-6.18Zm.8,11.2h10.83v37.59h-10.83v-37.59Z"/><path class="cls-4" d="M1259.21,425.62v24.36h-9.6v-4.73c-2.84,3.78-6.91,5.6-11.85,5.6-8.29,0-13.67-4.8-13.67-11.27s3.71-10.76,13.52-11.71l10.91-1.09v-1.89c0-3.85-2.33-5.82-6.18-5.82s-6.03,1.6-6.76,4.87h-10.83c1.09-8.07,7.12-12.43,17.52-12.43s16.94,4.36,16.94,14.11Zm-10.83,9.74v-2.47l-8.14,1.09c-3.56,.51-5.38,2.4-5.38,5.09s2.18,4.87,5.82,4.87c5.16,0,7.71-3.56,7.71-8.58Z"/></g><g><path class="cls-4" d="M421.4,526.44v9.67h-32.06v-9.31l16.43-18.61h-15.71v-9.67h31.05v9.31l-16.58,18.61h16.87Z"/><path class="cls-4" d="M442.49,510.08v26.03h-12v-18.61l-2.69,1.67-3.2-4.94,5.89-3.64v-26.83h12v19.34l4.36-2.69,3.2,4.94-7.56,4.73Z"/><path class="cls-4" d="M488.88,511.98v24.14h-10.62v-4.58c-2.76,3.71-6.83,5.45-11.71,5.45-8.51,0-13.81-4.87-13.81-11.27s3.56-10.83,13.74-11.85l10.54-1.02v-1.67c0-3.42-2.04-5.31-5.53-5.31s-5.38,1.46-6.11,4.22h-12c1.09-8,7.12-12.43,17.96-12.43s17.52,4.44,17.52,14.32Zm-12,9.52v-2.11l-7.34,1.02c-3.13,.44-4.87,2.25-4.87,4.65,0,2.54,1.89,4.51,5.24,4.51,4.8,0,6.98-3.34,6.98-8.07Z"/><path class="cls-4" d="M550.68,517.36c0,12.65-8.51,19.63-17.23,19.63-4.36,0-7.92-1.45-10.54-4.29v17.09h-12v-51.26h10.62v5.67c2.62-4.29,6.83-6.54,12.43-6.54,8.8,0,16.72,6.62,16.72,19.7Zm-12.14,0c0-6.18-3.27-10.32-7.92-10.32s-7.71,4.14-7.71,10.32,3.05,10.32,7.71,10.32,7.92-4.07,7.92-10.32Z"/><path class="cls-4" d="M590.31,511.98v24.14h-10.62v-4.58c-2.76,3.71-6.83,5.45-11.71,5.45-8.51,0-13.81-4.87-13.81-11.27s3.56-10.83,13.74-11.85l10.54-1.02v-1.67c0-3.42-2.04-5.31-5.53-5.31s-5.38,1.46-6.11,4.22h-12c1.09-8,7.12-12.43,17.96-12.43s17.52,4.44,17.52,14.32Zm-12,9.52v-2.11l-7.34,1.02c-3.13,.44-4.87,2.25-4.87,4.65,0,2.54,1.89,4.51,5.24,4.51,4.8,0,6.98-3.34,6.98-8.07Z"/><path class="cls-4" d="M655.61,512.19v23.92h-12v-21.16c0-5.02-2.18-7.12-5.6-7.12s-5.89,2.33-5.89,6.98v21.3h-12v-21.16c0-5.02-2.18-7.12-5.6-7.12s-5.89,2.18-5.89,6.98v21.3h-12v-37.59h10.62v5.45c2.54-4.36,6.76-6.33,11.71-6.33,5.45,0,9.52,2.47,11.63,6.83,2.54-4.65,6.83-6.83,11.85-6.83,8.07,0,13.16,5.45,13.16,14.54Z"/><path class="cls-4" d="M661.36,487.25c0-3.63,2.62-6.54,6.76-6.54s6.69,2.91,6.69,6.54-2.69,6.62-6.69,6.62-6.76-2.98-6.76-6.62Zm.73,11.27h12v37.59h-12v-37.59Z"/><path class="cls-4" d="M717.49,518.01c0,1.16-.07,2.4-.07,2.4h-26.54c.65,5.96,3.56,8,7.93,8,3.2,0,5.02-1.24,5.96-3.27h11.78c-1.31,4.94-5.09,8.94-10.76,10.76l.07,.07c-4.29,2.11-5.96,3.78-5.96,5.53,0,1.53,1.09,2.54,3.34,2.54,1.09,0,1.96-.15,2.62-.36v4.87c-1.53,.66-2.91,.95-5.09,.95-5.24,0-9.09-2.18-9.09-5.96,0-2.33,.95-4.51,4.14-6.69-10.76-1.02-16.79-8.87-16.79-19.34,0-11.56,7.56-19.85,19.34-19.85s19.41,8.51,19.12,20.36Zm-12.21-4.65c-.15-4.07-2.54-7.05-6.76-7.05-3.78,0-6.47,2.33-7.42,7.05h14.18Z"/><path class="cls-4" d="M720.69,517.36c0-12.29,8.29-19.7,19.49-19.7s17.09,6.18,18.4,14.32h-12.07c-.73-3.34-2.76-4.94-6.47-4.94-4.36,0-7.2,3.63-7.2,10.18s2.69,10.4,7.27,10.4c3.85,0,5.53-1.67,6.4-5.02h12c-1.38,8.51-7.85,14.4-18.32,14.4-11.2,0-19.49-7.42-19.49-19.63Zm25.59-24.94h-11.78l7.78-11.34h13.89l-9.89,11.34Z"/></g><g><path class="cls-4" d="M907.92,512.47c0,15.05-9.23,24.65-23.92,24.65h-21.74v-49.37h21.74c14.69,0,23.92,9.6,23.92,24.72Zm-12.36,.07c0-10.03-4.43-14.83-12.94-14.83h-8v29.45h8c8.51,0,12.94-4.73,12.94-14.61Z"/><path class="cls-4" d="M947.7,512.98v24.14h-10.62v-4.58c-2.76,3.71-6.83,5.45-11.71,5.45-8.51,0-13.81-4.87-13.81-11.27s3.56-10.83,13.74-11.85l10.54-1.02v-1.67c0-3.42-2.04-5.31-5.53-5.31s-5.38,1.46-6.11,4.22h-12c1.09-8,7.12-12.43,17.96-12.43s17.52,4.44,17.52,14.32Zm-27.19-26.39c0-5.45,4.51-9.67,9.82-9.67s9.74,4.22,9.74,9.67-4.44,9.52-9.74,9.52-9.82-4.29-9.82-9.52Zm15.2,35.92v-2.11l-7.34,1.02c-3.13,.44-4.87,2.25-4.87,4.65,0,2.54,1.89,4.51,5.23,4.51,4.8,0,6.98-3.34,6.98-8.07Zm-8.72-35.92c0,1.96,1.38,3.27,3.34,3.27,1.82,0,3.34-1.31,3.34-3.27s-1.53-3.42-3.34-3.42-3.34,1.38-3.34,3.42Z"/><path class="cls-4" d="M965.29,537.11h-12v-52.35h12v52.35Z"/><path class="cls-4" d="M970.6,488.25c0-3.63,2.62-6.54,6.76-6.54s6.69,2.91,6.69,6.54-2.69,6.62-6.69,6.62-6.76-2.98-6.76-6.62Zm.73,11.27h12v37.59h-12v-37.59Z"/><path class="cls-4" d="M1027.39,499.52v35.55c0,8.94-5.45,16.58-19.49,16.58s-18.54-5.67-19.56-13.31h12.65c.29,2.98,1.67,5.09,6.83,5.09s7.56-2.76,7.56-8.07v-4.87c-2.54,3.63-6.04,4.87-10.83,4.87-9.23,0-16.94-7.05-16.94-18.47s7.71-18.25,17.16-18.25c5.02,0,9.16,2.11,11.78,6.04v-5.16h10.83Zm-12,17.3c0-5.38-3.42-8.94-7.78-8.94s-7.78,3.56-7.78,9.02,3.42,9.23,7.78,9.23,7.78-3.78,7.78-9.31Z"/><path class="cls-4" d="M1048.7,509.19v13.52c0,3.27,1.45,4.94,4.8,4.94,1.24,0,2.18-.07,2.98-.22v9.52c-2.25,.51-3.27,.58-6.11,.58-9.89,0-13.67-5.45-13.67-14.47v-13.89h-5.6v-9.67h5.6v-10.62h12v10.62h7.78v9.67h-7.78Z"/><path class="cls-4" d="M1134.93,513.19v23.92h-12v-21.16c0-5.02-2.18-7.12-5.6-7.12s-5.89,2.33-5.89,6.98v21.3h-12v-21.16c0-5.02-2.18-7.12-5.6-7.12s-5.89,2.18-5.89,6.98v21.3h-12v-37.59h10.62v5.45c2.54-4.36,6.76-6.33,11.71-6.33,5.45,0,9.52,2.47,11.63,6.83,2.54-4.65,6.83-6.83,11.85-6.83,8.07,0,13.16,5.45,13.16,14.54Z"/><path class="cls-4" d="M1139.95,488.25c0-3.63,2.62-6.54,6.76-6.54s6.69,2.91,6.69,6.54-2.69,6.62-6.69,6.62-6.76-2.98-6.76-6.62Zm.73,11.27h12v37.59h-12v-37.59Z"/><path class="cls-4" d="M1195.43,512.98v24.14h-12v-21.23c0-5.38-2.54-7.42-6.25-7.42s-6.47,2.47-6.47,7.27v21.38h-12v-37.59h10.62v5.38c2.54-4.29,6.91-6.25,12.21-6.25,7.71,0,13.89,4.14,13.89,14.32Z"/><path class="cls-4" d="M1237.82,512.98v24.14h-12v-21.23c0-5.38-2.54-7.42-6.25-7.42s-6.47,2.47-6.47,7.27v21.38h-12v-37.59h10.62v5.38c2.54-4.29,6.91-6.25,12.21-6.25,7.71,0,13.89,4.14,13.89,14.32Z"/><path class="cls-4" d="M1280.14,519.01c0,1.16-.07,2.4-.07,2.4h-26.54c.65,5.96,3.56,8,7.92,8,3.2,0,5.02-1.24,5.96-3.27h11.78c-1.82,6.83-8.36,11.85-18.18,11.85-12.36,0-19.34-8.22-19.34-19.49s7.56-19.85,19.34-19.85,19.41,8.51,19.12,20.36Zm-12.14-4.65c-.44-4.07-2.69-7.05-6.91-7.05-3.78,0-6.4,2.33-7.34,7.05h14.25Z"/></g><g><path class="cls-4" d="M761.63,672.96v24.5h-14.4v-22.98c0-3.27-1.6-5.09-4.44-5.09-3.27,0-5.38,1.89-5.38,6.91v21.16h-14.4v-52.35h14.4v18.32c2.4-2.98,5.89-4.44,9.89-4.44,8,0,14.32,4.22,14.32,13.96Z"/><path class="cls-4" d="M803.29,673.39v24.07h-12.72v-4.58c-2.84,3.42-6.83,5.45-11.63,5.45-8.51,0-13.45-4.87-13.45-11.2,0-6.83,5.09-11.05,14.32-11.92l9.45-.87v-2.33c0-2.69-1.6-4.29-4.44-4.29-2.98,0-4.58,1.38-5.02,3.71h-13.74c.73-7.34,6.62-12.43,18.69-12.43,13.67,0,18.54,6.11,18.54,14.4Zm-14.32,11.56v-4l-4.29,.58c-3.63,.51-5.53,2.11-5.53,4.65s1.82,3.93,4.58,3.93c3.27,0,5.24-2.25,5.24-5.16Z"/><path class="cls-4" d="M822.79,697.46h-14.4v-52.35h14.4v52.35Z"/><path class="cls-4" d="M869.47,678.7c0,13.01-8.07,19.63-16.14,19.63-5.6,0-9.38-2.33-11.49-7.27v6.4h-13.52v-52.35h14.4v19.19c2.33-3.85,5.96-5.31,10.62-5.31,8.07,0,16.14,6.83,16.14,19.7Zm-14.4-.07c0-6.69-2.62-9.31-6.18-9.31s-6.18,2.62-6.18,9.31,2.54,9.38,6.11,9.38,6.25-2.62,6.25-9.38Z"/><path class="cls-4" d="M950.83,672.96v24.5h-14.4v-22.98c0-3.27-1.6-5.09-4.14-5.09-3.27,0-5.38,1.89-5.38,6.91v21.16h-14.4v-22.98c0-3.27-1.6-5.09-4.14-5.09-3.27,0-5.38,1.89-5.38,6.91v21.16h-14.4v-37.59h12.8v5.74c2.33-4.36,6.25-6.62,11.2-6.62,5.53,0,10.18,1.96,12.58,6.4,2.4-4.22,6.4-6.4,11.34-6.4,8,0,14.32,4.22,14.32,13.96Z"/><path class="cls-4" d="M992.5,673.39v24.07h-12.72v-4.58c-2.84,3.42-6.83,5.45-11.63,5.45-8.51,0-13.45-4.87-13.45-11.2,0-6.83,5.09-11.05,14.32-11.92l9.45-.87v-2.33c0-2.69-1.6-4.29-4.44-4.29-2.98,0-4.58,1.38-5.02,3.71h-13.74c.73-7.34,6.62-12.43,18.69-12.43,13.67,0,18.54,6.11,18.54,14.4Zm-32.72-24.72c0-3.56,2.54-6.25,6.76-6.25s6.76,2.69,6.76,6.25c0,3.78-2.69,6.47-6.76,6.47s-6.76-2.76-6.76-6.47Zm18.4,36.28v-4l-4.29,.58c-3.63,.51-5.53,2.11-5.53,4.65s1.82,3.93,4.58,3.93c3.27,0,5.24-2.25,5.24-5.16Zm-2.33-36.28c0-3.56,2.54-6.25,6.83-6.25s6.69,2.69,6.69,6.25-2.62,6.47-6.69,6.47c-4.29,0-6.83-2.76-6.83-6.47Z"/><path class="cls-4" d="M1011.99,697.46h-14.4v-52.35h14.4v52.35Z"/><path class="cls-4" d="M1054.96,659.87v37.59h-12.8v-5.53c-2.54,4.36-6.47,6.4-11.56,6.4-8.22,0-13.52-4.22-13.52-13.96v-24.5h14.4v24.28c0,2.62,1.31,4.36,4.14,4.36,2.98,0,4.94-2.62,4.94-6.62v-22.03h14.4Z"/></g><g><path class="cls-4" d="M127.45,659.87v11.56c-.8-.07-1.6-.15-2.91-.15-4.65,0-7.92,2.69-7.92,8.07v18.1h-14.4v-37.59h12.51v6.69c2.11-5.09,6.04-7.05,10.33-7.05,.87,0,1.82,.07,2.4,.36Z"/><path class="cls-4" d="M129.92,678.7c0-13.16,9.6-19.7,20.43-19.7s20.58,6.54,20.58,19.7-9.82,19.63-20.58,19.63-20.43-6.54-20.43-19.63Zm26.61,.15c0-7.56-2.62-9.74-6.04-9.74s-6.18,2.18-6.18,9.74,2.76,9.38,6.18,9.38,6.04-1.96,6.04-9.38Z"/><path class="cls-4" d="M173.26,686.48h13.09c.51,2.25,2.33,3.49,5.82,3.49s4.87-1.24,4.87-3.05c0-1.31-.8-2.62-2.98-2.98l-9.52-1.45c-7.27-1.09-10.83-5.02-10.83-11.05,0-6.83,6.18-12.43,17.3-12.43,10.54,0,17.52,3.49,18.83,12.43h-13.09c-.44-2.54-2.18-3.93-5.45-3.93s-4.73,1.31-4.73,2.98c0,1.45,1.02,2.54,3.34,2.91l10.25,1.45c7.56,1.09,10.47,5.24,10.47,10.69,0,7.71-6.4,12.8-18.69,12.8-11.56,0-17.6-4.22-18.69-11.85Z"/><path class="cls-4" d="M212.74,686.48h13.09c.51,2.25,2.33,3.49,5.82,3.49s4.87-1.24,4.87-3.05c0-1.31-.8-2.62-2.98-2.98l-9.52-1.45c-7.27-1.09-10.83-5.02-10.83-11.05,0-6.83,6.18-12.43,17.3-12.43,10.54,0,17.52,3.49,18.83,12.43h-13.09c-.44-2.54-2.18-3.93-5.45-3.93s-4.73,1.31-4.73,2.98c0,1.45,1.02,2.54,3.34,2.91l10.25,1.45c7.56,1.09,10.47,5.24,10.47,10.69,0,7.71-6.4,12.8-18.69,12.8-11.56,0-17.6-4.22-18.69-11.85Z"/><path class="cls-4" d="M286.11,687.79v9.67h-33.23v-9.31l16.72-18.61h-16v-9.67h32.21v9.31l-16.36,18.61h16.65Z"/><path class="cls-4" d="M367.84,672.96v24.5h-14.4v-22.98c0-3.27-1.6-5.09-4.14-5.09-3.27,0-5.38,1.89-5.38,6.91v21.16h-14.4v-22.98c0-3.27-1.6-5.09-4.14-5.09-3.27,0-5.38,1.89-5.38,6.91v21.16h-14.4v-37.59h12.8v5.74c2.33-4.36,6.25-6.62,11.2-6.62,5.53,0,10.18,1.96,12.58,6.4,2.4-4.22,6.4-6.4,11.34-6.4,8,0,14.32,4.22,14.32,13.96Z"/><path class="cls-4" d="M411.25,681.75h-25.45c.51,5.74,2.54,7.93,6.18,7.93,2.84,0,4-.87,4.94-3.2h13.16c-1.89,7.2-8.22,11.85-18.32,11.85-12.72,0-20.14-8.07-20.14-19.78,0-10.91,7.05-19.56,20.14-19.56s19.63,9.09,19.63,19.56c0,1.09,0,1.82-.15,3.2Zm-14.03-6.76c-.07-4.8-1.89-7.34-5.45-7.34-2.98,0-5.24,1.96-5.89,7.34h11.34Z"/><path class="cls-4" d="M477.78,672.96v24.5h-14.4v-22.98c0-3.27-1.6-5.09-4.14-5.09-3.27,0-5.38,1.89-5.38,6.91v21.16h-14.4v-22.98c0-3.27-1.6-5.09-4.14-5.09-3.27,0-5.38,1.89-5.38,6.91v21.16h-14.4v-37.59h12.8v5.74c2.33-4.36,6.25-6.62,11.2-6.62,5.53,0,10.18,1.96,12.58,6.4,2.4-4.22,6.4-6.4,11.34-6.4,8,0,14.32,4.22,14.32,13.96Z"/><path class="cls-4" d="M481.57,678.7c0-13.16,9.6-19.7,20.43-19.7s20.58,6.54,20.58,19.7-9.82,19.63-20.58,19.63-20.43-6.54-20.43-19.63Zm26.47-24.94h-13.23l7.78-11.34h15.34l-9.89,11.34Zm.15,25.08c0-7.56-2.62-9.74-6.04-9.74s-6.18,2.18-6.18,9.74,2.76,9.38,6.18,9.38,6.04-1.96,6.04-9.38Z"/><path class="cls-4" d="M551.88,659.87v11.56c-.8-.07-1.6-.15-2.91-.15-4.65,0-7.92,2.69-7.92,8.07v18.1h-14.4v-37.59h12.51v6.69c2.11-5.09,6.04-7.05,10.32-7.05,.87,0,1.82,.07,2.4,.36Z"/><path class="cls-4" d="M555.3,647.8c0-3.64,2.98-7.2,7.71-7.2s7.71,3.56,7.71,7.2-3.2,7.34-7.71,7.34-7.71-3.71-7.71-7.34Zm.51,12.07h14.4v37.59h-14.4v-37.59Z"/><path class="cls-4" d="M612.16,673.39v24.07h-12.72v-4.58c-2.84,3.42-6.83,5.45-11.63,5.45-8.51,0-13.45-4.87-13.45-11.2,0-6.83,5.09-11.05,14.32-11.92l9.45-.87v-2.33c0-2.69-1.6-4.29-4.44-4.29-2.98,0-4.58,1.38-5.02,3.71h-13.74c.73-7.34,6.62-12.43,18.69-12.43,13.67,0,18.54,6.11,18.54,14.4Zm-14.32,11.56v-4l-4.29,.58c-3.63,.51-5.53,2.11-5.53,4.65s1.82,3.93,4.58,3.93c3.27,0,5.24-2.25,5.24-5.16Z"/></g><path class="cls-4" d="M682.1,693.4l-.07-31.26-34.97,35.05-1.38-1.45,34.97-34.97-31.34-.15,1.89-1.89,32.5,.29,.29,32.57-1.89,1.82Z"/><path class="cls-4" d="M1124.28,673.77v2.62l-24.21,21.89-24.21-21.89v-2.62l23.19,21.08v-47.55h2.04v47.55l23.19-21.08Z"/><path class="cls-4" d="M1194.43,673.77v2.62l-24.21,21.89-24.21-21.89v-2.62l23.19,21.08v-47.55h2.04v47.55l23.19-21.08Z"/><path class="cls-4" d="M1273.02,670.09c0,14.11-11.49,25.45-25.59,25.45s-25.45-11.34-25.45-25.45,11.34-25.59,25.45-25.59,25.59,11.49,25.59,25.59Z"/></svg>