<svg xmlns="http://www.w3.org/2000/svg" viewBox="0 0 1366 768"><defs><style>.cls-1{fill:#fdfaf5;}.cls-2{fill:#1a26cd;}.cls-3{fill:#1d1d1b;}</style></defs><g id="Layer_1" data-name="Layer 1"><rect class="cls-1" x="-49.48" y="-88" width="1466.48" height="940.05"/><path class="cls-2" d="M79.41,728H78.26v-9.91h1.15Z"/><path class="cls-2" d="M88.62,719.1H85.55V728H84.4V719.1H81.31v-1h7.31Z"/><path class="cls-2" d="M95.68,725.26H91.59l-1,2.73H89.39l3.67-9.91H94.3L97.84,728H96.61Zm-.35-1-1.66-4.87L92,724.22Z"/><path class="cls-2" d="M105.27,726.94v1H99.64v-9.91h1.17v8.86Z"/><path class="cls-2" d="M108.25,728h-1.14v-9.91h1.14Z"/><path class="cls-2" d="M116.27,725.26h-4.09l-1,2.73H110l3.66-9.91h1.25l3.54,9.91H117.2Zm-.36-1-1.65-4.87-1.72,4.87Z"/><path class="cls-2" d="M127.84,718.08V728h-1.75l-4.77-8.92V728h-1.1v-9.91H122l4.79,8.91v-8.91Z"/><path class="cls-2" d="M140,726.94v1h-5.63v-9.91h1.18v8.86Z"/><path class="cls-2" d="M143,728h-1.15v-9.91H143Z"/><path class="cls-2" d="M153.73,722.85V728h-1v-1.81a3.05,3.05,0,0,1-3.06,2c-2.61,0-4.36-2.07-4.36-5.12s1.73-5.13,4.33-5.13a3.68,3.68,0,0,1,3.9,2.84h-1.23a2.55,2.55,0,0,0-2.68-1.81c-1.86,0-3.16,1.56-3.16,4.1s1.27,4.08,3.2,4.08,3-1.26,3-3.23h-3.24v-1Z"/><path class="cls-2" d="M163.77,718.08V728h-1.15v-4.64H157.3V728h-1.14v-9.91h1.14v4.23h5.32v-4.23Z"/><path class="cls-2" d="M173,719.1h-3.08V728h-1.14V719.1h-3.09v-1H173Z"/><path class="cls-2" d="M192.82,724.73H181.27v-1.05h11.55Z"/><path class="cls-2" d="M204.43,718.08V728h-1.18v-7.81a2.78,2.78,0,0,1-2.12.63v-1c1.59-.06,2.06-.69,2.3-1.71Z"/><path class="cls-2" d="M213.27,725.21a3,3,0,0,1-3.32,2.95c-2.2,0-3.32-1.25-3.33-3h1.12a2,2,0,0,0,2.22,2,1.92,1.92,0,0,0,2.14-1.91c0-1.09-.67-1.75-2.39-1.75h-.78v-1.08h.78c1.58,0,2.14-.77,2.14-1.73a1.7,1.7,0,0,0-1.86-1.71,1.88,1.88,0,0,0-2,1.81h-1.13a3,3,0,0,1,3.16-2.84,2.75,2.75,0,0,1,3,2.68,2.26,2.26,0,0,1-1.31,2.25A2.3,2.3,0,0,1,213.27,725.21Z"/><path class="cls-2" d="M215,723.05c0-3,1.37-5.14,3.71-5.14s3.7,2.15,3.7,5.14-1.36,5.11-3.7,5.11S215,726,215,723.05Zm6.28,0c0-2.47-.9-4.06-2.57-4.06s-2.57,1.59-2.57,4.06.9,4,2.57,4S221.29,725.54,221.29,723.05Z"/><path class="cls-2" d="M235.32,720.84c0,1.63-1,2.81-3.17,2.81h-2.57V728h-1.16v-9.91h3.83C234.37,718.08,235.32,719.13,235.32,720.84Zm-1.16,0c0-1.11-.64-1.72-2.11-1.72h-2.47v3.5h2.47C233.52,722.62,234.16,721.9,234.16,720.84Z"/><path class="cls-2" d="M243.69,719.1h-3.07V728h-1.15V719.1h-3.09v-1h7.31Z"/><path class="cls-2" d="M244.87,725h1.22a2.33,2.33,0,0,0,2.65,2.08c1.59,0,2.33-.74,2.33-1.7s-.55-1.39-1.63-1.65l-2.16-.51a2.45,2.45,0,0,1-2.11-2.51c0-1.6,1.28-2.84,3.33-2.84s3.43.91,3.63,2.94h-1.21a2.15,2.15,0,0,0-2.45-1.91c-1.34,0-2.08.73-2.08,1.66,0,.72.34,1.21,1.41,1.48l2.09.51a2.66,2.66,0,0,1,2.39,2.65c0,1.74-1.27,2.92-3.54,2.92C246.31,728.16,245.06,727,244.87,725Z"/><path class="cls-3" d="M150.83,227.84c0,2.28.6,4.8,4.2,6v.48h-10.8v-.48c3.48-1.2,4-3.72,4-6v-71.4c0-2.28-.48-4.8-4-6V150H155v.48c-3.6,1.2-4.2,3.72-4.2,6Z"/><path class="cls-3" d="M196.19,192.68c0-25.56,17.4-44.16,43.32-44.16,28.8,0,43.55,19.44,43.55,43.68,0,25-16.91,43.32-43.43,43.32C212.63,235.52,196.19,215.84,196.19,192.68Zm43.44,42.24c27.23,0,40.55-20.28,40.55-41.16,0-23.76-12-44.64-40.79-44.64-26.52,0-40.32,18.12-40.32,42.6C199.07,213.2,212.39,234.92,239.63,234.92Z"/><path class="cls-3" d="M320,235.76h-.24l-32.64-77.4c-1.56-3.72-3-6.48-4.68-7.92V150h5.16v.48a16.26,16.26,0,0,0,1.44,5.64l32,75.72,31.31-73.68a14.13,14.13,0,0,0,1.08-5,5.69,5.69,0,0,0-.48-2.76V150h4.68v.48c-1.32,1-2.88,3.6-4,6Z"/><path class="cls-3" d="M404,234.32H365.23v-.48c3.48-1.2,4-3.72,4-6v-71.4c0-2.28-.48-4.8-4-6V150h33.48l2.52,7-.48.12c-2.64-4.2-4.2-6.48-8.88-6.48h-20v42.72h23.4c2.28,0,3.6-.48,6-5h.48V199h-.48c-2.4-4.56-3.72-5.16-6-5.16h-23.4v39.84h23.4c4.56,0,8-1.92,11.16-7.68l.48.12Z"/><path class="cls-3" d="M464.44,229.52c1.92,3.36,3.72,4.32,6.36,4.32v.48c-4.8,0-7.8-1.8-10.32-6.36l-4.32-7.68c-5.28-9.36-7.92-9.36-23.28-9.36a111.61,111.61,0,0,1-13.08-1v17.88c0,2.28.6,4.8,4.2,6v.48H413.2v-.48c3.48-1.2,4-3.72,4-6v-71.4c0-2.28-.48-4.8-4-6V150h20.88c18,0,30.84,11.52,30.84,29.52,0,15.12-9.72,27.84-25.56,31h1.8c10.2,0,14.16,2.88,19.08,11.64ZM419.8,150.44v59a107.83,107.83,0,0,0,13.08,1c18.12,0,29.4-13.2,29.4-31,0-16.08-10.92-29-28.2-29Z"/><path class="cls-3" d="M537.88,188l26.76,4c19,2.76,31.92,5.88,31.92,22.44,0,17.52-20.52,21.36-42.36,21.36-20.4,0-37.32-5.16-45-10.68l-.6-3.24.84-.36c7.44,6.36,23,13.68,45.36,13.68,20.28,0,40.08-4.08,40.08-20.76,0-14.4-12-16.92-30-19.68l-27.12-4.08c-13.56-2-26.76-6.12-26.76-19.92,0-19.92,24-22.2,40.92-22.2,22,0,35,5,41.88,8l.6,3.24h-.72c-7.56-5.16-22.2-10.8-41.76-10.8-16,0-39.12,1.56-39.12,21.72C512.8,182,525,186.08,537.88,188Z"/><path class="cls-3" d="M637.33,229.64v4.68H604.81v-.48s.84-.48.84-8.64V156.92c0-6-.84-6.48-.84-6.48V150h4.32v.48s-.84.48-.84,8.64v74.76h16.56c8.16,0,10.32-.36,12-4.2Z"/><path class="cls-3" d="M684.08,234.32H645.32v-.48c3.48-1.2,4-3.72,4-6v-71.4c0-2.28-.48-4.8-4-6V150H678.8l2.52,7-.48.12c-2.64-4.2-4.2-6.48-8.88-6.48h-20v42.72h23.4c2.28,0,3.6-.48,6-5h.48V199h-.48c-2.4-4.56-3.72-5.16-6-5.16h-23.4v39.84h23.4c4.56,0,8-1.92,11.16-7.68l.48.12Z"/><path class="cls-3" d="M697.49,210.92V225.2c0,8.16.84,8.64.84,8.64v.48H694v-.48s.84-.48.84-8.64V156.92c0-6-.84-6.48-.84-6.48V150h17.4c17.4,0,31.2,13.32,31.2,30.72s-13.92,30.24-31.2,30.24Zm12.72-.48A29.45,29.45,0,0,0,740,180.68c0-16.08-12.48-30.24-29.76-30.24H697.49v60Z"/><path class="cls-3" d="M831.35,150v4.2h-.48c-.72-1.2-3-3.72-12.72-3.72h-30V225.2c0,8.16,1.08,8.64,1.08,8.64v.48h-4.8v-.48s1.08-.48,1.08-8.64V150.44H756c-9.72,0-12,2.52-12.72,3.72h-.48V150Z"/><path class="cls-3" d="M956.15,235.76h-.24l-19.8-31.68-18.84,31.68h-.36l-45.6-76.44c-2.76-4.68-4.32-7.2-5.76-8.88V150h5v.48c0,1,1.32,4.92,3.12,7.92l44.52,74.76,17.52-29.64-25.56-44.4c-2.52-4.32-4.44-7.44-5.64-8.64V150h5v.48c0,1.2,1.2,4.8,3.12,8l24.48,42.36,24.48-42c1.56-2.64,2.64-4.8,2.64-6.12a2.57,2.57,0,0,0-1-2.28V150h5.52v.48c-1.2.84-2.88,2.64-5.4,7l-26,44,19.68,31.68,45.36-74.28c1.2-1.92,2.28-3.84,2.28-5.64a5.34,5.34,0,0,0-.84-2.76V150h5.64v.48a33.05,33.05,0,0,0-5.16,6.6Z"/><path class="cls-3" d="M1080.91,227.84c0,2.28.6,4.8,4.2,6v.48h-10.8v-.48c3.48-1.2,4-3.72,4-6v-34h-55.68v34c0,2.28.6,4.8,4.2,6v.48H1016v-.48c3.47-1.2,4-3.72,4-6v-71.4c0-2.28-.49-4.8-4-6V150h10.79v.48c-3.6,1.2-4.2,3.72-4.2,6v36.84h55.68V156.44c0-2.28-.48-4.8-4-6V150h10.8v.48c-3.6,1.2-4.2,3.72-4.2,6Z"/><path class="cls-3" d="M1134.34,234.32h-38.76v-.48c3.48-1.2,4-3.72,4-6v-71.4c0-2.28-.48-4.8-4-6V150h33.48l2.52,7-.48.12c-2.64-4.2-4.2-6.48-8.88-6.48h-20v42.72h23.4c2.28,0,3.6-.48,6-5h.48V199h-.48c-2.4-4.56-3.72-5.16-6-5.16h-23.4v39.84h23.4c4.56,0,8-1.92,11.16-7.68l.48.12Z"/><path class="cls-3" d="M1225.83,229v6.72h-.36l-79.19-81.36v67.32c0,5.64.72,9.6,2,12.12v.48h-4.68v-.48c1.56-2.4,2.16-7,2.16-12.24V153.92a13.31,13.31,0,0,0-5.52-3.48V150h5.16L1225.35,232V162.68c0-5.28-.6-9.84-2.16-12.24V150h4.68v.48c-1.32,2.52-2,6.48-2,12.12Z"/><path class="cls-3" d="M184.81,240v4.2h-.48c-.72-1.2-3-3.72-12.72-3.72H161.17V315.2c0,8.16,1.08,8.64,1.08,8.64v.48h-4.8v-.48s1.08-.48,1.08-8.64V240.44H147.85c-9.72,0-12,2.52-12.72,3.72h-.48V240Z"/><path class="cls-3" d="M257.24,317.84c0,2.28.6,4.8,4.2,6v.48h-10.8v-.48c3.48-1.2,4-3.72,4-6v-34H198.92v34c0,2.28.6,4.8,4.2,6v.48h-10.8v-.48c3.48-1.2,4-3.72,4-6v-71.4c0-2.28-.48-4.8-4-6V240h10.8v.48c-3.6,1.2-4.2,3.72-4.2,6v36.84H254.6V246.44c0-2.28-.48-4.8-4-6V240h10.8v.48c-3.6,1.2-4.2,3.72-4.2,6Z"/><path class="cls-3" d="M310.67,324.32H271.91v-.48c3.48-1.2,4-3.72,4-6v-71.4c0-2.28-.48-4.8-4-6V240h33.48l2.52,7-.48.12c-2.64-4.2-4.2-6.48-8.88-6.48h-20v42.72h23.4c2.28,0,3.6-.48,6-5h.48V289h-.48c-2.4-4.56-3.72-5.16-6-5.16h-23.4v39.84h23.4c4.56,0,8-1.92,11.16-7.68l.48.12Z"/><path class="cls-3" d="M406.07,319.52c1.92,3.36,3.72,4.32,6.36,4.32v.48c-4.8,0-7.8-1.8-10.32-6.36l-4.32-7.68c-5.28-9.36-7.92-9.36-23.28-9.36a111.61,111.61,0,0,1-13.08-1v17.88c0,2.28.6,4.8,4.2,6v.48h-10.8v-.48c3.48-1.2,4-3.72,4-6v-71.4c0-2.28-.48-4.8-4-6V240h20.88c18,0,30.84,11.52,30.84,29.52,0,15.12-9.72,27.84-25.56,31h1.8c10.2,0,14.16,2.88,19.08,11.64Zm-44.64-79.08v59a107.83,107.83,0,0,0,13.08,1c18.12,0,29.4-13.2,29.4-31,0-16.08-10.92-29-28.2-29Z"/><path class="cls-3" d="M477.85,307.64H427.21l-2.88,6.72c-1.08,2.64-1.56,4-1.56,5.16,0,1.92,1.68,3.24,4.32,4.32v.48H416.65v-.48c2.64-1.32,4-3,5.52-6.36l30.72-69.36-1.32-3a7.92,7.92,0,0,0-5.16-4.68V240h6.24l32,76.8c1.8,4.44,2.64,5.52,5.52,7.08v.48H479.53v-.48c4.08-1.68,3.24-4.2,2-7.08Zm-50.4-.6h50.16l-24.36-58.2Z"/><path class="cls-3" d="M503.2,317.84c0,2.28.48,4.8,4,6v.48H496.6v-.48c3.48-1.2,4-3.72,4-6v-71.4c0-2.28-.48-4.8-4-6V240h10.56v.48c-3.48,1.2-4,3.72-4,6Z"/><path class="cls-3" d="M521.18,317.84c0,2.28.48,3.6,5,6v.48h-10.8v-.48c4.56-2.4,5.16-3.72,5.16-6V247.28l-5.16-6.72V240h3.84l55.8,79.8V246.44c0-2.28-.48-3.6-5-6V240h10.8v.48c-4.56,2.4-5.16,3.72-5.16,6v79.32h-.36l-54.12-77.52Z"/><path class="cls-3" d="M620.3,324.32v-.48s.84-.6.84-6.36V246.92c0-6-.84-6.48-.84-6.48V240h61.56c17.39,0,30.83,4.56,30.83,21.24,0,13.32-11.4,20.76-24.23,20.88,10.32.84,20.39,7.68,20.39,20.88s-7.91,21.36-25.31,21.36ZM682.58,282c17.75,0,27.47-6.72,27.47-21.24,0-13.56-9.11-20.28-29.63-20.28H623.78v41.4Zm-58.8,41.88h59.28c16.92,0,23.15-8.64,23.15-20.64,0-13.32-9-20.88-20.51-20.88H623.78Z"/><path class="cls-3" d="M728.29,240.44v43H744c5.53,0,6.49-1.08,8-3h.48v6H752c-1.55-1.56-2.51-2.52-8-2.52H728.29v40h16.55c8.16,0,10.33-.36,12-4.2h.48v4.68H724.57v-.48c.36-.36,1.08-1.56,1.08-8.64V249.08c0-6.12-.48-7.68-1.08-8.64V240h29.15v4.68h-.47c-1.33-2.76-2.53-4.2-9.6-4.2Z"/><path class="cls-3" d="M822,241.76v4.32h-.48c-4.8-4.56-11-5.64-18.12-5.64-21.48,0-38,17.28-38,43.08,0,24.84,16.68,41.76,41,41.76,2.76,0,6.36-.84,7.92-1.92V295c0-9.72-1-11.64-2.76-12.36v-.48h5.28v42.48a43.67,43.67,0,0,1-10.8,1.08c-26,0-43.32-15.48-43.32-42.24,0-27.72,18.48-43.56,41-43.56A85.43,85.43,0,0,1,822,241.76Z"/><path class="cls-3" d="M919,286.4c0,27.84-16.92,39.36-42.48,39.36-26,0-42.72-12.6-42.72-39.36V246.92c0-6-.84-6.48-.84-6.48V240h4.32v.48s-.84.6-.84,6.48V286.4c0,27.12,17.16,37.92,40.08,37.92,24.84,0,42-10.8,42-37.92V252.68c0-5.28-.6-9.84-2.16-12.24V240H921v.48c-1.32,2.52-2,6.48-2,12.12Z"/><path class="cls-3" d="M936.41,317.84c0,2.28.48,3.6,5,6v.48h-10.8v-.48c4.56-2.4,5.16-3.72,5.16-6V247.28l-5.16-6.72V240h3.84l55.8,79.8V246.44c0-2.28-.48-3.6-5-6V240h10.8v.48c-4.56,2.4-5.16,3.72-5.16,6v79.32h-.36l-54.12-77.52Z"/><path class="cls-3" d="M1008.92,325.76a2.64,2.64,0,1,1,2.63-2.64A2.66,2.66,0,0,1,1008.92,325.76Z"/><path class="cls-3" d="M1115.34,307.64H1065.2l-2.85,6.72c-1.07,2.64-1.55,4-1.55,5.16,0,1.92,1.67,3.24,4.28,4.32v.48h-10.33v-.48c2.61-1.32,3.92-3,5.46-6.36l30.41-69.36-1.3-3a7.86,7.86,0,0,0-5.11-4.68V240h6.18l31.72,76.8c1.78,4.44,2.61,5.52,5.46,7.08v.48H1117v-.48c4-1.68,3.21-4.2,2-7.08Zm-49.9-.6h49.66L1091,248.84Z"/><path class="cls-3" d="M1185.11,318.44l-2.38,5.88H1133.9v-.48s.83-.48.83-8.64V246.92c0-6-.83-6.48-.83-6.48V240h4.28v.48s-.83.48-.83,8.64v74.76h33c8.08,0,10.81-1.56,14.26-5.4Zm-10.1-12.6c7.48,0,8.55-1.32,10-4.2h.47v4.68H1158v-.48s.83-.6.83-6.36V246.92c0-6-.83-6.48-.83-6.48V240h4.27v.48s-.83.48-.83,8.64v56.76Z"/><path class="cls-3" d="M1232.62,317.84c0,2.28.6,4.8,4.16,6v.48h-10.69v-.48c3.45-1.2,3.92-3.72,3.92-6v-71.4c0-2.28-.47-4.8-3.92-6V240h10.69v.48c-3.56,1.2-4.16,3.72-4.16,6Z"/><path class="cls-3" d="M223.65,407.84c0,2.28.47,3.6,5,6v.48h-10.7v-.48c4.52-2.4,5.11-3.72,5.11-6V337.28l-5.11-6.72V330h3.81L277,409.76V336.44c0-2.28-.47-3.6-5-6V330h10.69v.48c-4.51,2.4-5.11,3.72-5.11,6v79.32h-.35l-53.58-77.52Z"/><path class="cls-3" d="M289.48,372.68c0-25.56,17.23-44.16,42.89-44.16,28.52,0,43.13,19.44,43.13,43.68,0,25-16.75,43.32-43,43.32C305.76,415.52,289.48,395.84,289.48,372.68Zm43,42.24c27,0,40.16-20.28,40.16-41.16,0-23.76-11.88-44.64-40.4-44.64-26.25,0-39.91,18.12-39.91,42.6C292.34,393.2,305.52,414.92,332.49,414.92Z"/><path class="cls-3" d="M399.44,330.44v77c0,6,.84,6.36.84,6.36v.48H396v-.48s.84-.48.84-8.64V330.44H386.12c-9.72,0-12,.6-12.72,1.8h-.48V330H427.4v2.28h-.48c-.72-1.2-3-1.8-12.72-1.8Zm18.72,77.4c0,2.28.6,4.8,4.2,6v.48h-10.8v-.48c3.48-1.2,4-3.72,4-6V358.52c0-2.28-.48-4.8-4-6V352h10.8v.48c-3.6,1.2-4.2,3.72-4.2,6Z"/><path class="cls-3" d="M482.91,415.28c17.94,0,31.6-7.56,36.47-11.16h.48v2.28c-5,3.48-17.11,9.36-36.95,9.36-26.73,0-51.56-15.84-51.56-43.8,0-27.36,23.76-43.44,51.09-43.44,18.89,0,30.88,5.52,37.3,9.36v3.72h-.47c-6.78-6.24-20-12.6-36.83-12.6C455.11,329,434,346.16,434,372,434,399,456.77,415.28,482.91,415.28Z"/><path class="cls-3" d="M566,414.32H527.58v-.48c3.44-1.2,3.92-3.72,3.92-6v-71.4c0-2.28-.48-4.8-3.92-6V330h33.14l2.5,7-.48.12c-2.61-4.2-4.15-6.48-8.79-6.48H534.11v42.72h23.17c2.26,0,3.56-.48,5.94-5h.47V379h-.47c-2.38-4.56-3.68-5.16-5.94-5.16H534.11v39.84h23.17c4.51,0,8-1.92,11.05-7.68l.47.12Z"/><path class="cls-3" d="M578.23,330h39.56c29.23,0,49.43,16.08,49.43,40.8,0,29.16-20.2,43.56-50.38,43.56H578.23v-.48s.83-.48.83-8.64V336.92c0-6-.83-6.48-.83-6.48Zm37.43,83.88c29.7,0,48.94-14.88,48.94-43.08,0-23.4-19.24-40.32-47.76-40.32H581.68v83.4Z"/><path class="cls-3" d="M770.71,384.8l14,28,40.31-74.88a9.27,9.27,0,0,0,1.2-4.08,4.58,4.58,0,0,0-1.2-3.36V330h5.76v.48c-1.32,1.2-2.52,2.64-4.68,6.6l-42.23,78.72h-.24l-14.28-28.32-14.88,28.32H754l-40.8-76.44c-3.36-6.24-4.56-8-5.76-8.88V330h7.32v.48a3.56,3.56,0,0,0-1.2,2.28c0,1.2.6,2.88,2,5.64l39.72,74.76L769,386.84l-24.12-47.76c-4-7.8-5.64-8.64-5.64-8.64V330h5v.48s0,1.8,3.12,8l23,45.72L794,339.08c1.68-3.24,3-5.88,3-6.84a2,2,0,0,0-.84-1.8V330H800v.48a31.9,31.9,0,0,0-4.44,7Z"/><path class="cls-3" d="M881.11,397.64H830.47l-2.88,6.72c-1.08,2.64-1.56,4-1.56,5.16,0,1.92,1.68,3.24,4.32,4.32v.48H819.91v-.48c2.64-1.32,4-3,5.52-6.36l30.72-69.36-1.32-3a7.92,7.92,0,0,0-5.16-4.68V330h6.24l32,76.8c1.8,4.44,2.63,5.52,5.51,7.08v.48H882.79v-.48c4.08-1.68,3.24-4.2,2-7.08Zm-50.4-.6h50.16l-24.36-58.2Z"/><path class="cls-3" d="M912,365.84l14.76,9c8.16,5,12.36,10.92,12.36,20.16,0,12.12-7.68,20.76-21.84,20.76a30.32,30.32,0,0,1-20.4-7.44l-1.56-7.2h.48c2.28,3.24,3.84,5.4,5.76,7.68,2.88,3.48,8.16,6.24,15.72,6.24,12.84,0,19.68-7.92,19.68-18.84,0-8.28-4-13.8-11.28-18.36l-14.64-9c-7.8-4.8-12.72-10.32-12.72-21s7.56-19.32,21.72-19.32a48.26,48.26,0,0,1,17.16,3l1.44,6.84h-.48a39.78,39.78,0,0,0-3.24-4c-3.48-4-8.52-5.28-14.88-5.28-13.2,0-19.56,7.8-19.56,18.6C900.49,356.6,905.77,362,912,365.84Z"/><path class="cls-3" d="M1026.36,330v4.2h-.48c-.72-1.2-3-3.72-12.72-3.72h-10.44V405.2c0,8.16,1.08,8.64,1.08,8.64v.48H999v-.48s1.08-.48,1.08-8.64V330.44H989.41c-9.72,0-12,2.52-12.72,3.72h-.48V330Z"/><path class="cls-3" d="M1098.79,407.84c0,2.28.6,4.8,4.2,6v.48h-10.8v-.48c3.48-1.2,4-3.72,4-6v-34h-55.67v34c0,2.28.6,4.8,4.19,6v.48h-10.79v-.48c3.48-1.2,4-3.72,4-6v-71.4c0-2.28-.48-4.8-4-6V330h10.79v.48c-3.59,1.2-4.19,3.72-4.19,6v36.84h55.67V336.44c0-2.28-.48-4.8-4-6V330H1103v.48c-3.6,1.2-4.2,3.72-4.2,6Z"/><path class="cls-3" d="M1152.22,414.32h-38.76v-.48c3.48-1.2,4-3.72,4-6v-71.4c0-2.28-.48-4.8-4-6V330h33.48l2.52,7-.48.12c-2.64-4.2-4.2-6.48-8.88-6.48h-20v42.72h23.4c2.28,0,3.6-.48,6-5h.48V379h-.48c-2.4-4.56-3.72-5.16-6-5.16h-23.4v39.84h23.4c4.56,0,8-1.92,11.16-7.68l.48.12Z"/><path class="cls-3" d="M330.08,462.32c11.16.72,21.72,6.72,21.72,20.4,0,14.4-10.44,21.6-26.4,21.6H315.08v-.48c.6-.6,1.08-3.12,1.08-8.64V429.08c0-5.52-.48-8-1.08-8.64V420h12.48c14.64,0,24.24,7.56,24.24,21.48C351.8,454.88,340.28,461.6,330.08,462.32Zm-2.52-41.88H318.8v41.64h7.56c13,0,22.92-7.56,22.92-20.64C349.28,428.6,340.52,420.44,327.56,420.44Zm-1.32,42.24H318.8v41.16H326c14.88,0,23.16-8,23.16-21.12S339.8,462.68,326.24,462.68Z"/><path class="cls-3" d="M401.15,504.32H362.39v-.48c3.48-1.2,4-3.72,4-6v-71.4c0-2.28-.48-4.8-4-6V420h33.48l2.52,7-.48.12c-2.64-4.2-4.2-6.48-8.88-6.48H369v42.72h23.4c2.28,0,3.6-.48,6-5h.48V469h-.48c-2.4-4.56-3.72-5.16-6-5.16H369v39.84h23.4c4.56,0,8-1.92,11.16-7.68l.48.12Z"/><path class="cls-3" d="M469.3,487.64H418.66l-2.88,6.72c-1.08,2.64-1.56,4-1.56,5.16,0,1.92,1.68,3.24,4.32,4.32v.48H408.1v-.48c2.64-1.32,4-3,5.52-6.36l30.72-69.36-1.32-3a7.92,7.92,0,0,0-5.16-4.68V420h6.24l32,76.8c1.8,4.44,2.64,5.52,5.52,7.08v.48H471v-.48c4.08-1.68,3.24-4.2,2-7.08Zm-50.4-.6h50.16l-24.36-58.2Z"/><path class="cls-3" d="M542.93,476c0,18.84-9.72,29.76-29.88,29.76-18.84,0-29.76-9.72-29.76-29.76V426.92c0-6-.84-6.48-.84-6.48V420h4.32v.48s-.84.6-.84,6.48v48.72c0,19.2,9.6,28.32,27.12,28.32,18.24,0,29.28-9.84,29.28-28V431.48c0-4.8-.84-9.48-2-11V420H545v.48c-1.08,1.56-2,6.24-2,11Z"/><path class="cls-3" d="M603,420v4.2h-.48c-.72-1.2-3-3.72-12.72-3.72H579.34V495.2c0,8.16,1.08,8.64,1.08,8.64v.48h-4.8v-.48s1.08-.48,1.08-8.64V420.44H566c-9.72,0-12,2.52-12.72,3.72h-.48V420Z"/><path class="cls-3" d="M641.5,461.48l23.64-34.92a6.34,6.34,0,0,0,1.2-3,3.24,3.24,0,0,0-1.8-3.12V420h5.64v.48c-1.08,1.32-2.88,4-5.16,7.32L641.5,462.44v35.4c0,2.28.48,4.8,4,6v.48H634.9v-.48c3.48-1.2,4-3.72,4-6v-35.4l-23.28-34.32c-4.56-6.72-5.28-7.2-6.6-7.68V420h8.52v.48a2.16,2.16,0,0,0-1.32,2c0,1.08.84,3,3.48,6.84Z"/><path class="cls-3" d="M709.38,462.68c0-25.56,17.22-44.16,42.89-44.16,28.51,0,43.12,19.44,43.12,43.68,0,25-16.75,43.32-43,43.32C725.65,505.52,709.38,485.84,709.38,462.68Zm43,42.24c27,0,40.16-20.28,40.16-41.16,0-23.76-11.88-44.64-40.39-44.64-26.26,0-39.92,18.12-39.92,42.6C712.23,483.2,725.42,504.92,752.38,504.92Z"/><path class="cls-3" d="M809,420.44v43.2h26.85c5.7,0,6.17-.48,6.77-1.56h.47v3.6h-.47c-.6-1-1.07-1.56-6.77-1.56H809V495.2c0,5.76.35,8,.95,8.64v.48h-4.4v-.48s.83-.48.83-8.64V426.92c0-6-.83-6.48-.83-6.48V420h34.57v2.28h-.47c-.72-1.2-3-1.8-12.6-1.8Z"/><path class="cls-3" d="M934.17,420v4.2h-.47c-.72-1.2-3-3.72-12.6-3.72H910.77V495.2c0,8.16,1.07,8.64,1.07,8.64v.48h-4.76v-.48s1.07-.48,1.07-8.64V420.44H897.58c-9.62,0-11.88,2.52-12.59,3.72h-.48V420Z"/><path class="cls-3" d="M1005.88,497.84c0,2.28.59,4.8,4.16,6v.48h-10.7v-.48c3.45-1.2,3.92-3.72,3.92-6v-34H948.14v34c0,2.28.59,4.8,4.16,6v.48H941.61v-.48c3.44-1.2,3.92-3.72,3.92-6v-71.4c0-2.28-.48-4.8-3.92-6V420H952.3v.48c-3.57,1.2-4.16,3.72-4.16,6v36.84h55.12V426.44c0-2.28-.47-4.8-3.92-6V420H1010v.48c-3.57,1.2-4.16,3.72-4.16,6Z"/><path class="cls-3" d="M1058.77,504.32h-38.38v-.48c3.45-1.2,3.92-3.72,3.92-6v-71.4c0-2.28-.47-4.8-3.92-6V420h33.15l2.5,7-.48.12c-2.61-4.2-4.16-6.48-8.79-6.48h-19.84v42.72h23.16c2.26,0,3.57-.48,6-5h.47V469H1056c-2.38-4.56-3.69-5.16-6-5.16h-23.16v39.84h23.16c4.52,0,8-1.92,11.05-7.68l.48.12Z"/><path class="cls-3" d="M452.48,589.52c1.92,3.36,3.72,4.32,6.36,4.32v.48c-4.8,0-7.8-1.8-10.32-6.36l-4.32-7.68c-5.28-9.36-7.92-9.36-23.27-9.36a111.61,111.61,0,0,1-13.08-1v17.88c0,2.28.6,4.8,4.2,6v.48h-10.8v-.48c3.48-1.2,4-3.72,4-6v-71.4c0-2.28-.48-4.8-4-6V510h20.87c18,0,30.84,11.52,30.84,29.52,0,15.12-9.72,27.84-25.56,31h1.8c10.2,0,14.16,2.88,19.08,11.64Zm-44.63-79.08v59a107.83,107.83,0,0,0,13.08,1c18.11,0,29.39-13.2,29.39-31,0-16.08-10.92-29-28.2-29Z"/><path class="cls-3" d="M524.27,577.64H473.63l-2.88,6.72c-1.08,2.64-1.56,4-1.56,5.16,0,1.92,1.68,3.24,4.32,4.32v.48H463.07v-.48c2.64-1.32,4-3,5.52-6.36l30.72-69.36-1.32-3a7.92,7.92,0,0,0-5.16-4.68V510h6.24l32,76.8c1.8,4.44,2.64,5.52,5.52,7.08v.48H526v-.48c4.08-1.68,3.24-4.2,2-7.08Zm-50.4-.6H524l-24.36-58.2Z"/><path class="cls-3" d="M549.52,587.84c0,2.28.48,4.8,3.92,6v.48H543v-.48c3.44-1.2,3.92-3.72,3.92-6v-71.4c0-2.28-.48-4.8-3.92-6V510h10.45v.48c-3.44,1.2-3.92,3.72-3.92,6Z"/><path class="cls-3" d="M567.32,587.84c0,2.28.47,3.6,5,6v.48h-10.7v-.48c4.52-2.4,5.11-3.72,5.11-6V517.28l-5.11-6.72V510h3.81l55.24,79.8V516.44c0-2.28-.48-3.6-5-6V510h10.69v.48c-4.51,2.4-5.11,3.72-5.11,6v79.32h-.35l-53.58-77.52Z"/><path class="cls-3" d="M637.16,510h39.56c29.23,0,49.42,16.08,49.42,40.8,0,29.16-20.19,43.56-50.37,43.56H637.16v-.48s.83-.48.83-8.64V516.92c0-6-.83-6.48-.83-6.48Zm37.42,83.88c29.7,0,48.95-14.88,48.95-43.08,0-23.4-19.25-40.32-47.76-40.32H640.6v83.4Z"/><path class="cls-3" d="M785.72,589.52c1.9,3.36,3.68,4.32,6.3,4.32v.48c-4.76,0-7.73-1.8-10.22-6.36l-4.28-7.68c-5.23-9.36-7.84-9.36-23-9.36a109.5,109.5,0,0,1-13-1v17.88c0,2.28.6,4.8,4.16,6v.48H735v-.48c3.44-1.2,3.92-3.72,3.92-6v-71.4c0-2.28-.48-4.8-3.92-6V510h20.67c17.82,0,30.53,11.52,30.53,29.52,0,15.12-9.62,27.84-25.3,31h1.78c10.1,0,14,2.88,18.89,11.64Zm-44.2-79.08v59a105.76,105.76,0,0,0,13,1c17.94,0,29.11-13.2,29.11-31,0-16.08-10.81-29-27.92-29Z"/><path class="cls-3" d="M794.17,552.68c0-25.56,17.23-44.16,42.89-44.16,28.52,0,43.13,19.44,43.13,43.68,0,25-16.75,43.32-43,43.32C810.45,595.52,794.17,575.84,794.17,552.68Zm43,42.24c27,0,40.16-20.28,40.16-41.16,0-23.76-11.88-44.64-40.4-44.64-26.25,0-39.91,18.12-39.91,42.6C797,573.2,810.21,594.92,837.18,594.92Z"/><path class="cls-3" d="M898.09,570.92h-4.16V585.2c0,8.16,1.31,8.64,1.31,8.64v.48H890v-.48s1.31-.48,1.31-7V517.4c0-6.48-1.31-7-1.31-7V510h8.08a30.16,30.16,0,0,1,30.17,30.24C928.26,557.84,915.32,570.92,898.09,570.92Zm0-60.48h-4.16v60h4.16c16.39,0,27.56-14.52,27.56-30.24S914.13,510.44,898.09,510.44Z"/><path class="cls-3" d="M949.43,545.84l14.61,9c8.08,5,12.24,10.92,12.24,20.16,0,12.12-7.6,20.76-21.62,20.76a29.86,29.86,0,0,1-20.2-7.44l-1.54-7.2h.47c2.26,3.24,3.8,5.4,5.71,7.68,2.85,3.48,8.07,6.24,15.56,6.24,12.71,0,19.48-7.92,19.48-18.84,0-8.28-3.92-13.8-11.16-18.36l-14.5-9c-7.72-4.8-12.59-10.32-12.59-21s7.48-19.32,21.5-19.32a47.32,47.32,0,0,1,17,3l1.43,6.84h-.48a38.52,38.52,0,0,0-3.21-4c-3.44-4-8.43-5.28-14.73-5.28-13.07,0-19.36,7.8-19.36,18.6C938,536.6,943.25,542,949.43,545.84Z"/><path class="cls-2" d="M1007.45,718.08l-3.78,9.91h-1L999,718.08h1.23l3,8.37,3-8.37Z"/><path class="cls-2" d="M1010.32,719.13v3.27H1015v1h-4.69v3.51h5.27v1h-6.42v-9.91h6.42v1Z"/><path class="cls-2" d="M1021.07,723.65h-2V728h-1.16v-9.91h3.81c2.12,0,3.09,1,3.09,2.73a2.51,2.51,0,0,1-2.48,2.71l3,4.47H1024Zm-2-1h2.52c1.35,0,2.06-.66,2.06-1.81s-.74-1.69-2.09-1.69h-2.49Z"/><path class="cls-2" d="M1026.59,725h1.21c.18,1.4,1.15,2.08,2.66,2.08s2.32-.74,2.32-1.7-.55-1.39-1.63-1.65l-2.16-.51a2.45,2.45,0,0,1-2.1-2.51c0-1.6,1.27-2.84,3.32-2.84s3.43.91,3.64,2.94h-1.22a2.15,2.15,0,0,0-2.45-1.91c-1.34,0-2.08.73-2.08,1.66,0,.72.35,1.21,1.41,1.48l2.09.51a2.67,2.67,0,0,1,2.4,2.65c0,1.74-1.27,2.92-3.54,2.92C1028,728.16,1026.78,727,1026.59,725Z"/><path class="cls-2" d="M1037.34,728h-1.15v-9.91h1.15Z"/><path class="cls-2" d="M1039.61,723c0-3.06,1.76-5.13,4.32-5.13s4.32,2.07,4.32,5.13-1.76,5.12-4.32,5.12S1039.61,726.09,1039.61,723Zm7.48,0c0-2.54-1.25-4.1-3.16-4.1s-3.16,1.56-3.16,4.1,1.25,4.08,3.16,4.08S1047.09,725.56,1047.09,723Z"/><path class="cls-2" d="M1058.14,718.08V728h-1.75l-4.77-8.92V728h-1.1v-9.91h1.75l4.79,8.91v-8.91Z"/><path class="cls-2" d="M1060.28,725h1.21c.18,1.4,1.15,2.08,2.66,2.08s2.32-.74,2.32-1.7-.55-1.39-1.63-1.65l-2.16-.51a2.45,2.45,0,0,1-2.1-2.51c0-1.6,1.27-2.84,3.32-2.84s3.43.91,3.64,2.94h-1.22a2.15,2.15,0,0,0-2.45-1.91c-1.34,0-2.08.73-2.08,1.66,0,.72.35,1.21,1.41,1.48l2.09.51a2.67,2.67,0,0,1,2.4,2.65c0,1.74-1.27,2.92-3.54,2.92C1061.71,728.16,1060.47,727,1060.28,725Z"/><path class="cls-2" d="M1076.73,723.65h-2V728h-1.16v-9.91h3.81c2.12,0,3.09,1,3.09,2.73a2.51,2.51,0,0,1-2.49,2.71l3,4.47h-1.3Zm-2-1h2.52c1.35,0,2.06-.66,2.06-1.81s-.74-1.69-2.09-1.69h-2.49Z"/><path class="cls-2" d="M1084.12,719.13v3.27h4.69v1h-4.69v3.51h5.26v1H1083v-9.91h6.41v1Z"/><path class="cls-2" d="M1099.57,722.85V728h-1v-1.81a3.05,3.05,0,0,1-3.06,2c-2.61,0-4.36-2.07-4.36-5.12s1.73-5.13,4.33-5.13a3.68,3.68,0,0,1,3.9,2.84h-1.23a2.55,2.55,0,0,0-2.68-1.81c-1.86,0-3.16,1.56-3.16,4.1s1.27,4.08,3.2,4.08,3-1.26,3-3.23h-3.24v-1Z"/><path class="cls-2" d="M1109.56,724.13c0,2.69-1.49,4-3.83,4s-3.84-1.36-3.84-4v-6H1103v6c0,1.94,1.08,3,2.7,3a2.56,2.56,0,0,0,2.67-2.89v-6.11h1.15Z"/><path class="cls-2" d="M1117.94,726.94v1h-5.63v-9.91h1.17v8.86Z"/><path class="cls-2" d="M1124.93,725.26h-4.09l-1,2.73h-1.23l3.67-9.91h1.24l3.54,9.91h-1.23Zm-.35-1-1.66-4.87-1.72,4.87Z"/><path class="cls-2" d="M1132.06,723.65h-2V728h-1.16v-9.91h3.81c2.12,0,3.09,1,3.09,2.73a2.51,2.51,0,0,1-2.49,2.71l3,4.47H1135Zm-2-1h2.51c1.36,0,2.07-.66,2.07-1.81s-.74-1.69-2.09-1.69h-2.49Z"/><path class="cls-2" d="M1138.48,729.9h-.72a9.07,9.07,0,0,0,.62-1.73l-.18-.1a.83.83,0,0,1-.44-.74.79.79,0,1,1,1.58.07A6.35,6.35,0,0,1,1138.48,729.9Z"/><path class="cls-2" d="M1156.81,718.08,1154,728h-1.13l-2.37-8.25-2.17,8.25h-1.15l-2.93-9.91h1.16l2.33,8.13,2.23-8.13h1.09l2.38,8.14,2.24-8.14Z"/><path class="cls-2" d="M1159.81,728h-1.15v-9.91h1.15Z"/><path class="cls-2" d="M1170.16,723c0,3.05-1.87,5-4.51,5h-3v-9.91h3C1168.29,718.08,1170.16,720,1170.16,723Zm-1.16,0c0-2.48-1.3-3.92-3.53-3.92h-1.65V727h1.65C1167.68,727,1169,725.51,1169,723Z"/><path class="cls-2" d="M1173.74,719.13v3.27h4.69v1h-4.69v3.51H1179v1h-6.41v-9.91H1179v1Z"/><path class="cls-2" d="M1190.15,725.26h-4.09l-1,2.73h-1.23l3.66-9.91h1.25l3.54,9.91h-1.23Zm-.36-1-1.65-4.87-1.72,4.87Z"/><path class="cls-2" d="M1201.72,718.08V728H1200l-4.77-8.92V728h-1.09v-9.91h1.75l4.78,8.91v-8.91Z"/><path class="cls-2" d="M1212.08,723c0,3.05-1.88,5-4.52,5h-3v-9.91h3C1210.2,718.08,1212.08,720,1212.08,723Zm-1.17,0c0-2.48-1.3-3.92-3.52-3.92h-1.66V727h1.66C1209.59,727,1210.91,725.51,1210.91,723Z"/><path class="cls-2" d="M1219.33,719.13v3.27H1224v1h-4.69v3.51h5.26v1h-6.41v-9.91h6.41v1Z"/><path class="cls-2" d="M1232.58,728l-2.8-4.34-2.71,4.34h-1.34l3.35-5.15-3.09-4.76h1.34l2.52,3.94,2.47-3.94h1.34l-3.1,4.68,3.36,5.23Z"/><path class="cls-2" d="M1242,719.1h-3.07V728h-1.15V719.1h-3.09v-1H1242Z"/><path class="cls-2" d="M1245,719.13v3.27h4.69v1H1245v3.51h5.26v1h-6.41v-9.91h6.41v1Z"/><path class="cls-2" d="M1260.21,718.08V728h-1.75l-4.77-8.92V728h-1.1v-9.91h1.75l4.79,8.91v-8.91Z"/><path class="cls-2" d="M1270.56,723c0,3.05-1.87,5-4.51,5h-3v-9.91h3C1268.69,718.08,1270.56,720,1270.56,723Zm-1.16,0c0-2.48-1.3-3.92-3.53-3.92h-1.65V727h1.65C1268.08,727,1269.4,725.51,1269.4,723Z"/><path class="cls-2" d="M1274.14,719.13v3.27h4.69v1h-4.69v3.51h5.26v1H1273v-9.91h6.41v1Z"/><path class="cls-2" d="M1289.21,723c0,3.05-1.88,5-4.51,5h-3v-9.91h3C1287.33,718.08,1289.21,720,1289.21,723Zm-1.17,0c0-2.48-1.29-3.92-3.52-3.92h-1.66V727h1.66C1286.72,727,1288,725.51,1288,723Z"/></g></svg>