<?xml version="1.0" encoding="UTF-8"?><svg id="Layer_1" xmlns="http://www.w3.org/2000/svg" viewBox="0 0 1366 768"><defs><style>.cls-1{fill:#fdfaf5;}.cls-2{fill:#8152db;}</style></defs><rect class="cls-2" x="-62" y="-37" width="1490" height="827"/><g><path class="cls-1" d="M758.91,187.6h-23.87l-47.74-48.39h-11.07v48.39h-16.93V57.4h48.82c33.42,0,47.96,14.1,47.96,38.19,0,25.61-18.23,39.71-47.31,41.23l50.13,50.78Zm-54.68-64.45c21.7,0,33.85-8.68,33.85-25.61,0-15.84-9.33-23.44-32.12-23.44h-29.73v49.04h27.99Z"/><path class="cls-1" d="M816.42,173.93c13.02,0,25.82-4.77,35.59-15.19v16.71c-7.38,9.98-21.48,15.62-36.67,15.62-27.34,0-47.3-18.44-47.3-51.43,0-26.69,11.28-53.16,46.44-53.16,28.86,0,40.58,21.05,40.58,46.22,0,2.6-.22,5.21-.65,8.25h-70.74c.87,21.7,13.67,32.98,32.77,32.98Zm24.52-45.13c-.87-16.06-8.03-28.64-27.34-28.64s-27.34,10.85-29.51,28.64h56.85Z"/><path class="cls-1" d="M898.66,191.07c-12.59,0-26.26-5.42-33.63-14.32v-17.14c8.46,9.76,21.92,15.62,33.2,15.62s19.31-4.56,19.31-13.67c0-7.59-3.91-10.2-12.58-13.24l-19.1-6.73c-12.59-4.34-21.05-12.37-21.05-26.26,0-20.18,15.19-28.86,33.42-28.86,12.8,0,25.39,5.42,32.33,12.8v16.71c-7.38-8.9-18.88-13.24-31.46-13.24-9.98,0-18.44,2.6-18.44,12.37,0,6.73,4.34,11.07,13.89,14.54l18.66,6.94c11.72,4.34,20.18,9.98,20.18,24.96,0,18.23-12.37,29.51-34.72,29.51Z"/></g><g><path class="cls-1" d="M263.16,299.65v42.1c-9.98,19.75-32.12,29.95-57.07,29.95-39.93,0-63.58-27.56-63.58-67.92s23.65-68.79,67.05-68.79c18.01,0,37.76,6.94,48.82,18.88v19.31c-17.14-16.06-30.16-19.96-49.04-19.96-32.98,0-50.13,20.62-50.13,48.82,0,31.46,17.14,51.43,50.13,51.43,16.71,0,30.81-5.64,37.11-14.76v-22.35h-39.28v-16.71h55.98Z"/><path class="cls-1" d="M346.92,305.73v62.49h-15.19v-16.27c-5.86,11.28-15.84,18.44-29.73,18.44-15.84,0-25.61-9.55-25.61-25.61,0-24.95,24.95-31.68,55.33-38.19-.22-15.62-7.16-23.44-23-23.44-11.72,0-22.35,6.94-31.68,18.45v-17.79c8.46-9.55,19.96-16.71,34.29-16.71,26.26,0,35.59,14.76,35.59,38.63Zm-15.19,21.48v-8.03c-23,4.77-37.97,9.11-37.97,23.65,0,8.68,5.64,13.24,14.11,13.24,14.54,0,23.87-11.5,23.87-28.86Z"/><path class="cls-1" d="M455.85,227.17v141.05h-13.67l-.65-16.49c-6.73,11.93-18.66,19.96-35.59,19.96-30.38,0-44.27-23.22-44.27-52.08s14.54-52.51,46-52.51c14.97,0,26.47,6.94,33.42,16.93v-56.85h14.76Zm-14.76,92.87v-.87c0-24.3-13.24-36.24-32.12-36.24-21.27,0-31.9,13.89-31.9,36.89s11.5,36.02,32.77,36.02c18.88,0,31.25-13.67,31.25-35.8Z"/></g><g><path class="cls-1" d="M1035.02,191.07c-12.59,0-26.26-5.42-33.63-14.32v-17.14c8.46,9.76,21.92,15.62,33.2,15.62s19.31-4.56,19.31-13.67c0-7.59-3.91-10.2-12.58-13.24l-19.1-6.73c-12.59-4.34-21.05-12.37-21.05-26.26,0-20.18,15.19-28.86,33.42-28.86,12.8,0,25.39,5.42,32.33,12.8v16.71c-7.38-8.9-18.88-13.24-31.46-13.24-9.98,0-18.44,2.6-18.44,12.37,0,6.73,4.34,11.07,13.89,14.54l18.66,6.94c11.72,4.34,20.18,9.98,20.18,24.96,0,18.23-12.37,29.51-34.72,29.51Z"/><path class="cls-1" d="M1150.25,125.11v62.5h-15.19v-16.27c-5.86,11.28-15.84,18.44-29.73,18.44-15.84,0-25.61-9.55-25.61-25.61,0-24.95,24.95-31.68,55.33-38.19-.22-15.62-7.16-23.44-23-23.44-11.72,0-22.35,6.94-31.68,18.45v-17.79c8.46-9.55,19.96-16.71,34.29-16.71,26.26,0,35.59,14.76,35.59,38.62Zm-15.19,21.48v-8.03c-23,4.77-37.97,9.11-37.97,23.65,0,8.68,5.64,13.24,14.11,13.24,14.54,0,23.87-11.5,23.87-28.86Z"/><path class="cls-1" d="M1252.89,89.95l-62.5,137.57h-11.93l23.44-51.21-39.28-86.36h17.58l28.64,64.23,27.99-64.23h16.06Z"/></g><g><path class="cls-1" d="M553.67,484.57v27.85c-8.96,19.67-28.24,32.13-52.39,32.13-42.84,0-67.97-28.43-67.97-64.46,0-37.98,25.32-68.55,68.94-68.55,16.75,0,30.19,2.34,44.6,6.43l6.62,38.17-3.89,.58c-7.99-23.76-23.95-40.31-50.63-40.31-34.67,0-46.93,27.85-46.93,56.48,0,33.11,15.97,66.6,53.17,66.6,12.66,0,23.76-5.65,30.19-12.46v-36.22l-36.81-3.12v-3.12h55.11Z"/><path class="cls-1" d="M595.92,494.31v32.33c0,8.57,5.26,10.91,20.45,11.49v3.31h-49.86v-3.31c8.37-.78,12.85-2.73,12.85-11.49v-56.87l-11.1-8.96v-2.34l25.51-7.79,2.14,1.36v26.1c.97-3.9,2.14-7.98,5.26-13.05,3.31-5.06,10.52-14.41,29.21-14.41v19.09c-5.06-.97-10.13-1.75-16.16-1.75-13.24,0-18.31,8.37-18.31,26.29Z"/><path class="cls-1" d="M725.43,440.95v16.55h-24.15c7.01,5.45,10.13,13.63,10.13,23.17,0,18.31-12.85,29.21-35.25,29.21-1.75,0-3.51,0-5.26-.2-3.5,2.53-9.93,7.6-9.93,10.13,0,3.31,5.06,3.7,15.97,4.67l23.17,2.14c15.19,1.36,25.32,7.98,25.32,21.62,0,20.25-20.06,35.05-47.32,35.05-23.56,0-37.78-7.01-37.78-22.2,0-9.35,7.01-17.33,19.47-23.18l-5.84-.78c-6.62-.97-10.71-3.7-10.71-7.99,0-5.65,3.7-7.4,22.01-20.45-15.58-3.31-23.56-14.41-23.56-28.43,0-18.5,13.24-29.6,35.44-29.6,7.01,0,12.85,1.17,17.72,3.12l30.58-12.85Zm-61.35,97.37c-5.26,4.87-9.54,11.49-9.54,19.28,0,13.63,10.52,21.23,27.07,21.23s28.63-7.59,28.63-22.4c0-10.13-6.43-14.61-17.33-15.58l-28.82-2.53Zm29.8-52.39c0-17.72-5.45-30.38-18.31-30.58-12.07,.19-15.58,9.35-15.58,19.47,0,18.11,5.65,30.19,18.11,30.19,11.29,0,15.77-7.4,15.77-19.08Z"/></g><g><path class="cls-1" d="M884.98,353.68c-4.28,6.82-11.49,10.91-18.5,10.91-11.1,0-16.75-6.04-18.11-15.19-6.43,10.71-15.97,16.16-26.49,16.16-12.66,0-21.23-7.6-21.23-20.84,0-11.88,8.37-20.45,25.32-24.93,4.67-1.17,14.41-2.92,22.2-4.09v-9.93c0-14.61-3.9-22.59-17.72-22.59-12.46,0-19.86,7.4-26.1,16.94l-3.51-2.14c9.35-16.55,20.84-26.29,36.81-26.29,18.89,0,27.07,10.32,27.07,31.55v39.14c0,7.01,1.75,12.66,9.54,12.66,3.7,0,6.43-1.75,8.76-3.51l1.95,2.14Zm-36.81-14.61v-18.89c-4.09,.58-8.57,1.36-12.85,2.34-11.68,2.53-18.11,9.15-18.11,17.53s4.67,14.22,13.05,14.22,15.58-6.04,17.92-15.19Z"/><path class="cls-1" d="M945.54,274.8h27.46v3.31c-6.04,1.36-7.79,3.51-11.68,12.85l-33.89,80.24c-2.53,5.06-3.51,7.21-6.04,11.88-4.87,9.15-13.63,18.31-32.33,18.31v-19.28c18.11,0,27.46-.2,33.3-11.69l4.09-8.96c-10.91-27.26-19.48-46.93-30.58-74.2-1.75-4.28-4.48-8.57-10.91-9.15v-3.31h37.39v3.31c-8.96,.58-9.15,7.4-5.45,16.55l18.31,46.16,19.67-48.49c3.12-7.59,1.36-12.85-9.35-14.22v-3.31Z"/><path class="cls-1" d="M1120.8,334.2c-4.28,10.71-17.53,31.35-30.77,31.35-5.84,0-8.96-4.67-8.96-11.1,0-3.5,.78-7.79,1.36-10.13l3.5-19.08h-.78c-8.18,22.39-18.3,40.31-33.3,40.31-12.66,0-18.69-11.29-18.69-25.9,0-30.38,14.6-67.96,46.35-67.96,5.06,0,11.29,1.17,17.53,3.12h13.44l-12.27,69.52c-.58,4.87-1.17,7.79,2.34,7.79,4.67,0,12.66-11.68,16.94-19.47l3.31,1.56Zm-27.65-49.66c-3.7-4.87-9.15-9.74-15.97-9.74-20.64,0-28.63,46.15-28.63,61.34,0,12.46,3.31,20.25,9.74,20.25,14.02,0,29.02-39.53,31.94-55.69l2.92-16.16Z"/><path class="cls-1" d="M1206.88,282.99c0,2.92-.78,10.32-2.34,17.92-9.35,46.35-44.98,103.6-77.7,103.6-23.37,0-20.64-22.2-7.98-22.2,10.91,0,10.52,13.63,17.14,13.63,9.93,0,21.81-9.74,32.52-23.56-4.67-22.2-12.46-53.94-18.5-72.64-2.34-6.62-4.48-14.6-7.98-14.6-4.28,0-8.18,9.35-12.46,18.69l-3.31-.78c3.7-10.52,10.32-30.96,21.62-31.35h.39c10.51,0,12.85,14.21,17.72,28.04,6.23,18.89,11.29,42.65,13.83,55.69,10.91-18.3,18.5-39.34,18.5-54.14,0-8.96-7.59-14.8-7.59-21.81,0-3.89,3.12-7.79,7.21-7.79,6.62,0,8.96,5.84,8.96,11.29Z"/><path class="cls-1" d="M1234.34,288.05c0,5.84,2.34,9.74,6.43,14.21l14.8,16.16c4.87,5.26,10.71,12.07,10.71,22.59,0,15-10.91,24.54-27.46,24.54-12.46,0-26.87-3.7-26.87-13.05,0-3.89,2.73-6.62,6.82-6.62,8.57,0,10.32,14.8,23.17,14.8,6.82,0,11.68-4.28,11.68-11.49s-5.84-13.83-10.52-19.08l-12.85-14.41c-5.06-5.65-8.18-12.66-8.18-20.45,0-9.35,7.4-23.56,28.24-23.56,11.88,0,23.17,3.5,23.17,10.71,0,3.7-2.34,6.43-6.62,6.43-8.37,0-10.13-11.68-22-11.68-6.43,0-10.52,4.28-10.52,10.91Z"/></g><g><path class="cls-1" d="M829.14,526.48c0,8.76,4.48,10.71,12.85,11.49v3.31h-42.26v-3.31c8.37-.78,12.85-2.73,12.85-11.49v-105.16l-11.1-12.85v-2.34l25.51-8.96,2.14,1.36v96.2l27.46-22.2c4.67-3.7,7.21-6.62,7.21-9.93,0-3.12-2.53-4.28-5.45-5.26v-3.7h33.88v3.7c-8.57,.97-17.33,5.06-26.09,12.27l-17.14,14.21,42.26,57.45h-19.08l-35.44-47.9-7.59,6.23v26.87Z"/><path class="cls-1" d="M981.23,541.28l-17.53,3.12c-7.79-11.29-18.69-26.29-28.82-40.5l.39-.19c-2.14,.39-4.48,.58-6.82,.78l-6.62,36.8h-15.19l20.64-113.92,1.75-11.29-14.99-6.43,.2-2.53,31.55-5.26,1.17,1.36-4.09,21.42-8.96,49.66c7.59-14.6,17.53-23.76,29.99-23.76,10.32,0,16.16,6.43,16.16,16.36,0,14.6-10.71,26.87-29.02,33.1,9.74,14.41,19.47,28.24,30.18,41.28Zm-52.19-39.53c18.11-2.73,34.86-19.67,34.86-33.88,0-5.45-2.53-8.96-8.18-8.96-9.74,0-19.28,14.22-24.73,31.74l-1.95,11.1Z"/></g><g><path class="cls-1" d="M1137.29,454.73c0,4.87-3.12,8.76-7.4,8.76-5.65,0-7.01-5.45-11.1-5.45-2.73,0-4.67,1.36-6.82,3.7,2.34,3.89,3.7,8.57,3.7,13.83,0,22.59-17.33,33.88-40.12,33.88-1.75,0-3.5-.19-5.06-.39-4.48,3.12-11.29,7.59-11.29,10.71,0,2.92,4.28,3.31,14.61,4.28l22.78,2.14c13.24,1.17,21.62,7.4,21.62,18.69,0,21.03-23.95,38.17-54.91,38.17-19.86,0-30.96-7.01-30.96-18.3,0-13.24,14.41-20.64,27.26-26.09-12.46-.97-16.16-5.26-16.16-9.74s3.31-7.59,7.98-10.91l13.83-9.93c-11.68-3.12-18.69-12.07-18.69-22.78,0-20.84,17.92-35.05,40.31-35.05,9.93,0,17.72,3.12,22.59,8.37,4.28-5.65,10.52-12.27,18.89-12.27,5.65,0,8.96,3.5,8.96,8.37Zm-72.83,84.32c-9.93,5.84-18.69,13.63-18.69,23.56,0,10.52,9.54,15.77,25.12,15.77s30.77-8.96,30.77-25.12c0-7.79-5.45-12.27-15-12.85l-22.2-1.36Zm33.1-70.88c0-6.23-2.53-14.8-11.49-14.8-14.8,0-21.23,22.2-21.23,37.39,0,6.82,2.73,14.99,12.66,14.99,14.02,0,20.06-20.45,20.06-37.58Z"/><path class="cls-1" d="M1221.61,461.55c0,2.92-.78,10.32-2.34,17.92-6.82,33.49-29.21,64.46-53.94,64.46-9.15,0-15.19-7.4-15.19-18.3,0-8.76,10.13-40.31,12.46-54.14,.78-3.5,1.17-7.79-2.14-7.79-4.87,0-12.85,11.68-17.14,19.47l-3.31-1.56c4.28-10.71,17.53-31.35,30.77-31.35,5.84,0,8.96,4.67,8.96,11.1,0,3.5-.78,7.21-1.17,10.13-2.34,15.19-11.68,43.43-11.68,49.85,0,7.21,4.48,11.1,9.54,11.1,19.28,0,36.61-33.49,36.61-52.58,0-8.96-7.59-14.8-7.59-21.81,0-3.89,3.12-7.79,7.21-7.79,6.62,0,8.96,5.84,8.96,11.29Z"/></g><path class="cls-1" d="M692.68,362.91h-18.5l-42.26-111.59c-3.5-8.76-9.54-10.91-18.5-11.68v-4.87h51.22v4.87c-12.07,.97-15.38,3.89-13.05,10.91l32.52,89.19,30.38-75.95-4.48-13.05c-3.31-7.59-8.57-10.32-16.75-11.1v-4.87h50.05v4.87c-10.91,1.36-15.78,4.28-12.85,13.05l28.82,85.69,28.43-85.3c3.31-10.13,2.14-13.24-13.83-13.44v-4.87h37.2v4.87c-9.93,0-14.22,3.12-17.14,11.68l-32.33,94.06,5.84,17.53h-18.11l-32.33-92.12-30.58,74.98,6.23,17.14Z"/><g><path class="cls-1" d="M860.46,242.94v1.43l-4.86,4.38-4.86-4.38v-1.43l4.36,4.01v-8.43h1.02v8.4l4.33-3.98Z"/><path class="cls-1" d="M865.76,245.65h1.3c.19,1.4,1.23,2.09,2.83,2.09,1.69,0,2.48-.74,2.48-1.71,0-.88-.58-1.39-1.74-1.65l-2.3-.51c-1.46-.32-2.25-1.21-2.25-2.51,0-1.6,1.36-2.84,3.54-2.84s3.66,.92,3.88,2.95h-1.3c-.19-1.31-1.15-1.91-2.61-1.91s-2.22,.73-2.22,1.66c0,.71,.36,1.21,1.5,1.47l2.23,.51c1.6,.37,2.55,1.24,2.55,2.66,0,1.74-1.36,2.92-3.78,2.92-2.6,0-3.92-1.12-4.13-3.12Z"/><path class="cls-1" d="M877.22,239.75v3.27h5v1.04h-5v3.5h5.62v1.05h-6.84v-9.91h6.84v1.05h-5.62Z"/><path class="cls-1" d="M888.68,244.27h-2.14v4.33h-1.24v-9.91h4.07c2.26,0,3.3,1.05,3.3,2.73,0,1.49-.82,2.49-2.66,2.71l3.19,4.46h-1.39l-3.14-4.33Zm-2.14-1.04h2.68c1.44,0,2.2-.66,2.2-1.81s-.79-1.69-2.23-1.69h-2.66v3.5Z"/><path class="cls-1" d="M896.56,248.6h-1.23v-9.91h1.23v9.91Z"/><path class="cls-1" d="M900.83,239.75v3.27h4.92v1.04h-4.92v4.55h-1.23v-9.91h6.84v1.05h-5.62Z"/><path class="cls-1" d="M916.04,244.27h-2.14v4.33h-1.24v-9.91h4.07c2.26,0,3.3,1.05,3.3,2.73,0,1.49-.82,2.49-2.66,2.71l3.19,4.46h-1.39l-3.14-4.33Zm-2.14-1.04h2.68c1.44,0,2.2-.66,2.2-1.81s-.79-1.69-2.23-1.69h-2.66v3.5Z"/><path class="cls-1" d="M923.91,239.75v3.27h5v1.04h-5v3.5h5.62v1.05h-6.84v-9.91h6.84v1.05h-5.62Z"/><path class="cls-1" d="M940.39,243.47v5.13h-1.11v-1.81c-.51,1.18-1.55,1.98-3.27,1.98-2.79,0-4.65-2.07-4.65-5.12s1.85-5.13,4.62-5.13c2.06,0,3.57,.88,4.16,2.84h-1.31c-.45-1.17-1.31-1.81-2.86-1.81-1.98,0-3.37,1.56-3.37,4.1s1.36,4.08,3.41,4.08,3.17-1.27,3.18-3.24h-3.46v-1.04h4.65Z"/><path class="cls-1" d="M951.03,244.75c0,2.68-1.59,4.03-4.08,4.03s-4.1-1.36-4.1-4.03v-6.05h1.22v6.05c0,1.94,1.15,2.95,2.89,2.95s2.84-.96,2.84-2.89v-6.11h1.23v6.05Z"/><path class="cls-1" d="M959.97,247.55v1.05h-6.01v-9.91h1.25v8.86h4.75Z"/><path class="cls-1" d="M967.42,245.87h-4.36l-1.04,2.73h-1.31l3.91-9.91h1.33l3.78,9.91h-1.31l-.99-2.73Zm-.38-1.04l-1.76-4.87-1.84,4.87h3.6Z"/><path class="cls-1" d="M975.01,244.27h-2.14v4.33h-1.24v-9.91h4.07c2.26,0,3.3,1.05,3.3,2.73,0,1.49-.82,2.49-2.66,2.71l3.19,4.46h-1.39l-3.14-4.33Zm-2.14-1.04h2.68c1.44,0,2.2-.66,2.2-1.81s-.79-1.69-2.23-1.69h-2.66v3.5Z"/></g><g><path class="cls-1" d="M844.46,57.94v1.43l-4.86,4.38-4.86-4.38v-1.43l4.36,4.01v-8.43h1.02v8.4l4.33-3.98Z"/><path class="cls-1" d="M849.76,60.65h1.3c.19,1.4,1.23,2.09,2.83,2.09,1.69,0,2.48-.74,2.48-1.71,0-.88-.58-1.39-1.74-1.65l-2.3-.51c-1.46-.32-2.25-1.21-2.25-2.51,0-1.6,1.36-2.84,3.54-2.84s3.66,.92,3.88,2.95h-1.3c-.19-1.31-1.15-1.91-2.61-1.91s-2.22,.73-2.22,1.66c0,.71,.36,1.21,1.5,1.47l2.23,.51c1.6,.37,2.55,1.24,2.55,2.66,0,1.74-1.36,2.92-3.78,2.92-2.6,0-3.92-1.12-4.13-3.12Z"/><path class="cls-1" d="M865.5,60.87h-4.36l-1.04,2.73h-1.31l3.91-9.91h1.33l3.78,9.91h-1.31l-.99-2.73Zm-.38-1.04l-1.76-4.87-1.84,4.87h3.6Z"/><path class="cls-1" d="M877.83,53.7v9.91h-1.87l-5.09-8.91v8.91h-1.17v-9.91h1.87l5.11,8.91v-8.91h1.15Z"/><path class="cls-1" d="M880.1,60.65h1.3c.19,1.4,1.23,2.09,2.83,2.09,1.69,0,2.48-.74,2.48-1.71,0-.88-.58-1.39-1.74-1.65l-2.3-.51c-1.46-.32-2.25-1.21-2.25-2.51,0-1.6,1.36-2.84,3.54-2.84s3.66,.92,3.88,2.95h-1.3c-.19-1.31-1.15-1.91-2.61-1.91s-2.22,.73-2.22,1.66c0,.71,.36,1.21,1.5,1.47l2.23,.51c1.6,.37,2.55,1.24,2.55,2.66,0,1.74-1.36,2.92-3.78,2.92-2.6,0-3.92-1.12-4.13-3.12Z"/><path class="cls-1" d="M897.65,59.27h-2.14v4.33h-1.24v-9.91h4.07c2.26,0,3.3,1.05,3.3,2.73,0,1.49-.82,2.49-2.66,2.71l3.19,4.46h-1.39l-3.14-4.33Zm-2.14-1.04h2.68c1.44,0,2.2-.66,2.2-1.81s-.79-1.69-2.23-1.69h-2.66v3.5Z"/><path class="cls-1" d="M905.52,54.75v3.27h5v1.04h-5v3.5h5.62v1.05h-6.84v-9.91h6.84v1.05h-5.62Z"/><path class="cls-1" d="M922,58.47v5.13h-1.11v-1.81c-.51,1.18-1.55,1.98-3.27,1.98-2.79,0-4.65-2.07-4.65-5.12s1.85-5.13,4.62-5.13c2.06,0,3.57,.88,4.16,2.84h-1.31c-.45-1.17-1.31-1.81-2.86-1.81-1.98,0-3.37,1.56-3.37,4.1s1.36,4.08,3.41,4.08,3.17-1.27,3.18-3.24h-3.46v-1.04h4.65Z"/><path class="cls-1" d="M932.64,59.75c0,2.68-1.59,4.03-4.08,4.03s-4.1-1.36-4.1-4.03v-6.05h1.23v6.05c0,1.94,1.15,2.95,2.89,2.95s2.84-.96,2.84-2.89v-6.11h1.23v6.05Z"/><path class="cls-1" d="M941.58,62.55v1.05h-6.01v-9.91h1.25v8.86h4.76Z"/><path class="cls-1" d="M949.03,60.87h-4.36l-1.04,2.73h-1.31l3.91-9.91h1.33l3.78,9.91h-1.31l-.99-2.73Zm-.38-1.04l-1.76-4.87-1.84,4.87h3.6Z"/><path class="cls-1" d="M956.62,59.27h-2.14v4.33h-1.24v-9.91h4.07c2.26,0,3.3,1.05,3.3,2.73,0,1.49-.82,2.49-2.66,2.71l3.19,4.46h-1.39l-3.14-4.33Zm-2.14-1.04h2.68c1.44,0,2.2-.66,2.2-1.81s-.79-1.69-2.23-1.69h-2.66v3.5Z"/></g><g><path class="cls-1" d="M1164.02,62.78h5.85l-1.01,1.02-6.52-.06-.06-6.52,1.02-1.01v5.83l6.42-6.42,.71,.73-6.42,6.42Z"/><path class="cls-1" d="M1175.93,60.65h1.3c.19,1.4,1.23,2.09,2.83,2.09,1.69,0,2.48-.74,2.48-1.71,0-.88-.58-1.39-1.74-1.65l-2.3-.51c-1.46-.32-2.25-1.21-2.25-2.51,0-1.6,1.36-2.84,3.54-2.84s3.66,.92,3.88,2.95h-1.3c-.19-1.31-1.15-1.91-2.61-1.91s-2.22,.73-2.22,1.66c0,.71,.36,1.21,1.5,1.47l2.23,.51c1.6,.37,2.55,1.24,2.55,2.66,0,1.74-1.36,2.92-3.78,2.92-2.6,0-3.92-1.12-4.13-3.12Z"/><path class="cls-1" d="M1191.67,60.87h-4.36l-1.04,2.73h-1.31l3.91-9.91h1.33l3.78,9.91h-1.31l-.99-2.73Zm-.38-1.04l-1.76-4.87-1.84,4.87h3.6Z"/><path class="cls-1" d="M1204,53.7v9.91h-1.87l-5.09-8.91v8.91h-1.17v-9.91h1.87l5.11,8.91v-8.91h1.15Z"/><path class="cls-1" d="M1206.27,60.65h1.3c.19,1.4,1.23,2.09,2.83,2.09,1.69,0,2.48-.74,2.48-1.71,0-.88-.58-1.39-1.74-1.65l-2.3-.51c-1.46-.32-2.25-1.21-2.25-2.51,0-1.6,1.36-2.84,3.54-2.84s3.66,.92,3.88,2.95h-1.3c-.19-1.31-1.15-1.91-2.61-1.91s-2.22,.73-2.22,1.66c0,.71,.36,1.21,1.5,1.47l2.23,.51c1.6,.37,2.55,1.24,2.55,2.66,0,1.74-1.36,2.92-3.78,2.92-2.6,0-3.92-1.12-4.13-3.12Z"/><path class="cls-1" d="M1228.1,60.79c0,1.74-1.02,2.82-3.53,2.82h-4.14v-9.91h3.92c2.26,0,3.3,.98,3.3,2.61,0,1.05-.79,1.91-1.78,2.14,1.36,.19,2.23,1.06,2.23,2.33Zm-6.45-6.05v3.3h2.58c1.37,0,2.17-.63,2.17-1.72,0-1.18-.93-1.58-2.38-1.58h-2.38Zm5.22,6.05c0-1.31-1.02-1.72-2.54-1.72h-2.68v3.5h2.67c1.53,0,2.55-.39,2.55-1.78Z"/><path class="cls-1" d="M1229.91,58.66c0-3.06,1.88-5.13,4.61-5.13s4.61,2.07,4.61,5.13-1.88,5.12-4.61,5.12-4.61-2.07-4.61-5.12Zm7.98,0c0-2.54-1.33-4.1-3.37-4.1s-3.37,1.56-3.37,4.1,1.33,4.08,3.37,4.08,3.37-1.56,3.37-4.08Z"/><path class="cls-1" d="M1247.55,62.55v1.05h-6.01v-9.91h1.25v8.86h4.75Z"/><path class="cls-1" d="M1257.5,58.66c0,3.05-2,4.95-4.81,4.95h-3.18v-9.91h3.18c2.82,0,4.81,1.9,4.81,4.96Zm-1.24,0c0-2.48-1.39-3.92-3.76-3.92h-1.76v7.83h1.76c2.35,0,3.76-1.44,3.76-3.91Z"/></g><g><path class="cls-1" d="M1161.02,247.78h5.85l-1.01,1.02-6.52-.06-.06-6.52,1.02-1.01v5.83l6.42-6.42,.71,.73-6.42,6.42Z"/><path class="cls-1" d="M1172.93,245.65h1.3c.19,1.4,1.23,2.09,2.83,2.09,1.69,0,2.48-.74,2.48-1.71,0-.88-.58-1.39-1.74-1.65l-2.3-.51c-1.46-.32-2.25-1.21-2.25-2.51,0-1.6,1.36-2.84,3.54-2.84s3.66,.92,3.88,2.95h-1.3c-.19-1.31-1.15-1.91-2.61-1.91s-2.22,.73-2.22,1.66c0,.71,.36,1.21,1.5,1.47l2.23,.51c1.6,.37,2.55,1.24,2.55,2.66,0,1.74-1.36,2.92-3.78,2.92-2.6,0-3.92-1.12-4.13-3.12Z"/><path class="cls-1" d="M1184.39,239.75v3.27h5v1.04h-5v3.5h5.62v1.05h-6.84v-9.91h6.84v1.05h-5.62Z"/><path class="cls-1" d="M1195.85,244.27h-2.14v4.33h-1.24v-9.91h4.07c2.26,0,3.3,1.05,3.3,2.73,0,1.49-.82,2.49-2.66,2.71l3.19,4.46h-1.39l-3.14-4.33Zm-2.14-1.04h2.68c1.44,0,2.2-.66,2.2-1.81s-.79-1.69-2.23-1.69h-2.66v3.5Z"/><path class="cls-1" d="M1203.73,248.6h-1.23v-9.91h1.23v9.91Z"/><path class="cls-1" d="M1208,239.75v3.27h4.92v1.04h-4.92v4.55h-1.23v-9.91h6.84v1.05h-5.62Z"/><path class="cls-1" d="M1221.05,248.6h-1.23v-9.91h1.23v9.91Z"/><path class="cls-1" d="M1230.88,239.72h-3.28v8.88h-1.22v-8.88h-3.3v-1.02h7.8v1.02Z"/><path class="cls-1" d="M1238.4,245.87h-4.36l-1.04,2.73h-1.31l3.91-9.91h1.33l3.78,9.91h-1.31l-.99-2.73Zm-.38-1.04l-1.76-4.87-1.84,4.87h3.6Z"/><path class="cls-1" d="M1248.62,247.55v1.05h-6.01v-9.91h1.25v8.86h4.75Z"/><path class="cls-1" d="M1251.8,248.6h-1.23v-9.91h1.23v9.91Z"/><path class="cls-1" d="M1254.21,243.66c0-2.99,1.81-5.13,4.59-5.13,2.61,0,3.82,1.34,4.22,3.34h-1.3c-.35-1.6-1.3-2.3-2.92-2.3-1.87,0-3.35,1.6-3.35,4.1s1.49,4.08,3.35,4.08c1.58,0,2.54-.66,2.93-2.29h1.3c-.44,2.09-1.66,3.33-4.23,3.33-2.77,0-4.59-2.13-4.59-5.12Z"/></g><g><path class="cls-1" d="M1125.02,426.78h5.85l-1.01,1.02-6.52-.06-.06-6.52,1.02-1.01v5.83l6.42-6.42,.71,.73-6.42,6.42Z"/><path class="cls-1" d="M1136.93,424.65h1.3c.19,1.4,1.23,2.09,2.83,2.09,1.69,0,2.48-.74,2.48-1.71,0-.88-.58-1.39-1.74-1.65l-2.3-.51c-1.46-.32-2.25-1.21-2.25-2.51,0-1.6,1.36-2.84,3.54-2.84s3.66,.92,3.88,2.95h-1.3c-.19-1.31-1.15-1.91-2.61-1.91s-2.22,.73-2.22,1.66c0,.71,.36,1.21,1.5,1.47l2.23,.51c1.6,.37,2.55,1.24,2.55,2.66,0,1.74-1.36,2.92-3.78,2.92-2.6,0-3.92-1.12-4.13-3.12Z"/><path class="cls-1" d="M1148.39,418.75v3.27h5v1.04h-5v3.5h5.62v1.05h-6.84v-9.91h6.84v1.05h-5.62Z"/><path class="cls-1" d="M1159.85,423.27h-2.14v4.33h-1.24v-9.91h4.07c2.26,0,3.3,1.05,3.3,2.73,0,1.49-.82,2.49-2.66,2.71l3.19,4.46h-1.39l-3.14-4.33Zm-2.14-1.04h2.68c1.44,0,2.2-.66,2.2-1.81s-.79-1.69-2.23-1.69h-2.66v3.5Z"/><path class="cls-1" d="M1167.73,427.6h-1.23v-9.91h1.23v9.91Z"/><path class="cls-1" d="M1172,418.75v3.27h4.92v1.04h-4.92v4.55h-1.23v-9.91h6.84v1.05h-5.62Z"/><path class="cls-1" d="M1185.05,427.6h-1.23v-9.91h1.23v9.91Z"/><path class="cls-1" d="M1194.88,418.72h-3.28v8.88h-1.22v-8.88h-3.3v-1.02h7.8v1.02Z"/><path class="cls-1" d="M1202.4,424.87h-4.36l-1.04,2.73h-1.31l3.91-9.91h1.33l3.78,9.91h-1.31l-.99-2.73Zm-.38-1.04l-1.76-4.87-1.84,4.87h3.6Z"/><path class="cls-1" d="M1212.62,426.55v1.05h-6.01v-9.91h1.25v8.86h4.75Z"/><path class="cls-1" d="M1215.8,427.6h-1.23v-9.91h1.23v9.91Z"/><path class="cls-1" d="M1218.21,422.66c0-2.99,1.81-5.13,4.59-5.13,2.61,0,3.82,1.34,4.22,3.34h-1.3c-.35-1.6-1.3-2.3-2.92-2.3-1.87,0-3.35,1.6-3.35,4.1s1.49,4.08,3.35,4.08c1.58,0,2.54-.66,2.93-2.29h1.3c-.44,2.09-1.66,3.33-4.23,3.33-2.77,0-4.59-2.13-4.59-5.12Z"/></g><g><path class="cls-1" d="M499.64,312.41h-8.1l3.98,4.33h-1.43l-4.38-4.86,4.38-4.86h1.43l-4.01,4.36h8.13v1.02Z"/><path class="cls-1" d="M505,313.65h1.3c.19,1.4,1.23,2.09,2.83,2.09,1.69,0,2.48-.74,2.48-1.71,0-.88-.58-1.39-1.74-1.65l-2.3-.51c-1.46-.32-2.25-1.21-2.25-2.51,0-1.6,1.36-2.84,3.54-2.84s3.66,.92,3.88,2.95h-1.3c-.19-1.31-1.15-1.91-2.61-1.91s-2.22,.73-2.22,1.66c0,.71,.36,1.21,1.5,1.47l2.23,.51c1.6,.37,2.55,1.24,2.55,2.66,0,1.74-1.36,2.92-3.78,2.92-2.6,0-3.92-1.12-4.13-3.12Z"/><path class="cls-1" d="M520.73,313.87h-4.36l-1.04,2.73h-1.31l3.91-9.91h1.33l3.78,9.91h-1.31l-.99-2.73Zm-.38-1.04l-1.76-4.87-1.84,4.87h3.6Z"/><path class="cls-1" d="M533.07,306.7v9.91h-1.87l-5.09-8.91v8.91h-1.17v-9.91h1.87l5.11,8.91v-8.91h1.15Z"/><path class="cls-1" d="M535.34,313.65h1.3c.19,1.4,1.23,2.09,2.83,2.09,1.69,0,2.48-.74,2.48-1.71,0-.88-.58-1.39-1.74-1.65l-2.3-.51c-1.46-.32-2.25-1.21-2.25-2.51,0-1.6,1.36-2.84,3.54-2.84s3.66,.92,3.88,2.95h-1.3c-.19-1.31-1.15-1.91-2.61-1.91s-2.22,.73-2.22,1.66c0,.71,.36,1.21,1.5,1.47l2.23,.51c1.6,.37,2.55,1.24,2.55,2.66,0,1.74-1.36,2.92-3.78,2.92-2.6,0-3.92-1.12-4.13-3.12Z"/><path class="cls-1" d="M552.88,312.27h-2.14v4.33h-1.24v-9.91h4.07c2.26,0,3.3,1.05,3.3,2.73,0,1.49-.82,2.49-2.66,2.71l3.19,4.46h-1.39l-3.14-4.33Zm-2.14-1.04h2.68c1.44,0,2.2-.66,2.2-1.81s-.79-1.69-2.23-1.69h-2.66v3.5Z"/><path class="cls-1" d="M560.75,307.75v3.27h5v1.04h-5v3.5h5.62v1.05h-6.84v-9.91h6.84v1.05h-5.62Z"/><path class="cls-1" d="M577.23,311.47v5.13h-1.11v-1.81c-.51,1.18-1.55,1.98-3.27,1.98-2.79,0-4.65-2.07-4.65-5.12s1.85-5.13,4.62-5.13c2.06,0,3.57,.88,4.16,2.84h-1.31c-.45-1.17-1.31-1.81-2.86-1.81-1.98,0-3.37,1.56-3.37,4.1s1.36,4.08,3.41,4.08,3.17-1.27,3.18-3.24h-3.46v-1.04h4.65Z"/><path class="cls-1" d="M587.87,312.75c0,2.68-1.59,4.03-4.08,4.03s-4.1-1.36-4.1-4.03v-6.05h1.22v6.05c0,1.94,1.15,2.95,2.89,2.95s2.84-.96,2.84-2.89v-6.11h1.23v6.05Z"/><path class="cls-1" d="M596.81,315.55v1.05h-6.01v-9.91h1.25v8.86h4.75Z"/><path class="cls-1" d="M604.26,313.87h-4.36l-1.04,2.73h-1.31l3.91-9.91h1.33l3.78,9.91h-1.31l-.99-2.73Zm-.38-1.04l-1.76-4.87-1.84,4.87h3.6Z"/><path class="cls-1" d="M611.85,312.27h-2.14v4.33h-1.24v-9.91h4.07c2.26,0,3.3,1.05,3.3,2.73,0,1.49-.82,2.49-2.66,2.71l3.19,4.46h-1.39l-3.14-4.33Zm-2.14-1.04h2.68c1.44,0,2.2-.66,2.2-1.81s-.79-1.69-2.23-1.69h-2.66v3.5Z"/></g><g><path class="cls-1" d="M615.46,421.94v1.43l-4.86,4.38-4.86-4.38v-1.43l4.36,4.01v-8.43h1.02v8.4l4.33-3.98Z"/><path class="cls-1" d="M620.76,424.65h1.3c.19,1.4,1.23,2.09,2.83,2.09,1.69,0,2.48-.74,2.48-1.71,0-.88-.58-1.39-1.74-1.65l-2.3-.51c-1.46-.32-2.25-1.21-2.25-2.51,0-1.6,1.36-2.84,3.54-2.84s3.66,.92,3.88,2.95h-1.3c-.19-1.31-1.15-1.91-2.61-1.91s-2.22,.73-2.22,1.66c0,.71,.36,1.21,1.5,1.47l2.23,.51c1.6,.37,2.55,1.24,2.55,2.66,0,1.74-1.36,2.92-3.78,2.92-2.6,0-3.92-1.12-4.13-3.12Z"/><path class="cls-1" d="M632.22,418.75v3.27h5v1.04h-5v3.5h5.62v1.05h-6.84v-9.91h6.84v1.05h-5.62Z"/><path class="cls-1" d="M643.68,423.27h-2.14v4.33h-1.24v-9.91h4.07c2.26,0,3.3,1.05,3.3,2.73,0,1.49-.82,2.49-2.66,2.71l3.19,4.46h-1.39l-3.14-4.33Zm-2.14-1.04h2.68c1.44,0,2.2-.66,2.2-1.81s-.79-1.69-2.23-1.69h-2.66v3.5Z"/><path class="cls-1" d="M651.56,427.6h-1.23v-9.91h1.23v9.91Z"/><path class="cls-1" d="M655.83,418.75v3.27h4.92v1.04h-4.92v4.55h-1.23v-9.91h6.84v1.05h-5.62Z"/><path class="cls-1" d="M671.04,423.27h-2.14v4.33h-1.24v-9.91h4.07c2.26,0,3.3,1.05,3.3,2.73,0,1.49-.82,2.49-2.66,2.71l3.19,4.46h-1.39l-3.14-4.33Zm-2.14-1.04h2.68c1.44,0,2.2-.66,2.2-1.81s-.79-1.69-2.23-1.69h-2.66v3.5Z"/><path class="cls-1" d="M678.91,418.75v3.27h5v1.04h-5v3.5h5.62v1.05h-6.84v-9.91h6.84v1.05h-5.62Z"/><path class="cls-1" d="M695.39,422.47v5.13h-1.11v-1.81c-.51,1.18-1.55,1.98-3.27,1.98-2.79,0-4.65-2.07-4.65-5.12s1.85-5.13,4.62-5.13c2.06,0,3.57,.88,4.16,2.84h-1.31c-.45-1.17-1.31-1.81-2.86-1.81-1.98,0-3.37,1.56-3.37,4.1s1.36,4.08,3.41,4.08,3.17-1.27,3.18-3.24h-3.46v-1.04h4.65Z"/><path class="cls-1" d="M706.03,423.75c0,2.68-1.59,4.03-4.08,4.03s-4.1-1.36-4.1-4.03v-6.05h1.22v6.05c0,1.94,1.15,2.95,2.89,2.95s2.84-.96,2.84-2.89v-6.11h1.23v6.05Z"/><path class="cls-1" d="M714.97,426.55v1.05h-6.01v-9.91h1.25v8.86h4.75Z"/><path class="cls-1" d="M722.42,424.87h-4.36l-1.04,2.73h-1.31l3.91-9.91h1.33l3.78,9.91h-1.31l-.99-2.73Zm-.38-1.04l-1.76-4.87-1.84,4.87h3.6Z"/><path class="cls-1" d="M730.01,423.27h-2.14v4.33h-1.24v-9.91h4.07c2.26,0,3.3,1.05,3.3,2.73,0,1.49-.82,2.49-2.66,2.71l3.19,4.46h-1.39l-3.14-4.33Zm-2.14-1.04h2.68c1.44,0,2.2-.66,2.2-1.81s-.79-1.69-2.23-1.69h-2.66v3.5Z"/></g></svg>