<?xml version="1.0" encoding="UTF-8"?><svg id="Layer_1" xmlns="http://www.w3.org/2000/svg" viewBox="0 0 1366 768"><defs><style>.cls-1{fill:#fdfaf5;}.cls-2{fill:#1a26cd;}.cls-3{fill:#2b2b2a;}</style></defs><rect class="cls-1" x="-39.27" y="-79.94" width="1446.07" height="930.38"/><g><path class="cls-2" d="M79.41,727.99h-1.15v-9.91h1.15v9.91Z"/><path class="cls-2" d="M88.62,719.1h-3.08v8.88h-1.15v-8.88h-3.09v-1.02h7.31v1.02Z"/><path class="cls-2" d="M95.68,725.26h-4.09l-.97,2.73h-1.23l3.66-9.91h1.24l3.54,9.91h-1.23l-.93-2.73Zm-.36-1.04l-1.65-4.87-1.72,4.87h3.38Z"/><path class="cls-2" d="M105.27,726.94v1.05h-5.63v-9.91h1.18v8.86h4.46Z"/><path class="cls-2" d="M108.25,727.99h-1.15v-9.91h1.15v9.91Z"/><path class="cls-2" d="M116.27,725.26h-4.09l-.97,2.73h-1.23l3.66-9.91h1.24l3.54,9.91h-1.23l-.93-2.73Zm-.36-1.04l-1.65-4.87-1.72,4.87h3.38Z"/><path class="cls-2" d="M127.84,718.08v9.91h-1.75l-4.77-8.91v8.91h-1.09v-9.91h1.75l4.79,8.91v-8.91h1.08Z"/><path class="cls-2" d="M141.57,725.17c0,1.74-.96,2.82-3.31,2.82h-3.88v-9.91h3.68c2.12,0,3.09,.98,3.09,2.61,0,1.05-.74,1.91-1.67,2.14,1.27,.19,2.09,1.06,2.09,2.33Zm-6.04-6.05v3.3h2.42c1.29,0,2.04-.63,2.04-1.72,0-1.18-.88-1.58-2.23-1.58h-2.23Zm4.89,6.05c0-1.31-.96-1.72-2.38-1.72h-2.52v3.5h2.5c1.44,0,2.39-.39,2.39-1.78Z"/><path class="cls-2" d="M143.27,723.04c0-3.06,1.76-5.13,4.32-5.13s4.32,2.07,4.32,5.13-1.76,5.12-4.32,5.12-4.32-2.07-4.32-5.12Zm7.48,0c0-2.54-1.24-4.1-3.16-4.1s-3.16,1.56-3.16,4.1,1.24,4.08,3.16,4.08,3.16-1.56,3.16-4.08Z"/><path class="cls-2" d="M159.82,726.94v1.05h-5.63v-9.91h1.18v8.86h4.46Z"/><path class="cls-2" d="M169.15,723.04c0,3.05-1.87,4.95-4.51,4.95h-2.98v-9.91h2.98c2.64,0,4.51,1.9,4.51,4.96Zm-1.16,0c0-2.48-1.3-3.92-3.53-3.92h-1.65v7.83h1.65c2.2,0,3.53-1.44,3.53-3.91Z"/><path class="cls-2" d="M189.5,724.73h-11.55v-1.05h11.55v1.05Z"/><path class="cls-2" d="M201.1,718.08v9.91h-1.18v-7.8c-.48,.47-1.11,.63-2.12,.63v-1.02c1.59-.06,2.06-.69,2.3-1.71h1Z"/><path class="cls-2" d="M210.06,724.76c0,2.03-1.29,3.4-3.21,3.4-2.67,0-3.43-2.52-3.43-5.21,0-3.53,1.71-5.05,3.57-5.05,1.74,0,2.68,.92,2.93,2.54h-1.16c-.19-.96-.75-1.49-1.76-1.49-1.56,0-2.43,1.56-2.43,3.71v.2c.45-.89,1.27-1.39,2.41-1.39,1.96,0,3.1,1.43,3.1,3.28Zm-1.13,0c0-1.17-.67-2.23-2.04-2.23s-2.13,1.07-2.13,2.23,.77,2.35,2.13,2.35,2.04-1.18,2.04-2.35Z"/><path class="cls-2" d="M211.8,723.05c0-2.99,1.37-5.15,3.71-5.15s3.71,2.16,3.71,5.15-1.37,5.11-3.71,5.11-3.71-2.12-3.71-5.11Zm6.28,0c0-2.48-.9-4.07-2.57-4.07s-2.57,1.59-2.57,4.07,.9,4.03,2.57,4.03,2.57-1.55,2.57-4.03Z"/><path class="cls-2" d="M232.11,720.84c0,1.63-1.05,2.82-3.17,2.82h-2.57v4.33h-1.16v-9.91h3.83c2.12,0,3.08,1.05,3.08,2.76Zm-1.16,0c0-1.11-.64-1.72-2.11-1.72h-2.47v3.5h2.47c1.46,0,2.11-.71,2.11-1.78Z"/><path class="cls-2" d="M240.48,719.1h-3.08v8.88h-1.15v-8.88h-3.09v-1.02h7.31v1.02Z"/><path class="cls-2" d="M241.66,725.04h1.22c.18,1.4,1.15,2.09,2.65,2.09,1.59,0,2.32-.74,2.32-1.71,0-.88-.55-1.39-1.63-1.65l-2.16-.51c-1.37-.32-2.11-1.21-2.11-2.51,0-1.6,1.27-2.84,3.32-2.84s3.43,.92,3.64,2.95h-1.22c-.18-1.31-1.08-1.91-2.45-1.91s-2.08,.73-2.08,1.66c0,.71,.34,1.21,1.41,1.47l2.09,.51c1.5,.37,2.39,1.24,2.39,2.66,0,1.74-1.27,2.92-3.54,2.92-2.43,0-3.68-1.12-3.87-3.12Z"/></g><g><path class="cls-2" d="M1008.45,718.08l-3.77,9.91h-1.03l-3.68-9.91h1.23l2.98,8.37,3.04-8.37h1.23Z"/><path class="cls-2" d="M1011.32,719.13v3.27h4.69v1.04h-4.69v3.5h5.26v1.05h-6.41v-9.91h6.41v1.05h-5.26Z"/><path class="cls-2" d="M1022.07,723.65h-2.01v4.33h-1.16v-9.91h3.81c2.12,0,3.09,1.05,3.09,2.73,0,1.49-.77,2.49-2.49,2.71l2.99,4.46h-1.3l-2.94-4.33Zm-2.01-1.04h2.52c1.35,0,2.06-.66,2.06-1.81s-.74-1.69-2.09-1.69h-2.49v3.5Z"/><path class="cls-2" d="M1027.59,725.04h1.22c.18,1.4,1.15,2.09,2.65,2.09,1.59,0,2.32-.74,2.32-1.71,0-.88-.55-1.39-1.63-1.65l-2.16-.51c-1.37-.32-2.11-1.21-2.11-2.51,0-1.6,1.27-2.84,3.32-2.84s3.43,.92,3.64,2.95h-1.22c-.18-1.31-1.08-1.91-2.45-1.91s-2.08,.73-2.08,1.66c0,.71,.34,1.21,1.41,1.47l2.09,.51c1.5,.37,2.39,1.24,2.39,2.66,0,1.74-1.27,2.92-3.54,2.92-2.43,0-3.68-1.12-3.87-3.12Z"/><path class="cls-2" d="M1038.34,727.99h-1.15v-9.91h1.15v9.91Z"/><path class="cls-2" d="M1040.61,723.04c0-3.06,1.76-5.13,4.32-5.13s4.32,2.07,4.32,5.13-1.76,5.12-4.32,5.12-4.32-2.07-4.32-5.12Zm7.48,0c0-2.54-1.24-4.1-3.16-4.1s-3.16,1.56-3.16,4.1,1.24,4.08,3.16,4.08,3.16-1.56,3.16-4.08Z"/><path class="cls-2" d="M1059.14,718.08v9.91h-1.75l-4.77-8.91v8.91h-1.09v-9.91h1.75l4.79,8.91v-8.91h1.08Z"/><path class="cls-2" d="M1061.28,725.04h1.22c.18,1.4,1.15,2.09,2.65,2.09,1.59,0,2.32-.74,2.32-1.71,0-.88-.55-1.39-1.63-1.65l-2.16-.51c-1.37-.32-2.11-1.21-2.11-2.51,0-1.6,1.27-2.84,3.32-2.84s3.43,.92,3.64,2.95h-1.22c-.18-1.31-1.08-1.91-2.45-1.91s-2.08,.73-2.08,1.66c0,.71,.34,1.21,1.41,1.47l2.09,.51c1.5,.37,2.39,1.24,2.39,2.66,0,1.74-1.27,2.92-3.54,2.92-2.43,0-3.68-1.12-3.87-3.12Z"/><path class="cls-2" d="M1077.73,723.65h-2.01v4.33h-1.16v-9.91h3.81c2.12,0,3.09,1.05,3.09,2.73,0,1.49-.77,2.49-2.49,2.71l2.99,4.46h-1.3l-2.94-4.33Zm-2.01-1.04h2.52c1.35,0,2.06-.66,2.06-1.81s-.74-1.69-2.09-1.69h-2.49v3.5Z"/><path class="cls-2" d="M1085.12,719.13v3.27h4.69v1.04h-4.69v3.5h5.26v1.05h-6.41v-9.91h6.41v1.05h-5.26Z"/><path class="cls-2" d="M1100.57,722.85v5.13h-1.04v-1.81c-.48,1.18-1.45,1.98-3.06,1.98-2.61,0-4.36-2.07-4.36-5.12s1.74-5.13,4.33-5.13c1.93,0,3.35,.88,3.9,2.84h-1.23c-.42-1.17-1.23-1.81-2.68-1.81-1.86,0-3.16,1.56-3.16,4.1s1.27,4.08,3.2,4.08,2.97-1.27,2.98-3.24h-3.24v-1.04h4.36Z"/><path class="cls-2" d="M1110.56,724.13c0,2.68-1.49,4.03-3.83,4.03s-3.84-1.36-3.84-4.03v-6.05h1.15v6.05c0,1.94,1.08,2.95,2.71,2.95s2.67-.96,2.67-2.89v-6.11h1.15v6.05Z"/><path class="cls-2" d="M1118.94,726.94v1.05h-5.63v-9.91h1.18v8.86h4.46Z"/><path class="cls-2" d="M1125.93,725.26h-4.09l-.97,2.73h-1.23l3.66-9.91h1.24l3.54,9.91h-1.23l-.93-2.73Zm-.36-1.04l-1.65-4.87-1.72,4.87h3.38Z"/><path class="cls-2" d="M1133.06,723.65h-2.01v4.33h-1.16v-9.91h3.81c2.12,0,3.09,1.05,3.09,2.73,0,1.49-.77,2.49-2.49,2.71l2.99,4.46h-1.3l-2.94-4.33Zm-2.01-1.04h2.52c1.35,0,2.06-.66,2.06-1.81s-.74-1.69-2.09-1.69h-2.49v3.5Z"/><path class="cls-2" d="M1139.48,729.9h-.71c.34-.8,.49-1.2,.62-1.72l-.18-.1c-.26-.15-.44-.41-.44-.74,0-.47,.36-.83,.79-.83s.78,.32,.78,.91c0,.51-.25,1.28-.86,2.49Z"/><path class="cls-2" d="M1157.81,718.08l-2.8,9.91h-1.13l-2.37-8.24-2.17,8.24h-1.15l-2.93-9.91h1.16l2.32,8.13,2.23-8.13h1.09l2.38,8.14,2.24-8.14h1.12Z"/><path class="cls-2" d="M1160.81,727.99h-1.15v-9.91h1.15v9.91Z"/><path class="cls-2" d="M1171.16,723.04c0,3.05-1.87,4.95-4.51,4.95h-2.98v-9.91h2.98c2.64,0,4.51,1.9,4.51,4.96Zm-1.16,0c0-2.48-1.3-3.92-3.53-3.92h-1.65v7.83h1.65c2.2,0,3.53-1.44,3.53-3.91Z"/><path class="cls-2" d="M1174.74,719.13v3.27h4.69v1.04h-4.69v3.5h5.26v1.05h-6.41v-9.91h6.41v1.05h-5.26Z"/><path class="cls-2" d="M1191.15,725.26h-4.09l-.97,2.73h-1.23l3.66-9.91h1.24l3.54,9.91h-1.23l-.93-2.73Zm-.36-1.04l-1.65-4.87-1.72,4.87h3.38Z"/><path class="cls-2" d="M1202.72,718.08v9.91h-1.75l-4.77-8.91v8.91h-1.09v-9.91h1.75l4.79,8.91v-8.91h1.08Z"/><path class="cls-2" d="M1213.08,723.04c0,3.05-1.87,4.95-4.51,4.95h-2.98v-9.91h2.98c2.64,0,4.51,1.9,4.51,4.96Zm-1.16,0c0-2.48-1.3-3.92-3.53-3.92h-1.65v7.83h1.65c2.2,0,3.53-1.44,3.53-3.91Z"/><path class="cls-2" d="M1220.33,719.13v3.27h4.69v1.04h-4.69v3.5h5.26v1.05h-6.41v-9.91h6.41v1.05h-5.26Z"/><path class="cls-2" d="M1233.58,727.99l-2.8-4.33-2.71,4.33h-1.34l3.35-5.15-3.09-4.76h1.34l2.52,3.94,2.47-3.94h1.34l-3.1,4.68,3.36,5.22h-1.34Z"/><path class="cls-2" d="M1242.96,719.1h-3.08v8.88h-1.15v-8.88h-3.09v-1.02h7.31v1.02Z"/><path class="cls-2" d="M1246.02,719.13v3.27h4.69v1.04h-4.69v3.5h5.26v1.05h-6.41v-9.91h6.41v1.05h-5.26Z"/><path class="cls-2" d="M1261.21,718.08v9.91h-1.75l-4.77-8.91v8.91h-1.09v-9.91h1.75l4.79,8.91v-8.91h1.08Z"/><path class="cls-2" d="M1271.56,723.04c0,3.05-1.87,4.95-4.51,4.95h-2.98v-9.91h2.98c2.64,0,4.51,1.9,4.51,4.96Zm-1.16,0c0-2.48-1.3-3.92-3.53-3.92h-1.65v7.83h1.65c2.2,0,3.53-1.44,3.53-3.91Z"/><path class="cls-2" d="M1275.14,719.13v3.27h4.69v1.04h-4.69v3.5h5.26v1.05h-6.41v-9.91h6.41v1.05h-5.26Z"/><path class="cls-2" d="M1290.21,723.04c0,3.05-1.87,4.95-4.51,4.95h-2.98v-9.91h2.98c2.64,0,4.51,1.9,4.51,4.96Zm-1.16,0c0-2.48-1.3-3.92-3.53-3.92h-1.65v7.83h1.65c2.2,0,3.53-1.44,3.53-3.91Z"/></g><g><path class="cls-3" d="M478.29,148.22l35.5,36.84-4.45,4.64,35.87-41.48h12.5v.3c-.98,.33-1.73,.91-2.26,1.74-.53,.83-.79,2-.79,3.51v31.17c0,1.91,.26,3.32,.79,4.21,.53,.9,1.28,1.44,2.26,1.65v.3h-16.04v-.3c1.14-.2,2.01-.74,2.62-1.62,.61-.87,.92-2.29,.92-4.24v-36.36h.43l-37.51,43.43h-.3l-38.43-40.02,.37-.31v32.15c0,1.22,.18,2.34,.55,3.35,.37,1.02,.97,1.85,1.8,2.5,.83,.65,1.9,1.02,3.2,1.1v.3h-10.61v-.3c.98-.08,1.8-.39,2.47-.92s1.18-1.3,1.53-2.32c.34-1.02,.52-2.26,.52-3.72v-29.46c0-1.71-.35-2.99-1.04-3.84-.69-.85-1.85-1.52-3.48-2.01v-.3h13.6Z"/><path class="cls-3" d="M559.42,148.22h17.75v.24c-1.59,.45-2.67,1.16-3.26,2.13-.59,.98-.88,2.24-.88,3.78v30.56c0,1.55,.29,2.81,.88,3.78,.59,.98,1.68,1.69,3.26,2.13v.24h-17.75v-.24c1.59-.45,2.67-1.16,3.26-2.13,.59-.98,.88-2.24,.88-3.78v-30.56c0-1.54-.3-2.81-.88-3.78-.59-.98-1.68-1.69-3.26-2.13v-.24Z"/><path class="cls-3" d="M595.34,172.37c-5.29-.57-9.29-1.69-12.02-3.36-2.72-1.67-4.09-4.41-4.09-8.24,0-3.05,1-5.53,2.99-7.44,1.99-1.91,5.45-3.36,10.37-4.36,4.92-1,11.75-1.5,20.5-1.5,6.59,0,12.81,.31,18.67,.92,5.86,.61,10.67,1.57,14.46,2.87l.92,6.47-.37,.06c-1.18-3.82-4.95-6.41-11.32-7.75-6.37-1.34-13.82-2.01-22.36-2.01-9.03,0-16.01,.6-20.95,1.8-4.94,1.2-7.41,3.51-7.41,6.92,0,1.71,.48,3.01,1.43,3.9,.96,.9,2.27,1.54,3.93,1.92,1.67,.39,4.05,.74,7.14,1.07l33.79,3.78c3.38,.37,6.21,.89,8.51,1.59,2.3,.69,4.14,1.77,5.52,3.23,1.38,1.46,2.07,3.44,2.07,5.92,0,3.21-.99,5.82-2.96,7.81-1.97,1.99-5.41,3.5-10.31,4.51-4.9,1.02-11.7,1.53-20.4,1.53-6.55,0-12.78-.38-18.7-1.13s-10.71-1.82-14.37-3.2l-.92-6.47,.37-.06c.04,.08,.06,.15,.06,.21s.02,.13,.06,.21c.98,2.56,3.2,4.57,6.68,6.04,3.48,1.46,7.55,2.47,12.23,3.02,4.68,.55,9.68,.82,15.01,.82,9.31,0,16.27-.65,20.86-1.95,4.59-1.3,6.89-3.58,6.89-6.83,0-1.46-.36-2.6-1.07-3.42-.71-.81-1.93-1.43-3.66-1.86-1.73-.43-4.32-.84-7.78-1.25l-33.79-3.78Z"/><path class="cls-3" d="M665.68,172.37c-5.29-.57-9.29-1.69-12.02-3.36-2.72-1.67-4.09-4.41-4.09-8.24,0-3.05,1-5.53,2.99-7.44,1.99-1.91,5.45-3.36,10.37-4.36,4.92-1,11.75-1.5,20.5-1.5,6.59,0,12.81,.31,18.67,.92,5.86,.61,10.67,1.57,14.46,2.87l.92,6.47-.37,.06c-1.18-3.82-4.95-6.41-11.32-7.75-6.37-1.34-13.82-2.01-22.36-2.01-9.03,0-16.01,.6-20.95,1.8-4.94,1.2-7.41,3.51-7.41,6.92,0,1.71,.48,3.01,1.43,3.9,.96,.9,2.27,1.54,3.93,1.92,1.67,.39,4.05,.74,7.14,1.07l33.79,3.78c3.38,.37,6.21,.89,8.51,1.59,2.3,.69,4.14,1.77,5.52,3.23,1.38,1.46,2.07,3.44,2.07,5.92,0,3.21-.99,5.82-2.96,7.81-1.97,1.99-5.41,3.5-10.31,4.51-4.9,1.02-11.7,1.53-20.4,1.53-6.55,0-12.78-.38-18.7-1.13s-10.71-1.82-14.37-3.2l-.92-6.47,.37-.06c.04,.08,.06,.15,.06,.21s.02,.13,.06,.21c.98,2.56,3.2,4.57,6.68,6.04,3.48,1.46,7.55,2.47,12.23,3.02,4.68,.55,9.68,.82,15.01,.82,9.31,0,16.27-.65,20.86-1.95,4.59-1.3,6.89-3.58,6.89-6.83,0-1.46-.36-2.6-1.07-3.42-.71-.81-1.93-1.43-3.66-1.86-1.73-.43-4.32-.84-7.78-1.25l-33.79-3.78Z"/><path class="cls-3" d="M760.71,191.83c-9.6,0-17.4-.81-23.39-2.44-6-1.63-10.4-4.06-13.21-7.29-2.81-3.23-4.21-7.35-4.21-12.35s1.4-9.14,4.21-12.41c2.81-3.27,7.21-5.73,13.21-7.38,6-1.65,13.79-2.47,23.39-2.47s17.33,.82,23.33,2.47c6,1.65,10.39,4.11,13.18,7.38,2.79,3.27,4.18,7.41,4.18,12.41s-1.39,9.12-4.18,12.35c-2.79,3.23-7.17,5.66-13.15,7.29-5.98,1.63-13.77,2.44-23.36,2.44Zm0-.55c6.95,0,12.62-.8,16.99-2.41,4.37-1.61,7.58-3.95,9.64-7.05,2.05-3.09,3.12-6.89,3.2-11.41v-1.34c-.08-4.55-1.15-8.38-3.2-11.47-2.05-3.09-5.27-5.46-9.64-7.11-4.37-1.65-10.03-2.47-16.99-2.47s-13,.84-17.42,2.53c-4.41,1.69-7.6,4.13-9.58,7.32-1.97,3.19-2.96,7.15-2.96,11.87s.99,8.65,2.96,11.8c1.97,3.15,5.16,5.56,9.58,7.23,4.41,1.67,10.22,2.5,17.42,2.5Z"/><path class="cls-3" d="M809.39,150.78c-.33-.2-.65-.4-.98-.58-.33-.18-.63-.36-.92-.52-.65-.33-1.27-.59-1.86-.79-.59-.2-1.19-.34-1.8-.43v-.24h18.85l54.23,33.06-.37,.43v-27.33c0-1.38-.12-2.45-.37-3.2-.24-.75-.83-1.35-1.77-1.8s-2.4-.75-4.39-.92v-.24h11.83v.24c-1.79,.24-3.03,.82-3.72,1.74-.69,.92-1.04,2.31-1.04,4.18v37.33l-.18,.12-67.53-41.05Zm2.93,.31h.55v33.85c0,1.38,.12,2.45,.37,3.2,.24,.75,.83,1.35,1.77,1.8,.94,.45,2.4,.75,4.39,.92v.24h-13.66v-.24c2.03-.16,3.52-.47,4.45-.92,.93-.45,1.52-1.05,1.77-1.8,.24-.75,.37-1.82,.37-3.2v-33.85Z"/><path class="cls-3" d="M883.57,148.22h17.75v.24c-1.59,.45-2.67,1.16-3.26,2.13-.59,.98-.88,2.24-.88,3.78v30.56c0,1.55,.29,2.81,.88,3.78,.59,.98,1.68,1.69,3.26,2.13v.24h-17.75v-.24c1.59-.45,2.67-1.16,3.26-2.13,.59-.98,.88-2.24,.88-3.78v-30.56c0-1.54-.3-2.81-.88-3.78-.59-.98-1.68-1.69-3.26-2.13v-.24Z"/></g><g><path class="cls-3" d="M319.66,300.53s-.09,.09-.15,.15c-.06,.06-.11,.11-.15,.15-.45,.53-.67,1-.67,1.4s.13,.73,.4,.98c.26,.24,.66,.47,1.19,.67v.3h-6.71v-.3c1.06-.24,1.94-.6,2.65-1.07,.71-.47,1.51-1.15,2.41-2.04l34.71-34.1h.79l-34.47,33.85Zm51.42-13.85v.55h-37.94v-.55h37.94Zm-28.3-22.75c-1.06-.98-1.88-1.66-2.47-2.04-.59-.39-1.17-.62-1.74-.7v-.37h14.27l37.27,35.56c1.99,1.95,3.94,3.66,5.86,5.12,1.91,1.46,3.23,2.24,3.96,2.32v.37h-19.7v-.37c1.38-.16,2.07-.63,2.07-1.4,0-.33-.09-.61-.27-.85-.18-.24-.46-.57-.82-.98l-38.43-36.66Z"/><path class="cls-3" d="M399.14,261.85c-2.48,0-4.44,.21-5.89,.64s-2.59,1.19-3.45,2.29c-.85,1.1-1.57,2.68-2.13,4.76h-.24l.61-9.15h.24c.69,.37,1.45,.61,2.29,.73,.83,.12,1.98,.18,3.45,.18h59.72c1.46,0,2.61-.06,3.45-.18,.83-.12,1.59-.37,2.29-.73h.24l.61,9.15h-.24c-.57-2.07-1.28-3.66-2.14-4.76-.85-1.1-2-1.86-3.45-2.29s-3.41-.64-5.89-.64h-20.01v36.17c0,1.71,.37,3.01,1.1,3.9,.73,.89,1.95,1.57,3.66,2.01v.24h-18.97v-.24c1.71-.45,2.93-1.12,3.66-2.01,.73-.89,1.1-2.2,1.1-3.9v-36.17h-20.01Z"/><path class="cls-3" d="M465.32,267.46c0-1.54-.3-2.81-.88-3.78-.59-.98-1.68-1.69-3.26-2.13v-.24h49.84c8.3,0,14.27,1.23,17.93,3.69,3.66,2.46,5.49,6.27,5.49,11.44s-1.85,9.2-5.55,11.86c-3.7,2.66-9.66,4-17.87,4h-36.23v5.73c0,1.59,.31,2.86,.95,3.81,.63,.96,1.82,1.66,3.57,2.1v.24h-18.12v-.24c1.59-.45,2.67-1.16,3.26-2.13,.59-.98,.88-2.24,.88-3.78v-30.56Zm44.22,24.28c3.62,0,6.5-.64,8.63-1.92,2.13-1.28,3.65-3.05,4.54-5.31,.89-2.26,1.34-4.95,1.34-8.08s-.45-5.76-1.34-7.9c-.9-2.13-2.4-3.78-4.51-4.94s-4.98-1.74-8.6-1.74h-34.83v29.89h34.77Z"/><path class="cls-3" d="M569.02,300.53s-.09,.09-.15,.15c-.06,.06-.11,.11-.15,.15-.45,.53-.67,1-.67,1.4s.13,.73,.4,.98c.26,.24,.66,.47,1.19,.67v.3h-6.71v-.3c1.06-.24,1.94-.6,2.65-1.07,.71-.47,1.51-1.15,2.41-2.04l34.71-34.1h.79l-34.47,33.85Zm51.42-13.85v.55h-37.94v-.55h37.94Zm-28.3-22.75c-1.06-.98-1.88-1.66-2.47-2.04-.59-.39-1.17-.62-1.74-.7v-.37h14.27l37.27,35.56c1.99,1.95,3.94,3.66,5.86,5.12,1.91,1.46,3.23,2.24,3.96,2.32v.37h-19.7v-.37c1.38-.16,2.07-.63,2.07-1.4,0-.33-.09-.61-.27-.85-.18-.24-.46-.57-.82-.98l-38.43-36.66Z"/><path class="cls-3" d="M655.83,261.85c-2.48,0-4.44,.21-5.89,.64s-2.59,1.19-3.45,2.29c-.85,1.1-1.57,2.68-2.13,4.76h-.24l.61-9.15h.24c.69,.37,1.45,.61,2.29,.73,.83,.12,1.98,.18,3.45,.18h59.72c1.46,0,2.61-.06,3.45-.18,.83-.12,1.59-.37,2.29-.73h.24l.61,9.15h-.24c-.57-2.07-1.28-3.66-2.14-4.76-.85-1.1-2-1.86-3.45-2.29s-3.41-.64-5.89-.64h-20.01v36.17c0,1.71,.37,3.01,1.1,3.9,.73,.89,1.95,1.57,3.66,2.01v.24h-18.97v-.24c1.71-.45,2.93-1.12,3.66-2.01,.73-.89,1.1-2.2,1.1-3.9v-36.17h-20.01Z"/><path class="cls-3" d="M780.88,260.39l1.34,6.95-.24,.06c-.77-2.16-2.06-3.62-3.87-4.39-1.81-.77-4.52-1.16-8.14-1.16h-38.49v22.57h42.27c1.06,0,1.9-.07,2.53-.21,.63-.14,1.22-.51,1.77-1.1,.55-.59,1.01-1.54,1.37-2.84h.24v8.84h-.24c-.37-1.3-.82-2.25-1.37-2.84-.55-.59-1.14-.96-1.77-1.1-.63-.14-1.47-.21-2.53-.21h-42.27v18.67h35.01c3.82,0,6.85-.13,9.09-.4s4.13-.81,5.67-1.65c1.54-.83,2.85-2.1,3.9-3.81l.37,.12-2.87,7.2h-.49c-.65-.41-1.92-.66-3.81-.76-1.89-.1-5.85-.15-11.87-.15h-48.62v-.24c1.59-.45,2.67-1.16,3.26-2.13,.59-.98,.88-2.24,.88-3.78v-30.56c0-1.54-.3-2.81-.88-3.78-.59-.98-1.68-1.69-3.26-2.13v-.24h46.85c6.02,0,9.97-.05,11.86-.15s3.16-.36,3.81-.76h.49Z"/><path class="cls-3" d="M833.94,303.64c3.82,0,6.85-.13,9.09-.4,2.24-.26,4.13-.81,5.67-1.65,1.54-.83,2.85-2.1,3.9-3.81l.37,.12-2.87,7.2h-.49c-.65-.41-1.92-.66-3.81-.76-1.89-.1-5.85-.15-11.87-.15h-46.67v-.24c1.59-.45,2.67-1.16,3.26-2.13,.59-.98,.88-2.24,.88-3.78v-30.56c0-1.54-.3-2.81-.88-3.78-.59-.98-1.68-1.69-3.26-2.13v-.24h18v.24c-1.71,.45-2.87,1.15-3.48,2.1-.61,.96-.92,2.23-.92,3.81v36.11l33.06,.06Z"/><path class="cls-3" d="M853.71,261.3h17.75v.24c-1.59,.45-2.67,1.16-3.26,2.13-.59,.98-.88,2.24-.88,3.78v30.56c0,1.55,.29,2.81,.88,3.78,.59,.98,1.68,1.69,3.26,2.13v.24h-17.75v-.24c1.59-.45,2.67-1.16,3.26-2.13,.59-.98,.88-2.24,.88-3.78v-30.56c0-1.54-.3-2.81-.88-3.78-.59-.98-1.68-1.69-3.26-2.13v-.24Z"/><path class="cls-3" d="M936.18,260.39l1.34,6.95-.24,.06c-.77-2.16-2.06-3.62-3.87-4.39-1.81-.77-4.52-1.16-8.14-1.16h-38.49v22.57h42.27c1.06,0,1.9-.07,2.53-.21,.63-.14,1.22-.51,1.77-1.1,.55-.59,1.01-1.54,1.37-2.84h.24v8.84h-.24c-.37-1.3-.82-2.25-1.37-2.84-.55-.59-1.14-.96-1.77-1.1-.63-.14-1.47-.21-2.53-.21h-42.27v18.67h35.01c3.82,0,6.85-.13,9.09-.4s4.13-.81,5.67-1.65c1.54-.83,2.85-2.1,3.9-3.81l.37,.12-2.87,7.2h-.49c-.65-.41-1.92-.66-3.81-.76-1.89-.1-5.85-.15-11.87-.15h-48.62v-.24c1.59-.45,2.67-1.16,3.26-2.13,.59-.98,.88-2.24,.88-3.78v-30.56c0-1.54-.3-2.81-.88-3.78-.59-.98-1.68-1.69-3.26-2.13v-.24h46.85c6.02,0,9.97-.05,11.86-.15s3.16-.36,3.81-.76h.49Z"/><path class="cls-3" d="M946.73,267.46c0-1.54-.3-2.81-.88-3.78-.59-.98-1.68-1.69-3.26-2.13v-.24h50.87c7.89,0,13.59,1.29,17.11,3.87,3.52,2.58,5.28,6.46,5.28,11.62,0,4.55-1.62,8.04-4.85,10.46-3.23,2.42-8.35,3.98-15.34,4.67v.24h5.25c3.21,0,5.75,.38,7.62,1.13,1.87,.75,3.76,2.21,5.67,4.36l2.44,2.81s.07,.07,.09,.09c.02,.02,.05,.05,.09,.09,1.02,1.22,1.91,2.09,2.68,2.62,.77,.53,1.79,.69,3.05,.49v.24c-3.09,.73-5.84,1.07-8.24,1.01-2.4-.06-4.47-.5-6.22-1.31-1.75-.81-3.25-1.99-4.51-3.54l-3.11-3.78c-.98-1.18-1.83-2.04-2.56-2.59-.73-.55-1.62-.94-2.65-1.16-1.04-.22-2.53-.33-4.48-.33h-34.59v5.73c0,1.59,.33,2.86,.98,3.81,.65,.96,1.91,1.66,3.78,2.1v.24h-18.36v-.24c1.59-.45,2.67-1.16,3.26-2.13,.59-.98,.88-2.24,.88-3.78v-30.56Zm44.16,24.28c3.29,0,6.02-.55,8.17-1.65,2.16-1.1,3.76-2.75,4.82-4.97,1.06-2.22,1.59-4.99,1.59-8.33s-.53-6.11-1.59-8.33c-1.06-2.22-2.66-3.87-4.82-4.97-2.16-1.1-4.88-1.65-8.17-1.65h-34.71v29.89h34.71Z"/></g><g><path class="cls-3" d="M494.63,314.39l35.5,36.84-4.45,4.64,35.87-41.48h12.5v.3c-.98,.33-1.73,.91-2.26,1.74-.53,.83-.79,2-.79,3.51v31.17c0,1.91,.26,3.32,.79,4.21,.53,.9,1.28,1.44,2.26,1.65v.3h-16.04v-.3c1.14-.2,2.01-.74,2.62-1.62,.61-.87,.92-2.29,.92-4.24v-36.36h.43l-37.51,43.43h-.3l-38.43-40.02,.37-.31v32.15c0,1.22,.18,2.34,.55,3.35,.37,1.02,.97,1.85,1.8,2.5,.83,.65,1.9,1.02,3.2,1.1v.3h-10.61v-.3c.98-.08,1.8-.39,2.47-.92s1.18-1.3,1.53-2.32c.34-1.02,.52-2.26,.52-3.72v-29.46c0-1.71-.35-2.99-1.04-3.84-.69-.85-1.85-1.52-3.48-2.01v-.3h13.6Z"/><path class="cls-3" d="M575.76,314.39h17.75v.24c-1.59,.45-2.67,1.16-3.26,2.13-.59,.98-.88,2.24-.88,3.78v30.56c0,1.55,.29,2.81,.88,3.78,.59,.98,1.68,1.69,3.26,2.13v.24h-17.75v-.24c1.59-.45,2.67-1.16,3.26-2.13,.59-.98,.88-2.24,.88-3.78v-30.56c0-1.54-.3-2.81-.88-3.78-.59-.98-1.68-1.69-3.26-2.13v-.24Z"/><path class="cls-3" d="M633.41,358.19c-7.85,0-14.22-.54-19.12-1.62s-8.61-2.97-11.13-5.67c-2.52-2.7-3.78-6.46-3.78-11.25v-16.78c0-1.95-.07-3.38-.21-4.3s-.5-1.69-1.07-2.32c-.57-.63-1.52-1.17-2.87-1.62v-.24h17.75v.24c-1.34,.45-2.3,.99-2.87,1.62-.57,.63-.93,1.4-1.07,2.32-.14,.92-.21,2.35-.21,4.3v17.2c0,4.07,1.09,7.24,3.26,9.52,2.17,2.28,5.24,3.85,9.18,4.73,3.94,.88,8.86,1.31,14.76,1.31,5.53,0,10.33-.45,14.4-1.34,4.07-.89,7.33-2.49,9.79-4.79,2.46-2.3,3.69-5.48,3.69-9.55v-18.3c0-2.32-.32-3.99-.95-5-.63-1.02-1.94-1.69-3.93-2.01v-.24h9.03v.24c-1.38,.57-2.33,1.38-2.84,2.44-.51,1.06-.76,2.58-.76,4.58v18.12c0,4.88-1.29,8.67-3.87,11.38-2.58,2.71-6.11,4.56-10.58,5.55s-10,1.49-16.59,1.49Z"/><path class="cls-3" d="M712.1,314.39l35.5,36.84-4.45,4.64,35.87-41.48h12.5v.3c-.98,.33-1.73,.91-2.26,1.74-.53,.83-.79,2-.79,3.51v31.17c0,1.91,.26,3.32,.79,4.21,.53,.9,1.28,1.44,2.26,1.65v.3h-16.04v-.3c1.14-.2,2.01-.74,2.62-1.62,.61-.87,.92-2.29,.92-4.24v-36.36h.43l-37.51,43.43h-.3l-38.43-40.02,.37-.31v32.15c0,1.22,.18,2.34,.55,3.35,.37,1.02,.97,1.85,1.8,2.5,.83,.65,1.9,1.02,3.2,1.1v.3h-10.61v-.3c.98-.08,1.8-.39,2.47-.92s1.18-1.3,1.53-2.32c.34-1.02,.52-2.26,.52-3.72v-29.46c0-1.71-.35-2.99-1.04-3.84-.69-.85-1.85-1.52-3.48-2.01v-.3h13.6Z"/><path class="cls-3" d="M793.23,314.39h17.75v.24c-1.59,.45-2.67,1.16-3.26,2.13-.59,.98-.88,2.24-.88,3.78v30.56c0,1.55,.29,2.81,.88,3.78,.59,.98,1.68,1.69,3.26,2.13v.24h-17.75v-.24c1.59-.45,2.67-1.16,3.26-2.13,.59-.98,.88-2.24,.88-3.78v-30.56c0-1.54-.3-2.81-.88-3.78-.59-.98-1.68-1.69-3.26-2.13v-.24Z"/><path class="cls-3" d="M850.87,358.19c-7.85,0-14.22-.54-19.12-1.62s-8.61-2.97-11.13-5.67c-2.52-2.7-3.78-6.46-3.78-11.25v-16.78c0-1.95-.07-3.38-.21-4.3s-.5-1.69-1.07-2.32c-.57-.63-1.52-1.17-2.87-1.62v-.24h17.75v.24c-1.34,.45-2.3,.99-2.87,1.62-.57,.63-.93,1.4-1.07,2.32-.14,.92-.21,2.35-.21,4.3v17.2c0,4.07,1.09,7.24,3.26,9.52,2.17,2.28,5.24,3.85,9.18,4.73,3.94,.88,8.86,1.31,14.76,1.31,5.53,0,10.33-.45,14.4-1.34,4.07-.89,7.33-2.49,9.79-4.79,2.46-2.3,3.69-5.48,3.69-9.55v-18.3c0-2.32-.32-3.99-.95-5-.63-1.02-1.94-1.69-3.93-2.01v-.24h9.03v.24c-1.38,.57-2.33,1.38-2.84,2.44-.51,1.06-.76,2.58-.76,4.58v18.12c0,4.88-1.29,8.67-3.87,11.38-2.58,2.71-6.11,4.56-10.58,5.55s-10,1.49-16.59,1.49Z"/></g><g><path class="cls-3" d="M320.24,393.04v.64c0,.22-.02,.44-.06,.64-.2,3.78-1.36,6.77-3.48,8.97-2.11,2.2-5.01,3.74-8.69,4.64-3.68,.89-8.14,1.34-13.39,1.34-3.29,0-6.56-.3-9.79-.88s-6.68-1.64-10.34-3.14v-7.87h.24c.61,4.35,2.81,7.33,6.59,8.94,3.78,1.61,8.21,2.41,13.3,2.41,3.66,0,6.67-.49,9.03-1.46,2.36-.98,4.14-2.61,5.34-4.91,1.2-2.3,1.8-5.42,1.8-9.36v-20.74c0-1.38-.14-2.48-.43-3.29-.29-.81-.82-1.47-1.62-1.98-.79-.51-1.98-.92-3.57-1.25v-.24h19.21v.24c-1.59,.45-2.67,1.16-3.26,2.13-.59,.98-.88,2.24-.88,3.78v21.41Z"/><path class="cls-3" d="M361.47,400.55h-.3l16.9-29.1h.61l-21.9,37.64h-.67l-25.32-38.98c-.89-1.38-1.77-2.41-2.62-3.08-.85-.67-1.77-1.11-2.75-1.31v-.24h17.87v.24c-.94,.16-1.61,.41-2.01,.73-.41,.33-.61,.71-.61,1.16,0,.33,.08,.7,.24,1.13,.16,.43,.45,.92,.85,1.49l19.7,30.32Zm24.77-30.32l18.97,30.32h-.43l16.9-29.16c.45-.77,.78-1.41,1.01-1.92,.22-.51,.34-1.01,.34-1.49,0-.65-.33-1.16-.98-1.53-.65-.37-1.55-.61-2.68-.73v-.24h8.42v.24c-.89,.2-1.69,.59-2.38,1.16-.69,.57-1.34,1.4-1.95,2.5l-23.12,39.71h-.55l-24.4-38.98c-.85-1.38-1.7-2.41-2.53-3.08-.83-.67-1.86-1.11-3.08-1.31v-.24h18.18v.24c-.94,.16-1.6,.43-1.98,.79-.39,.37-.58,.81-.58,1.34,0,.73,.28,1.53,.85,2.38Z"/><path class="cls-3" d="M463.4,404.69s-.09,.09-.15,.15c-.06,.06-.11,.11-.15,.15-.45,.53-.67,1-.67,1.4s.13,.73,.4,.98c.26,.24,.66,.47,1.19,.67v.3h-6.71v-.3c1.06-.24,1.94-.6,2.65-1.07,.71-.47,1.51-1.15,2.41-2.04l34.71-34.1h.79l-34.47,33.85Zm51.42-13.85v.55h-37.94v-.55h37.94Zm-28.3-22.75c-1.06-.98-1.88-1.66-2.47-2.04-.59-.39-1.17-.62-1.74-.7v-.37h14.27l37.27,35.56c1.99,1.95,3.94,3.66,5.86,5.12,1.91,1.46,3.23,2.24,3.96,2.32v.37h-19.7v-.37c1.38-.16,2.07-.63,2.07-1.4,0-.33-.09-.61-.27-.85-.18-.24-.46-.57-.82-.98l-38.43-36.66Z"/><path class="cls-3" d="M551,368.03c-.33-.2-.65-.4-.98-.58-.33-.18-.63-.36-.92-.52-.65-.33-1.27-.59-1.86-.79-.59-.2-1.19-.34-1.8-.43v-.24h18.85l54.23,33.06-.37,.43v-27.33c0-1.38-.12-2.45-.37-3.2-.24-.75-.83-1.35-1.77-1.8s-2.4-.75-4.39-.92v-.24h11.83v.24c-1.79,.24-3.03,.82-3.72,1.74-.69,.92-1.04,2.31-1.04,4.18v37.33l-.18,.12-67.53-41.05Zm2.93,.31h.55v33.85c0,1.38,.12,2.45,.37,3.2,.24,.75,.83,1.35,1.77,1.8,.94,.45,2.4,.75,4.39,.92v.24h-13.66v-.24c2.03-.16,3.52-.47,4.45-.92,.93-.45,1.52-1.05,1.77-1.8,.24-.75,.37-1.82,.37-3.2v-33.85Z"/><path class="cls-3" d="M705.02,386.94c0,4.27-.9,8-2.68,11.19-1.79,3.19-4.69,5.69-8.69,7.5-4.01,1.81-9.24,2.71-15.71,2.71h-52.77v-.24c1.59-.45,2.67-1.16,3.26-2.13,.59-.98,.88-2.24,.88-3.78v-30.56c0-1.54-.3-2.81-.88-3.78-.59-.98-1.68-1.69-3.26-2.13v-.24h52.77c6.47,0,11.71,.92,15.74,2.75,4.03,1.83,6.92,4.33,8.69,7.5,1.77,3.17,2.65,6.91,2.65,11.22Zm-10.37,0c0-4.03-.66-7.6-1.98-10.74-1.32-3.13-3.41-5.61-6.25-7.44s-6.49-2.75-10.92-2.75h-36.72v41.79h36.72c4.43,0,8.07-.92,10.92-2.75s4.93-4.3,6.25-7.41c1.32-3.11,1.98-6.68,1.98-10.71Z"/><path class="cls-3" d="M770.47,364.56l1.34,6.95-.24,.06c-.77-2.16-2.06-3.62-3.87-4.39-1.81-.77-4.52-1.16-8.14-1.16h-38.49v22.57h42.27c1.06,0,1.9-.07,2.53-.21,.63-.14,1.22-.51,1.77-1.1,.55-.59,1.01-1.54,1.37-2.84h.24v8.84h-.24c-.37-1.3-.82-2.25-1.37-2.84-.55-.59-1.14-.96-1.77-1.1-.63-.14-1.47-.21-2.53-.21h-42.27v18.67h35.01c3.82,0,6.85-.13,9.09-.4s4.13-.81,5.67-1.65c1.54-.83,2.85-2.1,3.9-3.81l.37,.12-2.87,7.2h-.49c-.65-.41-1.92-.66-3.81-.76-1.89-.1-5.85-.15-11.87-.15h-48.62v-.24c1.59-.45,2.67-1.16,3.26-2.13,.59-.98,.88-2.24,.88-3.78v-30.56c0-1.54-.3-2.81-.88-3.78-.59-.98-1.68-1.69-3.26-2.13v-.24h46.85c6.02,0,9.97-.05,11.86-.15s3.16-.36,3.81-.76h.49Z"/><path class="cls-3" d="M781.03,371.63c0-1.54-.3-2.81-.88-3.78-.59-.98-1.68-1.69-3.26-2.13v-.24h50.87c7.89,0,13.59,1.29,17.11,3.87,3.52,2.58,5.28,6.46,5.28,11.62,0,4.55-1.62,8.04-4.85,10.46-3.23,2.42-8.35,3.98-15.34,4.67v.24h5.25c3.21,0,5.75,.38,7.62,1.13,1.87,.75,3.76,2.21,5.67,4.36l2.44,2.81s.07,.07,.09,.09c.02,.02,.05,.05,.09,.09,1.02,1.22,1.91,2.09,2.68,2.62,.77,.53,1.79,.69,3.05,.49v.24c-3.09,.73-5.84,1.07-8.24,1.01-2.4-.06-4.47-.5-6.22-1.31-1.75-.81-3.25-1.99-4.51-3.54l-3.11-3.78c-.98-1.18-1.83-2.04-2.56-2.59-.73-.55-1.62-.94-2.65-1.16-1.04-.22-2.53-.33-4.48-.33h-34.59v5.73c0,1.59,.33,2.86,.98,3.81,.65,.96,1.91,1.66,3.78,2.1v.24h-18.36v-.24c1.59-.45,2.67-1.16,3.26-2.13,.59-.98,.88-2.24,.88-3.78v-30.56Zm44.16,24.28c3.29,0,6.02-.55,8.17-1.65,2.16-1.1,3.76-2.75,4.82-4.97,1.06-2.22,1.59-4.99,1.59-8.33s-.53-6.11-1.59-8.33c-1.06-2.22-2.66-3.87-4.82-4.97-2.16-1.1-4.88-1.65-8.17-1.65h-34.71v29.89h34.71Z"/><path class="cls-3" d="M874.78,389.63c-5.29-.57-9.29-1.69-12.02-3.36-2.72-1.67-4.09-4.41-4.09-8.24,0-3.05,1-5.53,2.99-7.44,1.99-1.91,5.45-3.36,10.37-4.36,4.92-1,11.75-1.5,20.5-1.5,6.59,0,12.81,.31,18.67,.92,5.86,.61,10.67,1.57,14.46,2.87l.92,6.47-.37,.06c-1.18-3.82-4.95-6.41-11.32-7.75-6.37-1.34-13.82-2.01-22.36-2.01-9.03,0-16.01,.6-20.95,1.8-4.94,1.2-7.41,3.51-7.41,6.92,0,1.71,.48,3.01,1.43,3.9,.96,.9,2.27,1.54,3.93,1.92,1.67,.39,4.05,.74,7.14,1.07l33.79,3.78c3.38,.37,6.21,.89,8.51,1.59,2.3,.69,4.14,1.77,5.52,3.23,1.38,1.46,2.07,3.44,2.07,5.92,0,3.21-.99,5.82-2.96,7.81-1.97,1.99-5.41,3.5-10.31,4.51-4.9,1.02-11.7,1.53-20.4,1.53-6.55,0-12.78-.38-18.7-1.13s-10.71-1.82-14.37-3.2l-.92-6.47,.37-.06c.04,.08,.06,.15,.06,.21s.02,.13,.06,.21c.98,2.56,3.2,4.57,6.68,6.04,3.48,1.46,7.55,2.47,12.23,3.02,4.68,.55,9.68,.82,15.01,.82,9.31,0,16.27-.65,20.86-1.95,4.59-1.3,6.89-3.58,6.89-6.83,0-1.46-.36-2.6-1.07-3.42-.71-.81-1.93-1.43-3.66-1.86-1.73-.43-4.32-.84-7.78-1.25l-33.79-3.78Z"/><path class="cls-3" d="M969.82,409.09c-9.6,0-17.4-.81-23.39-2.44-6-1.63-10.4-4.06-13.21-7.29-2.81-3.23-4.21-7.35-4.21-12.35s1.4-9.14,4.21-12.41c2.81-3.27,7.21-5.73,13.21-7.38,6-1.65,13.79-2.47,23.39-2.47s17.33,.82,23.33,2.47c6,1.65,10.39,4.11,13.18,7.38,2.79,3.27,4.18,7.41,4.18,12.41s-1.39,9.12-4.18,12.35c-2.79,3.23-7.17,5.66-13.15,7.29-5.98,1.63-13.77,2.44-23.36,2.44Zm0-.55c6.95,0,12.62-.8,16.99-2.41,4.37-1.61,7.58-3.95,9.64-7.05,2.05-3.09,3.12-6.89,3.2-11.41v-1.34c-.08-4.55-1.15-8.38-3.2-11.47-2.05-3.09-5.27-5.46-9.64-7.11-4.37-1.65-10.03-2.47-16.99-2.47s-13,.84-17.42,2.53c-4.41,1.69-7.6,4.13-9.58,7.32-1.97,3.19-2.96,7.15-2.96,11.87s.99,8.65,2.96,11.8c1.97,3.15,5.16,5.56,9.58,7.23,4.41,1.67,10.22,2.5,17.42,2.5Z"/><path class="cls-3" d="M1018.5,368.03c-.33-.2-.65-.4-.98-.58-.33-.18-.63-.36-.92-.52-.65-.33-1.27-.59-1.86-.79-.59-.2-1.19-.34-1.8-.43v-.24h18.85l54.23,33.06-.37,.43v-27.33c0-1.38-.12-2.45-.37-3.2-.24-.75-.83-1.35-1.77-1.8s-2.4-.75-4.39-.92v-.24h11.83v.24c-1.79,.24-3.03,.82-3.72,1.74-.69,.92-1.04,2.31-1.04,4.18v37.33l-.18,.12-67.53-41.05Zm2.93,.31h.55v33.85c0,1.38,.12,2.45,.37,3.2,.24,.75,.83,1.35,1.77,1.8,.94,.45,2.4,.75,4.39,.92v.24h-13.66v-.24c2.03-.16,3.52-.47,4.45-.92,.93-.45,1.52-1.05,1.77-1.8,.24-.75,.37-1.82,.37-3.2v-33.85Z"/></g><g><path class="cls-3" d="M282.42,456.24s-.09,.09-.15,.15c-.06,.06-.11,.11-.15,.15-.45,.53-.67,1-.67,1.4s.13,.73,.4,.98c.26,.24,.66,.47,1.19,.67v.3h-6.71v-.3c1.06-.24,1.94-.6,2.65-1.07,.71-.47,1.51-1.15,2.41-2.04l34.71-34.1h.79l-34.47,33.85Zm51.42-13.85v.55h-37.94v-.55h37.94Zm-28.3-22.75c-1.06-.98-1.88-1.66-2.47-2.04-.59-.39-1.17-.62-1.74-.7v-.37h14.27l37.27,35.56c1.99,1.95,3.94,3.66,5.86,5.12,1.91,1.46,3.23,2.24,3.96,2.32v.37h-19.7v-.37c1.38-.16,2.07-.63,2.07-1.4,0-.33-.09-.61-.27-.85-.18-.24-.46-.57-.82-.98l-38.43-36.66Z"/><path class="cls-3" d="M359.4,438.55c0-4.47,1.19-8.34,3.57-11.59,2.38-3.25,6.65-5.84,12.81-7.78,6.16-1.93,14.61-2.9,25.35-2.9,8.05,0,14.94,.5,20.68,1.5,5.73,1,10.13,2.06,13.18,3.2l.98,6.95-.31,.06c-1.67-4.19-5.53-7.1-11.59-8.72-6.06-1.63-12.77-2.44-20.13-2.44-8.5,0-15.24,.93-20.22,2.78s-8.5,4.37-10.55,7.56c-2.05,3.19-3.08,6.98-3.08,11.38s1.03,8.18,3.08,11.38c2.05,3.19,5.57,5.71,10.55,7.56s11.72,2.78,20.22,2.78c7.36,0,14.07-.81,20.13-2.44,6.06-1.63,9.92-4.53,11.59-8.72l.31,.06-.98,6.95c-3.05,1.14-7.44,2.21-13.18,3.2s-12.63,1.49-20.68,1.49c-10.74,0-19.18-.97-25.35-2.9-6.16-1.93-10.43-4.52-12.81-7.78-2.38-3.25-3.57-7.12-3.57-11.59Z"/><path class="cls-3" d="M444.07,419.58c-.33-.2-.65-.4-.98-.58-.33-.18-.63-.36-.92-.52-.65-.33-1.27-.59-1.86-.79-.59-.2-1.19-.34-1.8-.43v-.24h18.85l54.23,33.06-.37,.43v-27.33c0-1.38-.12-2.45-.37-3.2-.24-.75-.83-1.35-1.77-1.8s-2.4-.75-4.39-.92v-.24h11.83v.24c-1.79,.24-3.03,.82-3.72,1.74-.69,.92-1.04,2.31-1.04,4.18v37.33l-.18,.12-67.53-41.05Zm2.93,.31h.55v33.85c0,1.38,.12,2.45,.37,3.2,.24,.75,.83,1.35,1.77,1.8,.94,.45,2.4,.75,4.39,.92v.24h-13.66v-.24c2.03-.16,3.52-.47,4.45-.92,.93-.45,1.52-1.05,1.77-1.8,.24-.75,.37-1.82,.37-3.2v-33.85Z"/><path class="cls-3" d="M581.25,416.1l1.34,6.95-.24,.06c-.77-2.16-2.06-3.62-3.87-4.39-1.81-.77-4.52-1.16-8.14-1.16h-38.49v22.57h42.27c1.06,0,1.9-.07,2.53-.21,.63-.14,1.22-.51,1.77-1.1,.55-.59,1.01-1.54,1.37-2.84h.24v8.84h-.24c-.37-1.3-.82-2.25-1.37-2.84-.55-.59-1.14-.96-1.77-1.1-.63-.14-1.47-.21-2.53-.21h-42.27v18.67h35.01c3.82,0,6.85-.13,9.09-.4s4.13-.81,5.67-1.65c1.54-.83,2.85-2.1,3.9-3.81l.37,.12-2.87,7.2h-.49c-.65-.41-1.92-.66-3.81-.76-1.89-.1-5.85-.15-11.87-.15h-48.62v-.24c1.59-.45,2.67-1.16,3.26-2.13,.59-.98,.88-2.24,.88-3.78v-30.56c0-1.54-.3-2.81-.88-3.78-.59-.98-1.68-1.69-3.26-2.13v-.24h46.85c6.02,0,9.97-.05,11.86-.15s3.16-.36,3.81-.76h.49Z"/><path class="cls-3" d="M633.41,441.17c-5.29-.57-9.29-1.69-12.02-3.36-2.72-1.67-4.09-4.41-4.09-8.24,0-3.05,1-5.53,2.99-7.44,1.99-1.91,5.45-3.36,10.37-4.36,4.92-1,11.75-1.5,20.5-1.5,6.59,0,12.81,.31,18.67,.92,5.86,.61,10.67,1.57,14.46,2.87l.92,6.47-.37,.06c-1.18-3.82-4.95-6.41-11.32-7.75-6.37-1.34-13.82-2.01-22.36-2.01-9.03,0-16.01,.6-20.95,1.8-4.94,1.2-7.41,3.51-7.41,6.92,0,1.71,.48,3.01,1.43,3.9,.96,.9,2.27,1.54,3.93,1.92,1.67,.39,4.05,.74,7.14,1.07l33.79,3.78c3.38,.37,6.21,.89,8.51,1.59,2.3,.69,4.14,1.77,5.52,3.23,1.38,1.46,2.07,3.44,2.07,5.92,0,3.21-.99,5.82-2.96,7.81-1.97,1.99-5.41,3.5-10.31,4.51-4.9,1.02-11.7,1.53-20.4,1.53-6.55,0-12.78-.38-18.7-1.13s-10.71-1.82-14.37-3.2l-.92-6.47,.37-.06c.04,.08,.06,.15,.06,.21s.02,.13,.06,.21c.98,2.56,3.2,4.57,6.68,6.04,3.48,1.46,7.55,2.47,12.23,3.02,4.68,.55,9.68,.82,15.01,.82,9.31,0,16.27-.65,20.86-1.95,4.59-1.3,6.89-3.58,6.89-6.83,0-1.46-.36-2.6-1.07-3.42-.71-.81-1.93-1.43-3.66-1.86-1.73-.43-4.32-.84-7.78-1.25l-33.79-3.78Z"/><path class="cls-3" d="M698.13,417.56c-2.48,0-4.44,.21-5.89,.64s-2.59,1.19-3.45,2.29c-.85,1.1-1.57,2.68-2.13,4.76h-.24l.61-9.15h.24c.69,.37,1.45,.61,2.29,.73,.83,.12,1.98,.18,3.45,.18h59.72c1.46,0,2.61-.06,3.45-.18,.83-.12,1.59-.37,2.29-.73h.24l.61,9.15h-.24c-.57-2.07-1.28-3.66-2.14-4.76-.85-1.1-2-1.86-3.45-2.29s-3.41-.64-5.89-.64h-20.01v36.17c0,1.71,.37,3.01,1.1,3.9,.73,.89,1.95,1.57,3.66,2.01v.24h-18.97v-.24c1.71-.45,2.93-1.12,3.66-2.01,.73-.89,1.1-2.2,1.1-3.9v-36.17h-20.01Z"/><path class="cls-3" d="M798.35,460.81c-7.85,0-14.22-.54-19.12-1.62s-8.61-2.97-11.13-5.67c-2.52-2.7-3.78-6.46-3.78-11.25v-16.78c0-1.95-.07-3.38-.21-4.3s-.5-1.69-1.07-2.32c-.57-.63-1.52-1.17-2.87-1.62v-.24h17.75v.24c-1.34,.45-2.3,.99-2.87,1.62-.57,.63-.93,1.4-1.07,2.32-.14,.92-.21,2.35-.21,4.3v17.2c0,4.07,1.09,7.24,3.26,9.52,2.17,2.28,5.24,3.85,9.18,4.73,3.94,.88,8.86,1.31,14.76,1.31,5.53,0,10.33-.45,14.4-1.34,4.07-.89,7.33-2.49,9.79-4.79,2.46-2.3,3.69-5.48,3.69-9.55v-18.3c0-2.32-.32-3.99-.95-5-.63-1.02-1.94-1.69-3.93-2.01v-.24h9.03v.24c-1.38,.57-2.33,1.38-2.84,2.44-.51,1.06-.76,2.58-.76,4.58v18.12c0,4.88-1.29,8.67-3.87,11.38-2.58,2.71-6.11,4.56-10.58,5.55s-10,1.49-16.59,1.49Z"/><path class="cls-3" d="M914.01,438.49c0,4.27-.9,8-2.68,11.19-1.79,3.19-4.69,5.69-8.69,7.5-4.01,1.81-9.24,2.71-15.71,2.71h-52.77v-.24c1.59-.45,2.67-1.16,3.26-2.13,.59-.98,.88-2.24,.88-3.78v-30.56c0-1.54-.3-2.81-.88-3.78-.59-.98-1.68-1.69-3.26-2.13v-.24h52.77c6.47,0,11.71,.92,15.74,2.75,4.03,1.83,6.92,4.33,8.69,7.5,1.77,3.17,2.65,6.91,2.65,11.22Zm-10.37,0c0-4.03-.66-7.6-1.98-10.74-1.32-3.13-3.41-5.61-6.25-7.44s-6.49-2.75-10.92-2.75h-36.72v41.79h36.72c4.43,0,8.07-.92,10.92-2.75s4.93-4.3,6.25-7.41c1.32-3.11,1.98-6.68,1.98-10.71Z"/><path class="cls-3" d="M916.45,417.02h17.75v.24c-1.59,.45-2.67,1.16-3.26,2.13-.59,.98-.88,2.24-.88,3.78v30.56c0,1.55,.29,2.81,.88,3.78,.59,.98,1.68,1.69,3.26,2.13v.24h-17.75v-.24c1.59-.45,2.67-1.16,3.26-2.13,.59-.98,.88-2.24,.88-3.78v-30.56c0-1.54-.3-2.81-.88-3.78-.59-.98-1.68-1.69-3.26-2.13v-.24Z"/><path class="cls-3" d="M977.08,460.63c-9.6,0-17.4-.81-23.39-2.44-6-1.63-10.4-4.06-13.21-7.29-2.81-3.23-4.21-7.35-4.21-12.35s1.4-9.14,4.21-12.41c2.81-3.27,7.21-5.73,13.21-7.38,6-1.65,13.79-2.47,23.39-2.47s17.33,.82,23.33,2.47c6,1.65,10.39,4.11,13.18,7.38,2.79,3.27,4.18,7.41,4.18,12.41s-1.39,9.12-4.18,12.35c-2.79,3.23-7.17,5.66-13.15,7.29-5.98,1.63-13.77,2.44-23.36,2.44Zm0-.55c6.95,0,12.62-.8,16.99-2.41,4.37-1.61,7.58-3.95,9.64-7.05,2.05-3.09,3.12-6.89,3.2-11.41v-1.34c-.08-4.55-1.15-8.38-3.2-11.47-2.05-3.09-5.27-5.46-9.64-7.11-4.37-1.65-10.03-2.47-16.99-2.47s-13,.84-17.42,2.53c-4.41,1.69-7.6,4.13-9.58,7.32-1.97,3.19-2.96,7.15-2.96,11.87s.99,8.65,2.96,11.8c1.97,3.15,5.16,5.56,9.58,7.23,4.41,1.67,10.22,2.5,17.42,2.5Z"/><path class="cls-3" d="M1036.68,441.17c-5.29-.57-9.29-1.69-12.02-3.36-2.72-1.67-4.09-4.41-4.09-8.24,0-3.05,1-5.53,2.99-7.44,1.99-1.91,5.45-3.36,10.37-4.36,4.92-1,11.75-1.5,20.5-1.5,6.59,0,12.81,.31,18.67,.92,5.86,.61,10.67,1.57,14.46,2.87l.92,6.47-.37,.06c-1.18-3.82-4.95-6.41-11.32-7.75-6.37-1.34-13.82-2.01-22.36-2.01-9.03,0-16.01,.6-20.95,1.8-4.94,1.2-7.41,3.51-7.41,6.92,0,1.71,.48,3.01,1.43,3.9,.96,.9,2.27,1.54,3.93,1.92,1.67,.39,4.05,.74,7.14,1.07l33.79,3.78c3.38,.37,6.21,.89,8.51,1.59,2.3,.69,4.14,1.77,5.52,3.23,1.38,1.46,2.07,3.44,2.07,5.92,0,3.21-.99,5.82-2.96,7.81-1.97,1.99-5.41,3.5-10.31,4.51-4.9,1.02-11.7,1.53-20.4,1.53-6.55,0-12.78-.38-18.7-1.13s-10.71-1.82-14.37-3.2l-.92-6.47,.37-.06c.04,.08,.06,.15,.06,.21s.02,.13,.06,.21c.98,2.56,3.2,4.57,6.68,6.04,3.48,1.46,7.55,2.47,12.23,3.02,4.68,.55,9.68,.82,15.01,.82,9.31,0,16.27-.65,20.86-1.95,4.59-1.3,6.89-3.58,6.89-6.83,0-1.46-.36-2.6-1.07-3.42-.71-.81-1.93-1.43-3.66-1.86-1.73-.43-4.32-.84-7.78-1.25l-33.79-3.78Z"/></g><g><path class="cls-3" d="M172.1,467.56l35.5,36.84-4.45,4.64,35.87-41.48h12.5v.3c-.98,.33-1.73,.91-2.26,1.74-.53,.83-.79,2-.79,3.51v31.17c0,1.91,.26,3.32,.79,4.21,.53,.9,1.28,1.44,2.26,1.65v.3h-16.04v-.3c1.14-.2,2.01-.74,2.62-1.62,.61-.87,.92-2.29,.92-4.24v-36.36h.43l-37.51,43.43h-.3l-38.43-40.02,.37-.31v32.15c0,1.22,.18,2.34,.55,3.35,.37,1.02,.97,1.85,1.8,2.5,.83,.65,1.9,1.02,3.2,1.1v.3h-10.61v-.3c.98-.08,1.8-.39,2.47-.92s1.18-1.3,1.53-2.32c.34-1.02,.52-2.26,.52-3.72v-29.46c0-1.71-.35-2.99-1.04-3.84-.69-.85-1.85-1.52-3.48-2.01v-.3h13.6Z"/><path class="cls-3" d="M258.47,506.78s-.09,.09-.15,.15c-.06,.06-.11,.11-.15,.15-.45,.53-.67,1-.67,1.4s.13,.73,.4,.98c.26,.24,.66,.47,1.19,.67v.3h-6.71v-.3c1.06-.24,1.94-.6,2.65-1.07,.71-.47,1.51-1.15,2.41-2.04l34.71-34.1h.79l-34.47,33.85Zm51.42-13.85v.55h-37.94v-.55h37.94Zm-28.3-22.75c-1.06-.98-1.88-1.66-2.47-2.04-.59-.39-1.17-.62-1.74-.7v-.37h14.27l37.27,35.56c1.99,1.95,3.94,3.66,5.86,5.12,1.91,1.46,3.23,2.24,3.96,2.32v.37h-19.7v-.37c1.38-.16,2.07-.63,2.07-1.4,0-.33-.09-.61-.27-.85-.18-.24-.46-.57-.82-.98l-38.43-36.66Z"/><path class="cls-3" d="M340.52,467.56h17.75v.24c-1.59,.45-2.67,1.16-3.26,2.13-.59,.98-.88,2.24-.88,3.78v30.56c0,1.55,.29,2.81,.88,3.78,.59,.98,1.68,1.69,3.26,2.13v.24h-17.75v-.24c1.59-.45,2.67-1.16,3.26-2.13,.59-.98,.88-2.24,.88-3.78v-30.56c0-1.54-.3-2.81-.88-3.78-.59-.98-1.68-1.69-3.26-2.13v-.24Z"/><path class="cls-3" d="M376.45,491.71c-5.29-.57-9.29-1.69-12.02-3.36-2.72-1.67-4.09-4.41-4.09-8.24,0-3.05,1-5.53,2.99-7.44,1.99-1.91,5.45-3.36,10.37-4.36,4.92-1,11.75-1.5,20.5-1.5,6.59,0,12.81,.31,18.67,.92,5.86,.61,10.67,1.57,14.46,2.87l.92,6.47-.37,.06c-1.18-3.82-4.95-6.41-11.32-7.75-6.37-1.34-13.82-2.01-22.36-2.01-9.03,0-16.01,.6-20.95,1.8-4.94,1.2-7.41,3.51-7.41,6.92,0,1.71,.48,3.01,1.43,3.9,.96,.9,2.27,1.54,3.93,1.92,1.67,.39,4.05,.74,7.14,1.07l33.79,3.78c3.38,.37,6.21,.89,8.51,1.59,2.3,.69,4.14,1.77,5.52,3.23,1.38,1.46,2.07,3.44,2.07,5.92,0,3.21-.99,5.82-2.96,7.81-1.97,1.99-5.41,3.5-10.31,4.51-4.9,1.02-11.7,1.53-20.4,1.53-6.55,0-12.78-.38-18.7-1.13s-10.71-1.82-14.37-3.2l-.92-6.47,.37-.06c.04,.08,.06,.15,.06,.21s.02,.13,.06,.21c.98,2.56,3.2,4.57,6.68,6.04,3.48,1.46,7.55,2.47,12.23,3.02,4.68,.55,9.68,.82,15.01,.82,9.31,0,16.27-.65,20.86-1.95,4.59-1.3,6.89-3.58,6.89-6.83,0-1.46-.36-2.6-1.07-3.42-.71-.81-1.93-1.43-3.66-1.86-1.73-.43-4.32-.84-7.78-1.25l-33.79-3.78Z"/><path class="cls-3" d="M471.49,511.17c-9.6,0-17.4-.81-23.39-2.44-6-1.63-10.4-4.06-13.21-7.29-2.81-3.23-4.21-7.35-4.21-12.35s1.4-9.14,4.21-12.41c2.81-3.27,7.21-5.73,13.21-7.38,6-1.65,13.79-2.47,23.39-2.47s17.33,.82,23.33,2.47c6,1.65,10.39,4.11,13.18,7.38,2.79,3.27,4.18,7.41,4.18,12.41s-1.39,9.12-4.18,12.35c-2.79,3.23-7.17,5.66-13.15,7.29-5.98,1.63-13.77,2.44-23.36,2.44Zm0-.55c6.95,0,12.62-.8,16.99-2.41,4.37-1.61,7.58-3.95,9.64-7.05,2.05-3.09,3.12-6.89,3.2-11.41v-1.34c-.08-4.55-1.15-8.38-3.2-11.47-2.05-3.09-5.27-5.46-9.64-7.11-4.37-1.65-10.03-2.47-16.99-2.47s-13,.84-17.42,2.53c-4.41,1.69-7.6,4.13-9.58,7.32-1.97,3.19-2.96,7.15-2.96,11.87s.99,8.65,2.96,11.8c1.97,3.15,5.16,5.56,9.58,7.23,4.41,1.67,10.22,2.5,17.42,2.5Z"/><path class="cls-3" d="M520.16,470.12c-.33-.2-.65-.4-.98-.58-.33-.18-.63-.36-.92-.52-.65-.33-1.27-.59-1.86-.79-.59-.2-1.19-.34-1.8-.43v-.24h18.85l54.23,33.06-.37,.43v-27.33c0-1.38-.12-2.45-.37-3.2-.24-.75-.83-1.35-1.77-1.8s-2.4-.75-4.39-.92v-.24h11.83v.24c-1.79,.24-3.03,.82-3.72,1.74-.69,.92-1.04,2.31-1.04,4.18v37.33l-.18,.12-67.53-41.05Zm2.93,.31h.55v33.85c0,1.38,.12,2.45,.37,3.2,.24,.75,.83,1.35,1.77,1.8,.94,.45,2.4,.75,4.39,.92v.24h-13.66v-.24c2.03-.16,3.52-.47,4.45-.92,.93-.45,1.52-1.05,1.77-1.8,.24-.75,.37-1.82,.37-3.2v-33.85Z"/><path class="cls-3" d="M637.22,467.56l35.5,36.84-4.45,4.64,35.87-41.48h12.5v.3c-.98,.33-1.73,.91-2.26,1.74-.53,.83-.79,2-.79,3.51v31.17c0,1.91,.26,3.32,.79,4.21,.53,.9,1.28,1.44,2.26,1.65v.3h-16.04v-.3c1.14-.2,2.01-.74,2.62-1.62,.61-.87,.92-2.29,.92-4.24v-36.36h.43l-37.51,43.43h-.3l-38.43-40.02,.37-.31v32.15c0,1.22,.18,2.34,.55,3.35,.37,1.02,.97,1.85,1.8,2.5,.83,.65,1.9,1.02,3.2,1.1v.3h-10.61v-.3c.98-.08,1.8-.39,2.47-.92s1.18-1.3,1.53-2.32c.34-1.02,.52-2.26,.52-3.72v-29.46c0-1.71-.35-2.99-1.04-3.84-.69-.85-1.85-1.52-3.48-2.01v-.3h13.6Z"/><path class="cls-3" d="M723.6,506.78s-.09,.09-.15,.15c-.06,.06-.11,.11-.15,.15-.45,.53-.67,1-.67,1.4s.13,.73,.4,.98c.26,.24,.66,.47,1.19,.67v.3h-6.71v-.3c1.06-.24,1.94-.6,2.65-1.07,.71-.47,1.51-1.15,2.41-2.04l34.71-34.1h.79l-34.47,33.85Zm51.42-13.85v.55h-37.94v-.55h37.94Zm-28.3-22.75c-1.06-.98-1.88-1.66-2.47-2.04-.59-.39-1.17-.62-1.74-.7v-.37h14.27l37.27,35.56c1.99,1.95,3.94,3.66,5.86,5.12,1.91,1.46,3.23,2.24,3.96,2.32v.37h-19.7v-.37c1.38-.16,2.07-.63,2.07-1.4,0-.33-.09-.61-.27-.85-.18-.24-.46-.57-.82-.98l-38.43-36.66Z"/><path class="cls-3" d="M809.79,473.72c0-1.54-.3-2.81-.88-3.78-.59-.98-1.68-1.69-3.26-2.13v-.24h50.87c7.89,0,13.59,1.29,17.11,3.87,3.52,2.58,5.28,6.46,5.28,11.62,0,4.55-1.62,8.04-4.85,10.46-3.23,2.42-8.35,3.98-15.34,4.67v.24h5.25c3.21,0,5.75,.38,7.62,1.13,1.87,.75,3.76,2.21,5.67,4.36l2.44,2.81s.07,.07,.09,.09c.02,.02,.05,.05,.09,.09,1.02,1.22,1.91,2.09,2.68,2.62,.77,.53,1.79,.69,3.05,.49v.24c-3.09,.73-5.84,1.07-8.24,1.01-2.4-.06-4.47-.5-6.22-1.31-1.75-.81-3.25-1.99-4.51-3.54l-3.11-3.78c-.98-1.18-1.83-2.04-2.56-2.59-.73-.55-1.62-.94-2.65-1.16-1.04-.22-2.53-.33-4.48-.33h-34.59v5.73c0,1.59,.33,2.86,.98,3.81,.65,.96,1.91,1.66,3.78,2.1v.24h-18.36v-.24c1.59-.45,2.67-1.16,3.26-2.13,.59-.98,.88-2.24,.88-3.78v-30.56Zm44.16,24.28c3.29,0,6.02-.55,8.17-1.65,2.16-1.1,3.76-2.75,4.82-4.97,1.06-2.22,1.59-4.99,1.59-8.33s-.53-6.11-1.59-8.33c-1.06-2.22-2.66-3.87-4.82-4.97-2.16-1.1-4.88-1.65-8.17-1.65h-34.71v29.89h34.71Z"/><path class="cls-3" d="M887.44,488.91c0-4.96,1.38-9.05,4.15-12.26,2.76-3.21,7.29-5.64,13.57-7.29,6.28-1.65,14.67-2.47,25.16-2.47,6.14,0,11.79,.39,16.96,1.16s10.07,1.95,14.7,3.54l-.55,7.14h-.3c-.2-.57-.45-1.12-.73-1.65-.29-.53-.59-1.02-.92-1.46-2.4-3.25-6.08-5.43-11.04-6.53-4.96-1.1-10.8-1.65-17.51-1.65-7.81,0-14.12,.88-18.94,2.62-4.82,1.75-8.31,4.21-10.46,7.38s-3.23,7-3.23,11.47,1.07,8.57,3.2,11.8,5.6,5.72,10.4,7.47c4.8,1.75,11.08,2.62,18.85,2.62,4.59,0,8.49-.25,11.68-.76,3.19-.51,5.52-1.23,6.98-2.17,.81-.49,1.41-1.09,1.8-1.8,.39-.71,.63-1.45,.73-2.23,.1-.77,.15-1.73,.15-2.87v-3.78c0-1.63-.14-2.88-.43-3.75-.29-.87-.82-1.58-1.62-2.1s-2-.98-3.63-1.34v-.24h17.51v.24c-.94,.53-1.57,1.36-1.89,2.5-.33,1.14-.49,2.7-.49,4.7v8.54c-3.74,1.75-8.43,3.12-14.06,4.12-5.63,1-11.28,1.49-16.93,1.49-10.37,0-18.72-.82-25.04-2.47-6.32-1.65-10.92-4.12-13.79-7.41s-4.3-7.48-4.3-12.57Z"/><path class="cls-3" d="M966.62,467.56h17.75v.24c-1.59,.45-2.67,1.16-3.26,2.13-.59,.98-.88,2.24-.88,3.78v30.56c0,1.55,.29,2.81,.88,3.78,.59,.98,1.68,1.69,3.26,2.13v.24h-17.75v-.24c1.59-.45,2.67-1.16,3.26-2.13,.59-.98,.88-2.24,.88-3.78v-30.56c0-1.54-.3-2.81-.88-3.78-.59-.98-1.68-1.69-3.26-2.13v-.24Z"/><path class="cls-3" d="M1049.09,466.64l1.34,6.95-.24,.06c-.77-2.16-2.06-3.62-3.87-4.39-1.81-.77-4.52-1.16-8.14-1.16h-38.49v22.57h42.27c1.06,0,1.9-.07,2.53-.21,.63-.14,1.22-.51,1.77-1.1,.55-.59,1.01-1.54,1.37-2.84h.24v8.84h-.24c-.37-1.3-.82-2.25-1.37-2.84-.55-.59-1.14-.96-1.77-1.1-.63-.14-1.47-.21-2.53-.21h-42.27v18.67h35.01c3.82,0,6.85-.13,9.09-.4s4.13-.81,5.67-1.65c1.54-.83,2.85-2.1,3.9-3.81l.37,.12-2.87,7.2h-.49c-.65-.41-1.92-.66-3.81-.76-1.89-.1-5.85-.15-11.87-.15h-48.62v-.24c1.59-.45,2.67-1.16,3.26-2.13,.59-.98,.88-2.24,.88-3.78v-30.56c0-1.54-.3-2.81-.88-3.78-.59-.98-1.68-1.69-3.26-2.13v-.24h46.85c6.02,0,9.97-.05,11.86-.15s3.16-.36,3.81-.76h.49Z"/><path class="cls-3" d="M1102.16,509.89c3.82,0,6.85-.13,9.09-.4,2.24-.26,4.13-.81,5.67-1.65,1.54-.83,2.85-2.1,3.9-3.81l.37,.12-2.87,7.2h-.49c-.65-.41-1.92-.66-3.81-.76-1.89-.1-5.85-.15-11.87-.15h-46.67v-.24c1.59-.45,2.67-1.16,3.26-2.13,.59-.98,.88-2.24,.88-3.78v-30.56c0-1.54-.3-2.81-.88-3.78-.59-.98-1.68-1.69-3.26-2.13v-.24h18v.24c-1.71,.45-2.87,1.15-3.48,2.1-.61,.96-.92,2.23-.92,3.81v36.11l33.06,.06Z"/><path class="cls-3" d="M1127.17,506.78s-.09,.09-.15,.15c-.06,.06-.11,.11-.15,.15-.45,.53-.67,1-.67,1.4s.13,.73,.4,.98c.26,.24,.66,.47,1.19,.67v.3h-6.71v-.3c1.06-.24,1.94-.6,2.65-1.07,.71-.47,1.51-1.15,2.41-2.04l34.71-34.1h.79l-34.47,33.85Zm51.42-13.85v.55h-37.94v-.55h37.94Zm-28.3-22.75c-1.06-.98-1.88-1.66-2.47-2.04-.59-.39-1.17-.62-1.74-.7v-.37h14.27l37.27,35.56c1.99,1.95,3.94,3.66,5.86,5.12,1.91,1.46,3.23,2.24,3.96,2.32v.37h-19.7v-.37c1.38-.16,2.07-.63,2.07-1.4,0-.33-.09-.61-.27-.85-.18-.24-.46-.57-.82-.98l-38.43-36.66Z"/></g><g><path class="cls-3" d="M451.75,530.75c0,3.82-1.45,6.62-4.36,8.39-2.91,1.77-7.27,2.86-13.08,3.26v.24c5.08,.08,8.91,.82,11.47,2.23,2.56,1.4,3.84,3.77,3.84,7.11,0,3.58-1.49,6.14-4.45,7.69-2.97,1.55-7.69,2.32-14.15,2.32h-50.87v-.24c1.59-.45,2.67-1.16,3.26-2.13,.59-.98,.88-2.24,.88-3.78v-30.56c0-1.54-.3-2.81-.88-3.78-.59-.98-1.68-1.69-3.26-2.13v-.24h51.18c4.8,0,8.68,.37,11.65,1.1,2.97,.73,5.17,1.95,6.62,3.66,1.44,1.71,2.17,4.01,2.17,6.89Zm-21.65,11.47c2.72,0,4.92-.46,6.59-1.37,1.67-.92,2.87-2.21,3.6-3.87,.73-1.67,1.1-3.7,1.1-6.1,0-3.62-.88-6.39-2.62-8.33-1.75-1.93-4.64-2.9-8.66-2.9h-36.36v22.57h36.36Zm-1.53,19.21c2.68,0,4.83-.34,6.44-1.04,1.61-.69,2.76-1.73,3.48-3.11,.71-1.38,1.07-3.15,1.07-5.31,0-2.28-.35-4.08-1.04-5.4-.69-1.32-1.83-2.29-3.42-2.9-1.59-.61-3.76-.92-6.53-.92h-34.83v18.67h34.83Z"/><path class="cls-3" d="M491.4,562.9c-7.85,0-14.22-.54-19.12-1.62s-8.61-2.97-11.13-5.67c-2.52-2.7-3.78-6.46-3.78-11.25v-16.78c0-1.95-.07-3.38-.21-4.3s-.5-1.69-1.07-2.32c-.57-.63-1.52-1.17-2.87-1.62v-.24h17.75v.24c-1.34,.45-2.3,.99-2.87,1.62-.57,.63-.93,1.4-1.07,2.32-.14,.92-.21,2.35-.21,4.3v17.2c0,4.07,1.09,7.24,3.26,9.52,2.17,2.28,5.24,3.85,9.18,4.73,3.94,.88,8.86,1.31,14.76,1.31,5.53,0,10.33-.45,14.4-1.34,4.07-.89,7.33-2.49,9.79-4.79,2.46-2.3,3.69-5.48,3.69-9.55v-18.3c0-2.32-.32-3.99-.95-5-.63-1.02-1.94-1.69-3.93-2.01v-.24h9.03v.24c-1.38,.57-2.33,1.38-2.84,2.44-.51,1.06-.76,2.58-.76,4.58v18.12c0,4.88-1.29,8.67-3.87,11.38-2.58,2.71-6.11,4.56-10.58,5.55s-10,1.49-16.59,1.49Z"/><path class="cls-3" d="M531.36,525.26c0-1.54-.3-2.81-.88-3.78-.59-.98-1.68-1.69-3.26-2.13v-.24h50.87c7.89,0,13.59,1.29,17.11,3.87,3.52,2.58,5.28,6.46,5.28,11.62,0,4.55-1.62,8.04-4.85,10.46-3.23,2.42-8.35,3.98-15.34,4.67v.24h5.25c3.21,0,5.75,.38,7.62,1.13,1.87,.75,3.76,2.21,5.67,4.36l2.44,2.81s.07,.07,.09,.09c.02,.02,.05,.05,.09,.09,1.02,1.22,1.91,2.09,2.68,2.62,.77,.53,1.79,.69,3.05,.49v.24c-3.09,.73-5.84,1.07-8.24,1.01-2.4-.06-4.47-.5-6.22-1.31-1.75-.81-3.25-1.99-4.51-3.54l-3.11-3.78c-.98-1.18-1.83-2.04-2.56-2.59-.73-.55-1.62-.94-2.65-1.16-1.04-.22-2.53-.33-4.48-.33h-34.59v5.73c0,1.59,.33,2.86,.98,3.81,.65,.96,1.91,1.66,3.78,2.1v.24h-18.36v-.24c1.59-.45,2.67-1.16,3.26-2.13,.59-.98,.88-2.24,.88-3.78v-30.56Zm44.16,24.28c3.29,0,6.02-.55,8.17-1.65,2.16-1.1,3.76-2.75,4.82-4.97,1.06-2.22,1.59-4.99,1.59-8.33s-.53-6.11-1.59-8.33c-1.06-2.22-2.66-3.87-4.82-4.97-2.16-1.1-4.88-1.65-8.17-1.65h-34.71v29.89h34.71Z"/><path class="cls-3" d="M680.26,530.75c0,3.82-1.45,6.62-4.36,8.39-2.91,1.77-7.27,2.86-13.08,3.26v.24c5.08,.08,8.91,.82,11.47,2.23,2.56,1.4,3.84,3.77,3.84,7.11,0,3.58-1.49,6.14-4.45,7.69-2.97,1.55-7.69,2.32-14.15,2.32h-50.87v-.24c1.59-.45,2.67-1.16,3.26-2.13,.59-.98,.88-2.24,.88-3.78v-30.56c0-1.54-.3-2.81-.88-3.78-.59-.98-1.68-1.69-3.26-2.13v-.24h51.18c4.8,0,8.68,.37,11.65,1.1,2.97,.73,5.17,1.95,6.62,3.66,1.44,1.71,2.17,4.01,2.17,6.89Zm-21.65,11.47c2.72,0,4.92-.46,6.59-1.37,1.67-.92,2.87-2.21,3.6-3.87,.73-1.67,1.1-3.7,1.1-6.1,0-3.62-.88-6.39-2.62-8.33-1.75-1.93-4.64-2.9-8.66-2.9h-36.36v22.57h36.36Zm-1.53,19.21c2.68,0,4.83-.34,6.44-1.04,1.61-.69,2.76-1.73,3.48-3.11,.71-1.38,1.07-3.15,1.07-5.31,0-2.28-.35-4.08-1.04-5.4-.69-1.32-1.83-2.29-3.42-2.9-1.59-.61-3.76-.92-6.53-.92h-34.83v18.67h34.83Z"/><path class="cls-3" d="M744.73,518.18l1.34,6.95-.24,.06c-.77-2.16-2.06-3.62-3.87-4.39-1.81-.77-4.52-1.16-8.14-1.16h-38.49v22.57h42.27c1.06,0,1.9-.07,2.53-.21,.63-.14,1.22-.51,1.77-1.1,.55-.59,1.01-1.54,1.37-2.84h.24v8.84h-.24c-.37-1.3-.82-2.25-1.37-2.84-.55-.59-1.14-.96-1.77-1.1-.63-.14-1.47-.21-2.53-.21h-42.27v18.67h35.01c3.82,0,6.85-.13,9.09-.4s4.13-.81,5.67-1.65c1.54-.83,2.85-2.1,3.9-3.81l.37,.12-2.87,7.2h-.49c-.65-.41-1.92-.66-3.81-.76-1.89-.1-5.85-.15-11.87-.15h-48.62v-.24c1.59-.45,2.67-1.16,3.26-2.13,.59-.98,.88-2.24,.88-3.78v-30.56c0-1.54-.3-2.81-.88-3.78-.59-.98-1.68-1.69-3.26-2.13v-.24h46.85c6.02,0,9.97-.05,11.86-.15s3.16-.36,3.81-.76h.49Z"/><path class="cls-3" d="M755.29,525.26c0-1.54-.3-2.81-.88-3.78-.59-.98-1.68-1.69-3.26-2.13v-.24h50.87c7.89,0,13.59,1.29,17.11,3.87,3.52,2.58,5.28,6.46,5.28,11.62,0,4.55-1.62,8.04-4.85,10.46-3.23,2.42-8.35,3.98-15.34,4.67v.24h5.25c3.21,0,5.75,.38,7.62,1.13,1.87,.75,3.76,2.21,5.67,4.36l2.44,2.81s.07,.07,.09,.09c.02,.02,.05,.05,.09,.09,1.02,1.22,1.91,2.09,2.68,2.62,.77,.53,1.79,.69,3.05,.49v.24c-3.09,.73-5.84,1.07-8.24,1.01-2.4-.06-4.47-.5-6.22-1.31-1.75-.81-3.25-1.99-4.51-3.54l-3.11-3.78c-.98-1.18-1.83-2.04-2.56-2.59-.73-.55-1.62-.94-2.65-1.16-1.04-.22-2.53-.33-4.48-.33h-34.59v5.73c0,1.59,.33,2.86,.98,3.81,.65,.96,1.91,1.66,3.78,2.1v.24h-18.36v-.24c1.59-.45,2.67-1.16,3.26-2.13,.59-.98,.88-2.24,.88-3.78v-30.56Zm44.16,24.28c3.29,0,6.02-.55,8.17-1.65,2.16-1.1,3.76-2.75,4.82-4.97,1.06-2.22,1.59-4.99,1.59-8.33s-.53-6.11-1.59-8.33c-1.06-2.22-2.66-3.87-4.82-4.97-2.16-1.1-4.88-1.65-8.17-1.65h-34.71v29.89h34.71Z"/><path class="cls-3" d="M836.72,525.26c0-1.54-.3-2.81-.88-3.78-.59-.98-1.68-1.69-3.26-2.13v-.24h50.87c7.89,0,13.59,1.29,17.11,3.87,3.52,2.58,5.28,6.46,5.28,11.62,0,4.55-1.62,8.04-4.85,10.46-3.23,2.42-8.35,3.98-15.34,4.67v.24h5.25c3.21,0,5.75,.38,7.62,1.13,1.87,.75,3.76,2.21,5.67,4.36l2.44,2.81s.07,.07,.09,.09c.02,.02,.05,.05,.09,.09,1.02,1.22,1.91,2.09,2.68,2.62,.77,.53,1.79,.69,3.05,.49v.24c-3.09,.73-5.84,1.07-8.24,1.01-2.4-.06-4.47-.5-6.22-1.31-1.75-.81-3.25-1.99-4.51-3.54l-3.11-3.78c-.98-1.18-1.83-2.04-2.56-2.59-.73-.55-1.62-.94-2.65-1.16-1.04-.22-2.53-.33-4.48-.33h-34.59v5.73c0,1.59,.33,2.86,.98,3.81,.65,.96,1.91,1.66,3.78,2.1v.24h-18.36v-.24c1.59-.45,2.67-1.16,3.26-2.13,.59-.98,.88-2.24,.88-3.78v-30.56Zm44.16,24.28c3.29,0,6.02-.55,8.17-1.65,2.16-1.1,3.76-2.75,4.82-4.97,1.06-2.22,1.59-4.99,1.59-8.33s-.53-6.11-1.59-8.33c-1.06-2.22-2.66-3.87-4.82-4.97-2.16-1.1-4.88-1.65-8.17-1.65h-34.71v29.89h34.71Z"/><path class="cls-3" d="M953.41,555.82c0,1.59,.33,2.86,.98,3.81,.65,.96,1.91,1.66,3.78,2.1v.24h-18.97v-.24c1.87-.45,3.13-1.14,3.78-2.07,.65-.93,.98-2.22,.98-3.84v-11.16l-34.65-23.24c-.08-.08-.17-.15-.27-.21-.1-.06-.19-.11-.27-.15-.73-.49-1.33-.86-1.8-1.13-.47-.26-.93-.42-1.37-.46v-.37h20.62v.37c-.41,.24-.61,.59-.61,1.04,0,.41,.17,.77,.52,1.1,.34,.33,.95,.77,1.8,1.34l.24,.12,25.19,16.84,24.89-16.53s.06,0,.06-.03c0-.02,.02-.03,.06-.03,1.06-.69,1.81-1.22,2.26-1.59s.67-.75,.67-1.16c0-.33-.13-.58-.4-.76-.26-.18-.78-.33-1.55-.46v-.24h7.38v.24c-.81,.08-1.77,.43-2.87,1.04-1.1,.61-2.34,1.36-3.72,2.26l-.06,.06-26.66,17.69v15.43Z"/></g><g><path class="cls-3" d="M329.63,612.52c3.82,0,6.85-.13,9.09-.4,2.24-.26,4.13-.81,5.67-1.65,1.54-.83,2.85-2.1,3.9-3.81l.37,.12-2.87,7.2h-.49c-.65-.41-1.92-.66-3.81-.76-1.89-.1-5.85-.15-11.87-.15h-46.67v-.24c1.59-.45,2.67-1.16,3.26-2.13,.59-.98,.88-2.24,.88-3.78v-30.56c0-1.54-.3-2.81-.88-3.78-.59-.98-1.68-1.69-3.26-2.13v-.24h18v.24c-1.71,.45-2.87,1.15-3.48,2.1-.61,.96-.92,2.23-.92,3.81v36.11l33.06,.06Z"/><path class="cls-3" d="M390.57,613.8c-9.6,0-17.4-.81-23.39-2.44-6-1.63-10.4-4.06-13.21-7.29-2.81-3.23-4.21-7.35-4.21-12.35s1.4-9.14,4.21-12.41c2.81-3.27,7.21-5.73,13.21-7.38,6-1.65,13.79-2.47,23.39-2.47s17.33,.82,23.33,2.47c6,1.65,10.39,4.11,13.18,7.38,2.79,3.27,4.18,7.41,4.18,12.41s-1.39,9.12-4.18,12.35c-2.79,3.23-7.17,5.66-13.15,7.29-5.98,1.63-13.77,2.44-23.36,2.44Zm0-.55c6.95,0,12.62-.8,16.99-2.41,4.37-1.61,7.58-3.95,9.64-7.05,2.05-3.09,3.12-6.89,3.2-11.41v-1.34c-.08-4.55-1.15-8.38-3.2-11.47-2.05-3.09-5.27-5.46-9.64-7.11-4.37-1.65-10.03-2.47-16.99-2.47s-13,.84-17.42,2.53c-4.41,1.69-7.6,4.13-9.58,7.32-1.97,3.19-2.96,7.15-2.96,11.87s.99,8.65,2.96,11.8c1.97,3.15,5.16,5.56,9.58,7.23,4.41,1.67,10.22,2.5,17.42,2.5Z"/><path class="cls-3" d="M496.71,569.27l1.34,6.95-.24,.06c-.77-2.16-2.06-3.62-3.87-4.39-1.81-.77-4.52-1.16-8.14-1.16h-38.49v22.57h42.27c1.06,0,1.9-.07,2.53-.21,.63-.14,1.22-.51,1.77-1.1,.55-.59,1.01-1.54,1.37-2.84h.24v8.84h-.24c-.37-1.3-.82-2.25-1.37-2.84-.55-.59-1.14-.96-1.77-1.1-.63-.14-1.47-.21-2.53-.21h-42.27v18.67h35.01c3.82,0,6.85-.13,9.09-.4s4.13-.81,5.67-1.65c1.54-.83,2.85-2.1,3.9-3.81l.37,.12-2.87,7.2h-.49c-.65-.41-1.92-.66-3.81-.76-1.89-.1-5.85-.15-11.87-.15h-48.62v-.24c1.59-.45,2.67-1.16,3.26-2.13,.59-.98,.88-2.24,.88-3.78v-30.56c0-1.54-.3-2.81-.88-3.78-.59-.98-1.68-1.69-3.26-2.13v-.24h46.85c6.02,0,9.97-.05,11.86-.15s3.16-.36,3.81-.76h.49Z"/><path class="cls-3" d="M538.92,605.26h-.3l16.9-29.1h.61l-21.9,37.64h-.67l-25.32-38.98c-.89-1.38-1.77-2.41-2.62-3.08-.85-.67-1.77-1.11-2.75-1.31v-.24h17.87v.24c-.94,.16-1.61,.41-2.01,.73-.41,.33-.61,.71-.61,1.16,0,.33,.08,.7,.24,1.13,.16,.43,.45,.92,.85,1.49l19.7,30.32Zm24.77-30.32l18.97,30.32h-.43l16.9-29.16c.45-.77,.78-1.41,1.01-1.92,.22-.51,.34-1.01,.34-1.49,0-.65-.33-1.16-.98-1.53-.65-.37-1.55-.61-2.68-.73v-.24h8.42v.24c-.89,.2-1.69,.59-2.38,1.16-.69,.57-1.34,1.4-1.95,2.5l-23.12,39.71h-.55l-24.4-38.98c-.85-1.38-1.7-2.41-2.53-3.08-.83-.67-1.86-1.11-3.08-1.31v-.24h18.18v.24c-.94,.16-1.6,.43-1.98,.79-.39,.37-.58,.81-.58,1.34,0,.73,.28,1.53,.85,2.38Z"/><path class="cls-3" d="M670.74,569.27l1.34,6.95-.24,.06c-.77-2.16-2.06-3.62-3.87-4.39-1.81-.77-4.52-1.16-8.14-1.16h-38.49v22.57h42.27c1.06,0,1.9-.07,2.53-.21,.63-.14,1.22-.51,1.77-1.1,.55-.59,1.01-1.54,1.37-2.84h.24v8.84h-.24c-.37-1.3-.82-2.25-1.37-2.84-.55-.59-1.14-.96-1.77-1.1-.63-.14-1.47-.21-2.53-.21h-42.27v18.67h35.01c3.82,0,6.85-.13,9.09-.4s4.13-.81,5.67-1.65c1.54-.83,2.85-2.1,3.9-3.81l.37,.12-2.87,7.2h-.49c-.65-.41-1.92-.66-3.81-.76-1.89-.1-5.85-.15-11.87-.15h-48.62v-.24c1.59-.45,2.67-1.16,3.26-2.13,.59-.98,.88-2.24,.88-3.78v-30.56c0-1.54-.3-2.81-.88-3.78-.59-.98-1.68-1.69-3.26-2.13v-.24h46.85c6.02,0,9.97-.05,11.86-.15s3.16-.36,3.81-.76h.49Z"/><path class="cls-3" d="M719.97,606.91c0,1.55,.33,2.81,1.01,3.78,.67,.98,1.86,1.69,3.57,2.13v.24h-18.12v-.24c1.59-.45,2.67-1.16,3.26-2.13,.59-.98,.88-2.24,.88-3.78v-30.56c0-1.54-.3-2.81-.88-3.78-.59-.98-1.68-1.69-3.26-2.13v-.24h18.12v.24c-1.71,.45-2.89,1.16-3.54,2.13-.65,.98-.98,2.24-.98,3.78l-.06,30.56Zm-3.97-10.86v-.55l50.87-21.41c1.22-.49,2.04-.89,2.47-1.22,.43-.33,.64-.67,.64-1.04s-.29-.65-.85-.85c-.57-.2-1.65-.37-3.23-.49v-.3h12.75v.3c-.94,.04-1.99,.26-3.17,.67-1.18,.41-2.85,1.06-5,1.95l-54.47,22.94Zm13.05-5.86l9.7-4.09,37.03,25.31c.08,.04,.15,.08,.21,.12,.06,.04,.13,.08,.21,.12,.41,.29,.82,.52,1.25,.7,.43,.18,.9,.32,1.43,.4v.3h-21.23v-.3c.57-.08,1-.21,1.28-.4,.28-.18,.43-.42,.43-.7,0-.32-.11-.59-.33-.79-.22-.2-.66-.53-1.31-.98l-28.67-19.7Z"/><path class="cls-3" d="M843.37,569.27l1.34,6.95-.24,.06c-.77-2.16-2.06-3.62-3.87-4.39-1.81-.77-4.52-1.16-8.14-1.16h-38.49v22.57h42.27c1.06,0,1.9-.07,2.53-.21,.63-.14,1.22-.51,1.77-1.1,.55-.59,1.01-1.54,1.37-2.84h.24v8.84h-.24c-.37-1.3-.82-2.25-1.37-2.84-.55-.59-1.14-.96-1.77-1.1-.63-.14-1.47-.21-2.53-.21h-42.27v18.67h35.01c3.82,0,6.85-.13,9.09-.4s4.13-.81,5.67-1.65c1.54-.83,2.85-2.1,3.9-3.81l.37,.12-2.87,7.2h-.49c-.65-.41-1.92-.66-3.81-.76-1.89-.1-5.85-.15-11.87-.15h-48.62v-.24c1.59-.45,2.67-1.16,3.26-2.13,.59-.98,.88-2.24,.88-3.78v-30.56c0-1.54-.3-2.81-.88-3.78-.59-.98-1.68-1.69-3.26-2.13v-.24h46.85c6.02,0,9.97-.05,11.86-.15s3.16-.36,3.81-.76h.49Z"/><path class="cls-3" d="M855.32,572.75c-.33-.2-.65-.4-.98-.58-.33-.18-.63-.36-.92-.52-.65-.33-1.27-.59-1.86-.79-.59-.2-1.19-.34-1.8-.43v-.24h18.85l54.23,33.06-.37,.43v-27.33c0-1.38-.12-2.45-.37-3.2-.24-.75-.83-1.35-1.77-1.8s-2.4-.75-4.39-.92v-.24h11.83v.24c-1.79,.24-3.03,.82-3.72,1.74-.69,.92-1.04,2.31-1.04,4.18v37.33l-.18,.12-67.53-41.05Zm2.93,.31h.55v33.85c0,1.38,.12,2.45,.37,3.2,.24,.75,.83,1.35,1.77,1.8,.94,.45,2.4,.75,4.39,.92v.24h-13.66v-.24c2.03-.16,3.52-.47,4.45-.92,.93-.45,1.52-1.05,1.77-1.8,.24-.75,.37-1.82,.37-3.2v-33.85Z"/><path class="cls-3" d="M978.85,612.52c3.82,0,6.85-.13,9.09-.4,2.24-.26,4.13-.81,5.67-1.65,1.54-.83,2.85-2.1,3.9-3.81l.37,.12-2.87,7.2h-.49c-.65-.41-1.92-.66-3.81-.76-1.89-.1-5.85-.15-11.86-.15h-49.9l55.33-42.33h-42.46c-3.62,0-6.33,.39-8.14,1.16s-3.1,2.24-3.87,4.39l-.24-.06,1.34-6.95h.49c.65,.41,1.92,.66,3.81,.76,1.89,.1,5.85,.15,11.86,.15h52.22l-55.21,42.27,34.77,.06Z"/><path class="cls-3" d="M1041.62,613.8c-9.6,0-17.4-.81-23.39-2.44-6-1.63-10.4-4.06-13.21-7.29-2.81-3.23-4.21-7.35-4.21-12.35s1.4-9.14,4.21-12.41c2.81-3.27,7.21-5.73,13.21-7.38,6-1.65,13.79-2.47,23.39-2.47s17.33,.82,23.33,2.47c6,1.65,10.39,4.11,13.18,7.38,2.79,3.27,4.18,7.41,4.18,12.41s-1.39,9.12-4.18,12.35c-2.79,3.23-7.17,5.66-13.15,7.29-5.98,1.63-13.77,2.44-23.36,2.44Zm0-.55c6.95,0,12.62-.8,16.99-2.41,4.37-1.61,7.58-3.95,9.64-7.05,2.05-3.09,3.12-6.89,3.2-11.41v-1.34c-.08-4.55-1.15-8.38-3.2-11.47-2.05-3.09-5.27-5.46-9.64-7.11-4.37-1.65-10.03-2.47-16.99-2.47s-13,.84-17.42,2.53c-4.41,1.69-7.6,4.13-9.58,7.32-1.97,3.19-2.96,7.15-2.96,11.87s.99,8.65,2.96,11.8c1.97,3.15,5.16,5.56,9.58,7.23,4.41,1.67,10.22,2.5,17.42,2.5Z"/></g><g><path class="cls-3" d="M53.03,227.8c0-4.47,1.19-8.34,3.57-11.59,2.38-3.25,6.65-5.84,12.81-7.78,6.16-1.93,14.61-2.9,25.35-2.9,8.05,0,14.94,.5,20.68,1.5,5.73,1,10.13,2.06,13.18,3.2l.98,6.95-.31,.06c-1.67-4.19-5.53-7.1-11.59-8.72-6.06-1.63-12.77-2.44-20.13-2.44-8.5,0-15.24,.93-20.22,2.78s-8.5,4.37-10.55,7.56c-2.05,3.19-3.08,6.98-3.08,11.38s1.03,8.18,3.08,11.38c2.05,3.19,5.57,5.71,10.55,7.56s11.72,2.78,20.22,2.78c7.36,0,14.07-.81,20.13-2.44,6.06-1.63,9.92-4.53,11.59-8.72l.31,.06-.98,6.95c-3.05,1.14-7.44,2.21-13.18,3.2s-12.63,1.49-20.68,1.49c-10.74,0-19.18-.97-25.35-2.9-6.16-1.93-10.43-4.52-12.81-7.78-2.38-3.25-3.57-7.12-3.57-11.59Z"/><path class="cls-3" d="M173.32,249.88c-9.6,0-17.4-.81-23.39-2.44-6-1.63-10.4-4.06-13.21-7.29-2.81-3.23-4.21-7.35-4.21-12.35s1.4-9.14,4.21-12.41c2.81-3.27,7.21-5.73,13.21-7.38,6-1.65,13.79-2.47,23.39-2.47s17.33,.82,23.33,2.47c6,1.65,10.39,4.11,13.18,7.38,2.79,3.27,4.18,7.41,4.18,12.41s-1.39,9.12-4.18,12.35c-2.79,3.23-7.17,5.66-13.15,7.29-5.98,1.63-13.77,2.44-23.36,2.44Zm0-.55c6.95,0,12.62-.8,16.99-2.41,4.37-1.61,7.58-3.95,9.64-7.05,2.05-3.09,3.12-6.89,3.2-11.41v-1.34c-.08-4.55-1.15-8.38-3.2-11.47-2.05-3.09-5.27-5.46-9.64-7.11-4.37-1.65-10.03-2.47-16.99-2.47s-13,.84-17.42,2.53c-4.41,1.69-7.6,4.13-9.58,7.32-1.97,3.19-2.96,7.15-2.96,11.87s.99,8.65,2.96,11.8c1.97,3.15,5.16,5.56,9.58,7.23,4.41,1.67,10.22,2.5,17.42,2.5Z"/><path class="cls-3" d="M230.05,206.27l35.5,36.84-4.45,4.64,35.87-41.48h12.5v.3c-.98,.33-1.73,.91-2.26,1.74-.53,.83-.79,2-.79,3.51v31.17c0,1.91,.26,3.32,.79,4.21,.53,.9,1.28,1.44,2.26,1.65v.3h-16.04v-.3c1.14-.2,2.01-.74,2.62-1.62,.61-.87,.92-2.29,.92-4.24v-36.36h.43l-37.51,43.43h-.3l-38.43-40.02,.37-.31v32.15c0,1.22,.18,2.34,.55,3.35,.37,1.02,.97,1.85,1.8,2.5,.83,.65,1.9,1.02,3.2,1.1v.3h-10.61v-.3c.98-.08,1.8-.39,2.47-.92s1.18-1.3,1.53-2.32c.34-1.02,.52-2.26,.52-3.72v-29.46c0-1.71-.35-2.99-1.04-3.84-.69-.85-1.85-1.52-3.48-2.01v-.3h13.6Z"/><path class="cls-3" d="M324.78,206.27l35.5,36.84-4.45,4.64,35.87-41.48h12.5v.3c-.98,.33-1.73,.91-2.26,1.74-.53,.83-.79,2-.79,3.51v31.17c0,1.91,.26,3.32,.79,4.21,.53,.9,1.28,1.44,2.26,1.65v.3h-16.04v-.3c1.14-.2,2.01-.74,2.62-1.62,.61-.87,.92-2.29,.92-4.24v-36.36h.43l-37.51,43.43h-.3l-38.43-40.02,.37-.31v32.15c0,1.22,.18,2.34,.55,3.35,.37,1.02,.97,1.85,1.8,2.5,.83,.65,1.9,1.02,3.2,1.1v.3h-10.61v-.3c.98-.08,1.8-.39,2.47-.92s1.18-1.3,1.53-2.32c.34-1.02,.52-2.26,.52-3.72v-29.46c0-1.71-.35-2.99-1.04-3.84-.69-.85-1.85-1.52-3.48-2.01v-.3h13.6Z"/><path class="cls-3" d="M468.92,205.35l1.34,6.95-.24,.06c-.77-2.16-2.06-3.62-3.87-4.39-1.81-.77-4.52-1.16-8.14-1.16h-38.49v22.57h42.27c1.06,0,1.9-.07,2.53-.21,.63-.14,1.22-.51,1.77-1.1,.55-.59,1.01-1.54,1.37-2.84h.24v8.84h-.24c-.37-1.3-.82-2.25-1.37-2.84-.55-.59-1.14-.96-1.77-1.1-.63-.14-1.47-.21-2.53-.21h-42.27v18.67h35.01c3.82,0,6.85-.13,9.09-.4s4.13-.81,5.67-1.65c1.54-.83,2.85-2.1,3.9-3.81l.37,.12-2.87,7.2h-.49c-.65-.41-1.92-.66-3.81-.76-1.89-.1-5.85-.15-11.87-.15h-48.62v-.24c1.59-.45,2.67-1.16,3.26-2.13,.59-.98,.88-2.24,.88-3.78v-30.56c0-1.54-.3-2.81-.88-3.78-.59-.98-1.68-1.69-3.26-2.13v-.24h46.85c6.02,0,9.97-.05,11.86-.15s3.16-.36,3.81-.76h.49Z"/><path class="cls-3" d="M584.46,227.74c0,4.27-.9,8-2.68,11.19-1.79,3.19-4.69,5.69-8.69,7.5-4.01,1.81-9.24,2.71-15.71,2.71h-52.77v-.24c1.59-.45,2.67-1.16,3.26-2.13,.59-.98,.88-2.24,.88-3.78v-30.56c0-1.54-.3-2.81-.88-3.78-.59-.98-1.68-1.69-3.26-2.13v-.24h52.77c6.47,0,11.71,.92,15.74,2.75,4.03,1.83,6.92,4.33,8.69,7.5,1.77,3.17,2.65,6.91,2.65,11.22Zm-10.37,0c0-4.03-.66-7.6-1.98-10.74-1.32-3.13-3.41-5.61-6.25-7.44s-6.49-2.75-10.92-2.75h-36.72v41.79h36.72c4.43,0,8.07-.92,10.92-2.75s4.93-4.3,6.25-7.41c1.32-3.11,1.98-6.68,1.98-10.71Z"/><path class="cls-3" d="M649.91,205.35l1.34,6.95-.24,.06c-.77-2.16-2.06-3.62-3.87-4.39-1.81-.77-4.52-1.16-8.14-1.16h-38.49v22.57h42.27c1.06,0,1.9-.07,2.53-.21,.63-.14,1.22-.51,1.77-1.1,.55-.59,1.01-1.54,1.37-2.84h.24v8.84h-.24c-.37-1.3-.82-2.25-1.37-2.84-.55-.59-1.14-.96-1.77-1.1-.63-.14-1.47-.21-2.53-.21h-42.27v18.67h35.01c3.82,0,6.85-.13,9.09-.4s4.13-.81,5.67-1.65c1.54-.83,2.85-2.1,3.9-3.81l.37,.12-2.87,7.2h-.49c-.65-.41-1.92-.66-3.81-.76-1.89-.1-5.85-.15-11.87-.15h-48.62v-.24c1.59-.45,2.67-1.16,3.26-2.13,.59-.98,.88-2.24,.88-3.78v-30.56c0-1.54-.3-2.81-.88-3.78-.59-.98-1.68-1.69-3.26-2.13v-.24h46.85c6.02,0,9.97-.05,11.86-.15s3.16-.36,3.81-.76h.49Z"/><path class="cls-3" d="M672.78,230.42c-5.29-.57-9.29-1.69-12.02-3.36-2.72-1.67-4.09-4.41-4.09-8.24,0-3.05,1-5.53,2.99-7.44,1.99-1.91,5.45-3.36,10.37-4.36,4.92-1,11.75-1.5,20.5-1.5,6.59,0,12.81,.31,18.67,.92,5.86,.61,10.67,1.57,14.46,2.87l.92,6.47-.37,.06c-1.18-3.82-4.95-6.41-11.32-7.75-6.37-1.34-13.82-2.01-22.36-2.01-9.03,0-16.01,.6-20.95,1.8-4.94,1.2-7.41,3.51-7.41,6.92,0,1.71,.48,3.01,1.43,3.9,.96,.9,2.27,1.54,3.93,1.92,1.67,.39,4.05,.74,7.14,1.07l33.79,3.78c3.38,.37,6.21,.89,8.51,1.59,2.3,.69,4.14,1.77,5.52,3.23,1.38,1.46,2.07,3.44,2.07,5.92,0,3.21-.99,5.82-2.96,7.81-1.97,1.99-5.41,3.5-10.31,4.51-4.9,1.02-11.7,1.53-20.4,1.53-6.55,0-12.78-.38-18.7-1.13s-10.71-1.82-14.37-3.2l-.92-6.47,.37-.06c.04,.08,.06,.15,.06,.21s.02,.13,.06,.21c.98,2.56,3.2,4.57,6.68,6.04,3.48,1.46,7.55,2.47,12.23,3.02,4.68,.55,9.68,.82,15.01,.82,9.31,0,16.27-.65,20.86-1.95,4.59-1.3,6.89-3.58,6.89-6.83,0-1.46-.36-2.6-1.07-3.42-.71-.81-1.93-1.43-3.66-1.86-1.73-.43-4.32-.84-7.78-1.25l-33.79-3.78Z"/><path class="cls-3" d="M756.29,227.62c0-4.96,1.38-9.05,4.15-12.26,2.76-3.21,7.29-5.64,13.57-7.29,6.28-1.65,14.67-2.47,25.16-2.47,6.14,0,11.79,.39,16.96,1.16s10.07,1.95,14.7,3.54l-.55,7.14h-.3c-.2-.57-.45-1.12-.73-1.65-.29-.53-.59-1.02-.92-1.46-2.4-3.25-6.08-5.43-11.04-6.53-4.96-1.1-10.8-1.65-17.51-1.65-7.81,0-14.12,.88-18.94,2.62-4.82,1.75-8.31,4.21-10.46,7.38s-3.23,7-3.23,11.47,1.07,8.57,3.2,11.8,5.6,5.72,10.4,7.47c4.8,1.75,11.08,2.62,18.85,2.62,4.59,0,8.49-.25,11.68-.76,3.19-.51,5.52-1.23,6.98-2.17,.81-.49,1.41-1.09,1.8-1.8,.39-.71,.63-1.45,.73-2.23,.1-.77,.15-1.73,.15-2.87v-3.78c0-1.63-.14-2.88-.43-3.75-.29-.87-.82-1.58-1.62-2.1s-2-.98-3.63-1.34v-.24h17.51v.24c-.94,.53-1.57,1.36-1.89,2.5-.33,1.14-.49,2.7-.49,4.7v8.54c-3.74,1.75-8.43,3.12-14.06,4.12-5.63,1-11.28,1.49-16.93,1.49-10.37,0-18.72-.82-25.04-2.47-6.32-1.65-10.92-4.12-13.79-7.41s-4.3-7.48-4.3-12.57Z"/><path class="cls-3" d="M837.72,245.49s-.09,.09-.15,.15c-.06,.06-.11,.11-.15,.15-.45,.53-.67,1-.67,1.4s.13,.73,.4,.98c.26,.24,.66,.47,1.19,.67v.3h-6.71v-.3c1.06-.24,1.94-.6,2.65-1.07,.71-.47,1.51-1.15,2.41-2.04l34.71-34.1h.79l-34.47,33.85Zm51.42-13.85v.55h-37.94v-.55h37.94Zm-28.3-22.75c-1.06-.98-1.88-1.66-2.47-2.04-.59-.39-1.17-.62-1.74-.7v-.37h14.27l37.27,35.56c1.99,1.95,3.94,3.66,5.86,5.12,1.91,1.46,3.23,2.24,3.96,2.32v.37h-19.7v-.37c1.38-.16,2.07-.63,2.07-1.4,0-.33-.09-.61-.27-.85-.18-.24-.46-.57-.82-.98l-38.43-36.66Z"/><path class="cls-3" d="M923.92,212.43c0-1.54-.3-2.81-.88-3.78-.59-.98-1.68-1.69-3.26-2.13v-.24h50.87c7.89,0,13.59,1.29,17.11,3.87,3.52,2.58,5.28,6.46,5.28,11.62,0,4.55-1.62,8.04-4.85,10.46-3.23,2.42-8.35,3.98-15.34,4.67v.24h5.25c3.21,0,5.75,.38,7.62,1.13,1.87,.75,3.76,2.21,5.67,4.36l2.44,2.81s.07,.07,.09,.09c.02,.02,.05,.05,.09,.09,1.02,1.22,1.91,2.09,2.68,2.62,.77,.53,1.79,.69,3.05,.49v.24c-3.09,.73-5.84,1.07-8.24,1.01-2.4-.06-4.47-.5-6.22-1.31-1.75-.81-3.25-1.99-4.51-3.54l-3.11-3.78c-.98-1.18-1.83-2.04-2.56-2.59-.73-.55-1.62-.94-2.65-1.16-1.04-.22-2.53-.33-4.48-.33h-34.59v5.73c0,1.59,.33,2.86,.98,3.81,.65,.96,1.91,1.66,3.78,2.1v.24h-18.36v-.24c1.59-.45,2.67-1.16,3.26-2.13,.59-.98,.88-2.24,.88-3.78v-30.56Zm44.16,24.28c3.29,0,6.02-.55,8.17-1.65,2.16-1.1,3.76-2.75,4.82-4.97,1.06-2.22,1.59-4.99,1.59-8.33s-.53-6.11-1.59-8.33c-1.06-2.22-2.66-3.87-4.82-4.97-2.16-1.1-4.88-1.65-8.17-1.65h-34.71v29.89h34.71Z"/><path class="cls-3" d="M1001.57,227.8c0-4.47,1.19-8.34,3.57-11.59,2.38-3.25,6.65-5.84,12.81-7.78,6.16-1.93,14.61-2.9,25.35-2.9,8.05,0,14.94,.5,20.68,1.5,5.73,1,10.13,2.06,13.18,3.2l.98,6.95-.31,.06c-1.67-4.19-5.53-7.1-11.59-8.72-6.06-1.63-12.77-2.44-20.13-2.44-8.5,0-15.24,.93-20.22,2.78s-8.5,4.37-10.55,7.56c-2.05,3.19-3.08,6.98-3.08,11.38s1.03,8.18,3.08,11.38c2.05,3.19,5.57,5.71,10.55,7.56s11.72,2.78,20.22,2.78c7.36,0,14.07-.81,20.13-2.44,6.06-1.63,9.92-4.53,11.59-8.72l.31,.06-.98,6.95c-3.05,1.14-7.44,2.21-13.18,3.2s-12.63,1.49-20.68,1.49c-10.74,0-19.18-.97-25.35-2.9-6.16-1.93-10.43-4.52-12.81-7.78-2.38-3.25-3.57-7.12-3.57-11.59Z"/><path class="cls-3" d="M1121.86,249.88c-9.6,0-17.4-.81-23.39-2.44-6-1.63-10.4-4.06-13.21-7.29-2.81-3.23-4.21-7.35-4.21-12.35s1.4-9.14,4.21-12.41c2.81-3.27,7.21-5.73,13.21-7.38,6-1.65,13.79-2.47,23.39-2.47s17.33,.82,23.33,2.47c6,1.65,10.39,4.11,13.18,7.38,2.79,3.27,4.18,7.41,4.18,12.41s-1.39,9.12-4.18,12.35c-2.79,3.23-7.17,5.66-13.15,7.29-5.98,1.63-13.77,2.44-23.36,2.44Zm0-.55c6.95,0,12.62-.8,16.99-2.41,4.37-1.61,7.58-3.95,9.64-7.05,2.05-3.09,3.12-6.89,3.2-11.41v-1.34c-.08-4.55-1.15-8.38-3.2-11.47-2.05-3.09-5.27-5.46-9.64-7.11-4.37-1.65-10.03-2.47-16.99-2.47s-13,.84-17.42,2.53c-4.41,1.69-7.6,4.13-9.58,7.32-1.97,3.19-2.96,7.15-2.96,11.87s.99,8.65,2.96,11.8c1.97,3.15,5.16,5.56,9.58,7.23,4.41,1.67,10.22,2.5,17.42,2.5Z"/><path class="cls-3" d="M1170.54,208.83c-.33-.2-.65-.4-.98-.58-.33-.18-.63-.36-.92-.52-.65-.33-1.27-.59-1.86-.79-.59-.2-1.19-.34-1.8-.43v-.24h18.85l54.23,33.06-.37,.43v-27.33c0-1.38-.12-2.45-.37-3.2-.24-.75-.83-1.35-1.77-1.8s-2.4-.75-4.39-.92v-.24h11.83v.24c-1.79,.24-3.03,.82-3.72,1.74-.69,.92-1.04,2.31-1.04,4.18v37.33l-.18,.12-67.53-41.05Zm2.93,.31h.55v33.85c0,1.38,.12,2.45,.37,3.2,.24,.75,.83,1.35,1.77,1.8,.94,.45,2.4,.75,4.39,.92v.24h-13.66v-.24c2.03-.16,3.52-.47,4.45-.92,.93-.45,1.52-1.05,1.77-1.8,.24-.75,.37-1.82,.37-3.2v-33.85Z"/><path class="cls-3" d="M1261.18,230.42c-5.29-.57-9.29-1.69-12.02-3.36-2.72-1.67-4.09-4.41-4.09-8.24,0-3.05,1-5.53,2.99-7.44,1.99-1.91,5.45-3.36,10.37-4.36,4.92-1,11.75-1.5,20.5-1.5,6.59,0,12.81,.31,18.67,.92,5.86,.61,10.67,1.57,14.46,2.87l.92,6.47-.37,.06c-1.18-3.82-4.95-6.41-11.32-7.75-6.37-1.34-13.82-2.01-22.36-2.01-9.03,0-16.01,.6-20.95,1.8-4.94,1.2-7.41,3.51-7.41,6.92,0,1.71,.48,3.01,1.43,3.9,.96,.9,2.27,1.54,3.93,1.92,1.67,.39,4.05,.74,7.14,1.07l33.79,3.78c3.38,.37,6.21,.89,8.51,1.59,2.3,.69,4.14,1.77,5.52,3.23,1.38,1.46,2.07,3.44,2.07,5.92,0,3.21-.99,5.82-2.96,7.81-1.97,1.99-5.41,3.5-10.31,4.51-4.9,1.02-11.7,1.53-20.4,1.53-6.55,0-12.78-.38-18.7-1.13s-10.71-1.82-14.37-3.2l-.92-6.47,.37-.06c.04,.08,.06,.15,.06,.21s.02,.13,.06,.21c.98,2.56,3.2,4.57,6.68,6.04,3.48,1.46,7.55,2.47,12.23,3.02,4.68,.55,9.68,.82,15.01,.82,9.31,0,16.27-.65,20.86-1.95,4.59-1.3,6.89-3.58,6.89-6.83,0-1.46-.36-2.6-1.07-3.42-.71-.81-1.93-1.43-3.66-1.86-1.73-.43-4.32-.84-7.78-1.25l-33.79-3.78Z"/></g></svg>