<svg xmlns="http://www.w3.org/2000/svg" viewBox="0 0 1366 768"><defs><style>.cls-1{fill:red;}.cls-2{fill:#fff;}</style></defs><g id="Layer_1" data-name="Layer 1"><rect class="cls-1" x="-91.44" y="-79.94" width="1495.88" height="930.38"/><rect class="cls-1" x="-102" y="-88" width="1517" height="940.05"/><path class="cls-2" d="M256,34.38V53.65H185.49v61.82H256v19.27H94.87V115.47h70.48V53.65H94.87V34.38Z"/><path class="cls-2" d="M416.06,84.63c0,28.55-23.44,51.82-52.35,51.82S311.2,113,311.2,84.63s23.59-52,52.51-52S416.06,56.22,416.06,84.63Zm-84.72.14c0,17.42,14.53,31.69,32.22,31.69s32.37-14.27,32.37-31.83a32.3,32.3,0,0,0-64.59.14Z"/><path class="cls-2" d="M435.62,34.38l25.89,59.53,25.9-59.53h21L463,134.74h-2.87L414.62,34.38Z"/><path class="cls-2" d="M678.71,34.38V53.65h-141V75.92h141V94.48h-141v21h141v19.27H517.61V34.38Z"/><path class="cls-2" d="M727.47,34.38c24.31,0,41.43,18.41,41.43,39.54a39.29,39.29,0,0,1-17.41,32.55l2.16,3.28c3.16,4.72,7.19,5.72,13.66,5.72v19.27c-16.25,0-22.29-2.86-29.2-13.56l-5-7.86c-1.58.15-3.31.29-4.89.29H717.26v21.13H697.12V34.38ZM717.26,93.62H728c11.37,0,20.72-8.28,20.72-19.56s-9.35-19.7-20.72-19.7H717.26Z"/><path class="cls-2" d="M830.6,54.22H820c-7.91,0-10.94,4.43-10.94,9.57,0,10.13,16.4,26.26,16.4,43,0,16.13-11.22,28-32.36,28H779.11v-20h9.06c8.48,0,14.09-3.71,14.09-11.13,0-10.43-16.25-27.13-16.25-44,0-15.14,11.22-25.27,30.06-25.27H830.6Z"/><path class="cls-2" d="M866.13,34.38v81.09h33.23v19.27H846V34.38Z"/><path class="cls-2" d="M1007.53,34.38V53.65H935.31V75.49h69.34V94.05H935.31v21.42h72.22v19.27H915.18V34.38Z"/><path class="cls-2" d="M1056.14,34.38c24.31,0,41.43,18.41,41.43,39.54s-17,39.12-40.71,39.69h-10.93v21.13h-20.14V34.38Zm-10.21,59.24h10.78c11.37,0,20.72-8.28,20.72-19.56s-9.35-19.7-20.72-19.7h-10.78Z"/><path class="cls-2" d="M1278.09,34.38V53.65h-76.24v81.09h-20.14V53.65h-76.24V34.38Z"/><path class="cls-2" d="M187.43,251.74,159.1,194.06l-28.34,57.68h-8.49L94.08,151.38h20.28L130,207.91l27.62-56.53h2.87l27.62,56.53,15.68-56.53h20.28L195.92,251.74Z"/><path class="cls-2" d="M256.47,151.38v41.54h43.87V151.38h20.14V251.74H300.34V211.48H256.47v40.26H236.33V151.38Z"/><path class="cls-2" d="M437,151.38v19.27H364.78v21.84h69.33v18.56H364.78v21.42H437v19.27H344.64V151.38Z"/><path class="cls-2" d="M458.13,151.38l167.29,71.09V151.38h20.14V251.74h-2.88l-167.29-71.1v71.1H455.25V151.38Z"/><path class="cls-2" d="M878.86,151.38v19.27H802.63v81.09H782.49V170.65H706.25V151.38Z"/><path class="cls-2" d="M893.53,251.74V151.38h20.14v41.54h150V151.38h20.14V251.74H1063.7V211.48h-150v40.26Z"/><path class="cls-2" d="M1266.22,151.38v19.27h-141v22.27h141v18.56h-141v21h141v19.27h-161.1V151.38Z"/><path class="cls-2" d="M160.53,347.47a38.58,38.58,0,0,1-4,.14H117.09v21.13H97V268.38h59.26c24.31,0,41.43,18.41,41.43,39.54a39.53,39.53,0,0,1-18,33l1.87,2.85c3.16,4.72,7.62,5.72,15.1,5.72v19.27c-16.25,0-23.3-3.14-30.64-13.56Zm-43.44-19.85h39.7c11.37,0,20.72-8.28,20.72-19.56s-9.35-19.7-20.72-19.7h-39.7Z"/><path class="cls-2" d="M304.66,359.46H236.34l-5.61,9.28H207.85l61.28-100.36H272l61.13,100.36H310.27Zm-57.1-18.56h45.88l-22.87-38.12Z"/><path class="cls-2" d="M364.06,268.38V368.74H343.93V268.38Z"/><path class="cls-2" d="M388.23,268.38l61.13,56.82V268.38H469.5V368.74h-2.88l-61.13-56.82v56.82H385.35V268.38Z"/><path class="cls-2" d="M675.48,268.38c21.57,0,35.53,13.85,35.53,31a23.55,23.55,0,0,1-10.94,20.55c5.33,4.57,8.78,10.85,8.78,18.13,0,17.14-14,30.7-35.53,30.7H536.81V268.38ZM557,310.35H675c10.36,0,15.25-5,15.25-11s-4.89-11-15.25-11H557Zm0,38.4H672.89c10.35,0,15.24-4.71,15.24-10.71s-4.89-10-15.24-10H557Z"/><path class="cls-2" d="M888.21,268.38v19.27h-141v22.27h141v18.56h-141v21h141v19.27H727.11V268.38Z"/><path class="cls-2" d="M1002.13,287.65H954.66c-19.85,0-31.93,13.56-31.93,30.69,0,17.42,12.08,31.13,32.08,31.13h32.07V318.63h18.27v50.11H954.81c-31.36,0-52.36-21.7-52.36-50.4,0-28.12,20.85-50,51.49-50h48.19Z"/><path class="cls-2" d="M1046.14,268.38v54.25c0,16.27,11.65,27.83,33.81,27.83s33.8-11.56,33.8-27.83V268.38h20.14l-.15,55.67c0,23.13-18.84,46.12-53.79,46.12s-54-23-54-46.12V268.38Z"/><path class="cls-2" d="M1162.51,268.38l86.88,62.53V268.38h20.14V368.74h-2.88l-86.88-62.53v62.53h-20.14V268.38Z"/><path class="cls-2" d="M119,385.38,149.6,485.74H127.81l-2.42-10.28H106.74l-2.28,10.28H83l30.33-100.36Zm-5,57.53-3.42,15.7h11l-3.28-15.7-2.13-17.13Z"/><path class="cls-2" d="M181.92,385.38v81.09h63.23v19.27H162V385.38Z"/><path class="cls-2" d="M281.75,385.38v81.09H345v19.27H261.81V385.38Z"/><path class="cls-2" d="M417.88,385.38V485.74H397.94V385.38Z"/><path class="cls-2" d="M485.09,385.38l60.52,56.82V385.38h19.93V485.74H562.7l-60.52-56.82v56.82H482.24V385.38Z"/><path class="cls-2" d="M704.24,435.63c0,28.69-20.08,51.82-60.66,51.82-41.15,0-61.23-23.41-61.23-51.82s20.22-52,61.23-52C684.16,383.66,704.24,407.22,704.24,435.63Zm-102,0c0,17.56,11.25,31.83,41.3,31.83,29.33,0,40.72-14.27,40.72-31.83s-11.39-32-40.86-32C613.53,403.65,602.28,418.07,602.28,435.63Z"/><path class="cls-2" d="M812.46,385.38v19.27H771.31v81.09H751.37V404.65H710.22V385.38Z"/><path class="cls-2" d="M845.21,385.38V485.74H825.28V385.38Z"/><path class="cls-2" d="M959.13,404.65h-47c-19.65,0-31.61,13.56-31.61,30.69,0,17.42,12,31.13,31.75,31.13h46.85v19.27H912.28c-31,0-51.83-21.7-51.83-50.4,0-28.12,20.65-50,51-50h47.7Z"/><path class="cls-2" d="M1070.34,385.38v19.27H998.86v21.84h68.64v18.56H998.86v21.42h71.48v19.27H978.93V385.38Z"/><path class="cls-2" d="M1226.41,385.38c28.62,0,51.69,21.55,51.69,50.25s-23.07,50.11-51.69,50.11h-138V385.38Zm-118,81.09h118c17.51,0,31.76-13.28,31.76-30.84s-14.25-31-31.76-31h-118Z"/><path class="cls-2" d="M185.78,602.74l-28.34-57.68-28.33,57.68h-8.49L92.43,502.38h20.28l15.68,56.53L156,502.38h2.88l27.62,56.53,15.68-56.53h20.28L194.27,602.74Z"/><path class="cls-2" d="M292.22,602.74V577.61H252.09v25.13H232V541.07c0-24,16.83-40.41,40.13-40.41s40.28,16.42,40.28,40.41v61.67Zm-40.13-43.69h40.13v-18c0-12.57-7.91-20.42-20.14-20.42-12.08,0-20,7.85-20,20.42Z"/><path class="cls-2" d="M378.67,522.22H368c-7.91,0-10.93,4.43-10.93,9.57,0,10.13,16.4,26.26,16.4,43,0,16.13-11.22,28-32.37,28H327.17v-20h9.06c8.49,0,14.1-3.71,14.1-11.13,0-10.43-16.26-27.13-16.26-44,0-15.14,11.22-25.27,30.07-25.27h14.53Z"/><path class="cls-2" d="M492,502.38v19.27H467.7v81.09H447.56V521.65H423.25V502.38Z"/><path class="cls-2" d="M526.53,502.38v41.54H570.4V502.38h20.14V602.74H570.4V562.48H526.53v40.26H506.39V502.38Z"/><path class="cls-2" d="M666.63,502.38v19.27H632v22.27h32.8v18.56H632v21h34.67v19.27h-54.8V502.38Z"/><path class="cls-2" d="M766,502.38a31.17,31.17,0,0,1,31.22,31,25.56,25.56,0,0,1-9.35,20.27,25.82,25.82,0,0,1,7.33,18.27c0,16.85-14.1,30.84-31.36,30.84H725.6V502.38Zm-20.28,42H766a11,11,0,1,0,0-22H745.74Zm0,38.4h18.12a11,11,0,1,0,0-22H745.74Z"/><path class="cls-2" d="M868.58,502.38v19.27H833.91v22.27h32.8v18.56h-32.8v21h34.67v19.27H813.77V502.38Z"/><path class="cls-2" d="M946.68,602.74V577.61H906.55v25.13H886.41V541.07c0-24,16.83-40.41,40.13-40.41,23.45,0,40.28,16.42,40.28,40.41v61.67Zm-40.13-43.69h40.13v-18c0-12.57-7.91-20.42-20.14-20.42-12.08,0-20,7.85-20,20.42Z"/><path class="cls-2" d="M1009.82,502.38v54.25c0,16.27,11.65,27.83,33.81,27.83s33.8-11.56,33.8-27.83V502.38h20.14l-.15,55.67c0,23.13-18.84,46.12-53.79,46.12s-54-23-54-46.12V502.38Z"/><path class="cls-2" d="M1182.29,502.38v19.27H1158v81.09h-20.14V521.65h-24.31V502.38Z"/><path class="cls-2" d="M1271,502.38V531.5c0,20.42-12.23,35.26-30.07,39.4v31.84h-20.14V570.9c-18.12-4-30.2-19-30.2-39.4V502.38h20.14V531.5c0,12.56,7.91,20.42,20.13,20.42s20-7.86,20-20.42V502.38Z"/><path class="cls-2" d="M119.41,721.31c-17.94,0-29.61-16.85-29.61-51.82,0-34.55,11.53-51.54,29.61-51.54s29.76,17,29.76,51.54C149.17,704.46,137.64,721.31,119.41,721.31Zm0-19.7c5.56,0,9.83-7.85,9.83-32.12s-4.27-31.84-9.83-31.84c-5.41,0-9.68,7.71-9.68,31.84S114,701.61,119.41,701.61Z"/><path class="cls-2" d="M198.87,619.38v19.27h-17.8v21.56h17.8v18.56h-17.8v41H161.14V619.38Z"/><path class="cls-2" d="M282.6,619.38v19.27H267.08v81.09H247.14V638.65H231.62V619.38Z"/><path class="cls-2" d="M312.93,619.38v41H331v-41H351V719.74H331V678.91H312.93v40.83H293V619.38Z"/><path class="cls-2" d="M463.16,619.38v19.27H391.68v21.84h68.63v18.56H391.68v21.42h71.48v19.27H371.74V619.38Z"/><path class="cls-2" d="M552,619.38c24.06,0,41,18.41,41,39.54a39.4,39.4,0,0,1-17.23,32.55l2.13,3.28c3.14,4.72,7.12,5.72,13.53,5.72v19.27c-16.09,0-22.07-2.86-28.91-13.56l-5-7.86c-1.57.15-3.28.29-4.84.29H541.91v21.13H522V619.38Zm-10.11,59.24h10.68c11.25,0,20.5-8.28,20.5-19.56s-9.25-19.7-20.5-19.7H541.91Z"/><path class="cls-2" d="M669.21,719.74V694.61H629.48v25.13H609.55V658.07c0-24,16.66-40.41,39.72-40.41,23.21,0,39.87,16.42,39.87,40.41v61.67Zm-39.73-43.69h39.73v-18c0-12.57-7.83-20.42-19.94-20.42s-19.79,7.85-19.79,20.42Z"/><path class="cls-2" d="M730.16,619.38V719.74H710.22V619.38Z"/><path class="cls-2" d="M754.08,619.38,814.6,676.2V619.38h19.93V719.74h-2.85l-60.51-56.82v56.82H751.23V619.38Z"/><path class="cls-2" d="M882.38,619.38c28.76,0,51.83,21.7,51.83,50.25s-23.07,50.11-51.83,50.11H855.61V619.38Zm-6.84,81.09h6.84c17.66,0,31.9-13.42,31.9-30.84s-14.39-31-31.9-31h-6.84Z"/><path class="cls-2" d="M979.07,619.38c24.06,0,41,18.41,41,39.54a39.4,39.4,0,0,1-17.23,32.55l2.13,3.28c3.14,4.72,7.12,5.72,13.53,5.72v19.27c-16.09,0-22.07-2.86-28.91-13.56l-5-7.86c-1.57.15-3.27.29-4.84.29H969v21.13H949V619.38ZM969,678.62h10.68c11.25,0,20.5-8.28,20.5-19.56s-9.25-19.7-20.5-19.7H969Z"/><path class="cls-2" d="M1134.14,669.63a51.91,51.91,0,1,1-51.83-52A51.87,51.87,0,0,1,1134.14,669.63Zm-83.87.14a32,32,0,1,0,31.89-32.12A31.91,31.91,0,0,0,1050.27,669.77Z"/><path class="cls-2" d="M1179,619.38c24.07,0,41,18.41,41,39.54s-16.8,39.12-40.29,39.69h-10.83v21.13H1149V619.38Zm-10.11,59.24h10.68c11.25,0,20.51-8.28,20.51-19.56s-9.26-19.7-20.51-19.7h-10.68Z"/><path class="cls-2" d="M1276.54,639.22H1266c-7.83,0-10.82,4.43-10.82,9.57,0,10.13,16.23,26.26,16.23,43,0,16.13-11.11,28-32,28h-13.81v-20h9c8.4,0,14-3.71,14-11.13,0-10.43-16.09-27.13-16.09-44,0-15.14,11.11-25.27,29.76-25.27h14.39Z"/></g></svg>