<?xml version="1.0" encoding="UTF-8"?><svg id="Layer_1" xmlns="http://www.w3.org/2000/svg" viewBox="0 0 1366 768"><defs><style>.cls-1{fill:#ed1c24;}.cls-2{fill:#1d1d1b;}.cls-3{fill:#1a26cd;}.cls-4{stroke:#1d1d1b;stroke-linecap:round;stroke-linejoin:round;stroke-width:8px;}.cls-4,.cls-5{fill:none;}.cls-5{stroke:#ed1c24;stroke-miterlimit:10;stroke-width:11px;}</style></defs><g><path d="M211.54,68.16l-8.43,4.79-36.99,113.27h-3.07l-28.56-83.18-32.77,83.18h-3.07L59.74,72.96l-8.43-4.79v-2.88h47.34v2.88l-19.36,4.79,27.6,84.72,24.15-64.78-6.9-19.93-12.46-4.79v-2.88h50.79v2.88l-19.36,4.79,26.45,84.33,26.26-84.33-19.93-4.79v-2.88h35.65v2.88Z"/><path d="M298.94,181.25v1.92h-30.28v-15.52c-2.88,9.01-10.54,18.59-24.72,18.59-18.59,0-24.92-11.31-24.92-29.52v-44.27l-10.73-4.02v-1.92h38.53v1.92l-12.27,4.02v40.06c0,14.95,3.83,21.47,15.91,21.47s18.21-8.05,18.21-23v-38.52l-12.46-4.02v-1.92h41.59v1.92l-13.61,3.83v65.17l14.76,3.83Z"/><path d="M347.12,138.89c16.29,4.41,19.74,11.88,19.74,23,0,15.52-10.54,24.34-29.33,24.34-10.16,0-21.08-4.79-24.92-13.42v13.42h-3.83v-32.39h3.83v8.82c2.49,11.5,12.08,16.67,25.49,16.67,12.27,0,17.63-6.32,17.63-13.42,0-8.05-4.22-9.97-11.69-11.88l-15.91-4.22c-10.35-2.68-18.02-9.01-18.02-21.27,0-15.91,12.08-25.11,27.6-25.11,10.73,0,19.17,3.83,22.62,10.92v-9.97h3.83v32.39h-3.83v-12.07c-3.64-12.08-10.92-15.33-22.81-15.33-9.58,0-15.53,4.98-15.53,13.23,0,7.48,3.83,10.54,10.92,12.46l14.18,3.83Z"/><path d="M455.21,108.41l-6.9,2.88-33.35,83.57c-10.73,29.71-15.53,38.52-26.45,38.52-2.88,0-6.13-.19-9.97-2.3v-26.26h2.88c3.83,16.1,6.9,18.59,10.73,18.59,5.17,0,9.39-9.97,16.29-28.56l3.26-8.43-32.01-75.13-8.43-2.88v-1.92h42.74v1.92l-16.87,3.07,.58,1.34,22.23,54.05,22.23-55.58-17.82-2.88v-1.92h30.86v1.92Z"/><path d="M534.52,155.37h3.45v7.09c0,12.27-2.11,22.23-17.25,22.23-8.62,0-15.53-3.83-15.91-13.99-3.83,8.43-10.92,15.52-23.38,15.52-15.14,0-24.34-8.62-24.34-23.19,0-17.82,12.84-25.11,29.9-25.11,7.67,0,13.42,1.92,17.83,4.6v-14.76c0-11.88-2.68-18.4-14.95-18.4-10.73,0-15.91,6.13-20.89,23.38h-2.88v-26.26c9.01-1.92,18.78-3.07,26.07-3.07,20.89,0,28.17,8.62,28.17,27.02v36.8c0,5.37,1.73,8.43,6.33,8.43,5.75,0,7.86-4.6,7.86-14.57v-5.75Zm-29.71,1.53v-8.05c-4.03-3.26-9.58-5.37-15.33-5.37-10.93,0-17.44,5.75-17.44,16.48,0,9.39,5.37,14.95,15.53,14.95,13.99,0,17.25-10.73,17.25-18.02Z"/><path d="M638.73,181.25v1.92h-42.55v-1.92l13.61-3.83v-40.63c0-12.65-4.41-20.89-17.63-20.89s-19.36,9.2-19.36,25.68v35.84l13.42,3.83v1.92h-42.55v-1.92l13.61-3.83v-62.48h-13.61v-1.73l28.18-8.62v19.74c5.56-13.8,15.91-20.89,27.98-20.89,17.06,0,25.49,11.31,25.49,28.37v45.62l13.42,3.83Z"/><path d="M721.71,155.37h3.45v7.09c0,12.27-2.11,22.23-17.25,22.23-8.62,0-15.53-3.83-15.91-13.99-3.83,8.43-10.92,15.52-23.38,15.52-15.14,0-24.34-8.62-24.34-23.19,0-17.82,12.84-25.11,29.9-25.11,7.67,0,13.42,1.92,17.83,4.6v-14.76c0-11.88-2.68-18.4-14.95-18.4-10.73,0-15.91,6.13-20.89,23.38h-2.88v-26.26c9.01-1.92,18.78-3.07,26.07-3.07,20.89,0,28.17,8.62,28.17,27.02v36.8c0,5.37,1.73,8.43,6.33,8.43,5.75,0,7.86-4.6,7.86-14.57v-5.75Zm-29.71,1.53v-8.05c-4.03-3.26-9.58-5.37-15.33-5.37-10.93,0-17.44,5.75-17.44,16.48,0,9.39,5.37,14.95,15.53,14.95,13.99,0,17.25-10.73,17.25-18.02Z"/><path d="M876.76,181.44v1.92h-41.59v-1.92l12.65-3.83v-39.87c0-14.18-4.02-21.66-17.25-21.66s-18.59,11.31-18.59,25.3v36.23l13.8,3.83v1.92h-43.12v-1.92l13.8-3.83v-39.87c0-13.03-3.07-21.66-17.44-21.85-13.03-.19-18.4,9.97-18.59,24.53v36.99l13.42,3.83v1.92h-42.55v-1.92l13.61-3.83v-62.48h-14.57v-1.73l29.13-8.62v19.74c5.56-13.8,15.72-21.08,27.22-20.89,13.8,.19,22.23,7.86,24.53,20.51,5.56-12.84,14.95-20.32,27.02-20.32,16.48,0,25.11,11.31,25.11,28.37v45.62l13.42,3.83Z"/><path d="M946.82,141.38h-54.43c1.34,19.36,11.31,31.05,27.98,31.05,12.46,0,19.17-3.45,23.38-13.42h3.07c-1.92,12.65-10.16,27.22-31.62,27.22-24.34,0-35.65-18.78-35.65-41.21s12.84-41.59,36.22-41.59,33.35,19.17,31.05,37.95Zm-14.57-5.75c0-14.38-5.56-26.45-19.74-26.45-12.46,0-19.93,9.2-20.32,26.45h40.06Z"/></g><g><path d="M1203.38,139.9l2.45,.7-4.38,33.25h-62.65l-1.05-4.73c23.98-24.68,49.18-53.03,49.18-76.83,0-14-5.42-22.4-17.15-22.4-13.3,0-19.6,9.8-26.6,31.5l-2.62-.52,5.25-33.08c7.18-2.8,14.88-4.38,23.45-4.38,20.83,0,34.48,9.8,34.48,29.58,0,22.23-17.15,40.08-56.35,74.03h41.3l14.7-27.13Z"/><path d="M1294.9,171.23v2.62h-50.58v-2.62l18.9-4.73v-23.98h-49l-1.4-2.27,44.45-69.13-15.4-2.28v-2.62h50.4v2.62l-14.53,3.15v61.78h15.23v8.75h-15.23v23.98l17.15,4.73Zm-68.95-37.45h37.28v-61.78h-.35l-36.93,61.78Z"/></g><g><path d="M1068.55,268.18l2.45,.7-4.38,33.25h-62.65l-1.05-4.73c23.98-24.68,49.18-53.03,49.18-76.83,0-14-5.42-22.4-17.15-22.4-13.3,0-19.6,9.8-26.6,31.5l-2.62-.52,5.25-33.08c7.18-2.8,14.88-4.38,23.45-4.38,20.83,0,34.48,9.8,34.48,29.58,0,22.23-17.15,40.08-56.35,74.03h41.3l14.7-27.13Z"/><path d="M1132.08,300.39v1.75h-52.33v-1.75l18.9-5.6v-92.93l-18.9-5.6v-1.75h52.33v1.75l-18.9,5.6v92.93l18.9,5.6Z"/></g><g><path d="M114.31,484.56c0,21.6-16.48,28-39.68,28H37.51v-1.6l11.36-3.2v-88.8l-11.36-3.2v-1.6h39.52c22.56,0,33.76,7.52,33.76,22.56,0,12.16-10.08,20.64-24.48,22.72,16,1.44,28,8.8,28,25.12Zm-41.92-64.8h-9.6v38.24h6.88c18.08,0,25.76-7.68,25.76-21.12,0-10.88-7.68-17.12-23.04-17.12Zm26.56,64.8c0-15.52-10.4-21.12-25.44-21.12h-10.72v43.52h12.32c15.2,0,23.84-6.56,23.84-22.4Z"/><path d="M204.07,507.92l10.08,3.04v1.6h-41.28v-1.6l16.48-3.2-8.32-25.12h-36.8l-8.32,25.12,16.8,3.2v1.6h-35.2v-1.6l10.72-3.04,32.32-88.96-12.96-2.4v-2.4h39.68v2.4l-13.44,2.4,30.24,88.96Zm-58.08-30.88h33.12l-16.64-49.92-16.48,49.92Z"/><path d="M277.03,414.16h33.92v2.4l-10.08,4v58.24c-.16,22.72-12.64,36.32-35.36,36.32s-36.96-10.88-36.96-33.92v-60.64l-11.2-4v-2.4h43.36v2.4l-18.24,4v59.2c0,18.72,8.64,27.52,26.08,27.52,19.2,0,25.6-12,25.6-29.12v-57.6l-17.12-4v-2.4Z"/><path d="M356.87,512.56h-37.12v-1.44l12.48-3.52v-88.32l-12.48-3.52v-1.6h37.76c40.64,0,58.88,19.52,58.88,48.32,0,32.32-16.96,50.08-59.52,50.08Zm44.96-49.44c0-30.88-16.64-43.36-41.92-43.36-4,0-8.96,.32-13.76,.8v85.76c4.48,.16,9.92,.32,13.76,.32,29.92,0,41.92-14.72,41.92-43.52Z"/><path d="M500.71,485.84l2.4,.64-4.8,26.08h-71.2v-1.6l11.36-3.2v-88.8l-11.36-3.2v-1.6h68.64l2.88,26.88h-2.4l-11.84-21.28h-32v38.88h22.24l5.28-14.08h2.4v33.76h-2.4l-5.28-14.08h-22.24v42.72h34.72l13.6-21.12Z"/><path d="M581.99,483.44l2.4,.64-4.48,28.48h-69.6v-2.4l12.48-4v-85.6l-12.48-4v-2.4h43.68v2.4l-17.28,4v86.4h32.64l12.64-23.52Z"/><path d="M661.67,483.44l2.4,.64-4.48,28.48h-69.6v-2.4l12.48-4v-85.6l-12.48-4v-2.4h43.68v2.4l-17.28,4v86.4h32.64l12.64-23.52Z"/><path d="M750.63,507.92l10.08,3.04v1.6h-41.28v-1.6l16.48-3.2-8.32-25.12h-36.8l-8.32,25.12,16.8,3.2v1.6h-35.2v-1.6l10.72-3.04,32.32-88.96-12.96-2.4v-2.4h39.68v2.4l-13.44,2.4,30.24,88.96Zm-58.08-30.88h33.12l-16.64-49.92-16.48,49.92Z"/><path d="M794.31,507.76l15.68,3.2v1.6h-45.28v-1.6l15.68-3.2v-88.8l-15.68-3.2v-1.6h45.28v1.6l-15.68,3.2v88.8Z"/><path d="M888.39,498.32c3.68,6.24,7.84,11.36,11.36,14.72l-.32,1.12c-11.04,0-18.4-5.92-24.64-15.2l-24.8-36.8v-.96c17.44-1.44,28.32-8.32,28.32-22.4s-10.08-19.04-26.72-19.04h-7.2v86.4l17.28,4v2.4h-42.08v-2.4l10.88-4v-85.6l-10.88-4v-2.4h37.12c21.28,0,36.96,6.08,36.96,23.84,0,15.36-12.32,21.28-27.36,23.2l22.08,37.12Z"/><path d="M978.47,485.84l2.4,.64-4.8,26.08h-71.2v-1.6l11.36-3.2v-88.8l-11.36-3.2v-1.6h68.64l2.88,26.88h-2.4l-11.84-21.28h-32v38.88h22.24l5.28-14.08h2.4v33.76h-2.4l-5.28-14.08h-22.24v42.72h34.72l13.6-21.12Z"/></g><g><path d="M142.44,622.58l-7.68,3.98v38.16h-1.44l-11.84-11.77c-5.28,8.59-15.52,14.31-30.88,14.31-29.12,0-46.72-19.24-46.72-49.93s16.8-52.95,53.28-52.95c9.28,0,20.8,1.27,32.16,3.98l2.24,30.37-2.4,.32-.32-.95c-6.08-18.92-16.48-27.99-34.72-27.99-24,0-35.36,20.67-35.36,44.36,0,27.67,11.84,45.8,35.2,45.8,17.92,0,27.36-10.5,27.36-23.53v-10.18l-17.28-3.98v-2.39h38.4v2.39Z"/><path d="M216.68,641.66h2.88v5.88c0,10.18-1.76,18.45-14.4,18.45-7.2,0-12.96-3.18-13.28-11.61-3.2,7-9.12,12.88-19.52,12.88-12.64,0-20.32-7.16-20.32-19.24,0-14.79,10.72-20.83,24.96-20.83,6.4,0,11.2,1.59,14.88,3.82v-12.24c0-9.86-2.24-15.27-12.48-15.27-8.96,0-13.28,5.09-17.44,19.4h-2.4v-21.78c7.52-1.59,15.68-2.54,21.76-2.54,17.44,0,23.52,7.16,23.52,22.42v30.53c0,4.45,1.44,7,5.28,7,4.8,0,6.56-3.82,6.56-12.08v-4.77Zm-24.8,1.27v-6.68c-3.36-2.7-8-4.45-12.8-4.45-9.12,0-14.56,4.77-14.56,13.68,0,7.79,4.48,12.4,12.96,12.4,11.68,0,14.4-8.9,14.4-14.95Z"/><path d="M259.72,627.98c13.6,3.66,16.48,9.86,16.48,19.08,0,12.88-8.8,20.19-24.48,20.19-8.48,0-17.6-3.98-20.8-11.13v11.13h-3.2v-26.87h3.2v7.31c2.08,9.54,10.08,13.83,21.28,13.83,10.24,0,14.72-5.25,14.72-11.13,0-6.68-3.52-8.27-9.76-9.86l-13.28-3.5c-8.64-2.23-15.04-7.47-15.04-17.65,0-13.2,10.08-20.83,23.04-20.83,8.96,0,16,3.18,18.88,9.06v-8.27h3.2v26.87h-3.2v-10.02c-3.04-10.02-9.12-12.72-19.04-12.72-8,0-12.96,4.13-12.96,10.97,0,6.2,3.2,8.75,9.12,10.34l11.84,3.18Z"/><path d="M330.12,651.36c-2.08,7.95-6.24,15.9-18.08,15.9s-18.4-5.72-18.4-18.13v-43.25h-13.44v-1.59c15.04-2.23,21.6-8.9,24-25.44h2.4v22.26h21.28v4.77h-21.28v39.75c0,7.79,1.44,13.04,10.56,13.04,5.28,0,8.32-2.23,10.56-7.31h2.4Z"/><path d="M336.67,633.07c0-20.35,12-34.35,34.4-34.35s32.32,15.11,32.32,34.35c0,20.35-12,34.35-33.6,34.35s-33.12-15.11-33.12-34.35Zm53.76,2.23c0-16.06-6.88-31.64-21.44-31.64s-19.36,12.24-19.36,27.19c0,16.22,6.88,31.64,21.44,31.64s19.36-11.13,19.36-27.19Zm-9.28-69.97c-1.28,12.4-8.64,20.67-23.52,26.24l-1.12-1.75c8.48-7.63,10.88-13.68,10.88-24.49h13.76Z"/><path d="M492.68,663.13v1.59h-35.52v-1.59l11.36-3.18v-33.71c0-10.49-3.68-17.33-14.72-17.33s-16.16,7.63-16.16,21.31v29.73l11.2,3.18v1.59h-35.52v-1.59l11.36-3.18v-51.84h-11.36v-1.43l23.52-7.16v16.38c4.64-11.45,13.28-17.33,23.36-17.33,14.24,0,21.28,9.38,21.28,23.53v37.84l11.2,3.18Z"/></g><path d="M1142.79,436.89h89.89v3.42l-23.42,6.85v139.65c0,38.68-12.74,64.69-58.55,64.69-12.74,0-27.55-2.74-36.85-6.5l-9.64-55.79,5.17-1.03c10.68,27.73,26.52,49.97,46.15,49.97,16.19,0,23.76-11.64,23.76-47.92v-143.08l-36.51-6.85v-3.42Z"/><line class="cls-4" x1="37.37" y1="365.62" x2="1312.37" y2="365.62"/><line class="cls-4" x1="1006.53" y1="684.61" x2="1006.53" y2="366.09"/><g><path class="cls-3" d="M205.78,340.44c0,3.11-2.53,5.6-5.63,5.6s-5.6-2.5-5.6-5.6,2.5-5.63,5.6-5.63,5.63,2.53,5.63,5.63Zm-10.08,0c0,2.46,1.98,4.45,4.45,4.45s4.48-1.99,4.48-4.45-2.02-4.48-4.48-4.48-4.45,2.02-4.45,4.48Z"/><path class="cls-3" d="M212.48,344.73h6.03v1.12h-7.39v-.46c0-1.6,.67-2.8,2.38-3.81l2.16-1.26c1.07-.62,1.49-1.31,1.49-2.26,0-1.14-.69-2.13-2.16-2.13s-2.35,.98-2.45,2.53h-1.31c.08-2.15,1.38-3.67,3.76-3.67,2.24,0,3.52,1.41,3.52,3.27,0,1.18-.37,2.18-2.11,3.22l-2.48,1.47c-.78,.46-1.3,1.06-1.44,1.99Z"/><path class="cls-3" d="M227.81,342.38c0,1.92-1.28,3.67-3.78,3.67-2.26,0-3.84-1.34-3.84-3.33h1.36c.06,1.33,1.01,2.19,2.5,2.19s2.42-1.12,2.42-2.56-.85-2.48-2.43-2.48c-.96,0-1.63,.4-2.02,1.07h-1.57l.42-5.95h6.4v1.12h-5.3l-.24,3.67c.54-.67,1.44-1.09,2.54-1.09,2.21,0,3.54,1.62,3.54,3.7Z"/><path class="cls-3" d="M229.33,340.44c0-3.28,1.6-5.65,4.34-5.65s4.34,2.37,4.34,5.65-1.6,5.6-4.34,5.6-4.34-2.32-4.34-5.6Zm7.35,0c0-2.72-1.06-4.47-3.01-4.47s-3.01,1.75-3.01,4.47,1.06,4.42,3.01,4.42,3.01-1.7,3.01-4.42Z"/><path class="cls-3" d="M252.29,338.01c0,1.79-1.23,3.09-3.71,3.09h-3.01v4.75h-1.36v-10.87h4.48c2.48,0,3.6,1.15,3.6,3.03Zm-1.36,0c0-1.22-.75-1.89-2.46-1.89h-2.9v3.84h2.9c1.71,0,2.46-.78,2.46-1.95Z"/><path class="cls-3" d="M261.68,336.11h-3.6v9.75h-1.34v-9.75h-3.62v-1.12h8.56v1.12Z"/></g><g><path class="cls-3" d="M529.78,659.44c0,3.11-2.53,5.6-5.63,5.6s-5.6-2.5-5.6-5.6,2.5-5.63,5.6-5.63,5.63,2.53,5.63,5.63Zm-10.08,0c0,2.46,1.98,4.45,4.45,4.45s4.48-1.99,4.48-4.45-2.02-4.48-4.48-4.48-4.45,2.02-4.45,4.48Z"/><path class="cls-3" d="M538.64,653.99v10.87h-1.38v-8.56c-.56,.51-1.3,.69-2.48,.69v-1.12c1.86-.06,2.42-.75,2.69-1.87h1.17Z"/><path class="cls-3" d="M548.53,661.38c0,1.92-1.28,3.67-3.78,3.67-2.26,0-3.84-1.34-3.84-3.33h1.36c.06,1.33,1.01,2.19,2.5,2.19s2.42-1.12,2.42-2.56-.85-2.48-2.43-2.48c-.96,0-1.63,.4-2.02,1.07h-1.57l.42-5.95h6.4v1.12h-5.3l-.24,3.67c.54-.67,1.44-1.09,2.54-1.09,2.21,0,3.54,1.62,3.54,3.7Z"/><path class="cls-3" d="M550.05,659.44c0-3.28,1.6-5.65,4.34-5.65s4.34,2.37,4.34,5.65-1.6,5.6-4.34,5.6-4.34-2.32-4.34-5.6Zm7.35,0c0-2.72-1.06-4.47-3.01-4.47s-3.01,1.75-3.01,4.47,1.06,4.42,3.01,4.42,3.01-1.7,3.01-4.42Z"/><path class="cls-3" d="M573.01,657.01c0,1.79-1.23,3.09-3.71,3.09h-3.01v4.75h-1.36v-10.87h4.48c2.48,0,3.6,1.15,3.6,3.03Zm-1.36,0c0-1.22-.75-1.89-2.46-1.89h-2.9v3.84h2.9c1.71,0,2.46-.78,2.46-1.95Z"/><path class="cls-3" d="M582.4,655.11h-3.6v9.75h-1.34v-9.75h-3.62v-1.12h8.56v1.12Z"/></g><g><path class="cls-3" d="M1144.78,340.44c0,3.11-2.53,5.6-5.63,5.6s-5.6-2.5-5.6-5.6,2.5-5.63,5.6-5.63,5.63,2.53,5.63,5.63Zm-10.08,0c0,2.46,1.98,4.45,4.45,4.45s4.48-1.99,4.48-4.45-2.02-4.48-4.48-4.48-4.45,2.02-4.45,4.48Z"/><path class="cls-3" d="M1151.48,344.73h6.03v1.12h-7.39v-.46c0-1.6,.67-2.8,2.38-3.81l2.16-1.26c1.07-.62,1.49-1.31,1.49-2.26,0-1.14-.69-2.13-2.16-2.13s-2.35,.98-2.45,2.53h-1.31c.08-2.15,1.38-3.67,3.76-3.67,2.24,0,3.52,1.41,3.52,3.27,0,1.18-.37,2.18-2.11,3.22l-2.48,1.47c-.78,.46-1.3,1.06-1.44,1.99Z"/><path class="cls-3" d="M1167,342.32c0,2.22-1.5,3.73-3.76,3.73-3.12,0-4.02-2.77-4.02-5.71,0-3.87,2-5.54,4.18-5.54,2.03,0,3.14,1.01,3.43,2.79h-1.36c-.22-1.06-.88-1.63-2.07-1.63-1.82,0-2.85,1.71-2.85,4.07v.22c.53-.98,1.49-1.52,2.82-1.52,2.29,0,3.63,1.57,3.63,3.6Zm-1.33,0c0-1.28-.78-2.45-2.38-2.45s-2.5,1.17-2.5,2.45,.9,2.58,2.5,2.58,2.38-1.3,2.38-2.58Z"/><path class="cls-3" d="M1168.63,340.44c0-3.28,1.6-5.65,4.34-5.65s4.34,2.37,4.34,5.65-1.6,5.6-4.34,5.6-4.34-2.32-4.34-5.6Zm7.35,0c0-2.72-1.06-4.47-3.01-4.47s-3.01,1.75-3.01,4.47,1.06,4.42,3.01,4.42,3.01-1.7,3.01-4.42Z"/><path class="cls-3" d="M1191.59,338.01c0,1.79-1.23,3.09-3.71,3.09h-3.01v4.75h-1.36v-10.87h4.48c2.48,0,3.6,1.15,3.6,3.03Zm-1.36,0c0-1.22-.75-1.89-2.46-1.89h-2.9v3.84h2.9c1.71,0,2.46-.78,2.46-1.95Z"/><path class="cls-3" d="M1200.99,336.11h-3.6v9.75h-1.34v-9.75h-3.62v-1.12h8.56v1.12Z"/></g><polygon class="cls-2" points="46 703.85 51.06 714.1 62.37 715.75 54.18 723.73 56.12 734.99 46 729.67 35.88 734.99 37.82 723.73 29.63 715.75 40.94 714.1 46 703.85"/><polygon class="cls-2" points="116.78 703.85 121.84 714.1 133.15 715.75 124.96 723.73 126.89 734.99 116.78 729.67 106.66 734.99 108.59 723.73 100.41 715.75 111.72 714.1 116.78 703.85"/><polygon class="cls-2" points="187.56 703.85 192.61 714.1 203.92 715.75 195.74 723.73 197.67 734.99 187.56 729.67 177.44 734.99 179.37 723.73 171.19 715.75 182.5 714.1 187.56 703.85"/><polygon class="cls-2" points="258.33 703.85 263.39 714.1 274.7 715.75 266.52 723.73 268.45 734.99 258.33 729.67 248.22 734.99 250.15 723.73 241.96 715.75 253.27 714.1 258.33 703.85"/><polygon class="cls-2" points="329.11 703.85 334.17 714.1 345.48 715.75 337.3 723.73 339.23 734.99 329.11 729.67 318.99 734.99 320.93 723.73 312.74 715.75 324.05 714.1 329.11 703.85"/><polygon class="cls-2" points="399.89 703.85 404.95 714.1 416.26 715.75 408.07 723.73 410.01 734.99 399.89 729.67 389.77 734.99 391.7 723.73 383.52 715.75 394.83 714.1 399.89 703.85"/><polygon class="cls-2" points="470.67 703.85 475.73 714.1 487.04 715.75 478.85 723.73 480.78 734.99 470.67 729.67 460.55 734.99 462.48 723.73 454.3 715.75 465.61 714.1 470.67 703.85"/><polygon class="cls-2" points="541.44 703.85 546.5 714.1 557.81 715.75 549.63 723.73 551.56 734.99 541.44 729.67 531.33 734.99 533.26 723.73 525.08 715.75 536.39 714.1 541.44 703.85"/><polygon class="cls-2" points="612.22 703.85 617.28 714.1 628.59 715.75 620.41 723.73 622.34 734.99 612.22 729.67 602.11 734.99 604.04 723.73 595.85 715.75 607.16 714.1 612.22 703.85"/><polygon class="cls-2" points="683 703.85 688.06 714.1 699.37 715.75 691.18 723.73 693.12 734.99 683 729.67 672.88 734.99 674.82 723.73 666.63 715.75 677.94 714.1 683 703.85"/><polygon class="cls-2" points="753.78 703.85 758.84 714.1 770.15 715.75 761.96 723.73 763.89 734.99 753.78 729.67 743.66 734.99 745.59 723.73 737.41 715.75 748.72 714.1 753.78 703.85"/><polygon class="cls-2" points="824.56 703.85 829.61 714.1 840.92 715.75 832.74 723.73 834.67 734.99 824.56 729.67 814.44 734.99 816.37 723.73 808.19 715.75 819.5 714.1 824.56 703.85"/><polygon class="cls-2" points="895.33 703.85 900.39 714.1 911.7 715.75 903.52 723.73 905.45 734.99 895.33 729.67 885.22 734.99 887.15 723.73 878.96 715.75 890.27 714.1 895.33 703.85"/><polygon class="cls-2" points="966.11 703.85 971.17 714.1 982.48 715.75 974.3 723.73 976.23 734.99 966.11 729.67 955.99 734.99 957.93 723.73 949.74 715.75 961.05 714.1 966.11 703.85"/><polygon class="cls-2" points="1036.89 703.85 1041.95 714.1 1053.26 715.75 1045.07 723.73 1047.01 734.99 1036.89 729.67 1026.77 734.99 1028.7 723.73 1020.52 715.75 1031.83 714.1 1036.89 703.85"/><polygon class="cls-2" points="1107.67 703.85 1112.73 714.1 1124.04 715.75 1115.85 723.73 1117.78 734.99 1107.67 729.67 1097.55 734.99 1099.48 723.73 1091.3 715.75 1102.61 714.1 1107.67 703.85"/><polygon class="cls-2" points="1178.44 703.85 1183.5 714.1 1194.81 715.75 1186.63 723.73 1188.56 734.99 1178.44 729.67 1168.33 734.99 1170.26 723.73 1162.08 715.75 1173.39 714.1 1178.44 703.85"/><polygon class="cls-2" points="1249.22 703.85 1254.28 714.1 1265.59 715.75 1257.41 723.73 1259.34 734.99 1249.22 729.67 1239.11 734.99 1241.04 723.73 1232.85 715.75 1244.16 714.1 1249.22 703.85"/><polygon class="cls-2" points="1320 703.85 1325.06 714.1 1336.37 715.75 1328.18 723.73 1330.12 734.99 1320 729.67 1309.88 734.99 1311.82 723.73 1303.63 715.75 1314.94 714.1 1320 703.85"/><g><path class="cls-1" d="M743.41,631.55l-2.99,1.21-14.75,35.83c-4.76,12.74-6.86,16.52-11.57,16.46-1.24-.01-2.64-.11-4.28-1.04l.12-11.31h1.24c1.58,6.96,2.88,8.05,4.54,8.07,2.23,.02,4.09-4.25,7.15-12.22l1.44-3.62-13.43-32.5-3.62-1.28v-.83l18.41,.2v.83l-7.29,1.24,.24,.58,9.32,23.37,9.83-23.83-7.66-1.32v-.83l13.3,.14v.83Z"/><path class="cls-1" d="M746.49,647.26c-.35-10.56,5.6-18.02,17.15-18.4,10.97-.36,16.92,7.29,17.25,17.27,.35,10.56-5.6,18.02-16.74,18.39-11.38,.37-17.33-7.28-17.66-17.26Zm27.76,.25c-.27-8.33-4.09-16.3-11.59-16.05-7.34,.24-9.77,6.68-9.52,14.43,.28,8.41,4.09,16.3,11.59,16.05,7.34-.24,9.79-6.1,9.52-14.44Z"/><path class="cls-1" d="M826.6,658.28l.07,.82-13,1.05-.54-6.66c-.92,3.97-3.88,8.34-9.97,8.84-7.98,.64-11.09-3.99-11.72-11.81l-1.53-19.01-4.75-1.36-.07-.82,16.54-1.33,.07,.82-5.13,2.15,1.39,17.2c.52,6.42,2.39,9.08,7.57,8.66,4.94-.4,7.54-4.09,7.02-10.5l-1.33-16.54-5.49-1.3-.07-.82,17.85-1.44,.07,.82-5.71,2.12,2.26,27.97,6.47,1.14Z"/><path class="cls-1" d="M884.18,616.39l.71,4.65-8,1.22c2.47,1.96,4.09,4.89,4.61,8.31,1.24,8.08-2.73,14.36-11.3,16.17l.86,5.63,2.37-.36c8.16-1.25,14.15,1.34,15.22,8.36,1.26,8.24-6.39,13.34-15.53,14.73-9.79,1.5-17.56-1.24-18.82-9.48-1.07-7.02,4.52-11.38,12.03-12.53l1.71-.26-.86-5.63c-8.89,.86-14.85-3.16-16.14-11.64-1.2-7.83,3.14-14.42,13.09-15.95,4.16-.64,7.66-.17,10.45,1.16l9.03-4.3,.57-.09Zm-9.52,17.49c-1.21-7.91-5-12.51-10.8-11.63-4.82,.73-6.88,4.72-6,10.44,1.32,8.65,5.07,12.42,10.7,11.56,5.14-.79,6.93-4.9,6.1-10.37Zm-3.86,21.21l-1.63,.25c-5.96,.91-9.17,3.91-8.26,9.86,.86,5.63,6.53,8.27,12.07,7.42,6.2-.95,9.72-5.24,8.9-10.63-.91-5.96-5.36-7.78-11.08-6.91Z"/><path class="cls-1" d="M918.97,626.28l-23,4.51c2.17,8.07,7.35,12.18,14.4,10.8,5.26-1.03,7.81-3.05,8.77-7.61l1.3-.25c.24,5.5-2.04,12.34-11.11,14.12-10.29,2.02-16.62-4.98-18.48-14.46-1.92-9.8,1.98-18.64,11.86-20.58,10.12-1.99,15.68,5.34,16.27,13.46Zm-6.63-1.22c-1.19-6.07-4.54-10.72-10.54-9.54-5.27,1.03-7.66,5.54-6.39,12.86l16.93-3.32Z"/><path class="cls-1" d="M949.83,630.48c-.11,4.26-1.26,8.77-7.21,10.15-6.19,1.44-9.92-.74-11.38-7.01l-5.09-21.86-6.75,1.57-.19-.8c7.29-2.89,9.8-7.03,9.06-15.67l1.2-.28,2.62,11.25,10.69-2.49,.56,2.41-10.69,2.49,4.68,20.1c.92,3.94,2.26,6.42,6.84,5.35,2.65-.62,3.92-2.1,4.44-4.93l1.21-.28Z"/><path class="cls-1" d="M996.69,617.5c.12,4.26-.78,8.83-6.65,10.53-6.02,1.75-9.84-.14-11.65-6.06l-12.16-41.77-6.07,.13-.23-.79,22.9-6.67,.23,.79-10.49,4.43,11.63,39.94c1.13,3.88,2.61,6.29,7.12,4.98,2.62-.76,3.8-2.31,4.17-5.17l1.19-.35Z"/><path class="cls-1" d="M997.84,607.29c-3.34-10.02,.24-18.87,11.2-22.52,10.42-3.47,18.29,2.17,21.45,11.65,3.34,10.02-.24,18.87-10.81,22.39-10.81,3.6-18.69-2.04-21.84-11.51Zm26.67-7.67c-2.63-7.91-8.56-14.46-15.68-12.09-6.97,2.32-7.47,9.19-5.01,16.55,2.66,7.99,8.56,14.46,15.68,12.09,6.97-2.32,7.65-8.64,5.01-16.54Z"/><path class="cls-1" d="M1051.77,585.56c7.23-.71,9.76,1.77,11.46,6.25,2.37,6.25-.53,11.41-8.09,14.28-4.09,1.55-9.22,1.29-12.08-1.6l2.05,5.4-1.54,.58-4.94-13.04,1.54-.58,1.35,3.55c2.76,4.25,7.41,4.87,12.81,2.82,4.94-1.87,6.14-5.24,5.05-8.1-1.23-3.24-3.22-3.37-6.52-3l-7.05,.73c-4.58,.5-8.63-.88-10.5-5.82-2.43-6.41,1.03-11.96,7.28-14.33,4.32-1.64,8.3-1.38,10.78,.95l-1.52-4.01,1.54-.58,4.95,13.04-1.54,.59-1.84-4.86c-3.31-4.31-6.74-4.51-11.53-2.69-3.86,1.46-5.49,4.38-4.23,7.7,1.14,3.01,3.15,3.66,6.3,3.35l6.3-.62Z"/><path class="cls-1" d="M1090.5,582.9c.6,4.22,.21,8.86-5.43,11.21-5.87,2.45-9.9,.91-12.38-5.03l-8.64-20.72-6.4,2.67-.32-.76c6.72-4.05,8.51-8.56,6.34-16.95l1.14-.48,4.45,10.67,10.13-4.23,.95,2.28-10.13,4.23,7.94,19.04c1.56,3.73,3.29,5.96,7.63,4.15,2.51-1.05,3.52-2.72,3.57-5.6l1.14-.48Z"/></g><g><path class="cls-1" d="M762.27,576.93l3.94,13.68c-2.43,2.93-9.26,7.06-15.76,9.47-15.16,5.64-27.96-.35-33.51-15.28-5.32-14.31-.27-29.14,15.67-35.06,5.88-2.19,11.36-3.08,15.57-3.59l7.81,13.91-1.1,.59c-6.39-7.48-13.13-11.14-22.33-7.72-12.38,4.6-13.38,15.89-9.03,27.57,4.75,12.76,14.78,20.57,26.77,16.11,7.19-2.68,11.82-7.04,10.8-19.25l1.16-.43Z"/><path class="cls-1" d="M800.82,570.03l1.42-.42,.87,2.93c1.51,5.06,1.86,9.44-4.39,11.3-3.56,1.06-6.88,.33-8.29-3.82-.54,3.95-2.6,7.75-7.74,9.28-6.25,1.86-11.11-.57-12.9-6.58-2.19-7.36,2.21-11.94,9.26-14.04,3.16-.94,5.77-.86,7.92-.29l-1.81-6.09c-1.46-4.9-3.37-7.26-8.43-5.76-4.43,1.32-5.81,4.49-5.75,12.22l-1.19,.35-3.23-10.84c3.48-1.9,7.38-3.57,10.38-4.47,8.62-2.57,12.69,.1,14.95,7.69l4.52,15.19c.66,2.21,1.75,3.27,3.65,2.7,2.37-.71,2.68-2.86,1.45-6.98l-.71-2.37Zm-12.07,4.28l-.99-3.32c-2.06-.85-4.62-1.04-6.99-.33-4.51,1.34-6.49,4.52-5.17,8.95,1.15,3.88,4.05,5.51,8.25,4.26,5.77-1.72,5.8-6.55,4.91-9.56Z"/><path class="cls-1" d="M850.1,563.11c-.08,4.26-1.19,8.78-7.13,10.21-6.1,1.47-9.82-.6-11.35-6.6l-10.26-42.52-15.16,3.66,9.76,40.44c.95,3.93,2.31,6.4,6.88,5.3,2.65-.64,3.9-2.13,4.4-4.97l1.2-.29c-.08,4.26-1.19,8.78-7.13,10.21-6.1,1.47-9.82-.6-11.36-6.6l-10.2-42.28-6.06-.15-.19-.8,44.85-10.82,.19,.8-10.68,3.94,9.76,40.44c.95,3.93,2.31,6.4,6.88,5.3,2.65-.64,3.9-2.13,4.4-4.97l1.2-.29Z"/><path class="cls-1" d="M936.39,554.64l.13,.81-17.69,2.78-.13-.82,5.12-2.48-2.66-16.96c-.95-6.03-3.16-8.94-8.78-8.06-5.87,.92-7.15,6.05-6.22,12.01l2.42,15.41,6.13,.71,.13,.81-18.35,2.88-.13-.82,5.62-2.55-2.66-16.96c-.87-5.54-2.75-9.01-8.88-8.13-5.56,.79-7.16,5.47-6.27,11.68l2.47,15.74,5.96,.73,.13,.81-18.1,2.84-.13-.82,5.53-2.54-4.17-26.58-6.2,.97-.12-.73,11.82-5.62,1.32,8.4c1.44-6.24,5.28-10.02,10.18-10.71,5.88-.84,9.98,1.86,11.81,7.09,1.51-5.83,5-9.64,10.14-10.45,7.01-1.1,11.44,3.13,12.58,10.39l3.05,19.41,5.96,.73Z"/><path class="cls-1" d="M966.26,534.5l-23.31,2.47c1.45,8.23,6.25,12.79,13.39,12.03,5.34-.57,8.05-2.35,9.41-6.81l1.31-.14c-.25,5.5-3.12,12.12-12.31,13.09-10.42,1.1-16.12-6.43-17.14-16.03-1.05-9.93,3.61-18.4,13.63-19.46,10.26-1.09,15.15,6.7,15.02,14.85Zm-6.5-1.8c-.65-6.16-3.58-11.08-9.65-10.43-5.34,.56-8.12,4.84-7.5,12.25l17.16-1.82Z"/><path class="cls-1" d="M1013.66,548.68l.04,.83-20.11,1.01-.04-.82,6.76-1.99-1.35-26.87-6.84,.35-.04-.74,13.33-4.39,1.58,31.32,6.68,1.32Zm-16.55-41.56c-.13-2.55,1.92-4.56,4.31-4.68,2.47-.12,4.71,1.66,4.84,4.22,.13,2.64-1.92,4.64-4.39,4.77-2.39,.12-4.63-1.67-4.76-4.31Z"/><path class="cls-1" d="M1041.82,494.53l.22,11.88-1.24,.02c-2.04-7.39-4.31-9.99-8.19-9.92-3.88,.07-5.72,2.99-5.62,8.36,.07,3.88,.79,7,1.45,11.28l10.23-.19,.05,2.48-10.15,.19,.52,28.06,8.45,1.49,.02,.82-20.96,.39v-.82l5.81-1.76-.52-28.06-5.86,.11-.05-2.48,5.86-.11-.1-5.28c-.17-9.24,3.57-16.74,13.06-16.92,3.05-.06,4.05,0,7.03,.45Z"/></g><ellipse class="cls-5" cx="885.51" cy="591.84" rx="261.78" ry="113.46" transform="translate(-85.36 153.87) rotate(-9.48)"/></svg>