<?xml version='1.0' encoding='UTF-8'?>
<svg xmlns="http://www.w3.org/2000/svg" xmlns:xlink="http://www.w3.org/1999/xlink" width="1366px" height="768px" viewBox="0 0 1366 768" x="0px" y="0px" enable-background="new 0 0 1366 768"><defs><symbol overflow="visible" id="045bfd39a"><path d="M175.45-49.06l-173.8.34-.38 10.08H174.9zm0 0"/></symbol><symbol overflow="visible" id="045bfd39z"><path d="M175.45 6.72H1.65L1.26 16.8H174.9zm0 0"/></symbol><symbol overflow="visible" id="045bfd39b"><path d="M61.14-94.92c0 3.03 1.81 5.37 5.63 5.37 6.36 0 12.89-7.04 12.89-13.1 0-2.7-1.46-5.04-5.27-5.04-7.62 0-13.25 7.06-13.25 12.77zM35.56-13.78c0-2.52 1.63-6.05 3.81-9.58L53.53-47.2c3.44-5.9 5.99-11.6 5.99-15.8 0-3.53-2.55-5.88-6.18-5.88-9.25 0-16.15 7.72-29.57 24.2l2.36 1.5c3.26-3.35 11.06-14.45 15.25-14.45 1.62 0 2.53.68 2.53 2.36 0 1.85-1.27 5.04-4.9 11.08l-15.6 26.05c-2.36 4.03-3.63 7.72-3.63 10.75 0 5.03 3.08 8.4 8.7 8.4 11.44 0 20.86-12.1 25.77-21l-2.55-.84c-5.08 6.72-8.89 10.58-13.06 10.58-2.17 0-3.08-1.52-3.08-3.53zm0 0"/></symbol><symbol overflow="visible" id="045bfd39c"><path d="M72.94-13.78c0-11.25 24.5-29.4 24.5-45.52 0-6.06-4.17-9.58-11.44-9.58-13.42 0-25.03 15.46-38.28 33.6h-1.27C53.7-45.36 61.7-56.78 61.7-63c0-3.03-2-5.88-6.35-5.88-10.7 0-19.59 12.6-29.22 24.02l2.18 1.69c6.17-7.4 11.8-14.45 15.25-14.45 1.8 0 2.53 1.01 2.53 2.51 0 1.69-1.27 4.7-4.7 10.6C34.47-32.78 22.68-13.62 14.7 0h15.6c2.54-7.06 6.17-13.6 7.98-16.8C45-29.06 63.14-56.95 76.75-56.95c3.63 0 5.44 1.68 5.44 4.7 0 10.25-24.13 31.92-24.13 44.52 0 5.54 3.81 8.75 9.25 8.75 11.06 0 20.86-15.13 25.96-24.38l-2.2-1.5c-5.62 9.4-11.05 14.61-15.05 14.61-1.99 0-3.08-1.17-3.08-3.53zm0 0"/></symbol><symbol overflow="visible" id="045bfd39d"><path d="M28.84-12.94c0-2.01 2-5.2 3.27-7.56l23.23-40.31 18.14-.35c3.63-1.67 5.27-4.03 5.27-6.89H58.97l11.42-19.98c-2.36-1.69-8.7-1.84-14.14 0L49.89-67.7l-15.97.84c-3.26 1.34-4.53 3.52-4.17 5.88h12.16L16.88-17.3c-1.46 2.52-3.63 6.88-3.63 10.4 0 5.56 3.63 7.92 9.42 7.92 15.25 0 25.05-13.79 30.13-22.86l-2.53-.85c-4.91 7.24-11.08 12.44-17.43 12.44-2.72 0-4-1.17-4-2.69zm0 0"/></symbol><symbol overflow="visible" id="045bfd39e"><path d="M82.92-58.47c0-7.72-8.17-10.4-15.42-10.4-25.4 0-48.45 29.39-48.45 50.39C19.05-7.56 25.22.84 37.92.84c11.8 0 23.22-7.23 31.56-22.68l-2.53-.85C61.15-14.6 53.7-9.08 45.72-9.08c-8.53 0-12.33-5.37-12.33-14.28 0-2.17.17-5.37 1.27-8.73 28.67-3.36 48.26-11.75 48.26-26.38zM62.6-61.48c4.72 0 7.27 1.84 7.27 5.54 0 7.22-8.36 16.97-33.75 19.49 4.34-12.94 15.6-25.03 26.48-25.03zm0 0"/></symbol><symbol overflow="visible" id="045bfd39f"><path d="M44.64-35.1c7.06-10.26 15.42-22.18 15.42-27.56 0-4.87-3.45-6.22-6.53-6.22-9.98 0-18.33 11.08-29.03 24.02l2.17 1.69c7.08-8.58 11.97-14.45 15.24-14.45a2.42 2.42 0 012.54 2.51c0 1.52-1.1 4.38-3.62 8.73C34.1-34.94 21.77-14.6 13.06 0h15.61c1.27-3.7 3.81-8.73 5.25-11.77 9.8-19.48 27.05-39.46 44.83-39.46 3.44-3.54 7.06-9.25 7.06-14.46 0-2.36-1.62-3.19-4.34-3.19-11.61 0-20.88 14.11-35.56 33.77zm0 0"/></symbol><symbol overflow="visible" id="045bfd39g"><path d="M64.6-12.6c0-8.74 22.85-40.65 34.82-53.76.55-1.34-1.08-2.52-2.36-2.52-1.98 0-5.08 1.68-8.34 3.52-3.27-1.84-9.44-3.52-16.14-3.52-25.05 0-57.7 36.63-57.7 59.8 0 5.9 3.45 9.75 9.98 9.75 13.78 0 30.3-23.01 37.73-33.26h1.27L54.6-19c-3.44 5.05-5.8 8.91-5.8 13.27 0 4.2 2.72 6.74 7.44 6.74 9.6 0 19.77-10.6 26.67-22.86l-2.55-.85c-4.71 6.74-9.8 12.44-13.25 12.44-1.62 0-2.53-.84-2.53-2.34zm14.68-46.02c-9.8 14.26-25.03 32.74-35.37 42.32-3.63 3.36-7.44 5.38-9.99 5.38-2.53 0-4.53-1.35-4.53-4.88 0-14.6 20.88-46.36 37.56-46.36 4.72 0 9.44 1.35 12.33 3.53zm0 0"/></symbol><symbol overflow="visible" id="045bfd39h"><path d="M40.83.84c33.37 0 47.53-34.78 47.53-50.9 0-13.11-8.34-18.81-20.5-18.81-30.84 0-48.98 33.76-48.98 51.23C18.88-3.2 29.38.84 40.83.84zm32.83-51.07c0 15.96-11.97 43.17-29.94 43.17-6.16 0-10.16-4.19-10.16-11.08 0-18.66 13.61-43.02 29.94-43.02 7.63 0 10.16 4.03 10.16 10.93zm0 0"/></symbol><symbol overflow="visible" id="045bfd39i"><path d="M21.4-21.84c-3.62 6.21-6.17 10.59-6.17 15.3 0 4.7 3.27 7.56 9.63 7.56 13.06 0 22.5-9.75 29.94-22.86l-2.55-.85c-4.72 6.9-10.88 12.44-17.05 12.44-2.54 0-4.17-1.17-4.17-3.19 0-2.19 1.99-5.37 5.8-11.94l53.89-93.73-1.81-1.17-27.41 6.87-.72 2.02c6.53 3.7 6.9 5.05 6.9 7.23 0 2.02-2.54 6.55-4.18 9.41zm0 0"/></symbol><symbol overflow="visible" id="045bfd39w"><path d="M102.16-135.9c-59.7 26.7-89.1 69.37-89.1 113.06 0 21 8.53 44.51 23.77 60.64l3.45-2.86C25.77 18.14 18.14-1.17 18.14-23.2c0-42.5 28.86-82.65 85.83-109.36zm0 0"/></symbol><symbol overflow="visible" id="045bfd39x"><path d="M-14.88 27.9v4.52h44.1l1.08-4.87-17.96-1L26.67-1.7A40.72 40.72 0 0041.37.84C78.2.84 97.62-39.3 97.62-55.6c0-9.4-4.9-13.27-12.16-13.27-14.68 0-25.22 14.61-39.18 33.6H45C55.34-50.56 60.23-58.97 60.23-63c0-2.69-1.62-5.88-6.34-5.88-10.7 0-19.97 12.94-29.22 24.02l2.19 1.69c3.8-4.38 10.87-14.45 15.42-14.45 1.44 0 2.36.84 2.36 2.18 0 1.17-.37 2.69-1.28 4.53L9.6 6.22-2.36 26.55zM33.4-11.78c12.88-23.17 32.3-45.01 43.17-45.01 3.81 0 5.63 2.01 5.63 6.89 0 13.6-15.24 45.52-37.38 45.52-5.98 0-9.6-2.7-11.42-7.4zm0 0"/></symbol><symbol overflow="visible" id="045bfd39y"><path d="M61.69-50.06c7.98 0 13.42-4.2 13.42-10.42 0-5.55-5.44-8.4-14.52-8.4-15.78 0-30.84 8.4-30.84 22.18 0 3.53 1.45 6.54 3.45 9.4l8.17 10.25c2.72 3.36 4.7 7.07 4.7 11.1 0 5.87-4.88 9.23-10.7 9.23-6.89 0-13.96-3.7-17.23-10.92-4.34 2.02-7.8 5.2-7.8 9.23 0 6.9 8.35 9.43 18.14 9.43 16.7 0 30.85-11.44 30.85-22.52 0-5.22-2.36-9.4-5.27-13.28l-6.15-7.9c-2.55-3.35-4.55-6.88-4.55-10.74 0-5.55 4-9.24 9.98-9.24 8.9 0 10.7 6.05 8.35 12.6zm0 0"/></symbol><symbol overflow="visible" id="045bfd39A"><path d="M111.4-13.44c0-11.94 24.5-29.58 24.5-46.2 0-6.4-5.26-9.23-10.71-9.23-17.24 0-30.11 21.82-39.19 33.76h-1.27c6.9-9.25 12.7-17.14 12.7-24.7 0-5.38-4.54-9.06-11.07-9.06-14.88 0-28.66 19.8-38.83 33.76h-1.26c5.26-7.23 15.42-20.5 15.42-28.06 0-3.19-2.36-5.7-6.35-5.7-9.62 0-17.23 9.23-29.22 24.01l2.18 1.69c5.26-6.4 11.8-14.45 15.25-14.45 2 0 2.53 1.17 2.53 2.51C46.08-50.56 27.77-22 14.7 0h15.78c1.08-4.2 4.9-11.77 7.8-16.8 6.9-12.1 24.31-40.15 38.83-40.15 3.62 0 5.08 2.18 5.08 4.2 0 3.86-2.17 8.23-7.44 16.97L53.15 0h15.62c1.45-4.53 5.07-11.77 7.98-16.8 6.72-11.93 26.31-40.15 38.47-40.15 3.26 0 5.44 1.68 5.44 4.53 0 11.1-24.13 31.6-24.13 45.03 0 4.87 3.63 8.4 8.9 8.4 11.6 0 21.21-14.95 26.29-24.37l-2.17-1.5c-3.27 5.2-9.44 14.61-15.07 14.61-1.45 0-3.07-.67-3.07-3.19zm0 0"/></symbol><symbol overflow="visible" id="045bfd39B"><path d="M125.56-119.1l-1.83-1.18-27.39 6.87-.9 2.02c6.34 3.36 7.08 4.87 7.08 7.23 0 2.02-2.55 6.55-4.18 9.41C94.7-88.7 88-77.11 82.2-67.2c-3.08-1-6.9-1.67-10.88-1.67-25.76 0-58.06 36.62-58.06 59.8 0 5.88 3.27 9.74 9.97 9.74 13.6 0 29.76-22.17 37.75-33.26h1.26C55.7-22.52 49.9-12.44 49.9-6.9c0 5.55 3.45 7.9 10.17 7.9 10.88 0 21.05-7.9 29.4-22.85l-2.55-.85C82.38-15.95 76-10.25 69.67-10.25c-2.17 0-3.98-1-3.98-3.02 0-3.2 4.17-9.25 6.15-12.6zm-47.9 60.47c-11.61 17.13-36.47 47.7-45.72 47.7-2.72 0-4.17-1.16-4.17-4.02 0-16.13 21.57-47.2 37-47.2 4.36 0 9.62 1.34 12.89 3.52zm0 0"/></symbol><symbol overflow="visible" id="045bfd39C"><path d="M70.03-12.6c0-1.18.36-2.85 2.19-5.88l28.84-49.4h-15.6c-3.44 10.25-10.16 21-14.52 27.4-12.7 18.46-23.22 29.56-30.66 29.56-3.62 0-5.08-1.85-5.08-4.7 0-3.02 3.08-7.9 6.35-13.44l12.34-20.67c4.34-7.4 5.44-10.58 5.44-13.1 0-4.2-2.72-6.05-7.08-6.05-9.06 0-18.86 12.1-28.48 24.02l2.18 1.69c6.9-8.24 11.97-14.45 15.24-14.45 1.81 0 2.53 1.17 2.53 2.85 0 3.7-9.06 17.47-16.86 30.24-3.64 5.89-6.36 11.42-6.36 15.45 0 5.22 3.27 10.1 11.44 10.1 10.34 0 20.31-9.43 36.1-33.61h1.27C62.6-20.83 54.25-12.27 54.25-6.22c0 3.86 1.63 7.24 7.63 7.24 9.6 0 20.3-11.6 26.48-22.86l-2.55-.85c-5.08 7.4-10.15 12.44-13.23 12.44-1.81 0-2.55-1-2.55-2.34zm0 0"/></symbol><symbol overflow="visible" id="045bfd39D"><path d="M-17.06 51.23c56.6-19.98 87.28-66.01 87.28-113.06 0-24.36-8.53-44.51-23.77-64L43-122.97c14.52 20.16 22.14 36.11 22.14 61.49 0 45.85-30.12 89.37-84.02 109.35zm0 0"/></symbol><symbol overflow="visible" id="045bfd39j"><path d="M24.42 0h39.95v-5.47L50.03-9.33v-80.95H63.2c11.1.16 12.72 7.7 16.13 19.23l5.92-1.17-2.38-25.17c-7.54.6-18.5.75-32.56.75-19.37 0-31.67 0-47.06-.75L1.03-71.92l6.08.87c2.51-11.68 3.69-19.23 17.02-19.23h12.73v67.78c0 11.55-2.38 14.22-12.44 17.03zm0 0"/></symbol><symbol overflow="visible" id="045bfd39k"><path d="M28.72-60.69l-1.64-1.76c-4.58 0-18.94 2.8-22.64 5.17v4.3l9.62 4.14c.3 8 .14 17.9.14 27.39 0 9.6-.43 14.34-5.76 15.68l-4 1.04V0c7.25-.14 9.92-.3 17.31-.3 4.16 0 13.03.3 17.17.44v-5.03L26.34-5.92c-.43-13.17-.3-26.19 0-40.4 2.82-1.48 6.96-2.96 11.1-2.96 3.1 0 5.62.73 8 2.36 1.19-2.36 1.78-5.92 1.78-8.44 0-2.8-.3-5.6-.9-7.1-8.43 0-14.35 6.07-19.68 12.15zm0 0"/></symbol><symbol overflow="visible" id="045bfd39l"><path d="M33.3 1.48c16.87 0 30.64-13.92 30.64-34.18 0-17.77-10.81-29.75-28.72-29.75-17.16 0-30.78 13.47-30.78 33.15 0 18.5 11.25 30.78 28.86 30.78zm17.6-34.04c0 13.76-5.76 26.94-17 26.94-11.7 0-17.18-11.4-17.18-24.27 0-14.22 6.51-26.2 18.2-26.2 10.66 0 15.99 10.51 15.99 23.53zm0 0"/></symbol><symbol overflow="visible" id="045bfd39m"><path d="M50.9-9.17L53.29 0 74.9-3.84l-.45-4.9c-1.33.16-2.52.3-3.55.3-7.25 0-8.58-3.54-8.58-10.5 0-8.6.14-22.8 1.03-43.22l-24.12 4.14v5.33l11.69 2.52c-.14 9.92-.6 28.72-.44 37.73-3.7 2.38-9.03 4.16-13.61 4.16-9.92 0-13.03-7.11-13.03-18.66 0-9.47.6-20.42 1.19-35.22L3.25-58.02v5.33l9.48 2.52c-.15 5.76-.75 17.31-.75 29.75 0 13.31 5.93 21.9 19.4 21.9 7.84 0 14.65-4.14 19.53-10.65zm0 0"/></symbol><symbol overflow="visible" id="045bfd39n"><path d="M42.47-81.7c2.67-2.36 2.37-5.61.45-7.85-1.78-1.92-3.7-2.06-6.06-2.06-3.7 5.17-14.52 15.98-19.84 20.86l2.07 2.22c6.52-2.52 18.64-8.88 23.38-13.17zM31.97 1.48c8.58 0 17.6-3.56 23.53-9.76l-1.33-2.81A39.05 39.05 0 0138.2-8c-13.92 0-21.61-11.54-21.61-26.35h38.19c.3-2.07.59-4.14.59-6.07 0-11.68-6.22-22.04-22.06-22.04-18.2 0-28.57 15.53-28.57 33.89 0 15.53 9.47 30.04 27.24 30.04zm-15.1-40.26c.9-8.74 5.47-17.9 14.66-17.9 9.77 0 12.72 8.88 12.13 17.6zm0 0"/></symbol><symbol overflow="visible" id="045bfd39o"><path d="M31.23 1.48c8.58 0 17.61-3.56 23.54-9.76l-1.35-2.81A38.95 38.95 0 0137.44-8c-13.9 0-21.6-11.54-21.6-26.35h38.18c.3-2.07.59-4.14.59-6.07 0-11.68-6.22-22.04-22.05-22.04C14.36-62.45 4-46.92 4-28.56 4-13.03 13.47 1.48 31.23 1.48zm-15.1-40.26c.89-8.74 5.48-17.9 14.65-17.9 9.77 0 12.74 8.88 12.14 17.6zm0 0"/></symbol><symbol overflow="visible" id="045bfd39q"><path d="M47.66-13.17c-2.82 2.81-8.14 4.6-12.58 4.6-12.74 0-20.13-10.37-20.13-24.29 0-13.47 5.47-23.37 17.16-23.37 7.1 0 13.03 4.43 15.84 9.6zm.43-78c.16 12.44 0 17.47-.3 30.48a49.58 49.58 0 00-14.04-1.76c-18.8 0-30.64 14.5-30.64 31.51 0 18.5 9.17 32.42 26.34 32.42 6.66 0 14.66-3.7 18.5-10.36L50.61 0l21.6-3.84-.43-4.9c-1.33.16-2.51.3-3.55.3-7.26 0-8.59-3.54-8.59-10.5 0-37.6.3-65.28.6-84.65l-2.22-2.22c-4.6 0-15.99 3.1-19.54 5.17v4.3zm0 0"/></symbol><symbol overflow="visible" id="045bfd39r"><path d="M7.1-100.48c2.96 3.09 6.8 6.65 6.8 11.23 0 4.73-3.24 9.63-8.57 11.55l1.03 2.8c10.66-2.8 17.33-9.76 17.33-18.93 0-4-1.78-13.47-6.67-13.47-4.74 0-8.44 2.07-9.91 6.82zm0 0"/></symbol><symbol overflow="visible" id="045bfd39s"><path d="M30.48-38.63l16.74-46.76 15.23 46.77zm37.6 15.1C73.27-10.06 71.34-6.66 58.02-5.2V0h40.25v-5.19L88.36-7.4 56.23-99.9l-12.71 6.08L18.8-27.08C12.73-10.66 11.25-6.8 2.52-5.18V0h32.7v-5.19L18.8-7.25l9.32-25.6h36.41zm0 0"/></symbol><symbol overflow="visible" id="045bfd39t"><path d="M25.31-48.55c4.74-2.8 9.77-4.87 15.4-4.87 10.35 0 13.16 5.9 13.16 17.01v10.96c0 11.84 0 18.34-6.07 19.82l-3.7.9V0c6.37 0 12.88-.3 19.24-.3 4.6 0 7.25.3 11.85.3v-5.03l-9.47-.9v-36.1c0-12.88-5.03-20.42-18.95-20.42-8.88 0-16.58 5.62-21.16 9.76l-.16-8-1.62-1.76c-4.6 0-16.42 3.84-20.13 6.22v3.25l9.47 4.14c0 12.43.14 23.39.14 23.39 0 11.84.16 18.34-5.9 19.82l-3.7.9V0c6.35 0 12.87-.3 19.23-.3 4.6 0 7.54.3 12.14.3v-5.03l-9.77-.9zm0 0"/></symbol><symbol overflow="visible" id="045bfd39u"><path d="M23.69-49.58c3.25-1.78 7.98-3.84 13.01-3.84 13.33 0 19.99 11.1 19.99 24.4 0 13.47-5.92 24.43-18.36 24.43-8.14 0-14.64-6.5-14.64-17.16zm-12-41.89c0 11.25.15 23.69.15 40.7 0 19.4-.15 37.74-.3 50.77l3.12.73 5.03-5.92c4.58 3.57 11.25 6.67 18.8 6.67 19.67 0 29.74-15.98 29.74-33.45 0-17.76-8.73-30.48-25.6-30.48-7.26 0-14.07 4.43-18.94 8.14v-27.67c0-8.3.43-19.4.87-21.61l-2.22-2.22c-4.57 0-15.98 3.1-19.53 5.17v4.3zm0 0"/></symbol><symbol overflow="visible" id="045bfd39v"><path d="M25.6-21.02c1.93.3 3.85.44 5.93.44 13.17-.14 25-7.39 25-21.45 0-4-1.33-7.84-3.69-11.1l11.24-1.18c.6-3.11-.3-7.55-2.06-9.63l-14.66 5.92c-4.14-2.8-9.63-4.43-15.98-4.43-14.07 0-25.02 9.33-25.02 21.3 0 9.92 6.08 16.3 14.52 18.95l-12.6 9.62c0 4.74 4.6 9.03 9.78 9.63v1.03C11.25.89 6.66 5.92 6.66 12.44c0 10.95 10.51 16.42 23.39 16.42 17.6 0 33.43-12.58 33.43-28.27 0-8.3-5.6-12.87-16.71-12.87-2.82 0-9.18-.16-14.2-.16-6.82 0-9.77-1.03-9.77-3.69 0-2.23 1.32-3.56 2.8-4.89zm5.18 19.83h9.92c6.82 0 11.1 2.67 11.1 8.6 0 9.46-8.88 15.23-20.27 15.23-8.6 0-14.36-4.58-14.36-12.42 0-4.45 2.81-8.74 5.92-11.85 1.77.15 4.14.44 7.7.44zM17.77-41.73c0-7.85 4.28-14.36 13.01-14.36 9.47 0 13.92 7.1 13.92 15.54 0 8.74-5.48 13.61-13.33 13.61-8.14 0-13.6-6.51-13.6-14.8zm0 0"/></symbol><symbol overflow="visible" id="045bfd39E"><path d="M84.84-79.5c0 26.67-14.48 63.5-31 63.5C37.08-16 48-75.19 48-94.23c0-5.33-3.55-9.91-9.14-9.91-10.4 0-23.11 12.19-31.23 25.14l2.53 2.8c3.3-4.07 9.65-10.92 13.71-10.92 3.05 0 4.58 2.54 4.58 5.59C28.45-68.08 16.52 0 43.2 0c29.97 0 58.67-57.66 58.67-86.88 0-10.15-5.34-17.26-14.48-17.26-4.32 0-11.43 3.05-14.22 7.62 7.36 1.79 11.68 8.38 11.68 17.02zm0 0"/></symbol><symbol overflow="visible" id="045bfd39F"><path d="M57.9-147.83c1.02-5.84-2.52-13.72-8.37-14.73-7.1-1.52-13.2 3.04-14.98 12.19-1.02 5.59 2.8 13.71 8.64 14.73 7.36 1.28 13.2-4.31 14.72-12.19zM40.4-21.08c0-14.98 11.41-59.69 11.41-73.15 0-5.33-3.54-9.91-9.14-9.91-10.4 0-23.1 12.19-31.23 25.14l2.53 2.8c3.3-4.07 9.65-10.92 13.72-10.92 3.04 0 4.58 2.54 4.58 5.59 0 11.69-12.2 55.87-12.2 65.01 0 8.64 1.77 18.05 11.68 18.05 10.92 0 26.92-15.75 30.22-25.4l-3.8-2.04c-3.56 5.08-8.64 10.68-14.23 10.68-3.05 0-3.55-2.8-3.55-5.85zm0 0"/></symbol><symbol overflow="visible" id="045bfd39G"><path d="M42.92-19.81c0-3.3 2.55-8.64 4.33-10.92L41.65-32 23.12-14.22c0 5.08 1.53 10.66 5.84 12.69L28.7 0C19.81 6.6 8.13 18.03 7.88 28.19 7.1 43.94 25.4 50.29 40.88 50.03c28.45-.25 54.88-14.22 54.88-38.34 0-28.96-52.85-20.83-52.85-31.5zm-9.14 21.6c10.16 1 45.97 3.04 45.97 17 0 13.98-17.78 20.84-31.48 20.59-12.2-.27-24.4-5.35-24.15-17.79 0-6.86 5.08-14.23 9.66-19.8zM106.18-95c0-3.3-1.79-6.34-4.59-7.88-6.34 4.07-18.53 4.58-27.17 4.58v4.58c7.11 0 18.28 6.34 24.13 6.34 4.58 0 7.62-3.04 7.62-7.62zM48.51-28.45c22.6 0 42.67-20.07 42.67-42.4 0-16.53-11.44-32.03-30.74-32.03-22.1 0-42.67 20.08-42.67 44.46 0 17.28 11.94 29.97 30.74 29.97zm23.87-43.17c0 15.75-3.81 34.28-20.83 34.28-9.9 0-14.98-12.2-14.98-23.36 0-15.75 4.83-33.28 19.3-33.28 10.17 0 16.51 10.42 16.51 22.36zm0 0"/></symbol><symbol overflow="visible" id="045bfd39H"><path d="M47.25 1.53c30.98 0 52.06-33.03 52.06-60.2 0-23.63-10.4-45.47-35.3-45.47-29.46 0-52.07 34.03-52.07 63.25 0 23.36 9.65 42.42 35.31 42.42zm33.78-58.69c0 22.11-6.6 46.49-29.47 46.49-14.48 0-20.83-18.53-20.83-33.53 0-22.1 6.1-46.74 26.93-46.74 15.23 0 23.37 17.53 23.37 33.78zm0 0"/></symbol><symbol overflow="visible" id="045bfd39I"><path d="M53.84-94.23c0-5.33-3.54-9.91-9.14-9.91-10.4 0-25.14 12.19-33.26 25.14l2.53 2.8c3.3-4.07 9.65-10.92 13.72-10.92 3.04 0 4.58 2.54 4.58 5.59 0 17.01-10.18 63.5-14.24 82.55l20.58-2.8c.5-5.58 1.02-10.67 1.52-16 2.3-28.45 19.8-61.97 46.23-61.97 1.78-4.06 2.8-9.66 2.8-14.98 0-5.1-1.27-9.41-4.58-9.41-11.42 0-31.75 30.23-36.31 43.69h-1.79c3.55-11.94 7.36-25.9 7.36-33.78zm0 0"/></symbol><symbol overflow="visible" id="045bfd39J"><path d="M63.75-75.69c6.86.25 13.72-5.6 13.72-11.69 0-10.67-10.67-16.76-23.63-16.76-16.25 0-35.56 11.17-35.56 29.72 0 13.97 10.67 20.83 20.08 29.47 7.6 7.1 13.7 13.45 13.7 22.1 0 5.83-5.08 10.91-12.19 10.91-12.18 0-20.06-5.84-26.4-13.97-4.08 2.54-5.85 6.86-5.85 12.2 0 11.16 14.22 15.24 26.93 15.24 18.54 0 34.28-14.23 34.28-32.76 0-7.63-5.85-15.25-12.44-21.86-7.1-6.85-22.86-20.32-22.86-29.2 0-7.37 4.06-12.2 12.19-12.2 10.92 0 17.78 9.15 18.03 18.8zm0 0"/></symbol><symbol overflow="visible" id="045bfd39K"><path d="M77.98-85.34c-.76 16.51-27.43 71.37-41.4 71.37-7.11 0-9.66-11.94-9.4-21.6.5-18.54 8.63-58.41 31.24-58.41 7.11 0 16.52 4.32 19.56 8.64zm7.88 64c0-18.04 6.84-57.66 17.02-78.99 0-2.03-2.55-3.81-4.58-3.81-3.3 0-9.9 5.33-9.9 5.33-5.6-2.78-14.74-5.33-24.38-5.33-35.07 0-55.38 42.42-54.88 76.2.25 16.5 4.83 28.96 19.56 28.96 20.58 0 34.55-32.25 43.44-47.75h1.27c-4.07 13.45-7.88 24.64-7.88 32.51 0 9.14 2.55 15.75 11.69 15.75 10.92 0 27.69-15.75 30.22-25.4l-3.81-2.04C100.08-20.83 95-15.23 89.4-15.23c-3.05 0-3.55-3.05-3.55-6.11zm0 0"/></symbol><symbol overflow="visible" id="045bfd39M"><path d="M85.34-12.19c-3.8 3.3-8.64 5.08-14.48 5.08-12.95 0-28.44-4.33-44.44-6.36C46.73-34.03 74.94-68.33 90.94-98.3c-.52-2.28-2.8-4.58-5.08-4.58-3.81 0-4.08 3.57-10.42 3.57-18.03 0-40.9-.77-56.9-4.83-2.29 1.78-4.32 6.34-4.32 10.16 0 3.56.76 6.36 2.03 9.14a99.34 99.34 0 0022.1 3.06c9.92.25 21.34.25 31.5-2.8C59.93-62.98 24.38-22.36.51-2.55c0 3.07.75 5.35 5.07 5.35 2.54 0 4.57-2.8 8.38-2.8 21.08 0 36.58 12.7 57.66 12.7 15.5 0 18.03-19.56 13.71-24.89zm0 0"/></symbol><symbol overflow="visible" id="045bfd39N"><path d="M5.53-9.66a4.9 4.9 0 100 9.82 4.9 4.9 0 000-9.82zm0 9a4.08 4.08 0 110-8.16 4.08 4.08 0 010 8.16zm-1.2-4.71c.31 0 .47-.46.47-1 0-.55-.16-.97-.47-.97-.35 0-.52.42-.52.96 0 .55.17 1 .52 1zm2.4 0c.33 0 .52-.46.52-1 0-.55-.19-.97-.52-.97-.32 0-.46.42-.46.96 0 .55.14 1 .46 1zm1.4.68c-.32 1.5-1.33 2.22-2.6 2.22-1.26 0-2.28-.72-2.6-2.22h-.48a3 3 0 003.08 3.03 3 3 0 003.08-3.03zm0 0"/></symbol><symbol overflow="visible" id="045bfd39P"><path d="M9.02-9.5l-2.9 7.63-2.9-7.63H1.28V0h1.2v-8.48L5.73 0h.79l3.21-8.47V0h1.2v-9.5zm0 0"/></symbol><symbol overflow="visible" id="045bfd39Q"><path d="M2.47-9.5H1.28V0h1.19zm0 0"/></symbol><symbol overflow="visible" id="045bfd39R"><path d="M2.48-1.02V-9.5h-1.2V0h5.78v-1.02zm0 0"/></symbol><symbol overflow="visible" id="045bfd39S"><path d="M7.52 0h1.26L5.16-9.5H3.87L.13 0H1.4l.99-2.63h4.18zM2.75-3.6l1.77-4.68L6.2-3.61zm0 0"/></symbol><symbol overflow="visible" id="045bfd39T"><path d="M4.52.17c2.3 0 3.62-1.14 3.62-2.8 0-1.35-.92-2.2-2.45-2.56l-2.14-.48c-1.1-.25-1.46-.72-1.46-1.4 0-.91.77-1.62 2.14-1.62 1.4 0 2.32.58 2.5 1.85h1.25C7.77-8.8 6.31-9.67 4.25-9.67c-2.1 0-3.4 1.19-3.4 2.73 0 1.24.76 2.1 2.17 2.4l2.2.5c1.1.24 1.67.74 1.67 1.57 0 .92-.76 1.64-2.37 1.64-1.55 0-2.55-.65-2.72-2H.55c.18 1.92 1.47 3 3.97 3zm0 0"/></symbol><symbol overflow="visible" id="045bfd39U"><path d="M9.03-9.5H7.86v5.86C7.86-1.8 6.7-.87 5.12-.87c-1.67 0-2.76-.96-2.76-2.83v-5.8H1.17v5.8C1.17-1.14 2.72.17 5.11.17c2.39 0 3.92-1.3 3.92-3.87zm0 0"/></symbol><symbol overflow="visible" id="045bfd39V"><path d="M5.2-9.5H1.28V0h1.2v-4.16h2.63c2.17 0 3.25-1.14 3.25-2.7 0-1.64-.98-2.64-3.16-2.64zm-.18 4.34H2.48v-3.36h2.54c1.5 0 2.15.6 2.15 1.66 0 1.02-.65 1.7-2.15 1.7zm0 0"/></symbol><symbol overflow="visible" id="045bfd39W"><path d="M7.86-8.5v-1H1.28V0h6.58v-1.02h-5.4v-3.35h4.8v-.99h-4.8V-8.5zm0 0"/></symbol><symbol overflow="visible" id="045bfd39X"><path d="M7.55 0h1.33L5.8-4.28C7.58-4.5 8.36-5.45 8.36-6.9c0-1.61-1-2.61-3.17-2.61h-3.9V0h1.2v-4.16h2.04zM2.48-8.52h2.55c1.38 0 2.14.54 2.14 1.63 0 1.1-.73 1.73-2.12 1.73H2.48zm0 0"/></symbol><symbol overflow="visible" id="045bfd39Y"><path d="M7.8-9.5H.3v.97h3.16V0h1.17v-8.53H7.8zm0 0"/></symbol><symbol overflow="visible" id="045bfd39Z"><path d="M5.1.17c2.46 0 3.63-1.19 4.06-3.2H7.9c-.38 1.58-1.3 2.2-2.82 2.2-1.8 0-3.21-1.53-3.21-3.92 0-2.4 1.42-3.94 3.21-3.94 1.57 0 2.47.67 2.8 2.22h1.25c-.37-1.92-1.53-3.2-4.05-3.2C2.42-9.67.7-7.61.7-4.75.69-1.87 2.44.17 5.09.17zm0 0"/></symbol><symbol overflow="visible" id="045bfd39aa"><path d="M4.9-4.92v.98h3.3C8.2-2.04 7.05-.83 5.16-.83c-1.99 0-3.29-1.44-3.29-3.92 0-2.44 1.33-3.94 3.24-3.94 1.48 0 2.31.63 2.75 1.75H9.1c-.56-1.89-2.02-2.73-3.98-2.73C2.46-9.67.68-7.66.68-4.75.69-1.81 2.49.17 5.16.17 6.8.17 7.8-.6 8.28-1.73V0h1.06l.02-4.92zm0 0"/></symbol><symbol overflow="visible" id="045bfd39ab"><path d="M2.69-9.5c-.24.97-.74 1.58-2.35 1.63v.98c1.03 0 1.68-.16 2.16-.6V0h1.2v-9.5zm0 0"/></symbol><symbol overflow="visible" id="045bfd39ac"><path d="M4.36-6.25c-1.17 0-2 .48-2.47 1.34v-.2c0-2.06.9-3.56 2.49-3.56 1.04 0 1.6.51 1.8 1.44h1.2c-.25-1.57-1.22-2.44-3-2.44-1.9 0-3.65 1.45-3.65 4.84 0 2.58.79 5 3.5 5 1.99 0 3.3-1.31 3.3-3.26 0-1.79-1.17-3.16-3.17-3.16zm-.08 5.4C2.9-.84 2.1-1.96 2.1-3.08a2.1 2.1 0 012.2-2.14c1.4 0 2.08 1.01 2.08 2.14 0 1.12-.68 2.25-2.09 2.25zm0 0"/></symbol><symbol overflow="visible" id="045bfd39ad"><path d="M5.72-4.97a2.21 2.21 0 001.53-2.1c0-1.5-1.3-2.6-3.13-2.6C2.3-9.67 1-8.57 1-7.07c0 .96.6 1.79 1.53 2.1A2.4 2.4 0 00.7-2.63C.7-1.01 2.14.17 4.12.17c2 0 3.43-1.19 3.43-2.8a2.4 2.4 0 00-1.83-2.34zM4.12-8.7c1.16 0 1.9.7 1.9 1.65 0 .85-.66 1.61-1.9 1.61-1.23 0-1.9-.76-1.9-1.6 0-.96.75-1.66 1.9-1.66zm0 7.84C2.88-.86 2-1.56 2-2.66c0-1.09.88-1.8 2.13-1.8 1.26 0 2.12.71 2.12 1.8 0 1.1-.86 1.8-2.13 1.8zm0 0"/></symbol><symbol overflow="visible" id="045bfd39ae"><path d="M7.53-3.3H6.3v-6.2H4.53L.33-3.3v.99h4.76V0h1.2v-2.31h1.24zm-6.05 0L5.1-8.6v5.3zm0 0"/></symbol><symbol overflow="visible" id="045bfd39af"><path d="M3.08-2.72L5.25-4c1.53-.9 1.84-1.78 1.84-2.81 0-1.63-1.1-2.86-3.07-2.86C1.94-9.67.8-8.34.73-6.47h1.15c.07-1.36.8-2.22 2.14-2.22 1.3 0 1.89.88 1.89 1.88 0 .83-.36 1.42-1.3 1.97l-1.9 1.1C1.22-2.85.64-1.8.64-.4V0h6.46v-.98H1.81c.14-.82.58-1.33 1.27-1.74zm0 0"/></symbol><symbol overflow="visible" id="045bfd39ag"><path d="M4.27-6.27c-.97 0-1.75.36-2.22.96l.2-3.22h4.64v-.97H1.3L.91-4.3H2.3c.33-.6.92-.93 1.76-.93 1.4 0 2.13.9 2.13 2.17 0 1.25-.8 2.23-2.11 2.23-1.31 0-2.13-.75-2.19-1.92H.7C.7-1.02 2.1.17 4.06.17c2.19 0 3.3-1.53 3.3-3.2 0-1.83-1.16-3.24-3.1-3.24zm0 0"/></symbol></defs><path fill="#00d800" d="M0 0h1366v768H0z"/><use xlink:href="#045bfd39a" x="152.2803" y="173.5586" fill="#fdfaf5"/><use xlink:href="#045bfd39b" x="320.83806" y="173.5586" fill="#fdfaf5"/><use xlink:href="#045bfd39c" x="360.9363" y="173.5586" fill="#fdfaf5"/><use xlink:href="#045bfd39d" x="443.382636" y="173.5586" fill="#fdfaf5"/><use xlink:href="#045bfd39e" x="485.40414" y="173.5586" fill="#fdfaf5"/><use xlink:href="#045bfd39f" x="547.656204" y="173.5586" fill="#fdfaf5"/><use xlink:href="#045bfd39c" x="603.194988" y="173.5586" fill="#fdfaf5"/><use xlink:href="#045bfd39g" x="684.752268" y="173.5586" fill="#fdfaf5"/><use xlink:href="#045bfd39d" x="759.505548" y="173.5586" fill="#fdfaf5"/><use xlink:href="#045bfd39b" x="802.488684" y="173.5586" fill="#fdfaf5"/><use xlink:href="#045bfd39h" x="843.984012" y="173.5586" fill="#fdfaf5"/><g fill="#fdfaf5"><use xlink:href="#045bfd39c" x="914.273868" y="173.5586"/><use xlink:href="#045bfd39g" x="995.921868" y="173.5586"/></g><use xlink:href="#045bfd39i" x="1068.751884" y="173.5586" fill="#fdfaf5"/><use xlink:href="#045bfd39e" x="1111.208844" y="173.5586" fill="#fdfaf5"/><use xlink:href="#045bfd39j" x="156.2803" y="327.8916" fill="#fdfaf5"/><g fill="#fdfaf5"><use xlink:href="#045bfd39k" x="234.7203" y="327.8916"/><use xlink:href="#045bfd39l" x="284.4483" y="327.8916"/><use xlink:href="#045bfd39m" x="352.8243" y="327.8916"/><use xlink:href="#045bfd39n" x="428.1563" y="327.8916"/><use xlink:href="#045bfd39o" x="486.7643" y="327.8916"/><use xlink:href="#045bfd39p" x="545.9643" y="327.8916"/><use xlink:href="#045bfd39q" x="576.8963" y="327.8916"/></g><use xlink:href="#045bfd39r" x="644.3843" y="327.8916" fill="#fdfaf5"/><g fill="#fdfaf5"><use xlink:href="#045bfd39s" x="655.6323" y="327.8916"/><use xlink:href="#045bfd39k" x="756.1243" y="327.8916"/><use xlink:href="#045bfd39o" x="805.8523" y="327.8916"/><use xlink:href="#045bfd39t" x="865.0523" y="327.8916"/><use xlink:href="#045bfd39u" x="942.4563" y="327.8916"/><use xlink:href="#045bfd39o" x="1015.4203" y="327.8916"/><use xlink:href="#045bfd39k" x="1074.6203" y="327.8916"/><use xlink:href="#045bfd39v" x="1124.3483" y="327.8916"/></g><use xlink:href="#045bfd39w" x="163" y="485.2861" fill="#fdfaf5"/><use xlink:href="#045bfd39x" x="213.44032" y="485.2861" fill="#fdfaf5"/><use xlink:href="#045bfd39h" x="291.477664" y="485.2861" fill="#fdfaf5"/><g fill="#fdfaf5"><use xlink:href="#045bfd39y" x="362.838016" y="485.2861"/><use xlink:href="#045bfd39d" x="416.362816" y="485.2861"/></g><use xlink:href="#045bfd39z" x="458.92864" y="485.2861" fill="#fdfaf5"/><use xlink:href="#045bfd39A" x="630.57088" y="485.2861" fill="#fdfaf5"/><use xlink:href="#045bfd39e" x="750.248704" y="485.2861" fill="#fdfaf5"/><use xlink:href="#045bfd39B" x="813.09952" y="485.2861" fill="#fdfaf5"/><use xlink:href="#045bfd39b" x="887.979808" y="485.2861" fill="#fdfaf5"/><use xlink:href="#045bfd39C" x="929.40256" y="485.2861" fill="#fdfaf5"/><g fill="#fdfaf5"><use xlink:href="#045bfd39A" x="1005.008608" y="485.2861"/><use xlink:href="#045bfd39D" x="1108.247968" y="485.2861"/></g><g fill="#fdfaf5"><use xlink:href="#045bfd39E" x="157.2803" y="669.8613"/><use xlink:href="#045bfd39F" x="255.8323" y="669.8613"/><use xlink:href="#045bfd39G" x="313.7443" y="669.8613"/><use xlink:href="#045bfd39H" x="407.4703" y="669.8613"/><use xlink:href="#045bfd39I" x="505.7683" y="669.8613"/><use xlink:href="#045bfd39H" x="587.5563" y="669.8613"/><use xlink:href="#045bfd39J" x="685.8543" y="669.8613"/><use xlink:href="#045bfd39K" x="757.9903" y="669.8613"/><use xlink:href="#045bfd39L" x="860.3523" y="669.8613"/><use xlink:href="#045bfd39E" x="908.3583" y="669.8613"/><use xlink:href="#045bfd39H" x="1006.9103" y="669.8613"/><use xlink:href="#045bfd39M" x="1105.2083" y="669.8613"/></g><g fill="#fdfaf5"><use xlink:href="#045bfd39N" x="336" y="210.3379"/><use xlink:href="#045bfd39O" x="347.438" y="210.3379"/><use xlink:href="#045bfd39P" x="351.204" y="210.3379"/></g><use xlink:href="#045bfd39Q" x="363.6262" y="210.3379" fill="#fdfaf5"/><use xlink:href="#045bfd39R" x="367.563" y="210.3379" fill="#fdfaf5"/><g fill="#fdfaf5"><use xlink:href="#045bfd39S" x="375.6956" y="210.3379"/><use xlink:href="#045bfd39O" x="385.0196" y="210.3379"/><use xlink:href="#045bfd39T" x="388.7856" y="210.3379"/></g><use xlink:href="#045bfd39U" x="397.7918" y="210.3379" fill="#fdfaf5"/><use xlink:href="#045bfd39V" x="408.24" y="210.3379" fill="#fdfaf5"/><use xlink:href="#045bfd39W" x="417.1902" y="210.3379" fill="#fdfaf5"/><g fill="#fdfaf5"><use xlink:href="#045bfd39X" x="425.8184" y="210.3379"/><use xlink:href="#045bfd39O" x="435.4504" y="210.3379"/><use xlink:href="#045bfd39Q" x="439.2164" y="210.3379"/></g><use xlink:href="#045bfd39Y" x="443.1756" y="210.3379" fill="#fdfaf5"/><use xlink:href="#045bfd39S" x="450.4976" y="210.3379" fill="#fdfaf5"/><use xlink:href="#045bfd39R" x="459.7558" y="210.3379" fill="#fdfaf5"/><use xlink:href="#045bfd39Q" x="467.306" y="210.3379" fill="#fdfaf5"/><use xlink:href="#045bfd39Z" x="471.3156" y="210.3379" fill="#fdfaf5"/><use xlink:href="#045bfd39N" x="758.996" y="362.3359" fill="#fdfaf5"/><g fill="#fdfaf5"><use xlink:href="#045bfd39O" x="770.434" y="362.3359"/><use xlink:href="#045bfd39P" x="774.2" y="362.3359"/></g><g fill="#fdfaf5"><use xlink:href="#045bfd39Q" x="786.6222" y="362.3359"/><use xlink:href="#045bfd39R" x="790.5562" y="362.3359"/></g><use xlink:href="#045bfd39S" x="798.6874" y="362.3359" fill="#fdfaf5"/><g fill="#fdfaf5"><use xlink:href="#045bfd39O" x="808.0128" y="362.3359"/><use xlink:href="#045bfd39X" x="811.7788" y="362.3359"/><use xlink:href="#045bfd39W" x="821.2428" y="362.3359"/></g><use xlink:href="#045bfd39aa" x="829.8402" y="362.3359" fill="#fdfaf5"/><use xlink:href="#045bfd39U" x="840.3206" y="362.3359" fill="#fdfaf5"/><use xlink:href="#045bfd39R" x="850.7688" y="362.3359" fill="#fdfaf5"/><use xlink:href="#045bfd39S" x="858.9014" y="362.3359" fill="#fdfaf5"/><use xlink:href="#045bfd39X" x="868.1596" y="362.3359" fill="#fdfaf5"/><use xlink:href="#045bfd39N" x="574" y="708.3319" fill="#fdfaf5"/><g fill="#fdfaf5"><use xlink:href="#045bfd39O" x="585.438" y="708.3319"/><use xlink:href="#045bfd39P" x="589.204" y="708.3319"/><use xlink:href="#045bfd39Q" x="601.622" y="708.3319"/></g><use xlink:href="#045bfd39R" x="605.5588" y="708.3319" fill="#fdfaf5"/><use xlink:href="#045bfd39S" x="613.69" y="708.3319" fill="#fdfaf5"/><g fill="#fdfaf5"><use xlink:href="#045bfd39O" x="623.0154" y="708.3319"/><use xlink:href="#045bfd39Q" x="626.7814" y="708.3319"/><use xlink:href="#045bfd39Y" x="630.7434" y="708.3319"/></g><use xlink:href="#045bfd39S" x="638.0668" y="708.3319" fill="#fdfaf5"/><use xlink:href="#045bfd39R" x="647.3236" y="708.3319" fill="#fdfaf5"/><use xlink:href="#045bfd39Q" x="654.8738" y="708.3319" fill="#fdfaf5"/><use xlink:href="#045bfd39Z" x="658.8834" y="708.3319" fill="#fdfaf5"/><g fill="#fdfaf5"><use xlink:href="#045bfd39N" x="924.994" y="522.3279"/><use xlink:href="#045bfd39O" x="936.432" y="522.3279"/><use xlink:href="#045bfd39P" x="940.198" y="522.3279"/></g><use xlink:href="#045bfd39Q" x="952.6202" y="522.3279" fill="#fdfaf5"/><use xlink:href="#045bfd39R" x="956.557" y="522.3279" fill="#fdfaf5"/><g fill="#fdfaf5"><use xlink:href="#045bfd39S" x="964.6896" y="522.3279"/><use xlink:href="#045bfd39O" x="974.0136" y="522.3279"/><use xlink:href="#045bfd39T" x="977.7796" y="522.3279"/></g><use xlink:href="#045bfd39U" x="986.7858" y="522.3279" fill="#fdfaf5"/><use xlink:href="#045bfd39V" x="997.234" y="522.3279" fill="#fdfaf5"/><use xlink:href="#045bfd39W" x="1006.1842" y="522.3279" fill="#fdfaf5"/><g fill="#fdfaf5"><use xlink:href="#045bfd39X" x="1014.8124" y="522.3279"/><use xlink:href="#045bfd39O" x="1024.4444" y="522.3279"/><use xlink:href="#045bfd39Q" x="1028.2104" y="522.3279"/></g><use xlink:href="#045bfd39Y" x="1032.1696" y="522.3279" fill="#fdfaf5"/><use xlink:href="#045bfd39S" x="1039.4916" y="522.3279" fill="#fdfaf5"/><use xlink:href="#045bfd39R" x="1048.7498" y="522.3279" fill="#fdfaf5"/><use xlink:href="#045bfd39Q" x="1056.3" y="522.3279" fill="#fdfaf5"/><use xlink:href="#045bfd39Z" x="1060.3096" y="522.3279" fill="#fdfaf5"/><g fill="#fdfaf5"><use xlink:href="#045bfd39N" x="73.934" y="127.8919"/><use xlink:href="#045bfd39O" x="85.372" y="127.8919"/><use xlink:href="#045bfd39ab" x="89.138" y="127.8919"/></g><g fill="#fdfaf5"><use xlink:href="#045bfd39ac" x="94.4272" y="127.8919"/><use xlink:href="#045bfd39ad" x="103.0092" y="127.8919"/><use xlink:href="#045bfd39O" x="111.6052" y="127.8919"/><use xlink:href="#045bfd39V" x="115.3712" y="127.8919"/></g><use xlink:href="#045bfd39Y" x="124.6238" y="127.8919" fill="#fdfaf5"/><use xlink:href="#045bfd39T" x="132.958" y="127.8919" fill="#fdfaf5"/><g fill="#fdfaf5"><use xlink:href="#045bfd39N" x="1232.042" y="288.8919"/><use xlink:href="#045bfd39O" x="1243.48" y="288.8919"/><use xlink:href="#045bfd39ab" x="1247.246" y="288.8919"/></g><use xlink:href="#045bfd39ae" x="1252.4442" y="288.8919" fill="#fdfaf5"/><g fill="#fdfaf5"><use xlink:href="#045bfd39ad" x="1260.9114" y="288.8919"/><use xlink:href="#045bfd39O" x="1269.5074" y="288.8919"/><use xlink:href="#045bfd39V" x="1273.2734" y="288.8919"/></g><use xlink:href="#045bfd39Y" x="1282.526" y="288.8919" fill="#fdfaf5"/><use xlink:href="#045bfd39T" x="1290.8602" y="288.8919" fill="#fdfaf5"/><g fill="#fdfaf5"><use xlink:href="#045bfd39N" x="73.934" y="443.8859"/><use xlink:href="#045bfd39O" x="85.372" y="443.8859"/><use xlink:href="#045bfd39ab" x="89.138" y="443.8859"/></g><g fill="#fdfaf5"><use xlink:href="#045bfd39ac" x="94.4272" y="443.8859"/><use xlink:href="#045bfd39ad" x="103.0092" y="443.8859"/><use xlink:href="#045bfd39O" x="111.6052" y="443.8859"/><use xlink:href="#045bfd39V" x="115.3712" y="443.8859"/></g><use xlink:href="#045bfd39Y" x="124.6238" y="443.8859" fill="#fdfaf5"/><use xlink:href="#045bfd39T" x="132.958" y="443.8859" fill="#fdfaf5"/><g fill="#fdfaf5"><use xlink:href="#045bfd39N" x="1230.824" y="627.8879"/><use xlink:href="#045bfd39O" x="1242.262" y="627.8879"/><use xlink:href="#045bfd39af" x="1246.028" y="627.8879"/></g><use xlink:href="#045bfd39ag" x="1254.064" y="627.8879" fill="#fdfaf5"/><g fill="#fdfaf5"><use xlink:href="#045bfd39ag" x="1262.3982" y="627.8879"/><use xlink:href="#045bfd39O" x="1270.7142" y="627.8879"/><use xlink:href="#045bfd39V" x="1274.4802" y="627.8879"/></g><use xlink:href="#045bfd39Y" x="1283.7328" y="627.8879" fill="#fdfaf5"/><use xlink:href="#045bfd39T" x="1292.067" y="627.8879" fill="#fdfaf5"/></svg>