<?xml version='1.0' encoding='UTF-8'?>
<svg xmlns="http://www.w3.org/2000/svg" xmlns:xlink="http://www.w3.org/1999/xlink" width="1366px" height="768px" viewBox="0 0 1366 768" x="0px" y="0px" enable-background="new 0 0 1366 768"><defs><symbol overflow="visible" id="200646a6a"><path d="M37-23.02v-88.64H9.05V0h77.3v-23.02zm0 0"/></symbol><symbol overflow="visible" id="200646a6b"><path d="M20.56-95.55c9.03 0 15.13-6.75 15.13-14.97 0-8.21-6.1-14.8-15.13-14.8-9.37 0-15.3 6.59-15.3 14.8 0 8.22 5.93 14.97 15.3 14.97zM6.91 0h27.14v-85.02H6.9zm0 0"/></symbol><symbol overflow="visible" id="200646a6c"><path d="M33.88-118.4H6.75V0h27.13zm0 0"/></symbol><symbol overflow="visible" id="200646a6d"><path d="M64.47-85.02L45.72-34.53l-18.1-50.49H-1.16L32.06-7.56 14.14 30.92H42.6l49-115.94zm0 0"/></symbol><symbol overflow="visible" id="200646a6f"><path d="M78.1 0h30.6L80.25-47.36c16.6-4.94 24.17-16.94 24.17-31.25 0-18.58-14.62-33.05-40.28-33.05H9.04V0H37v-43.9h15.13zM37-90.6h22.38c12.8 0 17.09 5.26 17.09 12.32 0 7.08-4.28 13.33-16.94 13.33H37zm0 0"/></symbol><symbol overflow="visible" id="200646a6g"><path d="M46.38-87C19.73-87 2.62-68.25 2.62-42.1c0 25.5 15.8 44.07 43.76 44.07 22.2 0 37-11.35 41.1-26.8H60.84c-2.14 4.6-6.25 7.4-13.48 7.4-9.86 0-16.44-4.6-17.92-18.09h60.03s.16-2.8.16-5.43C90.28-67.75 73.66-87 46.38-87zM29.93-51.47c2.12-10.69 8.04-15.95 16.6-15.95 9.54 0 14.63 6.73 15.62 15.95zm0 0"/></symbol><symbol overflow="visible" id="200646a6h"><path d="M46.7 1.97c23.7 0 38.32-13.31 41.44-32.56H61.02c-1.99 7.57-5.77 11.36-14.47 11.36-10.38 0-16.46-8.9-16.46-23.52 0-14.81 6.43-23.03 16.29-23.03 8.39 0 13 3.62 14.64 11.19h27.3C85.33-73.02 72.02-87 46.7-87S2.62-70.22 2.62-42.42C2.63-14.8 21.38 1.97 46.7 1.97zm0 0"/></symbol><symbol overflow="visible" id="200646a6i"><path d="M57.4-87c-10.85 0-18.76 4.6-23.52 13v-44.4H6.75V0h27.13v-49.17c0-10.03 6.42-15.45 14.46-15.45 7.91 0 14.32 5.09 14.32 16.1V0H89.8v-54.44C89.8-76.3 75.48-87 57.4-87zm0 0"/></symbol><symbol overflow="visible" id="200646a6j"><path d="M88.64 0h15.63L68.25-50.33C88.97-52.8 98.17-64.14 98.17-80.9c0-18.92-11.67-30.75-37.15-30.75h-45.9V0h13.99v-48.84h24.17zM29.11-99.98h29.92c16.28 0 25.17 6.25 25.17 19.07 0 12.99-8.56 20.4-24.83 20.4H29.11zm0 0"/></symbol><symbol overflow="visible" id="200646a6k"><path d="M73.84-85.02v15.13C68.41-80.42 58.7-87 44.24-87 23.51-87 7.4-69.4 7.4-42.42c0 27.3 16.43 44.39 37.32 44.39 14.15 0 24-7.72 29.44-19.08V0H86.5v-85.02zM46.87-9.53c-15.3 0-26.3-12.83-26.3-32.9 0-19.9 9.85-33.21 26.3-33.21 14.96 0 26.65 13.64 26.65 33.22C73.52-21.7 62-9.53 46.88-9.53zm0 0"/></symbol><symbol overflow="visible" id="200646a6l"><path d="M68.9-85.02L41.29-21.38 16.61-85.02H2.8L33.87-7.56 16.45 30.92h14.15L82.72-85.02zm0 0"/></symbol><symbol overflow="visible" id="200646a6n"><path d="M92.27-99.83v-11.83H15.13V0h77.14v-11.84H28.94v-39.47h56.4v-11.67h-56.4v-36.85zm0 0"/></symbol><symbol overflow="visible" id="200646a6o"><path d="M44.4-87c-19.24 0-32.56 9.38-34.87 28.13H22.7c1.65-12 9.22-16.94 21.72-16.94 12 0 20.06 5.26 20.06 17.76v6.08L35.84-49C17.27-47.03 7.41-38.31 7.41-23.36 7.4-8.39 20.56 1.97 37 1.97c12 0 21.22-4.44 28.13-13.81V0h12.32v-57.56C77.45-77.96 63.97-87 44.41-87zM39.48-9.2c-11.19 0-18.1-6.43-18.1-14.49 0-8.04 4.44-13.81 16.79-15.28l26.14-3.3v8.88c0 14.64-9.38 24.19-24.83 24.19zm0 0"/></symbol><symbol overflow="visible" id="200646a6p"><path d="M105.75-87c-12.83 0-22.86 5.92-28.45 15.47C72.19-81.56 62.48-87 50.48-87c-11.34 0-20.06 4.94-25.32 13.16v-11.18H12.5V0h13.16v-52.3c0-14.97 10.36-22.86 21.87-22.86 11.84 0 21.05 8.4 21.05 24.83V0h12.98v-52.3c0-14.8 10.53-22.86 22.05-22.86 11.84 0 20.87 8.4 20.87 24.83V0h13.16v-51.8c0-22.53-12.98-35.2-31.89-35.2zm0 0"/></symbol><symbol overflow="visible" id="200646a6q"><path d="M85.02-41.77C85.02-69.89 72.19-87 46.88-87 24.68-87 7.4-70.06 7.4-41.6c0 26.3 15.12 43.57 40.93 43.57 20.57 0 32.08-12.17 35.36-26.8H70.06C67.42-15.95 60.03-9.7 47.36-9.7c-14.14 0-25.33-9.38-26.64-27.96h64.14s.16-1.3.16-4.1zm-63.97-7.07c2.14-17.93 12.5-26.8 25.82-26.8 13.65 0 23.35 8.05 24.5 26.8zm0 0"/></symbol><symbol overflow="visible" id="200646a6r"><path d="M42.42 1.97c23.53 0 33.72-11.02 33.72-25.33 0-12.16-6.73-20.87-23.84-23.84l-17.77-3.13c-10.51-1.8-13.81-5.92-13.81-12.33 0-7.56 6.58-13.65 18.75-13.65 12.98 0 20.23 5.6 21.87 17.44h13.32C72.53-76.64 60.52-87 39.8-87 19.56-87 8.06-75.31 8.06-61.67c0 12.83 7.4 20.23 22.36 23.03l18.1 3.28c11.18 1.97 14.8 6.42 14.8 13.48 0 8.07-7.41 13.16-20.57 13.16-13.48 0-20.88-5.26-23.02-16.1H6.75C8.88-9.2 19.41 1.96 42.42 1.96zm0 0"/></symbol><symbol overflow="visible" id="200646a6s"><path d="M90.94 0h3.12L49.67-111.66h-2.8L4.12 0h3.12l13.49-35.19h56.25zM21.88-38.16l26.3-68.9 27.46 68.9zm0 0"/></symbol><symbol overflow="visible" id="200646a6t"><path d="M16.6-104.27a4.56 4.56 0 004.45-4.6c0-2.63-1.97-4.6-4.44-4.6a4.5 4.5 0 00-4.61 4.6 4.6 4.6 0 004.6 4.6zM14.98 0h2.95v-85.02h-2.95zm0 0"/></symbol><symbol overflow="visible" id="200646a6u"><path d="M47.69-87c-15.63 0-25.99 8.4-30.42 21.88v-19.9h-2.8V0h2.97v-49.33c0-20.89 11.34-34.7 30.25-34.7 18.75 0 28.45 13.16 28.45 33.87V0h2.97v-50.98C79.1-73.84 67.27-87 47.69-87zm0 0"/></symbol><symbol overflow="visible" id="200646a6v"><path d="M45.88 1.97c23.03 0 36.68-19.08 36.68-44.4S68.91-87 45.72-87c-23.36 0-37 19.25-37 44.58 0 25.31 13.81 44.39 37.16 44.39zm0-2.95c-21.54 0-34.2-17.77-34.2-41.44 0-23.69 12.34-41.61 34.04-41.61 21.55 0 33.87 17.92 33.87 41.6S66.77-.97 45.87-.97zm0 0"/></symbol><symbol overflow="visible" id="200646a6x"><path d="M118.4-111.66L70.4-3.28 22.02-111.66h-4.76V0h2.96v-108.7L68.91 0h3.12l48.34-109.03V0h2.97v-111.66zm0 0"/></symbol><symbol overflow="visible" id="200646a6y"><path d="M74.5 0a187.5 187.5 0 01-1.48-24.17v-37.66C73.02-76.8 62.16-87 43.75-87h-.33c-15.3 0-29.94 7.73-32.4 28.13h3.12c2.14-16.94 13.98-25.16 29.28-25.16h.33c16.77 0 26.14 10.03 26.14 21.55 0 7.39-3.6 11.82-13.64 12.98l-20.9 2.3C16.29-45.06 7.9-36.02 7.9-22.2 7.9-8.55 19.23 1.97 36.02 1.97c18.75 0 30.09-10.69 34.37-24.17 0 8.22.33 14.97 1.14 22.2zM36.34-.98c-15.3 0-25.48-9.38-25.48-21.22 0-10.86 6.25-19.9 23.67-21.88l19.9-2.3c10.04-1.15 12.66-2.8 15.63-6.57v17.76c0 18.25-12.67 34.2-33.72 34.2zm0 0"/></symbol><symbol overflow="visible" id="200646a6z"><path d="M42.92-86.02c-13.48 0-23.19 10.2-25.81 21.88v-20.88h-2.64V0h2.97v-49.33c0-21.39 11.17-33.72 24.83-33.72.98 0 1.8 0 3.12.16v-2.95c-1.16-.18-1.64-.18-2.47-.18zm0 0"/></symbol><symbol overflow="visible" id="200646a6A"><path d="M41.94 1.97c19.08 0 31.25-8.22 31.25-22.69 0-12.67-7.24-18.58-23.52-22.03L30.92-46.7c-13.81-2.97-18.75-7.74-18.75-17.44 0-11.5 9.2-19.9 26.8-19.9 17.28 0 27.47 8.06 29.28 25.17h3.13C69.4-78.28 57.88-87 38.97-87 19.9-87 9.2-77.3 9.2-64.14c0 11.69 6.43 17.1 20.9 20.23l18.24 3.94c14.82 3.13 21.88 8.24 21.88 19.25C70.22-7.89 59.03-.98 41.94-.98c-17.27 0-28.28-7.9-30.92-23.85H7.89c2.8 18.08 14.97 26.8 34.05 26.8zm0 0"/></symbol><symbol overflow="visible" id="200646a6B"><path d="M48.34-44.08H3.28v2.97h45.06zm0 0"/></symbol><symbol overflow="visible" id="200646a6C"><path d="M70.22 0h2.8v-57.23C73.02-75.31 63.16-87 43.58-87 27.8-87 15.63-79.1 12-63.64h3.13c3.45-14.14 14.64-20.4 28.45-20.4 17.44 0 26.48 9.54 26.48 27.13v21.4c-4.45-10.2-15.14-16.62-30.1-16.62-20.4 0-32.07 11.18-32.07 26.8 0 15.13 11.34 27.3 31.4 27.3 16.13 0 25.34-6.25 30.93-17.27zM40.3-.83c-18.6 0-29.28-10.84-29.28-24.5 0-13.97 10.68-24 29.43-24 17.77 0 29.61 10.69 29.61 24.5 0 12-11.84 24-29.76 24zm0 0"/></symbol><symbol overflow="visible" id="200646a6D"><path d="M17.92-118.4h-2.95V0h2.95zm0 0"/></symbol><symbol overflow="visible" id="200646a6E"><path d="M43.1-82.06v-2.96H21.36v-24.01h-2.95v24.01H2.95v2.96h15.47v64.8C18.42-3.97 26.14.97 35.84.97c3.46 0 4.94-.15 7.25-.65v-2.8c-2.64.33-4.12.5-6.92.5-7.56 0-14.8-2.97-14.8-15.95v-64.14zm0 0"/></symbol></defs><path d="M0 0h1366v768H0z"/><g fill="#fff"><use xlink:href="#200646a6a" x="64.542" y="263.5107"/><use xlink:href="#200646a6b" x="153.345486" y="263.5107"/><use xlink:href="#200646a6c" x="194.29376" y="263.5107"/><use xlink:href="#200646a6c" x="234.913132" y="263.5107"/><use xlink:href="#200646a6d" x="275.532505" y="263.5107"/><use xlink:href="#200646a6e" x="365.487147" y="263.5107"/><use xlink:href="#200646a6f" x="399.364032" y="263.5107"/><use xlink:href="#200646a6g" x="508.230528" y="263.5107"/><use xlink:href="#200646a6b" x="600.816385" y="263.5107"/><use xlink:href="#200646a6h" x="641.764659" y="263.5107"/><use xlink:href="#200646a6i" x="733.36381" y="263.5107"/></g><use xlink:href="#200646a6j" x="64.542" y="452.958137" fill="#fff"/><use xlink:href="#200646a6k" x="173.572947" y="452.958137" fill="#fff"/><g fill="#fff"><use xlink:href="#200646a6l" x="272.572389" y="452.958137"/><use xlink:href="#200646a6m" x="356.442348" y="452.958137"/><use xlink:href="#200646a6n" x="396.568367" y="452.958137"/><use xlink:href="#200646a6o" x="497.376769" y="452.958137"/><use xlink:href="#200646a6p" x="586.509157" y="452.958137"/><use xlink:href="#200646a6q" x="735.830574" y="452.958137"/><use xlink:href="#200646a6r" x="828.087529" y="452.958137"/></g><g fill="#fff"><use xlink:href="#200646a6s" x="64.542" y="642.405574"/><use xlink:href="#200646a6t" x="161.896933" y="642.405574"/><use xlink:href="#200646a6u" x="194.787113" y="642.405574"/><use xlink:href="#200646a6v" x="287.208519" y="642.405574"/><use xlink:href="#200646a6w" x="378.478768" y="642.405574"/><use xlink:href="#200646a6x" x="421.564904" y="642.405574"/></g><use xlink:href="#200646a6y" x="562.170423" y="642.405574" fill="#fff"/><g fill="#fff"><use xlink:href="#200646a6z" x="648.671597" y="642.405574"/><use xlink:href="#200646a6A" x="696.69126" y="642.405574"/><use xlink:href="#200646a6t" x="777.601102" y="642.405574"/><use xlink:href="#200646a6v" x="810.491282" y="642.405574"/><use xlink:href="#200646a6B" x="901.761532" y="642.405574"/><use xlink:href="#200646a6s" x="953.399114" y="642.405574"/></g><use xlink:href="#200646a6C" x="1050.754047" y="642.405574" fill="#fff"/><g fill="#fff"><use xlink:href="#200646a6D" x="1137.255221" y="642.405574"/><use xlink:href="#200646a6E" x="1170.145401" y="642.405574"/><use xlink:href="#200646a6v" x="1217.342809" y="642.405574"/></g></svg>