<?xml version='1.0' encoding='UTF-8'?>
<svg xmlns="http://www.w3.org/2000/svg" xmlns:xlink="http://www.w3.org/1999/xlink" width="1366px" height="768px" viewBox="0 0 1366 768" x="0px" y="0px" enable-background="new 0 0 1366 768"><defs><symbol overflow="visible" id="2f9102f5a"><path d="M162.16-117.88H126.5v2.88l19.94 4.78-26.27 84.34-26.44-84.34L113.1-115v-2.88H62.3v2.88l12.46 4.78 6.9 19.94L57.5-25.5l-27.6-84.72L49.28-115v-2.88H1.92v2.88l8.42 4.78L49.27 3.06h3.06L85.1-80.13l28.55 83.2h3.07l36.99-113.29 8.44-4.78zm0 0"/></symbol><symbol overflow="visible" id="2f9102f5b"><path d="M81.08-5.75v-65.17l13.6-3.83v-1.92H53.1v1.92l12.46 4.02v38.53c0 14.95-6.7 23-18.2 23-12.08 0-15.91-6.52-15.91-21.47v-40.06l12.26-4.02v-1.92H5.17v1.92l10.74 4.02v44.28c0 18.22 6.32 29.51 24.92 29.51 14.19 0 21.84-9.58 24.72-18.6V0h30.28v-1.92zm0 0"/></symbol><symbol overflow="visible" id="2f9102f5c"><path d="M33.55-48.1c-7.1-1.93-10.92-5-10.92-12.46 0-8.25 5.93-13.24 15.51-13.24 11.9 0 19.17 3.27 22.81 15.35v12.06h3.83v-32.4h-3.83v9.98c-3.45-7.1-11.89-10.92-22.62-10.92-15.52 0-27.6 9.2-27.6 25.1 0 12.27 7.68 18.6 18.02 21.29l15.9 4.2c7.5 1.92 11.7 3.84 11.7 11.89 0 7.1-5.37 13.42-17.63 13.42-13.42 0-23-5.19-25.5-16.69v-8.8H9.39V3.05h3.83v-13.4c3.84 8.62 14.76 13.4 24.92 13.4 18.78 0 29.33-8.81 29.33-24.34 0-11.11-3.45-18.6-19.75-23zm0 0"/></symbol><symbol overflow="visible" id="2f9102f5d"><path d="M83.95-76.67H53.1v1.92l17.83 2.88L48.7-16.3 26.45-70.34l-.57-1.35 16.87-3.06v-1.92H0v1.92l8.44 2.88 32 75.14-3.25 8.42c-6.9 18.6-11.13 28.56-16.3 28.56-3.83 0-6.9-2.48-10.73-18.6H7.28v26.27c3.83 2.11 7.1 2.3 9.97 2.3 10.92 0 15.72-8.81 26.45-38.53l33.35-83.56 6.9-2.88zm0 0"/></symbol><symbol overflow="visible" id="2f9102f5e"><path d="M85.1-22.05c0 9.97-2.1 14.58-7.85 14.58-4.6 0-6.33-3.08-6.33-8.44v-36.8c0-18.4-7.28-27.02-28.17-27.02-7.3 0-17.06 1.15-26.08 3.06v26.26h2.88C24.53-67.66 29.7-73.8 40.44-73.8c12.26 0 14.95 6.52 14.95 18.4v14.76c-4.4-2.67-10.16-4.6-17.83-4.6-17.04 0-29.89 7.29-29.89 25.12 0 14.56 9.19 23.18 24.35 23.18 12.45 0 19.54-7.1 23.37-15.51.4 10.15 7.28 13.98 15.9 13.98 15.15 0 17.26-9.97 17.26-22.23v-7.1H85.1zM38.15-8.23c-10.16 0-15.52-5.57-15.52-14.96 0-10.73 6.52-16.48 17.44-16.48 5.75 0 11.31 2.1 15.33 5.36v8.04c0 7.3-3.25 18.04-17.25 18.04zm0 0"/></symbol><symbol overflow="visible" id="2f9102f5f"><path d="M87.78-5.75v-45.63c0-17.04-8.42-28.35-25.48-28.35-12.08 0-22.42 7.09-27.99 20.89v-19.74L6.14-69.95v1.72h13.61v62.48L6.15-1.92V0h42.54v-1.92L35.27-5.75v-35.84c0-16.49 6.32-25.7 19.35-25.7 13.24 0 17.65 8.26 17.65 20.9v40.64L58.66-1.92V0h42.54v-1.92zm0 0"/></symbol><symbol overflow="visible" id="2f9102f5g"><path d="M139.16-5.56v-45.61c0-17.06-8.63-28.38-25.11-28.38-12.08 0-21.47 7.49-27.03 20.32-2.3-12.65-10.74-20.32-24.54-20.5-11.5-.2-21.65 7.09-27.21 20.89v-19.74L6.14-69.95v1.72H20.7v62.48L7.1-1.92V0h42.54v-1.92L36.22-5.75v-37c.2-14.56 5.56-24.72 18.6-24.53 14.37.2 17.45 8.83 17.45 21.86v39.86L58.45-1.72v1.9h43.14v-1.9L87.8-5.56v-36.22c0-14 4.79-25.3 18.58-25.3 13.24 0 17.25 7.47 17.25 21.66v39.86l-12.64 3.84v1.9h41.6v-1.9zm0 0"/></symbol><symbol overflow="visible" id="2f9102f5h"><path d="M43.9-79.73c-23.38 0-36.23 18.4-36.23 41.59 0 22.42 11.3 41.2 35.64 41.2 21.47 0 29.72-14.56 31.63-27.22h-3.06c-4.22 9.97-10.93 13.43-23.38 13.43-16.69 0-26.66-11.7-27.98-31.05h54.42c2.31-18.78-7.08-37.95-31.05-37.95zM20.3-47.53c.4-17.25 7.86-26.45 20.33-26.45 14.17 0 19.73 12.07 19.73 26.45zm0 0"/></symbol><symbol overflow="visible" id="2f9102f5i"><path d="M56.17-6.83h-41.3c39.2-33.95 56.35-51.8 56.35-74.01 0-19.78-13.64-29.58-34.47-29.58a63.6 63.6 0 00-23.45 4.37L8.05-72.97l2.62.52c7-21.7 13.3-31.5 26.61-31.5 11.72 0 17.14 8.4 17.14 22.4 0 23.8-25.2 52.14-49.17 76.83L6.3 0h62.65l4.38-33.25-2.45-.7zm0 0"/></symbol><symbol overflow="visible" id="2f9102f5j"><path d="M66.67-7.34v-23.99h15.24v-8.75H66.67v-61.76L81.2-105v-2.63H30.8v2.63l15.4 2.28L1.75-33.59l1.4 2.26h49v23.99l-18.9 4.71V0h50.58v-2.63zm-14.87-94.5h.36v61.76H14.88zm0 0"/></symbol><symbol overflow="visible" id="2f9102f5l"><path d="M36.92-7.34v-92.94l18.9-5.6v-1.75H3.5v1.75l18.9 5.6v92.94L3.5-1.75V0h52.33v-1.75zm0 0"/></symbol><symbol overflow="visible" id="2f9102f5m"><path d="M53.92-53.13c14.4-2.07 24.49-10.56 24.49-22.71 0-15.03-11.2-22.57-33.77-22.57H5.12v1.61l11.36 3.2v88.8L5.12-1.6V0H42.25c23.2 0 39.68-6.4 39.68-28 0-16.31-12-23.69-28-25.13zm9.13-22.56c0 13.46-7.7 21.13-25.77 21.13h-6.87V-92.8H40c15.36 0 23.05 6.24 23.05 17.11zM42.72-5.59H30.4v-43.53h10.71c15.04 0 25.44 5.6 25.44 21.12 0 15.84-8.64 22.4-23.84 22.4zm0 0"/></symbol><symbol overflow="visible" id="2f9102f5n"><path d="M56.31-93.6L69.77-96v-2.4h-39.7v2.4l12.98 2.4L10.72-4.63 0-1.6V0h35.2v-1.6L18.4-4.8l8.32-25.12h36.8L71.84-4.8 55.36-1.6V0h41.28v-1.6L86.56-4.63zm-11.36 8.16L61.6-35.52H28.5zm0 0"/></symbol><symbol overflow="visible" id="2f9102f5o"><path d="M64.48-96l17.11 4v57.6C81.6-17.29 75.2-5.29 56-5.29c-17.44 0-26.08-8.8-26.08-27.52V-92l18.24-4v-2.4H4.8v2.4L16-92v60.64C16-8.3 29.77 2.56 52.95 2.56c22.74 0 35.2-13.6 35.36-36.33V-92l10.1-4v-2.4H64.48zm0 0"/></symbol><symbol overflow="visible" id="2f9102f5p"><path d="M102.23-50.08c0-28.8-18.23-48.33-58.87-48.33H5.59v1.61l12.49 3.52v88.33L5.59-1.44V0h37.13c42.56 0 59.51-17.77 59.51-50.08zM45.77-5.92c-3.85 0-9.29-.16-13.77-.31V-92c4.8-.48 9.77-.8 13.77-.8 25.28 0 41.92 12.49 41.92 43.36 0 28.8-12 43.52-41.92 43.52zm0 0"/></symbol><symbol overflow="visible" id="2f9102f5q"><path d="M65.13-5.6H30.4V-48.3h22.23l5.28 14.08h2.4V-68h-2.4l-5.28 14.08H30.41V-92.8h32l11.82 21.28h2.41L73.77-98.4H5.13v1.61l11.35 3.2v88.8L5.12-1.6V0h71.2l4.8-26.08-2.4-.64zm0 0"/></symbol><symbol overflow="visible" id="2f9102f5r"><path d="M64.64-5.6H32V-92l17.28-4v-2.4H5.6v2.4l12.49 4v85.6l-12.49 4V0H75.2l4.49-28.48-2.4-.64zm0 0"/></symbol><symbol overflow="visible" id="2f9102f5s"><path d="M35.2-93.6l15.67-3.2v-1.6H5.6v1.6l15.7 3.2v88.8L5.58-1.6V0h45.28v-1.6L35.2-4.8zm0 0"/></symbol><symbol overflow="visible" id="2f9102f5t"><path d="M52.31-51.36c15.05-1.92 27.38-7.84 27.38-23.2 0-17.75-15.69-23.85-36.97-23.85H5.59V-96l10.9 4v85.6l-10.9 4V0h42.1v-2.4l-17.28-4v-86.4h7.18c16.64 0 26.72 4.8 26.72 19.03 0 14.08-10.87 20.97-28.31 22.41v.95l24.8 36.82C67.05-4.31 74.4 1.59 85.44 1.59l.33-1.1A69.72 69.72 0 0174.4-14.24zm0 0"/></symbol><symbol overflow="visible" id="2f9102f5u"><path d="M105.77-44.52H67.36v2.38l17.28 3.98v10.18c0 13.03-9.44 23.53-27.36 23.53-23.36 0-35.2-18.13-35.2-45.8 0-23.69 11.36-44.36 35.36-44.36 18.25 0 28.64 9.06 34.72 27.98l.32.96 2.4-.31-2.24-30.38a144.12 144.12 0 00-32.16-3.97C24-100.33 7.2-77.1 7.2-47.38c0 30.7 17.6 49.93 46.72 49.93 15.36 0 25.6-5.74 30.88-14.32L96.64 0h1.44v-38.16l7.69-3.98zm0 0"/></symbol><symbol overflow="visible" id="2f9102f5v"><path d="M71.05-18.28c0 8.26-1.77 12.08-6.57 12.08-3.84 0-5.28-2.55-5.28-7v-30.52c0-15.26-6.08-22.42-23.51-22.42-6.1 0-14.25.95-21.77 2.55v21.78h2.4c4.16-14.31 8.48-19.4 17.45-19.4 10.23 0 12.46 5.4 12.46 15.26v12.25c-3.67-2.24-8.46-3.83-14.87-3.83-14.23 0-24.95 6.05-24.95 20.84C6.4-4.6 14.08 2.55 26.7 2.55c10.41 0 16.34-5.9 19.52-12.88.33 8.42 6.08 11.6 13.29 11.6 12.64 0 14.4-8.27 14.4-18.44v-5.9h-2.87zM31.85-6.84c-8.5 0-12.98-4.61-12.98-12.4 0-8.9 5.44-13.67 14.57-13.67 4.8 0 9.44 1.75 12.8 4.44v6.69c0 6.05-2.72 14.94-14.4 14.94zm0 0"/></symbol><symbol overflow="visible" id="2f9102f5w"><path d="M28-39.9c-5.92-1.6-9.13-4.15-9.13-10.35 0-6.83 4.97-10.97 12.97-10.97 9.93 0 16 2.7 19.04 12.72v10.02h3.2v-26.86h-3.2v8.26C48-62.97 40.95-66.14 32-66.14c-12.95 0-23.05 7.62-23.05 20.83 0 10.17 6.4 15.42 15.05 17.64l13.28 3.5c6.24 1.6 9.77 3.19 9.77 9.86 0 5.89-4.49 11.12-14.74 11.12-11.19 0-19.19-4.28-21.26-13.83v-7.3h-3.2V2.54h3.2V-8.6c3.18 7.15 12.3 11.14 20.8 11.14 15.67 0 24.46-7.32 24.46-20.2 0-9.23-2.87-15.43-16.47-19.08zm0 0"/></symbol><symbol overflow="visible" id="2f9102f5x"><path d="M48.31-13.36c-2.23 5.1-5.26 7.31-10.54 7.31-9.13 0-10.57-5.23-10.57-13.03v-39.75h21.28v-4.76H27.2v-22.27h-2.4c-2.4 16.53-8.96 23.22-24 25.44v1.6h13.43v43.24c0 12.4 6.08 18.13 18.41 18.13 11.84 0 16-7.96 18.08-15.9zm0 0"/></symbol><symbol overflow="visible" id="2f9102f5y"><path d="M37.13-99.38c0 10.82-2.41 16.86-10.9 24.49l1.13 1.75c14.87-5.56 22.23-13.83 23.52-26.23zM39.52 2.7c21.6 0 33.6-13.98 33.6-34.34 0-19.23-11.04-34.34-32.32-34.34C18.4-65.98 6.4-52 6.4-31.64 6.4-12.41 17.45 2.7 39.53 2.7zm1.28-4.92c-14.57 0-21.44-15.44-21.44-31.64 0-14.95 5.12-27.2 19.36-27.2 14.56 0 21.44 15.6 21.44 31.64 0 16.06-5.11 27.2-19.36 27.2zm0 0"/></symbol><symbol overflow="visible" id="2f9102f5z"><path d="M73.28-4.77V-42.6c0-14.16-7.05-23.53-21.28-23.53-10.08 0-18.72 5.87-23.36 17.33V-65.2L5.12-58.03v1.42h11.36v51.84L5.12-1.59V0h35.52v-1.6l-11.2-3.17V-34.5c0-13.67 5.28-21.31 16.15-21.31 11.05 0 14.72 6.84 14.72 17.33v33.71L48.95-1.59V0h35.53v-1.6zm0 0"/></symbol><symbol overflow="visible" id="2f9102f5A"><path d="M32.38-207.08l36.51 6.85v143.07c0 36.28-7.58 47.93-23.77 47.93-19.64 0-35.48-22.25-46.15-49.99l-5.17 1.03 9.64 55.8c9.31 3.77 24.1 6.5 36.86 6.5 45.8 0 58.54-26.02 58.54-64.69v-139.65l23.43-6.85v-3.42h-89.9zm0 0"/></symbol><symbol overflow="visible" id="2f9102f5B"><path d="M6.31-11.05A5.62 5.62 0 106.36.2a5.62 5.62 0 00-.05-11.24zm0 1.16a4.47 4.47 0 11.03 8.94 4.47 4.47 0 01-.03-8.94zm0 0"/></symbol><symbol overflow="visible" id="2f9102f5D"><path d="M3.52-3.1L6-4.59C7.75-5.6 8.1-6.6 8.1-7.8c0-1.84-1.27-3.26-3.5-3.26C2.2-11.06.9-9.53.82-7.4h1.31c.1-1.55.92-2.53 2.45-2.53 1.47 0 2.16 1 2.16 2.12 0 .96-.4 1.64-1.48 2.27L3.1-4.27C1.39-3.27.7-2.07.7-.47V0h7.4v-1.13H2.08c.14-.92.65-1.51 1.44-1.98zm0 0"/></symbol><symbol overflow="visible" id="2f9102f5E"><path d="M4.88-7.17c-1.1 0-2 .42-2.54 1.1l.24-3.68h5.3v-1.1H1.46l-.4 5.94h1.55c.4-.67 1.07-1.07 2.02-1.07 1.58 0 2.44 1.04 2.44 2.48S6.16-.94 4.66-.94c-1.49 0-2.44-.87-2.5-2.2H.8C.8-1.16 2.4.19 4.64.19c2.5 0 3.78-1.74 3.78-3.66 0-2.08-1.33-3.7-3.54-3.7zm0 0"/></symbol><symbol overflow="visible" id="2f9102f5F"><path d="M5.17.19c2.74 0 4.33-2.31 4.33-5.6 0-3.28-1.6-5.65-4.33-5.65S.83-8.7.83-5.41C.83-2.12 2.43.2 5.17.2zm0-1.17c-1.95 0-3.01-1.7-3.01-4.43 0-2.71 1.06-4.46 3.01-4.46 1.96 0 3 1.74 3 4.46 0 2.72-1.04 4.43-3 4.43zm0 0"/></symbol><symbol overflow="visible" id="2f9102f5G"><path d="M5.95-10.86H1.47V0h1.36v-4.75h3.01c2.47 0 3.7-1.3 3.7-3.1 0-1.87-1.1-3-3.59-3zm-.22 4.97h-2.9v-3.84h2.9c1.7 0 2.46.67 2.46 1.89 0 1.17-.75 1.95-2.46 1.95zm0 0"/></symbol><symbol overflow="visible" id="2f9102f5H"><path d="M8.9-10.86H.37v1.11h3.6V0h1.35v-9.75h3.6zm0 0"/></symbol><symbol overflow="visible" id="2f9102f5I"><path d="M3.08-10.86C2.8-9.75 2.23-9.06.39-8.98v1.1c1.17 0 1.9-.17 2.47-.68V0h1.37v-10.86zm0 0"/></symbol><symbol overflow="visible" id="2f9102f5J"><path d="M4.97-7.14c-1.33 0-2.28.55-2.81 1.53v-.23c0-2.35 1.03-4.07 2.86-4.07 1.17 0 1.82.58 2.06 1.64h1.36c-.3-1.78-1.4-2.8-3.42-2.8-2.2 0-4.2 1.68-4.2 5.55 0 2.94.91 5.7 4.02 5.7 2.27 0 3.77-1.5 3.77-3.71 0-2.03-1.34-3.61-3.64-3.61zM4.89-.95c-1.6 0-2.48-1.3-2.48-2.58a2.4 2.4 0 012.48-2.45c1.61 0 2.4 1.17 2.4 2.45 0 1.28-.79 2.58-2.4 2.58zm0 0"/></symbol><symbol overflow="visible" id="2f9102f5K"><path d="M36.52-32.63l-13.3-.14-.02.83 7.66 1.32L21.05-6.8l-9.33-23.36-.25-.57 7.28-1.25.02-.83-18.41-.2-.02.82 3.61 1.28L17.41 1.6 15.97 5.2C12.9 13.2 11.03 17.45 8.8 17.42c-1.65-.01-2.95-1.1-4.53-8.05l-1.23-.01-.13 11.3A8.09 8.09 0 007.2 21.7c4.7.05 6.83-3.72 11.58-16.47L33.5-30.59l3-1.2zm0 0"/></symbol><symbol overflow="visible" id="2f9102f5L"><path d="M20.42.73c11.14-.35 17.1-7.82 16.75-18.37-.33-9.98-6.3-17.64-17.26-17.28-11.55.37-17.5 7.84-17.14 18.4C3.09-6.55 9.05 1.11 20.42.73zM21-1.84C13.5-1.6 9.69-9.48 9.4-17.9c-.24-7.77 2.2-14.19 9.52-14.44 7.52-.25 11.33 7.72 11.6 16.06.26 8.32-2.18 14.2-9.52 14.43zm0 0"/></symbol><symbol overflow="visible" id="2f9102f5M"><path d="M34.6-5.27l-2.26-27.98 5.7-2.1-.06-.84-17.85 1.44.06.83 5.48 1.3 1.35 16.54c.51 6.42-2.07 10.1-7 10.49-5.2.42-7.08-2.25-7.6-8.66l-1.39-17.2 5.13-2.14-.07-.83-16.51 1.34.06.83 4.74 1.34 1.53 19C6.55-4.08 9.66.56 17.62-.08c6.1-.5 9.05-4.89 9.97-8.86l.54 6.67 13-1.04-.07-.83zm0 0"/></symbol><symbol overflow="visible" id="2f9102f5O"><path d="M32-39.72l-9.03 4.31c-2.8-1.34-6.27-1.8-10.44-1.15-9.95 1.51-14.3 8.1-13.1 15.94C.74-12.14 6.7-8.13 15.59-8.97l.86 5.63-1.72.26C7.22-1.94 1.62 2.42 2.69 9.44c1.26 8.25 9.03 10.98 18.81 9.48 9.14-1.39 16.81-6.48 15.55-14.73-1.07-7.02-7.07-9.61-15.22-8.36l-2.38.36-.86-5.63c8.58-1.81 12.54-8.1 11.3-16.17a13 13 0 00-4.6-8.31l8-1.24-.71-4.65zM16.95-11.95c-5.6.86-9.37-2.9-10.7-11.55-.86-5.7 1.19-9.7 6-10.44 5.8-.89 9.6 3.72 10.8 11.64.84 5.46-.94 9.57-6.1 10.35zM30.28 5.8c.83 5.39-2.7 9.7-8.9 10.65-5.55.85-11.2-1.8-12.07-7.45-.9-5.94 2.31-8.94 8.27-9.84l1.62-.25c5.72-.88 10.18.95 11.08 6.89zm0 0"/></symbol><symbol overflow="visible" id="2f9102f5P"><path d="M11.94-37.33C2.04-35.39-1.84-26.55.08-16.75 1.94-7.28 8.27-.28 18.56-2.3c9.07-1.78 11.33-8.6 11.1-14.14l-1.29.27c-.95 4.56-3.5 6.6-8.78 7.62-7.03 1.38-12.21-2.73-14.4-10.8l23-4.5c-.57-8.15-6.13-15.46-16.25-13.48zM4.66-21.77c-1.3-7.32 1.09-11.82 6.37-12.87 6-1.17 9.36 3.48 10.55 9.56zm0 0"/></symbol><symbol overflow="visible" id="2f9102f5Q"><path d="M22.69-12.4c-.52 2.82-1.78 4.3-4.44 4.92-4.6 1.07-5.9-1.41-6.83-5.35l-4.67-20.1 10.67-2.48-.56-2.42-10.67 2.49L3.56-46.6l-1.2.28c.72 8.64-1.78 12.78-9.08 15.67l.19.81L.23-31.4 5.31-9.55c1.47 6.27 5.19 8.47 11.4 7.02 5.93-1.38 7.09-5.9 7.18-10.16zm0 0"/></symbol><symbol overflow="visible" id="2f9102f5S"><path d="M21.52-13.48c-.36 2.84-1.55 4.39-4.18 5.15-4.5 1.31-6-1.08-7.12-4.97L-1.42-53.22l10.51-4.44-.23-.8-22.92 6.68.23.8 6.08-.15L4.41-9.37c1.8 5.93 5.62 7.84 11.65 6.07 5.88-1.7 6.77-6.28 6.64-10.54zm0 0"/></symbol><symbol overflow="visible" id="2f9102f5T"><path d="M19.78-5.1C30.36-8.65 33.94-17.49 30.6-27.5c-3.15-9.47-11.04-15.1-21.45-11.66C-1.83-35.5-5.4-26.66-2.06-16.63 1.09-7.15 8.97-1.52 19.78-5.1zm-.17-2.65c-7.13 2.38-13.03-4.1-15.69-12.08-2.47-7.37-1.95-14.22 5.02-16.55 7.12-2.37 13.04 4.16 15.67 12.08 2.64 7.9 1.97 14.24-5 16.55zm0 0"/></symbol><symbol overflow="visible" id="2f9102f5U"><path d="M6.16-24.5c-3.14.33-5.16-.33-6.3-3.34-1.25-3.32.37-6.24 4.23-7.7 4.79-1.82 8.2-1.62 11.54 2.7l1.84 4.86 1.53-.58-4.95-13.05-1.53.58 1.53 4.01c-2.49-2.32-6.47-2.56-10.8-.92-6.23 2.36-9.69 7.9-7.27 14.31 1.88 4.94 5.93 6.32 10.5 5.82l7.05-.74c3.31-.36 5.3-.25 6.53 3 1.08 2.85-.12 6.22-5.06 8.1C9.6-5.41 4.95-6.03 2.19-10.27L.84-13.83l-1.53.58L4.25-.2l1.53-.58-2.05-5.4c2.86 2.87 8 3.15 12.1 1.59 7.56-2.86 10.45-8.02 8.08-14.27-1.7-4.48-4.24-6.97-11.44-6.25zm0 0"/></symbol><symbol overflow="visible" id="2f9102f5V"><path d="M20.33-16c-.05 2.88-1.05 4.55-3.55 5.6-4.36 1.8-6.08-.41-7.64-4.15L1.2-33.58l10.13-4.22-.96-2.3L.26-35.86-4.2-46.53l-1.14.48c2.14 8.4.37 12.9-6.36 16.96l.32.76L-4.96-31l8.64 20.7c2.47 5.94 6.52 7.49 12.4 5.03 5.62-2.34 6-6.98 5.4-11.2zm0 0"/></symbol><symbol overflow="visible" id="2f9102f5W"><path d="M39.05-31.88c1.03 12.24-3.61 16.58-10.82 19.27C16.25-8.16 6.22-15.97 1.47-28.7c-4.34-11.7-3.33-23 9.05-27.59 9.18-3.42 15.92.25 22.32 7.74l1.1-.61-7.81-13.9c-4.22.52-9.7 1.4-15.58 3.59C-5.4-53.56-10.44-38.73-5.11-24.42.44-9.5 13.23-3.5 28.4-9.14c6.5-2.4 13.31-6.55 15.77-9.48l-3.96-13.7zm0 0"/></symbol><symbol overflow="visible" id="2f9102f5X"><path d="M32.4-19.55c1.23 4.11.93 6.27-1.45 6.99-1.89.56-2.98-.5-3.64-2.7l-4.53-15.2c-2.25-7.6-6.31-10.26-14.94-7.7-3.01.9-6.89 2.57-10.37 4.47L.7-22.84l1.2-.36c-.09-7.74 1.3-10.9 5.74-12.22 5.06-1.52 6.95.86 8.42 5.76l1.8 6.1a14.16 14.16 0 00-7.92.28C2.9-21.18-1.5-16.61.69-9.25 2.47-3.23 7.34-.81 13.58-2.67c5.14-1.53 7.2-5.31 7.75-9.27 1.4 4.14 4.72 4.86 8.28 3.8 6.25-1.86 5.9-6.2 4.39-11.27l-.88-2.93-1.43.42zM14.73-8.09c-4.19 1.25-7.08-.38-8.24-4.25-1.32-4.44.68-7.61 5.18-8.96 2.37-.7 4.93-.51 6.98.35l.98 3.3c.91 3.02.88 7.84-4.9 9.56zm0 0"/></symbol><symbol overflow="visible" id="2f9102f5Y"><path d="M43.8-17.72c-.52 2.86-1.78 4.34-4.42 4.99-4.57 1.1-5.94-1.38-6.9-5.3l-9.75-40.44 10.7-3.94-.21-.8-44.86 10.84.2.8 6.06.15L4.82-9.16C6.4-3.14 10.1-1.06 16.2-2.53c5.94-1.44 7.05-5.97 7.13-10.25l-1.22.3c-.5 2.84-1.75 4.34-4.4 4.98-4.57 1.1-5.93-1.38-6.88-5.3L1.08-53.23l15.17-3.68L26.5-14.39c1.55 6.02 5.27 8.1 11.36 6.62C43.8-9.2 44.9-13.73 44.98-18zm0 0"/></symbol><symbol overflow="visible" id="2f9102f5aa"><path d="M58.83-11.66l-3.05-19.4c-1.14-7.25-5.58-11.49-12.58-10.4-5.14.82-8.64 4.62-10.14 10.46-1.81-5.23-5.92-7.92-11.81-7.08-4.9.67-8.75 4.44-10.19 10.69l-1.31-8.4-11.81 5.62.1.75 6.2-.97L8.4-3.81 2.89-1.28l.13.81L21.1-3.3l-.13-.81-5.96-.74-2.47-15.75c-.88-6.2.72-10.87 6.28-11.67 6.12-.9 8 2.6 8.87 8.12l2.66 16.97-5.61 2.55.13.81L43.22-6.7l-.13-.82-6.12-.7-2.42-15.4c-.92-5.96.34-11.11 6.22-12.04 5.62-.87 7.84 2.05 8.8 8.08l2.65 16.97-5.13 2.47.13.81L64.9-10.1l-.13-.81zm0 0"/></symbol><symbol overflow="visible" id="2f9102f5ab"><path d="M15.19-36.13C5.17-35.08.5-26.6 1.55-16.66 2.56-7.07 8.27.47 18.69-.64c9.18-.97 12.06-7.6 12.3-13.1l-1.3.13c-1.35 4.47-4.07 6.25-9.4 6.81-7.15.77-11.95-3.8-13.4-12.03l23.3-2.45c.14-8.16-4.74-15.94-15-14.84zM6.55-21.27c-.63-7.4 2.15-11.69 7.5-12.25 6.07-.64 9 4.3 9.65 10.44zm0 0"/></symbol><symbol overflow="visible" id="2f9102f5ad"><path d="M10.75-39.22a4.53 4.53 0 004.4-4.76 4.53 4.53 0 00-4.85-4.22 4.53 4.53 0 00-4.32 4.68 4.52 4.52 0 004.77 4.3zm5.13 35.94L14.3-34.61.95-30.2l.03.74 6.85-.34L9.19-2.94 2.42-.95l.05.82 20.1-1.01-.04-.83zm0 0"/></symbol><symbol overflow="visible" id="2f9102f5ae"><path d="M21.52-55.38c-9.49.2-13.24 7.7-13.07 16.91l.1 5.28-5.86.11.04 2.49 5.86-.11.52 28.06L3.28-.9l.02.83 20.97-.4-.02-.82-8.45-1.49-.52-28.06 10.16-.19-.05-2.48-10.23.19c-.66-4.27-1.38-7.4-1.44-11.25-.11-5.38 1.73-8.3 5.6-8.38 3.9-.08 6.16 2.53 8.21 9.9h1.24l-.22-11.88c-2.99-.44-3.99-.5-7.03-.45zm0 0"/></symbol></defs><path fill="#fdfaf5" d="M0 0h1366v768H0z"/><use xlink:href="#2f9102f5a" x="49.3857" y="183.1641"/><use xlink:href="#2f9102f5b" x="203.1052" y="183.1641"/><use xlink:href="#2f9102f5c" x="299.400309" y="183.1641"/><use xlink:href="#2f9102f5d" x="371.257467" y="183.1641"/><use xlink:href="#2f9102f5e" x="449.420574" y="183.1641"/><use xlink:href="#2f9102f5f" x="537.512198" y="183.1641"/><use xlink:href="#2f9102f5e" x="636.586525" y="183.1641"/><use xlink:href="#2f9102f5g" x="724.198973" y="183.1641"/><use xlink:href="#2f9102f5h" x="871.880862" y="183.1641"/><use xlink:href="#2f9102f5i" x="1132.5" y="173.8506"/><use xlink:href="#2f9102f5j" x="1210.9" y="173.8506"/><use xlink:href="#2f9102f5k" x="1299.8" y="173.8506"/><use xlink:href="#2f9102f5i" x="997.925" y="302.1256"/><use xlink:href="#2f9102f5l" x="1076.325" y="302.1256"/><use xlink:href="#2f9102f5m" x="32.3984" y="512.5625"/><use xlink:href="#2f9102f5n" x="117.5184" y="512.5625"/><use xlink:href="#2f9102f5o" x="212.5584" y="512.5625"/><use xlink:href="#2f9102f5p" x="314.1584" y="512.5625"/><use xlink:href="#2f9102f5q" x="421.9984" y="512.5625"/><use xlink:href="#2f9102f5r" x="504.7184" y="512.5625"/><use xlink:href="#2f9102f5r" x="584.3984" y="512.5625"/><use xlink:href="#2f9102f5n" x="664.0784" y="512.5625"/><use xlink:href="#2f9102f5s" x="759.1184" y="512.5625"/><use xlink:href="#2f9102f5t" x="813.9984" y="512.5625"/><use xlink:href="#2f9102f5q" x="899.7584" y="512.5625"/><use xlink:href="#2f9102f5u" x="36.6777" y="664.7163"/><use xlink:href="#2f9102f5v" x="145.6377" y="664.7163"/><use xlink:href="#2f9102f5w" x="219.8777" y="664.7163"/><use xlink:href="#2f9102f5x" x="279.3977" y="664.7163"/><use xlink:href="#2f9102f5y" x="330.2777" y="664.7163"/><use xlink:href="#2f9102f5z" x="408.1977" y="664.7163"/><use xlink:href="#2f9102f5A" x="1110.416" y="647.3945"/><path d="M37.37 365.62h1275M1006.53 684.6V366.1" fill="none" stroke-width="8" stroke-linecap="round" stroke-linejoin="round" stroke="#1d1d1b" stroke-miterlimit="10"/><g fill="#1a26cd"><use xlink:href="#2f9102f5B" x="193.8242" y="345.8535"/><use xlink:href="#2f9102f5C" x="206.4962" y="345.8535"/></g><g fill="#1a26cd"><use xlink:href="#2f9102f5D" x="210.4002" y="345.8535"/><use xlink:href="#2f9102f5E" x="219.3922" y="345.8535"/><use xlink:href="#2f9102f5F" x="228.4962" y="345.8535"/><use xlink:href="#2f9102f5C" x="238.8322" y="345.8535"/><use xlink:href="#2f9102f5G" x="242.7362" y="345.8535"/><use xlink:href="#2f9102f5H" x="252.7682" y="345.8535"/></g><g fill="#1a26cd"><use xlink:href="#2f9102f5B" x="517.8242" y="664.8455"/><use xlink:href="#2f9102f5C" x="530.4962" y="664.8455"/></g><g fill="#1a26cd"><use xlink:href="#2f9102f5I" x="534.4002" y="664.8455"/><use xlink:href="#2f9102f5E" x="540.1122" y="664.8455"/><use xlink:href="#2f9102f5F" x="549.2162" y="664.8455"/><use xlink:href="#2f9102f5C" x="559.5522" y="664.8455"/><use xlink:href="#2f9102f5G" x="563.4562" y="664.8455"/><use xlink:href="#2f9102f5H" x="573.4882" y="664.8455"/></g><g fill="#1a26cd"><use xlink:href="#2f9102f5B" x="1132.8322" y="345.8535"/><use xlink:href="#2f9102f5C" x="1145.5042" y="345.8535"/></g><g fill="#1a26cd"><use xlink:href="#2f9102f5D" x="1149.4082" y="345.8535"/><use xlink:href="#2f9102f5J" x="1158.4002" y="345.8535"/><use xlink:href="#2f9102f5F" x="1167.8082" y="345.8535"/><use xlink:href="#2f9102f5C" x="1178.1442" y="345.8535"/><use xlink:href="#2f9102f5G" x="1182.0482" y="345.8535"/><use xlink:href="#2f9102f5H" x="1192.0802" y="345.8535"/></g><path d="M46 703.86l5.06 10.25 11.3 1.64-8.18 7.98 1.94 11.26L46 729.67 35.88 735l1.94-11.26-8.19-7.98 11.31-1.64zm0 0M116.78 703.86l5.06 10.25 11.3 1.64-8.18 7.98 1.93 11.26-10.11-5.32-10.12 5.32 1.93-11.26-8.18-7.98 11.3-1.64zm0 0M187.55 703.86l5.06 10.25 11.32 1.64-8.19 7.98 1.93 11.26-10.12-5.32-10.11 5.32 1.93-11.26-8.18-7.98 11.3-1.64zm0 0M258.33 703.86l5.06 10.25 11.31 1.64-8.18 7.98 1.93 11.26-10.12-5.32-10.11 5.32 1.93-11.26-8.19-7.98 11.31-1.64zm0 0M329.1 703.86l5.07 10.25 11.31 1.64-8.18 7.98 1.93 11.26-10.12-5.32L319 735l1.93-11.26-8.19-7.98 11.31-1.64zm0 0M399.9 703.86l5.05 10.25 11.3 1.64-8.18 7.98 1.93 11.26-10.1-5.32-10.13 5.32 1.93-11.26-8.18-7.98 11.3-1.64zm0 0M470.67 703.86l5.06 10.25 11.3 1.64-8.18 7.98 1.93 11.26-10.11-5.32-10.12 5.32 1.93-11.26-8.18-7.98 11.3-1.64zm0 0M541.45 703.86l5.05 10.25 11.31 1.64-8.18 7.98 1.93 11.26-10.11-5.32-10.12 5.32 1.93-11.26-8.19-7.98 11.32-1.64zm0 0M612.22 703.86l5.06 10.25 11.31 1.64-8.18 7.98 1.93 11.26-10.12-5.32-10.11 5.32 1.93-11.26-8.18-7.98 11.3-1.64zm0 0M683 703.86l5.06 10.25 11.3 1.64-8.18 7.98 1.94 11.26-10.12-5.32-10.12 5.32 1.94-11.26-8.19-7.98 11.31-1.64zm0 0M753.78 703.86l5.06 10.25 11.3 1.64-8.18 7.98 1.93 11.26-10.11-5.32-10.12 5.32 1.93-11.26-8.18-7.98 11.3-1.64zm0 0M824.55 703.86l5.06 10.25 11.32 1.64-8.19 7.98 1.93 11.26-10.12-5.32-10.11 5.32 1.93-11.26-8.18-7.98 11.3-1.64zm0 0M895.33 703.86l5.06 10.25 11.31 1.64-8.18 7.98 1.93 11.26-10.12-5.32-10.11 5.32 1.93-11.26-8.19-7.98 11.31-1.64zm0 0M966.1 703.86l5.07 10.25 11.31 1.64-8.18 7.98 1.93 11.26-10.12-5.32L956 735l1.93-11.26-8.19-7.98 11.31-1.64zm0 0M1036.9 703.86l5.05 10.25 11.3 1.64-8.18 7.98 1.93 11.26-10.1-5.32-10.13 5.32 1.93-11.26-8.18-7.98 11.3-1.64zm0 0M1107.67 703.86l5.06 10.25 11.3 1.64-8.18 7.98 1.93 11.26-10.11-5.32-10.12 5.32 1.93-11.26-8.18-7.98 11.3-1.64zm0 0M1178.45 703.86l5.05 10.25 11.31 1.64-8.18 7.98 1.93 11.26-10.11-5.32-10.12 5.32 1.93-11.26-8.19-7.98 11.32-1.64zm0 0M1249.22 703.86l5.06 10.25 11.31 1.64-8.18 7.98 1.93 11.26-10.12-5.32-10.11 5.32 1.93-11.26-8.18-7.98 11.3-1.64zm0 0M1320 703.86l5.06 10.25 11.3 1.64-8.18 7.98 1.94 11.26-10.12-5.32-10.12 5.32 1.94-11.26-8.19-7.98 11.31-1.64zm0 0" fill="#1d1d1b"/><use xlink:href="#2f9102f5K" x="706.9183" y="663.3456" fill="#ed1c24"/><use xlink:href="#2f9102f5L" x="743.7285" y="663.7813" fill="#ed1c24"/><use xlink:href="#2f9102f5M" x="785.5298" y="662.4206" fill="#ed1c24"/><use xlink:href="#2f9102f5N" x="829.2043" y="658.6927" fill="#ed1c24"/><use xlink:href="#2f9102f5O" x="851.6009" y="656.1909" fill="#ed1c24"/><g fill="#ed1c24"><use xlink:href="#2f9102f5P" x="890.7689" y="650.1521"/></g><g fill="#ed1c24"><use xlink:href="#2f9102f5Q" x="925.9254" y="643.171"/></g><g fill="#ed1c24"><use xlink:href="#2f9102f5R" x="952.4056" y="636.9658"/></g><g fill="#ed1c24"><use xlink:href="#2f9102f5S" x="973.9766" y="631.3386"/></g><g fill="#ed1c24"><use xlink:href="#2f9102f5T" x="999.8999" y="623.9205"/></g><g fill="#ed1c24"><use xlink:href="#2f9102f5U" x="1039.3152" y="610.6792"/></g><g fill="#ed1c24"><use xlink:href="#2f9102f5V" x="1069.0211" y="599.3734"/></g><g fill="#ed1c24"><use xlink:href="#2f9102f5W" x="722.0607" y="609.2288"/></g><g fill="#ed1c24"><use xlink:href="#2f9102f5X" x="769.1143" y="591.9591"/></g><g fill="#ed1c24"><use xlink:href="#2f9102f5Y" x="805.1165" y="581.1003"/></g><g fill="#ed1c24"><use xlink:href="#2f9102f5Z" x="851.302" y="570.1912"/></g><g fill="#ed1c24"><use xlink:href="#2f9102f5aa" x="871.6031" y="565.563"/></g><g fill="#ed1c24"><use xlink:href="#2f9102f5ab" x="936.0554" y="555.7918"/></g><g fill="#ed1c24"><use xlink:href="#2f9102f5ac" x="970.1339" y="552.2589"/></g><g fill="#ed1c24"><use xlink:href="#2f9102f5ad" x="991.1165" y="550.6396"/></g><g fill="#ed1c24"><use xlink:href="#2f9102f5ae" x="1013.2748" y="549.4627"/></g><g fill="#ed1c24"><use xlink:href="#2f9102f5af" x="1039.4324" y="548.9875"/></g><path d="M1143.72 548.74c12.06 72.24-96.93 131.2-239.53 155.01-142.6 23.8-264.83 3.43-276.89-68.8-12.05-72.25 96.93-131.21 239.53-155.02 142.6-23.8 264.83-3.43 276.89 68.81zm0 0" fill="none" stroke-width="11" stroke="#ed1c24" stroke-miterlimit="10"/></svg>