<?xml version="1.0" encoding="UTF-8"?>
<svg id="Layer_1" data-name="Layer 1" xmlns="http://www.w3.org/2000/svg" xmlns:xlink="http://www.w3.org/1999/xlink" viewBox="0 0 1366 768">
  <defs>
    <style>
      .cls-1 {
        clip-path: url(#clippath);
      }

      .cls-2, .cls-3 {
        fill: #c572ff;
      }

      .cls-3, .cls-4 {
        stroke-width: 0px;
      }

      .cls-4 {
        fill: #12100b;
      }
    </style>
    <clipPath id="clippath">
      <rect class="cls-3" x="-10" y="-10" width="1386" height="788"/>
    </clipPath>
  </defs>
  <g>
    <rect class="cls-2" x="-10" y="-10" width="1386" height="788"/>
    <g class="cls-1">
      <rect class="cls-3" x="-.35" y="-3.25" width="1366.71" height="779.89"/>
    </g>
  </g>
  <g>
    <path class="cls-4" d="M185.93,57.28v50.17h41.96l1.82-10.58h8.94v34.66h-8.94l-2.01-13.32h-41.77v49.44l20.25,1.64v9.12h-52.9v-9.12l13.86-1.64V57.28l-13.68-1.64v-9.12h88.84l10.76,31.01-7.48,3.28c-6.93-14.96-16.6-23.53-31.74-23.53h-27.91Z"/>
    <path class="cls-4" d="M384.39,169.83l-5.11,8.57c-31.01-12.95-50.71-34.48-63.67-59.1h-18.06v48.34l15.32,1.64v9.12h-48.16v-9.12l14.05-1.64V57.28l-13.86-1.64v-9.12h57.1c30.83,0,49.25,12.77,49.25,35.57,0,19.34-14.78,31.01-33.75,35.21,10.4,21.53,24.63,37.58,46.88,52.54ZM316.53,108.54c21.89,0,34.11-8.76,34.11-26.45,0-16.78-14.41-24.63-35.02-24.63-3.28,0-11.49,0-18.06-.18v51.26h18.97Z"/>
    <path class="cls-4" d="M456.99,181.33c-39.04,0-65.67-31.19-65.67-68.95s24.26-68.04,64.58-68.41c39.22-.37,65.67,31.38,65.67,68.04s-22.98,69.32-64.58,69.32ZM460.64,170.38c28.64,0,40.31-26.45,40.31-52.35,0-34.66-14.96-63.12-46.88-63.12s-42.14,24.81-42.14,55.09,14.59,60.38,48.71,60.38Z"/>
    <path class="cls-4" d="M682.09,57.28v110.36l13.32,1.64v9.12h-46.15v-9.12l14.05-1.64V57.28l-46.88,120.94h-8.03l-47.25-120.03v109.45l13.32,1.64v9.12h-38.13v-9.12l14.05-1.64V57.28l-14.05-1.64v-9.12h42.69l38.67,101.79,38.85-101.79h38.86v9.12l-13.32,1.64Z"/>
    <path class="cls-4" d="M858.3,78.26c-1.82-6.93-4.01-14.05-6.57-20.98h-34.66v110.36l16.96,1.64v9.12h-51.62v-9.12l15.87-1.64V57.28h-35.94c-2.55,6.93-4.74,14.05-6.57,20.98l-9.12-1.09,3.1-30.65h114.56l3.1,30.65-9.12,1.09Z"/>
    <path class="cls-4" d="M909.56,57.28v110.36l13.13,1.64v9.12h-46.33v-9.12l14.05-1.64h.36V57.28l-14.05-1.64v-9.12h46.15v9.12l-13.32,1.64Z"/>
    <path class="cls-4" d="M1082.3,57.28v110.36l13.32,1.64v9.12h-46.15v-9.12l14.05-1.64V57.28l-46.88,120.94h-8.03l-47.25-120.03v109.45l13.32,1.64v9.12h-38.13v-9.12l14.05-1.64V57.28l-14.05-1.64v-9.12h42.69l38.67,101.79,38.85-101.79h38.86v9.12l-13.32,1.64Z"/>
    <path class="cls-4" d="M1209.81,147.4l-10.76,31.01h-92.3v-9.12l13.68-1.64V57.28l-13.68-1.64v-9.12h88.84l10.76,31.01-7.48,3.28c-6.93-14.96-16.6-23.53-31.74-23.53h-27.91v48.34h41.96l1.82-10.58h8.94v34.66h-8.94l-2.01-13.32h-41.77v51.26h31.38c15.14,0,24.81-8.57,31.74-23.53l7.48,3.28Z"/>
    <path class="cls-4" d="M190.13,253.21c-1.82-6.93-4.01-14.05-6.57-20.98h-34.66v110.36l16.96,1.64v9.12h-51.62v-9.12l15.87-1.64v-110.36h-35.94c-2.55,6.93-4.74,14.05-6.57,20.98l-9.12-1.09,3.1-30.65h114.56l3.1,30.65-9.12,1.09Z"/>
    <path class="cls-4" d="M274.95,356.28c-39.04,0-65.67-31.19-65.67-68.95s24.26-68.04,64.58-68.41c39.22-.37,65.67,31.38,65.67,68.04s-22.98,69.32-64.58,69.32ZM278.59,345.33c28.64,0,40.31-26.45,40.31-52.35,0-34.66-14.96-63.12-46.88-63.12s-42.14,24.81-42.14,55.09,14.59,60.38,48.71,60.38Z"/>
    <path class="cls-4" d="M503.69,253.21c-1.82-6.93-4.01-14.05-6.57-20.98h-34.66v110.36l16.96,1.64v9.12h-51.62v-9.12l15.87-1.64v-110.36h-35.94c-2.55,6.93-4.74,14.05-6.57,20.98l-9.12-1.09,3.1-30.65h114.56l3.1,30.65-9.12,1.09Z"/>
    <path class="cls-4" d="M554.95,232.23v110.36l13.13,1.64v9.12h-46.33v-9.12l14.05-1.64h.36v-110.36l-14.05-1.64v-9.12h46.15v9.12l-13.32,1.64Z"/>
    <path class="cls-4" d="M727.69,232.23v110.36l13.32,1.64v9.12h-46.15v-9.12l14.05-1.64v-110.36l-46.88,120.94h-8.03l-47.25-120.03v109.45l13.32,1.64v9.12h-38.13v-9.12l14.05-1.64v-110.36l-14.05-1.64v-9.12h42.69l38.67,101.79,38.85-101.79h38.86v9.12l-13.32,1.64Z"/>
    <path class="cls-4" d="M855.2,322.35l-10.76,31.01h-92.3v-9.12l13.68-1.64v-110.36l-13.68-1.64v-9.12h88.84l10.76,31.01-7.48,3.28c-6.93-14.96-16.6-23.53-31.74-23.53h-27.91v48.34h41.96l1.82-10.58h8.94v34.66h-8.94l-2.01-13.32h-41.77v51.26h31.38c15.14,0,24.81-8.57,31.74-23.53l7.48,3.28Z"/>
    <path class="cls-4" d="M1020.65,253.21c-1.82-6.93-4.01-14.05-6.57-20.98h-34.66v110.36l16.96,1.64v9.12h-51.62v-9.12l15.87-1.64v-110.36h-35.94c-2.55,6.93-4.74,14.05-6.57,20.98l-9.12-1.09,3.1-30.65h114.56l3.1,30.65-9.12,1.09Z"/>
    <path class="cls-4" d="M1167.86,344.24v9.12h-46.33v-9.12l14.05-1.64h.18v-50.89h-66.04v50.89l13.32,1.64v9.12h-46.15v-9.12l14.05-1.64v-110.36l-14.05-1.64v-9.12h46.15v9.12l-13.32,1.64v48.71h66.04v-48.71h-.18l-14.05-1.64v-9.12h46.15v9.12l-13.13,1.64v110.36l13.32,1.64Z"/>
    <path class="cls-4" d="M1281.13,322.35l-10.76,31.01h-92.3v-9.12l13.68-1.64v-110.36l-13.68-1.64v-9.12h88.84l10.76,31.01-7.48,3.28c-6.93-14.96-16.6-23.53-31.74-23.53h-27.91v48.34h41.96l1.82-10.58h8.94v34.66h-8.94l-2.01-13.32h-41.77v51.26h31.38c15.14,0,24.81-8.57,31.74-23.53l7.48,3.28Z"/>
    <path class="cls-4" d="M469.4,497.3l-10.76,31.01h-92.3v-9.12l13.68-1.64v-110.36l-13.68-1.64v-9.12h88.84l10.76,31.01-7.48,3.28c-6.93-14.96-16.6-23.53-31.74-23.53h-27.91v48.34h41.96l1.82-10.58h8.94v34.66h-8.94l-2.01-13.32h-41.77v51.26h31.38c15.14,0,24.81-8.57,31.74-23.53l7.48,3.28Z"/>
    <path class="cls-4" d="M614.05,519.19v9.12h-48.16v-9.12l14.05-1.64-11.67-29.37h-54l-10.58,29.37,15.51,1.64v9.12h-39.77v-9.12l13.32-1.64,43.78-121.13h14.59l50.17,121.13,12.77,1.64ZM563.34,475.95l-23.71-58.56-20.98,58.56h44.69Z"/>
    <path class="cls-4" d="M739.74,519.73l-5.11,8.57c-31.01-12.95-50.71-34.48-63.67-59.1h-18.06v48.34l15.32,1.64v9.12h-48.16v-9.12l14.05-1.64v-110.36l-13.86-1.64v-9.12h57.1c30.83,0,49.25,12.77,49.25,35.57,0,19.34-14.78,31.01-33.75,35.21,10.4,21.53,24.63,37.58,46.88,52.54ZM671.88,458.44c21.89,0,34.11-8.76,34.11-26.45,0-16.78-14.41-24.63-35.02-24.63-3.28,0-11.49,0-18.06-.18v51.26h18.97Z"/>
    <path class="cls-4" d="M853.2,428.16c-1.82-6.93-4.01-14.05-6.57-20.98h-34.66v110.36l16.96,1.64v9.12h-51.62v-9.12l15.87-1.64v-110.36h-35.94c-2.55,6.93-4.74,14.05-6.57,20.98l-9.12-1.09,3.1-30.65h114.56l3.1,30.65-9.12,1.09Z"/>
    <path class="cls-4" d="M1000.41,519.19v9.12h-46.33v-9.12l14.05-1.64h.18v-50.89h-66.04v50.89l13.32,1.64v9.12h-46.15v-9.12l14.05-1.64v-110.36l-14.05-1.64v-9.12h46.15v9.12l-13.32,1.64v48.71h66.04v-48.71h-.18l-14.05-1.64v-9.12h46.15v9.12l-13.13,1.64v110.36l13.32,1.64Z"/>
    <path class="cls-4" d="M299.02,603.11c-1.82-6.93-4.01-14.05-6.57-20.98h-34.66v110.36l16.96,1.64v9.12h-51.62v-9.12l15.87-1.64v-110.36h-35.94c-2.55,6.93-4.74,14.05-6.57,20.98l-9.12-1.09,3.1-30.65h114.56l3.1,30.65-9.12,1.09Z"/>
    <path class="cls-4" d="M436.2,694.69l-5.11,8.57c-31.01-12.95-50.71-34.48-63.67-59.1h-18.06v48.34l15.32,1.64v9.12h-48.16v-9.12l14.05-1.64v-110.36l-13.86-1.64v-9.12h57.1c30.83,0,49.25,12.77,49.25,35.57,0,19.34-14.78,31.01-33.75,35.21,10.4,21.53,24.63,37.58,46.88,52.54ZM368.34,633.39c21.89,0,34.11-8.76,34.11-26.45,0-16.78-14.41-24.63-35.02-24.63-3.28,0-11.49,0-18.06-.18v51.26h18.97Z"/>
    <path class="cls-4" d="M544.73,672.25l-10.76,31.01h-92.3v-9.12l13.68-1.64v-110.36l-13.68-1.64v-9.12h88.84l10.76,31.01-7.48,3.28c-6.93-14.96-16.6-23.53-31.74-23.53h-27.91v48.34h41.96l1.82-10.58h8.94v34.66h-8.94l-2.01-13.32h-41.77v51.26h31.38c15.14,0,24.81-8.57,31.74-23.53l7.48,3.28Z"/>
    <path class="cls-4" d="M706.54,582.13v110.36l13.32,1.64v9.12h-46.15v-9.12l14.05-1.64v-110.36l-46.88,120.94h-8.03l-47.25-120.03v109.45l13.32,1.64v9.12h-38.13v-9.12l14.05-1.64v-110.36l-14.05-1.64v-9.12h42.69l38.67,101.79,38.85-101.79h38.86v9.12l-13.32,1.64Z"/>
    <path class="cls-4" d="M841.71,665.5c0,24.99-19.88,37.76-51.99,37.76h-58.74v-9.12l13.5-1.64v-110.36l-13.5-1.64v-9.12h49.62c23.53,0,53.27,5.47,53.27,31.01,0,19.15-16.05,26.09-25.72,29,18.61,4.01,33.57,14.59,33.57,34.11ZM763.08,582.32v45.6h19.34c17.51,0,30.46-7.48,30.46-23.35s-13.32-22.25-30.1-22.25h-19.7ZM820.73,664.95c0-17.33-12.77-26.27-33.02-26.27h-24.63v53.81h22.07c22.98,0,35.57-9.49,35.57-27.54Z"/>
    <path class="cls-4" d="M956.44,672.25l-10.76,31.01h-92.3v-9.12l13.86-1.64v-110.36l-14.05-1.64v-9.12h46.15v9.12l-13.32,1.64v110.36h31.19c15.14,0,24.81-8.57,31.74-23.53l7.48,3.28Z"/>
    <path class="cls-4" d="M1064.43,672.25l-10.76,31.01h-92.3v-9.12l13.68-1.64v-110.36l-13.68-1.64v-9.12h88.84l10.76,31.01-7.48,3.28c-6.93-14.96-16.6-23.53-31.74-23.53h-27.91v48.34h41.96l1.82-10.58h8.94v34.66h-8.94l-2.01-13.32h-41.77v51.26h31.38c15.14,0,24.81-8.57,31.74-23.53l7.48,3.28Z"/>
    <path class="cls-4" d="M1171.32,669.15c0,20.8-15.51,37.03-45.24,37.03-14.23,0-28.82-3.47-40.5-9.85l-1.28-33.57h9.3c2.74,10.22,5.29,18.06,8.03,24.26,6.57,5.29,15.32,7.48,24.99,7.48,15.51,0,26.63-7.84,26.63-22.8,0-10.03-6.57-17.51-17.88-22.8l-28.64-13.5c-14.23-6.75-22.25-16.6-22.25-32.84,0-20.43,16.78-33.93,39.22-33.93,11.49,0,20.61,2.37,28.46,7.11.73-2.37,1.09-4.56,1.09-7.11h10.58l.55,37.58h-9.3c-1.46-5.11-3.83-12.77-6.38-18.61-7.11-5.66-14.41-7.48-23.17-7.48-14.78,0-23.35,6.02-23.35,17.51,0,8.57,5.84,14.23,12.77,17.69l31.92,16.24c14.96,7.66,24.44,19.34,24.44,37.58ZM1106.75,696.14l-.73-1.09c.36.37.55.73.73,1.09Z"/>
  </g>
</svg>