<?xml version="1.0" encoding="UTF-8"?><svg id="Layer_1" xmlns="http://www.w3.org/2000/svg" viewBox="0 0 1366 768"><defs><style>.cls-1{fill:#fff;}.cls-2{fill:#e50000;}</style></defs><rect class="cls-2" x="-27" y="-50.94" width="1446" height="930.38"/><g><path class="cls-1" d="M141.99,53.65c36.19,0,61.18,26.14,61.18,58.31,0,21.83-10.34,38.49-30.74,46.82,14.07,7.47,23.55,22.98,23.55,41.65,0,30.45-24.42,55.15-55.73,55.15h-58.89V53.65h60.61Zm-38.78,93.07h39.93c23.27,0,38.2-14.94,38.2-34.76s-14.94-36.48-39.35-36.48h-38.78v71.24Zm0,87.04h37.05c17.81,0,33.9-14.65,33.9-33.32s-16.09-32.46-33.9-32.46h-37.05v65.78Z"/><path class="cls-1" d="M334.15,50.78c57.74,0,104.27,46.53,104.27,103.98s-46.53,103.7-104.27,103.7-103.98-45.96-103.98-103.7,46.25-103.98,103.98-103.98Zm0,186.14c45.67,0,82.44-36.48,82.44-82.15s-36.77-82.15-82.44-82.15-82.15,36.77-82.15,82.15,36.48,82.15,82.15,82.15Z"/><path class="cls-1" d="M573.13,255.59c-68.65,0-109.44-41.94-109.44-100.82s40.79-101.11,109.44-101.11h175.22c68.65,0,109.44,42.23,109.44,101.11s-40.79,100.82-109.44,100.82h-175.22Zm175.22-21.83c55.15,0,87.61-32.17,87.61-78.99s-32.46-79.28-87.61-79.28h-175.22c-55.15,0-87.61,32.46-87.61,79.28s32.46,78.99,87.61,78.99h175.22Z"/><path class="cls-1" d="M906.32,53.65l87.04,114.04,85.89-114.04h10.05V255.59h-21.83V110.53l.29-3.73-72.39,95.08h-4.02l-72.39-95.08,.29,3.73V255.59h-21.83V53.65h8.9Z"/><path class="cls-1" d="M1151.33,230.31c8.04,0,14.36,6.32,14.36,14.36s-6.32,14.36-14.36,14.36-14.36-6.32-14.36-14.36,6.32-14.36,14.36-14.36Zm10.92-176.66l-1.72,152.24h-18.38l-1.72-152.24h21.83Z"/></g><g><path class="cls-1" d="M141.99,284.78c36.19,0,61.18,26.14,61.18,58.31,0,21.83-10.34,38.49-30.74,46.82,14.07,7.47,23.55,22.98,23.55,41.65,0,30.45-24.42,55.15-55.73,55.15h-58.89v-201.93h60.61Zm-38.78,93.07h39.93c23.27,0,38.2-14.94,38.2-34.76s-14.94-36.48-39.35-36.48h-38.78v71.24Zm0,87.04h37.05c17.81,0,33.9-14.65,33.9-33.32s-16.09-32.46-33.9-32.46h-37.05v65.78Z"/><path class="cls-1" d="M334.15,281.91c57.74,0,104.27,46.53,104.27,103.98s-46.53,103.7-104.27,103.7-103.98-45.96-103.98-103.7,46.25-103.98,103.98-103.98Zm0,186.14c45.67,0,82.44-36.48,82.44-82.15s-36.77-82.15-82.44-82.15-82.15,36.77-82.15,82.15,36.48,82.15,82.15,82.15Z"/><path class="cls-1" d="M573.13,486.71c-68.65,0-109.44-41.94-109.44-100.82s40.79-101.11,109.44-101.11h175.22c68.65,0,109.44,42.23,109.44,101.11s-40.79,100.82-109.44,100.82h-175.22Zm175.22-21.83c55.15,0,87.61-32.17,87.61-78.99s-32.46-79.28-87.61-79.28h-175.22c-55.15,0-87.61,32.46-87.61,79.28s32.46,78.99,87.61,78.99h175.22Z"/><path class="cls-1" d="M895.41,284.78l52.85,122.65,53.72-122.65h7.76v201.93h-20.39v-127.25l-38.78,89.05h-4.88l-37.34-89.05v127.25h-20.39v-201.93h7.47Z"/><path class="cls-1" d="M1062.29,461.44c8.04,0,14.36,6.32,14.36,14.36s-6.32,14.36-14.36,14.36-14.36-6.32-14.36-14.36,6.32-14.36,14.36-14.36Zm10.92-176.66l-1.72,152.24h-18.38l-1.72-152.24h21.83Z"/></g><g><path class="cls-1" d="M354.84,516.84c40.79,0,67.79,24.42,67.79,56.88,0,22.98-11.2,39.64-35.33,47.11,19.25,7.18,28.44,21.83,28.44,41.36,0,32.75-25.56,56.59-67.79,56.59H81.38v-201.93H354.84Zm-251.63,91.92h251.05c29.87,0,45.96-14.65,45.96-35.04s-17.23-35.04-45.96-35.04H103.21v70.09Zm0,88.18h244.45c29.87,0,45.67-13.79,45.67-34.18s-16.95-32.75-45.67-32.75H103.21v66.93Z"/><path class="cls-1" d="M552.74,513.96c57.74,0,104.27,46.53,104.27,103.98s-46.53,103.7-104.27,103.7-103.98-45.96-103.98-103.7,46.25-103.98,103.98-103.98Zm0,186.14c45.67,0,82.44-36.48,82.44-82.15s-36.77-82.15-82.44-82.15-82.15,36.77-82.15,82.15,36.48,82.15,82.15,82.15Z"/><path class="cls-1" d="M789.13,617.95c0,63.19-18.96,103.98-54.58,103.98s-54-40.79-54-103.98,18.67-103.98,54-103.98,54.58,40.5,54.58,103.98Zm-86.75,0c0,53.43,10.92,82.44,32.17,82.44,22.4,0,32.75-29.01,32.75-82.44s-10.63-82.44-32.75-82.44-32.17,29.01-32.17,82.44Z"/><path class="cls-1" d="M825.04,516.84l52.85,122.65,53.72-122.65h7.76v201.93h-20.39v-127.25l-38.78,89.05h-4.88l-37.34-89.05v127.25h-20.39v-201.93h7.47Z"/><path class="cls-1" d="M991.92,693.49c8.04,0,14.36,6.32,14.36,14.36s-6.32,14.36-14.36,14.36-14.36-6.32-14.36-14.36,6.32-14.36,14.36-14.36Zm10.92-176.66l-1.72,152.24h-18.38l-1.72-152.24h21.83Z"/></g></svg>