<?xml version="1.0" encoding="UTF-8"?><svg id="Layer_1" xmlns="http://www.w3.org/2000/svg" viewBox="0 0 1366 768"><defs><style>.cls-1{fill:red;}.cls-2{fill:#1a26cd;}</style></defs><g><path d="M271.71,175.41c2.73,4.63,5.82,8.44,8.44,10.93l-.24,.83c-8.2,0-13.66-4.4-18.3-11.29l-18.41-27.32v-.71c12.95-1.07,21.03-6.18,21.03-16.63s-7.49-14.14-19.84-14.14h-5.35v64.15l12.83,2.97v1.78h-31.25v-1.78l8.08-2.97v-63.56l-8.08-2.97v-1.78h27.56c15.8,0,27.44,4.51,27.44,17.7,0,11.41-9.15,15.8-20.32,17.23l16.39,27.56Z"/><path d="M284.9,162.34c0-15.21,8.91-25.66,25.54-25.66s24,11.29,24,25.66c0,15.21-8.91,25.66-24.95,25.66s-24.59-11.29-24.59-25.66Zm39.92,1.66c0-12-5.11-23.64-15.92-23.64s-14.38,9.15-14.38,20.32c0,12.12,5.11,23.64,15.92,23.64s14.38-8.32,14.38-20.32Z"/><path d="M432.57,184.92v1.19h-25.78v-1.19l7.84-2.38v-24.71c0-8.79-2.5-13.42-10.69-13.42s-11.52,7.01-11.52,15.68v22.45l8.55,2.38v1.19h-26.73v-1.19l8.55-2.38v-24.71c0-8.08-1.9-13.42-10.81-13.54-8.08-.12-11.41,6.18-11.52,15.21v22.93l8.32,2.38v1.19h-26.38v-1.19l8.44-2.38v-38.73h-9.03v-1.07l18.06-5.35v12.24c3.45-8.55,9.74-13.07,16.87-12.95,8.55,.12,13.78,4.87,15.21,12.71,3.45-7.96,9.27-12.59,16.75-12.59,10.22,0,15.56,7.01,15.56,17.58v28.28l8.32,2.38Z"/><path d="M479.26,160.08h-33.74c.83,12,7.01,19.25,17.35,19.25,7.72,0,11.88-2.14,14.49-8.32h1.9c-1.19,7.84-6.3,16.87-19.6,16.87-15.09,0-22.1-11.64-22.1-25.54s7.96-25.78,22.45-25.78,20.67,11.88,19.25,23.52Zm-9.03-3.56c0-8.91-3.45-16.4-12.24-16.4-7.72,0-12.36,5.7-12.59,16.4h24.83Z"/><path class="cls-1" d="M490.54,152.84c0-3.68,2.97-6.77,6.77-6.77s6.77,3.09,6.77,6.77-3.09,6.77-6.77,6.77-6.77-3.09-6.77-6.77Z"/><path d="M583.45,114.7l-9.27,2.97v69.62h-1.78l-43.48-64.39v58.33l13.54,2.97v1.78h-27.56v-1.78l9.27-2.97v-63.56l-9.27-2.97v-1.78h19.96l34.57,52.39v-47.64l-13.19-2.97v-1.78h27.21v1.78Z"/><path d="M637.97,168.76h2.14v4.4c0,7.6-1.31,13.78-10.69,13.78-5.35,0-9.62-2.38-9.86-8.67-2.38,5.23-6.77,9.62-14.49,9.62-9.39,0-15.09-5.35-15.09-14.38,0-11.05,7.96-15.56,18.53-15.56,4.75,0,8.32,1.19,11.05,2.85v-9.15c0-7.37-1.66-11.41-9.27-11.41-6.65,0-9.86,3.8-12.95,14.49h-1.78v-16.28c5.58-1.19,11.64-1.9,16.16-1.9,12.95,0,17.46,5.35,17.46,16.75v22.81c0,3.33,1.07,5.23,3.92,5.23,3.56,0,4.87-2.85,4.87-9.03v-3.56Zm-18.41,.95v-4.99c-2.5-2.02-5.94-3.33-9.5-3.33-6.77,0-10.81,3.56-10.81,10.22,0,5.82,3.33,9.27,9.62,9.27,8.67,0,10.69-6.65,10.69-11.17Z"/><path d="M661.38,212.6l11.88,2.61v1.19h-29.94v-1.19l8.44-2.61v-68.19h-9.03v-1.19l18.42-6.65v12l.24,.12c2.73-7.13,8.55-12.12,17.82-12.12,13.19,0,18.77,9.15,18.77,23.4,0,16.75-7.96,27.92-25.07,27.92-3.8,0-7.72-.48-11.52-1.54v26.26Zm0-52.99v17.58c1.9,4.28,6.65,7.01,12,7.01,14.02,0,15.45-14.26,15.45-22.1,0-12.71-5.23-18.89-13.78-18.89-10.1,0-13.66,7.6-13.66,16.4Z"/><path d="M738.48,176c-1.54,5.94-4.63,11.88-13.42,11.88s-13.54-4.16-13.66-13.07v-62.61l-8.43-2.26v-1.19h34.33v1.19l-16.28,1.9v59.88c0,5.82,1.07,9.74,7.84,9.74,3.92,0,6.18-1.66,7.84-5.46h1.78Z"/><path d="M784.93,160.08h-33.74c.83,12,7.01,19.25,17.35,19.25,7.72,0,11.88-2.14,14.49-8.32h1.9c-1.19,7.84-6.3,16.87-19.6,16.87-15.09,0-22.1-11.64-22.1-25.54s7.96-25.78,22.45-25.78,20.67,11.88,19.25,23.52Zm-9.03-3.56c0-8.91-3.45-16.4-12.24-16.4-7.72,0-12.36,5.7-12.59,16.4h24.83Z"/><path d="M817.96,158.54c10.1,2.73,12.24,7.37,12.24,14.26,0,9.62-6.53,15.09-18.18,15.09-6.3,0-13.07-2.97-15.45-8.32v8.32h-2.38v-20.08h2.38v5.47c1.54,7.13,7.49,10.34,15.8,10.34,7.6,0,10.93-3.92,10.93-8.32,0-4.99-2.61-6.18-7.25-7.37l-9.86-2.61c-6.42-1.66-11.17-5.58-11.17-13.19,0-9.86,7.48-15.56,17.11-15.56,6.65,0,11.88,2.38,14.02,6.77v-6.18h2.38v20.08h-2.38v-7.48c-2.26-7.48-6.77-9.5-14.14-9.5-5.94,0-9.62,3.09-9.62,8.2,0,4.63,2.38,6.53,6.77,7.72l8.79,2.38Z"/><path class="cls-1" d="M840.41,152.84c0-3.68,2.97-6.77,6.77-6.77s6.77,3.09,6.77,6.77-3.09,6.77-6.77,6.77-6.77-3.09-6.77-6.77Z"/><path d="M957.79,184.2v1.78h-30.06v-1.78l10.46-2.97v-62.85l-28.39,68.67-2.97-.12-28.63-68.55v62.85l12.24,2.97v1.78h-26.26v-1.78l9.27-2.97v-63.56l-9.27-2.97v-1.78h23.52l24,59.05,23.52-59.05h22.57v1.78l-9.27,2.97v63.56l9.27,2.97Z"/><path d="M993.31,184.8v1.19h-28.99v-1.19l9.86-2.38v-38.73h-9.86v-1.07l19.48-5.35v45.15l9.5,2.38Zm-20.79-60.95c0-3.68,3.09-6.42,6.53-6.42s6.65,2.73,6.65,6.42-3.09,6.53-6.65,6.53-6.53-2.73-6.53-6.53Z"/><path d="M1030.25,176c-1.54,5.94-4.63,11.88-13.42,11.88s-13.54-4.16-13.66-13.07v-62.61l-8.43-2.26v-1.19h34.33v1.19l-16.28,1.9v59.88c0,5.82,1.07,9.74,7.84,9.74,3.92,0,6.18-1.66,7.84-5.46h1.78Z"/><path d="M1083,168.76h2.14v4.4c0,7.6-1.31,13.78-10.69,13.78-5.35,0-9.62-2.38-9.86-8.67-2.38,5.23-6.77,9.62-14.49,9.62-9.39,0-15.09-5.35-15.09-14.38,0-11.05,7.96-15.56,18.53-15.56,4.75,0,8.32,1.19,11.05,2.85v-9.15c0-7.37-1.66-11.41-9.27-11.41-6.65,0-9.86,3.8-12.95,14.49h-1.78v-16.28c5.58-1.19,11.64-1.9,16.16-1.9,12.95,0,17.46,5.35,17.46,16.75v22.81c0,3.33,1.07,5.23,3.92,5.23,3.56,0,4.87-2.85,4.87-9.03v-3.56Zm-18.41,.95v-4.99c-2.5-2.02-5.94-3.33-9.5-3.33-6.77,0-10.81,3.56-10.81,10.22,0,5.82,3.33,9.27,9.62,9.27,8.67,0,10.69-6.65,10.69-11.17Z"/><path d="M1148.11,184.8v1.19h-26.37v-1.19l8.43-2.38v-25.19c0-7.84-2.73-12.95-10.93-12.95s-12,5.7-12,15.92v22.22l8.32,2.38v1.19h-26.38v-1.19l8.44-2.38v-38.73h-8.44v-1.07l17.46-5.35v12.24c3.45-8.55,9.86-12.95,17.35-12.95,10.57,0,15.8,7.01,15.8,17.58v28.28l8.32,2.38Z"/><path d="M214.27,265.54c2.49,15.44,8.2,24.71,22.22,24.71,11.17,0,15.21-5.23,15.21-14.14,0-8.2-5.46-11.17-10.57-13.07l-13.19-4.99c-9.86-3.68-14.49-9.86-14.49-19.84,0-12.36,9.03-20.08,22.93-20.08,7.48,0,12.83,.71,18.53,2.26l1.54,22.57h-1.78c-3.8-14.97-8.32-20.43-19.37-20.43-9.03,0-14.14,4.51-14.14,12.95,0,5.7,3.21,9.5,10.69,12.36l14.49,5.47c9.15,3.45,14.02,9.03,14.02,19.48,0,12.95-7.84,22.1-26.49,22.1-6.3,0-12.95-1.31-20.2-3.56l-1.19-25.78h1.78Z"/><path d="M295.89,291.8v1.19h-28.99v-1.19l9.86-2.38v-38.73h-9.86v-1.07l19.48-5.35v45.15l9.5,2.38Zm-20.79-60.95c0-3.68,3.09-6.42,6.53-6.42s6.65,2.73,6.65,6.42-3.09,6.53-6.65,6.53-6.53-2.73-6.53-6.53Z"/><path d="M341.63,278.02c-1.43,10.1-7.37,16.87-18.77,16.87-15.44,0-22.22-11.64-22.22-24.35,0-14.61,7.25-26.97,25.07-26.97,5.46,0,9.86,.95,14.26,2.14l1.66,18.18-1.78,.24c-2.85-9.27-7.01-16.99-16.04-16.99-11.52,0-15.33,8.2-15.33,18.53s4.99,20.91,18.41,20.91c6.53,0,11.05-2.85,12.83-8.55h1.9Z"/><path d="M376.2,291.8v1.19h-28.99v-1.19l9.86-2.38v-38.73h-9.86v-1.07l19.48-5.35v45.15l9.5,2.38Zm-20.79-60.95c0-3.68,3.09-6.42,6.53-6.42s6.65,2.73,6.65,6.42-3.09,6.53-6.65,6.53-6.53-2.73-6.53-6.53Z"/><path d="M413.14,283c-1.54,5.94-4.63,11.88-13.42,11.88s-13.54-4.16-13.66-13.07v-62.61l-8.43-2.26v-1.19h34.33v1.19l-16.28,1.9v59.88c0,5.82,1.07,9.74,7.84,9.74,3.92,0,6.18-1.66,7.84-5.46h1.78Z"/><path d="M445.7,291.8v1.19h-28.99v-1.19l9.86-2.38v-38.73h-9.86v-1.07l19.48-5.35v45.15l9.5,2.38Zm-20.79-60.95c0-3.68,3.09-6.42,6.53-6.42s6.65,2.73,6.65,6.42-3.09,6.53-6.65,6.53-6.53-2.73-6.53-6.53Z"/><path d="M498.44,275.76h2.14v4.4c0,7.6-1.31,13.78-10.69,13.78-5.35,0-9.62-2.38-9.86-8.67-2.38,5.23-6.77,9.62-14.49,9.62-9.39,0-15.09-5.35-15.09-14.38,0-11.05,7.96-15.56,18.53-15.56,4.75,0,8.32,1.19,11.05,2.85v-9.15c0-7.37-1.66-11.41-9.27-11.41-6.65,0-9.86,3.8-12.95,14.49h-1.78v-16.28c5.58-1.19,11.64-1.9,16.16-1.9,12.95,0,17.46,5.35,17.46,16.75v22.81c0,3.33,1.07,5.23,3.92,5.23,3.56,0,4.87-2.85,4.87-9.03v-3.56Zm-18.41,.95v-4.99c-2.5-2.02-5.94-3.33-9.5-3.33-6.77,0-10.81,3.56-10.81,10.22,0,5.82,3.33,9.27,9.62,9.27,8.67,0,10.69-6.65,10.69-11.17Z"/><path class="cls-1" d="M508.66,259.84c0-3.68,2.97-6.77,6.77-6.77s6.77,3.09,6.77,6.77-3.09,6.77-6.77,6.77-6.77-3.09-6.77-6.77Z"/><path d="M590.04,239.88h-1.78l-8.79-15.8h-23.76v30.06h17.82l3.92-10.46h1.78v25.07h-1.78l-3.92-10.45h-17.82v31.13l12.12,2.38v1.19h-30.89v-1.19l8.44-2.38v-65.94l-8.44-2.38v-1.19h50.97l2.14,19.96Z"/><path d="M628.17,283c-1.54,5.94-4.63,11.88-13.42,11.88s-13.54-4.16-13.66-13.07v-62.61l-8.43-2.26v-1.19h34.33v1.19l-16.28,1.9v59.88c0,5.82,1.07,9.74,7.84,9.74,3.92,0,6.18-1.66,7.84-5.46h1.78Z"/><path d="M632.92,269.34c0-15.21,8.91-25.66,25.54-25.66s24,11.29,24,25.66c0,15.21-8.91,25.66-24.95,25.66s-24.59-11.29-24.59-25.66Zm39.92,1.66c0-12-5.11-23.64-15.92-23.64s-14.38,9.15-14.38,20.32c0,12.12,5.11,23.64,15.92,23.64s14.38-8.32,14.38-20.32Z"/><path d="M727.25,243.56v17.11h-1.78c-1.66-5.35-3.92-7.48-7.96-7.48-7.25,0-9.62,8.08-9.62,16.63v19.6l13.07,2.38v1.19h-31.13v-1.19l8.44-2.38v-38.73h-8.44v-1.07l17.46-6.06v15.33c.59-1.54,1.43-2.97,2.14-4.4,3.8-6.65,9.74-10.93,17.82-10.93Z"/><path d="M773.59,267.08h-33.74c.83,12,7.01,19.25,17.35,19.25,7.72,0,11.88-2.14,14.49-8.32h1.9c-1.19,7.84-6.3,16.87-19.6,16.87-15.09,0-22.1-11.64-22.1-25.54s7.96-25.78,22.45-25.78,20.67,11.88,19.25,23.52Zm-9.03-3.56c0-8.91-3.45-16.4-12.24-16.4-7.72,0-12.36,5.7-12.59,16.4h24.83Z"/><path d="M839.76,291.8v1.19h-26.37v-1.19l8.43-2.38v-25.19c0-7.84-2.73-12.95-10.93-12.95s-12,5.7-12,15.92v22.22l8.32,2.38v1.19h-26.38v-1.19l8.44-2.38v-38.73h-8.44v-1.07l17.46-5.35v12.24c3.45-8.55,9.86-12.95,17.35-12.95,10.57,0,15.8,7.01,15.8,17.58v28.28l8.32,2.38Z"/><path d="M885.74,278.02c-1.43,10.1-7.37,16.87-18.77,16.87-15.44,0-22.22-11.64-22.22-24.35,0-14.61,7.25-26.97,25.07-26.97,5.46,0,9.86,.95,14.26,2.14l1.66,18.18-1.78,.24c-2.85-9.27-7.01-16.99-16.04-16.99-11.52,0-15.33,8.2-15.33,18.53s4.99,20.91,18.41,20.91c6.53,0,11.05-2.85,12.83-8.55h1.9Z"/><path d="M934.21,267.08h-33.74c.83,12,7.01,19.25,17.35,19.25,7.72,0,11.88-2.14,14.49-8.32h1.9c-1.19,7.84-6.3,16.87-19.6,16.87-15.09,0-22.1-11.64-22.1-25.54s7.96-25.78,22.45-25.78,20.67,11.88,19.25,23.52Zm-9.03-3.56c0-8.91-3.45-16.4-12.24-16.4-7.72,0-12.36,5.7-12.59,16.4h24.83Z"/><path class="cls-1" d="M945.49,259.84c0-3.68,2.97-6.77,6.77-6.77s6.77,3.09,6.77,6.77-3.09,6.77-6.77,6.77-6.77-3.09-6.77-6.77Z"/><path d="M1027.11,272.19c0,16.04-12.24,20.79-29.46,20.79h-27.56v-1.19l8.44-2.38v-65.94l-8.44-2.38v-1.19h29.34c16.75,0,25.07,5.58,25.07,16.75,0,9.03-7.49,15.33-18.18,16.87,11.88,1.07,20.79,6.53,20.79,18.65Zm-31.13-48.12h-7.13v28.39h5.11c13.42,0,19.13-5.7,19.13-15.68,0-8.08-5.7-12.71-17.11-12.71Zm19.72,48.12c0-11.52-7.72-15.68-18.89-15.68h-7.96v32.31h9.15c11.29,0,17.7-4.87,17.7-16.63Z"/><path d="M1082.23,275.76h2.14v4.4c0,7.6-1.31,13.78-10.69,13.78-5.35,0-9.62-2.38-9.86-8.67-2.38,5.23-6.77,9.62-14.49,9.62-9.39,0-15.09-5.35-15.09-14.38,0-11.05,7.96-15.56,18.53-15.56,4.75,0,8.32,1.19,11.05,2.85v-9.15c0-7.37-1.66-11.41-9.27-11.41-6.65,0-9.86,3.8-12.95,14.49h-1.78v-16.28c5.58-1.19,11.64-1.9,16.16-1.9,12.95,0,17.46,5.35,17.46,16.75v22.81c0,3.33,1.07,5.23,3.92,5.23,3.56,0,4.87-2.85,4.87-9.03v-3.56Zm-18.41,.95v-4.99c-2.5-2.02-5.94-3.33-9.5-3.33-6.77,0-10.81,3.56-10.81,10.22,0,5.82,3.33,9.27,9.62,9.27,8.67,0,10.69-6.65,10.69-11.17Z"/><path d="M1125.83,243.56v17.11h-1.78c-1.66-5.35-3.92-7.48-7.96-7.48-7.25,0-9.62,8.08-9.62,16.63v19.6l13.07,2.38v1.19h-31.13v-1.19l8.44-2.38v-38.73h-8.44v-1.07l17.46-6.06v15.33c.59-1.54,1.43-2.97,2.14-4.4,3.8-6.65,9.74-10.93,17.82-10.93Z"/><path d="M1158.26,291.8v1.19h-28.99v-1.19l9.86-2.38v-38.73h-9.86v-1.07l19.48-5.35v45.15l9.5,2.38Zm-20.79-60.95c0-3.68,3.09-6.42,6.53-6.42s6.65,2.73,6.65,6.42-3.09,6.53-6.65,6.53-6.53-2.73-6.53-6.53Z"/><path d="M249.97,379.19c0,16.04-12.24,20.79-29.46,20.79h-27.56v-1.19l8.44-2.38v-65.94l-8.44-2.38v-1.19h29.34c16.75,0,25.07,5.58,25.07,16.75,0,9.03-7.49,15.33-18.18,16.87,11.88,1.07,20.79,6.53,20.79,18.65Zm-31.13-48.12h-7.13v28.39h5.11c13.42,0,19.13-5.7,19.13-15.68,0-8.08-5.7-12.71-17.11-12.71Zm19.72,48.12c0-11.52-7.72-15.68-18.89-15.68h-7.96v32.31h9.15c11.29,0,17.7-4.87,17.7-16.63Z"/><path d="M257.1,376.34c0-15.21,8.91-25.66,25.54-25.66s24,11.29,24,25.66c0,15.21-8.91,25.66-24.95,25.66s-24.59-11.29-24.59-25.66Zm39.92,1.66c0-12-5.11-23.64-15.92-23.64s-14.38,9.15-14.38,20.32c0,12.12,5.11,23.64,15.92,23.64s14.38-8.32,14.38-20.32Z"/><path d="M347.15,390c-1.54,5.94-4.63,11.88-13.42,11.88s-13.54-4.16-13.66-13.07v-62.61l-8.43-2.26v-1.19h34.33v1.19l-16.28,1.9v59.88c0,5.82,1.07,9.74,7.84,9.74,3.92,0,6.18-1.66,7.84-5.46h1.78Z"/><path d="M351.9,376.34c0-15.21,8.91-25.66,25.54-25.66s24,11.29,24,25.66c0,15.21-8.91,25.66-24.95,25.66s-24.59-11.29-24.59-25.66Zm39.92,1.66c0-12-5.11-23.64-15.92-23.64s-14.38,9.15-14.38,20.32c0,12.12,5.11,23.64,15.92,23.64s14.38-8.32,14.38-20.32Z"/><path d="M460.01,350.44v6.77h-11.64c3.09,3.33,4.75,7.84,4.75,12.83,0,11.76-7.01,19.84-19.6,20.55v8.2h3.45c11.88,0,19.84,4.99,19.84,15.21,0,12-12,17.58-25.31,17.58-14.26,0-24.71-5.58-24.71-17.58,0-10.22,8.91-15.21,19.84-15.21h2.5v-8.2c-12.83-.71-20.43-7.72-20.43-20.08,0-11.41,7.6-19.84,22.1-19.84,6.06,0,10.93,1.43,14.61,3.92l13.78-4.16h.83Zm-27.44,52.16h-2.38c-8.67,0-13.9,3.56-13.9,12.24,0,8.2,7.49,13.19,15.56,13.19,9.03,0,14.97-5.35,14.97-13.19,0-8.67-5.94-12.24-14.26-12.24Zm10.1-29.34c0-11.52-4.4-18.89-12.83-18.89-7.01,0-10.81,5.23-10.81,13.54,0,12.59,4.51,18.77,12.71,18.77,7.48,0,10.93-5.46,10.93-13.42Z"/><path d="M522.74,398.8v1.19h-26.38v-1.19l8.43-2.38v-25.19c0-7.84-2.73-12.95-10.93-12.95s-12,5.7-12,15.92v22.22l8.32,2.38v1.19h-26.38v-1.19l8.44-2.38v-38.73h-8.44v-1.07l17.46-5.35v12.24c3.45-8.55,9.86-12.95,17.35-12.95,10.57,0,15.8,7.01,15.8,17.58v28.28l8.32,2.38Z"/><path d="M575.72,382.76h2.14v4.4c0,7.6-1.31,13.78-10.69,13.78-5.35,0-9.62-2.38-9.86-8.67-2.38,5.23-6.77,9.62-14.49,9.62-9.39,0-15.09-5.35-15.09-14.38,0-11.05,7.96-15.56,18.53-15.56,4.75,0,8.32,1.19,11.05,2.85v-9.15c0-7.37-1.66-11.41-9.27-11.41-6.65,0-9.86,3.8-12.95,14.49h-1.78v-16.28c5.58-1.19,11.64-1.9,16.16-1.9,12.95,0,17.46,5.35,17.46,16.75v22.81c0,3.33,1.07,5.23,3.92,5.23,3.56,0,4.87-2.85,4.87-9.03v-3.56Zm-18.41,.95v-4.99c-2.5-2.02-5.94-3.33-9.5-3.33-6.77,0-10.81,3.56-10.81,10.22,0,5.82,3.33,9.27,9.62,9.27,8.67,0,10.69-6.65,10.69-11.17Z"/><path class="cls-1" d="M585.94,366.84c0-3.68,2.97-6.77,6.77-6.77s6.77,3.09,6.77,6.77-3.09,6.77-6.77,6.77-6.77-3.09-6.77-6.77Z"/><path d="M655.91,326.92l8.44-1.54v23.05h-1.78l-6.65-17.23h-14.73v64.04l12.83,2.97v1.78h-36v-1.78l12.83-2.97v-64.04h-14.85l-6.65,17.23h-1.78v-23.05l8.44,1.54h39.92Z"/><path d="M716.62,398.8v1.19h-18.77v-9.62c-1.78,5.58-6.53,11.52-15.33,11.52-11.52,0-15.45-7.01-15.45-18.3v-27.44l-6.65-2.5v-1.19h23.88v1.19l-7.6,2.5v24.83c0,9.27,2.38,13.31,9.86,13.31s11.29-4.99,11.29-14.26v-23.88l-7.72-2.5v-1.19h25.78v1.19l-8.43,2.38v40.39l9.15,2.38Z"/><path d="M759.75,350.56v17.11h-1.78c-1.66-5.35-3.92-7.48-7.96-7.48-7.25,0-9.62,8.08-9.62,16.63v19.6l13.07,2.38v1.19h-31.13v-1.19l8.44-2.38v-38.73h-8.44v-1.07l17.46-6.06v15.33c.59-1.54,1.43-2.97,2.14-4.4,3.8-6.65,9.74-10.93,17.82-10.93Z"/><path d="M792.18,398.8v1.19h-28.99v-1.19l9.86-2.38v-38.73h-9.86v-1.07l19.48-5.35v45.15l9.5,2.38Zm-20.79-60.95c0-3.68,3.09-6.42,6.53-6.42s6.65,2.73,6.65,6.42-3.09,6.53-6.65,6.53-6.53-2.73-6.53-6.53Z"/><path d="M854.91,398.8v1.19h-26.38v-1.19l8.43-2.38v-25.19c0-7.84-2.73-12.95-10.93-12.95s-12,5.7-12,15.92v22.22l8.32,2.38v1.19h-26.38v-1.19l8.44-2.38v-38.73h-8.44v-1.07l17.46-5.35v12.24c3.45-8.55,9.86-12.95,17.35-12.95,10.57,0,15.8,7.01,15.8,17.58v28.28l8.32,2.38Z"/><path class="cls-1" d="M862.98,366.84c0-3.68,2.97-6.77,6.77-6.77s6.77,3.09,6.77,6.77-3.09,6.77-6.77,6.77-6.77-3.09-6.77-6.77Z"/><path d="M909.08,364.22c13.9-.59,23.05-5.94,23.05-17.58,0-10.46-6.42-15.44-18.3-15.44h-7.84v64.04l12.83,2.97v1.78h-32.43v-1.78l9.27-2.97v-63.56l-9.27-2.97v-1.78h28.39c21.27,0,28.75,6.65,28.75,19.25,0,15.21-11.05,20.32-31.37,20.32h-3.09v-2.26Z"/><path d="M995.69,382.76h2.14v4.4c0,7.6-1.31,13.78-10.69,13.78-5.35,0-9.62-2.38-9.86-8.67-2.38,5.23-6.77,9.62-14.49,9.62-9.39,0-15.09-5.35-15.09-14.38,0-11.05,7.96-15.56,18.53-15.56,4.75,0,8.32,1.19,11.05,2.85v-9.15c0-7.37-1.66-11.41-9.27-11.41-6.65,0-9.86,3.8-12.95,14.49h-1.78v-16.28c5.58-1.19,11.64-1.9,16.16-1.9,12.95,0,17.46,5.35,17.46,16.75v22.81c0,3.33,1.07,5.23,3.92,5.23,3.56,0,4.87-2.85,4.87-9.03v-3.56Zm-18.41,.95v-4.99c-2.5-2.02-5.94-3.33-9.5-3.33-6.77,0-10.81,3.56-10.81,10.22,0,5.82,3.33,9.27,9.62,9.27,8.67,0,10.69-6.65,10.69-11.17Z"/><path d="M1057.94,398.8v1.19h-18.77v-8.55c-2.5,6.18-8.2,10.45-16.51,10.45-14.02,0-19.84-11.52-19.84-25.31,0-15.56,8.08-26.02,23.29-26.02,5.11,0,10.1,1.54,13.07,4.4v-29.11l-12.71-1.9v-1.19h30.77v1.19l-8.44,2.26v70.21l9.15,2.38Zm-18.77-18.18v-12.83c-.83-7.6-4.16-13.66-13.19-13.66-10.34,0-14.02,8.44-14.02,19.84s3.8,19.6,13.9,19.6c6.18,0,13.31-2.49,13.31-12.95Z"/><path d="M1118.64,398.8v1.19h-18.77v-9.62c-1.78,5.58-6.53,11.52-15.33,11.52-11.52,0-15.45-7.01-15.45-18.3v-27.44l-6.65-2.5v-1.19h23.88v1.19l-7.6,2.5v24.83c0,9.27,2.38,13.31,9.86,13.31s11.29-4.99,11.29-14.26v-23.88l-7.72-2.5v-1.19h25.78v1.19l-8.43,2.38v40.39l9.15,2.38Z"/><path d="M1173.29,382.76h2.14v4.4c0,7.6-1.31,13.78-10.69,13.78-5.35,0-9.62-2.38-9.86-8.67-2.38,5.23-6.77,9.62-14.49,9.62-9.39,0-15.09-5.35-15.09-14.38,0-11.05,7.96-15.56,18.53-15.56,4.75,0,8.32,1.19,11.05,2.85v-9.15c0-7.37-1.66-11.41-9.27-11.41-6.65,0-9.86,3.8-12.95,14.49h-1.78v-16.28c5.58-1.19,11.64-1.9,16.16-1.9,12.95,0,17.46,5.35,17.46,16.75v22.81c0,3.33,1.07,5.23,3.92,5.23,3.56,0,4.87-2.85,4.87-9.03v-3.56Zm-18.41,.95v-4.99c-2.5-2.02-5.94-3.33-9.5-3.33-6.77,0-10.81,3.56-10.81,10.22,0,5.82,3.33,9.27,9.62,9.27,8.67,0,10.69-6.65,10.69-11.17Z"/><path d="M255.97,496.41c2.73,4.63,5.82,8.44,8.44,10.93l-.24,.83c-8.2,0-13.66-4.4-18.3-11.29l-18.41-27.32v-.71c12.95-1.07,21.03-6.18,21.03-16.63s-7.49-14.14-19.84-14.14h-5.35v64.15l12.83,2.97v1.78h-31.25v-1.78l8.08-2.97v-63.56l-8.08-2.97v-1.78h27.56c15.8,0,27.44,4.51,27.44,17.7,0,11.41-9.15,15.8-20.32,17.23l16.39,27.56Z"/><path d="M317.15,489.76h2.14v4.4c0,7.6-1.31,13.78-10.69,13.78-5.35,0-9.62-2.38-9.86-8.67-2.38,5.23-6.77,9.62-14.49,9.62-9.39,0-15.09-5.35-15.09-14.38,0-11.05,7.96-15.56,18.53-15.56,4.75,0,8.32,1.19,11.05,2.85v-9.15c0-7.37-1.66-11.41-9.27-11.41-6.65,0-9.86,3.8-12.95,14.49h-1.78v-16.28c5.58-1.19,11.64-1.9,16.16-1.9,12.95,0,17.46,5.35,17.46,16.75v22.81c0,3.33,1.07,5.23,3.92,5.23,3.56,0,4.87-2.85,4.87-9.03v-3.56Zm-18.41,.95v-4.99c-2.5-2.02-5.94-3.33-9.5-3.33-6.77,0-10.81,3.56-10.81,10.22,0,5.82,3.33,9.27,9.62,9.27,8.67,0,10.69-6.65,10.69-11.17Z"/><path d="M365.62,460.65l-4.16,1.66-.12,.24-20.08,46.22h-1.19l-20.08-46.33-5.23-1.78v-1.19h26.49v1.19l-10.34,1.9,12.95,31.36,13.31-31.48-9.5-1.78v-1.19h17.94v1.19Z"/><path d="M410.89,481.08h-33.74c.83,12,7.01,19.25,17.35,19.25,7.72,0,11.88-2.14,14.49-8.32h1.9c-1.19,7.84-6.3,16.87-19.6,16.87-15.09,0-22.1-11.64-22.1-25.54s7.96-25.78,22.45-25.78,20.67,11.88,19.25,23.52Zm-9.03-3.56c0-8.91-3.45-16.4-12.24-16.4-7.72,0-12.36,5.7-12.59,16.4h24.83Z"/><path d="M477.06,505.8v1.19h-26.38v-1.19l8.43-2.38v-25.19c0-7.84-2.73-12.95-10.93-12.95s-12,5.7-12,15.92v22.22l8.32,2.38v1.19h-26.38v-1.19l8.44-2.38v-38.73h-8.44v-1.07l17.46-5.35v12.24c3.45-8.55,9.86-12.95,17.35-12.95,10.57,0,15.8,7.01,15.8,17.58v28.28l8.32,2.38Z"/><path d="M530.04,489.76h2.14v4.4c0,7.6-1.31,13.78-10.69,13.78-5.35,0-9.62-2.38-9.86-8.67-2.38,5.23-6.77,9.62-14.49,9.62-9.39,0-15.09-5.35-15.09-14.38,0-11.05,7.96-15.56,18.53-15.56,4.75,0,8.32,1.19,11.05,2.85v-9.15c0-7.37-1.66-11.41-9.27-11.41-6.65,0-9.86,3.8-12.95,14.49h-1.78v-16.28c5.58-1.19,11.64-1.9,16.16-1.9,12.95,0,17.46,5.35,17.46,16.75v22.81c0,3.33,1.07,5.23,3.92,5.23,3.56,0,4.87-2.85,4.87-9.03v-3.56Zm-18.41,.95v-4.99c-2.5-2.02-5.94-3.33-9.5-3.33-6.77,0-10.81,3.56-10.81,10.22,0,5.82,3.33,9.27,9.62,9.27,8.67,0,10.69-6.65,10.69-11.17Z"/><path class="cls-1" d="M540.26,473.84c0-3.68,2.97-6.77,6.77-6.77s6.77,3.09,6.77,6.77-3.09,6.77-6.77,6.77-6.77-3.09-6.77-6.77Z"/><path d="M586.12,471.22c13.9-.59,23.05-5.94,23.05-17.58,0-10.46-6.42-15.44-18.3-15.44h-7.84v64.04l12.83,2.97v1.78h-32.43v-1.78l9.27-2.97v-63.56l-9.27-2.97v-1.78h28.39c21.27,0,28.75,6.65,28.75,19.25,0,15.21-11.05,20.32-31.37,20.32h-3.09v-2.26Z"/><path d="M672.72,489.76h2.14v4.4c0,7.6-1.31,13.78-10.69,13.78-5.35,0-9.62-2.38-9.86-8.67-2.38,5.23-6.77,9.62-14.49,9.62-9.39,0-15.09-5.35-15.09-14.38,0-11.05,7.96-15.56,18.53-15.56,4.75,0,8.32,1.19,11.05,2.85v-9.15c0-7.37-1.66-11.41-9.27-11.41-6.65,0-9.86,3.8-12.95,14.49h-1.78v-16.28c5.58-1.19,11.64-1.9,16.16-1.9,12.95,0,17.46,5.35,17.46,16.75v22.81c0,3.33,1.07,5.23,3.92,5.23,3.56,0,4.87-2.85,4.87-9.03v-3.56Zm-18.41,.95v-4.99c-2.5-2.02-5.94-3.33-9.5-3.33-6.77,0-10.81,3.56-10.81,10.22,0,5.82,3.33,9.27,9.62,9.27,8.67,0,10.69-6.65,10.69-11.17Z"/><path d="M716.33,457.56v17.11h-1.78c-1.66-5.35-3.92-7.48-7.96-7.48-7.25,0-9.62,8.08-9.62,16.63v19.6l13.07,2.38v1.19h-31.13v-1.19l8.44-2.38v-38.73h-8.44v-1.07l17.46-6.06v15.33c.59-1.54,1.43-2.97,2.14-4.4,3.8-6.65,9.74-10.93,17.82-10.93Z"/><path d="M810.77,505.92v1.19h-25.78v-1.19l7.84-2.38v-24.71c0-8.79-2.5-13.42-10.69-13.42s-11.52,7.01-11.52,15.68v22.45l8.55,2.38v1.19h-26.73v-1.19l8.55-2.38v-24.71c0-8.08-1.9-13.42-10.81-13.54-8.08-.12-11.41,6.18-11.52,15.21v22.93l8.32,2.38v1.19h-26.38v-1.19l8.44-2.38v-38.73h-9.03v-1.07l18.06-5.35v12.24c3.45-8.55,9.74-13.07,16.87-12.95,8.55,.12,13.78,4.87,15.21,12.71,3.45-7.96,9.27-12.59,16.75-12.59,10.22,0,15.56,7.01,15.56,17.58v28.28l8.32,2.38Z"/><path d="M863.76,489.76h2.14v4.4c0,7.6-1.31,13.78-10.69,13.78-5.35,0-9.62-2.38-9.86-8.67-2.38,5.23-6.77,9.62-14.49,9.62-9.39,0-15.09-5.35-15.09-14.38,0-11.05,7.96-15.56,18.53-15.56,4.75,0,8.32,1.19,11.05,2.85v-9.15c0-7.37-1.66-11.41-9.27-11.41-6.65,0-9.86,3.8-12.95,14.49h-1.78v-16.28c5.58-1.19,11.64-1.9,16.16-1.9,12.95,0,17.46,5.35,17.46,16.75v22.81c0,3.33,1.07,5.23,3.92,5.23,3.56,0,4.87-2.85,4.87-9.03v-3.56Zm-18.41,.95v-4.99c-2.5-2.02-5.94-3.33-9.5-3.33-6.77,0-10.81,3.56-10.81,10.22,0,5.82,3.33,9.27,9.62,9.27,8.67,0,10.69-6.65,10.69-11.17Z"/><path class="cls-1" d="M873.97,473.84c0-3.68,2.97-6.77,6.77-6.77s6.77,3.09,6.77,6.77-3.09,6.77-6.77,6.77-6.77-3.09-6.77-6.77Z"/><path d="M950.36,485.36l1.78,.48-3.33,21.15h-51.68v-1.78l9.27-2.97v-63.56l-9.27-2.97v-1.78h32.43v1.78l-12.83,2.97v64.15h24.24l9.39-17.46Z"/><path d="M1011.55,505.8v1.19h-18.77v-9.62c-1.78,5.58-6.53,11.52-15.33,11.52-11.52,0-15.45-7.01-15.45-18.3v-27.44l-6.65-2.5v-1.19h23.88v1.19l-7.6,2.5v24.83c0,9.27,2.38,13.31,9.86,13.31s11.29-4.99,11.29-14.26v-23.88l-7.72-2.5v-1.19h25.78v1.19l-8.43,2.38v40.39l9.15,2.38Z"/><path d="M1059.19,492.02c-1.43,10.1-7.37,16.87-18.77,16.87-15.44,0-22.22-11.64-22.22-24.35,0-14.61,7.25-26.97,25.07-26.97,5.46,0,9.86,.95,14.26,2.14l1.66,18.18-1.78,.24c-2.85-9.27-7.01-16.99-16.04-16.99-11.52,0-15.33,8.2-15.33,18.53s4.99,20.91,18.41,20.91c6.53,0,11.05-2.85,12.83-8.55h1.9Z"/><path d="M1106.94,492.02c-1.43,10.1-7.37,16.87-18.77,16.87-15.44,0-22.22-11.64-22.22-24.35,0-14.61,7.25-26.97,25.07-26.97,5.46,0,9.86,.95,14.26,2.14l1.66,18.18-1.78,.24c-2.85-9.27-7.01-16.99-16.04-16.99-11.52,0-15.33,8.2-15.33,18.53s4.99,20.91,18.41,20.91c6.53,0,11.05-2.85,12.83-8.55h1.9Z"/><path d="M1161.71,489.76h2.14v4.4c0,7.6-1.31,13.78-10.69,13.78-5.35,0-9.62-2.38-9.86-8.67-2.38,5.23-6.77,9.62-14.49,9.62-9.39,0-15.09-5.35-15.09-14.38,0-11.05,7.96-15.56,18.53-15.56,4.75,0,8.32,1.19,11.05,2.85v-9.15c0-7.37-1.66-11.41-9.27-11.41-6.65,0-9.86,3.8-12.95,14.49h-1.78v-16.28c5.58-1.19,11.64-1.9,16.16-1.9,12.95,0,17.46,5.35,17.46,16.75v22.81c0,3.33,1.07,5.23,3.92,5.23,3.56,0,4.87-2.85,4.87-9.03v-3.56Zm-18.41,.95v-4.99c-2.5-2.02-5.94-3.33-9.5-3.33-6.77,0-10.81,3.56-10.81,10.22,0,5.82,3.33,9.27,9.62,9.27,8.67,0,10.69-6.65,10.69-11.17Z"/><path d="M258.11,560.88h-1.78l-8.79-15.8h-23.76v30.06h17.82l3.92-10.46h1.78v25.07h-1.78l-3.92-10.45h-17.82v31.13l12.12,2.38v1.19h-30.89v-1.19l8.44-2.38v-65.94l-8.44-2.38v-1.19h50.97l2.14,19.96Z"/><path d="M264.05,590.34c0-15.21,8.91-25.66,25.54-25.66s24,11.29,24,25.66c0,15.21-8.91,25.66-24.95,25.66s-24.59-11.29-24.59-25.66Zm39.92,1.66c0-12-5.11-23.64-15.92-23.64s-14.38,9.15-14.38,20.32c0,12.12,5.11,23.64,15.92,23.64s14.38-8.32,14.38-20.32Z"/><path d="M372.16,564.44v6.77h-11.64c3.09,3.33,4.75,7.84,4.75,12.83,0,11.76-7.01,19.84-19.6,20.55v8.2h3.45c11.88,0,19.84,4.99,19.84,15.21,0,12-12,17.58-25.31,17.58-14.26,0-24.71-5.58-24.71-17.58,0-10.22,8.91-15.21,19.84-15.21h2.5v-8.2c-12.83-.71-20.43-7.72-20.43-20.08,0-11.41,7.6-19.84,22.1-19.84,6.06,0,10.93,1.43,14.61,3.92l13.78-4.16h.83Zm-27.44,52.16h-2.38c-8.67,0-13.9,3.56-13.9,12.24,0,8.2,7.49,13.19,15.56,13.19,9.03,0,14.97-5.35,14.97-13.19,0-8.67-5.94-12.24-14.26-12.24Zm10.1-29.34c0-11.52-4.4-18.89-12.83-18.89-7.01,0-10.81,5.23-10.81,13.54,0,12.59,4.51,18.77,12.71,18.77,7.48,0,10.93-5.46,10.93-13.42Z"/><path d="M427.16,564.44v6.77h-11.64c3.09,3.33,4.75,7.84,4.75,12.83,0,11.76-7.01,19.84-19.6,20.55v8.2h3.45c11.88,0,19.84,4.99,19.84,15.21,0,12-12,17.58-25.31,17.58-14.26,0-24.71-5.58-24.71-17.58,0-10.22,8.91-15.21,19.84-15.21h2.5v-8.2c-12.83-.71-20.43-7.72-20.43-20.08,0-11.41,7.6-19.84,22.1-19.84,6.06,0,10.93,1.43,14.61,3.92l13.78-4.16h.83Zm-27.44,52.16h-2.38c-8.67,0-13.9,3.56-13.9,12.24,0,8.2,7.49,13.19,15.56,13.19,9.03,0,14.97-5.35,14.97-13.19,0-8.67-5.94-12.24-14.26-12.24Zm10.1-29.34c0-11.52-4.4-18.89-12.83-18.89-7.01,0-10.81,5.23-10.81,13.54,0,12.59,4.51,18.77,12.71,18.77,7.48,0,10.93-5.46,10.93-13.42Z"/><path d="M459.71,612.8v1.19h-28.99v-1.19l9.86-2.38v-38.73h-9.86v-1.07l19.48-5.35v45.15l9.5,2.38Zm-20.79-60.95c0-3.68,3.09-6.42,6.53-6.42s6.65,2.73,6.65,6.42-3.09,6.53-6.65,6.53-6.53-2.73-6.53-6.53Z"/><path d="M512.46,596.76h2.14v4.4c0,7.6-1.31,13.78-10.69,13.78-5.35,0-9.62-2.38-9.86-8.67-2.38,5.23-6.77,9.62-14.49,9.62-9.39,0-15.09-5.35-15.09-14.38,0-11.05,7.96-15.56,18.53-15.56,4.75,0,8.32,1.19,11.05,2.85v-9.15c0-7.37-1.66-11.41-9.27-11.41-6.65,0-9.86,3.8-12.95,14.49h-1.78v-16.28c5.58-1.19,11.64-1.9,16.16-1.9,12.95,0,17.46,5.35,17.46,16.75v22.81c0,3.33,1.07,5.23,3.92,5.23,3.56,0,4.87-2.85,4.87-9.03v-3.56Zm-18.41,.95v-4.99c-2.5-2.02-5.94-3.33-9.5-3.33-6.77,0-10.81,3.56-10.81,10.22,0,5.82,3.33,9.27,9.62,9.27,8.67,0,10.69-6.65,10.69-11.17Z"/><path class="cls-1" d="M522.68,580.84c0-3.68,2.97-6.77,6.77-6.77s6.77,3.09,6.77,6.77-3.09,6.77-6.77,6.77-6.77-3.09-6.77-6.77Z"/><path d="M605.72,610.54l7.48,2.26v1.19h-30.65v-1.19l12.24-2.38-6.18-18.65h-27.33l-6.18,18.65,12.47,2.38v1.19h-26.14v-1.19l7.96-2.26,24-66.06-9.62-1.78v-1.78h29.46v1.78l-9.98,1.78,22.45,66.06Zm-43.13-22.93h24.59l-12.36-37.07-12.24,37.07Z"/><path d="M706.58,612.92v1.19h-25.78v-1.19l7.84-2.38v-24.71c0-8.79-2.5-13.42-10.69-13.42s-11.52,7.01-11.52,15.68v22.45l8.55,2.38v1.19h-26.73v-1.19l8.55-2.38v-24.71c0-8.08-1.9-13.42-10.81-13.54-8.08-.12-11.41,6.18-11.52,15.21v22.93l8.32,2.38v1.19h-26.38v-1.19l8.44-2.38v-38.73h-9.03v-1.07l18.06-5.35v12.24c3.45-8.55,9.74-13.07,16.87-12.95,8.55,.12,13.78,4.87,15.21,12.71,3.45-7.96,9.27-12.59,16.75-12.59,10.22,0,15.56,7.01,15.56,17.58v28.28l8.32,2.38Z"/><path d="M759.57,596.76h2.14v4.4c0,7.6-1.31,13.78-10.69,13.78-5.35,0-9.62-2.38-9.86-8.67-2.38,5.23-6.77,9.62-14.49,9.62-9.39,0-15.09-5.35-15.09-14.38,0-11.05,7.96-15.56,18.53-15.56,4.75,0,8.32,1.19,11.05,2.85v-9.15c0-7.37-1.66-11.41-9.27-11.41-6.65,0-9.86,3.8-12.95,14.49h-1.78v-16.28c5.58-1.19,11.64-1.9,16.16-1.9,12.95,0,17.46,5.35,17.46,16.75v22.81c0,3.33,1.07,5.23,3.92,5.23,3.56,0,4.87-2.85,4.87-9.03v-3.56Zm-18.41,.95v-4.99c-2.5-2.02-5.94-3.33-9.5-3.33-6.77,0-10.81,3.56-10.81,10.22,0,5.82,3.33,9.27,9.62,9.27,8.67,0,10.69-6.65,10.69-11.17Z"/><path d="M798.89,604c-1.54,5.94-4.63,11.88-13.42,11.88s-13.54-4.16-13.66-13.07v-62.61l-8.43-2.26v-1.19h34.33v1.19l-16.28,1.9v59.88c0,5.82,1.07,9.74,7.84,9.74,3.92,0,6.18-1.66,7.84-5.46h1.78Z"/><path d="M862.21,612.8v1.19h-26.49v-1.19l8.44-2.38v-40.39h-22.45v40.39l8.44,2.38v1.19h-26.49v-1.19l8.44-2.38v-40.39h-8.44v-3.56h8.44v-7.6c0-14.49,6.18-24,21.15-24,6.42,0,11.17,.59,16.28,1.43v19.72h-1.78c-2.73-10.69-5.7-17.7-16.04-17.7-7.84,0-11.88,4.4-11.88,11.88,0,5.58,.95,10.1,1.78,16.28h32.2v43.96l8.44,2.38Z"/><path class="cls-1" d="M870.05,580.84c0-3.68,2.97-6.77,6.77-6.77s6.77,3.09,6.77,6.77-3.09,6.77-6.77,6.77-6.77-3.09-6.77-6.77Z"/><path d="M936.7,540.92h25.19v1.78l-7.49,2.97v43.25c-.12,16.87-9.39,26.97-26.26,26.97s-27.44-8.08-27.44-25.19v-45.03l-8.32-2.97v-1.78h32.2v1.78l-13.54,2.97v43.96c0,13.9,6.42,20.43,19.37,20.43,14.26,0,19.01-8.91,19.01-21.62v-42.77l-12.71-2.97v-1.78Z"/><path d="M1020.58,612.8v1.19h-18.77v-8.55c-2.5,6.18-8.2,10.45-16.51,10.45-14.02,0-19.84-11.52-19.84-25.31,0-15.56,8.08-26.02,23.29-26.02,5.11,0,10.1,1.54,13.07,4.4v-29.11l-12.71-1.9v-1.19h30.77v1.19l-8.44,2.26v70.21l9.15,2.38Zm-18.77-18.18v-12.83c-.83-7.6-4.16-13.66-13.19-13.66-10.34,0-14.02,8.44-14.02,19.84s3.8,19.6,13.9,19.6c6.18,0,13.31-2.49,13.31-12.95Z"/><path d="M1054.43,612.8v1.19h-28.99v-1.19l9.86-2.38v-38.73h-9.86v-1.07l19.48-5.35v45.15l9.5,2.38Zm-20.79-60.95c0-3.68,3.09-6.42,6.53-6.42s6.65,2.73,6.65,6.42-3.09,6.53-6.65,6.53-6.53-2.73-6.53-6.53Z"/><path d="M1117.16,612.8v1.19h-26.38v-1.19l8.43-2.38v-25.19c0-7.84-2.73-12.95-10.93-12.95s-12,5.7-12,15.92v22.22l8.32,2.38v1.19h-26.38v-1.19l8.44-2.38v-38.73h-8.44v-1.07l17.46-5.35v12.24c3.45-8.55,9.86-12.95,17.35-12.95,10.57,0,15.8,7.01,15.8,17.58v28.28l8.32,2.38Z"/><path d="M1163.85,588.08h-33.74c.83,12,7.01,19.25,17.35,19.25,7.72,0,11.88-2.14,14.49-8.32h1.9c-1.19,7.84-6.3,16.87-19.6,16.87-15.09,0-22.1-11.64-22.1-25.54s7.96-25.78,22.45-25.78,20.67,11.88,19.25,23.52Zm-9.03-3.56c0-8.91-3.45-16.4-12.24-16.4-7.72,0-12.36,5.7-12.59,16.4h24.83Z"/></g><g><path class="cls-2" d="M86.13,722.85v5.13h-1.04v-1.81c-.48,1.18-1.45,1.98-3.06,1.98-2.61,0-4.36-2.07-4.36-5.12s1.74-5.13,4.33-5.13c1.93,0,3.35,.88,3.9,2.84h-1.23c-.42-1.17-1.23-1.81-2.68-1.81-1.86,0-3.16,1.56-3.16,4.1s1.27,4.08,3.2,4.08,2.97-1.27,2.98-3.24h-3.24v-1.04h4.36Z"/><path class="cls-2" d="M89.71,727.99h-1.15v-9.91h1.15v9.91Z"/><path class="cls-2" d="M95.74,723.65h-2.01v4.33h-1.16v-9.91h3.81c2.12,0,3.09,1.05,3.09,2.73,0,1.49-.77,2.49-2.49,2.71l2.99,4.46h-1.3l-2.94-4.33Zm-2.01-1.04h2.52c1.35,0,2.06-.66,2.06-1.81s-.74-1.69-2.09-1.69h-2.49v3.5Z"/><path class="cls-2" d="M107.13,725.26h-4.09l-.97,2.73h-1.23l3.66-9.91h1.24l3.54,9.91h-1.23l-.93-2.73Zm-.36-1.04l-1.65-4.87-1.72,4.87h3.38Z"/><path class="cls-2" d="M118.7,718.08v9.91h-1.75l-4.77-8.91v8.91h-1.09v-9.91h1.75l4.79,8.91v-8.91h1.08Z"/><path class="cls-2" d="M129.06,723.04c0,3.05-1.87,4.95-4.51,4.95h-2.98v-9.91h2.98c2.64,0,4.51,1.9,4.51,4.96Zm-1.16,0c0-2.48-1.3-3.92-3.53-3.92h-1.65v7.83h1.65c2.2,0,3.53-1.44,3.53-3.91Z"/><path class="cls-2" d="M132.63,719.13v3.27h4.69v1.04h-4.69v3.5h5.26v1.05h-6.41v-9.91h6.41v1.05h-5.26Z"/><path class="cls-2" d="M147.82,718.08v9.91h-1.75l-4.77-8.91v8.91h-1.09v-9.91h1.75l4.79,8.91v-8.91h1.08Z"/><path class="cls-2" d="M158.56,722.85v5.13h-1.04v-1.81c-.48,1.18-1.45,1.98-3.06,1.98-2.61,0-4.36-2.07-4.36-5.12s1.74-5.13,4.33-5.13c1.93,0,3.35,.88,3.9,2.84h-1.23c-.42-1.17-1.23-1.81-2.68-1.81-1.86,0-3.16,1.56-3.16,4.1s1.27,4.08,3.2,4.08,2.97-1.27,2.98-3.24h-3.24v-1.04h4.36Z"/><path class="cls-2" d="M160.4,723.04c0-3.06,1.76-5.13,4.32-5.13s4.32,2.07,4.32,5.13-1.76,5.12-4.32,5.12-4.32-2.07-4.32-5.12Zm7.48,0c0-2.54-1.24-4.1-3.16-4.1s-3.16,1.56-3.16,4.1,1.24,4.08,3.16,4.08,3.16-1.56,3.16-4.08Z"/><path class="cls-2" d="M182.48,723.04c0,3.05-1.87,4.95-4.51,4.95h-2.98v-9.91h2.98c2.64,0,4.51,1.9,4.51,4.96Zm-1.16,0c0-2.48-1.3-3.92-3.53-3.92h-1.65v7.83h1.65c2.2,0,3.53-1.44,3.53-3.91Z"/><path class="cls-2" d="M186.06,727.99h-1.15v-9.91h1.15v9.91Z"/><path class="cls-2" d="M188.19,725.04h1.22c.18,1.4,1.15,2.09,2.65,2.09,1.59,0,2.32-.74,2.32-1.71,0-.88-.55-1.39-1.63-1.65l-2.16-.51c-1.37-.32-2.11-1.21-2.11-2.51,0-1.6,1.27-2.84,3.32-2.84s3.43,.92,3.64,2.95h-1.22c-.18-1.31-1.08-1.91-2.45-1.91s-2.08,.73-2.08,1.66c0,.71,.34,1.21,1.41,1.47l2.09,.51c1.5,.37,2.39,1.24,2.39,2.66,0,1.74-1.27,2.92-3.54,2.92-2.43,0-3.68-1.12-3.87-3.12Z"/><path class="cls-2" d="M204.7,720.84c0,1.63-1.05,2.82-3.17,2.82h-2.57v4.33h-1.16v-9.91h3.83c2.12,0,3.08,1.05,3.08,2.76Zm-1.16,0c0-1.11-.64-1.72-2.11-1.72h-2.47v3.5h2.47c1.46,0,2.11-.71,2.11-1.78Z"/><path class="cls-2" d="M212.34,726.94v1.05h-5.63v-9.91h1.18v8.86h4.46Z"/><path class="cls-2" d="M219.33,725.26h-4.09l-.97,2.73h-1.23l3.66-9.91h1.24l3.54,9.91h-1.23l-.93-2.73Zm-.36-1.04l-1.65-4.87-1.72,4.87h3.38Z"/><path class="cls-2" d="M229.95,718.08l-3.32,5.88v4.03h-1.16v-4.03l-3.28-5.88h1.26l2.62,4.74,2.62-4.74h1.26Z"/><path class="cls-2" d="M249.6,724.73h-11.55v-1.05h11.55v1.05Z"/><path class="cls-2" d="M261.21,718.08v9.91h-1.18v-7.8c-.48,.47-1.11,.63-2.12,.63v-1.02c1.59-.06,2.06-.69,2.3-1.71h1Z"/><path class="cls-2" d="M270,724.82c0,1.75-1.09,3.34-3.23,3.34-1.93,0-3.28-1.22-3.28-3.03h1.16c.05,1.21,.86,2,2.13,2s2.06-1.02,2.06-2.33-.72-2.26-2.08-2.26c-.82,0-1.39,.37-1.72,.98h-1.34l.36-5.43h5.47v1.02h-4.53l-.21,3.34c.46-.61,1.23-.99,2.17-.99,1.89,0,3.02,1.47,3.02,3.37Z"/><path class="cls-2" d="M271.64,723.05c0-2.99,1.37-5.15,3.71-5.15s3.71,2.16,3.71,5.15-1.37,5.11-3.71,5.11-3.71-2.12-3.71-5.11Zm6.28,0c0-2.48-.9-4.07-2.57-4.07s-2.57,1.59-2.57,4.07,.9,4.03,2.57,4.03,2.57-1.55,2.57-4.03Z"/><path class="cls-2" d="M291.95,720.84c0,1.63-1.05,2.82-3.17,2.82h-2.57v4.33h-1.16v-9.91h3.83c2.12,0,3.08,1.05,3.08,2.76Zm-1.16,0c0-1.11-.64-1.72-2.11-1.72h-2.47v3.5h2.47c1.46,0,2.11-.71,2.11-1.78Z"/><path class="cls-2" d="M300.32,719.1h-3.08v8.88h-1.15v-8.88h-3.09v-1.02h7.31v1.02Z"/><path class="cls-2" d="M301.5,725.04h1.22c.18,1.4,1.15,2.09,2.65,2.09,1.59,0,2.32-.74,2.32-1.71,0-.88-.55-1.39-1.63-1.65l-2.16-.51c-1.37-.32-2.11-1.21-2.11-2.51,0-1.6,1.27-2.84,3.32-2.84s3.43,.92,3.64,2.95h-1.22c-.18-1.31-1.08-1.91-2.45-1.91s-2.08,.73-2.08,1.66c0,.71,.34,1.21,1.41,1.47l2.09,.51c1.5,.37,2.39,1.24,2.39,2.66,0,1.74-1.27,2.92-3.54,2.92-2.43,0-3.68-1.12-3.87-3.12Z"/></g><g><path class="cls-2" d="M1160.56,718.08l-3.77,9.91h-1.03l-3.68-9.91h1.23l2.98,8.37,3.04-8.37h1.23Z"/><path class="cls-2" d="M1163.43,719.13v3.27h4.69v1.04h-4.69v3.5h5.26v1.05h-6.41v-9.91h6.41v1.05h-5.26Z"/><path class="cls-2" d="M1174.18,723.65h-2.01v4.33h-1.16v-9.91h3.81c2.12,0,3.09,1.05,3.09,2.73,0,1.49-.77,2.49-2.49,2.71l2.99,4.46h-1.3l-2.94-4.33Zm-2.01-1.04h2.52c1.35,0,2.06-.66,2.06-1.81s-.74-1.69-2.09-1.69h-2.49v3.5Z"/><path class="cls-2" d="M1179.7,725.04h1.22c.18,1.4,1.15,2.09,2.65,2.09,1.59,0,2.32-.74,2.32-1.71,0-.88-.55-1.39-1.63-1.65l-2.16-.51c-1.37-.32-2.11-1.21-2.11-2.51,0-1.6,1.27-2.84,3.32-2.84s3.43,.92,3.64,2.95h-1.22c-.18-1.31-1.08-1.91-2.45-1.91s-2.08,.73-2.08,1.66c0,.71,.34,1.21,1.41,1.47l2.09,.51c1.5,.37,2.39,1.24,2.39,2.66,0,1.74-1.27,2.92-3.54,2.92-2.43,0-3.68-1.12-3.87-3.12Z"/><path class="cls-2" d="M1190.45,727.99h-1.15v-9.91h1.15v9.91Z"/><path class="cls-2" d="M1192.72,723.04c0-3.06,1.76-5.13,4.32-5.13s4.32,2.07,4.32,5.13-1.76,5.12-4.32,5.12-4.32-2.07-4.32-5.12Zm7.48,0c0-2.54-1.24-4.1-3.16-4.1s-3.16,1.56-3.16,4.1,1.24,4.08,3.16,4.08,3.16-1.56,3.16-4.08Z"/><path class="cls-2" d="M1211.25,718.08v9.91h-1.75l-4.77-8.91v8.91h-1.09v-9.91h1.75l4.79,8.91v-8.91h1.08Z"/><path class="cls-2" d="M1213.38,725.04h1.22c.18,1.4,1.15,2.09,2.65,2.09,1.59,0,2.32-.74,2.32-1.71,0-.88-.55-1.39-1.63-1.65l-2.16-.51c-1.37-.32-2.11-1.21-2.11-2.51,0-1.6,1.27-2.84,3.32-2.84s3.43,.92,3.64,2.95h-1.22c-.18-1.31-1.08-1.91-2.45-1.91s-2.08,.73-2.08,1.66c0,.71,.34,1.21,1.41,1.47l2.09,.51c1.5,.37,2.39,1.24,2.39,2.66,0,1.74-1.27,2.92-3.54,2.92-2.43,0-3.68-1.12-3.87-3.12Z"/><path class="cls-2" d="M1229.84,723.65h-2.01v4.33h-1.16v-9.91h3.81c2.12,0,3.09,1.05,3.09,2.73,0,1.49-.77,2.49-2.49,2.71l2.99,4.46h-1.3l-2.94-4.33Zm-2.01-1.04h2.52c1.35,0,2.06-.66,2.06-1.81s-.74-1.69-2.09-1.69h-2.49v3.5Z"/><path class="cls-2" d="M1237.23,719.13v3.27h4.69v1.04h-4.69v3.5h5.26v1.05h-6.41v-9.91h6.41v1.05h-5.26Z"/><path class="cls-2" d="M1252.68,722.85v5.13h-1.04v-1.81c-.48,1.18-1.45,1.98-3.06,1.98-2.61,0-4.36-2.07-4.36-5.12s1.74-5.13,4.33-5.13c1.93,0,3.35,.88,3.9,2.84h-1.23c-.42-1.17-1.23-1.81-2.68-1.81-1.86,0-3.16,1.56-3.16,4.1s1.27,4.08,3.2,4.08,2.97-1.27,2.98-3.24h-3.24v-1.04h4.36Z"/><path class="cls-2" d="M1262.66,724.13c0,2.68-1.49,4.03-3.83,4.03s-3.84-1.36-3.84-4.03v-6.05h1.15v6.05c0,1.94,1.08,2.95,2.71,2.95s2.67-.96,2.67-2.89v-6.11h1.15v6.05Z"/><path class="cls-2" d="M1271.05,726.94v1.05h-5.63v-9.91h1.18v8.86h4.46Z"/><path class="cls-2" d="M1278.04,725.26h-4.09l-.97,2.73h-1.23l3.66-9.91h1.24l3.54,9.91h-1.23l-.93-2.73Zm-.36-1.04l-1.65-4.87-1.72,4.87h3.38Z"/><path class="cls-2" d="M1285.17,723.65h-2.01v4.33h-1.16v-9.91h3.81c2.12,0,3.09,1.05,3.09,2.73,0,1.49-.77,2.49-2.49,2.71l2.99,4.46h-1.3l-2.94-4.33Zm-2.01-1.04h2.52c1.35,0,2.06-.66,2.06-1.81s-.74-1.69-2.09-1.69h-2.49v3.5Z"/></g></svg>