<svg xmlns="http://www.w3.org/2000/svg" viewBox="0 0 1366 768"><defs><style>.cls-1{fill:#fff;}</style></defs><g id="Layer_1" data-name="Layer 1"><rect width="1366" height="768"/><path class="cls-1" d="M432.43,402.46l-79.89,88.67H301.68L361.86,424H251.36V381.42h111l-60.71-67.63h50.86Z"/><path class="cls-1" d="M622.82,361.19c0,32.48-19.71,56.45-63.38,56.45H513.38v70.83H456.93V307.67h97.45C603.11,307.67,622.82,333.23,622.82,361.19Zm-57,1.33c0-10.92-7.19-20.51-24-20.51H513.38v41.28h28.49C558.64,383.29,565.83,373.7,565.83,362.52Z"/><path class="cls-1" d="M773,400.33v88.14H726.41V471.69a54,54,0,0,1-42.61,20c-31.16,0-49.26-17.85-49.26-41,0-25,18.64-40.48,52.46-43.67l34.61-3.2v-8.52c0-9.85-5.86-15.71-16.24-15.71-10.92,0-16.78,5.06-18.37,13.58H636.67c2.66-26.89,24.23-45.53,68.43-45.53C755.16,347.61,773,370,773,400.33Zm-52.45,42.34V428l-15.71,2.13c-13.32,1.87-20.24,7.73-20.24,17.05,0,9.05,6.66,14.38,16.77,14.38C713.36,461.58,720.55,453.32,720.55,442.67Z"/><path class="cls-1" d="M888.57,350.8v42.34a105.89,105.89,0,0,0-10.65-.53c-17,0-29,9.85-29,29.56v66.3H796.17V350.8H842v24.5c7.73-18.64,22.11-25.83,37.82-25.83C883,349.47,886.44,349.74,888.57,350.8Z"/><path class="cls-1" d="M905.61,306.6c0-13.31,10.92-26.36,28.23-26.36,16.51,0,28.22,13.05,28.22,26.36s-11.71,26.89-28.22,26.89C916.53,333.49,905.61,319.91,905.61,306.6Zm1.87,44.2H960.2V488.47H907.48Z"/><path class="cls-1" d="M978.57,448.26h47.93c1.87,8.26,8.52,12.78,21.31,12.78,12.51,0,17.84-4.52,17.84-11.18,0-4.79-2.93-9.59-10.92-10.92l-34.88-5.32c-26.63-4-39.68-18.38-39.68-40.48,0-25,22.63-45.53,63.37-45.53,38.62,0,64.18,12.78,69,45.53h-47.93c-1.6-9.32-8-14.38-20-14.38s-17.31,4.79-17.31,10.92c0,5.32,3.73,9.32,12.25,10.65l37.55,5.33c27.69,4,38.34,19.17,38.34,39.14,0,28.23-23.43,46.87-68.43,46.87C1004.67,491.67,982.57,476.22,978.57,448.26Z"/><path class="cls-1" d="M422.31,92.71v180.8h-70l-54.59-112.9v112.9H245V92.71H314.2l55.39,115.56V92.71Z"/><path class="cls-1" d="M443.61,183c0-59.38,37-93.47,95.07-93.47S634.27,123.6,634.27,183c0,59.11-37.54,93.73-95.59,93.73S443.61,242.09,443.61,183Zm133.14,0c0-36.48-15.17-52.46-37.81-52.46s-37.81,16-37.81,52.46c0,36.21,15.18,52.72,37.81,52.72S576.75,219.19,576.75,183Z"/><path class="cls-1" d="M832.39,92.71l-62.31,180.8H702.44L641.2,92.71h55.12l39.94,138.46,41-138.46Z"/><path class="cls-1" d="M996.15,92.71v180.8H939.7V154.75c-11.45,6.66-21,7.72-43.94,7.72V127.06c35.68-.54,48.2-18.11,51.13-34.35Z"/><path class="cls-1" d="M1118.37,92.71v180.8h-56.45V154.75c-11.45,6.66-21,7.72-43.94,7.72V127.06c35.69-.54,48.2-18.11,51.13-34.35Z"/><path class="cls-1" d="M252,642h53.79c1.33,12.24,9.85,19.7,29,19.7,20.77,0,27.43-7.46,27.43-16,0-7.72-4-12.78-15.18-14.64l-43.4-7.19c-33.55-5.59-49.8-24.23-49.8-53.79,0-30.62,25.83-58.32,76.69-58.32,50.6,0,77,20.51,80.69,53.79H357.94c-2.13-10.91-10.92-16.77-27.69-16.77-17.05,0-24.77,6.92-24.77,16,0,7.46,4.26,11.72,14.65,13.32l43.93,6.66c35.15,5.32,49.8,25.56,49.8,54.58,0,33-24.23,59.65-79.35,59.65C277.79,698.94,254.89,677.64,252,642Z"/><path class="cls-1" d="M567.77,607.61v88.13h-46.6V679a54,54,0,0,1-42.61,20c-31.15,0-49.26-17.84-49.26-41,0-25,18.64-40.47,52.46-43.67l34.62-3.19v-8.52c0-9.86-5.86-15.72-16.25-15.72-10.91,0-16.77,5.06-18.37,13.59H431.43c2.67-26.9,24.23-45.54,68.44-45.54C549.93,554.88,567.77,577.25,567.77,607.61Zm-52.46,42.33V635.3l-15.71,2.13c-13.31,1.86-20.24,7.72-20.24,17,0,9,6.66,14.38,16.78,14.38C508.12,668.85,515.31,660.59,515.31,649.94Z"/><path class="cls-1" d="M656.71,593.49v54.32c0,8,4,13.32,13.31,13.32a52.17,52.17,0,0,0,11.45-1.07v35.68a227.36,227.36,0,0,1-26.09,1.6c-38.08,0-51.39-15.18-51.39-47.13V593.49H583.75V558.08h20.77V519.2H657v38.88h24.49v35.41Z"/><path class="cls-1" d="M838.85,558.08V695.74H792V675.51c-9.32,16-23.7,23.43-42.34,23.43-30.09,0-49.53-15.44-49.53-51.13V558.08h52.73V647c0,9.59,4.79,16,15.18,16,10.91,0,18.1-9.58,18.1-24.23V558.08Z"/><path class="cls-1" d="M955,558.08v42.34a102.56,102.56,0,0,0-10.66-.54c-17,0-29,9.86-29,29.56v66.3H862.55V558.08h45.8v24.49c7.72-18.64,22.1-25.82,37.81-25.82C949.35,556.75,952.82,557,955,558.08Z"/><path class="cls-1" d="M1114.18,606v89.73h-52.72V612.13c0-12.51-5.86-19.17-16.25-19.17-12,0-19.7,6.92-19.7,25.3v77.48H972.79V558.08h46.86v21.83c8.79-16.51,23.7-25,42.07-25C1091,554.88,1114.18,570.33,1114.18,606Z"/></g></svg>