<?xml version="1.0" encoding="UTF-8"?><svg id="Layer_1" xmlns="http://www.w3.org/2000/svg" viewBox="0 0 1366 768"><defs><style>.cls-1{fill:#fdfaf5;}.cls-2{fill:#12100b;}</style></defs><rect class="cls-2" x="-40.27" y="-79.94" width="1446.07" height="930.38"/><g><path class="cls-1" d="M417.89,83.89v69.15l8.23,1.03v5.71h-29.03v-5.71l8.8-1.03h.23V83.89l-8.8-1.03v-5.71h28.92v5.71l-8.34,1.03Z"/><path class="cls-1" d="M501.26,97.04c-1.14-4.34-2.51-8.8-4.12-13.14h-21.72v69.15l10.63,1.03v5.71h-32.35v-5.71l9.94-1.03V83.89h-22.52c-1.6,4.34-2.97,8.8-4.12,13.14l-5.72-.69,1.94-19.2h71.78l1.94,19.2-5.71,.69Z"/><path class="cls-1" d="M616.48,154.42l-3.2,5.37c-19.43-8.12-31.78-21.6-39.89-37.03h-11.32v30.29l9.6,1.03v5.71h-30.18v-5.71l8.8-1.03V83.89l-8.69-1.03v-5.71h35.78c19.32,0,30.86,8,30.86,22.29,0,12.12-9.26,19.43-21.15,22.06,6.52,13.49,15.43,23.55,29.38,32.92Zm-42.52-38.41c13.72,0,21.37-5.49,21.37-16.57,0-10.52-9.03-15.43-21.95-15.43-2.06,0-7.2,0-11.32-.11v32.12h11.89Z"/><path class="cls-1" d="M705.01,154.08v5.71h-30.18v-5.71l8.8-1.03-7.32-18.4h-33.83l-6.63,18.4,9.72,1.03v5.71h-24.92v-5.71l8.34-1.03,27.43-75.9h9.14l31.43,75.9,8,1.03Zm-31.78-27.09l-14.86-36.69-13.14,36.69h28Z"/><path class="cls-1" d="M731.39,83.89v69.15l8.23,1.03v5.71h-29.03v-5.71l8.8-1.03h.23V83.89l-8.8-1.03v-5.71h28.92v5.71l-8.34,1.03Z"/><path class="cls-1" d="M802.36,138.42c0,13.03-9.72,23.2-28.35,23.2-8.92,0-18.06-2.17-25.38-6.17l-.8-21.03h5.83c1.71,6.4,3.32,11.32,5.03,15.2,4.12,3.31,9.6,4.69,15.66,4.69,9.72,0,16.69-4.92,16.69-14.29,0-6.29-4.12-10.97-11.2-14.29l-17.95-8.46c-8.92-4.23-13.95-10.4-13.95-20.58,0-12.8,10.52-21.26,24.58-21.26,7.2,0,12.92,1.49,17.83,4.46,.46-1.49,.69-2.86,.69-4.46h6.63l.34,23.55h-5.83c-.91-3.2-2.4-8-4-11.66-4.46-3.54-9.03-4.69-14.52-4.69-9.26,0-14.63,3.77-14.63,10.97,0,5.37,3.66,8.92,8,11.09l20,10.17c9.37,4.8,15.32,12.12,15.32,23.55Zm-40.46,16.92l-.46-.69c.23,.23,.34,.46,.46,.69Z"/><path class="cls-1" d="M873.13,140.36l-6.74,19.43h-57.84v-5.71l8.57-1.03V83.89l-8.57-1.03v-5.71h55.67l6.74,19.43-4.69,2.06c-4.34-9.37-10.4-14.75-19.89-14.75h-17.49v30.29h26.29l1.14-6.63h5.6v21.72h-5.6l-1.26-8.34h-26.17v32.12h19.66c9.49,0,15.54-5.37,19.89-14.75l4.69,2.06Z"/><path class="cls-1" d="M937.59,138.42c0,13.03-9.72,23.2-28.35,23.2-8.92,0-18.06-2.17-25.38-6.17l-.8-21.03h5.83c1.71,6.4,3.32,11.32,5.03,15.2,4.12,3.31,9.6,4.69,15.66,4.69,9.72,0,16.69-4.92,16.69-14.29,0-6.29-4.12-10.97-11.2-14.29l-17.95-8.46c-8.92-4.23-13.95-10.4-13.95-20.58,0-12.8,10.52-21.26,24.58-21.26,7.2,0,12.92,1.49,17.83,4.46,.46-1.49,.69-2.86,.69-4.46h6.63l.34,23.55h-5.83c-.91-3.2-2.4-8-4-11.66-4.46-3.54-9.03-4.69-14.52-4.69-9.26,0-14.63,3.77-14.63,10.97,0,5.37,3.66,8.92,8,11.09l20,10.17c9.37,4.8,15.32,12.12,15.32,23.55Zm-40.46,16.92l-.46-.69c.23,.23,.34,.46,.46,.69Z"/><path class="cls-1" d="M266.94,248.25c-5.6,9.26-16.23,17.37-30.86,17.37-24.92,0-40.81-18.97-40.81-43.21s16-42.86,41.26-42.86c6.29,0,12.8,1.14,18.97,4.92l-.92-5.03,6.63-1.03,4.8,22.52-7.32,1.6c-4.46-10.29-10.97-16.57-23.66-16.57-19.2,0-26.86,16.92-26.86,36.69s10.86,34.29,29.72,34.29c10.52,0,17.95-4.69,24.12-12.23l4.92,3.54Z"/><path class="cls-1" d="M314.24,265.62c-24.46,0-41.15-19.55-41.15-43.21s15.2-42.63,40.46-42.86c24.58-.23,41.15,19.66,41.15,42.64s-14.4,43.44-40.46,43.44Zm2.29-6.86c17.95,0,25.26-16.57,25.26-32.81,0-21.72-9.37-39.55-29.38-39.55s-26.4,15.55-26.4,34.52,9.14,37.83,30.52,37.83Z"/><path class="cls-1" d="M442.14,186.86l-8.34,1.03v75.78h-8.92l-49.15-68.24v61.61l8.34,1.03v5.71h-23.78v-5.71l8.8-1.03v-69.15l-8.8-1.03v-5.71h20.23l46.52,65.27v-58.52l-8.8-1.03v-5.71h23.89v5.71Z"/><path class="cls-1" d="M504.75,242.42c0,13.03-9.72,23.2-28.35,23.2-8.92,0-18.06-2.17-25.38-6.17l-.8-21.03h5.83c1.71,6.4,3.32,11.32,5.03,15.2,4.12,3.31,9.6,4.69,15.66,4.69,9.72,0,16.69-4.92,16.69-14.29,0-6.29-4.12-10.97-11.2-14.29l-17.95-8.46c-8.92-4.23-13.95-10.4-13.95-20.58,0-12.8,10.52-21.26,24.58-21.26,7.2,0,12.92,1.49,17.83,4.46,.46-1.49,.69-2.86,.69-4.46h6.63l.34,23.55h-5.83c-.91-3.2-2.4-8-4-11.66-4.46-3.54-9.03-4.69-14.52-4.69-9.26,0-14.63,3.77-14.63,10.97,0,5.37,3.66,8.92,8,11.09l20,10.17c9.37,4.8,15.32,12.12,15.32,23.55Zm-40.46,16.92l-.46-.69c.23,.23,.34,.46,.46,.69Z"/><path class="cls-1" d="M584.17,248.25c-5.6,9.26-16.23,17.37-30.86,17.37-24.92,0-40.81-18.97-40.81-43.21s16-42.86,41.26-42.86c6.29,0,12.8,1.14,18.97,4.92l-.92-5.03,6.63-1.03,4.8,22.52-7.32,1.6c-4.46-10.29-10.97-16.57-23.66-16.57-19.2,0-26.86,16.92-26.86,36.69s10.86,34.29,29.72,34.29c10.52,0,17.95-4.69,24.12-12.23l4.92,3.54Z"/><path class="cls-1" d="M611.15,187.89v69.15l8.23,1.03v5.71h-29.03v-5.71l8.8-1.03h.23v-69.15l-8.8-1.03v-5.71h28.92v5.71l-8.34,1.03Z"/><path class="cls-1" d="M665.86,265.62c-24.46,0-41.15-19.55-41.15-43.21s15.2-42.63,40.46-42.86c24.58-.23,41.15,19.66,41.15,42.64s-14.4,43.44-40.46,43.44Zm2.29-6.86c17.95,0,25.26-16.57,25.26-32.81,0-21.72-9.37-39.55-29.38-39.55s-26.4,15.55-26.4,34.52,9.14,37.83,30.52,37.83Z"/><path class="cls-1" d="M789.76,186.86l-8.34,1.03v47.89c-.11,18.86-10.74,29.72-29.83,29.72s-32.8-8.69-32.92-29.72v-47.89l-8.8-1.03v-5.71h28.92v5.71l-8.34,1.03v47.55c0,13.37,7.43,21.72,23.43,21.72,13.14,0,20.8-6.51,20.8-21.03v-48.24l-8.8-1.03v-5.71h23.89v5.71Z"/><path class="cls-1" d="M850.75,242.42c0,13.03-9.72,23.2-28.35,23.2-8.92,0-18.06-2.17-25.38-6.17l-.8-21.03h5.83c1.71,6.4,3.32,11.32,5.03,15.2,4.12,3.31,9.6,4.69,15.66,4.69,9.72,0,16.69-4.92,16.69-14.29,0-6.29-4.12-10.97-11.2-14.29l-17.95-8.46c-8.92-4.23-13.95-10.4-13.95-20.58,0-12.8,10.52-21.26,24.58-21.26,7.2,0,12.92,1.49,17.83,4.46,.46-1.49,.69-2.86,.69-4.46h6.63l.34,23.55h-5.83c-.91-3.2-2.4-8-4-11.66-4.46-3.54-9.03-4.69-14.52-4.69-9.26,0-14.63,3.77-14.63,10.97,0,5.37,3.66,8.92,8,11.09l20,10.17c9.37,4.8,15.32,12.12,15.32,23.55Zm-40.46,16.92l-.46-.69c.23,.23,.34,.46,.46,.69Z"/><path class="cls-1" d="M939.5,186.86l-8.34,1.03v75.78h-8.92l-49.15-68.24v61.61l8.34,1.03v5.71h-23.78v-5.71l8.8-1.03v-69.15l-8.8-1.03v-5.71h20.23l46.52,65.27v-58.52l-8.8-1.03v-5.71h23.89v5.71Z"/><path class="cls-1" d="M1011.15,244.36l-6.74,19.43h-57.84v-5.71l8.57-1.03v-69.15l-8.57-1.03v-5.71h55.67l6.74,19.43-4.69,2.06c-4.34-9.37-10.4-14.75-19.89-14.75h-17.49v30.29h26.29l1.14-6.63h5.6v21.72h-5.6l-1.26-8.34h-26.17v32.12h19.66c9.49,0,15.54-5.37,19.89-14.75l4.69,2.06Z"/><path class="cls-1" d="M1075.61,242.42c0,13.03-9.72,23.2-28.35,23.2-8.92,0-18.06-2.17-25.38-6.17l-.8-21.03h5.83c1.71,6.4,3.32,11.32,5.03,15.2,4.12,3.31,9.6,4.69,15.66,4.69,9.72,0,16.69-4.92,16.69-14.29,0-6.29-4.12-10.97-11.2-14.29l-17.95-8.46c-8.92-4.23-13.95-10.4-13.95-20.58,0-12.8,10.52-21.26,24.58-21.26,7.2,0,12.92,1.49,17.83,4.46,.46-1.49,.69-2.86,.69-4.46h6.63l.34,23.55h-5.83c-.91-3.2-2.4-8-4-11.66-4.46-3.54-9.03-4.69-14.52-4.69-9.26,0-14.63,3.77-14.63,10.97,0,5.37,3.66,8.92,8,11.09l20,10.17c9.37,4.8,15.32,12.12,15.32,23.55Zm-40.46,16.92l-.46-.69c.23,.23,.34,.46,.46,.69Z"/><path class="cls-1" d="M1140.89,242.42c0,13.03-9.72,23.2-28.35,23.2-8.92,0-18.06-2.17-25.38-6.17l-.8-21.03h5.83c1.71,6.4,3.32,11.32,5.03,15.2,4.12,3.31,9.6,4.69,15.66,4.69,9.72,0,16.69-4.92,16.69-14.29,0-6.29-4.12-10.97-11.2-14.29l-17.95-8.46c-8.92-4.23-13.95-10.4-13.95-20.58,0-12.8,10.52-21.26,24.58-21.26,7.2,0,12.92,1.49,17.83,4.46,.46-1.49,.69-2.86,.69-4.46h6.63l.34,23.55h-5.83c-.91-3.2-2.4-8-4-11.66-4.46-3.54-9.03-4.69-14.52-4.69-9.26,0-14.63,3.77-14.63,10.97,0,5.37,3.66,8.92,8,11.09l20,10.17c9.37,4.8,15.32,12.12,15.32,23.55Zm-40.46,16.92l-.46-.69c.23,.23,.34,.46,.46,.69Z"/><path class="cls-1" d="M140.99,291.89v69.15l8.23,1.03v5.71h-29.03v-5.71l8.8-1.03h.23v-69.15l-8.8-1.03v-5.71h28.92v5.71l-8.34,1.03Z"/><path class="cls-1" d="M238.62,290.86l-8.34,1.03v75.78h-8.92l-49.15-68.24v61.61l8.34,1.03v5.71h-23.78v-5.71l8.8-1.03v-69.15l-8.8-1.03v-5.71h20.23l46.52,65.27v-58.52l-8.8-1.03v-5.71h23.89v5.71Z"/><path class="cls-1" d="M327.24,290.86l-8.23,1.03-29.26,75.78h-4.8l-32.58-75.9-8.23-.92v-5.71h29.49v5.71l-8,1.03,24.35,57.95,22.06-57.95h-.23l-8.8-1.03v-5.71h24.23v5.71Z"/><path class="cls-1" d="M353.7,291.89v69.15l8.23,1.03v5.71h-29.03v-5.71l8.8-1.03h.23v-69.15l-8.8-1.03v-5.71h28.92v5.71l-8.34,1.03Z"/><path class="cls-1" d="M437.06,305.04c-1.14-4.34-2.51-8.8-4.12-13.14h-21.72v69.15l10.63,1.03v5.71h-32.35v-5.71l9.94-1.03v-69.15h-22.52c-1.6,4.34-2.97,8.8-4.11,13.14l-5.72-.69,1.94-19.2h71.78l1.94,19.2-5.72,.69Z"/><path class="cls-1" d="M512.8,348.36l-6.74,19.43h-57.84v-5.71l8.57-1.03v-69.15l-8.57-1.03v-5.71h55.67l6.74,19.43-4.69,2.06c-4.34-9.37-10.4-14.75-19.89-14.75h-17.49v30.29h26.29l1.14-6.63h5.6v21.72h-5.6l-1.26-8.34h-26.17v32.12h19.66c9.49,0,15.54-5.37,19.89-14.75l4.69,2.06Z"/><path class="cls-1" d="M577.26,346.42c0,13.03-9.72,23.2-28.35,23.2-8.92,0-18.06-2.17-25.38-6.17l-.8-21.03h5.83c1.71,6.4,3.32,11.32,5.03,15.2,4.12,3.31,9.6,4.69,15.66,4.69,9.72,0,16.69-4.92,16.69-14.29,0-6.29-4.12-10.97-11.2-14.29l-17.95-8.46c-8.92-4.23-13.95-10.4-13.95-20.58,0-12.8,10.52-21.26,24.58-21.26,7.2,0,12.92,1.49,17.83,4.46,.46-1.49,.69-2.86,.69-4.46h6.63l.34,23.55h-5.83c-.91-3.2-2.4-8-4-11.66-4.46-3.54-9.03-4.69-14.52-4.69-9.26,0-14.63,3.77-14.63,10.97,0,5.37,3.66,8.92,8,11.09l20,10.17c9.37,4.8,15.32,12.12,15.32,23.55Zm-40.46,16.92l-.46-.69c.23,.23,.34,.46,.46,.69Z"/><path class="cls-1" d="M692.71,325.73c0,24.58-16.46,42.06-44.92,42.06h-31.09v-5.71l8.69-1.03v-69.15l-8.69-1.03v-5.71h34.52c26.18,0,41.49,17.26,41.49,40.58Zm-11.66,0c0-19.77-11.32-33.83-32.23-33.83h-11.77v69.15c3.54,.11,7.89,.11,10.4,.11,23.2,0,33.61-13.72,33.61-35.43Z"/><path class="cls-1" d="M718.27,291.89v69.15l8.23,1.03v5.71h-29.03v-5.71l8.8-1.03h.23v-69.15l-8.8-1.03v-5.71h28.92v5.71l-8.34,1.03Z"/><path class="cls-1" d="M816.61,362.08v5.71h-30.18v-5.71l8.8-1.03-7.32-18.4h-33.83l-6.63,18.4,9.72,1.03v5.71h-24.92v-5.71l8.34-1.03,27.43-75.9h9.14l31.43,75.9,8,1.03Zm-31.78-27.09l-14.86-36.69-13.14,36.69h28Z"/><path class="cls-1" d="M886.67,348.36l-6.74,19.43h-57.84v-5.71l8.69-1.03v-69.15l-8.8-1.03v-5.71h28.92v5.71l-8.34,1.03v69.15h19.55c9.49,0,15.54-5.37,19.89-14.75l4.69,2.06Z"/><path class="cls-1" d="M930.89,369.62c-24.46,0-41.15-19.55-41.15-43.21s15.2-42.63,40.46-42.86c24.58-.23,41.15,19.66,41.15,42.64s-14.4,43.44-40.46,43.44Zm2.29-6.86c17.95,0,25.26-16.57,25.26-32.81,0-21.72-9.37-39.55-29.38-39.55s-26.4,15.55-26.4,34.52,9.14,37.83,30.52,37.83Z"/><path class="cls-1" d="M1062.76,333.5l-8.69,.69v27.43c-8.57,5.83-20.23,8-31.09,8-27.32,0-44.01-18.97-44.01-43.21,0-22.63,17.15-41.95,43.55-41.95,8.92,0,15.89,1.14,23.09,4,.34-1.71,.57-3.31,.57-5.03h6.63l.11,26.63h-5.6c-1.49-3.77-3.09-9.26-4.8-13.83-5.49-3.32-11.89-4.8-19.32-4.8-21.49,0-31.32,15.66-31.32,34.06,0,20.35,10.17,36.35,30.98,36.35,6.74,0,13.95-1.6,19.55-4.92v-22.63l-10.86-.8v-6.17h31.21v6.17Z"/><path class="cls-1" d="M1144.23,290.86l-8.34,1.03v47.89c-.11,18.86-10.74,29.72-29.83,29.72s-32.8-8.69-32.92-29.72v-47.89l-8.8-1.03v-5.71h28.92v5.71l-8.34,1.03v47.55c0,13.37,7.43,21.72,23.43,21.72,13.14,0,20.8-6.51,20.8-21.03v-48.24l-8.8-1.03v-5.71h23.89v5.71Z"/><path class="cls-1" d="M1215.06,348.36l-6.74,19.43h-57.84v-5.71l8.57-1.03v-69.15l-8.57-1.03v-5.71h55.67l6.74,19.43-4.69,2.06c-4.34-9.37-10.4-14.75-19.89-14.75h-17.49v30.29h26.29l1.14-6.63h5.6v21.72h-5.6l-1.26-8.34h-26.17v32.12h19.66c9.49,0,15.54-5.37,19.89-14.75l4.69,2.06Z"/><path class="cls-1" d="M205.88,466.08v5.71h-30.18v-5.71l8.8-1.03-7.32-18.4h-33.83l-6.63,18.4,9.72,1.03v5.71h-24.92v-5.71l8.34-1.03,27.43-75.9h9.14l31.43,75.9,8,1.03Zm-31.78-27.09l-14.86-36.69-13.14,36.69h28Z"/><path class="cls-1" d="M293.92,394.86l-8.34,1.03v75.78h-8.92l-49.15-68.24v61.61l8.34,1.03v5.71h-23.78v-5.71l8.8-1.03v-69.15l-8.8-1.03v-5.71h20.23l46.52,65.27v-58.52l-8.8-1.03v-5.71h23.89v5.71Z"/><path class="cls-1" d="M377.45,429.73c0,24.58-16.46,42.06-44.92,42.06h-31.09v-5.71l8.69-1.03v-69.15l-8.69-1.03v-5.71h34.52c26.18,0,41.49,17.26,41.49,40.58Zm-11.66,0c0-19.77-11.32-33.83-32.23-33.83h-11.77v69.15c3.54,.11,7.89,.11,10.4,.11,23.2,0,33.61-13.72,33.61-35.43Z"/><path class="cls-1" d="M481.82,409.04c-1.14-4.34-2.51-8.8-4.12-13.14h-21.72v69.15l10.63,1.03v5.71h-32.35v-5.71l9.94-1.03v-69.15h-22.52c-1.6,4.34-2.97,8.8-4.11,13.14l-5.72-.69,1.94-19.2h71.78l1.94,19.2-5.72,.69Z"/><path class="cls-1" d="M567.86,466.42l-3.2,5.37c-19.43-8.12-31.78-21.6-39.89-37.03h-11.32v30.29l9.6,1.03v5.71h-30.18v-5.71l8.8-1.03v-69.15l-8.69-1.03v-5.71h35.78c19.32,0,30.86,8,30.86,22.29,0,12.12-9.26,19.43-21.15,22.06,6.52,13.49,15.43,23.55,29.38,32.92Zm-42.52-38.41c13.72,0,21.37-5.49,21.37-16.57,0-10.52-9.03-15.43-21.95-15.43-2.06,0-7.2,0-11.32-.11v32.12h11.89Z"/><path class="cls-1" d="M656.39,466.08v5.71h-30.18v-5.71l8.8-1.03-7.32-18.4h-33.83l-6.63,18.4,9.72,1.03v5.71h-24.92v-5.71l8.34-1.03,27.43-75.9h9.14l31.43,75.9,8,1.03Zm-31.78-27.09l-14.86-36.69-13.14,36.69h28Z"/><path class="cls-1" d="M744.42,394.86l-8.34,1.03v75.78h-8.92l-49.15-68.24v61.61l8.34,1.03v5.71h-23.78v-5.71l8.8-1.03v-69.15l-8.8-1.03v-5.71h20.23l46.52,65.27v-58.52l-8.8-1.03v-5.71h23.89v5.71Z"/><path class="cls-1" d="M807.03,450.42c0,13.03-9.72,23.2-28.35,23.2-8.92,0-18.06-2.17-25.38-6.17l-.8-21.03h5.83c1.71,6.4,3.32,11.32,5.03,15.2,4.12,3.31,9.6,4.69,15.66,4.69,9.72,0,16.69-4.92,16.69-14.29,0-6.29-4.12-10.97-11.2-14.29l-17.95-8.46c-8.92-4.23-13.95-10.4-13.95-20.58,0-12.8,10.52-21.26,24.58-21.26,7.2,0,12.92,1.49,17.83,4.46,.46-1.49,.69-2.86,.69-4.46h6.63l.34,23.55h-5.83c-.91-3.2-2.4-8-4-11.66-4.46-3.54-9.03-4.69-14.52-4.69-9.26,0-14.63,3.77-14.63,10.97,0,5.37,3.66,8.92,8,11.09l20,10.17c9.37,4.8,15.32,12.12,15.32,23.55Zm-40.46,16.92l-.46-.69c.23,.23,.34,.46,.46,.69Z"/><path class="cls-1" d="M833.63,395.89v31.43h26.29l1.14-6.63h5.6v21.72h-5.6l-1.26-8.34h-26.17v30.98l12.69,1.03v5.71h-33.15v-5.71l8.69-1.03v-69.15l-8.57-1.03v-5.71h55.67l6.74,19.43-4.69,2.06c-4.34-9.37-10.4-14.75-19.89-14.75h-17.49Z"/><path class="cls-1" d="M921.99,473.62c-24.46,0-41.15-19.55-41.15-43.21s15.2-42.63,40.46-42.86c24.58-.23,41.15,19.66,41.15,42.64s-14.4,43.44-40.46,43.44Zm2.29-6.86c17.95,0,25.26-16.57,25.26-32.81,0-21.72-9.37-39.55-29.38-39.55s-26.4,15.55-26.4,34.52,9.14,37.83,30.52,37.83Z"/><path class="cls-1" d="M1042.27,466.42l-3.2,5.37c-19.43-8.12-31.78-21.6-39.89-37.03h-11.32v30.29l9.6,1.03v5.71h-30.18v-5.71l8.8-1.03v-69.15l-8.69-1.03v-5.71h35.78c19.32,0,30.86,8,30.86,22.29,0,12.12-9.26,19.43-21.15,22.06,6.52,13.49,15.43,23.55,29.38,32.92Zm-42.52-38.41c13.72,0,21.37-5.49,21.37-16.57,0-10.52-9.03-15.43-21.95-15.43-2.06,0-7.2,0-11.32-.11v32.12h11.89Z"/><path class="cls-1" d="M1139.46,395.89v69.15l8.34,1.03v5.71h-28.92v-5.71l8.8-1.03v-69.15l-29.38,75.78h-5.03l-29.61-75.21v68.58l8.34,1.03v5.71h-23.89v-5.71l8.8-1.03v-69.15l-8.8-1.03v-5.71h26.75l24.23,63.78,24.35-63.78h24.35v5.71l-8.34,1.03Z"/><path class="cls-1" d="M1210.64,450.42c0,13.03-9.72,23.2-28.35,23.2-8.92,0-18.06-2.17-25.38-6.17l-.8-21.03h5.83c1.71,6.4,3.32,11.32,5.03,15.2,4.12,3.31,9.6,4.69,15.66,4.69,9.72,0,16.69-4.92,16.69-14.29,0-6.29-4.12-10.97-11.2-14.29l-17.95-8.46c-8.92-4.23-13.95-10.4-13.95-20.58,0-12.8,10.52-21.26,24.58-21.26,7.2,0,12.92,1.49,17.83,4.46,.46-1.49,.69-2.86,.69-4.46h6.63l.34,23.55h-5.83c-.91-3.2-2.4-8-4-11.66-4.46-3.54-9.03-4.69-14.52-4.69-9.26,0-14.63,3.77-14.63,10.97,0,5.37,3.66,8.92,8,11.09l20,10.17c9.37,4.8,15.32,12.12,15.32,23.55Zm-40.46,16.92l-.46-.69c.23,.23,.34,.46,.46,.69Z"/><path class="cls-1" d="M489.67,560.25c-5.6,9.26-16.23,17.37-30.86,17.37-24.92,0-40.81-18.97-40.81-43.21s16-42.86,41.26-42.86c6.29,0,12.8,1.14,18.97,4.92l-.92-5.03,6.63-1.03,4.8,22.52-7.32,1.6c-4.46-10.29-10.97-16.57-23.66-16.57-19.2,0-26.86,16.92-26.86,36.69s10.86,34.29,29.72,34.29c10.52,0,17.95-4.69,24.12-12.23l4.92,3.54Z"/><path class="cls-1" d="M575.3,498.86l-8.34,1.03v47.89c-.11,18.86-10.74,29.72-29.83,29.72s-32.8-8.69-32.92-29.72v-47.89l-8.8-1.03v-5.71h28.92v5.71l-8.34,1.03v47.55c0,13.37,7.43,21.72,23.43,21.72,13.14,0,20.8-6.51,20.8-21.03v-48.24l-8.8-1.03v-5.71h23.89v5.71Z"/><path class="cls-1" d="M646.19,556.36l-6.74,19.43h-57.84v-5.71l8.69-1.03v-69.15l-8.8-1.03v-5.71h28.92v5.71l-8.34,1.03v69.15h19.55c9.49,0,15.54-5.37,19.89-14.75l4.69,2.06Z"/><path class="cls-1" d="M705.57,513.04c-1.14-4.34-2.51-8.8-4.12-13.14h-21.72v69.15l10.63,1.03v5.71h-32.35v-5.71l9.94-1.03v-69.15h-22.52c-1.6,4.34-2.97,8.8-4.12,13.14l-5.72-.69,1.94-19.2h71.78l1.94,19.2-5.71,.69Z"/><path class="cls-1" d="M796.17,498.86l-8.34,1.03v47.89c-.11,18.86-10.74,29.72-29.83,29.72s-32.8-8.69-32.92-29.72v-47.89l-8.8-1.03v-5.71h28.92v5.71l-8.34,1.03v47.55c0,13.37,7.43,21.72,23.43,21.72,13.14,0,20.8-6.51,20.8-21.03v-48.24l-8.8-1.03v-5.71h23.89v5.71Z"/><path class="cls-1" d="M877.29,570.42l-3.2,5.37c-19.43-8.12-31.78-21.6-39.89-37.03h-11.32v30.29l9.6,1.03v5.71h-30.18v-5.71l8.8-1.03v-69.15l-8.69-1.03v-5.71h35.78c19.32,0,30.86,8,30.86,22.29,0,12.12-9.26,19.43-21.15,22.06,6.52,13.49,15.43,23.55,29.38,32.92Zm-42.52-38.41c13.72,0,21.37-5.49,21.37-16.57,0-10.52-9.03-15.43-21.95-15.43-2.06,0-7.2,0-11.32-.11v32.12h11.89Z"/><path class="cls-1" d="M947.08,556.36l-6.74,19.43h-57.84v-5.71l8.57-1.03v-69.15l-8.57-1.03v-5.71h55.67l6.74,19.43-4.69,2.06c-4.34-9.37-10.4-14.75-19.89-14.75h-17.49v30.29h26.29l1.14-6.63h5.6v21.72h-5.6l-1.26-8.34h-26.17v32.12h19.66c9.49,0,15.54-5.37,19.89-14.75l4.69,2.06Z"/></g><g><path d="M65.24,47.72v24.2l3.11,.36v2h-10.97v-2l3.33-.36h.09v-24.2l-3.33-.36v-2h10.93v2l-3.15,.36Z"/><path d="M95.87,72.28v2h-10.93v-2l3.33-.36v-9.88c0-2.92-.91-5.24-3.8-5.24-2.59,0-4.45,1.76-5.88,3.64v11.48l3.15,.36v2h-10.93v-2l3.33-.36v-12.92l-3.41-.16v-1.16l6.61-4h1.25v4h.43c1.77-2,4.23-4.04,7.39-4.04,3.89,0,6.31,2.96,6.31,6.84v11.44l3.15,.36Z"/><path d="M110.94,71.44c-1.34,1.6-4.23,3.48-6.65,3.48-2.94,0-4.62-1.2-4.71-3.96v-14.08h-3.89v-1.52l8.08-5.84h1.12l-.91,4.76h6.61v2.6h-6.61v12.16c0,1.76,.78,2.52,2.33,2.52,1.38,0,2.68-.84,3.54-1.48l1.08,1.36Z"/><path d="M130.8,57.2l-3.84,2.88c-.95-1.52-1.43-2.16-2.46-2.16s-2.03,1.28-3.84,3.84v10.16l3.58,.36v2h-11.36v-2l3.33-.36v-12.92l-3.41-.16v-1.16l6.61-4h1.25v5.36h.35c1.9-2.68,3.67-5.4,5.88-5.4,1.86,0,2.81,1.6,3.93,3.56Z"/><path d="M142.74,53.68c6.78,0,11.23,4.76,11.23,10.68s-4.15,10.56-10.8,10.56c-7.13,0-11.19-5.44-11.19-10.68,0-5.92,4.23-10.56,10.76-10.56Zm-6.35,9.68c0,4.52,2.64,9,7.26,9,3.76,0,5.88-3,5.88-7.12,0-4.96-2.81-9.24-7.26-9.24-3.76,0-5.88,3.08-5.88,7.36Z"/></g><g><path class="cls-1" d="M325.41,695.66c-16.64,0-27.99-12.31-27.99-27.22s10.34-26.86,27.53-27c16.72-.14,27.99,12.38,27.99,26.86s-9.8,27.36-27.53,27.36Zm1.55-4.32c12.21,0,17.19-10.44,17.19-20.67,0-13.68-6.38-24.91-19.98-24.91s-17.96,9.79-17.96,21.75,6.22,23.83,20.76,23.83Z"/><path class="cls-1" d="M400.41,690.9v3.6h-19.67v-3.6l5.99-.65v-18.15c0-5.04-1.63-9.07-6.92-9.07-4.43,0-7.39,2.66-10.58,6.77v20.45l5.68,.65v3.6h-19.67v-3.6l5.99-.65v-39.46l-6.22-.72v-2.16l15.4-7.92,2.57,3.96-3.73,2.16v18.65h.86c3.34-3.89,7.93-7.42,13.76-7.42,7.31,0,10.89,5.4,10.89,12.38v20.52l5.68,.65Z"/><path class="cls-1" d="M466.2,682.26l-4.59,12.24h-39.35v-3.6l5.91-.65v-43.56l-5.99-.65v-3.6h19.67v3.6l-5.68,.65v43.56h13.3c6.45,0,10.58-3.38,13.53-9.29l3.19,1.3Z"/><path class="cls-1" d="M488.02,657.42c12.21,0,20.22,8.57,20.22,19.23s-7.46,19.01-19.44,19.01c-12.83,0-20.14-9.79-20.14-19.23,0-10.66,7.62-19.01,19.36-19.01Zm-11.43,17.43c0,8.14,4.74,16.2,13.06,16.2,6.77,0,10.58-5.4,10.58-12.82,0-8.93-5.05-16.63-13.06-16.63-6.76,0-10.57,5.54-10.57,13.25Z"/><path class="cls-1" d="M543.4,663.76l-6.92,5.18c-1.71-2.74-2.57-3.89-4.43-3.89s-3.65,2.3-6.92,6.91v18.29l6.45,.65v3.6h-20.45v-3.6l5.99-.65v-23.26l-6.14-.29v-2.09l11.9-7.2h2.25v9.65h.62c3.42-4.82,6.61-9.72,10.58-9.72,3.34,0,5.05,2.88,7.08,6.41Z"/><path class="cls-1" d="M587.93,685v4.25l-11.9,6.48h-1.48v-5.54h-.85c-2.96,2.95-7.08,5.47-11.98,5.47-10.96,0-16.95-9.07-16.95-18.43,0-10.95,7.7-19.87,18.51-19.87,3.81,0,7.46,1.22,10.42,2.95v-9.5l-6.22-.72v-2.16l15.4-7.92,2.57,3.96-3.73,2.16v42.05l6.22-3.17Zm-14.23,1.8v-19.37c-2.26-3.1-5.83-5.4-9.95-5.4-7.39,0-11.04,6.05-11.04,13.18,0,7.92,4.04,14.91,12.05,14.91,3.5,0,6.61-1.3,8.94-3.31Z"/><path class="cls-1" d="M603.71,690.18c0,2.66-2.25,4.75-5.13,4.75s-5.05-2.09-5.05-4.75,2.25-4.68,5.05-4.68,5.13,2.09,5.13,4.68Zm-.16-49.68l-2.72,34.13h-4.12l-2.72-34.13h9.56Z"/><path class="cls-1" d="M673.85,662.1l-5.68,.65-12.67,28.44,.08,.07h-.08l-8.71,19.59h-9.25l11.28-16.2-13.84-31.97-5.05-.58v-3.6h19.75v3.6l-5.68,.65h-.08l9.56,23.4,10.11-23.4-5.91-.65v-3.6h16.17v3.6Z"/><path class="cls-1" d="M708.26,687.01c-2.72,4.75-7.78,8.64-15.71,8.64-11.98,0-18.9-8.64-18.9-18.58,0-10.44,6.38-19.73,18.58-19.73,9.25,0,15.71,6.62,15.94,16.56h-26.83c0,7.71,4.35,15.99,13.61,15.99,4.35,0,7.93-1.3,10.81-4.54l2.49,1.66Zm-26.67-16.99h17.65c-.78-4.9-3.34-8.42-8.79-8.42-5.05,0-8.09,4.18-8.86,8.42Z"/><path class="cls-1" d="M713.45,667.36c0-7.06,6.38-10.01,12.83-10.01,5.05,0,7.31,.5,12.21,1.44v11.16h-3.58c-.78-5.62-2.8-8.93-8.71-8.93-3.66,0-5.91,1.8-5.91,4.82s2.1,4.18,4.43,5.18l8.01,3.46c5.05,2.16,8.24,5.33,8.24,10.3,0,6.62-4.74,10.87-13.76,10.87-4.43,0-8.94-.43-13.53-1.8v-11.67h3.5c.54,7.34,4.51,9.43,9.41,9.43,4.35,0,7.46-1.66,7.46-5.04,0-3.17-1.71-4.39-5.13-5.83l-6.92-2.88c-4.28-1.8-8.55-4.32-8.55-10.51Z"/><path class="cls-1" d="M757.44,686.65v5.4l-9.56,13.03h-3.65l5.44-18.43h7.78Z"/><path class="cls-1" d="M813.5,690.9v3.6h-19.67v-3.6l5.99-.65v-23.26l-6.14-.29v-2.09l11.9-7.2h2.26v32.83l5.68,.65Zm-14.31-46.08c0-2.66,2.25-4.75,5.05-4.75s5.13,2.09,5.13,4.75-2.25,4.68-5.13,4.68-5.05-2.09-5.05-4.68Z"/><path class="cls-1" d="M862.26,690.9v3.6h-19.67v-3.6l5.99-.65v-17.79c0-5.26-1.63-9.43-6.84-9.43-4.67,0-8.01,3.17-10.58,6.55v20.67l5.68,.65v3.6h-19.67v-3.6l5.99-.65v-23.26l-6.14-.29v-2.09l11.9-7.2h2.25v7.2h.78c3.19-3.6,7.62-7.27,13.3-7.27,7,0,11.35,5.33,11.35,12.31v20.59l5.68,.65Z"/><path class="cls-1" d="M906.61,685v4.25l-11.9,6.48h-1.48v-5.54h-.86c-2.96,2.95-7.08,5.47-11.97,5.47-10.96,0-16.95-9.07-16.95-18.43,0-10.95,7.7-19.87,18.51-19.87,3.81,0,7.46,1.22,10.42,2.95v-9.5l-6.22-.72v-2.16l15.4-7.92,2.57,3.96-3.73,2.16v42.05l6.22-3.17Zm-14.23,1.8v-19.37c-2.25-3.1-5.83-5.4-9.95-5.4-7.39,0-11.04,6.05-11.04,13.18,0,7.92,4.04,14.91,12.05,14.91,3.5,0,6.61-1.3,8.94-3.31Z"/><path class="cls-1" d="M944.11,687.01c-2.72,4.75-7.78,8.64-15.71,8.64-11.97,0-18.9-8.64-18.9-18.58,0-10.44,6.38-19.73,18.58-19.73,9.25,0,15.71,6.62,15.94,16.56h-26.83c0,7.71,4.35,15.99,13.61,15.99,4.35,0,7.93-1.3,10.81-4.54l2.49,1.66Zm-26.67-16.99h17.65c-.78-4.9-3.34-8.42-8.79-8.42-5.05,0-8.09,4.18-8.87,8.42Z"/><path class="cls-1" d="M982.74,687.01c-2.72,4.75-7.78,8.64-15.71,8.64-11.97,0-18.9-8.64-18.9-18.58,0-10.44,6.38-19.73,18.58-19.73,9.25,0,15.71,6.62,15.94,16.56h-26.83c0,7.71,4.35,15.99,13.61,15.99,4.35,0,7.93-1.3,10.81-4.54l2.49,1.66Zm-26.67-16.99h17.65c-.78-4.9-3.34-8.42-8.79-8.42-5.05,0-8.09,4.18-8.87,8.42Z"/><path class="cls-1" d="M1029.92,685v4.25l-11.9,6.48h-1.48v-5.54h-.85c-2.96,2.95-7.08,5.47-11.98,5.47-10.96,0-16.95-9.07-16.95-18.43,0-10.95,7.7-19.87,18.51-19.87,3.81,0,7.46,1.22,10.42,2.95v-9.5l-6.22-.72v-2.16l15.4-7.92,2.57,3.96-3.73,2.16v42.05l6.22-3.17Zm-14.23,1.8v-19.37c-2.26-3.1-5.83-5.4-9.95-5.4-7.39,0-11.04,6.05-11.04,13.18,0,7.92,4.04,14.91,12.05,14.91,3.5,0,6.61-1.3,8.94-3.31Z"/><path class="cls-1" d="M1036.16,690.9c0-2.66,2.26-4.75,5.05-4.75s5.13,2.09,5.13,4.75-2.25,4.68-5.13,4.68-5.05-2.09-5.05-4.68Z"/></g><g><path d="M1200.18,61.32v10.6l4.45,.36v2h-12.22v-2l3.33-.36v-24.2l-3.28-.36v-2h12.66c6.61,0,11.71,2.4,11.71,7.8s-5.05,8.16-12.53,8.16h-4.1Zm0-13.6v11.24h3.46c5.7,0,8.68-1.64,8.68-5.8s-3.76-5.44-8.73-5.44h-3.41Z"/><path d="M1228.47,53.68c6.78,0,11.23,4.76,11.23,10.68s-4.15,10.56-10.8,10.56c-7.13,0-11.19-5.44-11.19-10.68,0-5.92,4.23-10.56,10.76-10.56Zm-6.35,9.68c0,4.52,2.64,9,7.26,9,3.76,0,5.88-3,5.88-7.12,0-4.96-2.81-9.24-7.26-9.24-3.76,0-5.88,3.08-5.88,7.36Z"/><path d="M1259.59,57.2l-3.85,2.88c-.95-1.52-1.43-2.16-2.46-2.16s-2.03,1.28-3.84,3.84v10.16l3.59,.36v2h-11.36v-2l3.33-.36v-12.92l-3.41-.16v-1.16l6.61-4h1.25v5.36h.35c1.9-2.68,3.67-5.4,5.88-5.4,1.86,0,2.81,1.6,3.93,3.56Z"/><path d="M1276.62,71.44c-1.34,1.6-4.23,3.48-6.65,3.48-2.94,0-4.62-1.2-4.71-3.96v-14.08h-3.89v-1.52l8.08-5.84h1.12l-.91,4.76h6.61v2.6h-6.61v12.16c0,1.76,.78,2.52,2.33,2.52,1.38,0,2.68-.84,3.54-1.48l1.08,1.36Z"/><path d="M1288.26,53.68c6.78,0,11.23,4.76,11.23,10.68s-4.15,10.56-10.8,10.56c-7.13,0-11.19-5.44-11.19-10.68,0-5.92,4.23-10.56,10.76-10.56Zm-6.35,9.68c0,4.52,2.63,9,7.26,9,3.76,0,5.88-3,5.88-7.12,0-4.96-2.81-9.24-7.26-9.24-3.76,0-5.88,3.08-5.88,7.36Z"/></g><g><path class="cls-1" d="M629.69,732.16c0,2.72-2.21,4.9-4.93,4.9s-4.9-2.19-4.9-4.9,2.19-4.93,4.9-4.93,4.93,2.21,4.93,4.93Zm-.83,0c0-2.26-1.85-4.1-4.1-4.1s-4.08,1.85-4.08,4.1,1.82,4.08,4.08,4.08,4.1-1.82,4.1-4.08Zm-1.02,.04c0,1.68-1.29,3.04-3.08,3.04s-3.08-1.36-3.08-3.04h.49c.31,1.5,1.33,2.23,2.59,2.23s2.28-.73,2.59-2.23h.49Zm-4.8-1.68c0-.55,.18-.97,.52-.97s.48,.42,.48,.97-.15,.99-.48,.99-.52-.45-.52-.99Zm2.45,0c0-.55,.15-.97,.48-.97s.52,.42,.52,.97-.18,.99-.52,.99-.48-.45-.48-.99Z"/><path class="cls-1" d="M638.97,732.74h-2.06v4.16h-1.19v-9.51h3.91c2.17,0,3.17,1.01,3.17,2.62,0,1.43-.78,2.4-2.55,2.61l3.07,4.29h-1.33l-3.01-4.16Zm-2.06-.99h2.58c1.39,0,2.12-.63,2.12-1.74s-.76-1.62-2.14-1.62h-2.55v3.36Z"/><path class="cls-1" d="M646.36,728.39v3.14h4.8v1h-4.8v3.36h5.39v1.01h-6.57v-9.51h6.57v1.01h-5.39Z"/><path class="cls-1" d="M659.64,734.28h-4.19l-.99,2.62h-1.26l3.75-9.51h1.27l3.63,9.51h-1.26l-.95-2.62Zm-.36-1l-1.7-4.68-1.76,4.68h3.46Z"/><path class="cls-1" d="M671.29,732.15c0,2.93-1.92,4.75-4.62,4.75h-3.05v-9.51h3.05c2.7,0,4.62,1.82,4.62,4.76Zm-1.19,0c0-2.38-1.33-3.77-3.61-3.77h-1.7v7.52h1.7c2.26,0,3.61-1.39,3.61-3.75Z"/><path class="cls-1" d="M674.77,728.39v3.14h4.8v1h-4.8v3.36h5.39v1.01h-6.57v-9.51h6.57v1.01h-5.39Z"/><path class="cls-1" d="M685.47,732.74h-2.06v4.16h-1.19v-9.51h3.91c2.17,0,3.17,1.01,3.17,2.62,0,1.43-.78,2.4-2.55,2.61l3.07,4.29h-1.33l-3.01-4.16Zm-2.06-.99h2.58c1.39,0,2.12-.63,2.12-1.74s-.76-1.62-2.14-1.62h-2.55v3.36Z"/><path class="cls-1" d="M698.87,732.74h-2.06v4.16h-1.19v-9.51h3.91c2.17,0,3.17,1.01,3.17,2.62,0,1.43-.79,2.4-2.55,2.61l3.07,4.29h-1.33l-3.01-4.16Zm-2.06-.99h2.58c1.39,0,2.12-.63,2.12-1.74s-.76-1.62-2.14-1.62h-2.55v3.36Z"/><path class="cls-1" d="M704.44,732.15c0-2.94,1.81-4.93,4.43-4.93s4.43,1.99,4.43,4.93-1.81,4.92-4.43,4.92-4.43-1.99-4.43-4.92Zm7.66,0c0-2.44-1.28-3.94-3.24-3.94s-3.24,1.5-3.24,3.94,1.28,3.92,3.24,3.92,3.24-1.5,3.24-3.92Z"/><path class="cls-1" d="M725.18,727.38v9.51h-1.19v-8.47l-3.22,8.47h-.77l-3.26-8.49v8.49h-1.19v-9.51h1.93l2.9,7.63,2.9-7.63h1.9Z"/><path class="cls-1" d="M733.36,734.28h-4.19l-1,2.62h-1.26l3.75-9.51h1.28l3.63,9.51h-1.26l-.95-2.62Zm-.36-1l-1.7-4.68-1.77,4.68h3.46Z"/><path class="cls-1" d="M745.14,727.38v9.51h-1.79l-4.89-8.56v8.56h-1.12v-9.51h1.79l4.9,8.56v-8.56h1.11Z"/></g><g><path class="cls-1" d="M661.24,51.16c0,2.72-2.21,4.9-4.93,4.9s-4.9-2.19-4.9-4.9,2.18-4.93,4.9-4.93,4.93,2.21,4.93,4.93Zm-.83,0c0-2.26-1.85-4.1-4.1-4.1s-4.08,1.85-4.08,4.1,1.82,4.08,4.08,4.08,4.1-1.82,4.1-4.08Zm-1.02,.04c0,1.68-1.29,3.04-3.08,3.04s-3.08-1.36-3.08-3.04h.49c.31,1.5,1.33,2.23,2.59,2.23s2.28-.73,2.59-2.23h.49Zm-4.8-1.68c0-.55,.18-.97,.52-.97s.48,.42,.48,.97-.15,.99-.48,.99-.52-.45-.52-.99Zm2.45,0c0-.55,.15-.97,.48-.97s.52,.42,.52,.97-.18,.99-.52,.99-.48-.45-.48-.99Z"/><path class="cls-1" d="M669.69,46.38v9.51h-1.2v-7.49c-.49,.45-1.13,.6-2.17,.6v-.98c1.62-.06,2.12-.66,2.35-1.64h1.02Z"/><path class="cls-1" d="M674.88,46.38v9.51h-1.2v-7.49c-.49,.45-1.13,.6-2.17,.6v-.98c1.62-.06,2.12-.66,2.35-1.64h1.02Z"/><path class="cls-1" d="M683.91,53.58h-1.23v2.31h-1.21v-2.31h-4.78v-.98l4.22-6.22h1.77v6.22h1.23v.98Zm-2.44-.98v-5.32l-3.61,5.32h3.61Z"/><path class="cls-1" d="M696.91,49.03c0,1.57-1.08,2.7-3.25,2.7h-2.63v4.16h-1.19v-9.51h3.92c2.17,0,3.15,1.01,3.15,2.65Zm-1.19,0c0-1.07-.66-1.65-2.16-1.65h-2.54v3.36h2.54c1.5,0,2.16-.69,2.16-1.71Z"/><path class="cls-1" d="M705.61,47.37h-3.15v8.53h-1.18v-8.53h-3.17v-.98h7.49v.98Z"/><path class="cls-1" d="M706.68,53.07h1.25c.18,1.34,1.18,2,2.72,2,1.62,0,2.38-.71,2.38-1.64,0-.84-.56-1.33-1.67-1.58l-2.21-.49c-1.4-.31-2.16-1.16-2.16-2.41,0-1.54,1.3-2.73,3.4-2.73s3.52,.88,3.73,2.83h-1.25c-.18-1.26-1.11-1.83-2.51-1.83s-2.13,.7-2.13,1.6c0,.69,.35,1.16,1.44,1.42l2.14,.49c1.54,.35,2.45,1.19,2.45,2.55,0,1.67-1.3,2.8-3.63,2.8-2.49,0-3.77-1.08-3.96-3Z"/></g><g><path class="cls-1" d="M663.04,608.16c0,2.72-2.21,4.9-4.93,4.9s-4.9-2.19-4.9-4.9,2.19-4.93,4.9-4.93,4.93,2.21,4.93,4.93Zm-.83,0c0-2.26-1.85-4.1-4.1-4.1s-4.08,1.85-4.08,4.1,1.82,4.08,4.08,4.08,4.1-1.82,4.1-4.08Zm-1.02,.04c0,1.68-1.29,3.04-3.08,3.04s-3.08-1.36-3.08-3.04h.49c.31,1.5,1.33,2.23,2.59,2.23s2.28-.73,2.59-2.23h.49Zm-4.8-1.68c0-.55,.18-.97,.52-.97s.48,.42,.48,.97-.15,.99-.48,.99-.52-.45-.52-.99Zm2.45,0c0-.55,.15-.97,.48-.97s.52,.42,.52,.97-.18,.99-.52,.99-.48-.45-.48-.99Z"/><path class="cls-1" d="M674.22,603.38v.97l-3.92,8.54h-1.23l4.01-8.53h-5.03v-.98h6.18Z"/><path class="cls-1" d="M676.59,611.92h5.28v.98h-6.47v-.41c0-1.4,.59-2.45,2.09-3.33l1.89-1.11c.94-.55,1.3-1.15,1.3-1.97,0-1-.6-1.86-1.89-1.86s-2.06,.85-2.14,2.21h-1.15c.07-1.88,1.2-3.21,3.29-3.21,1.96,0,3.08,1.23,3.08,2.86,0,1.04-.32,1.9-1.85,2.82l-2.17,1.29c-.69,.41-1.13,.92-1.26,1.74Z"/><path class="cls-1" d="M695.12,606.03c0,1.57-1.08,2.7-3.25,2.7h-2.63v4.16h-1.19v-9.51h3.92c2.17,0,3.15,1.01,3.15,2.65Zm-1.19,0c0-1.07-.66-1.65-2.16-1.65h-2.54v3.36h2.54c1.5,0,2.16-.69,2.16-1.71Z"/><path class="cls-1" d="M703.81,604.37h-3.15v8.53h-1.18v-8.53h-3.17v-.98h7.49v.98Z"/><path class="cls-1" d="M704.89,610.07h1.25c.18,1.34,1.18,2,2.72,2,1.62,0,2.38-.71,2.38-1.64,0-.84-.56-1.33-1.67-1.58l-2.21-.49c-1.4-.31-2.16-1.16-2.16-2.41,0-1.54,1.3-2.73,3.4-2.73s3.52,.88,3.73,2.83h-1.25c-.18-1.26-1.11-1.83-2.51-1.83s-2.13,.7-2.13,1.6c0,.69,.35,1.16,1.44,1.42l2.14,.49c1.54,.35,2.45,1.19,2.45,2.55,0,1.67-1.3,2.8-3.63,2.8-2.49,0-3.77-1.08-3.96-3Z"/></g></svg>