<svg xmlns="http://www.w3.org/2000/svg" viewBox="0 0 1366 768"><defs><style>.cls-1{fill:#fff;}</style></defs><g id="Layer_1" data-name="Layer 1"><rect width="1366" height="768"/><path class="cls-1" d="M150.88,225.49v23H73.59V136.85h28v88.64Z"/><path class="cls-1" d="M158.61,138c0-8.22,5.92-14.8,15.29-14.8,9,0,15.13,6.58,15.13,14.8a14.65,14.65,0,0,1-15.13,15C164.53,153,158.61,146.23,158.61,138Zm1.64,25.49h27.13v85H160.25Z"/><path class="cls-1" d="M228.17,248.51H201V130.11h27.14Z"/><path class="cls-1" d="M268.79,248.51H241.65V130.11h27.14Z"/><path class="cls-1" d="M367.12,163.49l-49,115.94H289.67L307.59,241l-33.21-77.46h28.78L321.24,214,340,163.49Z"/><path class="cls-1" d="M451.49,204.6H436.36v43.91h-28V136.85h55.09c25.66,0,40.29,14.47,40.29,33.06,0,14.3-7.56,26.31-24.17,31.24l28.45,47.36H477.47Zm-15.13-21h22.53c12.66,0,16.94-6.25,16.94-13.32s-4.28-12.34-17.11-12.34H436.36Z"/><path class="cls-1" d="M597.84,207.56c0,2.64-.16,5.43-.16,5.43h-60c1.48,13.49,8.06,18.09,17.92,18.09,7.24,0,11.35-2.8,13.49-7.4h26.64c-4.11,15.46-18.91,26.8-41.11,26.8-28,0-43.75-18.58-43.75-44.07,0-26.14,17.11-44.89,43.75-44.89C581.89,161.52,598.5,180.76,597.84,207.56ZM570.38,197c-1-9.21-6.08-15.95-15.62-15.95-8.55,0-14.47,5.26-16.61,15.95Z"/><path class="cls-1" d="M606.07,138c0-8.22,5.92-14.8,15.29-14.8,9,0,15.13,6.58,15.13,14.8a14.65,14.65,0,0,1-15.13,15C612,153,606.07,146.23,606.07,138Zm1.64,25.49h27.14v85H607.71Z"/><path class="cls-1" d="M644.38,206.08c0-27.79,18.75-44.56,44.08-44.56s38.64,14,41.6,32.4h-27.3c-1.64-7.57-6.25-11.19-14.63-11.19-9.87,0-16.28,8.23-16.28,23,0,14.64,6.08,23.52,16.44,23.52,8.72,0,12.5-3.78,14.47-11.35H729.9c-3.13,19.24-17.76,32.56-41.44,32.56C663.13,250.48,644.38,233.71,644.38,206.08Z"/><path class="cls-1" d="M823.14,194.08v54.43H796V200c0-11-6.41-16.12-14.3-16.12-8.06,0-14.47,5.43-14.47,15.46v49.17H740.09V130.11h27.14v44.4c4.77-8.39,12.66-13,23.51-13C808.83,161.52,823.14,172.21,823.14,194.08Z"/><path class="cls-1" d="M117.82,389H93.65v48.84h-14V326.22h45.88c25.49,0,37.16,11.84,37.16,30.75,0,16.78-9.2,28.12-29.92,30.59l36,50.32H153.18ZM93.65,377.36h30.26c16.28,0,24.83-7.4,24.83-20.39,0-12.83-8.88-19.07-25.16-19.07H93.65Z"/><path class="cls-1" d="M260.07,352.86v85H247.74v-17.1c-5.43,11.34-15.3,19.07-29.44,19.07-20.88,0-37.33-17.1-37.33-44.4,0-27,16.12-44.56,36.84-44.56,14.47,0,24.17,6.57,29.6,17.1V352.86Zm-13,42.59c0-19.57-11.68-33.22-26.64-33.22-16.45,0-26.31,13.32-26.31,33.22,0,20.06,11,32.89,26.31,32.89C235.57,428.34,247.08,416.17,247.08,395.45Z"/><path class="cls-1" d="M355.29,352.86,303.16,468.79H289l17.44-38.48-31.08-77.45h13.81l24.67,63.64,27.62-63.64Z"/><path class="cls-1" d="M425.5,338.06V374.9h56.41v11.67H425.5V426h63.32v11.84H411.69V326.22h77.13v11.84Z"/><path class="cls-1" d="M574.82,380.32v57.56H562.49V426c-6.91,9.37-16.12,13.81-28.12,13.81-16.44,0-29.6-10.36-29.6-25.32s9.87-23.68,28.45-25.66l28.61-3v-6.08c0-12.5-8.06-17.76-20.06-17.76-12.5,0-20.06,4.93-21.71,16.94H506.91c2.3-18.75,15.62-28.12,34.86-28.12C561.34,350.89,574.82,359.93,574.82,380.32ZM561.67,404.5v-8.88l-26.15,3.28c-12.33,1.48-16.77,7.24-16.77,15.3s6.9,14.47,18.09,14.47C552.29,428.67,561.67,419.13,561.67,404.5Z"/><path class="cls-1" d="M724.14,386.08v51.8H711V387.56c0-16.45-9-24.83-20.89-24.83-11.51,0-22,8.06-22,22.85v52.3h-13V387.56c0-16.45-9.2-24.83-21-24.83-11.52,0-21.88,7.89-21.88,22.85v52.3H599v-85h12.66V364c5.26-8.22,14-13.15,25.33-13.15,12,0,21.7,5.42,26.8,15.45,5.59-9.53,15.62-15.45,28.45-15.45C711.15,350.89,724.14,363.55,724.14,386.08Z"/><path class="cls-1" d="M820.67,400.22H756.54c1.32,18.58,12.5,28,26.64,28,12.66,0,20.06-6.25,22.69-15.13h13.65c-3.29,14.63-14.8,26.8-35.35,26.8-25.82,0-40.95-17.27-40.95-43.58,0-28.44,17.27-45.38,39.47-45.38,25.32,0,38.15,17.1,38.15,45.22A36.32,36.32,0,0,1,820.67,400.22ZM807.19,389c-1.15-18.75-10.85-26.81-24.5-26.81-13.32,0-23.68,8.88-25.82,26.81Z"/><path class="cls-1" d="M834.82,413.05h13c2.14,10.85,9.54,16.11,23,16.11,13.16,0,20.56-5.1,20.56-13.15,0-7.07-3.62-11.51-14.8-13.49l-18.09-3.29c-15-2.79-22.37-10.19-22.37-23,0-13.65,11.51-25.32,31.74-25.32,20.72,0,32.73,10.36,34.86,28.12H889.41c-1.64-11.84-8.88-17.43-21.87-17.43-12.17,0-18.74,6.08-18.74,13.64,0,6.42,3.28,10.53,13.81,12.34l17.76,3.12c17.1,3,23.84,11.68,23.84,23.85,0,14.3-10.19,25.32-33.71,25.32C847.48,439.85,837,428.67,834.82,413.05Z"/><path class="cls-1" d="M141.5,592.05H85.26l-13.48,35.2H68.65l42.76-111.66h2.79l44.4,111.66h-3.12Zm-1.31-3-27.47-68.9-26.31,68.9Z"/><path class="cls-1" d="M173.9,518.38a4.53,4.53,0,1,1,9,0,4.53,4.53,0,1,1-9,0Zm3,23.85h3v85h-3Z"/><path class="cls-1" d="M273.88,576.27v51h-3V577.09c0-20.72-9.7-33.88-28.45-33.88-18.91,0-30.25,13.82-30.25,34.7v49.34h-3v-85h2.79v19.9c4.44-13.49,14.8-21.88,30.42-21.88C262,540.25,273.88,553.41,273.88,576.27Z"/><path class="cls-1" d="M295.92,584.82c0-25.32,13.65-44.57,37-44.57,23.19,0,36.84,19.25,36.84,44.57s-13.65,44.4-36.67,44.4C309.74,629.22,295.92,610.14,295.92,584.82Zm70.88,0c0-23.68-12.34-41.61-33.88-41.61-21.7,0-34,17.93-34,41.61s12.66,41.44,34.21,41.44C354,626.26,366.8,608.5,366.8,584.82Z"/><path class="cls-1" d="M544.89,515.59V627.25h-3v-109l-48.34,109h-3.13l-48.67-108.7v108.7h-3V515.59h4.77L491.94,624l48-108.37Z"/><path class="cls-1" d="M633.7,627.25a189.4,189.4,0,0,1-1.15-22.2c-4.28,13.48-15.62,24.17-34.37,24.17-16.77,0-28.12-10.52-28.12-24.17,0-13.82,8.39-22.86,27.46-25l20.89-2.3c10-1.15,13.64-5.59,13.64-13,0-11.51-9.37-21.55-26.14-21.55h-.33c-15.29,0-27.13,8.23-29.27,25.17h-3.13c2.47-20.4,17.11-28.13,32.4-28.13h.33c18.42,0,29.27,10.2,29.27,25.17v37.65a186.59,186.59,0,0,0,1.48,24.18Zm-1.48-35.2V574.29c-3,3.79-5.59,5.43-15.62,6.58l-19.9,2.3c-17.43,2-23.68,11-23.68,21.88,0,11.84,10.19,21.21,25.49,21.21C619.56,626.26,632.22,610.31,632.22,592.05Z"/><path class="cls-1" d="M694.05,541.41v3a21.33,21.33,0,0,0-3.12-.17c-13.65,0-24.83,12.34-24.83,33.71v49.34h-3v-85h2.63v20.88c2.63-11.67,12.33-21.87,25.81-21.87A13.73,13.73,0,0,1,694.05,541.41Z"/><path class="cls-1" d="M704.58,602.42h3.12c2.63,16,13.65,23.84,30.92,23.84,17.1,0,28.28-6.91,28.28-19.73,0-11-7.07-16.12-21.87-19.24l-18.25-3.95c-14.48-3.13-20.89-8.55-20.89-20.23,0-13.15,10.69-22.86,29.77-22.86,18.91,0,30.42,8.72,32.39,28.13h-3.12c-1.81-17.11-12-25.17-29.27-25.17-17.6,0-26.81,8.39-26.81,19.9,0,9.71,4.94,14.47,18.75,17.43l18.74,4c16.28,3.45,23.52,9.37,23.52,22,0,14.47-12.17,22.69-31.24,22.69S707.37,620.5,704.58,602.42Z"/><path class="cls-1" d="M789.6,518.38a4.52,4.52,0,1,1,9,0,4.52,4.52,0,1,1-9,0Zm3,23.85h3v85h-3Z"/><path class="cls-1" d="M819.2,584.82c0-25.32,13.64-44.57,37-44.57,23.18,0,36.83,19.25,36.83,44.57s-13.65,44.4-36.67,44.4C833,629.22,819.2,610.14,819.2,584.82Zm70.87,0c0-23.68-12.33-41.61-33.87-41.61-21.71,0-34,17.93-34,41.61s12.66,41.44,34.2,41.44C877.25,626.26,890.07,608.5,890.07,584.82Z"/><path class="cls-1" d="M950.1,586.13H905v-3H950.1Z"/><path class="cls-1" d="M1030.35,592.05H974.11l-13.49,35.2H957.5l42.75-111.66h2.8l44.4,111.66h-3.13Zm-1.32-3-27.46-68.9-26.31,68.9Z"/><path class="cls-1" d="M1121,612c-5.59,11-14.8,17.27-30.92,17.27-20.06,0-31.41-12.17-31.41-27.3,0-15.62,11.68-26.8,32.07-26.8,15,0,25.65,6.41,30.09,16.61V570.35c0-17.6-9-27.14-26.47-27.14-13.82,0-25,6.25-28.45,20.4h-3.12c3.61-15.46,15.78-23.36,31.57-23.36,19.57,0,29.43,11.68,29.43,29.77v57.23H1121Zm-.17-9.53c0-13.82-11.84-24.51-29.6-24.51-18.74,0-29.43,10-29.43,24,0,13.65,10.69,24.5,29.27,24.5C1109,626.42,1120.79,614.42,1120.79,602.42Z"/><path class="cls-1" d="M1155.16,627.25h-3V508.85h3Z"/><path class="cls-1" d="M1191.51,545.19v64.13c0,13,7.23,15.95,14.8,15.95a46.9,46.9,0,0,0,6.9-.49v2.8a29.45,29.45,0,0,1-7.23.65c-9.7,0-17.43-4.93-17.43-18.25V545.19h-15.46v-3h15.46v-24h3v24h21.7v3Z"/><path class="cls-1" d="M1226,584.82c0-25.32,13.65-44.57,37-44.57,23.19,0,36.84,19.25,36.84,44.57s-13.65,44.4-36.68,44.4C1239.85,629.22,1226,610.14,1226,584.82Zm70.88,0c0-23.68-12.34-41.61-33.88-41.61-21.71,0-34,17.93-34,41.61s12.66,41.44,34.2,41.44C1284.09,626.26,1296.92,608.5,1296.92,584.82Z"/></g></svg>