<?xml version='1.0' encoding='UTF-8'?>
<svg xmlns="http://www.w3.org/2000/svg" xmlns:xlink="http://www.w3.org/1999/xlink" width="1366px" height="768px" viewBox="0 0 1366 768" x="0px" y="0px" enable-background="new 0 0 1366 768"><defs><symbol overflow="visible" id="e84aa394a"><path d="M55.88-45.4c26-1.35 42.28-13.96 42.28-36.85 0-21.55-12.99-34.16-42.86-34.16H11.64V0h15.13v-43.27h9.9L79.34 0h21.35zM26.77-57.62v-43.84h26.57c20.38 0 28.72 6.8 28.72 20.95 0 15.14-10.86 22.9-30.26 22.9zm0 0"/></symbol><symbol overflow="visible" id="e84aa394b"><path d="M19.4-41.7h63.24c.4-2.72.58-5.05.58-7.38 0-22.51-10.47-41.33-36.27-41.33-31.43 0-41.51 23.68-41.51 47.53 0 29.49 17.84 45.99 42.28 45.99 13.58 0 26.19-5.05 32.8-13.97V-25.8c-8.74 9.32-20.2 13.58-31.83 13.58-17.06 0-28.52-10.1-29.28-29.48zm.38-10.88c1.95-15.9 9.52-25.6 26.4-25.6 17.26 0 23.66 11.24 24.43 25.6zm0 0"/></symbol><symbol overflow="visible" id="e84aa394c"><path d="M66.16-23.28c0-13.4-7.57-18.42-18.05-22.31l-16.69-6.2c-8.53-3.12-12.4-7-12.4-13 0-8.74 7.56-11.07 16.48-11.07 11.25 0 21.53 3.9 28.13 11.84v-14.93c-6.2-6.6-17.46-11.46-28.91-11.46-16.28 0-29.88 7.77-29.88 25.8 0 12.42 7.58 19.6 18.83 23.48l17.06 6.02c7.77 2.72 11.25 5.05 11.25 11.83 0 8.16-6.78 12.22-17.26 12.22-10.08 0-22.11-5.24-29.67-13.97V-9.7c6.6 7.95 18.8 12.8 30.06 12.8 19.98 0 31.05-10.08 31.05-26.38zm0 0"/></symbol><symbol overflow="visible" id="e84aa394d"><path d="M66.55-61.3v14.94h35.1v19.97c-5.62 8.16-18.23 13.2-33.17 13.2-29.48 0-44.8-17.86-44.8-45.98 0-25.22 15.32-43.64 44.8-43.64 16.88 0 28.52 3.48 43.85 17.84v-17.26c-9.9-10.68-27.55-16.88-43.66-16.88-38.8 0-59.94 25.6-59.94 61.48 0 36.1 21.14 60.74 56.85 60.74 22.3 0 42.1-9.13 51.01-26.78V-61.3zm0 0"/></symbol><symbol overflow="visible" id="e84aa394e"><path d="M37.05-90.4c-12.8 0-23.08 6.4-30.64 14.93v15.9c8.34-10.27 17.84-16.48 28.3-16.48 14.18 0 20.38 6.99 20.59 20.96C28.13-49.3 5.8-43.27 5.8-20.95c0 14.36 8.74 22.89 22.9 22.89 12.41 0 21.34-6.4 26.59-16.49V0h13.58v-55.88c0-21.34-8.35-34.53-31.83-34.53zm-3.1 79.54c-7.56 0-12.6-4.08-12.6-11.84 0-13 13.37-16.88 33.95-21.14v7.17c0 15.53-8.35 25.81-21.35 25.81zm0 0"/></symbol><symbol overflow="visible" id="e84aa394f"><path d="M76.44-126.1v50.83C70.24-84.2 59.95-90.4 46.56-90.4c-28.12 0-41.12 22.13-41.12 46.96 0 25.8 12.4 46.56 39.58 46.56 15.12 0 25.8-7.19 31.8-17.86L77.42 0h12.22v-126.1zM48.5-11.05c-19.02 0-29.3-12.4-29.3-32.2 0-20.57 9.52-32.97 28.52-32.97 16.89 0 28.72 10.65 28.72 32.39v.78c0 19.78-11.06 32-27.94 32zm0 0"/></symbol><symbol overflow="visible" id="e84aa394N"><path d="M69.64-87.3L44.62-29.88 19.02-87.3H3.3l35.1 77.2-20.95 45.8h10.68L84-87.3zm0 0"/></symbol><symbol overflow="visible" id="e84aa394g"><path d="M72.75-56.64v3.1l33.75 2.9v32.4c-5.63 9.7-16.88 16.3-34.14 16.3-35.11 0-46.56-31.43-46.56-61.1 0-33.77 14.75-61.5 46.95-61.5 25.8 0 37.83 16.68 45.98 40.15l3.88-.58-2.72-38.03c-15.52-3.88-29.3-6.4-46.17-6.4-43.84 0-67.9 26.78-67.9 66.35 0 37.83 19.98 66.16 65.77 66.16 14.16 0 26.96-4.08 37.05-13.97L122.8 0h2.92v-45.02V-56.64zm0 0"/></symbol><symbol overflow="visible" id="e84aa394h"><path d="M35.31-50.83c0-13.97 5.05-22.31 16.3-22.31 6.02 0 13 .78 18.03 1.75v-19.02c-18.62 0-25.8 9.32-31.23 18.05-.97 1.36-1.94 3.3-3.1 5.42V-90.2l-2.14-1.36-25.22 8.92-.18 2.33c5.03 4.26 7.56 7.17 11.04 12.8v62.28l-13.58.57V0h48.5v-4.66l-18.42-.57zm0 0"/></symbol><symbol overflow="visible" id="e84aa394i"><path d="M91.19-73.53V-87.3H60.72c-4.84-1.93-10.67-3.1-17.66-3.1-22.1 0-35.3 11.06-35.3 29.48 0 13.97 7.96 25.03 23.47 28.33a474.03 474.03 0 00-14.15 9.89c-3.9 2.92-7.77 6.4-7.77 10.48 0 4.27 4.08 7.56 10.67 8.14l5.82.6C13.4 3.69 6.4 11.64 6.4 20.95c0 13.77 14.16 20.75 37.63 20.75C71.2 41.7 91.2 26.97 91.2 6.8c0-13.6-10.1-20.2-25.24-21.55l-23.08-2.13c-10.85-.96-15.9-1.35-15.9-4.65 0-2.53 6.4-7.56 9.89-10.1 1.75.2 3.5.2 5.23.2 22.32 0 35.13-10.87 35.13-29.1 0-9.5-3.11-17.66-10.1-23.08zM44.03-36.28C31.63-36.28 26-48.31 26-66.34c0-10.1 3.48-19.2 15.52-19.41 12.8.2 18.23 12.81 18.23 30.45 0 11.64-4.45 19.02-15.72 19.02zM58.78-.58C69.64.4 76.05 4.84 76.05 14.94c0 14.75-12.8 22.31-28.52 22.31-16.48 0-26.97-7.56-26.97-21.14 0-7.77 4.27-14.36 9.5-19.22zm0 0"/></symbol><symbol overflow="visible" id="e84aa394j"><path d="M88.08-12.8c-2.9 2.7-5.05 3.49-7.95 3.49-6.41 0-7.96-3.69-7.96-13.4l1.36-36.26c.77-21.16-9.7-31.44-29.3-31.44C26.4-90.4 13-78.77 7.95-63.05l3.88.97c5.04-9.51 12.42-16.87 25.42-16.87 13.77 0 20.56 7.95 19.98 22.5l-.39 8.92c-7.95 1.17-18.43 2.9-23.47 4.26-16.89 4.47-25.23 13-25.23 25.61 0 13.2 8.55 20.77 21.16 20.77C39.77 3.1 49.28-2.33 55.67-13c1.95 9.7 6.61 15.14 14.94 15.14 7.77 0 14.94-5.44 19.4-12.81zM37.64-8.14c-8.34 0-13-5.83-13-14.17 0-9.11 6.4-15.72 18.05-18.24 4.84-.97 9.69-1.93 13.95-2.51l-.77 17.65C54.13-15.12 46.95-8.14 37.64-8.14zm0 0"/></symbol><symbol overflow="visible" id="e84aa394k"><path d="M62.47-87.3v3.3c10.67 1.36 12.42 6.6 9.31 14.16l-19.6 48.3-18.23-45.98c-3.68-9.1-3.5-15.9 5.42-16.48v-3.3H2.15v3.3c6.4.58 9.11 4.84 10.86 9.1C24.06-47.71 32.6-28.11 43.45-.96l-4.08 8.92C33.58 19.41 24.26 19.6 10.1 19.6v19.2c14.74 0 23.47-9.1 28.32-18.23 2.53-4.65 3.5-6.78 6.01-11.83L78.2-71.2c3.87-9.32 5.62-11.44 11.64-12.8v-3.3zm0 0"/></symbol><symbol overflow="visible" id="e84aa394p"><path d="M98.16-83.6v-3.7H66.34v1.75c1.94 1.55 3.5 4.07 3.5 6.78 0 3.7-4.07 7.77-7.18 10.29L35.3-46.36v-95.84l-2.14-1.36-25.22 8.92-.18 2.33A46.71 46.71 0 0118.8-119.5V-5.23l-13.58.57V0H48.9v-4.66l-13.58-.57v-36.29l7.56-6.2L73.53-6.59c1.94 2.51 2.9 4.45 2.9 6.59H97.2L54.52-56.84 72.17-71.4c9.5-7.17 18.63-11.83 25.99-12.22zm0 0"/></symbol><symbol overflow="visible" id="e84aa394t"><path d="M161.8-127.66v4.86c15.9.2 17.07 3.3 13.76 13.38l-28.31 84.98-28.72-85.36c-2.9-8.73 1.94-11.64 12.81-13v-4.86H81.48v4.86c8.14.77 13.38 3.49 16.68 11.05l4.47 13-30.27 75.66-32.4-88.85c-2.32-6.98.98-9.89 13-10.86v-4.86H1.95v4.86c8.92.77 14.94 2.9 18.43 11.64L62.48 0h18.42l-6.2-17.08 30.45-74.69L137.36 0h18.03l-5.81-17.45 32.2-93.7c2.9-8.55 7.17-11.65 17.06-11.65v-4.86zm0 0"/></symbol><symbol overflow="visible" id="e84aa394m"><path d="M89.63-29.69c-4.27 7.77-12.22 19.4-16.88 19.4-3.48 0-2.9-2.9-2.33-7.76L82.64-87.3H69.27c-6.22-1.93-12.43-3.1-17.47-3.1-31.63 0-46.17 37.43-46.17 67.7 0 14.56 6.01 25.8 18.62 25.8 14.94 0 25.03-17.85 33.17-40.15h.78l-3.5 19a47.24 47.24 0 00-1.36 10.1c0 6.4 3.11 11.06 8.94 11.06 13.19 0 26.38-20.56 30.64-31.23zM62.47-61.5C59.57-45.4 44.63-6.02 30.66-6.02c-6.41 0-9.7-7.76-9.7-20.17 0-15.14 7.95-61.1 28.5-61.1 6.8 0 12.23 4.84 15.91 9.7zm0 0"/></symbol><symbol overflow="visible" id="e84aa394n"><path d="M72.17-90.4c-4.08 0-7.19 3.87-7.19 7.76 0 6.98 7.58 12.8 7.58 21.72 0 14.75-7.58 35.7-18.44 53.94-2.51-13-7.56-36.68-13.76-55.49C35.5-76.23 33.17-90.4 22.7-90.4h-.39C11.06-90 4.47-69.64.78-59.17l3.3.78c4.26-9.31 8.14-18.63 12.4-18.63 3.5 0 5.63 7.96 7.96 14.55C30.45-43.84 38.22-12.22 42.87 9.9c-10.67 13.78-22.5 23.48-32.4 23.48-6.6 0-6.2-13.59-17.06-13.59-12.61 0-15.33 22.13 7.95 22.13 32.6 0 68.1-57.03 77.4-103.2 1.55-7.59 2.33-14.94 2.33-17.87 0-5.42-2.32-11.25-8.92-11.25zm0 0"/></symbol><symbol overflow="visible" id="e84aa394o"><path d="M34.34-84.97c11.83 0 13.58 11.64 21.93 11.64 4.26 0 6.59-2.72 6.59-6.4 0-7.18-11.25-10.68-23.1-10.68-20.74 0-28.12 14.18-28.12 23.47 0 7.77 3.11 14.75 8.14 20.38L32.6-32.2c4.66 5.23 10.47 11.64 10.47 19.01 0 7.17-4.84 11.44-11.64 11.44-12.8 0-14.55-14.73-23.08-14.73-4.07 0-6.8 2.7-6.8 6.59 0 9.31 14.37 13 26.79 13 16.48 0 27.34-9.52 27.34-24.45 0-10.47-5.81-17.27-10.65-22.5L30.27-59.95c-4.08-4.46-6.41-8.33-6.41-14.16 0-6.6 4.08-10.86 10.48-10.86zm0 0"/></symbol><symbol overflow="visible" id="e84aa394q"><path d="M53.16-41.13c18.23-6.21 28.9-18.43 28.9-32.98 0-9.89-5.83-16.3-16.1-16.3-12.41 0-22.3 9.13-29.88 23.68l8.94-49.47 4.06-21.35-1.16-1.36-31.44 5.24-.18 2.53 14.93 6.4-1.75 11.26L8.92 0h15.14l6.6-36.67c2.32-.19 4.65-.38 6.78-.77l-.4.19C47.15-23.09 58-8.15 65.78 3.11L83.22 0C72.56-13 62.86-26.77 53.16-41.13zm-19.99-9.3c5.44-17.48 14.94-31.63 24.64-31.63 5.63 0 8.14 3.5 8.14 8.92 0 14.17-16.67 31.05-34.72 33.77zm0 0"/></symbol><symbol overflow="visible" id="e84aa394r"><path d="M92.34-94.28c-8.34 0-14.54 6.6-18.8 12.22-4.87-5.24-12.62-8.35-22.52-8.35-22.3 0-40.16 14.18-40.16 34.93 0 10.67 6.98 19.59 18.62 22.7L15.72-22.9c-4.66 3.3-7.95 6.6-7.95 10.86 0 4.47 3.68 8.73 16.09 9.7-12.8 5.44-27.16 12.8-27.16 26 0 11.25 11.07 18.24 30.85 18.24 30.84 0 54.7-17.08 54.7-38.03 0-11.25-8.34-17.46-21.53-18.63l-22.69-2.13c-10.3-.96-14.56-1.35-14.56-4.26 0-3.11 6.8-7.58 11.25-10.67 1.56.18 3.31.39 5.05.39 22.7 0 39.96-11.27 39.96-33.77 0-5.23-1.36-9.89-3.68-13.76 2.14-2.33 4.08-3.7 6.8-3.7 4.06 0 5.42 5.43 11.04 5.43 4.27 0 7.38-3.87 7.38-8.72 0-4.86-3.3-8.34-8.93-8.34zM41.7-35.11c-9.89 0-12.6-8.16-12.6-14.94 0-15.14 6.4-37.25 21.15-37.25 8.92 0 11.44 8.53 11.44 14.74 0 17.08-6.02 37.45-19.99 37.45zM50.83-.58c9.5.58 14.94 5.05 14.94 12.8 0 16.1-15.52 25.03-30.66 25.03-15.52 0-25.02-5.23-25.02-15.72 0-9.89 8.72-17.66 18.63-23.47zm0 0"/></symbol><symbol overflow="visible" id="e84aa394s"><path d="M77.02-90.4c-4.08 0-7.18 3.87-7.18 7.76 0 6.98 7.57 12.8 7.57 21.72 0 19.01-17.27 52.39-36.47 52.39-5.05 0-9.52-3.9-9.52-11.06 0-6.41 9.31-34.53 11.64-49.68.4-2.9 1.17-6.59 1.17-10.07 0-6.41-3.1-11.07-8.92-11.07-13.2 0-26.39 20.57-30.65 31.24l3.3 1.55c4.26-7.76 12.21-19.4 17.07-19.4 3.3 0 2.9 4.27 2.13 7.75-2.33 13.79-12.41 45.2-12.41 53.94 0 10.86 6.02 18.24 15.13 18.24 24.64 0 46.95-30.85 53.73-64.2 1.56-7.59 2.33-14.94 2.33-17.87 0-5.42-2.33-11.25-8.92-11.25zm0 0"/></symbol><symbol overflow="visible" id="e84aa394u"><path d="M5.83-1.67v-8.4H4.8v8.43L.45-5.66v1.43L5.31.14l4.85-4.37v-1.43zm0 0"/></symbol><symbol overflow="visible" id="e84aa394w"><path d="M4.69.17C7.1.17 8.47-1 8.47-2.73c0-1.43-.95-2.3-2.55-2.66L3.7-5.91c-1.14-.26-1.5-.75-1.5-1.46 0-.94.78-1.66 2.22-1.66 1.45 0 2.42.6 2.6 1.9h1.3c-.22-2.03-1.73-2.95-3.87-2.95-2.19 0-3.55 1.25-3.55 2.85 0 1.3.78 2.18 2.25 2.51l2.3.5c1.15.27 1.73.78 1.73 1.66 0 .95-.78 1.7-2.48 1.7-1.6 0-2.63-.69-2.83-2.08H.56C.76-.95 2.1.17 4.7.17zm0 0"/></symbol><symbol overflow="visible" id="e84aa394x"><path d="M8.17-8.84v-1.07H1.34V0h6.83v-1.05h-5.6v-3.5h5v-1.03h-5v-3.26zm0 0"/></symbol><symbol overflow="visible" id="e84aa394y"><path d="M7.86 0h1.39l-3.2-4.45C7.89-4.67 8.7-5.7 8.7-7.17c0-1.67-1.03-2.74-3.3-2.74H1.35V0h1.24v-4.33h2.14zM2.58-8.86h2.65c1.44 0 2.24.55 2.24 1.69 0 1.15-.77 1.81-2.2 1.81h-2.7zm0 0"/></symbol><symbol overflow="visible" id="e84aa394z"><path d="M2.56-9.9H1.34V0h1.22zm0 0"/></symbol><symbol overflow="visible" id="e84aa394A"><path d="M8.17-8.84v-1.07H1.34V0h1.22v-4.55h4.92v-1.03H2.56v-3.26zm0 0"/></symbol><symbol overflow="visible" id="e84aa394B"><path d="M5.1-5.13v1.04h3.45C8.53-2.13 7.33-.86 5.35-.86c-2.04 0-3.4-1.5-3.4-4.08 0-2.54 1.4-4.1 3.38-4.1 1.53 0 2.39.65 2.84 1.8h1.31c-.57-1.96-2.09-2.84-4.15-2.84-2.77 0-4.61 2.11-4.61 5.14C.72-1.89 2.58.17 5.36.17c1.72 0 2.76-.8 3.26-1.98V0h1.1l.01-5.13zm0 0"/></symbol><symbol overflow="visible" id="e84aa394C"><path d="M9.4-9.9H8.18v6.1c0 1.94-1.19 2.9-2.84 2.9-1.74 0-2.88-1-2.88-2.94v-6.07H1.22v6.07c0 2.65 1.6 4.01 4.1 4.01 2.5 0 4.09-1.34 4.09-4.01zm0 0"/></symbol><symbol overflow="visible" id="e84aa394D"><path d="M2.6-1.05V-9.9H1.33V0h6v-1.05zm0 0"/></symbol><symbol overflow="visible" id="e84aa394E"><path d="M7.83 0h1.31L5.36-9.9H4.03L.13 0h1.3l1.05-2.72h4.36zM2.86-3.77l1.83-4.86 1.76 4.86zm0 0"/></symbol><symbol overflow="visible" id="e84aa394F"><path d="M8.31-9.9v8.92l-5.1-8.93H1.33V0H2.5v-8.9L7.6 0h1.87v-9.9zm0 0"/></symbol><symbol overflow="visible" id="e84aa394G"><path d="M9.14-7.23l-.72-.72-6.4 6.4v-5.83l-1.04 1L1.05.14 7.56.2 8.58-.8H2.72zm0 0"/></symbol><symbol overflow="visible" id="e84aa394H"><path d="M6.78-5.14a2.26 2.26 0 001.78-2.14c0-1.64-1.04-2.63-3.3-2.63H1.35V0h4.14c2.5 0 3.54-1.08 3.54-2.81 0-1.27-.88-2.14-2.24-2.33zM4.94-8.86c1.45 0 2.37.4 2.37 1.58 0 1.08-.8 1.72-2.17 1.72H2.56v-3.3zm.3 7.83H2.55v-3.5h2.69c1.52 0 2.53.4 2.53 1.72 0 1.39-1.01 1.78-2.55 1.78zm0 0"/></symbol><symbol overflow="visible" id="e84aa394I"><path d="M5.33.17c2.72 0 4.6-2.06 4.6-5.1 0-3.07-1.88-5.15-4.6-5.15C2.59-10.08.72-8 .72-4.94.72-1.89 2.59.17 5.32.17zm0-1.03c-2.05 0-3.38-1.56-3.38-4.08 0-2.54 1.33-4.1 3.38-4.1 2.03 0 3.36 1.56 3.36 4.1 0 2.52-1.33 4.08-3.36 4.08zm0 0"/></symbol><symbol overflow="visible" id="e84aa394J"><path d="M4.52-9.9H1.34V0h3.18c2.8 0 4.8-1.9 4.8-4.94 0-3.06-2-4.97-4.8-4.97zm-.2 8.87H2.57v-7.83h1.77c2.37 0 3.76 1.44 3.76 3.92 0 2.46-1.42 3.9-3.76 3.9zm0 0"/></symbol><symbol overflow="visible" id="e84aa394K"><path d="M8.13-9.9H.33v1.03H3.6V0h1.23v-8.88h3.29zm0 0"/></symbol><symbol overflow="visible" id="e84aa394L"><path d="M5.31.17c2.57 0 3.78-1.23 4.22-3.33h-1.3c-.39 1.64-1.36 2.3-2.92 2.3-1.87 0-3.36-1.6-3.36-4.08 0-2.5 1.49-4.1 3.36-4.1 1.61 0 2.57.7 2.9 2.3h1.3c-.38-2-1.59-3.34-4.2-3.34-2.8 0-4.6 2.14-4.6 5.14C.72-1.95 2.54.17 5.32.17zm0 0"/></symbol><symbol overflow="visible" id="e84aa394M"><path d="M10.33-5.2H2.22l4-4.36H4.8L.42-4.7 4.8.14h1.42L2.25-4.19h8.08zm0 0"/></symbol></defs><path fill="#f7b3ca" d="M0 0h1366v768H0z"/><use xlink:href="#e84aa394a" x="706.8916" y="184.4912"/><use xlink:href="#e84aa394b" x="810.2936" y="184.4912"/><use xlink:href="#e84aa394c" x="897.3996" y="184.4912"/><use xlink:href="#e84aa394d" x="230.4276" y="365.1052"/><use xlink:href="#e84aa394e" x="353.0356" y="365.1052"/><use xlink:href="#e84aa394f" x="429.6656" y="365.1052"/><use xlink:href="#e84aa394c" x="1056.4796" y="184.4912"/><use xlink:href="#e84aa394e" x="1125.7376" y="184.4912"/><use xlink:href="#e84aa394g" x="488.2536" y="538.3472"/><use xlink:href="#e84aa394h" x="623.2776" y="538.3472"/><use xlink:href="#e84aa394i" x="696.4156" y="538.3472"/><use xlink:href="#e84aa394j" x="853.1676" y="364.3292"/><use xlink:href="#e84aa394k" x="943.1836" y="364.3292"/><use xlink:href="#e84aa394l" x="1033.9756" y="364.3292"/><use xlink:href="#e84aa394m" x="1072.7756" y="364.3292"/><use xlink:href="#e84aa394n" x="1170.3576" y="364.3292"/><use xlink:href="#e84aa394o" x="1254.9416" y="364.3292"/><use xlink:href="#e84aa394p" x="854.5256" y="538.1532"/><g><use xlink:href="#e84aa394q" x="958.1216" y="538.1532"/></g><g><use xlink:href="#e84aa394r" x="1096.2496" y="537.9592"/><use xlink:href="#e84aa394s" x="1195.5776" y="537.9592"/></g><g><use xlink:href="#e84aa394t" x="672.1656" y="364.9112"/></g><g fill="#12100b"><use xlink:href="#e84aa394u" x="910.8916" y="245.4912"/><use xlink:href="#e84aa394v" x="921.87034" y="245.4912"/><use xlink:href="#e84aa394w" x="925.79236" y="245.4912"/><use xlink:href="#e84aa394x" x="935.25478" y="245.4912"/><use xlink:href="#e84aa394y" x="944.55682" y="245.4912"/><use xlink:href="#e84aa394z" x="954.58786" y="245.4912"/><use xlink:href="#e84aa394A" x="958.8598" y="245.4912"/><use xlink:href="#e84aa394v" x="967.98688" y="245.4912"/><use xlink:href="#e84aa394y" x="971.9089" y="245.4912"/><use xlink:href="#e84aa394x" x="981.93994" y="245.4912"/><use xlink:href="#e84aa394B" x="991.24198" y="245.4912"/><use xlink:href="#e84aa394C" x="1002.22072" y="245.4912"/><use xlink:href="#e84aa394D" x="1013.21404" y="245.4912"/><use xlink:href="#e84aa394E" x="1021.17472" y="245.4912"/><use xlink:href="#e84aa394y" x="1030.885" y="245.4912"/></g><g fill="#12100b"><use xlink:href="#e84aa394u" x="894.89734" y="60.48558"/><use xlink:href="#e84aa394v" x="905.87608" y="60.48558"/><use xlink:href="#e84aa394w" x="909.7981" y="60.48558"/><use xlink:href="#e84aa394E" x="919.26052" y="60.48558"/><use xlink:href="#e84aa394F" x="928.9708" y="60.48558"/><use xlink:href="#e84aa394w" x="940.13908" y="60.48558"/><use xlink:href="#e84aa394v" x="949.6015" y="60.48558"/><use xlink:href="#e84aa394y" x="953.52352" y="60.48558"/><use xlink:href="#e84aa394x" x="963.55456" y="60.48558"/><use xlink:href="#e84aa394B" x="972.8566" y="60.48558"/><use xlink:href="#e84aa394C" x="983.83534" y="60.48558"/><use xlink:href="#e84aa394D" x="994.82866" y="60.48558"/><use xlink:href="#e84aa394E" x="1002.78934" y="60.48558"/><use xlink:href="#e84aa394y" x="1012.49962" y="60.48558"/></g><g fill="#12100b"><use xlink:href="#e84aa394G" x="1221.89758" y="60.48558"/><use xlink:href="#e84aa394v" x="1232.04526" y="60.48558"/><use xlink:href="#e84aa394w" x="1235.96728" y="60.48558"/><use xlink:href="#e84aa394E" x="1245.4297" y="60.48558"/><use xlink:href="#e84aa394F" x="1255.13998" y="60.48558"/><use xlink:href="#e84aa394w" x="1266.30826" y="60.48558"/><use xlink:href="#e84aa394v" x="1275.77068" y="60.48558"/><use xlink:href="#e84aa394H" x="1279.6927" y="60.48558"/><use xlink:href="#e84aa394I" x="1289.79664" y="60.48558"/><use xlink:href="#e84aa394D" x="1300.80454" y="60.48558"/><use xlink:href="#e84aa394J" x="1308.76522" y="60.48558"/></g><g fill="#12100b"><use xlink:href="#e84aa394G" x="1218.8941" y="245.4912"/><use xlink:href="#e84aa394v" x="1229.04178" y="245.4912"/><use xlink:href="#e84aa394w" x="1232.9638" y="245.4912"/><use xlink:href="#e84aa394x" x="1242.42622" y="245.4912"/><use xlink:href="#e84aa394y" x="1251.72826" y="245.4912"/><use xlink:href="#e84aa394z" x="1261.7593" y="245.4912"/><use xlink:href="#e84aa394A" x="1266.03124" y="245.4912"/><use xlink:href="#e84aa394v" x="1275.15832" y="245.4912"/><use xlink:href="#e84aa394z" x="1279.08034" y="245.4912"/><use xlink:href="#e84aa394K" x="1283.35228" y="245.4912"/><use xlink:href="#e84aa394E" x="1292.1586" y="245.4912"/><use xlink:href="#e84aa394D" x="1301.86888" y="245.4912"/><use xlink:href="#e84aa394z" x="1309.82956" y="245.4912"/><use xlink:href="#e84aa394L" x="1314.1015" y="245.4912"/></g><g fill="#12100b"><use xlink:href="#e84aa394G" x="1182.89608" y="424.48986"/><use xlink:href="#e84aa394v" x="1193.04376" y="424.48986"/><use xlink:href="#e84aa394w" x="1196.96578" y="424.48986"/><use xlink:href="#e84aa394x" x="1206.4282" y="424.48986"/><use xlink:href="#e84aa394y" x="1215.73024" y="424.48986"/><use xlink:href="#e84aa394z" x="1225.76128" y="424.48986"/><use xlink:href="#e84aa394A" x="1230.03322" y="424.48986"/><use xlink:href="#e84aa394v" x="1239.1603" y="424.48986"/><use xlink:href="#e84aa394z" x="1243.08232" y="424.48986"/><use xlink:href="#e84aa394K" x="1247.35426" y="424.48986"/><use xlink:href="#e84aa394E" x="1256.16058" y="424.48986"/><use xlink:href="#e84aa394D" x="1265.87086" y="424.48986"/><use xlink:href="#e84aa394z" x="1273.83154" y="424.48986"/><use xlink:href="#e84aa394L" x="1278.10348" y="424.48986"/></g><g fill="#12100b"><use xlink:href="#e84aa394M" x="549.8908" y="313.49232"/><use xlink:href="#e84aa394v" x="561.10282" y="313.49232"/><use xlink:href="#e84aa394w" x="565.02484" y="313.49232"/><use xlink:href="#e84aa394E" x="574.48726" y="313.49232"/><use xlink:href="#e84aa394F" x="584.19754" y="313.49232"/><use xlink:href="#e84aa394w" x="595.36582" y="313.49232"/><use xlink:href="#e84aa394v" x="604.82824" y="313.49232"/><use xlink:href="#e84aa394y" x="608.75026" y="313.49232"/><use xlink:href="#e84aa394x" x="618.7813" y="313.49232"/><use xlink:href="#e84aa394B" x="628.08334" y="313.49232"/><use xlink:href="#e84aa394C" x="639.06208" y="313.49232"/><use xlink:href="#e84aa394D" x="650.0554" y="313.49232"/><use xlink:href="#e84aa394E" x="658.01608" y="313.49232"/><use xlink:href="#e84aa394y" x="667.72636" y="313.49232"/></g><g fill="#12100b"><use xlink:href="#e84aa394u" x="665.88928" y="424.48986"/><use xlink:href="#e84aa394v" x="676.86802" y="424.48986"/><use xlink:href="#e84aa394w" x="680.79004" y="424.48986"/><use xlink:href="#e84aa394x" x="690.25246" y="424.48986"/><use xlink:href="#e84aa394y" x="699.5545" y="424.48986"/><use xlink:href="#e84aa394z" x="709.58554" y="424.48986"/><use xlink:href="#e84aa394A" x="713.85748" y="424.48986"/><use xlink:href="#e84aa394v" x="722.98456" y="424.48986"/><use xlink:href="#e84aa394y" x="726.90658" y="424.48986"/><use xlink:href="#e84aa394x" x="736.93762" y="424.48986"/><use xlink:href="#e84aa394B" x="746.23966" y="424.48986"/><use xlink:href="#e84aa394C" x="757.2184" y="424.48986"/><use xlink:href="#e84aa394D" x="768.21172" y="424.48986"/><use xlink:href="#e84aa394E" x="776.1724" y="424.48986"/><use xlink:href="#e84aa394y" x="785.88268" y="424.48986"/></g><g><use xlink:href="#e84aa394N" x="1194.3467" y="184.291"/></g></svg>