<?xml version='1.0' encoding='UTF-8'?>
<svg xmlns="http://www.w3.org/2000/svg" xmlns:xlink="http://www.w3.org/1999/xlink" width="1366px" height="768px" viewBox="0 0 1366 768" x="0px" y="0px" enable-background="new 0 0 1366 768"><defs><symbol overflow="visible" id="3b4f9c3ca"><path d="M679.16-310.9c0-171.66-130.96-320.26-325.13-318.55-199.6 1.7-319.72 142.62-319.72 320.26 0 176.8 131.86 322.86 325.14 322.86 205.9 0 319.7-146.06 319.7-324.56zm-542.78-9.38c0-141.78 56.89-257.92 208.62-257.92 158.05 0 232.1 133.22 232.1 295.5 0 121.28-57.79 245.12-199.58 245.12-168.9 0-241.14-134.1-241.14-282.7zm0 0"/></symbol><symbol overflow="visible" id="3b4f9c3cb"><path d="M573.5-50.4L278.17-362.97l247.45-204.13 65.04-7.69v-42.7h-228.5v42.7l69.54 7.7h17.16l-261 222.05V-567.1l65.92-7.69v-42.7H25.28v42.7l69.55 7.7v516.7l-69.55 7.7V0h228.5v-42.7l-65.92-7.7v-237.43l17.16-14.51L450.67-48.7l-56.9 5.99V0h245.65v-42.7zm0 0"/></symbol><symbol overflow="visible" id="3b4f9c3cc"><path d="M5.53-9.66a4.9 4.9 0 100 9.82 4.9 4.9 0 000-9.82zm0 9a4.08 4.08 0 110-8.16 4.08 4.08 0 010 8.16zm-1.2-4.71c.31 0 .47-.46.47-1 0-.55-.16-.97-.47-.97-.35 0-.52.42-.52.96 0 .55.17 1 .52 1zm2.4 0c.33 0 .52-.46.52-1 0-.55-.19-.97-.52-.97-.32 0-.46.42-.46.96 0 .55.14 1 .46 1zm1.4.68c-.32 1.5-1.33 2.22-2.6 2.22-1.26 0-2.28-.72-2.6-2.22h-.48a3 3 0 003.08 3.03 3 3 0 003.08-3.03zm0 0"/></symbol><symbol overflow="visible" id="3b4f9c3ce"><path d="M7.55 0h1.33L5.8-4.28C7.58-4.5 8.36-5.45 8.36-6.9c0-1.61-1-2.61-3.17-2.61h-3.9V0h1.2v-4.16h2.04zM2.48-8.52h2.55c1.38 0 2.14.54 2.14 1.63 0 1.1-.73 1.73-2.12 1.73H2.48zm0 0"/></symbol><symbol overflow="visible" id="3b4f9c3cf"><path d="M7.86-8.5v-1H1.28V0h6.58v-1.02h-5.4v-3.35h4.8v-.99h-4.8V-8.5zm0 0"/></symbol><symbol overflow="visible" id="3b4f9c3cg"><path d="M7.52 0h1.26L5.16-9.5H3.87L.13 0H1.4l.99-2.63h4.18zM2.75-3.6l1.77-4.68L6.2-3.61zm0 0"/></symbol><symbol overflow="visible" id="3b4f9c3ch"><path d="M4.34-9.5H1.28V0h3.06c2.7 0 4.61-1.81 4.61-4.75S7.05-9.5 4.35-9.5zM4.16-1h-1.7v-7.52h1.7c2.28 0 3.6 1.4 3.6 3.77C7.77-2.37 6.42-1 4.17-1zm0 0"/></symbol><symbol overflow="visible" id="3b4f9c3ci"><path d="M5.1.17c2.63 0 4.43-1.98 4.43-4.92s-1.8-4.92-4.42-4.92C2.48-9.67.69-7.7.69-4.75S2.49.17 5.1.17zm0-1c-1.94 0-3.22-1.5-3.22-3.92 0-2.44 1.28-3.94 3.23-3.94s3.23 1.5 3.23 3.94c0 2.42-1.28 3.92-3.23 3.92zm0 0"/></symbol><symbol overflow="visible" id="3b4f9c3cj"><path d="M9.02-9.5l-2.9 7.63-2.9-7.63H1.28V0h1.2v-8.48L5.73 0h.79l3.21-8.47V0h1.2v-9.5zm0 0"/></symbol><symbol overflow="visible" id="3b4f9c3ck"><path d="M7.98-9.5v8.55L3.08-9.5h-1.8V0h1.13v-8.55L7.3 0h1.8v-9.5zm0 0"/></symbol><symbol overflow="visible" id="3b4f9c3cl"><path d="M5.81-4.94c.9-.37 1.35-1.17 1.35-2.15 0-1.52-1.32-2.58-3.08-2.58-1.69 0-3.05.98-3.24 2.73H2c.14-1.2 1-1.75 2.06-1.75 1.13 0 1.9.67 1.9 1.64 0 .92-.57 1.67-2.2 1.67h-.8v1.04h.8c1.77 0 2.46.64 2.46 1.68 0 1.02-.78 1.83-2.19 1.83-1.44 0-2.22-.72-2.28-1.92H.61C.6-1.03 1.77.17 4 .17c2.2 0 3.41-1.31 3.41-2.83 0-1.17-.6-1.96-1.6-2.28zm0 0"/></symbol><symbol overflow="visible" id="3b4f9c3cm"><path d="M4.27-6.27c-.97 0-1.75.36-2.22.96l.2-3.22h4.64v-.97H1.3L.91-4.3H2.3c.33-.6.92-.93 1.76-.93 1.4 0 2.13.9 2.13 2.17 0 1.25-.8 2.23-2.11 2.23-1.31 0-2.13-.75-2.19-1.92H.7C.7-1.02 2.1.17 4.06.17c2.19 0 3.3-1.53 3.3-3.2 0-1.83-1.16-3.24-3.1-3.24zm0 0"/></symbol><symbol overflow="visible" id="3b4f9c3cn"><path d="M5.2-9.5H1.28V0h1.2v-4.16h2.63c2.17 0 3.25-1.14 3.25-2.7 0-1.64-.98-2.64-3.16-2.64zm-.18 4.34H2.48v-3.36h2.54c1.5 0 2.15.6 2.15 1.66 0 1.02-.65 1.7-2.15 1.7zm0 0"/></symbol><symbol overflow="visible" id="3b4f9c3co"><path d="M7.8-9.5H.3v.97h3.16V0h1.17v-8.53H7.8zm0 0"/></symbol><symbol overflow="visible" id="3b4f9c3cp"><path d="M4.52.17c2.3 0 3.62-1.14 3.62-2.8 0-1.35-.92-2.2-2.45-2.56l-2.14-.48c-1.1-.25-1.46-.72-1.46-1.4 0-.91.77-1.62 2.14-1.62 1.4 0 2.32.58 2.5 1.85h1.25C7.77-8.8 6.31-9.67 4.25-9.67c-2.1 0-3.4 1.19-3.4 2.73 0 1.24.76 2.1 2.17 2.4l2.2.5c1.1.24 1.67.74 1.67 1.57 0 .92-.76 1.64-2.37 1.64-1.55 0-2.55-.65-2.72-2H.55c.18 1.92 1.47 3 3.97 3zm0 0"/></symbol></defs><path fill="#12100b" d="M0 0h1366v768H0z"/><g fill="#fff"><use xlink:href="#3b4f9c3ca" x="1.0005" y="676.3047"/><use xlink:href="#3b4f9c3cb" x="692.808498" y="676.3047"/></g><use xlink:href="#3b4f9c3cc" x="78" y="729.4561" fill="#c1d11a"/><g fill="#c1d11a"><use xlink:href="#3b4f9c3cd" x="89.438" y="729.4561"/><use xlink:href="#3b4f9c3ce" x="93.204" y="729.4561"/></g><use xlink:href="#3b4f9c3cf" x="102.6652" y="729.4561" fill="#c1d11a"/><g fill="#c1d11a"><use xlink:href="#3b4f9c3cg" x="111.8394" y="729.4561"/><use xlink:href="#3b4f9c3ch" x="121.0934" y="729.4561"/></g><use xlink:href="#3b4f9c3cf" x="131.0754" y="729.4561" fill="#c1d11a"/><use xlink:href="#3b4f9c3ce" x="139.7036" y="729.4561" fill="#c1d11a"/><g fill="#c1d11a"><use xlink:href="#3b4f9c3cd" x="149.3356" y="729.4561"/><use xlink:href="#3b4f9c3ce" x="153.1016" y="729.4561"/></g><g fill="#c1d11a"><use xlink:href="#3b4f9c3ci" x="162.5194" y="729.4561"/><use xlink:href="#3b4f9c3cj" x="173.0194" y="729.4561"/></g><g fill="#c1d11a"><use xlink:href="#3b4f9c3cg" x="185.5536" y="729.4561"/><use xlink:href="#3b4f9c3ck" x="194.8076" y="729.4561"/></g><g fill="#c1d11a"><use xlink:href="#3b4f9c3cc" x="1215.5" y="729.4561"/><use xlink:href="#3b4f9c3cd" x="1226.938" y="729.4561"/><use xlink:href="#3b4f9c3cl" x="1230.704" y="729.4561"/></g><use xlink:href="#3b4f9c3cm" x="1239.2132" y="729.4561" fill="#c1d11a"/><g fill="#c1d11a"><use xlink:href="#3b4f9c3cl" x="1247.5964" y="729.4561"/><use xlink:href="#3b4f9c3cd" x="1256.0664" y="729.4561"/><use xlink:href="#3b4f9c3cn" x="1259.8324" y="729.4561"/></g><use xlink:href="#3b4f9c3co" x="1269.085" y="729.4561" fill="#c1d11a"/><use xlink:href="#3b4f9c3cp" x="1277.4192" y="729.4561" fill="#c1d11a"/></svg>