<?xml version="1.0" encoding="UTF-8"?><svg id="Layer_1" xmlns="http://www.w3.org/2000/svg" xmlns:xlink="http://www.w3.org/1999/xlink" viewBox="0 0 1366 768"><defs><style>.cls-1{clip-path:url(#clippath);}.cls-2{fill:#fdfaf5;}.cls-3{fill:#1a26cd;}.cls-4{fill:#2b2b2a;}</style><clipPath id="clippath"><rect class="cls-2" x="-49.48" y="-88" width="1466.48" height="940.05"/></clipPath></defs><g><rect class="cls-2" x="-49.48" y="-88" width="1466.48" height="940.05"/><g class="cls-1"><rect class="cls-2" x="-39.27" y="-79.94" width="1446.07" height="930.38"/></g></g><g><path class="cls-3" d="M79.41,727.99h-1.15v-9.91h1.15v9.91Z"/><path class="cls-3" d="M88.62,719.1h-3.08v8.88h-1.15v-8.88h-3.09v-1.02h7.31v1.02Z"/><path class="cls-3" d="M95.68,725.26h-4.09l-.97,2.73h-1.23l3.66-9.91h1.24l3.54,9.91h-1.23l-.93-2.73Zm-.36-1.04l-1.65-4.87-1.72,4.87h3.38Z"/><path class="cls-3" d="M105.27,726.94v1.05h-5.63v-9.91h1.18v8.86h4.46Z"/><path class="cls-3" d="M108.25,727.99h-1.15v-9.91h1.15v9.91Z"/><path class="cls-3" d="M116.27,725.26h-4.09l-.97,2.73h-1.23l3.66-9.91h1.24l3.54,9.91h-1.23l-.93-2.73Zm-.36-1.04l-1.65-4.87-1.72,4.87h3.38Z"/><path class="cls-3" d="M127.84,718.08v9.91h-1.75l-4.77-8.91v8.91h-1.09v-9.91h1.75l4.79,8.91v-8.91h1.08Z"/><path class="cls-3" d="M140.01,726.94v1.05h-5.63v-9.91h1.18v8.86h4.46Z"/><path class="cls-3" d="M143,727.99h-1.15v-9.91h1.15v9.91Z"/><path class="cls-3" d="M153.73,722.85v5.13h-1.04v-1.81c-.48,1.18-1.45,1.98-3.06,1.98-2.61,0-4.36-2.07-4.36-5.12s1.74-5.13,4.33-5.13c1.93,0,3.35,.88,3.9,2.84h-1.23c-.42-1.17-1.23-1.81-2.68-1.81-1.86,0-3.16,1.56-3.16,4.1s1.27,4.08,3.2,4.08,2.97-1.27,2.98-3.24h-3.24v-1.04h4.36Z"/><path class="cls-3" d="M163.77,718.08v9.91h-1.15v-4.64h-5.32v4.64h-1.15v-9.91h1.15v4.23h5.32v-4.23h1.15Z"/><path class="cls-3" d="M172.99,719.1h-3.08v8.88h-1.15v-8.88h-3.09v-1.02h7.31v1.02Z"/><path class="cls-3" d="M192.82,724.73h-11.55v-1.05h11.55v1.05Z"/><path class="cls-3" d="M204.43,718.08v9.91h-1.18v-7.8c-.48,.47-1.11,.63-2.12,.63v-1.02c1.59-.06,2.06-.69,2.3-1.71h1Z"/><path class="cls-3" d="M213.27,725.21c0,1.58-1.18,2.95-3.32,2.95s-3.32-1.25-3.34-3.03h1.12c.07,1.25,.82,2,2.23,2s2.13-.85,2.13-1.91-.67-1.75-2.39-1.75h-.78v-1.08h.78c1.59,0,2.15-.77,2.15-1.74,0-1.02-.75-1.71-1.86-1.71-1.04,0-1.87,.57-2.01,1.81h-1.13c.19-1.82,1.52-2.84,3.16-2.84,1.72,0,3.01,1.11,3.01,2.68,0,1.04-.42,1.87-1.31,2.25,.98,.34,1.57,1.17,1.57,2.38Z"/><path class="cls-3" d="M215.01,723.05c0-2.99,1.37-5.15,3.71-5.15s3.71,2.16,3.71,5.15-1.37,5.11-3.71,5.11-3.71-2.12-3.71-5.11Zm6.28,0c0-2.48-.9-4.07-2.57-4.07s-2.57,1.59-2.57,4.07,.9,4.03,2.57,4.03,2.57-1.55,2.57-4.03Z"/><path class="cls-3" d="M235.32,720.84c0,1.63-1.05,2.82-3.17,2.82h-2.57v4.33h-1.16v-9.91h3.83c2.12,0,3.08,1.05,3.08,2.76Zm-1.16,0c0-1.11-.64-1.72-2.11-1.72h-2.47v3.5h2.47c1.46,0,2.11-.71,2.11-1.78Z"/><path class="cls-3" d="M243.69,719.1h-3.08v8.88h-1.15v-8.88h-3.09v-1.02h7.31v1.02Z"/><path class="cls-3" d="M244.87,725.04h1.22c.18,1.4,1.15,2.09,2.65,2.09,1.59,0,2.32-.74,2.32-1.71,0-.88-.55-1.39-1.63-1.65l-2.16-.51c-1.37-.32-2.11-1.21-2.11-2.51,0-1.6,1.27-2.84,3.32-2.84s3.43,.92,3.64,2.95h-1.22c-.18-1.31-1.08-1.91-2.45-1.91s-2.08,.73-2.08,1.66c0,.71,.34,1.21,1.41,1.47l2.09,.51c1.5,.37,2.39,1.24,2.39,2.66,0,1.74-1.27,2.92-3.54,2.92-2.43,0-3.68-1.12-3.87-3.12Z"/></g><g><path class="cls-3" d="M1007.45,718.08l-3.77,9.91h-1.03l-3.68-9.91h1.23l2.98,8.37,3.04-8.37h1.23Z"/><path class="cls-3" d="M1010.32,719.13v3.27h4.69v1.04h-4.69v3.5h5.26v1.05h-6.41v-9.91h6.41v1.05h-5.26Z"/><path class="cls-3" d="M1021.07,723.65h-2.01v4.33h-1.16v-9.91h3.81c2.12,0,3.09,1.05,3.09,2.73,0,1.49-.77,2.49-2.49,2.71l2.99,4.46h-1.3l-2.94-4.33Zm-2.01-1.04h2.52c1.35,0,2.06-.66,2.06-1.81s-.74-1.69-2.09-1.69h-2.49v3.5Z"/><path class="cls-3" d="M1026.59,725.04h1.22c.18,1.4,1.15,2.09,2.65,2.09,1.59,0,2.32-.74,2.32-1.71,0-.88-.55-1.39-1.63-1.65l-2.16-.51c-1.37-.32-2.11-1.21-2.11-2.51,0-1.6,1.27-2.84,3.32-2.84s3.43,.92,3.64,2.95h-1.22c-.18-1.31-1.08-1.91-2.45-1.91s-2.08,.73-2.08,1.66c0,.71,.34,1.21,1.41,1.47l2.09,.51c1.5,.37,2.39,1.24,2.39,2.66,0,1.74-1.27,2.92-3.54,2.92-2.43,0-3.68-1.12-3.87-3.12Z"/><path class="cls-3" d="M1037.34,727.99h-1.15v-9.91h1.15v9.91Z"/><path class="cls-3" d="M1039.61,723.04c0-3.06,1.76-5.13,4.32-5.13s4.32,2.07,4.32,5.13-1.76,5.12-4.32,5.12-4.32-2.07-4.32-5.12Zm7.48,0c0-2.54-1.24-4.1-3.16-4.1s-3.16,1.56-3.16,4.1,1.24,4.08,3.16,4.08,3.16-1.56,3.16-4.08Z"/><path class="cls-3" d="M1058.14,718.08v9.91h-1.75l-4.77-8.91v8.91h-1.09v-9.91h1.75l4.79,8.91v-8.91h1.08Z"/><path class="cls-3" d="M1060.28,725.04h1.22c.18,1.4,1.15,2.09,2.65,2.09,1.59,0,2.32-.74,2.32-1.71,0-.88-.55-1.39-1.63-1.65l-2.16-.51c-1.37-.32-2.11-1.21-2.11-2.51,0-1.6,1.27-2.84,3.32-2.84s3.43,.92,3.64,2.95h-1.22c-.18-1.31-1.08-1.91-2.45-1.91s-2.08,.73-2.08,1.66c0,.71,.34,1.21,1.41,1.47l2.09,.51c1.5,.37,2.39,1.24,2.39,2.66,0,1.74-1.27,2.92-3.54,2.92-2.43,0-3.68-1.12-3.87-3.12Z"/><path class="cls-3" d="M1076.73,723.65h-2.01v4.33h-1.16v-9.91h3.81c2.12,0,3.09,1.05,3.09,2.73,0,1.49-.77,2.49-2.49,2.71l2.99,4.46h-1.3l-2.94-4.33Zm-2.01-1.04h2.52c1.35,0,2.06-.66,2.06-1.81s-.74-1.69-2.09-1.69h-2.49v3.5Z"/><path class="cls-3" d="M1084.12,719.13v3.27h4.69v1.04h-4.69v3.5h5.26v1.05h-6.41v-9.91h6.41v1.05h-5.26Z"/><path class="cls-3" d="M1099.57,722.85v5.13h-1.04v-1.81c-.48,1.18-1.45,1.98-3.06,1.98-2.61,0-4.36-2.07-4.36-5.12s1.74-5.13,4.33-5.13c1.93,0,3.35,.88,3.9,2.84h-1.23c-.42-1.17-1.23-1.81-2.68-1.81-1.86,0-3.16,1.56-3.16,4.1s1.27,4.08,3.2,4.08,2.97-1.27,2.98-3.24h-3.24v-1.04h4.36Z"/><path class="cls-3" d="M1109.56,724.13c0,2.68-1.49,4.03-3.83,4.03s-3.84-1.36-3.84-4.03v-6.05h1.15v6.05c0,1.94,1.08,2.95,2.71,2.95s2.67-.96,2.67-2.89v-6.11h1.15v6.05Z"/><path class="cls-3" d="M1117.94,726.94v1.05h-5.63v-9.91h1.18v8.86h4.46Z"/><path class="cls-3" d="M1124.93,725.26h-4.09l-.97,2.73h-1.23l3.66-9.91h1.24l3.54,9.91h-1.23l-.93-2.73Zm-.36-1.04l-1.65-4.87-1.72,4.87h3.38Z"/><path class="cls-3" d="M1132.06,723.65h-2.01v4.33h-1.16v-9.91h3.81c2.12,0,3.09,1.05,3.09,2.73,0,1.49-.77,2.49-2.49,2.71l2.99,4.46h-1.3l-2.94-4.33Zm-2.01-1.04h2.52c1.35,0,2.06-.66,2.06-1.81s-.74-1.69-2.09-1.69h-2.49v3.5Z"/><path class="cls-3" d="M1138.48,729.9h-.71c.34-.8,.49-1.2,.62-1.72l-.18-.1c-.26-.15-.44-.41-.44-.74,0-.47,.36-.83,.79-.83s.78,.32,.78,.91c0,.51-.25,1.28-.86,2.49Z"/><path class="cls-3" d="M1156.81,718.08l-2.8,9.91h-1.13l-2.37-8.24-2.17,8.24h-1.15l-2.93-9.91h1.16l2.32,8.13,2.23-8.13h1.09l2.38,8.14,2.24-8.14h1.12Z"/><path class="cls-3" d="M1159.81,727.99h-1.15v-9.91h1.15v9.91Z"/><path class="cls-3" d="M1170.16,723.04c0,3.05-1.87,4.95-4.51,4.95h-2.98v-9.91h2.98c2.64,0,4.51,1.9,4.51,4.96Zm-1.16,0c0-2.48-1.3-3.92-3.53-3.92h-1.65v7.83h1.65c2.2,0,3.53-1.44,3.53-3.91Z"/><path class="cls-3" d="M1173.74,719.13v3.27h4.69v1.04h-4.69v3.5h5.26v1.05h-6.41v-9.91h6.41v1.05h-5.26Z"/><path class="cls-3" d="M1190.15,725.26h-4.09l-.97,2.73h-1.23l3.66-9.91h1.24l3.54,9.91h-1.23l-.93-2.73Zm-.36-1.04l-1.65-4.87-1.72,4.87h3.38Z"/><path class="cls-3" d="M1201.72,718.08v9.91h-1.75l-4.77-8.91v8.91h-1.09v-9.91h1.75l4.79,8.91v-8.91h1.08Z"/><path class="cls-3" d="M1212.08,723.04c0,3.05-1.87,4.95-4.51,4.95h-2.98v-9.91h2.98c2.64,0,4.51,1.9,4.51,4.96Zm-1.16,0c0-2.48-1.3-3.92-3.53-3.92h-1.65v7.83h1.65c2.2,0,3.53-1.44,3.53-3.91Z"/><path class="cls-3" d="M1219.33,719.13v3.27h4.69v1.04h-4.69v3.5h5.26v1.05h-6.41v-9.91h6.41v1.05h-5.26Z"/><path class="cls-3" d="M1232.58,727.99l-2.8-4.33-2.71,4.33h-1.34l3.35-5.15-3.09-4.76h1.34l2.52,3.94,2.47-3.94h1.34l-3.1,4.68,3.36,5.22h-1.34Z"/><path class="cls-3" d="M1241.96,719.1h-3.08v8.88h-1.15v-8.88h-3.09v-1.02h7.31v1.02Z"/><path class="cls-3" d="M1245.02,719.13v3.27h4.69v1.04h-4.69v3.5h5.26v1.05h-6.41v-9.91h6.41v1.05h-5.26Z"/><path class="cls-3" d="M1260.21,718.08v9.91h-1.75l-4.77-8.91v8.91h-1.09v-9.91h1.75l4.79,8.91v-8.91h1.08Z"/><path class="cls-3" d="M1270.56,723.04c0,3.05-1.87,4.95-4.51,4.95h-2.98v-9.91h2.98c2.64,0,4.51,1.9,4.51,4.96Zm-1.16,0c0-2.48-1.3-3.92-3.53-3.92h-1.65v7.83h1.65c2.2,0,3.53-1.44,3.53-3.91Z"/><path class="cls-3" d="M1274.14,719.13v3.27h4.69v1.04h-4.69v3.5h5.26v1.05h-6.41v-9.91h6.41v1.05h-5.26Z"/><path class="cls-3" d="M1289.21,723.04c0,3.05-1.87,4.95-4.51,4.95h-2.98v-9.91h2.98c2.64,0,4.51,1.9,4.51,4.96Zm-1.16,0c0-2.48-1.3-3.92-3.53-3.92h-1.65v7.83h1.65c2.2,0,3.53-1.44,3.53-3.91Z"/></g><g><g><path class="cls-4" d="M160.78,123.1c0-1.93-.14-3.34-.43-4.25-.28-.91-.88-1.62-1.78-2.12v-.42h16.4c7.03,0,12.42,1.88,16.19,5.65,3.77,3.77,5.65,9.14,5.65,16.11s-1.84,12.03-5.52,15.68c-3.68,3.66-9.12,5.48-16.32,5.48h-9.77v9.78c0,1.98,.18,3.43,.55,4.33,.37,.91,1.06,1.59,2.08,2.04v.42h-9.26v-.42c.91-.51,1.5-1.22,1.78-2.12,.28-.91,.43-2.32,.43-4.25v-45.9Zm13.85,35.7c3.85,0,7.07-.79,9.65-2.38,2.58-1.59,4.5-3.9,5.78-6.93,1.28-3.03,1.91-6.84,1.91-11.43s-.64-8.53-1.91-11.64c-1.27-3.12-3.19-5.51-5.74-7.18-2.55-1.67-5.78-2.51-9.69-2.51h-9.44v42.08h9.44Z"/><path class="cls-4" d="M201.67,123.1c0-1.93-.14-3.34-.43-4.25-.28-.91-.88-1.62-1.78-2.12v-.42h16.15c7.54,0,13.12,1.96,16.75,5.87,3.63,3.91,5.44,9.15,5.44,15.72,0,6.01-1.45,10.79-4.33,14.37-2.89,3.57-7.31,5.75-13.26,6.54v.17h1.87c2.95,0,5.23,.54,6.84,1.62,1.62,1.08,3.16,2.89,4.63,5.44l3.4,6.12,.08,.08c.79,1.47,1.52,2.46,2.17,2.98,.65,.51,1.54,.59,2.68,.25v.34c-1.98,.34-3.6,.37-4.85,.08-1.25-.28-2.27-.81-3.06-1.57-.79-.77-1.59-1.94-2.38-3.53l-3.06-5.53c-1.02-1.76-1.93-3.04-2.72-3.87-.79-.82-1.73-1.39-2.81-1.7-1.08-.31-2.64-.47-4.67-.47h-12.16v9.78c0,1.98,.13,3.41,.38,4.29,.26,.88,.86,1.57,1.83,2.08v.42h-8.92v-.42c.96-.51,1.57-1.2,1.83-2.08,.26-.88,.38-2.31,.38-4.29v-45.9Zm12.75,35.7c4.82,0,8.6-.86,11.35-2.59,2.75-1.73,4.63-4.12,5.65-7.18,1.02-3.06,1.53-6.77,1.53-11.13s-.57-8.1-1.7-11.22c-1.13-3.12-3.03-5.55-5.7-7.31-2.66-1.75-6.12-2.63-10.37-2.63h-9.01v42.08h8.25Z"/><path class="cls-4" d="M245.7,170.28c-.06,.06-.08,.16-.08,.3s-.03,.27-.09,.38c-.4,1.25-.59,2.1-.59,2.55,0,.57,.17,1.02,.51,1.36,.34,.34,.88,.59,1.62,.76v.25l-5.19-.08v-.25c.74-.23,1.3-.68,1.7-1.36,.4-.68,.93-1.98,1.61-3.91l17.51-49.55h.34l-17.34,49.55Zm28.98-18.44v.42h-22.87v-.42h22.87Zm-14.02-32.98c-.28-.62-.52-1.17-.72-1.66-.2-.48-.41-.86-.64-1.15v-.34h4.76l20.91,54.83c.57,1.7,1.08,2.89,1.53,3.57,.45,.68,1.02,1.16,1.7,1.45v.25h-8.67v-.25c1.08-.28,1.62-.91,1.62-1.87,0-.4-.04-.81-.13-1.23s-.24-.92-.47-1.49l-19.89-52.11Z"/><path class="cls-4" d="M334.27,146.05c0,5.89-.81,11.05-2.42,15.47-1.62,4.42-4.25,7.91-7.91,10.46-3.65,2.55-8.49,3.83-14.49,3.83h-19.12v-.42c.96-.51,1.57-1.2,1.83-2.08,.26-.88,.38-2.31,.38-4.29v-45.99c0-1.93-.14-3.34-.43-4.25-.28-.91-.88-1.62-1.78-2.12v-.42h19.12c6.01,0,10.84,1.29,14.49,3.87,3.66,2.58,6.29,6.06,7.91,10.46,1.61,4.39,2.42,9.56,2.42,15.51Zm-4.67,0c0-5.67-.68-10.68-2.04-15.04-1.36-4.36-3.61-7.83-6.76-10.41-3.15-2.58-7.35-3.87-12.62-3.87h-11.22v58.65h11.22c5.27,0,9.48-1.29,12.62-3.87,3.15-2.58,5.4-6.05,6.76-10.41,1.36-4.36,2.04-9.38,2.04-15.04Z"/><path class="cls-4" d="M339.03,170.28c-.06,.06-.08,.16-.08,.3s-.03,.27-.09,.38c-.4,1.25-.59,2.1-.59,2.55,0,.57,.17,1.02,.51,1.36,.34,.34,.88,.59,1.62,.76v.25l-5.19-.08v-.25c.74-.23,1.3-.68,1.7-1.36,.4-.68,.93-1.98,1.61-3.91l17.51-49.55h.34l-17.34,49.55Zm28.98-18.44v.42h-22.87v-.42h22.87Zm-14.02-32.98c-.28-.62-.52-1.17-.72-1.66-.2-.48-.41-.86-.64-1.15v-.34h4.76l20.91,54.83c.57,1.7,1.08,2.89,1.53,3.57,.45,.68,1.02,1.16,1.7,1.45v.25h-8.67v-.25c1.08-.28,1.62-.91,1.62-1.87,0-.4-.04-.81-.13-1.23s-.24-.92-.47-1.49l-19.89-52.11Z"/><path class="cls-4" d="M407.45,123.1c0-1.93-.14-3.34-.43-4.25-.28-.91-.88-1.62-1.78-2.12v-.42h16.4c7.03,0,12.42,1.88,16.19,5.65,3.77,3.77,5.65,9.14,5.65,16.11s-1.84,12.03-5.52,15.68c-3.68,3.66-9.12,5.48-16.32,5.48h-9.77v9.78c0,1.98,.18,3.43,.55,4.33,.37,.91,1.06,1.59,2.08,2.04v.42h-9.26v-.42c.91-.51,1.5-1.22,1.78-2.12,.28-.91,.43-2.32,.43-4.25v-45.9Zm13.85,35.7c3.85,0,7.07-.79,9.65-2.38,2.58-1.59,4.5-3.9,5.78-6.93,1.28-3.03,1.91-6.84,1.91-11.43s-.64-8.53-1.91-11.64c-1.27-3.12-3.19-5.51-5.74-7.18-2.55-1.67-5.78-2.51-9.69-2.51h-9.44v42.08h9.44Z"/><path class="cls-4" d="M446.12,116.22h8.75v.42c-.85,.51-1.42,1.22-1.7,2.12-.28,.91-.42,2.32-.42,4.25v45.99c0,1.98,.13,3.41,.38,4.29,.26,.88,.84,1.57,1.74,2.08v.42h-8.75v-.42c.96-.51,1.57-1.2,1.83-2.08,.26-.88,.38-2.31,.38-4.29v-45.99c0-1.93-.13-3.34-.38-4.25-.25-.91-.86-1.62-1.83-2.12v-.42Z"/><path class="cls-4" d="M459.3,145.97c0-7.37,2.03-13.32,6.08-17.85,4.05-4.53,10.14-7.85,18.27-9.95,8.13-2.1,18.54-3.15,31.24-3.15,9.58,0,18.42,.62,26.52,1.87,8.1,1.25,14.9,3.09,20.4,5.53l1.28,6.46-.42,.08c-2.78-5.1-8.56-8.61-17.34-10.54-8.78-1.93-18.59-2.89-29.41-2.89-11.5,0-21.05,1.08-28.65,3.23-7.59,2.15-13.32,5.47-17.17,9.95-3.85,4.48-5.78,10.23-5.78,17.25s1.93,12.78,5.78,17.25c3.85,4.48,9.58,7.81,17.17,9.99,7.59,2.18,17.14,3.27,28.65,3.27,10.82,0,20.63-.98,29.41-2.93,8.78-1.95,14.56-5.45,17.34-10.5l.42,.08-1.28,6.38c-5.5,2.44-12.3,4.28-20.4,5.53-8.1,1.25-16.94,1.87-26.52,1.87-12.69,0-23.11-1.05-31.24-3.15-8.13-2.1-14.22-5.41-18.27-9.95-4.05-4.53-6.08-10.48-6.08-17.85Z"/><path class="cls-4" d="M567.25,145.97c0-7.37,2.03-13.32,6.08-17.85,4.05-4.53,10.14-7.85,18.27-9.95,8.13-2.1,18.54-3.15,31.24-3.15,9.58,0,18.42,.62,26.52,1.87,8.1,1.25,14.9,3.09,20.4,5.53l1.28,6.46-.42,.08c-2.78-5.1-8.56-8.61-17.34-10.54-8.78-1.93-18.59-2.89-29.41-2.89-11.5,0-21.05,1.08-28.65,3.23-7.59,2.15-13.32,5.47-17.17,9.95-3.85,4.48-5.78,10.23-5.78,17.25s1.93,12.78,5.78,17.25c3.85,4.48,9.58,7.81,17.17,9.99,7.59,2.18,17.14,3.27,28.65,3.27,10.82,0,20.63-.98,29.41-2.93,8.78-1.95,14.56-5.45,17.34-10.5l.42,.08-1.28,6.38c-5.5,2.44-12.3,4.28-20.4,5.53-8.1,1.25-16.94,1.87-26.52,1.87-12.69,0-23.11-1.05-31.24-3.15-8.13-2.1-14.22-5.41-18.27-9.95-4.05-4.53-6.08-10.48-6.08-17.85Z"/><path class="cls-4" d="M697.63,176.57c-6.06,0-10.81-1.42-14.24-4.25-3.43-2.83-5.78-6.49-7.06-10.96-1.27-4.48-1.91-9.6-1.91-15.38s.64-10.96,1.91-15.38c1.28-4.42,3.63-8.03,7.06-10.84,3.43-2.8,8.17-4.21,14.24-4.21s10.61,1.4,13.98,4.21,5.71,6.43,7.01,10.88c1.3,4.45,1.96,9.56,1.96,15.34s-.65,10.82-1.96,15.3c-1.3,4.48-3.66,8.15-7.06,11.01-3.4,2.86-8.05,4.29-13.94,4.29Zm0-.34c5.04,0,8.87-1.37,11.47-4.12,2.61-2.75,4.34-6.15,5.19-10.2,.85-4.05,1.3-9.14,1.36-15.26v-1.44c-.06-6.06-.51-11.14-1.36-15.22-.85-4.08-2.58-7.45-5.19-10.11-2.61-2.66-6.43-4-11.47-4s-8.98,1.37-11.64,4.12c-2.66,2.75-4.45,6.22-5.35,10.41-.91,4.19-1.36,9.38-1.36,15.55s.45,11.28,1.36,15.47c.91,4.19,2.69,7.71,5.35,10.54,2.66,2.83,6.54,4.25,11.64,4.25Z"/><path class="cls-4" d="M745.74,175.38c2.49,0,4.47-.17,5.95-.51,1.47-.34,2.72-.92,3.74-1.74,1.02-.82,2.01-2.08,2.97-3.78l.34,.17-3.23,7.48h-.51c-.45-.46-1.09-.77-1.91-.94-.82-.17-2.11-.25-3.87-.25h-24.99v-.42c.96-.51,1.57-1.19,1.83-2.04,.25-.85,.38-2.29,.38-4.33v-45.99c0-1.93-.13-3.34-.38-4.25-.26-.91-.87-1.62-1.83-2.12v-.42h8.93v.42c-.96,.51-1.59,1.22-1.87,2.12-.28,.91-.42,2.32-.42,4.25v52.36h14.88Z"/><path class="cls-4" d="M782.97,176.57c-6.06,0-10.81-1.42-14.24-4.25-3.43-2.83-5.78-6.49-7.06-10.96-1.27-4.48-1.91-9.6-1.91-15.38s.64-10.96,1.91-15.38c1.28-4.42,3.63-8.03,7.06-10.84,3.43-2.8,8.17-4.21,14.24-4.21s10.61,1.4,13.98,4.21,5.71,6.43,7.01,10.88c1.3,4.45,1.96,9.56,1.96,15.34s-.65,10.82-1.96,15.3c-1.3,4.48-3.66,8.15-7.06,11.01-3.4,2.86-8.05,4.29-13.94,4.29Zm0-.34c5.04,0,8.87-1.37,11.47-4.12,2.61-2.75,4.34-6.15,5.19-10.2,.85-4.05,1.3-9.14,1.36-15.26v-1.44c-.06-6.06-.51-11.14-1.36-15.22-.85-4.08-2.58-7.45-5.19-10.11-2.61-2.66-6.43-4-11.47-4s-8.98,1.37-11.64,4.12c-2.66,2.75-4.45,6.22-5.36,10.41-.91,4.19-1.36,9.38-1.36,15.55s.45,11.28,1.36,15.47c.91,4.19,2.69,7.71,5.36,10.54,2.66,2.83,6.54,4.25,11.64,4.25Z"/></g><g><path class="cls-4" d="M823.1,145.74c0-6.35,.95-11.79,2.85-16.32,1.9-4.53,4.75-8,8.54-10.41,3.8-2.41,8.53-3.61,14.2-3.61,2.38,0,4.77,.23,7.18,.68,2.41,.45,4.38,1.08,5.91,1.87l.68,5.1-.34,.08c-1.08-2.44-2.83-4.26-5.27-5.48-2.44-1.22-5.07-1.83-7.9-1.83-4.54,0-8.37,1.2-11.52,3.61-3.15,2.41-5.51,5.85-7.1,10.33-1.59,4.48-2.38,9.8-2.38,15.98s.79,11.5,2.38,15.98c1.59,4.48,3.94,7.92,7.05,10.33,3.12,2.41,6.97,3.61,11.56,3.61,2.83,0,5.47-.61,7.9-1.83s4.19-3.02,5.27-5.4l.34,.08-.68,5.01c-1.59,.85-3.58,1.5-5.99,1.96-2.41,.45-4.77,.68-7.1,.68-5.67,0-10.4-1.2-14.2-3.61-3.8-2.41-6.64-5.89-8.54-10.46-1.9-4.56-2.85-10.02-2.85-16.36Z"/><path class="cls-4" d="M867.47,122.88c0-1.93-.13-3.34-.38-4.25-.25-.91-.86-1.62-1.83-2.12v-.42h8.75v.42c-.85,.51-1.42,1.22-1.7,2.12-.28,.91-.42,2.32-.42,4.25v22.87h30.35v-22.87c0-1.93-.14-3.34-.43-4.25-.28-.91-.88-1.62-1.79-2.12v-.42h8.84v.42c-.96,.51-1.6,1.22-1.91,2.12-.31,.91-.47,2.32-.47,4.25v45.99c0,1.98,.15,3.41,.47,4.29,.31,.88,.95,1.57,1.91,2.08v.42h-8.84v-.42c.91-.51,1.5-1.2,1.79-2.08,.28-.88,.43-2.31,.43-4.29v-22.78h-30.35v22.78c0,1.98,.14,3.41,.42,4.29,.28,.88,.85,1.57,1.7,2.08v.42h-8.75v-.42c.96-.51,1.57-1.2,1.83-2.08,.26-.88,.38-2.31,.38-4.29v-45.99Z"/><path class="cls-4" d="M914.56,170.13c-.06,.06-.09,.16-.09,.3s-.03,.27-.08,.38c-.4,1.25-.59,2.1-.59,2.55,0,.57,.17,1.02,.51,1.36,.34,.34,.88,.59,1.62,.76v.25l-5.19-.08v-.25c.74-.23,1.3-.68,1.7-1.36,.39-.68,.93-1.98,1.61-3.91l17.51-49.55h.34l-17.34,49.55Zm28.98-18.44v.42h-22.87v-.42h22.87Zm-14.03-32.98c-.28-.62-.52-1.17-.72-1.66-.2-.48-.41-.86-.64-1.15v-.34h4.76l20.91,54.83c.57,1.7,1.08,2.89,1.53,3.57,.45,.68,1.02,1.16,1.7,1.45v.25h-8.67v-.25c1.08-.28,1.62-.91,1.62-1.87,0-.4-.04-.81-.13-1.23-.08-.42-.24-.92-.47-1.49l-19.89-52.11Z"/><path class="cls-4" d="M961.23,119.13c-.12-.23-.23-.44-.34-.64-.11-.2-.23-.38-.34-.55-.23-.34-.45-.61-.68-.81-.23-.2-.45-.38-.68-.55v-.42h5.61l34,52.96-.17-.08v-45.82c0-1.53-.08-2.71-.25-3.53-.17-.82-.54-1.47-1.11-1.96-.57-.48-1.39-.86-2.46-1.15v-.42h6.46v.42c-.91,.45-1.49,1.12-1.74,2-.25,.88-.38,2.39-.38,4.55v53.55h-.42l-37.48-57.54Zm2.63,1.11h.42v48.37c0,1.53,.08,2.71,.25,3.53,.17,.82,.51,1.47,1.02,1.96s1.33,.86,2.46,1.15v.42h-6.8v-.42c.74-.28,1.3-.67,1.7-1.15s.65-1.13,.77-1.96c.11-.82,.17-1.94,.17-3.36v-48.54Z"/><path class="cls-4" d="M1036.45,114.97l1.7,5.44-.34,.08c-.79-1.53-1.77-2.58-2.93-3.14-1.16-.57-2.99-.85-5.48-.85h-17.85v31.88h18.62c1.08,0,1.94-.07,2.59-.21,.65-.14,1.17-.44,1.57-.89,.4-.45,.68-1.08,.85-1.87h.34v6.29h-.34c-.17-.85-.46-1.47-.85-1.87-.4-.4-.91-.68-1.53-.85-.62-.17-1.5-.25-2.63-.25h-18.62v26.52h16.66c2.49,0,4.46-.16,5.91-.47,1.45-.31,2.69-.89,3.74-1.74,1.05-.85,2-2.12,2.85-3.83l.42,.17-3.31,7.48h-.34c-.46-.46-1.12-.77-2-.94-.88-.17-2.14-.25-3.78-.25h-26.77v-.42c.96-.51,1.57-1.19,1.83-2.04,.26-.85,.38-2.29,.38-4.33v-45.99c0-1.93-.13-3.34-.38-4.25-.25-.91-.86-1.62-1.83-2.12v-.42h25.33c1.64,0,2.9-.07,3.78-.21,.88-.14,1.57-.44,2.08-.89h.34Z"/><path class="cls-4" d="M1065.09,175.24c2.49,0,4.48-.17,5.95-.51,1.47-.34,2.72-.92,3.74-1.74,1.02-.82,2.01-2.08,2.98-3.78l.34,.17-3.23,7.48h-.51c-.46-.46-1.09-.77-1.91-.94-.82-.17-2.11-.25-3.87-.25h-24.99v-.42c.96-.51,1.57-1.19,1.83-2.04,.26-.85,.38-2.29,.38-4.33v-45.99c0-1.93-.13-3.34-.38-4.25-.25-.91-.86-1.62-1.83-2.12v-.42h8.92v.42c-.96,.51-1.59,1.22-1.87,2.12-.29,.91-.43,2.32-.43,4.25v52.36h14.88Z"/></g><g><path class="cls-4" d="M56.49,217.45c0-6.35,.95-11.79,2.85-16.32,1.9-4.53,4.75-8,8.54-10.41,3.8-2.41,8.53-3.61,14.2-3.61,2.38,0,4.77,.23,7.18,.68,2.41,.45,4.38,1.08,5.91,1.87l.68,5.1-.34,.08c-1.08-2.44-2.83-4.26-5.27-5.48-2.44-1.22-5.07-1.83-7.9-1.83-4.53,0-8.37,1.2-11.52,3.61-3.15,2.41-5.51,5.85-7.1,10.33-1.59,4.48-2.38,9.8-2.38,15.98s.79,11.5,2.38,15.98c1.59,4.48,3.94,7.92,7.06,10.33,3.12,2.41,6.97,3.61,11.56,3.61,2.83,0,5.47-.61,7.9-1.83,2.44-1.22,4.19-3.02,5.27-5.4l.34,.08-.68,5.01c-1.59,.85-3.58,1.5-5.99,1.96-2.41,.45-4.77,.68-7.1,.68-5.67,0-10.4-1.2-14.2-3.61-3.8-2.41-6.64-5.89-8.54-10.46-1.9-4.56-2.85-10.02-2.85-16.36Z"/><path class="cls-4" d="M130.18,186.68l1.7,5.44-.34,.08c-.79-1.53-1.77-2.58-2.93-3.14-1.16-.57-2.99-.85-5.48-.85h-17.85v31.88h18.62c1.08,0,1.94-.07,2.59-.21,.65-.14,1.18-.44,1.57-.89,.4-.45,.68-1.08,.85-1.87h.34v6.29h-.34c-.17-.85-.45-1.47-.85-1.87-.4-.4-.91-.68-1.53-.85-.62-.17-1.5-.25-2.63-.25h-18.62v26.52h16.66c2.49,0,4.46-.16,5.91-.47,1.45-.31,2.69-.89,3.74-1.74,1.05-.85,2-2.12,2.85-3.83l.43,.17-3.31,7.48h-.34c-.45-.46-1.12-.77-2-.94-.88-.17-2.14-.25-3.78-.25h-26.77v-.42c.96-.51,1.57-1.19,1.83-2.04,.26-.85,.38-2.29,.38-4.33v-45.99c0-1.93-.13-3.34-.38-4.25-.25-.91-.86-1.62-1.83-2.12v-.42h25.33c1.64,0,2.9-.07,3.78-.21,.88-.14,1.57-.44,2.08-.89h.34Z"/><path class="cls-4" d="M158.83,246.95c2.49,0,4.48-.17,5.95-.51,1.47-.34,2.72-.92,3.74-1.74,1.02-.82,2.01-2.08,2.98-3.78l.34,.17-3.23,7.48h-.51c-.45-.46-1.09-.77-1.91-.94-.82-.17-2.11-.25-3.87-.25h-24.99v-.42c.96-.51,1.57-1.19,1.83-2.04,.26-.85,.38-2.29,.38-4.33v-45.99c0-1.93-.13-3.34-.38-4.25-.25-.91-.86-1.62-1.83-2.12v-.42h8.92v.42c-.96,.51-1.59,1.22-1.87,2.12-.28,.91-.42,2.32-.42,4.25v52.36h14.88Z"/><path class="cls-4" d="M172.93,187.79h8.75v.42c-.85,.51-1.42,1.22-1.7,2.12-.28,.91-.42,2.32-.42,4.25v45.99c0,1.98,.13,3.41,.38,4.29,.26,.88,.84,1.57,1.74,2.08v.42h-8.75v-.42c.96-.51,1.57-1.2,1.83-2.08,.26-.88,.38-2.31,.38-4.29v-45.99c0-1.93-.13-3.34-.38-4.25-.25-.91-.86-1.62-1.83-2.12v-.42Z"/><path class="cls-4" d="M187.47,190.85c-.11-.23-.23-.44-.34-.64-.11-.2-.23-.38-.34-.55-.23-.34-.45-.61-.68-.81-.23-.2-.45-.38-.68-.55v-.42h5.61l34,52.96-.17-.08v-45.82c0-1.53-.08-2.71-.25-3.53-.17-.82-.54-1.47-1.1-1.96-.57-.48-1.39-.86-2.47-1.15v-.42h6.46v.42c-.91,.45-1.49,1.12-1.74,2-.26,.88-.38,2.39-.38,4.55v53.55h-.42l-37.48-57.54Zm2.63,1.11h.43v48.37c0,1.53,.08,2.71,.25,3.53,.17,.82,.51,1.47,1.02,1.96,.51,.48,1.33,.86,2.46,1.15v.42h-6.8v-.42c.74-.28,1.3-.67,1.7-1.15,.4-.48,.65-1.13,.77-1.96,.11-.82,.17-1.94,.17-3.36v-48.54Z"/><path class="cls-4" d="M262.69,186.68l1.7,5.44-.34,.08c-.79-1.53-1.77-2.58-2.93-3.14-1.16-.57-2.99-.85-5.48-.85h-17.85v31.88h18.62c1.08,0,1.94-.07,2.59-.21,.65-.14,1.18-.44,1.57-.89,.4-.45,.68-1.08,.85-1.87h.34v6.29h-.34c-.17-.85-.45-1.47-.85-1.87-.4-.4-.91-.68-1.53-.85-.62-.17-1.5-.25-2.63-.25h-18.62v26.52h16.66c2.49,0,4.46-.16,5.91-.47,1.45-.31,2.69-.89,3.74-1.74,1.05-.85,2-2.12,2.85-3.83l.43,.17-3.31,7.48h-.34c-.45-.46-1.12-.77-2-.94-.88-.17-2.14-.25-3.78-.25h-26.77v-.42c.96-.51,1.57-1.19,1.83-2.04,.26-.85,.38-2.29,.38-4.33v-45.99c0-1.93-.13-3.34-.38-4.25-.25-.91-.86-1.62-1.83-2.12v-.42h25.33c1.64,0,2.9-.07,3.78-.21,.88-.14,1.57-.44,2.08-.89h.34Z"/><path class="cls-4" d="M291.59,217.45c0-5.44,.84-10.46,2.51-15.04,1.67-4.59,4.39-8.29,8.16-11.09,3.77-2.8,8.54-4.21,14.32-4.21,2.89,0,5.54,.35,7.95,1.06,2.41,.71,4.55,1.77,6.42,3.19l-.08,6.03h-.34c-.06-.28-.14-.58-.25-.89-.11-.31-.23-.64-.34-.98-1.08-2.49-2.75-4.46-5.02-5.91-2.27-1.44-5.02-2.17-8.25-2.17-4.82,0-8.74,1.4-11.77,4.21-3.03,2.81-5.23,6.46-6.59,10.96-1.36,4.51-2.04,9.45-2.04,14.83,0,5.78,.68,10.92,2.04,15.43s3.51,8.06,6.46,10.67c2.95,2.61,6.66,3.91,11.14,3.91,1.93,0,3.68-.24,5.27-.72,1.59-.48,2.89-1.23,3.91-2.25,.34-.34,.64-.74,.89-1.19,.25-.45,.45-.95,.6-1.49,.14-.54,.21-1.12,.21-1.74v-14.45c0-1.47-.08-2.65-.25-3.53-.17-.88-.48-1.57-.94-2.08-.45-.51-1.1-.93-1.96-1.27v-.34h9.27v.43c-.74,.51-1.23,1.22-1.49,2.12s-.38,2.44-.38,4.59v16.75c-1.76,1.98-4,3.41-6.72,4.29-2.72,.88-5.58,1.32-8.58,1.32-5.55,0-10.13-1.3-13.73-3.91-3.6-2.61-6.23-6.19-7.9-10.75-1.67-4.56-2.51-9.82-2.51-15.77Z"/><path class="cls-4" d="M367.07,186.68l1.7,5.44-.34,.08c-.79-1.53-1.77-2.58-2.93-3.14-1.16-.57-2.99-.85-5.48-.85h-17.85v31.88h18.62c1.08,0,1.94-.07,2.59-.21,.65-.14,1.18-.44,1.57-.89,.4-.45,.68-1.08,.85-1.87h.34v6.29h-.34c-.17-.85-.45-1.47-.85-1.87-.4-.4-.91-.68-1.53-.85-.62-.17-1.5-.25-2.63-.25h-18.62v26.52h16.66c2.49,0,4.46-.16,5.91-.47,1.45-.31,2.69-.89,3.74-1.74,1.05-.85,2-2.12,2.85-3.83l.43,.17-3.31,7.48h-.34c-.45-.46-1.12-.77-2-.94-.88-.17-2.14-.25-3.78-.25h-26.77v-.42c.96-.51,1.57-1.19,1.83-2.04,.26-.85,.38-2.29,.38-4.33v-45.99c0-1.93-.13-3.34-.38-4.25-.25-.91-.86-1.62-1.83-2.12v-.42h25.33c1.64,0,2.9-.07,3.78-.21,.88-.14,1.57-.44,2.08-.89h.34Z"/><path class="cls-4" d="M395.71,246.95c2.49,0,4.47-.17,5.95-.51,1.47-.34,2.72-.92,3.74-1.74,1.02-.82,2.01-2.08,2.97-3.78l.34,.17-3.23,7.48h-.51c-.45-.46-1.09-.77-1.91-.94-.82-.17-2.11-.25-3.87-.25h-24.99v-.42c.96-.51,1.57-1.19,1.83-2.04,.26-.85,.38-2.29,.38-4.33v-45.99c0-1.93-.13-3.34-.38-4.25-.25-.91-.86-1.62-1.83-2.12v-.42h8.92v.42c-.96,.51-1.59,1.22-1.87,2.12-.28,.91-.42,2.32-.42,4.25v52.36h14.88Z"/><path class="cls-4" d="M411.78,241.85c-.06,.06-.08,.16-.08,.3s-.03,.27-.08,.38c-.4,1.25-.6,2.1-.6,2.55,0,.57,.17,1.02,.51,1.36,.34,.34,.88,.59,1.61,.76v.25l-5.18-.08v-.25c.74-.23,1.3-.68,1.7-1.36,.4-.68,.93-1.98,1.62-3.91l17.51-49.55h.34l-17.34,49.55Zm28.98-18.44v.42h-22.86v-.42h22.86Zm-14.02-32.98c-.28-.62-.52-1.17-.72-1.66-.2-.48-.41-.86-.64-1.15v-.34h4.76l20.91,54.83c.57,1.7,1.08,2.89,1.53,3.57,.45,.68,1.02,1.16,1.7,1.45v.25h-8.67v-.25c1.08-.28,1.61-.91,1.61-1.87,0-.4-.04-.81-.13-1.23s-.24-.92-.47-1.49l-19.89-52.11Z"/><path class="cls-4" d="M455.38,188.3c-1.47,0-2.65,.16-3.53,.47-.88,.31-1.59,.93-2.12,1.87-.54,.93-1.03,2.34-1.49,4.21h-.34l.51-7.99h.34c.4,.34,.94,.58,1.62,.72,.68,.14,1.73,.21,3.15,.21h30.17c1.36,0,2.38-.07,3.06-.21,.68-.14,1.25-.38,1.7-.72h.34l.51,7.99h-.34c-.45-1.87-.96-3.27-1.53-4.21-.57-.94-1.28-1.56-2.12-1.87-.85-.31-2.04-.47-3.57-.47h-11.05v51.59c0,2.32,.16,3.97,.47,4.93,.31,.96,.95,1.67,1.91,2.12v.42h-8.84v-.42c.91-.45,1.5-1.16,1.79-2.12,.28-.96,.42-2.61,.42-4.93v-51.59h-11.05Z"/><path class="cls-4" d="M496.95,188.3c-1.47,0-2.65,.16-3.53,.47-.88,.31-1.59,.93-2.12,1.87-.54,.93-1.03,2.34-1.49,4.21h-.34l.51-7.99h.34c.4,.34,.94,.58,1.62,.72,.68,.14,1.73,.21,3.15,.21h30.17c1.36,0,2.38-.07,3.06-.21,.68-.14,1.25-.38,1.7-.72h.34l.51,7.99h-.34c-.45-1.87-.96-3.27-1.53-4.21-.57-.94-1.28-1.56-2.12-1.87-.85-.31-2.04-.47-3.57-.47h-11.05v51.59c0,2.32,.16,3.97,.47,4.93,.31,.96,.95,1.67,1.91,2.12v.42h-8.84v-.42c.91-.45,1.5-1.16,1.79-2.12,.28-.96,.42-2.61,.42-4.93v-51.59h-11.05Z"/><path class="cls-4" d="M555.94,248.14c-6.06,0-10.81-1.42-14.24-4.25-3.43-2.83-5.78-6.49-7.06-10.96-1.27-4.48-1.91-9.6-1.91-15.38s.64-10.96,1.91-15.38c1.28-4.42,3.63-8.03,7.06-10.84,3.43-2.8,8.17-4.21,14.24-4.21s10.61,1.4,13.98,4.21c3.37,2.8,5.71,6.43,7.01,10.88,1.3,4.45,1.96,9.56,1.96,15.34s-.65,10.82-1.96,15.3c-1.3,4.48-3.66,8.15-7.06,11.01-3.4,2.86-8.05,4.29-13.94,4.29Zm0-.34c5.04,0,8.87-1.37,11.47-4.12,2.61-2.75,4.33-6.15,5.19-10.2,.85-4.05,1.3-9.14,1.36-15.26v-1.44c-.06-6.06-.51-11.14-1.36-15.22-.85-4.08-2.58-7.45-5.19-10.11-2.61-2.66-6.43-4-11.47-4s-8.98,1.37-11.65,4.12c-2.66,2.75-4.45,6.22-5.35,10.41-.91,4.19-1.36,9.38-1.36,15.55s.45,11.28,1.36,15.47c.91,4.19,2.69,7.71,5.35,10.54,2.66,2.83,6.54,4.25,11.65,4.25Z"/></g><g><path class="cls-4" d="M617.55,241.51c-.06,.11-.08,.21-.08,.3s-.03,.18-.08,.3c-.23,1.3-.34,2.18-.34,2.63,0,.68,.21,1.22,.64,1.62,.43,.4,1.09,.65,2,.76v.25h-5.61v-.25c.74-.28,1.3-.76,1.7-1.45,.4-.68,.82-2.07,1.27-4.17l11.05-49.55h.51l-11.05,49.55Zm18.27-18.1v.42h-14.62v-.42h14.62Zm-8.16-32.39c-.11-.85-.28-1.51-.51-2-.23-.48-.57-.92-1.02-1.32v-.42h7.56l10.97,54.23c.34,1.7,.72,2.96,1.15,3.78,.42,.82,1.06,1.43,1.91,1.83v.25h-11.39v-.25c1.3-.57,1.96-1.42,1.96-2.55,0-.45-.04-.94-.13-1.45s-.16-1.02-.21-1.53l-10.28-50.58Z"/><path class="cls-4" d="M648.23,188.3c-1.25,0-2.28,.21-3.1,.64-.82,.42-1.53,1.18-2.12,2.25-.6,1.08-1.12,2.63-1.57,4.67h-.34l.6-9.01h.34c.34,.4,.82,.67,1.44,.81,.62,.14,1.5,.21,2.64,.21h21.08c1.13,0,2.01-.07,2.63-.21,.62-.14,1.1-.41,1.45-.81h.34l.59,9.01h-.34c-.45-2.04-.98-3.6-1.57-4.67-.6-1.08-1.3-1.83-2.12-2.25-.82-.42-1.86-.64-3.1-.64h-5.1v50.75c0,2.44,.16,4.21,.47,5.31,.31,1.11,.98,1.97,2,2.59v.42h-11.56v-.42c1.02-.62,1.69-1.49,2-2.59,.31-1.1,.47-2.88,.47-5.31v-50.75h-5.1Z"/><path class="cls-4" d="M676.19,195.69c0-2.27-.16-3.92-.47-4.97-.31-1.05-.98-1.86-2-2.42v-.42h10.46c6.18,0,10.88,1.9,14.11,5.7,3.23,3.8,4.84,9.12,4.84,15.98s-1.6,11.9-4.8,15.64c-3.2,3.74-7.92,5.61-14.15,5.61h-1.27v8.75c0,2.27,.21,3.94,.64,5.02,.42,1.08,1.29,1.87,2.59,2.38v.42h-12.41v-.42c1.02-.57,1.69-1.37,2-2.42,.31-1.05,.47-2.71,.47-4.97v-43.86Zm7.99,34.68c2.72,0,4.93-.85,6.63-2.55,1.7-1.7,2.95-4.04,3.74-7.01,.79-2.97,1.19-6.73,1.19-11.26s-.4-8.42-1.19-11.47c-.79-3.06-2.04-5.45-3.74-7.18-1.7-1.73-3.91-2.59-6.63-2.59h-1.27v42.08h1.27Z"/><path class="cls-4" d="M722.09,241.51c-.06,.11-.09,.21-.09,.3s-.03,.18-.08,.3c-.23,1.3-.34,2.18-.34,2.63,0,.68,.21,1.22,.64,1.62,.43,.4,1.09,.65,2,.76v.25h-5.61v-.25c.74-.28,1.3-.76,1.7-1.45,.4-.68,.82-2.07,1.28-4.17l11.05-49.55h.51l-11.05,49.55Zm18.27-18.1v.42h-14.62v-.42h14.62Zm-8.16-32.39c-.12-.85-.29-1.51-.51-2-.23-.48-.57-.92-1.02-1.32v-.42h7.57l10.97,54.23c.34,1.7,.72,2.96,1.15,3.78,.43,.82,1.06,1.43,1.91,1.83v.25h-11.39v-.25c1.3-.57,1.96-1.42,1.96-2.55,0-.45-.04-.94-.13-1.45s-.16-1.02-.21-1.53l-10.28-50.58Z"/><path class="cls-4" d="M752.78,188.3c-1.25,0-2.28,.21-3.1,.64-.82,.42-1.53,1.18-2.12,2.25-.6,1.08-1.12,2.63-1.57,4.67h-.34l.59-9.01h.34c.34,.4,.82,.67,1.45,.81,.62,.14,1.5,.21,2.63,.21h21.08c1.13,0,2.01-.07,2.63-.21,.62-.14,1.11-.41,1.45-.81h.34l.6,9.01h-.34c-.46-2.04-.98-3.6-1.57-4.67-.6-1.08-1.3-1.83-2.12-2.25-.82-.42-1.86-.64-3.1-.64h-5.1v50.75c0,2.44,.16,4.21,.47,5.31,.31,1.11,.98,1.97,2,2.59v.42h-11.56v-.42c1.02-.62,1.69-1.49,2-2.59,.31-1.1,.47-2.88,.47-5.31v-50.75h-5.1Z"/><path class="cls-4" d="M801.06,186.77l1.87,6.12-.34,.08c-.91-1.81-2-3.04-3.27-3.7-1.27-.65-3.13-.98-5.57-.98h-6.29v31.71h7.14c1.08,0,1.96-.08,2.63-.25s1.28-.5,1.79-.98c.51-.48,.91-1.2,1.19-2.17h.34v7.22h-.34c-.28-.96-.68-1.69-1.19-2.17-.51-.48-1.09-.81-1.74-.98-.65-.17-1.54-.25-2.68-.25h-7.14v26.52h5.61c2.21,0,4.04-.2,5.48-.59,1.45-.4,2.71-1.08,3.78-2.04,1.08-.96,2.07-2.32,2.98-4.08l.34,.08-3.49,8.16h-.34c-.45-.34-1.01-.61-1.66-.81-.65-.2-1.54-.3-2.68-.3h-19.21v-.42c1.02-.57,1.69-1.37,2-2.42,.31-1.05,.47-2.71,.47-4.97v-43.86c0-2.27-.16-3.92-.47-4.97-.31-1.05-.98-1.86-2-2.42v-.42h18.02c1.13,0,2.04-.1,2.72-.3,.68-.2,1.22-.47,1.62-.81h.42Z"/><path class="cls-4" d="M820.95,246.95c2.21,0,4.04-.2,5.48-.59,1.45-.4,2.71-1.08,3.78-2.04,1.08-.96,2.1-2.32,3.06-4.08l.34,.08-3.48,8.16h-.34c-.45-.34-1.02-.61-1.7-.81-.68-.2-1.56-.3-2.63-.3h-18.02v-.42c1.02-.57,1.69-1.37,2-2.42,.31-1.05,.47-2.71,.47-4.97v-43.86c0-2.27-.16-3.92-.47-4.97-.31-1.05-.98-1.86-2-2.42v-.42h11.98v.42c-1.19,.57-1.96,1.38-2.29,2.42-.34,1.05-.51,2.71-.51,4.97v51.25h4.33Z"/><path class="cls-4" d="M833.7,187.87h11.56v.42c-1.02,.57-1.67,1.38-1.96,2.42-.29,1.05-.43,2.71-.43,4.97v43.86c0,2.27,.14,3.92,.43,4.97,.28,1.05,.91,1.86,1.87,2.42v.42h-11.47v-.42c1.02-.57,1.69-1.37,2-2.42,.31-1.05,.47-2.71,.47-4.97v-43.86c0-2.27-.16-3.92-.47-4.97-.31-1.05-.98-1.86-2-2.42v-.42Z"/><path class="cls-4" d="M870.84,186.77l1.87,6.12-.34,.08c-.91-1.81-2-3.04-3.27-3.7-1.28-.65-3.13-.98-5.57-.98h-6.29v31.71h7.14c1.08,0,1.95-.08,2.63-.25s1.27-.5,1.79-.98c.51-.48,.91-1.2,1.19-2.17h.34v7.22h-.34c-.29-.96-.68-1.69-1.19-2.17-.51-.48-1.09-.81-1.74-.98-.65-.17-1.54-.25-2.68-.25h-7.14v26.52h5.61c2.21,0,4.04-.2,5.48-.59s2.71-1.08,3.78-2.04c1.08-.96,2.07-2.32,2.97-4.08l.34,.08-3.48,8.16h-.34c-.45-.34-1.01-.61-1.66-.81-.65-.2-1.54-.3-2.68-.3h-19.21v-.42c1.02-.57,1.69-1.37,2-2.42,.31-1.05,.47-2.71,.47-4.97v-43.86c0-2.27-.16-3.92-.47-4.97-.31-1.05-.98-1.86-2-2.42v-.42h18.02c1.13,0,2.04-.1,2.72-.3,.68-.2,1.22-.47,1.61-.81h.43Z"/><path class="cls-4" d="M879.68,195.69c0-2.27-.16-3.92-.47-4.97-.31-1.05-.98-1.86-2-2.42v-.42h10.03c6.97,0,11.96,1.94,14.96,5.82,3,3.88,4.51,9.14,4.51,15.77,0,5.95-1.3,10.75-3.91,14.41-2.61,3.66-6.8,5.82-12.58,6.5v.17h1.02c3.34,0,5.89,.59,7.65,1.79,1.76,1.19,3.29,3.17,4.59,5.95l2.46,5.18c0,.06,.01,.08,.04,.08,.03,0,.04,.03,.04,.08,.68,1.47,1.3,2.48,1.87,3.02,.57,.54,1.36,.67,2.38,.38v.34c-2.55,.4-4.58,.47-6.08,.21-1.5-.26-2.68-.84-3.53-1.74-.85-.91-1.67-2.29-2.46-4.17l-2.46-5.27c-.68-1.47-1.35-2.62-2-3.44-.65-.82-1.33-1.39-2.04-1.7-.71-.31-1.6-.47-2.68-.47h-2.63v8.75c0,2.27,.17,3.92,.51,4.97,.34,1.05,1.08,1.86,2.21,2.42v.42h-11.9v-.42c1.02-.57,1.69-1.37,2-2.42,.31-1.05,.47-2.71,.47-4.97v-43.86Zm7.48,34.68c3.23,0,5.72-.83,7.48-2.51,1.76-1.67,2.97-4,3.65-6.97,.68-2.97,1.02-6.79,1.02-11.43s-.33-8.25-.98-11.3c-.65-3.06-1.84-5.47-3.57-7.23-1.73-1.75-4.18-2.63-7.35-2.63h-1.02v42.08h.76Z"/><path class="cls-4" d="M933.23,217.45c0-5.44,.84-10.46,2.51-15.04,1.67-4.59,4.39-8.29,8.16-11.09,3.77-2.8,8.54-4.21,14.32-4.21,2.89,0,5.54,.35,7.95,1.06,2.41,.71,4.55,1.77,6.42,3.19l-.08,6.03h-.34c-.06-.28-.14-.58-.25-.89-.12-.31-.23-.64-.34-.98-1.08-2.49-2.75-4.46-5.02-5.91-2.27-1.44-5.02-2.17-8.25-2.17-4.82,0-8.74,1.4-11.77,4.21-3.03,2.81-5.23,6.46-6.59,10.96-1.36,4.51-2.04,9.45-2.04,14.83,0,5.78,.68,10.92,2.04,15.43,1.36,4.5,3.51,8.06,6.46,10.67,2.95,2.61,6.66,3.91,11.13,3.91,1.93,0,3.68-.24,5.27-.72,1.59-.48,2.89-1.23,3.91-2.25,.34-.34,.64-.74,.89-1.19,.25-.45,.45-.95,.6-1.49,.14-.54,.21-1.12,.21-1.74v-14.45c0-1.47-.08-2.65-.25-3.53-.17-.88-.48-1.57-.94-2.08-.45-.51-1.1-.93-1.96-1.27v-.34h9.27v.43c-.74,.51-1.23,1.22-1.49,2.12-.25,.91-.38,2.44-.38,4.59v16.75c-1.76,1.98-4,3.41-6.72,4.29-2.72,.88-5.58,1.32-8.58,1.32-5.55,0-10.13-1.3-13.73-3.91-3.6-2.61-6.23-6.19-7.9-10.75-1.67-4.56-2.51-9.82-2.51-15.77Z"/><path class="cls-4" d="M977.17,187.79h8.75v.42c-.85,.51-1.42,1.22-1.7,2.12-.28,.91-.42,2.32-.42,4.25v45.99c0,1.98,.13,3.41,.38,4.29,.25,.88,.83,1.57,1.74,2.08v.42h-8.75v-.42c.96-.51,1.57-1.2,1.83-2.08,.26-.88,.38-2.31,.38-4.29v-45.99c0-1.93-.13-3.34-.38-4.25-.25-.91-.86-1.62-1.83-2.12v-.42Z"/><path class="cls-4" d="M991.62,241.85c-.06,.06-.08,.16-.08,.3s-.03,.27-.09,.38c-.4,1.25-.59,2.1-.59,2.55,0,.57,.17,1.02,.51,1.36,.34,.34,.88,.59,1.62,.76v.25l-5.19-.08v-.25c.74-.23,1.3-.68,1.7-1.36,.4-.68,.93-1.98,1.61-3.91l17.51-49.55h.34l-17.34,49.55Zm28.99-18.44v.42h-22.87v-.42h22.87Zm-14.03-32.98c-.28-.62-.53-1.17-.72-1.66-.2-.48-.41-.86-.64-1.15v-.34h4.76l20.91,54.83c.56,1.7,1.08,2.89,1.53,3.57,.45,.68,1.02,1.16,1.7,1.45v.25h-8.67v-.25c1.08-.28,1.62-.91,1.62-1.87,0-.4-.04-.81-.13-1.23s-.24-.92-.47-1.49l-19.89-52.11Z"/><path class="cls-4" d="M1038.28,190.85c-.11-.23-.23-.44-.34-.64-.11-.2-.23-.38-.34-.55-.23-.34-.45-.61-.68-.81-.23-.2-.45-.38-.68-.55v-.42h5.61l34,52.96-.17-.08v-45.82c0-1.53-.08-2.71-.25-3.53-.17-.82-.54-1.47-1.11-1.96-.57-.48-1.39-.86-2.46-1.15v-.42h6.46v.42c-.91,.45-1.49,1.12-1.74,2-.25,.88-.38,2.39-.38,4.55v53.55h-.43l-37.49-57.54Zm2.63,1.11h.42v48.37c0,1.53,.09,2.71,.26,3.53,.17,.82,.51,1.47,1.02,1.96s1.33,.86,2.46,1.15v.42h-6.8v-.42c.74-.28,1.3-.67,1.7-1.15,.4-.48,.65-1.13,.76-1.96,.11-.82,.17-1.94,.17-3.36v-48.54Z"/><path class="cls-4" d="M1103.48,246.95c2.49,0,4.47-.17,5.95-.51,1.47-.34,2.72-.92,3.74-1.74,1.02-.82,2.01-2.08,2.97-3.78l.34,.17-3.23,7.48h-.51c-.45-.46-1.09-.77-1.91-.94-.82-.17-2.11-.25-3.87-.25h-24.99v-.42c.96-.51,1.57-1.19,1.83-2.04,.25-.85,.38-2.29,.38-4.33v-45.99c0-1.93-.13-3.34-.38-4.25-.26-.91-.87-1.62-1.83-2.12v-.42h8.93v.42c-.96,.51-1.59,1.22-1.87,2.12-.28,.91-.42,2.32-.42,4.25v52.36h14.88Z"/><path class="cls-4" d="M1137.31,247.88c-3.97,0-7.3-.64-9.99-1.91-2.69-1.28-4.75-3.22-6.16-5.82-1.42-2.61-2.12-5.81-2.12-9.61v-35.19c0-1.36-.04-2.54-.13-3.53-.08-.99-.28-1.76-.59-2.29-.31-.54-.81-.98-1.49-1.32v-.42h8.93v.34c-.74,.34-1.26,.79-1.57,1.36-.31,.57-.52,1.29-.64,2.17-.11,.88-.17,2.11-.17,3.7v34.68c0,3.57,.6,6.56,1.79,8.97,1.19,2.41,2.93,4.22,5.23,5.44,2.29,1.22,5.11,1.83,8.46,1.83,3.74,0,6.79-.61,9.14-1.83,2.35-1.22,4.09-3.04,5.23-5.48,1.13-2.44,1.7-5.44,1.7-9.01v-34.59c0-2.21-.24-3.85-.72-4.93-.48-1.08-1.46-1.84-2.93-2.29v-.34h6.63v.34c-1.02,.45-1.71,1.21-2.08,2.25-.37,1.05-.55,2.71-.55,4.97v35.27c0,3.85-.65,7.07-1.96,9.65-1.3,2.58-3.29,4.49-5.95,5.74-2.66,1.25-6.01,1.87-10.03,1.87Z"/><path class="cls-4" d="M1160.77,217.45c0-6.35,.95-11.79,2.85-16.32,1.9-4.53,4.74-8,8.54-10.41,3.8-2.41,8.53-3.61,14.2-3.61,2.38,0,4.77,.23,7.18,.68,2.41,.45,4.38,1.08,5.91,1.87l.68,5.1-.34,.08c-1.08-2.44-2.83-4.26-5.27-5.48-2.44-1.22-5.07-1.83-7.9-1.83-4.54,0-8.37,1.2-11.52,3.61-3.14,2.41-5.51,5.85-7.1,10.33-1.59,4.48-2.38,9.8-2.38,15.98s.79,11.5,2.38,15.98c1.59,4.48,3.94,7.92,7.05,10.33,3.12,2.41,6.97,3.61,11.56,3.61,2.83,0,5.47-.61,7.9-1.83s4.19-3.02,5.27-5.4l.34,.08-.68,5.01c-1.59,.85-3.58,1.5-5.99,1.96s-4.77,.68-7.1,.68c-5.67,0-10.4-1.2-14.2-3.61-3.8-2.41-6.64-5.89-8.54-10.46-1.9-4.56-2.85-10.02-2.85-16.36Z"/><path class="cls-4" d="M1202.84,217.45c0-6.35,.95-11.79,2.85-16.32,1.9-4.53,4.74-8,8.54-10.41,3.8-2.41,8.53-3.61,14.2-3.61,2.38,0,4.77,.23,7.18,.68,2.41,.45,4.38,1.08,5.91,1.87l.68,5.1-.34,.08c-1.08-2.44-2.83-4.26-5.27-5.48-2.44-1.22-5.07-1.83-7.9-1.83-4.54,0-8.37,1.2-11.52,3.61-3.14,2.41-5.51,5.85-7.1,10.33-1.59,4.48-2.38,9.8-2.38,15.98s.79,11.5,2.38,15.98c1.59,4.48,3.94,7.92,7.05,10.33,3.12,2.41,6.97,3.61,11.56,3.61,2.83,0,5.47-.61,7.9-1.83s4.19-3.02,5.27-5.4l.34,.08-.68,5.01c-1.59,.85-3.58,1.5-5.99,1.96s-4.77,.68-7.1,.68c-5.67,0-10.4-1.2-14.2-3.61-3.8-2.41-6.64-5.89-8.54-10.46-1.9-4.56-2.85-10.02-2.85-16.36Z"/><path class="cls-4" d="M1246.96,241.85c-.06,.06-.08,.16-.08,.3s-.03,.27-.09,.38c-.4,1.25-.6,2.1-.6,2.55,0,.57,.17,1.02,.51,1.36,.34,.34,.88,.59,1.61,.76v.25l-5.18-.08v-.25c.73-.23,1.3-.68,1.7-1.36,.4-.68,.94-1.98,1.62-3.91l17.51-49.55h.34l-17.34,49.55Zm28.98-18.44v.42h-22.86v-.42h22.86Zm-14.02-32.98c-.29-.62-.53-1.17-.72-1.66-.2-.48-.41-.86-.64-1.15v-.34h4.76l20.91,54.83c.57,1.7,1.08,2.89,1.53,3.57,.45,.68,1.02,1.16,1.7,1.45v.25h-8.67v-.25c1.08-.28,1.62-.91,1.62-1.87,0-.4-.04-.81-.13-1.23-.09-.42-.24-.92-.47-1.49l-19.89-52.11Z"/></g><g><path class="cls-4" d="M368.58,264.91c-.06-.11-.08-.2-.08-.25s-.03-.14-.08-.25c-.57-1.36-1.05-2.35-1.45-2.97-.4-.62-.91-1.08-1.53-1.36v-.34h9.09v.34c-.68,.11-1.18,.35-1.49,.72-.31,.37-.47,.81-.47,1.32,0,.68,.2,1.59,.59,2.72l17.25,49.04h-.25l16.06-46.66c.06-.11,.1-.23,.13-.34,.03-.11,.07-.23,.13-.34,.34-.96,.58-1.74,.72-2.34,.14-.6,.21-1.15,.21-1.66,0-.74-.16-1.3-.47-1.7-.31-.4-.81-.65-1.49-.77v-.34h5.35v.34c-.68,.17-1.25,.62-1.7,1.36-.45,.74-.94,1.84-1.44,3.31l-19.29,55.5h-.34l-19.46-55.33Z"/><path class="cls-4" d="M444.32,258.53l1.7,5.44-.34,.08c-.79-1.53-1.77-2.58-2.93-3.14-1.16-.57-2.99-.85-5.48-.85h-17.85v31.88h18.62c1.08,0,1.94-.07,2.59-.21,.65-.14,1.18-.44,1.57-.89,.4-.45,.68-1.08,.85-1.87h.34v6.29h-.34c-.17-.85-.45-1.47-.85-1.87-.4-.4-.91-.68-1.53-.85-.62-.17-1.5-.25-2.63-.25h-18.62v26.52h16.66c2.49,0,4.46-.16,5.91-.47,1.45-.31,2.69-.89,3.74-1.74,1.05-.85,2-2.12,2.85-3.83l.43,.17-3.31,7.48h-.34c-.45-.46-1.12-.77-2-.94-.88-.17-2.14-.25-3.78-.25h-26.77v-.42c.96-.51,1.57-1.19,1.83-2.04,.26-.85,.38-2.29,.38-4.33v-45.99c0-1.93-.13-3.34-.38-4.25-.25-.91-.86-1.62-1.83-2.12v-.42h25.33c1.64,0,2.9-.07,3.78-.21,.88-.14,1.57-.44,2.08-.89h.34Z"/><path class="cls-4" d="M453.67,266.52c0-1.93-.14-3.34-.43-4.25-.28-.91-.88-1.62-1.78-2.12v-.42h16.15c7.54,0,13.12,1.96,16.75,5.87,3.63,3.91,5.44,9.15,5.44,15.72,0,6.01-1.45,10.79-4.33,14.37-2.89,3.57-7.31,5.75-13.26,6.54v.17h1.87c2.95,0,5.23,.54,6.84,1.62,1.62,1.08,3.16,2.89,4.63,5.44l3.4,6.12,.08,.08c.79,1.47,1.52,2.46,2.17,2.98,.65,.51,1.54,.59,2.68,.25v.34c-1.98,.34-3.6,.37-4.85,.08-1.25-.28-2.27-.81-3.06-1.57-.79-.77-1.59-1.94-2.38-3.53l-3.06-5.53c-1.02-1.76-1.93-3.04-2.72-3.87-.79-.82-1.73-1.39-2.81-1.7-1.08-.31-2.64-.47-4.67-.47h-12.16v9.78c0,1.98,.13,3.41,.38,4.29,.26,.88,.86,1.57,1.83,2.08v.42h-8.92v-.42c.96-.51,1.57-1.2,1.83-2.08,.26-.88,.38-2.31,.38-4.29v-45.9Zm12.75,35.7c4.82,0,8.6-.86,11.35-2.59,2.75-1.73,4.63-4.12,5.65-7.18,1.02-3.06,1.53-6.77,1.53-11.13s-.57-8.1-1.7-11.22c-1.13-3.12-3.03-5.55-5.7-7.31-2.66-1.75-6.12-2.63-10.37-2.63h-9.01v42.08h8.25Z"/><path class="cls-4" d="M506.36,287.86c-3.12-1.81-5.55-3.91-7.31-6.29-1.76-2.38-2.64-5.3-2.64-8.75,0-2.89,.65-5.37,1.96-7.44,1.3-2.07,3.2-3.66,5.7-4.76,2.49-1.11,5.5-1.66,9.01-1.66,2.66,0,5.04,.34,7.14,1.02,2.1,.68,3.97,1.56,5.61,2.63l.51,5.7-.43,.08c-.68-2.78-2.24-4.99-4.67-6.63-2.44-1.64-5.21-2.46-8.33-2.46-3.97,0-7.11,1.06-9.44,3.19-2.32,2.12-3.48,5.03-3.48,8.71,0,1.98,.35,3.74,1.06,5.27,.71,1.53,1.67,2.88,2.89,4.04,1.22,1.16,2.71,2.28,4.46,3.36l7.56,4.59c2.32,1.42,4.31,2.83,5.95,4.25,1.64,1.42,2.96,3.1,3.95,5.06,.99,1.96,1.49,4.32,1.49,7.1,0,3.12-.68,5.79-2.04,8.03-1.36,2.24-3.33,3.94-5.91,5.1-2.58,1.16-5.62,1.74-9.14,1.74-3,0-5.64-.34-7.9-1.02-2.27-.68-4.22-1.56-5.87-2.63l-.51-5.7,.42-.08v.13s.03,.07,.08,.13c.51,1.76,1.43,3.3,2.76,4.63,1.33,1.33,2.98,2.37,4.93,3.1s4.07,1.1,6.33,1.1c4.02,0,7.24-1.15,9.65-3.44,2.41-2.29,3.61-5.51,3.61-9.65,0-2.21-.41-4.17-1.23-5.87-.82-1.7-1.93-3.16-3.31-4.38-1.39-1.22-3.13-2.42-5.23-3.61l-7.65-4.59Z"/><path class="cls-4" d="M532.2,313.7c-.06,.06-.08,.16-.08,.3s-.03,.27-.09,.38c-.4,1.25-.59,2.1-.59,2.55,0,.57,.17,1.02,.51,1.36,.34,.34,.88,.59,1.62,.76v.25l-5.19-.08v-.25c.74-.23,1.3-.68,1.7-1.36,.4-.68,.93-1.98,1.61-3.91l17.51-49.55h.34l-17.34,49.55Zm28.98-18.44v.42h-22.87v-.42h22.87Zm-14.02-32.98c-.28-.62-.52-1.17-.72-1.66-.2-.48-.41-.86-.64-1.15v-.34h4.76l20.91,54.83c.57,1.7,1.08,2.89,1.53,3.57,.45,.68,1.02,1.16,1.7,1.45v.25h-8.67v-.25c1.08-.28,1.62-.91,1.62-1.87,0-.4-.04-.81-.13-1.23s-.24-.92-.47-1.49l-19.89-52.11Z"/><path class="cls-4" d="M574.02,289.3c0-6.35,.95-11.79,2.85-16.32,1.9-4.53,4.75-8,8.54-10.41,3.8-2.41,8.53-3.61,14.2-3.61,2.38,0,4.77,.23,7.18,.68,2.41,.45,4.38,1.08,5.91,1.87l.68,5.1-.34,.08c-1.08-2.44-2.83-4.26-5.27-5.48-2.44-1.22-5.07-1.83-7.9-1.83-4.53,0-8.37,1.2-11.52,3.61-3.15,2.41-5.51,5.85-7.1,10.33-1.59,4.48-2.38,9.8-2.38,15.98s.79,11.5,2.38,15.98c1.59,4.48,3.94,7.92,7.06,10.33,3.12,2.41,6.97,3.61,11.56,3.61,2.83,0,5.47-.61,7.9-1.83,2.44-1.22,4.19-3.02,5.27-5.4l.34,.08-.68,5.01c-1.59,.85-3.58,1.5-5.99,1.96-2.41,.45-4.77,.68-7.1,.68-5.67,0-10.4-1.2-14.2-3.61-3.8-2.41-6.64-5.89-8.54-10.46-1.9-4.56-2.85-10.02-2.85-16.36Z"/><path class="cls-4" d="M647.72,258.53l1.7,5.44-.34,.08c-.79-1.53-1.77-2.58-2.93-3.14-1.16-.57-2.99-.85-5.48-.85h-17.85v31.88h18.62c1.08,0,1.94-.07,2.59-.21,.65-.14,1.18-.44,1.57-.89,.4-.45,.68-1.08,.85-1.87h.34v6.29h-.34c-.17-.85-.45-1.47-.85-1.87-.4-.4-.91-.68-1.53-.85-.62-.17-1.5-.25-2.63-.25h-18.62v26.52h16.66c2.49,0,4.46-.16,5.91-.47,1.45-.31,2.69-.89,3.74-1.74,1.05-.85,2-2.12,2.85-3.83l.43,.17-3.31,7.48h-.34c-.45-.46-1.12-.77-2-.94-.88-.17-2.14-.25-3.78-.25h-26.77v-.42c.96-.51,1.57-1.19,1.83-2.04,.26-.85,.38-2.29,.38-4.33v-45.99c0-1.93-.13-3.34-.38-4.25-.25-.91-.86-1.62-1.83-2.12v-.42h25.33c1.64,0,2.9-.07,3.78-.21,.88-.14,1.57-.44,2.08-.89h.34Z"/><path class="cls-4" d="M687.33,287.86c-3.12-1.81-5.55-3.91-7.31-6.29-1.76-2.38-2.64-5.3-2.64-8.75,0-2.89,.65-5.37,1.96-7.44,1.3-2.07,3.2-3.66,5.7-4.76,2.49-1.11,5.5-1.66,9.01-1.66,2.66,0,5.04,.34,7.14,1.02,2.1,.68,3.97,1.56,5.61,2.63l.51,5.7-.43,.08c-.68-2.78-2.24-4.99-4.67-6.63-2.44-1.64-5.21-2.46-8.33-2.46-3.97,0-7.11,1.06-9.44,3.19-2.32,2.12-3.48,5.03-3.48,8.71,0,1.98,.35,3.74,1.06,5.27,.71,1.53,1.67,2.88,2.89,4.04,1.22,1.16,2.71,2.28,4.46,3.36l7.57,4.59c2.32,1.42,4.31,2.83,5.95,4.25,1.64,1.42,2.96,3.1,3.95,5.06,.99,1.96,1.49,4.32,1.49,7.1,0,3.12-.68,5.79-2.04,8.03-1.36,2.24-3.33,3.94-5.91,5.1-2.58,1.16-5.62,1.74-9.14,1.74-3,0-5.64-.34-7.9-1.02-2.27-.68-4.22-1.56-5.87-2.63l-.51-5.7,.42-.08v.13s.03,.07,.08,.13c.51,1.76,1.43,3.3,2.76,4.63,1.33,1.33,2.98,2.37,4.93,3.1s4.07,1.1,6.33,1.1c4.02,0,7.24-1.15,9.65-3.44,2.41-2.29,3.61-5.51,3.61-9.65,0-2.21-.41-4.17-1.23-5.87-.82-1.7-1.93-3.16-3.31-4.38-1.39-1.22-3.13-2.42-5.23-3.61l-7.65-4.59Z"/><path class="cls-4" d="M734.93,319.99c-6.06,0-10.81-1.42-14.24-4.25-3.43-2.83-5.78-6.49-7.05-10.96-1.28-4.48-1.91-9.6-1.91-15.38s.64-10.96,1.91-15.38,3.62-8.03,7.05-10.84c3.43-2.8,8.17-4.21,14.24-4.21s10.61,1.4,13.98,4.21c3.37,2.8,5.71,6.43,7.01,10.88,1.3,4.45,1.96,9.56,1.96,15.34s-.65,10.82-1.96,15.3c-1.3,4.48-3.65,8.15-7.05,11.01-3.4,2.86-8.05,4.29-13.94,4.29Zm0-.34c5.04,0,8.87-1.37,11.47-4.12,2.61-2.75,4.33-6.15,5.18-10.2,.85-4.05,1.3-9.14,1.36-15.26v-1.44c-.06-6.06-.51-11.14-1.36-15.22-.85-4.08-2.58-7.45-5.18-10.11-2.61-2.66-6.43-4-11.47-4s-8.98,1.37-11.65,4.12c-2.67,2.75-4.45,6.22-5.35,10.41-.91,4.19-1.36,9.38-1.36,15.55s.45,11.28,1.36,15.47c.91,4.19,2.69,7.71,5.35,10.54,2.66,2.83,6.54,4.25,11.65,4.25Z"/><path class="cls-4" d="M785.24,260.06h-17.08v32.73h18.62c1.08,0,1.93-.07,2.55-.21,.62-.14,1.15-.44,1.57-.89,.43-.45,.72-1.08,.89-1.87h.34v6.29h-.34c-.17-.85-.47-1.49-.89-1.91-.42-.42-.93-.71-1.53-.85-.6-.14-1.46-.21-2.59-.21h-18.62v18.96c0,1.76,.05,3.03,.17,3.82,.11,.79,.38,1.42,.81,1.87,.43,.45,1.15,.79,2.17,1.02v.42h-9.78v-.42c.96-.51,1.57-1.2,1.83-2.08,.25-.88,.38-2.31,.38-4.29v-45.99c0-1.93-.13-3.34-.38-4.25-.26-.91-.87-1.62-1.83-2.12v-.42h24.74c1.7,0,2.96-.07,3.78-.21,.82-.14,1.49-.44,2-.89h.34l1.79,5.44-.34,.08c-.85-1.53-1.86-2.58-3.02-3.14-1.16-.57-3.02-.85-5.57-.85Z"/><path class="cls-4" d="M796.46,259.64h8.75v.42c-.85,.51-1.42,1.22-1.7,2.12-.29,.91-.43,2.32-.43,4.25v45.99c0,1.98,.13,3.41,.38,4.29,.26,.88,.84,1.57,1.74,2.08v.42h-8.75v-.42c.96-.51,1.57-1.2,1.83-2.08,.26-.88,.38-2.31,.38-4.29v-45.99c0-1.93-.13-3.34-.38-4.25-.25-.91-.86-1.62-1.83-2.12v-.42Z"/><path class="cls-4" d="M810.91,313.7c-.06,.06-.09,.16-.09,.3s-.03,.27-.08,.38c-.4,1.25-.59,2.1-.59,2.55,0,.57,.17,1.02,.51,1.36,.34,.34,.88,.59,1.62,.76v.25l-5.19-.08v-.25c.74-.23,1.3-.68,1.7-1.36,.39-.68,.93-1.98,1.61-3.91l17.51-49.55h.34l-17.34,49.55Zm28.98-18.44v.42h-22.87v-.42h22.87Zm-14.03-32.98c-.28-.62-.52-1.17-.72-1.66-.2-.48-.41-.86-.64-1.15v-.34h4.76l20.91,54.83c.57,1.7,1.08,2.89,1.53,3.57,.45,.68,1.02,1.16,1.7,1.45v.25h-8.67v-.25c1.07-.28,1.61-.91,1.61-1.87,0-.4-.04-.81-.13-1.23-.08-.42-.24-.92-.47-1.49l-19.89-52.11Z"/><path class="cls-4" d="M876.96,289.3c0-6.35,.95-11.79,2.85-16.32,1.9-4.53,4.74-8,8.54-10.41,3.8-2.41,8.53-3.61,14.2-3.61,2.38,0,4.77,.23,7.18,.68,2.41,.45,4.38,1.08,5.91,1.87l.68,5.1-.34,.08c-1.08-2.44-2.83-4.26-5.27-5.48-2.44-1.22-5.07-1.83-7.9-1.83-4.54,0-8.37,1.2-11.52,3.61-3.14,2.41-5.51,5.85-7.1,10.33-1.59,4.48-2.38,9.8-2.38,15.98s.79,11.5,2.38,15.98c1.59,4.48,3.94,7.92,7.05,10.33,3.12,2.41,6.97,3.61,11.56,3.61,2.83,0,5.47-.61,7.9-1.83s4.19-3.02,5.27-5.4l.34,.08-.68,5.01c-1.59,.85-3.58,1.5-5.99,1.96s-4.77,.68-7.1,.68c-5.67,0-10.4-1.2-14.2-3.61-3.8-2.41-6.64-5.89-8.54-10.46-1.9-4.56-2.85-10.02-2.85-16.36Z"/><path class="cls-4" d="M942.24,319.99c-6.06,0-10.81-1.42-14.24-4.25-3.43-2.83-5.78-6.49-7.05-10.96-1.28-4.48-1.91-9.6-1.91-15.38s.64-10.96,1.91-15.38,3.62-8.03,7.05-10.84c3.43-2.8,8.17-4.21,14.24-4.21s10.61,1.4,13.98,4.21c3.37,2.8,5.71,6.43,7.01,10.88,1.3,4.45,1.96,9.56,1.96,15.34s-.65,10.82-1.96,15.3c-1.3,4.48-3.65,8.15-7.05,11.01-3.4,2.86-8.05,4.29-13.94,4.29Zm0-.34c5.04,0,8.87-1.37,11.47-4.12,2.61-2.75,4.33-6.15,5.19-10.2,.85-4.05,1.3-9.14,1.36-15.26v-1.44c-.06-6.06-.51-11.14-1.36-15.22-.85-4.08-2.58-7.45-5.19-10.11-2.61-2.66-6.43-4-11.47-4s-8.98,1.37-11.65,4.12c-2.66,2.75-4.45,6.22-5.35,10.41-.91,4.19-1.36,9.38-1.36,15.55s.45,11.28,1.36,15.47c.9,4.19,2.69,7.71,5.35,10.54,2.66,2.83,6.54,4.25,11.65,4.25Z"/><path class="cls-4" d="M973.94,264.99c0-1.3-.23-2.38-.68-3.23s-1.36-1.5-2.72-1.96v-.34h71.48c9.01,0,15.78,1.77,20.31,5.31,4.53,3.54,6.8,9,6.8,16.36s-2.25,12.65-6.76,16.19c-4.51,3.54-11.29,5.31-20.36,5.31h-63.5v11.05c0,1.47,.33,2.62,.98,3.44,.65,.82,1.77,1.4,3.36,1.74v.34h-12.32v-.34c1.36-.45,2.27-1.11,2.72-1.96s.68-1.93,.68-3.23v-48.71Zm66.3,37.23c5.27,0,9.68-.81,13.22-2.42,3.54-1.61,6.19-4,7.95-7.14s2.64-6.98,2.64-11.52-.88-8.53-2.64-11.64c-1.76-3.12-4.39-5.5-7.9-7.14-3.51-1.64-7.93-2.46-13.26-2.46h-61.71v42.33h61.71Z"/><path class="cls-4" d="M1076.62,264.99c0-1.3-.23-2.38-.68-3.23-.46-.85-1.36-1.5-2.72-1.96v-.34h71.48c9.01,0,15.78,1.77,20.32,5.31,4.53,3.54,6.8,9,6.8,16.36s-2.25,12.65-6.76,16.19c-4.5,3.54-11.29,5.31-20.36,5.31h-63.49v11.05c0,1.47,.33,2.62,.98,3.44,.65,.82,1.77,1.4,3.36,1.74v.34h-12.32v-.34c1.36-.45,2.27-1.11,2.72-1.96,.45-.85,.68-1.93,.68-3.23v-48.71Zm66.3,37.23c5.27,0,9.68-.81,13.22-2.42,3.54-1.61,6.19-4,7.95-7.14,1.76-3.14,2.63-6.98,2.63-11.52s-.88-8.53-2.63-11.64c-1.76-3.12-4.39-5.5-7.9-7.14-3.52-1.64-7.94-2.46-13.26-2.46h-61.71v42.33h61.71Z"/><path class="cls-4" d="M1197.32,319.99c-6.06,0-10.81-1.42-14.24-4.25-3.43-2.83-5.78-6.49-7.06-10.96-1.27-4.48-1.91-9.6-1.91-15.38s.64-10.96,1.91-15.38c1.28-4.42,3.63-8.03,7.06-10.84,3.43-2.8,8.17-4.21,14.24-4.21s10.61,1.4,13.98,4.21,5.71,6.43,7.01,10.88c1.3,4.45,1.96,9.56,1.96,15.34s-.65,10.82-1.96,15.3c-1.3,4.48-3.66,8.15-7.06,11.01-3.4,2.86-8.05,4.29-13.94,4.29Zm0-.34c5.04,0,8.87-1.37,11.47-4.12,2.61-2.75,4.34-6.15,5.19-10.2,.85-4.05,1.3-9.14,1.36-15.26v-1.44c-.06-6.06-.51-11.14-1.36-15.22-.85-4.08-2.58-7.45-5.19-10.11-2.61-2.66-6.43-4-11.47-4s-8.98,1.37-11.64,4.12c-2.66,2.75-4.45,6.22-5.36,10.41-.91,4.19-1.36,9.38-1.36,15.55s.45,11.28,1.36,15.47c.91,4.19,2.69,7.71,5.36,10.54,2.66,2.83,6.54,4.25,11.64,4.25Z"/><path class="cls-4" d="M1245.43,318.8c2.49,0,4.48-.17,5.95-.51,1.47-.34,2.72-.92,3.74-1.74,1.02-.82,2.01-2.08,2.97-3.78l.34,.17-3.23,7.48h-.51c-.46-.46-1.09-.77-1.91-.94-.82-.17-2.11-.25-3.87-.25h-24.99v-.42c.96-.51,1.57-1.19,1.83-2.04,.26-.85,.38-2.29,.38-4.33v-45.99c0-1.93-.13-3.34-.38-4.25-.25-.91-.86-1.62-1.83-2.12v-.42h8.92v.42c-.96,.51-1.59,1.22-1.87,2.12-.29,.91-.43,2.32-.43,4.25v52.36h14.88Z"/><path class="cls-4" d="M1261.49,313.7c-.06,.06-.08,.16-.08,.3s-.03,.27-.09,.38c-.4,1.25-.6,2.1-.6,2.55,0,.57,.17,1.02,.51,1.36,.34,.34,.88,.59,1.61,.76v.25l-5.18-.08v-.25c.73-.23,1.3-.68,1.7-1.36,.4-.68,.94-1.98,1.62-3.91l17.51-49.55h.34l-17.34,49.55Zm28.98-18.44v.42h-22.86v-.42h22.86Zm-14.02-32.98c-.29-.62-.53-1.17-.72-1.66-.2-.48-.41-.86-.64-1.15v-.34h4.76l20.91,54.83c.57,1.7,1.08,2.89,1.53,3.57,.45,.68,1.02,1.16,1.7,1.45v.25h-8.67v-.25c1.08-.28,1.62-.91,1.62-1.87,0-.4-.04-.81-.13-1.23-.09-.42-.24-.92-.47-1.49l-19.89-52.11Z"/></g><g><path class="cls-4" d="M298.6,332.58l12.41,47.86-1.79,6.46,13.85-54.32h9.1v.42c-1.02,.57-1.69,1.38-2,2.42-.31,1.05-.47,2.71-.47,4.97v43.86c0,2.27,.16,3.92,.47,4.97,.31,1.05,.98,1.86,2,2.42v.42h-11.65v-.42c1.02-.57,1.7-1.37,2.04-2.42,.34-1.05,.51-2.71,.51-4.97v-50.83h.34l-15.38,60.35h-.34l-15.64-59.58h.42v51c0,1.36,.08,2.44,.26,3.23,.17,.79,.52,1.46,1.06,2,.54,.54,1.37,.95,2.51,1.23v.42h-7.06v-.42c.85-.28,1.47-.71,1.87-1.28,.4-.57,.65-1.23,.77-2,.11-.77,.17-1.83,.17-3.19v-45.13c0-2.1-.16-3.64-.47-4.63-.31-.99-.95-1.8-1.91-2.42v-.42h8.92Z"/><path class="cls-4" d="M334.9,332.58h11.56v.42c-1.02,.57-1.67,1.38-1.96,2.42-.28,1.05-.42,2.71-.42,4.97v43.86c0,2.27,.14,3.92,.42,4.97,.28,1.05,.91,1.86,1.87,2.42v.42h-11.48v-.42c1.02-.57,1.69-1.37,2-2.42,.31-1.05,.47-2.71,.47-4.97v-43.86c0-2.27-.16-3.92-.47-4.97-.31-1.05-.98-1.86-2-2.42v-.42Z"/><path class="cls-4" d="M364.31,392.42c-3,0-5.47-.57-7.4-1.7-1.93-1.13-3.36-2.8-4.29-5.01-.93-2.21-1.4-4.93-1.4-8.16v-36.63c0-1.53-.04-2.8-.13-3.83-.08-1.02-.31-1.86-.68-2.51-.37-.65-.92-1.17-1.66-1.57v-.42h11.56v.34c-.68,.45-1.2,1.01-1.57,1.66-.37,.65-.59,1.49-.68,2.51-.09,1.02-.13,2.29-.13,3.83v36.21c0,2.78,.3,5.13,.89,7.05,.6,1.93,1.6,3.42,3.02,4.46,1.42,1.05,3.26,1.57,5.52,1.57s4.07-.54,5.4-1.62c1.33-1.08,2.28-2.56,2.85-4.46,.57-1.9,.85-4.24,.85-7.01v-36.21c0-2.44-.25-4.24-.77-5.4-.51-1.16-1.53-2.03-3.06-2.59v-.34h7.06v.34c-1.02,.57-1.74,1.46-2.17,2.68-.43,1.22-.64,2.99-.64,5.31v36.8c0,3.17-.4,5.85-1.19,8.03-.79,2.18-2.11,3.84-3.95,4.97-1.84,1.13-4.32,1.7-7.44,1.7Z"/><path class="cls-4" d="M406.55,332.58l12.41,47.86-1.79,6.46,13.85-54.32h9.1v.42c-1.02,.57-1.69,1.38-2,2.42-.31,1.05-.47,2.71-.47,4.97v43.86c0,2.27,.16,3.92,.47,4.97,.31,1.05,.98,1.86,2,2.42v.42h-11.65v-.42c1.02-.57,1.7-1.37,2.04-2.42,.34-1.05,.51-2.71,.51-4.97v-50.83h.34l-15.38,60.35h-.34l-15.64-59.58h.42v51c0,1.36,.08,2.44,.26,3.23,.17,.79,.52,1.46,1.06,2,.54,.54,1.37,.95,2.51,1.23v.42h-7.06v-.42c.85-.28,1.47-.71,1.87-1.28,.4-.57,.65-1.23,.77-2,.11-.77,.17-1.83,.17-3.19v-45.13c0-2.1-.16-3.64-.47-4.63-.31-.99-.95-1.8-1.91-2.42v-.42h8.92Z"/><path class="cls-4" d="M442.84,332.58h11.56v.42c-1.02,.57-1.67,1.38-1.96,2.42-.28,1.05-.42,2.71-.42,4.97v43.86c0,2.27,.14,3.92,.42,4.97,.28,1.05,.91,1.86,1.87,2.42v.42h-11.48v-.42c1.02-.57,1.69-1.37,2-2.42,.31-1.05,.47-2.71,.47-4.97v-43.86c0-2.27-.16-3.92-.47-4.97-.31-1.05-.98-1.86-2-2.42v-.42Z"/><path class="cls-4" d="M472.25,392.42c-3,0-5.47-.57-7.4-1.7-1.93-1.13-3.36-2.8-4.29-5.01-.93-2.21-1.4-4.93-1.4-8.16v-36.63c0-1.53-.04-2.8-.13-3.83-.08-1.02-.31-1.86-.68-2.51-.37-.65-.92-1.17-1.66-1.57v-.42h11.56v.34c-.68,.45-1.2,1.01-1.57,1.66-.37,.65-.59,1.49-.68,2.51-.09,1.02-.13,2.29-.13,3.83v36.21c0,2.78,.3,5.13,.89,7.05,.6,1.93,1.6,3.42,3.02,4.46,1.42,1.05,3.26,1.57,5.52,1.57s4.07-.54,5.4-1.62c1.33-1.08,2.28-2.56,2.85-4.46,.57-1.9,.85-4.24,.85-7.01v-36.21c0-2.44-.25-4.24-.77-5.4-.51-1.16-1.53-2.03-3.06-2.59v-.34h7.06v.34c-1.02,.57-1.74,1.46-2.17,2.68-.43,1.22-.64,2.99-.64,5.31v36.8c0,3.17-.4,5.85-1.19,8.03-.79,2.18-2.11,3.84-3.95,4.97-1.84,1.13-4.32,1.7-7.44,1.7Z"/><path class="cls-4" d="M518.8,332.48l21.28,54.66-1.02,2.04,21.03-56.7h6.56v.43c-.91,.51-1.5,1.22-1.79,2.13-.28,.91-.43,2.33-.43,4.26v45.97c0,1.99,.14,3.42,.43,4.3,.28,.88,.88,1.58,1.79,2.09v.43h-8.94v-.43c.91-.51,1.53-1.22,1.87-2.13,.34-.91,.51-2.33,.51-4.26v-52.27h.17l-22.22,60.36h-.34l-22.99-59.51h.6v52.02c0,1.14,.07,2.07,.21,2.81,.14,.74,.47,1.36,.98,1.87s1.22,.88,2.13,1.11v.43h-6.13v-.43c.68-.23,1.19-.6,1.53-1.11,.34-.51,.58-1.13,.72-1.87,.14-.74,.21-1.67,.21-2.81v-47c0-1.76-.16-3.07-.47-3.92-.31-.85-.92-1.53-1.83-2.04v-.43h6.13Z"/><path class="cls-4" d="M570.39,332.4h8.77v.43c-.85,.51-1.42,1.22-1.7,2.13-.28,.91-.43,2.33-.43,4.26v46.06c0,1.99,.13,3.42,.38,4.3,.26,.88,.84,1.58,1.75,2.09v.43h-8.77v-.43c.96-.51,1.58-1.21,1.83-2.09,.26-.88,.38-2.31,.38-4.3v-46.06c0-1.93-.13-3.35-.38-4.26-.26-.91-.87-1.62-1.83-2.13v-.43Z"/><path class="cls-4" d="M602.65,392.59c-3.97,0-7.31-.64-10-1.92-2.7-1.28-4.75-3.22-6.17-5.83-1.42-2.61-2.13-5.82-2.13-9.62v-35.25c0-1.36-.04-2.54-.13-3.53-.09-.99-.28-1.76-.6-2.3-.31-.54-.81-.98-1.49-1.32v-.43h8.94v.34c-.74,.34-1.26,.79-1.58,1.36-.31,.57-.53,1.29-.64,2.17-.11,.88-.17,2.12-.17,3.7v34.74c0,3.58,.6,6.57,1.79,8.98,1.19,2.41,2.94,4.23,5.24,5.45,2.3,1.22,5.12,1.83,8.47,1.83,3.75,0,6.8-.61,9.15-1.83,2.35-1.22,4.1-3.05,5.24-5.49,1.13-2.44,1.7-5.45,1.7-9.02v-34.65c0-2.21-.24-3.86-.72-4.94-.48-1.08-1.46-1.84-2.94-2.3v-.34h6.64v.34c-1.02,.45-1.72,1.21-2.09,2.26-.37,1.05-.55,2.71-.55,4.98v35.33c0,3.86-.65,7.08-1.96,9.66-1.31,2.58-3.29,4.5-5.96,5.75-2.67,1.25-6.02,1.87-10.05,1.87Z"/><path class="cls-4" d="M626.91,362.25c0-7.37,2.03-13.32,6.08-17.85,4.05-4.53,10.14-7.85,18.27-9.95,8.13-2.1,18.54-3.15,31.24-3.15,9.58,0,18.42,.62,26.52,1.87,8.1,1.25,14.9,3.09,20.4,5.53l1.28,6.46-.43,.08c-2.78-5.1-8.56-8.61-17.34-10.54-8.78-1.93-18.59-2.89-29.41-2.89-11.5,0-21.05,1.08-28.65,3.23-7.59,2.15-13.32,5.47-17.17,9.95-3.85,4.48-5.78,10.23-5.78,17.25s1.93,12.78,5.78,17.25c3.85,4.48,9.58,7.81,17.17,9.99,7.59,2.18,17.14,3.27,28.65,3.27,10.82,0,20.63-.98,29.41-2.93,8.78-1.95,14.56-5.45,17.34-10.5l.43,.08-1.28,6.38c-5.5,2.44-12.3,4.28-20.4,5.53-8.1,1.25-16.94,1.87-26.52,1.87-12.69,0-23.11-1.05-31.24-3.15-8.13-2.1-14.22-5.41-18.27-9.95-4.05-4.53-6.08-10.48-6.08-17.85Z"/><path class="cls-4" d="M734.86,362.25c0-7.37,2.03-13.32,6.08-17.85,4.05-4.53,10.14-7.85,18.27-9.95,8.13-2.1,18.54-3.15,31.24-3.15,9.58,0,18.42,.62,26.52,1.87,8.1,1.25,14.9,3.09,20.4,5.53l1.28,6.46-.43,.08c-2.78-5.1-8.56-8.61-17.34-10.54-8.78-1.93-18.59-2.89-29.41-2.89-11.5,0-21.05,1.08-28.64,3.23-7.59,2.15-13.32,5.47-17.17,9.95-3.85,4.48-5.78,10.23-5.78,17.25s1.93,12.78,5.78,17.25c3.85,4.48,9.58,7.81,17.17,9.99,7.59,2.18,17.14,3.27,28.64,3.27,10.82,0,20.63-.98,29.41-2.93,8.78-1.95,14.56-5.45,17.34-10.5l.43,.08-1.28,6.38c-5.5,2.44-12.3,4.28-20.4,5.53-8.1,1.25-16.94,1.87-26.52,1.87-12.7,0-23.11-1.05-31.24-3.15s-14.22-5.41-18.27-9.95c-4.05-4.53-6.08-10.48-6.08-17.85Z"/><path class="cls-4" d="M842.13,332.4h8.77v.43c-.85,.51-1.42,1.22-1.7,2.13-.28,.91-.43,2.33-.43,4.26v46.06c0,1.99,.13,3.42,.38,4.3,.26,.88,.84,1.58,1.75,2.09v.43h-8.77v-.43c.96-.51,1.58-1.21,1.83-2.09,.26-.88,.38-2.31,.38-4.3v-46.06c0-1.93-.13-3.35-.38-4.26-.25-.91-.87-1.62-1.83-2.13v-.43Z"/><path class="cls-4" d="M856.61,386.55c-.06,.06-.09,.16-.09,.3s-.03,.27-.08,.38c-.4,1.25-.6,2.1-.6,2.55,0,.57,.17,1.02,.51,1.36s.88,.6,1.62,.77v.25l-5.19-.08v-.26c.74-.23,1.3-.68,1.7-1.36,.4-.68,.94-1.99,1.62-3.92l17.54-49.64h.34l-17.37,49.64Zm29.03-18.47v.43h-22.9v-.43h22.9Zm-14.05-33.03c-.29-.62-.53-1.18-.72-1.66-.2-.48-.41-.86-.64-1.15v-.34h4.77l20.95,54.91c.57,1.7,1.08,2.89,1.53,3.58,.46,.68,1.02,1.16,1.7,1.45v.26h-8.68v-.26c1.08-.28,1.62-.91,1.62-1.87,0-.4-.04-.81-.13-1.23-.09-.43-.24-.92-.47-1.49l-19.92-52.19Z"/></g><g><path class="cls-4" d="M961.29,381.39c-.17-.23-.31-.44-.43-.64-.11-.2-.23-.35-.34-.47-.91-1.42-1.73-2.45-2.46-3.1-.74-.65-1.6-1.12-2.59-1.4-.99-.28-2.42-.42-4.29-.42h-12.16v9.78c0,1.98,.13,3.41,.38,4.29,.26,.88,.86,1.57,1.83,2.08v.42h-8.92v-.42c.96-.51,1.57-1.2,1.83-2.08,.26-.88,.38-2.31,.38-4.29v-45.9c0-1.93-.14-3.34-.43-4.25-.28-.91-.88-1.62-1.78-2.12v-.42h16.15c7.54,0,13.12,1.96,16.75,5.87,3.62,3.91,5.44,9.15,5.44,15.72,0,6.01-1.45,10.79-4.33,14.37s-7.31,5.75-13.26,6.54v.17h1.87c1.87,0,3.44,.24,4.72,.72,1.28,.48,2.37,1.15,3.27,2,.91,.85,1.81,1.98,2.72,3.4,.17,.17,.3,.33,.38,.47,.09,.14,.21,.33,.38,.55l4.67,6.89c6.52,9.86,14.12,16.82,22.82,20.87,8.7,4.05,18.06,6.08,28.09,6.08,8.78,0,16.46-1.57,23.04-4.72,6.57-3.15,11.6-7.35,15.09-12.62,3.48-5.27,5.23-10.94,5.23-17,0-2.55-.42-4.5-1.27-5.87-.85-1.36-2.04-2.66-3.57-3.91-.79-.57-1.36-1.06-1.7-1.49-.34-.42-.51-.89-.51-1.4,0-.57,.18-1.02,.55-1.36,.37-.34,.84-.51,1.4-.51,1.59,0,2.97,1.02,4.17,3.06s1.79,4.99,1.79,8.84c0,7.03-1.79,13.39-5.35,19.08-3.57,5.7-8.73,10.2-15.47,13.52-6.74,3.31-14.65,4.97-23.71,4.97-8.27,0-15.78-.98-22.53-2.93-6.74-1.96-13-5.19-18.79-9.69-5.78-4.5-11.08-10.47-15.89-17.89l-3.14-4.76Zm-14.2-6.46c4.87,0,8.68-.86,11.43-2.59,2.75-1.73,4.65-4.12,5.7-7.18,1.05-3.06,1.57-6.77,1.57-11.13s-.57-8.1-1.7-11.22c-1.13-3.12-3.05-5.55-5.74-7.31-2.69-1.75-6.19-2.63-10.5-2.63h-8.84v42.08h8.08Z"/><path class="cls-4" d="M1006.93,331.5l1.7,4.5-.26,.08c-.85-1.3-1.83-2.2-2.93-2.68-1.11-.48-2.82-.72-5.14-.72h-16.92v23.88h17.76c1.02,0,1.81-.06,2.38-.17,.56-.11,1.05-.35,1.44-.72,.4-.37,.65-.92,.76-1.66h.34v5.36h-.34c-.11-.74-.35-1.29-.72-1.66-.37-.37-.84-.61-1.4-.72-.57-.11-1.36-.17-2.38-.17h-17.85v19.89h15.73c2.32,0,4.19-.13,5.61-.38,1.42-.25,2.61-.74,3.57-1.45,.96-.71,1.9-1.71,2.8-3.02l.42,.17-3.23,5.86h-.34c-.46-.34-1.09-.57-1.91-.68-.82-.11-2.03-.17-3.61-.17h-25.5v-.34c.85-.4,1.4-.95,1.66-1.66,.25-.71,.38-1.86,.38-3.44v-33.83c0-1.53-.13-2.66-.38-3.4-.25-.74-.81-1.3-1.66-1.7v-.34h24.14c1.59,0,2.79-.07,3.61-.21,.82-.14,1.46-.35,1.91-.64h.34Z"/><path class="cls-4" d="M1013.81,332.35h8.67v.34c-.91,.4-1.5,.96-1.79,1.7-.28,.74-.42,1.87-.42,3.4v33.83c0,1.59,.14,2.74,.42,3.44,.28,.71,.88,1.26,1.79,1.66v.34h-8.67v-.34c.85-.4,1.4-.96,1.66-1.7,.25-.74,.38-1.87,.38-3.4v-33.83c0-1.53-.13-2.66-.38-3.4-.26-.74-.81-1.3-1.66-1.7v-.34Z"/><path class="cls-4" d="M1087,348.67c0,5.33-1.54,9.25-4.63,11.77-3.09,2.52-7.07,3.98-11.94,4.38v.08c4.19,.23,7.72,1.32,10.58,3.27,2.86,1.96,4.29,5.29,4.29,9.99s-1.56,7.89-4.67,10.24c-3.12,2.35-7.74,3.53-13.86,3.53h-18.87v-.42c.96-.51,1.57-1.2,1.83-2.08,.26-.88,.38-2.31,.38-4.29v-45.99c0-1.93-.14-3.34-.42-4.25-.28-.91-.88-1.62-1.78-2.12v-.42h19.46c4.25,0,7.82,.57,10.71,1.7,2.89,1.13,5.1,2.9,6.63,5.31,1.53,2.41,2.29,5.51,2.29,9.31Zm-19.72,15.98c3.51,0,6.35-.61,8.5-1.83,2.15-1.22,3.75-2.98,4.8-5.27s1.57-5.25,1.57-8.88c0-5.27-1.22-9.22-3.65-11.86-2.44-2.64-6.26-3.95-11.47-3.95h-12.41v31.79h12.66Zm-1.53,26.86c3.62,0,6.53-.5,8.71-1.49,2.18-.99,3.74-2.45,4.67-4.38,.94-1.93,1.4-4.42,1.4-7.48s-.5-5.71-1.49-7.61c-.99-1.9-2.55-3.3-4.68-4.21-2.12-.91-4.92-1.36-8.37-1.36h-11.39v26.52h11.13Z"/><path class="cls-4" d="M1092.35,339.23c0-1.93-.14-3.34-.42-4.25-.29-.91-.88-1.62-1.79-2.12v-.42h16.15c7.54,0,13.12,1.96,16.74,5.87,3.63,3.91,5.44,9.15,5.44,15.72,0,6.01-1.45,10.79-4.33,14.37-2.89,3.57-7.31,5.75-13.26,6.54v.17h1.87c2.95,0,5.23,.54,6.84,1.62,1.62,1.08,3.16,2.89,4.63,5.44l3.4,6.12,.09,.08c.79,1.47,1.52,2.46,2.17,2.98,.65,.51,1.54,.59,2.68,.25v.34c-1.98,.34-3.6,.37-4.84,.08-1.25-.28-2.27-.81-3.06-1.57-.79-.77-1.59-1.94-2.38-3.53l-3.06-5.53c-1.02-1.76-1.93-3.04-2.72-3.87-.79-.82-1.73-1.39-2.8-1.7-1.08-.31-2.63-.47-4.67-.47h-12.16v9.78c0,1.98,.13,3.41,.38,4.29,.25,.88,.86,1.57,1.83,2.08v.42h-8.92v-.42c.96-.51,1.57-1.2,1.83-2.08,.25-.88,.38-2.31,.38-4.29v-45.9Zm12.75,35.7c4.82,0,8.6-.86,11.35-2.59,2.75-1.73,4.63-4.12,5.65-7.18,1.02-3.06,1.53-6.77,1.53-11.13s-.57-8.1-1.7-11.22c-1.13-3.12-3.03-5.55-5.7-7.31-2.66-1.75-6.12-2.63-10.37-2.63h-9.01v42.08h8.25Z"/><path class="cls-4" d="M1165.96,331.24l1.7,5.44-.34,.08c-.79-1.53-1.77-2.58-2.93-3.14-1.16-.57-2.99-.85-5.48-.85h-17.85v31.88h18.62c1.08,0,1.94-.07,2.59-.21,.65-.14,1.17-.44,1.57-.89,.4-.45,.68-1.08,.85-1.87h.34v6.29h-.34c-.17-.85-.46-1.47-.85-1.87-.4-.4-.91-.68-1.53-.85-.62-.17-1.5-.25-2.63-.25h-18.62v26.52h16.66c2.49,0,4.46-.16,5.91-.47,1.45-.31,2.69-.89,3.74-1.74,1.05-.85,2-2.12,2.85-3.83l.42,.17-3.31,7.48h-.34c-.46-.46-1.12-.77-2-.94-.88-.17-2.14-.25-3.78-.25h-26.77v-.42c.96-.51,1.57-1.19,1.83-2.04,.26-.85,.38-2.29,.38-4.33v-45.99c0-1.93-.13-3.34-.38-4.25-.25-.91-.86-1.62-1.83-2.12v-.42h25.33c1.64,0,2.9-.07,3.78-.21,.88-.14,1.57-.44,2.08-.89h.34Z"/><path class="cls-4" d="M1173.01,362.01c0-6.35,.95-11.79,2.85-16.32,1.9-4.53,4.75-8,8.54-10.41,3.79-2.41,8.53-3.61,14.2-3.61,2.38,0,4.77,.23,7.18,.68,2.41,.45,4.38,1.08,5.91,1.87l.68,5.1-.34,.08c-1.08-2.44-2.83-4.26-5.27-5.48-2.44-1.22-5.07-1.83-7.91-1.83-4.53,0-8.37,1.2-11.52,3.61-3.14,2.41-5.51,5.85-7.1,10.33-1.59,4.48-2.38,9.8-2.38,15.98s.79,11.5,2.38,15.98c1.59,4.48,3.94,7.92,7.06,10.33,3.12,2.41,6.97,3.61,11.56,3.61,2.83,0,5.47-.61,7.91-1.83,2.44-1.22,4.19-3.02,5.27-5.4l.34,.08-.68,5.01c-1.59,.85-3.58,1.5-5.99,1.96-2.41,.45-4.77,.68-7.1,.68-5.67,0-10.4-1.2-14.2-3.61-3.8-2.41-6.64-5.89-8.54-10.46-1.9-4.56-2.85-10.02-2.85-16.36Z"/><path class="cls-4" d="M1217.38,339.15c0-1.93-.13-3.34-.38-4.25-.25-.91-.86-1.62-1.83-2.12v-.42h8.75v.42c-.85,.51-1.42,1.22-1.7,2.12-.29,.91-.43,2.32-.43,4.25v22.87h30.35v-22.87c0-1.93-.14-3.34-.43-4.25-.28-.91-.88-1.62-1.79-2.12v-.42h8.84v.42c-.96,.51-1.6,1.22-1.91,2.12-.31,.91-.47,2.32-.47,4.25v45.99c0,1.98,.16,3.41,.47,4.29,.31,.88,.95,1.57,1.91,2.08v.42h-8.84v-.42c.91-.51,1.5-1.2,1.79-2.08,.28-.88,.43-2.31,.43-4.29v-22.78h-30.35v22.78c0,1.98,.14,3.41,.43,4.29,.28,.88,.85,1.57,1.7,2.08v.42h-8.75v-.42c.96-.51,1.57-1.2,1.83-2.08,.26-.88,.38-2.31,.38-4.29v-45.99Z"/><path class="cls-4" d="M1268.21,332.86c-1.47,0-2.65,.16-3.53,.47-.88,.31-1.59,.93-2.12,1.87-.54,.93-1.04,2.34-1.49,4.21h-.34l.51-7.99h.34c.4,.34,.93,.58,1.61,.72,.68,.14,1.73,.21,3.15,.21h30.17c1.36,0,2.38-.07,3.06-.21,.68-.14,1.25-.38,1.7-.72h.34l.51,7.99h-.34c-.45-1.87-.96-3.27-1.53-4.21-.57-.94-1.28-1.56-2.12-1.87-.85-.31-2.04-.47-3.57-.47h-11.05v51.59c0,2.32,.15,3.97,.47,4.93,.31,.96,.95,1.67,1.91,2.12v.42h-8.84v-.42c.91-.45,1.5-1.16,1.79-2.12,.28-.96,.43-2.61,.43-4.93v-51.59h-11.05Z"/></g><g><path class="cls-4" d="M65.04,434.87c0-5.44,.84-10.46,2.51-15.04,1.67-4.59,4.39-8.29,8.16-11.09,3.77-2.8,8.54-4.21,14.32-4.21,2.89,0,5.54,.35,7.95,1.06,2.41,.71,4.55,1.77,6.42,3.19l-.08,6.03h-.34c-.06-.28-.14-.58-.25-.89-.11-.31-.23-.64-.34-.98-1.08-2.49-2.75-4.46-5.02-5.91-2.27-1.44-5.02-2.17-8.25-2.17-4.82,0-8.74,1.4-11.77,4.21-3.03,2.81-5.23,6.46-6.59,10.96-1.36,4.51-2.04,9.45-2.04,14.83,0,5.78,.68,10.92,2.04,15.43s3.51,8.06,6.46,10.67c2.95,2.61,6.66,3.91,11.14,3.91,1.93,0,3.68-.24,5.27-.72,1.59-.48,2.89-1.23,3.91-2.25,.34-.34,.64-.74,.89-1.19,.25-.45,.45-.95,.6-1.49,.14-.54,.21-1.12,.21-1.74v-14.45c0-1.47-.08-2.65-.25-3.53-.17-.88-.48-1.57-.94-2.08-.45-.51-1.1-.93-1.96-1.27v-.34h9.27v.43c-.74,.51-1.23,1.22-1.49,2.12s-.38,2.44-.38,4.59v16.75c-1.76,1.98-4,3.41-6.72,4.29-2.72,.88-5.58,1.32-8.58,1.32-5.55,0-10.13-1.3-13.73-3.91-3.6-2.61-6.23-6.19-7.9-10.75-1.67-4.56-2.51-9.82-2.51-15.77Z"/><path class="cls-4" d="M128.71,465.3c-3.97,0-7.3-.64-9.99-1.91-2.69-1.28-4.75-3.22-6.16-5.82-1.42-2.61-2.12-5.81-2.12-9.61v-35.19c0-1.36-.04-2.54-.13-3.53-.08-.99-.28-1.76-.6-2.29-.31-.54-.81-.98-1.49-1.32v-.42h8.92v.34c-.74,.34-1.26,.79-1.57,1.36-.31,.57-.52,1.29-.64,2.17-.11,.88-.17,2.11-.17,3.7v34.68c0,3.57,.6,6.56,1.79,8.97,1.19,2.41,2.93,4.22,5.23,5.44,2.29,1.22,5.11,1.83,8.46,1.83,3.74,0,6.79-.61,9.14-1.83,2.35-1.22,4.09-3.04,5.23-5.48,1.13-2.44,1.7-5.44,1.7-9.01v-34.59c0-2.21-.24-3.85-.72-4.93-.48-1.08-1.46-1.84-2.93-2.29v-.34h6.63v.34c-1.02,.45-1.71,1.21-2.08,2.25-.37,1.05-.55,2.71-.55,4.97v35.27c0,3.85-.65,7.07-1.96,9.65-1.3,2.58-3.29,4.49-5.95,5.74-2.66,1.25-6.01,1.87-10.03,1.87Z"/><path class="cls-4" d="M152.17,434.87c0-6.35,.95-11.79,2.85-16.32,1.9-4.53,4.75-8,8.54-10.41,3.8-2.41,8.53-3.61,14.2-3.61,2.38,0,4.77,.23,7.18,.68,2.41,.45,4.38,1.08,5.91,1.87l.68,5.1-.34,.08c-1.08-2.44-2.83-4.26-5.27-5.48-2.44-1.22-5.07-1.83-7.9-1.83-4.53,0-8.37,1.2-11.52,3.61-3.15,2.41-5.51,5.85-7.1,10.33-1.59,4.48-2.38,9.8-2.38,15.98s.79,11.5,2.38,15.98c1.59,4.48,3.94,7.92,7.06,10.33,3.12,2.41,6.97,3.61,11.56,3.61,2.83,0,5.47-.61,7.9-1.83,2.44-1.22,4.19-3.02,5.27-5.4l.34,.08-.68,5.01c-1.59,.85-3.58,1.5-5.99,1.96-2.41,.45-4.77,.68-7.1,.68-5.67,0-10.4-1.2-14.2-3.61-3.8-2.41-6.64-5.89-8.54-10.46-1.9-4.56-2.85-10.02-2.85-16.36Zm12.24,.08c0-3.4,.51-6.33,1.53-8.8s2.66-4.39,4.93-5.78c2.27-1.39,5.21-2.08,8.84-2.08,1.76,0,3.39,.13,4.89,.38,1.5,.25,2.71,.61,3.61,1.06l.34,3.48h-.17c-.06-.11-.11-.21-.17-.3-.06-.08-.11-.21-.17-.38-.68-1.25-1.76-2.24-3.23-2.97-1.47-.74-3.12-1.11-4.93-1.11-2.27,0-4.15,.52-5.65,1.57-1.5,1.05-2.65,2.52-3.44,4.42-.79,1.9-1.3,4.35-1.53,7.35-.06,.51-.08,1.02-.08,1.53v3.23c0,.51,.03,1.02,.08,1.53,.23,3,.74,5.47,1.53,7.4,.79,1.93,1.94,3.4,3.44,4.42,1.5,1.02,3.39,1.53,5.65,1.53,1.93,0,3.65-.42,5.19-1.28,1.53-.85,2.63-1.98,3.31-3.4l.17,.08-.34,3.4c-.96,.45-2.18,.81-3.66,1.06-1.47,.25-3.09,.38-4.84,.38-3.63,0-6.57-.69-8.84-2.08-2.27-1.39-3.91-3.33-4.93-5.82-1.02-2.49-1.53-5.44-1.53-8.84Z"/><path class="cls-4" d="M195.43,405.21h8.75v.42c-.85,.51-1.42,1.22-1.7,2.12-.28,.91-.42,2.32-.42,4.25v45.99c0,1.98,.13,3.41,.38,4.29,.26,.88,.84,1.57,1.74,2.08v.42h-8.75v-.42c.96-.51,1.57-1.2,1.83-2.08,.26-.88,.38-2.31,.38-4.29v-45.99c0-1.93-.13-3.34-.38-4.25-.25-.91-.86-1.62-1.83-2.12v-.42Z"/><path class="cls-4" d="M236.4,457.99c0,1.98,.16,3.41,.47,4.29,.31,.88,.89,1.57,1.74,2.08v.42h-8.84v-.42c.96-.51,1.57-1.2,1.83-2.08,.26-.88,.38-2.31,.38-4.29v-45.9c0-1.98-.14-3.43-.43-4.33-.28-.91-.88-1.62-1.78-2.12v-.42h8.84v.42c-.85,.51-1.43,1.22-1.74,2.12-.31,.91-.47,2.35-.47,4.33v45.9Zm-1.44-18.11v-.76l28.05-29.83c.4-.45,.69-.84,.89-1.15,.2-.31,.3-.64,.3-.98,0-.45-.25-.79-.77-1.02-.51-.23-1.39-.4-2.63-.51v-.34h7.99v.34c-.79,.11-1.53,.41-2.21,.89-.68,.48-1.59,1.32-2.72,2.51l-28.9,30.85Zm29.83,19.46c.68,.91,1.39,1.83,2.12,2.76,.74,.94,1.44,1.83,2.12,2.68,4.99,5.95,10.04,10.7,15.17,14.24,5.13,3.54,10.37,6.08,15.73,7.61,5.35,1.53,11.15,2.29,17.38,2.29,8.61,0,16.18-1.57,22.7-4.72,6.52-3.15,11.52-7.35,15-12.62,3.48-5.27,5.23-10.94,5.23-17,0-2.55-.43-4.5-1.28-5.87-.85-1.36-2.04-2.66-3.57-3.91-.74-.57-1.27-1.06-1.62-1.49-.34-.42-.51-.89-.51-1.4,0-.57,.18-1.02,.55-1.36,.37-.34,.83-.51,1.4-.51,1.59,0,2.98,1.02,4.17,3.06s1.78,4.99,1.78,8.84c0,7.03-1.78,13.39-5.35,19.08-3.57,5.7-8.71,10.2-15.43,13.52-6.71,3.31-14.52,4.97-23.42,4.97-7.65,0-14.66-1.02-21.04-3.06s-12.41-5.23-18.1-9.56-11.4-9.99-17.13-16.96c-.4-.62-.85-1.23-1.36-1.83-.51-.59-.99-1.2-1.45-1.83l-17.85-22.44,3.06-3.31,21.68,28.81Z"/><path class="cls-4" d="M290.8,404.44l1.62,4.33-.25,.08c-.79-1.25-1.73-2.1-2.81-2.55-1.08-.45-2.75-.68-5.02-.68h-7.48v23.8h8.33c1.02,0,1.81-.06,2.38-.17,.57-.11,1.03-.34,1.4-.68,.37-.34,.64-.85,.81-1.53h.34v5.02h-.34c-.17-.68-.42-1.19-.76-1.53-.34-.34-.79-.57-1.36-.68-.57-.11-1.36-.17-2.38-.17h-8.42v19.89h6.89c2.1,0,3.8-.13,5.1-.38,1.3-.25,2.41-.74,3.32-1.45,.91-.71,1.78-1.71,2.63-3.02l.42,.17-3.23,5.86h-.25c-.4-.34-.91-.57-1.53-.68-.62-.11-1.45-.17-2.47-.17h-17.08v-.34c.79-.4,1.3-.96,1.53-1.7,.23-.74,.34-1.93,.34-3.57v-33.4c0-1.64-.11-2.83-.34-3.57-.23-.74-.74-1.3-1.53-1.7v-.34h15.9c1.02,0,1.84-.07,2.47-.21,.62-.14,1.1-.35,1.44-.64h.34Z"/><path class="cls-4" d="M299.55,408.26c-.11-.23-.23-.44-.34-.64-.11-.2-.23-.38-.34-.55-.23-.34-.45-.61-.68-.81-.23-.2-.45-.38-.68-.55v-.42h5.61l34,52.96-.17-.08v-45.82c0-1.53-.08-2.71-.25-3.53-.17-.82-.54-1.47-1.1-1.96-.57-.48-1.39-.86-2.47-1.15v-.42h6.46v.42c-.91,.45-1.49,1.12-1.74,2-.26,.88-.38,2.39-.38,4.55v53.55h-.42l-37.48-57.54Zm2.63,1.11h.43v48.37c0,1.53,.08,2.71,.25,3.53,.17,.82,.51,1.47,1.02,1.96,.51,.48,1.33,.86,2.46,1.15v.42h-6.8v-.42c.74-.28,1.3-.67,1.7-1.15,.4-.48,.65-1.13,.77-1.96,.11-.82,.17-1.94,.17-3.36v-48.54Z"/><path class="cls-4" d="M365.09,464.37c2.32,0,4.19-.16,5.61-.47,1.42-.31,2.63-.89,3.65-1.74,1.02-.85,1.98-2.12,2.89-3.83l.42,.17-3.31,7.48h-.42c-.45-.46-1.1-.77-1.96-.94s-2.12-.25-3.83-.25h-26.44l30.35-59.16h-21.17c-2.55,0-4.42,.28-5.61,.85s-2.18,1.61-2.98,3.14l-.34-.08,1.7-5.44h.43c.51,.46,1.19,.75,2.04,.89,.85,.14,2.12,.21,3.83,.21h27.29l-30.35,59.16h18.19Z"/><path class="cls-4" d="M402.91,465.55c-6.06,0-10.81-1.42-14.24-4.25-3.43-2.83-5.78-6.49-7.06-10.96-1.27-4.48-1.91-9.6-1.91-15.38s.64-10.96,1.91-15.38c1.28-4.42,3.63-8.03,7.06-10.84,3.43-2.8,8.17-4.21,14.24-4.21s10.61,1.4,13.98,4.21c3.37,2.8,5.71,6.43,7.01,10.88,1.3,4.45,1.96,9.56,1.96,15.34s-.65,10.82-1.96,15.3c-1.3,4.48-3.65,8.15-7.05,11.01-3.4,2.86-8.05,4.29-13.94,4.29Zm0-.34c5.04,0,8.87-1.37,11.47-4.12,2.61-2.75,4.33-6.15,5.19-10.2,.85-4.05,1.3-9.14,1.36-15.26v-1.44c-.06-6.06-.51-11.14-1.36-15.22-.85-4.08-2.58-7.45-5.19-10.11-2.61-2.66-6.43-4-11.47-4s-8.98,1.37-11.65,4.12c-2.66,2.75-4.45,6.22-5.35,10.41-.91,4.19-1.36,9.38-1.36,15.55s.45,11.28,1.36,15.47c.91,4.19,2.69,7.71,5.35,10.54,2.66,2.83,6.54,4.25,11.65,4.25Z"/><path class="cls-4" d="M453.57,412.09c0-1.93-.14-3.34-.43-4.25-.28-.91-.88-1.62-1.78-2.12v-.42h16.4c7.03,0,12.42,1.88,16.19,5.65,3.77,3.77,5.65,9.14,5.65,16.11s-1.84,12.03-5.52,15.68c-3.68,3.66-9.12,5.48-16.32,5.48h-9.77v9.78c0,1.98,.18,3.43,.55,4.33,.37,.91,1.06,1.59,2.08,2.04v.42h-9.26v-.42c.91-.51,1.5-1.22,1.78-2.12,.28-.91,.43-2.32,.43-4.25v-45.9Zm13.85,35.7c3.85,0,7.07-.79,9.65-2.38,2.58-1.59,4.5-3.9,5.78-6.93,1.28-3.03,1.91-6.84,1.91-11.43s-.64-8.53-1.91-11.64c-1.27-3.12-3.19-5.51-5.74-7.18-2.55-1.67-5.78-2.51-9.69-2.51h-9.44v42.08h9.44Z"/><path class="cls-4" d="M489.78,459.26c-.06,.06-.08,.16-.08,.3s-.03,.27-.09,.38c-.4,1.25-.59,2.1-.59,2.55,0,.57,.17,1.02,.51,1.36,.34,.34,.88,.59,1.62,.76v.25l-5.19-.08v-.25c.74-.23,1.3-.68,1.7-1.36,.4-.68,.93-1.98,1.61-3.91l17.51-49.55h.34l-17.34,49.55Zm28.98-18.44v.42h-22.86v-.42h22.86Zm-14.02-32.98c-.28-.62-.53-1.17-.72-1.66-.2-.48-.41-.86-.64-1.15v-.34h4.76l20.91,54.83c.57,1.7,1.08,2.89,1.53,3.57,.45,.68,1.02,1.16,1.7,1.45v.25h-8.67v-.25c1.08-.28,1.61-.91,1.61-1.87,0-.4-.04-.81-.13-1.23s-.24-.92-.47-1.49l-19.89-52.11Z"/><path class="cls-4" d="M545.03,433.42c-3.12-1.81-5.55-3.91-7.31-6.29-1.76-2.38-2.63-5.3-2.63-8.75,0-2.89,.65-5.37,1.96-7.44,1.3-2.07,3.2-3.66,5.7-4.76,2.49-1.11,5.5-1.66,9.01-1.66,2.66,0,5.04,.34,7.14,1.02,2.1,.68,3.97,1.56,5.61,2.63l.51,5.7-.42,.08c-.68-2.78-2.24-4.99-4.67-6.63-2.44-1.64-5.21-2.46-8.33-2.46-3.97,0-7.11,1.06-9.43,3.19-2.32,2.12-3.49,5.03-3.49,8.71,0,1.98,.35,3.74,1.06,5.27,.71,1.53,1.67,2.88,2.89,4.04,1.22,1.16,2.71,2.28,4.46,3.36l7.56,4.59c2.32,1.42,4.31,2.83,5.95,4.25,1.64,1.42,2.96,3.1,3.95,5.06,.99,1.96,1.49,4.32,1.49,7.1,0,3.12-.68,5.79-2.04,8.03-1.36,2.24-3.33,3.94-5.91,5.1-2.58,1.16-5.62,1.74-9.14,1.74-3,0-5.64-.34-7.91-1.02-2.27-.68-4.22-1.56-5.87-2.63l-.51-5.7,.42-.08v.13s.03,.07,.08,.13c.51,1.76,1.43,3.3,2.76,4.63,1.33,1.33,2.97,2.37,4.93,3.1s4.07,1.1,6.33,1.1c4.02,0,7.24-1.15,9.65-3.44,2.41-2.29,3.61-5.51,3.61-9.65,0-2.21-.41-4.17-1.23-5.87-.82-1.7-1.93-3.16-3.32-4.38s-3.13-2.42-5.23-3.61l-7.65-4.59Z"/><path class="cls-4" d="M592.63,465.55c-6.06,0-10.81-1.42-14.24-4.25-3.43-2.83-5.78-6.49-7.06-10.96-1.27-4.48-1.91-9.6-1.91-15.38s.64-10.96,1.91-15.38c1.28-4.42,3.63-8.03,7.06-10.84,3.43-2.8,8.17-4.21,14.24-4.21s10.61,1.4,13.98,4.21c3.37,2.8,5.71,6.43,7.01,10.88,1.3,4.45,1.96,9.56,1.96,15.34s-.65,10.82-1.96,15.3c-1.3,4.48-3.66,8.15-7.06,11.01-3.4,2.86-8.05,4.29-13.94,4.29Zm0-.34c5.04,0,8.87-1.37,11.47-4.12,2.61-2.75,4.33-6.15,5.19-10.2,.85-4.05,1.3-9.14,1.36-15.26v-1.44c-.06-6.06-.51-11.14-1.36-15.22-.85-4.08-2.58-7.45-5.19-10.11-2.61-2.66-6.43-4-11.47-4s-8.98,1.37-11.65,4.12c-2.66,2.75-4.45,6.22-5.35,10.41-.91,4.19-1.36,9.38-1.36,15.55s.45,11.28,1.36,15.47c.91,4.19,2.69,7.71,5.35,10.54,2.66,2.83,6.54,4.25,11.65,4.25Z"/><path class="cls-4" d="M692.25,464.37c3.79,0,6.71-.14,8.75-.42,2.04-.28,3.74-.84,5.1-1.66,1.36-.82,2.61-2.11,3.74-3.87l.34,.08-3.23,7.57h-.68c-.79-.57-2.1-.92-3.91-1.06-1.81-.14-5.19-.21-10.12-.21h-71.31v-.34c1.42-.45,2.34-1.06,2.76-1.83,.43-.76,.64-1.88,.64-3.36v-48.71c0-1.3-.23-2.38-.68-3.23-.45-.85-1.36-1.5-2.72-1.96v-.34h11.47v.34c-1.42,.45-2.35,1.11-2.8,1.96-.45,.85-.68,1.93-.68,3.23v53.72l63.33,.08Z"/><path class="cls-4" d="M785.06,464.37c3.8,0,6.71-.14,8.76-.42,2.04-.28,3.74-.84,5.1-1.66,1.36-.82,2.61-2.11,3.74-3.87l.34,.08-3.23,7.57h-.68c-.79-.57-2.1-.92-3.91-1.06-1.81-.14-5.18-.21-10.12-.21h-71.31v-.34c1.42-.45,2.34-1.06,2.76-1.83,.43-.76,.64-1.88,.64-3.36v-48.71c0-1.3-.23-2.38-.68-3.23-.46-.85-1.36-1.5-2.72-1.96v-.34h11.47v.34c-1.42,.45-2.35,1.11-2.8,1.96s-.68,1.93-.68,3.23v53.72l63.32,.08Z"/><path class="cls-4" d="M804.87,405.21h8.76v.42c-.85,.51-1.42,1.22-1.7,2.12-.28,.91-.42,2.32-.42,4.25v45.99c0,1.98,.13,3.41,.38,4.29,.25,.88,.83,1.57,1.74,2.08v.42h-8.76v-.42c.96-.51,1.57-1.2,1.83-2.08,.25-.88,.38-2.31,.38-4.29v-45.99c0-1.93-.13-3.34-.38-4.25-.26-.91-.87-1.62-1.83-2.12v-.42Z"/><path class="cls-4" d="M819.4,408.26c-.12-.23-.23-.44-.34-.64-.12-.2-.23-.38-.34-.55-.23-.34-.46-.61-.68-.81-.23-.2-.45-.38-.68-.55v-.42h5.61l34,52.96-.17-.08v-45.82c0-1.53-.08-2.71-.25-3.53-.17-.82-.54-1.47-1.11-1.96-.57-.48-1.39-.86-2.46-1.15v-.42h6.46v.42c-.91,.45-1.49,1.12-1.74,2-.25,.88-.38,2.39-.38,4.55v53.55h-.43l-37.48-57.54Zm2.63,1.11h.42v48.37c0,1.53,.09,2.71,.26,3.53,.17,.82,.51,1.47,1.02,1.96s1.33,.86,2.46,1.15v.42h-6.8v-.42c.73-.28,1.3-.67,1.7-1.15s.65-1.13,.77-1.96c.11-.82,.17-1.94,.17-3.36v-48.54Z"/><path class="cls-4" d="M863.09,405.21h8.75v.42c-.85,.51-1.42,1.22-1.7,2.12-.29,.91-.43,2.32-.43,4.25v45.99c0,1.98,.13,3.41,.38,4.29,.26,.88,.84,1.57,1.74,2.08v.42h-8.75v-.42c.96-.51,1.57-1.2,1.83-2.08,.26-.88,.38-2.31,.38-4.29v-45.99c0-1.93-.13-3.34-.38-4.25-.25-.91-.86-1.62-1.83-2.12v-.42Z"/></g><g><path class="cls-4" d="M659.93,522.43v.93c0,3.34-.33,6.04-.98,8.08-.65,2.04-1.71,3.64-3.19,4.8-1.47,1.16-3.49,1.74-6.04,1.74-1.02,0-2.1-.11-3.23-.34-1.13-.23-1.98-.54-2.55-.93v-8.58h.34c.34,3.34,.95,5.75,1.83,7.22,.88,1.47,1.94,2.21,3.19,2.21,1.13,0,1.98-.47,2.55-1.4,.57-.94,.95-2.12,1.15-3.57,.2-1.45,.3-3.33,.3-5.65v-40.97c0-1.53-.08-2.73-.25-3.61-.17-.88-.51-1.63-1.02-2.25-.51-.62-1.33-1.13-2.46-1.53v-.42h12.83v.42c-1.02,.57-1.69,1.38-2,2.42-.31,1.05-.47,2.71-.47,4.97v36.46Z"/><path class="cls-4" d="M665.62,478.14h11.56v.42c-1.02,.57-1.67,1.38-1.96,2.42-.28,1.05-.42,2.71-.42,4.97v43.86c0,2.27,.14,3.92,.42,4.97,.28,1.05,.91,1.86,1.87,2.42v.42h-11.48v-.42c1.02-.57,1.69-1.37,2-2.42,.31-1.05,.47-2.71,.47-4.97v-43.86c0-2.27-.16-3.92-.47-4.97-.31-1.05-.98-1.86-2-2.42v-.42Z"/><path class="cls-4" d="M693.5,537.22c2.21,0,4.04-.2,5.48-.59,1.45-.4,2.71-1.08,3.78-2.04,1.08-.96,2.1-2.32,3.06-4.08l.34,.08-3.48,8.16h-.34c-.45-.34-1.02-.61-1.7-.81-.68-.2-1.56-.3-2.63-.3h-18.02v-.42c1.02-.57,1.69-1.37,2-2.42,.31-1.05,.47-2.71,.47-4.97v-43.86c0-2.27-.16-3.92-.47-4.97-.31-1.05-.98-1.86-2-2.42v-.42h11.98v.42c-1.19,.57-1.96,1.38-2.29,2.42-.34,1.05-.51,2.71-.51,4.97v51.25h4.33Z"/><path class="cls-4" d="M725.29,503.73c-1.36-2.1-2.44-4.29-3.23-6.59-.79-2.29-1.19-4.69-1.19-7.18s.52-4.69,1.57-6.59c1.05-1.9,2.54-3.36,4.46-4.38,1.93-1.02,4.16-1.53,6.71-1.53,1.93,0,3.65,.31,5.19,.93,1.53,.62,2.72,1.39,3.57,2.29l.59,6.46-.42,.08c-.79-2.89-1.81-5.17-3.06-6.84-1.25-1.67-3.06-2.51-5.44-2.51s-4.21,.84-5.48,2.51c-1.27,1.67-1.91,3.9-1.91,6.67,0,1.59,.2,3.09,.6,4.5,.4,1.42,.91,2.75,1.53,4,.62,1.25,1.42,2.58,2.38,4l7.39,11.22c.96,1.47,1.77,2.91,2.42,4.29,.65,1.39,1.16,2.86,1.53,4.42,.37,1.56,.55,3.19,.55,4.89,0,2.89-.54,5.35-1.62,7.39-1.08,2.04-2.63,3.58-4.68,4.63-2.04,1.05-4.48,1.57-7.31,1.57-1.59,0-3.09-.25-4.5-.76-1.42-.51-2.55-1.13-3.4-1.87l-.59-6.38,.42-.08c0,.06,.01,.08,.04,.08,.03,0,.04,.03,.04,.08,.51,1.87,1.1,3.39,1.79,4.55,.68,1.16,1.56,2.11,2.64,2.85,1.08,.74,2.35,1.11,3.82,1.11,2.49,0,4.39-.89,5.7-2.68,1.3-1.79,1.96-4.09,1.96-6.93,0-1.58-.19-3.09-.55-4.5-.37-1.42-.89-2.79-1.57-4.12-.68-1.33-1.53-2.79-2.55-4.38l-7.39-11.22Z"/><path class="cls-4" d="M747.64,531.78c-.06,.11-.08,.21-.08,.3s-.03,.18-.08,.3c-.23,1.3-.34,2.18-.34,2.63,0,.68,.21,1.22,.64,1.62,.43,.4,1.09,.65,2,.76v.25h-5.61v-.25c.74-.28,1.3-.76,1.7-1.45,.4-.68,.82-2.07,1.28-4.17l11.05-49.55h.51l-11.05,49.55Zm18.28-18.1v.42h-14.62v-.42h14.62Zm-8.16-32.39c-.11-.85-.28-1.51-.51-2-.23-.48-.57-.92-1.02-1.32v-.42h7.57l10.96,54.23c.34,1.7,.72,2.96,1.15,3.78s1.06,1.43,1.91,1.83v.25h-11.39v-.25c1.3-.57,1.96-1.42,1.96-2.55,0-.45-.04-.94-.13-1.45-.09-.51-.16-1.02-.21-1.53l-10.29-50.58Z"/><path class="cls-4" d="M781.64,481.63c-.17-.34-.31-.64-.43-.89s-.25-.5-.42-.72c-.29-.34-.55-.64-.81-.89-.25-.25-.52-.44-.81-.55v-.42h8.41l20.74,46.92-.34,.08v-39.27c0-1.7-.1-2.99-.3-3.87-.2-.88-.61-1.6-1.23-2.17-.62-.57-1.64-.99-3.06-1.28v-.42h7.48v.42c-1.02,.45-1.69,1.18-2,2.17-.31,.99-.47,2.71-.47,5.14v53.72h-.43l-26.35-57.97Zm1.53-.43h.43v48.71c0,1.76,.1,3.08,.3,3.95,.2,.88,.61,1.59,1.23,2.12,.62,.54,1.67,.95,3.15,1.23v.42h-8.33v-.42c.96-.28,1.67-.69,2.12-1.23,.45-.54,.75-1.26,.89-2.17,.14-.91,.21-2.21,.21-3.91v-48.71Z"/><path class="cls-4" d="M846.92,507.89c0,5.84-.69,10.95-2.08,15.34-1.39,4.39-3.65,7.89-6.8,10.5-3.15,2.61-7.3,3.91-12.45,3.91h-11.99v-.42c1.02-.57,1.69-1.37,2-2.42,.31-1.05,.47-2.71,.47-4.97v-43.86c0-2.27-.16-3.92-.47-4.97-.31-1.05-.98-1.86-2-2.42v-.42h11.99c5.16,0,9.31,1.3,12.45,3.91,3.15,2.61,5.41,6.11,6.8,10.5,1.39,4.39,2.08,9.51,2.08,15.34Zm-7.4,0c0-5.78-.44-10.78-1.32-15-.88-4.22-2.42-7.66-4.63-10.33-2.21-2.66-5.16-4-8.84-4h-1.96v58.65h1.96c3.68,0,6.63-1.33,8.84-4,2.21-2.66,3.75-6.11,4.63-10.33,.88-4.22,1.32-9.22,1.32-15Z"/><path class="cls-4" d="M872.59,477.04l1.87,6.12-.34,.08c-.91-1.81-2-3.04-3.27-3.7-1.28-.65-3.13-.98-5.57-.98h-6.29v31.71h7.14c1.08,0,1.95-.08,2.63-.25,.68-.17,1.27-.5,1.79-.98,.51-.48,.91-1.2,1.19-2.17h.34v7.22h-.34c-.28-.96-.68-1.69-1.19-2.17-.51-.48-1.09-.81-1.74-.98-.65-.17-1.54-.25-2.68-.25h-7.14v26.52h5.61c2.21,0,4.04-.2,5.48-.59,1.45-.4,2.71-1.08,3.78-2.04,1.08-.96,2.07-2.32,2.97-4.08l.34,.08-3.48,8.16h-.34c-.46-.34-1.01-.61-1.66-.81-.65-.2-1.54-.3-2.68-.3h-19.21v-.42c1.02-.57,1.69-1.37,2-2.42,.31-1.05,.47-2.71,.47-4.97v-43.86c0-2.27-.16-3.92-.47-4.97-.31-1.05-.98-1.86-2-2.42v-.42h18.02c1.13,0,2.04-.1,2.72-.3,.68-.2,1.22-.47,1.61-.81h.42Z"/><path class="cls-4" d="M881.43,485.96c0-2.27-.16-3.92-.47-4.97-.31-1.05-.98-1.86-2-2.42v-.42h10.03c6.97,0,11.96,1.94,14.96,5.82,3,3.88,4.5,9.14,4.5,15.77,0,5.95-1.3,10.75-3.91,14.41-2.61,3.66-6.8,5.82-12.58,6.5v.17h1.02c3.34,0,5.89,.59,7.65,1.79,1.76,1.19,3.29,3.17,4.59,5.95l2.46,5.18c0,.06,.01,.08,.04,.08,.03,0,.04,.03,.04,.08,.68,1.47,1.3,2.48,1.87,3.02,.57,.54,1.36,.67,2.38,.38v.34c-2.55,.4-4.58,.47-6.08,.21-1.5-.26-2.68-.84-3.53-1.74-.85-.91-1.67-2.29-2.46-4.17l-2.46-5.27c-.68-1.47-1.35-2.62-2-3.44-.65-.82-1.33-1.39-2.04-1.7-.71-.31-1.6-.47-2.68-.47h-2.63v8.75c0,2.27,.17,3.92,.51,4.97,.34,1.05,1.08,1.86,2.21,2.42v.42h-11.9v-.42c1.02-.57,1.69-1.37,2-2.42,.31-1.05,.47-2.71,.47-4.97v-43.86Zm7.48,34.68c3.23,0,5.72-.83,7.48-2.51,1.76-1.67,2.97-4,3.66-6.97s1.02-6.79,1.02-11.43-.33-8.25-.98-11.3c-.65-3.06-1.84-5.47-3.57-7.23-1.73-1.75-4.18-2.63-7.35-2.63h-1.02v42.08h.76Z"/><path class="cls-4" d="M979.01,507.89c0,5.89-.81,11.05-2.42,15.47s-4.25,7.91-7.9,10.46c-3.66,2.55-8.49,3.83-14.49,3.83h-19.12v-.42c.96-.51,1.57-1.2,1.83-2.08,.26-.88,.38-2.31,.38-4.29v-45.99c0-1.93-.14-3.34-.42-4.25-.28-.91-.88-1.62-1.78-2.12v-.42h19.12c6.01,0,10.84,1.29,14.49,3.87,3.65,2.58,6.29,6.06,7.9,10.46,1.62,4.39,2.42,9.56,2.42,15.51Zm-4.67,0c0-5.67-.68-10.68-2.04-15.04-1.36-4.36-3.61-7.83-6.76-10.41-3.15-2.58-7.35-3.87-12.62-3.87h-11.22v58.65h11.22c5.27,0,9.48-1.29,12.62-3.87,3.15-2.58,5.4-6.05,6.76-10.41,1.36-4.36,2.04-9.38,2.04-15.04Z"/><path class="cls-4" d="M983.86,532.12c-.06,.06-.08,.16-.08,.3s-.03,.27-.09,.38c-.4,1.25-.59,2.1-.59,2.55,0,.57,.17,1.02,.51,1.36,.34,.34,.88,.59,1.62,.76v.25l-5.18-.08v-.25c.74-.23,1.3-.68,1.7-1.36,.4-.68,.94-1.98,1.62-3.91l17.51-49.55h.34l-17.34,49.55Zm28.99-18.44v.42h-22.87v-.42h22.87Zm-14.02-32.98c-.29-.62-.53-1.17-.72-1.66-.2-.48-.41-.86-.64-1.15v-.34h4.76l20.91,54.83c.57,1.7,1.08,2.89,1.53,3.57,.45,.68,1.02,1.16,1.7,1.45v.25h-8.67v-.25c1.08-.28,1.62-.91,1.62-1.87,0-.4-.04-.81-.13-1.23-.09-.42-.24-.92-.47-1.49l-19.89-52.11Z"/><path class="cls-4" d="M1030.69,484.94c0-1.93-.14-3.34-.42-4.25-.28-.91-.88-1.62-1.78-2.12v-.42h16.15c7.54,0,13.12,1.96,16.75,5.87,3.62,3.91,5.44,9.15,5.44,15.72,0,6.01-1.45,10.79-4.33,14.37-2.89,3.57-7.31,5.75-13.26,6.54v.17h1.87c2.95,0,5.23,.54,6.84,1.62,1.62,1.08,3.16,2.89,4.63,5.44l3.4,6.12,.09,.08c.79,1.47,1.51,2.46,2.17,2.98,.65,.51,1.54,.59,2.68,.25v.34c-1.98,.34-3.6,.37-4.84,.08-1.25-.28-2.27-.81-3.06-1.57-.79-.77-1.59-1.94-2.38-3.53l-3.06-5.53c-1.02-1.76-1.93-3.04-2.72-3.87-.79-.82-1.73-1.39-2.8-1.7-1.08-.31-2.64-.47-4.68-.47h-12.15v9.78c0,1.98,.13,3.41,.38,4.29,.25,.88,.86,1.57,1.83,2.08v.42h-8.92v-.42c.96-.51,1.57-1.2,1.83-2.08,.26-.88,.38-2.31,.38-4.29v-45.9Zm12.75,35.7c4.82,0,8.6-.86,11.35-2.59,2.75-1.73,4.63-4.12,5.65-7.18,1.02-3.06,1.53-6.77,1.53-11.13s-.57-8.1-1.7-11.22c-1.13-3.12-3.03-5.55-5.7-7.31-2.66-1.75-6.12-2.63-10.37-2.63h-9.01v42.08h8.24Z"/><path class="cls-4" d="M1072.76,478.06h8.76v.42c-.85,.51-1.42,1.22-1.7,2.12-.28,.91-.42,2.32-.42,4.25v45.99c0,1.98,.13,3.41,.38,4.29,.25,.88,.83,1.57,1.74,2.08v.42h-8.76v-.42c.96-.51,1.57-1.2,1.83-2.08,.25-.88,.38-2.31,.38-4.29v-45.99c0-1.93-.13-3.34-.38-4.25-.26-.91-.87-1.62-1.83-2.12v-.42Z"/><path class="cls-4" d="M1108.38,538.41c-6.06,0-10.81-1.42-14.24-4.25-3.43-2.83-5.78-6.49-7.05-10.96-1.28-4.48-1.91-9.6-1.91-15.38s.64-10.96,1.91-15.38,3.62-8.03,7.05-10.84c3.43-2.8,8.17-4.21,14.24-4.21s10.61,1.4,13.98,4.21c3.37,2.8,5.71,6.43,7.01,10.88,1.3,4.45,1.96,9.56,1.96,15.34s-.65,10.82-1.96,15.3c-1.3,4.48-3.65,8.15-7.05,11.01-3.4,2.86-8.05,4.29-13.94,4.29Zm0-.34c5.04,0,8.87-1.37,11.47-4.12,2.61-2.75,4.33-6.15,5.19-10.2,.85-4.05,1.3-9.14,1.36-15.26v-1.44c-.06-6.06-.51-11.14-1.36-15.22-.85-4.08-2.58-7.45-5.19-10.11-2.61-2.66-6.43-4-11.47-4s-8.98,1.37-11.65,4.12c-2.66,2.75-4.45,6.22-5.35,10.41-.91,4.19-1.36,9.38-1.36,15.55s.45,11.28,1.36,15.47c.9,4.19,2.69,7.71,5.35,10.54,2.66,2.83,6.54,4.25,11.65,4.25Z"/><path class="cls-4" d="M1180.54,478.48h-17.08v32.73h18.62c1.07,0,1.93-.07,2.55-.21,.62-.14,1.15-.44,1.57-.89,.43-.45,.72-1.08,.89-1.87h.34v6.29h-.34c-.17-.85-.47-1.49-.89-1.91-.42-.42-.93-.71-1.53-.85-.6-.14-1.46-.21-2.59-.21h-18.62v18.96c0,1.76,.05,3.03,.17,3.82,.11,.79,.38,1.42,.81,1.87,.43,.45,1.15,.79,2.17,1.02v.42h-9.78v-.42c.96-.51,1.57-1.2,1.83-2.08,.25-.88,.38-2.31,.38-4.29v-45.99c0-1.93-.13-3.34-.38-4.25-.26-.91-.87-1.62-1.83-2.12v-.42h24.74c1.7,0,2.96-.07,3.78-.21,.82-.14,1.49-.44,2-.89h.34l1.79,5.44-.34,.08c-.85-1.53-1.86-2.58-3.02-3.14-1.16-.57-3.02-.85-5.57-.85Z"/><path class="cls-4" d="M1214.88,538.41c-6.06,0-10.81-1.42-14.24-4.25-3.43-2.83-5.78-6.49-7.06-10.96-1.27-4.48-1.91-9.6-1.91-15.38s.64-10.96,1.91-15.38c1.28-4.42,3.63-8.03,7.06-10.84,3.43-2.8,8.17-4.21,14.24-4.21s10.61,1.4,13.98,4.21,5.71,6.43,7.01,10.88c1.3,4.45,1.96,9.56,1.96,15.34s-.65,10.82-1.96,15.3c-1.3,4.48-3.66,8.15-7.06,11.01-3.4,2.86-8.05,4.29-13.94,4.29Zm0-.34c5.04,0,8.87-1.37,11.47-4.12,2.61-2.75,4.34-6.15,5.19-10.2,.85-4.05,1.3-9.14,1.36-15.26v-1.44c-.06-6.06-.51-11.14-1.36-15.22-.85-4.08-2.58-7.45-5.19-10.11-2.61-2.66-6.43-4-11.47-4s-8.98,1.37-11.64,4.12c-2.66,2.75-4.45,6.22-5.36,10.41-.91,4.19-1.36,9.38-1.36,15.55s.45,11.28,1.36,15.47c.91,4.19,2.69,7.71,5.36,10.54,2.66,2.83,6.54,4.25,11.64,4.25Z"/></g><g><path class="cls-4" d="M440.76,566.24c0,5.33-1.54,9.25-4.63,11.77-3.09,2.52-7.07,3.98-11.94,4.38v.08c4.19,.23,7.72,1.32,10.58,3.27,2.86,1.96,4.29,5.29,4.29,9.99s-1.56,7.89-4.67,10.24c-3.12,2.35-7.74,3.53-13.85,3.53h-18.87v-.42c.96-.51,1.57-1.2,1.83-2.08,.26-.88,.38-2.31,.38-4.29v-45.99c0-1.93-.14-3.34-.43-4.25-.28-.91-.88-1.62-1.78-2.12v-.42h19.46c4.25,0,7.82,.57,10.71,1.7,2.89,1.13,5.1,2.9,6.63,5.31,1.53,2.41,2.3,5.51,2.3,9.31Zm-19.72,15.98c3.51,0,6.35-.61,8.5-1.83,2.15-1.22,3.75-2.98,4.8-5.27,1.05-2.29,1.57-5.25,1.57-8.88,0-5.27-1.22-9.22-3.65-11.86-2.44-2.64-6.26-3.95-11.48-3.95h-12.41v31.79h12.67Zm-1.53,26.86c3.63,0,6.53-.5,8.71-1.49,2.18-.99,3.74-2.45,4.67-4.38,.94-1.93,1.4-4.42,1.4-7.48s-.5-5.71-1.49-7.61c-.99-1.9-2.55-3.3-4.67-4.21-2.12-.91-4.92-1.36-8.37-1.36h-11.39v26.52h11.14Z"/><path class="cls-4" d="M463.62,610.01c-3.97,0-7.3-.64-9.99-1.91-2.69-1.28-4.75-3.22-6.16-5.82-1.42-2.61-2.12-5.81-2.12-9.61v-35.19c0-1.36-.04-2.54-.13-3.53-.08-.99-.28-1.76-.6-2.29-.31-.54-.81-.98-1.49-1.32v-.42h8.92v.34c-.74,.34-1.26,.79-1.57,1.36-.31,.57-.52,1.29-.64,2.17-.11,.88-.17,2.11-.17,3.7v34.68c0,3.57,.6,6.56,1.79,8.97,1.19,2.41,2.93,4.22,5.23,5.44,2.29,1.22,5.11,1.83,8.46,1.83,3.74,0,6.79-.61,9.14-1.83,2.35-1.22,4.09-3.04,5.23-5.48,1.13-2.44,1.7-5.44,1.7-9.01v-34.59c0-2.21-.24-3.85-.72-4.93-.48-1.08-1.46-1.84-2.93-2.29v-.34h6.63v.34c-1.02,.45-1.71,1.21-2.08,2.25-.37,1.05-.55,2.71-.55,4.97v35.27c0,3.85-.65,7.07-1.96,9.65-1.3,2.58-3.29,4.49-5.95,5.74-2.66,1.25-6.01,1.87-10.03,1.87Z"/><path class="cls-4" d="M489.38,556.8c0-1.93-.14-3.34-.43-4.25-.28-.91-.88-1.62-1.78-2.12v-.42h16.15c7.54,0,13.12,1.96,16.75,5.87,3.63,3.91,5.44,9.15,5.44,15.72,0,6.01-1.45,10.79-4.33,14.37-2.89,3.57-7.31,5.75-13.26,6.54v.17h1.87c2.95,0,5.23,.54,6.84,1.62,1.62,1.08,3.16,2.89,4.63,5.44l3.4,6.12,.08,.08c.79,1.47,1.52,2.46,2.17,2.98,.65,.51,1.54,.59,2.68,.25v.34c-1.98,.34-3.6,.37-4.85,.08-1.25-.28-2.27-.81-3.06-1.57-.79-.77-1.59-1.94-2.38-3.53l-3.06-5.53c-1.02-1.76-1.93-3.04-2.72-3.87-.79-.82-1.73-1.39-2.81-1.7-1.08-.31-2.64-.47-4.67-.47h-12.16v9.78c0,1.98,.13,3.41,.38,4.29,.26,.88,.86,1.57,1.83,2.08v.42h-8.92v-.42c.96-.51,1.57-1.2,1.83-2.08,.26-.88,.38-2.31,.38-4.29v-45.9Zm12.75,35.7c4.82,0,8.6-.86,11.35-2.59,2.75-1.73,4.63-4.12,5.65-7.18,1.02-3.06,1.53-6.77,1.53-11.13s-.57-8.1-1.7-11.22c-1.13-3.12-3.03-5.55-5.7-7.31-2.66-1.75-6.12-2.63-10.37-2.63h-9.01v42.08h8.25Z"/><path class="cls-4" d="M570.55,566.24c0,5.33-1.54,9.25-4.63,11.77-3.09,2.52-7.07,3.98-11.94,4.38v.08c4.19,.23,7.72,1.32,10.58,3.27,2.86,1.96,4.29,5.29,4.29,9.99s-1.56,7.89-4.67,10.24c-3.12,2.35-7.74,3.53-13.85,3.53h-18.87v-.42c.96-.51,1.57-1.2,1.83-2.08,.26-.88,.38-2.31,.38-4.29v-45.99c0-1.93-.14-3.34-.43-4.25-.28-.91-.88-1.62-1.78-2.12v-.42h19.46c4.25,0,7.82,.57,10.71,1.7,2.89,1.13,5.1,2.9,6.63,5.31,1.53,2.41,2.3,5.51,2.3,9.31Zm-19.72,15.98c3.51,0,6.35-.61,8.5-1.83,2.15-1.22,3.75-2.98,4.8-5.27,1.05-2.29,1.57-5.25,1.57-8.88,0-5.27-1.22-9.22-3.65-11.86-2.44-2.64-6.26-3.95-11.48-3.95h-12.41v31.79h12.67Zm-1.53,26.86c3.63,0,6.53-.5,8.71-1.49,2.18-.99,3.74-2.45,4.67-4.38,.94-1.93,1.4-4.42,1.4-7.48s-.5-5.71-1.49-7.61c-.99-1.9-2.55-3.3-4.67-4.21-2.12-.91-4.92-1.36-8.37-1.36h-11.39v26.52h11.14Z"/><path class="cls-4" d="M605.23,548.81l1.7,5.44-.34,.08c-.79-1.53-1.77-2.58-2.93-3.14-1.16-.57-2.99-.85-5.48-.85h-17.85v31.88h18.62c1.08,0,1.94-.07,2.59-.21,.65-.14,1.18-.44,1.57-.89,.4-.45,.68-1.08,.85-1.87h.34v6.29h-.34c-.17-.85-.45-1.47-.85-1.87-.4-.4-.91-.68-1.53-.85-.62-.17-1.5-.25-2.63-.25h-18.62v26.52h16.66c2.49,0,4.46-.16,5.91-.47,1.45-.31,2.69-.89,3.74-1.74,1.05-.85,2-2.12,2.85-3.83l.43,.17-3.31,7.48h-.34c-.45-.46-1.12-.77-2-.94-.88-.17-2.14-.25-3.78-.25h-26.77v-.42c.96-.51,1.57-1.19,1.83-2.04,.26-.85,.38-2.29,.38-4.33v-45.99c0-1.93-.13-3.34-.38-4.25-.25-.91-.86-1.62-1.83-2.12v-.42h25.33c1.64,0,2.9-.07,3.78-.21,.88-.14,1.57-.44,2.08-.89h.34Z"/><path class="cls-4" d="M617.47,555.27c0-1.3-.23-2.38-.68-3.23-.45-.85-1.36-1.5-2.72-1.96v-.34h70.63c9.41,0,16.42,1.71,21.04,5.14,4.62,3.43,6.93,8.97,6.93,16.62,0,6.57-2,11.5-5.99,14.79-3.99,3.29-9.45,5.3-16.36,6.04v.25h2.98c3.62,0,6.45,.41,8.46,1.23,2.01,.82,4.12,2.48,6.33,4.97l6.04,6.88,.09,.08,.08,.08c1.3,1.53,2.51,2.55,3.61,3.06,1.1,.51,2.65,.59,4.63,.25v.25c-2.49,.51-4.67,.65-6.54,.42-1.87-.23-3.5-.75-4.89-1.57-1.39-.82-2.68-2-3.87-3.53l-4.93-5.7c-1.64-1.87-2.97-3.2-4-4-1.02-.79-2.24-1.34-3.66-1.66-1.42-.31-3.54-.47-6.38-.47h-66.21v11.05c0,1.25,.25,2.31,.77,3.19,.51,.88,1.5,1.54,2.97,2v.34h-11.73v-.34c1.36-.45,2.27-1.11,2.72-1.96,.45-.85,.68-1.93,.68-3.23v-48.71Zm64.43,37.23c6.01,0,10.89-.74,14.66-2.21,3.77-1.47,6.56-3.75,8.37-6.84,1.81-3.09,2.72-7.07,2.72-11.94s-.84-8.97-2.51-12.11c-1.67-3.15-4.25-5.47-7.74-6.97-3.49-1.5-7.98-2.25-13.47-2.25h-61.88v42.33h59.84Z"/><path class="cls-4" d="M729.76,555.27c0-1.3-.23-2.38-.68-3.23-.46-.85-1.36-1.5-2.72-1.96v-.34h70.63c9.41,0,16.42,1.71,21.04,5.14,4.62,3.43,6.93,8.97,6.93,16.62,0,6.57-2,11.5-5.99,14.79-3.99,3.29-9.45,5.3-16.36,6.04v.25h2.97c3.62,0,6.45,.41,8.46,1.23,2.01,.82,4.12,2.48,6.33,4.97l6.04,6.88,.09,.08,.08,.08c1.3,1.53,2.51,2.55,3.61,3.06,1.11,.51,2.65,.59,4.63,.25v.25c-2.49,.51-4.68,.65-6.54,.42-1.87-.23-3.5-.75-4.89-1.57-1.39-.82-2.68-2-3.87-3.53l-4.93-5.7c-1.64-1.87-2.97-3.2-4-4-1.02-.79-2.24-1.34-3.65-1.66-1.42-.31-3.54-.47-6.38-.47h-66.21v11.05c0,1.25,.25,2.31,.77,3.19,.51,.88,1.5,1.54,2.97,2v.34h-11.73v-.34c1.36-.45,2.27-1.11,2.72-1.96,.45-.85,.68-1.93,.68-3.23v-48.71Zm64.43,37.23c6.01,0,10.89-.74,14.66-2.21,3.77-1.47,6.56-3.75,8.37-6.84,1.81-3.09,2.72-7.07,2.72-11.94s-.84-8.97-2.51-12.11c-1.67-3.15-4.25-5.47-7.74-6.97-3.48-1.5-7.98-2.25-13.47-2.25h-61.88v42.33h59.84Z"/><path class="cls-4" d="M851.05,602.36c0,2.1,.13,3.6,.38,4.5,.25,.91,.84,1.64,1.74,2.21v.42h-8.59v-.42c.85-.57,1.4-1.3,1.66-2.21,.26-.91,.38-2.41,.38-4.5v-20.57l-15.21-26.18c-.17-.17-.3-.38-.38-.64-.08-.25-.21-.47-.38-.64-.74-1.25-1.4-2.17-2-2.76-.59-.59-1.18-1.03-1.74-1.32v-.34h9.52v.34c-.85,.51-1.28,1.19-1.28,2.04,0,.4,.08,.82,.25,1.28,.17,.45,.4,.93,.68,1.44l.17,.25,14.53,25.25,12.07-23.38,.09-.08c.45-1.02,.82-1.93,1.11-2.72,.28-.79,.42-1.39,.42-1.79,0-.57-.14-1.03-.42-1.4-.29-.37-.79-.67-1.53-.89v-.34h5.87v.34c-.74,.23-1.33,.59-1.79,1.11-.45,.51-.96,1.27-1.53,2.29,.05,0,.05,.03,0,.08l-14.03,27.46v21.17Z"/><path class="cls-4" d="M894.48,556.8c0-1.93-.14-3.34-.43-4.25-.28-.91-.88-1.62-1.79-2.12v-.42h16.15c7.54,0,13.12,1.96,16.74,5.87s5.44,9.15,5.44,15.72c0,6.01-1.45,10.79-4.34,14.37-2.89,3.57-7.31,5.75-13.26,6.54v.17h1.87c2.95,0,5.23,.54,6.84,1.62,1.62,1.08,3.16,2.89,4.63,5.44l3.4,6.12,.08,.08c.79,1.47,1.52,2.46,2.17,2.98,.65,.51,1.54,.59,2.68,.25v.34c-1.98,.34-3.6,.37-4.85,.08s-2.27-.81-3.06-1.57c-.79-.77-1.59-1.94-2.38-3.53l-3.06-5.53c-1.02-1.76-1.93-3.04-2.72-3.87-.79-.82-1.73-1.39-2.8-1.7-1.08-.31-2.63-.47-4.67-.47h-12.16v9.78c0,1.98,.13,3.41,.38,4.29,.26,.88,.86,1.57,1.83,2.08v.42h-8.93v-.42c.96-.51,1.57-1.2,1.83-2.08,.25-.88,.38-2.31,.38-4.29v-45.9Zm12.75,35.7c4.81,0,8.6-.86,11.35-2.59,2.75-1.73,4.63-4.12,5.65-7.18,1.02-3.06,1.53-6.77,1.53-11.13s-.57-8.1-1.7-11.22c-1.13-3.12-3.03-5.55-5.7-7.31-2.66-1.75-6.12-2.63-10.37-2.63h-9.01v42.08h8.25Z"/><path class="cls-4" d="M936.56,549.92h8.76v.42c-.85,.51-1.42,1.22-1.7,2.12-.28,.91-.42,2.32-.42,4.25v45.99c0,1.98,.13,3.41,.38,4.29,.25,.88,.83,1.57,1.74,2.08v.42h-8.76v-.42c.96-.51,1.57-1.2,1.83-2.08,.25-.88,.38-2.31,.38-4.29v-45.99c0-1.93-.13-3.34-.38-4.25-.26-.91-.87-1.62-1.83-2.12v-.42Z"/><path class="cls-4" d="M950.24,555.18c-.06-.11-.09-.2-.09-.25s-.03-.14-.08-.25c-.57-1.36-1.05-2.35-1.45-2.97-.4-.62-.91-1.08-1.53-1.36v-.34h9.09v.34c-.68,.11-1.18,.35-1.49,.72-.31,.37-.47,.81-.47,1.32,0,.68,.2,1.59,.6,2.72l17.26,49.04h-.26l16.06-46.66c.06-.11,.1-.23,.13-.34,.03-.11,.07-.23,.13-.34,.34-.96,.58-1.74,.72-2.34,.14-.6,.21-1.15,.21-1.66,0-.74-.16-1.3-.47-1.7-.31-.4-.81-.65-1.49-.77v-.34h5.35v.34c-.68,.17-1.25,.62-1.7,1.36-.46,.74-.94,1.84-1.45,3.31l-19.29,55.5h-.34l-19.46-55.33Z"/><path class="cls-4" d="M1017.56,610.26c-6.06,0-10.81-1.42-14.24-4.25-3.43-2.83-5.78-6.49-7.05-10.96-1.28-4.48-1.91-9.6-1.91-15.38s.64-10.96,1.91-15.38,3.62-8.03,7.05-10.84c3.43-2.8,8.17-4.21,14.24-4.21s10.61,1.4,13.98,4.21c3.37,2.8,5.71,6.43,7.01,10.88,1.3,4.45,1.96,9.56,1.96,15.34s-.65,10.82-1.96,15.3c-1.3,4.48-3.65,8.15-7.05,11.01-3.4,2.86-8.05,4.29-13.94,4.29Zm0-.34c5.04,0,8.87-1.37,11.47-4.12,2.61-2.75,4.33-6.15,5.19-10.2,.85-4.05,1.3-9.14,1.36-15.26v-1.44c-.06-6.06-.51-11.14-1.36-15.22-.85-4.08-2.58-7.45-5.19-10.11-2.61-2.66-6.43-4-11.47-4s-8.98,1.37-11.65,4.12c-2.66,2.75-4.45,6.22-5.35,10.41-.91,4.19-1.36,9.38-1.36,15.55s.45,11.28,1.36,15.47c.9,4.19,2.69,7.71,5.35,10.54,2.66,2.83,6.54,4.25,11.65,4.25Z"/><path class="cls-4" d="M1065.67,609.08c2.49,0,4.47-.17,5.95-.51,1.47-.34,2.72-.92,3.74-1.74,1.02-.82,2.01-2.08,2.97-3.78l.34,.17-3.23,7.48h-.51c-.45-.46-1.09-.77-1.91-.94-.82-.17-2.11-.25-3.87-.25h-24.99v-.42c.96-.51,1.57-1.19,1.83-2.04,.25-.85,.38-2.29,.38-4.33v-45.99c0-1.93-.13-3.34-.38-4.25-.26-.91-.87-1.62-1.83-2.12v-.42h8.93v.42c-.96,.51-1.59,1.22-1.87,2.12-.28,.91-.42,2.32-.42,4.25v52.36h14.88Z"/><path class="cls-4" d="M1085.48,550.42c-1.47,0-2.65,.16-3.53,.47-.88,.31-1.59,.93-2.12,1.87-.54,.93-1.03,2.34-1.49,4.21h-.34l.51-7.99h.34c.4,.34,.94,.58,1.62,.72,.68,.14,1.73,.21,3.14,.21h30.18c1.36,0,2.38-.07,3.06-.21,.68-.14,1.25-.38,1.7-.72h.34l.51,7.99h-.34c-.46-1.87-.96-3.27-1.53-4.21-.57-.94-1.28-1.56-2.12-1.87-.85-.31-2.04-.47-3.57-.47h-11.05v51.59c0,2.32,.16,3.97,.47,4.93,.31,.96,.95,1.67,1.91,2.12v.42h-8.84v-.42c.9-.45,1.5-1.16,1.79-2.12,.28-.96,.42-2.61,.42-4.93v-51.59h-11.05Z"/><path class="cls-4" d="M1123.3,603.97c-.06,.06-.08,.16-.08,.3s-.03,.27-.09,.38c-.4,1.25-.6,2.1-.6,2.55,0,.57,.17,1.02,.51,1.36,.34,.34,.88,.59,1.61,.76v.25l-5.18-.08v-.25c.73-.23,1.3-.68,1.7-1.36,.4-.68,.94-1.98,1.62-3.91l17.51-49.55h.34l-17.34,49.55Zm28.98-18.44v.42h-22.86v-.42h22.86Zm-14.02-32.98c-.29-.62-.53-1.17-.72-1.66-.2-.48-.41-.86-.64-1.15v-.34h4.76l20.91,54.83c.57,1.7,1.08,2.89,1.53,3.57,.45,.68,1.02,1.16,1.7,1.45v.25h-8.67v-.25c1.08-.28,1.62-.91,1.62-1.87,0-.4-.04-.81-.13-1.23-.09-.42-.24-.92-.47-1.49l-19.89-52.11Z"/></g></g></svg>