<?xml version="1.0" encoding="UTF-8"?><svg id="Layer_1" xmlns="http://www.w3.org/2000/svg" xmlns:xlink="http://www.w3.org/1999/xlink" viewBox="0 0 1366 768"><defs><style>.cls-1{clip-path:url(#clippath);}.cls-2{fill:#fdfaf5;}.cls-3{fill:#12100b;}</style><clipPath id="clippath"><rect class="cls-3" x="-37" y="-175" width="1440" height="1108"/></clipPath></defs><g><rect class="cls-3" x="-37" y="-175" width="1440" height="1108"/><g class="cls-1"><rect class="cls-3" x="-48.5" y="-191.16" width="1460" height="1138.78"/></g></g><g><path class="cls-2" d="M149.46,164.74v49.5h43.05l1.87-10.44h9.17v34.2h-9.17l-2.06-13.14h-42.87v48.78l20.78,1.62v9h-54.29v-9l14.23-1.62v-108.9l-14.04-1.62v-9h91.16l11.04,30.6-7.67,3.24c-7.11-14.76-17.04-23.22-32.57-23.22h-28.64Z"/><path class="cls-2" d="M299.46,207.4l-16.66,12.96c-4.12-6.84-6.18-9.72-10.67-9.72s-8.8,5.76-16.66,17.28v45.72l15.54,1.62v9h-49.23v-9l14.41-1.62v-58.14l-14.79-.72v-5.22l28.64-18h5.43v24.12h1.5c8.24-12.06,15.91-24.3,25.46-24.3,8.05,0,12.17,7.2,17.04,16.02Z"/><path class="cls-2" d="M351.46,191.56c29.39,0,48.67,21.42,48.67,48.06s-17.97,47.52-46.8,47.52c-30.89,0-48.48-24.48-48.48-48.06,0-26.64,18.34-47.52,46.61-47.52Zm-27.52,43.56c0,20.34,11.42,40.5,31.45,40.5,16.29,0,25.46-13.5,25.46-32.04,0-22.32-12.17-41.58-31.45-41.58-16.29,0-25.46,13.86-25.46,33.12Z"/><path class="cls-2" d="M579.13,275.26v9h-47.36v-9l14.41-1.62v-44.46c0-13.14-3.93-23.58-17.97-23.58-10.3,0-18.16,7.74-24.33,16.02v52.02l13.67,1.62v9h-47.36v-9l14.41-1.62v-44.46c0-13.14-3.93-23.58-16.47-23.58-11.23,0-19.28,7.92-25.46,16.38v51.66l13.67,1.62v9h-47.36v-9l14.41-1.62v-58.14l-14.79-.72v-5.22l28.64-18h5.43v18h1.87c7.67-9,18.34-18.18,32.01-18.18s23.03,8.64,26.21,21.06c7.86-9.72,20.4-21.06,35.38-21.06,16.85,0,27.33,13.32,27.33,30.78v51.48l13.67,1.62Z"/><path class="cls-2" d="M699.69,271.48c-5.8,7.2-18.34,15.66-28.83,15.66-12.73,0-20.03-5.4-20.4-17.82v-63.36h-16.85v-6.84l35-26.28h4.87l-3.93,21.42h28.64v11.7h-28.64v54.72c0,7.92,3.37,11.34,10.11,11.34,5.99,0,11.61-3.78,15.35-6.66l4.68,6.12Z"/><path class="cls-2" d="M755.94,275.26v9h-47.36v-9l14.41-1.62v-58.14l-14.79-.72v-5.22l28.64-18h5.43v82.08l13.67,1.62Zm-34.44-115.2c0-6.66,5.43-11.88,12.17-11.88s12.36,5.22,12.36,11.88-5.43,11.7-12.36,11.7-12.17-5.22-12.17-11.7Z"/><path class="cls-2" d="M936.77,275.26v9h-47.36v-9l14.41-1.62v-44.46c0-13.14-3.93-23.58-17.97-23.58-10.3,0-18.16,7.74-24.34,16.02v52.02l13.67,1.62v9h-47.36v-9l14.41-1.62v-44.46c0-13.14-3.93-23.58-16.47-23.58-11.23,0-19.28,7.92-25.46,16.38v51.66l13.67,1.62v9h-47.36v-9l14.41-1.62v-58.14l-14.79-.72v-5.22l28.64-18h5.43v18h1.87c7.68-9,18.35-18.18,32.01-18.18s23.03,8.64,26.21,21.06c7.86-9.72,20.4-21.06,35.38-21.06,16.85,0,27.33,13.32,27.33,30.78v51.48l13.67,1.62Z"/><path class="cls-2" d="M1025.45,265.54c-6.55,11.88-18.72,21.6-37.81,21.6-28.83,0-45.49-21.6-45.49-46.44,0-26.1,15.35-49.32,44.74-49.32,22.28,0,37.81,16.56,38.38,41.4h-64.58c0,19.26,10.48,39.96,32.76,39.96,10.48,0,19.09-3.24,26.02-11.34l5.99,4.14Zm-64.21-42.48h42.49c-1.87-12.24-8.05-21.06-21.15-21.06-12.17,0-19.47,10.44-21.34,21.06Z"/><path class="cls-2" d="M1149.56,271.48c-5.8,7.2-18.35,15.66-28.83,15.66-12.73,0-20.03-5.4-20.4-17.82v-63.36h-16.85v-6.84l35.01-26.28h4.87l-3.93,21.42h28.64v11.7h-28.64v54.72c0,7.92,3.37,11.34,10.11,11.34,5.99,0,11.61-3.78,15.35-6.66l4.68,6.12Z"/><path class="cls-2" d="M1200.25,191.56c29.39,0,48.67,21.42,48.67,48.06s-17.97,47.52-46.8,47.52c-30.89,0-48.48-24.48-48.48-48.06,0-26.64,18.35-47.52,46.61-47.52Zm-27.52,43.56c0,20.34,11.42,40.5,31.45,40.5,16.29,0,25.46-13.5,25.46-32.04,0-22.32-12.17-41.58-31.45-41.58-16.29,0-25.46,13.86-25.46,33.12Z"/><path class="cls-2" d="M127.39,431.48c-5.8,7.2-18.34,15.66-28.83,15.66-12.73,0-20.03-5.4-20.4-17.82v-63.36h-16.85v-6.84l35-26.28h4.87l-3.93,21.42h28.64v11.7h-28.64v54.72c0,7.92,3.37,11.34,10.11,11.34,5.99,0,11.61-3.78,15.35-6.66l4.68,6.12Z"/><path class="cls-2" d="M183.64,435.26v9h-47.36v-9l14.41-1.62v-58.14l-14.79-.72v-5.22l28.64-18h5.43v82.08l13.67,1.62Zm-34.44-115.2c0-6.66,5.43-11.88,12.17-11.88s12.35,5.22,12.35,11.88-5.43,11.7-12.35,11.7-12.17-5.22-12.17-11.7Z"/><path class="cls-2" d="M364.47,435.26v9h-47.36v-9l14.41-1.62v-44.46c0-13.14-3.93-23.58-17.97-23.58-10.3,0-18.16,7.74-24.33,16.02v52.02l13.67,1.62v9h-47.36v-9l14.41-1.62v-44.46c0-13.14-3.93-23.58-16.47-23.58-11.23,0-19.28,7.92-25.46,16.38v51.66l13.67,1.62v9h-47.36v-9l14.41-1.62v-58.14l-14.79-.72v-5.22l28.64-18h5.43v18h1.87c7.67-9,18.34-18.18,32.01-18.18s23.03,8.64,26.21,21.06c7.86-9.72,20.4-21.06,35.38-21.06,16.85,0,27.33,13.32,27.33,30.78v51.48l13.67,1.62Z"/><path class="cls-2" d="M453.15,425.54c-6.55,11.88-18.72,21.6-37.81,21.6-28.83,0-45.49-21.6-45.49-46.44,0-26.1,15.35-49.32,44.74-49.32,22.28,0,37.81,16.56,38.38,41.4h-64.58c0,19.26,10.48,39.96,32.76,39.96,10.48,0,19.09-3.24,26.02-11.34l5.99,4.14Zm-64.21-42.48h42.49c-1.87-12.24-8.05-21.06-21.15-21.06-12.17,0-19.47,10.44-21.34,21.06Z"/><path class="cls-2" d="M577.26,431.48c-5.8,7.2-18.35,15.66-28.83,15.66-12.73,0-20.03-5.4-20.4-17.82v-63.36h-16.85v-6.84l35.01-26.28h4.87l-3.93,21.42h28.64v11.7h-28.64v54.72c0,7.92,3.37,11.34,10.11,11.34,5.99,0,11.61-3.78,15.35-6.66l4.68,6.12Z"/><path class="cls-2" d="M694.65,435.26v9h-47.36v-9l14.41-1.62v-45.36c0-12.6-3.93-22.68-16.66-22.68-10.67,0-17.78,6.66-25.46,16.92v51.12l13.67,1.62v9h-47.36v-9l14.41-1.62v-98.64l-14.98-1.8v-5.4l37.06-19.8,6.18,9.9-8.99,5.4v46.62h2.06c8.05-9.72,19.09-18.54,33.13-18.54,17.6,0,26.21,13.5,26.21,30.96v51.3l13.67,1.62Z"/><path class="cls-2" d="M782.69,425.54c-6.55,11.88-18.72,21.6-37.81,21.6-28.83,0-45.49-21.6-45.49-46.44,0-26.1,15.35-49.32,44.74-49.32,22.28,0,37.81,16.56,38.38,41.4h-64.58c0,19.26,10.48,39.96,32.76,39.96,10.48,0,19.09-3.24,26.02-11.34l5.99,4.14Zm-64.21-42.48h42.49c-1.87-12.24-8.05-21.06-21.15-21.06-12.17,0-19.47,10.44-21.34,21.06Z"/><path class="cls-2" d="M927.77,425.54c-6.55,11.88-18.72,21.6-37.81,21.6-28.83,0-45.49-21.6-45.49-46.44,0-26.1,15.35-49.32,44.74-49.32,22.28,0,37.81,16.56,38.38,41.4h-64.58c0,19.26,10.48,39.96,32.76,39.96,10.48,0,19.09-3.24,26.02-11.34l5.99,4.14Zm-64.21-42.48h42.49c-1.87-12.24-8.05-21.06-21.15-21.06-12.17,0-19.47,10.44-21.34,21.06Z"/><path class="cls-2" d="M1025.37,433.82v8.64c-3.93,1.62-7.11,3.24-12.35,3.24-7.86,0-14.04-3.6-16.85-11.16h-2.25c-7.67,7.2-17.6,12.6-29.2,12.6-17.41,0-26.02-11.16-26.02-23.94s10.48-19.8,21.9-23.58c9.73-3.24,21.15-6.66,33.32-10.08v-10.44c0-12.06-6.74-18.18-17.78-18.18-7.67,0-13.67,2.7-13.67,9.72,0,2.52,1.12,5.76,3,7.92l-19.47,3.96c-1.68-2.88-2.25-5.94-2.25-9.18,0-13.14,15.91-21.96,34.26-21.96,22.46,0,35.38,7.02,35.38,26.46v48.42c0,4.68,1.31,9,5.8,9,2.25,0,4.12-.54,6.18-1.44Zm-31.45-9.36v-25.92c-8.61,2.34-16.66,4.68-23.03,6.84-9.36,3.06-12.73,9-12.73,15.66,0,9.18,7.68,14.22,16.1,14.22s14.79-4.86,19.66-10.8Z"/><path class="cls-2" d="M1112.98,367.4l-16.66,12.96c-4.12-6.84-6.18-9.72-10.67-9.72s-8.8,5.76-16.66,17.28v45.72l15.54,1.62v9h-49.23v-9l14.41-1.62v-58.14l-14.79-.72v-5.22l28.64-18h5.43v24.12h1.5c8.24-12.06,15.91-24.3,25.46-24.3,8.05,0,12.17,7.2,17.03,16.02Z"/><path class="cls-2" d="M1187.3,431.48c-5.8,7.2-18.34,15.66-28.83,15.66-12.73,0-20.03-5.4-20.4-17.82v-63.36h-16.85v-6.84l35-26.28h4.87l-3.93,21.42h28.64v11.7h-28.64v54.72c0,7.92,3.37,11.34,10.11,11.34,5.99,0,11.61-3.78,15.35-6.66l4.68,6.12Z"/><path class="cls-2" d="M1304.69,435.26v9h-47.36v-9l14.41-1.62v-45.36c0-12.6-3.93-22.68-16.66-22.68-10.67,0-17.78,6.66-25.46,16.92v51.12l13.67,1.62v9h-47.36v-9l14.41-1.62v-98.64l-14.98-1.8v-5.4l37.06-19.8,6.18,9.9-8.99,5.4v46.62h2.06c8.05-9.72,19.09-18.54,33.13-18.54,17.6,0,26.21,13.5,26.21,30.96v51.3l13.67,1.62Z"/><path class="cls-2" d="M372.77,591.48c-5.8,7.2-18.34,15.66-28.83,15.66-12.73,0-20.03-5.4-20.4-17.82v-63.36h-16.85v-6.84l35-26.28h4.87l-3.93,21.42h28.64v11.7h-28.64v54.72c0,7.92,3.37,11.34,10.11,11.34,5.99,0,11.61-3.78,15.35-6.66l4.68,6.12Z"/><path class="cls-2" d="M459.34,527.4l-16.66,12.96c-4.12-6.84-6.18-9.72-10.67-9.72s-8.8,5.76-16.66,17.28v45.72l15.54,1.62v9h-49.23v-9l14.41-1.62v-58.14l-14.79-.72v-5.22l28.64-18h5.43v24.12h1.5c8.24-12.06,15.91-24.3,25.46-24.3,8.05,0,12.17,7.2,17.03,16.02Z"/><path class="cls-2" d="M548.24,585.54c-6.55,11.88-18.72,21.6-37.81,21.6-28.83,0-45.49-21.6-45.49-46.44,0-26.1,15.35-49.32,44.74-49.32,22.28,0,37.81,16.56,38.38,41.4h-64.58c0,19.26,10.48,39.96,32.76,39.96,10.48,0,19.09-3.24,26.02-11.34l5.99,4.14Zm-64.21-42.48h42.49c-1.87-12.24-8.05-21.06-21.15-21.06-12.17,0-19.47,10.44-21.34,21.06Z"/><path class="cls-2" d="M728.7,595.26v9h-47.36v-9l14.41-1.62v-44.46c0-13.14-3.93-23.58-17.97-23.58-10.3,0-18.16,7.74-24.34,16.02v52.02l13.67,1.62v9h-47.36v-9l14.41-1.62v-44.46c0-13.14-3.93-23.58-16.47-23.58-11.23,0-19.28,7.92-25.46,16.38v51.66l13.67,1.62v9h-47.36v-9l14.41-1.62v-58.14l-14.79-.72v-5.22l28.64-18h5.43v18h1.87c7.68-9,18.35-18.18,32.01-18.18s23.03,8.64,26.21,21.06c7.86-9.72,20.4-21.06,35.38-21.06,16.85,0,27.33,13.32,27.33,30.78v51.48l13.67,1.62Z"/><path class="cls-2" d="M832.32,556.2c0,26.46-17.97,50.94-46.8,50.94-14.04,0-26.21-1.98-41.18-4.68v-107.46l-14.98-1.8v-5.4l37.06-19.8,6.18,9.9-8.99,5.4v48.06h1.5c5.62-10.26,15.91-19.98,29.76-19.98,24.9,0,37.44,23.22,37.44,44.82Zm-19.47,4.5c0-17.46-7.67-35.46-24.15-35.46-11.23,0-19.47,7.74-25.08,19.44v41.4c5.43,6.66,14.6,10.98,23.96,10.98,17.41,0,25.27-17.1,25.27-36.36Z"/><path class="cls-2" d="M885.91,595.26v9h-47.36v-9l14.41-1.62v-98.64l-14.98-1.8v-5.4l37.06-19.8,6.18,9.9-8.99,5.4v110.34l13.67,1.62Z"/><path class="cls-2" d="M975.32,585.54c-6.55,11.88-18.72,21.6-37.81,21.6-28.83,0-45.49-21.6-45.49-46.44,0-26.1,15.35-49.32,44.74-49.32,22.28,0,37.81,16.56,38.38,41.4h-64.58c0,19.26,10.48,39.96,32.76,39.96,10.48,0,19.09-3.24,26.02-11.34l5.99,4.14Zm-64.21-42.48h42.49c-1.87-12.24-8.05-21.06-21.15-21.06-12.17,0-19.47,10.44-21.34,21.06Z"/><path class="cls-2" d="M989.68,535.68c0-17.64,15.35-24.3,30.89-24.3,12.17,0,17.6,1.26,29.39,3.6v27.9h-8.61c-1.87-12.42-6.93-22.32-21.34-22.32-8.61,0-13.85,4.68-13.85,11.7,0,6.48,4.68,10.26,10.67,13.32l19.28,9.72c12.17,6.12,19.84,13.86,19.84,25.2,0,16.56-11.42,26.64-33.13,26.64-10.67,0-20.97-2.16-32.57-6.12v-27.54h8.42c1.31,18.36,10.86,23.58,22.65,23.58,10.48,0,17.97-4.14,17.97-12.6,0-6.84-4.12-9.36-12.36-13.5l-18.72-9.18c-10.3-5.04-18.53-13.14-18.53-26.1Z"/></g><g><path class="cls-2" d="M629.69,724.72c0,2.72-2.21,4.9-4.93,4.9s-4.9-2.19-4.9-4.9,2.19-4.93,4.9-4.93,4.93,2.21,4.93,4.93Zm-.83,0c0-2.26-1.85-4.1-4.1-4.1s-4.08,1.85-4.08,4.1,1.82,4.08,4.08,4.08,4.1-1.82,4.1-4.08Zm-1.02,.04c0,1.68-1.29,3.04-3.08,3.04s-3.08-1.36-3.08-3.04h.49c.31,1.5,1.33,2.23,2.59,2.23s2.28-.73,2.59-2.23h.49Zm-4.8-1.68c0-.55,.18-.97,.52-.97s.48,.42,.48,.97-.15,.99-.48,.99-.52-.45-.52-.99Zm2.45,0c0-.55,.15-.97,.48-.97s.52,.42,.52,.97-.18,.99-.52,.99-.48-.45-.48-.99Z"/><path class="cls-2" d="M638.97,725.3h-2.06v4.16h-1.19v-9.51h3.91c2.17,0,3.17,1.01,3.17,2.62,0,1.43-.78,2.4-2.55,2.61l3.07,4.29h-1.33l-3.01-4.16Zm-2.06-.99h2.58c1.39,0,2.12-.63,2.12-1.74s-.76-1.62-2.14-1.62h-2.55v3.36Z"/><path class="cls-2" d="M646.36,720.95v3.14h4.8v1h-4.8v3.36h5.39v1.01h-6.57v-9.51h6.57v1.01h-5.39Z"/><path class="cls-2" d="M659.64,726.84h-4.19l-.99,2.62h-1.26l3.75-9.51h1.27l3.63,9.51h-1.26l-.95-2.62Zm-.36-1l-1.7-4.68-1.76,4.68h3.46Z"/><path class="cls-2" d="M671.29,724.71c0,2.93-1.92,4.75-4.62,4.75h-3.05v-9.51h3.05c2.7,0,4.62,1.82,4.62,4.76Zm-1.19,0c0-2.38-1.33-3.77-3.61-3.77h-1.7v7.52h1.7c2.25,0,3.61-1.39,3.61-3.75Z"/><path class="cls-2" d="M674.77,720.95v3.14h4.8v1h-4.8v3.36h5.39v1.01h-6.57v-9.51h6.57v1.01h-5.39Z"/><path class="cls-2" d="M685.47,725.3h-2.06v4.16h-1.19v-9.51h3.91c2.17,0,3.17,1.01,3.17,2.62,0,1.43-.78,2.4-2.55,2.61l3.07,4.29h-1.33l-3.01-4.16Zm-2.06-.99h2.58c1.39,0,2.12-.63,2.12-1.74s-.76-1.62-2.14-1.62h-2.55v3.36Z"/><path class="cls-2" d="M698.87,725.3h-2.06v4.16h-1.19v-9.51h3.91c2.17,0,3.17,1.01,3.17,2.62,0,1.43-.78,2.4-2.55,2.61l3.07,4.29h-1.33l-3.01-4.16Zm-2.06-.99h2.58c1.39,0,2.12-.63,2.12-1.74s-.76-1.62-2.14-1.62h-2.55v3.36Z"/><path class="cls-2" d="M704.44,724.71c0-2.94,1.81-4.93,4.43-4.93s4.43,1.99,4.43,4.93-1.81,4.92-4.43,4.92-4.43-1.99-4.43-4.92Zm7.66,0c0-2.44-1.27-3.94-3.24-3.94s-3.24,1.5-3.24,3.94,1.28,3.92,3.24,3.92,3.24-1.5,3.24-3.92Z"/><path class="cls-2" d="M725.18,719.95v9.51h-1.19v-8.47l-3.22,8.47h-.77l-3.26-8.49v8.49h-1.19v-9.51h1.93l2.9,7.63,2.9-7.63h1.91Z"/><path class="cls-2" d="M733.36,726.84h-4.19l-.99,2.62h-1.26l3.75-9.51h1.27l3.63,9.51h-1.26l-.95-2.62Zm-.36-1l-1.7-4.68-1.76,4.68h3.46Z"/><path class="cls-2" d="M745.14,719.95v9.51h-1.79l-4.89-8.56v8.56h-1.12v-9.51h1.79l4.9,8.56v-8.56h1.11Z"/></g><g><path class="cls-2" d="M659.04,43.72c0,2.72-2.21,4.9-4.93,4.9s-4.9-2.19-4.9-4.9,2.18-4.93,4.9-4.93,4.93,2.21,4.93,4.93Zm-.83,0c0-2.26-1.85-4.1-4.1-4.1s-4.08,1.85-4.08,4.1,1.82,4.08,4.08,4.08,4.1-1.82,4.1-4.08Zm-1.02,.04c0,1.68-1.29,3.04-3.08,3.04s-3.08-1.36-3.08-3.04h.49c.31,1.5,1.33,2.23,2.59,2.23s2.28-.73,2.59-2.23h.49Zm-4.8-1.68c0-.55,.18-.97,.52-.97s.48,.42,.48,.97-.15,.99-.48,.99-.52-.45-.52-.99Zm2.45,0c0-.55,.15-.97,.48-.97s.52,.42,.52,.97-.18,.99-.52,.99-.48-.45-.48-.99Z"/><path class="cls-2" d="M667.49,38.95v9.51h-1.21v-7.49c-.49,.45-1.13,.6-2.17,.6v-.98c1.62-.06,2.12-.66,2.35-1.64h1.02Z"/><path class="cls-2" d="M676.59,45.84c0,1.61-1.43,2.79-3.42,2.79s-3.43-1.18-3.43-2.79c0-1.15,.76-2.06,1.83-2.35-.92-.31-1.54-1.13-1.54-2.12,0-1.48,1.3-2.59,3.14-2.59s3.12,1.11,3.12,2.59c0,.98-.62,1.81-1.54,2.12,1.08,.29,1.83,1.19,1.83,2.35Zm-1.3-.04c0-1.09-.85-1.81-2.12-1.81s-2.13,.71-2.13,1.81,.87,1.81,2.13,1.81,2.12-.71,2.12-1.81Zm-4.02-4.38c0,.84,.67,1.61,1.91,1.61s1.89-.77,1.89-1.61c0-.95-.74-1.67-1.89-1.67s-1.91,.71-1.91,1.67Z"/><path class="cls-2" d="M678.32,43.72c0-2.87,1.4-4.95,3.8-4.95s3.8,2.07,3.8,4.95-1.4,4.9-3.8,4.9-3.8-2.03-3.8-4.9Zm6.43,0c0-2.38-.92-3.91-2.63-3.91s-2.63,1.53-2.63,3.91,.92,3.87,2.63,3.87,2.63-1.49,2.63-3.87Z"/><path class="cls-2" d="M699.11,41.59c0,1.57-1.08,2.7-3.25,2.7h-2.63v4.16h-1.19v-9.51h3.92c2.17,0,3.15,1.01,3.15,2.65Zm-1.19,0c0-1.07-.66-1.65-2.16-1.65h-2.54v3.36h2.54c1.5,0,2.16-.69,2.16-1.71Z"/><path class="cls-2" d="M707.8,39.93h-3.15v8.53h-1.18v-8.53h-3.17v-.98h7.49v.98Z"/><path class="cls-2" d="M708.88,45.63h1.25c.18,1.34,1.18,2,2.72,2,1.62,0,2.38-.71,2.38-1.64,0-.84-.56-1.33-1.67-1.58l-2.21-.49c-1.4-.31-2.16-1.16-2.16-2.41,0-1.54,1.3-2.73,3.4-2.73s3.52,.88,3.73,2.83h-1.25c-.18-1.26-1.11-1.83-2.51-1.83s-2.13,.7-2.13,1.6c0,.69,.35,1.16,1.44,1.42l2.14,.49c1.54,.35,2.45,1.19,2.45,2.55,0,1.67-1.3,2.8-3.63,2.8-2.49,0-3.77-1.08-3.96-3Z"/></g></svg>