<?xml version="1.0" encoding="UTF-8"?>
<svg id="Layer_1" data-name="Layer 1" xmlns="http://www.w3.org/2000/svg" xmlns:xlink="http://www.w3.org/1999/xlink" viewBox="0 0 1366 768">
  <defs>
    <style>
      .cls-1, .cls-2 {
        fill: #f9df4b;
      }

      .cls-3 {
        clip-path: url(#clippath);
      }

      .cls-2, .cls-4 {
        stroke-width: 0px;
      }

      .cls-4 {
        fill: #12100b;
      }
    </style>
    <clipPath id="clippath">
      <rect class="cls-2" x="-10" y="-10" width="1386" height="788"/>
    </clipPath>
  </defs>
  <g>
    <rect class="cls-1" x="-10" y="-10" width="1386" height="788"/>
    <g class="cls-3">
      <rect class="cls-2" x="-.35" y="-3.25" width="1366.71" height="779.89"/>
    </g>
  </g>
  <g>
    <path class="cls-4" d="M454.01,99.07c0,22.2,10.69,44.27,36.73,44.27,16.45,0,28.64-7.67,34.13-28.51l1.92.14-3.02,23.03c-10,4.93-20.15,7.81-31.93,7.81-29.6,0-45.78-20.56-45.78-47.28s16.17-47.28,45.37-47.28c12.33,0,22.61,3.29,32.34,7.68,0,6.85,1.1,16.17,3.02,28.37l-2.33.41c-4.93-25.63-17.54-33.99-33.44-33.99-25.9,0-37,22.2-37,45.36Z"/>
    <path class="cls-4" d="M593.25,84.54v28.23h-1.92c-1.1-10.69-3.7-13.02-13.43-13.02h-23.57v41.8l27.69-.82c17-.55,21.38-8.63,26.18-21.52l2.19.55c-3.15,9.18-5.76,18.78-5.48,23.71l-.69.68c-2.33-.55-4.39-.55-8.91-.55h-61.4v-1.78c11.92-.55,13.84-3.43,13.84-12.61v-61.4c0-9.18-1.92-12.06-13.84-12.61v-1.78h59.89c4.11,0,5.76,0,8.36-.55l.41.69c-.82,1.51-1.51,4.39-1.51,7.26,0,4.11,1.23,9.73,3.43,16.45l-2.33.55c-4.25-12.33-6.58-20.97-22.34-21.52l-25.49-.96v41.94h23.57c9.73,0,12.33-1.92,13.43-12.75h1.92Z"/>
    <path class="cls-4" d="M689.19,119.22l2.19.55c-3.15,9.18-5.76,18.78-5.48,23.71l-.68.68c-2.19-.55-4.39-.55-8.64-.55h-61.67v-1.92c11.92-.55,13.84-3.56,13.84-12.75v-60.85c0-9.18-1.65-12.2-13.84-12.75v-1.92h34.13v1.92c-11.79.55-13.71,3.43-13.71,12.61v73.6l27.69-.82c17-.55,21.38-8.63,26.18-21.52Z"/>
    <path class="cls-4" d="M689.04,55.21v-1.78h33.72v1.78c-11.79.69-13.57,3.56-13.57,12.75v61.13c0,9.32,1.78,12.06,13.57,12.75v1.78h-33.72v-1.78c11.79-.69,13.57-3.7,13.57-12.75v-61.13c0-9.04-1.78-12.06-13.57-12.75Z"/>
    <path class="cls-4" d="M737.56,57.54h.27v.41l60.85,74.56-.27-68.25c0-7.13-2.47-9.05-14.94-9.18v-1.64h27v1.64c-7.54.14-9.46,2.06-9.46,7.81l-.55,71.68.14.27-.27.96v7.81h-1.65l-60.71-74.28.55,60.17c0,8.77,2.33,12.2,15.08,12.33v1.78h-29.88v-1.78c10.28-.14,12.2-3.43,12.2-12.33v-62.63l-9.32-11.38c2.33-1.23,3.56-2.6,5.07-4.25h.69l5.21,6.3Z"/>
    <path class="cls-4" d="M871.6,84.54v28.23h-1.92c-1.1-10.69-3.7-13.02-13.43-13.02h-23.57v41.8l27.69-.82c16.99-.55,21.38-8.63,26.18-21.52l2.19.55c-3.15,9.18-5.76,18.78-5.48,23.71l-.69.68c-2.33-.55-4.39-.55-8.91-.55h-61.4v-1.78c11.92-.55,13.84-3.43,13.84-12.61v-61.4c0-9.18-1.92-12.06-13.84-12.61v-1.78h59.89c4.11,0,5.76,0,8.36-.55l.41.69c-.82,1.51-1.51,4.39-1.51,7.26,0,4.11,1.23,9.73,3.43,16.45l-2.33.55c-4.25-12.33-6.58-20.97-22.34-21.52l-25.49-.96v41.94h23.57c9.73,0,12.33-1.92,13.43-12.75h1.92Z"/>
  </g>
  <g>
    <path class="cls-4" d="M451.34,213.55c0,22.89,10.14,45.09,35.36,45.09,17.27,0,28.1-8.22,32.76-28.1l2.47.27-3.02,23.85c-10.14,4.39-19.74,6.99-31.52,6.99-30.02,0-46.87-19.74-46.87-46.87s17-47.42,46.32-47.42c11.92,0,22.61,3.02,32.07,7.54,0,6.85.96,16.45,3.02,28.78l-2.74.41c-4.93-24.53-15.76-33.85-32.62-33.85-26.31,0-35.22,22.34-35.22,43.31Z"/>
    <path class="cls-4" d="M588.66,199.84v29.33h-2.47c-.96-10.42-3.15-13.29-12.61-13.29h-22.07v41.12l26.31-.82c16.45-.55,20.69-8.09,25.49-21.66l2.74.69c-3.29,9.87-5.34,18.78-5.34,24.26l-.69.69c-2.33-.69-4.93-.69-9.18-.69h-61.95v-2.47c11.38-.69,13.29-3.29,13.29-12.33v-60.58c0-9.18-1.92-11.65-13.29-12.33v-2.47h58.66c5.34,0,7.95-.14,10.42-.69l.55.82c-.82,1.64-1.51,4.52-1.51,7.54,0,4.11,1.23,9.73,3.15,16.58l-2.6.68c-4.66-13.16-7.26-21.11-22.61-21.65l-23.44-.82v41.12h22.07c9.46,0,11.65-2.47,12.61-13.02h2.47Z"/>
    <path class="cls-4" d="M685.28,234.52l2.74.69c-3.29,9.87-5.34,18.78-5.34,24.26l-.69.69c-2.33-.69-4.93-.69-9.18-.69h-61.95v-2.47c10.55-.41,12.47-3.02,12.47-11.1v-63.04c0-8.09-2.33-10.55-12.47-11.1v-2.47h34.95v2.47c-10.69.69-13.16,2.88-13.16,11.1v74.15l27.14-.82c16.45-.55,20.69-8.09,25.49-21.66Z"/>
    <path class="cls-4" d="M687.74,171.75v-2.47h36.73v2.47c-11.38.41-13.71,2.6-13.71,11.51v62.22c0,8.77,2.33,11.1,13.71,11.51v2.47h-36.73v-2.47c11.38-.41,13.71-2.74,13.71-11.51v-62.22c0-8.77-2.33-11.1-13.71-11.51Z"/>
    <path class="cls-4" d="M802.32,244.52l-.27-62.5c0-8.09-2.19-10-14.94-10.42v-2.33h27.96v2.33c-8.09.41-10,2.33-10,9.59l-.41,78.26h-2.19l-60.99-71.13.41,56.33c.14,9.05,2.19,11.92,14.94,12.33v2.47h-29.74v-2.47c9.87-.41,11.79-3.29,11.79-12.33v-59.34l-10.28-11.92c3.02-1.64,5.35-3.7,7.13-6.03h.96l65.65,77.16Z"/>
    <path class="cls-4" d="M877.7,199.84v29.33h-2.47c-.96-10.42-3.15-13.29-12.61-13.29h-22.07v41.12l26.31-.82c16.45-.55,20.7-8.09,25.49-21.66l2.74.69c-3.29,9.87-5.35,18.78-5.35,24.26l-.68.69c-2.33-.69-4.93-.69-9.18-.69h-61.95v-2.47c11.38-.69,13.29-3.29,13.29-12.33v-60.58c0-9.18-1.92-11.65-13.29-12.33v-2.47h58.66c5.35,0,7.95-.14,10.42-.69l.55.82c-.82,1.64-1.51,4.52-1.51,7.54,0,4.11,1.23,9.73,3.15,16.58l-2.6.68c-4.66-13.16-7.26-21.11-22.61-21.65l-23.44-.82v41.12h22.07c9.46,0,11.65-2.47,12.61-13.02h2.47Z"/>
  </g>
  <g>
    <path class="cls-4" d="M448.53,327.76c0,22.89,9.59,46.05,33.99,46.05,18.37,0,27.82-8.91,31.52-27.96l3.15.41-3.02,24.53c-10.28,3.84-19.46,6.3-31.39,6.3-29.74,0-47.15-18.91-47.15-46.19s17.68-47.7,46.6-47.7c11.51,0,22.48,2.74,31.93,7.4,0,6.85.96,16.58,3.02,28.92l-3.15.55c-5.21-24.4-14.67-33.58-32.07-33.58-27.41,0-33.44,23.3-33.44,41.25Z"/>
    <path class="cls-4" d="M584.07,314.6v30.7h-3.15c-.82-10.28-2.6-13.84-11.65-13.84h-21.24v40.43l26.59-.82c15.21-.55,18.91-7.26,23.85-21.24l3.15.82c-3.43,10.55-4.8,18.23-4.8,24.26l-.69.82c-2.33-.69-5.48-.82-9.46-.82h-62.77v-3.15c10.69-.82,12.61-2.88,12.61-12.33v-59.21c0-9.46-1.92-11.51-12.61-12.33v-3.15h57.7c6.72,0,9.87-.27,12.2-.82l.69.96c-.96,1.78-1.64,4.66-1.64,7.81,0,3.97,1.23,9.59,3.02,16.31l-3.15.82c-4.93-13.84-8.09-20.7-23.03-21.24l-21.65-.82v40.43h21.24c9.05,0,10.83-3.15,11.65-13.57h3.15Z"/>
    <path class="cls-4" d="M681.65,349.82l3.15.82c-3.43,10.55-4.8,18.23-4.8,24.26l-.69.82c-2.33-.69-5.48-.82-9.46-.82h-62.77v-3.15c8.5-.27,10.42-2.33,10.42-9.05v-65.79c0-6.71-3.02-8.5-10.42-9.04v-3.15h34.13v3.15c-8.91.82-12.2,2.33-12.2,9.04v74.97l28.78-.82c15.21-.55,18.91-7.26,23.85-21.24Z"/>
    <path class="cls-4" d="M686.86,287.87v-3.15h38.92v3.15c-10.83.27-13.71,1.64-13.71,10v63.87c0,8.36,2.88,9.73,13.71,10v3.15h-38.92v-3.15c10.83-.27,13.71-1.64,13.71-10v-63.87c0-8.36-2.88-9.73-13.71-10Z"/>
    <path class="cls-4" d="M805.27,356.81l-.41-57.29c-.14-9.05-1.78-10.96-14.39-11.65v-3.15h28.64v3.15c-8.77.68-10.69,2.6-10.69,11.38l-.14,75.65h-2.88l-60.99-68.12.55,52.77c.14,9.32,1.78,11.51,14.39,12.2v3.15h-29.19v-3.15c9.32-.69,11.38-2.88,11.38-12.2v-56.06l-11.38-12.75c3.56-2.06,6.99-4.8,8.91-7.54h.96l65.24,73.6Z"/>
    <path class="cls-4" d="M883.25,314.6v30.7h-3.15c-.82-10.28-2.6-13.84-11.65-13.84h-21.24v40.43l26.59-.82c15.21-.55,18.91-7.26,23.85-21.24l3.15.82c-3.43,10.55-4.8,18.23-4.8,24.26l-.69.82c-2.33-.69-5.48-.82-9.46-.82h-62.77v-3.15c10.69-.82,12.61-2.88,12.61-12.33v-59.21c0-9.46-1.92-11.51-12.61-12.33v-3.15h57.7c6.71,0,9.87-.27,12.2-.82l.69.96c-.96,1.78-1.64,4.66-1.64,7.81,0,3.97,1.23,9.59,3.01,16.31l-3.15.82c-4.93-13.84-8.09-20.7-23.02-21.24l-21.66-.82v40.43h21.24c9.04,0,10.83-3.15,11.65-13.57h3.15Z"/>
  </g>
  <g>
    <path class="cls-4" d="M447.16,442.1c0,23.57,9.32,46.46,33.17,46.46,18.64,0,27.27-9.04,30.7-27.68l3.43.55-3.29,25.08c-10.14,3.56-19.05,5.76-30.97,5.76-30.15,0-48.24-18.37-48.24-46.19s18.37-47.7,47.69-47.7c11.24,0,22.48,2.74,31.52,7.4,0,6.99,1.1,16.72,3.29,29.19l-3.56.55c-4.93-23.16-13.16-33.44-31.52-33.44-27,0-32.21,22.89-32.21,40.02Z"/>
    <path class="cls-4" d="M581.33,429.49v31.25h-3.43c-.69-10.14-2.47-13.84-11.24-13.84h-19.87v39.88l24.81-.82c15.21-.41,18.91-6.99,24.12-21.52l3.29.82c-3.43,10.96-4.66,18.5-4.8,24.94l-.82.82c-2.33-.82-5.76-.96-9.73-.96h-62.91v-3.56c10.42-.82,12.33-2.74,12.33-12.06v-59.07c0-9.05-1.92-11.1-12.33-11.92v-3.56h57.15c7.26,0,10.96-.27,13.43-.82l.69.96c-.96,1.92-1.51,4.8-1.51,8.09,0,3.97,1.1,9.59,2.88,16.58l-3.43.82c-5.07-14.39-8.22-20.97-23.02-21.52l-20.15-.82v39.88h19.87c8.77,0,10.55-3.43,11.24-13.57h3.43Z"/>
    <path class="cls-4" d="M679.32,464.44l3.29.82c-3.43,10.96-4.66,18.64-4.8,24.94l-.82.82c-2.47-.82-5.76-.96-10.14-.96h-62.5v-3.43c8.09-.14,10-2.06,10-8.22v-66.88c0-6.17-3.29-7.67-10-8.22v-3.43h35.77v3.43c-8.63.96-12.06,2.06-12.06,8.36v75.11l27.14-.82c15.21-.55,18.91-6.99,24.12-21.52Z"/>
    <path class="cls-4" d="M685.62,403.31v-3.43h41.39v3.43c-10.83.27-13.84,1.37-13.84,9.46v64.28c0,8.09,3.01,9.32,13.84,9.46v3.56h-41.39v-3.56c10.83-.14,13.84-1.37,13.84-9.46v-64.28c0-8.09-3.01-9.18-13.84-9.46Z"/>
    <path class="cls-4" d="M807.73,469.24l-.41-53.59c-.14-9.46-1.78-11.51-14.53-12.2v-3.56h29.33v3.56c-8.91.68-10.96,2.74-10.96,12.2v74.42h-3.29l-61.26-66.33.41,50.57c.14,9.46,1.78,11.51,14.39,12.2v3.56h-29.47v-3.56c9.32-.69,11.38-2.74,11.38-12.2v-54.14l-11.92-12.88c4.11-2.33,8.09-5.62,10.42-8.91h1.1l64.83,70.86Z"/>
    <path class="cls-4" d="M887.08,429.49v31.25h-3.43c-.68-10.14-2.47-13.84-11.24-13.84h-19.87v39.88l24.81-.82c15.21-.41,18.91-6.99,24.12-21.52l3.29.82c-3.43,10.96-4.66,18.5-4.8,24.94l-.82.82c-2.33-.82-5.76-.96-9.73-.96h-62.91v-3.56c10.42-.82,12.33-2.74,12.33-12.06v-59.07c0-9.05-1.92-11.1-12.33-11.92v-3.56h57.15c7.26,0,10.96-.27,13.43-.82l.69.96c-.96,1.92-1.51,4.8-1.51,8.09,0,3.97,1.1,9.59,2.88,16.58l-3.43.82c-5.07-14.39-8.22-20.97-23.03-21.52l-20.15-.82v39.88h19.87c8.77,0,10.55-3.43,11.24-13.57h3.43Z"/>
  </g>
  <g>
    <path class="cls-4" d="M445.99,557.54c0,25.08,9.32,46.46,32.62,46.46,18.37,0,26.04-9.05,29.47-27.41l3.56.41-3.29,25.9c-9.87,3.29-18.64,5.21-30.43,5.21-31.66,0-50.44-18.23-50.44-46.6s18.91-47.56,49.61-47.56c11.79,0,23.16,2.88,31.25,7.26,0,7.26.96,17.27,3.29,30.01l-3.7.55c-4.11-20.15-10.69-33.71-30.97-33.71-24.94,0-30.97,21.11-30.97,39.47Z"/>
    <path class="cls-4" d="M579.34,545.34v31.11h-3.7c-.55-9.87-2.33-13.57-11.24-13.57h-17.13v39.61l20.01-.68c16.45-.55,20.7-7.26,26.18-23.03l3.56.82c-3.43,11.38-5.07,19.74-5.35,26.73l-.82.69c-2.47-1.1-6.58-1.1-10.55-1.1h-62.36v-3.7c10.42-.82,12.33-3.15,12.33-11.51v-59.89c0-8.22-1.92-10.55-12.33-11.38v-3.7h56.47c7.4,0,12.33-.14,14.8-.96l.82.96c-.82,1.92-1.37,4.93-1.37,8.5,0,4.11,1.1,10,3.02,17.41l-3.7.82c-5.07-14.67-7.4-21.93-22.75-22.48l-17.95-.68v39.33h17.13c8.91,0,10.69-3.43,11.24-13.29h3.7Z"/>
    <path class="cls-4" d="M677.33,578.78l3.56.82c-3.43,11.38-5.07,20.28-5.34,26.73l-.82.69c-3.02-.96-6.58-1.1-12.06-1.1h-60.85v-3.43c9.18-.14,11.1-2.06,11.1-8.22v-66.88c0-6.17-3.29-7.67-11.1-8.22v-3.43h40.98v3.43c-10,.69-12.88,1.78-12.88,8.91v74.56l21.24-.82c16.45-.69,20.7-7.26,26.18-23.03Z"/>
    <path class="cls-4" d="M683.77,519.44v-3.84h45.23v3.84c-11.1.14-14.12,1.64-14.12,9.46v63.87c0,7.81,3.02,9.18,14.12,9.46v3.7h-45.23v-3.7c11.1-.27,14.12-1.64,14.12-9.46v-63.87c0-7.81-3.02-9.32-14.12-9.46Z"/>
    <path class="cls-4" d="M811.37,581.25l-.27-49.34c0-9.46-1.92-11.79-15.76-12.47v-3.7h30.43v3.7c-8.77.82-10.83,3.02-10.83,12.47v74.01h-3.43l-62.36-64.69.27,48.52c0,9.46,1.92,11.79,14.94,12.47v3.7h-30.84v-3.7c9.87-.82,11.79-3.02,11.79-12.47v-52.49l-12.06-12.47c5.07-2.88,9.32-6.85,12.2-10.96h1.37l64.55,67.43Z"/>
    <path class="cls-4" d="M891.26,545.34v31.11h-3.7c-.55-9.87-2.33-13.57-11.24-13.57h-17.13v39.61l20.01-.68c16.45-.55,20.7-7.26,26.18-23.03l3.56.82c-3.43,11.38-5.07,19.74-5.34,26.73l-.82.69c-2.47-1.1-6.58-1.1-10.55-1.1h-62.36v-3.7c10.42-.82,12.33-3.15,12.33-11.51v-59.89c0-8.22-1.92-10.55-12.33-11.38v-3.7h56.47c7.4,0,12.33-.14,14.8-.96l.82.96c-.82,1.92-1.37,4.93-1.37,8.5,0,4.11,1.1,10,3.02,17.41l-3.7.82c-5.07-14.67-7.4-21.93-22.75-22.48l-17.96-.68v39.33h17.13c8.91,0,10.69-3.43,11.24-13.29h3.7Z"/>
  </g>
  <g>
    <path class="cls-4" d="M444.9,673.04c0,27.14,9.32,46.46,31.93,46.46,17.95,0,24.67-8.91,28.1-27l3.56.55-3.43,26.73c-9.59,3.02-18.09,4.52-29.74,4.52-33.3,0-53.18-17.96-53.18-47.28s19.87-47.28,52.22-47.28c12.06,0,23.85,3.15,30.7,7.26,0,7.54,1.1,17.82,3.43,30.84l-3.97.69c-3.15-16.86-7.68-33.99-30.15-33.99s-29.47,18.78-29.47,38.51Z"/>
    <path class="cls-4" d="M577.01,661.53v31.11h-3.97c-.55-9.59-2.47-13.29-11.24-13.29h-14.12v39.2l14.39-.55c17.95-.69,23.02-7.54,28.78-24.81l3.84.96c-3.56,11.79-5.62,21.11-6.17,28.78l-.82.55c-2.6-1.37-7.26-1.37-11.51-1.37h-61.54v-3.97c10.42-.82,12.33-3.43,12.33-10.69v-61.13c0-6.85-1.92-9.59-12.33-10.42v-3.97h55.51c7.81,0,13.84-.14,16.58-1.1l.82,1.1c-.69,1.92-1.1,4.93-1.1,8.91,0,4.25.96,10.42,3.02,18.5l-3.97.82c-5.07-15.35-6.44-23.3-22.34-23.99l-15.49-.55v38.92h14.12c8.77,0,10.69-3.43,11.24-13.02h3.97Z"/>
    <path class="cls-4" d="M674.87,693.19l3.84.96c-3.56,11.79-5.62,21.93-6.17,28.78l-.82.55c-3.43-1.23-7.26-1.37-14.25-1.37h-58.8v-3.43c10.42-.14,12.33-2.06,12.33-8.22v-66.88c0-6.17-3.29-7.67-12.33-8.22v-3.43h46.87v3.43c-11.51.55-13.84,1.65-13.84,9.46v74.01l14.39-.82c17.95-.96,23.02-7.54,28.78-24.81Z"/>
    <path class="cls-4" d="M681.44,635.76v-3.97h49.75v3.97c-11.51.14-14.53,2.06-14.53,9.46v63.46c0,7.4,3.02,9.32,14.53,9.46v3.97h-49.75v-3.97c11.51-.14,14.53-2.06,14.53-9.46v-63.46c0-7.4-3.02-9.32-14.53-9.46Z"/>
    <path class="cls-4" d="M815.48,692.92v-44.41c0-9.46-2.33-12.06-17.27-12.61v-3.97h31.66v3.97c-8.36.69-10.42,3.29-10.42,12.61v73.6h-3.97l-63.46-62.63v46.05c0,9.46,2.19,12.06,15.76,12.61v3.97h-32.48v-3.97c10.55-.69,12.47-3.29,12.47-12.61v-50.16l-12.47-12.33c6.17-3.7,10.83-8.22,14.25-13.43h1.92l64,63.32Z"/>
    <path class="cls-4" d="M896.34,661.53v31.11h-3.97c-.55-9.59-2.47-13.29-11.24-13.29h-14.12v39.2l14.39-.55c17.95-.69,23.03-7.54,28.78-24.81l3.84.96c-3.56,11.79-5.62,21.11-6.17,28.78l-.82.55c-2.6-1.37-7.26-1.37-11.51-1.37h-61.54v-3.97c10.42-.82,12.33-3.43,12.33-10.69v-61.13c0-6.85-1.92-9.59-12.33-10.42v-3.97h55.51c7.81,0,13.84-.14,16.58-1.1l.82,1.1c-.69,1.92-1.1,4.93-1.1,8.91,0,4.25.96,10.42,3.02,18.5l-3.97.82c-5.07-15.35-6.44-23.3-22.34-23.99l-15.49-.55v38.92h14.12c8.77,0,10.69-3.43,11.24-13.02h3.97Z"/>
  </g>
</svg>