<?xml version="1.0" encoding="UTF-8"?><svg id="Layer_1" xmlns="http://www.w3.org/2000/svg" viewBox="0 0 1366 768"><defs><style>.cls-1{fill:#fdfaf5;}.cls-2{fill:#1a26cd;}.cls-3{fill:#2b2b2a;}</style></defs><rect class="cls-1" x="-40.27" y="-79.94" width="1446.07" height="930.38"/><g><path class="cls-2" d="M79.41,727.99h-1.15v-9.91h1.15v9.91Z"/><path class="cls-2" d="M88.62,719.1h-3.08v8.88h-1.15v-8.88h-3.09v-1.02h7.31v1.02Z"/><path class="cls-2" d="M95.68,725.26h-4.09l-.97,2.73h-1.23l3.66-9.91h1.24l3.54,9.91h-1.23l-.93-2.73Zm-.36-1.04l-1.65-4.87-1.72,4.87h3.38Z"/><path class="cls-2" d="M105.27,726.94v1.05h-5.63v-9.91h1.18v8.86h4.46Z"/><path class="cls-2" d="M108.25,727.99h-1.15v-9.91h1.15v9.91Z"/><path class="cls-2" d="M116.27,725.26h-4.09l-.97,2.73h-1.23l3.66-9.91h1.24l3.54,9.91h-1.23l-.93-2.73Zm-.36-1.04l-1.65-4.87-1.72,4.87h3.38Z"/><path class="cls-2" d="M127.84,718.08v9.91h-1.75l-4.77-8.91v8.91h-1.09v-9.91h1.75l4.79,8.91v-8.91h1.08Z"/><path class="cls-2" d="M141.57,725.17c0,1.74-.96,2.82-3.31,2.82h-3.88v-9.91h3.68c2.12,0,3.09,.98,3.09,2.61,0,1.05-.74,1.91-1.67,2.14,1.27,.19,2.09,1.06,2.09,2.33Zm-6.04-6.05v3.3h2.42c1.29,0,2.04-.63,2.04-1.72,0-1.18-.88-1.58-2.23-1.58h-2.23Zm4.89,6.05c0-1.31-.96-1.72-2.38-1.72h-2.52v3.5h2.5c1.44,0,2.39-.39,2.39-1.78Z"/><path class="cls-2" d="M143.27,723.04c0-3.06,1.76-5.13,4.32-5.13s4.32,2.07,4.32,5.13-1.76,5.12-4.32,5.12-4.32-2.07-4.32-5.12Zm7.48,0c0-2.54-1.24-4.1-3.16-4.1s-3.16,1.56-3.16,4.1,1.24,4.08,3.16,4.08,3.16-1.56,3.16-4.08Z"/><path class="cls-2" d="M159.82,726.94v1.05h-5.63v-9.91h1.18v8.86h4.46Z"/><path class="cls-2" d="M169.15,723.04c0,3.05-1.87,4.95-4.51,4.95h-2.98v-9.91h2.98c2.64,0,4.51,1.9,4.51,4.96Zm-1.16,0c0-2.48-1.3-3.92-3.53-3.92h-1.65v7.83h1.65c2.2,0,3.53-1.44,3.53-3.91Z"/><path class="cls-2" d="M189.5,724.73h-11.55v-1.05h11.55v1.05Z"/><path class="cls-2" d="M201.1,718.08v9.91h-1.18v-7.8c-.48,.47-1.11,.63-2.12,.63v-1.02c1.59-.06,2.06-.69,2.3-1.71h1Z"/><path class="cls-2" d="M209.95,725.21c0,1.58-1.18,2.95-3.32,2.95s-3.32-1.25-3.34-3.03h1.12c.07,1.25,.82,2,2.23,2s2.13-.85,2.13-1.91-.67-1.75-2.39-1.75h-.78v-1.08h.78c1.59,0,2.15-.77,2.15-1.74,0-1.02-.75-1.71-1.86-1.71-1.04,0-1.87,.57-2.01,1.81h-1.13c.19-1.82,1.52-2.84,3.16-2.84,1.72,0,3.01,1.11,3.01,2.68,0,1.04-.42,1.87-1.31,2.25,.98,.34,1.57,1.17,1.57,2.38Z"/><path class="cls-2" d="M211.69,723.05c0-2.99,1.37-5.15,3.71-5.15s3.71,2.16,3.71,5.15-1.37,5.11-3.71,5.11-3.71-2.12-3.71-5.11Zm6.28,0c0-2.48-.9-4.07-2.57-4.07s-2.57,1.59-2.57,4.07,.9,4.03,2.57,4.03,2.57-1.55,2.57-4.03Z"/><path class="cls-2" d="M232,720.84c0,1.63-1.05,2.82-3.17,2.82h-2.57v4.33h-1.16v-9.91h3.83c2.12,0,3.08,1.05,3.08,2.76Zm-1.16,0c0-1.11-.64-1.72-2.11-1.72h-2.47v3.5h2.47c1.46,0,2.11-.71,2.11-1.78Z"/><path class="cls-2" d="M240.37,719.1h-3.08v8.88h-1.15v-8.88h-3.09v-1.02h7.31v1.02Z"/><path class="cls-2" d="M241.55,725.04h1.22c.18,1.4,1.15,2.09,2.65,2.09,1.59,0,2.32-.74,2.32-1.71,0-.88-.55-1.39-1.63-1.65l-2.16-.51c-1.37-.32-2.11-1.21-2.11-2.51,0-1.6,1.27-2.84,3.32-2.84s3.43,.92,3.64,2.95h-1.22c-.18-1.31-1.08-1.91-2.45-1.91s-2.08,.73-2.08,1.66c0,.71,.34,1.21,1.41,1.47l2.09,.51c1.5,.37,2.39,1.24,2.39,2.66,0,1.74-1.27,2.92-3.54,2.92-2.43,0-3.68-1.12-3.87-3.12Z"/></g><g><path class="cls-2" d="M1007.45,718.08l-3.77,9.91h-1.03l-3.68-9.91h1.23l2.98,8.37,3.04-8.37h1.23Z"/><path class="cls-2" d="M1010.32,719.13v3.27h4.69v1.04h-4.69v3.5h5.26v1.05h-6.41v-9.91h6.41v1.05h-5.26Z"/><path class="cls-2" d="M1021.07,723.65h-2.01v4.33h-1.16v-9.91h3.81c2.12,0,3.09,1.05,3.09,2.73,0,1.49-.77,2.49-2.49,2.71l2.99,4.46h-1.3l-2.94-4.33Zm-2.01-1.04h2.52c1.35,0,2.06-.66,2.06-1.81s-.74-1.69-2.09-1.69h-2.49v3.5Z"/><path class="cls-2" d="M1026.59,725.04h1.22c.18,1.4,1.15,2.09,2.65,2.09,1.59,0,2.32-.74,2.32-1.71,0-.88-.55-1.39-1.63-1.65l-2.16-.51c-1.37-.32-2.11-1.21-2.11-2.51,0-1.6,1.27-2.84,3.32-2.84s3.43,.92,3.64,2.95h-1.22c-.18-1.31-1.08-1.91-2.45-1.91s-2.08,.73-2.08,1.66c0,.71,.34,1.21,1.41,1.47l2.09,.51c1.5,.37,2.39,1.24,2.39,2.66,0,1.74-1.27,2.92-3.54,2.92-2.43,0-3.68-1.12-3.87-3.12Z"/><path class="cls-2" d="M1037.34,727.99h-1.15v-9.91h1.15v9.91Z"/><path class="cls-2" d="M1039.61,723.04c0-3.06,1.76-5.13,4.32-5.13s4.32,2.07,4.32,5.13-1.76,5.12-4.32,5.12-4.32-2.07-4.32-5.12Zm7.48,0c0-2.54-1.24-4.1-3.16-4.1s-3.16,1.56-3.16,4.1,1.24,4.08,3.16,4.08,3.16-1.56,3.16-4.08Z"/><path class="cls-2" d="M1058.14,718.08v9.91h-1.75l-4.77-8.91v8.91h-1.09v-9.91h1.75l4.79,8.91v-8.91h1.08Z"/><path class="cls-2" d="M1060.28,725.04h1.22c.18,1.4,1.15,2.09,2.65,2.09,1.59,0,2.32-.74,2.32-1.71,0-.88-.55-1.39-1.63-1.65l-2.16-.51c-1.37-.32-2.11-1.21-2.11-2.51,0-1.6,1.27-2.84,3.32-2.84s3.43,.92,3.64,2.95h-1.22c-.18-1.31-1.08-1.91-2.45-1.91s-2.08,.73-2.08,1.66c0,.71,.34,1.21,1.41,1.47l2.09,.51c1.5,.37,2.39,1.24,2.39,2.66,0,1.74-1.27,2.92-3.54,2.92-2.43,0-3.68-1.12-3.87-3.12Z"/><path class="cls-2" d="M1076.73,723.65h-2.01v4.33h-1.16v-9.91h3.81c2.12,0,3.09,1.05,3.09,2.73,0,1.49-.77,2.49-2.49,2.71l2.99,4.46h-1.3l-2.94-4.33Zm-2.01-1.04h2.52c1.35,0,2.06-.66,2.06-1.81s-.74-1.69-2.09-1.69h-2.49v3.5Z"/><path class="cls-2" d="M1084.12,719.13v3.27h4.69v1.04h-4.69v3.5h5.26v1.05h-6.41v-9.91h6.41v1.05h-5.26Z"/><path class="cls-2" d="M1099.57,722.85v5.13h-1.04v-1.81c-.48,1.18-1.45,1.98-3.06,1.98-2.61,0-4.36-2.07-4.36-5.12s1.74-5.13,4.33-5.13c1.93,0,3.35,.88,3.9,2.84h-1.23c-.42-1.17-1.23-1.81-2.68-1.81-1.86,0-3.16,1.56-3.16,4.1s1.27,4.08,3.2,4.08,2.97-1.27,2.98-3.24h-3.24v-1.04h4.36Z"/><path class="cls-2" d="M1109.56,724.13c0,2.68-1.49,4.03-3.83,4.03s-3.84-1.36-3.84-4.03v-6.05h1.15v6.05c0,1.94,1.08,2.95,2.71,2.95s2.67-.96,2.67-2.89v-6.11h1.15v6.05Z"/><path class="cls-2" d="M1117.94,726.94v1.05h-5.63v-9.91h1.18v8.86h4.46Z"/><path class="cls-2" d="M1124.93,725.26h-4.09l-.97,2.73h-1.23l3.66-9.91h1.24l3.54,9.91h-1.23l-.93-2.73Zm-.36-1.04l-1.65-4.87-1.72,4.87h3.38Z"/><path class="cls-2" d="M1132.06,723.65h-2.01v4.33h-1.16v-9.91h3.81c2.12,0,3.09,1.05,3.09,2.73,0,1.49-.77,2.49-2.49,2.71l2.99,4.46h-1.3l-2.94-4.33Zm-2.01-1.04h2.52c1.35,0,2.06-.66,2.06-1.81s-.74-1.69-2.09-1.69h-2.49v3.5Z"/><path class="cls-2" d="M1138.48,729.9h-.71c.34-.8,.49-1.2,.62-1.72l-.18-.1c-.26-.15-.44-.41-.44-.74,0-.47,.36-.83,.79-.83s.78,.32,.78,.91c0,.51-.25,1.28-.86,2.49Z"/><path class="cls-2" d="M1156.81,718.08l-2.8,9.91h-1.13l-2.37-8.24-2.17,8.24h-1.15l-2.93-9.91h1.16l2.32,8.13,2.23-8.13h1.09l2.38,8.14,2.24-8.14h1.12Z"/><path class="cls-2" d="M1159.81,727.99h-1.15v-9.91h1.15v9.91Z"/><path class="cls-2" d="M1170.16,723.04c0,3.05-1.87,4.95-4.51,4.95h-2.98v-9.91h2.98c2.64,0,4.51,1.9,4.51,4.96Zm-1.16,0c0-2.48-1.3-3.92-3.53-3.92h-1.65v7.83h1.65c2.2,0,3.53-1.44,3.53-3.91Z"/><path class="cls-2" d="M1173.74,719.13v3.27h4.69v1.04h-4.69v3.5h5.26v1.05h-6.41v-9.91h6.41v1.05h-5.26Z"/><path class="cls-2" d="M1190.15,725.26h-4.09l-.97,2.73h-1.23l3.66-9.91h1.24l3.54,9.91h-1.23l-.93-2.73Zm-.36-1.04l-1.65-4.87-1.72,4.87h3.38Z"/><path class="cls-2" d="M1201.72,718.08v9.91h-1.75l-4.77-8.91v8.91h-1.09v-9.91h1.75l4.79,8.91v-8.91h1.08Z"/><path class="cls-2" d="M1212.08,723.04c0,3.05-1.87,4.95-4.51,4.95h-2.98v-9.91h2.98c2.64,0,4.51,1.9,4.51,4.96Zm-1.16,0c0-2.48-1.3-3.92-3.53-3.92h-1.65v7.83h1.65c2.2,0,3.53-1.44,3.53-3.91Z"/><path class="cls-2" d="M1219.33,719.13v3.27h4.69v1.04h-4.69v3.5h5.26v1.05h-6.41v-9.91h6.41v1.05h-5.26Z"/><path class="cls-2" d="M1232.58,727.99l-2.8-4.33-2.71,4.33h-1.34l3.35-5.15-3.09-4.76h1.34l2.52,3.94,2.47-3.94h1.34l-3.1,4.68,3.36,5.22h-1.34Z"/><path class="cls-2" d="M1241.96,719.1h-3.08v8.88h-1.15v-8.88h-3.09v-1.02h7.31v1.02Z"/><path class="cls-2" d="M1245.02,719.13v3.27h4.69v1.04h-4.69v3.5h5.26v1.05h-6.41v-9.91h6.41v1.05h-5.26Z"/><path class="cls-2" d="M1260.21,718.08v9.91h-1.75l-4.77-8.91v8.91h-1.09v-9.91h1.75l4.79,8.91v-8.91h1.08Z"/><path class="cls-2" d="M1270.56,723.04c0,3.05-1.87,4.95-4.51,4.95h-2.98v-9.91h2.98c2.64,0,4.51,1.9,4.51,4.96Zm-1.16,0c0-2.48-1.3-3.92-3.53-3.92h-1.65v7.83h1.65c2.2,0,3.53-1.44,3.53-3.91Z"/><path class="cls-2" d="M1274.14,719.13v3.27h4.69v1.04h-4.69v3.5h5.26v1.05h-6.41v-9.91h6.41v1.05h-5.26Z"/><path class="cls-2" d="M1289.21,723.04c0,3.05-1.87,4.95-4.51,4.95h-2.98v-9.91h2.98c2.64,0,4.51,1.9,4.51,4.96Zm-1.16,0c0-2.48-1.3-3.92-3.53-3.92h-1.65v7.83h1.65c2.2,0,3.53-1.44,3.53-3.91Z"/></g><g><path class="cls-3" d="M345.3,289.14h-101.59v-.47c6.46-1.88,7.99-5.87,7.99-11.39v-58.84c0-5.52-1.53-9.51-7.99-11.39v-.47h101.59c38.76,0,52.15,17.73,52.15,41.34s-13.39,41.22-52.15,41.22Zm-4.7-81.51h-70.7v80.45h70.7c26.66,0,36.88-18.09,36.88-40.17s-10.22-40.28-36.88-40.28Z"/><path class="cls-3" d="M402.86,248.03c0-28.42,22.79-42.87,78.57-42.87s78.34,14.45,78.34,42.87-22.67,42.52-78.34,42.52-78.57-14.09-78.57-42.52Zm136,0c0-26.31-15.74-41.81-57.43-41.81s-57.67,15.5-57.67,41.81,15.15,41.46,57.67,41.46,57.43-15.15,57.43-41.46Z"/><path class="cls-3" d="M680.74,227.24h22.2v.47c-7.99,1.41-9.04,3.76-9.04,9.87v52.38l-.35,.23-111.34-74.46v62.95c0,6.22,.59,8.46,12.21,9.98v.47h-24.55v-.47c10.92-1.53,11.39-3.76,11.39-9.98v-63.66l-6.22-4.11c-4.11-2.7-7.4-3.52-10.57-3.88v-.47h34.06l94.43,63.19v-32.18c0-6.11-.59-8.46-12.21-9.87v-.47Zm134.48-22.43l1.17,17.62h-.47c-3.17-11.86-8.22-14.8-22.08-14.8h-38.52v69.65c0,6.69,2.58,9.75,9.16,11.39v.47h-36.53v-.47c6.58-1.64,9.16-4.7,9.16-11.39v-69.65h-80.1c-13.86,0-18.91,2.94-22.08,14.8h-.47l1.17-17.62h.47c2.7,1.41,5.64,1.76,11.04,1.76h156.56c5.4,0,8.34-.35,11.04-1.76h.47Z"/><path class="cls-3" d="M1060.11,248.03c0,28.42-22.67,42.52-78.34,42.52-11.16,0-21.02-.59-29.6-1.64-8.93,1.29-18.32,2-27.37,2-60.49,0-83.04-14.56-83.04-43.22s22.08-42.4,83.74-42.4c9.51,0,18.44,.47,27.01,1.53,8.46-1.06,18.2-1.64,29.24-1.64,55.67,0,78.34,14.45,78.34,42.87Zm-111.81,40.28c-31.59-5.05-45.1-18.44-45.1-40.28s13.39-35.47,44.98-40.52c-7.52-.94-15.27-1.17-22.67-1.17-46.39,0-62.83,16.56-62.83,41.34s16.44,42.16,62.48,42.16c9.16,0,16.91-.59,23.14-1.53Zm90.9-40.28c0-26.31-15.74-41.81-57.43-41.81s-57.67,15.5-57.67,41.81c0,19.85,8.57,33.24,31.01,38.76,2.47-.71,4.46-1.64,5.99-2.58,4.93-3.05,5.17-8.1,5.17-13.27v-7.28c0-8.81-1.53-11.74-10.92-13.86v-.47h33.71v.47c-3.88,2.11-4.58,6.93-4.58,13.86v16.44c-6.81,3.17-15.62,5.75-25.25,7.52,6.46,1.29,13.98,1.88,22.55,1.88,41.69,0,57.43-15.15,57.43-41.46Z"/><path class="cls-3" d="M670.87,381.04l-5.52,13.86h-.94c-2.58-1.64-8.1-1.76-30.18-1.76h-93.72v-.47c6.46-1.88,8.1-5.75,8.1-11.16v-29.13h-93.84v28.89c0,6.69,2.58,9.75,9.16,11.39v.47h-36.53v-.47c6.58-1.64,9.16-4.7,9.16-11.39v-69.65h-38.52c-13.86,0-18.91,2.94-22.08,14.8h-.47l1.17-17.62h.47c2.7,1.41,5.64,1.76,11.04,1.76h74.7v.47c-6.58,1.88-8.1,5.87-8.1,11.39v28.89h93.84v-29.13c0-5.4-1.64-9.28-8.1-11.16v-.47h90.32c22.08,0,27.6-.12,30.18-1.76h.94l2.58,13.39-.47,.12c-3.05-8.69-9.87-10.69-23.14-10.69h-74.11v43.46h81.04c4.82,0,8.93,.23,11.28-7.99h.47v17.03h-.47c-2.35-8.22-6.46-7.99-11.28-7.99h-81.04v35.94h67.41c20.08,0,29.71-1.29,35.94-11.28l.71,.24Z"/><path class="cls-3" d="M682.28,322.43c0-5.52-1.53-9.51-7.99-11.39v-.47h97.95c31.12,0,43.1,9.75,43.1,29.83,0,18.2-11.98,28.07-37.7,29.01v.59h8.93c11.98,0,18.2,1.88,25.6,10.57l4.58,5.4c3.29,3.88,5.99,7.16,11.51,6.34v.47c-18.2,4.35-29.36,1.29-36.53-7.4l-5.99-7.28c-5.29-6.34-7.63-7.87-18.67-7.87h-66.59v11.04c0,5.52,1.53,9.51,9.16,11.39v.47h-35.35v-.47c6.46-1.88,7.99-5.87,7.99-11.39v-58.84Zm85.03,46.74c19.14,0,28.07-9.63,28.07-28.77s-8.93-28.77-28.07-28.77h-66.83v57.55h66.83Z"/><path class="cls-3" d="M952.41,308.81l2.58,13.39-.47,.12c-3.05-8.69-9.87-10.69-23.14-10.69h-74.11v43.46h81.04c4.82,0,8.93,.23,11.28-7.99h.47v17.03h-.47c-2.35-8.22-6.46-7.99-11.28-7.99h-81.04v35.94h67.41c20.08,0,29.71-1.29,35.94-11.28l.7,.24-5.52,13.86h-.94c-2.58-1.64-8.1-1.76-30.18-1.76h-93.6v-.47c6.46-1.88,7.99-5.87,7.99-11.39v-58.84c0-5.52-1.53-9.51-7.99-11.39v-.47h90.2c22.08,0,27.6-.12,30.18-1.76h.94Z"/><path class="cls-3" d="M440.79,459.44v.47c18.32,.35,29.48,4.46,29.48,17.97s-11.16,19.26-35.82,19.26h-97.95v-.47c6.46-1.88,7.99-5.87,7.99-11.39v-58.84c0-5.52-1.53-9.51-7.99-11.39v-.47h98.54c26.89,0,39.34,5.64,39.34,22.43,0,15.5-12.45,20.91-33.59,22.43Zm-78.1-.35h70c16.21,0,21.73-8.69,21.73-21.84s-5.52-21.61-21.73-21.61h-70v43.46Zm0,37h67.06c15.74,0,21.14-5.99,21.14-18.21,0-12.92-5.4-17.73-21.14-17.73h-67.06v35.94Z"/><path class="cls-3" d="M616.5,496.9c14.21,25.96,26.43,33.71,40.4,33.71,44.28,0,63.3-50.85,41.22-50.85-6.69,0-5.52,8.46-9.98,8.46-1.29,0-2-.94-2-2.35,0-3.76,6.46-6.7,11.86-6.7,23.14,0,4.35,52.15-41.46,52.15-21.84,0-42.75-8.46-61.54-38.88l-5.52-8.93c-5.17-8.34-9.16-9.28-19.5-9.28h-66.59v11.04c0,5.52,1.53,9.51,9.16,11.39v.47h-35.35v-.47c6.46-1.88,7.99-5.87,7.99-11.39v-58.84c0-5.52-1.53-9.51-7.99-11.39v-.47h97.95c31.12,0,43.1,10.57,43.1,29.83,0,17.5-11.98,26.43-38.88,29.13v.47h6.46c13.27,0,20.08,3.64,25.96,14.33l4.7,8.57Zm-46.27-23.72c19.14,0,28.07-9.63,28.07-28.77s-8.93-28.77-28.07-28.77h-66.83v57.55h66.83Z"/><path class="cls-3" d="M657.26,413.51l3.05,10.22-.35,.12c-3.41-6.46-7.63-8.22-13.74-8.22h-2.58v32.42h4.11c2.58,0,7.63,0,9.28-6.69h.47v13.86h-.47c-1.64-6.46-6.58-6.46-9.28-6.46h-4.11v27.13h1.29c8.1,0,14.09-2,18.32-9.75l.59,.12-5.4,11.75h-.47c-1.17-.82-3.17-1.41-6.11-1.41h-29.95v-.35c4.7-2.47,4.7-6.11,4.7-10.81v-39.34c0-4.7,0-8.34-4.7-10.8v-.35h28.77c2.82,0,4.93-.59,5.99-1.41h.59Z"/><path class="cls-3" d="M695.19,413.87c3.88,0,7.99,1.06,10.57,2.7l1.17,13.15-.47,.12c-2.47-8.81-5.17-15.15-10.57-15.15-9.63,0-11.04,14.92-11.04,41.11s1.41,41.11,11.04,41.11c5.4,0,8.1-6.34,10.57-12.8l.47,.12-1.17,10.8c-2.58,1.64-6.7,2.7-10.57,2.7-23.14,0-28.89-20.44-28.89-41.93s5.75-41.93,28.89-41.93Z"/><path class="cls-3" d="M717.74,426.43c0-5.52-1.53-9.51-8.1-11.39v-.47h34.41v.47c-6.58,1.88-8.1,5.87-8.1,11.39v28.89h93.84v-28.89c0-5.52-1.53-9.51-8.1-11.39v-.47h34.41v.47c-6.58,1.88-8.1,5.87-8.1,11.39v58.84c0,5.52,1.53,9.51,8.1,11.39v.47h-34.41v-.47c6.58-1.88,8.1-5.87,8.1-11.39v-28.89h-93.84v28.89c0,5.52,1.53,9.51,8.1,11.39v.47h-34.41v-.47c6.58-1.88,8.1-5.87,8.1-11.39v-58.84Z"/><path class="cls-3" d="M918.82,415.63h-38.52c-13.86,0-18.91,2.94-22.08,14.8h-.47l1.17-17.62h.47c2.7,1.41,5.64,1.76,11.04,1.76h114.98c5.4,0,8.34-.35,11.04-1.76h.47l1.17,17.62h-.47c-3.17-11.86-8.22-14.8-22.08-14.8h-38.52v69.65c0,6.69,2.58,9.75,9.16,11.39v.47h-36.53v-.47c6.58-1.64,9.16-4.7,9.16-11.39v-69.65Z"/><path class="cls-3" d="M1012.08,473.65l-8.57-46.51c-1.53-7.99,.94-14.33,8.93-14.33s10.45,6.34,8.93,14.33l-8.57,46.51h-.7Zm9.04,17.03c0,4.58-3.88,8.46-8.69,8.46s-8.69-3.88-8.69-8.46c0-4.93,3.88-8.81,8.69-8.81s8.69,3.88,8.69,8.81Z"/></g></svg>