<?xml version="1.0" encoding="UTF-8"?>
<svg id="Layer_1" data-name="Layer 1" xmlns="http://www.w3.org/2000/svg" xmlns:xlink="http://www.w3.org/1999/xlink" viewBox="0 0 1366 768">
  <defs>
    <style>
      .cls-1 {
        clip-path: url(#clippath);
      }

      .cls-2, .cls-3 {
        stroke-width: 0px;
      }

      .cls-2, .cls-4 {
        fill: #dde0e4;
      }

      .cls-3 {
        fill: #000;
      }

      .cls-5 {
        fill: none;
        stroke: #000;
        stroke-miterlimit: 10;
      }
    </style>
    <clipPath id="clippath">
      <rect class="cls-2" x="-10" y="-10" width="1386" height="788"/>
    </clipPath>
  </defs>
  <g>
    <rect class="cls-4" x="-10" y="-10" width="1386" height="788"/>
    <g class="cls-1">
      <rect class="cls-2" x="-.35" y="-3.25" width="1366.71" height="779.89"/>
    </g>
  </g>
  <path class="cls-3" d="M1111.32,550.3c12.29,1.37,21.81,2.84,28.56,4.44,6.75,1.59,11.45,3.76,14.11,6.49,2.65,2.73,3.98,6.53,3.98,11.38,0,6.37-2.32,11.69-6.94,15.93-4.63,4.25-11.42,7.59-20.37,10.01-8.95,2.43-19.8,4.17-32.55,5.23-12.75,1.06-27.31,1.59-43.7,1.59-12.75,0-24.96-.42-36.64-1.25-11.69-.83-22.53-2.24-32.55-4.21-10.01-1.97-18.85-4.59-26.51-7.85-7.66-3.26-13.92-7.28-18.78-12.06-4.86-4.78-7.97-10.43-9.33-16.96h-1.14v27.08c9.25,3.49,20.44,6.53,33.57,9.1,13.12,2.58,27.39,4.59,42.79,6.03,15.4,1.44,31.07,2.16,47,2.16,24.88,0,45.44-1.06,61.68-3.19,16.23-2.12,29.02-5.27,38.35-9.45,9.33-4.17,15.93-9.37,19.8-15.59,3.87-6.22,5.8-13.35,5.8-21.39,0-9.71-2.73-17.26-8.19-22.65-5.46-5.38-12.71-9.33-21.74-11.83-9.03-2.5-19.08-4.36-30.16-5.58l-126.09-14.11c-9.56-1.06-17.83-2.35-24.81-3.87-6.98-1.51-12.37-3.9-16.16-7.17-3.79-3.26-5.69-8-5.69-14.22,0-6.98,2.73-12.63,8.19-16.96,5.46-4.32,13.05-7.62,22.76-9.9,9.71-2.28,20.97-3.83,33.8-4.67,12.82-.83,26.51-1.25,41.08-1.25,10.62,0,21.32.38,32.09,1.14,10.77.76,21.13,2.05,31.07,3.87,9.94,1.82,19,4.32,27.2,7.51,8.19,3.19,15.1,7.21,20.71,12.06,5.61,4.86,9.41,10.78,11.38,17.75h1.14v-26.86c-11.38-3.79-23.6-6.98-36.64-9.56-13.05-2.58-26.82-4.55-41.31-5.92-14.49-1.37-29.7-2.05-45.63-2.05-25.04,0-45.71,1.14-62.02,3.41-16.31,2.28-29.17,5.61-38.58,10.01-9.41,4.4-16.05,9.6-19.91,15.59-3.87,6-5.8,12.78-5.8,20.37,0,10.17,2.54,18.17,7.62,24.01,5.08,5.84,12.18,10.17,21.28,12.97,9.1,2.81,19.49,4.89,31.18,6.26l126.09,14.11ZM872.01,556.22c-2.66,9.41-6.79,17.72-12.4,24.92-5.61,7.21-12.97,12.82-22.08,16.84-9.1,4.02-20.11,6.03-33,6.03h-137.01v-155.9h137.01c12.89,0,23.9,2.01,33,6.03,9.1,4.02,16.46,9.64,22.08,16.84,5.61,7.21,9.75,15.52,12.4,24.92,2.65,9.41,3.98,19.5,3.98,30.27s-1.33,20.64-3.98,30.04M909.45,494.43c-3.49-9.79-9.18-18.28-17.07-25.49-7.89-7.2-18.29-12.82-31.18-16.84-12.9-4.02-28.76-6.03-47.57-6.03h-196.87v1.14c6.22,1.82,10.36,4.59,12.4,8.31,2.05,3.72,3.07,8.23,3.07,13.54v114.02c0,5.31-1.02,9.83-3.07,13.54-2.05,3.72-6.18,6.49-12.4,8.31v1.14h196.87c18.81,0,34.67-2.01,47.57-6.03,12.89-4.02,23.29-9.63,31.18-16.84,7.89-7.2,13.58-15.66,17.07-25.38,3.49-9.71,5.23-20.26,5.23-31.64s-1.75-21.96-5.23-31.75M353.9,495.91c2.43-8.65,6.29-16.12,11.61-22.42,5.31-6.29,12.29-11.53,20.94-15.7,8.65-4.17,19.19-7.24,31.64-9.22,12.44-1.97,27.01-2.96,43.7-2.96s31.26.99,43.7,2.96c12.44,1.97,22.99,5.05,31.64,9.22,8.65,4.18,15.63,9.41,20.94,15.7,5.31,6.3,9.18,13.77,11.61,22.42,2.43,8.65,3.64,18.51,3.64,29.59s-1.22,20.94-3.64,29.59c-2.43,8.65-6.3,16.12-11.61,22.42-5.31,6.3-12.29,11.53-20.94,15.7-8.65,4.17-19.2,7.25-31.64,9.22-12.44,1.97-27.01,2.96-43.7,2.96s-31.26-.98-43.7-2.96c-12.44-1.97-22.99-5.04-31.64-9.22-8.65-4.17-15.63-9.41-20.94-15.7-5.31-6.29-9.18-13.77-11.61-22.42-2.43-8.65-3.64-18.51-3.64-29.59s1.21-20.94,3.64-29.59M318.39,561.34c5.76,10.24,14.72,18.78,26.86,25.6,12.14,6.83,27.84,11.95,47.11,15.36,19.27,3.41,42.41,5.12,69.42,5.12,21.7,0,40.85-1.1,57.47-3.3,16.61-2.2,30.87-5.5,42.79-9.9,11.91-4.4,21.7-9.86,29.36-16.39,7.66-6.52,13.31-14.15,16.96-22.87,3.64-8.72,5.46-18.55,5.46-29.47s-1.82-20.75-5.46-29.47c-3.64-8.72-9.3-16.35-16.96-22.87-7.66-6.52-17.45-11.98-29.36-16.39-11.91-4.4-26.21-7.7-42.9-9.9-16.69-2.2-35.81-3.3-57.35-3.3-27.01,0-50.15,1.71-69.42,5.12-19.27,3.41-34.97,8.53-47.11,15.36-12.14,6.83-21.09,15.36-26.86,25.6-5.77,10.24-8.65,22.19-8.65,35.85s2.88,25.6,8.65,35.85M200.16,562.14c6.29,10.32,15.97,18.82,29.02,25.49,13.05,6.68,29.7,11.65,49.96,14.91,20.26,3.26,44.42,4.89,72.49,4.89,13.81,0,27.8-.84,41.99-2.5,14.19-1.67,27.65-4.1,40.4-7.28,12.75-3.19,23.82-6.98,33.23-11.38v-29.59c0-6.68.53-12.29,1.59-16.84,1.06-4.55,3.49-7.81,7.28-9.79v-1.14h-65.32v1.14c6.07,1.37,10.62,3.04,13.66,5.01,3.03,1.97,5.04,4.63,6.03,7.97.98,3.34,1.48,7.89,1.48,13.66v12.06c0,3.34-.19,6.6-.57,9.79-.38,3.19-1.29,6.15-2.73,8.88-1.44,2.73-3.76,5.09-6.94,7.06-2.73,1.67-6.26,3.19-10.58,4.55-4.32,1.37-9.41,2.5-15.25,3.41-5.84.91-12.4,1.63-19.69,2.16-7.28.53-15.25.8-23.9.8-17.45,0-32.85-1.14-46.2-3.41-13.35-2.28-24.77-5.65-34.25-10.13-9.48-4.47-17.22-9.94-23.21-16.39-6-6.45-10.39-13.84-13.2-22.19-2.81-8.34-4.21-17.52-4.21-27.54s1.37-19.23,4.1-27.65c2.73-8.42,7.02-15.85,12.86-22.3,5.84-6.45,13.5-11.91,22.99-16.39,9.48-4.47,20.97-7.89,34.48-10.24,13.5-2.35,29.28-3.53,47.34-3.53,8.65,0,17.52.23,26.63.68,9.1.46,17.9,1.44,26.4,2.96l11.61-.91c-10.17-1.67-20.6-2.88-31.29-3.64-10.7-.76-21.81-1.14-33.34-1.14-29.59,0-54.74,1.67-75.45,5.01-20.71,3.34-37.44,8.39-50.18,15.13-12.75,6.75-22.04,15.29-27.88,25.6-5.84,10.32-8.76,22.46-8.76,36.41s3.15,26.1,9.45,36.41"/>
  <path class="cls-3" d="M978.61,169.78c-.61-1.37-.91-2.58-.91-3.64,0-1.37.46-2.58,1.37-3.64.91-1.06,2.65-1.82,5.23-2.28v-.91h-35.28v.91c3.34.61,6.11,2.09,8.31,4.44,2.2,2.35,4.59,5.65,7.17,9.9l92.63,147.48h1.59l86.03-149.76c2.12-3.64,4.36-6.37,6.71-8.19,2.35-1.82,5.27-3.11,8.76-3.87v-.91h-33.46v.91c6.52.61,10.89,1.59,13.09,2.96,2.2,1.37,3.3,3.19,3.3,5.46,0,1.67-.34,3.3-1.02,4.89-.68,1.59-1.41,3.07-2.16,4.44l-75.33,131.55h1.14l-83.98-134.05c-1.52-2.43-2.58-4.32-3.19-5.69M812.81,170.23c-.99-1.67-1.48-3.19-1.48-4.55s.53-2.5,1.59-3.41c1.06-.91,2.81-1.59,5.23-2.05v-.91h-34.82v.91c2.73.61,5.16,1.97,7.28,4.1,2.12,2.13,4.7,5.54,7.74,10.24l95.59,147.48h1.82l81.02-137.92h-1.37l-73.74,125.18,1.14.23-86.71-133.82c-1.22-1.97-2.32-3.79-3.3-5.46M766.72,155.9c-1.82,1.06-4.32,1.86-7.51,2.39-3.19.53-7.4.84-12.63.91-5.23.08-11.8.11-19.69.11h-184.12v.91c4.25,1.37,6.98,3.38,8.19,6.03,1.21,2.66,1.82,5.58,1.82,8.76v128.59c0,4.1-.61,7.21-1.82,9.33-1.22,2.13-3.95,3.95-8.19,5.46v.91h190.04c7.74,0,14.26.04,19.57.11,5.31.07,9.59.38,12.86.91,3.26.53,5.73,1.33,7.4,2.39h1.59l8.88-20.94-.91-.23c-3.34,4.86-6.94,8.46-10.81,10.81-3.87,2.35-8.84,3.87-14.91,4.55-6.07.68-13.96,1.02-23.67,1.02h-165.92v-70.78h180.48c2.73,0,5.01.23,6.83.68,1.82.46,3.41,1.52,4.78,3.19,1.37,1.67,2.43,4.18,3.19,7.51h.91v-23.9h-.91c-.76,3.64-1.82,6.26-3.19,7.85-1.37,1.59-2.96,2.58-4.78,2.96-1.82.38-4.1.57-6.83.57h-180.48v-85.35h177.29c7.89,0,13.88.95,17.98,2.84,4.1,1.9,7.43,5.5,10.01,10.81l.91-.23-5.01-18.21h-1.37ZM276.72,299.96c0,5.31-.91,9.44-2.73,12.4-1.82,2.96-4.93,4.97-9.33,6.03v.91h33.46v-.91c-5.92-.46-10.28-1.44-13.09-2.96-2.81-1.51-4.71-3.68-5.69-6.49-.99-2.81-1.48-6.49-1.48-11.04v-130.64h-1.14v132.69ZM515.69,307.47l.91-1.59-233.74-146.57h-27.54v1.14c2.12.76,4.02,1.52,5.69,2.28,1.67.76,3.49,1.82,5.46,3.19l249.67,156.13.68-.23v-143.16c0-5.31.95-9.45,2.85-12.4,1.9-2.96,5.04-4.97,9.44-6.03v-.91h-33.68v.91c5.92.61,10.28,1.63,13.09,3.07,2.81,1.44,4.7,3.57,5.69,6.37.98,2.81,1.48,6.49,1.48,11.04v126.77Z"/>
  <path class="cls-5" d="M683,370.13c355.18,0,643.11-62.33,643.11-139.22s-287.93-139.22-643.11-139.22S39.89,154.02,39.89,230.91s287.93,139.22,643.11,139.22"/>
  <path class="cls-5" d="M683,664.72c355.18,0,643.11-62.33,643.11-139.22s-287.93-139.22-643.11-139.22S39.89,448.61,39.89,525.5s287.93,139.22,643.11,139.22"/>
</svg>