<?xml version="1.0" encoding="UTF-8"?><svg id="Layer_1" xmlns="http://www.w3.org/2000/svg" xmlns:xlink="http://www.w3.org/1999/xlink" viewBox="0 0 1366 768"><defs><style>.cls-1{clip-path:url(#clippath);}.cls-2{fill:#fff;}.cls-3{fill:red;}.cls-4,.cls-5{fill:#e50000;}.cls-5{stroke:#fff;}</style><clipPath id="clippath"><rect class="cls-4" x="-51.48" y="-88" width="1466.48" height="940.05"/></clipPath></defs><rect class="cls-3" x="-41.27" y="-79.94" width="1446.07" height="930.38"/><g><rect class="cls-4" x="-51.48" y="-88" width="1466.48" height="940.05"/><g class="cls-1"><rect class="cls-5" x="-41.27" y="-79.94" width="1446.07" height="930.38"/></g></g><g><path class="cls-2" d="M255.98,34.38v19.27h-70.48v61.82h70.48v19.27H94.87v-19.27h70.48V53.65H94.87v-19.27H255.98Z"/><path class="cls-2" d="M416.06,84.63c0,28.55-23.45,51.82-52.36,51.82s-52.5-23.41-52.5-51.82,23.59-51.96,52.5-51.96,52.36,23.56,52.36,51.96Zm-84.72,.14c0,17.42,14.53,31.69,32.22,31.69s32.37-14.28,32.37-31.84-14.53-31.98-32.37-31.98-32.22,14.56-32.22,32.12Z"/><path class="cls-2" d="M435.62,34.38l25.89,59.53,25.89-59.53h21l-45.45,100.36h-2.88l-45.46-100.36h21Z"/><path class="cls-2" d="M678.71,34.38v19.27h-140.97v22.27h140.97v18.56h-140.97v20.99h140.97v19.27h-161.11V34.38h161.11Z"/><path class="cls-2" d="M727.47,34.38c24.31,0,41.43,18.42,41.43,39.54,0,13.13-6.62,25.27-17.41,32.55l2.16,3.28c3.16,4.71,7.19,5.71,13.67,5.71v19.27c-16.25,0-22.3-2.86-29.2-13.56l-5.04-7.85c-1.58,.14-3.31,.29-4.89,.29h-10.93v21.13h-20.14V34.38h30.35Zm-10.21,59.25h10.79c11.36,0,20.71-8.28,20.71-19.56s-9.35-19.7-20.71-19.7h-10.79v39.26Z"/><path class="cls-2" d="M830.6,54.22h-10.64c-7.91,0-10.93,4.43-10.93,9.57,0,10.14,16.4,26.27,16.4,42.97s-11.22,27.98-32.37,27.98h-13.95v-19.99h9.06c8.49,0,14.1-3.71,14.1-11.14,0-10.42-16.25-27.12-16.25-43.97,0-15.13,11.22-25.27,30.06-25.27h14.53v19.84Z"/><path class="cls-2" d="M866.13,34.38V115.47h33.23v19.27h-53.37V34.38h20.14Z"/><path class="cls-2" d="M1007.53,34.38v19.27h-72.21v21.84h69.33v18.56h-69.33v21.41h72.21v19.27h-92.35V34.38h92.35Z"/><path class="cls-2" d="M1056.14,34.38c24.31,0,41.43,18.42,41.43,39.54s-16.97,39.12-40.71,39.69h-10.93v21.13h-20.14V34.38h30.35Zm-10.21,59.25h10.79c11.36,0,20.71-8.28,20.71-19.56s-9.35-19.7-20.71-19.7h-10.79v39.26Z"/><path class="cls-2" d="M1278.09,34.38v19.27h-76.24v81.09h-20.14V53.65h-76.24v-19.27h172.61Z"/><path class="cls-2" d="M187.43,251.74l-28.34-57.68-28.34,57.68h-8.49l-28.19-100.36h20.28l15.68,56.53,27.62-56.53h2.88l27.62,56.53,15.68-56.53h20.28l-28.19,100.36h-8.49Z"/><path class="cls-2" d="M256.47,151.38v41.54h43.87v-41.54h20.14v100.36h-20.14v-40.26h-43.87v40.26h-20.14v-100.36h20.14Z"/><path class="cls-2" d="M436.99,151.38v19.27h-72.21v21.84h69.33v18.56h-69.33v21.41h72.21v19.27h-92.35v-100.36h92.35Z"/><path class="cls-2" d="M458.13,151.38l167.29,71.1v-71.1h20.14v100.36h-2.88l-167.29-71.1v71.1h-20.14v-100.36h2.88Z"/><path class="cls-2" d="M878.86,151.38v19.27h-76.24v81.09h-20.14v-81.09h-76.24v-19.27h172.61Z"/><path class="cls-2" d="M893.53,251.74v-100.36h20.14v41.54h150.03v-41.54h20.14v100.36h-20.14v-40.26h-150.03v40.26h-20.14Z"/><path class="cls-2" d="M1266.22,151.38v19.27h-140.97v22.27h140.97v18.56h-140.97v20.99h140.97v19.27h-161.11v-100.36h161.11Z"/><path class="cls-2" d="M160.53,347.47s-1.15,.14-4.03,.14h-39.41v21.13h-20.14v-100.36h59.26c24.31,0,41.43,18.42,41.43,39.54,0,13.42-6.9,25.7-17.98,32.98l1.87,2.85c3.16,4.71,7.62,5.71,15.1,5.71v19.27c-16.25,0-23.3-3.14-30.64-13.56l-5.47-7.71Zm-43.44-19.84h39.7c11.36,0,20.71-8.28,20.71-19.56s-9.35-19.7-20.71-19.7h-39.7v39.26Z"/><path class="cls-2" d="M304.66,359.46h-68.33l-5.61,9.28h-22.87l61.28-100.36h2.88l61.13,100.36h-22.87l-5.61-9.28Zm-57.11-18.56h45.89l-22.87-38.12-23.02,38.12Z"/><path class="cls-2" d="M364.06,268.38v100.36h-20.14v-100.36h20.14Z"/><path class="cls-2" d="M388.23,268.38l61.13,56.82v-56.82h20.14v100.36h-2.88l-61.13-56.82v56.82h-20.14v-100.36h2.88Z"/><path class="cls-2" d="M675.48,268.38c21.58,0,35.53,13.85,35.53,30.98,0,9.42-4.32,16.13-10.93,20.56,5.32,4.57,8.78,10.85,8.78,18.13,0,17.13-13.95,30.69-35.53,30.69h-136.51v-100.36h138.67Zm-118.53,41.97h118.1c10.36,0,15.25-5,15.25-10.99s-4.89-10.99-15.25-10.99h-118.1v21.99Zm0,38.4h115.94c10.36,0,15.25-4.71,15.25-10.71s-4.89-9.99-15.25-9.99h-115.94v20.7Z"/><path class="cls-2" d="M888.21,268.38v19.27h-140.97v22.27h140.97v18.56h-140.97v20.99h140.97v19.27h-161.11v-100.36h161.11Z"/><path class="cls-2" d="M1002.13,287.65h-47.47c-19.85,0-31.93,13.56-31.93,30.69s12.08,31.12,32.08,31.12h32.08v-30.84h18.27v50.11h-50.35c-31.36,0-52.36-21.7-52.36-50.39s20.86-49.97,51.5-49.97h48.19v19.27Z"/><path class="cls-2" d="M1046.14,268.38v54.25c0,16.27,11.65,27.84,33.8,27.84s33.8-11.56,33.8-27.84v-54.25h20.14l-.14,55.68c0,23.13-18.84,46.11-53.8,46.11s-53.94-22.98-53.94-46.11v-55.68h20.14Z"/><path class="cls-2" d="M1162.51,268.38l86.88,62.53v-62.53h20.14v100.36h-2.88l-86.88-62.53v62.53h-20.14v-100.36h2.88Z"/><path class="cls-2" d="M118.98,385.38l30.62,100.36h-21.79l-2.42-10.28h-18.65l-2.28,10.28h-21.5l30.33-100.36h5.7Zm-4.98,57.53l-3.42,15.7h10.96l-3.28-15.7-2.14-17.13-2.14,17.13Z"/><path class="cls-2" d="M181.92,385.38v81.09h63.22v19.27h-83.16v-100.36h19.94Z"/><path class="cls-2" d="M281.75,385.38v81.09h63.22v19.27h-83.16v-100.36h19.94Z"/><path class="cls-2" d="M417.88,385.38v100.36h-19.94v-100.36h19.94Z"/><path class="cls-2" d="M485.09,385.38l60.52,56.82v-56.82h19.94v100.36h-2.85l-60.52-56.82v56.82h-19.94v-100.36h2.85Z"/><path class="cls-2" d="M704.24,435.63c0,28.7-20.08,51.82-60.66,51.82s-61.23-23.41-61.23-51.82,20.22-51.96,61.23-51.96,60.66,23.56,60.66,51.96Zm-101.96,0c0,17.56,11.25,31.84,41.29,31.84s40.73-14.28,40.73-31.84-11.39-31.98-40.87-31.98-41.15,14.42-41.15,31.98Z"/><path class="cls-2" d="M812.46,385.38v19.27h-41.15v81.09h-19.93v-81.09h-41.15v-19.27h102.24Z"/><path class="cls-2" d="M845.21,385.38v100.36h-19.94v-100.36h19.94Z"/><path class="cls-2" d="M959.13,404.65h-46.99c-19.65,0-31.61,13.56-31.61,30.69s11.96,31.12,31.75,31.12h46.85v19.27h-46.85c-31.04,0-51.83-21.7-51.83-50.39s20.65-49.97,50.98-49.97h47.7v19.27Z"/><path class="cls-2" d="M1070.34,385.38v19.27h-71.48v21.84h68.63v18.56h-68.63v21.41h71.48v19.27h-91.42v-100.36h91.42Z"/><path class="cls-2" d="M1226.41,385.38c28.62,0,51.69,21.56,51.69,50.25s-23.07,50.11-51.69,50.11h-137.98v-100.36h137.98Zm-118.04,81.09h118.04c17.51,0,31.75-13.28,31.75-30.84s-14.24-30.98-31.75-30.98h-118.04v61.82Z"/><path class="cls-2" d="M185.78,602.74l-28.34-57.68-28.34,57.68h-8.49l-28.19-100.36h20.28l15.68,56.53,27.62-56.53h2.88l27.62,56.53,15.68-56.53h20.28l-28.19,100.36h-8.49Z"/><path class="cls-2" d="M292.22,602.74v-25.13h-40.13v25.13h-20.14v-61.67c0-23.98,16.83-40.4,40.13-40.4s40.28,16.42,40.28,40.4v61.67h-20.14Zm-40.13-43.68h40.13v-17.99c0-12.56-7.91-20.42-20.14-20.42s-19.99,7.85-19.99,20.42v17.99Z"/><path class="cls-2" d="M378.67,522.22h-10.64c-7.91,0-10.93,4.43-10.93,9.57,0,10.14,16.4,26.27,16.4,42.97s-11.22,27.98-32.36,27.98h-13.95v-19.99h9.06c8.49,0,14.1-3.71,14.1-11.14,0-10.42-16.25-27.12-16.25-43.97,0-15.13,11.22-25.27,30.06-25.27h14.53v19.84Z"/><path class="cls-2" d="M492.01,502.38v19.27h-24.31v81.09h-20.14v-81.09h-24.31v-19.27h68.76Z"/><path class="cls-2" d="M526.53,502.38v41.54h43.87v-41.54h20.14v100.36h-20.14v-40.26h-43.87v40.26h-20.14v-100.36h20.14Z"/><path class="cls-2" d="M666.63,502.38v19.27h-34.67v22.27h32.8v18.56h-32.8v20.99h34.67v19.27h-54.8v-100.36h54.8Z"/><path class="cls-2" d="M766.02,502.38c17.26,0,31.21,13.99,31.21,30.98,0,8.57-3.6,15.56-9.35,20.27,4.46,4.57,7.34,10.85,7.34,18.27,0,16.85-14.1,30.84-31.36,30.84h-38.26v-100.36h40.42Zm-20.28,41.97h20.28c6.19,0,11.08-5.14,11.08-10.99s-5.03-10.99-11.08-10.99h-20.28v21.99Zm0,38.4h18.12c6.04,0,11.08-5.14,11.08-10.99s-5.04-10.99-11.08-10.99h-18.12v21.99Z"/><path class="cls-2" d="M868.58,502.38v19.27h-34.67v22.27h32.8v18.56h-32.8v20.99h34.67v19.27h-54.8v-100.36h54.8Z"/><path class="cls-2" d="M946.68,602.74v-25.13h-40.13v25.13h-20.14v-61.67c0-23.98,16.83-40.4,40.13-40.4s40.28,16.42,40.28,40.4v61.67h-20.14Zm-40.13-43.68h40.13v-17.99c0-12.56-7.91-20.42-20.14-20.42s-19.99,7.85-19.99,20.42v17.99Z"/><path class="cls-2" d="M1009.82,502.38v54.25c0,16.28,11.65,27.84,33.8,27.84s33.8-11.56,33.8-27.84v-54.25h20.14l-.14,55.68c0,23.13-18.84,46.11-53.8,46.11s-53.94-22.98-53.94-46.11v-55.68h20.14Z"/><path class="cls-2" d="M1182.29,502.38v19.27h-24.31v81.09h-20.14v-81.09h-24.31v-19.27h68.76Z"/><path class="cls-2" d="M1271.04,502.38v29.12c0,20.42-12.23,35.26-30.06,39.4v31.84h-20.14v-31.84c-18.12-4-30.21-18.99-30.21-39.4v-29.12h20.14v29.12c0,12.56,7.91,20.42,20.14,20.42s19.99-7.85,19.99-20.42v-29.12h20.14Z"/><path class="cls-2" d="M119.41,721.31c-17.94,0-29.62-16.85-29.62-51.82s11.53-51.54,29.62-51.54,29.76,16.99,29.76,51.54-11.53,51.82-29.76,51.82Zm0-19.7c5.55,0,9.83-7.85,9.83-32.12s-4.27-31.84-9.83-31.84-9.68,7.71-9.68,31.84,4.27,32.12,9.68,32.12Z"/><path class="cls-2" d="M198.87,619.38v19.27h-17.8v21.56h17.8v18.56h-17.8v40.97h-19.94v-100.36h37.73Z"/><path class="cls-2" d="M282.6,619.38v19.27h-15.52v81.09h-19.94v-81.09h-15.52v-19.27h50.98Z"/><path class="cls-2" d="M312.93,619.38v40.97h18.08v-40.97h19.94v100.36h-19.94v-40.83h-18.08v40.83h-19.94v-100.36h19.94Z"/><path class="cls-2" d="M463.16,619.38v19.27h-71.48v21.84h68.63v18.56h-68.63v21.41h71.48v19.27h-91.42v-100.36h91.42Z"/><path class="cls-2" d="M552.02,619.38c24.06,0,41.01,18.42,41.01,39.54,0,13.13-6.55,25.27-17.23,32.55l2.14,3.28c3.13,4.71,7.12,5.71,13.53,5.71v19.27c-16.09,0-22.07-2.86-28.91-13.56l-4.98-7.85c-1.57,.14-3.28,.29-4.84,.29h-10.82v21.13h-19.94v-100.36h30.05Zm-10.11,59.25h10.68c11.25,0,20.5-8.28,20.5-19.56s-9.26-19.7-20.5-19.7h-10.68v39.26Z"/><path class="cls-2" d="M669.21,719.74v-25.13h-39.73v25.13h-19.94v-61.67c0-23.98,16.66-40.4,39.73-40.4s39.87,16.42,39.87,40.4v61.67h-19.94Zm-39.73-43.68h39.73v-17.99c0-12.56-7.83-20.42-19.94-20.42s-19.79,7.85-19.79,20.42v17.99Z"/><path class="cls-2" d="M730.16,619.38v100.36h-19.94v-100.36h19.94Z"/><path class="cls-2" d="M754.08,619.38l60.52,56.82v-56.82h19.93v100.36h-2.85l-60.52-56.82v56.82h-19.94v-100.36h2.85Z"/><path class="cls-2" d="M882.38,619.38c28.76,0,51.83,21.7,51.83,50.25s-23.07,50.11-51.83,50.11h-26.77v-100.36h26.77Zm-6.83,81.09h6.83c17.66,0,31.9-13.42,31.9-30.84s-14.38-30.98-31.9-30.98h-6.83v61.82Z"/><path class="cls-2" d="M979.07,619.38c24.06,0,41.01,18.42,41.01,39.54,0,13.13-6.55,25.27-17.23,32.55l2.14,3.28c3.13,4.71,7.12,5.71,13.53,5.71v19.27c-16.09,0-22.07-2.86-28.91-13.56l-4.98-7.85c-1.57,.14-3.27,.29-4.84,.29h-10.82v21.13h-19.94v-100.36h30.05Zm-10.11,59.25h10.68c11.25,0,20.5-8.28,20.5-19.56s-9.26-19.7-20.5-19.7h-10.68v39.26Z"/><path class="cls-2" d="M1134.14,669.63c0,28.55-23.21,51.82-51.83,51.82s-51.97-23.41-51.97-51.82,23.35-51.96,51.97-51.96,51.83,23.56,51.83,51.96Zm-83.87,.14c0,17.42,14.38,31.69,31.9,31.69s32.04-14.28,32.04-31.84-14.38-31.98-32.04-31.98-31.9,14.56-31.9,32.12Z"/><path class="cls-2" d="M1178.99,619.38c24.06,0,41.01,18.42,41.01,39.54s-16.8,39.12-40.3,39.69h-10.82v21.13h-19.94v-100.36h30.05Zm-10.11,59.25h10.68c11.25,0,20.5-8.28,20.5-19.56s-9.26-19.7-20.5-19.7h-10.68v39.26Z"/><path class="cls-2" d="M1276.54,639.22h-10.54c-7.83,0-10.82,4.43-10.82,9.57,0,10.14,16.23,26.27,16.23,42.97s-11.11,27.98-32.04,27.98h-13.81v-19.99h8.97c8.4,0,13.95-3.71,13.95-11.14,0-10.42-16.09-27.12-16.09-43.97,0-15.13,11.11-25.27,29.76-25.27h14.38v19.84Z"/></g></svg>