<?xml version='1.0' encoding='UTF-8'?>
<svg xmlns="http://www.w3.org/2000/svg" xmlns:xlink="http://www.w3.org/1999/xlink" width="1366px" height="768px" viewBox="0 0 1366 768" x="0px" y="0px" enable-background="new 0 0 1366 768"><defs><symbol overflow="visible" id="ee0c083da"><path d="M110.5-174.69H59.64l60.72 67.64H9.3v42.61h110.52L59.64 2.66h50.86l79.9-88.68zm0 0"/></symbol><symbol overflow="visible" id="ee0c083db"><path d="M110.77-180.81H13.3V0h56.46v-70.83h46.06c43.67 0 63.37-23.97 63.37-56.45 0-27.95-19.7-53.53-68.43-53.53zm-12.5 75.62h-28.5v-41.26h28.5c16.76 0 23.95 9.57 23.95 20.5 0 11.18-7.19 20.76-23.95 20.76zm0 0"/></symbol><symbol overflow="visible" id="ee0c083dc"><path d="M75.63-140.86c-44.2 0-65.77 18.64-68.44 45.53h50.33c1.59-8.51 7.45-13.58 18.37-13.58 10.4 0 16.25 5.86 16.25 15.7v8.54l-34.62 3.19C23.7-78.28 5.06-62.84 5.06-37.81 5.06-14.64 23.17 3.2 54.33 3.2c17.56 0 32.22-7.47 42.6-19.98V0h46.6v-88.14c0-30.36-17.84-52.72-67.9-52.72zM71.89-26.89c-10.1 0-16.77-5.33-16.77-14.4 0-9.3 6.93-15.16 20.24-17.02l15.7-2.14v14.65c0 10.64-7.19 18.9-19.17 18.9zm0 0"/></symbol><symbol overflow="visible" id="ee0c083dd"><path d="M93.73-139c-15.71 0-30.09 7.19-37.8 25.83v-24.5h-45.8V0h52.71v-66.3c0-19.72 11.99-29.56 29.02-29.56 4.8 0 7.73.27 10.66.53v-42.34c-2.13-1.06-5.6-1.33-8.79-1.33zm0 0"/></symbol><symbol overflow="visible" id="ee0c083de"><path d="M36.48-154.97c16.5 0 28.22-13.6 28.22-26.9 0-13.32-11.72-26.36-28.22-26.36-17.3 0-28.23 13.04-28.23 26.35 0 13.32 10.92 26.91 28.23 26.91zM10.13 0h52.71v-137.67H10.12zm0 0"/></symbol><symbol overflow="visible" id="ee0c083df"><path d="M72.16 3.2c45 0 68.43-18.64 68.43-46.87 0-19.97-10.65-35.14-38.34-39.14L64.7-88.14c-8.51-1.33-12.25-5.33-12.25-10.66 0-6.12 5.33-10.9 17.32-10.9 11.98 0 18.37 5.04 19.96 14.37h47.94c-4.8-32.75-30.36-45.53-68.97-45.53-40.75 0-63.37 20.5-63.37 45.53 0 22.1 13.04 36.49 39.67 40.47l34.9 5.33c7.97 1.33 10.9 6.12 10.9 10.92 0 6.66-5.33 11.19-17.83 11.19-12.8 0-19.45-4.53-21.31-12.78H3.73C7.72-12.25 29.83 3.2 72.16 3.2zm0 0"/></symbol><symbol overflow="visible" id="ee0c083dg"><path d="M137.94-180.81v115.58l-55.4-115.58H13.32V0h52.72v-112.9L120.63 0h70.03v-180.81zm0 0"/></symbol><symbol overflow="visible" id="ee0c083dh"><path d="M100.4 3.2c58.04 0 95.58-34.62 95.58-93.73 0-59.4-37.54-93.47-95.59-93.47-58.05 0-95.06 34.08-95.06 93.47 0 59.1 37.01 93.73 95.06 93.73zm.26-41.01c-22.64 0-37.82-16.52-37.82-52.72 0-36.49 15.18-52.47 37.82-52.47 22.62 0 37.8 15.98 37.8 52.47 0 36.2-15.18 52.72-37.8 52.72zm0 0"/></symbol><symbol overflow="visible" id="ee0c083di"><path d="M135-180.81L94-42.34 54.06-180.81H-1.06L60.17 0h67.64l62.31-180.81zm0 0"/></symbol><symbol overflow="visible" id="ee0c083dk"><path d="M56.98-180.81c-2.92 16.25-15.43 33.83-51.12 34.36v35.4c22.9 0 32.48-1.06 43.94-7.72V0h56.45v-180.81zm0 0"/></symbol><symbol overflow="visible" id="ee0c083dl"><path d="M88.4 3.2c55.13 0 79.35-26.64 79.35-59.65 0-29.02-14.64-49.27-49.78-54.6l-43.94-6.65c-10.39-1.6-14.66-5.85-14.66-13.32 0-9.04 7.74-15.96 24.77-15.96 16.78 0 25.56 5.85 27.7 16.76h53.25C161.36-163.5 135-184 84.41-184c-50.86 0-76.7 27.69-76.7 58.31 0 29.56 16.26 48.2 49.8 53.8l43.41 7.19c11.19 1.86 15.17 6.92 15.17 14.64 0 8.51-6.65 15.98-27.42 15.98-19.17 0-27.69-7.47-29.03-19.7H5.86C8.78-18.11 31.69 3.2 88.4 3.2zm0 0"/></symbol><symbol overflow="visible" id="ee0c083dm"><path d="M101.72-102.25v-35.42h-24.5v-38.88H24.77v38.88H4v35.42h20.23v56.72c0 31.95 13.32 47.12 51.4 47.12 9.3 0 19.96-.8 26.09-1.59v-35.69c-4.27.8-6.66 1.08-11.45 1.08-9.32 0-13.32-5.33-13.32-13.33v-54.31zm0 0"/></symbol><symbol overflow="visible" id="ee0c083dn"><path d="M94.53-137.67v80.69c0 14.64-7.19 24.23-18.1 24.23-10.4 0-15.18-6.4-15.18-15.98v-88.94H8.52v89.73C8.52-12.25 27.95 3.2 58.05 3.2c18.64 0 33.01-7.47 42.34-23.43V0h46.86v-137.67zm0 0"/></symbol><symbol overflow="visible" id="ee0c083do"><path d="M99.06-140.86c-18.37 0-33.3 8.52-42.08 25.03v-21.84H10.13V0h52.71v-77.48c0-18.38 7.72-25.3 19.7-25.3 10.4 0 16.26 6.66 16.26 19.17V0h52.72v-89.73c0-35.7-23.18-51.13-52.46-51.13zm0 0"/></symbol></defs><path d="M0 0h1366v768H0z"/><use xlink:href="#ee0c083da" x="242.0352" y="488.4697" fill="#fff"/><g fill="#fff"><use xlink:href="#ee0c083db" x="443.613853" y="488.4697"/><use xlink:href="#ee0c083dc" x="629.481621" y="488.4697"/><use xlink:href="#ee0c083dd" x="786.057907" y="488.4697"/><use xlink:href="#ee0c083de" x="897.365538" y="488.4697"/><use xlink:href="#ee0c083df" x="974.854822" y="488.4697"/></g><g fill="#fff"><use xlink:href="#ee0c083dg" x="231.650038" y="273.576737"/><use xlink:href="#ee0c083dh" x="438.288129" y="273.576737"/><use xlink:href="#ee0c083di" x="642.263359" y="273.576737"/><use xlink:href="#ee0c083dj" x="832.125419" y="273.576737"/><use xlink:href="#ee0c083dk" x="889.909525" y="273.576737"/><use xlink:href="#ee0c083dk" x="1012.13489" y="273.576737"/></g><g fill="#fff"><use xlink:href="#ee0c083dl" x="246.029493" y="695.90665"/><use xlink:href="#ee0c083dc" x="424.174961" y="695.90665"/><use xlink:href="#ee0c083dm" x="579.686102" y="695.90665"/><use xlink:href="#ee0c083dn" x="691.526306" y="695.90665"/><use xlink:href="#ee0c083dd" x="852.36317" y="695.90665"/><use xlink:href="#ee0c083do" x="962.605657" y="695.90665"/></g></svg>