<?xml version="1.0" encoding="UTF-8"?>
<svg id="Layer_1" data-name="Layer 1" xmlns="http://www.w3.org/2000/svg" xmlns:xlink="http://www.w3.org/1999/xlink" viewBox="0 0 1366 768">
  <defs>
    <style>
      .cls-1 {
        clip-path: url(#clippath);
      }

      .cls-2, .cls-3, .cls-4 {
        stroke-width: 0px;
      }

      .cls-2, .cls-5 {
        fill: #dde0e4;
      }

      .cls-3 {
        fill: #000;
      }

      .cls-4 {
        fill: #a07ab2;
      }
    </style>
    <clipPath id="clippath">
      <rect class="cls-2" x="-10" y="-10" width="1386" height="788"/>
    </clipPath>
  </defs>
  <g>
    <rect class="cls-5" x="-10" y="-10" width="1386" height="788"/>
    <g class="cls-1">
      <rect class="cls-2" x="-.35" y="-3.25" width="1366.71" height="779.89"/>
    </g>
  </g>
  <path class="cls-3" d="M1216.27,300.19v-50.82h77.25c5.22,0,9.66.53,13.32,1.58,3.66,1.05,6.66,2.61,9,4.68,2.34,2.07,4.1,4.71,5.29,7.93,1.18,3.22,1.78,7.03,1.78,11.44s-.66,8.18-1.98,11.33c-1.32,3.15-3.27,5.74-5.84,7.78-2.58,2.03-5.88,3.56-9.91,4.57-4.03,1.02-8.83,1.52-14.38,1.52h-74.51ZM1213.02,314.52c0,1.08-.2,2.12-.61,3.1-.41.98-1.42,1.78-3.05,2.39v.41h11.69v-.41c-2.17-.54-3.51-1.32-4.02-2.34-.51-1.02-.76-2.07-.76-3.15v-13.93h83.76c3.05,0,5.47.19,7.27.56,1.79.37,3.37,1.09,4.73,2.13,1.35,1.05,2.91,2.63,4.68,4.73l6.1,6.91c1.29,1.49,2.59,2.73,3.91,3.71,1.32.98,2.86,1.64,4.63,1.98,1.76.34,3.86.27,6.3-.2v-.41c-2.1.34-3.81.2-5.13-.41-1.32-.61-2.73-1.76-4.22-3.46l-7.93-9.05c-1.76-1.9-3.34-3.32-4.73-4.27-1.39-.95-2.91-1.63-4.57-2.03-1.66-.41-3.81-.61-6.45-.61h-3.25v-.3c3.32-.34,6.47-1.03,9.45-2.08,2.98-1.05,5.66-2.52,8.03-4.42,2.37-1.9,4.25-4.35,5.64-7.37,1.39-3.01,2.08-6.69,2.08-11.03,0-4.81-.75-8.86-2.24-12.15-1.49-3.29-3.61-5.96-6.35-8.03-2.74-2.07-6.13-3.56-10.16-4.47-4.03-.91-8.66-1.37-13.87-1.37h-84.57v.41c1.63.54,2.64,1.32,3.05,2.34s.61,2.07.61,3.15v59.67ZM1115.49,301.46c-6.88-.91-12.57-2.19-17.08-3.81-4.51-1.63-7.98-3.56-10.42-5.79-2.44-2.24-4.17-4.73-5.18-7.47-1.02-2.74-1.53-5.64-1.53-8.69s.51-6.05,1.53-8.79c1.02-2.74,2.74-5.25,5.18-7.52,2.44-2.27,5.9-4.27,10.37-6,4.47-1.73,10.15-3.03,17.03-3.91,6.88-.88,15.26-1.32,25.16-1.32s18.72.44,25.67,1.32c6.95.88,12.64,2.19,17.08,3.91,4.44,1.73,7.86,3.71,10.27,5.95,2.4,2.24,4.08,4.74,5.03,7.52.95,2.78,1.42,5.73,1.42,8.84s-.47,5.95-1.42,8.69c-.95,2.74-2.63,5.23-5.03,7.47-2.41,2.24-5.83,4.17-10.27,5.79-4.44,1.63-10.15,2.9-17.13,3.81-6.98.91-15.48,1.37-25.51,1.37s-18.28-.46-25.16-1.37M1171.8,301.31c8.16-1.29,14.57-3.13,19.21-5.54,4.64-2.4,7.91-5.3,9.81-8.69,1.9-3.39,2.85-7.18,2.85-11.38s-.95-8.22-2.85-11.64c-1.9-3.42-5.18-6.33-9.86-8.74-4.68-2.4-11.08-4.27-19.21-5.59-8.13-1.32-18.53-1.98-31.2-1.98s-22.67.66-30.8,1.98c-8.13,1.32-14.55,3.19-19.26,5.59-4.71,2.41-8.03,5.32-9.96,8.74-1.93,3.42-2.9,7.3-2.9,11.64s.97,8,2.9,11.38c1.93,3.39,5.25,6.29,9.96,8.69,4.71,2.41,11.15,4.25,19.31,5.54,8.16,1.29,18.45,1.93,30.85,1.93s22.99-.64,31.15-1.93M1068.99,313.61c0,1.56-.2,2.86-.61,3.91-.41,1.05-1.46,1.88-3.15,2.49v.41h87.01c3.25,0,5.84.03,7.78.1,1.93.07,3.44.2,4.52.41,1.08.2,1.96.54,2.64,1.02h.61l3.86-8.44-.41-.2c-1.29,1.9-2.64,3.32-4.07,4.27-1.42.95-3.27,1.59-5.54,1.93-2.27.34-5.4.51-9.4.51h-80v-65.15c0-1.08.2-2.13.61-3.15s1.42-1.79,3.05-2.34v-.41h-10.67v.41c1.63.54,2.66,1.32,3.1,2.34.44,1.02.66,2.07.66,3.15v58.75ZM965.21,318.53c-7.39-1.18-13.49-2.9-18.3-5.13-4.81-2.24-8.57-4.83-11.28-7.78-2.71-2.95-4.63-6.23-5.74-9.86-1.12-3.62-1.68-7.44-1.68-11.44s.56-7.81,1.68-11.43c1.12-3.62,3.03-6.91,5.74-9.86,2.71-2.95,6.47-5.5,11.28-7.67,4.81-2.17,10.88-3.84,18.19-5.03,7.32-1.18,16.16-1.78,26.53-1.78s19.43.59,26.78,1.78c7.35,1.19,13.43,2.86,18.24,5.03,4.81,2.17,8.57,4.73,11.28,7.67,2.71,2.95,4.64,6.24,5.79,9.86,1.15,3.63,1.73,7.44,1.73,11.43,0,4.2-.58,8.13-1.73,11.79-1.15,3.66-3.08,6.96-5.79,9.91-2.71,2.95-6.47,5.49-11.28,7.62-4.81,2.13-10.86,3.78-18.14,4.93-7.29,1.15-16.18,1.73-26.68,1.73s-19.25-.59-26.63-1.78M1019.54,319.2c7.69-1.08,14.09-2.63,19.21-4.62,5.12-2,9.18-4.49,12.2-7.47,3.01-2.98,5.13-6.39,6.35-10.22,1.22-3.83,1.83-8.01,1.83-12.55s-.61-8.49-1.83-12.25c-1.22-3.76-3.35-7.13-6.4-10.11-3.05-2.98-7.13-5.49-12.25-7.52-5.12-2.03-11.52-3.61-19.21-4.73-7.69-1.12-16.96-1.68-27.8-1.68s-19.81.56-27.5,1.68c-7.69,1.12-14.11,2.69-19.26,4.73-5.15,2.03-9.22,4.54-12.2,7.52-2.98,2.98-5.1,6.35-6.35,10.11-1.25,3.76-1.88,7.84-1.88,12.25s.63,8.4,1.88,12.2c1.25,3.8,3.39,7.18,6.4,10.16,3.01,2.98,7.1,5.52,12.25,7.62,5.15,2.1,11.57,3.71,19.26,4.83,7.69,1.12,16.89,1.68,27.6,1.68s20.01-.54,27.7-1.63M802.53,298.82c1.86,4.1,4.59,7.56,8.18,10.37,3.59,2.81,8.01,5.08,13.26,6.81,5.25,1.73,11.3,2.97,18.14,3.71,6.84.74,14.4,1.12,22.67,1.12,7.11,0,14.09-.3,20.94-.91,6.84-.61,13.25-1.58,19.21-2.9,5.96-1.32,11.28-3.03,15.96-5.13v-6.1h-.51c-.54,2.3-2.13,4.27-4.78,5.9-2.64,1.63-5.95,3.02-9.91,4.17-3.96,1.15-8.32,2.05-13.06,2.69-4.74.65-9.49,1.1-14.23,1.37-4.74.27-9.18.41-13.32.41-9.76,0-18.45-.66-26.07-1.98-7.62-1.32-14.08-3.39-19.36-6.2-5.29-2.81-9.3-6.49-12.04-11.03-2.74-4.54-4.12-10.1-4.12-16.67s1.37-12.05,4.12-16.62c2.74-4.57,6.76-8.27,12.04-11.08,5.29-2.81,11.74-4.88,19.36-6.2,7.62-1.32,16.28-1.98,25.97-1.98,4.13,0,8.61.12,13.42.36,4.81.24,9.55.7,14.23,1.37,4.68.68,9.01,1.58,13.01,2.69,4,1.12,7.32,2.58,9.96,4.37,2.64,1.8,4.27,4.05,4.88,6.76h.41v-7.12c-4.54-2.1-9.83-3.83-15.86-5.18-6.03-1.35-12.49-2.32-19.36-2.9-6.88-.57-13.84-.86-20.89-.86-8.27,0-15.82.37-22.67,1.12-6.85.75-12.89,1.98-18.14,3.71-5.25,1.73-9.67,4-13.26,6.81-3.59,2.81-6.32,6.27-8.18,10.37-1.86,4.1-2.8,8.89-2.8,14.38s.93,10.28,2.8,14.38M659.41,298.71c-1.46,4.3-3.73,8.03-6.81,11.18-3.08,3.15-7.01,5.63-11.79,7.42-4.78,1.8-10.45,2.69-17.03,2.69h-81.01v-70.64h81.01c6.57,0,12.25.9,17.03,2.69,4.78,1.8,8.71,4.29,11.79,7.47,3.08,3.19,5.35,6.93,6.81,11.23,1.46,4.3,2.19,8.96,2.19,13.98s-.73,9.67-2.19,13.98M662.87,270.2c-1.59-4.4-3.96-8.18-7.12-11.33-3.15-3.15-7.13-5.59-11.94-7.32-4.81-1.73-10.44-2.59-16.87-2.59h-91.07v.41c1.63.54,2.64,1.32,3.05,2.34.41,1.02.61,2.07.61,3.15v59.67c0,1.08-.2,2.12-.61,3.1-.41.98-1.42,1.78-3.05,2.39v.41h91.07c6.44,0,12.06-.86,16.87-2.59,4.81-1.73,8.79-4.17,11.94-7.32,3.15-3.15,5.52-6.91,7.12-11.28,1.59-4.37,2.39-9.2,2.39-14.48s-.8-10.13-2.39-14.54M416.53,312.28c0,2.17-.37,3.88-1.12,5.13-.75,1.26-1.97,2.12-3.66,2.59v.41h13.21v-.41c-2.24-.2-3.93-.61-5.08-1.22-1.15-.61-1.93-1.51-2.34-2.69-.41-1.18-.61-2.83-.61-4.93v-58.95h-.41v60.07ZM523.26,318.79l.41-.71-109.37-69.12h-5.79v.41c.88.47,1.56.85,2.03,1.12.47.27,1.02.58,1.63.91l111.1,70.24h.41v-64.54c0-2.17.37-3.88,1.12-5.13.74-1.25,2-2.12,3.76-2.59v-.41h-13.42v.41c2.24.2,3.91.61,5.03,1.22,1.12.61,1.91,1.52,2.39,2.74.47,1.22.71,2.88.71,4.98v60.48ZM366.78,319.7c6.4-.74,11.96-2.19,16.67-4.32,4.71-2.14,8.39-5.18,11.03-9.15,2.64-3.96,3.96-9.13,3.96-15.5v-33.64c0-2.17.39-3.88,1.17-5.13.78-1.25,2.02-2.12,3.71-2.59v-.41h-13.21v.41c2.17.2,3.81.61,4.93,1.22,1.12.61,1.9,1.52,2.34,2.74.44,1.22.66,2.88.66,4.98v32.32c0,6.24-1.27,11.27-3.81,15.09-2.54,3.83-6.13,6.76-10.77,8.79-4.64,2.03-10.13,3.41-16.47,4.12-6.34.71-13.3,1.07-20.89,1.07-5.08,0-10.08-.22-14.99-.66-4.91-.44-9.47-1.25-13.67-2.44-4.2-1.18-7.93-2.88-11.18-5.08-3.25-2.2-5.78-5-7.57-8.39-1.8-3.39-2.69-7.62-2.69-12.71v-35.37c0-1.22.08-2.2.25-2.95.17-.74.51-1.34,1.02-1.78.51-.44,1.3-.76,2.39-.97v-.41h-10.37v.41c1.08.2,1.88.53,2.39.97.51.44.83,1.03.97,1.78.14.75.2,1.73.2,2.95v35.58c0,5.15.95,9.5,2.85,13.06,1.9,3.56,4.51,6.45,7.83,8.69,3.32,2.24,7.22,3.96,11.69,5.18,4.47,1.22,9.3,2.07,14.48,2.54,5.18.47,10.55.71,16.11.71,7.59,0,14.59-.37,20.99-1.12M191.08,318.53c-7.39-1.18-13.49-2.9-18.3-5.13-4.81-2.24-8.57-4.83-11.28-7.78-2.71-2.95-4.62-6.23-5.74-9.86-1.12-3.62-1.68-7.44-1.68-11.44s.56-7.81,1.68-11.43c1.12-3.62,3.03-6.91,5.74-9.86,2.71-2.95,6.47-5.5,11.28-7.67,4.81-2.17,10.88-3.84,18.19-5.03,7.32-1.18,16.16-1.78,26.53-1.78s19.43.59,26.78,1.78c7.35,1.19,13.43,2.86,18.25,5.03,4.81,2.17,8.57,4.73,11.28,7.67,2.71,2.95,4.64,6.24,5.79,9.86,1.15,3.63,1.73,7.44,1.73,11.43,0,4.2-.58,8.13-1.73,11.79-1.15,3.66-3.08,6.96-5.79,9.91-2.71,2.95-6.47,5.49-11.28,7.62-4.81,2.13-10.86,3.78-18.14,4.93-7.29,1.15-16.18,1.73-26.68,1.73s-19.25-.59-26.63-1.78M245.41,319.2c7.69-1.08,14.09-2.63,19.21-4.62,5.12-2,9.18-4.49,12.2-7.47,3.01-2.98,5.13-6.39,6.35-10.22,1.22-3.83,1.83-8.01,1.83-12.55s-.61-8.49-1.83-12.25c-1.22-3.76-3.35-7.13-6.4-10.11-3.05-2.98-7.13-5.49-12.25-7.52-5.12-2.03-11.52-3.61-19.21-4.73-7.69-1.12-16.96-1.68-27.8-1.68s-19.81.56-27.49,1.68c-7.69,1.12-14.11,2.69-19.26,4.73-5.15,2.03-9.22,4.54-12.2,7.52-2.98,2.98-5.1,6.35-6.35,10.11-1.25,3.76-1.88,7.84-1.88,12.25s.63,8.4,1.88,12.2c1.25,3.8,3.39,7.18,6.4,10.16,3.01,2.98,7.1,5.52,12.25,7.62,5.15,2.1,11.57,3.71,19.26,4.83,7.69,1.12,16.89,1.68,27.6,1.68s20.01-.54,27.7-1.63M120.64,289.41c4.74.54,8.74,1.2,11.99,1.98,3.25.78,5.74,2,7.47,3.66,1.73,1.66,2.59,4.08,2.59,7.27,0,3.52-1.32,6.45-3.96,8.79-2.64,2.34-6.35,4.18-11.13,5.54-4.78,1.36-10.42,2.3-16.92,2.85-6.51.54-13.69.81-21.55.81-4,0-8.35-.12-13.06-.36-4.71-.24-9.4-.69-14.08-1.37-4.68-.68-9.01-1.61-13.01-2.8-4-1.18-7.3-2.66-9.91-4.42-2.61-1.76-4.15-3.96-4.62-6.61h-.41v7.01c3.25,1.63,7.42,3.12,12.5,4.47,5.08,1.36,11.13,2.46,18.14,3.3,7.01.85,15.16,1.27,24.45,1.27,10.03,0,18.62-.36,25.77-1.07,7.15-.71,12.98-1.85,17.48-3.4,4.51-1.56,7.79-3.54,9.86-5.95,2.07-2.4,3.1-5.27,3.1-8.59s-.86-6.2-2.59-8.23-4.29-3.61-7.67-4.73c-3.39-1.12-7.66-1.91-12.81-2.39l-63.93-6.51c-3.86-.41-7.46-1.02-10.77-1.83-3.32-.81-6.01-2.1-8.08-3.86-2.07-1.76-3.1-4.3-3.1-7.62,0-3.66,1.35-6.67,4.07-9.05,2.71-2.37,6.51-4.2,11.38-5.49,4.88-1.29,10.49-2.2,16.82-2.74,6.33-.54,13.13-.81,20.38-.81,3.79,0,8.03.12,12.71.36,4.68.24,9.38.63,14.13,1.17,4.74.54,9.2,1.37,13.37,2.49,4.17,1.12,7.66,2.59,10.47,4.42,2.81,1.83,4.52,4.1,5.13,6.81h.41v-7.01c-3.73-1.9-8.42-3.49-14.08-4.78-5.66-1.29-12.06-2.27-19.21-2.95-7.15-.68-14.79-1.02-22.92-1.02-9.83,0-18.25.37-25.26,1.12-7.01.75-12.74,1.92-17.18,3.51-4.44,1.59-7.71,3.59-9.81,6-2.1,2.41-3.15,5.23-3.15,8.49,0,3.66,1,6.56,3,8.69,2,2.14,4.76,3.73,8.28,4.78,3.52,1.05,7.52,1.85,11.99,2.39l63.73,6.4Z"/>
  <path class="cls-4" d="M1175.97,416.58v-50.42h68.92c4.81,0,8.91.53,12.3,1.58,3.39,1.05,6.18,2.61,8.39,4.68,2.2,2.07,3.83,4.69,4.88,7.88,1.05,3.19,1.58,6.91,1.58,11.18s-.58,8.06-1.73,11.18c-1.15,3.12-2.88,5.69-5.18,7.73-2.3,2.03-5.27,3.58-8.89,4.62-3.63,1.05-7.95,1.58-12.96,1.58h-67.29ZM1167.33,429.28c0,1.63-.3,3.08-.91,4.37-.61,1.29-1.97,2.27-4.07,2.95v.41h19.72v-.41c-2.64-.68-4.32-1.66-5.03-2.95-.71-1.29-1.07-2.74-1.07-4.37v-12.1h72.57c3.12,0,5.56.19,7.32.56,1.76.37,3.29,1.07,4.57,2.08,1.29,1.02,2.78,2.51,4.47,4.47l5.59,6.71c1.69,1.9,3.56,3.4,5.59,4.52,2.03,1.12,4.4,1.81,7.12,2.08,2.71.27,5.86.03,9.45-.71v-.51c-2.17.34-3.95.1-5.34-.71-1.39-.81-2.8-2.07-4.22-3.76l-6.51-7.42c-1.69-2.1-3.37-3.67-5.03-4.73-1.66-1.05-3.52-1.81-5.59-2.29-2.07-.47-4.59-.71-7.57-.71h-5.18v-.3c4.27-.27,8.13-.95,11.59-2.03,3.46-1.08,6.45-2.63,9-4.62,2.54-2,4.47-4.52,5.79-7.57,1.32-3.05,1.98-6.64,1.98-10.77,0-4.54-.71-8.45-2.13-11.74-1.42-3.29-3.56-5.98-6.4-8.08-2.85-2.1-6.44-3.64-10.77-4.63-4.34-.98-9.42-1.47-15.25-1.47h-84.67v.41c2.1.68,3.46,1.68,4.07,3,.61,1.32.91,2.76.91,4.32v56.01ZM1067.06,435.23c-6.61-1.05-12.11-2.61-16.52-4.68-4.41-2.07-7.88-4.54-10.42-7.42-2.54-2.88-4.37-6.18-5.49-9.91-1.12-3.73-1.68-7.83-1.68-12.3s.56-8.47,1.68-12.2c1.12-3.73,2.95-7.03,5.49-9.91,2.54-2.88,6.01-5.34,10.42-7.37,4.4-2.03,9.89-3.57,16.47-4.62,6.57-1.05,14.43-1.58,23.58-1.58s17.03.53,23.63,1.58c6.61,1.05,12.1,2.59,16.47,4.62,4.37,2.03,7.86,4.49,10.47,7.37,2.61,2.88,4.45,6.18,5.54,9.91,1.08,3.73,1.63,7.79,1.63,12.2s-.54,8.69-1.63,12.45c-1.08,3.76-2.93,7.08-5.54,9.96-2.61,2.88-6.1,5.32-10.47,7.32-4.37,2-9.84,3.52-16.42,4.57-6.57,1.05-14.43,1.58-23.58,1.58s-17.03-.52-23.63-1.58M1117.47,435.89c7.62-1.02,14.03-2.52,19.21-4.52,5.18-2,9.37-4.47,12.55-7.42,3.18-2.95,5.49-6.33,6.91-10.16,1.42-3.83,2.13-8.11,2.13-12.86s-.71-8.81-2.13-12.6c-1.42-3.79-3.73-7.17-6.91-10.11-3.19-2.95-7.39-5.42-12.6-7.42-5.22-2-11.64-3.52-19.26-4.57-7.62-1.05-16.55-1.58-26.78-1.58s-19.06.53-26.68,1.58c-7.62,1.05-14.04,2.58-19.26,4.57-5.22,2-9.4,4.47-12.55,7.42-3.15,2.95-5.44,6.32-6.86,10.11-1.42,3.8-2.13,8-2.13,12.6s.71,8.83,2.13,12.65c1.42,3.83,3.73,7.22,6.91,10.16,3.18,2.95,7.37,5.44,12.55,7.47,5.18,2.03,11.59,3.58,19.21,4.62,7.62,1.05,16.55,1.58,26.78,1.58s19.16-.51,26.78-1.52M922.57,428.67c0,1.97-.32,3.61-.97,4.93-.64,1.32-2.02,2.32-4.12,3v.41h83.04c4.61,0,8.22.03,10.83.1,2.61.07,4.56.2,5.84.41,1.29.2,2.27.54,2.95,1.02h.81l4.17-9.96-.41-.1c-1.49,2.24-3.2,3.93-5.13,5.08-1.93,1.15-4.41,1.92-7.42,2.29-3.02.37-6.9.56-11.64.56h-69.32v-63.12c0-1.56.32-3,.97-4.32.64-1.32,2.05-2.32,4.22-3v-.41h-18.91v.41c2.1.68,3.47,1.68,4.12,3,.64,1.32.97,2.76.97,4.32v55.4ZM826.82,418.61c-6.17-.81-11.32-1.98-15.45-3.51-4.13-1.52-7.39-3.37-9.76-5.54-2.37-2.17-4.07-4.66-5.08-7.47-1.02-2.81-1.52-5.91-1.52-9.3s.51-6.49,1.52-9.3c1.02-2.81,2.71-5.32,5.08-7.52,2.37-2.2,5.61-4.08,9.71-5.64,4.1-1.56,9.23-2.74,15.4-3.56,6.17-.81,13.52-1.22,22.06-1.22s16.06.41,22.16,1.22c6.1.81,11.21,2,15.35,3.56,4.13,1.56,7.37,3.44,9.71,5.64,2.34,2.2,4.01,4.71,5.03,7.52,1.02,2.81,1.52,5.91,1.52,9.3s-.51,6.47-1.52,9.25c-1.02,2.78-2.69,5.27-5.03,7.47-2.34,2.2-5.57,4.07-9.71,5.59-4.13,1.52-9.27,2.69-15.4,3.51-6.13.81-13.5,1.22-22.11,1.22s-15.79-.41-21.96-1.22M879.12,418.56c8.16-1.18,14.7-2.96,19.62-5.34,4.91-2.37,8.44-5.27,10.57-8.69,2.13-3.42,3.2-7.33,3.2-11.74s-1.07-8.42-3.2-11.84c-2.13-3.42-5.66-6.32-10.57-8.69-4.91-2.37-11.45-4.17-19.62-5.39-8.17-1.22-18.28-1.83-30.34-1.83s-21.97.61-30.14,1.83c-8.17,1.22-14.71,3.02-19.62,5.39-4.91,2.37-8.45,5.27-10.62,8.69-2.17,3.42-3.25,7.37-3.25,11.84s1.08,8.32,3.25,11.74c2.17,3.42,5.71,6.32,10.62,8.69,4.91,2.37,11.45,4.15,19.62,5.34,8.16,1.19,18.21,1.78,30.14,1.78s22.17-.59,30.34-1.78M721.82,395.43l-8.84,3.86,21.65,12.81c9.62,5.9,19.21,11.37,28.77,16.42,9.55,5.05,19.23,9.47,29.02,13.26,9.79,3.79,19.87,6.74,30.24,8.84,10.37,2.1,21.14,3.15,32.32,3.15,7.32,0,14.3-.7,20.94-2.08,6.64-1.39,12.67-3.61,18.09-6.66,5.42-3.05,9.91-7.08,13.47-12.1,3.56-5.01,5.91-11.15,7.06-18.4h-.61c-1.15,6.91-3.42,12.81-6.81,17.69-3.39,4.88-7.67,8.84-12.86,11.89s-11.06,5.3-17.64,6.76c-6.57,1.46-13.66,2.19-21.24,2.19s-14.48-.63-21.29-1.88c-6.81-1.25-13.52-3.08-20.13-5.49-6.61-2.41-13.33-5.29-20.18-8.64-6.85-3.35-13.99-7.22-21.45-11.59-7.46-4.37-15.45-9.1-23.99-14.18l-26.53-15.86ZM783.21,370.33c3.05-1.35,5.61-2.4,7.67-3.15,2.07-.74,3.78-1.15,5.13-1.22v-.41h-17.48v.41c2.1.27,3.51.56,4.22.86.71.3,1.07.73,1.07,1.27,0,.41-.24.81-.71,1.22-.47.41-1.46.91-2.95,1.52l-89.04,37.3v.71l92.09-38.52ZM696.05,368.9c.64-1.35,2.08-2.34,4.32-2.95v-.41h-19.01v.41c2.1.61,3.47,1.59,4.12,2.95.64,1.36.97,2.81.97,4.37v56.01c0,1.63-.32,3.08-.97,4.37-.64,1.29-2.02,2.27-4.12,2.95v.41h19.11v-.41c-2.24-.68-3.71-1.68-4.42-3s-1.07-2.76-1.07-4.32l.1-56.01c0-1.56.32-3.01.97-4.37M656.67,365.96c2.1.68,3.47,1.68,4.12,3,.64,1.32.97,2.76.97,4.32v56.01c0,1.63-.32,3.08-.97,4.37-.64,1.29-2.02,2.27-4.12,2.95v.41h18.8v-.41c-2.17-.68-3.56-1.66-4.17-2.95-.61-1.29-.91-2.74-.91-4.37v-56.01c0-1.56.3-3,.91-4.32.61-1.32,2-2.32,4.17-3v-.41h-18.8v.41ZM538.15,428.06c0,2.51-.42,4.44-1.27,5.79-.85,1.36-2.32,2.27-4.42,2.74v.41h16.06v-.41c-2.91-.2-5.05-.66-6.4-1.37-1.36-.71-2.24-1.69-2.64-2.95-.41-1.25-.61-2.93-.61-5.03v-57.84h-.71v58.65ZM644.98,429.38l.51-.71-101.24-63.12h-16.67v.51c1.08.34,2.07.71,2.95,1.12.88.41,1.93.91,3.15,1.52l111.61,69.53.41-.1v-63.63c0-2.51.44-4.44,1.32-5.79.88-1.35,2.34-2.27,4.37-2.74v-.41h-16.06v.41c2.91.27,5.03.75,6.35,1.42,1.32.68,2.2,1.66,2.64,2.95.44,1.29.66,2.95.66,4.98v54.08ZM400.93,429.28c0,1.63-.32,3.07-.97,4.32-.64,1.26-2.02,2.25-4.12,3v.41h18.91v-.41c-2.17-.74-3.57-1.74-4.22-3-.64-1.25-.97-2.69-.97-4.32v-27.75h98.9v27.75c0,1.63-.3,3.07-.91,4.32-.61,1.26-2,2.25-4.17,3v.41h18.91v-.41c-2.17-.74-3.57-1.74-4.22-3-.64-1.25-.97-2.69-.97-4.32v-56.01c0-1.56.32-3,.97-4.32.64-1.32,2.05-2.32,4.22-3v-.41h-18.91v.41c2.17.68,3.56,1.68,4.17,3,.61,1.32.91,2.76.91,4.32v27.75h-98.9v-27.75c0-1.56.32-3,.97-4.32.64-1.32,2.05-2.32,4.22-3v-.41h-18.91v.41c2.1.68,3.47,1.68,4.12,3,.64,1.32.97,2.76.97,4.32v56.01ZM270.67,414.08c1.59,3.9,4.07,7.3,7.42,10.22,3.35,2.91,7.67,5.35,12.96,7.32,5.29,1.97,11.57,3.42,18.85,4.37,7.28.95,15.74,1.42,25.36,1.42,8.06,0,15.6-.37,22.62-1.12,7.01-.74,13.3-1.74,18.86-3,5.56-1.25,10.2-2.66,13.93-4.22v-8.54h-.41c-.68,2.64-2.32,4.9-4.93,6.76-2.61,1.87-5.84,3.42-9.71,4.68-3.86,1.26-8.01,2.22-12.45,2.9-4.44.68-8.89,1.17-13.37,1.47-4.47.3-8.61.46-12.4.46-10.37,0-19.3-.76-26.78-2.29-7.49-1.52-13.62-3.81-18.4-6.86-4.78-3.05-8.32-6.79-10.62-11.23-2.3-4.44-3.46-9.57-3.46-15.4s1.15-10.98,3.46-15.45c2.3-4.47,5.83-8.22,10.57-11.23,4.74-3.01,10.82-5.29,18.25-6.81,7.42-1.52,16.25-2.29,26.48-2.29,4.07,0,8.35.12,12.86.36,4.51.24,8.98.7,13.42,1.37,4.44.68,8.54,1.64,12.3,2.9,3.76,1.26,6.95,2.88,9.55,4.88,2.61,2,4.35,4.46,5.23,7.37h.51v-9.05c-4.81-2.03-10.13-3.67-15.96-4.93-5.83-1.25-12.05-2.15-18.65-2.69-6.61-.54-13.54-.81-20.79-.81-9.55,0-18.01.47-25.36,1.42-7.35.95-13.67,2.39-18.96,4.32-5.29,1.93-9.61,4.36-12.96,7.27-3.35,2.91-5.83,6.32-7.42,10.22-1.59,3.9-2.39,8.28-2.39,13.16s.8,9.17,2.39,13.06M249.88,382.32c-.68.34-1.76.59-3.25.76-1.49.17-3.51.27-6.05.3-2.54.04-5.81.05-9.81.05h-76.95v.41c2.03.34,3.37,1,4.01,1.98.64.98.97,2.42.97,4.32v40.15c0,1.9-.32,3.34-.97,4.32-.64.98-1.98,1.64-4.01,1.98v.41h79.59c3.86,0,7.06.02,9.61.05,2.54.03,4.57.12,6.1.25,1.52.14,2.69.41,3.51.81h.51l4.17-8.03-.51-.2c-1.49,2.03-3.17,3.49-5.03,4.37-1.87.88-4.2,1.46-7.01,1.73-2.81.27-6.35.41-10.62.41h-66.88v-23.58h74.2c1.35,0,2.47.09,3.35.25.88.17,1.59.58,2.13,1.22.54.65.91,1.71,1.12,3.2h.51v-9.66h-.51c-.2,1.49-.59,2.56-1.17,3.2-.58.65-1.31,1.03-2.19,1.17-.88.14-1.97.2-3.25.2h-74.2v-28.36h71.25c2.64,0,4.84.15,6.61.46,1.76.3,3.2.86,4.32,1.68,1.12.81,2.08,2.07,2.9,3.76l.41-.1-2.13-7.52h-.71ZM130.45,429.28c0,2.24-.39,3.86-1.17,4.88-.78,1.02-2.22,1.83-4.32,2.44v.41h19.62v-.41c-2.17-.61-3.64-1.42-4.42-2.44-.78-1.02-1.17-2.64-1.17-4.88v-63.12h113.64c3.46,0,6.18.25,8.18.76,2,.51,3.52,1.46,4.57,2.85,1.05,1.39,1.95,3.47,2.69,6.25h.41l-.71-11.69h-.41c-.68.54-1.81.88-3.4,1.02-1.59.14-3.88.2-6.86.2H86.95c-2.98,0-5.25-.07-6.81-.2-1.56-.14-2.68-.47-3.35-1.02h-.41l-.81,11.69h.41c.81-2.78,1.74-4.86,2.8-6.25,1.05-1.39,2.56-2.34,4.52-2.85,1.96-.51,4.71-.76,8.23-.76h38.93v63.12Z"/>
  <path class="cls-3" d="M1236.39,512.61l44.72-29.68c1.02-.68,2.17-1.42,3.46-2.24,1.29-.81,2.57-1.54,3.86-2.19,1.29-.64,2.44-1,3.46-1.07v-.51h-17.18v.51c2.78.14,4.59.44,5.44.91.85.47,1.27,1.05,1.27,1.73,0,.47-.22,1-.66,1.58-.44.58-1.44,1.37-3,2.39l-41.47,27.55-41.98-27.95c-1.29-.81-2.34-1.52-3.15-2.13s-1.22-1.35-1.22-2.24c0-.34.1-.68.3-1.02.2-.34.47-.61.81-.81v-.51h-34.36v.51c.68.07,1.35.29,2.03.66.68.37,1.37.8,2.08,1.27.71.47,1.41.95,2.08,1.42l57.73,38.73v18.6c0,1.63-.2,3.07-.61,4.32-.41,1.26-1.17,2.34-2.29,3.25-1.12.91-2.8,1.64-5.03,2.19v.51h31.61v-.51c-2.17-.54-3.83-1.27-4.98-2.19-1.15-.91-1.93-2.02-2.34-3.3-.41-1.29-.61-2.71-.61-4.27v-25.51ZM1085.55,538.12c0,2.91-.61,5.08-1.83,6.51-1.22,1.42-3.25,2.51-6.1,3.25v.51h31.61v-.51c-2.85-.74-4.88-1.83-6.1-3.25-1.22-1.42-1.83-3.59-1.83-6.51v-60.28h33.34c4,0,7.22.36,9.66,1.07,2.44.71,4.39,1.98,5.84,3.81,1.46,1.83,2.63,4.47,3.51,7.93h.51l-1.02-15.25h-.41c-1.15.61-2.44,1.02-3.86,1.22-1.42.2-3.32.3-5.69.3h-99.51c-2.3,0-4.18-.1-5.64-.3-1.46-.2-2.76-.61-3.91-1.22h-.41l-1.02,15.25h.51c.95-3.46,2.13-6.1,3.56-7.93,1.42-1.83,3.35-3.1,5.79-3.81,2.44-.71,5.66-1.07,9.66-1.07h33.34v60.28ZM1000.99,477.44c2.78.81,4.63,2.05,5.54,3.71.91,1.66,1.37,3.68,1.37,6.05v50.92c0,2.37-.46,4.39-1.37,6.05-.91,1.66-2.76,2.9-5.54,3.71v.51h29.58v-.51c-2.78-.81-4.62-2.05-5.54-3.71-.91-1.66-1.37-3.67-1.37-6.05v-50.92c0-2.37.46-4.39,1.37-6.05.91-1.66,2.76-2.9,5.54-3.71v-.51h-29.58v.51ZM887.96,527.65v-49.81h57.84c4.13,0,7.72.53,10.77,1.58,3.05,1.05,5.57,2.61,7.57,4.68,2,2.07,3.49,4.66,4.47,7.78.98,3.12,1.47,6.74,1.47,10.88s-.49,7.76-1.47,10.88c-.98,3.12-2.47,5.71-4.47,7.78-2,2.07-4.52,3.63-7.57,4.68-3.05,1.05-6.64,1.58-10.77,1.58h-57.84ZM872.2,538.12c0,2.37-.46,4.39-1.37,6.05-.91,1.66-2.76,2.9-5.54,3.71v.51h30.6v-.51c-3.32-.81-5.47-2.05-6.45-3.71-.98-1.66-1.47-3.67-1.47-6.05v-9.55h57.63c3.18,0,5.64.19,7.37.56,1.73.37,3.2,1.05,4.42,2.03,1.22.98,2.57,2.39,4.07,4.22l5.18,6.3c2.1,2.51,4.63,4.42,7.57,5.74,2.95,1.32,6.44,2.03,10.47,2.13,4.03.1,8.66-.39,13.87-1.47v-.51c-2.3.27-4.18-.14-5.64-1.22-1.46-1.08-2.9-2.47-4.32-4.17l-4.47-5.29c-1.97-2.3-3.95-4.07-5.95-5.29-2-1.22-4.25-2.07-6.76-2.54-2.51-.47-5.49-.71-8.94-.71h-7.73v-.51c5.56-.2,10.38-.88,14.48-2.03,4.1-1.15,7.49-2.78,10.16-4.88,2.68-2.1,4.68-4.68,6-7.73,1.32-3.05,1.98-6.54,1.98-10.47,0-4.34-.68-8.13-2.03-11.38-1.36-3.25-3.52-5.95-6.51-8.08-2.98-2.13-6.85-3.73-11.59-4.78-4.74-1.05-10.47-1.58-17.18-1.58h-84.77v.51c2.78.81,4.63,2.05,5.54,3.71.91,1.66,1.37,3.68,1.37,6.05v50.92ZM784.69,485.88l-58.45,57.53c-.95.88-2.05,1.78-3.3,2.69-1.25.91-2.56,1.51-3.91,1.78v.51h15.65v-.51c-2.98-.14-4.9-.56-5.74-1.27-.85-.71-1.27-1.37-1.27-1.98,0-.68.24-1.3.71-1.88.47-.57,1.05-1.2,1.73-1.88l55.9-54.99h-1.32ZM751.15,519.32l-.41.81h63.53v-.81h-63.12ZM831.14,542.39c.54.47.98.95,1.32,1.42.34.47.51,1.02.51,1.63,0,.75-.34,1.31-1.02,1.68-.68.37-1.49.63-2.44.76v.51h32.83v-.51c-.81-.14-2.08-.8-3.81-1.98-1.73-1.18-3.69-2.71-5.9-4.57-2.2-1.86-4.42-3.84-6.66-5.95l-62.11-59.26h-23.78v.61c.95.07,1.91.42,2.9,1.07.98.64,2.35,1.81,4.12,3.51l64.04,61.09ZM616.06,538.12c0,2.37-.46,4.39-1.37,6.05-.91,1.66-2.76,2.9-5.54,3.71v.51h77.76c6.37,0,11.32.03,14.84.1,3.52.07,6.1.2,7.72.41s2.81.54,3.56,1.02h.81l4.78-11.99-.61-.2c-1.76,2.85-3.96,4.96-6.61,6.35-2.64,1.39-5.93,2.3-9.86,2.74-3.93.44-8.81.66-14.64.66h-55.09v-60.28c0-2.37.47-4.39,1.42-6.05.95-1.66,2.91-2.9,5.9-3.71v-.51h-29.99v.51c2.78.81,4.63,2.05,5.54,3.71.91,1.66,1.37,3.68,1.37,6.05v50.92ZM568.8,547.78c6.3-.81,11.77-2.32,16.42-4.52,4.64-2.2,8.25-5.32,10.82-9.35,2.57-4.03,3.86-9.23,3.86-15.6v-31.1c0-2.57.46-4.74,1.37-6.51.91-1.76,2.76-2.85,5.54-3.25v-.51h-19.72v.51c3.66.27,6.32.75,7.98,1.42,1.66.68,2.73,1.68,3.2,3,.47,1.32.71,3.1.71,5.34v31.41c0,5.96-1.24,10.69-3.71,14.18-2.47,3.49-5.86,6.1-10.16,7.83-4.3,1.73-9.25,2.85-14.84,3.35-5.59.51-11.5.76-17.74.76-5.49,0-10.55-.24-15.2-.71-4.64-.47-8.83-1.27-12.55-2.39-3.73-1.12-6.9-2.66-9.5-4.62-2.61-1.96-4.61-4.44-6-7.42-1.39-2.98-2.08-6.57-2.08-10.77v-27.75c0-2.85.12-5.12.36-6.81.24-1.69.83-3.06,1.78-4.12.95-1.05,2.54-1.95,4.78-2.69v-.51h-29.58v.51c2.24.75,3.85,1.64,4.83,2.69.98,1.05,1.58,2.42,1.78,4.12.2,1.69.3,3.96.3,6.81v27.04c0,4.95.78,9.18,2.34,12.71,1.56,3.52,3.86,6.45,6.91,8.79,3.05,2.34,6.86,4.2,11.44,5.59,4.57,1.39,9.86,2.37,15.86,2.95,6,.57,12.72.86,20.18.86s14.33-.41,20.63-1.22M359.66,528.21c2.61,4.57,6.74,8.4,12.4,11.49,5.66,3.08,13.06,5.4,22.21,6.96,9.15,1.56,20.26,2.34,33.34,2.34,6.17,0,12.42-.37,18.75-1.12,6.34-.74,12.35-1.83,18.04-3.25,5.69-1.42,10.64-3.12,14.84-5.08v-13.21c0-2.98.24-5.49.71-7.52.47-2.03,1.56-3.49,3.25-4.37v-.51h-29.17v.51c2.71.61,4.74,1.36,6.1,2.24,1.35.88,2.25,2.07,2.69,3.56.44,1.49.66,3.52.66,6.1v5.29c0,1.49-.09,2.95-.25,4.37-.17,1.42-.56,2.74-1.17,3.96-.61,1.22-1.63,2.27-3.05,3.15-1.22.81-2.81,1.52-4.78,2.13-1.97.61-4.25,1.12-6.86,1.52-2.61.41-5.54.73-8.79.97-3.25.24-6.81.36-10.67.36-8.2,0-15.32-.54-21.35-1.63-6.03-1.08-11.15-2.68-15.35-4.78-4.2-2.1-7.57-4.61-10.11-7.52-2.54-2.91-4.39-6.2-5.54-9.86-1.15-3.66-1.73-7.62-1.73-11.89s.57-8.23,1.73-11.89c1.15-3.66,2.98-6.95,5.49-9.86,2.51-2.91,5.84-5.42,10.01-7.52,4.17-2.1,9.23-3.69,15.2-4.78,5.96-1.08,12.94-1.63,20.94-1.63,4.27,0,8.59.12,12.96.36,4.37.24,8.64.71,12.81,1.42,4.17.71,8.01,1.76,11.54,3.15,3.52,1.39,6.59,3.2,9.2,5.44,2.61,2.24,4.52,5.05,5.74,8.44h.51v-11.89c-5.08-1.76-10.39-3.22-15.91-4.37-5.52-1.15-11.33-2.02-17.43-2.59-6.1-.57-12.57-.86-19.41-.86-13.35,0-24.6.78-33.75,2.34-9.15,1.56-16.48,3.88-22.01,6.96-5.52,3.08-9.52,6.91-11.99,11.49-2.47,4.57-3.71,9.84-3.71,15.81s1.3,11.23,3.91,15.81M239.87,538.12c0,2.98-.51,5.25-1.52,6.81-1.02,1.56-2.81,2.54-5.39,2.95v.51h19.72v-.51c-3.8-.27-6.52-.8-8.18-1.58-1.66-.78-2.69-1.85-3.1-3.2-.41-1.35-.61-3.01-.61-4.98v-56.41h-.91v56.41ZM346.91,532.74l.61-.71-90.46-55.09h-31.31v.51c1.42.2,2.85.59,4.27,1.17,1.42.58,3.08,1.44,4.98,2.59l112.52,68.41.3-.2v-62.21c0-2.98.52-5.25,1.58-6.81,1.05-1.56,2.83-2.54,5.34-2.95v-.51h-19.72v.51c3.79.27,6.52.8,8.18,1.58,1.66.78,2.69,1.83,3.1,3.15.41,1.32.61,3,.61,5.03v45.54ZM193.52,477.44c2.78.81,4.63,2.05,5.54,3.71.91,1.66,1.37,3.68,1.37,6.05v50.92c0,2.37-.46,4.39-1.37,6.05-.91,1.66-2.76,2.9-5.54,3.71v.51h29.58v-.51c-2.78-.81-4.62-2.05-5.54-3.71-.91-1.66-1.37-3.67-1.37-6.05v-50.92c0-2.37.46-4.39,1.37-6.05.91-1.66,2.76-2.9,5.54-3.71v-.51h-29.58v.51ZM162.32,523.49c5.49.61,9.74,1.27,12.76,1.98,3.01.71,5.12,1.68,6.3,2.9,1.18,1.22,1.78,2.91,1.78,5.08,0,2.85-1.03,5.22-3.1,7.12-2.07,1.9-5.1,3.39-9.1,4.47-4,1.08-8.84,1.86-14.54,2.34-5.69.47-12.2.71-19.52.71-5.69,0-11.15-.19-16.36-.56-5.22-.37-10.06-1-14.54-1.88-4.47-.88-8.42-2.05-11.84-3.51-3.42-1.46-6.22-3.25-8.39-5.39-2.17-2.13-3.56-4.66-4.17-7.57h-.51v12.1c4.13,1.56,9.13,2.91,14.99,4.07,5.86,1.15,12.23,2.05,19.11,2.69,6.88.64,13.87.97,20.99.97,11.11,0,20.29-.47,27.55-1.42,7.25-.95,12.96-2.35,17.13-4.22,4.17-1.86,7.12-4.18,8.84-6.96,1.73-2.78,2.59-5.96,2.59-9.55,0-4.34-1.22-7.71-3.66-10.11-2.44-2.4-5.68-4.17-9.71-5.29-4.03-1.12-8.52-1.95-13.47-2.49l-56.31-6.3c-4.27-.47-7.96-1.05-11.08-1.73-3.12-.68-5.52-1.74-7.22-3.2-1.69-1.46-2.54-3.57-2.54-6.35,0-3.12,1.22-5.64,3.66-7.57,2.44-1.93,5.83-3.4,10.16-4.42,4.34-1.02,9.37-1.71,15.09-2.08,5.73-.37,11.84-.56,18.35-.56,4.74,0,9.52.17,14.33.51,4.81.34,9.44.91,13.87,1.73,4.44.81,8.49,1.93,12.15,3.35,3.66,1.42,6.74,3.22,9.25,5.39,2.51,2.17,4.2,4.81,5.08,7.93h.51v-11.99c-5.08-1.69-10.54-3.12-16.36-4.27-5.83-1.15-11.98-2.03-18.45-2.64-6.47-.61-13.26-.91-20.38-.91-11.18,0-20.41.51-27.7,1.52-7.29,1.02-13.03,2.51-17.23,4.47-4.2,1.97-7.17,4.29-8.89,6.96-1.73,2.68-2.59,5.71-2.59,9.1,0,4.54,1.13,8.12,3.41,10.72,2.27,2.61,5.44,4.54,9.5,5.79,4.07,1.26,8.71,2.19,13.93,2.8l56.31,6.3Z"/>
  <path class="cls-3" d="M763.34,271.12c3.52.27,6.57.56,9.15.86,2.57.3,4.56.86,5.95,1.68,1.39.81,2.08,2.1,2.08,3.86,0,2.17-1.02,3.9-3.05,5.18-2.03,1.29-4.85,2.29-8.44,3-3.59.71-7.78,1.19-12.55,1.42-4.78.24-9.98.36-15.6.36-3.05,0-6.34-.07-9.86-.2-3.52-.13-7.03-.39-10.52-.76-3.49-.37-6.73-.91-9.71-1.63-2.98-.71-5.47-1.61-7.47-2.69-2-1.08-3.24-2.44-3.71-4.07h-.3v4.98c4.07,1.29,9.49,2.41,16.26,3.35,6.78.95,15.18,1.42,25.21,1.42,7.59,0,14.08-.19,19.46-.56,5.39-.37,9.74-1,13.06-1.88,3.32-.88,5.76-2.03,7.32-3.46,1.56-1.42,2.34-3.18,2.34-5.29,0-2.24-.76-3.93-2.29-5.08-1.52-1.15-3.69-1.96-6.51-2.44-2.81-.47-6.01-.85-9.61-1.12l-46.76-3.46c-2.78-.2-5.42-.47-7.93-.81-2.51-.34-4.51-.95-6-1.83-1.49-.88-2.24-2.2-2.24-3.96,0-2.17,1.08-3.93,3.25-5.29,2.17-1.35,5.12-2.37,8.84-3.05,3.73-.68,8-1.13,12.81-1.37,4.81-.24,9.79-.36,14.94-.36,2.64,0,5.64.07,9,.2,3.35.14,6.77.37,10.27.71,3.49.34,6.79.85,9.91,1.52,3.12.68,5.73,1.58,7.83,2.69,2.1,1.12,3.42,2.56,3.96,4.32h.3v-4.98c-3.46-1.22-7.52-2.17-12.2-2.85-4.68-.68-9.54-1.18-14.59-1.52-5.05-.34-9.91-.51-14.59-.51-7.52,0-13.98.22-19.36.66-5.39.44-9.78,1.12-13.16,2.03-3.39.91-5.86,2.1-7.42,3.56-1.56,1.46-2.34,3.2-2.34,5.23s.68,3.75,2.03,4.93c1.35,1.19,3.34,2.03,5.95,2.54,2.61.51,5.81.9,9.61,1.17l46.66,3.46ZM686.8,248.45c1.42.27,2.3.75,2.64,1.42.34.68.51,1.69.51,3.05v29.88c0,1.36-.2,2.34-.61,2.95-.41.61-1.25,1.08-2.54,1.42v.3h9.35v-.3c-1.22-.34-2.03-.81-2.44-1.42-.41-.61-.61-1.59-.61-2.95v-29.88c0-1.35.17-2.37.51-3.05.34-.68,1.18-1.15,2.54-1.42v-.3h-9.35v.3Z"/>
</svg>