<?xml version='1.0' encoding='UTF-8'?>
<svg xmlns="http://www.w3.org/2000/svg" xmlns:xlink="http://www.w3.org/1999/xlink" width="1366px" height="768px" viewBox="0 0 1366 768" x="0px" y="0px" enable-background="new 0 0 1366 768"><defs><symbol overflow="visible" id="79c022e6a"><path d="M146.88 0l33.43-112.48h-22.54l-20.82 68.32-43.18-68.32h-3.2L47.68-44.31l-21.13-68.17H4L37.6 0h6.56l48-74.4L140.3 0zm0 0"/></symbol><symbol overflow="visible" id="79c022e6n"><path d="M118.08-112.48h-53.6c-34.07 0-57.28 24.48-57.28 56C7.2-24.31 30.56 0 65.44 0h52.64v-21.6H65.44c-22.24 0-35.67-15.35-35.67-34.88 0-19.2 13.43-34.4 35.51-34.4h52.8zm0 0"/></symbol><symbol overflow="visible" id="79c022e6o"><path d="M75.84-114.4c-46.07 0-68.8 26.4-68.8 58.24 0 31.85 22.55 58.08 68.8 58.08C121.44 1.92 144-24 144-56.16c0-31.84-22.56-58.25-68.16-58.25zM75.7-92c33.1 0 45.9 16.16 45.9 35.84 0 19.68-12.8 35.68-45.75 35.68-33.76 0-46.4-16-46.4-35.68S42.08-92 75.69-92zm0 0"/></symbol><symbol overflow="visible" id="79c022e6u"><path d="M15.05-112.48V0h61.9c32.33 0 58.25-24.16 58.25-56.16 0-32-25.92-56.32-58.25-56.32zm22.39 21.6h39.51c19.7 0 35.85 15.04 35.85 34.72 0 19.52-16 34.57-35.85 34.57H37.44zm0 0"/></symbol><symbol overflow="visible" id="79c022e6w"><path d="M4.64-112.48l51.52 55.2L2.08 0H30.4l40-41.28L111.36 0h28.33l-55.2-57.28 52-55.2h-28.65L70.41-72.95l-37.28-39.53zm0 0"/></symbol><symbol overflow="visible" id="79c022e6x"><path d="M4.48-112.48v21.6h46.24V0h22.4v-90.88h46.24v-21.6zm0 0"/></symbol><symbol overflow="visible" id="79c022e6y"><path d="M15.05-112.48V0h102.72v-21.6H37.44v-24h77.12v-20.8H37.44v-24.47h80.33v-21.61zm0 0"/></symbol><symbol overflow="visible" id="79c022e6z"><path d="M15.05-112.48V0h22.39v-70.08L134.08 0h3.2v-112.48h-22.4v70.07l-96.65-70.07zm0 0"/></symbol><symbol overflow="visible" id="79c022e6b"><path d="M11.84-112.48V0h22.4v-112.48zm0 0"/></symbol><symbol overflow="visible" id="79c022e6d"><path d="M4.16-112.48v21.6H31.2V0h22.4v-90.88h27.04v-21.6zm0 0"/></symbol><symbol overflow="visible" id="79c022e6e"><path d="M11.84-112.48V0h22.4v-45.13h48.8V0h22.4v-112.48h-22.4v46.56h-48.8v-46.56zm0 0"/></symbol><symbol overflow="visible" id="79c022e6i"><path d="M11.84-112.48V0h22.4v-63.69l68 63.69h3.2v-112.48h-22.4v63.68l-68-63.68zm0 0"/></symbol><symbol overflow="visible" id="79c022e6l"><path d="M79.36-112.48H62.08C28-112.48 4.8-88 4.8-56.48 4.8-24.31 28.16 0 63.05 0h20.64v-56.16H63.36v34.57h-.31c-22.25 0-35.7-15.36-35.7-34.9 0-19.2 13.45-34.38 35.52-34.38h16.49zm0 0"/></symbol><symbol overflow="visible" id="79c022e6t"><path d="M11.84-112.48V0H72.8v-21.6H34.23v-23.52h36.49v-20.8H34.23v-24.95H72.8v-21.61zm0 0"/></symbol><symbol overflow="visible" id="79c022e6c"><path d="M11.84-112.48V0h155.03c32.18 0 58.08-24 58.08-56.16 0-32.15-25.9-56.32-58.07-56.32zm22.4 21.6h132.63c19.7 0 35.7 15.04 35.7 34.72s-16 34.57-35.7 34.57H34.24zm0 0"/></symbol><symbol overflow="visible" id="79c022e6k"><path d="M11.84-112.48V0h179.2v-21.6H34.25v-23.52h156.8v-20.8H34.25v-24.95h156.8v-21.61zm0 0"/></symbol><symbol overflow="visible" id="79c022e6f"><path d="M64.16-112.48c-42.02 0-57.2 14.07-57.2 31.2 0 22.23 19.06 31.05 49.27 32.64l90.82 4.95c29.25 1.61 35.39 4.33 35.39 11.53 0 6.72-5 10.4-22.46 10.4H7.27V0H152.7c42.66 0 57.05-13.44 57.05-32.8 0-21.28-12.77-28.64-54.94-31.04l-93.25-5.28c-24.08-1.29-28.44-5.29-28.44-12 0-5.75 5.02-9.44 21.99-9.44h152.05v-21.92zm0 0"/></symbol><symbol overflow="visible" id="79c022e6h"><path d="M31.52 0v-27.2h17.12V0h22.4v-78.23c0-21.46-10.09-35.85-31.04-35.85S9.12-99.68 9.12-78.23V0zm0-78.4C31.52-88 34.88-92 40-92c5.28 0 8.64 4 8.64 13.6V-48H31.52zm0 0"/></symbol><symbol overflow="visible" id="79c022e6m"><path d="M45.6-112.48c-20.8 0-33.29 11.2-33.29 28.64 0 18.72 11.38 37.6 11.38 48.64 0 9.12-5.61 13.6-14.9 13.6H3.06V0H12c23.2 0 35.69-12.8 35.69-33.13 0-16.95-11.53-35.03-11.53-46.07 0-6.24 3.2-11.67 11.84-11.67h6.56v-21.61zm0 0"/></symbol><symbol overflow="visible" id="79c022e6p"><path d="M8.31-112.48V0h16.17c26.88 0 46.24-18.88 46.24-56.16s-19.36-56.32-46.24-56.32zm22.4 23.84h1.93c8.16 0 15.67 9.44 15.67 32.33 0 22.87-7.51 32.47-15.67 32.47h-1.92zm0 0"/></symbol><symbol overflow="visible" id="79c022e6q"><path d="M8.31-112.48V0h42.4v-21.6h-20v-24.32h20v-20.8h-20v-24.16h20v-21.6zm0 0"/></symbol><symbol overflow="visible" id="79c022e6r"><path d="M8.31-112.48V0h20.81v-54.08L67.7 0h3.19v-112.48h-20.8v54.07l-38.56-54.07zm0 0"/></symbol><symbol overflow="visible" id="79c022e6s"><path d="M45.6-112.48c-20.8 0-33.29 11.2-33.29 28.64 0 18.72 11.38 37.6 11.38 48.64 0 9.12-5.61 13.6-14.9 13.6H3.06V0H12c23.2 0 35.69-12.8 35.69-33.13 0-16.95-11.53-35.03-11.53-46.07 0-6.24 3.2-11.67 11.84-11.67h6.56v-21.61zm0 0"/></symbol><symbol overflow="visible" id="79c022e6v"><path d="M8.31-112.48V0h42.4v-21.6h-20v-24.32h20v-20.8h-20v-24.16h20v-21.6zm0 0"/></symbol><symbol overflow="visible" id="79c022e6A"><path d="M8.31-112.48V0h16.17c26.88 0 46.24-18.88 46.24-56.16s-19.36-56.32-46.24-56.32zm22.4 23.84h1.93c8.16 0 15.67 9.44 15.67 32.33 0 22.87-7.51 32.47-15.67 32.47h-1.92zm0 0"/></symbol></defs><path fill="red" d="M0 0h1366v768H0z"/><use xlink:href="#79c022e6a" x="50.0322" y="213.8081" fill="#fff"/><use xlink:href="#79c022e6b" x="234.3522" y="213.8081" fill="#fff"/><use xlink:href="#79c022e6c" x="280.4322" y="213.8081" fill="#fff"/><g fill="#fff"><use xlink:href="#79c022e6d" x="510.5122" y="213.8081"/><use xlink:href="#79c022e6e" x="595.3122" y="213.8081"/></g><use xlink:href="#79c022e6f" x="712.585" y="213.8081" fill="#fff"/><use xlink:href="#79c022e6g" x="928.4824" y="213.8081" fill="#fff"/><use xlink:href="#79c022e6h" x="50.0824" y="361.8081" fill="#fff"/><use xlink:href="#79c022e6i" x="130.2424" y="361.8081" fill="#fff"/><use xlink:href="#79c022e6c" x="247.5224" y="361.8081" fill="#fff"/><use xlink:href="#79c022e6j" x="477.6024" y="361.8081" fill="#fff"/><use xlink:href="#79c022e6a" x="532.6424" y="361.8081" fill="#fff"/><use xlink:href="#79c022e6k" x="716.9624" y="361.8081" fill="#fff"/><g fill="#fff"><use xlink:href="#79c022e6b" x="916.6424" y="361.8081"/><use xlink:href="#79c022e6l" x="962.7224" y="361.8081"/><use xlink:href="#79c022e6e" x="1053.9224" y="361.8081"/><use xlink:href="#79c022e6d" x="1171.2024" y="361.8081"/></g><use xlink:href="#79c022e6m" x="1256.0024" y="361.8081" fill="#fff"/><g fill="#fff"><use xlink:href="#79c022e6n" x="434.0824" y="515.7281"/><use xlink:href="#79c022e6o" x="555.6824" y="515.7281"/></g><use xlink:href="#79c022e6i" x="706.7224" y="515.7281" fill="#fff"/><g fill="#fff"><use xlink:href="#79c022e6p" x="824.0024" y="515.7281"/><use xlink:href="#79c022e6q" x="899.3624" y="515.7281"/></g><use xlink:href="#79c022e6r" x="956.8024" y="515.7281" fill="#fff"/><use xlink:href="#79c022e6s" x="1036.0024" y="515.7281" fill="#fff"/><use xlink:href="#79c022e6t" x="1093.9224" y="515.7281" fill="#fff"/><use xlink:href="#79c022e6u" x="1174.7224" y="515.7281" fill="#fff"/><use xlink:href="#79c022e6h" x="43.6824" y="663.7281" fill="#fff"/><use xlink:href="#79c022e6i" x="123.8424" y="663.7281" fill="#fff"/><use xlink:href="#79c022e6p" x="241.1224" y="663.7281" fill="#fff"/><use xlink:href="#79c022e6j" x="316.4824" y="663.7281" fill="#fff"/><use xlink:href="#79c022e6v" x="371.5224" y="663.7281" fill="#fff"/><g fill="#fff"><use xlink:href="#79c022e6w" x="428.9624" y="663.7281"/><use xlink:href="#79c022e6x" x="570.7224" y="663.7281"/><use xlink:href="#79c022e6y" x="694.5624" y="663.7281"/><use xlink:href="#79c022e6z" x="820.8024" y="663.7281"/><use xlink:href="#79c022e6u" x="973.1224" y="663.7281"/><use xlink:href="#79c022e6y" x="1115.3624" y="663.7281"/></g><use xlink:href="#79c022e6A" x="1241.6024" y="663.7281" fill="#fff"/></svg>