<?xml version="1.0" encoding="UTF-8"?>
<svg id="Layer_1" data-name="Layer 1" xmlns="http://www.w3.org/2000/svg" viewBox="0 0 1366 768">
  <defs>
    <style>
      .cls-1 {
        fill: #12100b;
        stroke-width: 0px;
      }
    </style>
  </defs>
  <g>
    <path class="cls-1" d="M47.23,60.9h.88l9.62,28.41,8.6-28.41h.57l9.44,28.45,8.95-28.45h.88l-9.53,29.95h-.66l-9.35-28.32-8.56,28.32h-.66l-10.19-29.95Z"/>
    <path class="cls-1" d="M99.99,68.31c-4.63,0-8.07,3.97-8.07,9.57v12.97h-.79v-31.76h.79v14.56c1.28-3.75,4.23-6.13,8.07-6.13,5.6,0,8.47,3.93,8.47,9.97v13.37h-.79v-13.37c0-5.65-2.6-9.18-7.68-9.18Z"/>
    <path class="cls-1" d="M116.35,60.42c.66,0,1.19.53,1.19,1.24,0,.66-.53,1.24-1.19,1.24-.71,0-1.24-.57-1.24-1.24,0-.71.53-1.24,1.24-1.24ZM115.91,68.05h.79v22.81h-.79v-22.81Z"/>
    <path class="cls-1" d="M130.29,90.32c.75,0,1.15-.04,1.85-.13v.75c-.62.13-1.01.18-1.94.18-2.6,0-4.68-1.32-4.68-4.9v-17.38h-4.15v-.79h4.15v-6.44h.79v6.44h5.82v.79h-5.82v17.2c0,3.49,1.94,4.28,3.97,4.28Z"/>
    <path class="cls-1" d="M135.45,79.52c0-6.93,3.75-12,9.79-12s9.62,4.72,9.62,11.43v.84h-18.62c.09,6.04,3.4,10.81,9.48,10.81,4.15,0,7.1-2.69,7.9-6.4h.88c-1.01,3.93-3.79,7.19-8.82,7.19-6.62,0-10.23-5.25-10.23-11.87ZM154.06,78.99c0-6.57-3.31-10.68-8.82-10.68s-8.82,4.46-9,10.68h17.82Z"/>
  </g>
  <g>
    <path class="cls-1" d="M269.55,60.9h.88l3.57,28.41,14.65-28.41h.57l3.4,28.45,15-28.45h.88l-15.88,29.95h-.66l-3.35-28.32-14.56,28.32h-.66l-3.84-29.95Z"/>
    <path class="cls-1" d="M313.84,59.09h.79l-3.09,14.6c2.03-3.75,5.47-6.18,9.35-6.18,4.5,0,6.75,2.56,6.75,6.71,0,1.01-.13,2.07-.4,3.26l-2.82,13.37h-.79l2.82-13.37c.26-1.1.35-2.16.35-3.13,0-3.79-1.99-6.04-6.04-6.04-4.63,0-8.91,3.97-10.1,9.57h-.04l-2.74,12.97h-.79l6.75-31.76Z"/>
    <path class="cls-1" d="M336.73,68.05h.79l-4.85,22.81h-.79l4.85-22.81ZM338.58,60.42c.66,0,1.19.53,1.19,1.24,0,.66-.53,1.24-1.19,1.24-.71,0-1.24-.57-1.24-1.24,0-.71.53-1.24,1.24-1.24Z"/>
    <path class="cls-1" d="M342.29,87.72c0-.44.04-.93.18-1.5l3.71-17.38h-4.15l.18-.79h4.15l1.37-6.44h.79l-1.37,6.44h5.82l-.18.79h-5.78l-3.71,17.2c-.13.53-.18,1.01-.18,1.46,0,2.25,1.54,2.82,3.26,2.82.75,0,1.15-.04,1.85-.13l-.13.75c-.66.13-1.06.18-1.99.18-2.21,0-3.84-.93-3.84-3.4Z"/>
    <path class="cls-1" d="M353.49,82.61c0-1.06.13-2.65.4-3.84,1.46-6.93,6.13-11.25,11.95-11.25,4.76,0,7.59,3.22,7.59,7.94,0,2.07-.18,3.13-.44,4.32h-18.48c-.13.97-.22,2.03-.22,2.78,0,4.54,2.87,8.03,7.94,8.03,3.71,0,7.19-2.12,8.69-6.4h.88c-1.24,3.75-4.41,7.19-9.71,7.19s-8.6-3.84-8.6-8.78ZM372.28,78.99c.22-1.1.35-1.81.35-3.31,0-4.54-2.56-7.41-6.97-7.37-5.16.04-9.57,3.93-10.94,10.37-.04.09-.04.22-.09.31h17.65Z"/>
    <path class="cls-1" d="M389.39,80.44c0-1.41.18-2.91.53-4.54,1.98-9.35,8.38-15.53,16.5-15.53,6.57,0,10.41,4.19,10.41,10.94,0,1.41-.18,2.91-.53,4.54-2.03,9.35-8.38,15.53-16.5,15.53-6.57,0-10.41-4.19-10.41-10.94ZM399.89,90.59c7.41-.04,13.59-5.87,15.57-14.73.35-1.59.49-3.04.49-4.41,0-6.31-3.53-10.23-9.62-10.28-7.41.04-13.67,5.87-15.57,14.73-.35,1.59-.49,3.04-.49,4.41,0,6.31,3.53,10.23,9.62,10.28Z"/>
    <path class="cls-1" d="M421.64,83.8l-1.5,7.06h-.75l6.75-31.76h.79l-3.31,15.53c2.16-4.15,5.91-7.1,10.54-7.1,4.94,0,7.81,3.13,7.81,8.16,0,1.06-.18,2.82-.44,4.01-1.46,6.84-6.35,11.69-12.35,11.69-4.68,0-7.23-3.31-7.54-7.59ZM429.31,90.59c5.47,0,9.93-4.54,11.38-10.81.35-1.5.44-3,.44-4.01,0-4.68-2.69-7.46-7.01-7.46-5.69,0-10.01,4.81-11.34,10.32l-.35,1.54c-.13.88-.22,1.81-.22,2.56,0,4.37,2.34,7.85,7.1,7.85Z"/>
    <path class="cls-1" d="M452.07,59.09h.79l-6.75,31.76h-.79l6.75-31.76Z"/>
    <path class="cls-1" d="M458.87,68.05h.79l-4.85,22.81h-.79l4.85-22.81ZM460.72,60.42c.66,0,1.19.53,1.19,1.24,0,.66-.53,1.24-1.19,1.24-.71,0-1.24-.57-1.24-1.24,0-.71.53-1.24,1.24-1.24Z"/>
    <path class="cls-1" d="M463.06,83.13c0-8.07,5.34-15.62,12.71-15.62,4.72,0,7.37,3.09,7.68,7.37.79-3.75,1.1-4.81,1.72-6.84h.79c-.66,2.25-1.01,3.18-1.94,7.63l-4.99,23.47h-.79l3.13-14.73c-2.12,4.1-5.78,6.97-10.5,6.97-4.99,0-7.81-3.18-7.81-8.25ZM471.04,90.59c5.6,0,9.88-4.76,11.21-10.19l.4-1.98c.13-.79.18-1.59.18-2.34,0-4.37-2.43-7.76-7.19-7.76-6.93,0-11.73,7.37-11.73,14.69,0,4.81,2.65,7.59,7.15,7.59Z"/>
    <path class="cls-1" d="M489.61,85.47c0-1.15.18-2.43.49-3.88l2.87-13.54h.79l-2.87,13.54c-.31,1.37-.49,2.69-.49,3.79,0,3,1.54,5.25,5.78,5.25,4.68,0,8.82-3.97,10.1-9.35l2.82-13.23h.79l-3.49,16.32c-.79,3.62-1.01,4.72-1.01,6.48h-.75c0-1.54.13-2.56.84-5.73-2.07,4.06-5.6,6.26-9.44,6.26-4.59,0-6.44-2.56-6.44-5.91Z"/>
    <path class="cls-1" d="M513.21,82.61c0-1.06.13-2.65.4-3.84,1.46-6.93,6.13-11.25,11.95-11.25,4.76,0,7.59,3.22,7.59,7.94,0,2.07-.18,3.13-.44,4.32h-18.48c-.13.97-.22,2.03-.22,2.78,0,4.54,2.87,8.03,7.94,8.03,3.71,0,7.19-2.12,8.69-6.4h.88c-1.24,3.75-4.41,7.19-9.71,7.19s-8.6-3.84-8.6-8.78ZM532,78.99c.22-1.1.35-1.81.35-3.31,0-4.54-2.56-7.41-6.97-7.37-5.16.04-9.57,3.93-10.94,10.37-.04.09-.04.22-.09.31h17.65Z"/>
  </g>
  <g>
    <path class="cls-1" d="M69.46,126.41h-10.46v28.72h-1.37v-28.72h-10.5v-1.24h22.32v1.24Z"/>
    <path class="cls-1" d="M82.87,133.03c-4.41,0-7.68,3.71-7.68,9.13v12.97h-1.28v-31.76h1.28v14.03c1.32-3.44,4.19-5.6,7.85-5.6,5.47,0,8.43,3.84,8.43,9.88v13.45h-1.32v-13.41c0-5.38-2.51-8.69-7.28-8.69Z"/>
    <path class="cls-1" d="M99.46,124.43c.79,0,1.41.62,1.41,1.46,0,.79-.62,1.5-1.41,1.5-.84,0-1.5-.71-1.5-1.5,0-.84.66-1.46,1.5-1.46ZM98.75,132.32h1.28v22.81h-1.28v-22.81Z"/>
    <path class="cls-1" d="M116.61,133.03c-4.76,0-7.72,3.44-7.72,8.87v13.23h-1.28v-22.81h1.24v4.81c1.28-3.35,3.93-5.34,7.9-5.34,5.21,0,8.43,3.49,8.43,9.62v13.72h-1.32v-13.41c0-5.38-2.47-8.69-7.24-8.69Z"/>
  </g>
  <g>
    <path class="cls-1" d="M279.7,126.32h-10.46l.22-1.24h22.32l-.22,1.24h-10.5l-6.09,28.72h-1.37l6.09-28.72Z"/>
    <path class="cls-1" d="M296.63,123.28h1.28l-3.04,14.25c2.12-3.62,5.47-5.82,9.13-5.82,4.41,0,6.66,2.51,6.66,6.66,0,.97-.13,2.03-.4,3.22l-2.82,13.45h-1.32l2.87-13.45c.22-1.01.31-2.03.31-2.96,0-3.62-1.9-5.69-5.69-5.69-4.5,0-8.56,3.97-9.7,9.44h-.04l-2.69,12.66h-1.28l6.75-31.76Z"/>
    <path class="cls-1" d="M319.57,132.24h1.28l-4.85,22.81h-1.28l4.85-22.81ZM321.64,124.34c.79,0,1.46.62,1.46,1.46,0,.79-.66,1.5-1.46,1.5-.84,0-1.46-.71-1.46-1.5,0-.84.62-1.46,1.46-1.46Z"/>
    <path class="cls-1" d="M343.04,138.68c0-3.62-1.85-5.73-5.69-5.73-4.94,0-8.56,3.75-9.71,9.18l-2.78,12.92h-1.28l3.22-15.17c.88-4.15,1.24-5.6,1.28-7.63h1.24c-.04,1.54-.18,2.38-.71,4.99,1.94-3.53,5.12-5.51,9.09-5.51,4.28,0,6.71,2.38,6.71,6.62,0,.93-.13,1.9-.35,3l-2.91,13.72h-1.32l2.87-13.5c.22-1.06.35-1.98.35-2.87Z"/>
    <path class="cls-1" d="M360.94,144.54c0-1.37.18-2.87.49-4.46,1.99-9.35,8.43-15.53,16.67-15.53,6.62,0,10.54,4.24,10.54,10.98,0,1.41-.18,2.91-.53,4.5-2.03,9.35-8.43,15.53-16.63,15.53-6.66,0-10.54-4.23-10.54-11.03ZM371.66,154.34c7.19-.04,13.15-5.65,15.04-14.29.35-1.54.49-2.96.49-4.32,0-6.09-3.4-9.88-9.31-9.93-7.19.04-13.19,5.65-15.04,14.29-.35,1.54-.49,2.96-.49,4.32,0,6.09,3.4,9.88,9.31,9.92Z"/>
    <path class="cls-1" d="M393.63,148.6l-1.37,6.44h-1.24l6.75-31.76h1.28l-3.18,14.91c2.16-3.84,5.73-6.48,10.19-6.48,4.9,0,7.81,3.13,7.81,8.21,0,1.06-.18,2.87-.44,4.06-1.5,6.88-6.35,11.6-12.35,11.6-4.5,0-6.97-2.96-7.46-6.97ZM401.22,154.34c5.29,0,9.48-4.32,10.9-10.37.31-1.41.4-2.87.4-3.88,0-4.5-2.56-7.15-6.71-7.15-5.47,0-9.79,4.72-10.98,10.28l-.13.71c-.22.93-.31,2.03-.31,2.91,0,4.28,2.29,7.5,6.84,7.5Z"/>
    <path class="cls-1" d="M423.85,123.28h1.28l-6.75,31.76h-1.28l6.75-31.76Z"/>
    <path class="cls-1" d="M430.95,132.24h1.28l-4.85,22.81h-1.28l4.85-22.81ZM433.02,124.34c.79,0,1.46.62,1.46,1.46,0,.79-.66,1.5-1.46,1.5-.84,0-1.46-.71-1.46-1.5,0-.84.62-1.46,1.46-1.46Z"/>
    <path class="cls-1" d="M435.49,147.28c0-8.03,5.38-15.57,12.71-15.57,4.54,0,7.1,2.82,7.54,6.84.71-3.22,1.01-4.32,1.63-6.31h1.28c-.66,2.25-1.01,3.26-1.85,7.28l-5.07,23.82h-1.32l3.04-14.12c-2.16,3.79-5.6,6.35-10.15,6.35-4.94,0-7.81-3.18-7.81-8.29ZM443.65,154.38c5.29,0,9.44-4.5,10.81-9.92l.35-1.68c.13-.84.18-1.68.18-2.43,0-4.28-2.34-7.46-6.93-7.46-6.66,0-11.25,7.15-11.25,14.12,0,4.63,2.56,7.37,6.84,7.37Z"/>
    <path class="cls-1" d="M462.09,149.66c0-1.06.13-2.25.44-3.62l2.91-13.81h1.32l-2.91,13.76c-.31,1.24-.44,2.47-.44,3.48,0,2.87,1.5,4.9,5.43,4.9,4.59,0,8.6-4.1,9.75-9.48l2.74-12.66h1.28l-3.53,16.67c-.75,3.26-.93,4.41-.93,6.13h-1.24c0-1.54.13-2.51.75-5.34-2.12,3.71-5.43,5.87-9.17,5.87-4.46,0-6.4-2.47-6.4-5.91Z"/>
    <path class="cls-1" d="M485.78,146.79c0-1.1.13-2.65.4-3.84,1.41-6.88,6.13-11.25,12.04-11.25,4.9,0,7.81,3.26,7.81,8.16,0,1.94-.18,3.04-.49,4.28h-18.22c-.13.88-.22,1.81-.22,2.51,0,4.41,2.69,7.72,7.59,7.72,3.62,0,6.88-2.03,8.29-6h1.37c-1.28,3.84-4.46,7.19-9.84,7.19-5.65,0-8.73-3.93-8.73-8.78ZM504.39,142.95c.22-1.01.31-1.68.31-3.04,0-4.28-2.43-7.01-6.71-7.01-4.99.04-9.22,3.84-10.5,10.06h16.9Z"/>
  </g>
  <g>
    <path class="cls-1" d="M52.79,217.6h15.17v1.81h-17.2v-29.95h2.03v28.14Z"/>
    <path class="cls-1" d="M73.34,188.35c.97,0,1.76.79,1.76,1.81,0,.93-.79,1.76-1.76,1.76s-1.76-.84-1.76-1.76c0-1.01.75-1.81,1.76-1.81ZM72.37,196.6h1.94v22.81h-1.94v-22.81Z"/>
    <path class="cls-1" d="M90.59,226.46c5.12,0,7.98-2.56,7.98-7.54v-6.09c-1.46,3.44-4.41,5.51-8.47,5.51-5.87,0-9.93-4.28-9.93-11.16,0-6.44,3.97-11.12,9.79-11.12,4.32,0,7.28,2.29,8.69,5.78v-5.25h1.85v22.19c0,5.96-3.35,9.44-9.92,9.44s-9.71-3.09-9.93-8.07h1.99c.22,4.06,2.91,6.31,7.94,6.31ZM90.33,216.58c5.16,0,8.25-3.93,8.25-9.4,0-5.12-3.18-9.35-8.29-9.35s-8.21,3.88-8.21,9.35c0,5.87,3.35,9.4,8.25,9.4Z"/>
    <path class="cls-1" d="M116.79,197.88c-4.1,0-7.15,3.31-7.15,8.56v12.97h-1.94v-31.76h1.94v13.41c1.41-3.13,4.1-4.98,7.54-4.98,5.29,0,8.34,3.71,8.34,9.75v13.59h-1.9v-13.41c0-5.12-2.47-8.12-6.84-8.12Z"/>
    <path class="cls-1" d="M139.2,217.86c.79,0,1.24-.04,1.85-.13v1.72c-.66.18-1.23.22-2.16.22-3.09,0-5.25-1.72-5.25-5.51v-15.79h-4.01v-1.76h4.01v-6.44h1.94v6.44h5.47v1.76h-5.47v15.53c0,3.09,1.68,3.97,3.62,3.97Z"/>
  </g>
  <g>
    <path class="cls-1" d="M273.08,189.36h2.03l-5.96,28.14h15.13l-.35,1.81h-17.2l6.35-29.95Z"/>
    <path class="cls-1" d="M293.19,196.51h1.94l-4.85,22.81h-1.94l4.85-22.81ZM295.53,188.26c.97,0,1.76.79,1.76,1.81,0,.93-.79,1.76-1.76,1.76s-1.76-.84-1.76-1.76c0-1.01.79-1.81,1.76-1.81Z"/>
    <path class="cls-1" d="M296.41,221.65c0-.49.09-.97.18-1.59h1.94c-.62,3.93,1.59,6.31,6.75,6.31s8.21-2.16,9.35-7.37l1.32-6.22c-2.03,3.4-5.12,5.47-9.53,5.47-4.9,0-8.07-3.44-8.07-8.29,0-7.81,5.16-13.98,12.26-13.98,4.5,0,7.06,2.43,7.72,5.96l1.15-5.43h1.9l-4.85,22.76c-1.28,6.09-5.21,8.87-11.34,8.87s-8.78-2.65-8.78-6.48ZM306.95,216.49c5.25,0,9-4.01,10.19-9.44.13-.88.22-1.72.22-2.43,0-3.88-2.34-6.88-6.88-6.88-5.91,0-10.15,5.65-10.15,11.82,0,4.15,2.34,6.93,6.62,6.93Z"/>
    <path class="cls-1" d="M330.42,187.56h1.94l-2.91,13.72c2.12-3.4,5.29-5.29,8.73-5.29,4.32,0,6.57,2.43,6.57,6.57,0,.97-.13,2.03-.35,3.18l-2.91,13.59h-1.94l2.87-13.5c.22-1.01.31-1.94.31-2.78,0-3.44-1.85-5.29-5.25-5.29-4.32,0-8.12,4.01-9.22,9.26h-.04l-2.6,12.31h-1.94l6.75-31.76Z"/>
    <path class="cls-1" d="M350.53,215.7c0-.49.09-1.01.22-1.63l3.35-15.79h-4.01l.35-1.76h4.01l1.37-6.44h1.94l-1.37,6.44h5.47l-.35,1.76h-5.43l-3.4,15.66c-.13.49-.18.97-.18,1.37,0,1.9,1.24,2.51,2.87,2.51.79,0,1.32-.04,2.03-.18l-.35,1.63c-.79.22-1.41.31-2.34.31-2.47,0-4.19-1.19-4.19-3.88Z"/>
    <path class="cls-1" d="M374.31,208.73c0-1.37.18-2.82.49-4.37,1.99-9.31,8.47-15.53,16.81-15.53,6.75,0,10.72,4.28,10.72,11.07,0,1.41-.18,2.87-.49,4.41-2.03,9.31-8.47,15.53-16.81,15.53-6.75,0-10.72-4.32-10.72-11.12ZM385.34,218.08c6.88-.04,12.57-5.38,14.42-13.76.31-1.5.44-2.87.44-4.19,0-5.87-3.26-9.48-8.91-9.53-6.88.04-12.62,5.38-14.42,13.76-.35,1.5-.49,2.87-.49,4.19,0,5.87,3.31,9.48,8.96,9.53Z"/>
    <path class="cls-1" d="M407.61,213.54l-1.23,5.78h-1.85l6.75-31.76h1.94l-3.04,14.25c2.16-3.49,5.51-5.82,9.75-5.82,4.81,0,7.81,3.18,7.81,8.29,0,1.06-.22,2.91-.49,4.1-1.46,6.93-6.35,11.47-12.26,11.47-4.32,0-6.75-2.6-7.37-6.31ZM415.07,218.08c5.07,0,8.95-4.06,10.23-9.84.31-1.28.4-2.74.4-3.66,0-4.37-2.43-6.84-6.35-6.84-4.94,0-9.04,4.23-10.32,9.53l-.18.84c-.22.88-.31,1.99-.31,2.87,0,4.19,2.29,7.1,6.53,7.1Z"/>
    <path class="cls-1" d="M437.47,187.56h1.94l-6.75,31.76h-1.94l6.75-31.76Z"/>
    <path class="cls-1" d="M444.97,196.51h1.94l-4.85,22.81h-1.94l4.85-22.81ZM447.31,188.26c.97,0,1.76.79,1.76,1.81,0,.93-.79,1.76-1.76,1.76s-1.76-.84-1.76-1.76c0-1.01.79-1.81,1.76-1.81Z"/>
    <path class="cls-1" d="M449.96,211.46c0-7.94,5.47-15.48,12.7-15.48,4.41,0,6.84,2.56,7.46,6.22.53-2.65.84-3.75,1.46-5.69h1.94c-.71,2.29-1.06,3.35-1.81,6.84l-5.16,24.26h-1.94l2.87-13.54c-2.12,3.53-5.38,5.78-9.71,5.78-4.85,0-7.81-3.18-7.81-8.38ZM458.38,218.13c4.9,0,8.91-4.01,10.28-9.48l.31-1.46c.13-.79.18-1.72.18-2.47,0-4.15-2.25-7.01-6.53-7.01-6.4,0-10.68,6.88-10.68,13.41,0,4.37,2.43,7.01,6.44,7.01Z"/>
    <path class="cls-1" d="M476.64,213.94c0-.97.13-2.07.4-3.31l3-14.12h1.94l-3,14.03c-.22,1.1-.35,2.21-.35,3.09,0,2.69,1.46,4.5,4.94,4.5,4.41,0,8.21-4.1,9.31-9.31l2.65-12.31h1.94l-3.62,17.07c-.62,2.87-.79,4.06-.79,5.73h-1.85c0-1.54.09-2.47.62-4.98-2.07,3.44-5.16,5.51-8.82,5.51-4.28,0-6.35-2.38-6.35-5.91Z"/>
    <path class="cls-1" d="M500.46,211.07c0-1.19.13-2.69.4-3.84,1.37-6.79,6.09-11.25,12.17-11.25,5.03,0,8.03,3.35,8.03,8.43,0,1.81-.18,3-.49,4.23h-18c-.09.75-.18,1.54-.18,2.16,0,4.28,2.51,7.32,7.19,7.32,3.53,0,6.44-1.9,7.76-5.47h2.03c-1.32,3.97-4.59,7.19-10.01,7.19-5.91,0-8.91-4.01-8.91-8.78ZM518.86,206.92c.18-.88.26-1.46.26-2.69,0-3.93-2.25-6.53-6.35-6.53-4.76.04-8.6,3.53-9.88,9.22h15.97Z"/>
  </g>
  <g>
    <path class="cls-1" d="M50.49,253.71h11.6c6.79,0,9.84,3,9.84,7.85,0,3.22-2.47,5.87-5.51,6.57,4.19.53,6.88,3.26,6.88,7.06,0,5.25-3.13,8.47-10.76,8.47h-12.04v-29.95ZM62.01,266.98c4.15,0,6.71-2.03,6.71-5.43,0-3.66-2.74-5.16-7.41-5.16h-7.63v10.59h8.34ZM61.92,280.97c4.85,0,8.21-1.28,8.21-5.78,0-3.97-3.18-5.47-7.85-5.47h-8.6v11.25h8.25Z"/>
    <path class="cls-1" d="M77.49,272.32c0-7.1,4.01-12,10.5-12s10.59,4.85,10.59,11.96-4.06,11.91-10.54,11.91-10.54-4.85-10.54-11.87ZM88.03,281.5c4.68,0,7.5-3.93,7.5-9.22s-2.74-9.26-7.54-9.26-7.5,3.97-7.5,9.31,2.82,9.18,7.54,9.18Z"/>
    <path class="cls-1" d="M102.54,272.32c0-7.1,4.01-12,10.5-12s10.59,4.85,10.59,11.96-4.06,11.91-10.54,11.91-10.54-4.85-10.54-11.87ZM113.09,281.5c4.68,0,7.5-3.93,7.5-9.22s-2.74-9.26-7.54-9.26-7.5,3.97-7.5,9.31,2.82,9.18,7.54,9.18Z"/>
    <path class="cls-1" d="M132.01,272.06v11.6h-3.04v-31.76h3.04v18.4l10.98-9.44h3.48l-11.6,10.28,12.09,12.53h-3.57l-11.38-11.6Z"/>
  </g>
  <g>
    <path class="cls-1" d="M272.81,253.71h11.73c5.6,0,8.25,2.96,8.25,6.62s-1.94,6.75-6.04,7.98c3,.84,4.46,3.13,4.46,5.78,0,5.56-4.24,9.57-11.25,9.57h-13.5l6.35-29.95ZM280.27,280.97c4.81,0,7.76-2.6,7.76-6.62,0-2.65-2.03-4.63-6.31-4.63h-9.09l-2.38,11.25h10.01ZM282.21,266.98c4.72,0,7.28-3.04,7.28-5.96,0-2.43-1.41-4.63-5.87-4.63h-8.16l-2.25,10.59h9Z"/>
    <path class="cls-1" d="M295.53,275.28c0-7.85,5.03-14.95,12.75-14.95,5.38,0,8.82,3.4,8.82,8.91,0,7.81-5.03,14.95-12.75,14.95-5.38,0-8.82-3.35-8.82-8.91ZM304.79,281.5c5.34,0,9.31-5.51,9.31-12.04,0-4.19-2.25-6.44-6.26-6.44-5.34,0-9.31,5.43-9.31,12.04,0,4.24,2.25,6.44,6.26,6.44Z"/>
    <path class="cls-1" d="M320.54,275.28c0-7.85,5.03-14.95,12.75-14.95,5.38,0,8.82,3.4,8.82,8.91,0,7.81-5.03,14.95-12.75,14.95-5.38,0-8.82-3.35-8.82-8.91ZM329.8,281.5c5.34,0,9.31-5.51,9.31-12.04,0-4.19-2.25-6.44-6.26-6.44-5.34,0-9.31,5.43-9.31,12.04,0,4.24,2.25,6.44,6.26,6.44Z"/>
    <path class="cls-1" d="M351.59,251.9h3.04l-3.88,18.26,13.28-9.31h4.24l-14.78,10.46,10.41,12.35h-3.53l-10.01-11.51-2.47,11.51h-3.04l6.75-31.76Z"/>
    <path class="cls-1" d="M379.6,272.94c0-1.32.18-2.73.49-4.23,1.99-9.26,8.51-15.53,17.12-15.53,6.84,0,10.98,4.37,10.98,11.21,0,1.37-.18,2.78-.53,4.32-1.94,9.22-8.47,15.48-17.07,15.48-6.84,0-10.98-4.41-10.98-11.25ZM391.16,281.5c6.4,0,11.6-4.94,13.32-12.79.31-1.46.44-2.78.44-3.97,0-5.56-3.04-8.87-8.29-8.87-6.4,0-11.69,4.94-13.37,12.84-.31,1.41-.44,2.73-.44,3.93,0,5.56,3.09,8.87,8.34,8.87Z"/>
    <path class="cls-1" d="M413.96,278.76l-1.01,4.9h-2.91l6.75-31.76h3l-2.82,13.32c2.07-3,5.12-4.9,9.09-4.9,4.68,0,7.76,3.22,7.76,8.43,0,1.06-.22,2.96-.49,4.15-1.5,7.01-6.35,11.29-12.22,11.29-4.01,0-6.35-2.12-7.15-5.43ZM421.2,281.54c4.63,0,7.98-3.66,9.18-8.91.22-1.1.35-2.51.35-3.4,0-4.06-2.21-6.31-5.78-6.31-4.37,0-8.34,3.93-9.48,9.26l-.13.62c-.13.71-.22,1.59-.22,2.25,0,4.1,2.34,6.49,6.09,6.49Z"/>
    <path class="cls-1" d="M443.21,251.9h3.04l-6.75,31.76h-3.04l6.75-31.76Z"/>
    <path class="cls-1" d="M451.37,260.85h3l-4.85,22.81h-3l4.85-22.81ZM454.24,252.07c1.24,0,2.25,1.01,2.25,2.29s-1.01,2.25-2.25,2.25-2.34-1.01-2.34-2.25,1.06-2.29,2.34-2.29Z"/>
    <path class="cls-1" d="M457.06,275.67c0-7.81,5.56-15.35,12.75-15.35,4.15,0,6.4,2.16,7.15,5.29.35-1.81.71-3,1.28-4.76h3c-.71,2.34-1.15,3.53-1.68,6.13l-5.34,24.97h-3l2.69-12.53c-2.07,3-4.99,4.76-9,4.76-4.72,0-7.85-3.22-7.85-8.51ZM465.93,281.59c4.37,0,8.25-3.53,9.44-9.22h.04l.04-.18h-.04c.22-.93.26-2.12.26-2.96,0-3.93-2.03-6.31-5.87-6.31-5.87,0-9.66,6.4-9.66,12.22,0,3.97,2.21,6.44,5.78,6.44Z"/>
    <path class="cls-1" d="M483.92,278.32c0-.88.13-1.76.31-2.78l3.13-14.69h3l-3.09,14.47c-.13.84-.26,1.72-.26,2.38,0,2.43,1.37,3.84,4.24,3.84,3.84,0,7.15-3.71,8.38-8.34l2.6-12.35h3.04l-3.79,17.78c-.44,2.21-.53,3.4-.53,5.03h-2.96c0-1.54.09-2.38.53-4.46-1.99,3.04-4.81,4.98-8.34,4.98-4.01,0-6.26-2.25-6.26-5.87Z"/>
    <path class="cls-1" d="M508.01,275.37c0-1.24.13-2.69.35-3.84,1.32-6.66,6.09-11.21,12.35-11.21,5.29,0,8.43,3.44,8.43,8.87,0,1.59-.13,2.87-.49,4.19h-17.56c-.04.53-.09,1.1-.09,1.59,0,4.06,2.16,6.62,6.48,6.62,3.35,0,5.73-1.72,6.88-4.59h3.13c-1.46,4.24-4.81,7.19-10.37,7.19-6.26,0-9.13-4.15-9.13-8.82ZM526,270.78c.09-.66.13-1.1.13-2.12,0-3.31-1.94-5.78-5.73-5.74-4.28,0-7.59,3-8.82,7.85h14.42Z"/>
  </g>
  <g>
    <path class="cls-1" d="M74.98,347.93h-3.48l-17.56-24.35v24.35h-3.53v-29.95h3.53l17.56,24.09v-24.09h3.48v29.95Z"/>
    <path class="cls-1" d="M80.88,336.6c0-7.15,4.15-12,10.68-12s10.72,4.81,10.72,11.96-4.15,11.91-10.68,11.91-10.72-4.76-10.72-11.87ZM91.6,345.33c4.46,0,7.15-3.71,7.15-8.78s-2.65-8.82-7.19-8.82-7.15,3.75-7.15,8.87,2.69,8.73,7.19,8.73Z"/>
    <path class="cls-1" d="M110.88,328.26c.93-2.12,2.69-3.4,5.34-3.4.4,0,1.1.04,1.63.18v3.26c-.35-.04-.71-.04-1.19-.04-3.79,0-5.65,1.72-5.65,5.43v14.25h-3.53v-22.81h3.4v3.13Z"/>
    <path class="cls-1" d="M146.43,327.77c-3.09,0-5.91,2.16-5.91,6.13v14.03h-3.49v-13.5c0-4.41-2.47-6.66-5.65-6.66s-5.87,2.12-5.87,6.13v14.03h-3.53v-22.81h3.4v3c1.41-2.21,3.75-3.53,6.79-3.53,3.22,0,5.82,1.46,7.19,4.15,1.5-2.56,4.19-4.15,7.63-4.15,5.07,0,8.56,3.4,8.56,9.44v13.9h-3.53v-13.5c0-4.41-2.43-6.66-5.6-6.66Z"/>
    <path class="cls-1" d="M176.03,344.76c-1.85,2.51-4.32,3.71-7.54,3.71-4.41,0-7.94-2.78-7.94-6.79s2.65-6.35,7.63-6.88l7.68-.79v-1.63c0-3.35-2.16-4.76-5.38-4.76s-5.38,1.32-5.82,4.54h-3.53c.62-5.03,4.19-7.54,9.35-7.54s8.87,2.43,8.87,7.9v15.44h-3.31v-3.18ZM169.15,345.46c4.15,0,6.66-2.56,6.66-6.48v-2.38l-7.01.88c-3.31.4-4.5,1.94-4.5,4.1s1.85,3.88,4.85,3.88Z"/>
    <path class="cls-1" d="M189.35,347.93h-3.53v-31.76h3.53v31.76Z"/>
  </g>
  <g>
    <path class="cls-1" d="M272.73,317.98h5.65l9.75,26.95,5.69-26.95h3.48l-6.35,29.95h-5.65l-9.66-26.95-5.73,26.95h-3.53l6.35-29.95Z"/>
    <path class="cls-1" d="M298.97,339.38c0-7.85,5.07-14.78,12.75-14.78,5.51,0,9.04,3.49,9.04,9.13,0,7.81-5.07,14.73-12.75,14.73-5.51,0-9.04-3.44-9.04-9.09ZM308.54,345.33c4.85,0,8.69-4.94,8.69-11.38,0-4.1-2.16-6.22-6.04-6.22-4.85,0-8.69,4.94-8.69,11.43,0,4.1,2.16,6.18,6.04,6.18Z"/>
    <path class="cls-1" d="M327.91,325.13h3.31c-.04,1.19-.18,2.25-.53,4.06,2.21-3.4,4.59-4.32,6.62-4.32.4,0,.93.04,1.32.18l-.79,3.48c-.26-.04-.48-.04-.75-.04-3.31,0-6.35,2.12-7.76,8.29l-2.38,11.16h-3.53l3.84-18.13c.4-1.85.57-3.26.66-4.68Z"/>
    <path class="cls-1" d="M371.09,332.01c0-2.91-1.59-4.28-4.06-4.28-3.62,0-6.84,3.18-8.03,8.16l-2.56,12.04h-3.53l2.91-13.72c.18-.84.26-1.59.26-2.34,0-2.91-1.59-4.15-4.06-4.15-3.62,0-6.84,3.04-8.03,8.21l-2.56,12h-3.53l3.84-18.13c.4-1.85.57-3.26.66-4.68h3.31c-.04,1.1-.13,2.12-.44,3.71,1.99-2.91,4.72-4.24,8.12-4.24s5.6,1.76,6.18,4.68c2.21-2.96,5.29-4.68,8.82-4.68,4.06,0,6.35,2.29,6.35,6.4,0,.84-.09,1.81-.31,2.82l-3,14.12h-3.53l2.91-13.72c.18-.84.26-1.54.26-2.21Z"/>
    <path class="cls-1" d="M393.01,344.49c-1.94,2.47-4.76,3.97-8.29,3.97-4.46,0-6.93-2.56-6.93-5.91s1.99-8.43,17.2-8.56l.09-.44c.18-.88.26-1.41.26-2.07,0-2.56-1.23-3.88-4.59-3.88s-5.78,1.37-6.53,4.54h-3.53c1.01-4.98,4.9-7.54,10.46-7.54,5.12,0,7.72,2.43,7.72,6.31,0,1.19-.09,1.98-.35,3.22l-1.81,8.43c-.4,1.85-.57,3.13-.75,5.38h-3.35c.09-1.37.22-2.38.4-3.44ZM385.6,345.46c4.76,0,7.59-3.48,8.43-6.97l.44-1.9c-9.88.53-12.84,2.78-12.84,5.82,0,1.68,1.19,3.04,3.97,3.04Z"/>
    <path class="cls-1" d="M408.98,316.17h3.53l-6.75,31.76h-3.53l6.75-31.76Z"/>
    <path class="cls-1" d="M424.64,337.13c0-1.28.13-2.69.44-4.15,1.99-9.26,8.56-15.53,17.25-15.53,6.93,0,11.12,4.41,11.12,11.29,0,1.32-.18,2.74-.48,4.24-1.94,9.22-8.51,15.48-17.2,15.48-6.93,0-11.12-4.46-11.12-11.34ZM436.42,345.33c6.18,0,11.16-4.72,12.79-12.35.31-1.41.44-2.69.44-3.88,0-5.34-2.91-8.51-7.98-8.51-6.18,0-11.21,4.72-12.84,12.4-.31,1.37-.44,2.65-.44,3.84,0,5.34,2.96,8.51,8.03,8.51Z"/>
    <path class="cls-1" d="M459.49,343.52l-.93,4.41h-3.4l6.75-31.76h3.48l-2.74,12.88c2.07-2.78,4.94-4.46,8.78-4.46,4.63,0,7.76,3.22,7.76,8.51,0,1.01-.22,2.96-.49,4.15-1.54,7.06-6.35,11.21-12.22,11.21-3.88,0-6.13-1.9-7.01-4.94ZM466.59,345.38c4.46,0,7.54-3.44,8.65-8.47.22-1.01.35-2.38.35-3.26,0-3.88-2.07-6-5.51-6-4.01,0-7.9,3.66-9,8.91-.18.75-.31,1.85-.31,2.69,0,4.01,2.29,6.13,5.82,6.13Z"/>
    <path class="cls-1" d="M488.47,316.17h3.53l-6.75,31.76h-3.53l6.75-31.76Z"/>
    <path class="cls-1" d="M496.94,325.13h3.48l-4.85,22.81h-3.48l4.85-22.81ZM500.02,316.08c1.37,0,2.51,1.1,2.51,2.51s-1.15,2.51-2.51,2.51-2.56-1.15-2.56-2.51,1.15-2.51,2.56-2.51Z"/>
    <path class="cls-1" d="M502.98,339.91c0-7.76,5.6-15.31,12.75-15.31,3.97,0,6.18,1.99,6.97,4.9.31-1.46.66-2.65,1.24-4.37h3.48c-.71,2.34-1.15,3.62-1.59,5.78l-5.43,25.32h-3.53l2.6-12.04c-1.98,2.69-4.81,4.28-8.65,4.28-4.68,0-7.85-3.22-7.85-8.56ZM512.02,345.46c4.06,0,7.81-3.18,9.04-8.91.18-.88.26-2.16.26-2.96,0-3.84-1.94-6-5.6-6-5.6,0-9.18,6.22-9.18,11.65,0,3.79,2.12,6.22,5.47,6.22Z"/>
    <path class="cls-1" d="M529.89,342.6c0-.79.09-1.59.26-2.51l3.18-14.95h3.53l-3.13,14.69c-.13.71-.22,1.5-.22,2.07,0,2.29,1.32,3.49,3.84,3.49,3.84,0,7.06-3.93,8.12-8.6l2.47-11.65h3.53l-3.84,18.13c-.4,1.85-.44,3.09-.44,4.68h-3.44c0-1.59.04-2.38.4-4.1-1.94,2.78-4.63,4.63-8.03,4.63-3.88,0-6.22-2.16-6.22-5.87Z"/>
    <path class="cls-1" d="M554.06,339.64c0-1.28.13-2.69.35-3.84,1.28-6.62,6.09-11.21,12.44-11.21,5.43,0,8.65,3.49,8.65,9.09,0,1.46-.13,2.78-.53,4.15h-17.29c-.04.44-.09.88-.09,1.32,0,3.93,1.99,6.31,6.13,6.31,3.26,0,5.38-1.63,6.49-4.19h3.62c-1.5,4.32-4.85,7.19-10.5,7.19-6.44,0-9.26-4.23-9.26-8.82ZM571.88,334.83c.09-.57.09-.97.09-1.85,0-3.04-1.81-5.38-5.47-5.38-4.01,0-7.1,2.78-8.29,7.23h13.67Z"/>
  </g>
  <g>
    <path class="cls-1" d="M50.1,382.26h12.88c6.84,0,10.15,3.35,10.15,8.38,0,4.37-2.38,7.46-7.68,8.29l9.18,13.28h-5.12l-8.91-12.79h-5.91v12.79h-4.59v-29.95ZM62.32,395.71c4.15,0,6.18-1.94,6.18-5.03s-2.07-4.72-6.22-4.72h-7.59v9.75h7.63Z"/>
    <path class="cls-1" d="M77.27,401c0-7.46,4.63-12.13,10.85-12.13,6.93,0,10.63,4.72,10.59,12.18,0,.75-.04,1.19-.04,1.19h-16.98c.4,4.72,3.09,6.88,6.62,6.88,3.09,0,4.85-1.46,5.51-3.57h4.46c-.93,3.97-4.19,7.19-9.84,7.19-7.06,0-11.16-4.72-11.16-11.73ZM94.16,398.93c-.31-4.41-2.6-6.48-6-6.48s-5.78,2.16-6.4,6.48h12.4Z"/>
    <path class="cls-1" d="M113.17,417.55c4.01,0,6.4-2.12,6.4-6.13v-4.24c-1.63,2.6-4.19,3.97-7.46,3.97-5.6,0-10.06-4.28-10.06-11.12s4.41-11.16,9.97-11.16c3.53,0,6.18,1.5,7.76,4.15v-3.62h4.15v21.75c0,5.51-3.13,9.88-10.76,9.88s-10.5-3.53-10.81-8.07h4.54c.22,2.87,2.21,4.59,6.26,4.59ZM113,407.44c3.84,0,6.57-3,6.57-7.41s-2.82-7.46-6.57-7.46c-3.97,0-6.62,2.87-6.62,7.46s2.82,7.41,6.62,7.41Z"/>
    <path class="cls-1" d="M138.67,408.99c3.53,0,5.6-2.43,5.6-6.26v-13.32h4.37v22.81h-4.01v-3.22c-1.41,2.43-3.84,3.75-7.1,3.75-4.9,0-7.85-2.91-7.85-8.38v-14.95h4.41v14.51c0,3.26,1.63,5.07,4.59,5.07Z"/>
    <path class="cls-1" d="M159.14,412.21h-4.41v-31.76h4.41v31.76Z"/>
    <path class="cls-1" d="M179.43,409.12c-1.81,2.47-4.28,3.62-7.46,3.62-4.59,0-8.03-2.82-8.03-6.79s2.51-6.4,7.76-6.97l7.41-.75v-1.5c0-3.04-1.99-4.41-4.94-4.41s-4.9,1.24-5.34,4.1h-4.37c.62-4.98,4.19-7.54,9.71-7.54s9.26,2.47,9.26,8.07v15.26h-4.01v-3.09ZM172.94,409.39c3.88,0,6.09-2.43,6.09-6.13v-2.07l-6.4.79c-3,.35-4.15,1.81-4.15,3.79s1.68,3.62,4.46,3.62Z"/>
    <path class="cls-1" d="M193.28,392.8c.97-2.29,2.91-3.66,5.56-3.66.44,0,1.06.04,1.59.18v3.97c-.35-.04-.79-.04-1.28-.04-3.75,0-5.56,1.72-5.56,5.38v13.59h-4.41v-22.81h4.1v3.4Z"/>
  </g>
  <g>
    <path class="cls-1" d="M272.42,382.26h12.97c5.73,0,8.51,3.44,8.51,7.5,0,5.16-3.84,8.87-9.66,9.48l6.97,12.97h-5.07l-6.71-12.79h-6.04l-2.69,12.79h-4.63l6.35-29.95ZM282.08,395.75c4.5,0,7.1-2.34,7.1-5.91,0-2.07-1.5-3.93-5.07-3.93h-7.85l-2.07,9.84h7.9Z"/>
    <path class="cls-1" d="M295.84,403.7c0-1.32.13-2.65.4-3.84,1.32-6.53,6.18-10.98,12.57-10.98,5.56,0,9,3.53,9,9.22,0,1.41-.13,2.74-.57,4.15h-17.03c-.04.35-.04.75-.04,1.1,0,3.66,1.85,5.87,5.65,5.87,2.96,0,4.85-1.37,5.87-3.66h4.46c-1.5,4.28-4.94,7.19-10.76,7.19-6.44,0-9.53-4.23-9.53-9.04ZM313.35,398.93c.09-.49.09-.84.09-1.63,0-2.78-1.68-4.9-5.07-4.9-3.66,0-6.4,2.43-7.54,6.53h12.53Z"/>
    <path class="cls-1" d="M318.69,414.55c0-.57.04-.97.13-1.59h4.41c-.4,2.87,1.24,4.59,5.25,4.59,4.28,0,6.84-1.94,7.72-6.18l.84-3.97c-1.72,2.38-4.15,3.75-7.94,3.75-4.98,0-8.38-3.22-8.38-8.21,0-8.21,5.38-14.07,12.53-14.07,3.84,0,6.18,1.5,7.1,4.19l.79-3.66h4.15l-4.68,22.19c-1.24,5.82-5.07,9.44-12.44,9.44-6.75,0-9.48-2.82-9.48-6.48ZM330.6,407.53c3.97,0,7.06-3.26,8.03-7.63.13-.79.18-1.5.18-2.03,0-3.26-2.12-5.38-5.51-5.38-4.63,0-8.07,4.32-8.07,9.62,0,3.66,2.21,5.43,5.38,5.43Z"/>
    <path class="cls-1" d="M347.58,406.83c0-.79.09-1.63.26-2.74l3.13-14.69h4.41l-3.04,14.29c-.13.71-.22,1.5-.22,2.03,0,2.12,1.23,3.26,3.57,3.26,3.4,0,6.26-3.35,7.32-7.46l2.56-12.13h4.37l-3.79,17.91c-.4,1.99-.49,3.26-.49,4.9h-4.15c0-1.5.09-2.38.44-4.01-1.94,2.78-4.59,4.54-8.03,4.54-3.97,0-6.35-2.25-6.35-5.91Z"/>
    <path class="cls-1" d="M377.93,380.45h4.41l-6.75,31.76h-4.41l6.75-31.76Z"/>
    <path class="cls-1" d="M396.76,408.9c-1.94,2.43-4.68,3.84-8.16,3.84-4.37,0-6.93-2.51-6.93-5.87s1.99-8.47,16.98-8.6l.04-.26c.22-.97.31-1.5.31-2.21,0-2.25-1.19-3.49-4.19-3.49s-5.25,1.28-5.96,4.1h-4.41c1.01-5.03,5.12-7.54,10.72-7.54s8.21,2.43,8.21,6.44c0,1.06-.09,1.94-.35,3.18l-1.81,8.29c-.4,1.99-.57,3.31-.75,5.43h-4.06c.09-1.32.18-2.29.35-3.31ZM389.97,409.39c4.41,0,7.01-3.31,7.76-6.79l.31-1.5c-9.13.49-11.78,2.69-11.78,5.47,0,1.59,1.15,2.82,3.71,2.82Z"/>
    <path class="cls-1" d="M410.48,389.4h4.06c-.04,1.19-.18,2.25-.53,4.01,2.12-3.26,4.54-4.28,6.66-4.28.4,0,.97.04,1.41.18l-.97,4.23c-.26-.04-.62-.04-.97-.04-3.26,0-6,1.9-7.37,7.41l-2.38,11.29h-4.41l3.79-17.91c.44-1.99.66-3.44.71-4.9Z"/>
    <path class="cls-1" d="M432.97,401.36c0-1.28.13-2.87.44-4.28,1.99-9.22,8.56-15.35,17.47-15.35,7.32,0,11.56,4.54,11.56,11.34,0,1.32-.18,2.96-.49,4.41-1.94,9.13-8.56,15.26-17.38,15.26-7.41,0-11.6-4.59-11.6-11.38ZM445.28,408.99c5.91,0,10.5-4.46,12.04-11.65.31-1.37.44-2.74.44-3.84,0-5.07-2.69-8.03-7.63-8.03-5.91,0-10.5,4.46-12.09,11.73-.31,1.28-.4,2.65-.4,3.79,0,5.03,2.74,7.98,7.63,7.98Z"/>
    <path class="cls-1" d="M468.62,408.11l-.84,4.1h-4.15l6.75-31.76h4.37l-2.65,12.4c2.07-2.47,4.85-3.97,8.38-3.97,4.81,0,7.85,3.26,7.85,8.56,0,1.01-.22,2.87-.49,4.06-1.54,7.1-6.53,11.25-12.35,11.25-3.66,0-5.96-1.72-6.88-4.63ZM475.45,409.08c4.06,0,7.01-3.18,8.03-7.94.22-1.01.35-2.21.35-3.04,0-3.62-1.94-5.56-5.07-5.56-3.79,0-7.28,3.35-8.34,8.29-.18.79-.27,1.81-.27,2.56,0,3.71,2.07,5.69,5.29,5.69Z"/>
    <path class="cls-1" d="M497.02,380.45h4.41l-6.75,31.76h-4.41l6.75-31.76Z"/>
    <path class="cls-1" d="M505.71,389.4h4.32l-4.85,22.81h-4.32l4.85-22.81ZM509.28,379.96c1.59,0,2.87,1.24,2.87,2.82s-1.28,2.87-2.87,2.87c-1.68,0-2.91-1.28-2.91-2.87s1.24-2.82,2.91-2.82Z"/>
    <path class="cls-1" d="M512.06,404.14c0-7.94,5.56-15.26,12.79-15.26,3.79,0,6.04,1.76,6.88,4.59.31-1.32.66-2.47,1.19-4.06h4.19c-.71,2.25-1.1,3.62-1.54,5.69l-5.47,25.45h-4.37l2.51-11.73c-1.99,2.51-4.68,3.93-8.25,3.93-4.63,0-7.94-3.18-7.94-8.6ZM521.59,409.12c3.79,0,7.15-3,8.29-8.29.18-.84.26-2.07.26-2.82,0-3.49-1.72-5.51-5.12-5.51-5.21,0-8.51,5.74-8.51,10.94,0,3.48,1.99,5.69,5.07,5.69Z"/>
    <path class="cls-1" d="M539.06,406.83c0-.79.09-1.63.26-2.74l3.13-14.69h4.41l-3.04,14.29c-.13.71-.22,1.5-.22,2.03,0,2.12,1.23,3.26,3.57,3.26,3.4,0,6.26-3.35,7.32-7.46l2.56-12.13h4.37l-3.79,17.91c-.4,1.99-.49,3.26-.49,4.9h-4.15c0-1.5.09-2.38.44-4.01-1.94,2.78-4.59,4.54-8.03,4.54-3.97,0-6.35-2.25-6.35-5.91Z"/>
    <path class="cls-1" d="M563.54,403.7c0-1.32.13-2.65.4-3.84,1.32-6.53,6.18-10.98,12.57-10.98,5.56,0,9,3.53,9,9.22,0,1.41-.13,2.74-.57,4.15h-17.03c-.04.35-.04.75-.04,1.1,0,3.66,1.85,5.87,5.65,5.87,2.96,0,4.85-1.37,5.87-3.66h4.46c-1.5,4.28-4.94,7.19-10.76,7.19-6.44,0-9.53-4.23-9.53-9.04ZM581.05,398.93c.09-.49.09-.84.09-1.63,0-2.78-1.68-4.9-5.07-4.9-3.66,0-6.4,2.43-7.54,6.53h12.53Z"/>
  </g>
  <g>
    <path class="cls-1" d="M690.03,90.85h-5.21l-15.75-21.88v21.88h-5.25v-29.95h5.25l15.75,21.7v-21.7h5.21v29.95Z"/>
    <path class="cls-1" d="M694.79,79.65c0-7.37,4.59-12.13,11.12-12.13,7.01,0,10.94,4.85,10.85,12.22,0,.75-.04,1.28-.04,1.28h-16.72c.44,4.37,2.82,6.26,6.09,6.26,2.74,0,4.32-1.24,4.94-3.09h5.29c-.97,4.01-4.5,7.19-10.19,7.19-7.19,0-11.34-4.81-11.34-11.73ZM711.38,77.44c-.26-3.88-2.29-5.87-5.47-5.87-2.96,0-5.21,1.94-5.78,5.87h11.25Z"/>
    <path class="cls-1" d="M730.17,86.97c3.13,0,5.12-2.21,5.12-5.6v-13.32h5.25v22.81h-4.76v-3.31c-1.5,2.47-3.93,3.84-7.06,3.84-5.03,0-7.98-2.96-7.98-8.38v-14.95h5.25v14.29c0,2.96,1.46,4.63,4.19,4.63Z"/>
    <path class="cls-1" d="M755.84,86.62c.79,0,1.37-.04,1.85-.13v4.32c-1.01.22-1.76.31-3.04.31-4.81,0-7.06-2.74-7.06-7.5v-11.21h-3.66v-4.37h3.66v-6.44h5.25v6.44h4.85v4.37h-4.85v10.9c0,2.29,1.06,3.31,3,3.31Z"/>
    <path class="cls-1" d="M766.43,71.8c1.06-2.56,3.13-3.97,5.78-3.97.44,0,1.01.04,1.5.18v4.63c-.35-.04-.79-.04-1.32-.04-3.66,0-5.51,1.72-5.51,5.34v12.92h-5.25v-22.81h4.81v3.75Z"/>
    <path class="cls-1" d="M791.53,87.9c-1.76,2.38-4.23,3.49-7.32,3.49-4.76,0-8.16-2.87-8.16-6.79s2.43-6.49,7.98-7.06l7.06-.71v-1.32c0-2.78-1.72-4.06-4.46-4.06s-4.37,1.1-4.81,3.62h-5.29c.66-4.94,4.28-7.54,10.1-7.54s9.66,2.56,9.66,8.25v15.09h-4.76v-2.96ZM785.49,87.68c3.57,0,5.56-2.29,5.56-5.74v-1.85l-5.82.75c-2.69.31-3.79,1.68-3.79,3.49s1.5,3.35,4.06,3.35Z"/>
    <path class="cls-1" d="M806.75,90.85h-5.25v-31.76h5.25v31.76Z"/>
  </g>
  <g>
    <path class="cls-1" d="M886.15,60.9h7.63l8.07,25.01,5.29-25.01h5.21l-6.35,29.95h-7.94l-7.85-24.53-5.16,24.53h-5.25l6.35-29.95Z"/>
    <path class="cls-1" d="M913.06,82.16c0-1.37.13-2.69.4-3.93,1.46-6.4,6.26-10.72,12.75-10.72,5.69,0,9.35,3.57,9.35,9.31,0,1.37-.18,2.74-.57,4.19h-16.72c-.04.31-.04.57-.04.88,0,3.44,1.68,5.47,5.16,5.47,2.6,0,4.28-1.19,5.21-3.18h5.29c-1.5,4.24-5.03,7.19-10.98,7.19-6.53,0-9.84-4.28-9.84-9.22ZM930.26,77.44c.04-.44.09-.79.09-1.46,0-2.51-1.54-4.41-4.63-4.41-3.35,0-5.73,2.16-6.84,5.87h11.38Z"/>
    <path class="cls-1" d="M938.33,85.43c0-.79.04-1.68.31-2.91l3.09-14.47h5.25l-2.96,13.9c-.18.75-.26,1.46-.26,2.03,0,1.94,1.19,3,3.35,3,3.09,0,5.6-2.87,6.57-6.57l2.6-12.35h5.25l-3.75,17.69c-.49,2.12-.57,3.49-.57,5.12h-4.85c0-1.46.09-2.34.44-3.88-1.94,2.69-4.54,4.41-7.94,4.41-4.15,0-6.53-2.38-6.53-5.96Z"/>
    <path class="cls-1" d="M965.02,85.96c0-.71.09-1.46.26-2.34l2.38-11.21h-3.66l.93-4.37h3.66l1.37-6.44h5.25l-1.37,6.44h4.85l-.93,4.37h-4.85l-2.34,10.85c-.09.57-.18,1.06-.18,1.46,0,1.32.84,2.03,2.34,2.03.79,0,1.37-.13,2.03-.26l-.88,4.19c-1.15.26-1.99.44-3.26.44-3.4,0-5.6-1.85-5.6-5.16Z"/>
    <path class="cls-1" d="M982.31,68.05h4.76c-.04,1.15-.13,2.21-.49,3.84,2.03-3,4.5-4.06,6.62-4.06.49,0,1.01.04,1.54.18l-1.1,4.94c-.31-.04-.79-.09-1.24-.09-3.4,0-5.96,1.9-7.15,7.59h-.04l-2.21,10.41h-5.25l3.75-17.69c.49-2.12.71-3.66.79-5.12Z"/>
    <path class="cls-1" d="M1008.47,87.63c-1.94,2.38-4.63,3.75-8.07,3.75-4.28,0-6.88-2.47-6.88-5.78,0-3.49,1.94-8.56,16.72-8.73.22-1.06.35-1.63.35-2.34,0-2.03-1.15-3.18-3.84-3.18s-4.68,1.19-5.34,3.71h-5.34c1.1-5.07,5.38-7.54,11.03-7.54s8.69,2.47,8.69,6.53c0,.97-.09,1.94-.35,3.22l-1.76,8.12c-.44,2.12-.66,3.48-.79,5.47h-4.81c.09-1.28.18-2.21.4-3.22ZM1002.25,87.68c3.93,0,6.31-2.91,7.01-6.31l.31-1.37c-8.38.35-10.72,2.56-10.72,5.07,0,1.46,1.1,2.6,3.4,2.6Z"/>
    <path class="cls-1" d="M1024.61,59.09h5.25l-6.75,31.76h-5.25l6.75-31.76Z"/>
    <path class="cls-1" d="M1040.22,79.96c0-1.28.13-3,.44-4.46,1.99-9.13,8.56-15.13,17.73-15.13,7.68,0,11.96,4.68,11.96,11.43,0,1.28-.13,3.09-.44,4.54-1.94,9.09-8.6,15.04-17.65,15.04-7.85,0-12.04-4.72-12.04-11.42ZM1053.06,86.97c5.65,0,9.88-4.15,11.34-10.9.26-1.28.4-2.78.4-3.84,0-4.76-2.43-7.46-7.23-7.46-5.69,0-9.88,4.1-11.38,11.03-.26,1.24-.4,2.65-.4,3.71,0,4.76,2.51,7.46,7.28,7.46Z"/>
    <path class="cls-1" d="M1076.62,87.15l-.79,3.71h-4.85l6.75-31.76h5.25l-2.56,12.04c2.03-2.29,4.72-3.62,7.98-3.62,4.94,0,7.98,3.26,7.98,8.6,0,1.01-.22,2.78-.49,3.97-1.59,7.15-6.79,11.29-12.53,11.29-3.48,0-5.73-1.54-6.75-4.23ZM1083.19,87.1c3.71,0,6.44-2.91,7.41-7.41.22-1.01.35-1.99.35-2.78,0-3.31-1.76-5.12-4.63-5.12-3.57,0-6.71,3.04-7.68,7.68-.18.84-.26,1.72-.26,2.47,0,3.4,1.9,5.16,4.81,5.16Z"/>
    <path class="cls-1" d="M1104.49,59.09h5.25l-6.75,31.76h-5.25l6.75-31.76Z"/>
    <path class="cls-1" d="M1113.36,68.05h5.25l-4.85,22.81h-5.25l4.85-22.81ZM1117.42,58.21c1.85,0,3.26,1.37,3.26,3.18s-1.41,3.18-3.26,3.18-3.26-1.41-3.26-3.18,1.37-3.18,3.26-3.18Z"/>
    <path class="cls-1" d="M1120.02,82.74c0-8.16,5.56-15.22,12.88-15.22,3.66,0,5.91,1.59,6.84,4.37.26-1.19.57-2.29,1.1-3.84h4.9c-.66,2.16-1.1,3.57-1.5,5.6l-5.47,25.54h-5.25l2.43-11.34c-1.94,2.29-4.5,3.53-7.85,3.53-4.59,0-8.07-3.18-8.07-8.65ZM1130.03,87.15c3.57,0,6.57-2.78,7.59-7.68.18-.84.26-1.94.26-2.69,0-3.13-1.5-5.03-4.68-5.03-4.72,0-7.76,5.25-7.76,10.23,0,3.18,1.76,5.16,4.59,5.16Z"/>
    <path class="cls-1" d="M1147.15,85.43c0-.79.04-1.68.31-2.91l3.09-14.47h5.25l-2.96,13.9c-.18.75-.26,1.46-.26,2.03,0,1.94,1.19,3,3.35,3,3.09,0,5.6-2.87,6.57-6.57l2.6-12.35h5.25l-3.75,17.69c-.49,2.12-.57,3.49-.57,5.12h-4.85c0-1.46.09-2.34.44-3.88-1.94,2.69-4.54,4.41-7.94,4.41-4.15,0-6.53-2.38-6.53-5.96Z"/>
    <path class="cls-1" d="M1171.89,82.16c0-1.37.13-2.69.4-3.93,1.46-6.4,6.26-10.72,12.75-10.72,5.69,0,9.35,3.57,9.35,9.31,0,1.37-.18,2.74-.57,4.19h-16.72c-.04.31-.04.57-.04.88,0,3.44,1.68,5.47,5.16,5.47,2.6,0,4.28-1.19,5.21-3.18h5.29c-1.5,4.24-5.03,7.19-10.98,7.19-6.53,0-9.84-4.28-9.84-9.22ZM1189.1,77.44c.04-.44.09-.79.09-1.46,0-2.51-1.54-4.41-4.63-4.41-3.35,0-5.73,2.16-6.84,5.87h11.38Z"/>
  </g>
  <g>
    <path class="cls-1" d="M697.05,155.13h-6.04v-24.48l-8.21,24.48h-4.81l-8.25-24.53v24.53h-6.09v-29.95h9.48l7.28,21.48,7.19-21.48h9.44v29.95Z"/>
    <path class="cls-1" d="M701.54,143.88c0-7.23,4.63-12.09,11.29-12.09,7.15,0,11.21,4.94,11.07,12.26,0,.71-.04,1.32-.04,1.32h-16.5c.4,4.15,2.6,5.87,5.69,5.87,2.51,0,3.93-1.1,4.59-2.78h5.78c-1.01,4.06-4.63,7.19-10.41,7.19-7.28,0-11.47-4.85-11.47-11.78ZM718,141.59c-.31-3.44-2.16-5.38-5.12-5.38-2.78,0-4.85,1.76-5.43,5.38h10.54Z"/>
    <path class="cls-1" d="M726.6,143.75c0-7.68,4.63-11.96,10.06-11.96,3.18,0,5.6,1.19,7.15,3.4v-11.82h5.82v31.76h-5.25v-3.84c-1.46,2.87-4.01,4.37-7.5,4.37-5.43,0-10.28-4.37-10.28-11.91ZM738.16,150.98c3.31,0,5.65-2.78,5.65-7.23s-2.38-7.28-5.65-7.28c-3.44,0-5.69,2.87-5.69,7.28s2.38,7.23,5.69,7.23Z"/>
    <path class="cls-1" d="M757.7,122.18c2.03,0,3.44,1.54,3.44,3.44s-1.41,3.44-3.44,3.44-3.53-1.59-3.53-3.44,1.41-3.44,3.53-3.44ZM754.7,132.32h5.82v22.81h-5.82v-22.81Z"/>
    <path class="cls-1" d="M775.25,150.81c2.87,0,4.76-2.03,4.76-5.16v-13.32h5.82v22.81h-5.21v-3.44c-1.54,2.6-4.01,3.97-7.1,3.97-5.12,0-8.07-2.96-8.07-8.38v-14.95h5.82v14.16c0,2.74,1.41,4.32,3.97,4.32Z"/>
    <path class="cls-1" d="M815.75,136.82c-2.51,0-4.5,1.68-4.5,4.94v13.37h-5.82v-13.1c0-3.57-1.76-5.21-4.23-5.21s-4.46,1.63-4.46,4.94v13.37h-5.82v-22.81h5.25v3.18c1.46-2.47,3.93-3.71,6.97-3.71,3.26,0,5.78,1.5,7.1,4.19,1.54-2.78,4.15-4.19,7.37-4.19,4.98,0,8.21,3.35,8.21,9.04v14.29h-5.82v-13.1c0-3.57-1.76-5.21-4.23-5.21Z"/>
  </g>
  <g>
    <path class="cls-1" d="M885.97,125.18h9.48l2.82,22.01,12.04-22.01h9.53l-6.35,29.95h-6.04l5.25-24.62-13.46,24.62h-5.29l-3.04-24.53-5.21,24.53h-6.09l6.35-29.95Z"/>
    <path class="cls-1" d="M920.29,146.31c0-1.41.13-2.69.44-3.93,1.5-6.4,6.35-10.59,12.84-10.59,5.82,0,9.62,3.57,9.62,9.4,0,1.32-.18,2.73-.62,4.19h-16.54v.75c0,3.26,1.54,5.16,4.81,5.16,2.43,0,3.97-1.01,4.76-2.82h5.91c-1.5,4.19-5.07,7.19-11.16,7.19-6.53,0-10.06-4.28-10.06-9.35ZM937.27,141.59c.09-.35.09-.71.09-1.28,0-2.38-1.41-4.15-4.32-4.15s-5.25,1.94-6.31,5.43h10.54Z"/>
    <path class="cls-1" d="M945.3,147.01c0-8.29,5.51-15.22,12.92-15.22,3.31,0,5.38,1.24,6.44,3.4l2.51-11.82h5.82l-5.65,26.51c-.49,2.21-.57,3.57-.57,5.25h-5.34c0-1.37.09-2.25.4-3.75-1.99,2.78-4.76,4.28-8.43,4.28-4.59,0-8.12-3.13-8.12-8.65ZM955.62,150.98c3.44,0,6.18-2.69,7.1-7.23.13-.79.22-1.85.22-2.56,0-2.91-1.37-4.72-4.32-4.72-4.59,0-7.32,5.16-7.32,9.75,0,2.87,1.63,4.76,4.32,4.76Z"/>
    <path class="cls-1" d="M976.18,132.32h5.82l-4.85,22.81h-5.82l4.85-22.81ZM980.59,122.18c2.03,0,3.44,1.54,3.44,3.44s-1.41,3.44-3.44,3.44-3.53-1.59-3.53-3.44,1.41-3.44,3.53-3.44Z"/>
    <path class="cls-1" d="M983.54,149.66c0-.75.09-1.68.35-3.04l3.04-14.29h5.82l-2.91,13.67c-.13.71-.22,1.41-.22,1.94,0,1.85,1.1,2.87,3.22,2.87,2.82,0,5.07-2.51,5.96-5.91l2.69-12.57h5.82l-3.71,17.56c-.49,2.21-.57,3.57-.57,5.25h-5.34c0-1.37.09-2.29.35-3.75-1.85,2.65-4.46,4.28-7.85,4.28-4.19,0-6.66-2.43-6.66-6Z"/>
    <path class="cls-1" d="M1039.61,140.09c0-2.25-1.19-3.31-3.18-3.31-2.65,0-4.81,1.94-5.78,5.38l-2.78,12.97h-5.82l2.82-13.19c.13-.71.18-1.32.18-1.9,0-2.25-1.19-3.26-3.18-3.26-2.73,0-5.03,2.16-5.87,5.91l-2.65,12.44h-5.82l3.71-17.56c.49-2.21.75-3.75.79-5.25h5.29c-.04,1.06-.13,2.07-.4,3.49,2.07-2.74,4.85-4.01,7.9-4.01,3.22,0,5.43,1.5,6.13,4.1,2.21-2.69,5.12-4.1,8.42-4.1,4.06,0,6.4,2.29,6.4,6.31,0,.79-.09,1.72-.31,2.65l-3.04,14.38h-5.82l2.78-13.19c.18-.71.22-1.28.22-1.85Z"/>
    <path class="cls-1" d="M1058.93,144.19c0-1.28.13-3.09.44-4.54,1.94-9.04,8.51-15,17.82-15,7.94,0,12.31,4.81,12.31,11.47,0,1.24-.18,3.22-.49,4.68-1.94,9-8.65,14.87-17.78,14.87-8.12,0-12.31-4.85-12.31-11.47ZM1072.07,150.85c5.51,0,9.44-4.01,10.85-10.45.22-1.24.4-2.78.4-3.79,0-4.59-2.29-7.15-7.01-7.15-5.51,0-9.4,3.93-10.85,10.59-.31,1.19-.4,2.65-.4,3.71,0,4.5,2.38,7.1,7.01,7.1Z"/>
    <path class="cls-1" d="M1095.94,151.64l-.75,3.49h-5.34l6.75-31.76h5.78l-2.51,11.82c2.03-2.16,4.68-3.4,7.81-3.4,5.03,0,7.98,3.31,7.98,8.6,0,1.06-.22,2.73-.49,3.97-1.59,7.15-6.88,11.29-12.62,11.29-3.35,0-5.6-1.41-6.62-4.01ZM1102.29,150.98c3.44,0,6.09-2.74,7.06-7.06.22-1.01.26-1.85.26-2.6,0-3.13-1.63-4.85-4.32-4.85-3.4,0-6.26,2.87-7.19,7.28-.18.88-.26,1.68-.26,2.38,0,3.18,1.76,4.85,4.46,4.85Z"/>
    <path class="cls-1" d="M1123.51,123.37h5.82l-6.75,31.76h-5.82l6.75-31.76Z"/>
    <path class="cls-1" d="M1132.59,132.32h5.82l-4.85,22.81h-5.82l4.85-22.81ZM1137,122.18c2.03,0,3.44,1.54,3.44,3.44s-1.41,3.44-3.44,3.44-3.53-1.59-3.53-3.44,1.41-3.44,3.53-3.44Z"/>
    <path class="cls-1" d="M1139.61,147.01c0-8.29,5.51-15.22,12.92-15.22,3.53,0,5.82,1.46,6.75,4.15.31-1.06.62-2.16,1.06-3.62h5.38c-.66,2.12-1.06,3.57-1.5,5.56l-5.47,25.63h-5.82l2.38-11.12c-1.9,2.12-4.41,3.26-7.59,3.26-4.59,0-8.12-3.13-8.12-8.65ZM1149.93,151.03c3.44,0,6.13-2.69,7.1-7.28.13-.79.22-1.9.22-2.6,0-2.91-1.37-4.68-4.32-4.68-4.46,0-7.32,4.9-7.32,9.75,0,2.91,1.68,4.81,4.32,4.81Z"/>
    <path class="cls-1" d="M1166.82,149.66c0-.75.09-1.68.35-3.04l3.04-14.29h5.82l-2.91,13.67c-.13.71-.22,1.41-.22,1.94,0,1.85,1.1,2.87,3.22,2.87,2.82,0,5.07-2.51,5.96-5.91l2.69-12.57h5.82l-3.71,17.56c-.49,2.21-.57,3.57-.57,5.25h-5.34c0-1.37.09-2.29.35-3.75-1.85,2.65-4.46,4.28-7.85,4.28-4.19,0-6.66-2.43-6.66-6Z"/>
    <path class="cls-1" d="M1191.87,146.31c0-1.41.13-2.69.44-3.93,1.5-6.4,6.35-10.59,12.84-10.59,5.82,0,9.62,3.57,9.62,9.4,0,1.32-.18,2.73-.62,4.19h-16.54v.75c0,3.26,1.54,5.16,4.81,5.16,2.43,0,3.97-1.01,4.76-2.82h5.91c-1.5,4.19-5.07,7.19-11.16,7.19-6.53,0-10.06-4.28-10.06-9.35ZM1208.86,141.59c.09-.35.09-.71.09-1.28,0-2.38-1.41-4.15-4.32-4.15s-5.25,1.94-6.31,5.43h10.54Z"/>
  </g>
  <g>
    <path class="cls-1" d="M663.43,189.45h13.81c7.01,0,10.23,3.22,10.23,7.98,0,2.78-1.32,5.16-4.63,6.18,4.37,1.1,5.91,3.49,5.91,7.1,0,4.76-3.4,8.69-10.63,8.69h-14.69v-29.95ZM676.71,201.54c2.6,0,3.97-1.46,3.97-3.44,0-2.21-1.5-3.49-4.15-3.49h-6.31v6.93h6.48ZM677.33,214.24c3,0,4.63-1.28,4.63-3.88s-1.81-3.71-4.59-3.71h-7.15v7.59h7.1Z"/>
    <path class="cls-1" d="M691.44,208.02c0-7.37,5.16-11.96,11.82-11.96s11.82,4.54,11.82,11.96-5.16,11.91-11.82,11.91-11.82-4.5-11.82-11.91ZM703.27,214.73c3,0,5.21-2.51,5.21-6.71s-2.16-6.75-5.25-6.75-5.25,2.51-5.25,6.75,2.21,6.71,5.29,6.71Z"/>
    <path class="cls-1" d="M725.14,219.41h-6.57v-31.76h6.57v31.76Z"/>
    <path class="cls-1" d="M728.63,208.02c0-7.81,4.72-11.96,10.1-11.96,3,0,5.34,1.06,6.93,3.04v-11.47h6.57v31.76h-5.87v-3.49c-1.5,2.69-3.97,4.01-7.32,4.01-5.38,0-10.41-4.32-10.41-11.91ZM740.54,214.77c3.04,0,5.12-2.6,5.12-6.75s-2.07-6.79-5.12-6.79-5.25,2.65-5.25,6.79,2.16,6.75,5.25,6.75Z"/>
  </g>
  <g>
    <path class="cls-1" d="M885.75,189.45h14.25c5.73,0,8.29,3.18,8.29,6.75,0,3.22-1.28,6.44-6.26,8.03,3.09.88,4.63,3.04,4.63,5.73,0,5.21-3.93,9.44-10.98,9.44h-16.28l6.35-29.95ZM894.71,214.24c3.49,0,5.21-1.9,5.21-4.37,0-1.85-1.28-3.22-4.19-3.22h-6.84l-1.59,7.59h7.41ZM896.47,201.54c3.22,0,4.81-1.85,4.81-3.97,0-1.72-1.1-2.96-3.93-2.96h-5.91l-1.46,6.93h6.48Z"/>
    <path class="cls-1" d="M909.57,210.85c0-8.43,5.78-14.78,14.03-14.78,6.62,0,10.23,3.71,10.23,9.09,0,8.43-5.73,14.78-14.03,14.78-6.62,0-10.23-3.71-10.23-9.09ZM920.38,214.73c4.63,0,6.75-5.16,6.75-9.22,0-2.6-1.54-4.24-4.06-4.24-4.68,0-6.79,5.16-6.79,9.22,0,2.65,1.54,4.24,4.1,4.24Z"/>
    <path class="cls-1" d="M941.42,187.64h6.57l-6.75,31.76h-6.57l6.75-31.76Z"/>
    <path class="cls-1" d="M946.8,211.24c0-8.47,5.51-15.17,12.97-15.17,3.18,0,5.21,1.1,6.31,3.04l2.43-11.47h6.57l-5.6,26.34c-.48,2.34-.62,3.75-.62,5.43h-5.91c0-1.37.09-2.25.35-3.66-1.98,2.73-4.72,4.19-8.25,4.19-4.54,0-8.25-3.13-8.25-8.69ZM957.52,214.77c3.26,0,5.65-2.56,6.53-6.75.13-.79.22-1.76.22-2.47,0-2.6-1.19-4.32-3.97-4.32-4.28,0-6.71,4.85-6.71,9.22,0,2.51,1.46,4.32,3.93,4.32Z"/>
    <path class="cls-1" d="M984.47,208.42c0-1.28.13-3.22.44-4.63,1.94-9.04,8.51-14.87,18.04-14.87,8.21,0,12.62,4.9,12.62,11.51,0,1.24-.13,3.35-.44,4.81-1.94,8.96-8.69,14.69-17.95,14.69-8.51,0-12.71-4.94-12.71-11.51ZM998.06,214.6c5.29,0,8.91-3.75,10.23-9.88.22-1.15.4-2.78.4-3.75,0-4.37-2.07-6.71-6.71-6.71-5.29,0-8.87,3.71-10.28,10.01-.26,1.15-.35,2.65-.35,3.66,0,4.28,2.21,6.66,6.71,6.66Z"/>
    <path class="cls-1" d="M1022.23,216.14l-.71,3.26h-5.96l6.75-31.76h6.53l-2.47,11.51c2.03-1.99,4.54-3.09,7.5-3.09,5.16,0,8.07,3.31,8.07,8.65,0,1.06-.22,2.65-.49,3.88-1.63,7.19-7.06,11.34-12.75,11.34-3.18,0-5.43-1.32-6.49-3.79ZM1028.32,214.77c3.18,0,5.69-2.51,6.57-6.62.22-1.01.26-1.72.26-2.38,0-2.96-1.5-4.54-3.93-4.54-3.22,0-5.82,2.65-6.66,6.79-.18.93-.22,1.63-.22,2.29,0,2.91,1.59,4.46,3.97,4.46Z"/>
    <path class="cls-1" d="M1049.4,187.64h6.57l-6.75,31.76h-6.57l6.75-31.76Z"/>
    <path class="cls-1" d="M1058.75,196.6h6.57l-4.85,22.81h-6.57l4.85-22.81ZM1063.56,186.14c2.21,0,3.75,1.63,3.75,3.66s-1.54,3.75-3.75,3.75-3.79-1.68-3.79-3.75,1.5-3.66,3.79-3.66Z"/>
    <path class="cls-1" d="M1066.07,211.24c0-8.47,5.51-15.17,12.97-15.17,3.4,0,5.73,1.37,6.75,4.06.22-1.06.53-2.07.97-3.53h6c-.66,2.07-1.06,3.53-1.46,5.51l-5.51,25.67h-6.57l2.34-10.81c-1.9,1.94-4.28,2.96-7.23,2.96-4.54,0-8.25-3.13-8.25-8.69ZM1076.79,214.82c3.26,0,5.65-2.56,6.53-6.79.13-.79.22-1.81.22-2.51,0-2.6-1.19-4.28-3.97-4.28-4.06,0-6.71,4.5-6.71,9.22,0,2.65,1.5,4.37,3.93,4.37Z"/>
    <path class="cls-1" d="M1093.51,213.89c0-.75.04-1.68.4-3.18l3-14.12h6.53l-2.82,13.32c-.18.75-.26,1.41-.26,1.94,0,1.68,1.06,2.65,3,2.65,2.51,0,4.41-1.9,5.29-4.81l2.78-13.1h6.57l-3.71,17.38c-.53,2.34-.62,3.75-.62,5.43h-5.96c0-1.32.09-2.21.4-3.66-1.85,2.65-4.41,4.19-7.81,4.19-4.32,0-6.79-2.51-6.79-6.04Z"/>
    <path class="cls-1" d="M1118.87,210.41c0-1.41.13-2.65.49-3.97,1.54-6.26,6.4-10.37,12.92-10.37,5.91,0,9.93,3.62,9.93,9.48,0,1.32-.22,2.69-.62,4.19h-16.32v.62c0,3,1.46,4.81,4.41,4.81,2.16,0,3.49-.88,4.24-2.43h6.62c-1.5,4.15-5.16,7.19-11.38,7.19-6.57,0-10.28-4.32-10.28-9.53ZM1135.59,205.73c.04-.26.09-.62.09-1.1,0-2.16-1.28-3.75-3.97-3.75s-4.72,1.68-5.69,4.85h9.57Z"/>
  </g>
  <g>
    <path class="cls-1" d="M691.49,283.66h-7.5v-12.48h-13.28v12.48h-7.5v-29.95h7.5v11.38h13.28v-11.38h7.5v29.95Z"/>
    <path class="cls-1" d="M695.19,272.36c0-7.01,4.59-12.04,11.73-12.04s11.78,5.16,11.6,12.35c0,.71-.04,1.46-.04,1.46h-16.1c.4,3.62,2.16,4.85,4.81,4.85,1.94,0,3.04-.75,3.62-1.99h7.15c-1.1,4.15-5.07,7.19-11.03,7.19-7.5,0-11.73-4.98-11.73-11.82ZM711.16,269.85c-.26-2.47-1.63-4.28-4.19-4.28-2.29,0-3.88,1.41-4.46,4.28h8.65Z"/>
    <path class="cls-1" d="M736.3,280.88c-1.68,2.25-4.15,3.31-7.1,3.31-5.16,0-8.38-2.96-8.38-6.84s2.16-6.57,8.34-7.19l6.4-.62v-1.01c0-2.07-1.24-3.22-3.35-3.22s-3.26.88-3.71,2.56h-7.28c.66-4.85,4.32-7.54,10.9-7.54s10.63,2.69,10.63,8.69v14.65h-6.44v-2.78ZM731.23,279.69c2.91,0,4.24-2.03,4.24-4.9v-1.28l-4.46.62c-1.9.26-2.96,1.37-2.96,2.82,0,1.54,1.15,2.74,3.18,2.74Z"/>
    <path class="cls-1" d="M744.68,260.85h7.54l5.21,16.28,4.81-16.28h7.41l-7.94,22.81h-8.73l-8.29-22.81Z"/>
    <path class="cls-1" d="M781.56,291.95h-7.63l4.81-10.32-8.91-20.78h7.72l4.85,13.54,5.03-13.54h7.28l-13.15,31.1Z"/>
  </g>
  <g>
    <path class="cls-1" d="M901.72,271.17h-12.4l-2.65,12.48h-7.5l6.35-29.95h7.5l-2.43,11.38h12.4l2.43-11.38h7.5l-6.35,29.95h-7.5l2.65-12.48Z"/>
    <path class="cls-1" d="M912.61,274.48c0-1.46.13-2.65.49-3.97,1.63-6.22,6.49-10.19,13.06-10.19,6.04,0,10.23,3.66,10.23,9.57,0,1.28-.22,2.69-.66,4.24h-16.06v.4c0,2.82,1.32,4.46,4.01,4.46,1.9,0,3.04-.66,3.71-1.99h7.32c-1.5,4.1-5.25,7.19-11.6,7.19s-10.5-4.32-10.5-9.71ZM929.07,269.85c.04-.22.09-.53.09-.93,0-1.94-1.19-3.35-3.62-3.35s-4.15,1.41-5.07,4.28h8.6Z"/>
    <path class="cls-1" d="M951.96,280.61c-1.9,2.34-4.46,3.57-7.76,3.57-4.1,0-6.88-2.34-6.88-5.65,0-3.71,1.94-8.78,16.19-8.91.22-.97.35-1.46.35-2.16,0-1.37-1.01-2.29-2.96-2.29-2.16,0-3.44.97-3.97,2.69h-7.41c1.15-5.16,5.87-7.54,11.69-7.54,6.26,0,9.75,2.51,9.75,6.79,0,.75-.09,1.85-.35,3.18l-1.68,7.76c-.53,2.47-.75,3.93-.88,5.6h-6.44c.09-1.19.18-1.99.35-3.04ZM947.15,279.69c2.74,0,4.46-1.85,5.21-4.85l.31-1.37c-6.66.09-8.25,2.16-8.25,4.06,0,1.28.97,2.16,2.73,2.16Z"/>
    <path class="cls-1" d="M964.66,260.85h7.32l1.76,16.28,8.25-16.28h7.63l-12.79,22.81h-8.73l-3.44-22.81Z"/>
    <path class="cls-1" d="M994.22,281.19l-4.41-20.34h7.41l2.21,13.19,7.68-13.19h7.59l-19.76,31.1h-7.63l6.93-10.76Z"/>
    <path class="cls-1" d="M1023.2,272.63c0-1.28.13-3.35.44-4.76,1.94-8.95,8.51-14.69,18.22-14.69,8.56,0,13.01,5.03,13.01,11.56,0,1.24-.13,3.53-.44,4.94-1.94,8.91-8.73,14.51-18.13,14.51-8.91,0-13.1-5.07-13.1-11.56ZM1037.23,278.32c5.07,0,8.38-3.53,9.62-9.26.22-1.1.4-2.82.4-3.75,0-4.1-1.9-6.26-6.4-6.26-5.12,0-8.29,3.44-9.66,9.44-.26,1.1-.35,2.65-.35,3.62,0,4.01,2.03,6.22,6.4,6.22Z"/>
    <path class="cls-1" d="M1061.66,280.66l-.62,3h-6.57l6.75-31.76h7.28l-2.38,11.25c1.94-1.85,4.41-2.82,7.15-2.82,5.29,0,8.16,3.35,8.16,8.69,0,1.06-.22,2.56-.49,3.79-1.63,7.23-7.23,11.38-12.88,11.38-3.04,0-5.25-1.19-6.4-3.53ZM1067.57,278.54c2.82,0,5.21-2.29,6.04-6.18.22-1.01.26-1.54.26-2.21,0-2.69-1.37-4.15-3.57-4.15-3.04,0-5.29,2.38-6.09,6.26-.18.97-.22,1.59-.22,2.21,0,2.65,1.41,4.06,3.57,4.06Z"/>
    <path class="cls-1" d="M1088.48,251.9h7.28l-6.75,31.76h-7.28l6.75-31.76Z"/>
    <path class="cls-1" d="M1098.1,260.85h7.28l-4.85,22.81h-7.28l4.85-22.81ZM1103.3,250.04c2.43,0,4.06,1.76,4.06,3.97s-1.63,4.01-4.06,4.01-4.1-1.81-4.1-4.01,1.59-3.97,4.1-3.97Z"/>
    <path class="cls-1" d="M1105.77,275.45c0-8.6,5.47-15.13,13.01-15.13,3.26,0,5.6,1.19,6.66,3.79.26-.97.53-1.94.93-3.26h6.57c-.62,1.99-1.01,3.53-1.41,5.43l-5.51,25.81h-7.28l2.29-10.63c-1.85,1.81-4.15,2.74-6.97,2.74-4.5,0-8.29-3.09-8.29-8.73ZM1116.89,278.54c3.04,0,5.12-2.38,5.91-6.26.13-.75.22-1.72.22-2.38,0-2.34-1.01-3.88-3.57-3.88-3.71,0-6.13,4.1-6.13,8.6,0,2.38,1.37,3.93,3.57,3.93Z"/>
    <path class="cls-1" d="M1133.34,278.1c0-.75.04-1.72.4-3.35l2.96-13.9h7.28l-2.78,13.01c-.18.75-.26,1.37-.26,1.9,0,1.54,1.01,2.47,2.82,2.47,2.21,0,3.84-1.54,4.63-4.1l2.82-13.28h7.28l-3.66,17.2c-.53,2.43-.66,3.88-.66,5.6h-6.53c0-1.28.09-2.16.4-3.53-1.9,2.56-4.41,4.06-7.76,4.06-4.41,0-6.93-2.6-6.93-6.09Z"/>
    <path class="cls-1" d="M1159.06,274.48c0-1.46.13-2.65.49-3.97,1.63-6.22,6.49-10.19,13.06-10.19,6.04,0,10.23,3.66,10.23,9.57,0,1.28-.22,2.69-.66,4.24h-16.06v.4c0,2.82,1.32,4.46,4.01,4.46,1.9,0,3.04-.66,3.71-1.99h7.32c-1.5,4.1-5.25,7.19-11.6,7.19s-10.5-4.32-10.5-9.71ZM1175.51,269.85c.04-.22.09-.53.09-.93,0-1.94-1.19-3.35-3.62-3.35s-4.15,1.41-5.07,4.28h8.6Z"/>
  </g>
  <g>
    <path class="cls-1" d="M663.08,318.02h15.31c6.88,0,10.41,3.4,10.41,7.98,0,2.65-1.41,5.25-5.29,6.26,4.72,1.1,6.35,3.57,6.35,6.97,0,4.68-3.44,8.73-10.59,8.73h-16.19v-29.95ZM676.89,329.89c2.25,0,3.31-1.37,3.31-3.04,0-1.81-1.15-3.18-3.35-3.18h-5.29v6.22h5.34ZM677.46,342.29c2.6,0,3.84-1.28,3.84-3.49s-1.46-3.35-3.79-3.35h-5.96v6.84h5.91Z"/>
    <path class="cls-1" d="M701.24,347.98h-8.03v-31.76h8.03v31.76Z"/>
    <path class="cls-1" d="M719.72,345.24c-1.68,2.12-4.15,3.26-7.06,3.26-5.16,0-8.29-2.96-8.29-6.79s2.65-6.66,8.56-7.24l6.04-.57v-1.24c0-1.81-1.1-2.87-3-2.87s-3.04.84-3.35,2.38h-7.85c.53-4.63,4.15-7.54,11.12-7.54,7.59,0,10.98,3.22,10.98,8.73v14.6h-7.15v-2.74ZM715.13,343.74c2.43,0,3.66-1.68,3.66-3.97v-1.85l-3.44.44c-2.07.31-3.18,1.32-3.18,2.82s1.15,2.56,2.96,2.56Z"/>
    <path class="cls-1" d="M729.6,336.6c0-7.19,4.94-11.96,12.13-11.96s10.68,3.66,11.56,8.69h-7.85c-.57-2.34-1.94-3-3.62-3-2.38,0-4.1,1.9-4.1,6.22s1.68,6.26,4.15,6.26c1.68,0,3-.71,3.62-3.04h7.76c-.93,5.29-4.41,8.73-11.51,8.73s-12.13-4.72-12.13-11.91Z"/>
    <path class="cls-1" d="M764.31,337.66v10.32h-8.03v-31.76h8.03v16.85l6.84-7.9h8.73l-8.78,9.97,9.04,12.84h-9l-6.84-10.32Z"/>
  </g>
  <g>
    <path class="cls-1" d="M885.53,318.02h15.09c6.35,0,9,3.26,9,6.93,0,3.22-1.5,6.49-6.79,7.85,3.79.93,5.12,3.18,5.12,5.82,0,5.16-3.88,9.35-10.94,9.35h-17.82l6.35-29.95ZM894.53,342.29c3.35,0,4.85-1.68,4.85-3.93,0-1.72-1.15-2.91-3.71-2.91h-5.38l-1.46,6.84h5.69ZM896.52,329.89c3.04,0,4.37-1.68,4.37-3.62,0-1.54-1.06-2.6-3.53-2.6h-4.54l-1.32,6.22h5.03Z"/>
    <path class="cls-1" d="M916.06,316.22h8.03l-6.75,31.76h-8.03l6.75-31.76Z"/>
    <path class="cls-1" d="M936.52,345.11c-2.16,2.43-4.81,3.4-7.85,3.4-4.32,0-6.88-2.51-6.88-5.73,0-4.06,2.51-8.91,16.28-8.91.18-.79.31-1.32.31-2.03,0-1.24-.93-2.12-2.69-2.12-1.99,0-3.18.88-3.62,2.47h-7.9c.93-4.68,5.25-7.54,11.91-7.54s10.06,2.65,10.06,6.84c0,.93-.13,2.03-.53,3.88l-1.5,7.01c-.57,2.65-.79,4.1-.84,5.6h-7.1c.04-.88.13-1.76.35-2.87ZM932.11,343.74c2.21,0,3.97-1.28,4.68-4.41l.35-1.46c-6.18.09-7.63,1.94-7.63,3.79,0,1.19.93,2.07,2.6,2.07Z"/>
    <path class="cls-1" d="M948.03,339.42c0-8.38,5.69-14.78,14.65-14.78,6.57,0,9.92,3.22,9.92,7.9,0,.26,0,.49-.04.79h-7.9c.04-.31.04-.49.04-.71,0-1.28-.79-2.29-2.65-2.29-4.06,0-5.87,4.99-5.87,8.91,0,2.43,1.37,3.57,3.26,3.57s3.22-1.1,3.88-3.04h7.9c-1.28,5.21-5.47,8.73-12.62,8.73s-10.59-3.71-10.59-9.09Z"/>
    <path class="cls-1" d="M979.35,316.22h8.03l-3.53,16.54,8.07-7.59h9.57l-11.12,10.15,6.48,12.66h-9l-5.03-10.41-2.21,10.41h-8.03l6.75-31.76Z"/>
    <path class="cls-1" d="M1010.05,336.95c0-1.24.22-3.26.53-4.68,2.03-9.22,8.65-14.78,18.31-14.78,8.82,0,13.32,4.76,13.32,11.56,0,1.24-.22,3.35-.53,4.76-1.99,9.18-8.69,14.69-18.22,14.69-9,0-13.41-4.76-13.41-11.56ZM1024.3,342.2c4.46,0,7.5-2.78,8.87-9,.26-1.32.4-2.78.4-3.75,0-3.75-1.94-5.65-5.56-5.65-4.5,0-7.46,2.73-8.87,9.09-.31,1.28-.4,2.69-.4,3.71,0,3.71,2.03,5.6,5.56,5.6Z"/>
    <path class="cls-1" d="M1049.84,344.58l-.75,3.4h-7.41l6.75-31.76h8.03l-2.43,11.47c1.94-2.07,4.37-3.04,7.15-3.04,4.68,0,7.9,3.13,7.9,8.6,0,1.06-.22,2.78-.49,4.01-1.59,7.28-7.23,11.25-12.48,11.25-3.22,0-5.38-1.28-6.26-3.93ZM1055.18,342.55c2.47,0,4.54-2.07,5.43-5.96.22-1.01.26-1.5.26-2.29,0-2.34-1.15-3.66-3.13-3.66-2.56,0-4.68,1.94-5.51,5.91-.18,1.01-.22,1.68-.22,2.34,0,2.29,1.19,3.66,3.18,3.66Z"/>
    <path class="cls-1" d="M1076.13,316.22h8.03l-6.75,31.76h-8.03l6.75-31.76Z"/>
    <path class="cls-1" d="M1086.28,325.17h8.07l-4.85,22.81h-8.07l4.85-22.81ZM1091.88,313.88c2.6,0,4.41,1.99,4.41,4.19s-1.81,4.24-4.41,4.24-4.41-2.03-4.41-4.24,1.72-4.19,4.41-4.19Z"/>
    <path class="cls-1" d="M1094.61,339.82c0-8.78,5.51-15.17,12.84-15.17,3.35,0,5.51,1.28,6.35,3.93.26-1.01.57-2.03,1.01-3.4h7.41c-.62,1.99-1.01,3.53-1.41,5.43l-5.47,25.72h-8.07l2.25-10.5c-1.72,1.81-3.97,2.69-6.84,2.69-4.32,0-8.07-3.04-8.07-8.69ZM1106.04,342.55c2.51,0,4.5-1.94,5.34-6,.18-.88.26-1.76.26-2.43,0-2.29-1.15-3.49-3.13-3.49-3.66,0-5.74,4.24-5.74,8.21,0,2.34,1.24,3.71,3.26,3.71Z"/>
    <path class="cls-1" d="M1122.31,342.55c0-.75.09-1.68.35-2.96l3.09-14.42h8.03l-2.91,13.81c-.13.53-.22,1.01-.22,1.5,0,1.28.84,2.07,2.43,2.07,2.07,0,3.53-1.5,4.15-3.88l2.87-13.5h8.07l-3.66,17.2c-.49,2.34-.66,3.75-.62,5.6h-7.46c0-1.19.09-2.16.31-3.31-1.94,2.51-4.46,3.84-7.59,3.84-4.28,0-6.84-2.16-6.84-5.96Z"/>
    <path class="cls-1" d="M1148.6,338.98c0-1.63.18-3.26.75-4.94,1.72-5.56,6.4-9.4,12.88-9.4s10.46,3.88,10.46,9.57c0,1.19-.22,2.74-.62,4.24h-15.75c-.04.31-.04.57-.04.88,0,2.51,1.19,3.93,3.57,3.93,1.81,0,2.78-.66,3.44-1.94h7.76c-1.54,4.19-5.21,7.19-11.87,7.19s-10.59-4.1-10.59-9.53ZM1164.75,334.17c.04-.35.09-.71.09-1.1,0-1.94-.93-3.18-3.04-3.18s-3.75,1.41-4.68,4.28h7.63Z"/>
  </g>
  <g>
    <path class="cls-1" d="M661.71,403.3h8.91c.22,2.03,1.63,3.26,4.81,3.26,3.44,0,4.54-1.24,4.54-2.65,0-1.28-.66-2.12-2.51-2.43l-7.19-1.19c-5.56-.93-8.25-4.01-8.25-8.91s4.28-9.66,12.7-9.66,12.75,3.4,13.37,8.91h-8.82c-.35-1.81-1.81-2.78-4.59-2.78s-4.1,1.15-4.1,2.65c0,1.24.71,1.94,2.43,2.21l7.28,1.1c5.82.88,8.25,4.24,8.25,9.04,0,5.47-4.01,9.88-13.15,9.88s-13.19-3.53-13.67-9.44Z"/>
    <path class="cls-1" d="M702.82,406.78c1.81,0,3-1.59,3-4.01v-13.37h8.73v22.81h-7.76v-3.35c-1.54,2.65-3.93,3.88-7.01,3.88-4.98,0-8.21-2.56-8.21-8.47v-14.87h8.73v14.73c0,1.59.79,2.65,2.51,2.65Z"/>
    <path class="cls-1" d="M727.13,409.38v11.12h-8.73v-31.1h8.21v3.75c1.32-3.13,3.75-4.28,6.97-4.28,4.9,0,9.79,4.15,9.79,11.96s-4.9,11.91-9.79,11.91c-2.96,0-5.12-1.1-6.44-3.35ZM730.83,406.61c2.16,0,3.79-1.59,3.79-5.82s-1.59-5.78-3.75-5.78-3.75,1.59-3.75,5.78,1.54,5.82,3.71,5.82Z"/>
    <path class="cls-1" d="M745.43,400.74c0-6.62,4.28-11.87,12.22-11.87s11.91,5.51,11.91,11.87c0,.66,0,1.1-.09,1.94h-15.44c.31,3.48,1.54,4.81,3.75,4.81,1.72,0,2.43-.53,3-1.94h7.98c-1.15,4.37-4.99,7.19-11.12,7.19-7.72,0-12.22-4.9-12.22-12ZM760.96,398.58c-.04-2.91-1.15-4.46-3.31-4.46-1.81,0-3.18,1.19-3.57,4.46h6.88Z"/>
    <path class="cls-1" d="M780.15,393.46c1.28-3.09,3.66-4.28,6.26-4.28.71,0,1.06.09,1.46.22v7.01c-.75-.04-1.32-.09-2.12-.09-2.82,0-4.46,1.76-4.46,4.46v11.43h-8.73v-22.81h7.59v4.06Z"/>
  </g>
  <g>
    <path class="cls-1" d="M879.44,404.22c0-.31.04-.62.04-.93h9.04c-.18,1.99.93,3.26,4.28,3.26s4.72-1.32,4.72-2.96c0-1.28-.75-2.16-2.29-2.56l-6.71-1.76c-4.41-1.15-6.4-4.06-6.4-7.54,0-6.22,6.22-10.01,14.25-10.01s12.31,3.35,12.31,8.07c0,.26,0,.49-.04.84h-8.82c-.18-1.9-1.68-2.78-4.37-2.78-3,0-4.32,1.37-4.32,2.82,0,1.1.53,1.94,2.03,2.29l6.75,1.68c4.63,1.15,6.79,3.93,6.79,7.68,0,6.31-5.65,10.41-14.65,10.41-8.25,0-12.62-3.04-12.62-8.51Z"/>
    <path class="cls-1" d="M908.95,406.87c0-.75.09-1.63.31-2.6l3.18-14.87h8.73l-3.09,14.47c-.09.4-.13.75-.13,1.19,0,1.01.71,1.72,2.03,1.72,1.99,0,3.22-1.5,3.79-3.75l2.91-13.63h8.73l-3.66,17.2c-.49,2.29-.66,3.66-.57,5.6h-8.25c0-1.1.09-2.12.26-3.18-2.03,2.51-4.5,3.71-7.5,3.71-4.19,0-6.75-1.81-6.75-5.87Z"/>
    <path class="cls-1" d="M943.76,409.34l-2.38,11.16h-8.73l5.43-25.5c.53-2.43.84-4.06.88-5.6h8.12c-.04,1.1-.13,2.21-.44,3.79,1.98-3.18,4.63-4.32,7.9-4.32,4.15,0,7.68,2.96,7.68,8.56,0,1.06-.22,2.78-.53,4.01-1.76,7.32-7.28,11.29-12.17,11.29-3,0-4.9-1.1-5.74-3.4ZM948.12,406.61c2.16,0,4.06-1.59,4.94-5.82.22-1.06.31-1.59.31-2.34,0-2.25-.93-3.44-2.78-3.44-2.25,0-4.1,1.68-4.98,5.65l-.09.4c-.18.93-.26,1.68-.26,2.34,0,2.12,1.01,3.22,2.87,3.22Z"/>
    <path class="cls-1" d="M963.65,403.34c0-1.76.26-3.79.97-5.73,1.81-5.03,6.35-8.73,12.79-8.73,7.19,0,10.63,4.06,10.63,9.57,0,1.1-.22,2.74-.62,4.24h-15.48c-.04.44-.09.88-.09,1.32,0,2.21,1.1,3.49,3.18,3.49,1.76,0,2.6-.66,3.22-1.94h8.16c-1.59,4.24-5.12,7.19-12.04,7.19s-10.72-3.93-10.72-9.4ZM979.53,398.4c.09-.49.13-.88.13-1.24,0-1.94-.75-3.04-2.6-3.04s-3.4,1.41-4.28,4.28h6.75Z"/>
    <path class="cls-1" d="M992.85,389.4h8.12c-.04,1.06-.13,2.12-.4,3.57,1.76-2.74,3.88-3.75,6.35-3.75.53,0,1.06.04,1.54.18l-1.54,7.15c-.48-.09-.75-.13-1.32-.13-3.26,0-5.38,1.41-6.44,5.82l-2.12,9.97h-8.73l3.66-17.2c.53-2.43.84-4.06.88-5.6Z"/>
    <path class="cls-1" d="M1017.99,401.18c0-1.24.26-3.22.57-4.63,2.07-9.4,8.73-14.82,18.35-14.82,9.09,0,13.63,4.5,13.63,11.56,0,1.24-.26,3.22-.57,4.63-2.07,9.4-8.69,14.82-18.31,14.82-9.09,0-13.68-4.5-13.68-11.56ZM1032.42,406.03c3.93,0,6.75-2.07,8.16-8.78.31-1.46.44-2.69.44-3.75,0-3.44-1.99-5.07-4.81-5.07-3.97,0-6.75,2.07-8.21,8.78-.31,1.46-.44,2.69-.44,3.75,0,3.44,2.03,5.07,4.85,5.07Z"/>
    <path class="cls-1" d="M1058.97,408.28l-.84,3.93h-8.21l6.75-31.76h8.73l-2.47,11.69c1.9-2.34,4.28-3.26,7.1-3.26,4.15,0,7.68,2.96,7.68,8.56,0,1.06-.22,2.96-.49,4.19-1.54,7.32-7.23,11.12-12.13,11.12-3.4,0-5.47-1.41-6.13-4.46ZM1063.78,406.47c2.16,0,4.01-1.81,4.9-5.69.22-1.06.26-1.5.26-2.43,0-2.03-.93-3.22-2.78-3.22-2.12,0-4.06,1.59-4.94,5.65-.22,1.01-.26,1.68-.26,2.43,0,1.99.97,3.26,2.82,3.26Z"/>
    <path class="cls-1" d="M1084.78,380.45h8.73l-6.75,31.76h-8.73l6.75-31.76Z"/>
    <path class="cls-1" d="M1095.45,389.4h8.73l-4.85,22.81h-8.73l4.85-22.81ZM1101.36,377.71c2.73,0,4.68,2.16,4.68,4.37s-1.94,4.46-4.68,4.46-4.68-2.25-4.68-4.46,1.81-4.37,4.68-4.37Z"/>
    <path class="cls-1" d="M1104.4,404.05c0-8.91,5.56-15.17,12.66-15.17,3.49,0,5.47,1.32,6.09,4.1.26-1.1.57-2.16,1.1-3.57h8.12c-.62,1.99-1.01,3.53-1.41,5.43l-5.47,25.67h-8.73l2.25-10.5c-1.68,1.9-3.84,2.74-6.75,2.74-4.15,0-7.85-3.04-7.85-8.69ZM1116.05,406.47c2.03,0,3.97-1.5,4.85-5.74.22-.97.31-1.76.31-2.47,0-2.21-1.28-3.13-2.73-3.13-3.66,0-5.38,4.32-5.38,7.9,0,2.29,1.1,3.44,2.96,3.44Z"/>
    <path class="cls-1" d="M1132.19,406.87c0-.75.09-1.63.31-2.6l3.18-14.87h8.73l-3.09,14.47c-.09.4-.13.75-.13,1.19,0,1.01.71,1.72,2.03,1.72,1.99,0,3.22-1.5,3.79-3.75l2.91-13.63h8.73l-3.66,17.2c-.49,2.29-.66,3.66-.57,5.6h-8.25c0-1.1.09-2.12.26-3.18-2.03,2.51-4.5,3.71-7.5,3.71-4.19,0-6.75-1.81-6.75-5.87Z"/>
    <path class="cls-1" d="M1158.97,403.34c0-1.76.26-3.79.97-5.73,1.81-5.03,6.35-8.73,12.79-8.73,7.19,0,10.63,4.06,10.63,9.57,0,1.1-.22,2.74-.62,4.24h-15.48c-.04.44-.09.88-.09,1.32,0,2.21,1.1,3.49,3.18,3.49,1.76,0,2.6-.66,3.22-1.94h8.16c-1.59,4.24-5.12,7.19-12.04,7.19s-10.72-3.93-10.72-9.4ZM1174.85,398.4c.09-.49.13-.88.13-1.24,0-1.94-.75-3.04-2.6-3.04s-3.4,1.41-4.28,4.28h6.75Z"/>
  </g>
</svg>