<svg xmlns="http://www.w3.org/2000/svg" viewBox="0 0 1366 768"><defs><style>.cls-1{fill:#00d800;}.cls-2{fill:#fdfaf5;}</style></defs><g id="Layer_1" data-name="Layer 1"><rect class="cls-1" x="-1" width="1366" height="768"/><path class="cls-2" d="M271.45,88.81c1.63-2.86,4.17-7.39,4.17-9.41,0-2.19-.36-3.53-6.9-7.23l.73-2,27.4-6.89,1.81,1.18-53.89,93.74c-3.81,6.55-5.8,9.74-5.8,11.93,0,2,1.63,3.19,4.17,3.19,6.17,0,12.34-5.54,17.06-12.43l2.54.84c-7.44,13.1-16.88,22.85-29.94,22.85-6.35,0-9.62-2.86-9.62-7.56s2.54-9.08,6.17-15.29Z"/><path class="cls-2" d="M285.05,151.47a28.38,28.38,0,0,0-1.27,8.74c0,8.9,3.81,14.28,12.34,14.28,8,0,15.42-5.55,21.23-13.61l2.54.84c-8.35,15.45-19.78,22.68-31.57,22.68-12.7,0-18.87-8.4-18.87-19.32,0-21,23-50.4,48.44-50.4,7.26,0,15.42,2.69,15.42,10.41C333.31,139.71,313.72,148.11,285.05,151.47Zm1.45-4.37c25.4-2.52,33.75-12.26,33.75-19.48,0-3.7-2.54-5.55-7.26-5.55C302.11,122.07,290.86,134.17,286.5,147.1Z"/><path class="cls-2" d="M467.76,173.31c4.17,0,8-3.86,13.06-10.58l2.54.84c-4.9,8.9-14.33,21-25.76,21-5.63,0-8.71-3.36-8.71-8.4,0-3,1.27-6.72,3.63-10.75l15.6-26c3.63-6,4.9-9.25,4.9-11.09,0-1.68-.91-2.36-2.54-2.36-4.17,0-12,11.09-15.24,14.45l-2.36-1.51c13.43-16.46,20.32-24.19,29.57-24.19,3.63,0,6.17,2.35,6.17,5.88,0,4.2-2.54,9.91-6,15.79l-14.16,23.86c-2.17,3.52-3.81,7-3.81,9.57C464.67,171.8,465.58,173.31,467.76,173.31ZM503.5,75.87c3.81,0,5.26,2.35,5.26,5,0,6-6.53,13.1-12.88,13.1-3.81,0-5.62-2.35-5.62-5.37C490.26,82.93,495.88,75.87,503.5,75.87Z"/><path class="cls-2" d="M570,117c.54,2.35-.73,6.22-4.54,8.06L553,123.58a17.72,17.72,0,0,1,2.9,9.92c0,14.95-12,31.24-34.11,31.24a40.48,40.48,0,0,1-14.33-2.18l-2.36,1.85c-2,1.34-3.81,2.68-3.81,4.87,0,9.07,37.38,4.2,37.38,23.85,0,12.6-14.7,23.52-40.46,23.52-20.33,0-30.3-5.54-30.3-13.94,0-8.9,10.52-13.94,23.95-19.15v-1c-4.54-.84-8.53-4.7-6.54-9.74l18.33-12.27c-4-2.69-6.53-7-6.53-14.11,0-10.08,10.7-30.91,35.92-30.91A33.51,33.51,0,0,1,543.89,117Zm-72.4,68.38c-10.52,3.86-16.15,8.4-16.15,14.61,0,6.72,6.9,11.26,18.87,11.26,13.79,0,22.68-6.22,22.68-13.78C523,192,518.49,188.77,497.62,185.41Zm44.82-55.11c0-6.21-3.81-8.9-10.34-8.9-14,0-21.41,19.49-21.41,28.06,0,7.55,5.08,9.4,10,9.4C535.54,158.86,542.44,139.38,542.44,130.3Z"/><path class="cls-2" d="M614.58,173.31c4,0,9.43-5.21,15.06-14.62l2.17,1.52c-5.08,9.24-14.87,24.36-25.94,24.36-5.44,0-9.25-3.19-9.25-8.74,0-12.6,24.13-34.27,24.13-44.52,0-3-1.82-4.7-5.45-4.7-13.6,0-31.75,27.89-38.46,40.15a111.52,111.52,0,0,0-8,16.8h-15.6C561.23,170,573,150.8,579.92,139c3.45-5.88,4.72-8.91,4.72-10.58a2.26,2.26,0,0,0-2.54-2.53c-3.45,0-9.07,7.06-15.24,14.45l-2.18-1.68c9.62-11.42,18.51-24,29.21-24,4.36,0,6.35,2.86,6.35,5.88,0,6.21-8,17.64-15.24,27.72h1.27c13.25-18.15,24.86-33.6,38.29-33.6,7.25,0,11.43,3.53,11.43,9.57,0,16.13-24.5,34.28-24.5,45.53C611.49,172.13,612.58,173.31,614.58,173.31Z"/><path class="cls-2" d="M654.22,151.47a28.38,28.38,0,0,0-1.27,8.74c0,8.9,3.81,14.28,12.34,14.28,8,0,15.42-5.55,21.23-13.61l2.54.84c-8.35,15.45-19.78,22.68-31.57,22.68-12.7,0-18.87-8.4-18.87-19.32,0-21,23-50.4,48.44-50.4,7.26,0,15.42,2.69,15.42,10.41C702.48,139.71,682.89,148.11,654.22,151.47Zm1.45-4.37c25.4-2.52,33.75-12.26,33.75-19.48,0-3.7-2.54-5.55-7.26-5.55C671.28,122.07,660,134.17,655.67,147.1Z"/><path class="cls-2" d="M704.93,166.42c6.35,0,8.89,4.71,8.89,8.91,0,16-17.6,27.55-33.38,29.56-2,.34-2.36-.67-2-2.35,15.42-2.69,23.77-10.92,23.77-19,0-3.19-6.35-3.19-6.35-9.07C695.86,169.78,700.21,166.42,704.93,166.42Z"/><path class="cls-2" d="M868.59,154l-6.54,23.69c-10.16,4.53-22.31,7.56-38.82,7.56-36.84,0-58.79-21.17-58.79-55.44,0-31.59,20.86-57.79,63.5-57.79a124.89,124.89,0,0,1,35.75,5.2l.72,28.23-6.89.17C853.89,86.29,841.19,79.9,824,79.9c-28.3,0-42.82,20-42.82,49.23,0,27.38,15.42,47.88,44.09,47.88,16.69,0,30.12-6.55,36.65-24.7Z"/><path class="cls-2" d="M892,151.47a28.38,28.38,0,0,0-1.27,8.74c0,8.9,3.81,14.28,12.34,14.28,8,0,15.42-5.55,21.23-13.61l2.54.84c-8.35,15.45-19.78,22.68-31.57,22.68-12.7,0-18.87-8.4-18.87-19.32,0-21,23-50.4,48.44-50.4,7.26,0,15.42,2.69,15.42,10.41C940.25,139.71,920.66,148.11,892,151.47Zm1.45-4.37c25.4-2.52,33.75-12.26,33.75-19.48,0-3.7-2.54-5.55-7.26-5.55C909.05,122.07,897.8,134.17,893.44,147.1Z"/><path class="cls-2" d="M988.35,173.31c4,0,9.44-5.21,15.06-14.62l2.18,1.52c-5.08,9.24-14.88,24.36-26,24.36-5.44,0-9.25-3.19-9.25-8.74,0-12.6,24.13-34.27,24.13-44.52,0-3-1.81-4.7-5.44-4.7-13.61,0-31.76,27.89-38.47,40.15a112.66,112.66,0,0,0-8,16.8H927C935,170,946.8,150.8,953.7,139c3.44-5.88,4.71-8.91,4.71-10.58a2.25,2.25,0,0,0-2.54-2.53c-3.44,0-9.07,7.06-15.24,14.45l-2.17-1.68c9.61-11.42,18.5-24,29.21-24,4.35,0,6.35,2.86,6.35,5.88,0,6.21-8,17.64-15.24,27.72h1.27c13.24-18.15,24.85-33.6,38.28-33.6,7.26,0,11.43,3.53,11.43,9.57,0,16.13-24.49,34.28-24.49,45.53C985.27,172.13,986.36,173.31,988.35,173.31Z"/><path class="cls-2" d="M1027.61,173.31c6.35,0,12.52-5.21,17.42-12.43l2.54.84c-5.08,9.07-14.88,22.85-30.12,22.85-5.81,0-9.43-2.36-9.43-7.9,0-3.53,2.17-7.9,3.62-10.42l25-43.67h-12.15c-.37-2.36.9-4.54,4.17-5.88l16-.85L1051,95.53c5.44-1.85,11.79-1.68,14.15,0l-11.43,20h19.78c0,2.86-1.64,5.21-5.27,6.89l-18.14.33-23.22,40.32c-1.27,2.36-3.27,5.55-3.27,7.56C1023.62,172.13,1024.89,173.31,1027.61,173.31Z"/><path class="cls-2" d="M1083.38,148.45c14.7-19.66,23.95-33.77,35.57-33.77,2.72,0,4.35.84,4.35,3.19,0,5.21-3.63,10.92-7.07,14.45-17.79,0-35,20-44.82,39.48a125.13,125.13,0,0,0-5.26,11.76h-15.61c8.71-14.62,21-34.94,27.76-46.37,2.54-4.37,3.63-7.22,3.63-8.73a2.42,2.42,0,0,0-2.54-2.53c-3.26,0-8.16,5.88-15.24,14.45L1062,138.7c10.71-12.93,19.06-24,29-24,3.09,0,6.54,1.34,6.54,6.21,0,5.38-8.35,17.31-15.43,27.56Z"/><path class="cls-2" d="M1127.76,151.47a28.38,28.38,0,0,0-1.27,8.74c0,8.9,3.81,14.28,12.34,14.28,8,0,15.42-5.55,21.23-13.61l2.54.84c-8.35,15.45-19.78,22.68-31.57,22.68-12.7,0-18.87-8.4-18.87-19.32,0-21,23-50.4,48.44-50.4,7.26,0,15.43,2.69,15.43,10.41C1176,139.71,1156.43,148.11,1127.76,151.47Zm1.45-4.37c25.41-2.52,33.75-12.26,33.75-19.48,0-3.7-2.54-5.55-7.25-5.55C1144.82,122.07,1133.57,134.17,1129.21,147.1Z"/><path class="cls-2" d="M324.38,337.89v-5.18c12.28-1.92,15.24-3.11,14.21-13.76l-7.26-66.9-29.74,85.84h-4.3l-31.67-84.5-6.06,77.25,14.8,2.07v5.18H241.94v-5.18c7-1.48,9.77-3,10.51-12.43l6.22-70.74-8.14-2.66V241.1H276l26.2,72.37,25.31-72.37h26.78v5.78L345,249.54l8.29,81.1,10.8,2.07v5.18Z"/><path class="cls-2" d="M394,287.57c5.33-6.06,11.25-12.13,19.69-12.13a22.49,22.49,0,0,1,.89,7.1,21.14,21.14,0,0,1-1.78,8.44,13.38,13.38,0,0,0-8-2.37,25,25,0,0,0-11.1,3c-.3,14.21-.45,27.23,0,40.4l12.58,1v5c-4.15-.15-13-.44-17.17-.44-7.4,0-10.06.14-17.32.29v-4.73l4-1c5.33-1.33,5.77-6.07,5.77-15.69s.15-19.39-.15-27.38l-9.62-4.14v-4.29c3.7-2.37,18.06-5.18,22.65-5.18l1.63,1.77Z"/><path class="cls-2" d="M425.27,339.67c-4.59,0-7.4-3.41-7.4-7.7,0-4.73,3.55-9.32,8.44-9.32,4.44,0,7.4,3,7.4,7.84C433.71,335.82,429.86,339.67,425.27,339.67Z"/><path class="cls-2" d="M547.07,249.09l22.79,65.12L589,249l-15.24-2.22V241.1h32.12V247c-7.4,1.48-9.48,5-11.4,11.84l-23.53,79h-6.37l-24-65.56-23.24,65.56h-6.8L479.44,249l-8-2.07V241.1h39.07v5.78l-16,2.07,23.39,66,18.94-52.54-4.59-13.32L524,246.58V241.7c7.4,0,29.16,0,36.85-.6v5.48Z"/><path class="cls-2" d="M631.22,332.12l10.36.89v5H609.47V333.3l4.14-.88c4.15-.89,5.77-3.85,5.77-12.73V289.94l-9.17-5v-4.29c3.55-2.07,15.09-5.18,19.68-5.18l2.22,2.22c-.44,2.22-.89,7.4-.89,19.83Zm-7-87c-4.89,0-8.58,4.59-8.58,9.32,0,4.44,2.81,7.85,7.39,7.85,4.74,0,8.59-3.85,8.59-9.18C631.67,248.06,628.71,245.1,624.27,245.1Z"/><path class="cls-2" d="M668.52,234.29a110.13,110.13,0,0,0-.89,14.06V332l12,.89v5c-5.77-.15-9.62-.29-13.62-.29-7.25,0-13.31.29-19.38.29v-4.73l3.4-.89c5.92-1.48,5.62-7,5.62-18.35V246.43l-9-5v-4.15c3.55-2.07,15.09-5.17,19.68-5.17Z"/><path class="cls-2" d="M705.89,234.29a110.13,110.13,0,0,0-.89,14.06V332l12,.89v5c-5.77-.15-9.62-.29-13.62-.29-7.25,0-13.32.29-19.38.29v-4.73l3.4-.89c5.92-1.48,5.62-7,5.62-18.35V246.43l-9-5v-4.15c3.55-2.07,15.09-5.17,19.68-5.17Z"/><path class="cls-2" d="M718,308.59c0-19.68,13.61-33.15,30.78-33.15,17.91,0,28.71,12,28.71,29.74,0,20.28-13.76,34.19-30.63,34.19C729.26,339.37,718,327.09,718,308.59ZM748.5,281.8c-11.69,0-18.21,12-18.21,26.2,0,12.87,5.48,24.27,17.17,24.27,11.25,0,17-13.17,17-26.94C764.48,292.31,759.15,281.8,748.5,281.8Z"/><path class="cls-2" d="M809.31,339.37c-13.47,0-19.39-8.58-19.39-21.9,0-12.43.59-24,.74-29.75l-9.47-2.51v-5.33L803,275.73c-.6,14.8-1.19,25.75-1.19,35.23,0,11.54,3.11,18.64,13,18.64a27.21,27.21,0,0,0,13.62-4.14c-.15-9,.3-27.82.44-37.74l-11.69-2.51v-5.33l24.13-4.15c-.89,20.43-1,34.63-1,43.22,0,6.95,1.33,10.51,8.58,10.51a34.11,34.11,0,0,0,3.56-.3l.44,4.88-21.61,3.85-2.37-9.17C824,335.23,817.15,339.37,809.31,339.37Z"/><path class="cls-2" d="M873.6,321.76c0,2.66,3,3.7,9.77,3.7,5,0,11.39.15,14.2.15,11.1,0,16.73,4.59,16.73,12.87,0,15.69-15.84,28.27-33.45,28.27-12.88,0-23.38-5.48-23.38-16.43,0-6.51,4.58-11.54,11.39-14.35v-1c-5.18-.59-9.77-4.88-9.77-9.62l12.58-9.62c-8.43-2.66-14.5-9-14.5-18.94,0-12,11-21.31,25-21.31a28.32,28.32,0,0,1,16,4.44L912.82,274c1.77,2.07,2.66,6.51,2.07,9.62l-11.25,1.18a18.87,18.87,0,0,1,3.7,11.1c0,14.06-11.84,21.31-25,21.46a39.16,39.16,0,0,1-5.92-.44C874.93,318.21,873.6,319.54,873.6,321.76Zm.29,14.5c-3.1,3.11-5.92,7.4-5.92,11.84,0,7.85,5.78,12.44,14.36,12.44,11.4,0,20.28-5.78,20.28-15.25,0-5.92-4.3-8.58-11.1-8.58h-9.92A76.14,76.14,0,0,1,873.89,336.26Zm8.29-25.3c7.85,0,13.32-4.89,13.32-13.62,0-8.43-4.44-15.54-13.91-15.54-8.73,0-13,6.51-13,14.36C868.57,304.44,874,311,882.18,311Z"/><path class="cls-2" d="M941.68,233.85c-.3,12.58-.15,38.78-.15,51.06,6.66-4.88,13.61-9.47,22.05-9.47,14.8,0,18.94,10.51,18.94,23.53,0,1.92-.14,26.19.15,33.15l9.62.89v4.88c-5.62-.15-8-.29-12-.29-9,0-11.39.14-18.94.29v-4.73l3.4-.74c5.78-1.19,5.92-6.81,5.92-18.5V299.56c0-9.18-4.88-14.95-14.2-14.95-5.92,0-10.51,2.37-15,5.33v42l11.1.89v5c-5.77-.15-9.62-.29-13.62-.29-7.1,0-12.87.14-18.64.29v-4.73l3.1-.89c5.92-1.63,6.22-6.51,6.22-18.35V246.43l-9.32-4.88v-4.3c3.55-2.07,15.09-5.17,19.68-5.17Z"/><path class="cls-2" d="M992.63,241.55v-4.3c3.55-2.07,15-5.17,19.54-5.17l2.22,2.21c-.45,2.22-.89,13.32-.89,21.61v27.68c4.88-3.7,11.69-8.14,18.94-8.14,16.87,0,25.61,12.73,25.61,30.48,0,17.47-10.07,33.45-29.75,33.45a31.3,31.3,0,0,1-18.8-6.66l-5,5.92-3.11-.74c.15-13,.3-31.37.3-50.76,0-17-.15-29.45-.15-40.7Zm20.87,74.59c0,10.65,6.51,17.16,14.65,17.16,12.43,0,18.35-10.95,18.35-24.42,0-13.31-6.66-24.41-20-24.41-5,0-9.76,2.07-13,3.84Z"/><path class="cls-2" d="M1111.62,289.5c1-2.81.74-4.89-2.22-5.48l-8-1.33v-5h27.68v5l-9.18,2.07-20.13,53.13c-5.77,15.24-19.53,27.08-33.3,27.08-2.51-2.51-3-9.91-1-13.31a54,54,0,0,0,10.06,1c9.18,0,14.8-8.73,18.06-16.28h-4.29l-17.76-45.14c-1.48-3.7-3.26-6.21-7.26-7.25l-4.58-1.18v-5.18H1090v5l-8.58,1.63,16.28,42Z"/><path class="cls-2" d="M266.62,475.57c-8,15.62-23.77,29.4-49.17,29.4-20.5,0-41-9.08-41-35.28,0-36.29,32.66-78,90.91-78,11.25,0,27.4,2.36,35,5.21l-16,33.27h-4.17c1.63-5.55,2.9-11.26,2.9-16.13,0-9.41-10.16-14.45-24.5-14.45-39.91,0-67.13,35.62-67.13,69.05,0,20.83,15.24,26.21,29,26.21,17.78,0,30.85-7.9,40.1-21Z"/><path class="cls-2" d="M279.35,485.65c0-17.48,18.15-51.24,49-51.24,12.16,0,20.51,5.71,20.51,18.81,0,16.13-14.16,50.91-47.54,50.91C289.88,504.13,279.35,500.09,279.35,485.65ZM324,442.13c-16.33,0-29.94,24.36-29.94,43,0,6.89,4,11.09,10.16,11.09,18,0,29.94-27.22,29.94-43.18C334.15,446.17,331.61,442.13,324,442.13Z"/><path class="cls-2" d="M394.66,408.53c1.63-2.85,4.17-7.39,4.17-9.4,0-2.19-.36-3.53-6.89-7.23l.72-2,27.4-6.89,1.82,1.17L368,477.92c-3.81,6.55-5.81,9.74-5.81,11.93,0,2,1.63,3.19,4.17,3.19,6.17,0,12.34-5.55,17.06-12.43l2.54.84c-7.44,13.1-16.87,22.84-29.94,22.84-6.35,0-9.61-2.85-9.61-7.56s2.54-9.07,6.16-15.28Z"/><path class="cls-2" d="M392.59,485.65c0-17.48,18.14-51.24,49-51.24,12.15,0,20.5,5.71,20.5,18.81,0,16.13-14.15,50.91-47.54,50.91C403.11,504.13,392.59,500.09,392.59,485.65Zm44.63-43.52c-16.33,0-29.94,24.36-29.94,43,0,6.89,4,11.09,10.16,11.09,18,0,29.94-27.22,29.94-43.18C447.38,446.17,444.84,442.13,437.22,442.13Z"/><path class="cls-2" d="M520.05,493c4,0,9.43-5.21,15.06-14.62l2.17,1.51c-5.08,9.24-14.87,24.36-25.94,24.36-5.44,0-9.26-3.19-9.26-8.73,0-12.6,24.14-34.27,24.14-44.52,0-3-1.82-4.71-5.45-4.71-13.6,0-31.75,27.89-38.46,40.16a111.52,111.52,0,0,0-8,16.8h-15.6c8-13.61,19.78-32.76,26.67-44.52,3.45-5.88,4.72-8.91,4.72-10.59a2.26,2.26,0,0,0-2.54-2.52c-3.45,0-9.07,7.06-15.24,14.45l-2.18-1.68c9.62-11.42,18.51-24,29.21-24,4.36,0,6.35,2.85,6.35,5.88,0,6.21-8,17.64-15.24,27.72h1.27c13.25-18.15,24.86-33.6,38.29-33.6,7.25,0,11.43,3.52,11.43,9.57,0,16.13-24.5,34.27-24.5,45.53C517,491.86,518.05,493,520.05,493Z"/><path class="cls-2" d="M559.69,471.2a28.36,28.36,0,0,0-1.27,8.73c0,8.91,3.81,14.28,12.34,14.28,8,0,15.42-5.54,21.23-13.6l2.54.84c-8.35,15.45-19.78,22.68-31.57,22.68-12.71,0-18.87-8.4-18.87-19.32,0-21,23-50.4,48.44-50.4,7.26,0,15.42,2.68,15.42,10.41C608,459.44,588.36,467.84,559.69,471.2Zm1.45-4.37c25.4-2.52,33.75-12.26,33.75-19.49,0-3.69-2.54-5.54-7.26-5.54C576.75,441.8,565.5,453.89,561.14,466.83Z"/><path class="cls-2" d="M649.59,408.53c1.63-2.85,4.17-7.39,4.17-9.4,0-2.19-.36-3.53-6.89-7.23l.73-2L675,383l1.82,1.17-53.89,93.75c-3.81,6.55-5.81,9.74-5.81,11.93,0,2,1.64,3.19,4.18,3.19,6.17,0,12.33-5.55,17.05-12.43l2.54.84c-7.44,13.1-16.87,22.84-29.94,22.84-6.35,0-9.61-2.85-9.61-7.56s2.54-9.07,6.17-15.28Z"/><path class="cls-2" d="M767,444.82a1,1,0,0,0-.18.67c0,.51.9,1,2.17,1.52,6.36,2.68,11.62,7.39,11.62,17.3,0,17.81-13.43,39.82-59.7,39.82-14,0-31.39-.84-42.82-.84l1.09-3.87c13.61-2.18,17.06-8.06,23-19.32l35.93-68.54a16.22,16.22,0,0,0,2.18-7.23c0-3-3.27-5.54-10-7.05l1.63-3.86c14.7,0,28.31-.85,36.83-.85,19.42,0,32.3,5,32.3,19.66C801.09,429.37,785.85,443,767,444.82Zm-2.36,19.66c0-10.75-5.26-15.29-15.6-15.29-5.45,0-12,.17-16,.34L709.28,496.4a120.19,120.19,0,0,0,14,.84C755,497.24,764.62,478.42,764.62,464.48Zm-19.23-21.84c21,0,40.28-10.59,40.28-29.57,0-11.59-8-14.95-17.78-14.95-2.54,0-5.27.34-9.08.5l-22.31,44Z"/><path class="cls-2" d="M817,468.17c14.7-19.65,23.95-33.76,35.57-33.76,2.72,0,4.35.84,4.35,3.19,0,5.21-3.63,10.92-7.08,14.45-17.78,0-35,20-44.81,39.48a125.13,125.13,0,0,0-5.26,11.76H784.12c8.71-14.62,21-35,27.76-46.37,2.54-4.37,3.63-7.23,3.63-8.74a2.42,2.42,0,0,0-2.54-2.52c-3.26,0-8.16,5.88-15.24,14.45l-2.18-1.68c10.71-12.94,19.05-24,29-24,3.09,0,6.54,1.34,6.54,6.21,0,5.38-8.35,17.31-15.43,27.55Z"/><path class="cls-2" d="M893.62,493c3.45,0,8.53-5.71,13.25-12.43l2.54.84c-6.9,12.26-17.06,22.84-26.68,22.84-4.71,0-7.43-2.52-7.43-6.72,0-4.36,2.35-8.23,5.8-13.27l9.26-13.61h-1.28c-7.43,10.25-24,33.27-37.74,33.27-6.53,0-10-3.87-10-9.75,0-23.18,32.66-59.8,57.69-59.8,6.72,0,12.89,1.68,16.15,3.52,3.27-1.84,6.35-3.52,8.35-3.52,1.27,0,2.9,1.17,2.36,2.52-12,13.1-34.84,45-34.84,53.76C891.08,492.2,892,493,893.62,493Zm-.18-51.91c-16.69,0-37.56,31.75-37.56,46.36,0,3.53,2,4.88,4.54,4.88s6.35-2,10-5.38c10.34-9.58,25.58-28.06,35.38-42.34C902.88,442.47,898.16,441.13,893.44,441.13Z"/><path class="cls-2" d="M974.87,493c4,0,9.43-5.21,15.06-14.62l2.17,1.51c-5.08,9.24-14.87,24.36-25.94,24.36-5.45,0-9.25-3.19-9.25-8.73C956.91,483,981,461.29,981,451c0-3-1.82-4.71-5.45-4.71-13.6,0-31.75,27.89-38.46,40.16a111.52,111.52,0,0,0-8,16.8h-15.6c8-13.61,19.78-32.76,26.67-44.52,3.45-5.88,4.72-8.91,4.72-10.59a2.26,2.26,0,0,0-2.54-2.52c-3.45,0-9.07,7.06-15.24,14.45L925,458.43c9.62-11.42,18.51-24,29.21-24,4.36,0,6.35,2.85,6.35,5.88,0,6.21-8,17.64-15.24,27.72h1.27c13.25-18.15,24.86-33.6,38.29-33.6,7.25,0,11.43,3.52,11.43,9.57,0,16.13-24.5,34.27-24.5,45.53C971.78,491.86,972.87,493,974.87,493Z"/><path class="cls-2" d="M1053.14,477.41c-2,3.36-6.17,9.41-6.17,12.6,0,2,1.81,3,4,3,6.35,0,12.7-5.71,17.24-12.43l2.54.84c-8.35,14.95-18.51,22.84-29.4,22.84-6.71,0-10.16-2.35-10.16-7.89s5.81-15.63,12.34-25.71h-1.27c-8,11.09-24.13,33.27-37.74,33.27-6.71,0-10-3.87-10-9.75,0-23.18,32.3-59.8,58.06-59.8a35.67,35.67,0,0,1,10.89,1.68c5.81-9.92,12.52-21.51,16.15-27.56,1.63-2.85,4.17-7.39,4.17-9.4,0-2.36-.72-3.87-7.07-7.23l.9-2L1105,383l1.82,1.17Zm-7.08-36.28c-15.42,0-37,31.08-37,47.2,0,2.86,1.45,4,4.17,4,9.25,0,34.11-30.58,45.72-47.72C1055.68,442.47,1050.42,441.13,1046.06,441.13Z"/><path class="cls-2" d="M1075.53,485.65c0-17.48,18.14-51.24,49-51.24,12.16,0,20.51,5.71,20.51,18.81,0,16.13-14.15,50.91-47.54,50.91C1086.05,504.13,1075.53,500.09,1075.53,485.65Zm44.63-43.52c-16.33,0-29.94,24.36-29.94,43,0,6.89,4,11.09,10.16,11.09,18,0,29.94-27.22,29.94-43.18C1130.32,446.17,1127.78,442.13,1120.16,442.13Z"/><path class="cls-2" d="M1203,493c4,0,9.43-5.21,15-14.62l2.18,1.51c-5.08,9.24-14.88,24.36-25.94,24.36-5.45,0-9.26-3.19-9.26-8.73,0-12.6,24.13-34.27,24.13-44.52,0-3-1.81-4.71-5.44-4.71-13.61,0-31.75,27.89-38.46,40.16a111.52,111.52,0,0,0-8,16.8h-15.6c8-13.61,19.78-32.76,26.67-44.52,3.45-5.88,4.72-8.91,4.72-10.59a2.26,2.26,0,0,0-2.54-2.52c-3.45,0-9.07,7.06-15.24,14.45l-2.18-1.68c9.62-11.42,18.51-24,29.21-24,4.36,0,6.35,2.85,6.35,5.88,0,6.21-8,17.64-15.24,27.72h1.27c13.25-18.15,24.86-33.6,38.28-33.6,7.26,0,11.44,3.52,11.44,9.57,0,16.13-24.5,34.27-24.5,45.53C1199.9,491.86,1201,493,1203,493Z"/><path class="cls-2" d="M264.41,644.73,258.27,667c-9.54,4.26-21,7.1-36.47,7.1-34.59,0-55.22-19.88-55.22-52.07,0-29.67,19.6-54.29,59.65-54.29a117.56,117.56,0,0,1,33.58,4.89l.68,26.51-6.48.16c-3.41-18.15-15.34-24.14-31.53-24.14-26.58,0-40.22,18.78-40.22,46.24,0,25.72,14.49,45,41.42,45,15.68,0,28.29-6.15,34.42-23.2Z"/><path class="cls-2" d="M371.27,664.61,386.44,667v5.52H341.61V667c12.27-2.52,14.15-5.84,14.15-18.46V624.06H300.54v40.55l17.9,2.37v5.52H272.59V667c11.59-3,12.61-6.15,12.61-18.46v-71l-12.78-2.06V569.3h43.29v6.15l-15.17,2.06V617h55.39V577.51l-15.68-2.06V569.3h43.12v6.15c-9.38,1.58-12.1,3.32-12.1,11.68Z"/><path class="cls-2" d="M468.82,637.47H427.41l-10.74,27.3L435.08,667v5.52H397.41V667c10.06-1.73,11.76-5.84,18.75-23.35l28.46-71.17L459.28,566l37,98.62L507.68,667v5.52H461.32V667c15.34-1.58,17.56-5.21,11.59-19.57Zm-2.38-7.1-17.56-48.92-18.74,48.92Z"/><path class="cls-2" d="M518.59,666.82c11.59-3,12.44-6.15,12.44-18.46V576.72l-12.61-2.05V569.3h41.41c25,0,43.12,7.57,43.12,28.88,0,20.67-15.51,31.56-41.25,31.56a130.09,130.09,0,0,1-15.5-1v35l17.55,2.84v5.83H518.59Zm27.78-45.76a47,47,0,0,0,15,2.21c16.88,0,24.89-9.31,24.89-24.46,0-15.62-9-23.36-26.59-23.36a72.7,72.7,0,0,0-13.29,1.27Z"/><path class="cls-2" d="M637.85,666.67c11.59-3,14.32-5.84,14.32-18.15V576.24H637.51c-15.34,0-16.7,8-19.6,20.52l-7-1,2.56-27.14c17.72.79,32,.79,54.37.79,16.19,0,28.63-.16,37.32-.79l2.73,26.83-6.82,1.26c-3.92-12.31-5.8-20.36-18.58-20.52h-15v86.32l16.36,4.11v5.83h-46Z"/><path class="cls-2" d="M744.78,615.85c7.67,0,15.17,0,21-.16,7.33-.15,8.52-3.78,9.54-11.67h5.8V635.1h-5.8c-1-7.25-2.21-11-9.54-11.36-6.13-.31-13.29-.47-21-.47v41a240,240,0,0,0,27.44,1.58c11.24,0,14.65-4,19.25-21.46l6,.15-2.22,27.93H717v-5.83c11.42-2.53,12.44-5.84,12.44-18.15v-71.8l-12.61-2.05V569.3H791.3L793,595.81l-7.67.32c-1.88-11.52-4.26-18.15-18.24-18.62-7.49-.32-14.82-.48-22.32-.64Z"/><path class="cls-2" d="M882.23,650.73c7.5,9.47,13.46,15.62,24.88,17.36l-.85,5.52c-7.67-.47-19.43-1.11-27.1-1.11-6.65-8.52-22-34.08-30.51-45.13H835.87v36.46l17.39,2.84v5.83H808.09v-5.83c11.42-2.84,12.44-5.84,12.44-18.15v-71.8l-12.61-2.05V569.3h41.42c24.88,0,43.11,7.57,43.11,28.72,0,10.1-6.3,23.67-27.26,27.77C870.64,633.53,876.6,643.63,882.23,650.73Zm-46.36-74v43.39A123.09,123.09,0,0,0,850,621.22c17.55,0,25.73-9.31,25.73-22.88,0-14.21-8.35-22.89-26.24-22.89A78,78,0,0,0,835.87,576.72Z"/><path class="cls-2" d="M996.76,616.17l33.4,47.5,12.44,3v5.83H995.22v-5.36l15.34-3.47L987,630.05l-23.69,33.78,16.36,2.84v5.83H941v-5.83c9-.79,11.93-2.53,16.53-9L981.93,623l-31.7-45.29-11.42-1.89v-6.63h46v6.31l-15.17,2.21,22.16,31.41,21.47-30.93-11.42-2.21v-6.79h34.43v6.79c-10.23,1.26-13.81,3.78-19.26,11.52Z"/><path class="cls-2" d="M1105.78,616.17l33.4,47.5,12.44,3v5.83h-47.37v-5.36l15.33-3.47-23.51-33.62-23.69,33.78,16.36,2.84v5.83h-38.69v-5.83c9-.79,11.93-2.53,16.53-9L1091,623l-31.7-45.29-11.41-1.89v-6.63h46v6.31l-15.17,2.21,22.16,31.41,21.47-30.93-11.42-2.21v-6.79h34.43v6.79c-10.23,1.26-13.81,3.78-19.26,11.52Z"/><path class="cls-2" d="M1201.63,569.3v6L1189,577.35v86.16l12.61,3.16v5.83h-40.56v-5.83c11.59-1.74,12.61-6.16,12.61-18.47V577.35l-12.61-2.05v-6Z"/><path class="cls-2" d="M221.93,205.83v9.51h-1.19v-8.48l-3.23,8.48h-.77l-3.26-8.49v8.49h-1.19v-9.51h1.93l2.9,7.63,2.9-7.63Z"/><path class="cls-2" d="M225.89,215.34h-1.18v-9.51h1.18Z"/><path class="cls-2" d="M234.42,214.33v1h-5.77v-9.51h1.2v8.5Z"/><path class="cls-2" d="M242.06,212.72h-4.19l-1,2.62h-1.26l3.75-9.51h1.28l3.62,9.51H243Zm-.36-1L240,207l-1.76,4.68Z"/><path class="cls-2" d="M249.13,212.51h1.24c.19,1.34,1.18,2,2.72,2s2.38-.71,2.38-1.64-.56-1.33-1.66-1.58l-2.22-.49a2.39,2.39,0,0,1-2.15-2.41c0-1.54,1.3-2.73,3.4-2.73s3.52.88,3.73,2.83h-1.25c-.18-1.26-1.11-1.84-2.51-1.84s-2.13.7-2.13,1.6c0,.69.35,1.16,1.44,1.42l2.15.49c1.54.34,2.45,1.19,2.45,2.54,0,1.67-1.3,2.81-3.63,2.81C250.6,215.51,249.32,214.43,249.13,212.51Z"/><path class="cls-2" d="M266.62,211.64c0,2.58-1.53,3.87-3.92,3.87s-3.94-1.31-3.94-3.87v-5.81h1.18v5.81a2.57,2.57,0,0,0,2.77,2.83,2.54,2.54,0,0,0,2.74-2.77v-5.87h1.17Z"/><path class="cls-2" d="M276.4,208.47c0,1.57-1.08,2.71-3.25,2.71h-2.64v4.16h-1.19v-9.51h3.93C275.42,205.83,276.4,206.83,276.4,208.47Zm-1.19,0c0-1.06-.66-1.65-2.16-1.65h-2.54v3.36h2.54C274.55,210.18,275.21,209.5,275.21,208.47Z"/><path class="cls-2" d="M279.45,206.83V210h4.81v1h-4.81v3.36h5.39v1h-6.57v-9.51h6.57v1Z"/><path class="cls-2" d="M290.15,211.18h-2.06v4.16H286.9v-9.51h3.91c2.17,0,3.17,1,3.17,2.62,0,1.43-.79,2.39-2.55,2.6l3.06,4.29h-1.33Zm-2.06-1h2.58c1.39,0,2.12-.63,2.12-1.73s-.76-1.63-2.15-1.63h-2.55Z"/><path class="cls-2" d="M301.48,215.34H300.3v-9.51h1.18Z"/><path class="cls-2" d="M310.77,206.81h-3.15v8.53h-1.18v-8.53h-3.16v-1h7.49Z"/><path class="cls-2" d="M316.86,212.72h-4.19l-1,2.62h-1.26l3.75-9.51h1.28l3.62,9.51h-1.26Zm-.36-1L314.8,207,313,211.72Z"/><path class="cls-2" d="M326.61,214.33v1h-5.77v-9.51H322v8.5Z"/><path class="cls-2" d="M329.57,215.34h-1.18v-9.51h1.18Z"/><path class="cls-2" d="M331.8,210.59c0-2.87,1.73-4.93,4.41-4.93a3.67,3.67,0,0,1,4.05,3.21H339a2.54,2.54,0,0,0-2.8-2.22c-1.79,0-3.22,1.54-3.22,3.94s1.43,3.92,3.22,3.92a2.55,2.55,0,0,0,2.81-2.2h1.25c-.42,2-1.6,3.2-4.06,3.2C333.55,215.51,331.8,213.46,331.8,210.59Z"/><path class="cls-2" d="M357.93,359.83v9.51h-1.19v-8.48l-3.23,8.48h-.77l-3.26-8.49v8.49h-1.19v-9.51h1.93l2.9,7.63,2.9-7.63Z"/><path class="cls-2" d="M361.89,369.34h-1.18v-9.51h1.18Z"/><path class="cls-2" d="M370.42,368.33v1h-5.77v-9.51h1.2v8.5Z"/><path class="cls-2" d="M378.06,366.72h-4.19l-1,2.62h-1.26l3.75-9.51h1.28l3.62,9.51H379Zm-.36-1L376,361l-1.76,4.68Z"/><path class="cls-2" d="M389.12,365.18h-2.06v4.16h-1.19v-9.51h3.91c2.17,0,3.16,1,3.16,2.62,0,1.43-.78,2.39-2.55,2.6l3.07,4.29h-1.33Zm-2.06-1h2.58c1.38,0,2.11-.63,2.11-1.73s-.75-1.63-2.14-1.63h-2.55Z"/><path class="cls-2" d="M396.51,360.83V364h4.8v1h-4.8v3.36h5.39v1h-6.57v-9.51h6.57v1Z"/><path class="cls-2" d="M412,364.41l0,4.93h-1.05V367.6a3.12,3.12,0,0,1-3.13,1.91c-2.68,0-4.47-2-4.47-4.92s1.78-4.93,4.44-4.93a3.75,3.75,0,0,1,4,2.73H410.5a2.62,2.62,0,0,0-2.75-1.74c-1.9,0-3.23,1.5-3.23,3.94s1.3,3.92,3.28,3.92a2.88,2.88,0,0,0,3.05-3.11h-3.32v-1Z"/><path class="cls-2" d="M422.16,365.64c0,2.58-1.53,3.87-3.93,3.87s-3.93-1.31-3.93-3.87v-5.81h1.17v5.81a2.57,2.57,0,0,0,2.78,2.83A2.54,2.54,0,0,0,421,365.7v-5.87h1.18Z"/><path class="cls-2" d="M430.63,368.33v1h-5.77v-9.51h1.2v8.5Z"/><path class="cls-2" d="M438.27,366.72h-4.19l-1,2.62h-1.26l3.75-9.51h1.28l3.62,9.51h-1.26Zm-.36-1-1.7-4.68-1.76,4.68Z"/><path class="cls-2" d="M445.5,365.18h-2.06v4.16h-1.19v-9.51h3.91c2.17,0,3.16,1,3.16,2.62,0,1.43-.78,2.39-2.55,2.6l3.07,4.29h-1.33Zm-2.06-1H446c1.38,0,2.11-.63,2.11-1.73s-.75-1.63-2.14-1.63h-2.55Z"/><path class="cls-2" d="M626.93,695.83v9.51h-1.19v-8.48l-3.23,8.48h-.77l-3.26-8.49v8.49h-1.19v-9.51h1.93l2.9,7.63,2.9-7.63Z"/><path class="cls-2" d="M630.89,705.34h-1.18v-9.51h1.18Z"/><path class="cls-2" d="M639.42,704.33v1h-5.77v-9.51h1.2v8.5Z"/><path class="cls-2" d="M647.06,702.72h-4.19l-1,2.62h-1.26l3.75-9.51h1.28l3.62,9.51H648Zm-.36-1L645,697l-1.76,4.68Z"/><path class="cls-2" d="M656.05,705.34h-1.18v-9.51h1.18Z"/><path class="cls-2" d="M665.34,696.81h-3.15v8.53H661v-8.53h-3.16v-1h7.49Z"/><path class="cls-2" d="M671.43,702.72h-4.19l-1,2.62H665l3.75-9.51H670l3.62,9.51h-1.26Zm-.36-1-1.7-4.68-1.76,4.68Z"/><path class="cls-2" d="M681.18,704.33v1h-5.77v-9.51h1.2v8.5Z"/><path class="cls-2" d="M684.14,705.34H683v-9.51h1.18Z"/><path class="cls-2" d="M686.37,700.59c0-2.87,1.73-4.93,4.41-4.93a3.67,3.67,0,0,1,4.05,3.21h-1.25a2.54,2.54,0,0,0-2.8-2.22c-1.79,0-3.22,1.54-3.22,3.94s1.43,3.92,3.22,3.92a2.55,2.55,0,0,0,2.81-2.2h1.25c-.42,2-1.6,3.2-4.06,3.2C688.12,705.51,686.37,703.46,686.37,700.59Z"/><path class="cls-2" d="M486.93,528.83v9.51h-1.19v-8.48l-3.23,8.48h-.77l-3.26-8.49v8.49h-1.19v-9.51h1.93l2.9,7.63,2.9-7.63Z"/><path class="cls-2" d="M490.89,538.34h-1.18v-9.51h1.18Z"/><path class="cls-2" d="M499.42,537.33v1h-5.77v-9.51h1.2v8.5Z"/><path class="cls-2" d="M507.06,535.72h-4.19l-1,2.62h-1.26l3.75-9.51h1.28l3.62,9.51H508Zm-.36-1L505,530l-1.76,4.68Z"/><path class="cls-2" d="M514.13,535.51h1.24c.19,1.34,1.18,2,2.72,2s2.38-.71,2.38-1.64-.56-1.33-1.66-1.58l-2.22-.49a2.39,2.39,0,0,1-2.15-2.41c0-1.54,1.3-2.73,3.4-2.73s3.52.88,3.73,2.83h-1.25c-.18-1.26-1.11-1.84-2.51-1.84s-2.13.7-2.13,1.6c0,.69.35,1.16,1.44,1.42l2.15.49c1.54.34,2.45,1.19,2.45,2.54,0,1.67-1.3,2.81-3.63,2.81C515.6,538.51,514.32,537.43,514.13,535.51Z"/><path class="cls-2" d="M531.62,534.64c0,2.58-1.53,3.87-3.92,3.87s-3.94-1.31-3.94-3.87v-5.81h1.18v5.81a2.57,2.57,0,0,0,2.77,2.83,2.54,2.54,0,0,0,2.74-2.77v-5.87h1.17Z"/><path class="cls-2" d="M541.4,531.47c0,1.57-1.08,2.71-3.25,2.71h-2.64v4.16h-1.19v-9.51h3.93C540.42,528.83,541.4,529.83,541.4,531.47Zm-1.19,0c0-1.06-.66-1.65-2.16-1.65h-2.54v3.36h2.54C539.55,533.18,540.21,532.5,540.21,531.47Z"/><path class="cls-2" d="M544.45,529.83V533h4.81v1h-4.81v3.36h5.39v1h-6.57v-9.51h6.57v1Z"/><path class="cls-2" d="M555.15,534.18h-2.06v4.16H551.9v-9.51h3.91c2.17,0,3.17,1,3.17,2.62,0,1.43-.79,2.39-2.55,2.6l3.06,4.29h-1.33Zm-2.06-1h2.58c1.39,0,2.12-.63,2.12-1.73s-.76-1.63-2.15-1.63h-2.55Z"/><path class="cls-2" d="M566.48,538.34H565.3v-9.51h1.18Z"/><path class="cls-2" d="M575.77,529.81h-3.15v8.53h-1.18v-8.53h-3.16v-1h7.49Z"/><path class="cls-2" d="M581.86,535.72h-4.19l-1,2.62h-1.26l3.75-9.51h1.28l3.62,9.51h-1.26Zm-.36-1L579.8,530,578,534.72Z"/><path class="cls-2" d="M591.61,537.33v1h-5.77v-9.51H587v8.5Z"/><path class="cls-2" d="M594.57,538.34h-1.18v-9.51h1.18Z"/><path class="cls-2" d="M596.8,533.59c0-2.87,1.73-4.93,4.41-4.93a3.67,3.67,0,0,1,4,3.21H604a2.54,2.54,0,0,0-2.8-2.22c-1.79,0-3.22,1.54-3.22,3.94s1.43,3.92,3.22,3.92a2.55,2.55,0,0,0,2.81-2.2h1.25c-.42,2-1.6,3.2-4.06,3.2C598.55,538.51,596.8,536.46,596.8,533.59Z"/><path class="cls-2" d="M391.75,115.24l19.41,10.25c11.25,5.88,19.78,15,19.78,28.05,0,18.82-13.25,30.75-39.92,30.75-10.52,0-25-3.19-31.93-7.9-.55-8.73-1.09-19-.37-27.38h7.08c2.18,15.29,9.8,26.88,27.22,26.88,12.88,0,20.5-7.06,20.5-18.48s-8.71-17.14-18.69-22.18l-16.69-8.4C366.34,121,360,111,360,99.62c0-18.32,16.33-28.56,35.93-28.56a106.6,106.6,0,0,1,31.39,5l.91,27-7.44.17c-2-13.27-8.53-24.19-25.59-24.19-14.15,0-19.59,7.22-19.59,16.8C375.6,103.82,382.49,110.37,391.75,115.24Z"/><path class="cls-2" d="M84.41,123.16a4.92,4.92,0,1,1-4.93-4.93A4.91,4.91,0,0,1,84.41,123.16Zm-.83,0a4.09,4.09,0,1,0-8.18,0,4.09,4.09,0,0,0,8.18,0Zm-1,0a3.09,3.09,0,0,1-6.17,0h.49a2.62,2.62,0,0,0,5.19,0Zm-4.81-1.68c0-.54.18-1,.52-1s.48.42.48,1-.16,1-.48,1S77.75,122.07,77.75,121.52Zm2.45,0c0-.54.16-1,.48-1s.52.42.52,1-.18,1-.52,1S80.2,122.07,80.2,121.52Z"/><path class="cls-2" d="M92.86,118.38v9.52H91.65v-7.5a3,3,0,0,1-2.17.6v-1c1.63,0,2.12-.65,2.36-1.64Z"/><path class="cls-2" d="M102,124.8a3.1,3.1,0,0,1-3.29,3.26c-2.73,0-3.52-2.42-3.52-5,0-3.39,1.75-4.84,3.66-4.84a2.7,2.7,0,0,1,3,2.43h-1.19a1.66,1.66,0,0,0-1.81-1.43c-1.6,0-2.49,1.5-2.49,3.56v.2a2.59,2.59,0,0,1,2.46-1.33A3,3,0,0,1,102,124.8Zm-1.16,0a2,2,0,0,0-2.09-2.14,2.1,2.1,0,0,0-2.18,2.14,2.17,2.17,0,0,0,2.18,2.25A2.09,2.09,0,0,0,100.81,124.8Z"/><path class="cls-2" d="M110.57,125.28c0,1.61-1.43,2.78-3.41,2.78s-3.44-1.17-3.44-2.78a2.43,2.43,0,0,1,1.84-2.36,2.2,2.2,0,0,1-1.54-2.11c0-1.49,1.3-2.59,3.14-2.59s3.12,1.1,3.12,2.59a2.21,2.21,0,0,1-1.54,2.11A2.4,2.4,0,0,1,110.57,125.28Zm-1.3,0a1.86,1.86,0,0,0-2.11-1.8c-1.27,0-2.13.71-2.13,1.8s.86,1.81,2.13,1.81A1.86,1.86,0,0,0,109.27,125.23Zm-4-4.38a1.93,1.93,0,0,0,3.8,0,1.92,1.92,0,0,0-3.8,0Z"/><path class="cls-2" d="M123.75,121c0,1.57-1.08,2.71-3.25,2.71h-2.64v4.16h-1.19v-9.52h3.93C122.77,118.38,123.75,119.39,123.75,121Zm-1.19,0c0-1.06-.66-1.65-2.16-1.65h-2.54v3.36h2.54C121.9,122.74,122.56,122.05,122.56,121Z"/><path class="cls-2" d="M132.44,119.37h-3.15v8.53h-1.18v-8.53H125v-1h7.49Z"/><path class="cls-2" d="M133.52,125.07h1.24c.19,1.34,1.18,2,2.72,2s2.38-.72,2.38-1.64-.56-1.33-1.66-1.58l-2.22-.49a2.4,2.4,0,0,1-2.15-2.41c0-1.54,1.3-2.73,3.4-2.73s3.52.88,3.73,2.83h-1.25c-.18-1.26-1.11-1.84-2.51-1.84s-2.13.7-2.13,1.6c0,.68.35,1.16,1.45,1.41l2.14.49c1.54.35,2.45,1.19,2.45,2.55,0,1.67-1.3,2.8-3.63,2.8C135,128.06,133.71,127,133.52,125.07Z"/><path class="cls-2" d="M1242.51,284.16a4.92,4.92,0,1,1-4.93-4.93A4.91,4.91,0,0,1,1242.51,284.16Zm-.82,0a4.09,4.09,0,1,0-8.18,0,4.09,4.09,0,0,0,8.18,0Zm-1,0a3.08,3.08,0,0,1-6.16,0h.49a2.62,2.62,0,0,0,5.18,0Zm-4.8-1.68c0-.54.18-1,.52-1s.47.42.47,1-.15,1-.47,1S1235.86,283.07,1235.86,282.52Zm2.45,0c0-.54.15-1,.48-1s.51.42.51,1-.18,1-.51,1S1238.31,283.07,1238.31,282.52Z"/><path class="cls-2" d="M1251,279.38v9.52h-1.2v-7.5a3,3,0,0,1-2.17.6v-1c1.62,0,2.11-.65,2.35-1.64Z"/><path class="cls-2" d="M1260,286.58h-1.24v2.32h-1.2v-2.32h-4.78v-1l4.22-6.22h1.76v6.22H1260Zm-2.44-1v-5.32l-3.61,5.32Z"/><path class="cls-2" d="M1268.47,286.28c0,1.61-1.43,2.78-3.42,2.78s-3.43-1.17-3.43-2.78a2.42,2.42,0,0,1,1.83-2.36,2.21,2.21,0,0,1-1.54-2.11c0-1.49,1.3-2.59,3.14-2.59s3.12,1.1,3.12,2.59a2.2,2.2,0,0,1-1.54,2.11A2.41,2.41,0,0,1,1268.47,286.28Zm-1.31,0a1.86,1.86,0,0,0-2.11-1.8c-1.26,0-2.13.71-2.13,1.8a2.15,2.15,0,0,0,4.24,0Zm-4-4.38a1.7,1.7,0,0,0,1.91,1.61,1.69,1.69,0,0,0,1.89-1.61,1.92,1.92,0,0,0-3.8,0Z"/><path class="cls-2" d="M1281.64,282c0,1.57-1.08,2.71-3.25,2.71h-2.63v4.16h-1.19v-9.52h3.92C1280.66,279.38,1281.64,280.39,1281.64,282Zm-1.19,0c0-1.06-.66-1.65-2.16-1.65h-2.53v3.36h2.53C1279.79,283.74,1280.45,283.05,1280.45,282Z"/><path class="cls-2" d="M1290.33,280.37h-3.15v8.53H1286v-8.53h-3.17v-1h7.49Z"/><path class="cls-2" d="M1291.41,286.07h1.25c.18,1.34,1.18,2,2.72,2s2.38-.72,2.38-1.64-.56-1.33-1.67-1.58l-2.21-.49a2.41,2.41,0,0,1-2.16-2.41c0-1.54,1.3-2.73,3.4-2.73s3.52.88,3.73,2.83h-1.25c-.18-1.26-1.1-1.84-2.5-1.84s-2.13.7-2.13,1.6c0,.68.35,1.16,1.44,1.41l2.14.49c1.54.35,2.45,1.19,2.45,2.55,0,1.67-1.3,2.8-3.62,2.8C1292.88,289.06,1291.61,288,1291.41,286.07Z"/><path class="cls-2" d="M84.41,439.16a4.92,4.92,0,1,1-4.93-4.93A4.91,4.91,0,0,1,84.41,439.16Zm-.83,0a4.09,4.09,0,1,0-8.18,0,4.09,4.09,0,0,0,8.18,0Zm-1,0a3.09,3.09,0,0,1-6.17,0h.49a2.62,2.62,0,0,0,5.19,0Zm-4.81-1.68c0-.54.18-1,.52-1s.48.42.48,1-.16,1-.48,1S77.75,438.07,77.75,437.52Zm2.45,0c0-.54.16-1,.48-1s.52.42.52,1-.18,1-.52,1S80.2,438.07,80.2,437.52Z"/><path class="cls-2" d="M92.86,434.38v9.52H91.65v-7.5a3,3,0,0,1-2.17.6v-1c1.63,0,2.12-.65,2.36-1.64Z"/><path class="cls-2" d="M102,440.8a3.1,3.1,0,0,1-3.29,3.26c-2.73,0-3.52-2.42-3.52-5,0-3.39,1.75-4.84,3.66-4.84a2.7,2.7,0,0,1,3,2.43h-1.19a1.66,1.66,0,0,0-1.81-1.43c-1.6,0-2.49,1.5-2.49,3.56v.2a2.59,2.59,0,0,1,2.46-1.33A3,3,0,0,1,102,440.8Zm-1.16,0a2,2,0,0,0-2.09-2.14,2.1,2.1,0,0,0-2.18,2.14,2.17,2.17,0,0,0,2.18,2.25A2.09,2.09,0,0,0,100.81,440.8Z"/><path class="cls-2" d="M110.57,441.28c0,1.61-1.43,2.78-3.41,2.78s-3.44-1.17-3.44-2.78a2.43,2.43,0,0,1,1.84-2.36,2.2,2.2,0,0,1-1.54-2.11c0-1.49,1.3-2.59,3.14-2.59s3.12,1.1,3.12,2.59a2.21,2.21,0,0,1-1.54,2.11A2.4,2.4,0,0,1,110.57,441.28Zm-1.3,0a1.86,1.86,0,0,0-2.11-1.8c-1.27,0-2.13.71-2.13,1.8s.86,1.81,2.13,1.81A1.86,1.86,0,0,0,109.27,441.23Zm-4-4.38a1.93,1.93,0,0,0,3.8,0,1.92,1.92,0,0,0-3.8,0Z"/><path class="cls-2" d="M123.75,437c0,1.57-1.08,2.71-3.25,2.71h-2.64v4.16h-1.19v-9.52h3.93C122.77,434.38,123.75,435.39,123.75,437Zm-1.19,0c0-1.06-.66-1.65-2.16-1.65h-2.54v3.36h2.54C121.9,438.74,122.56,438.05,122.56,437Z"/><path class="cls-2" d="M132.44,435.37h-3.15v8.53h-1.18v-8.53H125v-1h7.49Z"/><path class="cls-2" d="M133.52,441.07h1.24c.19,1.34,1.18,2,2.72,2s2.38-.72,2.38-1.64-.56-1.33-1.66-1.58l-2.22-.49a2.4,2.4,0,0,1-2.15-2.41c0-1.54,1.3-2.73,3.4-2.73s3.52.88,3.73,2.83h-1.25c-.18-1.26-1.11-1.84-2.51-1.84s-2.13.7-2.13,1.6c0,.68.35,1.16,1.45,1.41l2.14.49c1.54.35,2.45,1.19,2.45,2.55,0,1.67-1.3,2.8-3.63,2.8C135,444.06,133.71,443,133.52,441.07Z"/><path class="cls-2" d="M1242.67,623.16a4.92,4.92,0,1,1-4.93-4.93A4.91,4.91,0,0,1,1242.67,623.16Zm-.83,0a4.09,4.09,0,1,0-8.18,0,4.09,4.09,0,0,0,8.18,0Zm-1,0a3.09,3.09,0,0,1-6.17,0h.49a2.62,2.62,0,0,0,5.19,0Zm-4.81-1.68c0-.54.18-1,.52-1s.48.42.48,1-.16,1-.48,1S1236,622.07,1236,621.52Zm2.45,0c0-.54.16-1,.48-1s.52.42.52,1-.18,1-.52,1S1238.46,622.07,1238.46,621.52Z"/><path class="cls-2" d="M1251.12,618.38v9.52h-1.21v-7.5a3,3,0,0,1-2.17.6v-1c1.63,0,2.12-.65,2.36-1.64Z"/><path class="cls-2" d="M1260.08,624.86a3.09,3.09,0,0,1-3.31,3.2c-2,0-3.36-1.17-3.36-2.91h1.19a2,2,0,0,0,2.19,1.92,2.08,2.08,0,0,0,2.11-2.24,2,2,0,0,0-2.13-2.17,1.89,1.89,0,0,0-1.76.93h-1.38l.37-5.21h5.6v1H1255l-.21,3.2a2.79,2.79,0,0,1,2.23-1A3,3,0,0,1,1260.08,624.86Z"/><path class="cls-2" d="M1268.41,624.86a3.09,3.09,0,0,1-3.3,3.2c-2,0-3.37-1.17-3.37-2.91h1.19a2,2,0,0,0,2.19,1.92,2.07,2.07,0,0,0,2.11-2.24,2,2,0,0,0-2.12-2.17,1.91,1.91,0,0,0-1.77.93H1262l.36-5.21h5.6v1h-4.63l-.21,3.2a2.78,2.78,0,0,1,2.23-1A3,3,0,0,1,1268.41,624.86Z"/><path class="cls-2" d="M1281.49,621c0,1.57-1.08,2.71-3.25,2.71h-2.64v4.16h-1.19v-9.52h3.93C1280.51,618.38,1281.49,619.39,1281.49,621Zm-1.19,0c0-1.06-.66-1.65-2.16-1.65h-2.54v3.36h2.54C1279.64,622.74,1280.3,622.05,1280.3,621Z"/><path class="cls-2" d="M1290.18,619.37H1287v8.53h-1.18v-8.53h-3.16v-1h7.49Z"/><path class="cls-2" d="M1291.26,625.07h1.24c.19,1.34,1.18,2,2.72,2s2.38-.72,2.38-1.64-.56-1.33-1.66-1.58l-2.22-.49a2.4,2.4,0,0,1-2.15-2.41c0-1.54,1.3-2.73,3.4-2.73s3.52.88,3.73,2.83h-1.25c-.18-1.26-1.11-1.84-2.51-1.84s-2.13.7-2.13,1.6c0,.68.35,1.16,1.45,1.41l2.14.49c1.54.35,2.45,1.19,2.45,2.55,0,1.67-1.3,2.8-3.63,2.8C1292.73,628.06,1291.45,627,1291.26,625.07Z"/></g></svg>