<?xml version='1.0' encoding='UTF-8'?>
<svg xmlns="http://www.w3.org/2000/svg" xmlns:xlink="http://www.w3.org/1999/xlink" width="1366px" height="768px" viewBox="0 0 1366 768" x="0px" y="0px" enable-background="new 0 0 1366 768"><defs><symbol overflow="visible" id="201f2c26a"><path d="M25.1-187.77V0h54.76c29.1 0 51.81-22.97 51.81-51.28 0-17.36-8.81-31.78-21.89-38.74 18.95-7.73 28.58-23.23 28.58-43.53 0-29.92-23.24-54.22-56.9-54.22zm20.3 20.3h36.07c22.7 0 36.6 15.22 36.6 33.92 0 18.43-13.9 32.32-35.54 32.32H45.41zm0 86h34.46c16.56 0 31.52 12.56 31.52 30.19 0 17.36-14.96 30.98-31.52 30.98H45.4zm0 0"/></symbol><symbol overflow="visible" id="201f2c26b"><path d="M11.48-93.75c0 53.69 43 96.42 96.7 96.42 53.68 0 96.94-42.73 96.94-96.42 0-53.42-43.26-96.69-96.95-96.69a96.49 96.49 0 00-96.69 96.69zm20.3 0a76.2 76.2 0 0176.4-76.4c42.46 0 76.65 34.2 76.65 76.4 0 42.47-34.19 76.4-76.66 76.4a76.04 76.04 0 01-76.39-76.4zm0 0"/></symbol><symbol overflow="visible" id="201f2c26d"><path d="M25.1-187.77V0h20.3v-134.88l-.26-3.48 67.31 88.4h3.74l67.31-88.4-.28 3.49V0h20.31v-187.77h-9.36L114.31-81.73 33.4-187.77zm0 0"/></symbol><symbol overflow="visible" id="201f2c26e"><path d="M22.44-187.77l1.6 141.57h17.09l1.6-141.57zm-3.2 177.61c0 7.49 5.87 13.36 13.34 13.36 7.48 0 13.36-5.87 13.36-13.36 0-7.46-5.88-13.34-13.36-13.34a13.22 13.22 0 00-13.35 13.34zm0 0"/></symbol><symbol overflow="visible" id="201f2c26c"><path d="M113.52-20.3c-51.29 0-81.47-29.92-81.47-73.45s30.18-73.72 81.47-73.72h162.92c51.28 0 81.47 30.19 81.47 73.72S327.7-20.3 276.44-20.3zM276.44 0C340.28 0 378.2-39 378.2-93.75s-37.92-94.02-101.76-94.02H113.52c-63.85 0-101.77 39.27-101.77 94.02C11.75-39 49.67 0 113.52 0zm0 0"/></symbol><symbol overflow="visible" id="201f2c26g"><path d="M25.1-187.77V0h247.87C312.23 0 336-22.17 336-52.63c0-18.15-8.55-31.78-26.44-38.45 22.44-6.94 32.86-22.44 32.86-43.8 0-30.18-25.1-52.89-63.05-52.89zm20.3 20.3h233.44c26.72 0 42.74 13.9 42.74 32.6 0 18.95-14.95 32.57-42.74 32.57H45.41zm0 84.94h227.3c26.7 0 42.47 11.75 42.47 30.45 0 18.95-14.69 31.78-42.47 31.78H45.4zm0 0"/></symbol><symbol overflow="visible" id="201f2c26f"><path d="M16.3-187.77V0h18.95v-118.33l34.73 82.8h4.54l36.06-82.8V0h18.97v-187.77h-7.22L72.38-73.72 23.23-187.77zm0 0"/></symbol><symbol overflow="visible" id="201f2c26h"><path d="M60.36-190.44c-32.84 0-50.2 37.66-50.2 96.69 0 58.77 17.36 96.69 50.2 96.69 33.12 0 50.75-37.92 50.75-96.69 0-59.03-17.63-96.69-50.75-96.69zm0 20.03c20.56 0 30.45 26.99 30.45 76.66s-9.6 76.66-30.45 76.66c-19.77 0-29.9-26.99-29.9-76.66s9.87-76.66 29.9-76.66zm0 0"/></symbol></defs><path fill="red" d="M0 0h1366v768H0z"/><g fill="#fff"><use xlink:href="#201f2c26a" x="48.376" y="264.9971"/><use xlink:href="#201f2c26b" x="200.355445" y="264.9971"/></g><use xlink:href="#201f2c26c" x="417.239995" y="264.9971" fill="#fff"/><g fill="#fff"><use xlink:href="#201f2c26d" x="807.204827" y="264.9971"/><use xlink:href="#201f2c26e" x="1035.841742" y="264.9971"/></g><g fill="#fff"><use xlink:href="#201f2c26a" x="48.376" y="480.011956"/><use xlink:href="#201f2c26b" x="200.355445" y="480.011956"/></g><use xlink:href="#201f2c26c" x="417.239995" y="480.011956" fill="#fff"/><use xlink:href="#201f2c26f" x="807.204827" y="480.011956" fill="#fff"/><use xlink:href="#201f2c26e" x="953.04099" y="480.011956" fill="#fff"/><use xlink:href="#201f2c26g" x="48.376" y="695.82811" fill="#fff"/><use xlink:href="#201f2c26b" x="403.617936" y="695.82811" fill="#fff"/><g fill="#fff"><use xlink:href="#201f2c26h" x="620.502486" y="695.82811"/><use xlink:href="#201f2c26f" x="741.765523" y="695.82811"/></g><use xlink:href="#201f2c26e" x="887.601686" y="695.82811" fill="#fff"/></svg>